<?xml version="1.0" encoding="utf-8"?>
<!-- Generator: Adobe Illustrator 18.1.1, SVG Export Plug-In . SVG Version: 6.00 Build 0)  -->
<svg version="1.1" id="Layer_1" xmlns="http://www.w3.org/2000/svg" xmlns:xlink="http://www.w3.org/1999/xlink" x="0px" y="0px"
	 viewBox="0 0 22 49" enable-background="new 0 0 22 49" xml:space="preserve">
<g>
	<path d="M21.3,13.3l-5.4-3.2c0.3-0.9,0.7-2.3,0.7-4.1c0,0,0-0.1,0-0.1c0-1.7-0.5-3.2-1.5-4.3c-1-1.1-2.5-1.6-3.9-1.6c0,0,0,0,0,0
		l0,0C9.7,0,8.2,0.5,7.2,1.6C6.2,2.7,5.7,4.2,5.7,6c0,1.7,0.3,3.1,0.7,4.1l-5.6,3.2C0.3,13.6,0,14.1,0,14.6v3.6
		c0,0.4,0.2,0.8,0.4,1.1c0.3,0.3,0.7,0.4,1.1,0.4h19c0.4,0,0.8-0.2,1.1-0.4c0.3-0.3,0.4-0.7,0.4-1.1v-3.6
		C22,14.1,21.7,13.6,21.3,13.3z M19,16.7H3v-1.2L9,12c0.3-0.2,0.6-0.5,0.7-0.9c0.1-0.4,0-0.8-0.2-1.2c0,0,0,0-0.1-0.2
		C9.3,9.3,8.7,7.9,8.7,6c0-1.3,0.3-2,0.7-2.4C9.8,3.2,10.3,3,11.1,3l0,0h0c0,0,0,0,0.1,0c0.9,0,1.4,0.2,1.7,0.6
		C13.3,4,13.6,4.7,13.6,6c0-0.1,0-0.1,0-0.2c0,0.1,0,0.1,0,0.2h0c0,1.3-0.2,2.3-0.5,3c-0.1,0.3-0.2,0.6-0.3,0.8
		c-0.1,0.2-0.1,0.2-0.1,0.2c-0.2,0.3-0.3,0.8-0.2,1.1c0.1,0.4,0.3,0.7,0.7,0.9l5.8,3.5V16.7z M20.5,21.8h-19c-0.4,0-0.8,0.2-1.1,0.4
		C0.2,22.5,0,22.9,0,23.3v20.6C0,46.7,2.2,49,5,49c0,0,0,0,0.1,0h11.8c2.8,0,5.1-2.3,5.1-5.1c0,0,0,0,0,0c0,0,0,0,0,0l0-20.6
		c0-0.4-0.2-0.8-0.4-1.1C21.3,22,20.9,21.8,20.5,21.8z M19,27.8l-3,0c-0.8,0-1.5,0.7-1.5,1.5c0,0.8,0.7,1.5,1.5,1.5l3,0v2.6l-3,0
		c-0.8,0-1.5,0.7-1.5,1.5c0,0.8,0.7,1.5,1.5,1.5l3,0v2.6l-3,0c-0.8,0-1.5,0.7-1.5,1.5c0,0.8,0.7,1.5,1.5,1.5l3,0c0,0,0,1.8,0,1.9
		c0,1.1-0.9,2.1-2.1,2.1L5.1,46c0,0,0,0,0,0C3.9,46,3,45.1,3,43.9V24.8h16V27.8z"/>
</g>
<g>
</g>
<g>
</g>
<g>
</g>
<g>
</g>
<g>
</g>
<g>
</g>
<g>
</g>
<g>
</g>
<g>
</g>
<g>
</g>
<g>
</g>
<g>
</g>
<g>
</g>
<g>
</g>
<g>
</g>
</svg>
