<?xml version="1.0" encoding="utf-8"?>
<!-- Generator: Adobe Illustrator 18.1.1, SVG Export Plug-In . SVG Version: 6.00 Build 0)  -->
<svg version="1.1" id="Layer_1" xmlns="http://www.w3.org/2000/svg" xmlns:xlink="http://www.w3.org/1999/xlink" x="0px" y="0px"
	 viewBox="0 0 33.8 49" enable-background="new 0 0 33.8 49" xml:space="preserve">
<g>
	<path d="M33.2,25.3c-3.6-4.8-8.2-8.2-8.3-8.3c-0.2-0.1-0.3-0.2-0.5-0.2c-2,1.8-4.6,3-7.5,3c-2.9,0-5.5-1.1-7.5-3
		C9.2,16.8,9,16.9,8.9,17c-0.1,0.1-4.6,3.5-8.3,8.3c-0.9,1.2-0.7,3,0.5,4c0.5,0.4,1.1,0.6,1.7,0.6c0.9,0,1.7-0.4,2.2-1.1
		c1.3-1.7,2.8-3.3,4.1-4.5c-0.1,2.8-0.3,5.3-0.3,6.1H25c0-0.8-0.2-3.3-0.3-6.1c1.3,1.2,2.8,2.8,4.1,4.5c0.5,0.7,1.4,1.1,2.2,1.1
		c0.6,0,1.2-0.2,1.7-0.6C33.9,28.3,34.2,26.5,33.2,25.3z"/>
	<path d="M16.9,16.9c4.7,0,8.5-3.8,8.5-8.5c0-4.7-3.8-8.5-8.5-8.5c-4.7,0-8.5,3.8-8.5,8.5C8.5,13.1,12.2,16.9,16.9,16.9z"/>
	<path d="M27.8,39C27.8,39,27.8,39,27.8,39L27.8,39c-0.4-2.4-1.5-4.3-2.6-5.6l-0.4-0.5l0,0l0,0l-6,4.3l0.5,0.6
		c0.6,0.7,1.1,1.5,1.2,2.2l0,0c0,0,0,0,0,0l0,0c0,0.2,0.1,0.4,0.1,0.7c0,0.9-0.2,2-1,3.5c-0.3,0.5-0.4,1-0.4,1.5
		c0,1.3,0.8,2.5,2.1,3c0.1,0,0.2,0.1,0.4,0.1c0.4,0.1,0.7,0.2,1.1,0.2c0,0,0,0,0,0c0,0,0,0,0,0c0.2,0,0.4,0,0.6,0
		c0.3,0,0.5-0.1,0.8-0.2c0.9-0.3,1.6-0.9,2.1-1.7c1.2-2.2,1.7-4.3,1.8-6.2c0-0.1,0-0.2,0-0.3c0,0,0,0,0,0c0,0,0,0,0,0
		C27.9,40,27.8,39.5,27.8,39L27.8,39z"/>
	<path d="M13.4,40c0.1-0.7,0.6-1.5,1.2-2.2l0.5-0.6l-6-4.3l0,0l0,0l-0.4,0.5C7.5,34.7,6.4,36.6,6,39l0,0c0,0,0,0,0,0l0,0
		C6,39.5,5.9,40,5.9,40.6c0,0,0,0,0,0c0,0,0,0,0,0c0,0.1,0,0.2,0,0.3c0,1.9,0.6,4,1.8,6.2c0.5,0.8,1.2,1.4,2.1,1.7
		c0.2,0.1,0.5,0.2,0.8,0.2c0.2,0,0.4,0,0.6,0c0,0,0,0,0,0c0,0,0,0,0,0c0.4,0,0.7-0.1,1.1-0.2c0.1,0,0.2-0.1,0.4-0.1
		c1.3-0.5,2.1-1.8,2.1-3c0-0.5-0.1-1-0.4-1.5c-0.8-1.5-1-2.6-1-3.5C13.4,40.5,13.4,40.2,13.4,40L13.4,40C13.4,40,13.4,40,13.4,40
		L13.4,40z"/>
</g>
<g>
</g>
<g>
</g>
<g>
</g>
<g>
</g>
<g>
</g>
<g>
</g>
<g>
</g>
<g>
</g>
<g>
</g>
<g>
</g>
<g>
</g>
<g>
</g>
<g>
</g>
<g>
</g>
<g>
</g>
</svg>
