<?xml version="1.0" encoding="utf-8"?>
<!-- Generator: Adobe Illustrator 18.1.1, SVG Export Plug-In . SVG Version: 6.00 Build 0)  -->
<svg version="1.1" id="Layer_1" xmlns="http://www.w3.org/2000/svg" xmlns:xlink="http://www.w3.org/1999/xlink" x="0px" y="0px"
	 viewBox="0 0 21.3 48.7" enable-background="new 0 0 21.3 48.7" xml:space="preserve">
<g>
	<path d="M21.3,20.9h-2.2v22.9c0,1.5-1.2,2.7-2.7,2.7H4.9c-1.5,0-2.7-1.2-2.7-2.7v-3.2H5c0.6,0,1.1-0.5,1.1-1.1
		c0-0.6-0.5-1.1-1.1-1.1H2.2v-4.3H5c0.6,0,1.1-0.5,1.1-1.1c0-0.6-0.5-1.1-1.1-1.1H2.2v-4.3H5c0.6,0,1.1-0.5,1.1-1.1
		c0-0.6-0.5-1.1-1.1-1.1H2.2v-4.4H0v22.9c0,2.7,2.2,4.9,4.9,4.9h11.5c2.7,0,4.9-2.2,4.9-4.9L21.3,20.9z"/>
	<path d="M1.1,17.9h19.1c0.3,0,0.6-0.1,0.8-0.3c0.2-0.2,0.3-0.5,0.3-0.8V14c0-0.4-0.2-0.7-0.5-0.9l-6.6-4.5c0.6-1,0.9-2.1,0.9-3.4
		c0-1.5-0.4-2.8-1.2-3.7c-0.8-0.9-2-1.5-3.2-1.5C9.4,0,8.2,0.6,7.4,1.5C6.6,2.4,6.2,3.7,6.2,5.2c0,1.3,0.3,2.4,0.9,3.4l-6.6,4.5
		C0.2,13.3,0,13.7,0,14v2.8c0,0.3,0.1,0.6,0.3,0.8C0.5,17.8,0.8,17.9,1.1,17.9z M2.2,14.6l7.1-4.8C9.6,9.6,9.7,9.3,9.8,9
		c0-0.3-0.1-0.7-0.3-0.9c-0.6-0.6-1-1.6-1-2.9c0.1-2.1,1.1-3,2.2-3c1.1,0,2.2,0.9,2.2,3c0,1.2-0.4,2.3-1,2.9
		c-0.2,0.2-0.3,0.6-0.3,0.9c0,0.3,0.2,0.6,0.5,0.8l7.1,4.8v1.1H2.2V14.6z"/>
</g>
<g>
</g>
<g>
</g>
<g>
</g>
<g>
</g>
<g>
</g>
<g>
</g>
<g>
</g>
<g>
</g>
<g>
</g>
<g>
</g>
<g>
</g>
<g>
</g>
<g>
</g>
<g>
</g>
<g>
</g>
</svg>
