<?xml version="1.0" encoding="utf-8"?>
<!-- Generator: Adobe Illustrator 18.1.1, SVG Export Plug-In . SVG Version: 6.00 Build 0)  -->
<svg version="1.1" id="Layer_1" xmlns="http://www.w3.org/2000/svg" xmlns:xlink="http://www.w3.org/1999/xlink" x="0px" y="0px"
	 viewBox="0 0 51 28.9" enable-background="new 0 0 51 28.9" xml:space="preserve">
<g>
	<path d="M33.8,2.8V2.7c0-1.5-1.2-2.7-2.7-2.7h-0.7c-1.5,0-2.7,1.2-2.7,2.7v0.2c-9.4,0.7-16.7,8.5-16.8,18.1v3.5H1c-0.5,0-1,0.4-1,1
		v2.5c0,0.5,0.4,1,1,1h47.8c0.6,0,1.2-0.2,1.6-0.6c0.4-0.4,0.6-1,0.6-1.6v-5.7C51,11.2,43.4,3.4,33.8,2.8z M46.6,24.4H15.5v-3.5
		c0-3.8,1.5-7.2,4-9.7c2.5-2.5,5.9-4,9.7-4h3.7c3.8,0,7.2,1.5,9.7,4c2.5,2.5,4,5.9,4,9.7V24.4z"/>
</g>
<g>
</g>
<g>
</g>
<g>
</g>
<g>
</g>
<g>
</g>
<g>
</g>
<g>
</g>
<g>
</g>
<g>
</g>
<g>
</g>
<g>
</g>
<g>
</g>
<g>
</g>
<g>
</g>
<g>
</g>
</svg>
