<?xml version="1.0" encoding="utf-8"?>
<!-- Generator: Adobe Illustrator 18.1.1, SVG Export Plug-In . SVG Version: 6.00 Build 0)  -->
<svg version="1.1" id="Layer_1" xmlns="http://www.w3.org/2000/svg" xmlns:xlink="http://www.w3.org/1999/xlink" x="0px" y="0px"
	 viewBox="0 0 610.8 506.3" enable-background="new 0 0 610.8 506.3" xml:space="preserve">
<path d="M605.3,196.6L605.3,196.6L498.4,30.7C487.3,13.5,461.5,0,441.8,0H171.5c-19.7,0-45.5,13.5-56.5,30.7l0,0L5.6,196.6
	c-11.1,17.2-4.9,38.1,12.3,47.9l113.1,59l6.1,34.4l-46.7,134c-6.1,19.7,4.9,34.4,24.6,34.4h379.7c20.9,0,32-16,24.6-34.4l-45.5-134
	l6.1-34.4l113.1-59C610.2,236,616.3,213.8,605.3,196.6z M349.7,55.3l-44.2,44.2l-44.2-44.2C261.2,55.3,349.7,55.3,349.7,55.3z
	 M491,236l7.4-44.2l-54.1-8.6l-27,161l36.9,108.1H155.5l36.9-108.1l-25.8-161l-54.1,8.6l0,0l7.4,44.2l-55.3-28.3l99.5-152.4h19.7
	l95.9,95.9c14.7,14.7,38.1,14.7,51.6,0l0,0l95.9-95.9H448l98.3,152.4L491,236z"/>
<g>
</g>
<g>
</g>
<g>
</g>
<g>
</g>
<g>
</g>
<g>
</g>
<g>
</g>
<g>
</g>
<g>
</g>
<g>
</g>
<g>
</g>
<g>
</g>
<g>
</g>
<g>
</g>
<g>
</g>
</svg>
