<?xml version="1.0" encoding="utf-8"?>
<!-- Generator: Adobe Illustrator 18.1.1, SVG Export Plug-In . SVG Version: 6.00 Build 0)  -->
<svg version="1.1" id="Layer_1" xmlns="http://www.w3.org/2000/svg" xmlns:xlink="http://www.w3.org/1999/xlink" x="0px" y="0px"
	 viewBox="0 0 53.5 45.7" enable-background="new 0 0 53.5 45.7" xml:space="preserve">
<g>
	<path d="M52.5,16.3l-17.9-5.8c-0.5-0.2-1.1-0.1-1.5,0.3l-1,0.8l-4.2-1.5l0-0.6c0.1-2-1.1-3.2-1.8-3.8c-0.8-0.7-0.9-0.7-1-1.6
		c0-0.9,0.7-1.7,1.7-1.7c0.9,0,1.7,0.7,1.7,1.7h2.4C30.9,1.8,29,0,26.8,0c-2.2,0-4.1,1.8-4.1,4.1c0,1.8,1.2,2.9,1.8,3.4
		c0.7,0.6,0.9,0.7,1,2v0.6l-4.2,1.5l-1-0.8c-0.4-0.3-1-0.5-1.5-0.3L1,16.3c-0.7,0.2-1.2,1-1,1.8l2,8.4c0.2,0.7,0.8,1.2,1.5,1.2
		l6.9,0v16.5c0,0.4,0.2,0.8,0.4,1.1c0.3,0.3,0.7,0.4,1.1,0.4h14.7l0.1,0v0h14.7c0.4,0,0.8-0.2,1.1-0.4c0.3-0.3,0.4-0.7,0.4-1.1V27.7
		l6.9,0c0.7,0,1.3-0.5,1.5-1.2l2-8.4C53.6,17.3,53.2,16.6,52.5,16.3z M26.7,12.2l3.3,1.2l-3.3,2.9l-3.3-2.9L26.7,12.2z M48.8,24.7
		l-6.1,0l-1.2-6.3H40v8.1h0v16.2l-13.2,0h-0.1H13.4l0-16.2h0v-8.1h-1.5l-1.2,6.3l-6.1,0l-1.4-5.9L19,13.6l6.7,5.9
		c0.6,0.5,1.4,0.5,2,0l6.7-5.9l15.8,5.1L48.8,24.7z"/>
</g>
<g>
</g>
<g>
</g>
<g>
</g>
<g>
</g>
<g>
</g>
<g>
</g>
<g>
</g>
<g>
</g>
<g>
</g>
<g>
</g>
<g>
</g>
<g>
</g>
<g>
</g>
<g>
</g>
<g>
</g>
</svg>
