<?xml version="1.0" encoding="utf-8"?>
<!-- Generator: Adobe Illustrator 18.1.1, SVG Export Plug-In . SVG Version: 6.00 Build 0)  -->
<svg version="1.1" id="Layer_1" xmlns="http://www.w3.org/2000/svg" xmlns:xlink="http://www.w3.org/1999/xlink" x="0px" y="0px"
	 viewBox="0 0 42.7 45.6" enable-background="new 0 0 42.7 45.6" xml:space="preserve">
<g>
	<path d="M42.6,44.3l-9.5-25.9c-0.1-0.3-0.3-0.5-0.6-0.5c-0.3-0.1-0.6,0-0.8,0.2L16.2,32.4c-0.2,0.2-0.3,0.5-0.3,0.8
		c0,0.3,0.2,0.5,0.5,0.7l25,11.6c0.1,0.1,0.3,0.1,0.4,0.1c0.2,0,0.4-0.1,0.6-0.2C42.6,45.1,42.7,44.7,42.6,44.3z M16.3,15.9
		c0.1-0.1,0.1-0.3,0.1-0.5l-0.7-3.8c0-0.2-0.1-0.3-0.3-0.4c-0.1-0.1-0.3-0.1-0.5-0.1L11.3,12c-0.3,0.1-0.5,0.4-0.5,0.7l0.6,3.4
		c0.1,0.3,0.3,0.5,0.6,0.5c0,0,0.1,0,0.1,0l3.7-0.4C16.1,16.2,16.2,16.1,16.3,15.9z M13,5.1l3.8,1c0,0,0.1,0,0.1,0
		c0.1,0,0.2,0,0.3-0.1c0.1-0.1,0.2-0.3,0.2-0.5l0-3.4c0-0.2-0.1-0.4-0.3-0.5l-2.8-1.6C14.3,0,14.1,0,13.9,0
		c-0.2,0.1-0.3,0.2-0.3,0.4l-1,4C12.5,4.7,12.7,5,13,5.1z M4.8,13.1H0.5c-0.2,0-0.3,0.1-0.4,0.2C0,13.4,0,13.6,0,13.7l0.4,3.3
		c0,0.3,0.2,0.5,0.5,0.5L4,17.7c0,0,0,0,0,0c0.2,0,0.5-0.2,0.5-0.4l0.7-3.5c0-0.2,0-0.3-0.1-0.4C5.1,13.2,5,13.1,4.8,13.1z
		 M21.6,17.8L24,18c0,0,0,0,0.1,0c0.3,0,0.5-0.2,0.6-0.4l0.9-3.1c0-0.2,0-0.4-0.1-0.5c-0.1-0.1-0.3-0.2-0.5-0.2l-3.4-0.1
		c-0.2,0-0.3,0.1-0.4,0.2c-0.1,0.1-0.2,0.3-0.2,0.5l0.2,3C21.1,17.5,21.3,17.7,21.6,17.8z M14.8,26.4c0.1,0,0.2,0,0.2-0.1l3.1-1.4
		c0.2-0.1,0.3-0.2,0.3-0.4c0-0.2,0-0.4-0.2-0.5l-2.5-2.4c-0.2-0.2-0.5-0.2-0.7-0.1l-2.7,1.6c-0.1,0.1-0.2,0.2-0.3,0.4
		c0,0.2,0,0.3,0.1,0.5l2.1,2.2C14.5,26.3,14.6,26.4,14.8,26.4z"/>
</g>
<g>
</g>
<g>
</g>
<g>
</g>
<g>
</g>
<g>
</g>
<g>
</g>
<g>
</g>
<g>
</g>
<g>
</g>
<g>
</g>
<g>
</g>
<g>
</g>
<g>
</g>
<g>
</g>
<g>
</g>
</svg>
