<?xml version="1.0" encoding="utf-8"?>
<!-- Generator: Adobe Illustrator 18.1.1, SVG Export Plug-In . SVG Version: 6.00 Build 0)  -->
<svg version="1.1" id="Layer_1" xmlns="http://www.w3.org/2000/svg" xmlns:xlink="http://www.w3.org/1999/xlink" x="0px" y="0px"
	 viewBox="0 0 53.2 27.5" enable-background="new 0 0 53.2 27.5" xml:space="preserve">
<g>
	<path d="M53.1,12.9C47.1,5.1,37.5,0,26.6,0C15.7,0,6,5.1,0,13l4.3,3.3c3.5-4.5,8.4-7.9,14.1-9.6c-2.4,2.2-3.9,5.3-3.9,8.8
		c0,6.7,5.4,12,12,12c6.7,0,12-5.4,12-12c0-3.5-1.5-6.6-3.9-8.8c5.7,1.7,10.6,5.1,14.1,9.6L53.1,12.9L53.1,12.9z M26.6,19.6
		c-2.3,0-4.1-1.8-4.1-4.1c0-2.3,1.8-4.1,4.1-4.1c2.3,0,4.1,1.8,4.1,4.1C30.7,17.7,28.8,19.6,26.6,19.6z"/>
</g>
<g>
</g>
<g>
</g>
<g>
</g>
<g>
</g>
<g>
</g>
<g>
</g>
<g>
</g>
<g>
</g>
<g>
</g>
<g>
</g>
<g>
</g>
<g>
</g>
<g>
</g>
<g>
</g>
<g>
</g>
</svg>
