<?xml version="1.0" encoding="utf-8"?>
<!-- Generator: Adobe Illustrator 18.1.1, SVG Export Plug-In . SVG Version: 6.00 Build 0)  -->
<svg version="1.1" id="Layer_1" xmlns="http://www.w3.org/2000/svg" xmlns:xlink="http://www.w3.org/1999/xlink" x="0px" y="0px"
	 viewBox="0 0 49 34" enable-background="new 0 0 49 34" xml:space="preserve">
<g>
	<path d="M48.7,17.6L40.5,4c-2.2-3.7-7-4.9-10.7-2.7c-1.1,0.6-1.4,2-0.8,3c0.6,1.1,2,1.4,3,0.8c1.6-1,3.7-0.4,4.6,1.2l5.4,9l-35.2,0
		l5.1-9.1c0.9-1.6,3-2.2,4.6-1.3c1.1,0.6,2.4,0.2,3-0.9c0.6-1.1,0.2-2.4-0.9-3C15-1.1,10.2,0.2,8.1,4L0.3,17.9C0,18.4,0,19.8,0,20.1
		v6.1C0,30.5,3.5,34,7.8,34h6.3c4.3,0,7.8-3.5,7.8-7.8v-5.9H27v5.9c0,4.3,3.5,7.8,7.8,7.8h6.3c4.3,0,7.8-3.5,7.8-7.8v-6.1
		C49,19.8,49,18.1,48.7,17.6z M14.1,29.6H7.8c-1.9,0-3.4-1.5-3.4-3.4l0-6.4h13l0,6.4C17.5,28.1,16,29.6,14.1,29.6z M41.2,29.6h-6.3
		c-1.9,0-3.4-1.5-3.4-3.4l0-6.4l13,0l0,6.4C44.6,28.1,43,29.6,41.2,29.6z"/>
</g>
<g>
</g>
<g>
</g>
<g>
</g>
<g>
</g>
<g>
</g>
<g>
</g>
<g>
</g>
<g>
</g>
<g>
</g>
<g>
</g>
<g>
</g>
<g>
</g>
<g>
</g>
<g>
</g>
<g>
</g>
</svg>
