<?xml version="1.0" encoding="utf-8"?>
<!-- Generator: Adobe Illustrator 18.1.1, SVG Export Plug-In . SVG Version: 6.00 Build 0)  -->
<svg version="1.1" id="Layer_1" xmlns="http://www.w3.org/2000/svg" xmlns:xlink="http://www.w3.org/1999/xlink" x="0px" y="0px"
	 viewBox="0 0 55.9 50.8" enable-background="new 0 0 55.9 50.8" xml:space="preserve">
<g>
	<path d="M14.3,11.2h-0.6c-1.4,0-2.5,1.1-2.5,2.5v0.6c0,0.7,0.3,1.3,0.7,1.8c0.5,0.5,1.1,0.7,1.8,0.7l0.6,0c0.7,0,1.3-0.3,1.8-0.7
		c0.5-0.5,0.7-1.1,0.7-1.8v-0.6C16.8,12.3,15.7,11.2,14.3,11.2z M50.2,33.3c3.3-1,5.8-4.1,5.8-7.8v-1c0-3.6-2.4-6.7-5.8-7.8
		c-1-3.3-4.1-5.8-7.8-5.8h-1c-3.6,0-6.7,2.4-7.8,5.8c-3.3,1-5.8,4.1-5.8,7.8v1c0,3.6,2.4,6.7,5.8,7.8c0.9,2.8,3.2,5,6,5.6v7.6H16.2
		c0-0.1,0-0.1,0-0.2V27.9c2.9-0.6,5.2-2.8,6-5.6c3.3-1,5.8-4.1,5.8-7.8v-1c0-3.6-2.4-6.7-5.8-7.8c-1-3.3-4.1-5.8-7.8-5.8h-1
		C9.9,0,6.8,2.4,5.8,5.8C2.4,6.8,0,9.9,0,13.5v1c0,3.6,2.4,6.7,5.8,7.8c0.9,2.8,3.2,5,6,5.6v18.4c0,0.1,0,0.1,0,0.2H6.2
		c-0.5,0-1,0.4-1,1v2.5c0,0.5,0.4,1,1,1h43.4c0.5,0,0.9-0.4,0.9-1v-2.5c0-0.5-0.4-1-0.9-1h-5.5v-7.6C47,38.2,49.3,36.1,50.2,33.3z
		 M13.5,23.6c-1.9,0-3.5-1.5-3.7-3.4c-0.1-1.1-0.9-1.9-2-2c-1.9-0.1-3.4-1.8-3.4-3.7v-1c0-1.9,1.5-3.5,3.4-3.7c1.1-0.1,1.9-0.9,2-2
		c0.2-1.9,1.8-3.4,3.7-3.4h1c1.9,0,3.5,1.5,3.7,3.4c0.1,1.1,0.9,1.9,2,2c1.9,0.2,3.4,1.8,3.4,3.7v1c0,1.9-1.5,3.5-3.4,3.7
		c-1.1,0.1-1.9,0.9-2,2c-0.2,1.9-1.8,3.4-3.7,3.4H13.5z M42.4,34.6h-1c-1.9,0-3.5-1.5-3.7-3.4c-0.1-1.1-0.9-1.9-2-2
		c-1.9-0.2-3.4-1.8-3.4-3.7v-1c0-1.9,1.5-3.5,3.4-3.7c1.1-0.1,1.9-0.9,2-2c0.2-1.9,1.8-3.4,3.7-3.4h1c1.9,0,3.5,1.5,3.7,3.4
		c0.1,1.1,0.9,1.9,2,2c1.9,0.1,3.4,1.8,3.4,3.7v1c0,1.9-1.5,3.5-3.4,3.7c-1.1,0.1-1.9,0.9-2,2C45.9,33.1,44.3,34.6,42.4,34.6z
		 M42.2,22.2l-0.6,0c-1.4,0-2.5,1.1-2.5,2.5v0.6c0,0.7,0.3,1.3,0.7,1.8c0.5,0.5,1.1,0.7,1.8,0.7h0.6c0.7,0,1.3-0.3,1.8-0.7
		c0.5-0.5,0.7-1.1,0.7-1.8v-0.6C44.7,23.3,43.6,22.2,42.2,22.2z"/>
</g>
<g>
</g>
<g>
</g>
<g>
</g>
<g>
</g>
<g>
</g>
<g>
</g>
<g>
</g>
<g>
</g>
<g>
</g>
<g>
</g>
<g>
</g>
<g>
</g>
<g>
</g>
<g>
</g>
<g>
</g>
</svg>
