<?xml version="1.0" encoding="utf-8"?>
<!-- Generator: Adobe Illustrator 18.1.1, SVG Export Plug-In . SVG Version: 6.00 Build 0)  -->
<svg version="1.1" id="Layer_1" xmlns="http://www.w3.org/2000/svg" xmlns:xlink="http://www.w3.org/1999/xlink" x="0px" y="0px"
	 viewBox="0 0 31 44.9" enable-background="new 0 0 31 44.9" xml:space="preserve">
<g>
	<path d="M15.8,11.2h-0.2l-0.4,0c-1.4,0-2.5,1.1-2.5,2.5v0.6c0,0.7,0.3,1.3,0.7,1.8c0.5,0.5,1.1,0.7,1.8,0.7l0.4,0h0.2
		c0.7,0,1.3-0.3,1.8-0.7c0.5-0.5,0.7-1.1,0.7-1.8v-0.6C18.3,12.3,17.2,11.2,15.8,11.2z"/>
	<path d="M30,30.6c0,0-5.1,0-5.1,0c-2.7,0.1-5.2,1.2-7.2,2.8v-5.6c2.9-0.6,5.2-2.8,6.1-5.6c3.3-1,5.8-4.1,5.8-7.8v-1
		c0-3.6-2.4-6.7-5.8-7.8C22.7,2.4,19.6,0,16,0h-1c-3.6,0-6.7,2.4-7.8,5.8c-3.3,1-5.8,4.1-5.8,7.8v1c0,3.6,2.4,6.7,5.8,7.8
		c0.9,2.8,3.2,5,6.1,5.6v5.6c-2-1.6-4.4-2.7-7.2-2.8c0,0-5.1,0-5.1,0c-0.5,0-1,0.4-1,0.9v2.5c0,0.5,0.5,1,1,1h4.8
		c4.1,0.1,7.5,3.5,7.5,7.7c0,0.1,0,0.2,0,0.3v1c0,0.5,0.4,1,0.9,1h2.5c0.5,0,0.9-0.4,0.9-1v-1c0-0.1,0-0.2,0-0.3
		c0-4.2,3.3-7.6,7.5-7.7H30c0.5,0,1-0.4,1-1v-2.5C31,31,30.5,30.6,30,30.6z M16,23.6h-1c-1.9,0-3.5-1.5-3.7-3.4
		c-0.1-1.1-0.9-1.9-2-2c-1.9-0.2-3.4-1.8-3.4-3.7v-1c0-1.9,1.5-3.5,3.4-3.7c1.1-0.1,1.9-0.9,2-2c0.2-1.9,1.8-3.4,3.7-3.4h1
		c1.9,0,3.5,1.5,3.7,3.4c0.1,1.1,0.9,1.9,2,2c1.9,0.1,3.4,1.8,3.4,3.7v1c0,1.9-1.5,3.5-3.4,3.7c-1.1,0.1-1.9,0.9-2,2
		C19.5,22.1,17.9,23.6,16,23.6z"/>
</g>
<g>
</g>
<g>
</g>
<g>
</g>
<g>
</g>
<g>
</g>
<g>
</g>
<g>
</g>
<g>
</g>
<g>
</g>
<g>
</g>
<g>
</g>
<g>
</g>
<g>
</g>
<g>
</g>
<g>
</g>
</svg>
