<?xml version="1.0" encoding="utf-8"?>
<!-- Generator: Adobe Illustrator 18.1.1, SVG Export Plug-In . SVG Version: 6.00 Build 0)  -->
<svg version="1.1" id="Layer_1" xmlns="http://www.w3.org/2000/svg" xmlns:xlink="http://www.w3.org/1999/xlink" x="0px" y="0px"
	 viewBox="0 0 36.1 45.7" enable-background="new 0 0 36.1 45.7" xml:space="preserve">
<g>
	<path d="M19.3,26V15.5c1.5-1.3,3.7-3.7,3.7-5.5c0-2.7-5-10-5-10s-5,7.2-5,10c0,1.8,2.2,4.2,3.7,5.5V26H0v4.9h3.8l3.4,14.8h21.7
		l3.4-14.8h3.8V26H19.3z M14,24.2c0,0,0.8-6.2-1.1-8.2c-1.9-1.9-10.3-3.3-10.3-3.3s1.3,8.4,3.3,10.3C7.8,25,14,24.2,14,24.2z
		 M21.7,24.2c0,0,6.2,0.8,8.2-1.1c1.9-1.9,3.3-10.3,3.3-10.3s-8.4,1.3-10.3,3.3C20.9,18,21.7,24.2,21.7,24.2z"/>
</g>
<g>
</g>
<g>
</g>
<g>
</g>
<g>
</g>
<g>
</g>
<g>
</g>
<g>
</g>
<g>
</g>
<g>
</g>
<g>
</g>
<g>
</g>
<g>
</g>
<g>
</g>
<g>
</g>
<g>
</g>
</svg>
