<?xml version="1.0" encoding="utf-8"?>
<!-- Generator: Adobe Illustrator 18.1.1, SVG Export Plug-In . SVG Version: 6.00 Build 0)  -->
<svg version="1.1" id="Layer_1" xmlns="http://www.w3.org/2000/svg" xmlns:xlink="http://www.w3.org/1999/xlink" x="0px" y="0px"
	 viewBox="0 0 612.5 511.7" enable-background="new 0 0 612.5 511.7" xml:space="preserve">
<g>
	<path d="M321.5,279.7v-40.1h179.3v40.1l0,0c0,6.3,6.3,12.5,12.5,12.5h43.9v-71.5c0-20.1-16.3-37.6-37.6-37.6h-217
		c-21.3,0-37.6,17.6-37.6,37.6v71.5H309C315.2,292.2,321.5,287.2,321.5,279.7z"/>
	<path d="M599.9,292.2H556v105.3H263.8V292.2h-43.9c-6.3,0-12.5,6.3-12.5,12.5v111.6c0,20.1,16.3,37.6,36.4,37.6l0,0l0,0L230,510.4
		h58.9l13.8-56.4h215.7l13.8,56.4h57.7L576.1,454l0,0l0,0c20.1,0,36.4-17.6,36.4-37.6V304.7C612.5,298.5,607.5,292.2,599.9,292.2z"
		/>
	<path d="M193.6,455.2h-47.7V171.8h62.7c21.3,0,32.6-16.3,26.3-36.4L202.4,35.1l0,0C196.1,16.3,186.1,0,166,0H72
		C50.6,0,41.9,16.3,34.3,36.4L1.7,136.7c-6.3,20.1,5,36.4,26.3,36.4h62.7v282.2H43.1c-6.3,0-12.5,6.3-12.5,12.5v43.9h175.6v-43.9
		C206.1,460.3,201.1,455.2,193.6,455.2z M68.2,115.4L87,56.4h62.7l18.8,58.9H68.2z"/>
</g>
<g>
</g>
<g>
</g>
<g>
</g>
<g>
</g>
<g>
</g>
<g>
</g>
<g>
</g>
<g>
</g>
<g>
</g>
<g>
</g>
<g>
</g>
<g>
</g>
<g>
</g>
<g>
</g>
<g>
</g>
</svg>
