<?xml version="1.0" encoding="utf-8"?>
<!-- Generator: Adobe Illustrator 18.1.1, SVG Export Plug-In . SVG Version: 6.00 Build 0)  -->
<svg version="1.1" id="Layer_1" xmlns="http://www.w3.org/2000/svg" xmlns:xlink="http://www.w3.org/1999/xlink" x="0px" y="0px"
	 viewBox="0 0 611.3 574.1" enable-background="new 0 0 611.3 574.1" xml:space="preserve">
<g>
	<path d="M611.1,139c1.4-7-4.2-14-12.6-15.4l-35.1-4.2c-7-1.4-14,4.2-15.4,12.6l-25.3,214.8H350.1c-23.9,0-42.1,18.2-42.1,42.1
		v185.3h63.2V409.9h151.6l22.5,164.2h63.2l-26.7-196.5L611.1,139z"/>
	<path d="M291.1,244.2c22.5,0,36.5-18.2,28.1-39.3L261.6,39.3C253.2,18.2,234.9,0,212.5,0H107.2C84.8,0,66.5,18.2,58.1,39.3
		L1.9,204.9c-7,22.5,5.6,39.3,28.1,39.3h98.3v263.9H76.3c-7,0-14,5.6-14,14v49.1h196.5v-49.1c0-8.4-5.6-14-14-14h-53.3V244.2H291.1z
		 M76.3,181.1L117,63.2h85.6l40.7,117.9H76.3z"/>
</g>
<g>
</g>
<g>
</g>
<g>
</g>
<g>
</g>
<g>
</g>
<g>
</g>
<g>
</g>
<g>
</g>
<g>
</g>
<g>
</g>
<g>
</g>
<g>
</g>
<g>
</g>
<g>
</g>
<g>
</g>
</svg>
