<?xml version="1.0" encoding="utf-8"?>
<!-- Generator: Adobe Illustrator 18.1.1, SVG Export Plug-In . SVG Version: 6.00 Build 0)  -->
<svg version="1.1" id="Layer_1" xmlns="http://www.w3.org/2000/svg" xmlns:xlink="http://www.w3.org/1999/xlink" x="0px" y="0px"
	 viewBox="0 0 612 499.8" enable-background="new 0 0 612 499.8" xml:space="preserve">
<path d="M612,391.8V171.7c0-23.5-18-41.5-41.5-41.5h-20.8V41.5c0-23.5-18-41.5-41.5-41.5H103.8C80.3,0,62.3,18,62.3,41.5v88.6H41.5
	C18,130.2,0,148.2,0,171.7v218.8c0,19.4,12.5,34.6,30.5,40.2l-18,69.2h63.7L92.8,432h422.3l16.6,67.8h63.7l-18-69.2
	C598.2,426.5,612,411.2,612,391.8z M124.6,62.3H486v67.8h-18c-23.5,0-41.5,18-41.5,41.5V252H184.2v-80.3c0-23.5-18-41.5-41.5-41.5
	h-18V62.3z M549.7,371.1H62.3V192.5h59.5v121.8h366.9V192.5h59.5v178.6H549.7z"/>
<g>
</g>
<g>
</g>
<g>
</g>
<g>
</g>
<g>
</g>
<g>
</g>
<g>
</g>
<g>
</g>
<g>
</g>
<g>
</g>
<g>
</g>
<g>
</g>
<g>
</g>
<g>
</g>
<g>
</g>
</svg>
