<?xml version="1.0" encoding="utf-8"?>
<!-- Generator: Adobe Illustrator 18.1.1, SVG Export Plug-In . SVG Version: 6.00 Build 0)  -->
<svg version="1.1" id="Layer_1" xmlns="http://www.w3.org/2000/svg" xmlns:xlink="http://www.w3.org/1999/xlink" x="0px" y="0px"
	 viewBox="0 0 52.7 44.6" enable-background="new 0 0 52.7 44.6" xml:space="preserve">
<g>
	<path d="M52.5,1.4c-0.4-1.1-1.5-1.6-2.6-1.2l-6.2,2.2c-0.3,0.1-0.5,0.3-0.8,0.5L28.8,17c-0.8,0.8-0.8,2.1,0,2.9l4.6,4.8l-8.7,5.7
		c-0.2,0.1-0.4,0.3-0.5,0.5l-6.1,8.4L5.2,26l8.8-5.7c0.2-0.1,0.4-0.3,0.5-0.5l6.1-8.4l2.1,2.2c0.8,0.8,2.1,0.9,2.9,0.1
		c0.8-0.8,0.9-2.1,0.1-2.9L22,6.7c-0.4-0.5-1-0.7-1.6-0.7c-0.6,0-1.2,0.3-1.5,0.8l-7.4,10.1L0.9,23.9c-0.5,0.3-0.8,0.9-0.9,1.5
		C-0.1,26,0.1,26.6,0.6,27L16.6,44c0.4,0.4,0.9,0.6,1.5,0.6c0,0,0.1,0,0.1,0c0.6,0,1.2-0.3,1.5-0.8l7.4-10.1l10.5-6.8
		c0.5-0.3,0.8-0.9,0.9-1.5c0.1-0.6-0.1-1.2-0.5-1.7l-4.9-5.2L45.5,6L51.3,4C52.4,3.6,52.9,2.4,52.5,1.4z"/>
	<circle cx="20.5" cy="23.5" r="4.1"/>
</g>
<g>
</g>
<g>
</g>
<g>
</g>
<g>
</g>
<g>
</g>
<g>
</g>
<g>
</g>
<g>
</g>
<g>
</g>
<g>
</g>
<g>
</g>
<g>
</g>
<g>
</g>
<g>
</g>
<g>
</g>
</svg>
