<?xml version="1.0" encoding="utf-8"?>
<!-- Generator: Adobe Illustrator 18.1.1, SVG Export Plug-In . SVG Version: 6.00 Build 0)  -->
<svg version="1.1" id="Layer_1" xmlns="http://www.w3.org/2000/svg" xmlns:xlink="http://www.w3.org/1999/xlink" x="0px" y="0px"
	 viewBox="0 0 46.1 46.1" enable-background="new 0 0 46.1 46.1" xml:space="preserve">
<g>
	<path d="M36.6,20.9c-1.7-0.3-3.1-0.3-4.2-1.1c-0.1-0.1-0.2-0.1-0.3-0.2c-0.4-0.4-0.7-1-0.9-1.8c-0.4-1.2-0.9-2.3-1.9-3.3
		c-0.2-0.2-0.5-0.4-0.7-0.6c-1.6-1.3-3.5-1.4-5-0.9c-1.5,0.5-2.9,1.4-4,2.3c0,0-0.1,0.1-0.1,0.1l-9-8.4c-0.1,0-0.2-0.2-0.2-0.3
		c0-0.1,0-0.1,0-0.1c0.2-0.4,0.1-0.9-0.2-1.2c0,0-0.5-0.5-1.2-1.4C8.3,3.2,7.4,2,6.6,0.5C6.4,0.1,5.9-0.1,5.4,0
		c-0.1,0-1.6,0.5-3.2,2.1L2.1,2.2C0.5,3.9,0.1,5.3,0,5.5c-0.1,0.4,0.1,0.9,0.5,1.1C2,7.4,3.2,8.3,4.1,8.9c0.9,0.7,1.4,1.2,1.4,1.2
		c0.3,0.3,0.8,0.4,1.2,0.2c0,0,0,0,0.1,0c0.1,0,0.3,0.1,0.3,0.2l8.3,9c0,0-0.1,0.1-0.1,0.1c-0.9,1.1-1.9,2.5-2.3,4
		c-0.5,1.5-0.4,3.4,0.9,5c0.2,0.3,0.4,0.5,0.6,0.7c1,1,2.1,1.5,3.3,1.9c0.8,0.3,1.4,0.5,1.8,0.9c0.1,0.1,0.1,0.2,0.2,0.3
		c0.7,1.1,0.8,2.5,1.1,4.2c0.4,2.5,1.5,4.9,3.3,6.7c0.8,0.8,1.8,1.5,2.9,2c3.2,1.4,6.4,0.7,8.9-0.4c2.5-1.1,4.4-2.7,5.2-3.5
		c0-0.1,0.1-0.1,0.1-0.1c0,0,0.1-0.1,0.1-0.1c0.7-0.8,2.3-2.6,3.5-5.1c1.1-2.5,1.8-5.7,0.4-8.9c-0.5-1.1-1.2-2.1-2-2.9
		C41.5,22.4,39.1,21.3,36.6,20.9z M27.9,22.4c1.5,1.5,1.5,4,0,5.5c-1.5,1.5-4,1.5-5.5,0c-1.5-1.5-1.5-4,0-5.5
		C23.9,20.9,26.4,20.9,27.9,22.4z M36.4,21.9L36.4,21.9L36.4,21.9L36.4,21.9z"/>
</g>
<g>
</g>
<g>
</g>
<g>
</g>
<g>
</g>
<g>
</g>
<g>
</g>
<g>
</g>
<g>
</g>
<g>
</g>
<g>
</g>
<g>
</g>
<g>
</g>
<g>
</g>
<g>
</g>
<g>
</g>
</svg>
