<?xml version="1.0" encoding="utf-8"?>
<!-- Generator: Adobe Illustrator 18.1.1, SVG Export Plug-In . SVG Version: 6.00 Build 0)  -->
<svg version="1.1" id="Layer_1" xmlns="http://www.w3.org/2000/svg" xmlns:xlink="http://www.w3.org/1999/xlink" x="0px" y="0px"
	 viewBox="0 0 32.8 41.9" enable-background="new 0 0 32.8 41.9" xml:space="preserve">
<g>
	<path d="M24.7,11.4L28.1,8c0.4-0.4,0.5-1.1,0.2-1.6l-3.1-5.7C25,0.3,24.6,0,24.1,0h-7.7H8.7c-0.5,0-1,0.3-1.2,0.7L4.4,6.4
		C4.2,6.9,4.3,7.6,4.7,8l3.4,3.4C3.3,14.2,0,19.5,0,25.5c0,9,7.3,16.4,16.4,16.4c9.1,0,16.4-7.3,16.4-16.4
		C32.8,19.5,29.5,14.2,24.7,11.4z M8.7,8.1h15.5l-7.7,7.6L8.7,8.1z M9.5,2.7h6.9h6.9l1.6,3h-17L9.5,2.7z M16.4,38.9
		C9,38.9,3,32.9,3,25.5c0-5.2,3-9.7,7.4-11.9l5.1,5c0.3,0.3,0.6,0.4,0.9,0.4c0.3,0,0.7-0.1,0.9-0.4l5.1-5c4.4,2.2,7.4,6.7,7.4,11.9
		C29.8,32.9,23.8,38.9,16.4,38.9z"/>
</g>
<g>
</g>
<g>
</g>
<g>
</g>
<g>
</g>
<g>
</g>
<g>
</g>
<g>
</g>
<g>
</g>
<g>
</g>
<g>
</g>
<g>
</g>
<g>
</g>
<g>
</g>
<g>
</g>
<g>
</g>
</svg>
