<?xml version="1.0" encoding="utf-8"?>
<!-- Generator: Adobe Illustrator 18.1.1, SVG Export Plug-In . SVG Version: 6.00 Build 0)  -->
<svg version="1.1" id="Layer_1" xmlns="http://www.w3.org/2000/svg" xmlns:xlink="http://www.w3.org/1999/xlink" x="0px" y="0px"
	 viewBox="0 0 34.1 41.3" enable-background="new 0 0 34.1 41.3" xml:space="preserve">
<g>
	<path d="M34,20.8L29.5,1.2C29.4,0.5,28.7,0,28,0H6C5.3,0,4.7,0.5,4.5,1.2L0,20.8c-0.1,0.4,0,0.9,0.3,1.3c0.3,0.4,0.7,0.6,1.2,0.6
		h31.1c0.5,0,0.9-0.2,1.2-0.6C34,21.8,34.1,21.3,34,20.8z M3.4,19.7L7.2,3h19.7l3.8,16.7H3.4z M24,38.3h-5.5v-7.8
		c1.8-0.6,3.1-2.3,3.1-4.3v-1.9h-3v1.9c0,0.9-0.7,1.6-1.6,1.6c-0.9,0-1.6-0.7-1.6-1.6v-1.9h-3l0,1.9c0,2,1.3,3.7,3.1,4.3v7.8H10
		c-0.8,0-1.5,0.7-1.5,1.5c0,0.8,0.7,1.5,1.5,1.5h14c0.8,0,1.5-0.7,1.5-1.5C25.5,38.9,24.9,38.3,24,38.3z M28.6,29.4v-5.1h-2v5.1
		c-0.6,0.3-1,1-1,1.7c0,1.1,0.9,2,2,2s2-0.9,2-2C29.6,30.4,29.1,29.8,28.6,29.4z"/>
</g>
<g>
</g>
<g>
</g>
<g>
</g>
<g>
</g>
<g>
</g>
<g>
</g>
<g>
</g>
<g>
</g>
<g>
</g>
<g>
</g>
<g>
</g>
<g>
</g>
<g>
</g>
<g>
</g>
<g>
</g>
</svg>
