<?xml version="1.0" encoding="utf-8"?>
<!-- Generator: Adobe Illustrator 18.1.1, SVG Export Plug-In . SVG Version: 6.00 Build 0)  -->
<svg version="1.1" id="Layer_1" xmlns="http://www.w3.org/2000/svg" xmlns:xlink="http://www.w3.org/1999/xlink" x="0px" y="0px"
	 viewBox="0 0 614 461" enable-background="new 0 0 614 461" xml:space="preserve">
<path d="M382.5,0c0,10.1,0,20.1,0,22.1c0,26.2-34.2,48.3-78.5,48.3c-42.3,0-78.5-22.1-78.5-48.3c0-2,0-12.1,0-22.1H0v106.7
	l130.9,56.4c0,0,0,30.2,0,116.8c0,88.6-42.3,165.1-42.3,165.1s74.5-36.2,183.2,0s169.1,0,169.1,0s42.3-78.5,42.3-165.1
	c0-84.6,0-116.8,0-116.8L614,106.7V0H382.5z"/>
<g>
</g>
<g>
</g>
<g>
</g>
<g>
</g>
<g>
</g>
<g>
</g>
<g>
</g>
<g>
</g>
<g>
</g>
<g>
</g>
<g>
</g>
<g>
</g>
<g>
</g>
<g>
</g>
<g>
</g>
</svg>
