<?xml version="1.0" encoding="utf-8"?>
<!-- Generator: Adobe Illustrator 18.1.1, SVG Export Plug-In . SVG Version: 6.00 Build 0)  -->
<svg version="1.1" id="Layer_1" xmlns="http://www.w3.org/2000/svg" xmlns:xlink="http://www.w3.org/1999/xlink" x="0px" y="0px"
	 viewBox="0 0 612 262.5" enable-background="new 0 0 612 262.5" xml:space="preserve">
<path d="M506.7,0c-10,0-391.3,0-401.3,0C46.8,0,0,46.8,0,105.3s46.8,105.3,105.3,105.3c10,0,18.4,0,38.5,0v10
	c48.5,26.8,103.7,41.8,162.2,41.8s113.7-15,162.2-41.8v-10c20.1,0,28.4,0,38.5,0c58.5,0,105.3-46.8,105.3-105.3S565.2,0,506.7,0z
	 M105.3,177.2c-38.5,0-71.9-31.8-71.9-71.9c0-38.5,33.4-71.9,71.9-71.9c10,0,18.4,0,38.5,0v143.8
	C123.7,177.2,115.4,177.2,105.3,177.2z M506.7,177.2c-10,0-18.4,0-38.5,0V33.4c20.1,0,28.4,0,38.5,0c40.1,0,71.9,31.8,71.9,71.9
	S546.8,177.2,506.7,177.2z"/>
<g>
</g>
<g>
</g>
<g>
</g>
<g>
</g>
<g>
</g>
<g>
</g>
<g>
</g>
<g>
</g>
<g>
</g>
<g>
</g>
<g>
</g>
<g>
</g>
<g>
</g>
<g>
</g>
<g>
</g>
</svg>
