<?xml version="1.0" encoding="utf-8"?>
<!-- Generator: Adobe Illustrator 18.1.1, SVG Export Plug-In . SVG Version: 6.00 Build 0)  -->
<svg version="1.1" id="Layer_1" xmlns="http://www.w3.org/2000/svg" xmlns:xlink="http://www.w3.org/1999/xlink" x="0px" y="0px"
	 viewBox="0 0 47 49.9" enable-background="new 0 0 47 49.9" xml:space="preserve">
<g>
	<path d="M11.5,19.6h13c0.4,0,0.8-0.2,1.1-0.5c0.3-0.3,0.4-0.7,0.4-1.2l-1.6-13c-0.1-0.8-0.7-1.3-1.5-1.3h-9.5
		c-0.7,0-1.4,0.5-1.5,1.3l-2,13c-0.1,0.4,0.1,0.9,0.3,1.2C10.7,19.4,11.1,19.6,11.5,19.6z M14.8,6.6h6.9l1.2,10h-9.6L14.8,6.6z
		 M34.2,22.5H1.5c-0.4,0-0.8,0.2-1.1,0.4C0.2,23.2,0,23.6,0,24v24.4c0,0.4,0.2,0.8,0.4,1.1c0.3,0.3,0.7,0.4,1.1,0.4h32.7
		c0.4,0,0.8-0.2,1.1-0.4c0.3-0.3,0.4-0.7,0.4-1.1V24c0-0.4-0.2-0.8-0.4-1.1C35,22.7,34.6,22.5,34.2,22.5z M9.5,25.5h16.8v15H9.5
		V25.5z M32.7,46.9H3V25.5h3.9v16.2c0,0.3,0.1,0.7,0.4,0.9c0.2,0.2,0.6,0.4,0.9,0.4h19.3c0.3,0,0.7-0.1,0.9-0.4
		c0.2-0.2,0.4-0.6,0.4-0.9V25.5h3.9V46.9z M34.9,8.5c-0.7,0-1.3,0.6-1.3,1.3c0,0.7,0.6,1.3,1.3,1.3c0.7,0,1.3-0.6,1.3-1.3
		C36.3,9.1,35.7,8.5,34.9,8.5z M45.7,8.5c-0.7,0-1.3,0.6-1.3,1.3c0,0.7,0.6,1.3,1.3,1.3c0.7,0,1.3-0.6,1.3-1.3
		C47,9.1,46.4,8.5,45.7,8.5z M29.6,11.2c0.7,0,1.3-0.6,1.3-1.3c0-0.7-0.6-1.3-1.3-1.3c-0.7,0-1.3,0.6-1.3,1.3
		C28.2,10.6,28.8,11.2,29.6,11.2z M40.3,8.5c-0.7,0-1.3,0.6-1.3,1.3c0,0.7,0.6,1.3,1.3,1.3c0.7,0,1.3-0.6,1.3-1.3
		C41.6,9.1,41,8.5,40.3,8.5z M39.7,5c0.7-0.3,0.9-1.1,0.6-1.8c-0.3-0.7-1.1-0.9-1.8-0.6c-0.7,0.3-0.9,1.1-0.6,1.8
		C38.3,5.1,39.1,5.3,39.7,5z M34.9,7.4c0.7-0.3,0.9-1.1,0.6-1.8C35.2,5,34.4,4.7,33.7,5c-0.7,0.3-0.9,1.1-0.6,1.8
		C33.5,7.5,34.3,7.8,34.9,7.4z M44.5,2.5c0.7-0.3,0.9-1.1,0.6-1.8c-0.3-0.7-1.1-0.9-1.8-0.6c-0.7,0.3-0.9,1.1-0.6,1.8
		C43,2.6,43.8,2.9,44.5,2.5z M39.7,14.8c-0.7-0.3-1.5-0.1-1.8,0.6c-0.3,0.7-0.1,1.5,0.6,1.8c0.7,0.3,1.5,0.1,1.8-0.6
		C40.6,15.9,40.4,15.1,39.7,14.8z M44.5,17.2c-0.7-0.3-1.5-0.1-1.8,0.6c-0.3,0.7-0.1,1.5,0.6,1.8c0.7,0.3,1.5,0.1,1.8-0.6
		C45.4,18.4,45.2,17.6,44.5,17.2z M33.7,14.7c0.7,0.3,1.5,0.1,1.8-0.6c0.3-0.7,0.1-1.5-0.6-1.8c-0.7-0.3-1.5-0.1-1.8,0.6
		C32.8,13.6,33.1,14.4,33.7,14.7z"/>
</g>
<g>
</g>
<g>
</g>
<g>
</g>
<g>
</g>
<g>
</g>
<g>
</g>
<g>
</g>
<g>
</g>
<g>
</g>
<g>
</g>
<g>
</g>
<g>
</g>
<g>
</g>
<g>
</g>
<g>
</g>
</svg>
