<?xml version="1.0" encoding="utf-8"?>
<!-- Generator: Adobe Illustrator 18.1.1, SVG Export Plug-In . SVG Version: 6.00 Build 0)  -->
<svg version="1.1" id="Layer_1" xmlns="http://www.w3.org/2000/svg" xmlns:xlink="http://www.w3.org/1999/xlink" x="0px" y="0px"
	 viewBox="0 0 49.4 25" enable-background="new 0 0 49.4 25" xml:space="preserve">
<g>
	<path d="M48.5,11l-1.2-3.6c-0.5-1.6-1.9-2.7-3.5-2.7c-0.5,0-1,0.1-1.4,0.3c-1.3,0.6-2.5,1-3.9,1H27.6c0,0-0.1,0-0.1,0
		c0,0,0-0.1,0-0.2V4.3l0,0V2.6c0-0.6-0.1-1.2-0.4-1.7c-0.3-0.5-0.9-1-1.6-0.9c-0.9,0-1.4,0.5-2,1L22,2.6c-1,1.1-3.1,2.8-4.3,3.6
		l-6.8,4.5c-1.2,0.8-3.6,1.9-5,2.4l-2.2,0.7C1.5,14.4,0,16.5,0,18.7v2.2C0,23.2,1.8,25,4.1,25l41.2,0c2.3,0,4.1-1.8,4.1-4.1v-3.8
		C49.4,15.3,49,12.7,48.5,11z M4.3,15.9l2.2-0.7c1.7-0.5,4.1-1.6,5.6-2.6l6.8-4.5c1.5-1,3.5-2.7,4.7-4l1.5-1.6c0,0,0.1-0.1,0.1-0.1
		c0,0.1,0,0.1,0,0.2v1.6v1.4v1L17,12.3h4L27,8.2c0,0,0.1-0.1,0.1-0.1c0.2,0,0.3,0,0.5,0h10.8c1.9,0,3.4-0.6,4.9-1.2h0
		c0.2-0.1,0.3-0.1,0.5-0.1c0.5,0,1.1,0.4,1.4,1.2l1.2,3.6c0.3,0.9,0.6,2.4,0.7,3.7L26.2,18L2.3,18C2.6,17.1,3.5,16.1,4.3,15.9z
		 M47.2,20.9c0,1-0.8,1.9-1.9,1.9H4.1c-1,0-1.9-0.8-1.9-1.9v-0.7h24l0.1,0l20.8-2.6V20.9z"/>
</g>
<g>
</g>
<g>
</g>
<g>
</g>
<g>
</g>
<g>
</g>
<g>
</g>
<g>
</g>
<g>
</g>
<g>
</g>
<g>
</g>
<g>
</g>
<g>
</g>
<g>
</g>
<g>
</g>
<g>
</g>
</svg>
