<?xml version="1.0" encoding="utf-8"?>
<!-- Generator: Adobe Illustrator 18.1.1, SVG Export Plug-In . SVG Version: 6.00 Build 0)  -->
<svg version="1.1" id="Layer_1" xmlns="http://www.w3.org/2000/svg" xmlns:xlink="http://www.w3.org/1999/xlink" x="0px" y="0px"
	 viewBox="0 0 613.2 452.6" enable-background="new 0 0 613.2 452.6" xml:space="preserve">
<path d="M608.3,87.1c-11-52.7-46.6-79.7-49.1-82.2c-4.9-3.7-9.8-4.9-14.7-4.9h-61.3c-7.4,0-14.7,3.7-19.6,9.8L304.2,223.2
	c-19.6,27-72.4,54-104.2,52.7c-41.7,0-52.7,0-52.7,0c-3.7,0-8.6,1.2-12.3,2.5c0,0-2.5,1.2-9.8,4.9s-19.6,9.8-38,18.4
	c-41.7,19.6-69.9,49.1-71.1,50.3l0,0C6.1,364.3,1.2,376.5,0,392.5V428c0,6.1,2.5,12.3,7.4,17.2c4.9,4.9,11,7.4,17.2,7.4h207.3
	c30.7-1.2,62.5-14.7,84.6-35.6L444,285.8v-71.1l-161.9,168c-8.6,9.8-36.8,22.1-49.1,20.8h-184v-11c0,0,0-1.2,1.2-2.5
	c0,0,0-1.2,1.2-1.2l0,0l0,0l1.2-1.2c0,0,1.2-1.2,3.7-3.7c7.4-7.4,28.2-24.5,52.7-36.8c24.5-11,38-18.4,45.4-22.1
	c7.4,0,20.8,0,46.6,0c51.5-1.2,110.4-30.7,143.5-72.4L495.5,49.1h39.2c7.4,7.4,20.8,24.5,24.5,46.6c2.5,12.3,3.7,23.3,3.7,34.3
	c0,25.8-6.1,51.5-17.2,76c-4.9,11-20.8,31.9-34.3,55.2c-14.7,23.3-28.2,49.1-31.9,78.5l-14.7,112.8h49.1l13.5-106.7
	c1.2-15.9,12.3-36.8,25.8-57.6s28.2-40.5,36.8-58.9c15.9-30.7,23.3-63.8,23.3-98.1C612,116.5,610.8,101.8,608.3,87.1z"/>
<g>
</g>
<g>
</g>
<g>
</g>
<g>
</g>
<g>
</g>
<g>
</g>
<g>
</g>
<g>
</g>
<g>
</g>
<g>
</g>
<g>
</g>
<g>
</g>
<g>
</g>
<g>
</g>
<g>
</g>
</svg>
