<?xml version="1.0" encoding="utf-8"?>
<!-- Generator: Adobe Illustrator 18.1.1, SVG Export Plug-In . SVG Version: 6.00 Build 0)  -->
<svg version="1.1" id="Layer_1" xmlns="http://www.w3.org/2000/svg" xmlns:xlink="http://www.w3.org/1999/xlink" x="0px" y="0px"
	 viewBox="0 0 43.9 48.3" enable-background="new 0 0 43.9 48.3" xml:space="preserve">
<g>
	<path d="M40.2,3.7C36.8,0.3,32-0.7,27.7,0.5l10.4,10.4l-1.8,6.9l-6.9,1.8L19,9.2c-1.2,4.3-0.2,9.1,3.2,12.5
		c1.3,1.3,2.7,2.2,4.3,2.8v23.8h9.4V24.5c1.6-0.6,3-1.6,4.3-2.8C45.2,16.7,45.2,8.7,40.2,3.7z M12.5,37.4c0.9,0,1.6-0.8,1.6-1.8
		c0-1-1-1.8-2.3-1.8H8.7V12l2.6-3.6L8.6,0.9H5.5L2.7,8.4L5.4,12v21.7H2.3C1,33.7,0,34.5,0,35.5c0,1,0.7,1.8,1.5,1.8
		c0.9,0,0.9,3.1,0,3.1c-0.9,0-1.5,1-1.5,2.3v5.6h14.1v-5.6c0-1.2-0.7-2.3-1.6-2.3C11.7,40.4,11.7,37.4,12.5,37.4z"/>
</g>
<g>
</g>
<g>
</g>
<g>
</g>
<g>
</g>
<g>
</g>
<g>
</g>
<g>
</g>
<g>
</g>
<g>
</g>
<g>
</g>
<g>
</g>
<g>
</g>
<g>
</g>
<g>
</g>
<g>
</g>
</svg>
