<?xml version="1.0" encoding="utf-8"?>
<!-- Generator: Adobe Illustrator 18.1.1, SVG Export Plug-In . SVG Version: 6.00 Build 0)  -->
<svg version="1.1" id="Layer_1" xmlns="http://www.w3.org/2000/svg" xmlns:xlink="http://www.w3.org/1999/xlink" x="0px" y="0px"
	 viewBox="0 0 40.1 47.3" enable-background="new 0 0 40.1 47.3" xml:space="preserve">
<g>
	<path d="M0.7,31.5C0.7,31.5,0.7,31.5,0.7,31.5c-0.1,0-0.1,0-0.2,0c0,0,0,0-0.1,0c0,0,0,0,0,0c-0.1,0-0.1,0-0.2,0.1c0,0,0,0,0,0
		c0,0,0,0,0,0c0,0-0.1,0.1-0.1,0.1c0,0,0,0,0,0.1c0,0.1,0,0.1,0,0.2c0,0,0,0,0,0c0.2,1.1,0.5,2.2,0.9,3.1c0,0.1,0,0.1,0.1,0.2
		c0.1,0.2,0.2,0.4,0.3,0.6c0.1,0.1,0.1,0.2,0.2,0.3c0.1,0.2,0.2,0.3,0.3,0.5C2,36.9,2,37,2.1,37.1c0.1,0.1,0.2,0.3,0.3,0.4
		c0.1,0.1,0.2,0.3,0.4,0.4c0.1,0.1,0.2,0.2,0.3,0.3c0.1,0.1,0.3,0.3,0.4,0.4C3.7,38.8,3.9,38.9,4,39c0.2,0.1,0.3,0.3,0.5,0.4
		c0.1,0.1,0.3,0.2,0.4,0.3C5,39.8,5.2,39.9,5.3,40c0.2,0.1,0.3,0.2,0.5,0.3c0.2,0.1,0.3,0.2,0.5,0.3c0.2,0.1,0.4,0.2,0.6,0.3
		C7,40.9,7.2,41,7.3,41c0.2,0.1,0.4,0.2,0.7,0.2c0.1,0,0.3,0.1,0.4,0.1c0.2,0.1,0.5,0.1,0.7,0.2c0.1,0,0.2,0.1,0.3,0.1
		c0.3,0.1,0.6,0.1,0.8,0.2c0.1,0,0.2,0,0.3,0.1c0.3,0,0.6,0.1,0.9,0.1c0.1,0,0.1,0,0.2,0c0.3,0,0.6,0,1,0c0.1,0,0.1,0,0.2,0
		c0,0,0,0,0,0c0,0,0,0,0,0c0.4,0,0.8,0,1.3-0.1c0.1,0,0.2,0,0.3,0c0.3,0,0.7-0.1,1-0.1c0.1,0,0.3,0,0.4-0.1c0.3-0.1,0.6-0.1,0.9-0.2
		c0.1,0,0.3-0.1,0.4-0.1c0.1,0,0.3-0.1,0.4-0.1v5.5c0,0.1,0,0.2,0.1,0.3c0.1,0.1,0.2,0.1,0.3,0.1h4.2c0.1,0,0.2,0,0.3-0.1
		c0.1-0.1,0.1-0.2,0.1-0.3v-5.5c1.5,0.5,3.1,0.7,4.7,0.7c6.2,0,12-3.7,12.8-10.1c0-0.2,0-0.3-0.2-0.4c-0.1-0.1-0.3-0.1-0.5,0
		c-1.3,0.6-3,1-4.8,1c-1.4,0-2.9-0.2-4.2-0.7c3.8-1.4,6.2-4.5,7.2-8.1c0.1-0.2,0-0.4-0.1-0.5c-0.1-0.1-0.3-0.2-0.5-0.1
		c-1.1,0.5-2.6,0.7-4.1,0.7c-1.6,0-3.3-0.3-4.9-0.9c3.1-1.3,5.3-3.6,6.7-6.5c0.1-0.2,0.1-0.4,0-0.5c-0.1-0.1-0.3-0.2-0.5-0.2
		C33,16,32,16.1,31,16.1c-2,0-3.6-0.5-5.3-1.6c3-0.9,5.7-3.1,6.6-5.3c0.1-0.1,0-0.3,0-0.4c-0.1-0.1-0.2-0.2-0.4-0.2
		c-6-0.2-9.7-3.7-11.5-8.3C20.4,0.1,20.3,0,20.1,0c-0.2,0-0.4,0.1-0.4,0.3c-1.7,4.6-5.4,8-11.5,8.3C8,8.6,7.9,8.7,7.8,8.8
		c-0.1,0.1-0.1,0.3,0,0.4c0.9,2.2,3.6,4.4,6.6,5.3c-1.7,1.1-3.3,1.6-5.3,1.6c-1,0-2-0.1-3.2-0.4c-0.2,0-0.4,0-0.5,0.2
		c-0.1,0.1-0.1,0.3,0,0.5c1.4,2.9,3.7,5.2,6.7,6.5c-1.5,0.6-3.3,0.9-4.9,0.9c-1.6,0-3-0.3-4.1-0.7c-0.2-0.1-0.4,0-0.5,0.1
		c-0.1,0.1-0.2,0.3-0.1,0.5c1.1,3.6,3.4,6.7,7.2,8.1c-1.3,0.5-2.8,0.7-4.2,0.7C3.7,32.5,2,32.1,0.7,31.5z"/>
</g>
<g>
</g>
<g>
</g>
<g>
</g>
<g>
</g>
<g>
</g>
<g>
</g>
<g>
</g>
<g>
</g>
<g>
</g>
<g>
</g>
<g>
</g>
<g>
</g>
<g>
</g>
<g>
</g>
<g>
</g>
</svg>
