<?xml version="1.0" encoding="utf-8"?>
<!-- Generator: Adobe Illustrator 18.1.1, SVG Export Plug-In . SVG Version: 6.00 Build 0)  -->
<svg version="1.1" id="Layer_1" xmlns="http://www.w3.org/2000/svg" xmlns:xlink="http://www.w3.org/1999/xlink" x="0px" y="0px"
	 viewBox="0 0 89 89" enable-background="new 0 0 89 89" xml:space="preserve">
<g id="android">
	<path fill="#CDE299" d="M83.2,5.8C77.4,0,71.6,0,61.5,0h-34C17.4,0,11.6,0,5.8,5.8C0,11.6,0,17.4,0,27.5v34c0,10.1,0,15.9,5.8,21.7
		C11.6,89,17.4,89,27.5,89h34c10.1,0,15.9,0,21.7-5.8C89,77.4,89,71.6,89,61.5v-34C89,17.4,89,11.6,83.2,5.8z"/>
	<g>
		<path id="inner1" fill="#FFFFFF" d="M47.9,31.5l0.3-0.5l0.3-0.5l0.7-1.1c0.1-0.1,0.1-0.3-0.1-0.4c-0.1-0.1-0.3-0.1-0.4,0.1L48,30.2l-0.3,0.5
			l-0.3,0.5c-1.1-0.4-2.3-0.7-3.5-0.7c-1.3,0-2.5,0.2-3.5,0.7l-0.3-0.5l-0.3-0.5L38.8,29c-0.1-0.1-0.3-0.2-0.4-0.1
			c-0.1,0.1-0.2,0.3-0.1,0.4l0.7,1.1l0.3,0.5l0.3,0.5c-2.5,1.2-4.2,3.4-4.2,6h16.7C52.1,34.9,50.4,32.6,47.9,31.5z M40.2,35
			c-0.5,0-0.9-0.4-0.9-0.9c0-0.5,0.4-0.9,0.9-0.9c0.5,0,0.9,0.4,0.9,0.9C41.1,34.6,40.7,35,40.2,35z M47.4,35
			c-0.5,0-0.9-0.4-0.9-0.9c0-0.5,0.4-0.9,0.9-0.9c0.5,0,0.9,0.4,0.9,0.9C48.3,34.6,47.9,35,47.4,35z"/>
		<path id="inner2" fill="#FFFFFF" d="M35.6,38.6h-0.1v1.5v1.2v10.4c0,1,0.8,1.9,1.9,1.9h1.4c0,0.2-0.1,0.3-0.1,0.5v0.1v0.6v3.1
			c0,1,0.8,1.8,1.8,1.8c1,0,1.8-0.8,1.8-1.8v-3.1v-0.6v-0.1c0-0.2,0-0.3-0.1-0.5h3.3c0,0.2-0.1,0.3-0.1,0.5v0.1v0.6v3.1
			c0,1,0.8,1.8,1.8,1.8c1,0,1.8-0.8,1.8-1.8v-3.1v-0.6v-0.1c0-0.2,0-0.3-0.1-0.5h1.4c1,0,1.9-0.8,1.9-1.9V41.3v-1.2v-1.5H52H35.6z"
			/>
		<path id="inner3" fill="#FFFFFF" d="M32.5,38.6c-1,0-1.8,0.8-1.8,1.8V48c0,1,0.8,1.8,1.8,1.8c1,0,1.8-0.8,1.8-1.8v-7.6
			C34.3,39.4,33.5,38.6,32.5,38.6z"/>
		<path id="inner4" fill="#FFFFFF" d="M55.1,38.6c-1,0-1.8,0.8-1.8,1.8V48c0,1,0.8,1.8,1.8,1.8c1,0,1.8-0.8,1.8-1.8v-7.6
			C56.9,39.4,56.1,38.6,55.1,38.6z"/>
	</g>
</g>
<g>
</g>
<g>
</g>
<g>
</g>
<g>
</g>
<g>
</g>
<g>
</g>
<g>
</g>
<g>
</g>
<g>
</g>
<g>
</g>
<g>
</g>
<g>
</g>
<g>
</g>
<g>
</g>
<g>
</g>
</svg>
