<?xml version="1.0" encoding="utf-8"?>
<!-- Generator: Adobe Illustrator 18.1.1, SVG Export Plug-In . SVG Version: 6.00 Build 0)  -->
<svg version="1.1" id="Layer_1" xmlns="http://www.w3.org/2000/svg" xmlns:xlink="http://www.w3.org/1999/xlink" x="0px" y="0px"
	 viewBox="0 0 180.2 212.1" enable-background="new 0 0 180.2 212.1" xml:space="preserve">
<g>
	<path fill="#CDE299" d="M118.3,18.2l2.1-3.4l2.1-3.4l4.8-7.6c0.7-0.7,0.7-2.1-0.7-2.8c-0.7-0.7-2.1-0.7-2.8,0.7L119,9.2l-2.1,3.4
		l-2.1,3.4c-7.6-2.8-15.8-4.8-24.1-4.8c-8.9,0-17.2,1.4-24.1,4.8l-2.1-3.4l-2.1-3.4L55.7,1c-0.7-0.7-2.1-1.4-2.8-0.7
		C52.3,1,51.6,2.3,52.3,3l4.8,7.6l2.1,3.4l2.1,3.4C44,25.7,32.3,40.9,32.3,58.7h114.8C147.2,41.5,135.5,25.7,118.3,18.2z M65.3,42.2
		c-3.4,0-6.2-2.8-6.2-6.2s2.8-6.2,6.2-6.2c3.4,0,6.2,2.8,6.2,6.2C71.5,39.5,68.8,42.2,65.3,42.2z M114.8,42.2
		c-3.4,0-6.2-2.8-6.2-6.2s2.8-6.2,6.2-6.2s6.2,2.8,6.2,6.2C121,39.5,118.3,42.2,114.8,42.2z"/>
	<path fill="#CDE299" d="M33.7,67H33v10.3v8.3v71.5c0,6.9,5.5,13.1,13.1,13.1h9.6c0,1.4-0.7,2.1-0.7,3.4v0.7v4.1v21.3
		c0,6.9,5.5,12.4,12.4,12.4s12.4-5.5,12.4-12.4v-21.3v-4.1v-0.7c0-1.4,0-2.1-0.7-3.4h22.7c0,1.4-0.7,2.1-0.7,3.4v0.7v4.1v21.3
		c0,6.9,5.5,12.4,12.4,12.4c6.9,0,12.4-5.5,12.4-12.4v-21.3v-4.1v-0.7c0-1.4,0-2.1-0.7-3.4h9.6c6.9,0,13.1-5.5,13.1-13.1V85.6v-8.3
		V67h-1.4H33.7z"/>
	<path fill="#CDE299" d="M12.4,67C5.5,67,0,72.5,0,79.4v52.3c0,6.9,5.5,12.4,12.4,12.4s12.4-5.5,12.4-12.4V79.4
		C24.8,72.5,19.3,67,12.4,67z"/>
	<path fill="#CDE299" d="M167.8,67c-6.9,0-12.4,5.5-12.4,12.4v52.3c0,6.9,5.5,12.4,12.4,12.4c6.9,0,12.4-5.5,12.4-12.4V79.4
		C180.2,72.5,174.7,67,167.8,67z"/>
</g>
<g>
</g>
<g>
</g>
<g>
</g>
<g>
</g>
<g>
</g>
<g>
</g>
<g>
</g>
<g>
</g>
<g>
</g>
<g>
</g>
<g>
</g>
<g>
</g>
<g>
</g>
<g>
</g>
<g>
</g>
</svg>
