<?xml version="1.0" encoding="utf-8"?>
<!-- Generator: Adobe Illustrator 18.1.1, SVG Export Plug-In . SVG Version: 6.00 Build 0)  -->
<svg version="1.1" id="Layer_1" xmlns="http://www.w3.org/2000/svg" xmlns:xlink="http://www.w3.org/1999/xlink" x="0px" y="0px"
	 viewBox="0 0 171.1 212.5" enable-background="new 0 0 171.1 212.5" xml:space="preserve">
<g>
	<path fill="#D5D4D2" d="M144.3,112.1c0-26.8,22-39.9,22.7-39.9c-12.4-17.9-31.6-20.6-38.5-20.6c-16.5-1.4-32.3,9.6-40.6,9.6
		s-21.3-9.6-35.1-8.9c-17.9,0-34.4,10.3-44,26.8C-9.7,111.4,4,159.5,21.9,185.7c8.9,13.1,19.3,27.5,33,26.8
		c13.1-0.7,18.6-8.9,34.4-8.9c16.5,0,20.6,8.9,35.1,8.3c14.4,0,23.4-13.1,32.3-26.1c10.3-15.1,14.4-29.6,14.4-30.3
		C171.8,154.7,144.3,144.4,144.3,112.1z"/>
	<path fill="#D5D4D2" d="M117.5,33.7c7.6-8.9,12.4-21.3,11-33.7c-10.3,0.7-23.4,6.9-30.9,15.8c-6.9,8.3-13.1,20.6-11,33
		C98.2,49.5,109.9,42.6,117.5,33.7z"/>
</g>
<g>
</g>
<g>
</g>
<g>
</g>
<g>
</g>
<g>
</g>
<g>
</g>
<g>
</g>
<g>
</g>
<g>
</g>
<g>
</g>
<g>
</g>
<g>
</g>
<g>
</g>
<g>
</g>
<g>
</g>
</svg>
