<?xml version="1.0" encoding="utf-8"?>
<!-- Generator: Adobe Illustrator 18.1.1, SVG Export Plug-In . SVG Version: 6.00 Build 0)  -->
<svg version="1.1" id="Layer_1" xmlns="http://www.w3.org/2000/svg" xmlns:xlink="http://www.w3.org/1999/xlink" x="0px" y="0px"
	 viewBox="0 0 89 89" enable-background="new 0 0 89 89" xml:space="preserve">
<g id="apple">
	<path fill="#D5D4D2" d="M83.2,5.8C77.4,0,71.6,0,61.5,0h-34C17.4,0,11.6,0,5.8,5.8C0,11.6,0,17.4,0,27.5v34c0,10.1,0,15.9,5.8,21.7
		C11.6,89,17.4,89,27.5,89h34c10.1,0,15.9,0,21.7-5.8C89,77.4,89,71.6,89,61.5v-34C89,17.4,89,11.6,83.2,5.8z"/>
	<g>
		<path id="inner1" fill="#FFFFFF" d="M52.2,45.2c0-3.9,3.2-5.8,3.3-5.8c-1.8-2.6-4.6-3-5.6-3c-2.4-0.2-4.7,1.4-5.9,1.4c-1.2,0-3.1-1.4-5.1-1.3
			c-2.6,0-5,1.5-6.4,3.9c-2.7,4.7-0.7,11.7,1.9,15.5c1.3,1.9,2.8,4,4.8,3.9c1.9-0.1,2.7-1.3,5-1.3c2.4,0,3,1.3,5.1,1.2
			c2.1,0,3.4-1.9,4.7-3.8c1.5-2.2,2.1-4.3,2.1-4.4C56.2,51.4,52.2,49.9,52.2,45.2z"/>
		<path id="inner2" fill="#FFFFFF" d="M48.3,33.8c1.1-1.3,1.8-3.1,1.6-4.9c-1.5,0.1-3.4,1-4.5,2.3c-1,1.2-1.9,3-1.6,4.8
			C45.5,36.1,47.2,35.1,48.3,33.8z"/>
	</g>
</g>
<g>
</g>
<g>
</g>
<g>
</g>
<g>
</g>
<g>
</g>
<g>
</g>
<g>
</g>
<g>
</g>
<g>
</g>
<g>
</g>
<g>
</g>
<g>
</g>
<g>
</g>
<g>
</g>
<g>
</g>
</svg>
