<?xml version="1.0" encoding="utf-8"?>
<!-- Generator: Adobe Illustrator 18.1.1, SVG Export Plug-In . SVG Version: 6.00 Build 0)  -->
<svg version="1.1" id="Layer_1" xmlns="http://www.w3.org/2000/svg" xmlns:xlink="http://www.w3.org/1999/xlink" x="0px" y="0px"
	 viewBox="0 0 89 89" enable-background="new 0 0 89 89" xml:space="preserve">
<g id="evernote">
	<path fill="#8FC76C" d="M83.2,5.8C77.4,0,71.6,0,61.5,0h-34C17.4,0,11.6,0,5.8,5.8C0,11.6,0,17.4,0,27.5v34c0,10.1,0,15.9,5.8,21.7
		C11.6,89,17.4,89,27.5,89h34c10.1,0,15.9,0,21.7-5.8C89,77.4,89,71.6,89,61.5v-34C89,17.4,89,11.6,83.2,5.8z"/>
	<path id="inner" fill="#FFFFFF" d="M34.2,35C34.2,35,34.2,35,34.2,35H37c0.2,0,0.3-0.1,0.3-0.3c0,0,0-2.5,0-3.2v0c0-0.6,0.1-1.1,0.3-1.5
		l0.1-0.2c0,0,0,0,0,0l-5.6,5.6c0,0,0,0,0,0c0.1-0.1,0.3-0.1,0.3-0.1C32.8,35.2,33.4,35,34.2,35z M56.7,34.4c-0.2-1.2-1-1.8-1.6-2.1
		c-0.7-0.3-2.2-0.5-4-0.7c-1.5-0.2-3.2-0.2-4.2-0.1c-0.1-0.9-0.7-1.6-1.4-1.9c-1.8-0.7-4.5-0.5-5.3-0.3c-0.6,0.2-1.2,0.5-1.5,1
		c-0.2,0.3-0.4,0.8-0.4,1.4c0,0.3,0,1.1,0,1.8c0,0.7,0,1.3,0,1.3c0,0.6-0.5,1.1-1.1,1.1h-2.9c-0.6,0-1.1,0.1-1.4,0.3
		c-0.4,0.2-0.6,0.4-0.8,0.6c-0.4,0.5-0.5,1.2-0.5,1.8c0,0,0,0.5,0.1,1.6c0.1,0.8,1,6.4,1.8,8.1c0.3,0.7,0.5,0.9,1.2,1.2
		c1.4,0.6,4.6,1.3,6.1,1.5c1.5,0.2,2.4,0.6,3-0.6c0,0,0.1-0.3,0.3-0.7c0.5-1.5,0.6-2.8,0.6-3.7c0-0.1,0.1-0.1,0.1,0
		c0,0.7-0.1,3,1.7,3.7c0.7,0.2,2.2,0.5,3.6,0.6c1.3,0.2,2.3,0.7,2.3,4.1c0,2.1-0.4,2.4-2.7,2.4c-1.9,0-2.6,0-2.6-1.4
		c0-1.2,1.2-1.1,2.1-1.1c0.4,0,0.1-0.3,0.1-1c0-0.7,0.5-1.2,0-1.2c-3-0.1-4.8,0-4.8,3.8c0,3.4,1.3,4.1,5.6,4.1c3.4,0,4.6-0.1,6-4.4
		c0.3-0.9,0.9-3.5,1.3-7.8C57.6,44.9,57.1,36.5,56.7,34.4z M50.8,43.6c-0.4,0-0.8,0-1.2,0.1c0.1-0.8,0.5-1.9,1.7-1.8
		c1.4,0,1.6,1.3,1.6,2.2C52.3,43.8,51.6,43.7,50.8,43.6z"/>
</g>
<g>
</g>
<g>
</g>
<g>
</g>
<g>
</g>
<g>
</g>
<g>
</g>
<g>
</g>
<g>
</g>
<g>
</g>
<g>
</g>
<g>
</g>
<g>
</g>
<g>
</g>
<g>
</g>
<g>
</g>
</svg>
