<?xml version="1.0" encoding="utf-8"?>
<!-- Generator: Adobe Illustrator 18.1.1, SVG Export Plug-In . SVG Version: 6.00 Build 0)  -->
<svg version="1.1" id="Layer_1" xmlns="http://www.w3.org/2000/svg" xmlns:xlink="http://www.w3.org/1999/xlink" x="0px" y="0px"
	 viewBox="0 0 177.7 212.4" enable-background="new 0 0 177.7 212.4" xml:space="preserve">
<path fill="#8FC76C" d="M17.9,40.5L17.9,40.5h19.3c1.4,0,2.1-0.7,2.1-2.1c0,0,0-17.2,0-22l0,0c0-4.1,0.7-7.6,2.1-10.3l0.7-1.4l0,0
	L3.4,43.2l0,0c0.7-0.7,2.1-0.7,2.1-0.7C8.3,41.9,12.4,40.5,17.9,40.5z M172.6,36.4c-1.4-8.3-6.9-12.4-11-14.4
	c-4.8-2.1-15.1-3.4-27.5-4.8c-10.3-1.4-22-1.4-28.9-0.7c-0.7-6.2-4.8-11-9.6-13.1C83.2-1.5,64.6-0.1,59.1,1.3
	C55,2.7,50.9,4.7,48.8,8.2c-1.4,2.1-2.8,5.5-2.8,9.6c0,2.1,0,7.6,0,12.4s0,8.9,0,8.9c0,4.1-3.4,7.6-7.6,7.6H18.6
	c-4.1,0-7.6,0.7-9.6,2.1c-2.8,1.4-4.1,2.8-5.5,4.1C0.7,56.3,0,61.1,0,65.2c0,0,0,3.4,0.7,11c0.7,5.5,6.9,44,12.4,55.7
	c2.1,4.8,3.4,6.2,8.3,8.3c9.6,4.1,31.6,8.9,41.9,10.3s16.5,4.1,20.6-4.1c0,0,0.7-2.1,2.1-4.8c3.4-10.3,4.1-19.3,4.1-25.4
	c0-0.7,0.7-0.7,0.7,0c0,4.8-0.7,20.6,11.7,25.4c4.8,1.4,15.1,3.4,24.8,4.1c8.9,1.4,15.8,4.8,15.8,28.2c0,14.4-2.8,16.5-18.6,16.5
	c-13.1,0-17.9,0-17.9-9.6c0-8.3,8.3-7.6,14.4-7.6c2.8,0,0.7-2.1,0.7-6.9c0-4.8,3.4-8.3,0-8.3c-20.6-0.7-33,0-33,26.1
	c0,23.4,8.9,28.2,38.5,28.2c23.4,0,31.6-0.7,41.3-30.3c2.1-6.2,6.2-24.1,8.9-53.6C178.8,108.6,175.3,50.8,172.6,36.4z M132,99.6
	c-2.8,0-5.5,0-8.3,0.7c0.7-5.5,3.4-13.1,11.7-12.4c9.6,0,11,8.9,11,15.1C142.3,101,137.5,100.3,132,99.6z"/>
<g>
</g>
<g>
</g>
<g>
</g>
<g>
</g>
<g>
</g>
<g>
</g>
<g>
</g>
<g>
</g>
<g>
</g>
<g>
</g>
<g>
</g>
<g>
</g>
<g>
</g>
<g>
</g>
<g>
</g>
</svg>
