<?xml version="1.0" encoding="utf-8"?>
<!-- Generator: Adobe Illustrator 18.1.1, SVG Export Plug-In . SVG Version: 6.00 Build 0)  -->
<svg version="1.1" id="Layer_1" xmlns="http://www.w3.org/2000/svg" xmlns:xlink="http://www.w3.org/1999/xlink" x="0px" y="0px"
	 viewBox="0 0 89 89" enable-background="new 0 0 89 89" xml:space="preserve">
<g id="facebook">
	<path fill="#5078BC" d="M83.2,5.8C77.4,0,71.6,0,61.5,0h-34C17.4,0,11.6,0,5.8,5.8C0,11.6,0,17.4,0,27.5v34c0,10.1,0,15.9,5.8,21.7
		C11.6,89,17.4,89,27.5,89h34c10.1,0,15.9,0,21.7-5.8C89,77.4,89,71.6,89,61.5v-34C89,17.4,89,11.6,83.2,5.8z"/>
	<path id="inner" fill="#FFFFFF" d="M46.8,39v-3.3c0-1.2,0.8-1.5,1.4-1.5c0.6,0,3.5,0,3.5,0v-5.4l-4.9,0c-5.4,0-6.7,4.1-6.7,6.7V39h-3.1v5.6
		h3.1c0,7.2,0,15.9,0,15.9h6.6c0,0,0-8.8,0-15.9h4.4l0.6-5.6H46.8z"/>
</g>
<g>
</g>
<g>
</g>
<g>
</g>
<g>
</g>
<g>
</g>
<g>
</g>
<g>
</g>
<g>
</g>
<g>
</g>
<g>
</g>
<g>
</g>
<g>
</g>
<g>
</g>
<g>
</g>
<g>
</g>
</svg>
