<?xml version="1.0" encoding="utf-8"?>
<!-- Generator: Adobe Illustrator 18.1.1, SVG Export Plug-In . SVG Version: 6.00 Build 0)  -->
<svg version="1.1" id="Layer_1" xmlns="http://www.w3.org/2000/svg" xmlns:xlink="http://www.w3.org/1999/xlink" x="0px" y="0px"
	 viewBox="0 0 89 89" enable-background="new 0 0 89 89" xml:space="preserve">
<g id="google_x2B_">
	<path fill="#504F54" d="M83.2,5.8C77.4,0,71.6,0,61.5,0h-34C17.4,0,11.6,0,5.8,5.8C0,11.6,0,17.4,0,27.5v34c0,10.1,0,15.9,5.8,21.7
		C11.6,89,17.4,89,27.5,89h34c10.1,0,15.9,0,21.7-5.8C89,77.4,89,71.6,89,61.5v-34C89,17.4,89,11.6,83.2,5.8z"/>
	<g>
		<path id="inner1" fill="#FFFFFF" d="M44.8,47c-0.9-0.6-2.5-2.1-2.5-3c0-1,0.3-1.5,1.9-2.8c1.6-1.2,2.7-3,2.7-5c0-2.4-1.1-4.8-3.1-5.6h3.1
			l2.2-1.6h-9.6c-4.3,0-8.4,3.3-8.4,7.1c0,3.9,2.9,7,7.3,7c0.3,0,0.6,0,0.9,0c-0.3,0.5-0.5,1.2-0.5,1.8c0,1.1,0.6,2,1.3,2.7
			c-0.6,0-1.1,0-1.7,0c-5.4,0-9.5,3.4-9.5,7c0,3.5,4.5,5.7,9.9,5.7c6.1,0,9.5-3.5,9.5-7C48.2,50.5,47.3,48.8,44.8,47z M39.6,42.2
			c-2.5-0.1-4.8-2.8-5.3-6c-0.4-3.3,1.2-5.8,3.7-5.7c2.5,0.1,4.8,2.7,5.3,6C43.8,39.7,42.1,42.2,39.6,42.2z M38.7,58.7
			c-3.7,0-6.4-2.3-6.4-5.2c0-2.8,3.3-5.1,7-5c0.9,0,1.7,0.1,2.4,0.4c2,1.4,3.5,2.2,3.9,3.8c0.1,0.3,0.1,0.7,0.1,1
			C45.7,56.5,43.9,58.7,38.7,58.7z"/>
		<polygon id="inner2" fill="#FFFFFF" points="55.1,42.5 55.1,38.7 52,38.7 52,42.5 48.3,42.5 48.3,45.5 52,45.5 52,49.2 55.1,49.2 55.1,45.5 
			58.8,45.5 58.8,42.5 		"/>
	</g>
</g>
<g>
</g>
<g>
</g>
<g>
</g>
<g>
</g>
<g>
</g>
<g>
</g>
<g>
</g>
<g>
</g>
<g>
</g>
<g>
</g>
<g>
</g>
<g>
</g>
<g>
</g>
<g>
</g>
<g>
</g>
</svg>
