<?xml version="1.0" encoding="utf-8"?>
<!-- Generator: Adobe Illustrator 18.1.1, SVG Export Plug-In . SVG Version: 6.00 Build 0)  -->
<svg version="1.1" id="Layer_1" xmlns="http://www.w3.org/2000/svg" xmlns:xlink="http://www.w3.org/1999/xlink" x="0px" y="0px"
	 viewBox="0 0 205.6 215.2" enable-background="new 0 0 205.6 215.2" xml:space="preserve">
<g>
	<path fill="#908E8B" d="M109.3,123.8c-6.2-4.1-17.2-14.4-17.2-20.6c0-6.9,2.1-10.3,13.1-19.3c11-8.3,18.6-20.6,18.6-34.4
		c0-16.5-7.6-33-21.3-38.5h21.3l15.1-11h-66C43.3,0,15.1,22.7,15.1,48.8C15.1,75.6,35.1,97,65.3,97c2.1,0,4.1,0,6.2,0
		c-2.1,3.4-3.4,8.3-3.4,12.4c0,7.6,4.1,13.8,8.9,18.6c-4.1,0-7.6,0-11.7,0C28.2,127.9,0,151.3,0,176c0,24.1,30.9,39.2,68.1,39.2
		c41.9,0,65.3-24.1,65.3-48.1C132.7,147.8,126.5,136.2,109.3,123.8z M73.6,90.8c-17.2-0.7-33-19.3-36.4-41.3
		c-2.8-22.7,8.3-39.9,25.4-39.2C79.8,11,95.6,28.9,99,51.6C102.5,73.6,90.8,90.8,73.6,90.8z M67.4,204.2c-25.4,0-44-15.8-44-35.8
		c0-19.3,22.7-35.1,48.1-34.4c6.2,0,11.7,0.7,16.5,2.8c13.8,9.6,24.1,15.1,26.8,26.1c0.7,2.1,0.7,4.8,0.7,6.9
		C115.5,189.1,103.1,204.2,67.4,204.2z"/>
	<polygon fill="#908E8B" points="180.2,92.8 180.2,66.7 158.8,66.7 158.8,92.8 133.4,92.8 133.4,113.5 158.8,113.5 158.8,138.9 
		180.2,138.9 180.2,113.5 205.6,113.5 205.6,92.8 	"/>
</g>
<g>
</g>
<g>
</g>
<g>
</g>
<g>
</g>
<g>
</g>
<g>
</g>
<g>
</g>
<g>
</g>
<g>
</g>
<g>
</g>
<g>
</g>
<g>
</g>
<g>
</g>
<g>
</g>
<g>
</g>
</svg>
