<?xml version="1.0" encoding="utf-8"?>
<!-- Generator: Adobe Illustrator 18.1.1, SVG Export Plug-In . SVG Version: 6.00 Build 0)  -->
<svg version="1.1" id="Layer_1" xmlns="http://www.w3.org/2000/svg" xmlns:xlink="http://www.w3.org/1999/xlink" x="0px" y="0px"
	 viewBox="0 0 89 89" enable-background="new 0 0 89 89" xml:space="preserve">
<g id="instagram">
	<path fill="#CFCDB7" d="M83.2,5.8C77.4,0,71.6,0,61.5,0h-34C17.4,0,11.6,0,5.8,5.8C0,11.6,0,17.4,0,27.5v34c0,10.1,0,15.9,5.8,21.7
		C11.6,89,17.4,89,27.5,89h34c10.1,0,15.9,0,21.7-5.8C89,77.4,89,71.6,89,61.5v-34C89,17.4,89,11.6,83.2,5.8z"/>
	<path id="inner" fill="#FFFFFF" d="M52.9,29.5H34.6c-3.2,0-5.7,2.6-5.7,5.7v6.1v12.2c0,3.2,2.6,5.7,5.7,5.7h18.2c3.2,0,5.7-2.6,5.7-5.7V41.3
		v-6.1C58.6,32,56.1,29.5,52.9,29.5z M54.5,32.9l0.7,0v0.7v4.4l-5,0l0-5L54.5,32.9z M39.5,41.3c1-1.3,2.5-2.2,4.2-2.2
		s3.3,0.9,4.2,2.2c0.6,0.9,1,1.9,1,3.1c0,2.9-2.4,5.2-5.2,5.2s-5.2-2.3-5.2-5.2C38.5,43.2,38.9,42.1,39.5,41.3z M55.7,53.5
		c0,1.6-1.3,2.8-2.9,2.8H34.6c-1.6,0-2.9-1.3-2.9-2.8V41.3h4.4c-0.4,0.9-0.6,2-0.6,3.1c0,4.5,3.6,8.1,8.1,8.1c4.5,0,8.1-3.7,8.1-8.1
		c0-1.1-0.2-2.1-0.6-3.1h4.4V53.5z"/>
</g>
<g>
</g>
<g>
</g>
<g>
</g>
<g>
</g>
<g>
</g>
<g>
</g>
<g>
</g>
<g>
</g>
<g>
</g>
<g>
</g>
<g>
</g>
<g>
</g>
<g>
</g>
<g>
</g>
<g>
</g>
</svg>
