<?xml version="1.0" encoding="utf-8"?>
<!-- Generator: Adobe Illustrator 18.1.1, SVG Export Plug-In . SVG Version: 6.00 Build 0)  -->
<svg version="1.1" id="Layer_1" xmlns="http://www.w3.org/2000/svg" xmlns:xlink="http://www.w3.org/1999/xlink" x="0px" y="0px"
	 viewBox="0 0 203.6 204.2" enable-background="new 0 0 203.6 204.2" xml:space="preserve">
<path fill="#B5B196" d="M165,0H39.2C17.2,0,0,17.9,0,39.2v41.9V165c0,22,17.9,39.2,39.2,39.2h125.2c22,0,39.2-17.9,39.2-39.2V81.1
	V39.2C204.2,17.2,187,0,165,0z M176,23.4h4.8v4.8v30.3h-34.4V24.1L176,23.4z M72.9,81.1C79.8,72.2,90.1,66,101.8,66
	s22.7,6.2,28.9,15.1c4.1,6.2,6.9,13.1,6.9,21.3c0,19.9-16.5,35.8-35.8,35.8S66,122.4,66,102.5C66,94.2,68.8,86.6,72.9,81.1z
	 M184.3,165c0,11-8.9,19.3-19.9,19.3H39.2c-11,0-19.9-8.9-19.9-19.3V81.1h30.3c-2.8,6.2-4.1,13.8-4.1,21.3
	c0,30.9,24.8,55.7,55.7,55.7s55.7-25.4,55.7-55.7c0-7.6-1.4-14.4-4.1-21.3h30.3V165H184.3z"/>
<g>
</g>
<g>
</g>
<g>
</g>
<g>
</g>
<g>
</g>
<g>
</g>
<g>
</g>
<g>
</g>
<g>
</g>
<g>
</g>
<g>
</g>
<g>
</g>
<g>
</g>
<g>
</g>
<g>
</g>
</svg>
