<?xml version="1.0" encoding="utf-8"?>
<!-- Generator: Adobe Illustrator 18.1.1, SVG Export Plug-In . SVG Version: 6.00 Build 0)  -->
<svg version="1.1" id="Layer_1" xmlns="http://www.w3.org/2000/svg" xmlns:xlink="http://www.w3.org/1999/xlink" x="0px" y="0px"
	 viewBox="0 0 89 89" enable-background="new 0 0 89 89" xml:space="preserve">
<g id="linkedin">
	<path fill="#9DCEE0" d="M83.2,5.8C77.4,0,71.6,0,61.5,0h-34C17.4,0,11.6,0,5.8,5.8C0,11.6,0,17.4,0,27.5v34c0,10.1,0,15.9,5.8,21.7
		C11.6,89,17.4,89,27.5,89h34c10.1,0,15.9,0,21.7-5.8C89,77.4,89,71.6,89,61.5v-34C89,17.4,89,11.6,83.2,5.8z"/>
	<g>
		<rect id="inner1" x="30.1" y="39.3" fill="#FFFFFF" width="5.9" height="18.9"/>
		<path id="inner2" fill="#FFFFFF" d="M52.1,39.1c-3.4,0-5.5,1.8-5.9,3.1v-3h-6.6c0.1,1.6,0,18.9,0,18.9h6.6V47.9c0-0.6,0-1.1,0.1-1.5
			c0.5-1.1,1.4-2.3,3.2-2.3c2.3,0,3.3,1.7,3.3,4.3v9.8h6.7V47.7C59.6,41.8,56.3,39.1,52.1,39.1z"/>
		<path id="inner3" fill="#FFFFFF" d="M33,30.4c-2.2,0-3.6,1.4-3.6,3.3c0,1.8,1.4,3.3,3.5,3.3h0c2.2,0,3.6-1.4,3.6-3.3
			C36.5,31.8,35.2,30.4,33,30.4z"/>
	</g>
</g>
<g>
</g>
<g>
</g>
<g>
</g>
<g>
</g>
<g>
</g>
<g>
</g>
<g>
</g>
<g>
</g>
<g>
</g>
<g>
</g>
<g>
</g>
<g>
</g>
<g>
</g>
<g>
</g>
<g>
</g>
</svg>
