<?xml version="1.0" encoding="utf-8"?>
<!-- Generator: Adobe Illustrator 18.1.1, SVG Export Plug-In . SVG Version: 6.00 Build 0)  -->
<svg version="1.1" id="Layer_1" xmlns="http://www.w3.org/2000/svg" xmlns:xlink="http://www.w3.org/1999/xlink" x="0px" y="0px"
	 viewBox="0 0 209 191.9" enable-background="new 0 0 209 191.9" xml:space="preserve">
<path fill="#9DCEE0" d="M46.1,191.9H5.5v-130h40.6V191.9z M24.8,45.4L24.8,45.4C9.6,45.4,0,35.8,0,22.7S9.6,0,24.8,0
	s24.1,9.6,24.8,22.7C49.5,35.8,40.6,45.4,24.8,45.4z M208.4,191.9h-46.1v-67.4c0-17.9-6.9-29.6-22.7-29.6c-12.4,0-18.6,8.3-22,15.8
	c-1.4,2.8-0.7,6.9-0.7,10.3v70.1H71.5c0,0,0.7-119,0-130h45.4v20.6c2.8-8.9,17.2-21.3,40.6-21.3c28.9,0,51.6,18.6,51.6,59.1v72.2
	H208.4z"/>
<g>
</g>
<g>
</g>
<g>
</g>
<g>
</g>
<g>
</g>
<g>
</g>
<g>
</g>
<g>
</g>
<g>
</g>
<g>
</g>
<g>
</g>
<g>
</g>
<g>
</g>
<g>
</g>
<g>
</g>
</svg>
