<?xml version="1.0" encoding="utf-8"?>
<!-- Generator: Adobe Illustrator 18.1.1, SVG Export Plug-In . SVG Version: 6.00 Build 0)  -->
<svg version="1.1" id="Layer_1" xmlns="http://www.w3.org/2000/svg" xmlns:xlink="http://www.w3.org/1999/xlink" x="0px" y="0px"
	 viewBox="0 0 208.4 208.4" enable-background="new 0 0 208.4 208.4" xml:space="preserve">
<path fill="#EA5D56" d="M104.5,0C46.8,0,0,46.8,0,104.5c0,42.6,25.4,79.1,62.6,95.6c0-7.6,0-15.8,2.1-24.1
	c2.1-8.3,13.8-57.1,13.8-57.1s-3.4-6.9-3.4-16.5c0-15.1,8.9-26.8,19.9-26.8c9.6,0,13.8,6.9,13.8,15.8c0,9.6-6.2,24.1-8.9,37.1
	c-2.8,11,5.5,19.9,16.5,19.9c19.9,0,33-25.4,33-55.7c0-22.7-15.1-39.9-43.3-39.9c-31.6,0-51.6,23.4-51.6,50.2
	c0,8.9,2.8,15.8,6.9,20.6c2.1,2.1,2.1,3.4,1.4,5.5c-0.7,2.1-1.4,6.9-2.1,8.3c-0.7,2.8-2.8,3.4-5.5,2.8c-14.4-6.2-21.3-22-21.3-39.9
	c0-29.6,24.8-65.3,74.3-65.3c39.9,0,66,28.9,66,59.8c0,40.6-22.7,71.5-56.4,71.5c-11,0-22-6.2-25.4-13.1c0,0-6.2,24.1-7.6,28.9
	c-2.1,8.3-6.9,15.8-10.3,22c9.6,2.8,19.3,4.1,29.6,4.1c57.8,0,104.5-46.8,104.5-104.5C208.4,46.8,161.6,0,104.5,0z"/>
<g>
</g>
<g>
</g>
<g>
</g>
<g>
</g>
<g>
</g>
<g>
</g>
<g>
</g>
<g>
</g>
<g>
</g>
<g>
</g>
<g>
</g>
<g>
</g>
<g>
</g>
<g>
</g>
<g>
</g>
</svg>
