<?xml version="1.0" encoding="utf-8"?>
<!-- Generator: Adobe Illustrator 18.1.1, SVG Export Plug-In . SVG Version: 6.00 Build 0)  -->
<svg version="1.1" id="Layer_1" xmlns="http://www.w3.org/2000/svg" xmlns:xlink="http://www.w3.org/1999/xlink" x="0px" y="0px"
	 viewBox="0 0 211.1 213.9" enable-background="new 0 0 211.1 213.9" xml:space="preserve">
<path fill="#47BFF0" d="M204.9,129.3c1.4-6.9,2.1-14.4,2.1-21.3C207,52.3,162.3,7.6,106.6,7.6c-6.2,0-11.7,0.7-17.2,1.4
	C80.5,3.4,69.5,0,58.4,0C26.1,0,0,26.1,0,58.4c0,11,2.8,20.6,8.3,29.6c-1.4,6.2-2.1,13.1-2.1,19.9c0,55.7,44.7,100.4,100.4,100.4
	c6.2,0,12.4-0.7,18.6-1.4c8.3,4.1,17.9,6.9,27.5,6.9c32.3,0,58.4-26.1,58.4-58.4C211.1,145.8,209,136.8,204.9,129.3z M158.8,155.4
	c-4.8,6.9-11.7,11.7-20.6,15.8c-8.9,3.4-19.3,5.5-31.6,5.5c-14.4,0-26.8-2.8-35.8-7.6c-6.9-3.4-12.4-8.3-16.5-14.4
	c-4.1-6.2-6.2-12.4-6.2-17.9c0-3.4,1.4-6.9,4.1-9.6c2.8-2.8,6.2-4.1,10.3-4.1c3.4,0,6.2,0.7,8.9,2.8c2.1,2.1,4.1,4.8,6.2,8.9
	c2.1,4.1,3.4,7.6,5.5,10.3c2.1,2.8,4.8,4.8,8.3,6.2c3.4,2.1,8.3,2.8,14.4,2.8c8.3,0,15.1-2.1,19.9-5.5c4.8-3.4,7.6-7.6,7.6-12.4
	c0-4.1-1.4-6.9-4.1-9.6c-2.8-2.8-6.2-4.8-11-6.2c-4.8-1.4-11-2.8-18.6-4.8c-10.3-2.1-19.3-4.8-26.1-7.6c-6.9-2.8-13.1-7.6-17.2-12.4
	c-4.1-5.5-6.2-12.4-6.2-19.9c0-7.6,2.1-14.4,6.9-20.6s11-10.3,19.3-13.8c8.3-2.8,18.6-4.8,29.6-4.8c8.9,0,17.2,1.4,23.4,2.8
	c6.9,2.1,12.4,4.8,16.5,8.3c4.1,3.4,7.6,6.9,9.6,11c2.1,4.1,3.4,7.6,3.4,11.7c0,3.4-1.4,6.9-4.1,9.6c-2.8,2.8-6.2,4.1-10.3,4.1
	c-3.4,0-6.9-0.7-8.9-2.8c-2.1-1.4-4.1-4.1-6.2-8.3c-2.8-4.8-5.5-8.3-8.9-11c-3.4-2.8-8.9-4.1-16.5-4.1c-6.9,0-13.1,1.4-17.2,4.1
	c-4.1,2.8-6.2,6.2-6.2,9.6c0,2.1,0.7,4.1,2.1,6.2c1.4,2.1,3.4,3.4,6.2,4.8c2.8,1.4,5.5,2.1,8.3,3.4c2.8,0.7,7.6,2.1,13.8,3.4
	c8.3,2.1,15.8,3.4,22,5.5c6.9,2.1,12.4,4.8,17.2,7.6c4.8,3.4,8.9,6.9,11,11.7c2.8,4.8,4.1,11,4.1,17.9
	C165.7,141.7,163,149.2,158.8,155.4z"/>
<g>
</g>
<g>
</g>
<g>
</g>
<g>
</g>
<g>
</g>
<g>
</g>
<g>
</g>
<g>
</g>
<g>
</g>
<g>
</g>
<g>
</g>
<g>
</g>
<g>
</g>
<g>
</g>
<g>
</g>
</svg>
