<?xml version="1.0" encoding="utf-8"?>
<!-- Generator: Adobe Illustrator 18.1.1, SVG Export Plug-In . SVG Version: 6.00 Build 0)  -->
<svg version="1.1" id="Layer_1" xmlns="http://www.w3.org/2000/svg" xmlns:xlink="http://www.w3.org/1999/xlink" x="0px" y="0px"
	 viewBox="0 0 89 89" enable-background="new 0 0 89 89" xml:space="preserve">
<g id="tumblr">
	<path fill="#487CA4" d="M83.2,5.8C77.4,0,71.6,0,61.5,0h-34C17.4,0,11.6,0,5.8,5.8C0,11.6,0,17.4,0,27.5v34c0,10.1,0,15.9,5.8,21.7
		C11.6,89,17.4,89,27.5,89h34c10.1,0,15.9,0,21.7-5.8C89,77.4,89,71.6,89,61.5v-34C89,17.4,89,11.6,83.2,5.8z"/>
	<path id="inner" fill="#FFFFFF" d="M45.7,28.4v8.1h7.6v5h-7.6v8.2c0,1.9,0.1,3,0.3,3.6c0.2,0.5,0.6,0.9,1.1,1.3c0.7,0.4,1.5,0.6,2.4,0.6
		c1.6,0,3.2-0.5,4.8-1.6v5c-1.4,0.6-2.6,1.1-3.7,1.4c-1.1,0.3-2.3,0.4-3.6,0.4c-1.5,0-2.8-0.2-3.9-0.6c-1.1-0.4-2.1-0.9-2.9-1.6
		c-0.8-0.7-1.3-1.4-1.7-2.2c-0.3-0.8-0.5-1.9-0.5-3.3V41.5h-3.5v-4.5c1.3-0.4,2.3-1,3.2-1.8c0.9-0.8,1.6-1.7,2.2-2.7
		c0.5-1.1,0.9-2.4,1.1-4.1H45.7z"/>
</g>
<g>
</g>
<g>
</g>
<g>
</g>
<g>
</g>
<g>
</g>
<g>
</g>
<g>
</g>
<g>
</g>
<g>
</g>
<g>
</g>
<g>
</g>
<g>
</g>
<g>
</g>
<g>
</g>
<g>
</g>
</svg>
