<?xml version="1.0" encoding="utf-8"?>
<!-- Generator: Adobe Illustrator 18.1.1, SVG Export Plug-In . SVG Version: 6.00 Build 0)  -->
<svg version="1.1" id="Layer_1" xmlns="http://www.w3.org/2000/svg" xmlns:xlink="http://www.w3.org/1999/xlink" x="0px" y="0px"
	 viewBox="0 0 136.2 220" enable-background="new 0 0 136.2 220" xml:space="preserve">
<path fill="#487CA4" d="M77,0v55.7h52.3v34.4H77v56.4c0,13.1,0.7,20.6,2.1,24.8c1.4,3.4,4.1,6.2,7.6,8.9c4.8,2.8,10.3,4.1,16.5,4.1
	c11,0,22-3.4,33-11v34.4c-9.6,4.1-17.9,7.6-25.4,9.6c-7.6,2.1-15.8,2.8-24.8,2.8c-10.3,0-19.3-1.4-26.8-4.1
	c-7.6-2.8-14.4-6.2-19.9-11c-5.5-4.8-8.9-9.6-11.7-15.1c-2.1-5.5-3.4-13.1-3.4-22.7v-77H0V59.1c8.9-2.8,15.8-6.9,22-12.4
	s11-11.7,15.1-18.6c3.4-7.6,6.2-16.5,7.6-28.2H77z"/>
<g>
</g>
<g>
</g>
<g>
</g>
<g>
</g>
<g>
</g>
<g>
</g>
<g>
</g>
<g>
</g>
<g>
</g>
<g>
</g>
<g>
</g>
<g>
</g>
<g>
</g>
<g>
</g>
<g>
</g>
</svg>
