<?xml version="1.0" encoding="utf-8"?>
<!-- Generator: Adobe Illustrator 18.1.1, SVG Export Plug-In . SVG Version: 6.00 Build 0)  -->
<svg version="1.1" id="Layer_1" xmlns="http://www.w3.org/2000/svg" xmlns:xlink="http://www.w3.org/1999/xlink" x="0px" y="0px"
	 viewBox="0 0 89 89" enable-background="new 0 0 89 89" xml:space="preserve">
<g id="twitter">
	<path fill="#73CAF0" d="M83.2,5.8C77.4,0,71.6,0,61.5,0h-34C17.4,0,11.6,0,5.8,5.8C0,11.6,0,17.4,0,27.5v34c0,10.1,0,15.9,5.8,21.7
		C11.6,89,17.4,89,27.5,89h34c10.1,0,15.9,0,21.7-5.8C89,77.4,89,71.6,89,61.5v-34C89,17.4,89,11.6,83.2,5.8z"/>
	<path id="inner" fill="#FFFFFF" d="M59.7,33.7c-1.2,0.6-2.4,0.9-3.8,1.1c1.4-0.9,2.4-2.2,2.9-3.9c-1.3,0.8-2.7,1.4-4.2,1.7
		c-1.2-1.4-2.9-2.2-4.8-2.2c-3.6,0-6.5,3.1-6.5,7c0,0.5,0.1,1.1,0.2,1.6c-5.4-0.3-10.3-3.1-13.5-7.3c-0.6,1-0.9,2.2-0.9,3.5
		c0,2.4,1.2,4.6,2.9,5.9c-1.1,0-2.1-0.3-3-0.9c0,0,0,0.1,0,0.1c0,3.4,2.3,6.2,5.2,6.9c-0.5,0.2-1.1,0.2-1.7,0.2
		c-0.4,0-0.8,0-1.2-0.1c0.8,2.8,3.2,4.8,6.1,4.9c-2.2,1.9-5.1,3-8.1,3c-0.5,0-1.1,0-1.6-0.1c2.9,2,6.3,3.2,10,3.2
		c12,0,18.6-10.7,18.6-20c0-0.3,0-0.6,0-0.9C57.7,36.3,58.8,35.1,59.7,33.7z"/>
</g>
<g>
</g>
<g>
</g>
<g>
</g>
<g>
</g>
<g>
</g>
<g>
</g>
<g>
</g>
<g>
</g>
<g>
</g>
<g>
</g>
<g>
</g>
<g>
</g>
<g>
</g>
<g>
</g>
<g>
</g>
</svg>
