<?xml version="1.0" encoding="utf-8"?>
<!-- Generator: Adobe Illustrator 18.1.1, SVG Export Plug-In . SVG Version: 6.00 Build 0)  -->
<svg version="1.1" id="Layer_1" xmlns="http://www.w3.org/2000/svg" xmlns:xlink="http://www.w3.org/1999/xlink" x="0px" y="0px"
	 viewBox="0 0 5.9 5.1" enable-background="new 0 0 5.9 5.1" xml:space="preserve">
<g>
	<g>
		<path fill="#73CAF0" d="M5.9,0.6C5.6,0.7,5.4,0.8,5.2,0.8c0.3-0.2,0.4-0.4,0.5-0.7C5.5,0.2,5.2,0.3,4.9,0.4C4.7,0.1,4.4,0,4,0
			C3.4,0,2.9,0.6,2.9,1.3c0,0.1,0,0.2,0,0.3C1.9,1.5,1,1,0.4,0.2C0.3,0.4,0.3,0.6,0.3,0.9c0,0.4,0.2,0.8,0.5,1.1
			C0.6,2,0.4,1.9,0.2,1.8v0c0,0.6,0.4,1.1,1,1.3c-0.1,0-0.2,0-0.3,0c-0.1,0-0.1,0-0.2,0C0.8,3.6,1.2,4,1.8,4
			C1.4,4.3,0.8,4.5,0.3,4.5c-0.1,0-0.2,0-0.3,0c0.5,0.4,1.2,0.6,1.8,0.6c2.2,0,3.4-2,3.4-3.7c0-0.1,0-0.1,0-0.2
			C5.5,1.1,5.7,0.9,5.9,0.6z"/>
	</g>
</g>
<g>
</g>
<g>
</g>
<g>
</g>
<g>
</g>
<g>
</g>
<g>
</g>
<g>
</g>
<g>
</g>
<g>
</g>
<g>
</g>
<g>
</g>
<g>
</g>
<g>
</g>
<g>
</g>
<g>
</g>
</svg>
