<?xml version="1.0" encoding="utf-8"?>
<!-- Generator: Adobe Illustrator 18.1.1, SVG Export Plug-In . SVG Version: 6.00 Build 0)  -->
<svg version="1.1" id="Layer_1" xmlns="http://www.w3.org/2000/svg" xmlns:xlink="http://www.w3.org/1999/xlink" x="0px" y="0px"
	 viewBox="0 0 89 89" enable-background="new 0 0 89 89" xml:space="preserve">
<g id="wordpress">
	<path fill="#E5E4E3" d="M83.2,5.8C77.4,0,71.6,0,61.5,0h-34C17.4,0,11.6,0,5.8,5.8C0,11.6,0,17.4,0,27.5v34c0,10.1,0,15.9,5.8,21.7
		C11.6,89,17.4,89,27.5,89h34c10.1,0,15.9,0,21.7-5.8C89,77.4,89,71.6,89,61.5v-34C89,17.4,89,11.6,83.2,5.8z"/>
	<path id="inner" fill="#FFFFFF" d="M29.4,44.3c0,6,3.5,11.1,8.5,13.6l-7.2-19.7C29.9,40.1,29.4,42.2,29.4,44.3z M54.7,43.6
		c0-1.9-0.7-3.2-1.2-4.2c-0.8-1.2-1.5-2.3-1.5-3.5c0-1.4,1-2.7,2.5-2.7c0.1,0,0.1,0,0.2,0c-2.7-2.5-6.3-4-10.2-4
		c-5.3,0-9.9,2.7-12.6,6.8c0.4,0,0.7,0,1,0c1.6,0,4-0.2,4-0.2c0.8,0,0.9,1.1,0.1,1.2c0,0-0.8,0.1-1.7,0.1l5.5,16.3l3.3-9.9l-2.4-6.4
		c-0.8,0-1.6-0.1-1.6-0.1c-0.8,0-0.7-1.3,0.1-1.2c0,0,2.5,0.2,4,0.2c1.6,0,4-0.2,4-0.2c0.8,0,0.9,1.1,0.1,1.2c0,0-0.8,0.1-1.7,0.1
		L52,53.5l1.5-5C54.3,46.5,54.7,44.9,54.7,43.6z M44.7,45.7l-4.5,13.2c1.4,0.4,2.8,0.6,4.3,0.6c1.8,0,3.4-0.3,5-0.9
		c0-0.1-0.1-0.1-0.1-0.2L44.7,45.7z M57.7,37.1c0.1,0.5,0.1,1,0.1,1.6c0,1.5-0.3,3.3-1.1,5.4l-4.6,13.3c4.5-2.6,7.5-7.5,7.5-13
		C59.6,41.7,58.9,39.3,57.7,37.1z"/>
</g>
<g>
</g>
<g>
</g>
<g>
</g>
<g>
</g>
<g>
</g>
<g>
</g>
<g>
</g>
<g>
</g>
<g>
</g>
<g>
</g>
<g>
</g>
<g>
</g>
<g>
</g>
<g>
</g>
<g>
</g>
</svg>
