<?xml version="1.0" encoding="utf-8"?>
<!-- Generator: Adobe Illustrator 18.1.1, SVG Export Plug-In . SVG Version: 6.00 Build 0)  -->
<svg version="1.1" id="Layer_1" xmlns="http://www.w3.org/2000/svg" xmlns:xlink="http://www.w3.org/1999/xlink" x="0px" y="0px"
	 viewBox="0 0 207.7 208.4" enable-background="new 0 0 207.7 208.4" xml:space="preserve">
<path fill="#BBBAB7" d="M0,103.8c0,41.3,24.1,76.3,58.4,93.5L8.9,61.9C3.4,75,0,89.4,0,103.8z M174,99c0-13.1-4.8-22-8.3-28.9
	c-5.5-8.3-10.3-15.8-10.3-24.1c0-9.6,6.9-18.6,17.2-18.6c0.7,0,0.7,0,1.4,0C155.4,10.3,130.7,0,103.8,0C67.4,0,35.8,18.6,17.2,46.8
	c2.8,0,4.8,0,6.9,0c11,0,27.5-1.4,27.5-1.4c5.5,0,6.2,7.6,0.7,8.3c0,0-5.5,0.7-11.7,0.7l37.8,112.1l22.7-68.1l-16.5-44
	c-5.5,0-11-0.7-11-0.7c-5.5,0-4.8-8.9,0.7-8.3c0,0,17.2,1.4,27.5,1.4c11,0,27.5-1.4,27.5-1.4c5.5,0,6.2,7.6,0.7,8.3
	c0,0-5.5,0.7-11.7,0.7l37.1,112.8l10.3-34.4C171.2,119,174,108,174,99z M105.2,113.5l-30.9,90.8c9.6,2.8,19.3,4.1,29.6,4.1
	c12.4,0,23.4-2.1,34.4-6.2c0-0.7-0.7-0.7-0.7-1.4L105.2,113.5z M194.6,54.3c0.7,3.4,0.7,6.9,0.7,11c0,10.3-2.1,22.7-7.6,37.1
	l-31.6,91.5c30.9-17.9,51.6-51.6,51.6-89.4C207.7,86,202.9,69.5,194.6,54.3z"/>
<g>
</g>
<g>
</g>
<g>
</g>
<g>
</g>
<g>
</g>
<g>
</g>
<g>
</g>
<g>
</g>
<g>
</g>
<g>
</g>
<g>
</g>
<g>
</g>
<g>
</g>
<g>
</g>
<g>
</g>
</svg>
