<?xml version="1.0" encoding="utf-8"?>
<!-- Generator: Adobe Illustrator 18.1.1, SVG Export Plug-In . SVG Version: 6.00 Build 0)  -->
<svg version="1.1" id="Layer_1" xmlns="http://www.w3.org/2000/svg" xmlns:xlink="http://www.w3.org/1999/xlink" x="0px" y="0px"
	 viewBox="0 0 89 89" enable-background="new 0 0 89 89" xml:space="preserve">
<g id="youtube">
	<path fill="#EA5D56" d="M83.2,5.8C77.4,0,71.6,0,61.5,0h-34C17.4,0,11.6,0,5.8,5.8C0,11.6,0,17.4,0,27.5v34c0,10.1,0,15.9,5.8,21.7
		C11.6,89,17.4,89,27.5,89h34c10.1,0,15.9,0,21.7-5.8C89,77.4,89,71.6,89,61.5v-34C89,17.4,89,11.6,83.2,5.8z"/>
	<path id="inner" fill="#FFFFFF" d="M58.6,37.3c0-0.1,0-0.2-0.1-0.3c0-0.1,0-0.1,0-0.2c-0.4-1.1-1.4-1.9-2.7-1.9H56c0,0-5-0.8-11.7-0.8
		c-6.7,0-11.7,0.8-11.7,0.8h0.2c-1.3,0-2.3,0.8-2.7,1.9c0,0,0,0.1,0,0.2c0,0.1-0.1,0.2-0.1,0.3c-0.2,1.3-0.5,3.9-0.5,7
		c0,3.1,0.3,5.7,0.5,7c0,0.1,0,0.2,0.1,0.3c0,0.1,0,0.1,0,0.2c0.4,1.1,1.4,1.9,2.7,1.9h-0.2c0,0,5,0.8,11.7,0.8
		c6.7,0,11.7-0.8,11.7-0.8h-0.2c1.2,0,2.3-0.8,2.7-1.9c0-0.1,0-0.1,0-0.2c0-0.1,0.1-0.2,0.1-0.3c0.2-1.3,0.5-3.9,0.5-7
		C59.1,41.2,58.8,38.6,58.6,37.3z M48.7,45l-6,4.3c-0.1,0.1-0.3,0.1-0.4,0.1c-0.1,0-0.2,0-0.3-0.1c-0.2-0.1-0.4-0.4-0.4-0.6V40
		c0-0.3,0.2-0.5,0.4-0.6c0.2-0.1,0.5-0.1,0.8,0.1l6,4.3c0.2,0.1,0.3,0.4,0.3,0.6C49,44.6,48.8,44.8,48.7,45z"/>
</g>
<g>
</g>
<g>
</g>
<g>
</g>
<g>
</g>
<g>
</g>
<g>
</g>
<g>
</g>
<g>
</g>
<g>
</g>
<g>
</g>
<g>
</g>
<g>
</g>
<g>
</g>
<g>
</g>
<g>
</g>
</svg>
