<?xml version="1.0" encoding="utf-8"?>
<!-- Generator: Adobe Illustrator 18.1.1, SVG Export Plug-In . SVG Version: 6.00 Build 0)  -->
<svg version="1.1" id="Layer_1" xmlns="http://www.w3.org/2000/svg" xmlns:xlink="http://www.w3.org/1999/xlink" x="0px" y="0px"
	 viewBox="0 0 203.5 140.3" enable-background="new 0 0 203.5 140.3" xml:space="preserve">
<path fill="#EA5D56" d="M200.1,22c0-0.7,0-1.4-0.7-2.1c0-0.7,0-0.7,0-1.4c-2.8-7.6-9.6-13.1-18.6-13.1h1.4c0,0-34.4-5.5-80.5-5.5
	S21.3,5.5,21.3,5.5h1.4C13.8,5.5,6.9,11,4.1,18.6c0,0,0,0.7,0,1.4c0,0.7-0.7,1.4-0.7,2.1C2.1,30.9,0,48.8,0,70.1s2.1,39.2,3.4,48.1
	c0,0.7,0,1.4,0.7,2.1c0,0.7,0,0.7,0,1.4c2.8,7.6,9.6,13.1,18.6,13.1h-1.4c0,0,34.4,5.5,80.5,5.5s80.5-5.5,80.5-5.5h-1.4
	c8.3,0,15.8-5.5,18.6-13.1c0-0.7,0-0.7,0-1.4c0-0.7,0.7-1.4,0.7-2.1c1.4-8.9,3.4-26.8,3.4-48.1S201.5,30.9,200.1,22z M132,75
	l-41.3,29.6c-0.7,0.7-2.1,0.7-2.8,0.7c-0.7,0-1.4,0-2.1-0.7c-1.4-0.7-2.8-2.8-2.8-4.1V40.6c0-2.1,1.4-3.4,2.8-4.1
	c1.4-0.7,3.4-0.7,5.5,0.7l41.3,29.6c1.4,0.7,2.1,2.8,2.1,4.1C134.1,72.2,132.7,73.6,132,75z"/>
<g>
</g>
<g>
</g>
<g>
</g>
<g>
</g>
<g>
</g>
<g>
</g>
<g>
</g>
<g>
</g>
<g>
</g>
<g>
</g>
<g>
</g>
<g>
</g>
<g>
</g>
<g>
</g>
<g>
</g>
</svg>
