<?xml version="1.0" encoding="utf-8"?>
<!-- Generator: Adobe Illustrator 18.1.1, SVG Export Plug-In . SVG Version: 6.00 Build 0)  -->
<svg version="1.1" id="Layer_1" xmlns="http://www.w3.org/2000/svg" xmlns:xlink="http://www.w3.org/1999/xlink" x="0px" y="0px"
	 viewBox="0 0 49 40.4" enable-background="new 0 0 49 40.4" xml:space="preserve">
<g>
	<path d="M34.1,29.5v0.6v6.6H3.7V6.2h25.7V2.5H4.1C1.8,2.5,0,4.4,0,6.6v29.7c0,2.2,1.8,4.1,4.1,4.1h29.7c2.2,0,4.1-1.8,4.1-4.1v-6.8
		l-0.5,0.1c-0.4,0.1-0.8,0.1-1.2,0.1c-0.5,0-0.9-0.1-1.4-0.2L34.1,29.5z M33.1,3v7h-7c-1.6,0-3,1.3-3,3s1.3,3,3,3h7v7
		c0,1.6,1.3,3,3,3c1.6,0,3-1.3,3-3v-7h7c1.6,0,3-1.3,3-3s-1.3-3-3-3h-7V3c0-1.6-1.3-3-3-3C34.4,0,33.1,1.3,33.1,3z"/>
</g>
<g>
</g>
<g>
</g>
<g>
</g>
<g>
</g>
<g>
</g>
<g>
</g>
<g>
</g>
<g>
</g>
<g>
</g>
<g>
</g>
<g>
</g>
<g>
</g>
<g>
</g>
<g>
</g>
<g>
</g>
</svg>
