<?xml version="1.0" encoding="utf-8"?>
<!-- Generator: Adobe Illustrator 18.1.1, SVG Export Plug-In . SVG Version: 6.00 Build 0)  -->
<svg version="1.1" id="Layer_1" xmlns="http://www.w3.org/2000/svg" xmlns:xlink="http://www.w3.org/1999/xlink" x="0px" y="0px"
	 viewBox="0 0 42.5 42.5" enable-background="new 0 0 42.5 42.5" xml:space="preserve">
<g>
	<path d="M37.9,16.7H25.8V4.6c0-2.5-2-4.6-4.6-4.6c-2.5,0-4.6,2-4.6,4.6v12.1H4.6c-2.5,0-4.6,2-4.6,4.6c0,2.5,2,4.6,4.6,4.6h12.1
		v12.1c0,2.5,2,4.6,4.6,4.6c2.5,0,4.6-2,4.6-4.6V25.8h12.1c2.5,0,4.5-2,4.5-4.6C42.5,18.7,40.4,16.7,37.9,16.7z"/>
</g>
<g>
</g>
<g>
</g>
<g>
</g>
<g>
</g>
<g>
</g>
<g>
</g>
<g>
</g>
<g>
</g>
<g>
</g>
<g>
</g>
<g>
</g>
<g>
</g>
<g>
</g>
<g>
</g>
<g>
</g>
</svg>
