<?xml version="1.0" encoding="utf-8"?>
<!-- Generator: Adobe Illustrator 18.1.1, SVG Export Plug-In . SVG Version: 6.00 Build 0)  -->
<svg version="1.1" id="Layer_1" xmlns="http://www.w3.org/2000/svg" xmlns:xlink="http://www.w3.org/1999/xlink" x="0px" y="0px"
	 viewBox="0 0 41.2 41.2" enable-background="new 0 0 41.2 41.2" xml:space="preserve">
<g>
	<g>
		<path d="M16.5,26.2h-2l-0.5-2.1h-3.3l-0.5,2.1H7.8l3-11h2.9L16.5,26.2z M11.1,22h2.3l-1.1-4.6L11.1,22z"/>
		<path d="M16.5,26.2v-0.1h-2L14,24h-3.5L10,26.1H7.9l2.9-10.8h2.8l2.7,10.9L16.5,26.2v-0.1V26.2l0.1,0l-2.8-11.1h-3.1L7.6,26.3h2.5
			l0.5-2.1h3.1l0.5,2.1h2.3l0-0.1L16.5,26.2z M11.1,22v0.1h2.4l-1.2-4.7h-0.2L11,22.1h0.1V22l0.1,0l1-4.2l1,4h-2.1V22l0.1,0L11.1,22
			z"/>
		<path d="M21.2,22.9h-1.7v3.3h-2.2v-11h4c2.4,0,3.3,1.1,3.3,3.1v1.4C24.6,21.9,23.5,22.9,21.2,22.9z M22.3,18.6
			c0-0.8-0.3-1.2-1.2-1.2h-1.7v3.3h1.7c1,0,1.2-0.4,1.2-1.2V18.6z"/>
		<path d="M21.2,22.9v-0.1h-1.8v3.3h-2V15.4h3.9c1.2,0,2,0.3,2.5,0.8c0.5,0.5,0.7,1.2,0.7,2.3v1.4c0,1-0.2,1.8-0.8,2.2
			c-0.5,0.5-1.3,0.7-2.5,0.7V22.9V23c1.2,0,2.1-0.3,2.7-0.8c0.6-0.5,0.8-1.4,0.8-2.4v-1.4c0-1-0.2-1.9-0.8-2.4
			c-0.6-0.5-1.4-0.8-2.6-0.8h-4.1v11.2h2.4V23h1.6V22.9z M22.3,18.6h0.1c0-0.4-0.1-0.7-0.3-0.9c-0.2-0.2-0.5-0.3-1-0.3h-1.8v3.5h1.8
			c0.5,0,0.8-0.1,1-0.3c0.2-0.2,0.2-0.6,0.3-1v-1H22.3h-0.1v1c0,0.4-0.1,0.7-0.2,0.8c-0.1,0.2-0.4,0.3-0.9,0.3h-1.6v-3.1h1.6
			c0.5,0,0.7,0.1,0.9,0.2c0.1,0.2,0.2,0.4,0.2,0.8H22.3z"/>
		<path d="M29.8,22.9h-1.7v3.3h-2.2v-11h4c2.4,0,3.3,1.1,3.3,3.1v1.4C33.2,21.9,32.2,22.9,29.8,22.9z M31,18.6
			c0-0.8-0.2-1.2-1.2-1.2h-1.7v3.3h1.7c1,0,1.2-0.4,1.2-1.2V18.6z"/>
		<path d="M29.8,22.9v-0.1H28v3.3h-2V15.4h3.9c1.2,0,2,0.3,2.5,0.8c0.5,0.5,0.7,1.2,0.7,2.3v1.4c0,1-0.2,1.8-0.8,2.2
			c-0.5,0.5-1.3,0.7-2.5,0.7V22.9V23c1.2,0,2.1-0.3,2.7-0.8c0.6-0.5,0.8-1.4,0.8-2.4v-1.4c0-1-0.2-1.9-0.8-2.4
			c-0.5-0.5-1.4-0.8-2.6-0.8h-4.1v11.2h2.4V23h1.6V22.9z M31,18.6h0.1c0-0.4-0.1-0.7-0.3-0.9c-0.2-0.2-0.5-0.3-1-0.3H28v3.5h1.8
			c0.5,0,0.8-0.1,1-0.3c0.2-0.2,0.2-0.6,0.2-1v-1H31h-0.1v1c0,0.4-0.1,0.7-0.2,0.8c-0.1,0.2-0.4,0.3-0.9,0.3h-1.6v-3.1h1.6
			c0.5,0,0.7,0.1,0.9,0.2c0.1,0.2,0.2,0.4,0.2,0.8H31z"/>
	</g>
	<path d="M0,41.2V0h41.2v39.1v2.1H0L0,41.2z M39.1,39.1V37V39.1L39.1,39.1z M4.2,37H37V4.2H4.2V37L4.2,37z"/>
</g>
<g>
</g>
<g>
</g>
<g>
</g>
<g>
</g>
<g>
</g>
<g>
</g>
<g>
</g>
<g>
</g>
<g>
</g>
<g>
</g>
<g>
</g>
<g>
</g>
<g>
</g>
<g>
</g>
<g>
</g>
</svg>
