<?xml version="1.0" encoding="utf-8"?>
<!-- Generator: Adobe Illustrator 18.1.1, SVG Export Plug-In . SVG Version: 6.00 Build 0)  -->
<svg version="1.1" id="Layer_1" xmlns="http://www.w3.org/2000/svg" xmlns:xlink="http://www.w3.org/1999/xlink" x="0px" y="0px"
	 viewBox="0 0 42.7 42.8" enable-background="new 0 0 42.7 42.8" xml:space="preserve">
<g>
	<path d="M0,0v2.1v40.7h42.7V0H0z M38.7,13.8h-9.7V4.1h9.7V13.8z M16.5,26.2v-9.7h9.7v9.7H16.5z M26.2,28.9v9.7h-9.7v-9.7H26.2z
		 M13.8,26.2H4.1l0-9.7h9.7V26.2z M16.5,13.8V4.1h9.7v9.7H16.5z M28.9,16.5h9.7v9.7h-9.7V16.5z M13.8,4.1v9.7H4.1l0-9.7H13.8z
		 M4.1,28.9h9.7v9.7H4.1L4.1,28.9z M28.9,38.7v-9.7h9.7v9.7H28.9z"/>
</g>
<g>
</g>
<g>
</g>
<g>
</g>
<g>
</g>
<g>
</g>
<g>
</g>
<g>
</g>
<g>
</g>
<g>
</g>
<g>
</g>
<g>
</g>
<g>
</g>
<g>
</g>
<g>
</g>
<g>
</g>
</svg>
