<?xml version="1.0" encoding="utf-8"?>
<!-- Generator: Adobe Illustrator 18.1.1, SVG Export Plug-In . SVG Version: 6.00 Build 0)  -->
<svg version="1.1" id="Layer_1" xmlns="http://www.w3.org/2000/svg" xmlns:xlink="http://www.w3.org/1999/xlink" x="0px" y="0px"
	 viewBox="0 0 36.5 36.5" enable-background="new 0 0 36.5 36.5" xml:space="preserve">
<path d="M7.8,0H1.4C0.6,0,0,0.6,0,1.4l0,6.4c0,0.8,0.6,1.4,1.4,1.4h6.4c0.8,0,1.4-0.6,1.4-1.4h0V1.4C9.2,0.6,8.5,0,7.8,0z M21.5,0
	h-6.4c-0.8,0-1.4,0.6-1.4,1.4v6.4c0,0.8,0.6,1.4,1.4,1.4h6.4c0.8,0,1.4-0.6,1.4-1.4h0V1.4C22.9,0.6,22.2,0,21.5,0z M28.8,9.2h6.4
	c0.8,0,1.4-0.6,1.4-1.4V1.4c0-0.8-0.6-1.4-1.4-1.4h-6.4c-0.8,0-1.4,0.6-1.4,1.4v6.4C27.4,8.5,28,9.2,28.8,9.2z M7.8,13.7H1.4
	c-0.8,0-1.4,0.6-1.4,1.4v6.4c0,0.8,0.6,1.4,1.4,1.4h6.4c0.8,0,1.4-0.6,1.4-1.4v-6.4C9.2,14.3,8.5,13.7,7.8,13.7z M15.1,22.9h6.4
	c0.8,0,1.4-0.6,1.4-1.4v-6.4c0-0.8-0.6-1.4-1.4-1.4h-6.4c-0.8,0-1.4,0.6-1.4,1.4v6.4C13.7,22.2,14.3,22.9,15.1,22.9z M35.1,13.7
	h-6.4c-0.8,0-1.4,0.6-1.4,1.4v6.4c0,0.8,0.6,1.4,1.4,1.4h6.4c0.8,0,1.4-0.6,1.4-1.4v-6.4C36.5,14.3,35.9,13.7,35.1,13.7z M7.8,27.4
	H1.4C0.6,27.4,0,28,0,28.8v6.4c0,0.8,0.6,1.4,1.4,1.4h6.4c0.8,0,1.4-0.6,1.4-1.4v-6.4C9.2,28,8.5,27.4,7.8,27.4z M21.5,27.4h-6.4
	c-0.8,0-1.4,0.6-1.4,1.4v6.4c0,0.8,0.6,1.4,1.4,1.4h6.4c0.8,0,1.4-0.6,1.4-1.4v-6.4C22.9,28,22.2,27.4,21.5,27.4z M35.1,27.4h-6.4
	c-0.8,0-1.4,0.6-1.4,1.4v6.4c0,0.8,0.6,1.4,1.4,1.4h6.4c0.8,0,1.4-0.6,1.4-1.4h0v-6.4C36.5,28,35.9,27.4,35.1,27.4z"/>
<g>
</g>
<g>
</g>
<g>
</g>
<g>
</g>
<g>
</g>
<g>
</g>
<g>
</g>
<g>
</g>
<g>
</g>
<g>
</g>
<g>
</g>
<g>
</g>
<g>
</g>
<g>
</g>
<g>
</g>
</svg>
