<?xml version="1.0" encoding="utf-8"?>
<!-- Generator: Adobe Illustrator 18.1.1, SVG Export Plug-In . SVG Version: 6.00 Build 0)  -->
<svg version="1.1" id="Layer_1" xmlns="http://www.w3.org/2000/svg" xmlns:xlink="http://www.w3.org/1999/xlink" x="0px" y="0px"
	 viewBox="0 0 44.5 47.8" enable-background="new 0 0 44.5 47.8" xml:space="preserve">
<g>
	<path d="M25.4,0.8l-2.1,1.3c-1.2,0.7-2,1.9-2.3,3.2l0,0l-0.1,1.2c0,1,0.3,1.9,0.8,2.7c0,0,3,4.9,5.2,8.4c-5.7,0-21.7,0-21.7,0
		c-2.8,0-5.1,2.3-5.1,5.1v2.5c0,1.4,0.5,2.7,1.5,3.6c1,1,2.3,1.5,3.6,1.5c0,0,16,0,21.7,0c-2.1,3.4-5.2,8.4-5.2,8.4
		c-0.5,0.8-0.8,1.7-0.8,2.7l0.1,1.2c0.3,1.3,1.1,2.5,2.3,3.2l2.1,1.3c1.2,0.7,2.5,0.9,3.9,0.6c1.3-0.3,2.5-1.1,3.2-2.3
		c0,0,11-18,11-18c0,0-0.1,0.1-0.1,0.2c0.8-1.1,1.2-2.3,1.2-3.6c0-1.3-0.4-2.5-1.2-3.6c0,0,0.1,0.1,0.1,0.2l-11-18
		c-0.7-1.2-1.9-2-3.2-2.3C27.9-0.2,26.5,0,25.4,0.8z M4.6,25.6c-0.1-0.1-0.2-0.3-0.2-0.5v-2.5c0-0.4,0.3-0.7,0.7-0.7h25.6
		c0.8,0,1.5-0.4,1.9-1.1c0.4-0.7,0.4-1.6,0-2.2L25.4,6.8c-0.1-0.1-0.1-0.3-0.1-0.4l0-0.2c0-0.2,0.2-0.3,0.3-0.4l2.1-1.3
		c0.2-0.1,0.3-0.1,0.5-0.1c0.2,0,0.3,0.2,0.4,0.3l10.9,17.9c0,0,0.1,0.1,0.1,0.2c0.2,0.3,0.3,0.7,0.3,1c0,0.4-0.1,0.7-0.3,1
		c0,0-0.1,0.1-0.1,0.2l-11,18c-0.1,0.2-0.2,0.3-0.4,0.3c-0.2,0-0.4,0-0.5-0.1L25.6,42c-0.2-0.1-0.3-0.3-0.3-0.4c0,0,0-0.2,0-0.2
		c0-0.1,0-0.2,0.1-0.3c0,0,7.2-11.8,7.2-11.8c0.4-0.7,0.4-1.5,0-2.2c-0.4-0.7-1.1-1.1-1.9-1.1H5.1C4.9,25.8,4.8,25.8,4.6,25.6z
		 M21,5.3L21,5.3L21,5.3z"/>
</g>
<g>
</g>
<g>
</g>
<g>
</g>
<g>
</g>
<g>
</g>
<g>
</g>
<g>
</g>
<g>
</g>
<g>
</g>
<g>
</g>
<g>
</g>
<g>
</g>
<g>
</g>
<g>
</g>
<g>
</g>
</svg>
