<?xml version="1.0" encoding="utf-8"?>
<!-- Generator: Adobe Illustrator 18.1.1, SVG Export Plug-In . SVG Version: 6.00 Build 0)  -->
<svg version="1.1" id="Layer_1" xmlns="http://www.w3.org/2000/svg" xmlns:xlink="http://www.w3.org/1999/xlink" x="0px" y="0px"
	 viewBox="0 0 36.1 39.5" enable-background="new 0 0 36.1 39.5" xml:space="preserve">
<g>
	<path d="M36.1,19.7c0-0.5-0.2-0.9-0.4-1.2c0,0-11-18-11-18c-0.3-0.4-0.9-0.6-1.3-0.3l-2.1,1.3c-0.4,0.3-0.6,0.9-0.3,1.3l9.1,14.8H1
		c-0.5,0-1,0.4-1,1V21c0,0.5,0.4,1,1,1h29.1L21,36.7c-0.3,0.4-0.1,1,0.3,1.3l2.1,1.3c0.4,0.3,1,0.1,1.3-0.3c0,0,11-18,11-18
		C36,20.6,36.1,20.2,36.1,19.7z"/>
</g>
<g>
</g>
<g>
</g>
<g>
</g>
<g>
</g>
<g>
</g>
<g>
</g>
<g>
</g>
<g>
</g>
<g>
</g>
<g>
</g>
<g>
</g>
<g>
</g>
<g>
</g>
<g>
</g>
<g>
</g>
</svg>
