<?xml version="1.0" encoding="utf-8"?>
<!-- Generator: Adobe Illustrator 18.1.1, SVG Export Plug-In . SVG Version: 6.00 Build 0)  -->
<svg version="1.1" id="Layer_1" xmlns="http://www.w3.org/2000/svg" xmlns:xlink="http://www.w3.org/1999/xlink" x="0px" y="0px"
	 viewBox="0 0 41.2 41.2" enable-background="new 0 0 41.2 41.2" xml:space="preserve">
<g>
	<path d="M20.6,0C9.2,0,0,9.2,0,20.6C0,32,9.2,41.2,20.6,41.2c11.4,0,20.6-9.2,20.6-20.6C41.2,9.2,32,0,20.6,0z M20.6,35.1
		c-8,0-14.5-6.5-14.5-14.5c0-8,6.5-14.5,14.5-14.5c8,0,14.5,6.5,14.5,14.5C35.1,28.6,28.6,35.1,20.6,35.1z"/>
	<g>
		<path d="M15.5,16h10.3c0.2,0,0.3,0.1,0.4,0.2c0.1,0.1,0.1,0.3,0,0.5L21,25c-0.1,0.1-0.2,0.2-0.4,0.2c-0.2,0-0.3-0.1-0.4-0.2
			l-5.1-8.3c-0.1-0.2-0.1-0.3,0-0.5C15.1,16.1,15.3,16,15.5,16z"/>
		<path d="M20.2,25c0.1,0.1,0.2,0.2,0.4,0.2c0.2,0,0.3-0.1,0.4-0.2l5.1-8.3c0.1-0.2,0.1-0.3,0-0.5c-0.1-0.2-0.2-0.2-0.4-0.2H15.5
			c-0.2,0-0.3,0.1-0.4,0.2c-0.1,0.2-0.1,0.3,0,0.5L20.2,25z"/>
	</g>
</g>
<g>
</g>
<g>
</g>
<g>
</g>
<g>
</g>
<g>
</g>
<g>
</g>
<g>
</g>
<g>
</g>
<g>
</g>
<g>
</g>
<g>
</g>
<g>
</g>
<g>
</g>
<g>
</g>
<g>
</g>
</svg>
