<?xml version="1.0" encoding="utf-8"?>
<!-- Generator: Adobe Illustrator 18.1.1, SVG Export Plug-In . SVG Version: 6.00 Build 0)  -->
<svg version="1.1" id="Layer_1" xmlns="http://www.w3.org/2000/svg" xmlns:xlink="http://www.w3.org/1999/xlink" x="0px" y="0px"
	 viewBox="0 0 33.1 38" enable-background="new 0 0 33.1 38" xml:space="preserve">
<g>
	<path d="M32.7,18.2c-0.4-0.4-0.8-0.4-1.2-0.2c-1.5,0.5-7.7,2.3-7.7,2.3v-19c0-0.3-0.1-0.6-0.4-0.9C23.3,0.1,22.9,0,22.6,0h-6.1
		h-6.1c-0.3,0-0.7,0.1-0.9,0.4C9.4,0.6,9.2,0.9,9.2,1.2v19c0,0-6.1-1.8-7.7-2.3c-0.4-0.1-0.8-0.1-1.2,0.2C0.1,18.4,0,18.8,0,19.1
		c0,0.3,0.1,0.7,0.4,0.9l15.3,17.7c0.2,0.2,0.6,0.4,0.9,0.4c0.3,0,0.7-0.1,0.9-0.4L32.7,20c0.2-0.2,0.4-0.5,0.4-0.9
		C33.1,18.8,33,18.4,32.7,18.2z"/>
</g>
<g>
</g>
<g>
</g>
<g>
</g>
<g>
</g>
<g>
</g>
<g>
</g>
<g>
</g>
<g>
</g>
<g>
</g>
<g>
</g>
<g>
</g>
<g>
</g>
<g>
</g>
<g>
</g>
<g>
</g>
</svg>
