<?xml version="1.0" encoding="utf-8"?>
<!-- Generator: Adobe Illustrator 18.1.1, SVG Export Plug-In . SVG Version: 6.00 Build 0)  -->
<svg version="1.1" id="Layer_1" xmlns="http://www.w3.org/2000/svg" xmlns:xlink="http://www.w3.org/1999/xlink" x="0px" y="0px"
	 viewBox="0 0 47.8 47.4" enable-background="new 0 0 47.8 47.4" xml:space="preserve">
<g>
	<path d="M18,30.1L18,30.1L18,30.1L18,30.1c1.1-0.5,2.2-0.8,3.2-1.1c-1-0.3-2-0.6-3.1-1l-0.1,0l-0.2-0.1c-0.3-0.1-0.6-0.3-0.9-0.5
		H3.2V3.2h30.3v4.8c1.2,0.4,2.4,1.3,3.2,2.9V4.1c0-0.1,0-0.2,0-0.3c0-0.1,0-0.2-0.1-0.4c0-0.1,0-0.2-0.1-0.3c0,0,0,0,0-0.1
		c-0.1-0.2-0.1-0.4-0.2-0.6c0-0.1-0.1-0.2-0.1-0.2C36,2.1,36,2,35.9,1.9c-0.6-0.9-1.6-1.6-2.8-1.8c-0.2,0-0.4,0-0.6,0H4.1
		C1.9,0,0,1.9,0,4.1v22.3c0,0.1,0,0.2,0,0.3c0,0.1,0,0.2,0.1,0.4c0,0.1,0,0.2,0.1,0.3c0,0,0,0.1,0,0.1c0.1,0.2,0.1,0.4,0.2,0.6
		c0,0.1,0.1,0.2,0.2,0.3c0.1,0.1,0.1,0.2,0.2,0.3c0.6,1,1.6,1.6,2.8,1.8c0.1,0,6.7,0,13.6,0C17.4,30.4,17.6,30.3,18,30.1L18,30.1z"
		/>
	<path d="M45,33.4c-0.3-0.2-0.7-0.4-1-0.5c0,0-0.1,0-0.1-0.1c-3.1-1.4-6.3-1.2-12.1-3.9c5.8-2.6,9-2.5,12.1-3.9c0,0,0.1,0,0.1,0
		c0.3-0.2,0.6-0.3,1-0.5c2.8-1.6,3.3-3.4,2.5-4.7c-0.4-0.8-1.2-1.2-2.2-1.2c-0.8,0-1.9,0.3-3.1,1c-0.3,0.2-0.6,0.4-0.9,0.6
		c0,0-0.1,0-0.1,0.1c-2.8,2-4.2,4.9-9.4,8.5c0.6-6.3,2.3-9,2.7-12.4c0,0,0-0.1,0-0.1c0-0.4,0.1-0.7,0.1-1.1c0-3.2-1.3-4.5-2.9-4.5
		c-1.6,0-2.9,1.3-2.9,4.5c0,0.4,0,0.8,0.1,1.1c0,0,0,0.1,0,0.1c0.4,3.4,2.1,6.1,2.7,12.4c-5.2-3.7-6.6-6.5-9.4-8.6
		c0,0-0.1,0-0.1-0.1c-0.3-0.2-0.6-0.4-0.9-0.6c-1.2-0.7-2.3-1-3.1-1c-1.1,0-1.8,0.5-2.2,1.2c-0.8,1.4-0.3,3.1,2.5,4.7
		c0.3,0.2,0.7,0.4,1,0.5c0,0,0.1,0,0.1,0c3.1,1.4,6.3,1.2,12.1,3.9c-5.8,2.6-9,2.5-12.1,3.9c0,0-0.1,0-0.1,0.1
		c-0.3,0.2-0.7,0.3-1,0.5c-2.8,1.6-3.3,3.4-2.5,4.7c0.4,0.8,1.2,1.2,2.2,1.2c0.8,0,1.9-0.3,3.1-1c0.3-0.2,0.7-0.4,0.9-0.6
		c0,0,0.1,0,0.1-0.1c2.8-2,4.2-4.9,9.4-8.5c-0.6,6.3-2.3,9-2.7,12.4c0,0,0,0.1,0,0.1c0,0.4-0.1,0.7-0.1,1.1c0,3.2,1.3,4.5,2.9,4.5
		c1.6,0,2.9-1.3,2.9-4.5c0-0.4,0-0.8-0.1-1.1c0,0,0-0.1,0-0.1c-0.4-3.4-2.1-6.1-2.7-12.4c5.2,3.7,6.6,6.5,9.4,8.6
		c0,0,0.1,0.1,0.1,0.1c0.3,0.2,0.6,0.4,0.9,0.6c1.2,0.7,2.3,1,3.1,1c1,0,1.8-0.5,2.2-1.2C48.3,36.8,47.8,35.1,45,33.4z"/>
</g>
<g>
</g>
<g>
</g>
<g>
</g>
<g>
</g>
<g>
</g>
<g>
</g>
<g>
</g>
<g>
</g>
<g>
</g>
<g>
</g>
<g>
</g>
<g>
</g>
<g>
</g>
<g>
</g>
<g>
</g>
</svg>
