<?xml version="1.0" encoding="utf-8"?>
<!-- Generator: Adobe Illustrator 18.1.1, SVG Export Plug-In . SVG Version: 6.00 Build 0)  -->
<svg version="1.1" id="Layer_1" xmlns="http://www.w3.org/2000/svg" xmlns:xlink="http://www.w3.org/1999/xlink" x="0px" y="0px"
	 viewBox="0 0 35.4 48.2" enable-background="new 0 0 35.4 48.2" xml:space="preserve">
<g>
	<path d="M13.9,35.3c-0.1-0.1-0.3-0.2-0.5-0.1l-1.8,0.8c-0.2,0.1-0.4,0.2-0.6,0.3l-2.9,1.4c-0.2,0.1-0.3,0-0.3-0.2l-0.7-3.1
		C7.1,34.3,7,34,7,33.8l-0.4-1.7c0-0.2-0.1-0.2-0.2,0L0,42c-0.1,0.1,0,0.3,0.1,0.4l10.9,5.7c0.1,0.1,0.3,0,0.4-0.1l4.2-10
		c0.1-0.2,0-0.4-0.1-0.5l-0.1-0.2c-0.1-0.1-0.3-0.3-0.4-0.5L13.9,35.3z"/>
	<path d="M27.5,37.5c0,0.2-0.2,0.2-0.3,0.2l-2.9-1.4c-0.2-0.1-0.4-0.2-0.6-0.3L22,35.2c-0.2-0.1-0.4,0-0.5,0.1l-1.2,1.5
		c-0.1,0.1-0.3,0.3-0.4,0.5l-0.1,0.2c-0.1,0.1-0.1,0.4-0.1,0.5l4.2,10c0.1,0.2,0.2,0.2,0.4,0.1l10.9-5.7c0.1-0.1,0.2-0.3,0.1-0.4
		L29,32.1c-0.1-0.1-0.2-0.1-0.2,0l-0.4,1.7c0,0.2-0.1,0.4-0.1,0.6L27.5,37.5z"/>
	<path d="M34.7,13.8c0.1-0.1,0.1-0.3-0.1-0.4l-3.9-1.9c-0.2-0.1-0.2-0.3-0.2-0.4l1-4.3c0-0.2-0.1-0.3-0.2-0.3l-4.4,0
		c-0.2,0-0.3-0.1-0.4-0.3l-1-4.3c0-0.2-0.2-0.2-0.3-0.2l-4,1.9c-0.2,0.1-0.4,0-0.5-0.1l-2.8-3.4c-0.1-0.1-0.3-0.1-0.4,0l-2.8,3.4
		c-0.1,0.1-0.3,0.2-0.5,0.1l-4-1.9c-0.2-0.1-0.3,0-0.3,0.2l-1,4.3c0,0.2-0.2,0.3-0.4,0.3l-4.4,0C4,6.5,3.9,6.7,4,6.8l0.9,4.3
		c0,0.2-0.1,0.4-0.2,0.4l-3.9,1.9c-0.2,0.1-0.2,0.2-0.1,0.4l2.7,3.4c0.1,0.1,0.1,0.3,0,0.5l-2.7,3.4c-0.1,0.1-0.1,0.3,0.1,0.4
		l3.9,1.9c0.2,0.1,0.2,0.3,0.2,0.4L4,28.2c0,0.2,0.1,0.3,0.2,0.3l4.4,0c0.2,0,0.3,0.1,0.4,0.3l1,4.3c0,0.2,0.2,0.2,0.3,0.2l4-1.9
		c0.2-0.1,0.4,0,0.5,0.1l2.8,3.4c0.1,0.1,0.3,0.1,0.4,0l2.8-3.4c0.1-0.1,0.3-0.2,0.5-0.1l4,1.9c0.2,0.1,0.3,0,0.3-0.2l1-4.3
		c0-0.2,0.2-0.3,0.4-0.3l4.4,0c0.2,0,0.3-0.1,0.2-0.3l-1-4.3c0-0.2,0.1-0.4,0.2-0.4l3.9-1.9c0.2-0.1,0.2-0.2,0.1-0.4L32,17.8
		c-0.1-0.1-0.1-0.3,0-0.5L34.7,13.8z"/>
</g>
<g>
</g>
<g>
</g>
<g>
</g>
<g>
</g>
<g>
</g>
<g>
</g>
<g>
</g>
<g>
</g>
<g>
</g>
<g>
</g>
<g>
</g>
<g>
</g>
<g>
</g>
<g>
</g>
<g>
</g>
</svg>
