<?xml version="1.0" encoding="utf-8"?>
<!-- Generator: Adobe Illustrator 18.1.1, SVG Export Plug-In . SVG Version: 6.00 Build 0)  -->
<svg version="1.1" id="Layer_1" xmlns="http://www.w3.org/2000/svg" xmlns:xlink="http://www.w3.org/1999/xlink" x="0px" y="0px"
	 viewBox="0 0 39 41.4" enable-background="new 0 0 39 41.4" xml:space="preserve">
<g>
	<path d="M33.5,33.4l0.2,5H5.4l0.2-5h-3l-0.2,6.5c0,0.4,0.1,0.8,0.4,1.1c0.3,0.3,0.7,0.5,1.1,0.5h31.4c0.4,0,0.8-0.2,1.1-0.5
		c0.3-0.3,0.4-0.7,0.4-1.1l-0.2-6.5H33.5z M38,13.1c-0.1-0.8-0.7-1.4-1.5-1.4h-2.3C33,5,26.9,0,19.5,0C12.2,0,6,5,4.8,11.7H2.5
		c-0.8,0-1.4,0.6-1.5,1.4L0,29.8c0,0.4,0.1,0.8,0.4,1.1c0.3,0.3,0.7,0.5,1.1,0.5h36c0.4,0,0.8-0.2,1.1-0.5c0.3-0.3,0.4-0.7,0.4-1.1
		L38,13.1z M19.5,3c5.8,0,10.5,3.8,11.6,8.7H7.9C9,6.8,13.7,3,19.5,3z M3.1,28.4L4,14.7h31.1l0.9,13.7H3.1z M22,23.8h-4.9
		c-0.8,0-1.5,0.7-1.5,1.5c0,0.8,0.7,1.5,1.5,1.5H22c0.8,0,1.5-0.7,1.5-1.5C23.5,24.5,22.8,23.8,22,23.8z"/>
</g>
<g>
</g>
<g>
</g>
<g>
</g>
<g>
</g>
<g>
</g>
<g>
</g>
<g>
</g>
<g>
</g>
<g>
</g>
<g>
</g>
<g>
</g>
<g>
</g>
<g>
</g>
<g>
</g>
<g>
</g>
</svg>
