<?xml version="1.0" encoding="utf-8"?>
<!-- Generator: Adobe Illustrator 18.1.1, SVG Export Plug-In . SVG Version: 6.00 Build 0)  -->
<svg version="1.1" id="Layer_1" xmlns="http://www.w3.org/2000/svg" xmlns:xlink="http://www.w3.org/1999/xlink" x="0px" y="0px"
	 viewBox="0 0 612 560.9" enable-background="new 0 0 612 560.9" xml:space="preserve">
<path d="M568.2,100.8H444v-57C444,20.4,423.6,0,400.2,0H211.8C187,0,168,19,168,43.8v57H43.8C19,100.8,0,121.2,0,144.6v372.5
	c0,24.8,19,43.8,43.8,43.8h524.4c24.8,0,43.8-19,43.8-43.8V144.6C612,119.8,591.6,100.8,568.2,100.8z M233.7,65.7h144.6v35.1H233.7
	V65.7z M546.3,493.7H65.7v-168h207.4V371c0,7.3,7.3,14.6,14.6,14.6h36.5c7.3,0,14.6-7.3,14.6-14.6v-45.3h207.4V493.7z M546.3,260
	H65.7v-93.5h480.5V260z"/>
<g>
</g>
<g>
</g>
<g>
</g>
<g>
</g>
<g>
</g>
<g>
</g>
<g>
</g>
<g>
</g>
<g>
</g>
<g>
</g>
<g>
</g>
<g>
</g>
<g>
</g>
<g>
</g>
<g>
</g>
</svg>
