<?xml version="1.0" encoding="utf-8"?>
<!-- Generator: Adobe Illustrator 18.1.1, SVG Export Plug-In . SVG Version: 6.00 Build 0)  -->
<svg version="1.1" id="Layer_1" xmlns="http://www.w3.org/2000/svg" xmlns:xlink="http://www.w3.org/1999/xlink" x="0px" y="0px"
	 viewBox="0 0 38.2 50.9" enable-background="new 0 0 38.2 50.9" xml:space="preserve">
<g>
	<path d="M38.2,17c0-9.2-8.4-16.7-18.7-17c-0.1,0-0.2,0-0.2,0l-0.2,0c0,0-0.1,0-0.1,0c-0.1,0-0.1,0-0.2,0C8.4,0.2,0,7.8,0,17
		c0,6.7,4.7,12.8,13.1,17.3l-0.5,2.2c-0.4,1-0.1,2.1,0.4,2.7c0.5,0.6,1.4,1.2,4,1.5V50c0,0.5,0.4,0.9,0.9,0.9h2.4
		c0.5,0,0.9-0.4,0.9-0.9v-9.2c2.6-0.2,3.5-0.8,4-1.5c0.5-0.6,0.8-1.7,0.4-2.7l-0.5-2.2C33.6,29.8,38.2,23.7,38.2,17z M22.3,30.8
		C22,31,21.9,31,21.8,31.1c-1.2,0.8-1.7,2.1-1.2,3.5l-0.1-0.2l0.5,1.9c-0.4,0-3.4,0-3.8,0l0.5-1.9l-0.1,0.2c0.5-1.4,0.1-2.7-1.2-3.5
		c-0.1-0.1-0.3-0.1-0.5-0.3C11.6,28.6,4.4,24,4.4,17C4.4,10.2,11,4.6,19,4.4c0,0,0,0,0.1,0c0,0,0,0,0.1,0l0.1,0c0,0,0.1,0,0.1,0
		c8,0.1,14.6,5.8,14.6,12.6C33.8,24,26.6,28.6,22.3,30.8z"/>
</g>
<g>
</g>
<g>
</g>
<g>
</g>
<g>
</g>
<g>
</g>
<g>
</g>
<g>
</g>
<g>
</g>
<g>
</g>
<g>
</g>
<g>
</g>
<g>
</g>
<g>
</g>
<g>
</g>
<g>
</g>
</svg>
