<?xml version="1.0" encoding="utf-8"?>
<!-- Generator: Adobe Illustrator 18.1.1, SVG Export Plug-In . SVG Version: 6.00 Build 0)  -->
<svg version="1.1" id="Layer_1" xmlns="http://www.w3.org/2000/svg" xmlns:xlink="http://www.w3.org/1999/xlink" x="0px" y="0px"
	 viewBox="0 0 42.5 25.8" enable-background="new 0 0 42.5 25.8" xml:space="preserve">
<g>
	<path d="M38.5,7h-1.7V4c0-2.2-1.8-4-4-4H4C1.8,0,0,1.8,0,4v17.8c0,2.2,1.8,4,4,4h28.9c2.2,0,4-1.8,4-4v-3h1.7c2.2,0,4-1.8,4-4V11
		C42.5,8.8,40.7,7,38.5,7z M32.9,21.8H4V4h28.9V21.8z M38.5,14.8h-1.7V11h1.7V14.8z"/>
	<rect x="16.4" y="5.3" width="4" height="15.2"/>
	<rect x="11" y="5.3" width="4" height="15.2"/>
	<rect x="5.6" y="5.3" width="4" height="15.2"/>
</g>
<g>
</g>
<g>
</g>
<g>
</g>
<g>
</g>
<g>
</g>
<g>
</g>
<g>
</g>
<g>
</g>
<g>
</g>
<g>
</g>
<g>
</g>
<g>
</g>
<g>
</g>
<g>
</g>
<g>
</g>
</svg>
