<?xml version="1.0" encoding="utf-8"?>
<!-- Generator: Adobe Illustrator 18.1.1, SVG Export Plug-In . SVG Version: 6.00 Build 0)  -->
<svg version="1.1" id="Layer_1" xmlns="http://www.w3.org/2000/svg" xmlns:xlink="http://www.w3.org/1999/xlink" x="0px" y="0px"
	 viewBox="0 0 44.4 34.3" enable-background="new 0 0 44.4 34.3" xml:space="preserve">
<g>
	<path d="M40.4,0c-2.9,0-6.5,0-8.1,0c-3.1,0-6,0.8-8.2,2.2c-0.7,0.4-1.3,1-1.9,1.5c-0.6-0.6-1.2-1.1-1.9-1.5C18.1,0.8,15.3,0,12.1,0
		C10.5,0,6.9,0,4,0C1.8,0,0,1.8,0,4v22.5c0,2.1,1.7,3.9,3.8,4c0.1,0,6.8,0,8.3,0c2.4,0,4.6,0.6,6.1,1.6c0.5,0.3,0.9,0.6,1.2,1
		c0,0,0,0,0.1,0.1c0.7,0.7,1.7,1.2,2.8,1.2c1.1,0,2.1-0.4,2.8-1.1c0,0,0.1-0.1,0.1-0.1c0.3-0.3,0.7-0.6,1.2-1
		c1.4-0.9,3.6-1.6,6.1-1.6c1.6,0,8.3,0,8.3,0c2.1-0.1,3.8-1.8,3.8-4V4C44.4,1.8,42.7,0,40.4,0z M20.2,28.7c-0.4-0.2-0.8-0.5-1.3-0.7
		c-2-0.9-4.3-1.4-6.8-1.5c-1.2,0-6.9,0-8.1,0V4c1.3,0,7,0,8.1,0c2.4,0,4.6,0.6,6.1,1.6c1.5,0.9,2,2,2,2.9V28.7z M40.5,26.5
		c-1.3,0-7,0-8.1,0c-2.5,0-4.9,0.5-6.8,1.5c-0.4,0.2-0.9,0.4-1.3,0.7V8.4c0-0.9,0.6-1.9,2-2.9C27.7,4.6,29.9,4,32.3,4
		c1.2,0,6.9,0,8.1,0V26.5z"/>
</g>
<g>
</g>
<g>
</g>
<g>
</g>
<g>
</g>
<g>
</g>
<g>
</g>
<g>
</g>
<g>
</g>
<g>
</g>
<g>
</g>
<g>
</g>
<g>
</g>
<g>
</g>
<g>
</g>
<g>
</g>
</svg>
