<?xml version="1.0" encoding="utf-8"?>
<!-- Generator: Adobe Illustrator 18.1.1, SVG Export Plug-In . SVG Version: 6.00 Build 0)  -->
<svg version="1.1" id="Layer_1" xmlns="http://www.w3.org/2000/svg" xmlns:xlink="http://www.w3.org/1999/xlink" x="0px" y="0px"
	 viewBox="0 0 42.6 37.2" enable-background="new 0 0 42.6 37.2" xml:space="preserve">
<g>
	<path d="M20,5.5L0,0v25.3l20,5.5V5.5z M23.6,33c-0.1,0.8-0.7,1.4-1.4,1.7c-0.3,0.1-0.6,0.2-0.9,0.2s-0.6-0.1-0.9-0.2
		c-0.7-0.3-1.2-1-1.4-1.7l-1.6-0.4L0,27.8v2.3L17.8,35c0.6,1.3,1.9,2.2,3.4,2.2s2.8-0.9,3.4-2.2l17.8-4.9v-2.3l-17.4,4.8L23.6,33z
		 M22.6,5.5v25.3l20-5.5V0L22.6,5.5z"/>
</g>
<g>
</g>
<g>
</g>
<g>
</g>
<g>
</g>
<g>
</g>
<g>
</g>
<g>
</g>
<g>
</g>
<g>
</g>
<g>
</g>
<g>
</g>
<g>
</g>
<g>
</g>
<g>
</g>
<g>
</g>
</svg>
