<?xml version="1.0" encoding="utf-8"?>
<!-- Generator: Adobe Illustrator 18.1.1, SVG Export Plug-In . SVG Version: 6.00 Build 0)  -->
<svg version="1.1" id="Layer_1" xmlns="http://www.w3.org/2000/svg" xmlns:xlink="http://www.w3.org/1999/xlink" x="0px" y="0px"
	 viewBox="0 0 39.1 43.2" enable-background="new 0 0 39.1 43.2" xml:space="preserve">
<g>
	<path d="M34.7,0.4C34.4,0.2,34,0,33.6,0H5.5c-0.4,0-0.8,0.2-1,0.4C4.2,0.7,4,1.1,4,1.5L0,41.7c0,0.5,0.2,0.9,0.6,1.2
		C1.1,43.2,1.6,43.2,2,43l17.5-7.1L37.1,43c0.2,0.1,0.4,0.1,0.6,0.1c0.3,0,0.6-0.1,0.8-0.3c0.4-0.3,0.6-0.7,0.6-1.2l-4-40.2
		C35.1,1.1,34.9,0.7,34.7,0.4z M31.4,16.1l-5.3,5.2l1.3,7.3c0.1,0.3-0.1,0.6-0.3,0.8c-0.1,0.1-0.3,0.2-0.5,0.2c-0.1,0-0.3,0-0.4-0.1
		L19.6,26L13,29.5c-0.1,0.1-0.3,0.1-0.4,0.1c-0.2,0-0.3-0.1-0.5-0.2c-0.3-0.2-0.4-0.5-0.3-0.8l1.3-7.3l-5.3-5.2
		c-0.2-0.2-0.3-0.5-0.2-0.8c0.1-0.3,0.4-0.5,0.7-0.6l7.3-1.1L18.8,7c0.1-0.3,0.4-0.5,0.7-0.5c0.3,0,0.6,0.2,0.7,0.5l3.3,6.6l7.3,1.1
		c0.3,0,0.6,0.3,0.7,0.6C31.7,15.6,31.6,15.9,31.4,16.1z"/>
</g>
<g>
</g>
<g>
</g>
<g>
</g>
<g>
</g>
<g>
</g>
<g>
</g>
<g>
</g>
<g>
</g>
<g>
</g>
<g>
</g>
<g>
</g>
<g>
</g>
<g>
</g>
<g>
</g>
<g>
</g>
</svg>
