<?xml version="1.0" encoding="utf-8"?>
<!-- Generator: Adobe Illustrator 18.1.1, SVG Export Plug-In . SVG Version: 6.00 Build 0)  -->
<svg version="1.1" id="Layer_1" xmlns="http://www.w3.org/2000/svg" xmlns:xlink="http://www.w3.org/1999/xlink" x="0px" y="0px"
	 viewBox="0 0 43.7 41.9" enable-background="new 0 0 43.7 41.9" xml:space="preserve">
<g>
	<path d="M41.2,39.2c-2.6,0-4.5-1.2-8-2.6c-1.6-0.7-3.2-1-4.9-1c-2.2,0-4.4,1.3-6.4,2.3c0,0-0.1,0-0.1,0c0,0-0.1,0-0.1,0
		c-2-1.1-4.2-2.3-6.4-2.3c-1.6,0-3.3,0.3-4.8,1c-3.5,1.4-5.4,2.6-8,2.6c0,0-0.1,0-0.1,0c-0.8,0-1.6-0.2-2.5-0.6v2.9
		c0.8,0.3,1.6,0.4,2.5,0.4c0,0,0,0,0,0c3.4-0.1,5.6-1.5,8.8-2.8c1.3-0.5,2.7-0.8,4-0.8c1.8,0,3.7,1.2,5.4,2.1
		c0.2,0.1,0.4,0.2,0.6,0.3l0.5,0.3l0.5-0.3c0.2-0.1,0.4-0.2,0.6-0.3c1.7-0.9,3.6-2.1,5.4-2.1c1.3,0,2.7,0.3,4,0.8
		c3.3,1.3,5.4,2.7,8.8,2.8h0.1c0.8,0,1.6-0.2,2.4-0.4v-2.9C42.9,39,42.1,39.2,41.2,39.2L41.2,39.2z M41.2,3.5c-3,0-5-1.3-8.4-2.7
		c-3.5-1.4-7-1.1-10.4,2.1c-0.2,0.2-0.6,0.5-0.6,0.5s-0.4-0.4-0.6-0.5c-3.4-3.2-6.9-3.5-10.4-2.1C7.5,2.2,5.5,3.5,2.5,3.5
		C1.7,3.5,0.8,3.3,0,3l0,27.9c0.8,0.3,1.7,0.5,2.5,0.5c3,0,5-1.3,8.4-2.7c3.5-1.4,7.1-1.1,10.4,0.6c0.2,0.1,0.4,0.2,0.6,0.3
		c0.2-0.1,0.4-0.2,0.6-0.3c3.3-1.7,6.9-2,10.4-0.6c3.4,1.4,5.4,2.7,8.4,2.7c0.8,0,1.7-0.2,2.5-0.5V3C42.9,3.3,42,3.5,41.2,3.5z
		 M23.2,26c0,0.1-0.1,0.2-0.3,0.2h-2.3c-0.1,0-0.2-0.1-0.2-0.2V6c0-0.1,0.1-0.2,0.2-0.2H23c0.1,0,0.3,0.1,0.3,0.2V26z M41.2,34
		c-2.6,0-4.5-1.2-8-2.6c-1.6-0.6-3.2-1-4.9-1c-2.2,0-4.4,0.8-6.4,1.9c0,0-0.1,0-0.1,0c0,0-0.1,0-0.1,0c-2-1.1-4.2-1.9-6.4-1.9
		c-1.6,0-3.3,0.3-4.8,1c-3.5,1.4-5.4,2.6-8,2.6c0,0-0.1,0-0.1,0c-0.8,0-1.6-0.2-2.5-0.6v2.9c0.8,0.3,1.6,0.4,2.5,0.4c0,0,0,0,0,0
		c3.4-0.1,5.6-1.5,8.8-2.8c1.3-0.5,2.7-0.8,4-0.8c1.8,0,3.7,0.7,5.4,1.6c0.2,0.1,0.4,0.2,0.6,0.3l0.5,0.3l0.5-0.3
		c0.2-0.1,0.4-0.2,0.6-0.3c1.7-0.9,3.6-1.6,5.4-1.6c1.3,0,2.7,0.3,4,0.8c3.3,1.3,5.4,2.7,8.8,2.8h0.1c0.8,0,1.6-0.1,2.4-0.4v-2.9
		C42.9,33.8,42.1,34,41.2,34L41.2,34z"/>
</g>
<g>
</g>
<g>
</g>
<g>
</g>
<g>
</g>
<g>
</g>
<g>
</g>
<g>
</g>
<g>
</g>
<g>
</g>
<g>
</g>
<g>
</g>
<g>
</g>
<g>
</g>
<g>
</g>
<g>
</g>
</svg>
