<?xml version="1.0" encoding="utf-8"?>
<!-- Generator: Adobe Illustrator 18.1.1, SVG Export Plug-In . SVG Version: 6.00 Build 0)  -->
<svg version="1.1" id="Layer_1" xmlns="http://www.w3.org/2000/svg" xmlns:xlink="http://www.w3.org/1999/xlink" x="0px" y="0px"
	 viewBox="0 0 44.8 31.8" enable-background="new 0 0 44.8 31.8" xml:space="preserve">
<g>
	<path d="M20,27.9c-6.1-2.9-12.3-2-15.8-1.1V5.7c2.4-1,8.6-3,13.4,0.3c0.9,0.6,2.2,0.4,2.9-0.5c0.6-0.9,0.4-2.2-0.5-2.9
		C11.6-3.1,1.5,2.3,1.1,2.5C0.4,2.9,0,3.6,0,4.3v25.4c0,0.7,0.3,1.3,0.9,1.7c0.6,0.4,1.3,0.4,1.9,0.2c0.1,0,8.1-3.4,15.3,0.1
		c0.3,0.1,0.6,0.2,0.9,0.2c0.8,0,1.5-0.4,1.9-1.2C21.4,29.6,21,28.4,20,27.9z"/>
	<path d="M43.8,2.5C43.4,2.3,33.2-3.1,25,2.6c-0.9,0.6-1.2,1.9-0.5,2.9c0.6,0.9,1.9,1.2,2.9,0.5c4.8-3.4,11-1.4,13.4-0.3v21.2
		c-3.5-0.9-9.8-1.8-15.8,1.1c-1,0.5-1.5,1.7-1,2.7c0.4,0.7,1.1,1.2,1.9,1.2c0.3,0,0.6-0.1,0.9-0.2c7.3-3.5,15.2-0.1,15.3-0.1
		c0.6,0.3,1.4,0.2,1.9-0.2c0.6-0.4,0.9-1,0.9-1.7V4.3C44.8,3.6,44.4,2.9,43.8,2.5z"/>
</g>
<g>
</g>
<g>
</g>
<g>
</g>
<g>
</g>
<g>
</g>
<g>
</g>
<g>
</g>
<g>
</g>
<g>
</g>
<g>
</g>
<g>
</g>
<g>
</g>
<g>
</g>
<g>
</g>
<g>
</g>
</svg>
