<?xml version="1.0" encoding="utf-8"?>
<!-- Generator: Adobe Illustrator 18.1.1, SVG Export Plug-In . SVG Version: 6.00 Build 0)  -->
<svg version="1.1" id="Layer_1" xmlns="http://www.w3.org/2000/svg" xmlns:xlink="http://www.w3.org/1999/xlink" x="0px" y="0px"
	 viewBox="0 0 613.3 465.8" enable-background="new 0 0 613.3 465.8" xml:space="preserve">
<g>
	<path d="M595.2,27.2l-10.4,1.3V317v24.6l-24.6,2.6c-1.3,0-135.9,11.6-244.5,63.4l-11.6,5.2l-11.6-5.2
		c-108.7-51.8-242-63.4-244.5-63.4l-22-2.6V317V28.5l-10.4-1.3C7.8,28.5,0,34.9,0,45.3l0,0v326.1c0,9.1,6.5,15.5,15.5,16.8l33.6,2.6
		c7.8,1.3,116.4,10.4,212.2,50.5l15.5,19.4c2.6,2.6,6.5,5.2,10.4,5.2h19.4h19.4c3.9,0,9.1-2.6,10.4-5.2l15.5-19.4
		c95.7-40.1,204.4-50.5,212.2-50.5c0,0,32.3-2.6,33.6-2.6c9.1-1.3,15.5-7.8,15.5-16.8V45.3l0,0C612,34.9,604.2,28.5,595.2,27.2z"/>
	<path d="M67.3,319.6C67.3,319.6,68.6,319.6,67.3,319.6c34.9,3.9,120.3,16.8,201.8,47.9h1.3c1.3,0,3.9,1.3,5.2,1.3
		c9.1,0,16.8-7.8,16.8-16.8l0,0V69.9l0,0c0-6.5-3.9-12.9-10.4-15.5c0,0,0,0-1.3,0C199.3,18.1,110,5.2,72.5,0l0,0h-1.3
		C60.8,0,53,7.8,53,16.8l0,0v284.7l0,0C53,310.5,59.5,318.3,67.3,319.6z M97,71.2c3.9,0,82.8,9.1,169.5,45.3
		c6.5,2.6,10.4,10.4,6.5,16.8c-1.3,5.2-6.5,9.1-11.6,9.1c-1.3,0-3.9,0-5.2-1.3C173.4,104.8,95.7,97,94.5,97
		c-6.5-1.3-11.6-6.5-11.6-14.2C84.1,75,90.6,69.9,97,71.2z M97,148.8c3.9,0,82.8,9.1,169.5,45.3c6.5,2.6,10.4,10.4,6.5,16.8
		c-2.6,5.2-6.5,7.8-11.6,7.8c-1.3,0-3.9,0-5.2-1.3c-82.8-34.9-160.4-44-161.7-44c-7.8-1.3-12.9-7.8-11.6-14.2
		C84.1,152.7,90.6,147.5,97,148.8z M97,225.1c3.9,0,82.8,9.1,169.5,45.3c6.5,2.6,10.4,10.4,6.5,16.8c-2.6,5.2-6.5,7.8-11.6,7.8
		c-1.3,0-3.9,0-5.2-1.3c-82.8-34.9-160.4-44-161.7-44c-7.8-1.3-12.9-7.8-11.6-14.2C84.1,230.3,90.6,225.1,97,225.1z"/>
	<path d="M336.4,368.8c2.6,0,3.9,0,5.2-1.3h1.3c81.5-31.1,166.9-44,200.5-47.9h1.3c7.8-1.3,14.2-7.8,14.2-16.8l0,0V18.1l0,0
		c0-9.1-7.8-16.8-16.8-16.8h-1.3l0,0c-38.8,5.2-128.1,18.1-209.6,53c0,0,0,0-1.3,0c-6.5,2.6-10.4,9.1-10.4,15.5l0,0v282.1l0,0
		C319.6,361,327.3,368.8,336.4,368.8z M344.2,116.4c86.7-37.5,165.6-45.3,169.5-45.3c7.8,0,14.2,5.2,14.2,11.6
		c1.3,7.8-5.2,14.2-11.6,14.2c-1.3,0-78.9,7.8-161.7,44c-1.3,0-3.9,1.3-5.2,1.3c-5.2,0-10.4-2.6-11.6-7.8
		C333.8,126.8,337.7,119,344.2,116.4z M344.2,194.1c86.7-37.5,165.6-45.3,169.5-45.3c7.8-1.3,14.2,5.2,14.2,11.6
		c1.3,7.8-5.2,14.2-11.6,14.2c-1.3,0-78.9,7.8-161.7,44c-1.3,1.3-3.9,1.3-5.2,1.3c-5.2,0-10.4-2.6-11.6-7.8
		C333.8,204.4,337.7,196.7,344.2,194.1z M344.2,271.7c86.7-37.5,165.6-45.3,169.5-45.3c7.8,0,14.2,5.2,14.2,11.6
		c1.3,7.8-5.2,14.2-11.6,14.2c-1.3,0-78.9,7.8-161.7,44c-1.3,1.3-3.9,1.3-5.2,1.3c-5.2,0-10.4-2.6-11.6-7.8
		C333.8,282.1,337.7,274.3,344.2,271.7z"/>
</g>
<g>
</g>
<g>
</g>
<g>
</g>
<g>
</g>
<g>
</g>
<g>
</g>
<g>
</g>
<g>
</g>
<g>
</g>
<g>
</g>
<g>
</g>
<g>
</g>
<g>
</g>
<g>
</g>
<g>
</g>
</svg>
