<?xml version="1.0" encoding="utf-8"?>
<!-- Generator: Adobe Illustrator 18.1.1, SVG Export Plug-In . SVG Version: 6.00 Build 0)  -->
<svg version="1.1" id="Layer_1" xmlns="http://www.w3.org/2000/svg" xmlns:xlink="http://www.w3.org/1999/xlink" x="0px" y="0px"
	 viewBox="0 0 612 630.6" enable-background="new 0 0 612 630.6" xml:space="preserve">
<path d="M527.2,20.7L527.2,20.7C521,8.3,510.7,0,496.2,0H113.7c-14.5,0-24.8,8.3-31,20.7L0,221.2v370.1c0,22.7,16.5,39.3,39.3,39.3
	h533.4c20.7,0,39.3-16.5,39.3-39.3V221.2L527.2,20.7z M324.6,37.2h169.5l70.3,169.5H324.6V37.2z M115.8,37.2h169.5v169.5H45.5
	L115.8,37.2z M574.8,593.4C574.8,593.4,572.7,595.5,574.8,593.4l-535.5,2.1l-2.1-2.1V244h535.5v349.4H574.8z"/>
<g>
</g>
<g>
</g>
<g>
</g>
<g>
</g>
<g>
</g>
<g>
</g>
<g>
</g>
<g>
</g>
<g>
</g>
<g>
</g>
<g>
</g>
<g>
</g>
<g>
</g>
<g>
</g>
<g>
</g>
</svg>
