<?xml version="1.0" encoding="utf-8"?>
<!-- Generator: Adobe Illustrator 18.1.1, SVG Export Plug-In . SVG Version: 6.00 Build 0)  -->
<svg version="1.1" id="Layer_1" xmlns="http://www.w3.org/2000/svg" xmlns:xlink="http://www.w3.org/1999/xlink" x="0px" y="0px"
	 viewBox="0 0 49.1 49.1" enable-background="new 0 0 49.1 49.1" xml:space="preserve">
<g>
	<g>
		<path d="M24.5,37.8c7.3,0,13.2-5.9,13.2-13.2c0-7.3-5.9-13.2-13.2-13.2c-7.3,0-13.2,5.9-13.2,13.2C11.4,31.9,17.3,37.8,24.5,37.8z
			 M24.1,14.1c6,0,10.9,4.7,10.9,10.6c0,5.8-4.9,10.5-10.9,10.6V14.1z"/>
	</g>
	<g>
		<path d="M22.8,6.6V0.9c0-0.5,0.4-0.9,0.9-0.9h1.8c0.5,0,0.9,0.4,0.9,0.9v5.7c0,0.5-0.4,0.9-0.9,0.9h-1.8
			C23.2,7.5,22.8,7.1,22.8,6.6z"/>
		<path d="M22.8,48.2v-5.7c0-0.5,0.4-0.9,0.9-0.9h1.8c0.5,0,0.9,0.4,0.9,0.9v5.7c0,0.5-0.4,0.9-0.9,0.9h-1.8
			C23.2,49.1,22.8,48.7,22.8,48.2z"/>
	</g>
	<g>
		<path d="M42.5,22.8h5.7c0.5,0,0.9,0.4,0.9,0.9v1.8c0,0.5-0.4,0.9-0.9,0.9h-5.7c-0.5,0-0.9-0.4-0.9-0.9v-1.8
			C41.6,23.2,42,22.8,42.5,22.8z"/>
		<path d="M0.9,22.8h5.7c0.5,0,0.9,0.4,0.9,0.9v1.8c0,0.5-0.4,0.9-0.9,0.9H0.9c-0.5,0-0.9-0.4-0.9-0.9v-1.8
			C0,23.2,0.4,22.8,0.9,22.8z"/>
	</g>
	<g>
		<path d="M36,10.6l4-4c0.3-0.3,0.9-0.3,1.2,0l1.3,1.3c0.3,0.3,0.3,0.9,0,1.2l-4,4c-0.3,0.3-0.9,0.3-1.2,0L36,11.8
			C35.6,11.5,35.6,10.9,36,10.6z"/>
		<path d="M6.6,40l4-4c0.3-0.3,0.9-0.3,1.2,0l1.3,1.3c0.3,0.3,0.3,0.9,0,1.2l-4,4c-0.3,0.3-0.9,0.3-1.2,0l-1.3-1.3
			C6.2,40.9,6.2,40.4,6.6,40z"/>
	</g>
	<g>
		<path d="M38.5,36l4,4c0.3,0.3,0.3,0.9,0,1.2l-1.3,1.3c-0.3,0.3-0.9,0.3-1.2,0l-4.1-4c-0.3-0.3-0.3-0.9,0-1.2l1.3-1.3
			C37.6,35.6,38.1,35.6,38.5,36z"/>
		<path d="M9.1,6.6l4,4c0.3,0.3,0.3,0.9,0,1.2l-1.3,1.3c-0.3,0.3-0.9,0.3-1.2,0l-4-4c-0.3-0.3-0.3-0.9,0-1.2l1.3-1.3
			C8.2,6.2,8.7,6.2,9.1,6.6z"/>
	</g>
</g>
<g>
</g>
<g>
</g>
<g>
</g>
<g>
</g>
<g>
</g>
<g>
</g>
<g>
</g>
<g>
</g>
<g>
</g>
<g>
</g>
<g>
</g>
<g>
</g>
<g>
</g>
<g>
</g>
<g>
</g>
</svg>
