<?xml version="1.0" encoding="utf-8"?>
<!-- Generator: Adobe Illustrator 18.1.1, SVG Export Plug-In . SVG Version: 6.00 Build 0)  -->
<svg version="1.1" id="Layer_1" xmlns="http://www.w3.org/2000/svg" xmlns:xlink="http://www.w3.org/1999/xlink" x="0px" y="0px"
	 viewBox="0 0 40.6 42.1" enable-background="new 0 0 40.6 42.1" xml:space="preserve">
<g>
	<path d="M20.8,15.9c-3.8,0-6.6,2.9-6.6,6.3c0,3.4,2.5,5.4,5.4,5.4c1.6,0,2.7-0.5,3.5-1.3l0.1,0c-0.3,1.3-1.1,2.4-2.2,3.2
		c-0.9,0.6-2.2,1-3.4,1.1c-0.8,0.1-1.3,0.1-1.8,0v3.2c0.5,0,1.2,0.1,1.9,0c2.7-0.1,5-0.9,6.7-2.4c1.9-1.7,3.1-4.4,3.1-8
		C27.4,19.4,25.2,15.9,20.8,15.9z M23,23.6c-0.4,0.6-1.2,1.2-2.3,1.2c-1.7,0-2.5-1.3-2.5-2.8c0-1.8,1-3.1,2.4-3.1h0
		c1.9,0,2.6,1.8,2.6,3.7C23.2,23.1,23.1,23.4,23,23.6z"/>
	<path d="M36.7,4.1H33l0-3.4C33,0.3,32.7,0,32.3,0h-2.6C29.3,0,29,0.3,29,0.7v3.4H11.6V0.7c0-0.4-0.3-0.7-0.7-0.7H8.3
		C7.9,0,7.6,0.3,7.6,0.7v3.4H3.9C1.7,4.1,0,5.8,0,7.9l0,30.3c0,2.1,1.7,3.9,3.9,3.9h32.8c2.1,0,3.9-1.7,3.9-3.9h0V7.9
		C40.6,5.8,38.8,4.1,36.7,4.1z M36.7,37.7c0,0.3-0.3,0.5-0.6,0.5H4.4c-0.3,0-0.6-0.3-0.6-0.5l0-25.7h0c0-0.3,0.3-0.6,0.6-0.6h31.8
		c0.3,0,0.6,0.3,0.6,0.6V37.7L36.7,37.7z"/>
</g>
<g>
</g>
<g>
</g>
<g>
</g>
<g>
</g>
<g>
</g>
<g>
</g>
<g>
</g>
<g>
</g>
<g>
</g>
<g>
</g>
<g>
</g>
<g>
</g>
<g>
</g>
<g>
</g>
<g>
</g>
</svg>
