<?xml version="1.0" encoding="utf-8"?>
<!-- Generator: Adobe Illustrator 18.1.1, SVG Export Plug-In . SVG Version: 6.00 Build 0)  -->
<svg version="1.1" id="Layer_1" xmlns="http://www.w3.org/2000/svg" xmlns:xlink="http://www.w3.org/1999/xlink" x="0px" y="0px"
	 viewBox="0 0 42.8 43.6" enable-background="new 0 0 42.8 43.6" xml:space="preserve">
<g>
	<path d="M32.9,33.4h-9.3c0.1-1.6,1.6-3.1,4.6-4.5c3-1.4,4.5-3.5,4.5-6.5c0-4.1-2.2-6.1-6.5-6.1c-4.3,0-6.5,2-6.5,6.1h3.7
		c0-1.6,0.9-2.4,2.8-2.4c1.7,0,2.6,0.9,2.6,2.6c0,1.7-1.4,3.2-4.3,4.5c-2.9,1.3-4.5,3.4-4.9,6.4v3.7h13.4V33.4z M12,37.1h3.7V16.3
		h-2.4l-3.7,2.4v4l2.4-1.6V37.1z M36,4.5V2c0-1.1-0.9-2-2-2c-1.1,0-2,0.9-2,2v2.6H10.8V2c0-1.1-0.9-2-2-2c-1.1,0-2,0.9-2,2v2.6H0
		v39.1h42.8V4.5H36z M39.2,40H3.7V13.4h35.6V40z"/>
</g>
<g>
</g>
<g>
</g>
<g>
</g>
<g>
</g>
<g>
</g>
<g>
</g>
<g>
</g>
<g>
</g>
<g>
</g>
<g>
</g>
<g>
</g>
<g>
</g>
<g>
</g>
<g>
</g>
<g>
</g>
</svg>
