<?xml version="1.0" encoding="utf-8"?>
<!-- Generator: Adobe Illustrator 18.1.1, SVG Export Plug-In . SVG Version: 6.00 Build 0)  -->
<svg version="1.1" id="Layer_1" xmlns="http://www.w3.org/2000/svg" xmlns:xlink="http://www.w3.org/1999/xlink" x="0px" y="0px"
	 viewBox="0 0 44.4 40.7" enable-background="new 0 0 44.4 40.7" xml:space="preserve">
<g>
	<path d="M44.4,4.1H37V0h-4.4v4.1H11.4V0H7v4.1H0v36.6h44.4V4.1z M11.8,35.4H5.1v-6.7h6.8V35.4z M11.8,26.1H5.1v-6.8h6.8V26.1z
		 M11.8,16.7H5.1V9.8h6.8V16.7z M20.8,35.4h-6.4v-6.7h6.4V35.4z M20.8,26.1h-6.4v-6.8h6.4V26.1z M20.8,16.7h-6.4V9.8h6.4V16.7z
		 M29.9,35.4h-6.4v-6.7h6.4V35.4z M29.9,16.7h-6.4V9.8h6.4V16.7z M38.9,35.4h-6.4v-6.7h6.4V35.4z M38.9,26.1h-6.4v-6.8h6.4V26.1z
		 M38.9,16.7h-6.4V9.8h6.4V16.7z"/>
</g>
<g>
</g>
<g>
</g>
<g>
</g>
<g>
</g>
<g>
</g>
<g>
</g>
<g>
</g>
<g>
</g>
<g>
</g>
<g>
</g>
<g>
</g>
<g>
</g>
<g>
</g>
<g>
</g>
<g>
</g>
</svg>
