<?xml version="1.0" encoding="utf-8"?>
<!-- Generator: Adobe Illustrator 18.1.1, SVG Export Plug-In . SVG Version: 6.00 Build 0)  -->
<svg version="1.1" id="Layer_1" xmlns="http://www.w3.org/2000/svg" xmlns:xlink="http://www.w3.org/1999/xlink" x="0px" y="0px"
	 viewBox="0 0 38.8 38.8" enable-background="new 0 0 38.8 38.8" xml:space="preserve">
<g>
	<path d="M6.7,38.6c2.4,0.4,4.9,0,7.5-1.1c2.6-1.1,5.1-2.8,7.4-5.1l10.9-10.9c3-3.1,5.1-6.6,5.9-10c0.4-1.7,0.5-3.4,0.2-4.9
		c-0.3-1.6-1-3-2.1-4.2l-2-2C34.2,0.2,33.7,0,33.2,0c-0.5,0-0.9,0.2-1.2,0.5l-7.4,7.4c-0.3,0.3-0.5,0.8-0.5,1.2
		c0,0.5,0.2,0.9,0.5,1.2l2.5,2.5c1,1,1,2.6,0,3.6L16.2,27.4c-1,1-2.6,1-3.6,0l-2.5-2.5c-0.3-0.3-0.8-0.5-1.2-0.5
		c-0.5,0-0.9,0.2-1.2,0.5L0.5,32C0.2,32.3,0,32.8,0,33.3c0,0.5,0.2,0.9,0.5,1.2l2,2C3.7,37.7,5.2,38.4,6.7,38.6z"/>
</g>
<g>
</g>
<g>
</g>
<g>
</g>
<g>
</g>
<g>
</g>
<g>
</g>
<g>
</g>
<g>
</g>
<g>
</g>
<g>
</g>
<g>
</g>
<g>
</g>
<g>
</g>
<g>
</g>
<g>
</g>
</svg>
