<?xml version="1.0" encoding="utf-8"?>
<!-- Generator: Adobe Illustrator 18.1.1, SVG Export Plug-In . SVG Version: 6.00 Build 0)  -->
<svg version="1.1" id="Layer_1" xmlns="http://www.w3.org/2000/svg" xmlns:xlink="http://www.w3.org/1999/xlink" x="0px" y="0px"
	 viewBox="0 0 40.4 48.6" enable-background="new 0 0 40.4 48.6" xml:space="preserve">
<g>
	<path d="M0.7,13.9C0.8,14.2,0.9,14.6,1,15c1.4,4.1,4.2,9.5,9.5,16.6l0,0c0,0,0,0,0,0c0,0,0,0,0,0h0c5.3,7.1,9.6,11.4,13.2,13.9
		c0.3,0.2,0.6,0.4,1,0.6c6.2,4,9.8,2.3,11.5,0.6c0.3-0.3,0.6-0.6,0.9-0.9c1.9-1.9,2.9-2.8,2.9-2.8c0.1-0.1,0.1-0.2,0.2-0.3
		c0-0.1,0.1-0.1,0.1-0.2c0,0,0,0,0,0c0.1-0.3,0.1-0.6,0.1-0.9c0-0.3-0.1-0.5-0.3-0.7l0,0c0,0,0,0,0,0l-6.9-7.8c0,0,0,0,0,0
		c-0.3-0.3-0.6-0.5-1-0.5c-0.4,0-0.8,0.1-1.1,0.4c0,0,0,0,0,0l-2.4,2c-1.8,1.5-3.8,0.9-5.3-0.8c-1.4-1.6-3.5-4.1-6-7.5
		c-2.5-3.4-4.3-6.1-5.4-7.9c-1.2-2-1.2-4,0.8-5.4l2.6-1.7l0,0c0.3-0.2,0.6-0.6,0.7-1c0.1-0.4,0-0.8-0.2-1.1l0,0l-5.5-8.8
		c0,0,0,0,0,0l0,0C10,0.5,9.8,0.3,9.6,0.2C9.3,0,9,0,8.7,0c0,0,0,0,0,0C8.6,0,8.5,0.1,8.4,0.1c-0.1,0-0.2,0.1-0.3,0.1
		c0,0-1.2,0.6-3.5,1.9C4.2,2.3,3.8,2.5,3.4,2.7C1.4,3.8-1.3,6.8,0.7,13.9z"/>
</g>
<g>
</g>
<g>
</g>
<g>
</g>
<g>
</g>
<g>
</g>
<g>
</g>
<g>
</g>
<g>
</g>
<g>
</g>
<g>
</g>
<g>
</g>
<g>
</g>
<g>
</g>
<g>
</g>
<g>
</g>
</svg>
