<?xml version="1.0" encoding="utf-8"?>
<!-- Generator: Adobe Illustrator 18.1.1, SVG Export Plug-In . SVG Version: 6.00 Build 0)  -->
<svg version="1.1" id="Layer_1" xmlns="http://www.w3.org/2000/svg" xmlns:xlink="http://www.w3.org/1999/xlink" x="0px" y="0px"
	 viewBox="0 0 53.1 39.9" enable-background="new 0 0 53.1 39.9" xml:space="preserve">
<g>
	<path d="M26.6,21.3L26.6,21.3C26.6,21.3,26.6,21.3,26.6,21.3C26.5,21.3,26.5,21.3,26.6,21.3L26.6,21.3c-2.4,0-4.3,1.9-4.3,4.2
		c0,2.3,1.9,4.2,4.2,4.2h0c0,0,0,0,0,0c0,0,0,0,0,0l0,0c2.3,0,4.2-1.9,4.2-4.2C30.8,23.2,28.9,21.3,26.6,21.3z"/>
	<path d="M51.8,7.5c-2.5-2.7-6.5-4.3-9.9-5.4c-7.2-2.4-15.3-2.5-22.8-1.7C12.8,1.1,5.8,2.8,1.3,7.5C0.4,8.5,0,9.9,0,11.4
		c0,1.5,0.4,3,1.2,4l2.9,3.4C4.3,19,4.6,19.1,4.8,19l5.4-2.5c0.2-0.1,0.4-0.4,0.4-0.7c0,0-0.3-5.9-0.3-5.9c0-0.1,0.1-0.2,0.2-0.3
		c2.8-1.6,9.9-2.2,13.7-2.4c1.2-0.1,3.4-0.1,4.4,0c3.7,0.2,11.2,0.7,14,2.4c0.1,0,0.2,0.2,0.2,0.3c0,0,0,0,0,0.1l-0.3,5.9
		c0,0.3,0.1,0.5,0.4,0.7l5.4,2.5c0.1,0,0.2,0.1,0.2,0.1c0.2,0,0.3-0.1,0.5-0.2l2.9-3.3c0.8-1.1,1.2-2.5,1.3-4c0,0,0-0.1,0-0.1
		C53.1,9.9,52.7,8.5,51.8,7.5z"/>
	<path d="M39.5,13.5c0-1.4-0.8-2.4-2.2-2.4H26.5h0H15.7c-1.4,0-2.2,1-2.2,2.4c0,5.8-3.4,6.1-3.9,12.2C9.6,27,9.1,34.6,9,36.5
		c0,2.3,0.9,3.4,2.8,3.4h14.7h0h14.7c1.9,0,2.8-1.1,2.8-3.4c0-1.9-0.5-9.6-0.6-10.8C43,19.5,39.5,19.3,39.5,13.5z M26.5,34.7
		c-5-0.1-9-4.1-9-9.1c0-5,4-9.1,9-9.1c5,0.1,9,4.1,9,9.1C35.5,30.5,31.5,34.6,26.5,34.7z"/>
</g>
<g>
</g>
<g>
</g>
<g>
</g>
<g>
</g>
<g>
</g>
<g>
</g>
<g>
</g>
<g>
</g>
<g>
</g>
<g>
</g>
<g>
</g>
<g>
</g>
<g>
</g>
<g>
</g>
<g>
</g>
</svg>
