<?xml version="1.0" encoding="utf-8"?>
<!-- Generator: Adobe Illustrator 18.1.1, SVG Export Plug-In . SVG Version: 6.00 Build 0)  -->
<svg version="1.1" id="Layer_1" xmlns="http://www.w3.org/2000/svg" xmlns:xlink="http://www.w3.org/1999/xlink" x="0px" y="0px"
	 viewBox="0 0 39.2 39.2" enable-background="new 0 0 39.2 39.2" xml:space="preserve">
<g>
	<path d="M33.9,0.6c-1.5-0.9-3.6-0.7-4.9,0.6c-0.2,0.2-0.3,0.4-0.5,0.6l-3.9,7c-0.7,1.2-0.7,2.6-0.1,3.8c0.2,0.4,0.4,0.7,0.7,1
		c0.2,0.2,0.3,0.3,0.5,0.4l1.7,1.2c-0.1,0.1-0.2,0.2-0.3,0.4c-0.5,0.7-1.2,1.6-2.2,2.7c-0.9,1-1.9,2.1-3.2,3.4
		c-1.3,1.3-2.4,2.4-3.4,3.2c-1.1,1-2,1.7-2.7,2.2c-0.1,0.1-0.2,0.2-0.4,0.3L14,25.7c-0.1-0.2-0.3-0.4-0.4-0.5
		c-0.3-0.3-0.7-0.6-1-0.7c-1.2-0.6-2.6-0.5-3.8,0.1l-7,3.9c-0.2,0.1-0.4,0.3-0.6,0.5c-1.3,1.3-1.5,3.4-0.6,4.9
		c0.3,0.4,1.1,1.5,1.7,2.1c1.9,2,5.3,3.9,9.6,3c5.6-1.1,11.4-4.9,16.8-10.3c0,0,0,0,0,0c0,0,0,0,0,0s0,0,0,0
		c5.4-5.4,9.2-11.2,10.3-16.8c0.9-4.3-1-7.7-3-9.6C35.4,1.7,34.3,0.9,33.9,0.6z M34.5,6.9c0.6,1.1,0.9,2.4,0.6,4.2
		c-0.8,4.4-4.2,9.8-9.2,14.8c-5,5-10.4,8.3-14.8,9.2c-1.8,0.3-3.1,0-4.2-0.6c-0.7-0.4-1.2-0.8-1.8-1.3c-0.5-0.5-0.8-0.9-1.1-1.4
		l6.7-3.8l1.2,1.7c0,0,0,0,0,0l0,0c0.1,0.2,0.3,0.4,0.4,0.5c0.3,0.3,0.7,0.6,1.1,0.7c1.2,0.6,2.7,0.6,3.9-0.2c0.1,0,0.1-0.1,0.2-0.1
		c1.5-1.1,3.8-2.9,7-6.1c0,0,0,0,0,0s0,0,0,0c3.2-3.2,5.1-5.5,6.1-7c0-0.1,0.1-0.1,0.1-0.2c0.7-1.2,0.8-2.7,0.2-3.9
		c-0.2-0.4-0.4-0.7-0.7-1.1c-0.2-0.2-0.3-0.3-0.5-0.4l0,0c0,0,0,0,0,0L28,10.8L31.8,4c0.4,0.3,0.9,0.7,1.4,1.1
		C33.7,5.7,34.2,6.3,34.5,6.9z"/>
</g>
<g>
</g>
<g>
</g>
<g>
</g>
<g>
</g>
<g>
</g>
<g>
</g>
<g>
</g>
<g>
</g>
<g>
</g>
<g>
</g>
<g>
</g>
<g>
</g>
<g>
</g>
<g>
</g>
<g>
</g>
</svg>
