<?xml version="1.0" encoding="utf-8"?>
<!-- Generator: Adobe Illustrator 18.1.1, SVG Export Plug-In . SVG Version: 6.00 Build 0)  -->
<svg version="1.1" id="Layer_1" xmlns="http://www.w3.org/2000/svg" xmlns:xlink="http://www.w3.org/1999/xlink" x="0px" y="0px"
	 viewBox="0 0 47.8 41.2" enable-background="new 0 0 47.8 41.2" xml:space="preserve">
<g>
	<path d="M30.3,23.8L30.3,23.8C30.3,23.8,30.3,23.8,30.3,23.8C30.3,23.8,30.3,23.8,30.3,23.8L30.3,23.8c-2.8,0-5,2.2-5,5
		c0,1.3,0.5,2.6,1.5,3.5c0.9,0.9,2.2,1.5,3.5,1.5v0c0,0,0,0,0,0s0,0,0,0v0c1.3,0,2.6-0.5,3.5-1.5c0.9-0.9,1.5-2.2,1.5-3.5
		C35.3,26,33.1,23.8,30.3,23.8z M45.5,16.8l-5,0l-1.3-2.4c-0.7-1.2-1.4-1.8-2.9-1.9c-0.2,0-11.7,0-11.9,0c-1.5,0.1-2.2,0.7-2.9,1.9
		l-1.4,2.4l-5,0c-1.3,0-2.3,1-2.3,2.3v19.8c0,1.3,1,2.3,2.3,2.3h30.4c1.3,0,2.3-1,2.3-2.3V19.1C47.8,17.9,46.7,16.8,45.5,16.8z
		 M36.7,35.2c-1.7,1.7-4,2.6-6.4,2.6c-2.4,0-4.7-0.9-6.4-2.6c-1.7-1.7-2.6-4-2.6-6.4c0-5,4-9,9-9c5,0,9,4,9,9
		C39.3,31.2,38.4,33.5,36.7,35.2z M3.2,3.2h30.3v6.3h0c0.8,0,1.3,0,1.4,0c0.6,0,1.2,0.1,1.7,0.3V4.1c0-0.1,0-0.2,0-0.3
		c0-0.1,0-0.2-0.1-0.4c0-0.1,0-0.2-0.1-0.3c0,0,0,0,0-0.1c-0.1-0.2-0.1-0.4-0.2-0.6c0-0.1-0.1-0.2-0.1-0.2C36,2.1,36,2,35.9,1.9
		c-0.6-0.9-1.6-1.6-2.8-1.8c-0.2,0-0.4,0-0.6,0H4.1C1.9,0,0,1.9,0,4.1v22.3c0,0.1,0,0.2,0,0.3c0,0.1,0,0.2,0.1,0.4
		c0,0.1,0,0.2,0.1,0.3c0,0,0,0.1,0,0.1c0.1,0.2,0.1,0.4,0.2,0.6c0,0.1,0.1,0.2,0.2,0.3c0.1,0.1,0.1,0.2,0.2,0.3
		c0.6,1,1.6,1.6,2.8,1.8c0.1,0,2.7,0,6.3,0v-3.2H3.2V3.2z"/>
</g>
<g>
</g>
<g>
</g>
<g>
</g>
<g>
</g>
<g>
</g>
<g>
</g>
<g>
</g>
<g>
</g>
<g>
</g>
<g>
</g>
<g>
</g>
<g>
</g>
<g>
</g>
<g>
</g>
<g>
</g>
</svg>
