<?xml version="1.0" encoding="utf-8"?>
<!-- Generator: Adobe Illustrator 18.1.1, SVG Export Plug-In . SVG Version: 6.00 Build 0)  -->
<svg version="1.1" id="Layer_1" xmlns="http://www.w3.org/2000/svg" xmlns:xlink="http://www.w3.org/1999/xlink" x="0px" y="0px"
	 viewBox="0 0 40.2 37.7" enable-background="new 0 0 40.2 37.7" xml:space="preserve">
<g>
	<path d="M2.8,2.8h31.9v16.5h2.8V2c0-1.1-0.9-2-2-2H2C0.9,0,0,0.9,0,2v29.2c0,1.1,0.9,2,2,2h10.3v-7.1H2.8V2.8z"/>
	<path d="M27.3,25.8L27.3,25.8C27.3,25.8,27.2,25.8,27.3,25.8c-1.9,0-3.4,1.5-3.4,3.4c0,0.9,0.4,1.8,1,2.4c0.6,0.6,1.5,1,2.4,1v0
		c0,0,0,0,0,0l0,0v0c0.9,0,1.7-0.3,2.4-1c0.6-0.6,1-1.5,1-2.4C30.6,27.4,29.1,25.9,27.3,25.8z"/>
	<path d="M38.6,21.4l-5.3,0l-0.9-1.6c-0.5-0.8-1-1.3-1.9-1.3c-0.1,0-1.2,0-3.2,0c-2,0-3.2,0-3.2,0c-1,0-1.5,0.5-1.9,1.3l-0.9,1.6
		l-5.3,0c-0.9,0-1.6,1-1.6,1.9v12.9c0,0.9,0.7,1.6,1.6,1.6h22.7c0.9,0,1.6-0.7,1.6-1.6V22.9C40.2,22.1,39.5,21.4,38.6,21.4z
		 M31.6,33.6c-1.2,1.2-2.7,1.8-4.3,1.8c-1.6,0-3.2-0.6-4.3-1.8c-1.2-1.2-1.8-2.7-1.8-4.3c0-3.4,2.7-6.1,6.1-6.1
		c3.4,0,6.1,2.7,6.1,6.1C33.4,30.9,32.7,32.4,31.6,33.6z"/>
</g>
<g>
</g>
<g>
</g>
<g>
</g>
<g>
</g>
<g>
</g>
<g>
</g>
<g>
</g>
<g>
</g>
<g>
</g>
<g>
</g>
<g>
</g>
<g>
</g>
<g>
</g>
<g>
</g>
<g>
</g>
</svg>
