<?xml version="1.0" encoding="utf-8"?>
<!-- Generator: Adobe Illustrator 18.1.1, SVG Export Plug-In . SVG Version: 6.00 Build 0)  -->
<svg version="1.1" id="Layer_1" xmlns="http://www.w3.org/2000/svg" xmlns:xlink="http://www.w3.org/1999/xlink" x="0px" y="0px"
	 viewBox="0 0 47.6 35" enable-background="new 0 0 47.6 35" xml:space="preserve">
<g>
	<path d="M43,2.4H17l-1-1.2l0,0l0,0C15.4,0.5,14.3,0,13.5,0H8.4c-0.8,0-2,0.5-2.5,1.2l0,0l-1,1.2H4.6C2,2.4,0,4.5,0,7v23.4
		C0,32.9,2,35,4.6,35H43c2.5,0,4.6-2,4.6-4.6V7C47.6,4.5,45.5,2.4,43,2.4z M14.2,10.8c-0.5,0.5-1.1,0.8-1.9,0.8H9.6
		c-0.7,0-1.4-0.3-1.9-0.8c-0.4-0.4-0.6-0.9-0.6-1.5c0-0.6,0.2-1.1,0.6-1.5C8.2,7.3,8.9,7,9.6,7h2.7c0.7,0,1.4,0.3,1.9,0.8
		c0.4,0.4,0.6,0.9,0.6,1.5C14.8,9.9,14.6,10.4,14.2,10.8z M37.6,25.7c-1.9,1.9-4.4,2.9-7,2.9c-2.6,0-5.1-1-7-2.9
		c-1.9-1.9-2.9-4.4-2.9-7c0-5.5,4.4-9.9,9.9-9.9c5.5,0,9.9,4.4,9.9,9.9C40.5,21.3,39.5,23.8,37.6,25.7z M30.6,12.6
		c-3.4,0-6.1,2.8-6.1,6.1c0,1.6,0.6,3.2,1.8,4.3c1.2,1.2,2.7,1.8,4.3,1.8c1.6,0,3.2-0.6,4.3-1.8c1.2-1.2,1.8-2.7,1.8-4.3
		C36.8,15.3,34,12.6,30.6,12.6z"/>
</g>
<g>
</g>
<g>
</g>
<g>
</g>
<g>
</g>
<g>
</g>
<g>
</g>
<g>
</g>
<g>
</g>
<g>
</g>
<g>
</g>
<g>
</g>
<g>
</g>
<g>
</g>
<g>
</g>
<g>
</g>
</svg>
