<?xml version="1.0" encoding="utf-8"?>
<!-- Generator: Adobe Illustrator 18.1.1, SVG Export Plug-In . SVG Version: 6.00 Build 0)  -->
<svg version="1.1" id="Layer_1" xmlns="http://www.w3.org/2000/svg" xmlns:xlink="http://www.w3.org/1999/xlink" x="0px" y="0px"
	 viewBox="0 0 47.6 37.4" enable-background="new 0 0 47.6 37.4" xml:space="preserve">
<g>
	<path d="M23.8,14.7c-3.9,0-7,3.2-7,7c0,1.9,0.7,3.6,2.1,5c1.3,1.3,3.1,2.1,5,2.1c1.9,0,3.6-0.7,5-2.1c1.3-1.3,2.1-3.1,2.1-5
		C30.8,17.8,27.7,14.7,23.8,14.7z M43,6.7h-8.4l-2.3-4C31.5,1.2,29.5,0,27.8,0h-8c-1.7,0-3.7,1.2-4.5,2.6l0,0l-2.3,4H4.6
		C2,6.7,0,8.7,0,11.2v21.6c0,2.5,2,4.6,4.6,4.6H43c2.5,0,4.6-2,4.6-4.6V11.2C47.6,8.7,45.5,6.7,43,6.7z M31.8,29.7
		c-2.1,2.1-5,3.3-8,3.3c-3,0-5.9-1.2-8-3.3c-2.1-2.1-3.3-5-3.3-8c0-6.3,5.1-11.3,11.4-11.3c6.3,0,11.3,5.1,11.3,11.3
		C35.1,24.7,34,27.6,31.8,29.7z"/>
</g>
<g>
</g>
<g>
</g>
<g>
</g>
<g>
</g>
<g>
</g>
<g>
</g>
<g>
</g>
<g>
</g>
<g>
</g>
<g>
</g>
<g>
</g>
<g>
</g>
<g>
</g>
<g>
</g>
<g>
</g>
</svg>
