<?xml version="1.0" encoding="utf-8"?>
<!-- Generator: Adobe Illustrator 18.1.1, SVG Export Plug-In . SVG Version: 6.00 Build 0)  -->
<svg version="1.1" id="Layer_1" xmlns="http://www.w3.org/2000/svg" xmlns:xlink="http://www.w3.org/1999/xlink" x="0px" y="0px"
	 viewBox="0 0 50 47.3" enable-background="new 0 0 50 47.3" xml:space="preserve">
<g>
	<path d="M20.1,24.5l-1.4-1.8c0,0,3.1-3.6,3.1-3.6l1.9-1.6l1-0.8c-0.8-2.4-3.1-4.1-5.7-4.1c-3.3,0-6.1,2.7-6.1,6.1
		c0,1.6,0.6,3.1,1.8,4.3c1.1,1.1,2.7,1.8,4.3,1.8C19.4,24.7,19.8,24.7,20.1,24.5C20.1,24.6,20.1,24.5,20.1,24.5z M9.2,18.7
		c0-5.4,4.4-9.8,9.8-9.8c5.3,0,9.5,4.2,9.8,9.4c0.3-0.1,0.3-0.1,0.7-0.3c0.2-0.8,0.7-3.8,0.7-3.8l2.1-0.3c1.6-0.2,3.3-0.2,5,0
		l0.7,0.1V9.7c0-2.2-1.8-3.9-3.9-3.9h-5.7l-2-3.5C25.6,1,23.9,0,22.4,0h-6.9c-1.4,0-3.2,1-3.9,2.3l-2,3.5H3.9C1.8,5.8,0,7.5,0,9.7
		v18.6c0,2.2,1.8,3.9,3.9,3.9h12.6c0,0,0-0.1,0-0.1c0-0.8,0.1-1.7,0.2-2.5l0.2-1.4c-1.8-0.4-3.4-1.3-4.8-2.6
		C10.2,23.7,9.2,21.3,9.2,18.7z M49.8,34.1c0.2-1.4,0.2-2.8,0-4.1c-1-0.2-3.2-0.6-3.2-0.6L45,25.6c0,0,1.3-1.9,1.8-2.7
		c-0.4-0.5-0.9-1.1-1.4-1.6c-0.5-0.5-1-0.9-1.6-1.4c-0.8,0.6-2.7,1.8-2.7,1.8l-3.8-1.6c0,0-0.4-2.3-0.6-3.2c-1.4-0.2-2.8-0.2-4.1,0
		c-0.2,1-0.6,3.2-0.6,3.2l-3.8,1.6c0,0-1.9-1.3-2.7-1.8c-0.5,0.4-1.1,0.9-1.6,1.4c-0.5,0.5-0.9,1-1.4,1.6c0.6,0.8,1.8,2.7,1.8,2.7
		l-1.6,3.8c0,0-2.3,0.4-3.2,0.6c-0.2,1.4-0.2,2.8,0,4.1c1,0.2,3.2,0.6,3.2,0.6l1.6,3.8c0,0-1.3,1.9-1.8,2.7c0.4,0.5,0.9,1.1,1.4,1.6
		c0.5,0.5,1,0.9,1.6,1.4c0.8-0.6,2.7-1.8,2.7-1.8l3.8,1.6c0,0,0.4,2.3,0.6,3.2c1.4,0.2,2.8,0.2,4.1,0c0.2-1,0.6-3.2,0.6-3.2l3.8-1.6
		c0,0,1.9,1.3,2.7,1.8c0.5-0.4,1.1-0.9,1.6-1.4c0.5-0.5,0.9-1,1.4-1.6c-0.6-0.8-1.8-2.7-1.8-2.7l1.6-3.8
		C46.6,34.8,48.9,34.3,49.8,34.1z M39.3,36.6c-2.5,2.5-6.6,2.5-9.1,0c-2.5-2.5-2.5-6.6,0-9.1c2.5-2.5,6.6-2.5,9.1,0
		C41.8,30,41.8,34.1,39.3,36.6z"/>
</g>
<g>
</g>
<g>
</g>
<g>
</g>
<g>
</g>
<g>
</g>
<g>
</g>
<g>
</g>
<g>
</g>
<g>
</g>
<g>
</g>
<g>
</g>
<g>
</g>
<g>
</g>
<g>
</g>
<g>
</g>
</svg>
