<?xml version="1.0" encoding="utf-8"?>
<!-- Generator: Adobe Illustrator 18.1.1, SVG Export Plug-In . SVG Version: 6.00 Build 0)  -->
<svg version="1.1" id="Layer_1" xmlns="http://www.w3.org/2000/svg" xmlns:xlink="http://www.w3.org/1999/xlink" x="0px" y="0px"
	 viewBox="0 0 41.9 32" enable-background="new 0 0 41.9 32" xml:space="preserve">
<g>
	<path d="M41.9,8c0,0,0-0.1,0-0.1c-0.3-1.4-1.2-2.5-2.5-3c0,0-0.1,0-0.1,0c-0.4-0.1-0.8-0.2-1.3-0.2h-6.7l-3.5-3.5l0,0
		C27.1,0.4,26.1,0,25,0h-8c-1.1,0-2.1,0.4-2.8,1.2l0,0l-3.5,3.5H4c-0.4,0-0.9,0.1-1.3,0.2c0,0-0.1,0-0.1,0c-1.3,0.5-2.3,1.6-2.5,3
		c0,0,0,0.1,0,0.1C0,8.2,0,8.4,0,8.6V28c0,2.2,1.8,4,4,4h33.9c2.2,0,4-1.8,4-4V8.6C41.9,8.4,41.9,8.2,41.9,8z M37.9,28H4V8.6h8.3
		L17,4h8l4.6,4.6h8.3V28z"/>
	<path d="M21,9.2c-4.6,0-8.2,3.7-8.2,8.3c0,4.6,3.7,8.2,8.2,8.2c4.6,0,8.2-3.7,8.3-8.2C29.2,12.9,25.5,9.2,21,9.2z M21,21.7
		c-2.3,0-4.2-1.9-4.2-4.2c0-2.3,1.9-4.2,4.2-4.2c2.3,0,4.2,1.9,4.2,4.2C25.2,19.8,23.3,21.7,21,21.7z"/>
</g>
<g>
</g>
<g>
</g>
<g>
</g>
<g>
</g>
<g>
</g>
<g>
</g>
<g>
</g>
<g>
</g>
<g>
</g>
<g>
</g>
<g>
</g>
<g>
</g>
<g>
</g>
<g>
</g>
<g>
</g>
</svg>
