<?xml version="1.0" encoding="utf-8"?>
<!-- Generator: Adobe Illustrator 18.1.1, SVG Export Plug-In . SVG Version: 6.00 Build 0)  -->
<svg version="1.1" id="Layer_1" xmlns="http://www.w3.org/2000/svg" xmlns:xlink="http://www.w3.org/1999/xlink" x="0px" y="0px"
	 viewBox="0 0 56.4 37.9" enable-background="new 0 0 56.4 37.9" xml:space="preserve">
<g>
	<path d="M46.8,12v4.7c0.8,0.3,1.6,0.6,2.3,1c2.8,1.5,4.5,3.7,4.4,5.5c0,1.8-1.5,3.8-4.3,5.3c-2.8,1.5-6.9,2.6-11.3,2.8l-0.7,0v2.2
		H38c9.9-0.1,18.2-4.4,18.4-11.1C56.3,17.9,52.4,14.1,46.8,12z M12.3,29.4c-1.9-0.3-3.6-0.8-4.9-1.6c-2.8-1.5-4.5-3.7-4.4-5.5
		c0-1.8,1.5-3.8,4.3-5.4c0.7-0.4,1.5-0.8,2.4-1.1v-2.5C4,15.1,0.1,18.5,0,23c0.2,5.2,5.3,9.5,12.3,11.2v3.7L25.4,32l-13.1-5.9V29.4z
		 M14.2,23.8h28.1c1.1,0,1.9-0.9,1.9-1.9V5.5c0-1.1-0.9-1.9-1.9-1.9l-5.5,0l-1.1-2c-0.6-1-1.2-1.5-2.4-1.6c-0.1,0-2.5,0-5,0
		s-4.9,0-5,0c-1.2,0.1-1.8,0.6-2.4,1.6l-1.1,2l-5.5,0c-1.1,0-1.9,1.3-1.9,2.3v15.9C12.2,22.9,13.1,23.8,14.2,23.8z M28.2,5.7
		c4.2,0,7.6,3.4,7.6,7.6c0,2-0.8,3.9-2.2,5.4c-1.4,1.4-3.3,2.2-5.3,2.2c-2,0-3.9-0.8-5.3-2.2c-1.4-1.4-2.2-3.3-2.2-5.4
		C20.6,9.1,24,5.8,28.2,5.7z M28.2,17.5L28.2,17.5C28.2,17.5,28.2,17.5,28.2,17.5C28.2,17.5,28.2,17.5,28.2,17.5L28.2,17.5
		c1.1,0,2.2-0.4,3-1.2c0.8-0.8,1.2-1.9,1.2-3c0-2.3-1.9-4.2-4.2-4.2l0,0c0,0,0,0,0,0c0,0,0,0,0,0l0,0c-2.3,0-4.2,1.9-4.2,4.2
		c0,1.1,0.4,2.2,1.2,3C26,17.1,27.1,17.5,28.2,17.5z"/>
</g>
<g>
</g>
<g>
</g>
<g>
</g>
<g>
</g>
<g>
</g>
<g>
</g>
<g>
</g>
<g>
</g>
<g>
</g>
<g>
</g>
<g>
</g>
<g>
</g>
<g>
</g>
<g>
</g>
<g>
</g>
</svg>
