<?xml version="1.0" encoding="utf-8"?>
<!-- Generator: Adobe Illustrator 18.1.1, SVG Export Plug-In . SVG Version: 6.00 Build 0)  -->
<svg version="1.1" id="Layer_1" xmlns="http://www.w3.org/2000/svg" xmlns:xlink="http://www.w3.org/1999/xlink" x="0px" y="0px"
	 viewBox="0 0 46.4 36.3" enable-background="new 0 0 46.4 36.3" xml:space="preserve">
<g>
	<path d="M38.8,6.2h-5.3l-1.1-2.1C31.5,2.4,29.9,0,26.1,0h-5.8c-3.8,0-5.4,2.4-6.2,4.2L13,6.2H7.7C3.4,6.2,0,9.7,0,13.9v14.8
		c0,2,0.8,4,2.2,5.4c1.4,1.4,3.4,2.2,5.4,2.2h31.1c2,0,4-0.8,5.4-2.2c1.4-1.4,2.2-3.4,2.2-5.4V13.9C46.4,9.7,43,6.2,38.8,6.2z
		 M42,28.7c0,0.9-0.3,1.7-0.9,2.3c-0.6,0.6-1.4,0.9-2.3,0.9H7.7c-0.9,0-1.7-0.3-2.3-0.9c-0.6-0.6-1-1.4-1-2.3V13.9
		c0-1.8,1.5-3.2,3.2-3.2h6.6c0.8,0,1.6-0.4,2-1.2L18,6.2L18,6.1c0.6-1.3,1.1-1.7,2.2-1.7h5.8c1.2,0,1.6,0.3,2.2,1.7l0.1,0.1l1.8,3.3
		c0.4,0.7,1.1,1.2,2,1.2h6.6c1.8,0,3.2,1.5,3.2,3.2V28.7z M37.7,13.1h-0.5c-1,0-1.8,0.8-1.8,1.8v0.5c0,0.5,0.2,0.9,0.5,1.3
		c0.3,0.3,0.8,0.5,1.3,0.5l0.5,0c0.5,0,0.9-0.2,1.3-0.5c0.3-0.3,0.5-0.8,0.5-1.3v-0.5C39.5,13.9,38.7,13.1,37.7,13.1z M23.7,12.3
		h-0.9c-4.1,0-7.5,3.4-7.5,7.5v0.9c0,2,0.8,3.9,2.2,5.3c1.4,1.4,3.3,2.2,5.3,2.2h0.9c2,0,3.9-0.8,5.3-2.2c1.4-1.4,2.2-3.3,2.2-5.3
		v-0.9c0-2-0.8-3.9-2.2-5.3C27.5,13.1,25.7,12.3,23.7,12.3z M26.7,20.7c0,0.8-0.3,1.6-0.9,2.2c-0.6,0.6-1.3,0.9-2.2,0.9h-0.9
		c-0.8,0-1.6-0.3-2.2-0.9c-0.6-0.6-0.9-1.3-0.9-2.2v-0.9c0-1.7,1.4-3,3-3h0.9c0.8,0,1.6,0.3,2.2,0.9s0.9,1.3,0.9,2.1V20.7z"/>
</g>
<g>
</g>
<g>
</g>
<g>
</g>
<g>
</g>
<g>
</g>
<g>
</g>
<g>
</g>
<g>
</g>
<g>
</g>
<g>
</g>
<g>
</g>
<g>
</g>
<g>
</g>
<g>
</g>
<g>
</g>
</svg>
