<?xml version="1.0" encoding="utf-8"?>
<!-- Generator: Adobe Illustrator 18.1.1, SVG Export Plug-In . SVG Version: 6.00 Build 0)  -->
<svg version="1.1" id="Layer_1" xmlns="http://www.w3.org/2000/svg" xmlns:xlink="http://www.w3.org/1999/xlink" x="0px" y="0px"
	 viewBox="0 0 45.7 34" enable-background="new 0 0 45.7 34" xml:space="preserve">
<g>
	<path d="M22.9,13L22.9,13C22.9,13,22.9,13,22.9,13C22.8,13,22.8,13,22.9,13L22.9,13c-3.3,0-6,2.7-6,6c0,1.6,0.6,3.1,1.8,4.2
		c1.1,1.1,2.6,1.7,4.2,1.8l0,0c0,0,0,0,0,0c0,0,0,0,0,0l0,0c1.6,0,3.1-0.6,4.2-1.8c1.1-1.1,1.8-2.6,1.8-4.2
		C28.9,15.8,26.2,13.1,22.9,13z M45.7,7.9c0-1.5-1.2-2.8-2.8-2.8l-7.9,0l-1.6-2.9C32.6,0.8,31.7,0.1,30,0c-0.2,0-14.1,0-14.3,0
		c-1.7,0.1-2.6,0.8-3.4,2.3l-1.6,2.9l-7.9,0C1.2,5.2,0,7,0,8.5v22.8C0,32.8,1.2,34,2.8,34h40.2c1.5,0,2.8-1.2,2.8-2.7V7.9z
		 M30.5,26.7c-2,2-4.8,3.2-7.7,3.2c-2.9,0-5.6-1.1-7.7-3.2c-2-2-3.2-4.8-3.2-7.7c0-6,4.9-10.8,10.8-10.8c6,0,10.8,4.9,10.8,10.8
		C33.7,21.9,32.6,24.7,30.5,26.7z"/>
</g>
<g>
</g>
<g>
</g>
<g>
</g>
<g>
</g>
<g>
</g>
<g>
</g>
<g>
</g>
<g>
</g>
<g>
</g>
<g>
</g>
<g>
</g>
<g>
</g>
<g>
</g>
<g>
</g>
<g>
</g>
</svg>
