<?xml version="1.0" encoding="utf-8"?>
<!-- Generator: Adobe Illustrator 18.1.1, SVG Export Plug-In . SVG Version: 6.00 Build 0)  -->
<svg version="1.1" id="Layer_1" xmlns="http://www.w3.org/2000/svg" xmlns:xlink="http://www.w3.org/1999/xlink" x="0px" y="0px"
	 viewBox="0 0 43.9 48.6" enable-background="new 0 0 43.9 48.6" xml:space="preserve">
<g>
	<path d="M41.3,5h-9.5l-1.5-2.7C29.5,0.8,28.6,0.1,27,0c-0.2,0-9.7,0-9.9,0c-1.7,0.1-2.5,0.8-3.3,2.2L12.2,5H2.6C1.2,5,0,6.7,0,8.2
		v20.9c0,1.5,1.2,2.6,2.6,2.6h38.6c1.5,0,2.6-1.2,2.6-2.6V7.6C43.9,6.2,42.7,5,41.3,5z M29.4,24.7c-2,2-4.7,3.1-7.5,3.1
		c-2.8,0-5.5-1.1-7.5-3.1c-2-2-3.1-4.7-3.1-7.5c0-5.8,4.7-10.6,10.6-10.6c5.8,0,10.6,4.8,10.6,10.6C32.5,20,31.4,22.7,29.4,24.7z
		 M22,10.7C22,10.7,22,10.7,22,10.7C22,10.7,22,10.7,22,10.7c-3.6,0-6.5,2.9-6.5,6.4c0,1.7,0.7,3.3,1.9,4.6c1.2,1.2,2.8,1.9,4.5,1.9
		v0c0,0,0,0,0,0c0,0,0,0,0,0v0c1.7,0,3.3-0.7,4.5-1.9c1.2-1.2,1.9-2.8,1.9-4.6C28.4,13.6,25.5,10.7,22,10.7z"/>
	<polygon points="15.8,35 8.6,48.6 13.5,48.6 19.8,35.9 19.8,48.6 24.1,48.6 24.1,35.9 30.4,48.6 35.3,48.6 28.1,35 	"/>
</g>
<g>
</g>
<g>
</g>
<g>
</g>
<g>
</g>
<g>
</g>
<g>
</g>
<g>
</g>
<g>
</g>
<g>
</g>
<g>
</g>
<g>
</g>
<g>
</g>
<g>
</g>
<g>
</g>
<g>
</g>
</svg>
