<?xml version="1.0" encoding="utf-8"?>
<!-- Generator: Adobe Illustrator 18.1.1, SVG Export Plug-In . SVG Version: 6.00 Build 0)  -->
<svg version="1.1" id="Layer_1" xmlns="http://www.w3.org/2000/svg" xmlns:xlink="http://www.w3.org/1999/xlink" x="0px" y="0px"
	 viewBox="0 0 614.3 667.2" enable-background="new 0 0 614.3 667.2" xml:space="preserve">
<g>
	<path d="M64.4,151.8c9.2,13.8,25.3,20.7,41.4,20.7c18.4,0,32.2-9.2,41.4-20.7c2.3-2.3,2.3-4.6,4.6-6.9c4.6-6.9,6.9-16.1,6.9-25.3
		s-2.3-18.4-6.9-25.3l-46-92l-46,94.3c-4.6,6.9-6.9,16.1-6.9,25.3c0,9.2,2.3,18.4,6.9,25.3L64.4,151.8z"/>
	<path d="M264.6,151.8c9.2,13.8,25.3,20.7,41.4,20.7c18.4,0,32.2-9.2,41.4-20.7c2.3-2.3,2.3-4.6,4.6-6.9c4.6-6.9,6.9-16.1,6.9-25.3
		s-2.3-18.4-6.9-25.3L306,0l-46,94.3c-4.6,9.2-6.9,18.4-6.9,27.6c0,9.2,2.3,18.4,6.9,25.3L264.6,151.8z"/>
	<path d="M462.5,151.8c9.2,13.8,25.3,20.7,41.4,20.7c18.4,0,32.2-9.2,41.4-20.7c2.3-2.3,2.3-4.6,4.6-6.9c4.6-6.9,6.9-16.1,6.9-25.3
		s-2.3-18.4-6.9-25.3l-43.7-92l-46,94.3c-4.6,6.9-6.9,16.1-6.9,25.3s2.3,18.4,6.9,25.3L462.5,151.8z"/>
	<path d="M589,381.9l-4.6-4.6L556.8,352L497,204.8H112.7L52.9,352l0,0l-27.6,25.3l-2.3,4.6l0,0c-11.5,11.5-23,34.5-23,52.9v149.5
		h32.2v34.5c0,20.7,13.8,39.1,32.2,46c0,0,0,0,2.3,0s4.6,2.3,6.9,2.3s6.9,0,9.2,0s6.9,0,9.2,0c2.3,0,4.6,0,4.6-2.3h2.3
		c18.4-6.9,32.2-25.3,32.2-46v-34.5h352v34.5c0,20.7,13.8,39.1,32.2,46c0,0,0,0,2.3,0c2.3,0,4.6,2.3,6.9,2.3c2.3,0,6.9,0,9.2,0
		s6.9,0,9.2,0s4.6,0,4.6-2.3h2.3c18.4-6.9,32.2-25.3,32.2-46v-34.5h32.2V434.8C612,418.7,600.5,393.4,589,381.9z M142.6,250.8h326.7
		l43.7,105.8H98.9L142.6,250.8z M103.5,524.6c-25.3,0-46-20.7-46-46c0-25.3,20.7-46,46-46s46,20.7,46,46
		C151.8,503.9,131.1,524.6,103.5,524.6z M506.2,524.6c-25.3,0-46-20.7-46-46c0-25.3,20.7-46,46-46c25.3,0,46,20.7,46,46
		C554.5,503.9,533.8,524.6,506.2,524.6z"/>
</g>
<g>
</g>
<g>
</g>
<g>
</g>
<g>
</g>
<g>
</g>
<g>
</g>
<g>
</g>
<g>
</g>
<g>
</g>
<g>
</g>
<g>
</g>
<g>
</g>
<g>
</g>
<g>
</g>
<g>
</g>
</svg>
