<?xml version="1.0" encoding="utf-8"?>
<!-- Generator: Adobe Illustrator 18.1.1, SVG Export Plug-In . SVG Version: 6.00 Build 0)  -->
<svg version="1.1" id="Layer_1" xmlns="http://www.w3.org/2000/svg" xmlns:xlink="http://www.w3.org/1999/xlink" x="0px" y="0px"
	 viewBox="0 0 48.7 41" enable-background="new 0 0 48.7 41" xml:space="preserve">
<g>
	<path d="M48,38.6l-45.6,0V0.8C2.3,0.4,2,0,1.5,0H0.8C0.3,0,0,0.4,0,0.8v39c0,0.3,0.1,0.6,0.3,0.8C0.6,40.9,0.8,41,1.2,41L48,41
		c0.4,0,0.8-0.3,0.8-0.8v-0.8C48.7,39,48.4,38.6,48,38.6z"/>
	<path d="M10.7,9.9H7.6C7.4,9.9,7.2,10,7,10.2c-0.1,0.1-0.2,0.3-0.2,0.5v22.7c0,0.2,0.1,0.4,0.2,0.5c0.1,0.1,0.3,0.2,0.5,0.2h3.1
		c0.2,0,0.4-0.1,0.5-0.2c0.1-0.1,0.2-0.3,0.2-0.5V10.7c0-0.2-0.1-0.4-0.2-0.5C11.1,10,10.9,9.9,10.7,9.9z M18.9,1.8h-3.1
		c-0.2,0-0.4,0.1-0.5,0.2c-0.1,0.1-0.2,0.3-0.2,0.5v30.8c0,0.2,0.1,0.4,0.2,0.5c0.1,0.1,0.3,0.2,0.5,0.2h3.1c0.2,0,0.4-0.1,0.5-0.2
		c0.1-0.1,0.2-0.3,0.2-0.5V2.6c0-0.2-0.1-0.4-0.2-0.5C19.3,1.9,19.1,1.8,18.9,1.8z M27.1,17.7h-3.1c-0.2,0-0.4,0.1-0.5,0.2
		c-0.1,0.1-0.2,0.3-0.2,0.5v14.9c0,0.2,0.1,0.4,0.2,0.5c0.1,0.1,0.3,0.2,0.5,0.2h3.1c0.2,0,0.4-0.1,0.5-0.2c0.1-0.1,0.2-0.3,0.2-0.5
		V18.4c0-0.2-0.1-0.4-0.2-0.5C27.5,17.7,27.3,17.7,27.1,17.7z M35.4,11.8h-3.1c-0.2,0-0.4,0.1-0.5,0.2c-0.1,0.1-0.2,0.3-0.2,0.5
		v20.8c0,0.2,0.1,0.4,0.2,0.5c0.1,0.1,0.3,0.2,0.5,0.2h3.1c0.2,0,0.4-0.1,0.5-0.2c0.1-0.1,0.2-0.3,0.2-0.5V12.5
		c0-0.2-0.1-0.4-0.2-0.5C35.8,11.8,35.6,11.8,35.4,11.8z M43.6,23.5h-3.1c-0.2,0-0.4,0.1-0.5,0.2c-0.1,0.1-0.2,0.3-0.2,0.5v9.1
		c0,0.2,0.1,0.4,0.2,0.5c0.1,0.1,0.3,0.2,0.5,0.2h3.1c0.2,0,0.4-0.1,0.5-0.2c0.1-0.1,0.2-0.3,0.2-0.5v-9.1c0-0.2-0.1-0.4-0.2-0.5
		C44,23.5,43.8,23.5,43.6,23.5z"/>
</g>
<g>
</g>
<g>
</g>
<g>
</g>
<g>
</g>
<g>
</g>
<g>
</g>
<g>
</g>
<g>
</g>
<g>
</g>
<g>
</g>
<g>
</g>
<g>
</g>
<g>
</g>
<g>
</g>
<g>
</g>
</svg>
