<?xml version="1.0" encoding="utf-8"?>
<!-- Generator: Adobe Illustrator 18.1.1, SVG Export Plug-In . SVG Version: 6.00 Build 0)  -->
<svg version="1.1" id="Layer_1" xmlns="http://www.w3.org/2000/svg" xmlns:xlink="http://www.w3.org/1999/xlink" x="0px" y="0px"
	 viewBox="0 0 33.7 37.2" enable-background="new 0 0 33.7 37.2" xml:space="preserve">
<g>
	<path d="M30.7,2.8h-5.9V1.5c0-0.4-0.2-0.8-0.4-1.1C24,0.2,23.6,0,23.2,0H10.5c-0.4,0-0.8,0.2-1.1,0.4C9.1,0.7,9,1.1,9,1.5v1.3
		L3,2.8C1.1,2.9,0,4.5,0,6.2v27.6c0,1.7,1.1,3.3,3,3.4l27.6,0c1.9-0.1,3-1.7,3-3.4l0-27.6C33.7,4.5,32.6,2.9,30.7,2.8z M12,3h9.7
		l0,2.3c0,0.2-0.1,0.3-0.1,0.4c0,0,0,0,0,0h-9.5c0,0,0,0,0-0.1C12,5.5,12,5.4,12,5.3V3z M30.7,33.8c0,0.2-0.1,0.3-0.1,0.4
		c0,0,0,0,0,0l-27.5,0c0,0-0.1-0.2-0.1-0.4L3,6.2C3,6,3.1,5.9,3.1,5.8c0,0,0,0,0,0l5.9,0c0.2,1.5,1.3,2.8,3,2.9h9.6
		c1.7-0.1,2.8-1.4,3-2.9h5.9c0,0,0,0,0,0.1c0,0.1,0.1,0.2,0.1,0.3V33.8z M7.1,30.5h2.6V20.3H7.1V30.5z M12.8,30.5h2.6V13.6h-2.6
		V30.5z M18.4,30.5h2.5v-7.8h-2.5V30.5z M24,30.5h2.6V17H24V30.5z"/>
</g>
<g>
</g>
<g>
</g>
<g>
</g>
<g>
</g>
<g>
</g>
<g>
</g>
<g>
</g>
<g>
</g>
<g>
</g>
<g>
</g>
<g>
</g>
<g>
</g>
<g>
</g>
<g>
</g>
<g>
</g>
</svg>
