<?xml version="1.0" encoding="utf-8"?>
<!-- Generator: Adobe Illustrator 18.1.1, SVG Export Plug-In . SVG Version: 6.00 Build 0)  -->
<svg version="1.1" id="Layer_1" xmlns="http://www.w3.org/2000/svg" xmlns:xlink="http://www.w3.org/1999/xlink" x="0px" y="0px"
	 viewBox="0 0 612 519.8" enable-background="new 0 0 612 519.8" xml:space="preserve">
<path d="M597.4,453.9H508v-410c0-7.3-7.3-14.6-14.6-14.6h-36.6c-7.3,0-14.6,7.3-14.6,14.6v410h-80.5V133.2c0-8.8-7.3-14.6-14.6-14.6
	h-36.6c-7.3,0-14.6,5.9-14.6,14.6v320.6h-80.5V222.5c0-7.3-7.3-14.6-14.6-14.6h-39.5c-7.3,0-14.6,7.3-14.6,14.6v231.3H65.9V14.6
	C65.9,7.3,58.6,0,51.2,0H14.6C7.3,0,0,7.3,0,14.6v461.2c0,23.4,19,43.9,43.9,43.9h553.4c7.3,0,14.6-5.9,14.6-14.6v-36.6
	C612,461.2,604.7,453.9,597.4,453.9z"/>
<g>
</g>
<g>
</g>
<g>
</g>
<g>
</g>
<g>
</g>
<g>
</g>
<g>
</g>
<g>
</g>
<g>
</g>
<g>
</g>
<g>
</g>
<g>
</g>
<g>
</g>
<g>
</g>
<g>
</g>
</svg>
