<?xml version="1.0" encoding="utf-8"?>
<!-- Generator: Adobe Illustrator 18.1.1, SVG Export Plug-In . SVG Version: 6.00 Build 0)  -->
<svg version="1.1" id="Layer_1" xmlns="http://www.w3.org/2000/svg" xmlns:xlink="http://www.w3.org/1999/xlink" x="0px" y="0px"
	 viewBox="0 0 39.6 38" enable-background="new 0 0 39.6 38" xml:space="preserve">
<g>
	<path d="M22.8,0C16,0,10.2,4.2,7.9,10.1l-4.5,0c-1.9,0-3.4,1.5-3.4,3.4V20c0,1.9,1.5,3.4,3.4,3.4H9c2.7,4.7,7.7,7.8,13.4,7.8
		c0,0,0.3,0,0.7,0c0.3,0,0.1,2.6-4.1,6.8c0,0,5.4-0.1,10.6-3.7c4.6-3.2,9.5-8.1,10-17.5C40.1,5.9,30.9,0,22.8,0z M25,16.7
		c0,0,0,0-0.1,0.1L13.8,26v-5.6H3.4c-0.3,0-0.5-0.2-0.5-0.5v-6.5c0-0.3,0.2-0.5,0.5-0.5h10.4V7.5l11.2,9.2L25,16.7
		C25.1,16.7,25,16.7,25,16.7z"/>
</g>
<g>
</g>
<g>
</g>
<g>
</g>
<g>
</g>
<g>
</g>
<g>
</g>
<g>
</g>
<g>
</g>
<g>
</g>
<g>
</g>
<g>
</g>
<g>
</g>
<g>
</g>
<g>
</g>
<g>
</g>
</svg>
