<?xml version="1.0" encoding="utf-8"?>
<!-- Generator: Adobe Illustrator 18.1.1, SVG Export Plug-In . SVG Version: 6.00 Build 0)  -->
<svg version="1.1" id="Layer_1" xmlns="http://www.w3.org/2000/svg" xmlns:xlink="http://www.w3.org/1999/xlink" x="0px" y="0px"
	 viewBox="0 0 40.9 38.1" enable-background="new 0 0 40.9 38.1" xml:space="preserve">
<g>
	<path d="M38.5,2L38.5,2c-1.3-1.2-3.1-2-5-2H7.3c-2,0-3.9,0.8-5.2,2.2C0.8,3.5,0,5.3,0,7.3v15.6c0,1.9,0.7,3.6,1.8,4.9
		c1.3,1.5,3.3,2.5,5.5,2.5h8.1l2.7,6.3c0.4,0.9,1.2,1.5,2.3,1.5c0,0,0,0,0,0c1,0,1.9-0.6,2.2-1.5l2.7-6.3l8.1,0c1.9,0,3.7-0.7,5-1.9
		c1.4-1.3,2.4-3.3,2.4-5.4V7.3C40.9,5.2,40,3.3,38.5,2z M37.6,22.9c0,1.2-0.5,2.3-1.3,3c-0.7,0.7-1.7,1.1-2.8,1.1h-9.2
		c-0.7,0-1.2,0.4-1.5,1l-2.4,5.6L18,28c-0.3-0.6-0.8-1-1.5-1H7.3c-1.2,0-2.3-0.5-3.1-1.4c-0.6-0.7-1-1.7-1-2.7V7.3
		c0-1.1,0.5-2.1,1.2-2.9c0.7-0.7,1.8-1.2,2.9-1.2h26.2c1.1,0,2,0.4,2.8,1.1l0,0c0.8,0.8,1.3,1.8,1.3,3V22.9z M8.8,9.8h20.4
		c0.1,0,0.2,0,0.3-0.1c0.1-0.1,0.1-0.2,0.1-0.3V7.9c0-0.1,0-0.2-0.1-0.3c-0.1-0.1-0.2-0.1-0.3-0.1H8.8c-0.1,0-0.2,0-0.3,0.1
		C8.4,7.6,8.4,7.7,8.4,7.9v1.5c0,0.1,0.1,0.2,0.1,0.3C8.6,9.7,8.7,9.8,8.8,9.8z M32,13.5H8.8c-0.1,0-0.2,0.1-0.3,0.1
		c-0.1,0.1-0.1,0.2-0.1,0.3v1.5c0,0.1,0.1,0.2,0.1,0.3c0.1,0.1,0.2,0.1,0.3,0.1H32c0.1,0,0.2-0.1,0.3-0.1c0.1-0.1,0.1-0.2,0.1-0.3
		V14c0-0.1,0-0.2-0.1-0.3C32.3,13.6,32.2,13.5,32,13.5z M24.4,19.6H8.8c-0.1,0-0.2,0.1-0.3,0.1c-0.1,0.1-0.1,0.2-0.1,0.3v1.5
		c0,0.1,0.1,0.2,0.1,0.3C8.6,22,8.7,22,8.8,22h15.6c0.1,0,0.2-0.1,0.3-0.1c0.1-0.1,0.1-0.2,0.1-0.3v-1.5c0-0.1,0-0.2-0.1-0.3
		C24.7,19.7,24.6,19.6,24.4,19.6z"/>
</g>
<g>
</g>
<g>
</g>
<g>
</g>
<g>
</g>
<g>
</g>
<g>
</g>
<g>
</g>
<g>
</g>
<g>
</g>
<g>
</g>
<g>
</g>
<g>
</g>
<g>
</g>
<g>
</g>
<g>
</g>
</svg>
