<?xml version="1.0" encoding="utf-8"?>
<!-- Generator: Adobe Illustrator 18.1.1, SVG Export Plug-In . SVG Version: 6.00 Build 0)  -->
<svg version="1.1" id="Layer_1" xmlns="http://www.w3.org/2000/svg" xmlns:xlink="http://www.w3.org/1999/xlink" x="0px" y="0px"
	 viewBox="0 0 45.2 43.6" enable-background="new 0 0 45.2 43.6" xml:space="preserve">
<g>
	<g>
		<path d="M32.8,38.2c6.8,0,12.4-5.6,12.4-12.5c0-6.7-5.4-12.1-12.1-12.4c0,0.4,0.1,0.8,0.1,1.1c0,0.3,0,0.7,0,1
			c-0.3,6.4-2.8,11-5.7,14.4c1.2,1,2.7,1.6,4.4,1.6c2.2,0,4.2-1.1,5.4-2.8c0.1-0.1,0.4-0.4,1-0.5c0.2,0,0.5,0.1,0.7,0.2
			c0.3,0.2,0.5,0.6,0.4,0.9c0,0.4-0.1,0.6-0.2,0.7c-1.7,2.5-4.5,3.9-7.5,3.9c-2.3,0-4.4-0.9-6.1-2.3c-1,0.9-2.1,1.8-3.1,2.4
			c-0.4,0.3-0.8,0.5-1.2,0.8c1.5,2.6,3.6,4.5,5.7,5.9c4.2,2.9,8.5,2.9,8.5,2.9c-3.3-3.3-3.5-5.5-3.2-5.4
			C32.5,38.2,32.8,38.2,32.8,38.2z"/>
	</g>
	<g>
		<path d="M14.4,0C6.4,0,0,6.3,0,14.1c0,7.8,6.3,14.1,14,14.1c0,0,0.3,0,0.6,0c0.3,0,0.1,2.4-3.7,6.2c0,0,4.9,0,9.6-3.3
			c4.1-2.9,8.6-7.4,9-15.8C30.1,5.4,21.8,0,14.4,0z M23.7,19c-1.9,2.8-5.1,4.4-8.5,4.4c-3.4,0-6.5-1.6-8.5-4.5c0,0-0.2-0.3-0.2-0.7
			c0-0.3,0.1-0.8,0.5-1c0.3-0.2,0.6-0.3,0.8-0.3c0.7,0,1.1,0.4,1.2,0.5c1.4,2,3.7,3.2,6.2,3.2c2.5,0,4.8-1.2,6.2-3.2l0,0
			c0,0,0.4-0.5,1.1-0.5c0.3,0,0.6,0.1,0.9,0.3c0.4,0.3,0.6,0.7,0.6,1C23.9,18.6,23.7,18.9,23.7,19z"/>
	</g>
</g>
<g>
</g>
<g>
</g>
<g>
</g>
<g>
</g>
<g>
</g>
<g>
</g>
<g>
</g>
<g>
</g>
<g>
</g>
<g>
</g>
<g>
</g>
<g>
</g>
<g>
</g>
<g>
</g>
<g>
</g>
</svg>
