<?xml version="1.0" encoding="utf-8"?>
<!-- Generator: Adobe Illustrator 18.1.1, SVG Export Plug-In . SVG Version: 6.00 Build 0)  -->
<svg version="1.1" id="Layer_1" xmlns="http://www.w3.org/2000/svg" xmlns:xlink="http://www.w3.org/1999/xlink" x="0px" y="0px"
	 viewBox="0 0 42.2 43.3" enable-background="new 0 0 42.2 43.3" xml:space="preserve">
<g>
	<path d="M41.7,14c-0.2-0.6-0.4-1.2-0.6-1.8c-0.2-0.5-0.4-1-0.7-1.5c-0.3-0.5-0.5-1-0.8-1.4c-0.2-0.4-0.5-0.7-0.7-1
		c-0.1-0.1-0.1-0.2-0.3-0.4c-0.2-0.2-0.4-0.4-0.5-0.6c-0.2-0.3-0.4-0.4-0.6-0.6c-0.2-0.2-0.3-0.4-0.5-0.6c-0.2-0.2-0.4-0.3-0.6-0.5
		c-0.1-0.1-0.2-0.2-0.4-0.3c-0.2-0.1-0.3-0.3-0.4-0.3c-0.1,0-0.2-0.2-0.4-0.3C31.5,1.7,26.5,0,21.1,0c-1.5,0-2.9,0.2-4.2,0.4
		c0,0-0.1,0-0.2,0c-0.7,0.1-1.3,0.2-1.9,0.4c-0.1,0-0.1,0-0.2,0.1C14,1,13.4,1.2,12.8,1.4C11,2.1,9.4,2.9,7.9,3.9
		C7.8,4,7.6,4.1,7.4,4.3C7,4.5,6.7,4.8,6.4,5c0,0-0.2,0.1-0.3,0.2C5.9,5.5,5.7,5.6,5.6,5.7C5.4,5.9,5.2,6.1,4.9,6.4
		C4.4,6.8,4,7.3,3.6,7.8C3.4,8.1,3.2,8.3,3.1,8.5C2.9,8.7,2.8,8.9,2.6,9.2C0.9,11.7,0,14.6,0,17.6c0,3,0.9,5.9,2.6,8.4
		c0.2,0.3,0.4,0.6,0.6,0.8c0.1,0.2,0.2,0.3,0.4,0.6c0.4,0.5,0.9,1,1.3,1.5c0.2,0.2,0.5,0.5,0.7,0.7c0.1,0.1,0.2,0.2,0.5,0.4
		c0.2,0.1,0.3,0.2,0.3,0.3c0.3,0.3,0.6,0.5,1,0.7c0.2,0.2,0.4,0.3,0.6,0.4c1.5,1,3.1,1.8,4.8,2.4c0.6,0.2,1.2,0.4,1.8,0.6
		c0.1,0,0.1,0,0.2,0.1c0.6,0.2,1.2,0.3,1.9,0.4c0.1,0,0.2,0,0.2,0c1.3,0.2,2.7,0.4,4.2,0.4c0.3,0,0.6,0,1,0l3.1,3.1l4.4,4.6
		c0.2,0.2,0.5,0.4,0.8,0.4c0.2,0,0.3,0,0.5-0.1c0.4-0.2,0.7-0.7,0.6-1.2l-0.8-5.5l-0.4-3c0.1,0,0.1-0.1,0.2-0.1
		c0.3-0.1,0.7-0.3,1-0.5c0.4-0.2,0.8-0.4,1.2-0.6c0.4-0.2,0.8-0.5,1.2-0.7c0.4-0.3,0.8-0.5,1.2-0.8c0.3-0.2,0.7-0.5,1-0.8
		c0.2-0.1,0.3-0.3,0.3-0.3c0.2-0.2,0.4-0.4,0.7-0.6c0.5-0.5,1.1-1.1,1.6-1.7c0.3-0.4,0.6-0.8,0.9-1.2l0,0c0,0,0,0,0,0
		c0,0,0-0.1,0.1-0.1c0.1-0.2,0.2-0.3,0.2-0.4c0.1-0.2,0.3-0.5,0.4-0.7c0.5-0.9,0.9-1.8,1.2-2.7c0.5-1.4,0.7-3,0.7-4.5
		C42.2,16.4,42,15.2,41.7,14z M10.1,13.6c0-0.1,0.1-0.3,0.1-0.4c0.1-0.1,0.2-0.2,0.4-0.2h17.9c0.1,0,0.3,0.1,0.4,0.2
		c0.1,0.1,0.1,0.2,0.1,0.4v1.6c0,0.1-0.1,0.3-0.1,0.4c-0.1,0.1-0.2,0.1-0.4,0.1H10.6c-0.1,0-0.3-0.1-0.4-0.1
		c-0.1-0.1-0.2-0.2-0.2-0.4V13.6z M24.4,27.3c0,0.1-0.1,0.3-0.1,0.4c-0.1,0.1-0.2,0.1-0.4,0.1H10.6c-0.1,0-0.3-0.1-0.4-0.1
		c-0.1-0.1-0.2-0.2-0.2-0.4v-1.6c0-0.1,0.1-0.3,0.1-0.4c0.1-0.1,0.2-0.2,0.4-0.2h13.3c0.1,0,0.3,0.1,0.4,0.2
		c0.1,0.1,0.1,0.2,0.1,0.4V27.3z M32.1,21.3c0,0.1-0.1,0.3-0.2,0.4c-0.1,0.1-0.2,0.2-0.4,0.2h-21c-0.1,0-0.3-0.1-0.4-0.2
		c-0.1-0.1-0.2-0.2-0.2-0.4v-1.6c0-0.1,0.1-0.3,0.1-0.4c0.1-0.1,0.2-0.1,0.4-0.1h21c0.1,0,0.3,0.1,0.4,0.2c0.1,0.1,0.2,0.2,0.2,0.4
		V21.3z M32.1,9.3c0,0.1-0.1,0.3-0.2,0.4c-0.1,0.1-0.2,0.2-0.4,0.2h-21c-0.1,0-0.3-0.1-0.4-0.2c-0.1-0.1-0.2-0.2-0.2-0.4V7.6
		c0-0.1,0.1-0.3,0.1-0.4c0.1-0.1,0.2-0.1,0.4-0.1h21c0.1,0,0.3,0.1,0.4,0.2c0.1,0.1,0.2,0.2,0.2,0.4V9.3z"/>
</g>
<g>
</g>
<g>
</g>
<g>
</g>
<g>
</g>
<g>
</g>
<g>
</g>
<g>
</g>
<g>
</g>
<g>
</g>
<g>
</g>
<g>
</g>
<g>
</g>
<g>
</g>
<g>
</g>
<g>
</g>
</svg>
