<?xml version="1.0" encoding="utf-8"?>
<!-- Generator: Adobe Illustrator 18.1.1, SVG Export Plug-In . SVG Version: 6.00 Build 0)  -->
<svg version="1.1" id="Layer_1" xmlns="http://www.w3.org/2000/svg" xmlns:xlink="http://www.w3.org/1999/xlink" x="0px" y="0px"
	 viewBox="0 0 48.5 38.8" enable-background="new 0 0 48.5 38.8" xml:space="preserve">
<g>
	<path d="M13.5,16.2c0,0.4-0.3,0.7-0.7,0.7h-2.2c-0.4,0-0.7-0.3-0.7-0.7v-2.1c0-0.4,0.3-0.7,0.7-0.7h2.2c0.4,0,0.7,0.3,0.7,0.7V16.2
		z M22.5,16.2c0,0.4-0.3,0.7-0.7,0.7h-2.2c-0.4,0-0.7-0.3-0.7-0.7v-2.1c0-0.4,0.3-0.7,0.7-0.7h2.2c0.4,0,0.7,0.3,0.7,0.7V16.2z
		 M31.5,16.2c0,0.4-0.3,0.7-0.7,0.7h-2.2c-0.4,0-0.7-0.3-0.7-0.7v-2.1c0-0.4,0.3-0.7,0.7-0.7h2.2c0.4,0,0.7,0.3,0.7,0.7V16.2z"/>
	<path d="M28.9,26.2c-1.4,0.5-2.8,0.9-4.4,1.1c-0.5,0.1-0.9,0.4-1.2,0.9l-2.8,6.2l-2.7-6.2c-0.2-0.5-0.6-0.8-1.2-0.9
		c-4-0.6-7.5-2.3-9.9-4.4c-2.4-2.2-3.8-4.8-3.8-7.6c0-3.2,1.8-6.2,5-8.5c3.2-2.3,7.6-3.8,12.6-3.8c0,0,0,0,0,0c5,0,9.5,1.5,12.6,3.8
		c3.2,2.3,5,5.3,5,8.5c0,0.3,0,0.6-0.1,0.9c0.3-0.1,0.6-0.1,0.9-0.2h1.4c0.3,0,0.5,0,0.7,0.1c0-0.3,0-0.6,0-0.9
		c0-4.4-2.5-8.3-6.2-11C31.3,1.6,26.3,0,20.7,0C15.1,0,10,1.6,6.2,4.3C2.5,7,0,10.9,0,15.4c0,3.8,1.9,7.3,4.8,9.9
		c2.8,2.4,6.4,4.2,10.6,5l2.9,6.8c0.4,0.8,1.2,1.5,2.2,1.5c0,0,0,0,0,0c1,0,1.8-0.6,2.2-1.5l3.1-6.8c1.4-0.3,2.8-0.7,4-1.1v-2.9
		H28.9z"/>
	<path d="M12.8,13.4h-2.2c-0.4,0-0.7,0.3-0.7,0.7v2.1c0,0.4,0.3,0.7,0.7,0.7h2.2c0.4,0,0.7-0.3,0.7-0.7v-2.1
		C13.5,13.7,13.1,13.4,12.8,13.4z"/>
	<path d="M21.8,13.4h-2.2c-0.4,0-0.7,0.3-0.7,0.7v2.1c0,0.4,0.3,0.7,0.7,0.7h2.2c0.4,0,0.7-0.3,0.7-0.7v-2.1
		C22.5,13.7,22.2,13.4,21.8,13.4z"/>
	<path d="M30.8,13.4h-2.2c-0.4,0-0.7,0.3-0.7,0.7v2.1c0,0.4,0.3,0.7,0.7,0.7h2.2c0.4,0,0.7-0.3,0.7-0.7v-2.1
		C31.5,13.7,31.2,13.4,30.8,13.4z"/>
	<path d="M44.8,36.1c0,0.1,0,0.1-0.1,0.2c0,0-0.1,0.1-0.2,0.1h-1.3c-0.1,0-0.1,0-0.2-0.1c-0.1-0.1-0.1-0.1-0.1-0.2V25.7h-2.2v10.4
		c0,0.1,0,0.1-0.1,0.2c0,0-0.1,0.1-0.2,0.1h-1.3c-0.1,0-0.1,0-0.2-0.1c0-0.1-0.1-0.1-0.1-0.2V25.7h-2.2v10.4c0,0.1,0,0.1-0.1,0.2
		c0,0-0.1,0.1-0.2,0.1h-1.3c-0.1,0-0.1,0-0.2-0.1c0-0.1-0.1-0.1-0.1-0.2V25.7h-2.3v11.2c0,1,0.8,1.8,1.8,1.8h11c1,0,1.8-0.8,1.8-1.8
		V25.7h-2.4V36.1z"/>
	<path d="M47.1,21h-5.2v-0.6c0-0.7-0.6-1.3-1.3-1.3h-1.4c-0.7,0-1.3,0.6-1.3,1.3V21h-5.2c-0.7,0-1.3,0.6-1.3,1.3v1.2h17.2v-1.2
		C48.5,21.6,47.9,21,47.1,21z"/>
</g>
<g>
</g>
<g>
</g>
<g>
</g>
<g>
</g>
<g>
</g>
<g>
</g>
<g>
</g>
<g>
</g>
<g>
</g>
<g>
</g>
<g>
</g>
<g>
</g>
<g>
</g>
<g>
</g>
<g>
</g>
</svg>
