<?xml version="1.0" encoding="utf-8"?>
<!-- Generator: Adobe Illustrator 18.1.1, SVG Export Plug-In . SVG Version: 6.00 Build 0)  -->
<svg version="1.1" id="Layer_1" xmlns="http://www.w3.org/2000/svg" xmlns:xlink="http://www.w3.org/1999/xlink" x="0px" y="0px"
	 viewBox="0 0 45.1 36.2" enable-background="new 0 0 45.1 36.2" xml:space="preserve">
<g>
	<path d="M45.1,1.8L44,0.2C43.9,0.1,43.8,0,43.7,0c0,0-0.1,0-0.1,0c0,0,0,0,0,0c-7,2.6-17.9,11.5-22.8,17.6l-8.8-7.4
		c-0.1-0.1-0.2-0.1-0.3-0.1c0,0-0.1,0-0.1,0c-0.1,0-0.2,0.1-0.3,0.2l-1.3,2.1c-0.1,0.2-0.1,0.4,0,0.5l11.6,14
		c0,0,9.3-15.7,23.5-24.5c0.1-0.1,0.2-0.2,0.2-0.3C45.2,2,45.1,1.9,45.1,1.8z M38,32.2c0,0.1-0.1,0.1-0.1,0.1L4,32.3
		c-0.1,0-0.1-0.1-0.1-0.1V5.9C3.9,5.9,4,5.8,4,5.8l20.5,0c1.7-1.4,3.9-2.9,5.8-3.9h-26C1.9,2,0,3.9,0,6.3v25.6
		c0,2.4,1.9,4.3,4.3,4.3h33.2c2.4,0,4.3-1.9,4.3-4.3V11.1c-1.4,1.1-2.4,2.1-3.9,3.8V32.2z"/>
</g>
<g>
</g>
<g>
</g>
<g>
</g>
<g>
</g>
<g>
</g>
<g>
</g>
<g>
</g>
<g>
</g>
<g>
</g>
<g>
</g>
<g>
</g>
<g>
</g>
<g>
</g>
<g>
</g>
<g>
</g>
</svg>
