<?xml version="1.0" encoding="utf-8"?>
<!-- Generator: Adobe Illustrator 18.1.1, SVG Export Plug-In . SVG Version: 6.00 Build 0)  -->
<svg version="1.1" id="Layer_1" xmlns="http://www.w3.org/2000/svg" xmlns:xlink="http://www.w3.org/1999/xlink" x="0px" y="0px"
	 viewBox="0 0 38.6 34.6" enable-background="new 0 0 38.6 34.6" xml:space="preserve">
<g>
	<path d="M35.5,2.9l0.2,0.1l0,0l0,0.1l0,0c0,0,0,0.1,0,0.1l0,28.4l0,0.1l0,0l0,0.1l0,0c0,0-0.1,0-0.1,0l0,0H3.1L3,31.7l0,0l0-0.1
		l0,0c0,0,0-0.1,0-0.1l0-28.4l0-0.1l0,0l0-0.1l0,0c0,0,0.1,0,0.1,0l0,0h31L31.3,0H3.1C1.4,0,0,1.4,0,3.1v28.4l0,0
		c0,1.3,0.9,2.5,2,2.9c0,0,0,0,0,0c0.2,0.1,0.3,0.1,0.5,0.1c0.1,0,0.3,0,0.4,0c0,0,0.1,0,0.1,0h32.4c1.7,0,3.1-1.4,3.1-3.1V3.1l0,0
		c0-1.3-0.9-2.5-2-2.9c0,0,0,0,0,0c-0.2-0.1-0.3-0.1-0.5-0.1c-0.1,0-0.3,0-0.4,0c0,0-0.1,0-0.1,0h-4.7l1,2.9H35.5z"/>
	<g>
		<path d="M32.7,9L31.9,8c-0.1-0.1-0.2-0.1-0.3-0.1c0,0-0.1,0-0.1,0c0,0,0,0,0,0c-4.7,1.9-12,8.2-15.2,12.5l-6.2-4.9
			c-0.1,0-0.1-0.1-0.2-0.1c0,0,0,0,0,0c-0.1,0-0.2,0.1-0.2,0.1l-0.9,1.5c-0.1,0.1-0.1,0.2,0,0.3l8.2,9.3c0,0,6-10.9,15.5-17.3
			c0.1,0,0.1-0.1,0.1-0.2C32.8,9.2,32.7,9.1,32.7,9z"/>
	</g>
</g>
<g>
</g>
<g>
</g>
<g>
</g>
<g>
</g>
<g>
</g>
<g>
</g>
<g>
</g>
<g>
</g>
<g>
</g>
<g>
</g>
<g>
</g>
<g>
</g>
<g>
</g>
<g>
</g>
<g>
</g>
</svg>
