<?xml version="1.0" encoding="utf-8"?>
<!-- Generator: Adobe Illustrator 18.1.1, SVG Export Plug-In . SVG Version: 6.00 Build 0)  -->
<svg version="1.1" id="Layer_1" xmlns="http://www.w3.org/2000/svg" xmlns:xlink="http://www.w3.org/1999/xlink" x="0px" y="0px"
	 viewBox="0 0 612 607.5" enable-background="new 0 0 612 607.5" xml:space="preserve">
<g>
	<path d="M566.7,564.4C566.7,564.4,566.7,566.7,566.7,564.4l-523.6,2.3l-2.3-2.3V43.1l2.3-2.3h426.1L498.7,0H43.1
		C20.4,0,0,18.1,0,43.1v521.3c0,24.9,20.4,43.1,43.1,43.1h521.3c22.7,0,43.1-18.1,43.1-43.1V158.7l-40.8,56.7V564.4z"/>
	<path d="M151.9,174.5l-34,24.9l158.7,215.3c6.8,9.1,15.9,15.9,27.2,15.9l0,0c11.3,0,22.7-6.8,27.2-15.9L612,31.7L578,6.8
		L303.7,385.3L151.9,174.5z"/>
</g>
<g>
</g>
<g>
</g>
<g>
</g>
<g>
</g>
<g>
</g>
<g>
</g>
<g>
</g>
<g>
</g>
<g>
</g>
<g>
</g>
<g>
</g>
<g>
</g>
<g>
</g>
<g>
</g>
<g>
</g>
</svg>
