<?xml version="1.0" encoding="utf-8"?>
<!-- Generator: Adobe Illustrator 18.1.1, SVG Export Plug-In . SVG Version: 6.00 Build 0)  -->
<svg version="1.1" id="Layer_1" xmlns="http://www.w3.org/2000/svg" xmlns:xlink="http://www.w3.org/1999/xlink" x="0px" y="0px"
	 viewBox="0 0 612 612" enable-background="new 0 0 612 612" xml:space="preserve">
<g>
	<path d="M0,306C0,136.6,136.6,0,306,0l0,0c169.4,0,306,136.6,306,306l0,0c0,169.4-136.6,306-306,306l0,0C136.6,612,0,475.4,0,306
		L0,306z M34.6,306c0,150.1,121.2,271.4,271.4,271.4l0,0c150.1,0,271.4-121.2,271.4-271.4l0,0c0-150.1-121.2-271.4-271.4-271.4l0,0
		C155.9,34.6,34.6,155.9,34.6,306L34.6,306z"/>
	<polygon points="288.7,315.6 288.7,90.5 288.7,90.5 323.3,90.5 323.3,296.4 477.3,384.9 460,413.8 	"/>
</g>
<g>
</g>
<g>
</g>
<g>
</g>
<g>
</g>
<g>
</g>
<g>
</g>
<g>
</g>
<g>
</g>
<g>
</g>
<g>
</g>
<g>
</g>
<g>
</g>
<g>
</g>
<g>
</g>
<g>
</g>
</svg>
