<?xml version="1.0" encoding="utf-8"?>
<!-- Generator: Adobe Illustrator 18.1.1, SVG Export Plug-In . SVG Version: 6.00 Build 0)  -->
<svg version="1.1" id="Layer_1" xmlns="http://www.w3.org/2000/svg" xmlns:xlink="http://www.w3.org/1999/xlink" x="0px" y="0px"
	 viewBox="0 0 35.9 41.7" enable-background="new 0 0 35.9 41.7" xml:space="preserve">
<g>
	<path d="M32.2,12.3c-2-2.5-4.7-4.5-7.8-5.6V3.4c0-0.9-0.4-1.8-1-2.4c-0.6-0.6-1.5-1-2.4-1h-6.1c-1.9,0-3.4,1.5-3.4,3.4v3.4
		c-3.1,1.1-5.8,3-7.8,5.6C1.4,15.3,0,19,0,23v1.6C0,34,7.7,41.7,17.1,41.7h1.6c9.5,0,17.1-7.7,17.1-17.1V23
		C35.9,19,34.5,15.3,32.2,12.3z M31.5,24.5c0,3.5-1.4,6.7-3.7,9c-2.3,2.3-5.5,3.7-9,3.7h-1.6c-3.5,0-6.7-1.4-9-3.7
		c-2.3-2.3-3.7-5.5-3.7-9V23c0-3,1-5.7,2.7-7.9c1.7-2.2,4.1-3.8,6.9-4.5l0.3-0.1c1.2-0.3,1.9-1.5,1.6-2.6c0,0,0-0.1,0-0.1
		c0-0.1,0-0.1,0-0.2V4.4H20v3.2c0,0.1,0,0.1,0,0.1c0,0.1,0,0.1-0.1,0.2c-0.3,1.2,0.4,2.3,1.6,2.6l0.3,0.1c2.8,0.7,5.2,2.3,6.9,4.5
		c1.7,2.2,2.7,4.9,2.8,7.9V24.5z"/>
	<path d="M24.9,17.3l-4.7,2.8v-5.6c0-1.2-1-2.2-2.2-2.2c-1.2,0-2.2,1-2.2,2.2v9.3c0,1.2,1,2.2,2.2,2.2c0,0,0,0,0.1,0
		c0.4,0,0.8-0.1,1.1-0.3l7.9-4.7c1-0.6,1.4-1.9,0.8-3C27.2,17,25.9,16.7,24.9,17.3z"/>
</g>
<g>
</g>
<g>
</g>
<g>
</g>
<g>
</g>
<g>
</g>
<g>
</g>
<g>
</g>
<g>
</g>
<g>
</g>
<g>
</g>
<g>
</g>
<g>
</g>
<g>
</g>
<g>
</g>
<g>
</g>
</svg>
