<?xml version="1.0" encoding="utf-8"?>
<!-- Generator: Adobe Illustrator 18.1.1, SVG Export Plug-In . SVG Version: 6.00 Build 0)  -->
<svg version="1.1" id="Layer_1" xmlns="http://www.w3.org/2000/svg" xmlns:xlink="http://www.w3.org/1999/xlink" x="0px" y="0px"
	 viewBox="0 0 40.9 40.9" enable-background="new 0 0 40.9 40.9" xml:space="preserve">
<g>
	<path d="M40.8,0.1C40.7,0,40.6,0,40.5,0h-40C0.3,0,0.2,0,0.1,0.1C0,0.2,0,0.3,0,0.4v40c0,0.1,0,0.2,0.1,0.3
		c0.1,0.1,0.2,0.1,0.3,0.1h40c0.1,0,0.2,0,0.3-0.1c0.1-0.1,0.1-0.2,0.1-0.3v-40C40.9,0.3,40.9,0.2,40.8,0.1z M35.9,35.9H5V5l30.8,0
		L35.9,35.9z"/>
	<path d="M24.7,20.5l7.3-7.3c0.2-0.2,0.2-0.4,0.2-0.6c0-0.2-0.1-0.4-0.2-0.6l-3-3c-0.3-0.3-0.9-0.3-1.2,0l-7.3,7.3L13.2,9
		c-0.3-0.3-0.9-0.3-1.2,0l-3,3c-0.3,0.3-0.3,0.9,0,1.2l7.3,7.3L9,27.7c-0.3,0.3-0.3,0.9,0,1.2l3,3c0.2,0.2,0.4,0.2,0.6,0.2
		c0.2,0,0.4-0.1,0.6-0.2l7.3-7.3l7.3,7.3c0.2,0.2,0.4,0.2,0.6,0.2c0.2,0,0.4-0.1,0.6-0.2l3-3c0.2-0.2,0.2-0.4,0.2-0.6
		c0-0.2-0.1-0.4-0.2-0.6L24.7,20.5z"/>
</g>
<g>
</g>
<g>
</g>
<g>
</g>
<g>
</g>
<g>
</g>
<g>
</g>
<g>
</g>
<g>
</g>
<g>
</g>
<g>
</g>
<g>
</g>
<g>
</g>
<g>
</g>
<g>
</g>
<g>
</g>
</svg>
