<?xml version="1.0" encoding="utf-8"?>
<!-- Generator: Adobe Illustrator 18.1.1, SVG Export Plug-In . SVG Version: 6.00 Build 0)  -->
<svg version="1.1" id="Layer_1" xmlns="http://www.w3.org/2000/svg" xmlns:xlink="http://www.w3.org/1999/xlink" x="0px" y="0px"
	 viewBox="0 0 35.7 35.7" enable-background="new 0 0 35.7 35.7" xml:space="preserve">
<g>
	<path d="M34.8,30.5L22.1,17.8L34.8,5.2C36,4,36,2.1,34.8,0.9c-1.2-1.2-3.1-1.2-4.3,0L17.8,13.5L5.2,0.9C4-0.3,2.1-0.3,0.9,0.9
		c-1.2,1.2-1.2,3.1,0,4.3l12.7,12.7L0.9,30.5c-1.2,1.2-1.2,3.1,0,4.3c1.2,1.2,3.1,1.2,4.3,0l12.7-12.6l12.7,12.6
		c1.2,1.2,3.1,1.2,4.3,0C36,33.6,36,31.7,34.8,30.5z"/>
</g>
<g>
</g>
<g>
</g>
<g>
</g>
<g>
</g>
<g>
</g>
<g>
</g>
<g>
</g>
<g>
</g>
<g>
</g>
<g>
</g>
<g>
</g>
<g>
</g>
<g>
</g>
<g>
</g>
<g>
</g>
</svg>
