<?xml version="1.0" encoding="utf-8"?>
<!-- Generator: Adobe Illustrator 18.1.1, SVG Export Plug-In . SVG Version: 6.00 Build 0)  -->
<svg version="1.1" id="Layer_1" xmlns="http://www.w3.org/2000/svg" xmlns:xlink="http://www.w3.org/1999/xlink" x="0px" y="0px"
	 viewBox="0 0 612 612" enable-background="new 0 0 612 612" xml:space="preserve">
<g>
	<path d="M306,0C136.8,0,0,136.8,0,306s136.8,306,306,306s306-136.8,306-306S475.2,0,306,0z M306,554.4
		C169.2,554.4,57.6,442.8,57.6,306S169.2,57.6,306,57.6S554.4,169.2,554.4,306S442.8,554.4,306,554.4z"/>
	<path d="M410.4,244.8c7.2-7.2,7.2-21.6,0-28.8L396,201.6c-7.2-7.2-21.6-7.2-28.8,0L320.4,252L306,266.4L291.6,252l-46.8-50.4
		c-7.2-7.2-21.6-7.2-28.8,0L201.6,216c-7.2,7.2-7.2,21.6,0,28.8l50.4,50.4l14.4,14.4L252,320.4l-50.4,50.4c-7.2,7.2-7.2,21.6,0,28.8
		L216,414c7.2,7.2,21.6,7.2,28.8,0l50.4-50.4l14.4-14.4l14.4,14.4l50.4,50.4c7.2,7.2,21.6,7.2,28.8,0l14.4-14.4
		c7.2-7.2,7.2-21.6,0-28.8l-50.4-50.4l-18-14.4l14.4-14.4L410.4,244.8z"/>
</g>
<g>
</g>
<g>
</g>
<g>
</g>
<g>
</g>
<g>
</g>
<g>
</g>
<g>
</g>
<g>
</g>
<g>
</g>
<g>
</g>
<g>
</g>
<g>
</g>
<g>
</g>
<g>
</g>
<g>
</g>
</svg>
