<?xml version="1.0" encoding="utf-8"?>
<!-- Generator: Adobe Illustrator 18.1.1, SVG Export Plug-In . SVG Version: 6.00 Build 0)  -->
<svg version="1.1" id="Layer_1" xmlns="http://www.w3.org/2000/svg" xmlns:xlink="http://www.w3.org/1999/xlink" x="0px" y="0px"
	 viewBox="0 0 42.7 29" enable-background="new 0 0 42.7 29" xml:space="preserve">
<g>
	<path d="M28.2,0h-7.1C14.6,0,9.1,4.4,7.3,10.4l-6.6,3.3c-1,0.5-1,1.3,0,1.7l6.6,3.3c1.8,6,7.3,10.4,13.9,10.4h7.1
		c8,0,14.5-6.5,14.5-14.5C42.7,6.5,36.2,0,28.2,0z M15.6,17.7c-1.8,0-3.2-1.5-3.2-3.2c0-1.8,1.4-3.2,3.2-3.2c1.8,0,3.2,1.4,3.2,3.2
		C18.8,16.3,17.4,17.7,15.6,17.7z M24.8,17.7c-1.8,0-3.2-1.5-3.2-3.2c0-1.8,1.4-3.2,3.2-3.2c1.8,0,3.2,1.4,3.2,3.2
		C28.1,16.3,26.6,17.7,24.8,17.7z M33.7,17.7c-1.8,0-3.2-1.5-3.2-3.2c0-1.8,1.4-3.2,3.2-3.2c1.8,0,3.2,1.4,3.2,3.2
		C36.9,16.3,35.5,17.7,33.7,17.7z"/>
</g>
<g>
</g>
<g>
</g>
<g>
</g>
<g>
</g>
<g>
</g>
<g>
</g>
<g>
</g>
<g>
</g>
<g>
</g>
<g>
</g>
<g>
</g>
<g>
</g>
<g>
</g>
<g>
</g>
<g>
</g>
</svg>
