<?xml version="1.0" encoding="utf-8"?>
<!-- Generator: Adobe Illustrator 18.1.1, SVG Export Plug-In . SVG Version: 6.00 Build 0)  -->
<svg version="1.1" id="Layer_1" xmlns="http://www.w3.org/2000/svg" xmlns:xlink="http://www.w3.org/1999/xlink" x="0px" y="0px"
	 viewBox="0 0 45.7 31.2" enable-background="new 0 0 45.7 31.2" xml:space="preserve">
<g>
	<path d="M18.6,12.9c-1.5,0-2.7,1.2-2.7,2.7c0,1.5,1.2,2.7,2.7,2.7c1.5,0,2.7-1.2,2.7-2.7C21.3,14.1,20.1,12.9,18.6,12.9z
		 M26.7,12.9c-1.5,0-2.7,1.2-2.7,2.7c0,1.5,1.2,2.7,2.7,2.7c1.5,0,2.7-1.2,2.7-2.7C29.5,14.1,28.2,12.9,26.7,12.9z M34.8,12.9
		c-1.5,0-2.7,1.2-2.7,2.7c0,1.5,1.2,2.7,2.7,2.7c1.5,0,2.7-1.2,2.7-2.7C37.6,14.1,36.4,12.9,34.8,12.9z M30.1,0h-6.4
		C17,0,11.3,4.2,9.1,10.1l-6.8,2.7c-0.5,0.2-0.9,0.4-1.4,0.9C0.5,14,0,14.8,0,15.7c0,0.9,0.5,1.7,0.9,2.1c0.4,0.4,0.9,0.7,1.4,0.9
		l6.9,2.8c2.3,5.7,7.9,9.8,14.5,9.8h6.4c8.6,0,15.6-7,15.6-15.6C45.7,7,38.7,0,30.1,0z M30.1,26.4h-6.4c-4.8,0-8.9-3.2-10.2-7.5
		c-0.2-0.7-0.7-1.2-1.4-1.5l-4.1-1.6l4-1.6c0.7-0.3,1.2-0.9,1.4-1.6c1.3-4.5,5.4-7.7,10.3-7.7h6.4c5.9,0,10.7,4.8,10.8,10.8
		C40.8,21.5,36,26.4,30.1,26.4z"/>
</g>
<g>
</g>
<g>
</g>
<g>
</g>
<g>
</g>
<g>
</g>
<g>
</g>
<g>
</g>
<g>
</g>
<g>
</g>
<g>
</g>
<g>
</g>
<g>
</g>
<g>
</g>
<g>
</g>
<g>
</g>
</svg>
