<?xml version="1.0" encoding="utf-8"?>
<!-- Generator: Adobe Illustrator 18.1.1, SVG Export Plug-In . SVG Version: 6.00 Build 0)  -->
<svg version="1.1" id="Layer_1" xmlns="http://www.w3.org/2000/svg" xmlns:xlink="http://www.w3.org/1999/xlink" x="0px" y="0px"
	 viewBox="0 0 41.3 10.8" enable-background="new 0 0 41.3 10.8" xml:space="preserve">
<g>
	<path d="M5.4,0C2.4,0,0,2.4,0,5.4c0,3,2.4,5.4,5.4,5.4c3,0,5.4-2.4,5.4-5.4C10.8,2.4,8.4,0,5.4,0z M20.7,0c-3,0-5.4,2.4-5.4,5.4
		c0,3,2.4,5.4,5.4,5.4c3,0,5.4-2.4,5.4-5.4C26.1,2.4,23.7,0,20.7,0z M35.9,0c-3,0-5.4,2.4-5.4,5.4c0,3,2.4,5.4,5.4,5.4
		c3,0,5.4-2.4,5.4-5.4C41.3,2.4,38.9,0,35.9,0z"/>
</g>
<g>
</g>
<g>
</g>
<g>
</g>
<g>
</g>
<g>
</g>
<g>
</g>
<g>
</g>
<g>
</g>
<g>
</g>
<g>
</g>
<g>
</g>
<g>
</g>
<g>
</g>
<g>
</g>
<g>
</g>
</svg>
