<?xml version="1.0" encoding="utf-8"?>
<!-- Generator: Adobe Illustrator 18.1.1, SVG Export Plug-In . SVG Version: 6.00 Build 0)  -->
<svg version="1.1" id="Layer_1" xmlns="http://www.w3.org/2000/svg" xmlns:xlink="http://www.w3.org/1999/xlink" x="0px" y="0px"
	 viewBox="0 0 612 706.6" enable-background="new 0 0 612 706.6" xml:space="preserve">
<g>
	<path d="M433.4,415c0-13.1-7.9-31.5-21-39.4l-52.5-36.8c-7.9-5.3-13.1-10.5-18.4-18.4c-2.6-2.6-2.6-7.9-2.6-13.1c0-2.6,0-5.3,0-7.9
		c2.6-10.5,7.9-15.8,13.1-23.6c5.3-10.5,10.5-21,10.5-34.1c0-2.6,0-7.9,0-10.5v-31.5c0-7.9-2.6-18.4-7.9-26.3
		c-2.6-2.6-5.3-7.9-7.9-10.5l-2.6-2.6l2.6-2.6l5.3-7.9h-47.3l0,0c-15.8,0-28.9,5.3-36.8,10.5c-5.3,2.6-10.5,7.9-13.1,13.1
		c-5.3,5.3-5.3,13.1-7.9,18.4c0,2.6,0,5.3,0,5.3v34.1c0,2.6,0,5.3,0,10.5c2.6,10.5,5.3,23.6,10.5,34.1c5.3,7.9,10.5,15.8,13.1,23.6
		c0,2.6,0,5.3,0,7.9c0,5.3,0,7.9-2.6,13.1c-2.6,5.3-10.5,10.5-18.4,15.8L197,373c-10.5,7.9-21,26.3-21,39.4v36.8h254.8L433.4,415z"
		/>
	<path d="M567.3,0h-457C49.9,0,0,49.9,0,110.3v485.9c0,60.4,49.9,110.3,110.3,110.3h457c23.6,0,44.7-18.4,44.7-42V42
		C612,18.4,591,0,567.3,0z M546.3,533.2h-436v42c0,10.5,10.5,21,21,21h412.4v42H110.3c-23.6,0-44.7-21-44.7-44.7V110.3
		c0-23.6,21-44.7,44.7-44.7h433.4v467.5H546.3z"/>
</g>
<g>
</g>
<g>
</g>
<g>
</g>
<g>
</g>
<g>
</g>
<g>
</g>
<g>
</g>
<g>
</g>
<g>
</g>
<g>
</g>
<g>
</g>
<g>
</g>
<g>
</g>
<g>
</g>
<g>
</g>
</svg>
