<?xml version="1.0" encoding="utf-8"?>
<!-- Generator: Adobe Illustrator 18.1.1, SVG Export Plug-In . SVG Version: 6.00 Build 0)  -->
<svg version="1.1" id="Layer_1" xmlns="http://www.w3.org/2000/svg" xmlns:xlink="http://www.w3.org/1999/xlink" x="0px" y="0px"
	 viewBox="0 0 52.5 13.3" enable-background="new 0 0 52.5 13.3" xml:space="preserve">
<g>
	<path d="M11,0H2.3C1,0,0,1,0,2.3V11c0,1.3,1,2.3,2.3,2.3H11c1.3,0,2.3-1,2.3-2.3V2.3C13.2,1,12.2,0,11,0z"/>
	<path d="M30.6,0h-8.7c-1.3,0-2.3,1-2.3,2.3V11c0,1.3,1,2.3,2.3,2.3h8.7c1.3,0,2.3-1,2.3-2.3V2.3C32.9,1,31.8,0,30.6,0z"/>
	<path d="M50.2,0h-8.7c-1.3,0-2.3,1-2.3,2.3V11c0,1.3,1,2.3,2.3,2.3h8.7c1.3,0,2.3-1,2.3-2.3V2.3C52.5,1,51.5,0,50.2,0z"/>
</g>
<g>
</g>
<g>
</g>
<g>
</g>
<g>
</g>
<g>
</g>
<g>
</g>
<g>
</g>
<g>
</g>
<g>
</g>
<g>
</g>
<g>
</g>
<g>
</g>
<g>
</g>
<g>
</g>
<g>
</g>
</svg>
