<?xml version="1.0" encoding="utf-8"?>
<!-- Generator: Adobe Illustrator 18.1.1, SVG Export Plug-In . SVG Version: 6.00 Build 0)  -->
<svg version="1.1" id="Layer_1" xmlns="http://www.w3.org/2000/svg" xmlns:xlink="http://www.w3.org/1999/xlink" x="0px" y="0px"
	 viewBox="0 0 53.9 53.9" enable-background="new 0 0 53.9 53.9" xml:space="preserve">
<g>
	<path d="M50.8,36.9H43v-26H17V3c0-1.7-1.4-3-3-3c-1.7,0-3,1.4-3,3v7.9H3c-1.7,0-3,1.4-3,3c0,1.7,1.4,3,3,3h7.9v26h26v7.9
		c0,1.7,1.4,3,3,3c1.7,0,3-1.4,3-3V43h7.9c1.7,0,3-1.4,3-3C53.9,38.3,52.5,36.9,50.8,36.9z M36.9,36.9H17V17h19.9V36.9z"/>
</g>
<g>
</g>
<g>
</g>
<g>
</g>
<g>
</g>
<g>
</g>
<g>
</g>
<g>
</g>
<g>
</g>
<g>
</g>
<g>
</g>
<g>
</g>
<g>
</g>
<g>
</g>
<g>
</g>
<g>
</g>
</svg>
