<?xml version="1.0" encoding="utf-8"?>
<!-- Generator: Adobe Illustrator 18.1.1, SVG Export Plug-In . SVG Version: 6.00 Build 0)  -->
<svg version="1.1" id="Layer_1" xmlns="http://www.w3.org/2000/svg" xmlns:xlink="http://www.w3.org/1999/xlink" x="0px" y="0px"
	 viewBox="0 0 37.9 37.9" enable-background="new 0 0 37.9 37.9" xml:space="preserve">
<g>
	<path d="M20.3,24.4l-7.6,3.1l-2,4.8c0,0,0,0,0,0c0,0,0,0,0,0c-0.8,2,0.1,4.4,2.2,5.2c0.7,0.3,1.4,0.3,2.1,0.2c0.1,0,0.2,0,0.3,0
		c1.5-0.3,2.9-1,4-2.1c0.7-0.7,1.3-1.5,1.7-2.5c1.3-3.1,0.3-5.9-0.3-7.9C20.4,25,20.3,24.7,20.3,24.4z M17.3,31.3
		c0,0.1-0.1,0.3-0.1,0.4c-0.2,0.5-0.5,0.9-0.8,1.2c-0.6,0.6-1.3,0.9-2,1l1.5-3.7l1.1-2.8C17.5,28.9,17.7,30.1,17.3,31.3z"/>
	<path d="M28.3,0.3c-2-0.8-4.4,0.1-5.2,2.2c0,0,0,0,0,0h0l-5,12l5.2-2.2L28.3,0.3z"/>
	<path d="M37.6,9.6l-19.7,8.2v0c-1.7,0.7-3.1,0.3-5.2-0.4c-2-0.7-4.8-1.6-7.9-0.3c-1,0.4-1.8,1-2.5,1.7c-1.1,1.1-1.8,2.5-2.1,4
		c0,0.1,0,0.2,0,0.3c-0.1,0.7,0,1.4,0.2,2.1c0.8,2,3.2,3,5.2,2.2c0,0,0,0,0,0c0,0,0,0,0,0l29.9-12.4v0c0,0,0,0,0,0
		C37.5,14,38.4,11.7,37.6,9.6z M7.7,22L4,23.6c0.1-0.8,0.5-1.5,1-2c0.3-0.3,0.7-0.6,1.2-0.8c0.1-0.1,0.3-0.1,0.4-0.1
		c1.2-0.4,2.3-0.2,3.8,0.3L7.7,22z"/>
</g>
<g>
</g>
<g>
</g>
<g>
</g>
<g>
</g>
<g>
</g>
<g>
</g>
<g>
</g>
<g>
</g>
<g>
</g>
<g>
</g>
<g>
</g>
<g>
</g>
<g>
</g>
<g>
</g>
<g>
</g>
</svg>
