<?xml version="1.0" encoding="utf-8"?>
<!-- Generator: Adobe Illustrator 18.1.1, SVG Export Plug-In . SVG Version: 6.00 Build 0)  -->
<svg version="1.1" id="Layer_1" xmlns="http://www.w3.org/2000/svg" xmlns:xlink="http://www.w3.org/1999/xlink" x="0px" y="0px"
	 viewBox="0 0 33.9 37.5" enable-background="new 0 0 33.9 37.5" xml:space="preserve">
<g>
	<g>
		<g>
			<g>
				<path d="M27.9,12.3v21.6c0,0-0.1,0.1-0.1,0.1H6.1C6,34,6,33.9,6,33.9V12.3H2.5v21.6c0,2,1.6,3.6,3.6,3.6h21.7
					c2,0,3.6-1.6,3.6-3.6V12.3H27.9z"/>
			</g>
		</g>
		<g>
			<g>
				<path d="M31.3,3.9H21V2.6C21,1.2,19.8,0,18.3,0h-2.8c-1.4,0-2.6,1.2-2.6,2.6v1.3H2.6C1.2,3.9,0,5.1,0,6.5V8h33.9V6.5
					C33.9,5.1,32.7,3.9,31.3,3.9z"/>
			</g>
		</g>
	</g>
	<g>
		<g>
			<g>
				<path d="M14.4,12.3v16.8c0,0.1-0.1,0.3-0.2,0.4c-0.1,0.1-0.2,0.2-0.4,0.2h-2.5c-0.1,0-0.3-0.1-0.4-0.2c-0.1-0.1-0.2-0.2-0.2-0.4
					V12.3H14.4z"/>
			</g>
		</g>
		<g>
			<g>
				<path d="M23,12.3v16.8c0,0.1-0.1,0.3-0.2,0.4c-0.1,0.1-0.3,0.2-0.4,0.2H20c-0.1,0-0.3-0.1-0.4-0.2c-0.1-0.1-0.2-0.2-0.2-0.4
					V12.3H23z"/>
			</g>
		</g>
	</g>
</g>
<g>
</g>
<g>
</g>
<g>
</g>
<g>
</g>
<g>
</g>
<g>
</g>
<g>
</g>
<g>
</g>
<g>
</g>
<g>
</g>
<g>
</g>
<g>
</g>
<g>
</g>
<g>
</g>
<g>
</g>
</svg>
