<?xml version="1.0" encoding="utf-8"?>
<!-- Generator: Adobe Illustrator 18.1.1, SVG Export Plug-In . SVG Version: 6.00 Build 0)  -->
<svg version="1.1" id="Layer_1" xmlns="http://www.w3.org/2000/svg" xmlns:xlink="http://www.w3.org/1999/xlink" x="0px" y="0px"
	 viewBox="0 0 34.8 42.5" enable-background="new 0 0 34.8 42.5" xml:space="preserve">
<g>
	<path d="M30.8,6h-4.5V4c0-2.2-1.8-4-4-4h-9.8c-2.2,0-4,1.8-4,4v2H4c-2.2,0-4,1.8-4,4v4h2.1l1.8,24.5c0,0,0,0.1,0,0.2
		c0.1,2.1,1.8,3.8,4,3.8h19.1c2.1,0,3.8-1.7,4-3.7c0-0.1,0-0.3,0-0.3L32.7,14h2.1v-4C34.8,7.8,33,6,30.8,6z M12.5,4h9.8v2h-9.8V4z
		 M28.7,14l-1.8,24.5h-19L6.1,14H4v-4h26.8v4H28.7z"/>
</g>
<g>
</g>
<g>
</g>
<g>
</g>
<g>
</g>
<g>
</g>
<g>
</g>
<g>
</g>
<g>
</g>
<g>
</g>
<g>
</g>
<g>
</g>
<g>
</g>
<g>
</g>
<g>
</g>
<g>
</g>
</svg>
