<?xml version="1.0" encoding="utf-8"?>
<!-- Generator: Adobe Illustrator 18.1.1, SVG Export Plug-In . SVG Version: 6.00 Build 0)  -->
<svg version="1.1" id="Layer_1" xmlns="http://www.w3.org/2000/svg" xmlns:xlink="http://www.w3.org/1999/xlink" x="0px" y="0px"
	 viewBox="0 0 33.1 40.3" enable-background="new 0 0 33.1 40.3" xml:space="preserve">
<g>
	<path d="M30.1,4.4h-9V3c0-1.6-1.3-3-3-3H15c-1.6,0-3,1.3-3,3v1.5H3c-1.6,0-3,1.3-3,3v3.1h33.1V7.4C33.1,5.8,31.8,4.4,30.1,4.4z
		 M26.5,35.8h-3.8V14.1h-4.2v21.8h-3.8V14.1h-4.2v21.8H6.6V14.1H2.2v23.2c0,1.6,1.3,3,3,3h22.8c1.6,0,3-1.3,3-3V14.1h-4.4V35.8z"/>
</g>
<g>
</g>
<g>
</g>
<g>
</g>
<g>
</g>
<g>
</g>
<g>
</g>
<g>
</g>
<g>
</g>
<g>
</g>
<g>
</g>
<g>
</g>
<g>
</g>
<g>
</g>
<g>
</g>
<g>
</g>
</svg>
