<?xml version="1.0" encoding="utf-8"?>
<!-- Generator: Adobe Illustrator 18.1.1, SVG Export Plug-In . SVG Version: 6.00 Build 0)  -->
<svg version="1.1" id="Layer_1" xmlns="http://www.w3.org/2000/svg" xmlns:xlink="http://www.w3.org/1999/xlink" x="0px" y="0px"
	 viewBox="0 0 612 709.3" enable-background="new 0 0 612 709.3" xml:space="preserve">
<g>
	<path d="M161.7,244.1h118.8c8.2,0,16.5-6.6,16.5-16.5v-41.2c0-8.2-8.2-16.5-16.5-16.5H161.7c-8.2,0-16.5,8.2-16.5,16.5v41.2
		C145.2,235.9,151.8,244.1,161.7,244.1z"/>
	<path d="M145.2,334.9v41.2c0,8.2,8.2,16.5,16.5,16.5H452c8.2,0,16.5-8.2,16.5-16.5v-41.2c0-8.2-8.2-16.5-16.5-16.5H161.7
		C151.8,318.4,145.2,325,145.2,334.9z"/>
	<path d="M452,466.8H161.7c-8.2,0-16.5,8.2-16.5,16.5v41.2c0,9.9,8.2,16.5,16.5,16.5H452c8.2,0,16.5-6.6,16.5-16.5v-41.2
		C468.5,473.4,460.2,466.8,452,466.8z"/>
	<path d="M600.5,179.8L600.5,179.8L600.5,179.8L432.2,11.5C425.6,4.9,414,0,404.2,0H49.5C21.4,0,0,23.1,0,49.5v610.4
		c0,26.4,21.4,49.5,49.5,49.5h513c28,0,49.5-23.1,49.5-49.5v-452C612,198,607.1,186.4,600.5,179.8z M443.7,127l42.9,42.9h-42.9V127z
		 M537.8,635.1H74.2V74.2h293.6v120.4c0,26.4,21.4,49.5,49.5,49.5h120.4V635.1z"/>
</g>
<g>
</g>
<g>
</g>
<g>
</g>
<g>
</g>
<g>
</g>
<g>
</g>
<g>
</g>
<g>
</g>
<g>
</g>
<g>
</g>
<g>
</g>
<g>
</g>
<g>
</g>
<g>
</g>
<g>
</g>
</svg>
