<?xml version="1.0" encoding="utf-8"?>
<!-- Generator: Adobe Illustrator 18.1.1, SVG Export Plug-In . SVG Version: 6.00 Build 0)  -->
<svg version="1.1" id="Layer_1" xmlns="http://www.w3.org/2000/svg" xmlns:xlink="http://www.w3.org/1999/xlink" x="0px" y="0px"
	 viewBox="0 0 39.6 38" enable-background="new 0 0 39.6 38" xml:space="preserve">
<g>
	<path d="M16.1,0c-1.2,0-3,1.1-4,2.4L1.8,15.8c-1,1.3-1.8,3.7-1.8,5.3V35c0,1.6,1.3,3,3,3h12.3c1.6,0,3-1.3,3-3V21.1
		c0-1.6-1.3-3-3-3h-6L18.3,0H16.1z M36.6,18.2h-6L39.6,0h-2.1c-1.2,0-2.9,1.1-3.9,2.4L23.2,15.8c-1,1.3-1.8,3.7-1.8,5.3V35
		c0,1.6,1.3,3,3,3h12.3c1.6,0,3-1.3,3-3V21.1C39.6,19.5,38.3,18.2,36.6,18.2z"/>
</g>
<g>
</g>
<g>
</g>
<g>
</g>
<g>
</g>
<g>
</g>
<g>
</g>
<g>
</g>
<g>
</g>
<g>
</g>
<g>
</g>
<g>
</g>
<g>
</g>
<g>
</g>
<g>
</g>
<g>
</g>
</svg>
