<?xml version="1.0" encoding="utf-8"?>
<!-- Generator: Adobe Illustrator 18.1.1, SVG Export Plug-In . SVG Version: 6.00 Build 0)  -->
<svg version="1.1" id="Layer_1" xmlns="http://www.w3.org/2000/svg" xmlns:xlink="http://www.w3.org/1999/xlink" x="0px" y="0px"
	 viewBox="0 0 46.4 35" enable-background="new 0 0 46.4 35" xml:space="preserve">
<g>
	<path d="M20.1,15.6c-2.1-1.8-4.9-2.9-7.9-2.9c-0.2,0-0.5,0-0.7,0c0.4-4.7,3.3-9.2,6.6-11.9c0.6-0.5,0.4-0.9-0.3-0.7
		C7.2,3.2-0.8,11.5,0.1,23.7c0.5,6,5.3,10.9,11.4,11.3c0.2,0,0.5,0,0.7,0c3.8,0,7.2-1.7,9.3-4.4c-1.2-2-2-4.2-2.1-6.7
		C19.2,21,19.5,18.2,20.1,15.6z M34.6,12.7c-0.2,0-0.5,0-0.7,0c0.4-4.7,3.3-9.2,6.6-11.9c0.6-0.5,0.4-0.9-0.3-0.7
		C29.6,3.2,21.5,11.5,22.4,23.7c0.5,6,5.3,10.9,11.4,11.3c0.2,0,0.5,0,0.7,0c6.5,0,11.8-5,11.8-11.1C46.4,17.7,41.1,12.7,34.6,12.7z
		"/>
</g>
<g>
</g>
<g>
</g>
<g>
</g>
<g>
</g>
<g>
</g>
<g>
</g>
<g>
</g>
<g>
</g>
<g>
</g>
<g>
</g>
<g>
</g>
<g>
</g>
<g>
</g>
<g>
</g>
<g>
</g>
</svg>
