<?xml version="1.0" encoding="utf-8"?>
<!-- Generator: Adobe Illustrator 18.1.1, SVG Export Plug-In . SVG Version: 6.00 Build 0)  -->
<svg version="1.1" id="Layer_1" xmlns="http://www.w3.org/2000/svg" xmlns:xlink="http://www.w3.org/1999/xlink" x="0px" y="0px"
	 viewBox="0 0 612 677.6" enable-background="new 0 0 612 677.6" xml:space="preserve">
<path d="M565.2,62.4H341.9V15.6c0-7.8-7.8-15.6-15.6-15.6h-39c-7.8,0-15.6,7.8-15.6,15.6v46.8H46.8C20.3,62.4,0,82.7,0,109.3V420
	c0,26.5,20.3,46.8,46.8,46.8h87.4L56.2,677.6h74.9l79.6-212.3h60.9v212.3h70.3V465.2h60.9l79.6,212.3h74.9l-79.6-212.3h87.4
	c26.5,0,46.8-20.3,46.8-46.8V109.3C612,82.7,591.7,62.4,565.2,62.4z M70.3,395V132.7h471.5v263.8H70.3V395z"/>
<g>
</g>
<g>
</g>
<g>
</g>
<g>
</g>
<g>
</g>
<g>
</g>
<g>
</g>
<g>
</g>
<g>
</g>
<g>
</g>
<g>
</g>
<g>
</g>
<g>
</g>
<g>
</g>
<g>
</g>
</svg>
