<?xml version="1.0" encoding="utf-8"?>
<!-- Generator: Adobe Illustrator 18.1.1, SVG Export Plug-In . SVG Version: 6.00 Build 0)  -->
<svg version="1.1" id="Layer_1" xmlns="http://www.w3.org/2000/svg" xmlns:xlink="http://www.w3.org/1999/xlink" x="0px" y="0px"
	 viewBox="0 0 45.7 42.4" enable-background="new 0 0 45.7 42.4" xml:space="preserve">
<g>
	<path d="M26.4,37.8l16.4-16.4c2.3-2.3,2.9-3.5,2.9-7l0-8.8c0-1.5-0.6-3-1.6-4c-1-1-2.4-1.6-4-1.6l-8.8,0c-3.5,0-4.7,0.6-7,2.9
		L5.4,21.7c-1.1,1.1-1.6,2.5-1.6,4c0,1.5,0.6,2.9,1.6,4l8.2,8.2H0v4.5h44.6l0-4.5H26.4z M29.3,5.2l11.2,0v11.2L20,36.9L8.8,25.7
		L29.3,5.2z"/>
</g>
<g>
</g>
<g>
</g>
<g>
</g>
<g>
</g>
<g>
</g>
<g>
</g>
<g>
</g>
<g>
</g>
<g>
</g>
<g>
</g>
<g>
</g>
<g>
</g>
<g>
</g>
<g>
</g>
<g>
</g>
</svg>
