<?xml version="1.0" encoding="utf-8"?>
<!-- Generator: Adobe Illustrator 18.1.1, SVG Export Plug-In . SVG Version: 6.00 Build 0)  -->
<svg version="1.1" id="Layer_1" xmlns="http://www.w3.org/2000/svg" xmlns:xlink="http://www.w3.org/1999/xlink" x="0px" y="0px"
	 viewBox="0 0 46 42.7" enable-background="new 0 0 46 42.7" xml:space="preserve">
<g>
	<path d="M26,38.1l17.9-17.9c1.7-1.7,2.1-2.8,2.1-5.2l0-12l0,0c0-0.6-0.2-1.2-0.5-1.7c0-0.1-0.1-0.1-0.1-0.2
		c-0.1-0.1-0.2-0.2-0.2-0.3c-0.1-0.1-0.2-0.2-0.3-0.2c-0.1,0-0.1-0.1-0.2-0.1C44.1,0.2,43.6,0,42.9,0h0l-12,0
		c-2.4,0-3.5,0.5-5.2,2.1l-20,20c-1,1-1.7,2.2-1.9,3.4c-0.1,0.7-0.1,1.4,0,2c0.2,1.1,0.8,2.1,1.9,3.2l7.4,7.4H0v4.5h44.6l0-4.5H26z
		 M32.4,4.6h9v0h0v9h0L32.4,4.6L32.4,4.6z M7.9,26.4l20-20l11.7,11.7l-20,20h0L7.9,26.4L7.9,26.4z"/>
</g>
<g>
</g>
<g>
</g>
<g>
</g>
<g>
</g>
<g>
</g>
<g>
</g>
<g>
</g>
<g>
</g>
<g>
</g>
<g>
</g>
<g>
</g>
<g>
</g>
<g>
</g>
<g>
</g>
<g>
</g>
</svg>
