<?xml version="1.0" encoding="utf-8"?>
<!-- Generator: Adobe Illustrator 18.1.1, SVG Export Plug-In . SVG Version: 6.00 Build 0)  -->
<svg version="1.1" id="Layer_1" xmlns="http://www.w3.org/2000/svg" xmlns:xlink="http://www.w3.org/1999/xlink" x="0px" y="0px"
	 viewBox="0 0 609.9 559.4" enable-background="new 0 0 609.9 559.4" xml:space="preserve">
<path d="M440.9,0c-54.8,0-103.1,24.1-133.8,61.4C274.2,24.1,225.9,0,173.3,0C76.8,0,0,76.8,0,168.9C2.2,261,76.8,351,147,423.4
	c72.4,72.4,142.6,122.8,142.6,125l15.4,11l15.4-11c0,0,70.2-52.6,142.6-125C533,351,607.6,261,609.8,168.9C612,76.8,535.2,0,440.9,0
	z M425.5,386.1c-32.9,35.1-68,63.6-94.3,85.5c-11,8.8-19.7,15.4-26.3,21.9c-6.6-4.4-15.4-13.2-26.3-21.9
	c-37.3-32.9-94.3-83.4-142.6-140.4S52.6,212.8,54.8,168.9c0-63.6,52.6-116.3,118.5-116.3c48.3,0,89.9,28.5,109.7,70.2l8.8,19.7l0,0
	c2.2,6.6,8.8,11,17.5,11c6.6,0,13.2-4.4,17.5-11v-2.2l8.8-19.7c17.5-41.7,59.2-70.2,107.5-70.2c65.8,0,118.5,52.6,118.5,116.3
	C559.4,230.3,495.7,318.1,425.5,386.1z"/>
<g>
</g>
<g>
</g>
<g>
</g>
<g>
</g>
<g>
</g>
<g>
</g>
<g>
</g>
<g>
</g>
<g>
</g>
<g>
</g>
<g>
</g>
<g>
</g>
<g>
</g>
<g>
</g>
<g>
</g>
</svg>
