<?xml version="1.0" encoding="utf-8"?>
<!-- Generator: Adobe Illustrator 18.1.1, SVG Export Plug-In . SVG Version: 6.00 Build 0)  -->
<svg version="1.1" id="Layer_1" xmlns="http://www.w3.org/2000/svg" xmlns:xlink="http://www.w3.org/1999/xlink" x="0px" y="0px"
	 viewBox="0 0 37.2 33.7" enable-background="new 0 0 37.2 33.7" xml:space="preserve">
<g>
	<path d="M27.4,0l0,0.3L27.4,0c-3.8,0-7.1,2.2-8.8,5.3C17,2.2,13.7,0,9.8,0C4.4,0,0,4.4,0,9.8v0.1c0,4,2.6,8.2,5.9,12.1
		c3.2,3.9,7.1,7.4,9.7,9.5c1,0.8,1.8,1.5,2.3,1.9c0.2,0.2,0.5,0.3,0.8,0.3c0.3,0,0.5-0.1,0.8-0.3c0.5-0.4,1.3-1,2.3-1.9
		c1.7-1.4,4-3.5,6.3-5.8c4.6-4.7,9.1-10.6,9.2-15.8V9.9C37.2,4.4,32.8,0,27.4,0z"/>
</g>
<g>
</g>
<g>
</g>
<g>
</g>
<g>
</g>
<g>
</g>
<g>
</g>
<g>
</g>
<g>
</g>
<g>
</g>
<g>
</g>
<g>
</g>
<g>
</g>
<g>
</g>
<g>
</g>
<g>
</g>
</svg>
