<?xml version="1.0" encoding="utf-8"?>
<!-- Generator: Adobe Illustrator 18.1.1, SVG Export Plug-In . SVG Version: 6.00 Build 0)  -->
<svg version="1.1" id="Layer_1" xmlns="http://www.w3.org/2000/svg" xmlns:xlink="http://www.w3.org/1999/xlink" x="0px" y="0px"
	 viewBox="0 0 45 43.7" enable-background="new 0 0 45 43.7" xml:space="preserve">
<g>
	<path d="M28.2,33.9v6.8H3V7.3h19.8v-3H3.9C1.8,4.3,0,6.1,0,8.2v31.6c0,2.2,1.8,3.9,3.9,3.9h23.3c2.2,0,3.9-1.8,3.9-3.9V34
		c-0.4,0.1-0.9,0.1-1.4,0.1C29.3,34.1,28.7,34,28.2,33.9z M41.8,11.9h-8.7V3.2c0-1.8-1.5-3.2-3.3-3.2c-1.8,0-3.3,1.5-3.3,3.2v8.7
		h-8.7c-1.8,0-3.2,1.5-3.2,3.3c0,1.8,1.5,3.2,3.2,3.2h8.7v8.7c0,1.8,1.5,3.3,3.3,3.3c1.8,0,3.3-1.5,3.3-3.3v-8.7h8.7
		c1.8,0,3.3-1.5,3.3-3.2C45,13.4,43.6,11.9,41.8,11.9z"/>
</g>
<g>
</g>
<g>
</g>
<g>
</g>
<g>
</g>
<g>
</g>
<g>
</g>
<g>
</g>
<g>
</g>
<g>
</g>
<g>
</g>
<g>
</g>
<g>
</g>
<g>
</g>
<g>
</g>
<g>
</g>
</svg>
