<?xml version="1.0" encoding="utf-8"?>
<!-- Generator: Adobe Illustrator 18.1.1, SVG Export Plug-In . SVG Version: 6.00 Build 0)  -->
<svg version="1.1" id="Layer_1" xmlns="http://www.w3.org/2000/svg" xmlns:xlink="http://www.w3.org/1999/xlink" x="0px" y="0px"
	 viewBox="0 0 48.5 39.4" enable-background="new 0 0 48.5 39.4" xml:space="preserve">
<g>
	<path d="M38.1,35.4c0,0.1-0.1,0.1-0.1,0.1H4c-0.1,0-0.1-0.1-0.1-0.1l0-26.3C3.9,9,4,9,4,9h11.2C18,6.5,21.3,5.4,22,5.1H4.4
		C1.9,5.1,0,7,0,9.4v25.6c0,2.4,1.9,4.3,4.3,4.4h33.3c2.4,0,4.3-1.9,4.4-4.4V24.4l-3.9,3.3V35.4z"/>
	<path d="M34,17.2"/>
	<path d="M48.1,11.6L34.6,0.2c-0.3-0.2-0.7-0.3-1-0.1C33.2,0.3,33,0.6,33,1v6.2c-4.4,0.5-21.9,3.6-21.9,20.1c0,0,3.3-9.8,21.9-10.2
		v6.3c0,0.4,0.2,0.7,0.6,0.9c0.1,0.1,0.3,0.1,0.4,0.1c0.2,0,0.4-0.1,0.6-0.2l13.5-11.1c0.2-0.2,0.4-0.5,0.4-0.8
		C48.5,12.1,48.4,11.8,48.1,11.6z"/>
</g>
<g>
</g>
<g>
</g>
<g>
</g>
<g>
</g>
<g>
</g>
<g>
</g>
<g>
</g>
<g>
</g>
<g>
</g>
<g>
</g>
<g>
</g>
<g>
</g>
<g>
</g>
<g>
</g>
<g>
</g>
</svg>
