<?xml version="1.0" encoding="utf-8"?>
<!-- Generator: Adobe Illustrator 18.1.1, SVG Export Plug-In . SVG Version: 6.00 Build 0)  -->
<svg version="1.1" id="Layer_1" xmlns="http://www.w3.org/2000/svg" xmlns:xlink="http://www.w3.org/1999/xlink" x="0px" y="0px"
	 viewBox="0 0 40.9 37.9" enable-background="new 0 0 40.9 37.9" xml:space="preserve">
<g>
	<path d="M40.8,3.6c-0.1-1.8-1.5-3.3-3.3-3.6c-0.2,0-0.4,0-0.6,0h-33C1.8,0,0,1.8,0,3.9V34c0,0.1,0,0.2,0,0.3
		c0.2,1.8,1.5,3.3,3.3,3.6c0.2,0,0.4,0,0.6,0H18c2,0,3.9-0.8,5.2-2.1l15.5-15.5c1.3-1.4,2.1-3.2,2.1-5.3V3.9
		C40.9,3.8,40.9,3.7,40.8,3.6z M25.6,29.2v-6.5h6.5L25.6,29.2z M37.9,15c0,1.2-0.5,2.3-1.2,3.1l-0.2,0.2c-0.8,0.8-1.9,1.2-3.1,1.2
		h-6.7c-2.2,0-3.9,1.8-3.9,3.9v6.7c0,1.2-0.5,2.3-1.2,3.1l-0.3,0.3c-0.8,0.8-1.9,1.2-3.1,1.2H3v-26h34.8V15z"/>
</g>
<g>
</g>
<g>
</g>
<g>
</g>
<g>
</g>
<g>
</g>
<g>
</g>
<g>
</g>
<g>
</g>
<g>
</g>
<g>
</g>
<g>
</g>
<g>
</g>
<g>
</g>
<g>
</g>
<g>
</g>
</svg>
