<?xml version="1.0" encoding="utf-8"?>
<!-- Generator: Adobe Illustrator 18.1.1, SVG Export Plug-In . SVG Version: 6.00 Build 0)  -->
<svg version="1.1" id="Layer_1" xmlns="http://www.w3.org/2000/svg" xmlns:xlink="http://www.w3.org/1999/xlink" x="0px" y="0px"
	 viewBox="0 0 44 44.9" enable-background="new 0 0 44 44.9" xml:space="preserve">
<g>
	<path d="M39.4,31.6v8.6c0,0.1-0.1,0.2-0.2,0.2H4.7c-0.1,0-0.2-0.1-0.2-0.2v-8.6H0v8.6c0,2.6,2.1,4.7,4.7,4.7h34.6
		c2.6,0,4.7-2.1,4.7-4.7v-8.6H39.4z M9.8,15.3c1.3,0,5,0,5,0v17.4h14.4l0-17.4h5c1.1,0,1.7-1.3,0.8-2.3c0,0,0,0,0,0
		C33.2,11.2,22,0,22,0v0l0,0c0,0-11.2,11.2-13,13c0,0,0,0,0,0C8.1,13.9,8.7,15.3,9.8,15.3z"/>
</g>
<g>
</g>
<g>
</g>
<g>
</g>
<g>
</g>
<g>
</g>
<g>
</g>
<g>
</g>
<g>
</g>
<g>
</g>
<g>
</g>
<g>
</g>
<g>
</g>
<g>
</g>
<g>
</g>
<g>
</g>
</svg>
