<?xml version="1.0" encoding="utf-8"?>
<!-- Generator: Adobe Illustrator 18.1.1, SVG Export Plug-In . SVG Version: 6.00 Build 0)  -->
<svg version="1.1" id="Layer_1" xmlns="http://www.w3.org/2000/svg" xmlns:xlink="http://www.w3.org/1999/xlink" x="0px" y="0px"
	 viewBox="0 0 40.3 38.4" enable-background="new 0 0 40.3 38.4" xml:space="preserve">
<g>
	<path d="M36.3,1.2h-9l3.8,3.9h5.2c0.1,0,0.1,0.1,0.1,0.1l0,29.1c0,0-0.1,0.1-0.1,0.1H4c-0.1,0-0.1-0.1-0.1-0.1l0-29.1
		c0,0,0.1-0.1,0.1-0.1h5.2l3.8-3.9H4c-2.2,0-4,1.8-4,4v29.1c0,2.2,1.8,4,4,4h32.2c2.2,0,4-1.8,4-4V5.2C40.3,3,38.5,1.2,36.3,1.2z"/>
	<path d="M31.6,11.4L20.8,0.3C20.7,0.1,20.4,0,20.2,0c-0.3,0-0.5,0.1-0.7,0.3L8.7,11.4c-0.3,0.3-0.3,0.7-0.2,1C8.6,12.8,9,13,9.4,13
		h5.9l0,11.3h9.8l0-11.3H31c0.4,0,0.7-0.2,0.9-0.6C32,12.1,31.9,11.7,31.6,11.4z"/>
</g>
<g>
</g>
<g>
</g>
<g>
</g>
<g>
</g>
<g>
</g>
<g>
</g>
<g>
</g>
<g>
</g>
<g>
</g>
<g>
</g>
<g>
</g>
<g>
</g>
<g>
</g>
<g>
</g>
<g>
</g>
</svg>
