<?xml version="1.0" encoding="utf-8"?>
<!-- Generator: Adobe Illustrator 18.1.1, SVG Export Plug-In . SVG Version: 6.00 Build 0)  -->
<svg version="1.1" id="Layer_1" xmlns="http://www.w3.org/2000/svg" xmlns:xlink="http://www.w3.org/1999/xlink" x="0px" y="0px"
	 viewBox="0 0 42.7 40.3" enable-background="new 0 0 42.7 40.3" xml:space="preserve">
<g>
	<path d="M21.7,0.2C21.6,0.1,21.5,0,21.3,0c-0.1,0-0.3,0.1-0.4,0.2L7.4,15.9c-0.1,0.1-0.2,0.4-0.1,0.5c0.1,0.2,0.3,0.3,0.4,0.3
		l6.7,0v12.8c0,0.1,0,0.2,0.1,0.3c0.1,0.1,0.2,0.1,0.3,0.1h12.9c0.1,0,0.2,0,0.3-0.1c0.1-0.1,0.1-0.2,0.1-0.3V16.7h6.7
		c0.2,0,0.4-0.1,0.4-0.3c0.1-0.2,0.1-0.4-0.1-0.5L21.7,0.2z M42.6,27.6c-0.1-0.1-0.2-0.1-0.3-0.1h-4.4c-0.1,0-0.2,0-0.3,0.1
		c-0.1,0.1-0.1,0.2-0.1,0.3v0.5V35l-32,0v-7c0-0.1,0-0.2-0.1-0.3c-0.1-0.1-0.2-0.1-0.3-0.1H0.5c-0.1,0-0.2,0-0.3,0.1
		C0,27.7,0,27.9,0,28v11.9c0,0.1,0,0.2,0.1,0.3c0.1,0.1,0.2,0.1,0.3,0.1h41.8c0.1,0,0.2,0,0.3-0.1c0.1-0.1,0.1-0.2,0.1-0.3V28
		C42.7,27.8,42.6,27.7,42.6,27.6z"/>
</g>
<g>
</g>
<g>
</g>
<g>
</g>
<g>
</g>
<g>
</g>
<g>
</g>
<g>
</g>
<g>
</g>
<g>
</g>
<g>
</g>
<g>
</g>
<g>
</g>
<g>
</g>
<g>
</g>
<g>
</g>
</svg>
