<?xml version="1.0" encoding="utf-8"?>
<!-- Generator: Adobe Illustrator 18.1.1, SVG Export Plug-In . SVG Version: 6.00 Build 0)  -->
<svg version="1.1" id="Layer_1" xmlns="http://www.w3.org/2000/svg" xmlns:xlink="http://www.w3.org/1999/xlink" x="0px" y="0px"
	 viewBox="0 0 42.9 42.7" enable-background="new 0 0 42.9 42.7" xml:space="preserve">
<g>
	<polygon points="31.8,21.4 31.8,21.3 31.8,21.4 	"/>
	<polygon points="11.4,21.4 11.4,21.4 11.4,21.3 	"/>
	<path d="M42.4,28.5l-4.7-17.7c-0.6-2.6-2.9-4.4-5.5-4.5h-2.5v3.3h2.5c0.9-0.1,2.2,1,2.3,1.9c0,0,3.9,15.5,3.9,15.5h-6.6v7.2
		c0,0.6-0.5,1-1,1H12.2c-0.6,0-1-0.4-1-1V27H4.6c0,0,3.9-15.5,3.9-15.5c0.1-0.9,1.4-2,2.3-1.9h2.5V6.3h-2.5
		c-2.7,0.1-4.9,1.9-5.5,4.5L0.5,28.5C0.1,29.8,0,30.8,0,32.1c0,0,0,4.9,0,4.9c0,3.1,2.6,5.7,5.7,5.7h31.5c3.1,0,5.7-2.6,5.7-5.7
		c0,0,0-4.9,0-4.9C42.9,30.8,42.8,29.8,42.4,28.5z"/>
	<path d="M12,14.5c-0.1,0.1-0.1,0.3-0.1,0.4c0,0.2,0,0.3,0.1,0.5l8.7,13.8c0.2,0.3,0.5,0.4,0.8,0.4c0.3,0,0.6-0.2,0.8-0.4l8.7-13.8
		c0.1-0.1,0.1-0.3,0.1-0.5c0-0.2,0-0.3-0.1-0.4c-0.2-0.3-0.5-0.5-0.8-0.5h-4.8V3.8c0-2.1-1.8-3.8-3.9-3.8c-2.1,0-3.8,1.7-3.9,4v10
		h-4.8C12.5,14,12.2,14.2,12,14.5z"/>
	<polygon points="11.4,21.4 11.4,21.4 11.4,21.4 	"/>
</g>
<g>
</g>
<g>
</g>
<g>
</g>
<g>
</g>
<g>
</g>
<g>
</g>
<g>
</g>
<g>
</g>
<g>
</g>
<g>
</g>
<g>
</g>
<g>
</g>
<g>
</g>
<g>
</g>
<g>
</g>
</svg>
