<?xml version="1.0" encoding="utf-8"?>
<!-- Generator: Adobe Illustrator 18.1.1, SVG Export Plug-In . SVG Version: 6.00 Build 0)  -->
<svg version="1.1" id="Layer_1" xmlns="http://www.w3.org/2000/svg" xmlns:xlink="http://www.w3.org/1999/xlink" x="0px" y="0px"
	 viewBox="0 0 51.8 43.1" enable-background="new 0 0 51.8 43.1" xml:space="preserve">
<g>
	<path d="M43.1,21.5C43.1,9.7,33.4,0,21.5,0S0,9.7,0,21.5c0,11.9,9.7,21.5,21.5,21.5c9,0,17.1-5.7,20.2-14.1
		C42.6,26.6,43.1,24.1,43.1,21.5z M37.9,27.6C35.4,34.4,28.8,39,21.5,39c-9.6,0-17.4-7.8-17.4-17.4c0-9.6,7.8-17.4,17.4-17.4
		c9.6,0,17.4,7.8,17.4,17.4C39,23.6,38.6,25.6,37.9,27.6z"/>
	<path d="M49.9,12.3c-1.1,0-1.9,0.9-1.9,1.9c0,3.9-1,7.5-2.7,10.7c-0.2,1.8-0.6,3.5-1.2,5.1c-0.8,2.1-1.9,4-3.2,5.7
		c6.6-4.9,10.9-12.7,10.9-21.6C51.8,13.2,51,12.3,49.9,12.3z"/>
	<path d="M21.5,8.3c-2.3,0-4.2,1.9-4.2,4.2c0,2.3,1.9,4.2,4.2,4.2c2.3,0,4.2-1.9,4.2-4.2C25.7,10.1,23.8,8.3,21.5,8.3z"/>
	<path d="M21.5,26.5c-2.3,0-4.2,1.9-4.2,4.2c0,2.3,1.9,4.2,4.2,4.2c2.3,0,4.2-1.9,4.2-4.2C25.7,28.3,23.8,26.5,21.5,26.5z"/>
	<circle cx="30.6" cy="21.5" r="4.2"/>
	<path d="M12.4,17.4c-2.3,0-4.2,1.9-4.2,4.2s1.9,4.2,4.2,4.2c2.3,0,4.2-1.9,4.2-4.2S14.7,17.4,12.4,17.4z"/>
</g>
<g>
</g>
<g>
</g>
<g>
</g>
<g>
</g>
<g>
</g>
<g>
</g>
<g>
</g>
<g>
</g>
<g>
</g>
<g>
</g>
<g>
</g>
<g>
</g>
<g>
</g>
<g>
</g>
<g>
</g>
</svg>
