<?xml version="1.0" encoding="utf-8"?>
<!-- Generator: Adobe Illustrator 18.1.1, SVG Export Plug-In . SVG Version: 6.00 Build 0)  -->
<svg version="1.1" id="Layer_1" xmlns="http://www.w3.org/2000/svg" xmlns:xlink="http://www.w3.org/1999/xlink" x="0px" y="0px"
	 viewBox="0 0 43.1 43.4" enable-background="new 0 0 43.1 43.4" xml:space="preserve">
<g>
	<path d="M38,0H5C2.3,0,0,2.3,0,5v33.4c0,2.8,2.3,5,5,5h33c2.8,0,5-2.3,5-5V5C43.1,2.3,40.8,0,38,0z M7.3,40.9H3v-4.3h4.3V40.9z
		 M7.3,32.4H3v-4.3h4.3V32.4z M7.3,23.9H3v-4.3h4.3V23.9z M7.3,15.4H3V11h4.3V15.4z M7.3,6.8H3V2.5h4.3V6.8z M32.7,40.9H10.3V23.2
		h22.4V40.9z M32.7,20.2H10.3V2.5h22.4V20.2z M40.1,40.9h-4.3v-4.3h4.3V40.9z M40.1,32.4h-4.3v-4.3h4.3V32.4z M40.1,23.9h-4.3v-4.3
		h4.3V23.9z M40.1,15.4h-4.3V11h4.3V15.4z M40.1,6.8h-4.3V2.5h4.3V6.8z"/>
</g>
<g>
</g>
<g>
</g>
<g>
</g>
<g>
</g>
<g>
</g>
<g>
</g>
<g>
</g>
<g>
</g>
<g>
</g>
<g>
</g>
<g>
</g>
<g>
</g>
<g>
</g>
<g>
</g>
<g>
</g>
</svg>
