<?xml version="1.0" encoding="utf-8"?>
<!-- Generator: Adobe Illustrator 18.1.1, SVG Export Plug-In . SVG Version: 6.00 Build 0)  -->
<svg version="1.1" id="Layer_1" xmlns="http://www.w3.org/2000/svg" xmlns:xlink="http://www.w3.org/1999/xlink" x="0px" y="0px"
	 viewBox="0 0 40.8 36.9" enable-background="new 0 0 40.8 36.9" xml:space="preserve">
<g>
	<path d="M38.6,0H2.2C1,0,0,1,0,2.2v32.5c0,1.2,1,2.2,2.2,2.2h36.4c1.2,0,2.2-1,2.2-2.2V2.2C40.8,1,39.8,0,38.6,0z M5.6,33H2.3v-3.2
		h3.2V33z M5.6,26.5H2.3v-3.2h3.2V26.5z M5.6,20.1H2.3v-3.2h3.2V20.1z M5.6,13.6H2.3v-3.2h3.2V13.6z M5.6,7.2H2.3V4h3.2V7.2z
		 M32.8,33H8V20.5h24.8V33z M32.8,16.5H8V4h24.8V16.5z M38.5,33h-3.2v-3.2h3.2V33z M38.5,26.5h-3.2v-3.2h3.2V26.5z M38.5,20.1h-3.2
		v-3.2h3.2V20.1z M38.5,13.6h-3.2v-3.2h3.2V13.6z M38.5,7.2h-3.2V4h3.2V7.2z"/>
</g>
<g>
</g>
<g>
</g>
<g>
</g>
<g>
</g>
<g>
</g>
<g>
</g>
<g>
</g>
<g>
</g>
<g>
</g>
<g>
</g>
<g>
</g>
<g>
</g>
<g>
</g>
<g>
</g>
<g>
</g>
</svg>
