<?xml version="1.0" encoding="utf-8"?>
<!-- Generator: Adobe Illustrator 18.1.1, SVG Export Plug-In . SVG Version: 6.00 Build 0)  -->
<svg version="1.1" id="Layer_1" xmlns="http://www.w3.org/2000/svg" xmlns:xlink="http://www.w3.org/1999/xlink" x="0px" y="0px"
	 viewBox="0 0 614.2 482.5" enable-background="new 0 0 614.2 482.5" xml:space="preserve">
<g>
	<path d="M576.3,0H38C15.6,0,0,15.6,0,35.7v411c0,20.1,15.6,35.7,38,35.7h538.3c20.1,0,38-15.6,38-35.7v-411
		C612,15.6,596.4,0,576.3,0z M518.2,428.8v-53.6h-55.8v53.6H149.6v-53.6H93.8v53.6h-38V53.6h38v53.6h55.8V53.6h314.9v53.6h55.8V53.6
		h38v375.2L518.2,428.8L518.2,428.8z"/>
	<rect x="93.8" y="160.8" width="55.8" height="55.8"/>
	<rect x="93.8" y="268" width="55.8" height="55.8"/>
	<rect x="464.6" y="160.8" width="55.8" height="55.8"/>
	<rect x="464.6" y="268" width="55.8" height="55.8"/>
</g>
<g>
</g>
<g>
</g>
<g>
</g>
<g>
</g>
<g>
</g>
<g>
</g>
<g>
</g>
<g>
</g>
<g>
</g>
<g>
</g>
<g>
</g>
<g>
</g>
<g>
</g>
<g>
</g>
<g>
</g>
</svg>
