<?xml version="1.0" encoding="utf-8"?>
<!-- Generator: Adobe Illustrator 18.1.1, SVG Export Plug-In . SVG Version: 6.00 Build 0)  -->
<svg version="1.1" id="Layer_1" xmlns="http://www.w3.org/2000/svg" xmlns:xlink="http://www.w3.org/1999/xlink" x="0px" y="0px"
	 viewBox="0 0 55.3 43.6" enable-background="new 0 0 55.3 43.6" xml:space="preserve">
<g>
	<path d="M2.6,35.6l-0.9-0.9L0,36.5l0.9,0.9c0.3,0.3,6.4,6.3,21,6.3H22C20.6,42.9,19.3,42,18,41C7.3,40.1,2.6,35.7,2.6,35.6z
		 M33.5,0c-12,0-21.8,9.8-21.8,21.8s9.8,21.8,21.8,21.8c12,0,21.8-9.8,21.8-21.8S45.5,0,33.5,0z M33.5,3.3c3.7,0,6.7,3,6.7,6.7
		c0,3.7-3,6.7-6.7,6.7c-3.7,0-6.7-3-6.7-6.7C26.8,6.3,29.8,3.3,33.5,3.3z M35.8,21.8c0,1.3-1.1,2.4-2.4,2.4c-1.3,0-2.4-1.1-2.4-2.4
		c0-1.3,1.1-2.4,2.4-2.4C34.8,19.4,35.8,20.5,35.8,21.8z M21.7,28.5c-3.7,0-6.7-3-6.7-6.7c0-3.7,3-6.7,6.7-6.7c3.7,0,6.7,3,6.7,6.7
		C28.4,25.5,25.4,28.5,21.7,28.5z M33.5,40.3c-3.7,0-6.7-3-6.7-6.7c0-3.7,3-6.7,6.7-6.7c3.7,0,6.7,3,6.7,6.7
		C40.2,37.3,37.2,40.3,33.5,40.3z M45.2,28.5c-3.7,0-6.7-3-6.7-6.7c0-3.7,3-6.7,6.7-6.7c3.7,0,6.7,3,6.7,6.7
		C52,25.5,49,28.5,45.2,28.5z"/>
</g>
<g>
</g>
<g>
</g>
<g>
</g>
<g>
</g>
<g>
</g>
<g>
</g>
<g>
</g>
<g>
</g>
<g>
</g>
<g>
</g>
<g>
</g>
<g>
</g>
<g>
</g>
<g>
</g>
<g>
</g>
</svg>
