<?xml version="1.0" encoding="utf-8"?>
<!-- Generator: Adobe Illustrator 18.1.1, SVG Export Plug-In . SVG Version: 6.00 Build 0)  -->
<svg version="1.1" id="Layer_1" xmlns="http://www.w3.org/2000/svg" xmlns:xlink="http://www.w3.org/1999/xlink" x="0px" y="0px"
	 viewBox="0 0 42.3 43.4" enable-background="new 0 0 42.3 43.4" xml:space="preserve">
<g>
	<path d="M0,0v43.4h42.3V0H0z M7.3,40.9H3v-4.3h4.3V40.9z M7.3,32.4H3v-4.3h4.3V32.4z M7.3,23.9H3v-4.3h4.3V23.9z M7.3,15.4H3V11
		h4.3V15.4z M7.3,6.8H3V2.5h4.3V6.8z M32,40.9H10.3V23.2H32V40.9z M32,20.3H10.3V2.5H32V20.3z M39.3,40.9H35v-4.3h4.3V40.9z
		 M39.3,32.4H35v-4.3h4.3V32.4z M39.3,23.9H35v-4.3h4.3V23.9z M39.3,15.4H35V11h4.3V15.4z M39.3,6.8H35V2.5h4.3V6.8z"/>
</g>
<g>
</g>
<g>
</g>
<g>
</g>
<g>
</g>
<g>
</g>
<g>
</g>
<g>
</g>
<g>
</g>
<g>
</g>
<g>
</g>
<g>
</g>
<g>
</g>
<g>
</g>
<g>
</g>
<g>
</g>
</svg>
