<?xml version="1.0" encoding="utf-8"?>
<!-- Generator: Adobe Illustrator 18.1.1, SVG Export Plug-In . SVG Version: 6.00 Build 0)  -->
<svg version="1.1" id="Layer_1" xmlns="http://www.w3.org/2000/svg" xmlns:xlink="http://www.w3.org/1999/xlink" x="0px" y="0px"
	 viewBox="0 0 47.6 38.4" enable-background="new 0 0 47.6 38.4" xml:space="preserve">
<g>
	<path d="M19.2,0C8.6,0,0,8.6,0,19.2c0,10.6,8.6,19.2,19.2,19.2c1.9,0,3.7-0.3,5.4-0.8c4.1-1.2,7.7-3.8,10.1-7.1
		c2.3-3.2,3.7-7.1,3.7-11.3C38.4,8.6,29.8,0,19.2,0z M19.2,2.9c3.1,0,5.6,2.5,5.6,5.6S22.3,14,19.2,14c-3.1,0-5.6-2.5-5.6-5.6
		S16.1,2.9,19.2,2.9z M21.7,19.2c0,1.4-1.1,2.5-2.5,2.5c-1.4,0-2.5-1.1-2.5-2.5c0-1.4,1.1-2.5,2.5-2.5
		C20.6,16.7,21.7,17.8,21.7,19.2z M8.5,24.7c-3.1,0-5.6-2.5-5.6-5.6c0-3.1,2.5-5.6,5.6-5.6c3.1,0,5.6,2.5,5.6,5.6
		C14,22.3,11.5,24.7,8.5,24.7z M19.2,35.5c-3.1,0-5.6-2.5-5.6-5.5c0-3.1,2.5-5.6,5.6-5.6c3.1,0,5.6,2.5,5.6,5.6
		C24.7,33,22.3,35.5,19.2,35.5z M29.9,24.7c-3.1,0-5.6-2.5-5.6-5.6c0-3.1,2.5-5.6,5.6-5.6c3.1,0,5.6,2.5,5.6,5.6
		C35.5,22.3,33,24.7,29.9,24.7z M46.7,16.2C46,15.9,45.2,16.3,45,17c-1.2,3.4-3,6.2-4.9,8.5c-0.8,2.5-2,4.9-3.6,6.9
		c4.2-3,8.5-7.6,11-14.5C47.8,17.2,47.4,16.4,46.7,16.2z"/>
</g>
<g>
</g>
<g>
</g>
<g>
</g>
<g>
</g>
<g>
</g>
<g>
</g>
<g>
</g>
<g>
</g>
<g>
</g>
<g>
</g>
<g>
</g>
<g>
</g>
<g>
</g>
<g>
</g>
<g>
</g>
</svg>
