<?xml version="1.0" encoding="utf-8"?>
<!-- Generator: Adobe Illustrator 18.1.1, SVG Export Plug-In . SVG Version: 6.00 Build 0)  -->
<svg version="1.1" id="Layer_1" xmlns="http://www.w3.org/2000/svg" xmlns:xlink="http://www.w3.org/1999/xlink" x="0px" y="0px"
	 viewBox="0 0 617 763.1" enable-background="new 0 0 617 763.1" xml:space="preserve">
<g>
	<path d="M314.7,758.2c-5-7.4-7.4-14.9-9.9-22.3c0,0,0,0,0-2.5c-9.9-22.3-17.3-44.6-22.3-66.9c-69.4-39.6-94.2-89.2-94.2-148.7
		c0-19.8,2.5-42.1,9.9-64.4c14.9-54.5,49.6-96.6,81.8-143.7c27.3-39.6,54.5-84.2,61.9-143.7c-19.8-17.3-42.1-37.2-69.4-52
		c0,7.4,0,14.9,0,22.3c0,57-22.3,94.2-52,141.2c-29.7,44.6-69.4,91.7-91.7,161.1c-7.4,27.3-12.4,54.5-12.4,81.8
		c0,52,17.3,99.1,49.6,141.2c-17.3-9.9-34.7-19.8-47.1-32.2c-34.7-34.7-52-81.8-52-133.8c0-47.1,14.9-96.6,37.2-133.8l-57-34.7
		C17.3,374.1,0,433.6,0,495.5C0,560,22.3,629.3,74.3,681.4c52,49.6,131.3,79.3,240.3,81.8C314.7,760.7,314.7,760.7,314.7,758.2
		L314.7,758.2z"/>
	<path d="M453.4,173.4C423.7,96.6,356.8,27.3,255.2,0l-17.3,64.4l0,0c114,29.7,168.5,128.8,168.5,208.1c0,19.8-2.5,37.2-9.9,54.5
		c-29.7,79.3-91.7,153.6-91.7,262.6c0,47.1,12.4,99.1,44.6,158.6l7.4,14.9c22.3,0,49.6-2.5,74.3-7.4l-22.3-39.6
		c-27.3-49.6-34.7-89.2-34.7-126.4c0-81.8,52-148.7,89.2-240.3c7.4-19.8,12.4-39.6,12.4-61.9c49.6,64.4,74.3,138.8,74.3,203.2
		c0,86.7-39.6,161.1-116.5,193.3c2.5,2.5,2.5,7.4,5,9.9l27.3,49.6C564.9,696.2,617,594.7,617,488.1C612,384,560,262.6,453.4,173.4z"
		/>
</g>
<g>
</g>
<g>
</g>
<g>
</g>
<g>
</g>
<g>
</g>
<g>
</g>
<g>
</g>
<g>
</g>
<g>
</g>
<g>
</g>
<g>
</g>
<g>
</g>
<g>
</g>
<g>
</g>
<g>
</g>
</svg>
