<?xml version="1.0" encoding="utf-8"?>
<!-- Generator: Adobe Illustrator 18.1.1, SVG Export Plug-In . SVG Version: 6.00 Build 0)  -->
<svg version="1.1" id="Layer_1" xmlns="http://www.w3.org/2000/svg" xmlns:xlink="http://www.w3.org/1999/xlink" x="0px" y="0px"
	 viewBox="0 0 545 792" enable-background="new 0 0 545 792" xml:space="preserve">
<g>
	<path d="M331.7,506.6c51.4-66.9,95.1-131.1,95.1-203.1v-2.6c0-126-133.7-259.7-198-300.9C293.2,216,2.6,272.6,0,501.4
		c-2.6,167.1,162,254.6,234,288c-5.1-18-7.7-36-7.7-54C226.3,645.4,282.9,573.4,331.7,506.6z"/>
	<path d="M473.2,336.9c-10.3,77.1-59.1,138.9-102.9,198c-51.4,66.9-95.1,131.1-95.1,198c0,18,2.6,38.6,10.3,59.1
		c36-15.4,185.1-82.3,228.9-172.3C586.3,475.7,514.3,378,473.2,336.9z"/>
</g>
<g>
</g>
<g>
</g>
<g>
</g>
<g>
</g>
<g>
</g>
<g>
</g>
<g>
</g>
<g>
</g>
<g>
</g>
<g>
</g>
<g>
</g>
<g>
</g>
<g>
</g>
<g>
</g>
<g>
</g>
</svg>
