<?xml version="1.0" encoding="utf-8"?>
<!-- Generator: Adobe Illustrator 18.1.1, SVG Export Plug-In . SVG Version: 6.00 Build 0)  -->
<svg version="1.1" id="Layer_1" xmlns="http://www.w3.org/2000/svg" xmlns:xlink="http://www.w3.org/1999/xlink" x="0px" y="0px"
	 viewBox="0 0 33.8 48.6" enable-background="new 0 0 33.8 48.6" xml:space="preserve">
<g>
	<path d="M33.7,21.6c-0.1-0.2-0.3-0.4-0.6-0.4H18L28.3,0.9c0.1-0.3,0-0.6-0.3-0.8c-0.3-0.2-0.6-0.1-0.8,0.2L0.1,27.4
		C0,27.6,0,27.8,0.1,28.1c0.1,0.2,0.3,0.4,0.6,0.4h15.1L5.4,47.7c-0.1,0.3,0,0.6,0.3,0.8c0.1,0.1,0.2,0.1,0.3,0.1
		c0.2,0,0.4-0.1,0.5-0.2l27.1-26.1C33.8,22,33.8,21.8,33.7,21.6z"/>
</g>
<g>
</g>
<g>
</g>
<g>
</g>
<g>
</g>
<g>
</g>
<g>
</g>
<g>
</g>
<g>
</g>
<g>
</g>
<g>
</g>
<g>
</g>
<g>
</g>
<g>
</g>
<g>
</g>
<g>
</g>
</svg>
