<?xml version="1.0" encoding="utf-8"?>
<!-- Generator: Adobe Illustrator 18.1.1, SVG Export Plug-In . SVG Version: 6.00 Build 0)  -->
<svg version="1.1" id="Layer_1" xmlns="http://www.w3.org/2000/svg" xmlns:xlink="http://www.w3.org/1999/xlink" x="0px" y="0px"
	 viewBox="0 0 44.2 45.6" enable-background="new 0 0 44.2 45.6" xml:space="preserve">
<g>
	<path d="M24.5,20c-0.1-0.2-0.3-0.4-0.6-0.4H13.4l7.2-18.8c0.1-0.3,0-0.6-0.3-0.8c-0.3-0.2-0.6-0.1-0.8,0.2L0.1,25.8
		C0,26,0,26.3,0.1,26.5c0.1,0.2,0.3,0.4,0.6,0.4h10.5L3.9,44.7c-0.1,0.3,0,0.6,0.3,0.8c0.1,0.1,0.2,0.1,0.3,0.1
		c0.2,0,0.4-0.1,0.5-0.2l19.4-24.6C24.6,20.5,24.6,20.2,24.5,20z M44.2,44.7L34.4,20c-0.1-0.2-0.3-0.3-0.5-0.3h-1.6
		c-0.2,0-0.4,0.1-0.5,0.3L22,44.7c-0.1,0.2,0,0.4,0.1,0.5c0.1,0.2,0.3,0.2,0.4,0.2h3.4c0.2,0,0.4-0.1,0.5-0.3l1.8-4.6H38l1.8,4.6
		c0.1,0.2,0.3,0.3,0.5,0.3h3.4c0.2,0,0.3-0.1,0.4-0.2C44.2,45,44.2,44.8,44.2,44.7z M29.8,36.3l3.3-8.3l3.3,8.3H29.8z"/>
</g>
<g>
</g>
<g>
</g>
<g>
</g>
<g>
</g>
<g>
</g>
<g>
</g>
<g>
</g>
<g>
</g>
<g>
</g>
<g>
</g>
<g>
</g>
<g>
</g>
<g>
</g>
<g>
</g>
<g>
</g>
</svg>
