<?xml version="1.0" encoding="utf-8"?>
<!-- Generator: Adobe Illustrator 18.1.1, SVG Export Plug-In . SVG Version: 6.00 Build 0)  -->
<svg version="1.1" id="Layer_1" xmlns="http://www.w3.org/2000/svg" xmlns:xlink="http://www.w3.org/1999/xlink" x="0px" y="0px"
	 viewBox="0 0 33.8 48.6" enable-background="new 0 0 33.8 48.6" xml:space="preserve">
<g>
	<path d="M28.3,0.9c0.1-0.3,0-0.6-0.3-0.8S27.4,0,27.2,0.3L16,11.5l3.1,7.6L28.3,0.9z M9.6,17.9l-9.5,9.5C0,27.6,0,27.8,0.1,28.1
		c0.1,0.2,0.3,0.4,0.6,0.4h13.2L9.6,17.9z M33.7,21.6c-0.1-0.2-0.3-0.4-0.6-0.4H19.9L24,31.5l9.6-9.2C33.8,22,33.8,21.8,33.7,21.6z
		 M5.4,47.7c-0.1,0.3,0,0.6,0.3,0.8c0.1,0.1,0.2,0.1,0.3,0.1c0.2,0,0.4-0.1,0.5-0.2l11.1-10.7l-2.9-7.3L5.4,47.7z M9,1.2
		C8.8,0.7,8.5,0.5,8,0.5c0,0-1.7,0-1.7,0c-0.6,0-0.9,0.5-0.6,1C7,4.8,24.3,47.4,24.3,47.4c0.2,0.5,0.5,0.7,1,0.7c0,0,1.7,0,1.7,0
		c0.6,0,0.8-0.5,0.6-1C27,45.4,9,1.2,9,1.2z"/>
</g>
<g>
</g>
<g>
</g>
<g>
</g>
<g>
</g>
<g>
</g>
<g>
</g>
<g>
</g>
<g>
</g>
<g>
</g>
<g>
</g>
<g>
</g>
<g>
</g>
<g>
</g>
<g>
</g>
<g>
</g>
</svg>
