<?xml version="1.0" encoding="utf-8"?>
<!-- Generator: Adobe Illustrator 18.1.1, SVG Export Plug-In . SVG Version: 6.00 Build 0)  -->
<svg version="1.1" id="Layer_1" xmlns="http://www.w3.org/2000/svg" xmlns:xlink="http://www.w3.org/1999/xlink" x="0px" y="0px"
	 viewBox="0 0 614.2 500.3" enable-background="new 0 0 614.2 500.3" xml:space="preserve">
<g>
	<path d="M256.9,196.6v29c0,2.2,0,4.5,0,8.9c2.2,8.9,4.5,20.1,8.9,29c4.5,6.7,8.9,13.4,11.2,20.1c0,2.2,0,4.5,0,6.7
		c0,4.5,0,6.7-2.2,11.2c-2.2,4.5-8.9,8.9-15.6,13.4l-44.7,31.3c-8.9,6.7-17.9,22.3-17.9,33.5V411h216.7v-31.3
		c0-11.2-6.7-26.8-17.9-33.5l-44.7-31.3c-6.7-4.5-11.2-8.9-15.6-15.6c0-2.2,0-6.7,0-8.9s0-4.5,0-6.7c2.2-8.9,6.7-13.4,11.2-20.1
		c4.5-8.9,8.9-17.9,8.9-29c0-2.2,0-4.5,0-8.9v-29c0-6.7-2.2-15.6-6.7-22.3c-2.2-2.2-4.5-6.7-6.7-8.9l-2.2-2.2l6.7-11.2H306
		c-13.4,0-24.6,4.5-31.3,8.9c-4.5,4.5-8.9,6.7-11.2,11.2s-4.5,11.2-6.7,15.6C256.9,194.3,256.9,194.3,256.9,196.6z"/>
	<path d="M576.3,53.6H285.9l-35.7-40.2l-2.2-2.2C241.2,4.5,232.3,0,221.1,0H38C15.6,0,0,15.6,0,35.7v428.8c0,20.1,15.6,35.7,38,35.7
		h538.3c20.1,0,38-15.6,38-35.7v-373C612,71.5,596.4,53.6,576.3,53.6z M556.2,446.7H55.8V53.6h156.4l46.9,53.6h297.1V446.7
		L556.2,446.7z"/>
</g>
<g>
</g>
<g>
</g>
<g>
</g>
<g>
</g>
<g>
</g>
<g>
</g>
<g>
</g>
<g>
</g>
<g>
</g>
<g>
</g>
<g>
</g>
<g>
</g>
<g>
</g>
<g>
</g>
<g>
</g>
</svg>
