<?xml version="1.0" encoding="utf-8"?>
<!-- Generator: Adobe Illustrator 18.1.1, SVG Export Plug-In . SVG Version: 6.00 Build 0)  -->
<svg version="1.1" id="Layer_1" xmlns="http://www.w3.org/2000/svg" xmlns:xlink="http://www.w3.org/1999/xlink" x="0px" y="0px"
	 viewBox="0 0 41.9 35" enable-background="new 0 0 41.9 35" xml:space="preserve">
<g>
	<path d="M41.8,8c0,0,0-0.1,0-0.1c-0.3-1.4-1.2-2.5-2.5-3c0,0-0.1,0-0.1,0c-0.4-0.1-0.8-0.2-1.3-0.2H19.2l-3.5-3.5l0,0
		C15,0.4,14,0,12.9,0H4C1.8,0,0,1.8,0,4v27c0,2.2,1.8,4,4,4h33.9c2.2,0,4-1.8,4-4V8.6C41.9,8.4,41.8,8.2,41.8,8z M37.9,31H4V4h8.9
		l4.6,4.6h20.3V31z"/>
</g>
<g>
</g>
<g>
</g>
<g>
</g>
<g>
</g>
<g>
</g>
<g>
</g>
<g>
</g>
<g>
</g>
<g>
</g>
<g>
</g>
<g>
</g>
<g>
</g>
<g>
</g>
<g>
</g>
<g>
</g>
</svg>
