<?xml version="1.0" encoding="utf-8"?>
<!-- Generator: Adobe Illustrator 18.1.1, SVG Export Plug-In . SVG Version: 6.00 Build 0)  -->
<svg version="1.1" id="Layer_1" xmlns="http://www.w3.org/2000/svg" xmlns:xlink="http://www.w3.org/1999/xlink" x="0px" y="0px"
	 viewBox="0 0 44.5 35.6" enable-background="new 0 0 44.5 35.6" xml:space="preserve">
<g>
	<path d="M44,5.2c-0.3-0.3-0.8-0.5-1.3-0.5H27.4l-4.2-4.2C22.8,0.2,22.4,0,21.9,0H8C7.5,0,7.1,0.2,6.7,0.5C6.4,0.9,6.2,1.3,6.2,1.8
		v7.9h3.6V3.6h11.3l4.2,4.2c0.3,0.3,0.8,0.5,1.3,0.5h14.3V32H9.8v-6.1H6.2v7.9c0,0.5,0.2,0.9,0.5,1.3c0.3,0.3,0.8,0.5,1.3,0.5h34.7
		c0.5,0,0.9-0.2,1.3-0.5c0.3-0.3,0.5-0.8,0.5-1.3V6.5C44.5,6,44.3,5.6,44,5.2z"/>
	<path d="M15.7,21.8v4.7c0,0.3,0.2,0.6,0.5,0.7c0.3,0.1,0.6,0.1,0.8-0.2l9-8.7c0.1-0.1,0.2-0.3,0.2-0.5c0-0.2-0.1-0.4-0.2-0.5
		l-9-8.7c-0.2-0.2-0.5-0.3-0.8-0.2c-0.3,0.1-0.5,0.4-0.5,0.7v4.8H0v8H15.7z"/>
</g>
<g>
</g>
<g>
</g>
<g>
</g>
<g>
</g>
<g>
</g>
<g>
</g>
<g>
</g>
<g>
</g>
<g>
</g>
<g>
</g>
<g>
</g>
<g>
</g>
<g>
</g>
<g>
</g>
<g>
</g>
</svg>
