<?xml version="1.0" encoding="utf-8"?>
<!-- Generator: Adobe Illustrator 18.1.1, SVG Export Plug-In . SVG Version: 6.00 Build 0)  -->
<svg version="1.1" id="Layer_1" xmlns="http://www.w3.org/2000/svg" xmlns:xlink="http://www.w3.org/1999/xlink" x="0px" y="0px"
	 viewBox="0 0 612 515.2" enable-background="new 0 0 612 515.2" xml:space="preserve">
<g>
	<polygon points="58.8,304.3 131.4,376.9 186.7,376.9 186.7,221.3 131.4,221.3 131.4,293.9 58.8,221.3 0,221.3 0,376.9 58.8,376.9 	
		"/>
	<g>
		<path d="M563.6,83H304.3l-41.5-51.9C252.4,13.8,231.7,0,210.9,0H48.4C20.7,0,0,20.7,0,48.4v83V166h58.8V58.8h152.1
			c0,0,3.5,0,3.5,3.5l55.3,76.1h283.5v318.1H58.8v-24.2H0v34.6c0,27.7,20.7,48.4,48.4,48.4h515.2c27.7,0,48.4-20.7,48.4-48.4V131.4
			C612,103.7,591.3,83,563.6,83z"/>
	</g>
</g>
<g>
</g>
<g>
</g>
<g>
</g>
<g>
</g>
<g>
</g>
<g>
</g>
<g>
</g>
<g>
</g>
<g>
</g>
<g>
</g>
<g>
</g>
<g>
</g>
<g>
</g>
<g>
</g>
<g>
</g>
</svg>
