<?xml version="1.0" encoding="utf-8"?>
<!-- Generator: Adobe Illustrator 18.1.1, SVG Export Plug-In . SVG Version: 6.00 Build 0)  -->
<svg version="1.1" id="Layer_1" xmlns="http://www.w3.org/2000/svg" xmlns:xlink="http://www.w3.org/1999/xlink" x="0px" y="0px"
	 viewBox="0 0 612 515.2" enable-background="new 0 0 612 515.2" xml:space="preserve">
<g>
	<polygon points="38,276.6 65.7,325 96.8,276.6 96.8,376.9 134.8,376.9 134.8,224.7 96.8,224.7 65.7,273.2 38,224.7 0,224.7 
		0,376.9 38,376.9 	"/>
	<polygon points="238.6,376.9 238.6,314.6 287,245.5 255.9,224.7 221.3,273.2 183.3,224.7 152.1,245.5 200.5,311.2 200.5,376.9 	"/>
	<path d="M563.6,83H304.3l-41.5-51.9C252.4,13.8,231.7,0,210.9,0H48.4C20.7,0,0,20.7,0,48.4v83v38h58.8V58.8h152.1
		c0,0,3.5,0,3.5,3.5l55.3,76.1h283.5v318.1H58.8v-24.2H0v34.6c0,27.7,20.7,48.4,48.4,48.4h515.2c27.7,0,48.4-20.7,48.4-48.4V131.4
		C612,103.7,591.3,83,563.6,83z"/>
</g>
<g>
</g>
<g>
</g>
<g>
</g>
<g>
</g>
<g>
</g>
<g>
</g>
<g>
</g>
<g>
</g>
<g>
</g>
<g>
</g>
<g>
</g>
<g>
</g>
<g>
</g>
<g>
</g>
<g>
</g>
</svg>
