<?xml version="1.0" encoding="utf-8"?>
<!-- Generator: Adobe Illustrator 18.1.1, SVG Export Plug-In . SVG Version: 6.00 Build 0)  -->
<svg version="1.1" id="Layer_1" xmlns="http://www.w3.org/2000/svg" xmlns:xlink="http://www.w3.org/1999/xlink" x="0px" y="0px"
	 viewBox="0 0 47 29.7" enable-background="new 0 0 47 29.7" xml:space="preserve">
<g>
	<g>
		<g>
			<circle cx="15.1" cy="8.6" r="2"/>
			<circle cx="15.1" cy="15.9" r="2"/>
			<circle cx="11.4" cy="12.3" r="2"/>
			<circle cx="18.8" cy="12.3" r="2"/>
			<circle cx="31.9" cy="8.6" r="2"/>
			<circle cx="31.9" cy="15.9" r="2"/>
			<circle cx="28.2" cy="12.3" r="2"/>
			<circle cx="35.6" cy="12.3" r="2"/>
			<path d="M46.7,19.5L43.3,8.2c-1.5-4.7-6-8.1-10.9-8.2H14.6C9.7,0.1,5.2,3.5,3.7,8.2L0.3,19.5C0.1,20.2,0,20.9,0,21.6
				c0,3,1.8,5.8,4.7,7L6,29.1c1.1,0.4,2.3,0.6,3.5,0.6c2.3,0,4.5-0.7,6.1-2.4c0.8-1,4.1-2.4,6.2-2.3l3.4,0c2.1-0.1,5.4,1.3,6.2,2.3
				c1.6,1.7,3.8,2.3,6.1,2.4c1.2,0,2.3-0.2,3.4-0.6l1.4-0.5c2.9-1.1,4.7-4,4.7-7C47,20.9,46.9,20.2,46.7,19.5z M40.9,24.8l-1.4,0.5
				c-0.6,0.2-1.3,0.4-2,0.4c-1.4,0-2.7-0.5-3.1-1c-2.2-2.3-5.8-3.6-9.2-3.7l-3.4,0c-3.4,0.1-7,1.4-9.2,3.7c-0.4,0.5-1.7,1.1-3.1,1
				c-0.7,0-1.4-0.1-2-0.4l-1.3-0.5C4.9,24.4,4,23,4,21.6c0-0.3,0-0.6,0.1-0.9L7.5,9.4c0.8-2.8,4.3-5.4,7.1-5.4h17.8
				c2.8-0.1,6.3,2.6,7.1,5.4l3.4,11.3c0.1,0.3,0.1,0.6,0.1,0.9C43,23,42.1,24.4,40.9,24.8z"/>
		</g>
	</g>
</g>
<g>
</g>
<g>
</g>
<g>
</g>
<g>
</g>
<g>
</g>
<g>
</g>
<g>
</g>
<g>
</g>
<g>
</g>
<g>
</g>
<g>
</g>
<g>
</g>
<g>
</g>
<g>
</g>
<g>
</g>
</svg>
