<?xml version="1.0" encoding="utf-8"?>
<!-- Generator: Adobe Illustrator 18.1.1, SVG Export Plug-In . SVG Version: 6.00 Build 0)  -->
<svg version="1.1" id="Layer_1" xmlns="http://www.w3.org/2000/svg" xmlns:xlink="http://www.w3.org/1999/xlink" x="0px" y="0px"
	 viewBox="0 0 52.5 48.2" enable-background="new 0 0 52.5 48.2" xml:space="preserve">
<g>
	<path d="M52.3,39.4c-0.4-1.7-3.1-11.9-3.4-13.1c-0.3-1.2-3.3-10.8-13.2-10.8h-8.1c0,0,0-1.3,0-1.7c0-2.5,0.3-4.6,2.3-6.1
		C32.4,5.6,32.9,2.7,33,0h-2.6c-0.1,2.2-0.5,4.2-2.2,5.6c-0.9,0.7-1.5,1.4-1.9,2.2c-1.1,1.8-1.3,3.8-1.3,5.9c0,0.5,0,1.7,0,1.7
		s-1.9,0-8.1,0c-10,0-12.9,9.6-13.2,10.8c-0.3,1.2-3,11.4-3.4,13.1c-1.1,4.4,2.7,8.7,7.2,8.8c0.3,0,0.6,0,0.9,0c5.4-0.5,9.4-7,18-7
		l0,0c8.5,0,12.5,6.4,18,7c0.3,0,0.6,0,0.9,0C49.6,48.1,53.4,43.8,52.3,39.4z M9.4,31.2c-0.7,0-1.3-0.3-1.7-0.7
		c-0.5-0.5-0.7-1.1-0.7-1.7c0-0.7,0.3-1.3,0.7-1.7c0.5-0.5,1.1-0.7,1.7-0.7c1.3,0,2.4,1.1,2.4,2.4C11.8,30.1,10.7,31.2,9.4,31.2z
		 M14.4,36.3c-1.3,0-2.4-1.1-2.4-2.4c0-1.3,1.1-2.4,2.4-2.4c1.3,0,2.4,1.1,2.4,2.4C16.9,35.2,15.8,36.3,14.4,36.3z M14.4,26.1
		c-1.3,0-2.4-1.1-2.4-2.4c0-0.7,0.3-1.3,0.7-1.7c0.5-0.5,1.1-0.7,1.7-0.7c0.7,0,1.3,0.3,1.7,0.7c0.5,0.5,0.7,1.1,0.7,1.7
		C16.9,25,15.8,26.1,14.4,26.1z M19.5,31.2c-1.3,0-2.4-1.1-2.4-2.4c0-1.3,1.1-2.4,2.4-2.4c1.3,0,2.4,1.1,2.4,2.4
		C22,30.1,20.9,31.2,19.5,31.2z M32.9,31.2c-0.7,0-1.3-0.3-1.7-0.7c-0.5-0.5-0.7-1.1-0.7-1.7c0-0.7,0.3-1.3,0.7-1.7
		c0.5-0.5,1.1-0.7,1.7-0.7c1.3,0,2.4,1.1,2.4,2.4C35.4,30.1,34.3,31.2,32.9,31.2z M38,36.3c-1.3,0-2.4-1.1-2.4-2.4
		c0-1.3,1.1-2.4,2.4-2.4c1.3,0,2.4,1.1,2.4,2.4C40.5,35.2,39.4,36.3,38,36.3z M38,26.1c-1.3,0-2.4-1.1-2.4-2.4
		c0-0.7,0.3-1.3,0.7-1.7c0.5-0.5,1.1-0.7,1.7-0.7c0.7,0,1.3,0.3,1.7,0.7c0.5,0.5,0.7,1.1,0.7,1.7C40.5,25,39.4,26.1,38,26.1z
		 M43.1,31.2c-1.3,0-2.4-1.1-2.4-2.4c0-1.3,1.1-2.4,2.4-2.4c1.3,0,2.4,1.1,2.4,2.4C45.5,30.1,44.4,31.2,43.1,31.2z"/>
</g>
<g>
</g>
<g>
</g>
<g>
</g>
<g>
</g>
<g>
</g>
<g>
</g>
<g>
</g>
<g>
</g>
<g>
</g>
<g>
</g>
<g>
</g>
<g>
</g>
<g>
</g>
<g>
</g>
<g>
</g>
</svg>
