<?xml version="1.0" encoding="utf-8"?>
<!-- Generator: Adobe Illustrator 18.1.1, SVG Export Plug-In . SVG Version: 6.00 Build 0)  -->
<svg version="1.1" id="Layer_1" xmlns="http://www.w3.org/2000/svg" xmlns:xlink="http://www.w3.org/1999/xlink" x="0px" y="0px"
	 viewBox="0 0 51.1 33.5" enable-background="new 0 0 51.1 33.5" xml:space="preserve">
<g>
	<path d="M50.9,23l-3.1-11.8C47.5,10.1,44.4,0,34,0H17.1C9.3,0,4.8,6,3.3,11.2l-0.9,3.5C1.6,17.9,0.5,22,0.2,23
		c-0.6,2.3-0.1,4.8,1.5,6.9c1.6,2.2,4.2,3.5,7.1,3.6c0.3,0,0.6,0,0.9,0c2.5-0.2,4.6-1.5,6.8-2.9c2.6-1.6,5.3-3.3,9.1-3.3
		c3.8,0,6.5,1.7,9.1,3.3c2.2,1.4,4.2,2.7,6.8,2.9c0.3,0,0.6,0,0.9,0h0.2c2.7-0.1,5.2-1.4,6.9-3.6C51,27.9,51.5,25.4,50.9,23z
		 M46.2,27.4c-0.9,1.2-2.3,1.9-3.7,2l-0.1,2v-2c-0.2,0-0.3,0-0.5,0c-1.6-0.2-3.2-1.1-5-2.3c-2.8-1.8-6.3-4-11.3-4s-8.5,2.2-11.3,4
		c-1.8,1.2-3.4,2.2-5,2.3c-0.2,0-0.3,0-0.5,0c-1.4,0-2.8-0.8-3.7-2c-0.5-0.6-1.2-1.8-0.8-3.4c0.3-1,1.3-5.1,2.1-8.2l0.9-3.5
		c0.4-1.4,2.7-8.2,9.9-8.2H34c7.2,0,9.5,6.8,9.9,8.2l3,11.8C47.3,25.6,46.6,26.8,46.2,27.4z"/>
	<path d="M16.2,10c-2.6,0-4.6,2.1-4.6,4.6c0,2.6,2.1,4.6,4.6,4.6c2.6,0,4.6-2.1,4.6-4.6C20.8,12.1,18.7,10,16.2,10z"/>
	<path d="M35.6,10c-2.6,0-4.6,2.1-4.6,4.6c0,2.6,2.1,4.6,4.6,4.6c2.6,0,4.6-2.1,4.6-4.6C40.2,12.1,38.2,10,35.6,10z"/>
</g>
<g>
</g>
<g>
</g>
<g>
</g>
<g>
</g>
<g>
</g>
<g>
</g>
<g>
</g>
<g>
</g>
<g>
</g>
<g>
</g>
<g>
</g>
<g>
</g>
<g>
</g>
<g>
</g>
<g>
</g>
</svg>
