<?xml version="1.0" encoding="utf-8"?>
<!-- Generator: Adobe Illustrator 18.1.1, SVG Export Plug-In . SVG Version: 6.00 Build 0)  -->
<svg version="1.1" id="Layer_1" xmlns="http://www.w3.org/2000/svg" xmlns:xlink="http://www.w3.org/1999/xlink" x="0px" y="0px"
	 viewBox="0 0 45 37.6" enable-background="new 0 0 45 37.6" xml:space="preserve">
<g>
	<path d="M27.2,10.3l6-3.2c0.7-0.4,1-1.3,0.6-2c-0.4-0.7-1.3-1-2-0.6h0l-6.1,3.2l2.5-5.6c0.3-0.8,0-1.6-0.8-2c-0.8-0.3-1.6,0-2,0.8
		l0,0l-2.8,6.4l-2.8-6.4c-0.3-0.8-1.2-1.1-2-0.8c-0.8,0.3-1.1,1.2-0.8,2l2.5,5.6l-6.1-3.2c-0.7-0.4-1.6-0.1-2,0.6
		c-0.4,0.7-0.1,1.6,0.6,2l6,3.2 M17.9,10.3H3c-1.7,0-3,1.3-3,3v21.3c0,1.7,1.3,3,3,3h39c1.7,0,3-1.3,3-3V13.3c0-1.7-1.3-3-3-3H27.2
		 M42,13.3v9.1H24v-9.1L42,13.3L42,13.3z M3,13.3h18v9.1H3c0,0,0,0,0,0V13.3L3,13.3z M3,25.4C3,25.4,3,25.4,3,25.4h18v9.1H3V25.4z
		 M42,34.6H24v-9.1h18V34.6z"/>
</g>
<g>
</g>
<g>
</g>
<g>
</g>
<g>
</g>
<g>
</g>
<g>
</g>
<g>
</g>
<g>
</g>
<g>
</g>
<g>
</g>
<g>
</g>
<g>
</g>
<g>
</g>
<g>
</g>
<g>
</g>
</svg>
