<?xml version="1.0" encoding="utf-8"?>
<!-- Generator: Adobe Illustrator 18.1.1, SVG Export Plug-In . SVG Version: 6.00 Build 0)  -->
<svg version="1.1" id="Layer_1" xmlns="http://www.w3.org/2000/svg" xmlns:xlink="http://www.w3.org/1999/xlink" x="0px" y="0px"
	 viewBox="0 0 45.8 39.2" enable-background="new 0 0 45.8 39.2" xml:space="preserve">
<g>
	<path d="M42.6,10.3H32.1l4.3-3.4c0.4-0.3,0.5-1,0.2-1.4l-1.6-2c-0.3-0.4-1-0.5-1.4-0.2L24.9,10V1c0-0.5-0.5-1-1-1h-2.6
		c-0.5,0-1,0.4-1,1v9l-8.7-6.8c-0.4-0.3-1.1-0.3-1.4,0.2l-1.6,2C8.2,5.9,8.3,6.6,8.7,6.9l4.3,3.4H3.2c-1.8,0-3.2,1.5-3.2,3.2v22.4
		c0,1.8,1.5,3.2,3.2,3.2h39.3c1.8,0,3.2-1.5,3.2-3.2V13.5C45.8,11.7,44.4,10.3,42.6,10.3z M20.4,34.7H4.4v-7.5h15.9V34.7z
		 M20.4,22.8H4.4v-8.1h15.9V22.8z M41.4,34.7H24.8v-7.5h16.6V34.7z M41.4,22.8H24.8v-8.1h16.6V22.8z"/>
</g>
<g>
</g>
<g>
</g>
<g>
</g>
<g>
</g>
<g>
</g>
<g>
</g>
<g>
</g>
<g>
</g>
<g>
</g>
<g>
</g>
<g>
</g>
<g>
</g>
<g>
</g>
<g>
</g>
<g>
</g>
</svg>
