<?xml version="1.0" encoding="utf-8"?>
<!-- Generator: Adobe Illustrator 18.1.1, SVG Export Plug-In . SVG Version: 6.00 Build 0)  -->
<svg version="1.1" id="Layer_1" xmlns="http://www.w3.org/2000/svg" xmlns:xlink="http://www.w3.org/1999/xlink" x="0px" y="0px"
	 viewBox="0 0 41.1 41.1" enable-background="new 0 0 41.1 41.1" xml:space="preserve">
<g>
	<path d="M20.6,0C9.2,0,0,9.2,0,20.6c0,11.4,9.2,20.6,20.6,20.6c11.4,0,20.6-9.2,20.6-20.6C41.1,9.2,31.9,0,20.6,0z M16.1,1.5
		l-0.2,0.3c0,0.2,0,0.5,0,0.6c0,0,0,0.1,0,0.1c0,0.2-0.2,0.6-0.4,0.7c-0.5,0.3-1,0.3-1.3,0.4c-0.4,0.2-0.4,0.7-0.7,1.4
		c-0.1,0.2-0.3,0.7-0.3,0.9c0,0,0,0,0.1,0c0.1,0,0.3,0,0.5,0.1c0.3,0.1,0.7,0.3,0.9,0.3c0,0,0,0,0,0c0.1-0.1,0-0.6,0.4-1.1l1.7-1.9
		c0.3-0.2,0.5-0.3,0.5-0.3c0.3-0.2,0.6-0.3,0.9-0.5c0.1,0,0.5-0.4,1-0.4c0,0,0.2,0,0.2,0c0.7,0.5,0.5,1.3,0.7,1.6
		c0,0.4,0,0.8,0.1,1.3c0.1,0.5,0.1,1,0.1,1.5c0,0.2,0,0.3,0,0.5c0,0.7-0.8,0.9-1.1,0.8c-0.1,0-0.1,0-0.1,0c-0.1,0-0.1,0-0.2,0
		c-0.3,0-0.5,0-0.5,0c-0.1,0-0.1,0.2-0.3,0.4c-0.2,0.2-0.5,0.5-0.7,0.7c-0.3,0.3-0.6,0.6-1,0.9l-2,2.2c-0.5,0.4-1,0.9-1.6,1.3
		c-0.4,0.3-0.5,0.5-0.7,1c-0.2,0.4-0.4,0.9-0.5,1.3c0,0.1,0,0.1,0,0.2c0,0.2,0.1,0.5,0.1,0.8c0,0.1,0.2,0.5,0.2,0.9
		c0,0.1,0,0.3-0.2,0.5c-0.3,0.2-0.9,0.3-1.1,0.3c-0.1,0-0.2,0-0.4-0.1c-0.4-0.4-0.4-1-0.5-1.2c-0.1-0.3-0.2-0.7-0.3-1
		c-0.1-0.3-0.2-0.5-0.3-0.8c-0.1-0.2-0.1-0.4-0.1-0.6c0,0,0,0-0.1,0.1c-0.4,0.3-0.9,0.5-0.9,0.6c0,0.1,0,0.2,0,0.3
		c0,0.3,0.1,0.7,0.1,1.1c0,0.4,0,0.8,0.1,1.2l0.5,1.7l1.1,1.6c0.3,0.7,0.4,1,0.6,1c0,0,0.1,0,0.1,0c0.4,0,0.8-0.3,1.5-0.3l2.4-0.1
		c0.2,0,0.4-0.1,0.7-0.1c0.3,0,0.6,0.1,1,0.3c0.3,0.3,0.7,0.5,1,0.8c0.5,0.4,1.1,0.8,1.6,1.2c0.5,0.4,0.7,1,1,1.3
		c0.3,0.4,1,0.7,1.6,1c0.3,0.1,0.6,0.3,0.9,0.4c0.3,0.1,0.8,0.2,1.2,0.3c0.9,0.1,1.3,0.7,1.7,1.1c0.3,0.3,0.6,0.6,1,0.9
		c0.3,0.4,0.2,0.5,0.2,0.8c0,0.2,0,0.8,0,0.8c0,0.7-0.4,1.2-0.7,1.7c-0.2,0.3-0.3,0.8-0.7,1.1c-0.3,0.3-0.7,0.6-1,0.8
		c-0.2,0.2-0.5,0.4-0.8,0.6c-0.2,0.1-0.5,0.8-0.7,1.2c-0.2,0.3-0.4,0.6-0.6,1c-0.2,0.4-0.6,0.7-1.1,0.8c-0.2,0.1-0.5,0.2-0.7,0.3
		c-0.7,0.3-0.7,0.2-0.8,0.5c0,0.1,0,0.1,0,0.1c0,0.3,0.1,0.7,0.1,1.2l0,0.1c-0.7,0-1.4-0.1-2.1-0.2l-0.8-1.3c-0.6-0.4-1.5-0.9-1.5-2
		c0-0.3,0-0.6,0-1c0,0,0-0.1,0-0.1c0-0.2,0-0.4,0-0.6c0-0.2,0-0.4-0.1-0.5c-0.1-0.2-0.5-0.3-1-0.6l-1.7-1.6c-0.3-0.3-0.5-0.7-0.8-1
		c-0.2-0.3-0.7-0.7-0.9-1.2c-0.2-0.5-0.2-0.9-0.2-1.2c-0.1-0.6-0.2-1.3-0.3-1.9c0-0.4,0-0.8-0.1-1.2c0-0.8,0-1.2-0.3-1.6
		c-0.3-0.4-0.7-0.8-1.1-1.2c-0.4-0.4-0.8-0.9-1.1-1.3c-0.1-0.1-0.4-0.3-0.6-0.7L6,18.5l-1.1-2l-2.5-3.2C4.7,7.5,9.8,3,16.1,1.5z
		 M33.3,35.4l0.2-4.1c0.1-0.6,0.1-1.1,0.2-1.7c0.1-0.8,0.2-1.5,0.2-2.3c0,0,0-0.1,0-0.1c0-0.3-0.1-0.7-0.1-1c-0.1-0.4,0-0.4-0.2-0.5
		c-0.5-0.3-0.9-0.3-1.5-0.3c-0.1,0-0.2,0-0.4,0h-1.6c-0.4,0-0.8,0-1.2,0c-0.1,0-0.3,0-0.5,0c-0.1,0-0.2,0-0.3,0
		c-0.5-0.1-0.8-0.4-1-0.5c-0.3-0.2-0.7-0.4-0.9-1c-0.1-0.4-0.2-0.8-0.3-1.1c-0.1-0.5-0.5-1.2-0.5-2c0-0.8,0-1.1,0-1.8
		c0-0.1,0-0.2,0-0.3c0-1,0.3-1.9,0.5-2.8c0.2-0.9,1.2-1.2,1.6-1.5c0.5-0.4,1.1-1.1,2-1.4c0.3-0.1,0.5-0.1,0.8-0.1c0.2,0,0.4,0,0.6,0
		c0.2,0,0.6,0.1,0.7,0.4c0.2,0.3,0.4,0.6,0.4,0.7c0.1,0.4,0.2,0.4,0.2,0.4c0.2,0.1,0.9,0.4,1.1,0.4c0.1,0.1,0.7-0.4,1.1-0.7
		c0,0,0,0,0,0c0,0,0-0.1,0.1-0.1c0-0.1,0.1-0.3,0.1-0.5c0-0.2,0.3-0.7,0.7-0.7c0,0,0.1,0,0.2,0c0.1,0,0.3,0,0.4,0
		c0.1,0,0.2,0,0.3-0.1c0.1,0,0.2-0.3,0.3-0.6c-0.1-0.1-0.2-0.2-0.3-0.2c-0.3-0.2-0.6-0.4-0.6-0.4c-0.2-0.1-0.3-0.1-0.6-0.1
		c-0.3,0-0.6,0.1-1,0.1h-0.1l-0.1,0c-0.4-0.2-0.8-0.4-1.2-0.6c-0.6-0.3-1-0.6-1.5-0.6c-0.1,0-0.1,0-0.2,0c-0.2,0.1-0.5,0.1-0.7,0.2
		c-0.3,0.1-0.5,0.1-0.8,0.2l-1.1,1c-0.2,0.1-0.4,0.2-0.5,0.3c-0.2,0.1-0.4,0.3-0.8,0.3c-0.4,0-0.6-0.5-0.6-0.7c0-0.1,0-0.2,0-0.4
		c0-0.2,0-0.5,0-0.8c0.1-0.4,0.2-0.7,0.2-1.1C27,9,27,8.5,27.1,8c0.2-0.4,0.5-0.7,0.6-0.9c0.2-0.3,0.5-0.6,0.7-1
		C28.9,5.7,28.9,5,29,4.3V2.9c2.1,1,3.9,2.3,5.5,4l0,0.4c0,0,0,0-0.1,0c-0.1,0-0.2,0.1-0.3,0.2c-0.1,0.1-0.2,0.1-0.3,0.2
		c0.1,0.2,0.3,0.3,0.5,0.6c0.3,0.4,0.6,0.4,1.3,0.6C36,8.9,36.1,8.9,36.3,9c0.9,1.2,1.7,2.5,2.3,3.9L38.3,14c-0.1,0.6-0.4,1-0.4,1.3
		c0,0,0,0.1,0,0.1c0,0.1,0.1,0.2,0.2,0.3c0.4,0.4,1,0.8,1.7,1.2c0.2,1.2,0.4,2.5,0.4,3.8C40.2,26.5,37.5,31.8,33.3,35.4z"/>
</g>
<g>
</g>
<g>
</g>
<g>
</g>
<g>
</g>
<g>
</g>
<g>
</g>
<g>
</g>
<g>
</g>
<g>
</g>
<g>
</g>
<g>
</g>
<g>
</g>
<g>
</g>
<g>
</g>
<g>
</g>
</svg>
