<?xml version="1.0" encoding="utf-8"?>
<!-- Generator: Adobe Illustrator 18.1.1, SVG Export Plug-In . SVG Version: 6.00 Build 0)  -->
<svg version="1.1" id="Layer_1" xmlns="http://www.w3.org/2000/svg" xmlns:xlink="http://www.w3.org/1999/xlink" x="0px" y="0px"
	 viewBox="0 0 41.1 41.1" enable-background="new 0 0 41.1 41.1" xml:space="preserve">
<g>
	<path d="M20.6,0C9.2,0,0,9.2,0,20.6c0,11.4,9.2,20.6,20.6,20.6c11.4,0,20.6-9.2,20.6-20.6C41.1,9.2,31.9,0,20.6,0z M36.9,15.6
		c-0.1-0.5,0.2-0.9,0.4-1.5l0.3-1.5c0.7,1.5,1.2,3.1,1.5,4.7c-0.6-0.5-1.4-0.8-1.9-1.3C37,15.9,37,15.8,36.9,15.6z M33.9,7.4
		C34.7,8.1,35.4,9,36,9.9c-0.3-0.1-0.6-0.2-0.9-0.3c-0.6-0.2-1.1-0.2-1.5-0.7c-0.2-0.2-0.4-0.4-0.5-0.6c-0.2-0.2-0.2-0.3,0-0.4
		C33.2,7.8,33.9,7.4,33.9,7.4z M1.8,20.6c0-2.6,0.5-5.1,1.5-7.3l2.5,3.1l1.1,2l0.9,2.2c0.1,0.2,0.4,0.4,0.5,0.6
		C8.6,21.6,9,22,9.3,22.5c0.3,0.4,0.7,0.8,1,1.2c0.5,0.5,0.4,1.1,0.4,1.8c0,0.4,0,0.7,0.1,1.1c0,0.6,0.2,1.2,0.3,1.8
		c0.1,0.3,0.1,0.7,0.2,1.1c0.2,0.4,0.6,0.7,0.8,1.1c0.2,0.3,0.5,0.7,0.7,1l1.6,1.4c0.3,0.3,0.8,0.4,1,0.7c0.3,0.4,0.1,0.9,0.1,1.4
		c0,0.3,0,0.6,0,0.9c0,0.9,0.7,1.3,1.4,1.7l0.8,1.3l0.6,0.3C9,38.1,1.8,30.2,1.8,20.6z M19.1,39.3c0-0.4-0.1-0.9-0.1-1.3
		c0-0.6,0.5-0.6,1-0.8c0.2-0.1,0.5-0.2,0.7-0.3c0.4-0.2,0.6-0.3,0.8-0.7c0.2-0.3,0.4-0.6,0.6-0.9c0.2-0.3,0.5-1,0.8-1.3
		c0.2-0.2,0.5-0.4,0.7-0.6c0.3-0.2,0.6-0.5,0.9-0.8c0.3-0.3,0.4-0.7,0.6-1c0.3-0.5,0.6-0.9,0.6-1.5c0-0.2,0.1-1-0.1-1.1
		c-0.3-0.3-0.6-0.5-0.9-0.8c-0.5-0.4-0.8-0.9-1.5-1c-0.4-0.1-0.9-0.1-1.3-0.3c-0.3-0.1-0.6-0.3-0.9-0.4c-0.6-0.3-1.3-0.5-1.7-1
		c-0.3-0.3-0.5-0.9-0.9-1.2c-0.5-0.4-1-0.8-1.6-1.2c-0.3-0.2-0.7-0.5-1-0.7c-0.4-0.4-0.8-0.2-1.3-0.2l-2.3,0.1c-0.5,0-1,0.2-1.5,0.3
		c-0.8,0.1-0.8-0.6-1.1-1.1l-1.1-1.5l-0.3-1.8c0-0.4,0-0.8-0.1-1.2c0-0.5-0.2-1,0-1.5c0.1-0.4,0.7-0.6,1-0.8
		c0.2-0.2,0.4-0.4,0.6-0.1c0.2,0.2,0.2,0.6,0.2,0.8c0.1,0.2,0.2,0.5,0.3,0.7c0.1,0.3,0.2,0.6,0.3,0.9c0.1,0.2,0.2,0.8,0.3,1
		c0.1,0.1,0.5,0,0.6-0.1c0.1,0,0.3,0,0.3-0.1c0.2-0.2-0.1-0.8-0.1-1c-0.1-0.3-0.2-0.7-0.1-1.1c0.1-0.4,0.3-0.9,0.5-1.3
		c0.2-0.5,0.4-0.7,0.8-1.1c0.5-0.4,1-0.9,1.5-1.3l1.9-2.1c0.3-0.3,0.6-0.6,0.9-0.9c0.2-0.2,0.5-0.5,0.7-0.7c0.1-0.1,0.2-0.3,0.4-0.4
		c0.2-0.1,0.5-0.1,0.7-0.1c0.4,0,0.9,0.1,1-0.5c0-0.6,0-1.3-0.1-1.9c-0.1-0.4-0.1-0.9-0.1-1.3c-0.1-0.3-0.1-1-0.4-1.2
		c-0.2-0.1-0.7,0.3-0.8,0.4c-0.3,0.2-0.6,0.3-0.9,0.5c-0.1,0.1-0.3,0.1-0.4,0.2L15.6,6c-0.2,0.3-0.2,0.8-0.4,1.1
		c-0.3,0.4-1,0-1.3-0.2c-0.2-0.1-0.6-0.1-0.8-0.2c-0.1-0.2,0.3-0.9,0.3-1.2c0.2-0.6,0.2-1.2,0.8-1.5c0.4-0.2,0.8-0.2,1.2-0.4
		c0.2-0.1,0.2-0.2,0.2-0.4c0,0-0.1-0.7,0-0.7c1.6-0.4,3.2-0.7,4.9-0.7c3.1,0,6,0.8,8.5,2.1v1.1c-0.1,0.7-0.2,1.4-0.6,2
		c-0.2,0.3-0.5,0.6-0.7,0.9c-0.2,0.3-0.4,0.5-0.6,0.8C27.1,9,27.1,9.4,27,9.8c-0.1,0.3-0.2,0.7-0.2,1c0,0.3,0,0.7,0,1
		c0,0.6,0.4,0.2,0.8,0.1c0.2-0.1,0.3-0.2,0.5-0.3l1-1c0.3-0.1,0.6-0.2,0.9-0.2c0.2-0.1,0.4-0.1,0.7-0.2c0.7-0.2,1.3,0.3,1.9,0.6
		c0.4,0.2,0.8,0.4,1.2,0.6c0.6,0,1.2-0.2,1.7,0.1c0.1,0.1,1.1,0.9,1.1,0.9c-0.1,0.3-0.3,0.8-0.5,1c-0.3,0.2-0.9,0.1-1.3,0.1
		c0,0-0.2,1.1-0.4,1.2c-0.4,0.2-0.9,0.8-1.3,0.8c-0.4,0-0.8-0.2-1.2-0.4c-0.3-0.1-0.3-0.3-0.4-0.6c0-0.1-0.4-0.8-0.5-0.8
		c-0.5,0-1-0.1-1.5,0c-0.7,0.2-1.2,0.8-1.8,1.3c-0.4,0.3-1.2,0.7-1.4,1.3c-0.2,0.8-0.5,1.7-0.5,2.6c0,0.9,0,1.1,0,2
		c0,0.6,0.3,1.3,0.5,1.8c0.1,0.4,0.2,0.7,0.3,1.1c0.1,0.4,0.5,0.5,0.8,0.8c0.2,0.2,0.4,0.4,0.7,0.4c0.2,0,0.5,0,0.7,0
		c0.4,0,0.7,0,1.1,0h1.5c0.8,0,1.3,0,2,0.4c0.3,0.2,0.4,0.4,0.4,0.8c0.1,0.3,0.1,0.7,0.1,1c0,0.8-0.1,1.6-0.2,2.4
		c-0.1,0.5-0.1,1.1-0.2,1.6l-0.2,3.4c-3.3,3.1-7.8,4.9-12.7,5C20.1,39.4,19.6,39.3,19.1,39.3z"/>
</g>
<g>
</g>
<g>
</g>
<g>
</g>
<g>
</g>
<g>
</g>
<g>
</g>
<g>
</g>
<g>
</g>
<g>
</g>
<g>
</g>
<g>
</g>
<g>
</g>
<g>
</g>
<g>
</g>
<g>
</g>
</svg>
