<?xml version="1.0" encoding="utf-8"?>
<!-- Generator: Adobe Illustrator 18.1.1, SVG Export Plug-In . SVG Version: 6.00 Build 0)  -->
<svg version="1.1" id="Layer_1" xmlns="http://www.w3.org/2000/svg" xmlns:xlink="http://www.w3.org/1999/xlink" x="0px" y="0px"
	 viewBox="0 0 36 47.3" enable-background="new 0 0 36 47.3" xml:space="preserve">
<g>
	<path d="M34.1,19.7h-1.4c-1.1,0-1.9,0.9-1.9,1.9l0,1.4H29l0-4.3c0-1.1-0.9-1.9-1.9-1.9h-1.4c-1.1,0-1.9,0.9-1.9,1.9l0,0
		c0,0,0,1.7,0,1.7H22v-3.3c0-1.1-0.9-1.9-1.9-1.9h-1.4c-1.1,0-1.9,0.9-1.9,1.9l0,1.8h-1.7l0-17c0-1.1-0.9-1.9-1.9-1.9h-1.4
		c-1.1,0-1.9,0.9-1.9,1.9l0,30.3H8.1v-4.9c-1.1-2.7-1.2-3-1.9-4.7c-0.5-1.4-3.6-3.5-5.3-2.7C0,20.3-0.2,21,0.2,22.2
		c0.7,1.7,6.1,15.4,6.1,15.4c1.3,3.3,5.4,9.6,12,9.6c2.4,0,3.3,0,5.9,0c7.6,0,11.8-5.1,11.8-12.8c0-3.8,0-12.9,0-12.9
		C36,20.6,35.2,19.7,34.1,19.7z"/>
</g>
<g>
</g>
<g>
</g>
<g>
</g>
<g>
</g>
<g>
</g>
<g>
</g>
<g>
</g>
<g>
</g>
<g>
</g>
<g>
</g>
<g>
</g>
<g>
</g>
<g>
</g>
<g>
</g>
<g>
</g>
</svg>
