<?xml version="1.0" encoding="utf-8"?>
<!-- Generator: Adobe Illustrator 18.1.1, SVG Export Plug-In . SVG Version: 6.00 Build 0)  -->
<svg version="1.1" id="Layer_1" xmlns="http://www.w3.org/2000/svg" xmlns:xlink="http://www.w3.org/1999/xlink" x="0px" y="0px"
	 viewBox="0 0 30.8 46.7" enable-background="new 0 0 30.8 46.7" xml:space="preserve">
<g>
	<path d="M28.9,19.5h-1.4c-1.1,0-1.9,0.8-1.9,1.9l0,1.4h-1.7l0-4.3c0-1-0.8-1.9-1.9-1.9h-1.4c-1,0-1.9,0.8-1.9,1.9l0,0
		c0,0,0,1.6,0,1.6H17V17c0-1-0.9-1.9-1.9-1.9h-1.4c-1,0-1.9,0.9-1.9,1.9l0,1.8l-1.7,0l0-16.8c0-1-0.8-1.9-1.9-1.9H6.8
		C5.8,0,4.9,0.8,4.9,1.9l0,28.8H3.2v-8.9c-0.9,0.1-1.6,0.5-2.2,1.3c-0.6,0.7-1,1.8-1,3.3c0,1.3,0,2.7,0,6c0,6.5,5,14.3,12.3,14.3
		c4.5,0,5.4,0,9.5,0c5.6,0,9.1-6.6,9.1-14.1c0-3.7,0-11.1,0-11.1C30.8,20.4,30,19.5,28.9,19.5z"/>
</g>
<g>
</g>
<g>
</g>
<g>
</g>
<g>
</g>
<g>
</g>
<g>
</g>
<g>
</g>
<g>
</g>
<g>
</g>
<g>
</g>
<g>
</g>
<g>
</g>
<g>
</g>
<g>
</g>
<g>
</g>
</svg>
