<?xml version="1.0" encoding="utf-8"?>
<!-- Generator: Adobe Illustrator 18.1.1, SVG Export Plug-In . SVG Version: 6.00 Build 0)  -->
<svg version="1.1" id="Layer_1" xmlns="http://www.w3.org/2000/svg" xmlns:xlink="http://www.w3.org/1999/xlink" x="0px" y="0px"
	 viewBox="0 0 47.8 54.1" enable-background="new 0 0 47.8 54.1" xml:space="preserve">
<g>
	<path d="M47.8,23.7c0-0.6-0.1-1.1-0.3-1.7c-0.5-1.5-1.4-2.6-2.8-3.4l-0.5-0.3c-1.3-0.7-2.9-0.8-4.4-0.4c-1.5,0.5-2.6,1.4-3.4,2.8
		c0,0-0.7,1.3-1.2,2.2c0-1.7,0-14.2,0-14.2c0-3.1-2.6-5.7-5.7-5.7H29c-0.7,0-1.3,0.2-1.9,0.4C26.2,1.4,24.2,0,21.9,0h-0.6
		C19,0,17,1.4,16.1,3.5c-0.6-0.2-1.3-0.4-1.9-0.4h-0.6c-2.4,0-4.6,1.6-5.4,3.9C7.5,6.8,6.9,6.6,6.3,6.6H5.7C2.6,6.6,0,9.2,0,12.4
		v28.9c0,7.9,4.7,12.9,12,12.9l10.9,0c8,0,12.1-0.9,16-9.1c0-0.1,4.6-10.3,8.4-18.8l0,0C47.6,25.4,47.8,24.6,47.8,23.7z M22.9,49.9
		l-10.9,0c-4.8,0-7.7-3.2-7.7-8.5l0-29c0-0.8,0.6-1.4,1.4-1.4h0.6c0.8,0,1.4,0.6,1.4,1.4v11.2c0,1.2,1,2.1,2.2,2.1
		c1.2,0,2.1-1,2.1-2.1V8.8c0-0.8,0.6-1.4,1.4-1.4h0.6c0.8,0,1.4,0.6,1.4,1.4v14.8c0,1.2,1,2.1,2.1,2.1c1.2,0,2.1-1,2.1-2.1V8.8
		l0-3.1c0-0.8,0.6-1.4,1.4-1.4h0.6c0.8,0,1.4,0.6,1.4,1.4l0,17.9c0,1.2,1,2.1,2.1,2.1c1.2,0,2.1-1,2.1-2.1V8.7
		c0-0.8,0.7-1.4,1.4-1.4h0.6c0.8,0,1.4,0.6,1.4,1.4v22.4c-0.2,0.9,0.3,1.8,1.1,2.2c0.5,0.3,1.2,0.3,1.8,0.1c0.6-0.2,1-0.7,1.2-1.3
		l5-9.4c0.2-0.4,0.5-0.6,0.9-0.7c0.4-0.1,0.8-0.1,1.1,0.1l0.5,0.3c0.3,0.2,0.6,0.5,0.7,0.8c0.1,0.4,0.1,0.8-0.1,1.1
		c0,0-0.5,1.1-6.8,15.2L35,43.2C32.2,49.2,30,49.9,22.9,49.9z"/>
</g>
<g>
</g>
<g>
</g>
<g>
</g>
<g>
</g>
<g>
</g>
<g>
</g>
<g>
</g>
<g>
</g>
<g>
</g>
<g>
</g>
<g>
</g>
<g>
</g>
<g>
</g>
<g>
</g>
<g>
</g>
</svg>
