<?xml version="1.0" encoding="utf-8"?>
<!-- Generator: Adobe Illustrator 18.1.1, SVG Export Plug-In . SVG Version: 6.00 Build 0)  -->
<svg version="1.1" id="Layer_1" xmlns="http://www.w3.org/2000/svg" xmlns:xlink="http://www.w3.org/1999/xlink" x="0px" y="0px"
	 viewBox="0 0 47.8 48.4" enable-background="new 0 0 47.8 48.4" xml:space="preserve">
<g>
	<path d="M42.1,0h-0.6c-3.1,0-5.7,2.6-5.7,5.7c0,0,0,6.7,0,7.2c-0.5-0.1-1-0.3-1.5-0.3h-0.6c-1.3,0-2.5,0.5-3.6,1.3
		c-1-0.8-2.3-1.3-3.6-1.3h-0.6c-0.5,0-1,0.1-1.4,0.2c0-0.5,0-7,0-7c0-3.1-2.6-5.7-5.7-5.7h-0.6c-3.1,0-5.7,2.6-5.7,5.7
		c0,0,0,9.7,0,11.3c-0.5-0.9-1.2-2.2-1.2-2.2c-0.7-1.3-1.9-2.3-3.4-2.8c-1.5-0.5-3-0.3-4.4,0.4l-0.5,0.3c-1.3,0.7-2.3,1.9-2.8,3.4
		C0.1,16.9,0,17.4,0,18c0,0.8,0.2,1.7,0.7,2.7l8.3,18.5c0,0,0.1,0.1,0.1,0.2c3.9,8.2,8,9.1,16,9.1l10.9,0c7.3,0,12-5,12-12.9V5.7
		C47.8,2.6,45.3,0,42.1,0z M32.3,18.1c0.1-0.7,0.7-1.1,1.4-1.1h0.6c0.7,0,1.3,0.5,1.4,1.1c0,0,0,0,0,0c0,0.8,0,8,0,8
		c0,0.8-0.6,1.4-1.4,1.4h-0.6c-0.8,0-1.4-0.6-1.4-1.4C32.3,26.1,32.3,18.2,32.3,18.1C32.3,18.1,32.3,18.1,32.3,18.1z M24.5,18.4
		c0-0.8,0.6-1.4,1.4-1.4h0.6c0.8,0,1.4,0.6,1.4,1.4c0,3.1,0,7.8,0,8c-0.1,0.6-0.8,1.1-1.4,1.1h-0.6c-0.7,0-1.4-0.7-1.4-1.4V18.4z
		 M35.9,44.2l-10.9,0c-7.2,0-9.3-0.7-12.2-6.7L11.7,35C5,19.9,4.5,18.7,4.4,18.7v0c-0.2-0.3-0.2-0.7-0.1-1.1
		c0.1-0.4,0.4-0.7,0.7-0.8l0.5-0.3c0.3-0.2,0.7-0.2,1.1-0.1c0.4,0.1,0.7,0.4,0.9,0.7l5.1,9.4c0.7,1.2,2,1.7,3,1.1
		c0.8-0.4,1.1-1.4,1.1-2.2V5.9c0-0.8,0.6-1.4,1.4-1.4h0.6c0.8,0,1.4,0.6,1.4,1.4l0,20.9l0.1,0.4c0.6,2.6,2.9,4.5,5.7,4.5h0.6
		c1.3,0,2.5-0.5,3.6-1.3c1,0.8,2.3,1.3,3.6,1.3h0.6c3.1,0,5.7-2.6,5.7-5.7l0-20.4c0-0.8,0.6-1.4,1.4-1.4h0.6c0.8,0,1.4,0.6,1.4,1.4
		l0,30C43.6,41,40.7,44.2,35.9,44.2z"/>
</g>
<g>
</g>
<g>
</g>
<g>
</g>
<g>
</g>
<g>
</g>
<g>
</g>
<g>
</g>
<g>
</g>
<g>
</g>
<g>
</g>
<g>
</g>
<g>
</g>
<g>
</g>
<g>
</g>
<g>
</g>
</svg>
