<?xml version="1.0" encoding="utf-8"?>
<!-- Generator: Adobe Illustrator 18.1.1, SVG Export Plug-In . SVG Version: 6.00 Build 0)  -->
<svg version="1.1" id="Layer_1" xmlns="http://www.w3.org/2000/svg" xmlns:xlink="http://www.w3.org/1999/xlink" x="0px" y="0px"
	 viewBox="0 0 32.5 35.1" enable-background="new 0 0 32.5 35.1" xml:space="preserve">
<g>
	<path d="M19.7,20c-0.7,1-1.8,1.6-3.1,1.6c-1.3,0-2.4-0.6-3.1-1.6c-0.5-0.7-1.4-0.8-2.1-0.3c-0.7,0.5-0.8,1.4-0.3,2.1l0,0
		c1.2,1.7,3.3,2.8,5.6,2.8c0,0,0,0,0,0c2.3,0,4.3-1.2,5.5-2.9c0.5-0.7,0.3-1.6-0.4-2.1C21.1,19.2,20.1,19.3,19.7,20z M21.6,10.8
		c-0.8,0-1.5,0.7-1.5,1.5l0,1c0,0.8,0.7,1.5,1.5,1.5c0.8,0,1.5-0.7,1.5-1.5l0-1C23.1,11.5,22.4,10.8,21.6,10.8z M12.9,13.4l0-1
		c0-0.8-0.7-1.5-1.5-1.5c-0.8,0-1.5,0.7-1.5,1.5l0,1c0,0.8,0.7,1.5,1.5,1.5C12.2,14.9,12.9,14.3,12.9,13.4z M29.7,10.8
		C28.3,4.6,22.7-0.1,16.1,0C9.4,0.1,3.9,4.8,2.7,11.1C1.1,11.5,0,12.9,0,14.5v4.6c0,1.6,1.2,3,2.7,3.4c1.1,5.5,5.5,9.8,10.9,10.8
		c0.5,1,1.5,1.8,2.8,1.8c1.7,0,3-1.4,3-3c0-1.7-1.4-3-3-3c-1,0-1.9,0.5-2.4,1.2C9.1,29.3,5.4,25,5.4,19.8v-5.9
		C5.3,8,10.1,3.1,16.1,3C22.1,3,27,7.7,27,13.7v7.2c0,0.8,0.8,1.5,1.6,1.5c0.1,0,0.3,0,0.4,0c1.9,0,3.5-1.6,3.4-3.6v-4.6
		C32.4,12.5,31.3,11.2,29.7,10.8z"/>
</g>
<g>
</g>
<g>
</g>
<g>
</g>
<g>
</g>
<g>
</g>
<g>
</g>
<g>
</g>
<g>
</g>
<g>
</g>
<g>
</g>
<g>
</g>
<g>
</g>
<g>
</g>
<g>
</g>
<g>
</g>
</svg>
