<?xml version="1.0" encoding="utf-8"?>
<!-- Generator: Adobe Illustrator 18.1.1, SVG Export Plug-In . SVG Version: 6.00 Build 0)  -->
<svg version="1.1" id="Layer_1" xmlns="http://www.w3.org/2000/svg" xmlns:xlink="http://www.w3.org/1999/xlink" x="0px" y="0px"
	 viewBox="0 0 48.3 39.5" enable-background="new 0 0 48.3 39.5" xml:space="preserve">
<g>
	<path d="M40.2,20.5v-5.1C40.2,6.9,33.3,0,24.8,0h-1.3C15,0,8.1,6.9,8.1,15.5v5.1C3.6,20.7,0,24.4,0,29V31c0,4.7,3.8,8.5,8.5,8.5H13
		c0.6,0,1.2-0.2,1.6-0.6c0.4-0.4,0.6-1,0.6-1.6V22.7c0-0.6-0.2-1.2-0.6-1.6c-0.4-0.4-1-0.6-1.6-0.6h-0.5v-5c0-3,1.2-5.8,3.2-7.8
		c2-2,4.7-3.2,7.8-3.2h1.3c3,0,5.8,1.2,7.8,3.2c2,2,3.2,4.7,3.2,7.8v5h-0.5c-0.6,0-1.2,0.2-1.6,0.6c-0.4,0.4-0.6,1-0.6,1.6v14.6
		c0,0.6,0.2,1.2,0.6,1.6c0.4,0.4,1,0.6,1.6,0.6h4.5c4.7,0,8.5-3.8,8.5-8.5V29C48.3,24.4,44.7,20.7,40.2,20.5z M10.8,35.1H8.5
		c-1.1,0-2.1-0.5-2.9-1.2c-0.7-0.7-1.2-1.7-1.2-2.9V29c0-1.1,0.4-2.1,1.2-2.9c0.7-0.7,1.7-1.2,2.9-1.2h2.3V35.1z M43.9,31
		c0,1.1-0.4,2.1-1.2,2.9c-0.7,0.7-1.7,1.2-2.9,1.2h-2.3V24.9h2.3c1.1,0,2.1,0.4,2.9,1.2c0.7,0.7,1.2,1.7,1.2,2.9V31z"/>
</g>
<g>
</g>
<g>
</g>
<g>
</g>
<g>
</g>
<g>
</g>
<g>
</g>
<g>
</g>
<g>
</g>
<g>
</g>
<g>
</g>
<g>
</g>
<g>
</g>
<g>
</g>
<g>
</g>
<g>
</g>
</svg>
