<?xml version="1.0" encoding="utf-8"?>
<!-- Generator: Adobe Illustrator 18.1.1, SVG Export Plug-In . SVG Version: 6.00 Build 0)  -->
<svg version="1.1" id="Layer_1" xmlns="http://www.w3.org/2000/svg" xmlns:xlink="http://www.w3.org/1999/xlink" x="0px" y="0px"
	 viewBox="0 0 610.7 515.7" enable-background="new 0 0 610.7 515.7" xml:space="preserve">
<path d="M326.1,6.6c-11.3-8.8-27.6-8.8-38.9,0L0,242.4l31.4,38.9l43.9-36.4v245.8l0,0c0,13.8,11.3,25.1,25.1,25.1h410.1
	c13.8,0,25.1-11.3,25.1-25.1V244.9l43.9,36.4l31.4-38.9L326.1,6.6z M262.1,465.6V306.3h86.5v158h-86.5V465.6z M486.6,465.6h-86.5
	V281.2c0-13.8-11.3-25.1-25.1-25.1H237c-13.8,0-25.1,11.3-25.1,25.1v183.1h-86.5V203.5L306,55.5l180.6,148V465.6z"/>
<g>
</g>
<g>
</g>
<g>
</g>
<g>
</g>
<g>
</g>
<g>
</g>
<g>
</g>
<g>
</g>
<g>
</g>
<g>
</g>
<g>
</g>
<g>
</g>
<g>
</g>
<g>
</g>
<g>
</g>
</svg>
