<?xml version="1.0" encoding="utf-8"?>
<!-- Generator: Adobe Illustrator 18.1.1, SVG Export Plug-In . SVG Version: 6.00 Build 0)  -->
<svg version="1.1" id="Layer_1" xmlns="http://www.w3.org/2000/svg" xmlns:xlink="http://www.w3.org/1999/xlink" x="0px" y="0px"
	 viewBox="0 0 610.4 552.5" enable-background="new 0 0 610.4 552.5" xml:space="preserve">
<path d="M597.7,268.3L597.7,268.3L328.3,9.5c-14.7-12.6-35.8-12.6-50.5,0L10.5,268.3l0,0C4.2,274.7,0,283.1,0,293.6
	c0,18.9,14.7,33.7,33.7,33.7h2.1h29.5v191.5c0,18.9,14.7,33.7,35.8,33.7h124.2c18.9,0,35.8-14.7,35.8-33.7V327.3h88.4v191.5
	c0,18.9,14.7,33.7,35.8,33.7h124.2c18.9,0,35.8-14.7,35.8-33.7V327.3h29.5h2.1c18.9,0,33.7-14.7,33.7-33.7
	C606.2,283.1,604,274.7,597.7,268.3z M490.4,274.7V502h-90.5V310.4c0-18.9-14.7-33.7-35.8-33.7H239.9c-18.9,0-35.8,14.7-35.8,33.7
	V502h-86.3V274.7h-40L303.1,57.9l225.2,218.9h-37.9V274.7z"/>
<g>
</g>
<g>
</g>
<g>
</g>
<g>
</g>
<g>
</g>
<g>
</g>
<g>
</g>
<g>
</g>
<g>
</g>
<g>
</g>
<g>
</g>
<g>
</g>
<g>
</g>
<g>
</g>
<g>
</g>
</svg>
