<?xml version="1.0" encoding="utf-8"?>
<!-- Generator: Adobe Illustrator 18.1.1, SVG Export Plug-In . SVG Version: 6.00 Build 0)  -->
<svg version="1.1" id="Layer_1" xmlns="http://www.w3.org/2000/svg" xmlns:xlink="http://www.w3.org/1999/xlink" x="0px" y="0px"
	 viewBox="0 0 30 53.8" enable-background="new 0 0 30 53.8" xml:space="preserve">
<g>
	<rect x="7.4" y="38" width="15.2" height="4"/>
	<path d="M15,0C6.7,0,0,6.7,0,15c0,3.4,1.2,6.8,2.9,9.9c1.3,2.4,4,7.9,4.4,11h4c-0.4-4.5-3.4-10.1-4.9-12.9C4.9,20.3,4,17.4,4,15
		C4,8.9,8.9,4,15,4c6.1,0,11,4.9,11,11c0,2.4-0.9,5.3-2.4,7.9c-1.5,2.8-4.4,8.5-4.9,12.9h4c0.4-3.1,3-8.6,4.4-11
		c1.6-3,2.9-6.4,2.9-9.9C30,6.7,23.3,0,15,0z"/>
	<rect x="7.4" y="43.9" width="15.2" height="4"/>
	<rect x="11" y="49.8" width="8" height="4"/>
</g>
<g>
</g>
<g>
</g>
<g>
</g>
<g>
</g>
<g>
</g>
<g>
</g>
<g>
</g>
<g>
</g>
<g>
</g>
<g>
</g>
<g>
</g>
<g>
</g>
<g>
</g>
<g>
</g>
<g>
</g>
</svg>
