<?xml version="1.0" encoding="utf-8"?>
<!-- Generator: Adobe Illustrator 18.1.1, SVG Export Plug-In . SVG Version: 6.00 Build 0)  -->
<svg version="1.1" id="Layer_1" xmlns="http://www.w3.org/2000/svg" xmlns:xlink="http://www.w3.org/1999/xlink" x="0px" y="0px"
	 viewBox="0 0 44.2 44.2" enable-background="new 0 0 44.2 44.2" xml:space="preserve">
<g>
	<path d="M22.1,0C9.9,0,0,9.9,0,22.1c0,12.2,9.9,22.1,22.1,22.1c12.2,0,22.1-9.9,22.1-22.1C44.2,9.9,34.3,0,22.1,0z M18.6,36.3
		c-0.9-0.2-1.6-0.5-2.1-0.9C16,35,15.8,34.5,15.7,34c0-0.6,0.7-3,2.2-7.2c0.1-0.4,0.3-0.8,0.4-1.1l0,0c0.5-1.4,1-3,1.5-4.6
		c1.7-5.2-4.6-1.6-4.6-1.6c2-2.7,6.6-3.6,8.8-3.1c0.9,0.2,1.6,0.5,2.1,0.9c0.5,0.4,0.7,0.9,0.8,1.4c0,0.6-0.7,3-2.2,7.2
		c-0.1,0.4-0.3,0.8-0.4,1.1h0c-0.5,1.4-1,3-1.5,4.6c-1.7,5.2,4.6,1.6,4.6,1.6C25.5,36,20.7,36.8,18.6,36.3z M25.6,13.8
		c-1.9,0-3.4-1.5-3.4-3.4c0-1.9,1.5-3.4,3.4-3.4c1.9,0,3.4,1.5,3.4,3.4C28.9,12.3,27.4,13.8,25.6,13.8z"/>
</g>
<g>
</g>
<g>
</g>
<g>
</g>
<g>
</g>
<g>
</g>
<g>
</g>
<g>
</g>
<g>
</g>
<g>
</g>
<g>
</g>
<g>
</g>
<g>
</g>
<g>
</g>
<g>
</g>
<g>
</g>
</svg>
