<?xml version="1.0" encoding="utf-8"?>
<!-- Generator: Adobe Illustrator 18.1.1, SVG Export Plug-In . SVG Version: 6.00 Build 0)  -->
<svg version="1.1" id="Layer_1" xmlns="http://www.w3.org/2000/svg" xmlns:xlink="http://www.w3.org/1999/xlink" x="0px" y="0px"
	 viewBox="0 0 20 42" enable-background="new 0 0 20 42" xml:space="preserve">
<g>
	<path d="M10.7,35.2c0.7-2.3,1.4-4.5,2.1-6.5h0c0.2-0.5,0.4-1,0.6-1.6c2.1-6,3.2-9.4,3.1-10.2c0-0.7-0.4-1.4-1.1-2
		c-0.7-0.6-1.7-1-2.9-1.3c-3-0.7-8.7,1.9-12.4,4.3c0,0,8.9-5,6.6,2.3c-0.7,2.3-1.4,4.5-2.1,6.5h0c-0.2,0.5-0.4,1-0.6,1.6
		c-2.1,6-3.1,9.4-3.1,10.3c0,0.7,0.4,1.4,1.1,2c0.7,0.6,1.7,1,2.9,1.3c3,0.7,8.7-1.9,12.4-4.3C17.3,37.5,8.4,42.6,10.7,35.2z"/>
	<path d="M14.8,0c-2.9,0-5.2,2.3-5.2,5.2c0,2.9,2.3,5.2,5.2,5.2c2.9,0,5.2-2.3,5.2-5.2C20,2.3,17.7,0,14.8,0z"/>
</g>
<g>
</g>
<g>
</g>
<g>
</g>
<g>
</g>
<g>
</g>
<g>
</g>
<g>
</g>
<g>
</g>
<g>
</g>
<g>
</g>
<g>
</g>
<g>
</g>
<g>
</g>
<g>
</g>
<g>
</g>
</svg>
