<?xml version="1.0" encoding="utf-8"?>
<!-- Generator: Adobe Illustrator 18.1.1, SVG Export Plug-In . SVG Version: 6.00 Build 0)  -->
<svg version="1.1" id="Layer_1" xmlns="http://www.w3.org/2000/svg" xmlns:xlink="http://www.w3.org/1999/xlink" x="0px" y="0px"
	 viewBox="0 0 23.8 42.1" enable-background="new 0 0 23.8 42.1" xml:space="preserve">
<g>
	<path d="M18.5,21.6c0.3-0.7,0.4-1.4,0.4-2.1c0-1.3-0.4-2.8-1.5-4.1c-1.1-1.3-2.9-2.1-5-2l-5.3,0c0,0-0.1,0-0.2,0
		c-2.9,0.1-5.5,1.8-6.7,4.4L4,19.3c0.3-0.9,2-2,3-2c0.2,0,0.4,0,0.4,0.1c0,0.1,0,0.2-0.1,0.4c-0.4,0.9-6.5,15.1-6.9,16.1
		C0.1,34.5,0,35.2,0,36c0,1.3,0.4,2.8,1.5,4.1c1.1,1.2,2.8,2,4.9,2c0,0,0,0,0.1,0l5.3,0c0,0,0.1,0,0.1,0c0,0,0,0,0,0
		c2.9-0.1,5.5-1.8,6.7-4.4l-3.7-1.5c-0.3,0.9-2,2-3,2c-0.3,0-0.4,0-0.4-0.1c0-0.1,0-0.2,0.1-0.3C12,36.7,18,22.6,18.5,21.6z
		 M7.9,36.1c-0.3,0.6-0.4,1.3-0.4,1.9c0,0,0,0,0,0.1h-1c-1.2,0-1.6-0.3-2-0.7C4.2,37.1,4,36.5,4,36c0-0.3,0.1-0.5,0.1-0.6
		c0.4-1,6.5-15.1,6.9-16.1c0.3-0.6,0.4-1.2,0.4-1.9c0,0,0,0,0-0.1h1c1.2,0,1.6,0.3,2,0.7c0.3,0.4,0.5,0.9,0.5,1.4
		c0,0.3-0.1,0.5-0.1,0.6C14.4,21,8.3,35.1,7.9,36.1z"/>
	<path d="M23.8,6.2C23.8,2.8,21,0,17.6,0c-3.4,0-6.2,2.8-6.2,6.2c0,3.4,2.8,6.2,6.2,6.2C21,12.3,23.8,9.6,23.8,6.2L23.8,6.2z
		 M17.6,8.3c-1.2,0-2.2-1-2.2-2.2c0-1.2,1-2.2,2.2-2.2c1.2,0,2.2,1,2.2,2.2C19.8,7.4,18.8,8.3,17.6,8.3z"/>
</g>
<g>
</g>
<g>
</g>
<g>
</g>
<g>
</g>
<g>
</g>
<g>
</g>
<g>
</g>
<g>
</g>
<g>
</g>
<g>
</g>
<g>
</g>
<g>
</g>
<g>
</g>
<g>
</g>
<g>
</g>
</svg>
