<?xml version="1.0" encoding="utf-8"?>
<!-- Generator: Adobe Illustrator 18.1.1, SVG Export Plug-In . SVG Version: 6.00 Build 0)  -->
<svg version="1.1" id="Layer_1" xmlns="http://www.w3.org/2000/svg" xmlns:xlink="http://www.w3.org/1999/xlink" x="0px" y="0px"
	 viewBox="0 0 45.4 45.4" enable-background="new 0 0 45.4 45.4" xml:space="preserve">
<g>
	<path d="M22.7,0C10.2,0,0,10.2,0,22.7c0,12.5,10.2,22.7,22.7,22.7c12.5,0,22.7-10.2,22.7-22.7C45.4,10.2,35.3,0,22.7,0z M22.7,40.4
		c-9.7,0-17.6-7.9-17.6-17.6C5.1,13,13,5.1,22.7,5.1c9.7,0,17.6,7.9,17.7,17.7C40.3,32.4,32.5,40.3,22.7,40.4z"/>
	<rect x="19.3" y="18.6" width="6.8" height="17.7"/>
	<path d="M22.7,8.5c-2.1,0-3.8,1.7-3.8,3.8c0,2.1,1.7,3.8,3.8,3.8s3.8-1.7,3.8-3.8C26.5,10.2,24.8,8.5,22.7,8.5z"/>
</g>
<g>
</g>
<g>
</g>
<g>
</g>
<g>
</g>
<g>
</g>
<g>
</g>
<g>
</g>
<g>
</g>
<g>
</g>
<g>
</g>
<g>
</g>
<g>
</g>
<g>
</g>
<g>
</g>
<g>
</g>
</svg>
