<?xml version="1.0" encoding="utf-8"?>
<!-- Generator: Adobe Illustrator 18.1.1, SVG Export Plug-In . SVG Version: 6.00 Build 0)  -->
<svg version="1.1" id="Layer_1" xmlns="http://www.w3.org/2000/svg" xmlns:xlink="http://www.w3.org/1999/xlink" x="0px" y="0px"
	 viewBox="0 0 612 612" enable-background="new 0 0 612 612" xml:space="preserve">
<g>
	<path d="M313.2,435.6c7.2-21.6,14.4-39.6,18-61.2c0-3.6,3.6-10.8,3.6-14.4c18-54,28.8-86.4,28.8-93.6c0-7.2-3.6-14.4-10.8-18
		c-3.6-3.6-10.8-7.2-25.2-10.8c-25.2-7.2-79.2,18-111.6,39.6c0,0,82.8-46.8,61.2,21.6c-7.2,21.6-14.4,43.2-21.6,61.2l0,0
		c0,3.6-3.6,10.8-3.6,14.4c-18,54-28.8,86.4-28.8,93.6c0,7.2,3.6,14.4,10.8,18c7.2,3.6,14.4,10.8,25.2,10.8
		c28.8,7.2,79.2-18,115.2-39.6C374.4,457.2,291.6,504,313.2,435.6z"/>
	<circle cx="349.2" cy="162" r="46.8"/>
	<path d="M306,0C136.8,0,0,136.8,0,306s136.8,306,306,306s306-136.8,306-306S475.2,0,306,0z M306,554.4
		C169.2,554.4,57.6,442.8,57.6,306S169.2,57.6,306,57.6S554.4,169.2,554.4,306S442.8,554.4,306,554.4z"/>
</g>
<g>
</g>
<g>
</g>
<g>
</g>
<g>
</g>
<g>
</g>
<g>
</g>
<g>
</g>
<g>
</g>
<g>
</g>
<g>
</g>
<g>
</g>
<g>
</g>
<g>
</g>
<g>
</g>
<g>
</g>
</svg>
