<?xml version="1.0" encoding="utf-8"?>
<!-- Generator: Adobe Illustrator 18.1.1, SVG Export Plug-In . SVG Version: 6.00 Build 0)  -->
<svg version="1.1" id="Layer_1" xmlns="http://www.w3.org/2000/svg" xmlns:xlink="http://www.w3.org/1999/xlink" x="0px" y="0px"
	 viewBox="0 0 38 40.6" enable-background="new 0 0 38 40.6" xml:space="preserve">
<g>
	<path d="M22.2,30.3c0,1.8-0.8,3.1-2.2,3.7c-1.4,0.6-3,0.2-4.2-1.1L3.1,20.3L15.7,7.7C17,6.5,18.6,6.1,20,6.6c1.4,0.6,2.2,2,2.2,3.7
		c0,0,0,1.4,0,2.9h4.1v-11C26.3,1,25.3,0,24,0H2.3C2.1,0,1.9,0,1.8,0.1C0.8,0.3,0,1.2,0,2.3v36.1c0,1.3,1,2.3,2.3,2.3H24
		c0.2,0,0.3,0,0.5-0.1c1-0.2,1.8-1.1,1.8-2.2v-11h-4.1C22.2,28.8,22.2,30.3,22.2,30.3z M35.9,16.1H19.3v-5.8c0-1.2-0.7-1.5-1.5-0.6
		L7.2,20.3l10.6,10.6c0.8,0.8,1.5,0.5,1.5-0.6v-5.8h16.6c1.2,0,2.1-1,2.1-2.1v-4.1C38,17.1,37.1,16.1,35.9,16.1z"/>
</g>
<g>
</g>
<g>
</g>
<g>
</g>
<g>
</g>
<g>
</g>
<g>
</g>
<g>
</g>
<g>
</g>
<g>
</g>
<g>
</g>
<g>
</g>
<g>
</g>
<g>
</g>
<g>
</g>
<g>
</g>
</svg>
