<?xml version="1.0" encoding="utf-8"?>
<!-- Generator: Adobe Illustrator 18.1.1, SVG Export Plug-In . SVG Version: 6.00 Build 0)  -->
<svg version="1.1" id="Layer_1" xmlns="http://www.w3.org/2000/svg" xmlns:xlink="http://www.w3.org/1999/xlink" x="0px" y="0px"
	 viewBox="0 0 30.9 40.6" enable-background="new 0 0 30.9 40.6" xml:space="preserve">
<path d="M17.1,26.4v4.5c0,1.3-0.7,1.6-1.6,0.7L4.2,20.3L15.5,9c0.9-0.9,1.6-0.6,1.6,0.7v4.5h13.7v-12c0-1.3-1-2.3-2.3-2.3H2.3
	C2.1,0,1.9,0,1.8,0.1C0.8,0.3,0,1.2,0,2.3v36.1c0,1.3,1,2.3,2.3,2.3h26.3c0.2,0,0.3,0,0.5-0.1c1-0.2,1.7-1.1,1.7-2.2v-12H17.1z"/>
<g>
</g>
<g>
</g>
<g>
</g>
<g>
</g>
<g>
</g>
<g>
</g>
<g>
</g>
<g>
</g>
<g>
</g>
<g>
</g>
<g>
</g>
<g>
</g>
<g>
</g>
<g>
</g>
<g>
</g>
</svg>
