<?xml version="1.0" encoding="utf-8"?>
<!-- Generator: Adobe Illustrator 18.1.1, SVG Export Plug-In . SVG Version: 6.00 Build 0)  -->
<svg version="1.1" id="Layer_1" xmlns="http://www.w3.org/2000/svg" xmlns:xlink="http://www.w3.org/1999/xlink" x="0px" y="0px"
	 viewBox="0 0 27.4 52.3" enable-background="new 0 0 27.4 52.3" xml:space="preserve">
<g>
	<path d="M27.4,13.7C27.4,6.1,21.2,0,13.7,0C6.1,0,0,6.1,0,13.7c0,5.6,3.4,10.4,8.2,12.5v22l5.5,4.1l5.4-4.1v-3.4h-4.9V40h4.9v-4.8
		h-4.9v-4.8h4.9v-4.2C24,24.1,27.4,19.3,27.4,13.7z M13.7,2.5c2.4,0,4.3,1.9,4.3,4.3c0,2.4-1.9,4.3-4.3,4.3c-2.4,0-4.3-1.9-4.3-4.3
		C9.4,4.4,11.3,2.5,13.7,2.5z"/>
</g>
<g>
</g>
<g>
</g>
<g>
</g>
<g>
</g>
<g>
</g>
<g>
</g>
<g>
</g>
<g>
</g>
<g>
</g>
<g>
</g>
<g>
</g>
<g>
</g>
<g>
</g>
<g>
</g>
<g>
</g>
</svg>
