<?xml version="1.0" encoding="utf-8"?>
<!-- Generator: Adobe Illustrator 18.1.1, SVG Export Plug-In . SVG Version: 6.00 Build 0)  -->
<svg version="1.1" id="Layer_1" xmlns="http://www.w3.org/2000/svg" xmlns:xlink="http://www.w3.org/1999/xlink" x="0px" y="0px"
	 viewBox="0 0 54.6 28.5" enable-background="new 0 0 54.6 28.5" xml:space="preserve">
<g>
	<path d="M40.4,0c-5.8,0-10.7,3.4-13,8.3c-0.1,0.2-0.2,0.3-0.2,0.5h-3.6c-0.7,0-1.3,0.5-1.3,1.1c0,0.6-0.6,1.1-1.3,1.1h-2.1
		c-0.7,0-1.3-0.5-1.3-1.1c0-0.6-0.6-1.1-1.3-1.1h-1.7c-0.7,0-1.3,0.5-1.3,1.1c0,0.6-0.6,1.1-1.3,1.1H10c-0.7,0-1.3-0.5-1.3-1.1
		c0-0.6-0.6-1.1-1.3-1.1H6.2c-0.7,0-1.7,0.4-2.2,0.9l-1.8,1.8l-1.8,1.8l0,0c-0.5,0.5-0.5,1.3,0,1.8l0,0L2.2,17l1.8,1.8
		c0.5,0.5,1.5,0.9,2.2,0.9h21c0.1,0.2,0.2,0.3,0.2,0.5c2.2,4.9,7.2,8.3,13,8.3c7.9,0,14.3-6.4,14.2-14.3C54.6,6.4,48.3,0,40.4,0z
		 M46,10.3c2.2,0,4,1.8,4,4c0,2.2-1.8,4-4,4c-2.2,0-4-1.8-4-4C42,12.1,43.8,10.3,46,10.3z"/>
</g>
<g>
</g>
<g>
</g>
<g>
</g>
<g>
</g>
<g>
</g>
<g>
</g>
<g>
</g>
<g>
</g>
<g>
</g>
<g>
</g>
<g>
</g>
<g>
</g>
<g>
</g>
<g>
</g>
<g>
</g>
</svg>
