<?xml version="1.0" encoding="utf-8"?>
<!-- Generator: Adobe Illustrator 18.1.1, SVG Export Plug-In . SVG Version: 6.00 Build 0)  -->
<svg version="1.1" id="Layer_1" xmlns="http://www.w3.org/2000/svg" xmlns:xlink="http://www.w3.org/1999/xlink" x="0px" y="0px"
	 viewBox="0 0 46.1 45.8" enable-background="new 0 0 46.1 45.8" xml:space="preserve">
<g>
	<path d="M23.2,11.6C23.2,5.2,18,0,11.6,0C5.2,0,0,5.2,0,11.6c0,4.7,2.8,8.8,7.1,10.6c0,1.9,0,23.5,0,23.5h9c0,0,0-21.6,0-23.5
		C20.4,20.4,23.2,16.3,23.2,11.6z M14.1,19.7L13,20c0,0,0,19.9,0,22.6h-2.8c0-2.7,0-22.6,0-22.6l-1.1-0.3c-3.6-1.1-6-4.4-6-8.1
		c0-4.7,3.8-8.5,8.5-8.5c4.7,0,8.5,3.8,8.5,8.5C20.1,15.3,17.7,18.6,14.1,19.7z M25.7,11.7c0,1.1-0.1,2.1-0.4,3.1H43v27.9H18.7
		c0,1.2,0,2.2,0,3.1h27.5V11.7H25.7z M11.6,5.9c-1.1,0-2,0.9-2,2c0,1.1,0.9,2,2,2c1.1,0,2-0.9,2-2C13.6,6.8,12.7,5.9,11.6,5.9z"/>
</g>
<g>
</g>
<g>
</g>
<g>
</g>
<g>
</g>
<g>
</g>
<g>
</g>
<g>
</g>
<g>
</g>
<g>
</g>
<g>
</g>
<g>
</g>
<g>
</g>
<g>
</g>
<g>
</g>
<g>
</g>
</svg>
