<?xml version="1.0" encoding="utf-8"?>
<!-- Generator: Adobe Illustrator 18.1.1, SVG Export Plug-In . SVG Version: 6.00 Build 0)  -->
<svg version="1.1" id="Layer_1" xmlns="http://www.w3.org/2000/svg" xmlns:xlink="http://www.w3.org/1999/xlink" x="0px" y="0px"
	 viewBox="0 0 39.4 38.9" enable-background="new 0 0 39.4 38.9" xml:space="preserve">
<g>
	<path d="M12.7,1c-0.6,0.9-1.2,1.8-1.7,2.8C10,5.9,9.2,8.4,8.6,11H1.9C4.1,6.4,8,2.9,12.7,1z"/>
	<path d="M0,19.5c0-2,0.3-3.9,0.8-5.6h7.3c-0.2,1.8-0.4,3.7-0.4,5.6c0,1.9,0.1,3.8,0.4,5.6H0.8C0.3,23.3,0,21.4,0,19.5z"/>
	<path d="M1.9,27.9h6.7C9.2,30.6,10,33,11,35c0.5,1,1.1,2,1.7,2.8C8,36.1,4.1,32.5,1.9,27.9z"/>
	<path d="M18.3,38.9c-1.7-0.6-3.4-2.3-4.8-5.2c-0.8-1.7-1.5-3.6-2-5.9h6.8V38.9z"/>
	<path d="M18.3,25.1H11c-0.3-1.8-0.4-3.7-0.4-5.6c0-2,0.1-3.9,0.4-5.6h7.3V25.1z"/>
	<path d="M18.3,11h-6.8c0.5-2.2,1.2-4.2,2-5.9c1.4-2.8,3.1-4.5,4.8-5.1V11z"/>
	<path d="M37.5,11h-6.7c-0.6-2.7-1.4-5.1-2.4-7.1c-0.5-1-1.1-2-1.7-2.8C31.5,2.9,35.3,6.4,37.5,11z"/>
	<path d="M21.1,0c1.7,0.6,3.4,2.3,4.8,5.1c0.8,1.7,1.5,3.6,2,5.9h-6.8V0z"/>
	<path d="M21.1,13.8h7.3c0.3,1.8,0.4,3.7,0.4,5.6c0,2-0.1,3.8-0.4,5.6h-7.3V13.8z"/>
	<path d="M21.1,38.9v-11H28c-0.5,2.2-1.2,4.2-2,5.9C24.5,36.6,22.8,38.3,21.1,38.9z"/>
	<path d="M26.7,37.9c0.6-0.9,1.2-1.8,1.7-2.8c1-2.1,1.8-4.5,2.4-7.1h6.7C35.3,32.5,31.5,36.1,26.7,37.9z"/>
	<path d="M31.3,25.1c0.2-1.8,0.4-3.7,0.4-5.6c0-2-0.1-3.8-0.4-5.6h7.3c0.5,1.8,0.8,3.7,0.8,5.6c0,2-0.3,3.8-0.8,5.6H31.3z"/>
</g>
<g>
</g>
<g>
</g>
<g>
</g>
<g>
</g>
<g>
</g>
<g>
</g>
<g>
</g>
<g>
</g>
<g>
</g>
<g>
</g>
<g>
</g>
<g>
</g>
<g>
</g>
<g>
</g>
<g>
</g>
</svg>
