<?xml version="1.0" encoding="utf-8"?>
<!-- Generator: Adobe Illustrator 18.1.1, SVG Export Plug-In . SVG Version: 6.00 Build 0)  -->
<svg version="1.1" id="Layer_1" xmlns="http://www.w3.org/2000/svg" xmlns:xlink="http://www.w3.org/1999/xlink" x="0px" y="0px"
	 viewBox="0 0 611.6 573.8" enable-background="new 0 0 611.6 573.8" xml:space="preserve">
<path d="M610.9,450.5c-1.4-15.6-5.7-26.9-8.5-32.6c-2.8-5.7-5.7-11.3-9.9-17c-5.7-8.5-11.3-15.6-19.8-21.2
	c15.6-18.4,24.1-41.1,24.1-66.6c0-58.1-46.8-103.4-103.4-103.4l0,0c-21.2,0-97.8,0-97.8,0c-24.1,0-42.5,18.4-42.5,42.5v279.1
	c0,24.1,18.4,42.5,42.5,42.5c0,0,103.4,0,106.3,0c60.9,0,109.1-49.6,109.1-110.5C612.3,459,610.9,454.7,610.9,450.5z M416.8,272
	c0,0,75.1,0,76.5,0l0,0l0,0c22.7,0,39.7,18.4,39.7,39.7c0,22.7-18.4,39.7-39.7,39.7c-14.2,0-76.5,0-76.5,0V272z M501.8,508.6
	c-15.6,0-85,0-85,0v-92.1h85c25.5,0,45.3,21.2,45.3,45.3C547.2,488.7,527.3,508.6,501.8,508.6z"/>
<path d="M327.6,335.8L327.6,335.8L215.7,26.9C210,12.7,193,0,177.4,0h-25.5c-15.6,0-32.6,11.3-38.2,26.9l0,0L1.8,335.8
	c-5.7,14.2,2.8,26.9,18.4,26.9h18.4c11.3,0,24.1-8.5,28.3-19.8l8.5-24.1l19.8-55.2h137.4l28.3,79.3c4.2,11.3,17,19.8,28.3,19.8h18.4
	C324.8,362.7,333.3,351.3,327.6,335.8z M119.3,199.8l45.3-126.1L210,199.8H119.3z"/>
<g>
</g>
<g>
</g>
<g>
</g>
<g>
</g>
<g>
</g>
<g>
</g>
<g>
</g>
<g>
</g>
<g>
</g>
<g>
</g>
<g>
</g>
<g>
</g>
<g>
</g>
<g>
</g>
<g>
</g>
</svg>
