<?xml version="1.0" encoding="utf-8"?>
<!-- Generator: Adobe Illustrator 18.1.1, SVG Export Plug-In . SVG Version: 6.00 Build 0)  -->
<svg version="1.1" id="Layer_1" xmlns="http://www.w3.org/2000/svg" xmlns:xlink="http://www.w3.org/1999/xlink" x="0px" y="0px"
	 viewBox="0 0 43.1 42.7" enable-background="new 0 0 43.1 42.7" xml:space="preserve">
<g>
	<path d="M9.9,3.5c0.5-0.9,1-1.8,1.6-2.6C8.4,2.1,5.7,4.2,3.7,6.8h4.9C9,5.6,9.4,4.5,9.9,3.5z"/>
	<path d="M7.9,9.4H2c-1.1,2.1-1.8,4.5-2,7h7C7.1,13.9,7.4,11.5,7.9,9.4z"/>
	<path d="M7,19H0c0.2,2.5,0.9,4.9,2,7h5.9C7.4,23.8,7.1,21.5,7,19z"/>
	<path d="M8.6,28.6H3.7c2,2.6,4.7,4.7,7.8,5.9c-0.6-0.8-1.1-1.6-1.6-2.6C9.4,30.8,9,29.7,8.6,28.6z"/>
	<path d="M12.2,30.7c1.3,2.5,2.8,4.1,4.3,4.7v-6.8h-5.2C11.6,29.3,11.9,30,12.2,30.7z"/>
	<path d="M10.5,26h6v-7h-7C9.7,21.5,10,23.9,10.5,26z"/>
	<path d="M9.6,16.4h7v-7h-6C10,11.5,9.7,13.9,9.6,16.4z"/>
	<path d="M12.2,4.7c-0.3,0.7-0.6,1.4-0.9,2.1h5.3V0C15.1,0.6,13.5,2.1,12.2,4.7z"/>
	<path d="M28.7,16.4h7c-0.2-2.5-0.9-4.9-2-7h-5.9C28.3,11.5,28.6,13.9,28.7,16.4z"/>
	<path d="M27.1,6.8h4.9c-2-2.6-4.7-4.7-7.8-5.8c0.6,0.8,1.1,1.6,1.6,2.6C26.3,4.5,26.7,5.6,27.1,6.8z"/>
	<path d="M23.5,4.7c-1.3-2.6-2.8-4.1-4.4-4.7v6.8h5.3C24.1,6,23.8,5.3,23.5,4.7z"/>
	<path d="M25.2,9.4h-6v7h7C26.1,13.9,25.7,11.5,25.2,9.4z"/>
	<path d="M19.2,19v23.7h23.9V19H19.2z M37.2,33.4l-3.7-3.7c0,0-0.8,0.7-0.9,0.8c-1.9,1.9-3.9,4.4-2.7,7.1c0.5,1.1,2,2.5,3.3,2.7
		c-3.6,0.1-6.9-2-8.1-4.5c-1-2.3-0.3-4.8,0.9-6.9c1-1.8,3-3.7,3-3.7l-3.5-3.5h11.6V33.4z"/>
</g>
<g>
</g>
<g>
</g>
<g>
</g>
<g>
</g>
<g>
</g>
<g>
</g>
<g>
</g>
<g>
</g>
<g>
</g>
<g>
</g>
<g>
</g>
<g>
</g>
<g>
</g>
<g>
</g>
<g>
</g>
</svg>
