<?xml version="1.0" encoding="utf-8"?>
<!-- Generator: Adobe Illustrator 18.1.1, SVG Export Plug-In . SVG Version: 6.00 Build 0)  -->
<svg version="1.1" id="Layer_1" xmlns="http://www.w3.org/2000/svg" xmlns:xlink="http://www.w3.org/1999/xlink" x="0px" y="0px"
	 viewBox="0 0 41 46.2" enable-background="new 0 0 41 46.2" xml:space="preserve">
<g>
	<path d="M30.3,18.1l-0.2,0l0,0L30,18l0-0.1c0-0.2,0.1-0.4,0.1-0.6c0-0.1,0-0.2,0-0.3c0-0.5-0.3-0.9-0.8-1.1l-2.5-0.7
		c-0.1,0-0.2,0-0.3,0c-0.2,0-0.4,0.1-0.5,0.2c-0.2,0.2-0.4,0.4-0.5,0.7c-0.1,0.3-0.1,0.7-0.2,1l0,0.1l-0.1,0c-0.4,0-0.8,0-1.3,0h0v0
		c0,0,0,0,0,0h0l0,0c0,0,0,0,0,0l0,0h0c0,0,0,0-0.1,0c0,0,0,0,0,0c-1.6,0-3.9,0.2-6.6,1l-0.2,0.1l0-0.2c0-0.5,0-1.1,0-1.6v-0.1
		c0-1.5,0-3,0.1-4.6l0-0.1l0.1,0c5.3-0.2,12.9-0.6,18.1-1.6c0.5-0.1,0.9-0.6,0.9-1.1c0,0,0-0.1,0-0.1l-0.3-2.6
		c0-0.3-0.2-0.6-0.4-0.8c-0.2-0.1-0.4-0.2-0.6-0.2h0c-0.1,0-0.1,0-0.2,0c-5.1,1.1-12.3,1.7-17.2,1.9l-0.2,0l0-0.2
		c0.1-1.3,0.2-4,0.3-5.6V1.3c0-0.6-0.4-1.1-1-1.1L13.7,0c0,0,0,0-0.1,0l0,0c-0.3,0-0.5,0.1-0.7,0.3c-0.2,0.2-0.3,0.5-0.3,0.8
		c-0.1,2-0.1,4.2-0.2,6l0,0.1h-0.1c-1,0-2.1,0-3.1,0H8.6c-2.1,0-4,0-5.6-0.1c0,0,0,0,0,0c0,0,0,0,0,0v0l0,0c0,0,0,0,0,0v0
		c-0.3,0-0.5,0.1-0.7,0.3C2.1,7.7,2,8,2,8.3l0,0c0,0,0,0,0,0.1l0.1,2.4c0,0.6,0.5,1,1,1.1c0.5,0,1.1,0,1.7,0c0.1,0,0.3,0,0.4,0
		c0.2,0,0.3,0,0.4,0c2,0,4.2,0,6.5-0.1l0.2,0l0,0.2c0,0.6,0,1.1,0,1.7c0,0.1,0,0.1,0,0.2c0,0.1,0,0.1,0,0.2c0,0.1,0,0.1,0,0.2
		c0,1.8,0,3.6,0.1,5.4l0,0.1l-0.1,0C5.4,22.7,0,28.4,0,35.5h0c0,0,0,0.1,0,0.1c0.1,1.9,0.5,3.6,1.6,5c1.1,1.4,2.8,2.1,4.9,2.2
		c1.7,0,4.7-0.5,8.4-3.1l0.2-0.1l0.1,0.2c0.1,0.3,0.2,0.6,0.3,0.9c0.1,0.3,0.4,0.5,0.7,0.6c0.1,0,0.2,0,0.3,0c0.2,0,0.4-0.1,0.6-0.2
		l2.1-1.4c0.3-0.2,0.5-0.6,0.5-0.9c0-0.2,0-0.3-0.1-0.4c-0.2-0.4-0.3-0.9-0.5-1.3l0-0.1l0.1-0.1c3.9-3.7,7.3-8.8,9.4-14.3l0-0.1
		l0.1,0c6,1.4,7.4,5.8,7.5,8.8c0,0.1,0,0.1,0,0.2v0.1c0,3.1-1.6,5.6-4.3,7.3c-2.4,1.6-5.7,2.6-9.7,3.2c-0.3,0.1-0.6,0.3-0.8,0.6
		c-0.1,0.1-0.1,0.3-0.1,0.5v0c0,0.2,0,0.3,0.1,0.5c0.3,0.6,0.6,1.3,0.8,1.9c0.2,0.4,0.6,0.7,1,0.7c0,0,0.1,0,0.1,0
		c5.8-0.8,10.1-2.5,13.1-4.9c3.1-2.5,4.6-5.9,4.6-10v-0.1c0,0,0,0,0,0C41,25.3,37.8,20,30.3,18.1z M13.9,35.3
		c-2.1,1.6-4.3,2.7-6.2,2.8l0-0.1v0.1H7.6c-0.4,0-1.1,0-1.8-0.5c-0.6-0.4-1.3-1.4-1.3-3v0c0-4.3,3.4-8,7.9-10.3l0.2-0.1l0,0.2
		c0.3,4.1,0.6,7.7,1.3,10.7L13.9,35.3L13.9,35.3z M23.8,21.8c-1.4,3.7-3.5,7.1-5.8,9.7l-0.2,0.2l-0.1-0.3c-0.5-2.5-0.7-5.4-0.8-8.7
		l0-0.1l0.1,0c1.4-0.4,3.4-1,6.7-1l0.2,0L23.8,21.8z"/>
</g>
<g>
</g>
<g>
</g>
<g>
</g>
<g>
</g>
<g>
</g>
<g>
</g>
<g>
</g>
<g>
</g>
<g>
</g>
<g>
</g>
<g>
</g>
<g>
</g>
<g>
</g>
<g>
</g>
<g>
</g>
</svg>
