<?xml version="1.0" encoding="utf-8"?>
<!-- Generator: Adobe Illustrator 18.1.1, SVG Export Plug-In . SVG Version: 6.00 Build 0)  -->
<svg version="1.1" id="Layer_1" xmlns="http://www.w3.org/2000/svg" xmlns:xlink="http://www.w3.org/1999/xlink" x="0px" y="0px"
	 viewBox="0 0 39.3 38.9" enable-background="new 0 0 39.3 38.9" xml:space="preserve">
<g>
	<path d="M12.7,1c-0.6,0.9-1.2,1.8-1.7,2.8c-0.5,1.1-1,2.3-1.5,3.6H4C6.2,4.6,9.2,2.4,12.7,1z"/>
	<path d="M2.2,10.3h6.5c-0.6,2.4-0.9,5-1,7.8H0C0.2,15.3,1,12.6,2.2,10.3z"/>
	<path d="M2.2,28.6c-1.2-2.3-2-5-2.2-7.7h7.7c0.1,2.7,0.4,5.4,1,7.7H2.2z"/>
	<path d="M4,31.4h5.4c0.4,1.3,0.9,2.5,1.5,3.6c0.5,1,1.1,2,1.7,2.8C9.2,36.6,6.2,34.3,4,31.4z"/>
	<path d="M18.3,38.9c-1.7-0.6-3.4-2.3-4.8-5.2c-0.4-0.7-0.7-1.5-1-2.3h5.8V38.9z"/>
	<path d="M18.3,28.6h-6.7c-0.6-2.3-1-5-1.1-7.7h7.7V28.6z"/>
	<path d="M18.3,18.1h-7.7c0.1-2.8,0.5-5.4,1.1-7.8h6.7V18.1z"/>
	<path d="M18.3,7.5h-5.8c0.3-0.8,0.6-1.6,1-2.3c1.4-2.8,3.1-4.5,4.8-5.1V7.5z"/>
	<path d="M37.1,10.3c1.2,2.3,2,5,2.2,7.8h-7.7c-0.1-2.7-0.4-5.4-1-7.8H37.1z"/>
	<path d="M35.3,7.5h-5.4c-0.4-1.3-0.9-2.5-1.5-3.6c-0.5-1-1.1-2-1.7-2.8C30.1,2.4,33.1,4.6,35.3,7.5z"/>
	<path d="M21.1,0c1.7,0.6,3.4,2.3,4.8,5.1c0.4,0.7,0.7,1.5,1,2.3h-5.8V0z"/>
	<path d="M21.1,10.3h6.7c0.6,2.3,1,5,1.1,7.8h-7.7V10.3z"/>
	<path d="M21.1,20.9h7.7c-0.1,2.8-0.5,5.4-1.1,7.7h-6.7V20.9z"/>
	<path d="M21.1,38.9v-7.5h5.8c-0.3,0.8-0.6,1.6-1,2.3C24.5,36.6,22.8,38.3,21.1,38.9z"/>
	<path d="M26.7,37.9c0.6-0.9,1.2-1.8,1.7-2.8c0.5-1.1,1-2.3,1.5-3.6h5.4C33.1,34.3,30.1,36.6,26.7,37.9z"/>
	<path d="M37.1,28.6h-6.5c0.6-2.4,0.9-5,1-7.7h7.7C39.1,23.7,38.3,26.3,37.1,28.6z"/>
</g>
<g>
</g>
<g>
</g>
<g>
</g>
<g>
</g>
<g>
</g>
<g>
</g>
<g>
</g>
<g>
</g>
<g>
</g>
<g>
</g>
<g>
</g>
<g>
</g>
<g>
</g>
<g>
</g>
<g>
</g>
</svg>
