<?xml version="1.0" encoding="utf-8"?>
<!-- Generator: Adobe Illustrator 18.1.1, SVG Export Plug-In . SVG Version: 6.00 Build 0)  -->
<svg version="1.1" id="Layer_1" xmlns="http://www.w3.org/2000/svg" xmlns:xlink="http://www.w3.org/1999/xlink" x="0px" y="0px"
	 viewBox="0 0 42.8 48.8" enable-background="new 0 0 42.8 48.8" xml:space="preserve">
<g>
	<path d="M39,0H12.8C10.7,0,9,1.7,9,3.8v1.9h21c3.9,0,7.1,3.2,7.1,7.1v27H39c2.1,0,3.8-1.7,3.8-3.8V3.8C42.8,1.7,41.1,0,39,0z
		 M13.7,31.5H20l-3.2-8.7L13.7,31.5z M30,9H3.8C1.7,9,0,10.7,0,12.8V45c0,2.1,1.7,3.8,3.8,3.8H30c2.1,0,3.8-1.7,3.8-3.8V12.8
		C33.8,10.7,32.1,9,30,9z M27.1,40.9h-2.4c-0.9,0-1.5-0.7-1.8-1.6l-1.2-3.2H12l-1.2,3.2c-0.3,0.9-0.9,1.6-1.8,1.6H6.6
		c-0.9,0-1.4-0.7-1.1-1.6c1.2-3.2,7.6-19.7,7.6-19.7c0.3-0.9,0.9-1.6,1.8-1.6h3.9c0.9,0,1.5,0.7,1.8,1.6l7.6,19.7
		C28.5,40.2,28,40.9,27.1,40.9z"/>
</g>
<g>
</g>
<g>
</g>
<g>
</g>
<g>
</g>
<g>
</g>
<g>
</g>
<g>
</g>
<g>
</g>
<g>
</g>
<g>
</g>
<g>
</g>
<g>
</g>
<g>
</g>
<g>
</g>
<g>
</g>
</svg>
