<?xml version="1.0" encoding="utf-8"?>
<!-- Generator: Adobe Illustrator 18.1.1, SVG Export Plug-In . SVG Version: 6.00 Build 0)  -->
<svg version="1.1" id="Layer_1" xmlns="http://www.w3.org/2000/svg" xmlns:xlink="http://www.w3.org/1999/xlink" x="0px" y="0px"
	 viewBox="0 0 39.3 38.8" enable-background="new 0 0 39.3 38.8" xml:space="preserve">
<g>
	<path d="M12.7,1c-0.6,0.9-1.2,1.8-1.7,2.8c-0.6,1.2-1.1,2.6-1.6,4c-1.6-0.5-3.1-1-4.3-1.7C7.1,4,9.7,2.2,12.7,1z"/>
	<path d="M3.3,8.5c1.6,0.9,3.4,1.6,5.3,2.1c-0.5,2.3-0.8,4.8-0.9,7.4c-2.8-0.7-5.3-1.7-7.3-2.9C1,12.7,2,10.5,3.3,8.5z"/>
	<path d="M0,19.4c0-0.4,0-0.8,0.1-1.3c2.2,1.2,4.8,2.1,7.7,2.8c0.1,2.7,0.4,5.2,1,7.6c-3.1-0.8-5.7-1.9-7.8-3.2
		C0.3,23.5,0,21.5,0,19.4z"/>
	<path d="M2.8,29.5c2,0.9,4.3,1.6,6.8,2.1c0.4,1.2,0.9,2.3,1.4,3.3c0.5,1,1.1,2,1.7,2.8C8.5,36.2,5.1,33.2,2.8,29.5z"/>
	<path d="M18.3,38.8c-1.7-0.6-3.4-2.3-4.8-5.1c-0.2-0.5-0.5-1-0.7-1.5c1.8,0.2,3.6,0.4,5.5,0.5V38.8z"/>
	<path d="M18.3,29.8c-2.3-0.1-4.4-0.3-6.5-0.6c-0.6-2.3-1-4.9-1.2-7.6c2.4,0.4,5,0.7,7.7,0.8V29.8z"/>
	<path d="M18.3,19.5c-2.7-0.1-5.3-0.4-7.7-0.8c0-2.6,0.3-5.1,0.8-7.4c2.2,0.4,4.5,0.7,6.9,0.8V19.5z"/>
	<path d="M18.3,9.3C16.1,9.2,14,9,12.1,8.6c0.4-1.3,0.9-2.4,1.4-3.5c1.4-2.8,3.1-4.5,4.8-5.1V9.3z"/>
	<path d="M35.9,8.4c1.4,2,2.4,4.4,2.9,6.9c-2,1.2-4.5,2.1-7.3,2.9c-0.1-2.7-0.4-5.2-0.9-7.5C32.6,10,34.4,9.2,35.9,8.4z"/>
	<path d="M34.2,6.2c-1.2,0.6-2.7,1.2-4.2,1.7c-0.4-1.4-1-2.8-1.6-4c-0.5-1-1.1-2-1.7-2.8C29.5,2.1,32.1,3.9,34.2,6.2z"/>
	<path d="M21.1,0c1.7,0.6,3.4,2.3,4.8,5.1c0.5,1,1,2.2,1.3,3.4c-1.9,0.4-4,0.6-6.1,0.7V0z"/>
	<path d="M21.1,12.1c2.4-0.1,4.7-0.4,6.9-0.8c0.5,2.3,0.8,4.8,0.8,7.5c-2.4,0.5-5,0.7-7.7,0.8V12.1z"/>
	<path d="M21.1,22.3c2.7-0.1,5.2-0.3,7.7-0.7c-0.1,2.7-0.6,5.3-1.2,7.6c-2,0.3-4.2,0.5-6.5,0.6V22.3z"/>
	<path d="M25.9,33.7c-1.4,2.8-3.1,4.5-4.8,5.1v-6.2c1.9,0,3.7-0.2,5.5-0.4C26.3,32.7,26.1,33.2,25.9,33.7z"/>
	<path d="M26.6,37.8c0.6-0.9,1.2-1.8,1.7-2.8c0.5-1,1-2.1,1.4-3.3c2.4-0.5,4.7-1.2,6.7-2C34.2,33.3,30.8,36.2,26.6,37.8z"/>
	<path d="M30.6,28.6c0.5-2.3,0.9-4.9,1-7.6c2.9-0.7,5.5-1.6,7.7-2.8c0,0.4,0.1,0.8,0.1,1.2c0,2.1-0.4,4.2-1,6.1
		C36.3,26.7,33.6,27.8,30.6,28.6z"/>
</g>
<g>
</g>
<g>
</g>
<g>
</g>
<g>
</g>
<g>
</g>
<g>
</g>
<g>
</g>
<g>
</g>
<g>
</g>
<g>
</g>
<g>
</g>
<g>
</g>
<g>
</g>
<g>
</g>
<g>
</g>
</svg>
