<?xml version="1.0" encoding="utf-8"?>
<!-- Generator: Adobe Illustrator 18.1.1, SVG Export Plug-In . SVG Version: 6.00 Build 0)  -->
<svg version="1.1" id="Layer_1" xmlns="http://www.w3.org/2000/svg" xmlns:xlink="http://www.w3.org/1999/xlink" x="0px" y="0px"
	 viewBox="0 0 41.1 41.2" enable-background="new 0 0 41.1 41.2" xml:space="preserve">
<g>
	<path d="M38.5,36.5c-1.3-0.1-1.6-0.3-2-1.2L22.7,0H20H19l-0.4,0.9L5.9,32.8c-0.7,1.7-1.4,2.7-1.9,3c-0.5,0.4-1.3,0.7-2.6,0.7H0v3.3
		v1.4h16.5v-3.3v-1.4h-2.7c-1.3,0-2.1-0.3-2.5-0.6c-0.5-0.4-0.6-0.6-0.6-1c0-0.4,0.2-1.3,0.6-2.4l1.4-3.7h13l2.8,7.1
		c0,0.1,0.1,0.2,0.1,0.3c-0.3,0.1-1.2,0.3-2.6,0.3h-1.2h-1.4v3.3v1.4h17.8v-3.3v-1.4H38.5z M14.6,24l4.6-11.5L23.7,24H14.6z"/>
</g>
<g>
</g>
<g>
</g>
<g>
</g>
<g>
</g>
<g>
</g>
<g>
</g>
<g>
</g>
<g>
</g>
<g>
</g>
<g>
</g>
<g>
</g>
<g>
</g>
<g>
</g>
<g>
</g>
<g>
</g>
</svg>
