<?xml version="1.0" encoding="utf-8"?>
<!-- Generator: Adobe Illustrator 18.1.1, SVG Export Plug-In . SVG Version: 6.00 Build 0)  -->
<svg version="1.1" id="Layer_1" xmlns="http://www.w3.org/2000/svg" xmlns:xlink="http://www.w3.org/1999/xlink" x="0px" y="0px"
	 viewBox="0 0 41.5 43.1" enable-background="new 0 0 41.5 43.1" xml:space="preserve">
<g>
	<path d="M3.6,18.2c1,0.8,2.1,1.7,3.3,2.7C7,21,7.2,21,7.4,21c0,0,0.1,0,0.1,0c0.2,0,0.5-0.2,0.6-0.4l1.4-2c0.3-0.4,0.2-0.9-0.2-1.2
		c-1-0.8-2.1-1.7-3.3-2.5c-1.2-0.8-2.3-1.6-3.5-2.3c-0.4-0.2-0.9-0.1-1.2,0.2l-1.2,1.7C0,14.8,0,15,0,15.2c0,0.2,0.2,0.4,0.4,0.6
		C1.5,16.6,2.5,17.4,3.6,18.2z"/>
	<path d="M2,5.4c1.1,0.8,2.1,1.5,3.1,2.3c1,0.8,2,1.8,3.1,2.9c0.2,0.2,0.4,0.3,0.6,0.3c0,0,0,0,0,0c0.2,0,0.5-0.1,0.6-0.3L11,8.6
		c0.3-0.4,0.3-0.9-0.1-1.2c-2.2-2-4.4-3.7-6.5-5.1C4.1,2,3.6,2.1,3.3,2.4L1.9,4.1C1.7,4.3,1.6,4.5,1.7,4.8C1.7,5,1.8,5.2,2,5.4z"/>
	<path d="M10.3,27l-1.8-1.2c-0.2-0.1-0.5-0.2-0.8-0.1c-0.3,0.1-0.5,0.3-0.5,0.5c-0.9,2.3-1.9,4.6-3,6.8c-1.1,2.2-2.4,4.4-4,6.6
		C-0.1,40,0,40.5,0.3,40.8l1.8,1.7c0.2,0.2,0.4,0.2,0.6,0.2c0,0,0.1,0,0.1,0c0.3,0,0.5-0.2,0.6-0.4c0.8-1.2,1.5-2.5,2.2-3.7
		c0.7-1.4,1.4-2.7,2.1-4c0.6-1.3,1.2-2.5,1.7-3.6c0.5-1,0.9-2,1.2-2.8C10.8,27.7,10.6,27.3,10.3,27z"/>
	<path d="M41.4,39.7c-0.1-0.2-0.3-0.4-0.6-0.5c-1-0.2-2-0.5-3-0.8c-1.2-0.4-2.3-0.9-3.4-1.5c-1.1-0.6-2.2-1.3-3.1-2.1
		c-0.7-0.5-1.3-1.1-1.8-1.8h10.7c0.2,0,0.5-0.1,0.6-0.3c0.2-0.2,0.3-0.4,0.3-0.6v-1.8c0-0.2-0.1-0.5-0.3-0.6
		c-0.2-0.2-0.4-0.3-0.6-0.3H27.6c0-0.3,0.1-0.5,0.1-0.8c0-0.3,0.1-0.6,0.1-1H38c0.2,0,0.5-0.1,0.6-0.3c0.2-0.2,0.3-0.4,0.3-0.6v-1.8
		c0-0.2-0.1-0.5-0.3-0.6c-0.2-0.2-0.4-0.3-0.6-0.3h-10v-1.7h9.4c0.2,0,0.5-0.1,0.6-0.3c0.2-0.2,0.3-0.4,0.3-0.6v-7.3
		c0-0.2-0.1-0.5-0.3-0.6c-0.2-0.2-0.4-0.3-0.6-0.3h-9.4v-1.5h5.3c0.2,0,0.5-0.1,0.6-0.3c0.2-0.2,0.3-0.4,0.3-0.6V6.6h6
		c0.2,0,0.5-0.1,0.6-0.3C40.9,6.2,41,6,41,5.8V4.2c0-0.2-0.1-0.5-0.3-0.6c-0.2-0.2-0.4-0.3-0.6-0.3h-6l0-2.4c0-0.2-0.1-0.5-0.3-0.6
		C33.7,0.1,33.5,0,33.2,0H31c-0.2,0-0.5,0.1-0.6,0.3c-0.2,0.2-0.3,0.4-0.3,0.6v2.4h-8.5V0.9c0-0.2-0.1-0.5-0.3-0.6
		C21.2,0.1,21,0,20.7,0h-2.2c-0.2,0-0.5,0.1-0.6,0.3c-0.2,0.2-0.3,0.4-0.3,0.6v2.5l-5.4,0c-0.2,0-0.5,0.1-0.6,0.3
		c-0.2,0.2-0.3,0.4-0.3,0.6v1.6c0,0.2,0.1,0.5,0.3,0.6c0.2,0.2,0.4,0.3,0.6,0.3h5.4v4.6c0,0.2,0.1,0.5,0.3,0.6
		c0.2,0.2,0.4,0.3,0.6,0.3H24v1.5h-9.2c-0.2,0-0.5,0.1-0.6,0.3C14.1,14,14,14.2,14,14.5v7.3c0,0.2,0.1,0.5,0.3,0.6
		c0.2,0.2,0.4,0.3,0.6,0.3H24v1.6l-9.9,0c-0.2,0-0.5,0.1-0.6,0.3c-0.2,0.2-0.3,0.4-0.3,0.6V27c0,0.2,0.1,0.5,0.3,0.6
		c0.2,0.2,0.4,0.3,0.6,0.3h9.7c0,0.3-0.1,0.6-0.1,0.9c-0.1,0.3-0.1,0.6-0.2,0.9H11.9c-0.2,0-0.5,0.1-0.6,0.3
		C11.1,30,11,30.2,11,30.5v1.8c0,0.2,0.1,0.5,0.3,0.6c0.2,0.2,0.4,0.3,0.6,0.3h10.2c-0.9,1.4-2.2,2.6-3.8,3.6
		c-1.9,1.1-4.3,2-7.4,2.8c-0.3,0.1-0.5,0.2-0.6,0.5c-0.1,0.2-0.1,0.5,0,0.8l1.1,2c0.2,0.3,0.5,0.5,0.8,0.5c0.1,0,0.2,0,0.2,0
		c3.5-1,6.3-2.3,8.6-3.8v0c2.1-1.4,3.7-3,4.8-4.9c1.8,2.3,3.9,4.1,6.2,5.5c2.4,1.4,4.9,2.4,7.4,3c0.4,0.1,0.8-0.1,1-0.4l1-2
		C41.5,40.3,41.5,40,41.4,39.7z M24,19.2h-6V17h6L24,19.2z M30.1,6.6v2h-8.5v-2H30.1z M27.9,19.2V17h6.4v2.2H27.9z"/>
</g>
<g>
</g>
<g>
</g>
<g>
</g>
<g>
</g>
<g>
</g>
<g>
</g>
<g>
</g>
<g>
</g>
<g>
</g>
<g>
</g>
<g>
</g>
<g>
</g>
<g>
</g>
<g>
</g>
<g>
</g>
</svg>
