<?xml version="1.0" encoding="utf-8"?>
<!-- Generator: Adobe Illustrator 18.1.1, SVG Export Plug-In . SVG Version: 6.00 Build 0)  -->
<svg version="1.1" id="Layer_1" xmlns="http://www.w3.org/2000/svg" xmlns:xlink="http://www.w3.org/1999/xlink" x="0px" y="0px"
	 viewBox="0 0 43.2 23.2" enable-background="new 0 0 43.2 23.2" xml:space="preserve">
<g>
	<g>
		<path d="M11.6,23.2C5.2,23.2,0,18,0,11.6l0,0C0,5.2,5.2,0,11.6,0l0,0l5.6,0c1.6,0,2.9,1.3,2.9,2.9l0,0c0,1.6-1.3,2.9-2.9,2.9l0,0
			h-5.6c-3.2,0-5.8,2.6-5.8,5.8l0,0c0,3.2,2.6,5.8,5.8,5.8l0,0h5.6v0c1.6,0,2.9,1.3,2.9,2.9l0,0c0,1.6-1.3,2.9-2.9,2.9l0,0H11.6
			L11.6,23.2z"/>
		<path d="M23.1,20.3c0-1.6,1.3-2.9,2.9-2.9l0,0h5.6c3.2,0,5.8-2.6,5.8-5.8l0,0c0-3.2-2.6-5.8-5.8-5.8l0,0l-5.6,0
			c-1.6,0-2.9-1.3-2.9-2.9l0,0C23.1,1.3,24.4,0,26,0l0,0h5.6C38,0,43.2,5.2,43.2,11.6l0,0c0,6.4-5.2,11.6-11.6,11.6l0,0H26v0
			C24.4,23.2,23.1,21.9,23.1,20.3L23.1,20.3z"/>
	</g>
	<path d="M14.3,14.5c-1.6,0-2.9-1.3-2.9-2.9l0,0c0-1.6,1.3-2.9,2.9-2.9l0,0h14.7c1.6,0,2.9,1.3,2.9,2.9l0,0c0,1.6-1.3,2.9-2.9,2.9
		l0,0H14.3L14.3,14.5z"/>
</g>
<g>
</g>
<g>
</g>
<g>
</g>
<g>
</g>
<g>
</g>
<g>
</g>
<g>
</g>
<g>
</g>
<g>
</g>
<g>
</g>
<g>
</g>
<g>
</g>
<g>
</g>
<g>
</g>
<g>
</g>
</svg>
