<?xml version="1.0" encoding="utf-8"?>
<!-- Generator: Adobe Illustrator 18.1.1, SVG Export Plug-In . SVG Version: 6.00 Build 0)  -->
<svg version="1.1" id="Layer_1" xmlns="http://www.w3.org/2000/svg" xmlns:xlink="http://www.w3.org/1999/xlink" x="0px" y="0px"
	 viewBox="0 0 614.3 602.7" enable-background="new 0 0 614.3 602.7" xml:space="preserve">
<g>
	<path d="M558.5,53.5C523.6,18.6,474.7,0,428.2,0s-95.4,18.6-130.3,53.5c-18.6,16.3-81.4,79.1-97.7,95.4
		c-37.2,34.9-53.5,81.4-53.5,128s18.6,93.1,53.5,128c23.3,20.9,48.9,37.2,79.1,46.5c16.3-16.3,34.9-34.9,51.2-48.9
		c-32.6,0-62.8-11.6-88.4-37.2c-25.6-23.3-37.2-55.8-37.2-88.4c0-32.6,11.6-62.8,37.2-88.4c18.6-16.3,79.1-79.1,97.7-95.4
		c25.6-23.3,58.2-37.2,90.8-37.2s65.2,11.6,90.8,37.2c25.6,23.3,37.2,55.8,37.2,88.4s-11.6,62.8-37.2,88.4c-2.3,2.3-9.3,9.3-16.3,14
		c2.3,14,4.7,25.6,4.7,39.6s-2.3,27.9-4.7,41.9c23.3-20.9,46.5-46.5,55.8-55.8l0,0c34.9-34.9,53.5-81.4,53.5-128
		C612,135,595.7,88.4,558.5,53.5z"/>
	<path d="M335.1,151.3c-16.3,16.3-37.2,34.9-51.2,48.9c32.6,0,62.8,11.6,88.4,37.2c25.6,23.3,37.2,55.8,37.2,88.4
		s-11.6,62.8-37.2,88.4l0,0c-18.6,16.3-79.1,79.1-97.7,95.4c-25.6,23.3-58.2,37.2-90.8,37.2s-65.2-11.6-90.8-37.2
		c-25.6-23.3-37.2-55.8-37.2-88.4s11.6-62.8,37.2-88.4c2.3-2.3,9.3-9.3,16.3-14c-2.3-11.6-4.7-25.6-4.7-37.2c0-2.3,0-2.3,0-4.7
		c0-14,2.3-25.6,4.7-39.6c-23.3,20.9-46.5,46.5-55.8,55.8C18.6,328.1,0,374.6,0,421.2s18.6,93.1,53.5,128
		c37.2,34.9,83.8,53.5,130.3,53.5l0,0c46.5,0,95.4-18.6,130.3-53.5c18.6-16.3,79.1-79.1,97.7-95.4c37.2-34.9,53.5-81.4,53.5-128
		s-18.6-93.1-53.5-128C390.9,174.5,363,158.2,335.1,151.3z"/>
</g>
<g>
</g>
<g>
</g>
<g>
</g>
<g>
</g>
<g>
</g>
<g>
</g>
<g>
</g>
<g>
</g>
<g>
</g>
<g>
</g>
<g>
</g>
<g>
</g>
<g>
</g>
<g>
</g>
<g>
</g>
</svg>
