<?xml version="1.0" encoding="utf-8"?>
<!-- Generator: Adobe Illustrator 18.1.1, SVG Export Plug-In . SVG Version: 6.00 Build 0)  -->
<svg version="1.1" id="Layer_1" xmlns="http://www.w3.org/2000/svg" xmlns:xlink="http://www.w3.org/1999/xlink" x="0px" y="0px"
	 viewBox="0 0 32.4 35.5" enable-background="new 0 0 32.4 35.5" xml:space="preserve">
<g>
	<path d="M30.4,0H1.9C0.9,0,0,0.9,0,1.9v31.6c0,1.1,0.9,1.9,1.9,1.9h28.5c1.1,0,1.9-0.9,1.9-1.9V1.9C32.4,0.9,31.5,0,30.4,0z
		 M12.2,7.5h13.1c1,0,1.7,0.8,1.7,1.7S26.3,11,25.3,11H12.2c-1,0-1.7-0.8-1.7-1.7S11.3,7.5,12.2,7.5z M7.3,28.5H7.1
		c-1.2,0-2.2-1-2.2-2.2c0-1.2,1-2.2,2.2-2.2h0.3c1.2,0,2.2,1,2.2,2.2C9.6,27.5,8.6,28.5,7.3,28.5z M7.3,20H7.1c-1.2,0-2.2-1-2.2-2.2
		c0-1.2,1-2.2,2.2-2.2h0.3c1.2,0,2.2,1,2.2,2.2C9.6,19,8.6,20,7.3,20z M7.3,11.5H7.1c-1.2,0-2.2-1-2.2-2.2C4.8,8,5.8,7,7.1,7h0.3
		c1.2,0,2.2,1,2.2,2.2C9.6,10.5,8.6,11.5,7.3,11.5z M25.3,28H12.2c-1,0-1.7-0.8-1.7-1.8c0-1,0.8-1.7,1.7-1.7h13.1
		c1,0,1.7,0.8,1.7,1.7C27,27.2,26.3,28,25.3,28z M25.3,19.5H12.2c-1,0-1.8-0.8-1.8-1.7c0-1,0.8-1.7,1.8-1.7h13.1
		c1,0,1.7,0.8,1.7,1.7C27,18.7,26.3,19.5,25.3,19.5z"/>
</g>
<g>
</g>
<g>
</g>
<g>
</g>
<g>
</g>
<g>
</g>
<g>
</g>
<g>
</g>
<g>
</g>
<g>
</g>
<g>
</g>
<g>
</g>
<g>
</g>
<g>
</g>
<g>
</g>
<g>
</g>
</svg>
