<?xml version="1.0" encoding="utf-8"?>
<!-- Generator: Adobe Illustrator 18.1.1, SVG Export Plug-In . SVG Version: 6.00 Build 0)  -->
<svg version="1.1" id="Layer_1" xmlns="http://www.w3.org/2000/svg" xmlns:xlink="http://www.w3.org/1999/xlink" x="0px" y="0px"
	 viewBox="0 0 612 669.4" enable-background="new 0 0 612 669.4" xml:space="preserve">
<g>
	<g>
		<path d="M587.1,669.4l-26.8-32.5c-17.2,13.4-38.2,19.1-61.2,19.1c-34.4,0-61.2-13.4-82.2-40.2s-30.6-63.1-30.6-109
			s9.6-82.2,30.6-110.9c21-26.8,47.8-40.2,82.2-40.2s63.1,13.4,82.2,40.2c21,26.8,30.6,63.1,30.6,110.9c0,42.1-7.6,74.6-24.9,101.4
			l24.9,30.6L587.1,669.4z M503,569.9l26.8-32.5l23,28.7c5.7-15.3,9.6-36.3,9.6-59.3c0-30.6-5.7-55.5-17.2-72.7
			s-26.8-26.8-45.9-26.8c-19.1,0-34.4,9.6-45.9,26.8s-17.2,42.1-17.2,72.7s5.7,55.5,17.2,72.7c11.5,17.2,26.8,26.8,45.9,26.8
			c11.5,0,19.1-1.9,28.7-7.7L503,569.9z"/>
		<path d="M346.2,506.8c0-1.9,0-1.9,0-3.8H74.6v-53.5h277.3c5.7-24.9,13.4-47.8,24.9-66.9H74.6V329h355.7v1.9
			c19.1-11.5,42.1-15.3,66.9-15.3c1.9,0,5.7,0,7.6,0V26.8c0-15.3-11.5-26.8-26.8-26.8H26.8C11.5,0,0,11.5,0,26.8V568
			c0,15.3,11.5,26.8,26.8,26.8h334.7C351.9,568,346.2,539.3,346.2,506.8z M74.6,91.8h355.7v53.6H74.6V91.8z M74.6,210.4h355.7v53.6
			H74.6V210.4z"/>
	</g>
</g>
<g>
</g>
<g>
</g>
<g>
</g>
<g>
</g>
<g>
</g>
<g>
</g>
<g>
</g>
<g>
</g>
<g>
</g>
<g>
</g>
<g>
</g>
<g>
</g>
<g>
</g>
<g>
</g>
<g>
</g>
</svg>
