<?xml version="1.0" encoding="utf-8"?>
<!-- Generator: Adobe Illustrator 18.1.1, SVG Export Plug-In . SVG Version: 6.00 Build 0)  -->
<svg version="1.1" id="Layer_1" xmlns="http://www.w3.org/2000/svg" xmlns:xlink="http://www.w3.org/1999/xlink" x="0px" y="0px"
	 viewBox="0 0 613.6 490.6" enable-background="new 0 0 613.6 490.6" xml:space="preserve">
<g>
	<path d="M446.9,487.3c1.6,1.6,3.2,1.6,4.9,0c1.6,0,3.2-1.6,3.2-4.9V421h153.8c1.6,0,1.6,0,3.2-1.6c0,0,1.6-1.6,1.6-3.2V299.5
		c0-1.6,0-1.6-1.6-3.2c0,0-1.6-1.6-3.2-1.6H455v-61.5c0-1.6-1.6-3.2-3.2-4.9c-1.6,0-3.2,0-4.9,0l-142.5,123
		c-1.6,1.6-1.6,1.6-1.6,3.2c0,1.6,0,3.2,1.6,3.2L446.9,487.3z"/>
	<g>
		<path d="M61.5,414.5v-43.7h208.9c0-3.2-1.6-6.5-1.6-9.7c0-9.7,4.9-21,11.3-27.5l0,0l0,0l19.4-17.8h-238V272H353l63.1-55V22.7
			c0-11.3-9.7-22.7-22.7-22.7H22.7C9.7,0,0,9.7,0,22.7v445.2c0,11.3,9.7,22.7,22.7,22.7h374c1.6,0,1.6,0,3.2,0l-85.8-74.5H61.5
			V414.5z M61.5,74.5h294.7v43.7H61.5V74.5z M61.5,173.2h294.7V217H61.5V173.2z"/>
	</g>
</g>
<g>
</g>
<g>
</g>
<g>
</g>
<g>
</g>
<g>
</g>
<g>
</g>
<g>
</g>
<g>
</g>
<g>
</g>
<g>
</g>
<g>
</g>
<g>
</g>
<g>
</g>
<g>
</g>
<g>
</g>
</svg>
