<?xml version="1.0" encoding="utf-8"?>
<!-- Generator: Adobe Illustrator 18.1.1, SVG Export Plug-In . SVG Version: 6.00 Build 0)  -->
<svg version="1.1" id="Layer_1" xmlns="http://www.w3.org/2000/svg" xmlns:xlink="http://www.w3.org/1999/xlink" x="0px" y="0px"
	 viewBox="0 0 35.3 36.8" enable-background="new 0 0 35.3 36.8" xml:space="preserve">
<g>
	<path d="M0.9,4.7h33.5c0.2,0,0.5-0.1,0.7-0.3c0.2-0.2,0.3-0.4,0.3-0.7V0.9c0-0.2-0.1-0.5-0.3-0.7C34.9,0.1,34.6,0,34.4,0H0.9
		C0.7,0,0.4,0.1,0.3,0.3C0.1,0.4,0,0.7,0,0.9v2.9c0,0.2,0.1,0.5,0.3,0.7C0.4,4.6,0.7,4.7,0.9,4.7z"/>
	<path d="M0.9,15.4h33.5c0.2,0,0.5-0.1,0.7-0.3c0.2-0.2,0.3-0.4,0.3-0.7v-2.9c0-0.2-0.1-0.5-0.3-0.7c-0.2-0.2-0.4-0.3-0.7-0.3H0.9
		c-0.2,0-0.5,0.1-0.7,0.3C0.1,11.1,0,11.4,0,11.6v2.9c0,0.2,0.1,0.5,0.3,0.7C0.4,15.3,0.7,15.4,0.9,15.4z"/>
	<path d="M0.9,26.1h33.5c0.2,0,0.5-0.1,0.7-0.3c0.2-0.2,0.3-0.4,0.3-0.7v-2.9c0-0.2-0.1-0.5-0.3-0.7c-0.2-0.2-0.4-0.3-0.7-0.3H0.9
		c-0.2,0-0.5,0.1-0.7,0.3C0.1,21.8,0,22.1,0,22.3v2.9c0,0.2,0.1,0.5,0.3,0.7C0.4,26,0.7,26.1,0.9,26.1z"/>
	<path d="M0.9,36.8h33.5c0.2,0,0.5-0.1,0.7-0.3c0.2-0.2,0.3-0.4,0.3-0.7V33c0-0.2-0.1-0.5-0.3-0.7c-0.2-0.2-0.4-0.3-0.7-0.3H0.9
		c-0.2,0-0.5,0.1-0.7,0.3C0.1,32.5,0,32.8,0,33v2.9c0,0.2,0.1,0.5,0.3,0.7C0.4,36.7,0.7,36.8,0.9,36.8z"/>
</g>
<g>
</g>
<g>
</g>
<g>
</g>
<g>
</g>
<g>
</g>
<g>
</g>
<g>
</g>
<g>
</g>
<g>
</g>
<g>
</g>
<g>
</g>
<g>
</g>
<g>
</g>
<g>
</g>
<g>
</g>
</svg>
