<?xml version="1.0" encoding="utf-8"?>
<!-- Generator: Adobe Illustrator 18.1.1, SVG Export Plug-In . SVG Version: 6.00 Build 0)  -->
<svg version="1.1" id="Layer_1" xmlns="http://www.w3.org/2000/svg" xmlns:xlink="http://www.w3.org/1999/xlink" x="0px" y="0px"
	 viewBox="0 0 40.7 32.1" enable-background="new 0 0 40.7 32.1" xml:space="preserve">
<g>
	<path d="M0.9,19.4h19.2c0.8-2.8,2.5-5.2,4.9-6.7H0.9c-0.2,0-0.5,0.1-0.7,0.3C0.1,13.1,0,13.4,0,13.6v4.9c0,0.2,0.1,0.5,0.3,0.7
		C0.4,19.3,0.7,19.4,0.9,19.4z M0.9,6.7h34.6c0.2,0,0.5-0.1,0.7-0.3c0.2-0.2,0.3-0.4,0.3-0.7V0.9c0-0.2-0.1-0.5-0.3-0.7
		C36,0.1,35.8,0,35.5,0H0.9C0.7,0,0.4,0.1,0.3,0.3C0.1,0.4,0,0.7,0,0.9v4.9c0,0.2,0.1,0.5,0.3,0.7C0.4,6.6,0.7,6.7,0.9,6.7z
		 M20,25.4H0.9c-0.2,0-0.5,0.1-0.7,0.3C0.1,25.8,0,26.1,0,26.3v4.9c0,0.2,0.1,0.5,0.3,0.7c0.2,0.2,0.4,0.3,0.7,0.3h23.5
		C22.3,30.5,20.7,28.1,20,25.4z M31.9,13.8c-4.9,0-8.9,3.9-8.9,8.8c0,4.9,3.9,8.9,8.8,8.9c4.9,0,8.9-3.9,8.9-8.8
		C40.7,17.8,36.8,13.8,31.9,13.8z M36.1,26.9l-2.2,0l-3.8-4.5v4.5l-2.5,0v-8.6l2.2,0l3.8,4.5v-4.5l2.5,0V26.9z"/>
</g>
<g>
</g>
<g>
</g>
<g>
</g>
<g>
</g>
<g>
</g>
<g>
</g>
<g>
</g>
<g>
</g>
<g>
</g>
<g>
</g>
<g>
</g>
<g>
</g>
<g>
</g>
<g>
</g>
<g>
</g>
</svg>
