<?xml version="1.0" encoding="utf-8"?>
<!-- Generator: Adobe Illustrator 18.1.1, SVG Export Plug-In . SVG Version: 6.00 Build 0)  -->
<svg version="1.1" id="Layer_1" xmlns="http://www.w3.org/2000/svg" xmlns:xlink="http://www.w3.org/1999/xlink" x="0px" y="0px"
	 viewBox="0 0 612 476.5" enable-background="new 0 0 612 476.5" xml:space="preserve">
<g>
	<g>
		<path d="M150.1,0c-7.3,0-14.6,5.8-14.6,14.6V51c0,7.3,7.3,14.6,14.6,14.6h447.3c7.3,0,14.6-7.3,14.6-14.6V14.6
			C612,5.8,604.7,0,597.4,0H150.1z"/>
	</g>
	<g>
		<path d="M0,51c0,7.3,7.3,14.6,14.6,14.6h37.9C59.7,65.6,67,58.3,67,51V14.6C67,7.3,59.7,0,52.5,0H14.6C7.3,0,0,7.3,0,14.6V51z"/>
	</g>
	<g>
		<path d="M135.5,256.5c0,7.3,7.3,14.6,14.6,14.6h447.3c7.3,0,14.6-7.3,14.6-14.6V220c0-7.3-7.3-14.6-14.6-14.6H150.1
			c-7.3,0-14.6,7.3-14.6,14.6V256.5z"/>
	</g>
	<g>
		<path d="M0,256.5c0,7.3,7.3,14.6,14.6,14.6h37.9c7.3,0,14.6-7.3,14.6-14.6V220c0-7.3-7.3-14.6-14.6-14.6H14.6
			C7.3,205.5,0,212.7,0,220V256.5z"/>
	</g>
	<g>
		<path d="M135.5,461.9c0,7.3,7.3,14.6,14.6,14.6h447.3c7.3,0,14.6-7.3,14.6-14.6v-36.4c0-7.3-7.3-14.6-14.6-14.6H150.1
			c-7.3,0-14.6,7.3-14.6,14.6V461.9z"/>
	</g>
	<g>
		<path d="M0,461.9c0,7.3,7.3,14.6,14.6,14.6h37.9c7.3,0,14.6-7.3,14.6-14.6v-36.4c0-7.3-7.3-14.6-14.6-14.6H14.6
			c-7.3,0-14.6,7.3-14.6,14.6V461.9z"/>
	</g>
</g>
<g>
</g>
<g>
</g>
<g>
</g>
<g>
</g>
<g>
</g>
<g>
</g>
<g>
</g>
<g>
</g>
<g>
</g>
<g>
</g>
<g>
</g>
<g>
</g>
<g>
</g>
<g>
</g>
<g>
</g>
</svg>
