<?xml version="1.0" encoding="utf-8"?>
<!-- Generator: Adobe Illustrator 18.1.1, SVG Export Plug-In . SVG Version: 6.00 Build 0)  -->
<svg version="1.1" id="Layer_1" xmlns="http://www.w3.org/2000/svg" xmlns:xlink="http://www.w3.org/1999/xlink" x="0px" y="0px"
	 viewBox="0 0 612 493.8" enable-background="new 0 0 612 493.8" xml:space="preserve">
<g>
	<path d="M610.4,364.3c1.6-1.6,1.6-1.6,1.6-3.2s0-3.2-1.6-3.2l-142.5-123c-1.6-1.6-3.2-1.6-4.9,0c-1.6,0-3.2,1.6-3.2,4.9v61.5H307.6
		c-1.6,0-1.6,0-3.2,1.6c0,1.6-1.6,1.6-1.6,3.2v116.6c0,1.6,0,1.6,1.6,3.2c0,0,1.6,1.6,3.2,1.6h153.8V489c0,1.6,1.6,3.2,3.2,4.9
		c1.6,0,3.2,0,4.9,0L610.4,364.3z"/>
	<g>
		<path d="M280.1,445.2L280.1,445.2L280.1,445.2c-6.5-8.1-11.3-16.2-11.3-25.9v-4.9H61.5v-43.7h208.9v-55H61.5V272h225
			c6.5-3.2,13-6.5,19.4-6.5h110.1V22.7c0-11.3-9.7-22.7-22.7-22.7H22.7C9.7,0,0,9.7,0,22.7v445.2c0,11.3,9.7,22.7,22.7,22.7h374
			c11.3,0,22.7-9.7,22.7-22.7v-11.3H307.6C297.9,456.6,288.2,453.3,280.1,445.2z M61.5,74.5h294.7v43.7H61.5V74.5z M61.5,173.2
			h294.7V217H61.5V173.2z"/>
	</g>
</g>
<g>
</g>
<g>
</g>
<g>
</g>
<g>
</g>
<g>
</g>
<g>
</g>
<g>
</g>
<g>
</g>
<g>
</g>
<g>
</g>
<g>
</g>
<g>
</g>
<g>
</g>
<g>
</g>
<g>
</g>
</svg>
