<?xml version="1.0" encoding="utf-8"?>
<!-- Generator: Adobe Illustrator 18.1.1, SVG Export Plug-In . SVG Version: 6.00 Build 0)  -->
<svg version="1.1" id="Layer_1" xmlns="http://www.w3.org/2000/svg" xmlns:xlink="http://www.w3.org/1999/xlink" x="0px" y="0px"
	 viewBox="0 0 614 697.4" enable-background="new 0 0 614 697.4" xml:space="preserve">
<g id="_x2E_svg">
	<g>
		<path d="M466.9,399.4h29.8h29.8L614,697.4h-27.8h-29.8l-15.9-59.6h-91.4l-15.9,59.6h-25.8h-25.8L466.9,399.4z M463,582.2h63.6
			L494.8,465l0,0L463,582.2z"/>
	</g>
	<path d="M371.6,522.6H77.5v-55.6h310l19.9-69.5H77.5v-55.6h345.7l0,0H465h29.8h29.8h2V27.8c0-15.9-11.9-27.8-27.8-27.8H27.8
		C11.9,0,0,11.9,0,27.8v562.3C0,606,11.9,618,27.8,618h317.9L371.6,522.6z M77.5,95.4h369.6V151H77.5V95.4z M77.5,218.6h369.6v55.6
		H77.5V218.6z"/>
</g>
<g>
</g>
<g>
</g>
<g>
</g>
<g>
</g>
<g>
</g>
<g>
</g>
<g>
</g>
<g>
</g>
<g>
</g>
<g>
</g>
<g>
</g>
<g>
</g>
<g>
</g>
<g>
</g>
<g>
</g>
</svg>
