<?xml version="1.0" encoding="utf-8"?>
<!-- Generator: Adobe Illustrator 18.1.1, SVG Export Plug-In . SVG Version: 6.00 Build 0)  -->
<svg version="1.1" id="Layer_1" xmlns="http://www.w3.org/2000/svg" xmlns:xlink="http://www.w3.org/1999/xlink" x="0px" y="0px"
	 viewBox="0 0 46.6 46.7" enable-background="new 0 0 46.6 46.7" xml:space="preserve">
<g>
	<path d="M45.8,17.1c-1.7-6-5.6-11-11-14.1C29.4,0,23.1-0.8,17.1,0.9C4.7,4.3-2.6,17.2,0.9,29.6c1.7,6,5.6,11,11,14.1
		c5.4,3.1,11.7,3.8,17.7,2.2c6-1.7,11-5.6,14.1-11C46.7,29.4,47.4,23.1,45.8,17.1z M36.6,15c0.2,0.3,0.4,0.6,0.6,1l-6.7,3.9
		c-0.2-0.3-0.3-0.7-0.6-1L36.6,15z M33.5,11.4l-4.8,6c-0.2-0.2-0.5-0.4-0.7-0.6l4.8-6C33.1,11,33.3,11.2,33.5,11.4z M23,7.6
		c0.1,0,0.2,0,0.3,0c0.1,0,0.2,0,0.3,0v7.7c-0.1,0-0.2,0-0.3,0c-0.1,0-0.2,0-0.3,0V7.6z M13.8,10.8l4.8,6c-0.2,0.2-0.5,0.4-0.7,0.6
		l-4.9-6C13.3,11.2,13.5,11,13.8,10.8z M10,15l6.7,3.9c-0.2,0.3-0.4,0.6-0.6,1L9.4,16C9.6,15.6,9.8,15.3,10,15z M7.8,20.5l7.6,1.1
		c-0.1,0.4-0.2,0.9-0.2,1.3l-7.6-1.1C7.7,21.3,7.8,20.9,7.8,20.5z M7.9,26.7l7.5-2c0.1,0.5,0.2,1,0.4,1.5l-7.5,2
		C8.2,27.7,8,27.2,7.9,26.7z M11.5,34L11.5,34L11.5,34C11.5,34,11.5,34,11.5,34z M11.7,34c-0.4-0.5-0.8-1-1.2-1.5l6-4.9
		c0.3,0.5,0.7,1,1.2,1.5L11.7,34z M17.4,38L17.4,38L17.4,38C17.4,38,17.4,38,17.4,38z M17.5,38c-0.8-0.3-1.5-0.7-2.2-1.1l3.4-7
		c0.7,0.5,1.4,0.8,2.2,1.1L17.5,38z M20.4,15.9l-2.5-7.3c0.2-0.1,0.4-0.2,0.7-0.2l2.5,7.3C20.8,15.7,20.6,15.8,20.4,15.9z M24.9,39
		c-0.5,0-1.1,0.1-1.6,0.1c-0.5,0-1.1,0-1.6-0.1v-7.8c0.5,0.1,1.1,0.2,1.6,0.2c0.5,0,1.1-0.1,1.6-0.2V39z M28.1,8.3
		c0.2,0.1,0.5,0.2,0.7,0.2l-2.5,7.3c-0.2-0.1-0.4-0.2-0.7-0.2L28.1,8.3z M29.1,38l-3.4-7c0.8-0.2,1.5-0.6,2.2-1.1l3.4,7
		C30.6,37.3,29.8,37.7,29.1,38z M34.9,34l-6-4.9c0.5-0.4,0.9-0.9,1.2-1.5l6,4.9C35.7,33,35.3,33.5,34.9,34z M38.7,26.8L38.7,26.8
		L38.7,26.8c-0.1,0.5-0.2,0.9-0.4,1.4l-7.5-2c0.2-0.5,0.3-1,0.4-1.5l7.5,2C38.7,26.7,38.7,26.7,38.7,26.8L38.7,26.8z M31.3,22.9
		c0-0.5-0.1-0.9-0.2-1.3l7.6-1.1c0.1,0.4,0.1,0.9,0.2,1.3L31.3,22.9z"/>
</g>
<g>
</g>
<g>
</g>
<g>
</g>
<g>
</g>
<g>
</g>
<g>
</g>
<g>
</g>
<g>
</g>
<g>
</g>
<g>
</g>
<g>
</g>
<g>
</g>
<g>
</g>
<g>
</g>
<g>
</g>
</svg>
