<?xml version="1.0" encoding="utf-8"?>
<!-- Generator: Adobe Illustrator 18.1.1, SVG Export Plug-In . SVG Version: 6.00 Build 0)  -->
<svg version="1.1" id="Layer_1" xmlns="http://www.w3.org/2000/svg" xmlns:xlink="http://www.w3.org/1999/xlink" x="0px" y="0px"
	 viewBox="0 0 39.5 48.7" enable-background="new 0 0 39.5 48.7" xml:space="preserve">
<g>
	<path d="M35.6,20.7h-1.7v-6.6C33.9,6.3,27.5,0,19.8,0S5.6,6.3,5.6,14.1v6.6H4c-2.2,0-4,1.8-4,4v20.1c0,2.2,1.8,4,4,4h31.6
		c2.2,0,4-1.8,4-4V24.6C39.5,22.5,37.7,20.7,35.6,20.7z M23.5,42.3h-7.4l2.1-7.2c-1.7-0.6-2.9-2.3-2.9-4.2c0-2.5,2-4.5,4.5-4.5
		c2.5,0,4.5,2,4.5,4.5c0,1.9-1.2,3.6-2.9,4.2L23.5,42.3z M28.6,20.7H10.9c0-3.7,0-6.6,0-6.6c0-4.9,4-8.8,8.8-8.8
		c4.9,0,8.8,4,8.8,8.8C28.6,14.1,28.6,17,28.6,20.7z"/>
</g>
<g>
</g>
<g>
</g>
<g>
</g>
<g>
</g>
<g>
</g>
<g>
</g>
<g>
</g>
<g>
</g>
<g>
</g>
<g>
</g>
<g>
</g>
<g>
</g>
<g>
</g>
<g>
</g>
<g>
</g>
</svg>
