<?xml version="1.0" encoding="utf-8"?>
<!-- Generator: Adobe Illustrator 18.1.1, SVG Export Plug-In . SVG Version: 6.00 Build 0)  -->
<svg version="1.1" id="Layer_1" xmlns="http://www.w3.org/2000/svg" xmlns:xlink="http://www.w3.org/1999/xlink" x="0px" y="0px"
	 viewBox="0 0 612 777.6" enable-background="new 0 0 612 777.6" xml:space="preserve">
<path d="M591.3,310.4h-59.1c0-35.5,0-68,0-85.7C532.2,100.5,428.7,0,304.5,0S79.8,100.5,79.8,224.7c0,17.7,0,50.3,0,85.7H20.7
	C8.9,310.4,0,319.3,0,331.1v366.6c0,44.3,35.5,79.8,79.8,79.8h452.3c44.3,0,79.8-35.5,79.8-79.8V328.2
	C612,319.3,603.1,310.4,591.3,310.4z M159.7,224.7c0-79.8,65-147.8,147.8-147.8c79.8,0,147.8,65,147.8,147.8c0,17.7,0,50.3,0,85.7
	H159.7C159.7,275,159.7,242.4,159.7,224.7z M334.1,552.9v118.3H275V552.9c-23.7-11.8-41.4-35.5-41.4-65c0-38.4,32.5-71,71-71
	s71,32.5,71,71C378.4,517.4,360.7,541,334.1,552.9z"/>
<g>
</g>
<g>
</g>
<g>
</g>
<g>
</g>
<g>
</g>
<g>
</g>
<g>
</g>
<g>
</g>
<g>
</g>
<g>
</g>
<g>
</g>
<g>
</g>
<g>
</g>
<g>
</g>
<g>
</g>
</svg>
