<?xml version="1.0" encoding="utf-8"?>
<!-- Generator: Adobe Illustrator 18.1.1, SVG Export Plug-In . SVG Version: 6.00 Build 0)  -->
<svg version="1.1" id="Layer_1" xmlns="http://www.w3.org/2000/svg" xmlns:xlink="http://www.w3.org/1999/xlink" x="0px" y="0px"
	 viewBox="0 0 33.9 43" enable-background="new 0 0 33.9 43" xml:space="preserve">
<g>
	<path d="M29.9,16.2h-1.2v-4.5C28.6,5.2,23.4,0,16.9,0C10.5,0,5.2,5.2,5.2,11.7v4.5H4c-2.2,0-4,1.8-4,4V39c0,2.2,1.8,4,4,4h25.9
		c2.2,0,4-1.8,4-4V20.2C33.9,18,32.1,16.2,29.9,16.2z M9.2,11.7c0-4.3,3.5-7.7,7.7-7.7c4.3,0,7.7,3.5,7.7,7.7v4.5H9.2V11.7z
		 M29.9,39H4V20.2h25.9V39z"/>
</g>
<g>
</g>
<g>
</g>
<g>
</g>
<g>
</g>
<g>
</g>
<g>
</g>
<g>
</g>
<g>
</g>
<g>
</g>
<g>
</g>
<g>
</g>
<g>
</g>
<g>
</g>
<g>
</g>
<g>
</g>
</svg>
