<?xml version="1.0" encoding="utf-8"?>
<!-- Generator: Adobe Illustrator 18.1.1, SVG Export Plug-In . SVG Version: 6.00 Build 0)  -->
<svg version="1.1" id="Layer_1" xmlns="http://www.w3.org/2000/svg" xmlns:xlink="http://www.w3.org/1999/xlink" x="0px" y="0px"
	 viewBox="0 0 608.2 736.9" enable-background="new 0 0 608.2 736.9" xml:space="preserve">
<g>
	<path d="M532.9,229v-12.5C532.9,95.8,437.1,0,316.4,0h-20.8C174.9,0,79.1,95.8,79.1,216.5V229C37.5,229,0,262.3,0,308.1v349.7
		c0,45.8,37.5,79.1,79.1,79.1h449.6c45.8,0,79.1-37.5,79.1-79.1V308.1C612,262.3,574.5,229,532.9,229z M295.6,70.8h20.8
		c79.1,0,145.7,66.6,145.7,145.7V229H149.9v-12.5C149.9,133.2,212.3,70.8,295.6,70.8z M541.2,657.8c0,4.2-4.2,12.5-12.5,12.5H79.1
		c-4.2,0-12.5-4.2-12.5-12.5V308.1c0-4.2,4.2-12.5,12.5-12.5h449.6c4.2,0,12.5,4.2,12.5,12.5V657.8z"/>
	<rect x="270.6" y="408" width="70.8" height="149.9"/>
</g>
<g>
</g>
<g>
</g>
<g>
</g>
<g>
</g>
<g>
</g>
<g>
</g>
<g>
</g>
<g>
</g>
<g>
</g>
<g>
</g>
<g>
</g>
<g>
</g>
<g>
</g>
<g>
</g>
<g>
</g>
</svg>
