<?xml version="1.0" encoding="utf-8"?>
<!-- Generator: Adobe Illustrator 18.1.1, SVG Export Plug-In . SVG Version: 6.00 Build 0)  -->
<svg version="1.1" id="Layer_1" xmlns="http://www.w3.org/2000/svg" xmlns:xlink="http://www.w3.org/1999/xlink" x="0px" y="0px"
	 viewBox="0 0 36.3 40.3" enable-background="new 0 0 36.3 40.3" xml:space="preserve">
<g>
	<path d="M30.2,13.5V8c0-4.4-3.6-8-8-8h-8.1c-4.4,0-8,3.6-8,8v0.2c0,1.2,1,2.2,2.2,2.2c1.2,0,2.2-1,2.2-2.2V8c0-1,0.4-1.9,1.1-2.5
		c0.7-0.7,1.5-1.1,2.5-1.1h8.1c1,0,1.9,0.4,2.5,1.1C25.4,6.1,25.8,7,25.8,8v5.3H8c-4.4,0-8,3.6-8,8v11.2c0,4.4,3.6,7.9,8,8h20.4
		c4.4,0,8-3.6,8-8V21.2C36.3,17.4,33.7,14.3,30.2,13.5z M30.8,34.9c-0.7,0.7-1.5,1-2.5,1.1H8c-1,0-1.9-0.4-2.5-1.1
		c-0.7-0.7-1-1.5-1.1-2.5V21.2c0-1,0.4-1.9,1.1-2.5C6.1,18,7,17.6,8,17.6h20.4c1,0,1.9,0.4,2.5,1.1c0.7,0.7,1,1.5,1.1,2.5v11.2
		C31.9,33.4,31.5,34.3,30.8,34.9z"/>
	<path d="M17.9,22c-1.9,0-3.5,1.6-3.5,3.5c0,1.3,0.8,2.5,1.8,3v3.3c0,0.9,0.7,1.6,1.6,1.6c0.9,0,1.6-0.7,1.6-1.6v-3.3
		c1.1-0.6,1.8-1.7,1.8-3.1C21.4,23.5,19.8,22,17.9,22z"/>
</g>
<g>
</g>
<g>
</g>
<g>
</g>
<g>
</g>
<g>
</g>
<g>
</g>
<g>
</g>
<g>
</g>
<g>
</g>
<g>
</g>
<g>
</g>
<g>
</g>
<g>
</g>
<g>
</g>
<g>
</g>
</svg>
