<?xml version="1.0" encoding="utf-8"?>
<!-- Generator: Adobe Illustrator 18.1.1, SVG Export Plug-In . SVG Version: 6.00 Build 0)  -->
<svg version="1.1" id="Layer_1" xmlns="http://www.w3.org/2000/svg" xmlns:xlink="http://www.w3.org/1999/xlink" x="0px" y="0px"
	 viewBox="0 0 41.9 30.3" enable-background="new 0 0 41.9 30.3" xml:space="preserve">
<g>
	<path d="M41.8,3.3c0,0,0-0.1,0-0.1c-0.3-1.4-1.2-2.5-2.5-3c0,0-0.1,0-0.1,0C38.7,0.1,38.3,0,37.9,0H4C3.6,0,3.1,0.1,2.7,0.2
		c0,0-0.1,0-0.1,0c-1.3,0.5-2.3,1.6-2.5,3c0,0,0,0.1,0,0.1C0,3.6,0,3.8,0,4v22.3c0,2.2,1.8,4,4,4h33.9c2.2,0,4-1.8,4-4V4
		C41.9,3.8,41.8,3.6,41.8,3.3z M34.9,4L20.9,16.3L7,4H34.9z M37.9,26.3H4V6.7l16.9,15l16.9-15V26.3z"/>
</g>
<g>
</g>
<g>
</g>
<g>
</g>
<g>
</g>
<g>
</g>
<g>
</g>
<g>
</g>
<g>
</g>
<g>
</g>
<g>
</g>
<g>
</g>
<g>
</g>
<g>
</g>
<g>
</g>
<g>
</g>
</svg>
