<?xml version="1.0" encoding="utf-8"?>
<!-- Generator: Adobe Illustrator 18.1.1, SVG Export Plug-In . SVG Version: 6.00 Build 0)  -->
<svg version="1.1" id="Layer_1" xmlns="http://www.w3.org/2000/svg" xmlns:xlink="http://www.w3.org/1999/xlink" x="0px" y="0px"
	 viewBox="0 0 40.9 31.9" enable-background="new 0 0 40.9 31.9" xml:space="preserve">
<g>
	<path d="M40.4,0.5C40.1,0.2,39.6,0,39.2,0H1.7C1.2,0,0.8,0.2,0.5,0.5C0.2,0.8,0,1.2,0,1.7v28.5c0,0.4,0.2,0.9,0.5,1.2
		c0.3,0.3,0.8,0.5,1.2,0.5h37.5c0.4,0,0.9-0.2,1.2-0.5c0.3-0.3,0.5-0.8,0.5-1.2V1.7C40.9,1.2,40.7,0.8,40.4,0.5z M37.5,28.5H3.4V4.2
		c0,0,0,0.1,0.1,0.1l15.9,13.2l0,0c0.6,0.4,0.9,0.4,1,0.4c0,0,0.1,0,0.1,0c0.2,0,0.5,0,1-0.4l0,0L37.4,4.3c0,0,0-0.1,0.1-0.1V28.5z"
		/>
</g>
<g>
</g>
<g>
</g>
<g>
</g>
<g>
</g>
<g>
</g>
<g>
</g>
<g>
</g>
<g>
</g>
<g>
</g>
<g>
</g>
<g>
</g>
<g>
</g>
<g>
</g>
<g>
</g>
<g>
</g>
</svg>
