<?xml version="1.0" encoding="utf-8"?>
<!-- Generator: Adobe Illustrator 18.1.1, SVG Export Plug-In . SVG Version: 6.00 Build 0)  -->
<svg version="1.1" id="Layer_1" xmlns="http://www.w3.org/2000/svg" xmlns:xlink="http://www.w3.org/1999/xlink" x="0px" y="0px"
	 viewBox="0 0 47.6 32.5" enable-background="new 0 0 47.6 32.5" xml:space="preserve">
<g>
	<path d="M43,0H4.6C2,0,0,2,0,4.5V28c0,2.5,2,4.6,4.6,4.6H43c2.5,0,4.6-2,4.6-4.6V4.5C47.6,2,45.5,0,43,0z M43.7,28.7
		c-0.7,0.7-1.7,0.7-2.4,0L31.2,18.7l-2.8,2.8c-2.5,2.5-6.6,2.5-9.1,0l-2.8-2.8L6.5,28.7c-0.7,0.7-1.7,0.7-2.4,0
		c-0.7-0.7-0.7-1.7,0-2.4l10.1-10.1L4,6.2C3.4,5.6,3.4,4.5,4,3.8s1.7-0.7,2.4,0l10.1,10.1l2.4,2.4l2.8,2.8c1.3,1.3,3,1.3,4.3,0
		l2.8-2.8l2.4-2.4L41.3,3.8c0.7-0.7,1.7-0.7,2.4,0c0.7,0.7,0.7,1.7,0,2.4L33.6,16.3l10.1,10.1C44.3,27,44.3,28.1,43.7,28.7z"/>
</g>
<g>
</g>
<g>
</g>
<g>
</g>
<g>
</g>
<g>
</g>
<g>
</g>
<g>
</g>
<g>
</g>
<g>
</g>
<g>
</g>
<g>
</g>
<g>
</g>
<g>
</g>
<g>
</g>
<g>
</g>
</svg>
