<?xml version="1.0" encoding="utf-8"?>
<!-- Generator: Adobe Illustrator 18.1.1, SVG Export Plug-In . SVG Version: 6.00 Build 0)  -->
<svg version="1.1" id="Layer_1" xmlns="http://www.w3.org/2000/svg" xmlns:xlink="http://www.w3.org/1999/xlink" x="0px" y="0px"
	 viewBox="0 0 42.3 33.7" enable-background="new 0 0 42.3 33.7" xml:space="preserve">
<g>
	<path d="M42.3,0H0v33.7h42.3V0z M38.8,27.9c-0.6,0.6-1.6,0.6-2.1,0L27.7,19l-2.5,2.5c-2.2,2.2-5.9,2.2-8.1,0L14.7,19l-8.9,8.9
		c-0.6,0.6-1.6,0.6-2.1,0c-0.6-0.6-0.6-1.6,0-2.1l8.9-8.9L3.6,7.9C3,7.3,3,6.4,3.6,5.8c0.6-0.6,1.6-0.6,2.1,0l8.9,8.9l2.1,2.1
		l2.5,2.5c1.2,1.2,2.6,1.2,3.8,0l2.5-2.5l2.1-2.1l8.9-8.9c0.6-0.6,1.6-0.6,2.1,0c0.6,0.6,0.6,1.6,0,2.1l-8.9,8.9l8.9,8.9
		C39.4,26.4,39.4,27.3,38.8,27.9z"/>
</g>
<g>
</g>
<g>
</g>
<g>
</g>
<g>
</g>
<g>
</g>
<g>
</g>
<g>
</g>
<g>
</g>
<g>
</g>
<g>
</g>
<g>
</g>
<g>
</g>
<g>
</g>
<g>
</g>
<g>
</g>
</svg>
