<?xml version="1.0" encoding="utf-8"?>
<!-- Generator: Adobe Illustrator 18.1.1, SVG Export Plug-In . SVG Version: 6.00 Build 0)  -->
<svg version="1.1" id="Layer_1" xmlns="http://www.w3.org/2000/svg" xmlns:xlink="http://www.w3.org/1999/xlink" x="0px" y="0px"
	 viewBox="0 0 38.4 38.4" enable-background="new 0 0 38.4 38.4" xml:space="preserve">
<g>
	<path d="M14.4,0H1.8C0.8,0,0,0.8,0,1.8l0,12.6c0,1,0.8,1.8,1.8,1.8h12.6c1,0,1.8-0.8,1.8-1.8l0-12.6C16.2,0.8,15.4,0,14.4,0z
		 M23.9,16.2h12.6c1,0,1.8-0.8,1.8-1.8l0-12.6c0-1-0.8-1.8-1.8-1.8H23.9c-1,0-1.8,0.8-1.8,1.8l0,12.6C22.2,15.4,23,16.2,23.9,16.2z
		 M14.4,22.1l-12.6,0c-1,0-1.8,0.8-1.8,1.8v12.6c0,1,0.8,1.8,1.8,1.8l12.6,0c1,0,1.8-0.8,1.8-1.8V23.9C16.2,23,15.4,22.2,14.4,22.1z
		 M36.6,22.1l-12.6,0c-1,0-1.8,0.8-1.8,1.8v12.6c0,1,0.8,1.8,1.8,1.8l12.6,0c1,0,1.8-0.8,1.8-1.8V23.9C38.4,23,37.6,22.2,36.6,22.1z
		"/>
</g>
<g>
</g>
<g>
</g>
<g>
</g>
<g>
</g>
<g>
</g>
<g>
</g>
<g>
</g>
<g>
</g>
<g>
</g>
<g>
</g>
<g>
</g>
<g>
</g>
<g>
</g>
<g>
</g>
<g>
</g>
</svg>
