<?xml version="1.0" encoding="utf-8"?>
<!-- Generator: Adobe Illustrator 18.1.1, SVG Export Plug-In . SVG Version: 6.00 Build 0)  -->
<svg version="1.1" id="Layer_1" xmlns="http://www.w3.org/2000/svg" xmlns:xlink="http://www.w3.org/1999/xlink" x="0px" y="0px"
	 viewBox="0 0 612 703.5" enable-background="new 0 0 612 703.5" xml:space="preserve">
<g>
	<g>
		<path d="M339.5,166.7C337.5,75.2,262.3,0,170.8,0S2,73.2,0,164.7C52.9,176.9,109.8,183,168.8,183S284.7,178.9,339.5,166.7z"/>
		<path d="M2,201.3c8.1,38.6,28.5,75.2,59,99.6c0,0,30.5,26.4,107.8,26.4S276.5,303,276.5,303c30.5-24.4,50.8-59,59-97.6
			c-52.9,10.2-109.8,14.2-166.7,14.2C111.8,217.6,56.9,211.5,2,201.3z"/>
		<path d="M59,339.5l44.7,341.6h12.2l6.1,22.4h87.4l6.1-24.4h12.2l48.8-339.5c-18.3,10.2-52.9,22.4-107.8,22.4
			C111.8,361.9,77.3,347.7,59,339.5z"/>
	</g>
	<g>
		<path d="M431,398.5h36.6h36.6l107.8,305h-34.6h-34.6l-20.3-61H406.6l-20.3,61h-32.5h-32.5L431,398.5z M424.9,589.6h81.3l-40.7-122
			l0,0L424.9,589.6z"/>
	</g>
</g>
<g>
</g>
<g>
</g>
<g>
</g>
<g>
</g>
<g>
</g>
<g>
</g>
<g>
</g>
<g>
</g>
<g>
</g>
<g>
</g>
<g>
</g>
<g>
</g>
<g>
</g>
<g>
</g>
<g>
</g>
</svg>
