<?xml version="1.0" encoding="utf-8"?>
<!-- Generator: Adobe Illustrator 18.1.1, SVG Export Plug-In . SVG Version: 6.00 Build 0)  -->
<svg version="1.1" id="Layer_1" xmlns="http://www.w3.org/2000/svg" xmlns:xlink="http://www.w3.org/1999/xlink" x="0px" y="0px"
	 viewBox="0 0 614.2 780.5" enable-background="new 0 0 614.2 780.5" xml:space="preserve">
<g>
	<g>
		<polygon points="133,778.3 228.4,780.5 232.8,753.9 126.4,753.9 		"/>
		<g>
			<path d="M186.3,0C86.5,0,2.2,79.8,0,179.6c57.7,13.3,119.7,20,184,20s126.4-6.7,184-17.7C368.1,82,286,0,186.3,0z"/>
			<path d="M2.2,219.5c8.9,42.1,31,82,64.3,108.7c0,0,33.3,28.8,117.5,28.8s117.5-26.6,117.5-26.6c33.3-26.6,55.4-64.3,64.3-106.4
				C308.2,235,246.1,239.5,184,239.5C122,237.3,62.1,230.6,2.2,219.5z"/>
		</g>
	</g>
	<g>
		<g>
			<path d="M381.4,751.7c2.2,2.2,4.4,2.2,6.7,0c2.2,0,4.4-2.2,4.4-6.7v-84.3l212.9,2.2c2.2,0,2.2,0,4.4-2.2c0,0,2.2-2.2,2.2-4.4
				l2.2-161.9c0-2.2,0-2.2-2.2-4.4c0-2.2-2.2-2.2-4.4-2.2l-212.9-2.2v-84.3c0-2.2-2.2-4.4-4.4-6.7c-2.2,0-4.4,0-6.7,0L184,565.4
				c-2.2,2.2-2.2,2.2-2.2,4.4s0,4.4,2.2,4.4L381.4,751.7z"/>
			<g>
				<path d="M157.4,609.8c-8.9-8.9-15.5-20-15.5-33.3c0-13.3,6.7-24.4,15.5-33.3l133-113.1l11.1-57.7c-20,11.1-57.7,24.4-117.5,24.4
					c-62.1,0-99.8-15.5-117.5-24.4l46.6,381.4h135.3l11.1-59.9L157.4,609.8z"/>
			</g>
		</g>
	</g>
</g>
<g>
</g>
<g>
</g>
<g>
</g>
<g>
</g>
<g>
</g>
<g>
</g>
<g>
</g>
<g>
</g>
<g>
</g>
<g>
</g>
<g>
</g>
<g>
</g>
<g>
</g>
<g>
</g>
<g>
</g>
</svg>
