<?xml version="1.0" encoding="utf-8"?>
<!-- Generator: Adobe Illustrator 18.1.1, SVG Export Plug-In . SVG Version: 6.00 Build 0)  -->
<svg version="1.1" id="Layer_1" xmlns="http://www.w3.org/2000/svg" xmlns:xlink="http://www.w3.org/1999/xlink" x="0px" y="0px"
	 viewBox="0 0 31.5 48" enable-background="new 0 0 31.5 48" xml:space="preserve">
<g>
	<path d="M15,30.6h1.5c4,0,7.2-3.2,7.2-7.2V7.2c0-4-3.2-7.2-7.2-7.2H15c-4,0-7.2,3.2-7.2,7.2v16.2C7.8,27.4,11,30.6,15,30.6z
		 M31.2,19L29.1,18c-0.2-0.1-0.4-0.1-0.5,0c-0.2,0.1-0.3,0.3-0.3,0.5v5.2c0,6.5-5.3,11.8-11.8,11.8H15c-6.5,0-11.8-5.3-11.8-11.8
		v-5.2c0-0.2-0.1-0.4-0.3-0.5c-0.2-0.1-0.4-0.1-0.5,0L0.3,19C0.1,19.1,0,19.3,0,19.5v4.1C0,31.6,6.2,38,13.9,38.6v5.8h-1.3
		c-3.5,0-6.3,1.5-6.3,2.9c0,0,0,0,0,0v0.2c0,0.3,0.3,0.5,0.6,0.5h17.7c0.3,0,0.5-0.2,0.5-0.5v-0.3c-0.1-1.3-2.8-2.8-6.2-2.8v0h-1.4
		v-5.8c7.8-0.6,13.9-7,13.9-14.9v-4.1C31.5,19.3,31.4,19.1,31.2,19z"/>
</g>
<g>
</g>
<g>
</g>
<g>
</g>
<g>
</g>
<g>
</g>
<g>
</g>
<g>
</g>
<g>
</g>
<g>
</g>
<g>
</g>
<g>
</g>
<g>
</g>
<g>
</g>
<g>
</g>
<g>
</g>
</svg>
