<?xml version="1.0" encoding="utf-8"?>
<!-- Generator: Adobe Illustrator 18.1.1, SVG Export Plug-In . SVG Version: 6.00 Build 0)  -->
<svg version="1.1" id="Layer_1" xmlns="http://www.w3.org/2000/svg" xmlns:xlink="http://www.w3.org/1999/xlink" x="0px" y="0px"
	 viewBox="0 0 612 750.9" enable-background="new 0 0 612 750.9" xml:space="preserve">
<g>
	<g>
		<polygon points="130.2,750.9 223.5,750.9 227.9,727 123.7,724.9 		"/>
		<g>
			<path d="M182.3,0C84.6,0,2.2,78.1,0,175.8c56.4,13,117.2,19.5,180.1,19.5s123.7-6.5,180.1-17.4C360.3,80.3,280,0,182.3,0z"/>
			<path d="M2.2,214.9c8.7,41.2,30.4,80.3,62.9,106.3c0,0,32.6,28.2,115,28.2s115-26,115-26c32.6-26,54.3-62.9,62.9-104.2
				c-56.4,10.9-117.2,15.2-178,15.2C119.4,232.2,60.8,225.7,2.2,214.9z"/>
		</g>
	</g>
	<g>
		<g>
			<path d="M609.8,557.7c2.2-2.2,2.2-2.2,2.2-4.3s0-4.3-2.2-4.3L416.7,379.8c-2.2-2.2-4.3-2.2-6.5,0c-2.2,0-4.3,2.2-4.3,6.5v82.5
				l-208.3-2.2c-2.2,0-2.2,0-4.3,2.2c0,0-2.2,2.2-2.2,4.3v156.3c0,2.2,0,2.2,2.2,4.3c0,0,2.2,2.2,4.3,2.2l208.3,2.2v82.5
				c0,2.2,2.2,4.3,4.3,6.5c2.2,0,4.3,0,6.5,0L609.8,557.7z"/>
			<g>
				<path d="M197.5,672.8c-10.9,0-21.7-4.3-30.4-13l0,0l0,0c-8.7-8.7-13-19.5-13-30.4l2.2-158.4c0-10.9,4.3-21.7,13-30.4
					c8.7-8.7,19.5-13,30.4-13h82.5l13-65.1c-19.5,10.9-56.4,23.9-115,23.9c-60.8,0-97.7-15.2-115-23.9l47.7,362.4h132.4l8.7-52.1
					L197.5,672.8z"/>
			</g>
		</g>
	</g>
</g>
<g>
</g>
<g>
</g>
<g>
</g>
<g>
</g>
<g>
</g>
<g>
</g>
<g>
</g>
<g>
</g>
<g>
</g>
<g>
</g>
<g>
</g>
<g>
</g>
<g>
</g>
<g>
</g>
<g>
</g>
</svg>
