<?xml version="1.0" encoding="utf-8"?>
<!-- Generator: Adobe Illustrator 18.1.1, SVG Export Plug-In . SVG Version: 6.00 Build 0)  -->
<svg version="1.1" id="Layer_1" xmlns="http://www.w3.org/2000/svg" xmlns:xlink="http://www.w3.org/1999/xlink" x="0px" y="0px"
	 viewBox="0 0 612 665.9" enable-background="new 0 0 612 665.9" xml:space="preserve">
<g>
	<g>
		<path d="M321.4,157.8C319.5,71.2,248.3,0,161.7,0S1.9,69.3,0,155.9c50,11.5,103.9,17.3,159.7,17.3S269.4,169.4,321.4,157.8z"/>
		<path d="M1.9,190.5c7.7,36.6,26.9,71.2,55.8,94.3c0,0,28.9,25,102,25s102-23.1,102-23.1c28.9-23.1,48.1-55.8,55.8-92.4
			c-50,9.6-103.9,13.5-157.8,13.5C105.8,205.9,53.9,200.2,1.9,190.5z"/>
		<path d="M55.8,321.4l42.3,323.3h11.5l5.8,21.2h82.8l5.8-23.1h11.5l46.2-321.4c-17.3,9.6-50,21.2-102,21.2
			C105.8,342.6,73.1,329.1,55.8,321.4z"/>
	</g>
	<g>
		<path d="M581.2,665.9l-32.7-30.8c-21.2,13.5-46.2,19.2-75.1,19.2c-42.3,0-75.1-13.5-100.1-40.4c-25-26.9-36.6-63.5-36.6-109.7
			s11.5-84.7,36.6-111.6c25-26.9,57.7-42.3,100.1-42.3c42.3,0,77,13.5,102,42.3c25,26.9,36.6,65.4,36.6,111.6
			c0,42.3-9.6,75.1-30.8,102l30.8,28.9L581.2,665.9z M475.4,567.7l30.8-32.7l30.8,28.9c9.6-15.4,13.5-36.6,13.5-61.6
			c0-32.7-7.7-57.7-21.2-75.1c-13.5-17.3-32.7-26.9-57.7-26.9c-25,0-44.3,9.6-57.7,26.9s-21.2,42.3-21.2,75.1
			c0,30.8,7.7,55.8,21.2,73.1s32.7,26.9,57.7,26.9c11.5,0,23.1-1.9,32.7-5.8L475.4,567.7z"/>
	</g>
</g>
<g>
</g>
<g>
</g>
<g>
</g>
<g>
</g>
<g>
</g>
<g>
</g>
<g>
</g>
<g>
</g>
<g>
</g>
<g>
</g>
<g>
</g>
<g>
</g>
<g>
</g>
<g>
</g>
<g>
</g>
</svg>
