<?xml version="1.0" encoding="utf-8"?>
<!-- Generator: Adobe Illustrator 18.1.1, SVG Export Plug-In . SVG Version: 6.00 Build 0)  -->
<svg version="1.1" id="Layer_1" xmlns="http://www.w3.org/2000/svg" xmlns:xlink="http://www.w3.org/1999/xlink" x="0px" y="0px"
	 viewBox="0 0 49.5 45.2" enable-background="new 0 0 49.5 45.2" xml:space="preserve">
<g>
	<path d="M1.5,36.5H48c0.9,0,1.5-0.7,1.5-1.5V1.4C49.4,0.6,48.8,0,48,0H1.5C0.7,0,0.1,0.6,0,1.4L0,35C0,35.8,0.7,36.5,1.5,36.5z
		 M2.5,2.5H47v26.6H2.5V2.5z"/>
	<path d="M34.7,43.9c-2.5-0.6-3.1-2.5-3.1-5v-0.6h-6.8h-6.8V39c0,2.5-0.6,4.3-3.1,5c-0.6,0.2-0.6,1.2,0,1.2h9.9h9.9
		C35.3,45.2,35.3,44.1,34.7,43.9z"/>
</g>
<g>
</g>
<g>
</g>
<g>
</g>
<g>
</g>
<g>
</g>
<g>
</g>
<g>
</g>
<g>
</g>
<g>
</g>
<g>
</g>
<g>
</g>
<g>
</g>
<g>
</g>
<g>
</g>
<g>
</g>
</svg>
