<?xml version="1.0" encoding="utf-8"?>
<!-- Generator: Adobe Illustrator 18.1.1, SVG Export Plug-In . SVG Version: 6.00 Build 0)  -->
<svg version="1.1" id="Layer_1" xmlns="http://www.w3.org/2000/svg" xmlns:xlink="http://www.w3.org/1999/xlink" x="0px" y="0px"
	 viewBox="0 0 45 42" enable-background="new 0 0 45 42" xml:space="preserve">
<g>
	<path d="M44.6,0.4C44.3,0.2,43.9,0,43.5,0h-42C1.1,0,0.7,0.2,0.4,0.4C0.2,0.7,0,1.1,0,1.5v27.3c0,0.4,0.2,0.8,0.4,1.1
		c0.3,0.3,0.7,0.4,1.1,0.4h21h21c0.4,0,0.8-0.2,1.1-0.4c0.3-0.3,0.4-0.7,0.4-1.1V1.5C45,1.1,44.9,0.7,44.6,0.4z M42,27.3H22.5H3
		v-2.5h19.5H42V27.3z M42,21.8H22.5H3V3h39V21.8z M34.9,39.1L24,36.3v-3.8h-3v3.8l-10.9,2.7c-0.8,0.2-1.3,1-1.1,1.8
		c0.2,0.7,0.8,1.1,1.5,1.1c0.1,0,0.2,0,0.4,0l11.7-2.9L34.2,42c0.1,0,0.2,0,0.4,0c0.7,0,1.3-0.5,1.5-1.1
		C36.2,40.1,35.7,39.3,34.9,39.1z"/>
</g>
<g>
</g>
<g>
</g>
<g>
</g>
<g>
</g>
<g>
</g>
<g>
</g>
<g>
</g>
<g>
</g>
<g>
</g>
<g>
</g>
<g>
</g>
<g>
</g>
<g>
</g>
<g>
</g>
<g>
</g>
</svg>
