<?xml version="1.0" encoding="utf-8"?>
<!-- Generator: Adobe Illustrator 18.1.1, SVG Export Plug-In . SVG Version: 6.00 Build 0)  -->
<svg version="1.1" id="Layer_1" xmlns="http://www.w3.org/2000/svg" xmlns:xlink="http://www.w3.org/1999/xlink" x="0px" y="0px"
	 viewBox="0 0 26.1 41" enable-background="new 0 0 26.1 41" xml:space="preserve">
<g>
	<path d="M24.8,15.2L6.3,0.8c-1.2-0.8-2.7-1-4.1-0.4c-1.4,0.7-2.2,2-2.2,3.5L0,27.2c0,0.5,0.2,1,0.4,1.5c1,2,3.4,2.8,5.3,1.9
		c0.2-0.1,0.4-0.2,0.6-0.4l2.6-2l5.1,10.5c0,0,0.1,0.2,0.1,0.2c1,1.9,3.3,2.7,5.2,1.8c0,0,4-1.9,4-1.9c1.9-1,2.7-3.2,1.8-5.2
		c0,0-0.1-0.2-0.1-0.2L20,22.9l3.2-0.8c0.2-0.1,0.5-0.1,0.7-0.3c2-1,2.8-3.4,1.9-5.3C25.5,16,25.2,15.6,24.8,15.2z M14.2,20.2
		l7.3,15L17.7,37l-7.3-15L4,27L4.1,4l18,14.2L14.2,20.2z"/>
</g>
<g>
</g>
<g>
</g>
<g>
</g>
<g>
</g>
<g>
</g>
<g>
</g>
<g>
</g>
<g>
</g>
<g>
</g>
<g>
</g>
<g>
</g>
<g>
</g>
<g>
</g>
<g>
</g>
<g>
</g>
</svg>
