<?xml version="1.0" encoding="utf-8"?>
<!-- Generator: Adobe Illustrator 18.1.1, SVG Export Plug-In . SVG Version: 6.00 Build 0)  -->
<svg version="1.1" id="Layer_1" xmlns="http://www.w3.org/2000/svg" xmlns:xlink="http://www.w3.org/1999/xlink" x="0px" y="0px"
	 viewBox="0 0 35.6 36.5" enable-background="new 0 0 35.6 36.5" xml:space="preserve">
<g>
	<path d="M33.7,12.5H8.6l24.4-6.8c1-0.3,1.6-1.4,1.3-2.4l-0.5-1.9c-0.3-1-1.4-1.6-2.4-1.3L1.4,8.5c-1,0.3-1.6,1.4-1.3,2.4l1,3.4
		c0,0.1,0,0.1,0,0.2v20.1c0,1.1,0.9,1.9,1.9,1.9h30.7c1.1,0,1.9-0.9,1.9-1.9V14.5C35.6,13.4,34.7,12.5,33.7,12.5z M22.1,25.6
		L17,29.5c-0.7,0.6-1.3,0.3-1.3-0.7v-8.6c0-0.9,0.6-1.2,1.3-0.7l5.1,3.9C22.8,24.1,22.8,25,22.1,25.6z"/>
</g>
<g>
</g>
<g>
</g>
<g>
</g>
<g>
</g>
<g>
</g>
<g>
</g>
<g>
</g>
<g>
</g>
<g>
</g>
<g>
</g>
<g>
</g>
<g>
</g>
<g>
</g>
<g>
</g>
<g>
</g>
</svg>
