<?xml version="1.0" encoding="utf-8"?>
<!-- Generator: Adobe Illustrator 18.1.1, SVG Export Plug-In . SVG Version: 6.00 Build 0)  -->
<svg version="1.1" id="Layer_1" xmlns="http://www.w3.org/2000/svg" xmlns:xlink="http://www.w3.org/1999/xlink" x="0px" y="0px"
	 viewBox="0 0 44.5 55.1" enable-background="new 0 0 44.5 55.1" xml:space="preserve">
<g>
	<path d="M42,26.5c-0.2,0-0.3-0.1-0.5-0.1H7.9l29.7-14.9c1.5-0.7,2.1-2.5,1.3-4l-3-5.9c-0.7-1.5-2.5-2.1-4-1.3L1.6,15.5
		c-1.5,0.7-2.1,2.5-1.3,4l3,5.9c0.5,1,1.5,1.6,2.5,1.6c-0.7,0.5-1.2,1.4-1.2,2.4v22.7c0,1.6,1.3,3,3,3h33.9c0.2,0,0.3,0,0.5-0.1
		c1.4-0.2,2.5-1.5,2.5-2.9V29.4C44.5,28,43.4,26.8,42,26.5z M37.5,28.9l-7.7,7.7h-6.1l7.7-7.7L37.5,28.9z M25.4,28.9l-7.7,7.7h-6.1
		l7.7-7.7H25.4z M13.2,28.9L7.1,35l0-6.1H13.2z M33.5,2.3l2.7,5.4L28.1,5L33.5,2.3z M22.6,7.8l10.3,3.4l-5.4,2.7l-10.3-3.4L22.6,7.8
		z M11.8,13.2L22,16.6l-5.4,2.7L6.3,15.9L11.8,13.2z M5.7,24.8L3,19.4l8.2,2.7L5.7,24.8z M35.9,36.6l6.1-6.1l0,6.1H35.9z"/>
</g>
<g>
</g>
<g>
</g>
<g>
</g>
<g>
</g>
<g>
</g>
<g>
</g>
<g>
</g>
<g>
</g>
<g>
</g>
<g>
</g>
<g>
</g>
<g>
</g>
<g>
</g>
<g>
</g>
<g>
</g>
</svg>
