<?xml version="1.0" encoding="utf-8"?>
<!-- Generator: Adobe Illustrator 18.1.1, SVG Export Plug-In . SVG Version: 6.00 Build 0)  -->
<svg version="1.1" id="Layer_1" xmlns="http://www.w3.org/2000/svg" xmlns:xlink="http://www.w3.org/1999/xlink" x="0px" y="0px"
	 viewBox="0 0 46.4 57.5" enable-background="new 0 0 46.4 57.5" xml:space="preserve">
<g>
	<path d="M43.3,27.6h-35l30.9-15.5c1.5-0.8,2.1-2.6,1.4-4.2l-3.1-6.2c-0.8-1.5-2.6-2.1-4.2-1.4L1.7,16.2c-1.5,0.8-2.1,2.6-1.4,4.2
		l3.1,6.2c0.5,1,1.5,1.6,2.6,1.7c-0.7,0.6-1.2,1.5-1.2,2.5v23.7c0,1.7,1.4,3.1,3.1,3.1h35.4c1.7,0,3.1-1.4,3.1-3.1V30.7
		C46.4,29,45,27.6,43.3,27.6z M7.4,30.2h6.3l-6.3,6.3L7.4,30.2z M34.9,2.4L37.8,8l-8.5-2.8L34.9,2.4z M23.6,8.1l10.7,3.5l-5.7,2.9
		l-10.7-3.6L23.6,8.1z M12.3,13.8L23,17.3l-5.7,2.9L6.6,16.6L12.3,13.8z M3.1,20.2l8.5,2.8L6,25.9L3.1,20.2z M43.8,54.9l-36.4,0
		l0-16.7h4.7l8-8h6.3l-8,8h6.3l8-8l6.3,0l-8,8h6.3l6.3-6.3L43.8,54.9z"/>
</g>
<g>
</g>
<g>
</g>
<g>
</g>
<g>
</g>
<g>
</g>
<g>
</g>
<g>
</g>
<g>
</g>
<g>
</g>
<g>
</g>
<g>
</g>
<g>
</g>
<g>
</g>
<g>
</g>
<g>
</g>
</svg>
