<?xml version="1.0" encoding="utf-8"?>
<!-- Generator: Adobe Illustrator 18.1.1, SVG Export Plug-In . SVG Version: 6.00 Build 0)  -->
<svg version="1.1" id="Layer_1" xmlns="http://www.w3.org/2000/svg" xmlns:xlink="http://www.w3.org/1999/xlink" x="0px" y="0px"
	 viewBox="0 0 40.8 37.2" enable-background="new 0 0 40.8 37.2" xml:space="preserve">
<g>
	<path d="M2.2,0C1,0,0,1,0,2.2v4L6.7,0H2.2z"/>
	<path d="M38.6,0L27.6,10.3H34l6.9-6v-2C40.8,1,39.8,0,38.6,0z"/>
	<path d="M36.9,33.2H4V12.4H0V35c0,1.2,1,2.2,2.2,2.2h36.4c1.2,0,2.2-1,2.2-2.2V12.4h-4V33.2z"/>
	<polygon points="21.2,10.3 32.3,0 25.9,0 14.8,10.3 	"/>
	<polygon points="3.1,10.3 8.4,10.3 19.5,0 13.1,0 2.1,10.3 	"/>
</g>
<g>
</g>
<g>
</g>
<g>
</g>
<g>
</g>
<g>
</g>
<g>
</g>
<g>
</g>
<g>
</g>
<g>
</g>
<g>
</g>
<g>
</g>
<g>
</g>
<g>
</g>
<g>
</g>
<g>
</g>
</svg>
