<?xml version="1.0" encoding="utf-8"?>
<!-- Generator: Adobe Illustrator 18.1.1, SVG Export Plug-In . SVG Version: 6.00 Build 0)  -->
<svg version="1.1" id="Layer_1" xmlns="http://www.w3.org/2000/svg" xmlns:xlink="http://www.w3.org/1999/xlink" x="0px" y="0px"
	 viewBox="0 0 35.1 42.2" enable-background="new 0 0 35.1 42.2" xml:space="preserve">
<g>
	<path d="M34.5,0l0,0.1l0,0L34.5,0c-0.1,0-0.2,0-0.3,0c-0.1,0-0.9,0.3-1.1,0.4C25,3.2,17.1,4,13.6,4c0,0,0,0-0.1,0
		c-0.3,0-1.4,0-2.3,0c-0.5,0-0.9,0-1.2,0c-0.2,0-0.3,0-0.4,0c0,0-0.1,0-0.1,0c0,0,0,0,0,0h0l0,0c0,0,0,0,0,0c0,0,0,0,0,0
		c-0.3,0-0.6,0.3-0.6,0.6l0,26.7l-0.2,0C8.1,31.1,7.5,31,6.9,31c-0.7,0-1.5,0.1-2.2,0.4C1.8,32.3,0,34.7,0,37.1c0,0,0,0,0,0
		c0,0,0,0,0,0c0,0.5,0.1,1,0.2,1.5c0.7,2.2,3,3.6,5.5,3.6c0.7,0,1.5-0.1,2.2-0.4c3-1,4.6-3.6,4.6-6.2v-0.1h0V13.3h0.1
		c3.4,0,10.8-0.4,18.3-2.9l0.2-0.1v18.1l-0.2,0c-0.6-0.2-1.2-0.2-1.8-0.2c-0.7,0-1.5,0.1-2.2,0.4c-2.8,0.9-4.6,3.3-4.6,5.7
		c0,0,0,0,0,0c0,0.5,0.1,1,0.2,1.5c0.7,2.2,3,3.6,5.5,3.6c0.7,0,1.5-0.1,2.3-0.4c3-1,4.6-3.6,4.6-6.2l0-32.1C35.1,0.2,34.8,0,34.5,0
		z"/>
</g>
<g>
</g>
<g>
</g>
<g>
</g>
<g>
</g>
<g>
</g>
<g>
</g>
<g>
</g>
<g>
</g>
<g>
</g>
<g>
</g>
<g>
</g>
<g>
</g>
<g>
</g>
<g>
</g>
<g>
</g>
</svg>
