<?xml version="1.0" encoding="utf-8"?>
<!-- Generator: Adobe Illustrator 18.1.1, SVG Export Plug-In . SVG Version: 6.00 Build 0)  -->
<svg version="1.1" id="Layer_1" xmlns="http://www.w3.org/2000/svg" xmlns:xlink="http://www.w3.org/1999/xlink" x="0px" y="0px"
	 viewBox="0 0 36 34" enable-background="new 0 0 36 34" xml:space="preserve">
<g>
	<path d="M35.9,25.9l0-25.3c0-0.4-0.3-0.7-0.8-0.6L12.1,0c-0.4,0.1-0.8,0.5-0.8,0.9V22c-1.6-0.5-3.4-0.5-5.3,0.1
		c-4.1,1.2-6.7,4.7-5.8,7.7c0.9,3,5,4.5,9.1,3.3c3.9-1.2,6.5-4.4,5.9-7.3V9.7c0-0.4,0.3-0.8,0.8-0.9h15.5c0.4-0.1,0.8,0.2,0.8,0.6
		l0,13.1c-1.6-0.5-3.4-0.5-5.3,0.1c-4.1,1.2-6.7,4.6-5.8,7.7c0.9,3,5,4.5,9.1,3.3C34.2,32.4,36.6,29,35.9,25.9z"/>
</g>
<g>
</g>
<g>
</g>
<g>
</g>
<g>
</g>
<g>
</g>
<g>
</g>
<g>
</g>
<g>
</g>
<g>
</g>
<g>
</g>
<g>
</g>
<g>
</g>
<g>
</g>
<g>
</g>
<g>
</g>
</svg>
