<?xml version="1.0" encoding="utf-8"?>
<!-- Generator: Adobe Illustrator 18.1.1, SVG Export Plug-In . SVG Version: 6.00 Build 0)  -->
<svg version="1.1" id="Layer_1" xmlns="http://www.w3.org/2000/svg" xmlns:xlink="http://www.w3.org/1999/xlink" x="0px" y="0px"
	 viewBox="0 0 42.7 40.9" enable-background="new 0 0 42.7 40.9" xml:space="preserve">
<g>
	<path d="M0.8,13.6C0.4,13.6,0,14,0,14.4v4.3c0,0.4,0.4,0.8,0.8,0.8h27.5c0-2.3,0-4.2,0-5.9H0.8z"/>
	<path d="M25.5,24c0.1,0,0.2,0,0.2-0.1H0.8c-0.4,0-0.8,0.4-0.8,0.8V29c0,0.4,0.4,0.8,0.8,0.8h17.7C19.9,27.1,22.3,25,25.5,24z"/>
	<path d="M17.4,34.7c0-0.1,0-0.2,0-0.3c0-0.1,0-0.2,0-0.3H0.8c-0.4,0-0.8,0.4-0.8,0.8v4.3C0,39.7,0.4,40,0.8,40h18.5
		c-0.6-0.8-1.1-1.7-1.4-2.7C17.6,36.5,17.4,35.6,17.4,34.7z"/>
	<path d="M28.4,4c0-0.1,0-0.2,0.1-0.4c0-0.1,0-0.1,0-0.1c0,0,0-0.1,0-0.1H0.8C0.4,3.4,0,3.7,0,4.2v4.3c0,0.4,0.4,0.8,0.8,0.8h27.5
		c0-4.1,0-5.2,0.1-5.6C28.4,3.8,28.4,3.9,28.4,4z"/>
	<path d="M42.7,0.8c0-0.2-0.1-0.5-0.3-0.6C42.2,0.1,42.1,0,41.9,0c-0.1,0-9.7,3-9.7,3c-0.3,0.1-0.5,0.4-0.5,0.7c0,0,0,23.2,0,23.2
		c-0.6-0.1-1.5-0.2-2.4-0.2c-0.9,0-1.8,0.1-2.7,0.4c-1.6,0.5-3,1.5-4,2.7C21,31.6,20.3,34,21,36.3c0.5,1.7,1.8,3,3.3,3.8
		c1.1,0.6,2.4,0.9,3.7,0.9c0.9,0,1.8-0.1,2.8-0.4c0.4-0.1,0.8-0.3,1.1-0.4c2.5-1.2,4.1-3.5,4.5-5.9c0.1-0.5,0.1-0.9,0.1-1.4l0-21.1
		l5.6-2c0.3-0.1,0.6-0.4,0.6-0.7V0.8z"/>
</g>
<g>
</g>
<g>
</g>
<g>
</g>
<g>
</g>
<g>
</g>
<g>
</g>
<g>
</g>
<g>
</g>
<g>
</g>
<g>
</g>
<g>
</g>
<g>
</g>
<g>
</g>
<g>
</g>
<g>
</g>
</svg>
