<?xml version="1.0" encoding="utf-8"?>
<!-- Generator: Adobe Illustrator 18.1.1, SVG Export Plug-In . SVG Version: 6.00 Build 0)  -->
<svg version="1.1" id="Layer_1" xmlns="http://www.w3.org/2000/svg" xmlns:xlink="http://www.w3.org/1999/xlink" x="0px" y="0px"
	 viewBox="0 0 43.1 39.9" enable-background="new 0 0 43.1 39.9" xml:space="preserve">
<g>
	<path d="M42.4,0.6c-0.5-0.4-1.1-0.6-1.7-0.6L13.3,3c-1.1,0.1-2,1.1-2,2.2v17.6c-0.9-0.4-1.9-0.6-3-0.6H7.5c-4.1,0-7.5,3.4-7.5,7.5
		v2.8c0,4.1,3.4,7.5,7.5,7.5h0.9c4.1,0,7.5-3.4,7.5-7.5L15.8,7.2l23-2.5v15.1c-0.9-0.4-2-0.7-3.1-0.7h-0.9c-4.1,0-7.5,3.4-7.5,7.5
		v2.8c0,4.1,3.4,7.5,7.5,7.5h0.9c4.1,0,7.5-3.4,7.5-7.5l0-27.3C43.1,1.6,42.9,1,42.4,0.6z M11.4,32.4c0,1.7-1.4,3-3,3H7.5
		c-1.7,0-3-1.4-3-3v-2.8c0-1.7,1.4-3,3-3h0.9c1.7,0,3,1.4,3,3V32.4z M38.7,29.5c0,1.7-1.4,3-3,3h-0.9c-1.7,0-3-1.4-3-3v-2.8
		c0-1.7,1.4-3,3-3h0.9c1.7,0,3,1.4,3,3V29.5z"/>
</g>
<g>
</g>
<g>
</g>
<g>
</g>
<g>
</g>
<g>
</g>
<g>
</g>
<g>
</g>
<g>
</g>
<g>
</g>
<g>
</g>
<g>
</g>
<g>
</g>
<g>
</g>
<g>
</g>
<g>
</g>
</svg>
