<?xml version="1.0" encoding="utf-8"?>
<!-- Generator: Adobe Illustrator 18.1.1, SVG Export Plug-In . SVG Version: 6.00 Build 0)  -->
<svg version="1.1" id="Layer_1" xmlns="http://www.w3.org/2000/svg" xmlns:xlink="http://www.w3.org/1999/xlink" x="0px" y="0px"
	 viewBox="0 0 40.9 40.9" enable-background="new 0 0 40.9 40.9" xml:space="preserve">
<g>
	<path d="M3,0H0.9C0.4,0,0,0.4,0,0.9V40c0,0.5,0.4,0.9,0.9,0.9H3c0.5,0,0.9-0.4,0.9-0.9V0.9C3.9,0.4,3.5,0,3,0z"/>
	<path d="M40.1,0h-33C6.6,0,6.2,0.4,6.2,0.9V40c0,0.5,0.4,0.9,0.9,0.9h33c0.5,0,0.9-0.4,0.9-0.9V0.9C40.9,0.4,40.5,0,40.1,0z
		 M34.6,28c0,1.9-1.5,3.9-3.6,4.6c-0.5,0.2-1.1,0.3-1.6,0.3c-1.8,0-3.5-1-4-2.7c-0.1-0.4-0.2-0.7-0.2-1.1v0c0-1.8,1.3-3.6,3.3-4.2
		c0.5-0.2,1.1-0.3,1.6-0.3c0.4,0,0.7,0,1.1,0.1V13.5l-11.8,1.9v14.8h0c-0.1,1.9-1.5,3.7-3.6,4.4c-0.5,0.2-1.1,0.3-1.6,0.3
		c-1.8,0-3.5-1-4-2.7c-0.1-0.3-0.2-0.7-0.2-1c0,0,0,0,0-0.1c0,0,0,0,0-0.1c0-1.8,1.4-3.5,3.3-4.2c0.5-0.2,1.1-0.3,1.6-0.3h0
		c0,0,0,0,0,0c0,0,0,0,0,0c0.4,0,0.7,0,1,0.1V10.3c0-0.4,0.3-0.7,0.7-0.7l0,0C17.3,9.5,33.8,6.8,34,6.8l0,0c0.3,0,0.6,0.3,0.7,0.6
		c0,0,0,0,0,0V28z"/>
</g>
<g>
</g>
<g>
</g>
<g>
</g>
<g>
</g>
<g>
</g>
<g>
</g>
<g>
</g>
<g>
</g>
<g>
</g>
<g>
</g>
<g>
</g>
<g>
</g>
<g>
</g>
<g>
</g>
<g>
</g>
</svg>
