<?xml version="1.0" encoding="utf-8"?>
<!-- Generator: Adobe Illustrator 18.1.1, SVG Export Plug-In . SVG Version: 6.00 Build 0)  -->
<svg version="1.1" id="Layer_1" xmlns="http://www.w3.org/2000/svg" xmlns:xlink="http://www.w3.org/1999/xlink" x="0px" y="0px"
	 viewBox="0 0 39.7 39.7" enable-background="new 0 0 39.7 39.7" xml:space="preserve">
<g>
	<path d="M37.3,0h-35C1.1,0,0,1.1,0,2.3v35c0,1.3,1.1,2.3,2.3,2.3h35c1.3,0,2.3-1.1,2.3-2.3v-35C39.7,1.1,38.6,0,37.3,0z M5.8,36.5
		c-1.5,0-2.7-1.2-2.7-2.7c0-1.5,1.2-2.7,2.7-2.7c1.5,0,2.7,1.2,2.7,2.7C8.4,35.4,7.2,36.5,5.8,36.5z M5.8,8.4
		c-1.5,0-2.7-1.2-2.7-2.7c0-1.5,1.2-2.7,2.7-2.7c1.5,0,2.7,1.2,2.7,2.7C8.4,7.2,7.2,8.4,5.8,8.4z M28.8,28.9h-5c0,0-5.7-6.8-7.6-9.1
		c0,2.7,0,9.1,0,9.1h-5.4v-18h5c0,0,5.7,6.8,7.6,9.1c0-2.7,0-9.1,0-9.1h5.4V28.9z M33.9,36.5c-1.5,0-2.7-1.2-2.7-2.6
		c0-1.5,1.2-2.7,2.7-2.7c1.5,0,2.7,1.2,2.7,2.7C36.5,35.4,35.3,36.5,33.9,36.5z M33.9,8.4c-1.5,0-2.7-1.2-2.7-2.7
		c0-1.5,1.2-2.6,2.7-2.6c1.5,0,2.7,1.2,2.7,2.6C36.5,7.2,35.3,8.4,33.9,8.4z"/>
</g>
<g>
</g>
<g>
</g>
<g>
</g>
<g>
</g>
<g>
</g>
<g>
</g>
<g>
</g>
<g>
</g>
<g>
</g>
<g>
</g>
<g>
</g>
<g>
</g>
<g>
</g>
<g>
</g>
<g>
</g>
</svg>
