<?xml version="1.0" encoding="utf-8"?>
<!-- Generator: Adobe Illustrator 18.1.1, SVG Export Plug-In . SVG Version: 6.00 Build 0)  -->
<svg version="1.1" id="Layer_1" xmlns="http://www.w3.org/2000/svg" xmlns:xlink="http://www.w3.org/1999/xlink" x="0px" y="0px"
	 viewBox="0 0 43.9 50.4" enable-background="new 0 0 43.9 50.4" xml:space="preserve">
<g>
	<path d="M27.7,14.3c-1.2-0.9-2.4-1.3-3-1.5V2.4c0-0.4,0-0.8,0.1-1.1c0.1-0.1,0.1-0.3,0.1-0.3c0,0,0-0.1,0-0.1c0,0,0,0,0,0
		c0.1-0.2,0.1-0.4,0-0.6C24.9,0.1,24.7,0,24.5,0H22h0h-2.5c-0.2,0-0.4,0.1-0.5,0.3c-0.1,0.2-0.1,0.4,0,0.6c0,0,0,0,0,0
		C19,1,19.2,1.7,19.2,2.4l0,10.4c-0.6,0.2-1.8,0.6-3,1.5c-1.7,1.3-3.5,3.7-3.5,7.7c0,0.2,0,21.1,0,21.1c0,1.3,0.2,2.3,0.7,3.2
		c0.4,0.9,1.1,1.6,1.9,2.2c1.7,1.2,3.3,1.9,6.4,1.9c0.1,0,0.1,0,0.2,0c0.1,0,0.1,0,0.2,0c3.2,0,4.8-0.7,6.4-1.8
		c0.8-0.6,1.5-1.3,1.9-2.2c0.4-0.9,0.7-1.9,0.7-3.2c0,0,0-21,0-21.1C31.2,18,29.5,15.6,27.7,14.3z M28.6,38.5
		c-1.8,0.7-3.3,1.1-6.5,1.1c-0.1,0-0.3,0-0.4,0c-3.1,0-4.7-0.4-6.5-1.1V23.2c1.8,0.7,3.3,1.1,6.5,1.1c0.1,0,0.3,0,0.4,0
		c3.1,0,4.7-0.4,6.5-1.1V38.5z M6.5,8.5H4.6C2,8.5,0,10.6,0,13.1v26.6c0,2.5,2,4.6,4.6,4.6h1.9c0.1,0,0.2,0,0.2-0.1
		c0.1-0.1,0.1-0.2,0.1-0.2v-3c0-0.1,0-0.2-0.1-0.2c-0.1-0.1-0.2-0.1-0.2-0.1H4.6c-0.5,0-0.9-0.4-0.9-0.9V13.1c0-0.5,0.4-0.9,0.9-0.9
		h1.9c0.1,0,0.2,0,0.2-0.1c0.1-0.1,0.1-0.2,0.1-0.3v-3c0-0.1,0-0.2-0.1-0.3C6.6,8.6,6.6,8.5,6.5,8.5z M39.4,8.5h-1.9
		c-0.1,0-0.2,0-0.2,0.1c-0.1,0.1-0.1,0.2-0.1,0.2v3c0,0.1,0,0.2,0.1,0.2c0.1,0.1,0.2,0.1,0.2,0.1h1.9c0.5,0,0.9,0.4,0.9,0.9v26.6
		c0,0.5-0.4,0.9-0.9,0.9h-1.9c-0.1,0-0.2,0-0.2,0.1c-0.1,0.1-0.1,0.2-0.1,0.2v3c0,0.1,0,0.2,0.1,0.2c0.1,0.1,0.2,0.1,0.2,0.1h1.9
		c2.5,0,4.6-2,4.6-4.6V13.1C43.9,10.6,41.9,8.6,39.4,8.5z"/>
</g>
<g>
</g>
<g>
</g>
<g>
</g>
<g>
</g>
<g>
</g>
<g>
</g>
<g>
</g>
<g>
</g>
<g>
</g>
<g>
</g>
<g>
</g>
<g>
</g>
<g>
</g>
<g>
</g>
<g>
</g>
</svg>
