<?xml version="1.0" encoding="utf-8"?>
<!-- Generator: Adobe Illustrator 18.1.1, SVG Export Plug-In . SVG Version: 6.00 Build 0)  -->
<svg version="1.1" id="Layer_1" xmlns="http://www.w3.org/2000/svg" xmlns:xlink="http://www.w3.org/1999/xlink" x="0px" y="0px"
	 viewBox="0 0 45.4 41.6" enable-background="new 0 0 45.4 41.6" xml:space="preserve">
<g>
	<path d="M9.1,15c-1.1,0-1.8,0.8-1.8,1.8c0,1,0.7,1.8,1.8,1.8c1.1,0,1.8-0.8,1.8-1.8C10.9,15.9,10.3,15,9.1,15z M25.4,15
		c-1.1,0-1.8,0.8-1.8,1.8c0,1,0.7,1.8,1.8,1.8c1.1,0,1.8-0.8,1.8-1.8C27.2,15.9,26.6,15,25.4,15z M36.3,15c-1.1,0-1.8,0.8-1.8,1.8
		c0,1,0.7,1.8,1.8,1.8c1.1,0,1.8-0.8,1.8-1.8C38.1,15.8,37.4,15,36.3,15z M43.1,1.9c-1.3-1.2-3-1.9-4.9-1.9H7.2
		c-2,0-3.8,0.8-5.1,2.1C0.8,3.4,0,5.2,0,7.2v17.4c0,1.8,0.7,3.5,1.8,4.7c1.3,1.5,3.2,2.4,5.4,2.4h10.6l3.9,9.2
		c0.2,0.4,0.5,0.7,1,0.7c0.4,0,0.8-0.3,1-0.7l3.9-9.2h10.6c1.9,0,3.6-0.7,4.9-1.9c1.4-1.3,2.3-3.2,2.3-5.3V7.2
		C45.4,5.1,44.5,3.2,43.1,1.9z M9.9,21.2c-0.9,0-1.9-0.4-2.4-1.2h0v0.9H4.7V9.1h2.8v4.5C8,12.9,9,12.5,9.9,12.5c2.3,0,3.9,2,3.9,4.3
		C13.8,19.2,12.2,21.2,9.9,21.2z M18.8,20.9H16v-6.8c0-1.3-0.2-2.3-1.3-2.5V8.8c2.4,0,4.1,1.7,4.1,4.7V20.9z M25.4,21.2
		c-2.5,0-4.7-1.6-4.7-4.3c0-2.8,2.2-4.3,4.7-4.3c2.5,0,4.7,1.6,4.7,4.3C30.2,19.6,28,21.2,25.4,21.2z M40.8,20.1
		c0,3.5-1.7,5.1-4.7,5.1h-0.6v-2.6H36c1.5,0,2-1,2-2.3V20c-0.7,0.7-1.5,1.1-2.5,1.1c-2.3,0-3.9-1.8-3.9-4.2c0-2.4,1.6-4.4,4-4.4
		c0.9,0,1.8,0.3,2.3,1.1h0v-0.9h2.8V20.1z"/>
</g>
<g>
</g>
<g>
</g>
<g>
</g>
<g>
</g>
<g>
</g>
<g>
</g>
<g>
</g>
<g>
</g>
<g>
</g>
<g>
</g>
<g>
</g>
<g>
</g>
<g>
</g>
<g>
</g>
<g>
</g>
</svg>
