<?xml version="1.0" encoding="utf-8"?>
<!-- Generator: Adobe Illustrator 18.1.1, SVG Export Plug-In . SVG Version: 6.00 Build 0)  -->
<svg version="1.1" id="Layer_1" xmlns="http://www.w3.org/2000/svg" xmlns:xlink="http://www.w3.org/1999/xlink" x="0px" y="0px"
	 viewBox="0 0 39.9 48" enable-background="new 0 0 39.9 48" xml:space="preserve">
<g>
	<path d="M36.7,33c-0.9-2-2.4-2.3-2.7-2.4l0,0v0c-0.9-0.1-1.6-0.9-1.5-1.9l0,0c0.1-0.9,1-1.5,1.9-1.4l0,0c0.2,0,3.7,0.6,5.4,4.4l0,0
		c0.4,0.8,0,1.8-0.9,2.2l0,0C38.7,34,38.4,34,38.2,34l0,0C37.6,34,36.9,33.6,36.7,33L36.7,33z"/>
	<path d="M0.2,25.6c-0.5-0.8-0.2-1.8,0.6-2.3l0,0c0.8-0.5,1.8-0.2,2.3,0.6l0,0c1.3,2.1,2.3,2.1,2.7,2.1l0,0c0.1,0,0.1,0,0.1,0l0,0
		c0.9-0.2,1.8,0.4,2,1.2l0,0c0.2,0.9-0.3,1.8-1.2,2l0,0c-0.1,0-0.4,0.1-0.9,0.1l0,0c0,0-0.1,0-0.1,0l0,0C4.4,29.4,1.9,28.6,0.2,25.6
		L0.2,25.6z"/>
	<path d="M12.5,46.4v-3.5c0-0.9,0.8-1.6,1.7-1.6l0,0c0.9,0,1.7,0.7,1.7,1.6l0,0v3.5c0,0.9-0.8,1.6-1.7,1.6l0,0
		C13.3,48,12.5,47.3,12.5,46.4L12.5,46.4z"/>
	<path d="M25,46.4V42c0-0.9,0.8-1.6,1.7-1.6l0,0c0.9,0,1.7,0.7,1.7,1.6l0,0v4.4c0,0.9-0.8,1.6-1.7,1.6l0,0C25.8,48,25,47.3,25,46.4
		L25,46.4z"/>
	<path d="M16.3,24.3c0,1.1-0.9,1.9-2.1,1.9c-1.1,0-2.1-0.9-2.1-1.9c0-1.1,0.9-1.9,2.1-1.9C15.3,22.4,16.3,23.2,16.3,24.3z"/>
	<path d="M27.2,24.3c0,1.1-0.9,1.9-2.1,1.9c-1.1,0-2.1-0.9-2.1-1.9c0-1.1,0.9-1.9,2.1-1.9C26.3,22.4,27.2,23.2,27.2,24.3z"/>
	<path d="M19.8,5.2c0,0-0.3-4.2,6.5-4.3C26.3,1,25.6,5.9,19.8,5.2z"/>
	<path d="M19.9,5.2c0,0,0.2-6.2-8-5.1C11.9,0.1,12.8,7.3,19.9,5.2z"/>
	<path d="M16.8,31.9c-1.1-0.4-2.3-1.3-2.6-2.9l0,0l0,0c-0.1-0.8,0.4-1.5,1.2-1.6l0,0c0.8-0.1,1.5,0.4,1.6,1.2l0,0
		c0,0.2,0.2,0.5,0.9,0.8l0,0c0.6,0.3,1.5,0.4,1.9,0.4l0,0c0.4,0,1.3-0.1,1.9-0.4l0,0c0.6-0.3,0.9-0.6,0.9-0.8l0,0
		c0.1-0.8,0.8-1.3,1.6-1.2l0,0c0.8,0.1,1.3,0.8,1.2,1.6l0,0c-0.3,1.6-1.5,2.4-2.5,2.9l0,0c-1.1,0.5-2.2,0.6-3,0.6l0,0
		C18.9,32.5,17.9,32.4,16.8,31.9L16.8,31.9z"/>
	<path d="M34.4,17c-1.2-3.1-3.5-5.9-7.2-7.4c-0.6-0.3-3.8-1.8-8-1.9c-1.8,0-3.7,0.3-5.6,1.1c-2.1,0.8-4.1,2.6-4.1,2.6v0c0,0,0,0,0,0
		c-2,1.9-4.1,5-4.1,9.5c0,0,0,0.2,0,0.5c0,0.7,0,2.3-0.1,3.8c-0.1,1.5-0.3,3.2-0.6,3.7l0,0.1l0,0.1c0,0.1-0.5,1.5-0.5,3.7
		c0,0.7,0,1.6,0.2,2.4h0c0,0.3,0.4,2.4,2.3,4.6c1.9,2.3,5.5,4.4,11.3,4.6c0.1,0,0.5,0,1.1,0c1.6,0,4.8-0.2,8-1.6
		c3.3-1.4,6.7-4,8.3-8.7l0-0.1l0-0.1c0-0.1,0.7-3.3,0.7-7.6C36,23.5,35.6,20.1,34.4,17z M32.2,31.3c-0.1,1-0.3,1.7-0.3,1.9
		c-1.4,3.7-3.8,5.6-6.4,6.7c-2.6,1.1-5.3,1.3-6.7,1.3c-0.3,0-0.5,0-0.6,0c-0.1,0-0.2,0-0.2,0l0,0l-0.1,0c-5-0.1-7.4-1.8-8.8-3.4
		c-0.7-0.8-1-1.6-1.3-2.1c-0.1-0.3-0.2-0.5-0.2-0.7c0-0.1,0-0.2,0-0.2c0,0,0,0,0,0h0c-0.1-0.7-0.1-1.4-0.1-2c0-0.9,0.1-1.6,0.2-2
		c0-0.2,0.1-0.4,0.1-0.5c0-0.1,0-0.1,0-0.1c0.5-1.3,0.6-2.9,0.7-4.6c0.1-1.7,0.1-3.3,0.1-4V21c0-3.2,1.3-5.3,2.6-6.7
		c1.5-1.5,3.2-2.3,3.6-2.4c1.4-0.6,2.9-0.8,4.2-0.8c1.8,0,3.5,0.4,4.7,0.8c0.6,0.2,1.1,0.4,1.4,0.5c0.3,0.1,0.4,0.2,0.4,0.2l0.1,0
		l0.1,0c2.7,1.1,4.4,3.1,5.4,5.6c1,2.5,1.4,5.5,1.4,8.2C32.6,28.3,32.4,30.1,32.2,31.3z"/>
</g>
<g>
</g>
<g>
</g>
<g>
</g>
<g>
</g>
<g>
</g>
<g>
</g>
<g>
</g>
<g>
</g>
<g>
</g>
<g>
</g>
<g>
</g>
<g>
</g>
<g>
</g>
<g>
</g>
<g>
</g>
</svg>
