<?xml version="1.0" encoding="utf-8"?>
<!-- Generator: Adobe Illustrator 18.1.1, SVG Export Plug-In . SVG Version: 6.00 Build 0)  -->
<svg version="1.1" id="Layer_1" xmlns="http://www.w3.org/2000/svg" xmlns:xlink="http://www.w3.org/1999/xlink" x="0px" y="0px"
	 viewBox="0 0 609.3 609.1" enable-background="new 0 0 609.3 609.1" xml:space="preserve">
<path d="M544.7,0H67.3C29.3,0,0,29.3,0,67.3v474.4c0,38.1,29.3,67.3,67.3,67.3h474.4c38.1,0,67.3-29.3,67.3-67.3V67.3
	C612,29.3,579.8,0,544.7,0z M483.2,445.1c0,17.6-11.7,32.2-26.4,38.1c-17.6,5.9-35.1,2.9-46.9-11.7l-196.2-202v181.6
	c0,23.4-20.5,43.9-43.9,43.9s-43.9-20.5-43.9-43.9V161.1c0-17.6,11.7-32.2,26.4-38.1c17.6-5.9,35.1-2.9,46.9,11.7l196.2,207.9V161.1
	c0-23.4,17.6-43.9,41-43.9c23.4,0,43.9,20.5,43.9,43.9v284H483.2z"/>
<g>
</g>
<g>
</g>
<g>
</g>
<g>
</g>
<g>
</g>
<g>
</g>
<g>
</g>
<g>
</g>
<g>
</g>
<g>
</g>
<g>
</g>
<g>
</g>
<g>
</g>
<g>
</g>
<g>
</g>
</svg>
