<?xml version="1.0" encoding="utf-8"?>
<!-- Generator: Adobe Illustrator 18.1.1, SVG Export Plug-In . SVG Version: 6.00 Build 0)  -->
<svg version="1.1" id="Layer_1" xmlns="http://www.w3.org/2000/svg" xmlns:xlink="http://www.w3.org/1999/xlink" x="0px" y="0px"
	 viewBox="0 0 609.1 609.1" enable-background="new 0 0 609.1 609.1" xml:space="preserve">
<path d="M304.5,0C137.6,0,0,137.6,0,304.5c0,169.8,137.6,304.5,304.5,304.5c169.8,0,304.5-137.6,304.5-304.5
	C612,137.6,474.4,0,304.5,0z M468.5,433.4c0,14.6-8.8,29.3-23.4,35.1c-14.6,5.9-32.2,2.9-43.9-8.8L219.6,272.3v166.9
	c0,20.5-17.6,38.1-38.1,38.1s-38.1-17.6-38.1-38.1V172.8c0-14.6,8.8-29.3,23.4-35.1c14.6-8.8,32.2-2.9,43.9,8.8l181.6,190.3v-164
	c0-20.5,17.6-38.1,38.1-38.1c20.5,0,38.1,17.6,38.1,38.1V433.4z"/>
<g>
</g>
<g>
</g>
<g>
</g>
<g>
</g>
<g>
</g>
<g>
</g>
<g>
</g>
<g>
</g>
<g>
</g>
<g>
</g>
<g>
</g>
<g>
</g>
<g>
</g>
<g>
</g>
<g>
</g>
</svg>
