<?xml version="1.0" encoding="utf-8"?>
<!-- Generator: Adobe Illustrator 18.1.1, SVG Export Plug-In . SVG Version: 6.00 Build 0)  -->
<svg version="1.1" id="Layer_1" xmlns="http://www.w3.org/2000/svg" xmlns:xlink="http://www.w3.org/1999/xlink" x="0px" y="0px"
	 viewBox="0 0 41 32" enable-background="new 0 0 41 32" xml:space="preserve">
<path d="M1.2,22.9h18.2v8c0,0.4,0.3,0.8,0.6,1c0.2,0.1,0.3,0.1,0.5,0.1c0.2,0,0.5-0.1,0.7-0.2l19.3-14.9c0.3-0.2,0.4-0.6,0.4-0.9
	c0-0.4-0.2-0.7-0.4-0.9L21.2,0.2C20.9,0,20.4-0.1,20,0.1c-0.4,0.2-0.6,0.6-0.6,1v8H1.2c-0.3,0-0.6,0.1-0.8,0.3C0.1,9.7,0,10,0,10.3
	v11.4C0,22.4,0.5,22.9,1.2,22.9z"/>
<g>
</g>
<g>
</g>
<g>
</g>
<g>
</g>
<g>
</g>
<g>
</g>
<g>
</g>
<g>
</g>
<g>
</g>
<g>
</g>
<g>
</g>
<g>
</g>
<g>
</g>
<g>
</g>
<g>
</g>
</svg>
