<?xml version="1.0" encoding="utf-8"?>
<!-- Generator: Adobe Illustrator 18.1.1, SVG Export Plug-In . SVG Version: 6.00 Build 0)  -->
<svg version="1.1" id="Layer_1" xmlns="http://www.w3.org/2000/svg" xmlns:xlink="http://www.w3.org/1999/xlink" x="0px" y="0px"
	 viewBox="0 0 48.7 48.7" enable-background="new 0 0 48.7 48.7" xml:space="preserve">
<g>
	<path d="M48.7,23.8C48.4,10.6,37.6,0,24.4,0c0,0,0,0,0,0c-0.2,0-0.4,0-0.6,0c-4.8,0.1-9.3,1.6-13,4.1C4.3,8.5,0,16,0,24.4
		c0,0,0,0,0,0v0c0,0.2,0,0.4,0,0.6c0.3,13.2,11.1,23.8,24.3,23.8c0,0,0,0,0,0c0.2,0,0.4,0,0.6,0c4.8-0.1,9.3-1.6,13-4.1
		c6.5-4.4,10.7-11.8,10.7-20.2v0c0,0,0,0,0,0C48.7,24.2,48.7,24,48.7,23.8z M6.6,25c0-0.2,0-0.4,0-0.6c0-6.5,3.5-12.2,8.7-15.3
		C18,7.5,21,6.6,24.4,6.6c4.2,0,8.1,1.5,11.1,3.9L24.8,21.1H14.4v6.6h3.8l-7.8,7.8C8.2,32.5,6.7,28.9,6.6,25z M33.4,39.7
		c-2.7,1.6-5.8,2.5-9.1,2.5c-4.2,0-8.1-1.5-11.1-3.9l10.6-10.6l16.6,0v-6.6h-10l7.8-7.8c2.3,2.9,3.7,6.5,3.9,10.5c0,0.2,0,0.4,0,0.6
		C42.2,30.9,38.7,36.6,33.4,39.7z"/>
	<rect x="8.3" y="21.1" width="4.4" height="6.6"/>
</g>
<g>
</g>
<g>
</g>
<g>
</g>
<g>
</g>
<g>
</g>
<g>
</g>
<g>
</g>
<g>
</g>
<g>
</g>
<g>
</g>
<g>
</g>
<g>
</g>
<g>
</g>
<g>
</g>
<g>
</g>
</svg>
