<?xml version="1.0" encoding="utf-8"?>
<!-- Generator: Adobe Illustrator 18.1.1, SVG Export Plug-In . SVG Version: 6.00 Build 0)  -->
<svg version="1.1" id="Layer_1" xmlns="http://www.w3.org/2000/svg" xmlns:xlink="http://www.w3.org/1999/xlink" x="0px" y="0px"
	 viewBox="0 0 58.8 41.9" enable-background="new 0 0 58.8 41.9" xml:space="preserve">
<g>
	<path d="M34.3,39.1c0,0.4-0.3,0.7-0.7,0.7h-8.3c-0.4,0-0.7-0.3-0.7-0.7v-0.7H0v1.4c0,0,0,2.1,2.1,2.1h54.7c2.1,0,2.1-2.1,2.1-2.1
		v-1.4H34.3V39.1z"/>
	<path d="M7.1,36.3h0.7H51h0.7c1.1,0,2.1-0.9,2.1-2.1V2.8V2.1c0-1.2-0.9-2.1-2.1-2.1H7.1C5.9,0,5,0.9,5,2.1v0.7v31.4
		C5,35.4,5.9,36.3,7.1,36.3z M7.8,2.8H51v30.7H7.8V2.8z"/>
</g>
<g>
</g>
<g>
</g>
<g>
</g>
<g>
</g>
<g>
</g>
<g>
</g>
<g>
</g>
<g>
</g>
<g>
</g>
<g>
</g>
<g>
</g>
<g>
</g>
<g>
</g>
<g>
</g>
<g>
</g>
</svg>
