<?xml version="1.0" encoding="utf-8"?>
<!-- Generator: Adobe Illustrator 18.1.1, SVG Export Plug-In . SVG Version: 6.00 Build 0)  -->
<svg version="1.1" id="Layer_1" xmlns="http://www.w3.org/2000/svg" xmlns:xlink="http://www.w3.org/1999/xlink" x="0px" y="0px"
	 viewBox="0 0 44.4 44.5" enable-background="new 0 0 44.4 44.5" xml:space="preserve">
<g>
	<path d="M43.3,14L30.4,1.1C29.7,0.4,28.7,0,27.7,0c-1,0-2,0.4-2.7,1.1L11.1,15.1H3.8c-2.1,0-3.8,1.7-3.8,3.8v8.2
		c0,2.1,1.7,3.8,3.8,3.8h9.8v9.8c0,2.1,1.7,3.8,3.8,3.8h8.2c2.1,0,3.8-1.7,3.8-3.8v-7.4l13.8-13.8c0.8-0.8,1.1-1.7,1.1-2.7
		C44.5,15.7,44.1,14.8,43.3,14z M26,5.1v10H16L26,5.1z M3.8,27.4c-0.2,0-0.3-0.2-0.3-0.3v-8.2c0-0.2,0.2-0.3,0.3-0.3l22.2,0v8.9
		L3.8,27.4z M26,40.7c0,0.2-0.2,0.3-0.3,0.3h-8.2c-0.2,0-0.3-0.2-0.3-0.3v-9.8H26V40.7z M29.5,28.3v-9.7l9.7,0L29.5,28.3z
		 M29.5,15.1V5.2l9.9,9.9H29.5z"/>
</g>
<g>
</g>
<g>
</g>
<g>
</g>
<g>
</g>
<g>
</g>
<g>
</g>
<g>
</g>
<g>
</g>
<g>
</g>
<g>
</g>
<g>
</g>
<g>
</g>
<g>
</g>
<g>
</g>
<g>
</g>
</svg>
