<?xml version="1.0" encoding="utf-8"?>
<!-- Generator: Adobe Illustrator 18.1.1, SVG Export Plug-In . SVG Version: 6.00 Build 0)  -->
<svg version="1.1" id="Layer_1" xmlns="http://www.w3.org/2000/svg" xmlns:xlink="http://www.w3.org/1999/xlink" x="0px" y="0px"
	 viewBox="0 0 41.9 41.9" enable-background="new 0 0 41.9 41.9" xml:space="preserve">
<g>
	<polygon points="28.8,30.2 41.9,16.6 28.8,16.6 	"/>
	<path d="M41.9,13.8L28.8,0v13.8C28.8,13.8,41.9,13.9,41.9,13.8z"/>
	<path d="M25.8,0C25.8,0.1,25.9,0,25.8,0L11.2,13.8h14.6V0z"/>
	<path d="M25.8,16.6H2c-1.1,0-2,0.9-2,2l0,8.7c0,0.9,0.7,1.7,1.6,1.9h24.3V16.6z"/>
	<path d="M12.7,32.3l0,7.6c0,1.1,0.9,2,2,2l9.4,0c1.1,0,2-0.9,2-2v-7.6H12.7z"/>
</g>
<g>
</g>
<g>
</g>
<g>
</g>
<g>
</g>
<g>
</g>
<g>
</g>
<g>
</g>
<g>
</g>
<g>
</g>
<g>
</g>
<g>
</g>
<g>
</g>
<g>
</g>
<g>
</g>
<g>
</g>
</svg>
