<?xml version="1.0" encoding="utf-8"?>
<!-- Generator: Adobe Illustrator 18.1.1, SVG Export Plug-In . SVG Version: 6.00 Build 0)  -->
<svg version="1.1" id="Layer_1" xmlns="http://www.w3.org/2000/svg" xmlns:xlink="http://www.w3.org/1999/xlink" x="0px" y="0px"
	 viewBox="0 0 609.3 738.2" enable-background="new 0 0 609.3 738.2" xml:space="preserve">
<g>
	<path d="M581.8,485.8c-22-22-52.1-54.9-52.1-118v-90.6c0-112.5-82.3-205.8-194.9-219.6c0-19.2,0-24.7,0-30.2
		C334.8,11,321.1,0,307.4,0c-16.5,0-27.4,13.7-27.4,27.4c0,2.7,0,11,0,30.2C164.7,74.1,82.3,167.4,82.3,277.2v90.6
		c0,60.4-30.2,93.3-54.9,118H581.8L581.8,485.8z"/>
	<path d="M0,540.6v63.1c0,11,8.2,19.2,19.2,19.2H590c11,0,19.2-8.2,19.2-19.2v-63.1H0z"/>
	<path d="M304.6,738.2c35.7,0,65.9-27.4,71.4-60.4H236C238.8,713.5,269,738.2,304.6,738.2z"/>
</g>
<g>
</g>
<g>
</g>
<g>
</g>
<g>
</g>
<g>
</g>
<g>
</g>
<g>
</g>
<g>
</g>
<g>
</g>
<g>
</g>
<g>
</g>
<g>
</g>
<g>
</g>
<g>
</g>
<g>
</g>
</svg>
