<?xml version="1.0" encoding="utf-8"?>
<!-- Generator: Adobe Illustrator 18.1.1, SVG Export Plug-In . SVG Version: 6.00 Build 0)  -->
<svg version="1.1" id="Layer_1" xmlns="http://www.w3.org/2000/svg" xmlns:xlink="http://www.w3.org/1999/xlink" x="0px" y="0px"
	 viewBox="0 0 43.9 43.9" enable-background="new 0 0 43.9 43.9" xml:space="preserve">
<g>
	<path d="M42.6,7.3c1.7-1.7,1.7-4.4,0-6c-0.8-0.8-1.9-1.2-3-1.2c-1.1,0-2.2,0.4-3,1.2l-1.4,1.4c-5.9-3.3-13.4-2.3-18.2,2.5l-3.5,3.5
		c-1.4,1.4-2.7,1.4-4.2,1.5c-1.7,0-3.7,0.1-5.4,1.8l-2.6,2.6c-1.7,1.7-1.7,4.5,0,6.3l13.6,13.6c-0.8,0.9-1.2,2-1.2,3.2
		c0,1.4,0.5,2.6,1.5,3.6c1.9,1.9,4.8,2,6.8,0.3l1,1c1.7,1.7,4.5,1.7,6.2,0l2.6-2.6c1.7-1.8,1.8-3.7,1.8-5.3c0-1.6,0.1-2.9,1.5-4.2
		l3.5-3.5c4.9-4.9,5.8-12.3,2.5-18.2L42.6,7.3z M39.6,3.4c0.2,0,0.5,0.1,0.6,0.3c0.4,0.4,0.4,0.9,0,1.3l-1,1l-0.6-0.7
		c0,0-0.4-0.3-0.7-0.6l1-1C39.2,3.4,39.4,3.4,39.6,3.4z M16.4,40.1c-0.6-0.6-1-1.5-1-2.4c0-0.8,0.3-1.5,0.7-2.1l4.8,4.8
		C19.5,41.4,17.6,41.3,16.4,40.1z M27,40.2c-0.4,0.4-1.1,0.4-1.5,0L3.7,18.4c-0.4-0.4-0.4-1.1,0-1.5l2.6-2.6
		c0.2-0.1,0.3-0.3,0.5-0.4l23.2,23.2c-0.1,0.2-0.2,0.3-0.3,0.5L27,40.2z M36.3,24.6l-3.5,3.5c-2.3,2.3-2.4,4.7-2.4,6.5
		c0,0.3,0,0.5,0,0.7L8.6,13.5c0.2,0,0.4,0,0.7,0c1.8,0,4.2-0.1,6.6-2.4l3.5-3.5c4.3-4.3,11.1-4.7,15.9-0.9c0,0,0.3,0.3,0.3,0.3
		l0.8,0.6c0,0,0.6,0.7,0.6,0.7l0.3,0.3C41,13.5,40.6,20.3,36.3,24.6z"/>
</g>
<g>
</g>
<g>
</g>
<g>
</g>
<g>
</g>
<g>
</g>
<g>
</g>
<g>
</g>
<g>
</g>
<g>
</g>
<g>
</g>
<g>
</g>
<g>
</g>
<g>
</g>
<g>
</g>
<g>
</g>
</svg>
