<?xml version="1.0" encoding="utf-8"?>
<!-- Generator: Adobe Illustrator 18.1.1, SVG Export Plug-In . SVG Version: 6.00 Build 0)  -->
<svg version="1.1" id="Layer_1" xmlns="http://www.w3.org/2000/svg" xmlns:xlink="http://www.w3.org/1999/xlink" x="0px" y="0px"
	 viewBox="0 0 39.7 47.7" enable-background="new 0 0 39.7 47.7" xml:space="preserve">
<g>
	<path d="M37.2,29.9c-1.1-1.1-2-2.1-2-4V21c0-6.9-4.6-12.8-11.1-14.7l0-2c0-2.4-1.9-4.3-4.3-4.3c-1.1,0-2.2,0.4-3,1.2
		c-0.8,0.8-1.3,1.9-1.3,3v2C9.1,8.1,4.5,14.1,4.5,21v4.9c0,2-0.9,2.9-1.9,4C1.4,31.1,0,32.5,0,35l0,3.7c0,2.4,2,4.4,4.4,4.4h10.3
		c0.1,1.2,0.6,2.3,1.5,3.1c1,1,2.2,1.5,3.6,1.5c2.6,0,4.8-2,5.1-4.6h10.4c2.4,0,4.4-2,4.4-4.4V35C39.6,32.5,38.3,31.1,37.2,29.9z
		 M19.2,3.6c0.2-0.2,0.4-0.3,0.6-0.3c0.5,0,0.9,0.4,0.9,0.9v1.4l-0.9-0.1l-0.9,0.1V4.3C18.9,4,19,3.8,19.2,3.6z M4.9,32.3
		c1.3-1.3,2.9-3,2.9-6.4V21c0-6.1,4.6-11.2,10.6-11.9L18.8,9l1-0.1l1,0.1l0.4,0.1c6.1,0.7,10.6,5.8,10.6,11.9v4.9
		c0,3.3,1.6,5,2.9,6.3c0.2,0.2,0.4,0.4,0.5,0.5H4.4C4.6,32.6,4.7,32.4,4.9,32.3z M19.8,46c-0.9,0-1.8-0.4-2.4-1
		c-0.5-0.5-0.9-1.2-1-2l6.8,0C23,44.7,21.6,46,19.8,46z M36.3,38.6c0,0.6-0.5,1.1-1.1,1.1l-30.8,0c-0.6,0-1.1-0.5-1.1-1.1l0-3.7
		c0-0.2,0-0.4,0.1-0.6h32.8c0,0.2,0.1,0.4,0.1,0.6V38.6z"/>
</g>
<g>
</g>
<g>
</g>
<g>
</g>
<g>
</g>
<g>
</g>
<g>
</g>
<g>
</g>
<g>
</g>
<g>
</g>
<g>
</g>
<g>
</g>
<g>
</g>
<g>
</g>
<g>
</g>
<g>
</g>
</svg>
