<?xml version="1.0" encoding="utf-8"?>
<!-- Generator: Adobe Illustrator 18.1.1, SVG Export Plug-In . SVG Version: 6.00 Build 0)  -->
<svg version="1.1" id="Layer_1" xmlns="http://www.w3.org/2000/svg" xmlns:xlink="http://www.w3.org/1999/xlink" x="0px" y="0px"
	 viewBox="0 0 51.1 27.4" enable-background="new 0 0 51.1 27.4" xml:space="preserve">
<g>
	<path d="M50.4,22.6l-3.1-3.6l-5.5-6.5l5-5.3l2.3-2.4c0,0,0,0,0,0c1.1-1.1,1-2.9-0.1-4c-1.1-1.1-2.9-1-4,0.1L35.1,11.4V2.8
		c0-1.6-1.3-2.8-2.8-2.8c-1.6,0-2.8,1.3-2.8,2.8v21.6c0,1.6,1.3,2.8,2.8,2.8c1.6,0,2.8-1.3,2.8-2.8v-4.8l2.8-2.9l1.8,2.2l0,0
		l6.4,7.5c1,1.2,2.8,1.3,4,0.3l0,0C51.3,25.6,51.5,23.8,50.4,22.6z M13.7,0C6.1,0,0,6.2,0,13.7s6.1,13.7,13.7,13.7
		c7.5,0,13.7-6.1,13.7-13.7S21.2,0,13.7,0z M13.7,21.7c-4.4,0-8-3.6-8-8s3.6-8,8-8c4.4,0,8,3.6,8,8S18.1,21.7,13.7,21.7z"/>
</g>
<g>
</g>
<g>
</g>
<g>
</g>
<g>
</g>
<g>
</g>
<g>
</g>
<g>
</g>
<g>
</g>
<g>
</g>
<g>
</g>
<g>
</g>
<g>
</g>
<g>
</g>
<g>
</g>
<g>
</g>
</svg>
