<?xml version="1.0" encoding="utf-8"?>
<!-- Generator: Adobe Illustrator 18.1.1, SVG Export Plug-In . SVG Version: 6.00 Build 0)  -->
<svg version="1.1" id="Layer_1" xmlns="http://www.w3.org/2000/svg" xmlns:xlink="http://www.w3.org/1999/xlink" x="0px" y="0px"
	 viewBox="0 0 609.9 669.2" enable-background="new 0 0 609.9 669.2" xml:space="preserve">
<path d="M576.3,378.6L576.3,378.6L576.3,378.6c-28.6-9.5-95.3-33.3-131-59.5c-35.7-28.6-40.5-47.6-40.5-69.1s7.1-42.9,14.3-69.1
	c4.8-23.8,9.5-42.9,9.5-61.9c0-11.9,0-21.4-2.4-33.3c0-2.4,0-4.8,0-7.1l0,0l0,0C412,33.3,369.1,0,321.5,0
	c-50,0-90.5,33.3-102.4,78.6l0,0l0,0c0,2.4,0,4.8,0,4.8c-4.8,11.9-4.8,23.8-4.8,35.7c0,19.1,2.4,38.1,7.1,61.9
	c4.8,26.2,14.3,47.6,14.3,69.1s-4.8,42.9-40.5,69.1c-33.3,26.2-100,50-128.6,59.5l0,0l0,0c-21.4,7.1-35.7,28.6-35.7,50l0,0v78.6l0,0
	c0,69.1-14.3,102.4-23.8,114.3l0,0l0,0C2.4,628.7,0,635.8,0,640.6c0,16.7,14.3,28.6,28.6,28.6h523.9c9.5,0,19.1-4.8,23.8-11.9l0,0
	c0,0,0-2.4,2.4-2.4c16.7-23.8,31-69.1,31-145.3l0,0V431l0,0C612,407.2,597.7,385.8,576.3,378.6z M535.8,612H76.2
	c4.8-19.1,9.5-42.9,11.9-73.8h464.4C550.1,573.9,542.9,597.7,535.8,612z M552.5,481H88.1v-47.6c28.6-9.5,95.3-31,142.9-66.7
	c45.2-35.7,64.3-78.6,61.9-116.7c0-33.3-11.9-61.9-14.3-81c-4.8-21.4-7.1-35.7-7.1-50c0-7.1,0-14.3,2.4-23.8c0-2.4,0-2.4,0-4.8
	c4.8-19.1,23.8-33.3,45.2-33.3s40.5,14.3,45.2,33.3c0,2.4,0,2.4,0,2.4c2.4,9.5,2.4,16.7,2.4,23.8c0,14.3-2.4,28.6-7.1,50
	c-4.8,19.1-14.3,47.6-14.3,81c0,38.1,16.7,81,61.9,116.7c47.6,35.7,116.7,57.2,142.9,66.7v50H552.5z"/>
<g>
</g>
<g>
</g>
<g>
</g>
<g>
</g>
<g>
</g>
<g>
</g>
<g>
</g>
<g>
</g>
<g>
</g>
<g>
</g>
<g>
</g>
<g>
</g>
<g>
</g>
<g>
</g>
<g>
</g>
</svg>
