<?xml version="1.0" encoding="utf-8"?>
<!-- Generator: Adobe Illustrator 18.1.1, SVG Export Plug-In . SVG Version: 6.00 Build 0)  -->
<svg version="1.1" id="Layer_1" xmlns="http://www.w3.org/2000/svg" xmlns:xlink="http://www.w3.org/1999/xlink" x="0px" y="0px"
	 viewBox="0 0 46.7 46.8" enable-background="new 0 0 46.7 46.8" xml:space="preserve">
<g>
	<path d="M13.1,36.1c0.8,0.5,1.4,1.2,1.6,1.9l4.9-7.1c0.4-0.6,0.8-1.2,1.1-1.8L34.1,2.8c0.1-0.1,0.1-0.3,0.2-0.4
		c0.1-0.2,0.1-0.4,0.1-0.6c0-0.6-0.3-1.2-0.9-1.5C33.3,0.1,33,0,32.7,0c0,0,0,0,0,0c-0.5,0-1,0.2-1.3,0.6C31.2,0.8,31.1,0.9,31,1
		L15.5,25.6c-0.5,0.8-1,1.7-1.4,2.6c-1.1,2.5-3.5,7.5-3.5,7.6C11.4,35.5,12.2,35.6,13.1,36.1z"/>
	<path d="M8.5,29c0.6,0.9,1.2,1.8,1.8,2.6c0,0,2.2-4.8,2.2-4.8c0.6-1.2,1.4-2.4,2.1-3.6c1.3-2,2.5-4,3.8-6c1.5-2.4,3-4.7,4.5-7.1
		C23.9,8.3,25,6.7,26.1,5c0.2-0.3,0.4-0.6,0.5-0.9c-6.8-2.5-13.7-1.9-18,2.4c-4.7,4.7-5,12.6-1.5,20.2C7.3,26.9,7.9,28.1,8.5,29z"/>
	<path d="M37.9,11.4c-1.3-1.3-2.7-2.4-4.1-3.5l-11,21.6c-0.5,1-1.1,2-1.8,3l-4,5.8c6.4,4.7,12.2,5.1,12.2,5.1C35.3,44,36,40,36,40
		c0.3-1.1,0.4-4.3,0.3-6.4c0,0,0.1-2.9,0.1-2.9c0-0.4,0.1-0.7,0.3-1c0.1-0.1,0.2-0.3,0.3-0.4c0.7-0.5,1.6,0,2,0.6l3.1,5
		c0.1,0.1,0.2,0.3,0.3,0.4c0.9,0.9,2.3,0.9,3.2,0c0.1-0.1,0.2-0.2,0.2-0.3c0.3-0.4,0.4-0.9,0.5-1.4C47.6,26.9,44.5,18.1,37.9,11.4z
		 M32,37.5c-0.9,1.3-3.1,1.2-4.9-0.1c-1.8-1.3-2.6-3.4-1.7-4.6c0.9-1.3,3.1-1.2,4.9,0.1C32.2,34.2,32.9,36.2,32,37.5z"/>
	<path d="M13.5,40.6c-0.1-1-0.5-1.9-1.4-2.5c-1.4-0.9-3.3-0.5-4.6,0.4c-1.7,1.1-2,2.8-2.9,4.5c-0.3,0.6-0.7,1.1-1.3,1.5
		c-0.9,0.7-2,0.9-3,1.4C0.1,45.9,0,46,0,46.2c0,0.2,0.1,0.3,0.3,0.3c1,0.2,2.2,0.3,3.3,0.3c0.3,0,0.6,0,0.9,0c1.2,0,2.2-0.1,2.7-0.1
		c1.8-0.2,4.3-1.1,5.3-2.9C13.1,42.8,13.5,41.6,13.5,40.6z"/>
</g>
<g>
</g>
<g>
</g>
<g>
</g>
<g>
</g>
<g>
</g>
<g>
</g>
<g>
</g>
<g>
</g>
<g>
</g>
<g>
</g>
<g>
</g>
<g>
</g>
<g>
</g>
<g>
</g>
<g>
</g>
</svg>
