<?xml version="1.0" encoding="utf-8"?>
<!-- Generator: Adobe Illustrator 18.1.1, SVG Export Plug-In . SVG Version: 6.00 Build 0)  -->
<svg version="1.1" id="Layer_1" xmlns="http://www.w3.org/2000/svg" xmlns:xlink="http://www.w3.org/1999/xlink" x="0px" y="0px"
	 viewBox="0 0 48.3 32.3" enable-background="new 0 0 48.3 32.3" xml:space="preserve">
<g>
	<path d="M7.8,16.1L19.4,4.5c0.2-0.2,0.3-0.5,0.3-0.8c0-0.3-0.1-0.6-0.3-0.8l-2.5-2.5C16.7,0.1,16.4,0,16.1,0
		c-0.3,0-0.6,0.1-0.8,0.3l-15,15c-0.4,0.4-0.4,1.2,0,1.6c0,0,15,15,15,15c0.2,0.2,0.5,0.3,0.8,0.3c0.3,0,0.6-0.1,0.8-0.3l2.5-2.5
		c0.2-0.2,0.3-0.5,0.3-0.8c0-0.3-0.1-0.6-0.3-0.8L7.8,16.1z"/>
	<path d="M40.6,16.2L28.9,27.8c-0.2,0.2-0.3,0.5-0.3,0.8c0,0.3,0.1,0.6,0.3,0.8l2.5,2.5c0.2,0.2,0.5,0.3,0.8,0.3
		c0.3,0,0.6-0.1,0.8-0.3l15-15c0.4-0.4,0.4-1.2,0-1.6c0,0-15-15-15-15C32.8,0.1,32.5,0,32.2,0c-0.3,0-0.6,0.1-0.8,0.3l-2.5,2.5
		c-0.2,0.2-0.3,0.5-0.3,0.8c0,0.3,0.1,0.6,0.3,0.8L40.6,16.2z"/>
</g>
<g>
</g>
<g>
</g>
<g>
</g>
<g>
</g>
<g>
</g>
<g>
</g>
<g>
</g>
<g>
</g>
<g>
</g>
<g>
</g>
<g>
</g>
<g>
</g>
<g>
</g>
<g>
</g>
<g>
</g>
</svg>
