<?xml version="1.0" encoding="utf-8"?>
<!-- Generator: Adobe Illustrator 18.1.1, SVG Export Plug-In . SVG Version: 6.00 Build 0)  -->
<svg version="1.1" id="Layer_1" xmlns="http://www.w3.org/2000/svg" xmlns:xlink="http://www.w3.org/1999/xlink" x="0px" y="0px"
	 viewBox="0 0 45.3 30.7" enable-background="new 0 0 45.3 30.7" xml:space="preserve">
<g>
	<g>
		<g>
			<path d="M45.3,27.7V2.9c0-1.6-1.3-2.9-3-2.9H16.2l0,2.9h26.1v24.8H25v2.9h17.3C43.9,30.7,45.3,29.4,45.3,27.7z"/>
			<path d="M2.9,30.7h23.5v-2.9H2.9V9.2C2.9,9,3,8.7,3.1,8.3C3.3,8,3.5,7.7,3.5,7.6l3.7-4.1c0.1-0.1,0.3-0.3,0.6-0.4
				C8.1,3,8.4,2.9,8.6,2.9h0v0h1.7v5.9H5.9v2.9h7.4V0H8.6v0C7.9,0,7.3,0.2,6.7,0.4C6.1,0.7,5.5,1.1,5.1,1.6L1.4,5.6
				c-0.5,0.5-0.8,1.1-1,1.7C0.2,7.9,0,8.5,0,9.2v18.6C0,29.4,1.3,30.7,2.9,30.7z"/>
		</g>
	</g>
	<g>
		<g>
			<path d="M11.6,13c0-0.7,0.3-1.1,0.9-1.1c0.6,0,0.9,0.4,0.9,1.1v1.4l1.2-0.5c0.2-0.1,0.4-0.1,0.6-0.1c0.6,0,0.9,0.3,0.9,1
				c0,0.4-0.2,0.6-0.5,0.7l-1.7,0.5l0.7,0.9c0.2,0.3,0.4,0.5,0.5,0.7c0.1,0.1,0.1,0.3,0.1,0.4c0,0.2-0.1,0.4-0.3,0.6
				c-0.2,0.2-0.4,0.3-0.7,0.3c-0.2,0-0.3,0-0.5-0.1c-0.1-0.1-0.3-0.3-0.5-0.6L12.5,17l-0.8,1.1c-0.2,0.3-0.4,0.5-0.5,0.6
				c-0.1,0.1-0.3,0.1-0.5,0.1c-0.2,0-0.5-0.1-0.7-0.3c-0.2-0.2-0.3-0.4-0.3-0.6c0-0.1,0-0.2,0.1-0.4c0.1-0.1,0.2-0.4,0.5-0.7
				l0.7-0.9l-1.7-0.5C9.1,15.3,9,15.1,9,14.7c0-0.7,0.3-1,0.9-1c0.2,0,0.4,0,0.6,0.1l1.2,0.5V13z"/>
		</g>
		<g>
			<path d="M22.9,13c0-0.7,0.3-1.1,0.9-1.1c0.6,0,0.9,0.4,0.9,1.1v1.4l1.2-0.5c0.2-0.1,0.4-0.1,0.6-0.1c0.6,0,0.9,0.3,0.9,1
				c0,0.4-0.2,0.6-0.5,0.7l-1.7,0.5l0.7,0.9c0.2,0.3,0.4,0.5,0.5,0.7c0.1,0.1,0.1,0.3,0.1,0.4c0,0.2-0.1,0.4-0.3,0.6
				c-0.2,0.2-0.4,0.3-0.7,0.3c-0.2,0-0.3,0-0.5-0.1c-0.1-0.1-0.3-0.3-0.5-0.6L23.7,17L23,18.1c-0.2,0.3-0.4,0.5-0.5,0.6
				c-0.1,0.1-0.3,0.1-0.5,0.1c-0.2,0-0.5-0.1-0.7-0.3c-0.2-0.2-0.3-0.4-0.3-0.6c0-0.1,0-0.2,0.1-0.4c0.1-0.1,0.2-0.4,0.5-0.7
				l0.7-0.9l-1.7-0.5c-0.3-0.1-0.5-0.3-0.5-0.7c0-0.7,0.3-1,0.9-1c0.2,0,0.4,0,0.6,0.1l1.2,0.5V13z"/>
		</g>
		<g>
			<path d="M34.1,13c0-0.7,0.3-1.1,0.9-1.1c0.6,0,0.9,0.4,0.9,1.1v1.4l1.2-0.5c0.2-0.1,0.4-0.1,0.6-0.1c0.6,0,0.9,0.3,0.9,1
				c0,0.4-0.2,0.6-0.5,0.7l-1.7,0.5l0.7,0.9c0.2,0.3,0.4,0.5,0.5,0.7c0.1,0.1,0.1,0.3,0.1,0.4c0,0.2-0.1,0.4-0.3,0.6
				c-0.2,0.2-0.4,0.3-0.7,0.3c-0.2,0-0.3,0-0.5-0.1c-0.1-0.1-0.3-0.3-0.5-0.6L35,17l-0.8,1.1c-0.2,0.3-0.4,0.5-0.5,0.6
				c-0.1,0.1-0.3,0.1-0.5,0.1c-0.2,0-0.5-0.1-0.7-0.3c-0.2-0.2-0.3-0.4-0.3-0.6c0-0.1,0-0.2,0.1-0.4c0.1-0.1,0.2-0.4,0.5-0.7
				l0.7-0.9l-1.7-0.5c-0.3-0.1-0.5-0.3-0.5-0.7c0-0.7,0.3-1,0.9-1c0.2,0,0.4,0,0.6,0.1l1.2,0.5V13z"/>
		</g>
	</g>
</g>
<g>
</g>
<g>
</g>
<g>
</g>
<g>
</g>
<g>
</g>
<g>
</g>
<g>
</g>
<g>
</g>
<g>
</g>
<g>
</g>
<g>
</g>
<g>
</g>
<g>
</g>
<g>
</g>
<g>
</g>
</svg>
