<?xml version="1.0" encoding="utf-8"?>
<!-- Generator: Adobe Illustrator 18.1.1, SVG Export Plug-In . SVG Version: 6.00 Build 0)  -->
<svg version="1.1" id="Layer_1" xmlns="http://www.w3.org/2000/svg" xmlns:xlink="http://www.w3.org/1999/xlink" x="0px" y="0px"
	 viewBox="0 0 42.2 42.2" enable-background="new 0 0 42.2 42.2" xml:space="preserve">
<g>
	<path d="M42.1,14.6c-0.2-1.1-0.8-2.1-1.9-3.2L30.7,2c-1-1-2.1-1.6-3.2-1.9c-0.6-0.1-1.3-0.1-2,0c-1.2,0.2-2.4,0.9-3.4,1.9l-20,20
		C0.5,23.6,0,24.7,0,27.1l0,12l0,0c0,0.6,0.2,1.2,0.5,1.7c0,0.1,0.1,0.1,0.1,0.2c0.1,0.1,0.2,0.2,0.2,0.3c0.1,0.1,0.2,0.2,0.3,0.2
		c0.1,0,0.1,0.1,0.2,0.1C1.8,42,2.4,42.2,3,42.2h0l12,0c2.4,0,3.5-0.5,5.2-2.1l20-20c1-1,1.7-2.2,1.9-3.4
		C42.2,16,42.2,15.3,42.1,14.6z M13.5,37.6h-9v0h0v-9h0L13.5,37.6L13.5,37.6z M38.1,15.8l-20,20L6.4,24.1l20-20h0L38.1,15.8
		L38.1,15.8z"/>
</g>
<g>
</g>
<g>
</g>
<g>
</g>
<g>
</g>
<g>
</g>
<g>
</g>
<g>
</g>
<g>
</g>
<g>
</g>
<g>
</g>
<g>
</g>
<g>
</g>
<g>
</g>
<g>
</g>
<g>
</g>
</svg>
