<?xml version="1.0" encoding="utf-8"?>
<!-- Generator: Adobe Illustrator 18.1.1, SVG Export Plug-In . SVG Version: 6.00 Build 0)  -->
<svg version="1.1" id="Layer_1" xmlns="http://www.w3.org/2000/svg" xmlns:xlink="http://www.w3.org/1999/xlink" x="0px" y="0px"
	 viewBox="0 0 48.7 48.7" enable-background="new 0 0 48.7 48.7" xml:space="preserve">
<g>
	<path d="M40,5c0,0-18.5,18.5-19.4,19.3c-0.6-0.6-2-2-2.6-2.6C19,21,37.4,2.5,37.4,2.5L34.9,0L14.2,20.7L0,48.7l27.8-14.1l20.9-20.8
		L40,5z M12.5,38.4c-0.5-0.5-1.8-1.7-2.2-2.2c0.4-0.7,5.1-10.1,5.8-11.4c1,1,6.8,6.8,7.9,7.8C22.5,33.4,13.2,38.1,12.5,38.4z"/>
</g>
<g>
</g>
<g>
</g>
<g>
</g>
<g>
</g>
<g>
</g>
<g>
</g>
<g>
</g>
<g>
</g>
<g>
</g>
<g>
</g>
<g>
</g>
<g>
</g>
<g>
</g>
<g>
</g>
<g>
</g>
</svg>
