<?xml version="1.0" encoding="utf-8"?>
<!-- Generator: Adobe Illustrator 18.1.1, SVG Export Plug-In . SVG Version: 6.00 Build 0)  -->
<svg version="1.1" id="Layer_1" xmlns="http://www.w3.org/2000/svg" xmlns:xlink="http://www.w3.org/1999/xlink" x="0px" y="0px"
	 viewBox="0 0 612 669.9" enable-background="new 0 0 612 669.9" xml:space="preserve">
<g>
	<path d="M434,238.1L393.9,276c33.4,33.4,51.2,77.9,51.2,122.4s-17.8,89-51.2,122.4l40.1,37.8c44.5-44.5,66.8-102.4,66.8-160.2
		C500.7,340.5,478.5,282.6,434,238.1z"/>
	<path d="M393.9,278.2L393.9,278.2L393.9,278.2z"/>
	<path d="M511.9,162.5l-40.1,37.8c55.6,55.6,84.6,126.9,84.6,198.1S527.4,543,471.8,598.6l40.1,37.8
		C578.6,571.9,612,485.1,612,398.4C612,313.8,578.6,227,511.9,162.5z"/>
	<path d="M300.4,142.4H55.6V0H0v634.3c0,20,15.6,35.6,37.8,35.6h262.6c20,0,37.8-15.6,37.8-35.6V178
		C336,158,320.5,142.4,300.4,142.4z M280.4,195.8v309.3H55.6V195.8H280.4z M55.6,616.5v-55.6h224.8v55.6H55.6z"/>
</g>
<g>
</g>
<g>
</g>
<g>
</g>
<g>
</g>
<g>
</g>
<g>
</g>
<g>
</g>
<g>
</g>
<g>
</g>
<g>
</g>
<g>
</g>
<g>
</g>
<g>
</g>
<g>
</g>
<g>
</g>
</svg>
