<?xml version="1.0" encoding="utf-8"?>
<!-- Generator: Adobe Illustrator 18.1.1, SVG Export Plug-In . SVG Version: 6.00 Build 0)  -->
<svg version="1.1" id="Layer_1" xmlns="http://www.w3.org/2000/svg" xmlns:xlink="http://www.w3.org/1999/xlink" x="0px" y="0px"
	 viewBox="0 0 46.5 40.5" enable-background="new 0 0 46.5 40.5" xml:space="preserve">
<g>
	<path d="M46.5,3.8c0-0.1,0-0.2-0.1-0.4c0-0.1,0-0.2-0.1-0.3c0,0,0,0,0-0.1c-0.1-0.2-0.1-0.4-0.2-0.6c0-0.1-0.1-0.2-0.1-0.2
		c-0.1-0.1-0.1-0.3-0.2-0.4C45.2,0.9,44.2,0.2,43,0c-0.2,0-0.4,0-0.6,0H14c-2.3,0-4.1,1.9-4.1,4.1v2.7h3.2V3.2h30.2v24.2h-3.7v3.2
		c0.7,0,2.7,0,2.7,0c2.3,0,4.1-1.9,4.1-4.1V4.1C46.5,4,46.5,3.9,46.5,3.8z"/>
	<path d="M36.6,13.7c0-0.1,0-0.2-0.1-0.4c0-0.1,0-0.2-0.1-0.3c0,0,0,0,0-0.1c-0.1-0.2-0.1-0.4-0.2-0.6c0-0.1-0.1-0.2-0.1-0.2
		C36,12,36,11.9,35.9,11.8c-0.6-1-1.6-1.6-2.8-1.8c-0.2,0-0.4,0-0.6,0H4.1C1.9,9.9,0,11.8,0,14v22.3c0,0.1,0,0.2,0,0.3
		c0,0.1,0,0.2,0.1,0.4c0,0.1,0,0.2,0.1,0.3c0,0,0,0.1,0,0.1c0.1,0.2,0.1,0.4,0.2,0.6c0.1,0.1,0.1,0.2,0.2,0.3
		c0.1,0.1,0.1,0.2,0.2,0.3c0.6,1,1.6,1.6,2.8,1.8c0.2,0,29,0,29,0c2.3,0,4.1-1.9,4.1-4.1V14C36.6,13.9,36.6,13.8,36.6,13.7z
		 M33.4,37.3H3.2V13.1h5.2h3.2h21.9V37.3z"/>
</g>
<g>
</g>
<g>
</g>
<g>
</g>
<g>
</g>
<g>
</g>
<g>
</g>
<g>
</g>
<g>
</g>
<g>
</g>
<g>
</g>
<g>
</g>
<g>
</g>
<g>
</g>
<g>
</g>
<g>
</g>
</svg>
