<?xml version="1.0" encoding="utf-8"?>
<!-- Generator: Adobe Illustrator 18.1.1, SVG Export Plug-In . SVG Version: 6.00 Build 0)  -->
<svg version="1.1" id="Layer_1" xmlns="http://www.w3.org/2000/svg" xmlns:xlink="http://www.w3.org/1999/xlink" x="0px" y="0px"
	 viewBox="0 0 40.6 39" enable-background="new 0 0 40.6 39" xml:space="preserve">
<g>
	<path d="M37.4,0H3.2C1.4,0,0,1.4,0,3.2v32.6C0,37.6,1.4,39,3.2,39h34.3c1.7,0,3.2-1.4,3.2-3.2V3.2C40.6,1.4,39.2,0,37.4,0z
		 M37.5,29.4C37.5,29.4,37.5,29.5,37.5,29.4L3.2,29.5c0,0-0.1-0.1-0.1-0.1V3.2c0,0,0.1-0.1,0.1-0.1h34.3c0,0,0.1,0.1,0.1,0.1
		L37.5,29.4z M24.2,17.8c-0.3-0.2-0.6-0.2-0.9,0L18.2,22l-8.4-6.8c-0.3-0.2-0.6-0.2-0.9,0l-3.1,2.5c-0.2,0.1-0.3,0.3-0.3,0.6v8.9
		h8.3h8.7h11.2c0.3,0,0.6-0.2,0.7-0.5c0.1-0.3,0-0.6-0.2-0.8L24.2,17.8z M18.2,14.3c1.6,0,2.9-1.3,2.9-2.9c0-1.6-1.3-2.9-2.9-2.9
		c-1.6,0-2.9,1.3-2.9,2.9C15.3,13,16.6,14.3,18.2,14.3z"/>
</g>
<g>
</g>
<g>
</g>
<g>
</g>
<g>
</g>
<g>
</g>
<g>
</g>
<g>
</g>
<g>
</g>
<g>
</g>
<g>
</g>
<g>
</g>
<g>
</g>
<g>
</g>
<g>
</g>
<g>
</g>
</svg>
