<?xml version="1.0" encoding="utf-8"?>
<!-- Generator: Adobe Illustrator 18.1.1, SVG Export Plug-In . SVG Version: 6.00 Build 0)  -->
<svg version="1.1" id="Layer_1" xmlns="http://www.w3.org/2000/svg" xmlns:xlink="http://www.w3.org/1999/xlink" x="0px" y="0px"
	 viewBox="0 0 614.1 500.4" enable-background="new 0 0 614.1 500.4" xml:space="preserve">
<g>
	<path d="M525.2,382.5V33.1C525.2,14.5,510.7,0,490,0H35.1C14.5,0,0,14.5,0,33.1v349.4c0,18.6,14.5,33.1,35.1,33.1h456.9
		C510.7,415.6,525.2,401.1,525.2,382.5z M51.7,366V223.3l0,0l55.8-53.8l163.3,159.2l37.2-35.1l-31-31l37.2-35.1L456.9,368H51.7V366z
		 M473.5,314.3L334.9,177.8c-12.4-12.4-35.1-12.4-49.6,0l-47.6,47.6L130.3,119.9c-12.4-12.4-35.1-12.4-47.6,0l-31,31V49.6h423.9
		v264.6H473.5z"/>
	<path d="M578.9,84.8h-16.5v366H86.8v16.5c0,18.6,14.5,33.1,35.1,33.1h456.9c18.6,0,35.1-14.5,35.1-33.1V117.9
		C612,99.2,597.5,84.8,578.9,84.8z"/>
</g>
<g>
</g>
<g>
</g>
<g>
</g>
<g>
</g>
<g>
</g>
<g>
</g>
<g>
</g>
<g>
</g>
<g>
</g>
<g>
</g>
<g>
</g>
<g>
</g>
<g>
</g>
<g>
</g>
<g>
</g>
</svg>
