<?xml version="1.0" encoding="utf-8"?>
<!-- Generator: Adobe Illustrator 18.1.1, SVG Export Plug-In . SVG Version: 6.00 Build 0)  -->
<svg version="1.1" id="Layer_1" xmlns="http://www.w3.org/2000/svg" xmlns:xlink="http://www.w3.org/1999/xlink" x="0px" y="0px"
	 viewBox="0 0 43.6 36.1" enable-background="new 0 0 43.6 36.1" xml:space="preserve">
<g>
	<path d="M16.2,19.2c1.2,0,2.3-1,2.3-2.3c0-1.2-1-2.3-2.3-2.3c-1.3,0-2.3,1-2.3,2.3C14,18.2,15,19.2,16.2,19.2z M6.3,30h22.2
		c0.2,0,0.4-0.1,0.5-0.4c0.1-0.2,0-0.5-0.2-0.6L21,22.6c-0.2-0.2-0.5-0.2-0.7,0l-4.1,3.3l-6.6-5.3c-0.2-0.2-0.5-0.2-0.7,0l-2.4,2
		c-0.1,0.1-0.2,0.3-0.2,0.4V30z M40.7,0H10.3C8.7,0,7.4,1.3,7.4,2.8l0,0.2h33l0,26.4l0.2,0c1.3,0,2.4-0.9,2.8-2.2c0,0,0,0,0-0.1
		c0-0.1,0-0.2,0-0.2c0-0.1,0-0.2,0-0.3v0V2.9C43.5,1.3,42.3,0,40.7,0z M34.3,6.6c-0.1,0-0.2,0-0.3,0H2.9C1.3,6.6,0,7.9,0,9.5v23.8
		c0,1.6,1.3,2.9,2.9,2.9H34c1.6,0,2.9-1.3,2.9-2.9V9.5c0-0.1,0-0.2,0-0.3C36.7,7.8,35.7,6.8,34.3,6.6z M33.9,33.2H3L3,9.6h30.9V33.2
		z"/>
</g>
<g>
</g>
<g>
</g>
<g>
</g>
<g>
</g>
<g>
</g>
<g>
</g>
<g>
</g>
<g>
</g>
<g>
</g>
<g>
</g>
<g>
</g>
<g>
</g>
<g>
</g>
<g>
</g>
<g>
</g>
</svg>
