<?xml version="1.0" encoding="utf-8"?>
<!-- Generator: Adobe Illustrator 18.1.1, SVG Export Plug-In . SVG Version: 6.00 Build 0)  -->
<svg version="1.1" id="Layer_1" xmlns="http://www.w3.org/2000/svg" xmlns:xlink="http://www.w3.org/1999/xlink" x="0px" y="0px"
	 viewBox="0 0 48.7 43.6" enable-background="new 0 0 48.7 43.6" xml:space="preserve">
<g>
	<path d="M46.6,5.7L18.3,0.1C18.1,0,17.9,0,17.8,0c-1.2,0-2.4,0.9-2.6,2.1l-1.3,6.6h2.7l1.2-6.1l28.3,5.6l-4.5,22.6L37.1,30v5.2v1.1
		l3.3,0.7c0.2,0,0.3,0.1,0.5,0.1c1.2,0,2.4-0.9,2.6-2.1l5.2-26c0.1-0.7,0-1.4-0.4-2C47.9,6.2,47.3,5.8,46.6,5.7z"/>
	<polyline points="37.1,36.2 37.1,35.2 37.1,30 	"/>
	<path d="M34.2,14.5c0-0.4-0.1-0.8-0.3-1.1c-0.3-0.7-1-1.3-1.8-1.5c-0.2,0-0.4-0.1-0.6-0.1H6.9H2.7C1.2,11.8,0,13,0,14.5V41
		c0,1.5,1.2,2.7,2.7,2.7h28.9c0.9,0,1.7-0.5,2.2-1.2c0.3-0.4,0.4-0.9,0.4-1.5V14.5z M2.7,14.5h28.9v23H2.7V14.5z"/>
</g>
<g>
</g>
<g>
</g>
<g>
</g>
<g>
</g>
<g>
</g>
<g>
</g>
<g>
</g>
<g>
</g>
<g>
</g>
<g>
</g>
<g>
</g>
<g>
</g>
<g>
</g>
<g>
</g>
<g>
</g>
</svg>
