<?xml version="1.0" encoding="utf-8"?>
<!-- Generator: Adobe Illustrator 18.1.1, SVG Export Plug-In . SVG Version: 6.00 Build 0)  -->
<svg version="1.1" id="Layer_1" xmlns="http://www.w3.org/2000/svg" xmlns:xlink="http://www.w3.org/1999/xlink" x="0px" y="0px"
	 viewBox="0 0 41.8 37.3" enable-background="new 0 0 41.8 37.3" xml:space="preserve">
<g>
	<path d="M41.8,3.3L41.8,3.3c0.2-1.8-1.2-3.4-2.9-3.3c-5.9,0.4-17.2,2.3-18,2.3c-0.8,0-12.1-2-18-2.3C1.2-0.1-0.2,1.5,0,3.3l0,0
		c0.3,4,2,14.2,2.1,15.4C2,19.8,0.4,30,0,34l0,0c-0.2,1.8,1.2,3.4,2.9,3.3c5.9-0.4,17.2-2.3,18-2.3c0.8,0,12.1,2,18,2.3
		c1.7,0.1,3-1.5,2.9-3.3l0,0c-0.4-4-2-14.2-2.1-15.4C39.8,17.4,41.4,7.3,41.8,3.3z M35.5,30.4H6.3V6.9h29.2V30.4z"/>
</g>
<g>
</g>
<g>
</g>
<g>
</g>
<g>
</g>
<g>
</g>
<g>
</g>
<g>
</g>
<g>
</g>
<g>
</g>
<g>
</g>
<g>
</g>
<g>
</g>
<g>
</g>
<g>
</g>
<g>
</g>
</svg>
