<?xml version="1.0" encoding="utf-8"?>
<!-- Generator: Adobe Illustrator 18.1.1, SVG Export Plug-In . SVG Version: 6.00 Build 0)  -->
<svg version="1.1" id="Layer_1" xmlns="http://www.w3.org/2000/svg" xmlns:xlink="http://www.w3.org/1999/xlink" x="0px" y="0px"
	 viewBox="0 0 41.4 37.6" enable-background="new 0 0 41.4 37.6" xml:space="preserve">
<g>
	<path d="M3,3h28.2v2.2h3V1.7c0-0.9-0.8-1.7-1.7-1.7H1.7C0.8,0,0,0.8,0,1.7v27c0,0.9,0.8,1.7,1.7,1.7h3.5v-6.6H3V3z"/>
	<path d="M39.7,7.2H9C8,7.2,7.3,8,7.3,8.9v27c0,0.9,0.8,1.7,1.7,1.7h30.7c0.9,0,1.7-0.8,1.7-1.7v-27C41.4,8,40.6,7.2,39.7,7.2z
		 M38.4,31H10.2V10.2h28.2V31z"/>
</g>
<g>
</g>
<g>
</g>
<g>
</g>
<g>
</g>
<g>
</g>
<g>
</g>
<g>
</g>
<g>
</g>
<g>
</g>
<g>
</g>
<g>
</g>
<g>
</g>
<g>
</g>
<g>
</g>
<g>
</g>
</svg>
