<?xml version="1.0" encoding="utf-8"?>
<!-- Generator: Adobe Illustrator 18.1.1, SVG Export Plug-In . SVG Version: 6.00 Build 0)  -->
<svg version="1.1" id="Layer_1" xmlns="http://www.w3.org/2000/svg" xmlns:xlink="http://www.w3.org/1999/xlink" x="0px" y="0px"
	 viewBox="0 0 610.3 467.7" enable-background="new 0 0 610.3 467.7" xml:space="preserve">
<path d="M527.9,319.6c-6.7-6.7-13.5-3.4-13.5,6.7v37h-67.3c-3.4,0-6.7-3.4-6.7-3.4L316.1,232.2l124.4-127.8c0,0,3.4-3.4,6.7-3.4
	h67.3v40.4c0,10.1,6.7,13.5,13.5,6.7l77.3-60.5c6.7-6.7,6.7-16.8,0-23.5L527.9,3.5c-6.7-6.7-13.5-3.4-13.5,6.7v37h-67.3
	c-16.8,0-33.6,6.7-47.1,20.2L275.7,191.8L151.3,64c-10.1-10.1-26.9-16.8-47.1-16.8H0V101h104.2c3.4,0,6.7,3.4,6.7,3.4l124.4,127.8
	L111,359.9c0,0-3.4,3.4-6.7,3.4H0v57.2h104.2c16.8,0,33.6-6.7,47.1-20.2l124.4-127.8l124.4,127.8c13.5,13.5,30.3,20.2,47.1,20.2
	h67.3v37c0,10.1,6.7,13.5,13.5,6.7l77.3-60.5c6.7-6.7,6.7-16.8,0-23.5L527.9,319.6z"/>
<g>
</g>
<g>
</g>
<g>
</g>
<g>
</g>
<g>
</g>
<g>
</g>
<g>
</g>
<g>
</g>
<g>
</g>
<g>
</g>
<g>
</g>
<g>
</g>
<g>
</g>
<g>
</g>
<g>
</g>
</svg>
