<?xml version="1.0" encoding="utf-8"?>
<!-- Generator: Adobe Illustrator 18.1.1, SVG Export Plug-In . SVG Version: 6.00 Build 0)  -->
<svg version="1.1" id="Layer_1" xmlns="http://www.w3.org/2000/svg" xmlns:xlink="http://www.w3.org/1999/xlink" x="0px" y="0px"
	 viewBox="0 0 44.2 43.5" enable-background="new 0 0 44.2 43.5" xml:space="preserve">
<g>
	<path d="M22.1,0C9.9,0,0,9.8,0,21.7c0,12,9.9,21.7,22.1,21.7c12.2,0,22.1-9.7,22.1-21.7C44.2,9.8,34.3,0,22.1,0z M22.1,39.4
		c-9.9,0-18-7.9-18-17.6c0-9.7,8.1-17.6,18-17.6c9.9,0,18,7.9,18,17.6C40.1,31.5,32,39.4,22.1,39.4z"/>
	<polygon points="16.6,31.3 33.4,21.7 16.6,12.2 	"/>
</g>
<g>
</g>
<g>
</g>
<g>
</g>
<g>
</g>
<g>
</g>
<g>
</g>
<g>
</g>
<g>
</g>
<g>
</g>
<g>
</g>
<g>
</g>
<g>
</g>
<g>
</g>
<g>
</g>
<g>
</g>
</svg>
