<?xml version="1.0" encoding="utf-8"?>
<!-- Generator: Adobe Illustrator 18.1.1, SVG Export Plug-In . SVG Version: 6.00 Build 0)  -->
<svg version="1.1" id="Layer_1" xmlns="http://www.w3.org/2000/svg" xmlns:xlink="http://www.w3.org/1999/xlink" x="0px" y="0px"
	 viewBox="0 0 606.1 430.9" enable-background="new 0 0 606.1 430.9" xml:space="preserve">
<g>
	<path d="M495.4,51.9v58.3C531,129.7,557,171.8,557,217.1c0,68-55,123-123,123H278.5v-32.4c0-9.7-6.5-13-13-6.5l-71.2,51.8
		c-6.5,6.5-6.5,16.2,0,22.7l68,51.8c6.5,6.5,13,3.2,13-6.5v-29.1h155.4c97.1,0,174.9-77.7,174.9-174.9
		C612,139.4,563.4,74.6,495.4,51.9z"/>
	<path d="M174.9,94h145.7v29.1c0,9.7,6.5,13,13,6.5l68-51.8c6.5-6.5,6.5-16.2,0-22.7l-68-51.8c-6.5-6.5-13-3.2-13,6.5V39H174.9
		C77.7,39,0,119.9,0,217.1C0,288.3,42.1,349.8,106.9,379v-64.8C74.5,291.6,55,255.9,55,213.8C55,149.1,106.9,94,174.9,94z"/>
</g>
<g>
</g>
<g>
</g>
<g>
</g>
<g>
</g>
<g>
</g>
<g>
</g>
<g>
</g>
<g>
</g>
<g>
</g>
<g>
</g>
<g>
</g>
<g>
</g>
<g>
</g>
<g>
</g>
<g>
</g>
</svg>
