<?xml version="1.0" encoding="utf-8"?>
<!-- Generator: Adobe Illustrator 18.1.1, SVG Export Plug-In . SVG Version: 6.00 Build 0)  -->
<svg version="1.1" id="Layer_1" xmlns="http://www.w3.org/2000/svg" xmlns:xlink="http://www.w3.org/1999/xlink" x="0px" y="0px"
	 viewBox="0 0 38 38" enable-background="new 0 0 38 38" xml:space="preserve">
<g>
	<path d="M19,0C8.5,0,0,8.5,0,19c0,10.5,8.5,19,19,19c10.5,0,19-8.5,19-19C38,8.5,29.5,0,19,0z M19,34c-8.3,0-15-6.7-15-15
		c0-8.3,6.7-15,15-15c8.3,0,15,6.7,15,15C34,27.3,27.3,34,19,34z"/>
	<path d="M28.1,16.5L16.5,9.3c-0.5-0.3-1-0.5-1.6-0.5c-1.7,0-3,1.3-3,3v14.4c0,1.7,1.3,3,3,3c0.6,0,1.1-0.2,1.6-0.5l11.6-7.3
		c0.8-0.5,1.3-1.4,1.3-2.4C29.4,18,28.9,17.1,28.1,16.5z M15.9,24.4V13.6l8.6,5.4L15.9,24.4z"/>
</g>
<g>
</g>
<g>
</g>
<g>
</g>
<g>
</g>
<g>
</g>
<g>
</g>
<g>
</g>
<g>
</g>
<g>
</g>
<g>
</g>
<g>
</g>
<g>
</g>
<g>
</g>
<g>
</g>
<g>
</g>
</svg>
