<?xml version="1.0" encoding="utf-8"?>
<!-- Generator: Adobe Illustrator 18.1.1, SVG Export Plug-In . SVG Version: 6.00 Build 0)  -->
<svg version="1.1" id="Layer_1" xmlns="http://www.w3.org/2000/svg" xmlns:xlink="http://www.w3.org/1999/xlink" x="0px" y="0px"
	 viewBox="0 0 28.1 31.2" enable-background="new 0 0 28.1 31.2" xml:space="preserve">
<g>
	<path d="M26.3,12.3L26.3,12.3L6.2,0.7l0,0C5.6,0.3,4.8,0,4,0C1.8,0,0,1.8,0,4v23.2c0,2.2,1.8,4,4,4c0.8,0,1.5-0.2,2.2-0.7
		c0,0,0,0,0.1,0L26.2,19l0.2-0.1c1.1-0.7,1.7-1.9,1.7-3.3C28.1,14.2,27.4,13,26.3,12.3z M4,27.2L4,4l20.1,11.6L4,27.2z"/>
</g>
<g>
</g>
<g>
</g>
<g>
</g>
<g>
</g>
<g>
</g>
<g>
</g>
<g>
</g>
<g>
</g>
<g>
</g>
<g>
</g>
<g>
</g>
<g>
</g>
<g>
</g>
<g>
</g>
<g>
</g>
</svg>
