<?xml version="1.0" encoding="utf-8"?>
<!-- Generator: Adobe Illustrator 18.1.1, SVG Export Plug-In . SVG Version: 6.00 Build 0)  -->
<svg version="1.1" id="Layer_1" xmlns="http://www.w3.org/2000/svg" xmlns:xlink="http://www.w3.org/1999/xlink" x="0px" y="0px"
	 viewBox="0 0 615.2 460.2" enable-background="new 0 0 615.2 460.2" xml:space="preserve">
<g>
	<path d="M275.9,155.8c-9.5-6.3-12.7-3.2-12.7,6.3v133.2c0,9.5,6.3,12.7,12.7,6.3l76.1-63.4c6.3-6.3,6.3-15.9,0-22.2L275.9,155.8z"
		/>
	<path d="M53.9,228.7c0-69.8,25.4-133.2,72.9-183.9c6.3-12.7,6.3-28.5-3.2-38.1C111-2.7,95.1-2.7,85.6,10C31.7,70.2,0,149.5,0,228.7
		s31.7,158.5,85.6,222c6.3,6.3,12.7,9.5,19,9.5c6.3,0,12.7-3.2,19-6.3c9.5-9.5,12.7-25.4,3.2-38.1C79.3,365.1,53.9,298.5,53.9,228.7
		z"/>
	<path d="M199.8,79.7c-9.5-9.5-28.5-9.5-38.1,0c-34.9,41.2-57.1,95.1-57.1,149s19,107.8,57.1,149c6.3,6.3,12.7,9.5,19,9.5
		s12.7-3.2,19-6.3c9.5-9.5,12.7-25.4,3.2-38.1c-28.5-31.7-44.4-72.9-44.4-114.2s15.9-82.4,44.4-114.2
		C212.5,105.1,212.5,89.2,199.8,79.7z"/>
	<path d="M526.4,10c-9.5-9.5-25.4-12.7-38.1-3.2c-9.5,9.5-12.7,25.4,0,38.1c47.6,50.7,72.9,117.3,72.9,183.9s-25.4,133.2-72.9,183.9
		c-9.5,9.5-9.5,28.5,3.2,38.1c6.3,3.2,12.7,6.3,19,6.3c6.3,0,12.7-3.2,19-9.5c53.9-60.2,85.6-139.5,85.6-222S580.3,70.2,526.4,10z"
		/>
	<path d="M447.1,79.7c-9.5-9.5-25.4-12.7-38.1-3.2c-9.5,9.5-12.7,25.4-3.2,38.1c28.5,31.7,44.4,72.9,44.4,114.2
		s-15.9,82.4-44.4,114.2c-9.5,9.5-9.5,28.5,3.2,38.1c6.3,3.2,12.7,6.3,19,6.3s15.9-3.2,19-9.5c38.1-41.2,57.1-95.1,57.1-149
		S485.2,120.9,447.1,79.7z"/>
</g>
<g>
</g>
<g>
</g>
<g>
</g>
<g>
</g>
<g>
</g>
<g>
</g>
<g>
</g>
<g>
</g>
<g>
</g>
<g>
</g>
<g>
</g>
<g>
</g>
<g>
</g>
<g>
</g>
<g>
</g>
</svg>
