<?xml version="1.0" encoding="utf-8"?>
<!-- Generator: Adobe Illustrator 18.1.1, SVG Export Plug-In . SVG Version: 6.00 Build 0)  -->
<svg version="1.1" id="Layer_1" xmlns="http://www.w3.org/2000/svg" xmlns:xlink="http://www.w3.org/1999/xlink" x="0px" y="0px"
	 viewBox="0 0 41.7 31.5" enable-background="new 0 0 41.7 31.5" xml:space="preserve">
<g>
	<path d="M19.5,12.8L6.8,1.2L6.8,1.1C6,0.4,5.1,0,4,0C1.8,0,0,1.8,0,4v23.5c0,2.2,1.8,4,4,4c1.1,0,2-0.4,2.7-1.1l0.1-0.1l12.7-11.6
		l0.2-0.1c0.7-0.7,1.1-1.7,1.1-2.8c0-1.1-0.4-2.1-1.1-2.8L19.5,12.8z M4,27.4V4l12.8,11.7L4,27.4z"/>
	<path d="M40.5,12.9l-0.1-0.1L27.7,1.2l-0.1-0.1C26.9,0.4,25.9,0,24.9,0c-2.2,0-4,1.8-4,4v23.5c0,2.2,1.8,4,4,4c1.1,0,2-0.4,2.7-1.1
		l0.1-0.1l12.7-11.6l0.2-0.1c0.7-0.7,1.1-1.7,1.1-2.8C41.7,14.6,41.2,13.7,40.5,12.9z M24.9,27.4V4l12.8,11.7L24.9,27.4z"/>
</g>
<g>
</g>
<g>
</g>
<g>
</g>
<g>
</g>
<g>
</g>
<g>
</g>
<g>
</g>
<g>
</g>
<g>
</g>
<g>
</g>
<g>
</g>
<g>
</g>
<g>
</g>
<g>
</g>
<g>
</g>
</svg>
