<?xml version="1.0" encoding="utf-8"?>
<!-- Generator: Adobe Illustrator 18.1.1, SVG Export Plug-In . SVG Version: 6.00 Build 0)  -->
<svg version="1.1" id="Layer_1" xmlns="http://www.w3.org/2000/svg" xmlns:xlink="http://www.w3.org/1999/xlink" x="0px" y="0px"
	 viewBox="0 0 41.1 44.8" enable-background="new 0 0 41.1 44.8" xml:space="preserve">
<g>
	<path d="M18.4,21.2L18.4,21.2l4.3,0c0.3,0,0.7-0.1,0.9-0.4c0.2-0.2,0.4-0.6,0.4-0.9l0-18.7c0-0.3-0.1-0.6-0.4-0.9
		C23.3,0.1,23,0,22.7,0l-4.3,0c-0.3,0-0.7,0.1-0.9,0.4c-0.2,0.2-0.4,0.6-0.4,0.9l0,18.7c0,0.3,0.1,0.6,0.4,0.9
		C17.7,21.1,18.1,21.2,18.4,21.2z M30.3,6.7L30.3,6.7c-0.1-0.1-0.3-0.1-0.5-0.1c-0.1,0-0.2,0-0.4,0.1C29.2,6.8,29,7,28.9,7.2
		l-1.7,4.2c0,0.1-0.1,0.2-0.1,0.4c0,0.3,0.2,0.6,0.5,0.8c4.2,2.4,7,6.9,7,12c0,7.7-6.3,13.9-14.1,13.9c-7.8,0-14.1-6.2-14.1-13.9
		c0-5.1,2.8-9.6,7-12c0.3-0.2,0.5-0.5,0.5-0.8c0-0.1,0-0.2-0.1-0.3l-1.7-4.2C12,7,11.8,6.8,11.6,6.7c-0.1,0-0.2-0.1-0.3-0.1
		c-0.1,0-0.3,0-0.5,0.1C4.4,10.1,0,16.8,0,24.6c0,11.2,9.2,20.2,20.5,20.2c11.3,0,20.5-9.1,20.5-20.2C41.1,16.8,36.7,10.1,30.3,6.7z
		"/>
</g>
<g>
</g>
<g>
</g>
<g>
</g>
<g>
</g>
<g>
</g>
<g>
</g>
<g>
</g>
<g>
</g>
<g>
</g>
<g>
</g>
<g>
</g>
<g>
</g>
<g>
</g>
<g>
</g>
<g>
</g>
</svg>
