<?xml version="1.0" encoding="utf-8"?>
<!-- Generator: Adobe Illustrator 18.1.1, SVG Export Plug-In . SVG Version: 6.00 Build 0)  -->
<svg version="1.1" id="Layer_1" xmlns="http://www.w3.org/2000/svg" xmlns:xlink="http://www.w3.org/1999/xlink" x="0px" y="0px"
	 viewBox="0 0 41 32" enable-background="new 0 0 41 32" xml:space="preserve">
<path d="M39.9,9.1H21.6l0-8c0-0.4-0.2-0.8-0.6-1c-0.4-0.2-0.9-0.1-1.2,0.1L0.4,15.1C0.2,15.3,0,15.7,0,16c0,0.4,0.2,0.7,0.4,0.9
	l19.3,14.9c0.2,0.2,0.5,0.2,0.7,0.2c0.2,0,0.3,0,0.5-0.1c0.4-0.2,0.6-0.6,0.6-1v-8h18.2c0.3,0,0.6-0.1,0.8-0.3
	c0.2-0.2,0.3-0.5,0.3-0.8V10.3c0-0.3-0.1-0.6-0.3-0.8C40.5,9.3,40.2,9.1,39.9,9.1z"/>
<g>
</g>
<g>
</g>
<g>
</g>
<g>
</g>
<g>
</g>
<g>
</g>
<g>
</g>
<g>
</g>
<g>
</g>
<g>
</g>
<g>
</g>
<g>
</g>
<g>
</g>
<g>
</g>
<g>
</g>
</svg>
