<?xml version="1.0" encoding="utf-8"?>
<!-- Generator: Adobe Illustrator 18.1.1, SVG Export Plug-In . SVG Version: 6.00 Build 0)  -->
<svg version="1.1" id="Layer_1" xmlns="http://www.w3.org/2000/svg" xmlns:xlink="http://www.w3.org/1999/xlink" x="0px" y="0px"
	 viewBox="0 0 43.8 40.1" enable-background="new 0 0 43.8 40.1" xml:space="preserve">
<g>
	<path d="M37.2,7.1H34v2h3.3V7.1z M0,0v20.3h6.5v19.8h30.7V20.3h6.5V0H0z M28.1,36.8H16.7l0-0.5c0-4,2.4-5.5,3.4-6
		c0.3-0.1,0.6-0.4,0.7-0.7l0,0l0.1-0.4l0,0l0,0l0-0.2c0-0.4-0.2-0.9-0.6-1.2c-0.5-0.4-0.9-1-1.2-1.7c-0.1-0.4-0.2-0.8-0.2-1.2
		c0-1.8,1.2-3.2,2.8-3.5c0.2,0,0.3-0.1,0.5-0.1c0.2,0,0.3,0,0.5,0.1c1.6,0.3,2.8,1.8,2.8,3.5c0,0.4-0.1,0.8-0.2,1.2
		c-0.2,0.7-0.6,1.3-1.2,1.7c-0.3,0.3-0.6,0.7-0.6,1.2l0,0.2l0,0l0.1,0.4l0,0l0,0c0.1,0.3,0.4,0.6,0.7,0.7c1,0.5,3.4,2,3.4,6V36.8z
		 M33.9,36.8h-3v-0.5c0-2.8-1-5.3-2.7-7c-0.2-0.2-0.5-0.4-0.7-0.6l0,0l0,0c0.7-1.1,1.1-2.4,1.1-3.7c0-2.3-1.2-4.3-2.9-5.5l0,0
		l-0.2-0.1c-0.9-0.6-2-0.9-3.1-0.9c-1.1,0-2.2,0.3-3.1,0.9l-0.2,0.1l0,0c-1.7,1.2-2.9,3.2-2.9,5.5c0,1.3,0.4,2.6,1.1,3.7l0,0l0,0
		c-0.2,0.2-0.5,0.4-0.7,0.6l0.2,0.2l-0.2-0.2c-1.8,1.7-2.7,4.2-2.7,7v0.5h-4V15.8h24.1V36.8z M40.5,17h-3.2v-4.5H6.5V17H3.3V3.3
		h37.2V17z"/>
</g>
<g>
</g>
<g>
</g>
<g>
</g>
<g>
</g>
<g>
</g>
<g>
</g>
<g>
</g>
<g>
</g>
<g>
</g>
<g>
</g>
<g>
</g>
<g>
</g>
<g>
</g>
<g>
</g>
<g>
</g>
</svg>
