<?xml version="1.0" encoding="utf-8"?>
<!-- Generator: Adobe Illustrator 18.1.1, SVG Export Plug-In . SVG Version: 6.00 Build 0)  -->
<svg version="1.1" id="Layer_1" xmlns="http://www.w3.org/2000/svg" xmlns:xlink="http://www.w3.org/1999/xlink" x="0px" y="0px"
	 viewBox="0 0 41.9 39.1" enable-background="new 0 0 41.9 39.1" xml:space="preserve">
<g>
	<path d="M37.9,11h-4V4c0-2.2-1.8-4-4-4H12C9.8,0,8,1.8,8,4v7H4c-2.2,0-4,1.8-4,4v16.3h8v3.7c0,2.2,1.8,4,4,4h17.9c2.2,0,4-1.8,4-4
		v-3.7h8V15C41.9,12.8,40.1,11,37.9,11z M12,4h17.9v7H12V4z M29.9,35.1H12V23.6h17.9V35.1z M33.9,27.3v-7.8H8v7.8H4V15h33.9v12.3
		H33.9z"/>
</g>
<g>
</g>
<g>
</g>
<g>
</g>
<g>
</g>
<g>
</g>
<g>
</g>
<g>
</g>
<g>
</g>
<g>
</g>
<g>
</g>
<g>
</g>
<g>
</g>
<g>
</g>
<g>
</g>
<g>
</g>
</svg>
