<?xml version="1.0" encoding="utf-8"?>
<!-- Generator: Adobe Illustrator 18.1.1, SVG Export Plug-In . SVG Version: 6.00 Build 0)  -->
<svg version="1.1" id="Layer_1" xmlns="http://www.w3.org/2000/svg" xmlns:xlink="http://www.w3.org/1999/xlink" x="0px" y="0px"
	 viewBox="0 0 612 667" enable-background="new 0 0 612 667" xml:space="preserve">
<g>
	<path d="M463.8,243.8L463.8,243.8H349l-35.9-105.2l0,0c-2.4-2.4-4.8-4.8-7.2-4.8c-4.8,0-7.2,2.4-9.6,7.2l0,0L263,243.8H148.2l0,0
		l0,0c-2.4,0-7.2,2.4-7.2,7.2v2.4c0,2.4,2.4,4.8,2.4,7.2l0,0l90.8,64.5l-33.5,105.2l0,0v2.4c0,2.4,2.4,4.8,4.8,7.2
		c2.4,0,2.4,2.4,4.8,2.4c2.4,0,2.4,0,4.8-2.4l0,0l93.2-64.5l90.8,64.5l0,0c2.4,0,2.4,2.4,4.8,2.4c2.4,0,2.4,0,4.8-2.4
		c2.4-2.4,4.8-4.8,4.8-7.2v-2.4l0,0l-35.9-105.2l90.8-64.5l0,0c2.4-2.4,2.4-4.8,2.4-7.2V251C471,246.2,468.6,243.8,463.8,243.8z"/>
	<path d="M612,74.1c0-19.1-12-33.5-28.7-38.3h-2.4C490.1,12,399.2,0,306,0C215.2,0,121.9,12,33.5,35.9h-2.4C12,40.6,0,55,0,74.1
		c0,59.8,0,150.6,0,210.4c0,181.7,126.7,334.7,298.8,380.1l7.2,2.4l7.2-2.4c172.1-43,298.8-196,298.8-380.1
		C612,224.7,612,133.9,612,74.1L612,74.1z M552.2,284.5c0,153-105.2,279.7-246.2,320.3C165,564.2,59.8,437.5,59.8,284.5
		c0-50.2,0-188.9,0-193.6c4.8-4.8,12-4.8,16.7-7.2C150.6,66.9,227.1,57.4,306,57.4c76.5,0,153,9.6,229.5,26.3
		c7.2,2.4,12,2.4,19.1,4.8C552.2,95.6,552.2,234.3,552.2,284.5z"/>
</g>
<g>
</g>
<g>
</g>
<g>
</g>
<g>
</g>
<g>
</g>
<g>
</g>
<g>
</g>
<g>
</g>
<g>
</g>
<g>
</g>
<g>
</g>
<g>
</g>
<g>
</g>
<g>
</g>
<g>
</g>
</svg>
