<?xml version="1.0" encoding="utf-8"?>
<!-- Generator: Adobe Illustrator 18.1.1, SVG Export Plug-In . SVG Version: 6.00 Build 0)  -->
<svg version="1.1" id="Layer_1" xmlns="http://www.w3.org/2000/svg" xmlns:xlink="http://www.w3.org/1999/xlink" x="0px" y="0px"
	 viewBox="0 0 612 599.8" enable-background="new 0 0 612 599.8" xml:space="preserve">
<g>
	<path d="M612,301.1L612,301.1L612,301.1L612,301.1v-61.2h-61.2v61.2h-61.2v-58.8H367.2V63.6H306V4.9L244.8,0l0,0l0,0v58.8H306l0,0
		l0,0v58.8h-61.2v61.2l0,0l0,0h-61.2v120h-61.2v-58.8H0l0,0l0,0v120l0,0l0,0h61.2v-61.2h61.2v58.8l0,0l0,0h61.2l0,0l0,0v58.8l0,0
		l0,0h61.2v120l0,0l0,0H306v58.8l0,0l0,0h61.2l0,0l0,0v-58.8h122.4l0,0l0,0v-58.8h61.2l0,0l0,0v-58.8H612l0,0l0,0l0,0l0,0v-58.8
		h-61.2v-58.8L612,301.1z M306,239.9h61.2v58.8H306V239.9z M306,359.9H183.6v-58.8H306V359.9z M306,239.9h-61.2v-58.8H306V239.9z
		 M367.2,538.6H306v-58.8h61.2V538.6z M367.2,418.6H306v-58.8h61.2V418.6z M428.4,479.8h-61.2v-58.8h61.2V479.8z M489.6,359.9H367.2
		v-58.8h122.4V359.9z M550.8,418.6h-61.2v-58.8h61.2l0,0l0,0V418.6z"/>
	<path d="M0,560.6c0,22,17.1,39.2,39.2,39.2h144.4V421.1H0V560.6z M61.2,479.8L61.2,479.8L61.2,479.8h61.2v58.8l0,0l0,0l0,0H61.2
		V479.8z"/>
	<path d="M183.6,0h-142C19.6,0,0,17.1,0,39.2v139.5h183.6V0z M122.4,120L122.4,120L122.4,120H61.2l0,0l0,0l0,0l0,0V61.2l0,0l0,0
		h61.2V120z"/>
	<path d="M428.4,178.7h61.2l0,0l0,0v58.8h61.2v-61.2H612V36.7C612,17.1,592.4,0,570.4,0H367.2v58.8h61.2V178.7z M489.6,58.8h61.2
		v58.8l0,0l0,0l0,0h-61.2l0,0l0,0V58.8z"/>
	<path d="M550.8,538.6h-61.2v58.8h80.8c22,0,39.2-17.1,39.2-39.2v-80.8h-61.2L550.8,538.6z"/>
</g>
<g>
</g>
<g>
</g>
<g>
</g>
<g>
</g>
<g>
</g>
<g>
</g>
<g>
</g>
<g>
</g>
<g>
</g>
<g>
</g>
<g>
</g>
<g>
</g>
<g>
</g>
<g>
</g>
<g>
</g>
</svg>
