<?xml version="1.0" encoding="utf-8"?>
<!-- Generator: Adobe Illustrator 18.1.1, SVG Export Plug-In . SVG Version: 6.00 Build 0)  -->
<svg version="1.1" id="Layer_1" xmlns="http://www.w3.org/2000/svg" xmlns:xlink="http://www.w3.org/1999/xlink" x="0px" y="0px"
	 viewBox="0 0 40.3 40.3" enable-background="new 0 0 40.3 40.3" xml:space="preserve">
<g>
	<path d="M17,2.9c0.1,0,0.2-0.1,0.2-0.2V0.2C17.3,0.1,17.2,0,17,0h-5.3c-0.1,0-0.2,0.1-0.2,0.2v5.3c0,0.1,0.1,0.2,0.2,0.2h2.4
		c0.1,0,0.2-0.1,0.2-0.2V3.1c0-0.1,0.1-0.2,0.2-0.2H17z M31.9,0c-0.1,0-0.2,0.1-0.2,0.2v8.2c0,0.1,0.1,0.2,0.2,0.2h8.2
		c0.1,0,0.2-0.1,0.2-0.2V0.2c0-0.1-0.1-0.2-0.2-0.2H31.9z M37.4,5.5c0,0.1-0.1,0.2-0.2,0.2h-2.4c-0.1,0-0.2-0.1-0.2-0.2V3.1
		c0-0.1,0.1-0.2,0.2-0.2h2.4c0.1,0,0.2,0.1,0.2,0.2V5.5z M8.4,8.6c0.1,0,0.2-0.1,0.2-0.2V0.2C8.6,0.1,8.5,0,8.4,0H0.2
		C0.1,0,0,0.1,0,0.2v8.2c0,0.1,0.1,0.2,0.2,0.2H8.4z M2.9,3.1C2.9,3,3,2.9,3.1,2.9h2.4c0.1,0,0.2,0.1,0.2,0.2v2.4
		c0,0.1-0.1,0.2-0.2,0.2H3.1C3,5.8,2.9,5.7,2.9,5.5V3.1z M29,11.5c-0.1,0-0.2,0.1-0.2,0.2v2.4c0,0.1,0.1,0.2,0.2,0.2h2.4
		c0.1,0,0.2,0.1,0.2,0.2V17c0,0.1,0.1,0.2,0.2,0.2h2.4c0.1,0,0.2-0.1,0.2-0.2v-2.4c0-0.1,0.1-0.2,0.2-0.2h5.3c0.1,0,0.2-0.1,0.2-0.2
		v-2.4c0-0.1-0.1-0.2-0.2-0.2H29z M37.2,20.1c0.1,0,0.2,0.1,0.2,0.2v5.3c0,0.1,0.1,0.2,0.2,0.2h2.4c0.1,0,0.2-0.1,0.2-0.2v-8.2
		c0-0.1-0.1-0.2-0.2-0.2h-5.3c-0.1,0-0.2,0.1-0.2,0.2v2.4c0,0.1,0.1,0.2,0.2,0.2H37.2z M2.9,23.3c0-0.1-0.1-0.2-0.2-0.2H0.2
		C0.1,23,0,23.1,0,23.3v5.3c0,0.1,0.1,0.2,0.2,0.2h5.3c0.1,0,0.2-0.1,0.2-0.2v-2.4c0-0.1-0.1-0.2-0.2-0.2H3.1
		c-0.1,0-0.2-0.1-0.2-0.2V23.3z M34.5,20.4c0-0.1-0.1-0.2-0.2-0.2H29c-0.1,0-0.2-0.1-0.2-0.2c0,0,0-1.7,0-2.6c0-1,0-2.6,0-2.6
		c0-0.1-0.1-0.2-0.2-0.2h-2.4c-0.1,0-0.2-0.1-0.2-0.2v-2.4c0-0.1,0.1-0.2,0.2-0.2h2.4c0.1,0,0.2-0.1,0.2-0.2V6
		c0-0.1-0.1-0.2-0.2-0.2h-2.4c-0.1,0-0.2-0.1-0.2-0.2V3.1c0-0.1,0.1-0.2,0.2-0.2h2.4c0.1,0,0.2-0.1,0.2-0.2V0.2
		c0-0.1-0.1-0.2-0.2-0.2h-8.2c-0.1,0-0.2,0.1-0.2,0.2v2.4c0,0.1,0.1,0.2,0.2,0.2h2.4C22.9,2.9,23,3,23,3.1v5.3
		c0,0.1-0.1,0.2-0.2,0.2h-2.4c-0.1,0-0.2-0.1-0.2-0.2V3.1c0-0.1-0.1-0.2-0.2-0.2h-2.4c-0.1,0-0.2,0.1-0.2,0.2v2.4
		c0,0.1-0.1,0.2-0.2,0.2h-2.4c-0.1,0-0.2,0.1-0.2,0.2v2.4c0,0.1,0.1,0.2,0.2,0.2H17c0.1,0,0.2,0.1,0.2,0.2v2.4
		c0,0.1,0.1,0.2,0.2,0.2h5.3c0.1,0,0.2,0.1,0.2,0.2v2.4c0,0.1-0.1,0.2-0.2,0.2h-2.4c-0.1,0-0.2,0.1-0.2,0.2V17c0,0.1,0,0.2,0,0.2
		c-1,0-2.6,0-2.6,0c-0.1,0-0.2-0.1-0.2-0.2v-5.3c0-0.1-0.1-0.2-0.2-0.2h-2.4c-0.1,0-0.2-0.1-0.2-0.2V8.9c0-0.1-0.1-0.2-0.2-0.2h-2.4
		c-0.1,0-0.2,0.1-0.2,0.2v2.4c0,0.1-0.1,0.2-0.2,0.2h-11c-0.1,0-0.2,0.1-0.2,0.2v2.4c0,0.1,0.1,0.2,0.2,0.2h2.4
		c0.1,0,0.2,0.1,0.2,0.2V17c0,0.1-0.1,0.2-0.2,0.2H0.2c-0.1,0-0.2,0.1-0.2,0.2v2.4c0,0.1,0.1,0.2,0.2,0.2h5.3c0.1,0,0.2,0.1,0.2,0.2
		v5.3c0,0.1,0.1,0.2,0.2,0.2h2.4c0.1,0,0.2-0.1,0.2-0.2v-2.4c0-0.1,0.1-0.2,0.2-0.2h2.4c0.1,0,0.2-0.1,0.2-0.2v-5.3
		c0-0.1-0.1-0.2-0.2-0.2H6c-0.1,0-0.2-0.1-0.2-0.2v-2.4c0-0.1,0.1-0.2,0.2-0.2h5.3c0.1,0,0.2,0.1,0.2,0.2V17c0,0.1,0.1,0.2,0.2,0.2
		h2.4c0.1,0,0.2,0.1,0.2,0.2v2.4c0,0.1,0.1,0.2,0.2,0.2H17c0.1,0,0.2,0.1,0.2,0.2v2.4c0,0.1,0.1,0.2,0.2,0.2h2.4
		c0.1,0,0.2-0.1,0.2-0.2v-2.4c0-0.1,0.1-0.2,0.2-0.2h2.4c0.1,0,0.2-0.1,0.2-0.2v-2.4c0-0.1,0-0.2,0-0.2l0,0c1,0,2.6,0,2.6,0
		c0.1,0,0.2,0.1,0.2,0.2v2.4c0,0.1-0.1,0.2-0.2,0.2h-2.4c-0.1,0-0.2,0.1-0.2,0.2v2.4c0,0.1,0.1,0.2,0.2,0.2h8.2
		c0.1,0,0.2,0.1,0.2,0.2v8.2c0,0.1-0.1,0.2-0.2,0.2h-8.2c-0.1,0-0.2,0.1-0.2,0.2v2.4c0,0.1-0.1,0.2-0.2,0.2h-2.4
		c-0.1,0-0.2,0.1-0.2,0.2v2.4c0,0.1,0.1,0.2,0.2,0.2h2.4c0.1,0,0.2,0.1,0.2,0.2v2.4c0,0.1,0.1,0.2,0.2,0.2h8.2
		c0.1,0,0.2-0.1,0.2-0.2v-2.4c0-0.1,0.1-0.2,0.2-0.2h2.4c0.1,0,0.2-0.1,0.2-0.2v-5.3c0-0.1,0.1-0.2,0.2-0.2h5.3
		c0.1,0,0.2-0.1,0.2-0.2V29c0-0.1-0.1-0.2-0.2-0.2h-2.4c-0.1,0-0.2-0.1-0.2-0.2v-2.4c0-0.1-0.1-0.2-0.2-0.2h-2.4
		c-0.1,0-0.2-0.1-0.2-0.2V20.4z M28.8,37.2c0,0.1-0.1,0.2-0.2,0.2h-2.4c-0.1,0-0.2-0.1-0.2-0.2v-2.4c0-0.1,0.1-0.2,0.2-0.2h2.4
		c0.1,0,0.2,0.1,0.2,0.2V37.2z M20.2,28.5c0,0.1-0.1,0.2-0.2,0.2h-2.4c-0.1,0-0.2,0.1-0.2,0.2v5.3c0,0.1,0.1,0.2,0.2,0.2h2.4
		c0.1,0,0.2-0.1,0.2-0.2v-2.4c0-0.1,0.1-0.2,0.2-0.2h2.4c0.1,0,0.2-0.1,0.2-0.2v-8.2c0-0.1-0.1-0.2-0.2-0.2h-2.4
		c-0.1,0-0.2,0.1-0.2,0.2V28.5z M28.8,26.1c0-0.1-0.1-0.2-0.2-0.2h-2.4c-0.1,0-0.2,0.1-0.2,0.2v2.4c0,0.1,0.1,0.2,0.2,0.2h2.4
		c0.1,0,0.2-0.1,0.2-0.2V26.1z M0.2,31.7c-0.1,0-0.2,0.1-0.2,0.2v8.2c0,0.1,0.1,0.2,0.2,0.2h8.2c0.1,0,0.2-0.1,0.2-0.2v-8.2
		c0-0.1-0.1-0.2-0.2-0.2H0.2z M5.8,37.2c0,0.1-0.1,0.2-0.2,0.2H3.1c-0.1,0-0.2-0.1-0.2-0.2v-2.4c0-0.1,0.1-0.2,0.2-0.2h2.4
		c0.1,0,0.2,0.1,0.2,0.2V37.2z M17.3,34.8c0-0.1-0.1-0.2-0.2-0.2h-2.4c-0.1,0-0.2-0.1-0.2-0.2V29c0-0.1,0.1-0.2,0.2-0.2H17
		c0.1,0,0.2-0.1,0.2-0.2v-5.3c0-0.1-0.1-0.2-0.2-0.2h-5.3c-0.1,0-0.2,0.1-0.2,0.2v2.4c0,0.1-0.1,0.2-0.2,0.2H8.9
		c-0.1,0-0.2,0.1-0.2,0.2v2.4c0,0.1,0.1,0.2,0.2,0.2h2.4c0.1,0,0.2,0.1,0.2,0.2v8.2c0,0.1,0.1,0.2,0.2,0.2h2.4
		c0.1,0,0.2,0.1,0.2,0.2v2.4c0,0.1,0.1,0.2,0.2,0.2h5.3c0.1,0,0.2-0.1,0.2-0.2v-2.4c0-0.1-0.1-0.2-0.2-0.2h-2.4
		c-0.1,0-0.2-0.1-0.2-0.2V34.8z M40.1,40.3c0.1,0,0.2-0.1,0.2-0.2v-5.3c0-0.1-0.1-0.2-0.2-0.2h-2.4c-0.1,0-0.2,0.1-0.2,0.2v2.4
		c0,0.1-0.1,0.2-0.2,0.2h-2.4c-0.1,0-0.2,0.1-0.2,0.2v2.4c0,0.1,0.1,0.2,0.2,0.2H40.1z"/>
</g>
<g>
</g>
<g>
</g>
<g>
</g>
<g>
</g>
<g>
</g>
<g>
</g>
<g>
</g>
<g>
</g>
<g>
</g>
<g>
</g>
<g>
</g>
<g>
</g>
<g>
</g>
<g>
</g>
<g>
</g>
</svg>
