<?xml version="1.0" encoding="utf-8"?>
<!-- Generator: Adobe Illustrator 18.1.1, SVG Export Plug-In . SVG Version: 6.00 Build 0)  -->
<svg version="1.1" id="Layer_1" xmlns="http://www.w3.org/2000/svg" xmlns:xlink="http://www.w3.org/1999/xlink" x="0px" y="0px"
	 viewBox="0 0 42 34.5" enable-background="new 0 0 42 34.5" xml:space="preserve">
<g>
	<path d="M42,8.3c0-0.1,0-0.2-0.1-0.2c0-0.1,0-0.1-0.1-0.1c0,0,0,0,0,0C41.6,7.7,29,0.1,29,0.1c-0.1-0.1-0.3-0.1-0.5,0
		c-0.1,0.1-0.2,0.2-0.2,0.4V4h-13C6.8,4,0,10.8,0,19.3c0,8.4,6.8,15.2,15.2,15.2l21.8,0l0.1,0c0.2,0,0.4-0.2,0.4-0.4v-7.6
		c0-0.1,0-0.2-0.1-0.3C37.2,26.1,37.1,26,37,26c-1.4,0-21.4,0-21.8,0c-3.7,0-6.7-3-6.7-6.8c0-3.7,3-6.8,6.8-6.8h13v3.6
		c0,0.1,0,0.2,0.1,0.3c0.1,0.1,0.2,0.1,0.3,0.1l0,0c0,0,0,0,0,0c0.1,0,0.2,0,0.2-0.1c0.8-0.4,12.8-7.8,12.9-7.8
		C42,8.6,42,8.5,42,8.3C42,8.3,42,8.3,42,8.3C42,8.3,42,8.3,42,8.3z M15.2,26.5L15.2,26.5L15.2,26.5L15.2,26.5z"/>
</g>
<g>
</g>
<g>
</g>
<g>
</g>
<g>
</g>
<g>
</g>
<g>
</g>
<g>
</g>
<g>
</g>
<g>
</g>
<g>
</g>
<g>
</g>
<g>
</g>
<g>
</g>
<g>
</g>
<g>
</g>
</svg>
