<?xml version="1.0" encoding="utf-8"?>
<!-- Generator: Adobe Illustrator 18.1.1, SVG Export Plug-In . SVG Version: 6.00 Build 0)  -->
<svg version="1.1" id="Layer_1" xmlns="http://www.w3.org/2000/svg" xmlns:xlink="http://www.w3.org/1999/xlink" x="0px" y="0px"
	 viewBox="0 0 33.3 41.3" enable-background="new 0 0 33.3 41.3" xml:space="preserve">
<path d="M18.6,0.2c-0.4-0.2-0.8-0.2-1.2,0c-0.4,0.2-0.6,0.6-0.6,1v5.6c0,0,0,0,0,0C7.5,7,0,14.6,0,24c0,9.6,7.8,17.3,17.3,17.3
	c7,0,13-4.1,15.7-10.1c0.2-0.5,0.1-1.1-0.4-1.4l-4.2-3c-0.3-0.2-0.7-0.3-1-0.2c-0.3,0.1-0.6,0.4-0.7,0.7c-1.4,3.9-5.1,6.6-9.4,6.6
	c-5.5,0-10-4.5-10-10c0-5.4,4.2-9.7,9.6-10v5.5c0,0.4,0.2,0.8,0.6,1c0.2,0.1,0.4,0.1,0.6,0.1c0.2,0,0.4-0.1,0.6-0.2l14.2-9.2
	c0.3-0.2,0.5-0.6,0.5-1c0-0.4-0.2-0.8-0.5-1L18.6,0.2z"/>
<g>
</g>
<g>
</g>
<g>
</g>
<g>
</g>
<g>
</g>
<g>
</g>
<g>
</g>
<g>
</g>
<g>
</g>
<g>
</g>
<g>
</g>
<g>
</g>
<g>
</g>
<g>
</g>
<g>
</g>
</svg>
