<?xml version="1.0" encoding="utf-8"?>
<!-- Generator: Adobe Illustrator 18.1.1, SVG Export Plug-In . SVG Version: 6.00 Build 0)  -->
<svg version="1.1" id="Layer_1" xmlns="http://www.w3.org/2000/svg" xmlns:xlink="http://www.w3.org/1999/xlink" x="0px" y="0px"
	 viewBox="0 0 33.6 34.5" enable-background="new 0 0 33.6 34.5" xml:space="preserve">
<g>
	<path d="M21.8,12.2l11.8,0l0-11.8l-4,0v4.9c-0.1-0.1-0.1-0.1-0.2-0.2C26.1,1.7,21.7,0,17.3,0C12.9,0,8.4,1.7,5.1,5.1
		C1.7,8.4,0,12.8,0,17.3c0,4.4,1.7,8.8,5.1,12.2c3.4,3.4,7.8,5.1,12.2,5.1c0,0,0,0,0,0c4.4,0,8.8-1.7,12.2-5l-2.8-2.8
		c-2.6,2.6-6,3.9-9.4,3.9c-3.4,0-6.8-1.3-9.4-3.9C5.3,24,4,20.6,4,17.3c0-3.4,1.3-6.8,3.9-9.4c2.6-2.6,6-3.9,9.4-3.9
		c3.4,0,6.8,1.3,9.3,3.9c0.1,0.1,0.2,0.2,0.2,0.3h-5.1L21.8,12.2z"/>
</g>
<g>
</g>
<g>
</g>
<g>
</g>
<g>
</g>
<g>
</g>
<g>
</g>
<g>
</g>
<g>
</g>
<g>
</g>
<g>
</g>
<g>
</g>
<g>
</g>
<g>
</g>
<g>
</g>
<g>
</g>
</svg>
