<?xml version="1.0" encoding="utf-8"?>
<!-- Generator: Adobe Illustrator 18.1.1, SVG Export Plug-In . SVG Version: 6.00 Build 0)  -->
<svg version="1.1" id="Layer_1" xmlns="http://www.w3.org/2000/svg" xmlns:xlink="http://www.w3.org/1999/xlink" x="0px" y="0px"
	 viewBox="0 0 37.3 42.7" enable-background="new 0 0 37.3 42.7" xml:space="preserve">
<g>
	<path d="M17.8,6V0.4c0-0.1,0.1-0.3,0.2-0.3C18.1,0,18.2,0,18.4,0L34,9c0.1,0.1,0.2,0.2,0.2,0.4c0,0.2-0.1,0.3-0.2,0.4l-15.6,8.9
		c-0.1,0.1-0.3,0.1-0.4,0c-0.1-0.1-0.2-0.2-0.2-0.3v-5.5c-6.1,0.5-10.9,5.5-10.9,11.5v0c0,0,0,0,0,0c0,6.4,5.3,11.5,11.8,11.6
		c6.5,0,11.8-5.2,11.8-11.6v-0.4c0-0.1,0-0.2,0.1-0.3c0.1-0.1,0.2-0.1,0.3-0.1h6.1c0.1,0,0.2,0,0.3,0.1c0.1,0.1,0.1,0.2,0.1,0.3v0.4
		c0,10.1-8.4,18.4-18.7,18.4C8.4,42.7,0,34.4,0,24.3C0,14.5,7.9,6.5,17.8,6z"/>
</g>
<g>
</g>
<g>
</g>
<g>
</g>
<g>
</g>
<g>
</g>
<g>
</g>
<g>
</g>
<g>
</g>
<g>
</g>
<g>
</g>
<g>
</g>
<g>
</g>
<g>
</g>
<g>
</g>
<g>
</g>
</svg>
