<?xml version="1.0" encoding="utf-8"?>
<!-- Generator: Adobe Illustrator 18.1.1, SVG Export Plug-In . SVG Version: 6.00 Build 0)  -->
<svg version="1.1" id="Layer_1" xmlns="http://www.w3.org/2000/svg" xmlns:xlink="http://www.w3.org/1999/xlink" x="0px" y="0px"
	 viewBox="0 0 609.9 520.9" enable-background="new 0 0 609.9 520.9" xml:space="preserve">
<path d="M423.2,143.2c-47.7,0-264.8,0-347.2,0L193.1,26L162.8,0L0,162.8l162.8,162.8l28.2-28.2l-117.2-115c82.5,0,301.7,0,347.2,0
	c82.5,0,149.7,67.3,149.7,149.7S503.5,481.8,421,481.8c-58.6,0-358.1,0-358.1,0v39.1c0,0,76,0,156.3,0c82.5,0,171.4,0,201.8,0
	c104.2,0,188.8-84.6,188.8-188.8C612,227.9,527.4,143.2,423.2,143.2z"/>
<g>
</g>
<g>
</g>
<g>
</g>
<g>
</g>
<g>
</g>
<g>
</g>
<g>
</g>
<g>
</g>
<g>
</g>
<g>
</g>
<g>
</g>
<g>
</g>
<g>
</g>
<g>
</g>
<g>
</g>
</svg>
