<?xml version="1.0" encoding="utf-8"?>
<!-- Generator: Adobe Illustrator 18.1.1, SVG Export Plug-In . SVG Version: 6.00 Build 0)  -->
<svg version="1.1" id="Layer_1" xmlns="http://www.w3.org/2000/svg" xmlns:xlink="http://www.w3.org/1999/xlink" x="0px" y="0px"
	 viewBox="0 0 40.3 40.3" enable-background="new 0 0 40.3 40.3" xml:space="preserve">
<g>
	<path d="M26.3,5.2c0.5,0.2,1,0.4,1.4,0.7c0.8,0.4,1.5,0.9,2.3,1.4l0-4.8c-0.7-0.4-1.4-0.7-2.1-1C20.7-1.4,12.1-0.1,6.2,5.6
		c-6.8,6.5-8,16.6-3.6,24.4c0,0,0,0.1,0.1,0.1l-2.4,1.5l8.3,3.9l-0.1-9.2L6,27.9c-0.2-0.3-0.3-0.5-0.4-0.8C2.7,21,3.8,13.4,9,8.5
		C13.7,3.9,20.5,2.9,26.3,5.2z"/>
	<path d="M37.8,10.3c0,0,0-0.1-0.1-0.1l2.4-1.5l-8.3-3.9l0.1,9.2l2.5-1.6c0.2,0.3,0.3,0.5,0.4,0.8c2.9,6.1,1.8,13.6-3.4,18.6
		c-4.8,4.6-11.7,5.6-17.4,3.2c-0.4-0.2-0.9-0.4-1.3-0.6c-0.8-0.4-1.5-0.9-2.3-1.4l0,4.8c0.7,0.4,1.3,0.7,2,1
		c7.2,3,15.8,1.7,21.7-4.1C40.9,28.2,42.1,18.1,37.8,10.3z"/>
	<path d="M15.1,19.7c0.6-0.6,1-1.3,1-2.2c0-0.7-0.2-1.2-0.6-1.6c-0.4-0.4-1-0.7-1.7-0.8v0c1.3-0.4,2-1.2,2-2.5
		c0-0.7-0.3-1.3-0.8-1.7c-0.5-0.4-1.2-0.7-2-0.7c-0.9,0-1.6,0.2-2.3,0.6v1.1c0.6-0.5,1.3-0.7,2-0.7c1.3,0,1.9,0.6,1.9,1.7
		c0,1.2-0.8,1.8-2.5,1.8h-0.8v1h0.8c1.9,0,2.8,0.7,2.8,2c0,0.6-0.2,1.1-0.6,1.4c-0.4,0.3-1,0.5-1.7,0.5c-0.9,0-1.6-0.3-2.3-0.8V20
		c0.6,0.4,1.3,0.5,2.3,0.5C13.6,20.5,14.4,20.3,15.1,19.7z"/>
	<path d="M22.8,17.2c0-0.9-0.3-1.7-0.8-2.2c-0.5-0.6-1.2-0.8-2.1-0.8c-1.1,0-1.8,0.5-2.3,1.4h0c0-1.3,0.3-2.4,0.8-3.2
		c0.5-0.8,1.2-1.2,2.1-1.2c0.6,0,1.1,0.1,1.6,0.4v-1.1c-0.4-0.2-1-0.3-1.7-0.3c-1.2,0-2.2,0.5-3,1.6c-0.7,1-1.1,2.4-1.1,4.2
		c0,1.4,0.3,2.6,0.9,3.4c0.6,0.8,1.4,1.2,2.4,1.2c0.9,0,1.7-0.3,2.3-0.9C22.5,19,22.8,18.2,22.8,17.2z M21.1,19
		c-0.4,0.4-0.8,0.6-1.4,0.6c-0.6,0-1.1-0.2-1.5-0.7c-0.4-0.5-0.5-1.1-0.5-1.7c0-0.5,0.2-1,0.6-1.4c0.4-0.4,0.8-0.6,1.4-0.6
		c0.6,0,1.1,0.2,1.4,0.6c0.3,0.4,0.5,1,0.5,1.7C21.6,18,21.4,18.5,21.1,19z"/>
	<path d="M28.8,19.2c0.6-0.9,0.9-2.2,0.9-3.9c0-3.4-1-5.1-3.1-5.1c-1.1,0-1.9,0.5-2.5,1.4c-0.6,0.9-0.9,2.2-0.9,4
		c0,1.6,0.3,2.8,0.8,3.7c0.6,0.8,1.3,1.3,2.3,1.3C27.4,20.5,28.2,20.1,28.8,19.2z M26.5,19.6c-1.4,0-2.1-1.4-2.1-4.1
		c0-2.9,0.7-4.3,2.1-4.3c1.4,0,2,1.4,2,4.3C28.5,18.2,27.8,19.6,26.5,19.6z"/>
	<path d="M16.3,29.9c-0.1,0.3-0.2,0.6-0.2,0.9h0c0-0.3-0.1-0.6-0.2-0.9L13.1,22h-1.3l3.6,10h1.3l3.7-10h-1.3L16.3,29.9z"/>
	<path d="M21.9,27.7h1c0.2,0,0.4,0,0.6,0.1c0.2,0.1,0.3,0.1,0.5,0.3c0.2,0.1,0.3,0.3,0.4,0.5c0.1,0.2,0.3,0.4,0.4,0.7l1.7,2.8h1.4
		l-1.9-3c-0.1-0.2-0.3-0.4-0.4-0.6c-0.1-0.2-0.2-0.3-0.3-0.4c-0.1-0.1-0.2-0.2-0.4-0.3c-0.1-0.1-0.3-0.2-0.4-0.3v0
		c0.3-0.1,0.6-0.2,0.9-0.4c0.3-0.2,0.5-0.4,0.7-0.6c0.2-0.2,0.3-0.5,0.4-0.8c0.1-0.3,0.2-0.6,0.2-1c0-0.4-0.1-0.8-0.2-1.2
		c-0.2-0.3-0.4-0.6-0.6-0.8c-0.3-0.2-0.6-0.4-1-0.5C24.6,22,24.2,22,23.7,22h-3v10h1.2V27.7z M21.9,23h1.6c0.7,0,1.2,0.2,1.5,0.5
		c0.3,0.3,0.5,0.7,0.5,1.2c0,0.3,0,0.6-0.2,0.8c-0.1,0.2-0.2,0.4-0.4,0.6c-0.2,0.2-0.4,0.3-0.6,0.4c-0.2,0.1-0.5,0.1-0.8,0.1h-1.6
		V23z"/>
</g>
<g>
</g>
<g>
</g>
<g>
</g>
<g>
</g>
<g>
</g>
<g>
</g>
<g>
</g>
<g>
</g>
<g>
</g>
<g>
</g>
<g>
</g>
<g>
</g>
<g>
</g>
<g>
</g>
<g>
</g>
</svg>
