<?xml version="1.0" encoding="utf-8"?>
<!-- Generator: Adobe Illustrator 18.1.1, SVG Export Plug-In . SVG Version: 6.00 Build 0)  -->
<svg version="1.1" id="Layer_1" xmlns="http://www.w3.org/2000/svg" xmlns:xlink="http://www.w3.org/1999/xlink" x="0px" y="0px"
	 viewBox="0 0 43.5 41.6" enable-background="new 0 0 43.5 41.6" xml:space="preserve">
<g>
	<g>
		<path d="M32.4,21.6c-0.1,0.7-0.3,1.5-0.7,2.1c4.3,1.2,7.2,3.2,7.2,5.5c0,2.4-3.3,4.5-8.2,5.7c-0.8,0.2-1.5,0.3-2.4,0.5
			c-1.5,0.2-3.1,0.4-4.7,0.5l3.7,2l-5,1.9c2.6,0,5-0.2,7.3-0.6c0.9-0.2,1.7-0.3,2.5-0.5c6.8-1.6,11.4-4.8,11.4-8.5
			C43.5,26.5,39,23.3,32.4,21.6z"/>
		<path d="M24.4,37.7l-6.6-3.6l-0.7,1.6c-0.1,0-0.1,0-0.2,0c-7.1-0.8-12.3-3.4-12.3-6.4c0-2.4,3.1-4.4,7.8-5.6l-0.8-2.1
			C4.7,23.1,0,26.4,0,30.1c0,4.4,6.5,8,15.4,9.3l-1,2.2L24.4,37.7z"/>
	</g>
	<g>
		<path d="M14.8,14.1c0.4-0.4,0.8-0.8,1-1.3c0.2-0.5,0.4-1.1,0.4-1.7c0-0.6-0.2-1.2-0.6-1.8c-0.4-0.5-1-1-1.8-1.3
			c0.3-0.1,0.6-0.3,0.9-0.5c0.3-0.2,0.5-0.5,0.7-0.8c0.2-0.3,0.4-0.6,0.5-0.9c0.1-0.3,0.2-0.6,0.2-1c0-0.6-0.1-1.1-0.4-1.5
			c-0.2-0.4-0.6-0.8-1-1.1C14.4,2,14,1.8,13.5,1.7c-0.5-0.1-1-0.2-1.6-0.2c-0.5,0-1,0.1-1.5,0.2c-0.5,0.1-1,0.3-1.5,0.4
			c-0.1,0-0.2,0.1-0.2,0.2c0,0.1,0,0.1,0,0.2l0.2,1.3c0,0.1,0.1,0.2,0.1,0.2c0.1,0,0.2,0,0.3,0c0.2-0.1,0.4-0.1,0.6-0.2
			c0.2-0.1,0.5-0.1,0.7-0.2c0.2-0.1,0.5-0.1,0.7-0.1c0.2,0,0.4-0.1,0.6-0.1c0.2,0,0.5,0,0.8,0.1c0.3,0.1,0.5,0.2,0.8,0.3
			C13.6,3.9,13.8,4,14,4.3c0.2,0.2,0.2,0.5,0.2,0.8c0,0.4-0.1,0.7-0.4,1c-0.2,0.3-0.5,0.5-0.9,0.7c-0.3,0.2-0.7,0.3-1.1,0.4
			c-0.4,0.1-0.7,0.1-0.9,0.1h-0.8c-0.1,0-0.2,0-0.2,0c0,0,0,0.1,0,0.2v1.3c0,0.1,0,0.2,0,0.2c0,0,0.1,0,0.2,0H11
			c0.6,0,1,0.1,1.5,0.2c0.4,0.1,0.7,0.3,1,0.5c0.3,0.2,0.4,0.4,0.6,0.7c0.1,0.3,0.2,0.5,0.2,0.8c0,0.8-0.3,1.4-0.8,1.8
			c-0.2,0.1-0.4,0.2-0.6,0.3c-0.2,0.1-0.5,0.1-0.7,0.2c-0.3,0-0.5,0-0.8,0c-0.3,0-0.5,0-0.8-0.1c-0.3,0-0.6-0.1-0.9-0.2
			c-0.3-0.1-0.6-0.2-0.9-0.3c-0.2-0.1-0.3-0.1-0.3,0c-0.1,0-0.1,0.1-0.1,0.2L8,14.3c0,0.1,0,0.2,0.1,0.2c0,0.1,0.1,0.1,0.2,0.1
			C8.8,14.8,9.2,15,9.7,15c0.5,0.1,1,0.1,1.5,0.1c0.7,0,1.3-0.1,2-0.3C13.9,14.8,14.4,14.5,14.8,14.1z"/>
		<path d="M21.5,15.2c0.7,0,1.3-0.1,1.8-0.4c0.5-0.2,1-0.6,1.4-1c0.4-0.4,0.7-0.9,0.9-1.5c0.2-0.6,0.3-1.2,0.3-1.8
			c0-0.7-0.1-1.3-0.3-1.8c-0.2-0.5-0.5-1-0.9-1.4c-0.4-0.4-0.8-0.7-1.3-0.9c-0.5-0.2-1.1-0.3-1.7-0.3c-0.2,0-0.5,0-0.7,0.1
			c-0.2,0.1-0.5,0.1-0.7,0.2c-0.2,0.1-0.4,0.2-0.6,0.4c-0.2,0.1-0.3,0.3-0.4,0.4c0.1-0.6,0.2-1.1,0.4-1.6c0.2-0.5,0.4-0.9,0.7-1.3
			c0.3-0.4,0.7-0.6,1.1-0.9c0.4-0.2,0.9-0.3,1.6-0.3c0.4,0,0.8,0,1.1,0.1c0.3,0,0.7,0.1,1,0.2c0.2,0.1,0.3,0,0.3-0.1l0.1-1.4
			c0-0.1,0-0.2-0.1-0.2c-0.3-0.1-0.6-0.2-1-0.2c-0.4-0.1-0.8-0.1-1.1-0.1c-1.1,0-2,0.2-2.8,0.6c-0.8,0.4-1.4,0.9-1.8,1.6
			c-0.5,0.7-0.8,1.4-1,2.3c-0.2,0.9-0.3,1.8-0.3,2.8c0,2.2,0.4,3.8,1.1,4.8C19.1,14.7,20.1,15.2,21.5,15.2z M19.9,8.8
			c0.4-0.5,1-0.7,1.8-0.7c0.7,0,1.3,0.2,1.7,0.7c0.4,0.5,0.6,1.1,0.6,1.9c0,0.8-0.2,1.5-0.7,2c-0.4,0.5-1,0.7-1.7,0.7
			c-0.3,0-0.6-0.1-0.9-0.2c-0.3-0.2-0.5-0.4-0.7-0.6c-0.2-0.3-0.4-0.6-0.5-0.9c-0.1-0.4-0.2-0.7-0.2-1.1C19.2,9.8,19.5,9.2,19.9,8.8
			z"/>
		<path d="M35.1,5.3c-0.1-0.5-0.3-1-0.5-1.4c-0.2-0.5-0.5-0.8-0.8-1.2c-0.3-0.3-0.7-0.6-1.2-0.8c-0.5-0.2-1-0.3-1.6-0.3
			c-0.9,0-1.7,0.2-2.3,0.7c-0.6,0.4-1,1-1.3,1.7c-0.3,0.7-0.5,1.4-0.7,2.2c-0.1,0.8-0.2,1.6-0.2,2.3c0,2.1,0.4,3.8,1.1,5
			c0.7,1.2,1.8,1.8,3.3,1.8c0.8,0,1.4-0.2,1.9-0.5c0.5-0.3,1-0.7,1.4-1.3c0.4-0.6,0.6-1.3,0.8-2.1c0.2-0.8,0.3-1.8,0.3-2.9
			c0-0.5,0-1-0.1-1.5C35.3,6.3,35.3,5.8,35.1,5.3z M33.3,10.6c-0.1,0.6-0.3,1.1-0.5,1.5c-0.2,0.4-0.5,0.7-0.8,0.8
			c-0.3,0.2-0.6,0.3-1,0.3c-0.4,0-0.7-0.1-1-0.3c-0.3-0.2-0.5-0.4-0.8-0.8c-0.2-0.4-0.4-0.9-0.5-1.5c-0.1-0.6-0.2-1.4-0.2-2.3
			c0-0.9,0.1-1.6,0.2-2.3c0.1-0.6,0.3-1.1,0.5-1.5c0.2-0.4,0.5-0.7,0.8-0.8c0.3-0.2,0.6-0.3,1-0.3c0.4,0,0.7,0.1,1,0.3
			c0.3,0.2,0.6,0.4,0.8,0.8c0.2,0.4,0.4,0.9,0.5,1.5c0.1,0.6,0.2,1.4,0.2,2.3C33.5,9.2,33.4,10,33.3,10.6z"/>
		<path d="M22.7,17.3h-1.4c-0.1,0-0.2,0-0.2,0c0,0-0.1,0.1-0.1,0.1l-3.6,9.7l-3.5-9.7c0-0.1,0-0.1-0.1-0.1c0,0-0.1,0-0.2,0h-1.4
			c-0.2,0-0.2,0-0.3,0.1c0,0,0,0.1,0,0.2l4.5,12.1c0,0.1,0.1,0.1,0.1,0.2c0,0,0.1,0,0.2,0h1.4c0.1,0,0.1,0,0.2,0
			c0,0,0.1-0.1,0.1-0.2l4.5-12.1c0-0.1,0-0.1,0-0.2C22.9,17.3,22.8,17.3,22.7,17.3z"/>
		<path d="M28.8,24.3c0.6-0.3,1.1-0.7,1.5-1.3c0.4-0.6,0.5-1.2,0.5-2c0-1.3-0.4-2.2-1.1-2.8c-0.7-0.6-1.7-0.9-2.9-0.9h-3.4
			c-0.1,0-0.1,0-0.1,0.1c0,0-0.1,0.1-0.1,0.1v12.1c0,0.1,0.1,0.2,0.2,0.2h1.5c0.1,0,0.2-0.1,0.2-0.2v-4.9H27l2.5,4.9
			c0.1,0.1,0.1,0.1,0.2,0.1c0,0,0.1,0,0.3,0h1.4c0.2,0,0.3-0.1,0.2-0.2L28.8,24.3z M28.2,22.5c-0.4,0.3-1,0.5-1.7,0.5h-1.4v-4H27
			c0.6,0,1,0.2,1.4,0.5c0.3,0.3,0.5,0.8,0.5,1.4C28.9,21.7,28.7,22.2,28.2,22.5z"/>
		<path d="M37.9,0c-1.2,0-2.2,1-2.2,2.2c0,1.2,1,2.2,2.2,2.2c1.2,0,2.2-1,2.2-2.2C40.1,1,39.1,0,37.9,0z M37.9,3.1c-0.5,0-1-0.4-1-1
			c0-0.5,0.4-1,1-1c0.5,0,1,0.4,1,1C38.9,2.7,38.4,3.1,37.9,3.1z"/>
	</g>
</g>
<g>
</g>
<g>
</g>
<g>
</g>
<g>
</g>
<g>
</g>
<g>
</g>
<g>
</g>
<g>
</g>
<g>
</g>
<g>
</g>
<g>
</g>
<g>
</g>
<g>
</g>
<g>
</g>
<g>
</g>
</svg>
