<?xml version="1.0" encoding="utf-8"?>
<!-- Generator: Adobe Illustrator 18.1.1, SVG Export Plug-In . SVG Version: 6.00 Build 0)  -->
<svg version="1.1" id="Layer_1" xmlns="http://www.w3.org/2000/svg" xmlns:xlink="http://www.w3.org/1999/xlink" x="0px" y="0px"
	 viewBox="0 0 583.1 792" enable-background="new 0 0 583.1 792" xml:space="preserve">
<path d="M507.8,160.3V43.7h75.3V0H0v43.7h75.3v116.6c0,43.7,24.3,97.2,55.9,126.3L257.5,396L131.2,505.3
	c-31.6,29.2-53.4,80.2-55.9,126.3v116.6H0V792h583.1v-43.7h-75.3V631.7c0-46.2-24.3-97.2-55.9-126.3L325.5,396l126.3-109.3
	C483.5,255.1,505.3,204.1,507.8,160.3z M420.3,539.3c21.9,17,43.7,65.6,41.3,92.3v116.6H119V631.7c0-29.2,21.9-75.3,41.3-92.3
	l128.8-114.2L420.3,539.3z M420.3,252.7L291.5,366.8L162.8,252.7c-21.9-17-43.7-65.6-43.7-92.3V43.7h345v116.6
	C464,187.1,442.2,235.7,420.3,252.7z"/>
<g>
</g>
<g>
</g>
<g>
</g>
<g>
</g>
<g>
</g>
<g>
</g>
<g>
</g>
<g>
</g>
<g>
</g>
<g>
</g>
<g>
</g>
<g>
</g>
<g>
</g>
<g>
</g>
<g>
</g>
</svg>
