<?xml version="1.0" encoding="utf-8"?>
<!-- Generator: Adobe Illustrator 18.1.1, SVG Export Plug-In . SVG Version: 6.00 Build 0)  -->
<svg version="1.1" id="Layer_1" xmlns="http://www.w3.org/2000/svg" xmlns:xlink="http://www.w3.org/1999/xlink" x="0px" y="0px"
	 viewBox="0 0 44.5 38.2" enable-background="new 0 0 44.5 38.2" xml:space="preserve">
<path d="M0.9,3.8h35.5c0.5,0,1-0.4,1-1V1c0-0.5-0.4-1-1-1H0.9C0.4,0,0,0.4,0,1v1.9C0,3.4,0.4,3.8,0.9,3.8z M0.9,14h35.5
	c0.5,0,1-0.4,1-0.9v-1.9c0-0.5-0.4-0.9-1-0.9H0.9c-0.5,0-0.9,0.4-0.9,0.9v1.9C0,13.6,0.4,14,0.9,14z M0,21.4v1.9
	c0,0.5,0.4,0.9,0.9,0.9h20.2c0.4-1.4,1-2.7,1.8-3.8h-22C0.4,20.4,0,20.8,0,21.4z M0.9,30.6C0.4,30.6,0,31,0,31.6v1.9
	c0,0.5,0.4,1,0.9,1h21.3c-0.6-1.2-1.1-2.5-1.3-3.8H0.9z M34.4,17.9c-5.6,0-10.1,4.5-10.1,10.1c0,5.6,4.5,10.1,10.1,10.1
	c5.6,0,10.1-4.5,10.1-10.1C44.5,22.4,40,17.9,34.4,17.9z M41,30.5h-6.6c-0.4,0-0.8-0.2-1.1-0.5c-0.3-0.3-0.5-0.7-0.5-1.1v-7.3H36
	v5.7l5,0V30.5z"/>
<g>
</g>
<g>
</g>
<g>
</g>
<g>
</g>
<g>
</g>
<g>
</g>
<g>
</g>
<g>
</g>
<g>
</g>
<g>
</g>
<g>
</g>
<g>
</g>
<g>
</g>
<g>
</g>
<g>
</g>
</svg>
