<?xml version="1.0" encoding="utf-8"?>
<!-- Generator: Adobe Illustrator 18.1.1, SVG Export Plug-In . SVG Version: 6.00 Build 0)  -->
<svg version="1.1" id="Layer_1" xmlns="http://www.w3.org/2000/svg" xmlns:xlink="http://www.w3.org/1999/xlink" x="0px" y="0px"
	 viewBox="0 0 40.1 38.8" enable-background="new 0 0 40.1 38.8" xml:space="preserve">
<g>
	<path d="M2.1,9.8h30.8c1.1,0,1.9-0.9,1.9-1.9v-6C34.9,0.9,34,0,32.9,0H2.1C1.1,0,0.2,0.9,0.2,1.9v6C0.2,9,1.1,9.8,2.1,9.8z
		 M26.7,12c-1.5,0-2.9,0.2-4.2,0.7H7.4c-1.1,0-1.9,0.9-1.9,1.9v6.1c0,1.1,0.9,1.9,1.9,1.9h6.2c-0.2,0.9-0.3,1.8-0.3,2.7
		c0,0,0,0.1,0,0.1H1.9c-1.1,0-1.9,0.9-1.9,1.9v6c0,1.1,0.9,1.9,1.9,1.9h15.9c2.4,2.1,5.5,3.4,8.9,3.4c7.4,0,13.4-6,13.4-13.4
		C40.1,18,34.1,12,26.7,12z M26.7,34.9c-5.2,0-9.5-4.3-9.5-9.5c0-5.2,4.3-9.5,9.5-9.5c5.2,0,9.5,4.3,9.5,9.5
		C36.2,30.7,32,34.9,26.7,34.9z M32.1,24.4h-3.8v-4.7c0-0.8-0.7-1.5-1.5-1.5c-0.8,0-1.5,0.7-1.5,1.5h0v6.2c0,0.4,0.2,0.8,0.4,1
		c0.3,0.3,0.6,0.4,1,0.4h5.2c0.8,0,1.5-0.7,1.5-1.5C33.6,25.1,32.9,24.4,32.1,24.4z"/>
</g>
<g>
</g>
<g>
</g>
<g>
</g>
<g>
</g>
<g>
</g>
<g>
</g>
<g>
</g>
<g>
</g>
<g>
</g>
<g>
</g>
<g>
</g>
<g>
</g>
<g>
</g>
<g>
</g>
<g>
</g>
</svg>
