<?xml version="1.0" encoding="utf-8"?>
<!-- Generator: Adobe Illustrator 18.1.1, SVG Export Plug-In . SVG Version: 6.00 Build 0)  -->
<svg version="1.1" id="Layer_1" xmlns="http://www.w3.org/2000/svg" xmlns:xlink="http://www.w3.org/1999/xlink" x="0px" y="0px"
	 viewBox="0 0 47.8 47.8" enable-background="new 0 0 47.8 47.8" xml:space="preserve">
<g>
	<path d="M0,23.9C0,10.7,10.7,0,23.9,0l0,0c13.2,0,23.9,10.7,23.9,23.9l0,0c0,13.2-10.7,23.9-23.9,23.9l0,0C10.7,47.8,0,37.1,0,23.9
		L0,23.9z M5.5,23.9c0,10.2,8.3,18.4,18.4,18.4l0,0c10.2,0,18.4-8.3,18.4-18.4l0,0c0-10.2-8.3-18.4-18.4-18.4l0,0
		C13.7,5.5,5.5,13.7,5.5,23.9L5.5,23.9z"/>
	<polygon points="21.9,24.7 21.9,9.2 26,9.2 26,23.1 33.9,31 33.9,31 31,33.9 21.9,24.7 	"/>
</g>
<g>
</g>
<g>
</g>
<g>
</g>
<g>
</g>
<g>
</g>
<g>
</g>
<g>
</g>
<g>
</g>
<g>
</g>
<g>
</g>
<g>
</g>
<g>
</g>
<g>
</g>
<g>
</g>
<g>
</g>
</svg>
