<?xml version="1.0" encoding="utf-8"?>
<!-- Generator: Adobe Illustrator 18.1.1, SVG Export Plug-In . SVG Version: 6.00 Build 0)  -->
<svg version="1.1" id="Layer_1" xmlns="http://www.w3.org/2000/svg" xmlns:xlink="http://www.w3.org/1999/xlink" x="0px" y="0px"
	 viewBox="0 0 612 455.1" enable-background="new 0 0 612 455.1" xml:space="preserve">
<g>
	<path d="M58.6,12.1C19,51.7,0,101.7,0,151.7s19,101.7,58.6,139.6l31-29.3c-31-31-46.5-69-46.5-108.6S58.6,74.1,89.6,44.8L58.6,12.1
		z"/>
	<path d="M553.4,165.5l-31,29.3l0,0c31,31,46.5,69,46.5,108.6s-15.5,79.3-46.5,108.6l31,29.3C593,403.4,612,351.7,612,301.7
		C612,253.4,593,203.4,553.4,165.5z"/>
	<path d="M331,13.8C322.4,0,305.1-3.4,291.3,3.4l-175.8,100c-13.8,8.6-19,25.9-10.3,37.9l175.8,300c8.6,13.8,25.9,17.2,39.7,10.3
		l175.8-100c13.8-6.9,19-25.9,10.3-37.9L331,13.8z M312,408.6L150,132.7l151.7-86.2l162.1,275.8L312,408.6z"/>
	<polygon points="400,327.5 379.3,289.6 324.1,320.7 346.5,356.9 	"/>
</g>
<g>
</g>
<g>
</g>
<g>
</g>
<g>
</g>
<g>
</g>
<g>
</g>
<g>
</g>
<g>
</g>
<g>
</g>
<g>
</g>
<g>
</g>
<g>
</g>
<g>
</g>
<g>
</g>
<g>
</g>
</svg>
