<?xml version="1.0" encoding="utf-8"?>
<!-- Generator: Adobe Illustrator 18.1.1, SVG Export Plug-In . SVG Version: 6.00 Build 0)  -->
<svg version="1.1" id="Layer_1" xmlns="http://www.w3.org/2000/svg" xmlns:xlink="http://www.w3.org/1999/xlink" x="0px" y="0px"
	 viewBox="0 0 45.4 36.1" enable-background="new 0 0 45.4 36.1" xml:space="preserve">
<g>
	<path d="M31,32.2H1.9c-1,0-1.9,0.8-1.9,1.9c0,1,0.8,1.9,1.9,1.9H31c1,0,1.9-0.8,1.9-1.9C32.8,33,32,32.2,31,32.2z"/>
	<path d="M13.7,22.1H1.9c-1,0-1.9,0.8-1.9,1.9c0,1,0.8,1.9,1.9,1.9h15.3C15.8,24.8,14.6,23.5,13.7,22.1z"/>
	<path d="M1.9,12c-1,0-1.9,0.8-1.9,1.9c0,1,0.8,1.9,1.9,1.9h9.2c-0.2-1.2-0.3-2.4-0.2-3.7H1.9z"/>
	<path d="M1.9,1.9C0.8,1.9,0,2.7,0,3.8c0,1,0.8,1.9,1.9,1.9h10.6c0.7-1.4,1.5-2.6,2.4-3.7H1.9z"/>
	<path d="M44.8,31c-0.1-0.1-2.9-3.7-5.1-6.5c-1.3-1.7-2.4-3-2.4-3c0.5-0.5,0.9-1.1,1.3-1.7c1-1.5,1.6-3.1,1.9-4.9
		c0.6-3.4-0.2-6.8-2.2-9.5c-4.1-5.7-12.1-7.1-17.8-3c-5.7,4.1-7.1,12.1-3,17.8h0c2,2.8,4.9,4.6,8.3,5.2c2,0.3,4.2,0.1,6.2-0.6
		c0.4-0.1,0.9-0.3,1.3-0.5c0,0,0.9,1.5,2,3.4c1.8,3,4.1,6.9,4.1,7c1,1.5,3.1,1.9,4.6,0.8C45.5,34.5,45.9,32.5,44.8,31z M26.4,22
		c-2.4-0.4-4.6-1.8-6-3.8c-1.5-2.1-2-4.7-1.6-7.1c0.4-2.3,1.7-4.4,3.8-5.9c4.2-3,10-2,13,2.2c1.4,2,2,4.5,1.6,6.9
		c-0.4,2.5-1.8,4.6-3.8,6C31.3,21.8,28.9,22.4,26.4,22z"/>
</g>
<g>
</g>
<g>
</g>
<g>
</g>
<g>
</g>
<g>
</g>
<g>
</g>
<g>
</g>
<g>
</g>
<g>
</g>
<g>
</g>
<g>
</g>
<g>
</g>
<g>
</g>
<g>
</g>
<g>
</g>
</svg>
