<?xml version="1.0" encoding="utf-8"?>
<!-- Generator: Adobe Illustrator 18.1.1, SVG Export Plug-In . SVG Version: 6.00 Build 0)  -->
<svg version="1.1" id="Layer_1" xmlns="http://www.w3.org/2000/svg" xmlns:xlink="http://www.w3.org/1999/xlink" x="0px" y="0px"
	 viewBox="0 0 612 600.6" enable-background="new 0 0 612 600.6" xml:space="preserve">
<path d="M612,559.5L433.9,383.6c34.3-43.4,52.5-95.9,52.5-146.1c0-61.7-22.8-121-70.8-169C367.7,22.8,306,0,244.3,0
	C180.4,0,118.7,22.8,70.8,68.5c-48,48-70.8,109.6-70.8,169c0,61.7,22.8,121,70.8,169c48,45.7,109.6,68.5,171.3,68.5
	c52.5,0,105-18.3,150.7-50.2l178.1,175.8L612,559.5z M111.9,365.4c-36.5-36.5-54.8-82.2-54.8-127.9s18.3-93.6,54.8-127.9
	c36.5-36.5,84.5-52.5,130.2-52.5c48,0,93.6,18.3,130.2,52.5c36.5,36.5,54.8,82.2,54.8,127.9s-18.3,93.6-54.8,127.9
	c-36.5,36.5-84.5,52.5-130.2,52.5C194.1,420.2,148.4,401.9,111.9,365.4z"/>
<g>
</g>
<g>
</g>
<g>
</g>
<g>
</g>
<g>
</g>
<g>
</g>
<g>
</g>
<g>
</g>
<g>
</g>
<g>
</g>
<g>
</g>
<g>
</g>
<g>
</g>
<g>
</g>
<g>
</g>
</svg>
