<?xml version="1.0" encoding="utf-8"?>
<!-- Generator: Adobe Illustrator 18.1.1, SVG Export Plug-In . SVG Version: 6.00 Build 0)  -->
<svg version="1.1" id="Layer_1" xmlns="http://www.w3.org/2000/svg" xmlns:xlink="http://www.w3.org/1999/xlink" x="0px" y="0px"
	 viewBox="0 0 43.5 42.9" enable-background="new 0 0 43.5 42.9" xml:space="preserve">
<g>
	<path d="M5,28.4L5,28.4c3.2,3.1,7.4,4.7,11.8,4.7c3.3,0,6.6-1.3,9.3-3.1c0,0,10.1,11.6,10.2,11.7c1.7,1.7,4.3,1.7,6,0
		c1.7-1.7,1.7-4.3,0-6c-0.2-0.2-11.8-10.3-11.8-10.3c1.7-2.7,2.6-5.8,2.5-9.1c-0.1-4.4-1.9-8.5-5-11.6C21.5-1.7,11-1.5,4.7,5
		C-1.7,11.6-1.5,22.1,5,28.4z M7.5,25.8c-2.6-2.5-3.9-5.9-3.9-9.3c0-3.2,1.2-6.5,3.6-9c5-5.1,13.2-5.3,18.3-0.3
		c2.5,2.4,3.9,5.6,3.9,9.1c0.1,3.4-1.2,6.7-3.6,9.2c-2.4,2.5-5.6,3.9-9.1,3.9C13.3,29.5,10,28.2,7.5,25.8z"/>
</g>
<g>
</g>
<g>
</g>
<g>
</g>
<g>
</g>
<g>
</g>
<g>
</g>
<g>
</g>
<g>
</g>
<g>
</g>
<g>
</g>
<g>
</g>
<g>
</g>
<g>
</g>
<g>
</g>
<g>
</g>
</svg>
