<?xml version="1.0" encoding="utf-8"?>
<!-- Generator: Adobe Illustrator 18.1.1, SVG Export Plug-In . SVG Version: 6.00 Build 0)  -->
<svg version="1.1" id="Layer_1" xmlns="http://www.w3.org/2000/svg" xmlns:xlink="http://www.w3.org/1999/xlink" x="0px" y="0px"
	 viewBox="0 0 40.4 39.7" enable-background="new 0 0 40.4 39.7" xml:space="preserve">
<g>
	<path d="M40.4,36.4c0-0.9-0.3-1.7-1-2.4l-9.6-9.6l0.4-0.7c1.3-2.3,2-4.9,2-7.6c0-0.1,0-0.2,0-0.2c-0.1-4.3-1.8-8.3-4.9-11.3
		C24.1,1.5,20.1,0,16,0C11.8,0,7.7,1.6,4.5,4.9C1.5,8,0,12,0,16c0,4.1,1.6,8.2,4.7,11.4l0.2,0.2c3,2.9,7,4.5,11.1,4.5
		c0.1,0,0.2,0,0.3,0c2.7,0,5.6-1,8.1-2.5l0.7-0.4l9.6,9.6c0.7,0.7,1.5,1,2.4,1c0.9,0,1.7-0.3,2.4-1C40.1,38.1,40.4,37.2,40.4,36.4z
		 M23.5,23.3c-1.9,2-4.5,3.1-7.3,3.2c-0.1,0-0.1,0-0.2,0c-2.7,0-5.3-1-7.2-2.9c-2.1-2-3.1-4.8-3.1-7.5c0-2.6,1-5.2,2.9-7.2
		c2-2.1,4.8-3.2,7.5-3.2c2.6,0,5.2,1,7.2,2.9c2,1.9,3.1,4.5,3.2,7.3c0,0.1,0,0.1,0,0.2C26.4,18.8,25.4,21.3,23.5,23.3z"/>
</g>
<g>
</g>
<g>
</g>
<g>
</g>
<g>
</g>
<g>
</g>
<g>
</g>
<g>
</g>
<g>
</g>
<g>
</g>
<g>
</g>
<g>
</g>
<g>
</g>
<g>
</g>
<g>
</g>
<g>
</g>
</svg>
