<?xml version="1.0" encoding="utf-8"?>
<!-- Generator: Adobe Illustrator 18.1.1, SVG Export Plug-In . SVG Version: 6.00 Build 0)  -->
<svg version="1.1" id="Layer_1" xmlns="http://www.w3.org/2000/svg" xmlns:xlink="http://www.w3.org/1999/xlink" x="0px" y="0px"
	 viewBox="0 0 46.7 23.5" enable-background="new 0 0 46.7 23.5" xml:space="preserve">
<g>
	<path d="M46,0H0.7C0.3,0,0,0.3,0,0.7v22.1c0,0.4,0.3,0.7,0.7,0.7H46c0.4,0,0.7-0.3,0.7-0.7V0.7C46.7,0.3,46.4,0,46,0z M42,18.7H4.7
		v-14H42V18.7z M33.6,13.7c0.1,0.1,0.2,0.2,0.3,0.2c0.1,0,0.3-0.1,0.3-0.2l2.6-4.5C37,9,37,8.9,36.9,8.7c-0.1-0.1-0.2-0.2-0.3-0.2
		h-5.2c-0.1,0-0.3,0.1-0.3,0.2c-0.1,0.1-0.1,0.3,0,0.4L33.6,13.7z"/>
</g>
<g>
</g>
<g>
</g>
<g>
</g>
<g>
</g>
<g>
</g>
<g>
</g>
<g>
</g>
<g>
</g>
<g>
</g>
<g>
</g>
<g>
</g>
<g>
</g>
<g>
</g>
<g>
</g>
<g>
</g>
</svg>
