<?xml version="1.0" encoding="utf-8"?>
<!-- Generator: Adobe Illustrator 18.1.1, SVG Export Plug-In . SVG Version: 6.00 Build 0)  -->
<svg version="1.1" id="Layer_1" xmlns="http://www.w3.org/2000/svg" xmlns:xlink="http://www.w3.org/1999/xlink" x="0px" y="0px"
	 viewBox="0 0 49.5 49.4" enable-background="new 0 0 49.5 49.4" xml:space="preserve">
<g>
	<path d="M43.1,29.2l6-0.7c0.2-1.3,0.3-2.6,0.3-3.9c0-1.3-0.1-2.6-0.3-3.9l-6-0.6c-0.5-1.9-1.2-3.7-2.2-5.3l3.8-4.7
		c-1.5-2.1-3.4-3.9-5.5-5.5l-4.7,3.8c-1.6-1-3.4-1.7-5.3-2.2l-0.7-6C27.3,0.1,26,0,24.7,0c-1.3,0-2.6,0.1-3.9,0.3l-0.7,6
		c-1.9,0.5-3.7,1.2-5.3,2.2l-4.7-3.8c-2.1,1.5-3.9,3.4-5.5,5.5l3.8,4.7c-1,1.6-1.7,3.4-2.2,5.3l-6,0.6C0.1,22.1,0,23.4,0,24.7
		c0,1.3,0.1,2.6,0.3,3.9l6,0.6c0.5,1.9,1.2,3.7,2.2,5.3l-3.8,4.7c1.5,2.1,3.4,4,5.5,5.5l4.7-3.8c1.6,1,3.4,1.7,5.3,2.2l0.7,6
		c1.3,0.2,2.6,0.3,3.9,0.3c1.3,0,2.6-0.1,3.9-0.3l0.7-6c1.9-0.5,3.7-1.2,5.3-2.2l4.7,3.8c2.1-1.5,4-3.4,5.5-5.5l-3.8-4.7
		C41.9,32.9,42.6,31.1,43.1,29.2z M24.7,36.3c-6.4,0-11.5-5.2-11.5-11.6s5.2-11.6,11.5-11.6c6.4,0,11.6,5.2,11.6,11.6
		S31.1,36.3,24.7,36.3z"/>
</g>
<g>
</g>
<g>
</g>
<g>
</g>
<g>
</g>
<g>
</g>
<g>
</g>
<g>
</g>
<g>
</g>
<g>
</g>
<g>
</g>
<g>
</g>
<g>
</g>
<g>
</g>
<g>
</g>
<g>
</g>
</svg>
