<?xml version="1.0" encoding="utf-8"?>
<!-- Generator: Adobe Illustrator 18.1.1, SVG Export Plug-In . SVG Version: 6.00 Build 0)  -->
<svg version="1.1" id="Layer_1" xmlns="http://www.w3.org/2000/svg" xmlns:xlink="http://www.w3.org/1999/xlink" x="0px" y="0px"
	 viewBox="0 0 610.2 597.6" enable-background="new 0 0 610.2 597.6" xml:space="preserve">
<g>
	<path d="M305,166.9c-74.2,0-136,59.8-136,133.9s61.8,133.9,136,133.9S441,375,441,300.8C441,226.7,381.2,166.9,305,166.9z
		 M305,383.3c-47.4,0-84.5-37.1-84.5-82.4s37.1-82.4,84.5-82.4s84.5,37.1,84.5,82.4C389.5,346.2,352.4,383.3,305,383.3z"/>
	<path d="M587.3,241.1L579,239l-8.2-2.1l-22.7-4.1c-2.1-6.2-4.1-12.4-6.2-16.5l0,0c-4.1-12.4-8.2-22.7-14.4-33l18.5-26.8l4.1-8.2
		c6.2-10.3,6.2-26.8-4.1-37.1l0,0l-22.7-22.7l-22.7-22.7c-10.3-8.2-26.8-10.3-39.2-4.1l-14.4,10.3l-20.6,12.4
		c-16.5-8.2-33-16.5-51.5-20.6l-4.1-24.7l-2.1-8.2l-2.1-10.3l0,0C362.7,10.3,350.3,0,337.9,0h-61.8c-12.4,0-26.8,10.3-28.8,22.7l0,0
		l-2.1,8.2l-2.1,8.2L237,61.8c-6.2,2.1-12.4,4.1-18.5,6.2l0,0c-12.4,6.2-22.7,10.3-35,16.5l-26.8-18.5l-8.2-4.1
		c-10.3-6.2-26.8-4.1-37.1,4.1L88.6,88.6L68,109.2c-10.3,10.3-12.4,26.8-4.1,37.1l0,0l4.1,8.2l4.1,8.2l12.4,20.6
		c-8.2,16.5-16.5,33-20.6,51.5L41.2,237L33,239l-8.2,2.1l0,0C10.3,243.2,0,255.5,0,269.9v61.8c0,12.4,10.3,26.8,22.7,28.8l18.5,2.1
		l0,0l22.7,4.1c2.1,6.2,4.1,12.4,6.2,16.5l0,0c4.1,12.4,8.2,22.7,14.4,33l-18.5,28.8l-2.1,8.2c-6.2,10.3-6.2,26.8,4.1,37.1l0,0
		l22.7,22.7l22.7,22.7c10.3,8.2,26.8,10.3,37.1,4.1l0,0l8.2-4.1l6.2-8.2l20.6-12.4c16.5,8.2,33,16.5,51.5,20.6l6.2,30.9l2.1,8.2
		c2.1,12.4,16.5,22.7,28.8,22.7h61.8c12.4,0,26.8-10.3,28.8-22.7l2.1-8.2l6.2-30.9c6.2-2.1,12.4-4.1,18.5-6.2l0,0l0,0
		c12.4-4.1,22.7-8.2,33-14.4l20.6,12.4l8.2,4.1l8.2,4.1c10.3,6.2,28.8,6.2,37.1-4.1l6.2-6.2l37.1-37.1c10.3-8.2,10.3-24.7,4.1-37.1
		l-4.1-8.2l-4.1-8.2l0,0l-12.4-20.6c8.2-16.5,16.5-33,20.6-51.5l33-6.2l8.2-2.1c12.4-2.1,22.7-16.5,22.7-28.8v-61.8
		C612,255.5,599.6,243.2,587.3,241.1z M560.5,300.8v14.4l-26.8,6.2l-26.8,6.2l-2.1,8.2c0,4.1-4.1,18.5-8.2,30.9
		s-22.7,45.3-24.7,49.5l0,0l-4.1,6.2l12.4,20.6l0,0l2.1,4.1l2.1,4.1l0,0l12.4,20.6l-10.3,10.3L476,492.5l-20.6-12.4l0,0l-4.1-2.1
		l-4.1-2.1l0,0l-20.6-12.4l-6.2,4.1c-4.1,2.1-16.5,8.2-28.8,14.4c-12.4,6.2-47.4,16.5-53.6,18.5l-6.2-6.2l-6.2,22.7l0,0v4.1v4.1
		l-6.2,22.7H305h-14.4l-6.2-26.8v-4.1l0,0l-4.1-22.7l-8.2-2.1c-4.1,0-18.5-4.1-30.9-8.2c-12.4-4.1-45.3-20.6-49.5-24.7l0,0l-6.2-4.1
		l-28.8,18.5L136,486.3L125.7,476l-10.3-10.3l14.4-22.7l14.4-22.7l-2.1-8.2c-2.1-4.1-10.3-16.5-14.4-26.8
		c-6.2-10.3-16.5-47.4-18.5-51.5l-2.1-8.2l-24.7-4.1h-4.1h-4.1l-22.7-4.1v-14.4v-14.4l26.8-6.2l26.8-6.2l2.1-8.2l0,0l0,0
		c0-4.1,4.1-18.5,8.2-30.9c4.1-12.4,22.7-45.3,24.7-49.5l4.1-6.2l-12.4-20.6v-4.1l-2.1-4.1l-12.4-20.6l8.2-8.2l0,0l0,0l10.3-10.3
		l26.8,16.5l20.6,12.4l6.2-4.1c4.1-2.1,16.5-8.2,28.8-14.4c12.4-6.2,47.4-16.5,53.6-18.5l8.2-2.1l6.2-26.8l6.2-28.8H307h14.4
		l6.2,22.7v4.1v4.1l0,0l6.2,22.7l8.2,2.1c4.1,0,18.5,4.1,30.9,8.2c12.4,4.1,45.3,20.6,49.5,24.7l4.1,8.2l24.7-14.4l24.7-14.4
		l8.2,8.2l0,0l10.3,10.3l-14.4,22.7l-14.4,22.7l4.1,6.2c2.1,4.1,10.3,16.5,16.5,26.8c6.2,10.3,16.5,47.4,18.5,51.5l2.1,8.2l26.8,6.2
		l26.8,6.2L560.5,300.8L560.5,300.8z"/>
</g>
<g>
</g>
<g>
</g>
<g>
</g>
<g>
</g>
<g>
</g>
<g>
</g>
<g>
</g>
<g>
</g>
<g>
</g>
<g>
</g>
<g>
</g>
<g>
</g>
<g>
</g>
<g>
</g>
<g>
</g>
</svg>
