<?xml version="1.0" encoding="utf-8"?>
<!-- Generator: Adobe Illustrator 18.1.1, SVG Export Plug-In . SVG Version: 6.00 Build 0)  -->
<svg version="1.1" id="Layer_1" xmlns="http://www.w3.org/2000/svg" xmlns:xlink="http://www.w3.org/1999/xlink" x="0px" y="0px"
	 viewBox="0 0 42.5 41.5" enable-background="new 0 0 42.5 41.5" xml:space="preserve">
<g>
	<path d="M33.9,4.2C33.9,4.2,33.9,4.2,33.9,4.2C33.9,4.2,33.9,4.2,33.9,4.2L33.9,4.2z M0,18.7c0.1,0.9,0.6,1.3,0.8,1.5
		c0.3,0.2,0.4,0.2,0.5,0.3l0.1,0c0,0,0.2,0.1,0.2,0.1l2.8,1.3C4.7,22,4.9,22.3,5,22.6l0.6,2.6c0,0.1,0,0.2,0,0.2
		c0,0.3-0.1,0.5-0.2,0.7L3,29c-0.3,0.4-0.4,0.9-0.4,1.2c0,0.5,0.1,0.8,0.3,1.1L3,31.4l3.3,4.2c0.3,0.4,0.9,0.7,1.4,0.7
		c0,0,0,0,0.1,0c0.2,0,0.5,0,0.8-0.2l3.3-1.6c0.1-0.1,0.3-0.1,0.5-0.1c0.2,0,0.3,0,0.5,0.1l2.5,1.2c0.3,0.1,0.5,0.4,0.6,0.7l0.8,3.6
		c0.2,0.9,1,1.5,1.8,1.5l5.3,0c0.9,0,1.6-0.6,1.8-1.5l0.8-3.5c0.1-0.3,0.3-0.6,0.6-0.7l2.5-1.2c0.1-0.1,0.3-0.1,0.5-0.1
		c0.2,0,0.3,0,0.5,0.1l3.3,1.6c0.8,0.4,1.8,0.2,2.3-0.5l3.3-4.2c0.6-0.7,0.4-1.7-0.1-2.4c0,0-2.2-2.8-2.2-2.8
		c-0.2-0.2-0.2-0.4-0.2-0.7c0-0.1,0-0.2,0-0.3l0.6-2.6c0.1-0.3,0.3-0.6,0.6-0.7l3.4-1.6c0.5-0.2,1-0.8,1-1.7c0-0.1,0-0.3-0.1-0.5
		c0,0-1.1-5-1.2-5c-0.2-0.5-0.3-0.8-0.8-1.1c-0.3-0.2-0.6-0.2-0.8-0.2c-0.1,0-0.1,0-0.2,0l-3.7,0c-0.3,0-0.6-0.2-0.8-0.4l-1.7-2.1
		C33,9,33,8.8,33,8.5c0-0.1,0-0.2,0-0.3l0.8-3.7c0-0.1,0-0.2,0-0.4c0-0.8-0.5-1.4-1.1-1.7L28,0.2C27.8,0.1,27.6,0,27.2,0
		c-0.6,0-1.1,0.3-1.3,0.5l-0.2,0.2l-2.3,2.9c-0.2,0.3-0.5,0.4-0.8,0.4c-0.6,0-1.5,0-2.2,0c-0.2,0-0.3,0-0.5,0
		c-0.3,0-0.6-0.2-0.8-0.4l-2.3-2.9C16.4,0.3,16,0,15.4,0l-0.5,0.1l-0.4,0.2L9.8,2.4C9,2.8,8.7,3.5,8.7,4.1l0,0.5l0.8,3.6
		c0,0.1,0,0.2,0,0.3c0,0.2-0.1,0.5-0.2,0.7l-1.7,2.1c-0.2,0.2-0.5,0.4-0.8,0.4c0,0-3.8,0-3.8,0c-0.8,0-1.6,0.6-1.8,1.6l-1.2,5
		c0,0.2,0,0.3,0,0.4C0,18.6,0,18.6,0,18.7z M9.4,20.4c0-6.6,5.3-11.8,11.9-11.9c6.5,0,11.9,5.3,11.9,11.9c0,6.5-5.3,11.8-11.8,11.9
		l-0.1,0C14.7,32.3,9.4,27,9.4,20.4L9.4,20.4z"/>
	<path d="M21.1,27.7C21.2,27.7,21.2,27.7,21.1,27.7c4,0,7.2-3.2,7.2-7.1c0-4-3.2-7.1-7.1-7.2c-4,0-7.1,3.2-7.2,7.2
		C14.1,24.4,17.3,27.6,21.1,27.7z"/>
</g>
<g>
</g>
<g>
</g>
<g>
</g>
<g>
</g>
<g>
</g>
<g>
</g>
<g>
</g>
<g>
</g>
<g>
</g>
<g>
</g>
<g>
</g>
<g>
</g>
<g>
</g>
<g>
</g>
<g>
</g>
</svg>
