<?xml version="1.0" encoding="utf-8"?>
<!-- Generator: Adobe Illustrator 18.1.1, SVG Export Plug-In . SVG Version: 6.00 Build 0)  -->
<svg version="1.1" id="Layer_1" xmlns="http://www.w3.org/2000/svg" xmlns:xlink="http://www.w3.org/1999/xlink" x="0px" y="0px"
	 viewBox="0 0 44.8 44.8" enable-background="new 0 0 44.8 44.8" xml:space="preserve">
<g>
	<path d="M44.7,24.7l-4.4-2.2c-0.6-0.4-0.8-0.6-0.9-1.2l-1-4.4c0-0.1-0.1-0.2-0.1-0.4c0-0.4,0.1-0.8,0.4-1.1l3.1-4
		c0.1-0.1,0.1-0.2,0-0.3L38,6.2c-0.1-0.1-0.2-0.1-0.3-0.1l-4.4,2.2c-0.3,0.1-0.5,0.2-0.7,0.2c-0.3,0-0.5,0-0.8-0.2l-4-2
		c-0.6-0.4-0.8-0.5-1-1.3l-1.1-4.9c0-0.1-0.1-0.2-0.2-0.2h-6.1c-0.1,0-0.2,0.1-0.2,0.2l-1.1,4.9c-0.2,0.7-0.4,0.9-1,1.2l-4,1.9
		c-0.3,0.2-0.6,0.2-0.8,0.2c-0.2,0-0.4,0-0.7-0.2L7.2,6.1C7.1,6,7,6,6.9,6.1L3.1,11c-0.1,0.1-0.1,0.2,0,0.3l3.1,3.9
		c0.3,0.5,0.4,0.7,0.4,1.1c0,0.2,0,0.3,0,0.4l-1,4.3c-0.2,0.7-0.3,0.9-1,1.3l-4.4,2.2C0,24.6,0,24.7,0,24.8l1.3,6.1
		c0,0.1,0.1,0.2,0.2,0.2c0,0,4.3,0,4.9,0c0.7,0,0.9,0.2,1.4,0.7l2.7,3.5c0.4,0.5,0.5,1.1,0.4,1.7c-0.2,0.9-0.4,1.9-0.6,2.8
		c-0.2,0.7-0.3,1.4-0.5,2c0,0.1,0,0.2,0.1,0.3l5.5,2.7c0.1,0,0.2,0,0.3-0.1l3.1-4c0.4-0.5,0.7-0.6,1.3-0.6c0,0,4.3,0,4.5,0
		c0.6,0.1,0.9,0.2,1.3,0.7l3.1,4c0,0.1,0.1,0.1,0.2,0.1c0,0,0.1,0,0.1,0l5.5-2.7c0.1-0.1,0.2-0.2,0.1-0.3l-1.1-5c0,0,0-0.1,0-0.3
		c0-0.5,0.1-0.8,0.4-1.1l2.7-3.4c0.5-0.6,0.7-0.7,1.4-0.8l5,0c0.1,0,0.2-0.1,0.2-0.2l1.4-6.1C44.8,24.9,44.8,24.7,44.7,24.7z
		 M32.2,22.8c0,5.4-4.4,9.8-9.8,9.8c-5.4,0-9.8-4.4-9.8-9.8c0-5.4,4.4-9.8,9.8-9.8C27.8,13,32.2,17.4,32.2,22.8z M39,21.4L39,21.4
		L39,21.4L39,21.4z"/>
</g>
<g>
</g>
<g>
</g>
<g>
</g>
<g>
</g>
<g>
</g>
<g>
</g>
<g>
</g>
<g>
</g>
<g>
</g>
<g>
</g>
<g>
</g>
<g>
</g>
<g>
</g>
<g>
</g>
<g>
</g>
</svg>
