<?xml version="1.0" encoding="utf-8"?>
<!-- Generator: Adobe Illustrator 18.1.1, SVG Export Plug-In . SVG Version: 6.00 Build 0)  -->
<svg version="1.1" id="Layer_1" xmlns="http://www.w3.org/2000/svg" xmlns:xlink="http://www.w3.org/1999/xlink" x="0px" y="0px"
	 viewBox="0 0 609.2 739.1" enable-background="new 0 0 609.2 739.1" xml:space="preserve">
<path d="M493.7,508.5c-29.6,0-56.2,11.8-76.9,29.6L224.7,408c3-11.8,5.9-23.7,5.9-38.4c0-14.8-3-26.6-5.9-38.4L416.9,201
	c20.7,17.7,47.3,29.6,76.9,29.6c65,0,115.3-53.2,115.3-115.3S558.8,0,493.7,0S378.4,53.2,378.4,115.3c0,11.8,3,26.6,5.9,38.4
	L192.2,283.8c-20.7-17.7-47.3-29.6-76.9-29.6C53.2,254.3,0,307.5,0,369.6s53.2,115.3,115.3,115.3c29.6,0,56.2-11.8,76.9-29.6
	l192.2,130.1c-3,11.8-5.9,23.7-5.9,38.4c0,65,53.2,115.3,115.3,115.3c65,0,115.3-53.2,115.3-115.3
	C612,561.7,558.8,508.5,493.7,508.5z"/>
<g>
</g>
<g>
</g>
<g>
</g>
<g>
</g>
<g>
</g>
<g>
</g>
<g>
</g>
<g>
</g>
<g>
</g>
<g>
</g>
<g>
</g>
<g>
</g>
<g>
</g>
<g>
</g>
<g>
</g>
</svg>
