<?xml version="1.0" encoding="utf-8"?>
<!-- Generator: Adobe Illustrator 18.1.1, SVG Export Plug-In . SVG Version: 6.00 Build 0)  -->
<svg version="1.1" id="Layer_1" xmlns="http://www.w3.org/2000/svg" xmlns:xlink="http://www.w3.org/1999/xlink" x="0px" y="0px"
	 viewBox="0 0 45.8 51.2" enable-background="new 0 0 45.8 51.2" xml:space="preserve">
<g>
	<path d="M43.5,31.1c0.5-1.8,0.7-3.6,0.7-5.5s-0.3-3.7-0.7-5.5c2.3-1.7,3-4.8,1.6-7.3c-1.4-2.5-4.5-3.4-7.1-2.3
		C35.4,7.9,32.1,6,28.4,5c-0.3-2.8-2.6-5-5.5-5c-2.9,0-5.2,2.2-5.5,5c-3.7,1-6.9,2.9-9.5,5.5c-2.6-1.2-5.7-0.2-7.1,2.3
		c-1.4,2.5-0.7,5.6,1.6,7.3c-0.5,1.8-0.7,3.6-0.7,5.5s0.3,3.7,0.7,5.5c-2.3,1.7-3,4.8-1.6,7.3c1.4,2.5,4.5,3.4,7.1,2.3
		c2.6,2.6,5.9,4.5,9.5,5.5c0.3,2.8,2.6,5,5.5,5c2.9,0,5.2-2.2,5.5-5c3.7-1,6.9-2.9,9.5-5.5c2.6,1.2,5.7,0.2,7.1-2.3
		C46.5,35.9,45.8,32.7,43.5,31.1z M35.4,32.8c-1.2,2.1-0.9,4.6,0.6,6.4c-2.2,2.1-4.9,3.7-7.8,4.5c-0.8-2.1-2.8-3.7-5.2-3.7
		c-2.4,0-4.4,1.5-5.2,3.7c-3-0.9-5.7-2.4-7.8-4.5c1.5-1.7,1.8-4.3,0.6-6.4c-1.2-2.1-3.6-3.1-5.8-2.7c-0.4-1.5-0.6-3-0.6-4.5
		s0.2-3.1,0.6-4.5c2.2,0.4,4.6-0.6,5.8-2.7c1.2-2.1,0.9-4.6-0.6-6.4c2.2-2.1,4.9-3.7,7.8-4.5c0.8,2.1,2.8,3.7,5.2,3.7
		c2.4,0,4.4-1.5,5.2-3.7c3,0.9,5.7,2.4,7.8,4.5c-1.5,1.7-1.8,4.3-0.6,6.4c1.2,2.1,3.6,3.1,5.8,2.7c0.4,1.5,0.6,3,0.6,4.5
		s-0.2,3.1-0.6,4.5C39,29.7,36.6,30.7,35.4,32.8z"/>
</g>
<g>
</g>
<g>
</g>
<g>
</g>
<g>
</g>
<g>
</g>
<g>
</g>
<g>
</g>
<g>
</g>
<g>
</g>
<g>
</g>
<g>
</g>
<g>
</g>
<g>
</g>
<g>
</g>
<g>
</g>
</svg>
