<?xml version="1.0" encoding="utf-8"?>
<!-- Generator: Adobe Illustrator 18.1.1, SVG Export Plug-In . SVG Version: 6.00 Build 0)  -->
<svg version="1.1" id="Layer_1" xmlns="http://www.w3.org/2000/svg" xmlns:xlink="http://www.w3.org/1999/xlink" x="0px" y="0px"
	 viewBox="0 0 38.8 44.8" enable-background="new 0 0 38.8 44.8" xml:space="preserve">
<g>
	<path d="M38.8,19.4L37.5,0L21.3,10.8l5.1,2.5l-4.1,8.3c2.7,0.6,5.2,2,7,4l4.3-8.7L38.8,19.4z"/>
	<path d="M12.3,13.3l5.1-2.5L1.3,0L0,19.4l5.1-2.5l4.3,8.7c1.9-2,4.3-3.4,7-4L12.3,13.3z"/>
	<path d="M27.1,29.2c-1.5-2-3.8-3.3-6.3-3.7c-0.5-0.1-0.9-0.1-1.4-0.1c-0.5,0-0.9,0-1.4,0.1c-2.6,0.4-4.8,1.7-6.3,3.7
		c-1.3,1.6-2,3.7-2,5.9c0,5.4,4.4,9.7,9.7,9.7c5.4,0,9.7-4.4,9.7-9.7C29.1,32.9,28.4,30.8,27.1,29.2z"/>
</g>
<g>
</g>
<g>
</g>
<g>
</g>
<g>
</g>
<g>
</g>
<g>
</g>
<g>
</g>
<g>
</g>
<g>
</g>
<g>
</g>
<g>
</g>
<g>
</g>
<g>
</g>
<g>
</g>
<g>
</g>
</svg>
