<?xml version="1.0" encoding="utf-8"?>
<!-- Generator: Adobe Illustrator 18.1.1, SVG Export Plug-In . SVG Version: 6.00 Build 0)  -->
<svg version="1.1" id="Layer_1" xmlns="http://www.w3.org/2000/svg" xmlns:xlink="http://www.w3.org/1999/xlink" x="0px" y="0px"
	 viewBox="0 0 612 521.3" enable-background="new 0 0 612 521.3" xml:space="preserve">
<path d="M597.2,170.9c-10.6-8.4-23.2-14.8-35.9-14.8H424.2L375.6,0l-54.9,16.9L363,156.2H249l42.2-139.3L238.5,0l-48.5,156.2H52.8
	c-12.7,0-27.4,4.2-35.9,14.8C6.3,179.4,0,194.2,0,206.8c0,4.2,0,10.6,2.1,14.8l69.6,249c10.6,29.5,33.8,48.5,65.4,50.6h337.7
	c31.7-2.1,57-21.1,65.4-50.6l-25.3-6.3l27.4,8.4l69.6-249c0-6.3,0-12.7,0-16.9C612,194.2,607.8,179.4,597.2,170.9z M552.9,213.1
	l-14.8,52.8H73.9l-14.8-52.8H552.9z M485.4,455.8L485.4,455.8c0,0-2.1,4.2-4.2,6.3c-2.1,2.1-4.2,2.1-6.3,2.1H137.2
	c0,0-4.2,0-6.3-2.1s-4.2-4.2-4.2-6.3l-35.9-133h432.6L485.4,455.8z"/>
<g>
</g>
<g>
</g>
<g>
</g>
<g>
</g>
<g>
</g>
<g>
</g>
<g>
</g>
<g>
</g>
<g>
</g>
<g>
</g>
<g>
</g>
<g>
</g>
<g>
</g>
<g>
</g>
<g>
</g>
</svg>
