<?xml version="1.0" encoding="utf-8"?>
<!-- Generator: Adobe Illustrator 18.1.1, SVG Export Plug-In . SVG Version: 6.00 Build 0)  -->
<svg version="1.1" id="Layer_1" xmlns="http://www.w3.org/2000/svg" xmlns:xlink="http://www.w3.org/1999/xlink" x="0px" y="0px"
	 viewBox="0 0 47 40.7" enable-background="new 0 0 47 40.7" xml:space="preserve">
<path d="M45.9,15.5H34.8v-4.3C34.8,5,29.7,0,23.5,0c-6.2,0-11.3,5-11.3,11.3v4.3H1.1h0c-0.6,0-1.1,0.4-1.1,1c0,0.1,0,0.2,0.1,0.4
	l6.8,22.6c0.2,0.7,0.9,1.2,1.6,1.2h30.1c0.7,0,1.4-0.5,1.6-1.2L47,16.9c0-0.1,0.1-0.2,0.1-0.4C47,16,46.5,15.5,45.9,15.5z
	 M21.7,19.1V26h-6l-0.6-6.8H21.7z M21.7,29.5v7.6l-5,0l-0.7-7.6H21.7z M25.3,29.5h5.7l-0.7,7.6l-5,0V29.5z M25.3,26v-6.8h6.6
	L31.3,26H25.3z M15.8,11.3c0-4.2,3.4-7.7,7.7-7.7c4.2,0,7.7,3.4,7.7,7.7v4.3H15.8V11.3z M11.6,19.1l0.6,6.8H6.5l-2.1-6.8H11.6z
	 M7.6,29.5h4.9l0.7,7.6H9.9L7.6,29.5z M37.1,37.1h-3.3l0.7-7.6h4.9L37.1,37.1z M40.5,26h-5.6l0.6-6.8h7.1L40.5,26z"/>
<g>
</g>
<g>
</g>
<g>
</g>
<g>
</g>
<g>
</g>
<g>
</g>
<g>
</g>
<g>
</g>
<g>
</g>
<g>
</g>
<g>
</g>
<g>
</g>
<g>
</g>
<g>
</g>
<g>
</g>
</svg>
