<?xml version="1.0" encoding="utf-8"?>
<!-- Generator: Adobe Illustrator 18.1.1, SVG Export Plug-In . SVG Version: 6.00 Build 0)  -->
<svg version="1.1" id="Layer_1" xmlns="http://www.w3.org/2000/svg" xmlns:xlink="http://www.w3.org/1999/xlink" x="0px" y="0px"
	 viewBox="0 0 612 620.4" enable-background="new 0 0 612 620.4" xml:space="preserve">
<g>
	<ellipse cx="499.2" cy="576.5" rx="43.9" ry="43.9"/>
	<ellipse cx="185.9" cy="576.5" rx="43.9" ry="43.9"/>
	<path d="M482.5,0c-23,0-41.8,18.8-41.8,41.8c0,0,0,2.1,0,6.3l4.2,35.5H37.6c-8.4,0-18.8,2.1-25.1,8.4C4.2,100.3,0,110.7,0,119.1
		c0,4.2,0,10.4,2.1,14.6l75.2,204.7c8.4,20.9,25.1,31.3,48,33.4h348.8l6.3,64.8H137.9v50.1h371.8c8.4,0,14.6-2.1,18.8-8.4
		c4.2-6.3,8.4-12.5,6.3-18.8L492.9,52.2H612V0H482.5z M125.3,319.6L125.3,319.6L58.5,133.7h390.6l18.8,185.9L125.3,319.6
		L125.3,319.6z"/>
</g>
<g>
</g>
<g>
</g>
<g>
</g>
<g>
</g>
<g>
</g>
<g>
</g>
<g>
</g>
<g>
</g>
<g>
</g>
<g>
</g>
<g>
</g>
<g>
</g>
<g>
</g>
<g>
</g>
<g>
</g>
</svg>
