<?xml version="1.0" encoding="utf-8"?>
<!-- Generator: Adobe Illustrator 18.1.1, SVG Export Plug-In . SVG Version: 6.00 Build 0)  -->
<svg version="1.1" id="Layer_1" xmlns="http://www.w3.org/2000/svg" xmlns:xlink="http://www.w3.org/1999/xlink" x="0px" y="0px"
	 viewBox="0 0 38.6 43.5" enable-background="new 0 0 38.6 43.5" xml:space="preserve">
<g>
	<path d="M4.5,39.8c0,2.1,1.7,3.8,3.8,3.8c2.1,0,3.8-1.7,3.8-3.8c0-2.1-1.7-3.8-3.8-3.8C6.2,36,4.5,37.7,4.5,39.8z M25.9,39.8
		c0,2.1,1.7,3.8,3.8,3.8c2.1,0,3.8-1.7,3.8-3.8c0-2.1-1.7-3.8-3.8-3.8C27.6,36,25.9,37.7,25.9,39.8z M0.1,8.9c0,0,3.9,12.3,4,12.5
		c0.4,1.4,0.9,2.1,2.8,2.1h22.9v5H5.4c-0.5,0-0.9,0.4-0.9,0.9v2.1c0,0.5,0.4,0.9,0.9,0.9h27.3h0c0.5,0,0.9-0.4,0.9-0.9V3.7h4.1
		c0.5,0,0.9-0.4,0.9-0.9V0.9c0-0.5-0.4-0.9-0.9-0.9h-7c-0.5,0-0.9,0.4-0.9,0.9V6H2.2C0.6,6-0.4,7.3,0.1,8.9z"/>
</g>
<g>
</g>
<g>
</g>
<g>
</g>
<g>
</g>
<g>
</g>
<g>
</g>
<g>
</g>
<g>
</g>
<g>
</g>
<g>
</g>
<g>
</g>
<g>
</g>
<g>
</g>
<g>
</g>
<g>
</g>
</svg>
