<?xml version="1.0" encoding="utf-8"?>
<!-- Generator: Adobe Illustrator 18.1.1, SVG Export Plug-In . SVG Version: 6.00 Build 0)  -->
<svg version="1.1" id="Layer_1" xmlns="http://www.w3.org/2000/svg" xmlns:xlink="http://www.w3.org/1999/xlink" x="0px" y="0px"
	 viewBox="0 0 43.4 32.6" enable-background="new 0 0 43.4 32.6" xml:space="preserve">
<g>
	<polygon points="13,18.4 9,23.4 34.4,23.4 30.4,18.4 	"/>
	<rect x="8.4" y="25" width="26.7" height="7.5"/>
	<path d="M43.2,9.2l-4.7-8.4C38.2,0.3,37.7,0,37.1,0H6.2C5.7,0,5.2,0.3,4.9,0.8L0.2,9.2C0.1,9.4,0,9.7,0,9.9c0,1.7,0.9,3.2,2.2,4.1
		v18.5h2.4V14.8c0.1,0,0.1,0,0.2,0c1.3,0,2.5-0.5,3.4-1.3c0.9,0.8,2.1,1.3,3.4,1.3s2.5-0.5,3.4-1.3c0.9,0.8,2.1,1.3,3.4,1.3
		c1.3,0,2.5-0.5,3.4-1.3c0.9,0.8,2.1,1.3,3.4,1.3c1.3,0,2.5-0.5,3.4-1.3c0.9,0.8,2.1,1.3,3.4,1.3c1.3,0,2.5-0.5,3.3-1.3
		c0.9,0.8,2.1,1.3,3.4,1.3c0.1,0,0.1,0,0.2,0v17.8h2.4V14c1.3-0.9,2.2-2.4,2.2-4.1C43.4,9.6,43.3,9.4,43.2,9.2z M4.9,13.3
		c-1.7,0-3.2-1.3-3.3-3h6.6C8.1,11.9,6.7,13.3,4.9,13.3z M8.7,8.6H2.3l4-7.1h5L8.7,8.6z M18.3,13.3c-1.7,0-3.2-1.3-3.3-3h6.6
		C21.5,11.9,20.1,13.3,18.3,13.3z M21.7,8.6h-6.5l1.1-7.1h5.4V8.6z M28.2,8.6l-1.1-7.1h5l2.6,7.1H28.2z M31.8,13.3
		c-1.7,0-3.2-1.3-3.3-3h6.6C34.9,11.9,33.5,13.3,31.8,13.3z"/>
</g>
<g>
</g>
<g>
</g>
<g>
</g>
<g>
</g>
<g>
</g>
<g>
</g>
<g>
</g>
<g>
</g>
<g>
</g>
<g>
</g>
<g>
</g>
<g>
</g>
<g>
</g>
<g>
</g>
<g>
</g>
</svg>
