<?xml version="1.0" encoding="utf-8"?>
<!-- Generator: Adobe Illustrator 18.1.1, SVG Export Plug-In . SVG Version: 6.00 Build 0)  -->
<svg version="1.1" id="Layer_1" xmlns="http://www.w3.org/2000/svg" xmlns:xlink="http://www.w3.org/1999/xlink" x="0px" y="0px"
	 viewBox="0 0 42.8 42.9" enable-background="new 0 0 42.8 42.9" xml:space="preserve">
<g>
	<path d="M21.4,3C24.5,3,27,5.5,27,8.6h3C30,3.9,26.2,0,21.4,0c-4.8,0-8.6,3.9-8.6,8.6h3C15.8,5.5,18.3,3,21.4,3z M42.3,11.3
		c-0.3-0.3-0.7-0.4-1.1-0.4H1.5c-0.4,0-0.8,0.2-1.1,0.4C0.2,11.6,0,12,0,12.4v19.3c0,0.4,0.2,0.8,0.5,1.1l9.9,9.7
		c0.3,0.3,0.7,0.4,1,0.4h19.9c0.4,0,0.8-0.2,1-0.4l9.9-9.7c0.3-0.3,0.5-0.7,0.5-1.1V12.4C42.8,12,42.6,11.6,42.3,11.3z M9.9,37.8
		L3,31.1V13.9h6.9V37.8z M19.9,39.9h-6.9v-26h6.9V39.9z M29.8,39.9h-6.9v-26h6.9V39.9z M39.8,31.1l-6.9,6.8v-24h6.9V31.1z"/>
</g>
<g>
</g>
<g>
</g>
<g>
</g>
<g>
</g>
<g>
</g>
<g>
</g>
<g>
</g>
<g>
</g>
<g>
</g>
<g>
</g>
<g>
</g>
<g>
</g>
<g>
</g>
<g>
</g>
<g>
</g>
</svg>
