<?xml version="1.0" encoding="utf-8"?>
<!-- Generator: Adobe Illustrator 18.1.1, SVG Export Plug-In . SVG Version: 6.00 Build 0)  -->
<svg version="1.1" id="Layer_1" xmlns="http://www.w3.org/2000/svg" xmlns:xlink="http://www.w3.org/1999/xlink" x="0px" y="0px"
	 viewBox="0 0 44.7 39.8" enable-background="new 0 0 44.7 39.8" xml:space="preserve">
<g>
	<path d="M43.2,0h-4c-0.7,0-1.3,0.4-1.4,1.1l-0.9,3.4H1.5C0.7,4.4,0,5.1,0,6c0,0.3,0.1,0.6,0.3,0.8c0,0.1,0,0.2,0,0.4l5.8,20
		c0.2,0.6,0.8,1.1,1.4,1.1h14.5h10c0.7,0,1.3-0.5,1.4-1.1L40.3,3h2.9c0.8,0,1.5-0.7,1.5-1.5C44.7,0.7,44,0,43.2,0z M3.5,7.5h8.1
		l0.6,3.9H4.7L3.5,7.5z M5.5,14.4h7.1l0.6,3.9H6.7L5.5,14.4z M8.7,25.2l-1.1-3.9h6.2l0.6,3.9H8.7z M22.2,25.2h-0.1h-4.7l-0.6-3.9
		h6.1L22.2,25.2z M23.2,18.3h-7l-0.6-3.9h8.1L23.2,18.3z M24.3,11.4h-9l-0.6-3.9h10.2L24.3,11.4z M30.9,25.2h-5.7l0.6-3.9H32
		L30.9,25.2z M32.9,18.3h-6.6l0.6-3.9H34L32.9,18.3z M34.8,11.4h-7.5l0.6-3.9h8L34.8,11.4z M9.4,30.6c-2.5,0-4.6,2.1-4.6,4.6
		c0,2.5,2,4.6,4.6,4.6c2.5,0,4.6-2,4.6-4.6C13.9,32.7,11.9,30.6,9.4,30.6z M9.4,37.1c-1,0-1.9-0.8-1.9-1.9c0-1,0.8-1.9,1.9-1.9
		c1,0,1.9,0.8,1.9,1.9C11.2,36.2,10.4,37.1,9.4,37.1z M30.3,30.6c-2.5,0-4.6,2.1-4.6,4.6c0,2.5,2.1,4.6,4.6,4.6s4.6-2,4.6-4.6
		C34.9,32.7,32.8,30.6,30.3,30.6z M30.3,37.1c-1,0-1.9-0.8-1.9-1.9c0-1,0.8-1.9,1.9-1.9c1,0,1.9,0.8,1.9,1.9
		C32.2,36.2,31.4,37.1,30.3,37.1z"/>
</g>
<g>
</g>
<g>
</g>
<g>
</g>
<g>
</g>
<g>
</g>
<g>
</g>
<g>
</g>
<g>
</g>
<g>
</g>
<g>
</g>
<g>
</g>
<g>
</g>
<g>
</g>
<g>
</g>
<g>
</g>
</svg>
