<?xml version="1.0" encoding="utf-8"?>
<!-- Generator: Adobe Illustrator 18.1.1, SVG Export Plug-In . SVG Version: 6.00 Build 0)  -->
<svg version="1.1" id="Layer_1" xmlns="http://www.w3.org/2000/svg" xmlns:xlink="http://www.w3.org/1999/xlink" x="0px" y="0px"
	 viewBox="0 0 612 627.6" enable-background="new 0 0 612 627.6" xml:space="preserve">
<g>
	<path d="M544.3,541.7H67.7C31.3,541.7,0,572.9,0,609.4v18.2h612v-18.2C612,572.9,580.7,541.7,544.3,541.7z"/>
	<path d="M546.9,239.6C546.9,106.8,437.5,0,304.7,0S65.1,106.8,65.1,239.6c0,26,0,158.9,0,250h481.8
		C546.9,401.1,546.9,268.2,546.9,239.6z M286.5,307.3l-70.3,62.5c-13,10.4-23.4,7.8-23.4-10.4V213.5c0-18.2,10.4-23.4,23.4-10.4
		l70.3,62.5C299.5,276.1,299.5,296.9,286.5,307.3z M419.3,359.4c0,18.2-10.4,23.4-23.4,10.4l-70.3-62.5c-13-10.4-13-31.3,0-41.7
		l70.3-62.5c13-10.4,23.4-7.8,23.4,10.4V359.4z"/>
</g>
<g>
</g>
<g>
</g>
<g>
</g>
<g>
</g>
<g>
</g>
<g>
</g>
<g>
</g>
<g>
</g>
<g>
</g>
<g>
</g>
<g>
</g>
<g>
</g>
<g>
</g>
<g>
</g>
<g>
</g>
</svg>
