<?xml version="1.0" encoding="utf-8"?>
<!-- Generator: Adobe Illustrator 18.1.1, SVG Export Plug-In . SVG Version: 6.00 Build 0)  -->
<svg version="1.1" id="Layer_1" xmlns="http://www.w3.org/2000/svg" xmlns:xlink="http://www.w3.org/1999/xlink" x="0px" y="0px"
	 viewBox="0 0 43.4 45.4" enable-background="new 0 0 43.4 45.4" xml:space="preserve">
<g>
	<polygon points="28.2,27.1 28.2,14.5 21.9,20.8 	"/>
	<polygon points="15.1,27.1 21.5,20.8 15.1,14.5 	"/>
	<path d="M40.6,35.3h-1.1V17.8C39.5,8,31.5,0,21.7,0C11.9,0,3.9,8,3.9,17.8v17.5H2.8c-1.5,0-2.8,1.2-2.8,2.8v7.3h43.4v-7.3
		C43.4,36.6,42.1,35.3,40.6,35.3z M35.9,35.3H7.5V17.8c0-3.9,1.6-7.5,4.2-10c2.6-2.6,6.1-4.1,10-4.2c3.9,0,7.4,1.6,10,4.2
		c2.6,2.6,4.1,6.1,4.1,10V35.3z"/>
</g>
<g>
</g>
<g>
</g>
<g>
</g>
<g>
</g>
<g>
</g>
<g>
</g>
<g>
</g>
<g>
</g>
<g>
</g>
<g>
</g>
<g>
</g>
<g>
</g>
<g>
</g>
<g>
</g>
<g>
</g>
</svg>
