<?xml version="1.0" encoding="utf-8"?>
<!-- Generator: Adobe Illustrator 18.1.1, SVG Export Plug-In . SVG Version: 6.00 Build 0)  -->
<svg version="1.1" id="Layer_1" xmlns="http://www.w3.org/2000/svg" xmlns:xlink="http://www.w3.org/1999/xlink" x="0px" y="0px"
	 viewBox="0 0 612 697.3" enable-background="new 0 0 612 697.3" xml:space="preserve">
<g>
	<path d="M348.7,160.9V156c-4.9-17.1-21.9-29.3-41.5-29.3c-2.4,0-4.9,0-9.8,0c-14.6,2.4-26.8,14.6-31.7,29.3l-2.4,7.3
		c0,2.4,0,2.4,0,4.9s0,4.9,0,4.9v4.9l39,163.4c0,2.4,2.4,2.4,2.4,2.4c2.4,0,2.4,0,2.4-2.4L343.8,178l2.4-4.9c0-2.4,0-4.9,0-4.9
		C348.7,165.8,348.7,163.4,348.7,160.9L348.7,160.9z"/>
	<ellipse cx="307.2" cy="419.4" rx="39" ry="39"/>
	<path d="M546.2,0H68.3C29.3,0,0,29.3,0,65.8v448.6c0,36.6,29.3,65.8,68.3,65.8h151.2l51.2,95.1l0,0c7.3,12.2,19.5,21.9,36.6,21.9
		c14.6,0,29.3-7.3,34.1-19.5v-2.4l51.2-95.1h151.2c36.6,0,68.3-29.3,68.3-65.8V65.8C612,29.3,582.7,0,546.2,0z M551,514.5
		c0,2.4-2.4,7.3-7.3,7.3H356l-51.2,92.7l-51.2-92.7H68.3c-2.4,0-7.3-2.4-7.3-7.3V65.8c0-2.4,2.4-7.3,7.3-7.3h477.9
		c2.4,0,7.3,2.4,7.3,7.3v448.6H551z"/>
</g>
<g>
</g>
<g>
</g>
<g>
</g>
<g>
</g>
<g>
</g>
<g>
</g>
<g>
</g>
<g>
</g>
<g>
</g>
<g>
</g>
<g>
</g>
<g>
</g>
<g>
</g>
<g>
</g>
<g>
</g>
</svg>
