<?xml version="1.0" encoding="utf-8"?>
<!-- Generator: Adobe Illustrator 18.1.1, SVG Export Plug-In . SVG Version: 6.00 Build 0)  -->
<svg version="1.1" id="Layer_1" xmlns="http://www.w3.org/2000/svg" xmlns:xlink="http://www.w3.org/1999/xlink" x="0px" y="0px"
	 viewBox="0 0 44 37.1" enable-background="new 0 0 44 37.1" xml:space="preserve">
<g>
	<path d="M21.3,0c-1.1,0-2.1,0.4-2.8,1.1l-0.1,0.1l-8.9,8.9H4c-2.2,0-4,1.8-4,4v9c0,2.2,1.8,4,4,4h5.6l8.9,8.9l0,0
		c0.7,0.7,1.7,1.2,2.8,1.2c2.2,0,4-1.8,4-4V4C25.3,1.8,23.6,0,21.3,0z M21.3,33.1L11.3,23.1H4v-9h7.3L21.3,4V33.1z"/>
	<path d="M31.6,7.9l-2.8,2.8c2,2,3.2,4.8,3.2,7.8c0,3.1-1.2,5.8-3.2,7.8l2.8,2.8c2.7-2.7,4.4-6.5,4.4-10.6
		C36,14.4,34.3,10.7,31.6,7.9z"/>
	<path d="M34.8,0l-2.4,3.2C37,6.7,40,12.3,40,18.6c0,6.3-3,11.8-7.6,15.4l2.4,3.2c5.6-4.2,9.2-11,9.2-18.6C44,11,40.4,4.2,34.8,0z"
		/>
</g>
<g>
</g>
<g>
</g>
<g>
</g>
<g>
</g>
<g>
</g>
<g>
</g>
<g>
</g>
<g>
</g>
<g>
</g>
<g>
</g>
<g>
</g>
<g>
</g>
<g>
</g>
<g>
</g>
<g>
</g>
</svg>
