<?xml version="1.0" encoding="utf-8"?>
<!-- Generator: Adobe Illustrator 18.1.1, SVG Export Plug-In . SVG Version: 6.00 Build 0)  -->
<svg version="1.1" id="Layer_1" xmlns="http://www.w3.org/2000/svg" xmlns:xlink="http://www.w3.org/1999/xlink" x="0px" y="0px"
	 viewBox="0 0 614.4 712.8" enable-background="new 0 0 614.4 712.8" xml:space="preserve">
<path d="M600,458.4c-38.4-31.2-62.4-76.8-62.4-129.6c0-57.6,0-60,0-60l0,0c0-115.2-88.8-211.2-201.6-225.6V0h-60v40.8
	C160.8,55.2,74.4,151.2,74.4,266.4c0,0,0,2.4,0,60c0,52.8-24,98.4-62.4,129.6L0,468v103.2c0,21.6,16.8,38.4,40.8,38.4h165.6
	c0,2.4,0,4.8,0,4.8c0,55.2,45.6,98.4,100.8,98.4S408,667.2,408,614.4c0-2.4,0-4.8,0-4.8h165.6c21.6,0,40.8-16.8,40.8-38.4V468
	L600,458.4z M134.4,268.8L134.4,268.8c0-93.6,76.8-168,172.8-168S480,177.6,480,268.8c0,0,0,2.4,0,60c0,45.6,14.4,88.8,38.4,124.8
	H96c24-36,38.4-79.2,38.4-124.8C134.4,268.8,134.4,268.8,134.4,268.8z M304.8,655.2c-24,0-40.8-19.2-40.8-40.8c0-2.4,0-4.8,0-4.8
	h81.6c0,2.4,0,4.8,0,4.8C348,636,328.8,655.2,304.8,655.2z M552,549.6H60v-38.4h492V549.6z"/>
<g>
</g>
<g>
</g>
<g>
</g>
<g>
</g>
<g>
</g>
<g>
</g>
<g>
</g>
<g>
</g>
<g>
</g>
<g>
</g>
<g>
</g>
<g>
</g>
<g>
</g>
<g>
</g>
<g>
</g>
</svg>
