<?xml version="1.0" encoding="utf-8"?>
<!-- Generator: Adobe Illustrator 18.1.1, SVG Export Plug-In . SVG Version: 6.00 Build 0)  -->
<svg version="1.1" id="Layer_1" xmlns="http://www.w3.org/2000/svg" xmlns:xlink="http://www.w3.org/1999/xlink" x="0px" y="0px"
	 viewBox="0 0 612 680.8" enable-background="new 0 0 612 680.8" xml:space="preserve">
<g>
	<path d="M307.1,94c91.7,0,165,73.3,165,160.4c0,0,0,2.3,0,57.3c0,43.6,13.8,84.8,36.7,119.2H463l57.3,57.3h22.9v22.9l52.7,50.4
		c2.3-4.6,4.6-11.5,4.6-18.3v-98.6l-11.5-9.2c-39-27.5-61.9-73.3-61.9-121.5c0-55,0-57.3,0-57.3l0,0c0-110-84.8-201.7-192.5-215.5V0
		h-57.3v39c-55,9.2-105.4,36.7-139.8,75.6l41.3,39C208.6,116.9,254.4,94,307.1,94z"/>
	<path d="M366.7,524.9H71.1v-36.7h259l-57.3-57.3H105.4c22.9-34.4,36.7-75.6,36.7-119.2c0-4.6,0-6.9,0-9.2l-57.3-55
		c0,2.3,0,4.6,0,9.2c0,0,0,2.3,0,57.3c0,50.4-22.9,94-59.6,123.8L13.8,447v98.6c0,20.6,16,36.7,39,36.7h158.2c0,2.3,0,4.6,0,4.6
		c0,52.7,43.6,94,96.3,94s96.3-43.6,96.3-94c0-2.3,0-4.6,0-4.6h22.9L366.7,524.9z M307.1,625.8c-22.9,0-39-18.3-39-39
		c0-2.3,0-4.6,0-4.6h77.9c0,2.3,0,4.6,0,4.6C346.1,607.4,327.8,625.8,307.1,625.8z"/>
	<polygon points="41.3,71.1 0,110 573,671.6 612,632.6 	"/>
</g>
<g>
</g>
<g>
</g>
<g>
</g>
<g>
</g>
<g>
</g>
<g>
</g>
<g>
</g>
<g>
</g>
<g>
</g>
<g>
</g>
<g>
</g>
<g>
</g>
<g>
</g>
<g>
</g>
<g>
</g>
</svg>
