<?xml version="1.0" encoding="utf-8"?>
<!-- Generator: Adobe Illustrator 18.1.1, SVG Export Plug-In . SVG Version: 6.00 Build 0)  -->
<svg version="1.1" id="Layer_1" xmlns="http://www.w3.org/2000/svg" xmlns:xlink="http://www.w3.org/1999/xlink" x="0px" y="0px"
	 viewBox="0 0 38.6 36.7" enable-background="new 0 0 38.6 36.7" xml:space="preserve">
<g>
	<path d="M38.5,13.9c-0.3-0.9-1.1-1.4-2-1.4c0,0-8,0.1-9.9,0c-0.8,0-1.5-0.6-1.8-1.3l-3.5-9.5c-0.3-1-0.9-1.7-2-1.7v0c0,0,0,0,0,0
		c0,0,0,0,0,0v0c-1.1,0-1.7,0.8-2,1.7l-3.5,9.5c-0.3,0.7-1,1.3-1.8,1.3c-2,0.1-9.9,0-9.9,0c-0.9,0-1.7,0.5-2,1.4
		c-0.3,0.9,0.1,1.8,1,2.4c0,0,8.2,6.2,8.2,6.2c0.7,0.6,0.8,1,0.8,1.7l-0.1,0.4c-0.5,2-2.2,6.6-3.2,9.3c-0.3,0.8-0.2,1.8,0.6,2.4
		c0.8,0.6,1.8,0.5,2.6-0.1c0,0,7.3-5,8.5-5.8c0.3-0.2,0.6-0.3,0.9-0.3c0.3,0,0.7,0.1,0.9,0.3c1.2,0.7,8.5,5.8,8.5,5.8
		c0.8,0.7,1.8,0.7,2.6,0.1c0.8-0.6,0.9-1.5,0.6-2.4c-1-2.6-2.7-7.2-3.2-9.3l-0.1-0.4c0-0.7,0.1-1.1,0.8-1.7c0,0,8.2-6.2,8.2-6.2
		C38.4,15.7,38.8,14.9,38.5,13.9z"/>
</g>
<g>
</g>
<g>
</g>
<g>
</g>
<g>
</g>
<g>
</g>
<g>
</g>
<g>
</g>
<g>
</g>
<g>
</g>
<g>
</g>
<g>
</g>
<g>
</g>
<g>
</g>
<g>
</g>
<g>
</g>
</svg>
