<?xml version="1.0" encoding="utf-8"?>
<!-- Generator: Adobe Illustrator 18.1.1, SVG Export Plug-In . SVG Version: 6.00 Build 0)  -->
<svg version="1.1" id="Layer_1" xmlns="http://www.w3.org/2000/svg" xmlns:xlink="http://www.w3.org/1999/xlink" x="0px" y="0px"
	 viewBox="0 0 40.4 38.5" enable-background="new 0 0 40.4 38.5" xml:space="preserve">
<g>
	<path d="M40.4,14.7c-0.1-0.3-0.4-0.6-0.7-0.6l-12.9-1.9L21,0.5C20.9,0.2,20.5,0,20.2,0c-0.3,0-0.6,0.2-0.8,0.5l-5.8,11.7L0.8,14.1
		c-0.3,0-0.6,0.3-0.7,0.6c-0.1,0.3,0,0.7,0.2,0.9l9.3,9.1L7.4,37.5c-0.1,0.3,0.1,0.7,0.4,0.9c0.2,0.1,0.3,0.2,0.5,0.2
		c0.1,0,0.3,0,0.4-0.1l11.5-6.1l11.5,6.1c0.3,0.2,0.7,0.1,0.9-0.1c0.3-0.2,0.4-0.5,0.4-0.9l-2.2-12.9l9.3-9.1
		C40.4,15.3,40.5,15,40.4,14.7z"/>
</g>
<g>
</g>
<g>
</g>
<g>
</g>
<g>
</g>
<g>
</g>
<g>
</g>
<g>
</g>
<g>
</g>
<g>
</g>
<g>
</g>
<g>
</g>
<g>
</g>
<g>
</g>
<g>
</g>
<g>
</g>
</svg>
