<?xml version="1.0" encoding="utf-8"?>
<!-- Generator: Adobe Illustrator 18.1.1, SVG Export Plug-In . SVG Version: 6.00 Build 0)  -->
<svg version="1.1" id="Layer_1" xmlns="http://www.w3.org/2000/svg" xmlns:xlink="http://www.w3.org/1999/xlink" x="0px" y="0px"
	 viewBox="0 0 42.7 36.7" enable-background="new 0 0 42.7 36.7" xml:space="preserve">
<g>
	<path d="M42.5,14.7c0,0-9.9-14.7-9.9-14.7s-9.9,14.6-9.9,14.7c-0.6,1,0,1.9,1,1.7c0.2,0,4.6-0.7,4.6-0.7v20.1h8.5V15.7
		c0,0,4.4,0.7,4.6,0.7C42.5,16.6,43.1,15.6,42.5,14.7z M19,20.3c-0.2,0-4.6,0.7-4.6,0.7V0.9H5.9v20.1c0,0-4.4-0.7-4.6-0.7
		c-1.1-0.2-1.7,0.8-1,1.7c0,0,9.8,14.5,9.9,14.7c0,0,9.9-14.6,9.9-14.7C20.7,21.1,20.1,20.2,19,20.3z"/>
</g>
<g>
</g>
<g>
</g>
<g>
</g>
<g>
</g>
<g>
</g>
<g>
</g>
<g>
</g>
<g>
</g>
<g>
</g>
<g>
</g>
<g>
</g>
<g>
</g>
<g>
</g>
<g>
</g>
<g>
</g>
</svg>
