<?xml version="1.0" encoding="utf-8"?>
<!-- Generator: Adobe Illustrator 18.1.1, SVG Export Plug-In . SVG Version: 6.00 Build 0)  -->
<svg version="1.1" id="Layer_1" xmlns="http://www.w3.org/2000/svg" xmlns:xlink="http://www.w3.org/1999/xlink" x="0px" y="0px"
	 viewBox="0 0 42.4 42.4" enable-background="new 0 0 42.4 42.4" xml:space="preserve">
<g>
	<path d="M21.2,0C9.5,0,0,9.5,0,21.2c0,11.7,9.5,21.2,21.2,21.2c11.7,0,21.2-9.5,21.2-21.2C42.4,9.5,32.9,0,21.2,0z M19.3,39.9v-4.4
		c-7-1-12.3-6.9-12.3-14.2c0-4,1.6-7.5,4.2-10.1l0.1-0.1l3.9,2.4l-0.8,0.8c-1.8,1.8-2.9,4.3-2.9,7c0,4.8,3.4,8.7,7.9,9.7v-4.4
		l8.7,6.7L19.3,39.9z M31.2,31.2l-0.1,0.1l-3.9-2.4l0.8-0.8c1.8-1.8,2.9-4.3,2.9-7c0-4.8-3.4-8.7-7.9-9.7v4.4l-8.7-6.7l8.7-6.7v4.4
		c7,1,12.3,6.9,12.3,14.2C35.4,25,33.8,28.6,31.2,31.2z"/>
</g>
<g>
</g>
<g>
</g>
<g>
</g>
<g>
</g>
<g>
</g>
<g>
</g>
<g>
</g>
<g>
</g>
<g>
</g>
<g>
</g>
<g>
</g>
<g>
</g>
<g>
</g>
<g>
</g>
<g>
</g>
</svg>
