<?xml version="1.0" encoding="utf-8"?>
<!-- Generator: Adobe Illustrator 18.1.1, SVG Export Plug-In . SVG Version: 6.00 Build 0)  -->
<svg version="1.1" id="Layer_1" xmlns="http://www.w3.org/2000/svg" xmlns:xlink="http://www.w3.org/1999/xlink" x="0px" y="0px"
	 viewBox="0 0 34.5 35.2" enable-background="new 0 0 34.5 35.2" xml:space="preserve">
<g>
	<path d="M17.3,4.4c3.4,0,6.5,1.3,8.9,3.5h-5l0,4l11.8,0L33,0l-4,0v5c-3.1-2.9-7.2-4.6-11.7-4.6C7.7,0.4,0,8.1,0,17.6h4
		C4,10.3,9.9,4.4,17.3,4.4z"/>
	<path d="M30.5,17.6c0,7.3-5.9,13.2-13.2,13.2c-3.4,0-6.5-1.3-8.9-3.5h5l0-4l-11.8,0l0,11.8h4v-5c3.1,2.9,7.2,4.6,11.7,4.6
		c9.5,0,17.2-7.7,17.2-17.3H30.5z"/>
</g>
<g>
</g>
<g>
</g>
<g>
</g>
<g>
</g>
<g>
</g>
<g>
</g>
<g>
</g>
<g>
</g>
<g>
</g>
<g>
</g>
<g>
</g>
<g>
</g>
<g>
</g>
<g>
</g>
<g>
</g>
</svg>
