<?xml version="1.0" encoding="utf-8"?>
<!-- Generator: Adobe Illustrator 18.1.1, SVG Export Plug-In . SVG Version: 6.00 Build 0)  -->
<svg version="1.1" id="Layer_1" xmlns="http://www.w3.org/2000/svg" xmlns:xlink="http://www.w3.org/1999/xlink" x="0px" y="0px"
	 viewBox="0 0 45.7 24.1" enable-background="new 0 0 45.7 24.1" xml:space="preserve">
<g>
	<path d="M1.9,14C0.9,14,0,13.1,0,12l0,0c0-1.1,0.9-1.9,1.9-1.9l0,0h10.5c1.1,0,1.9,0.9,1.9,1.9l0,0c0,1.1-0.9,1.9-1.9,1.9l0,0H1.9
		L1.9,14z"/>
	<g>
		<path d="M43.7,0H18.4c-1.1,0-2.5,0.6-3.2,1.4l-8.4,9.2c-0.7,0.8-0.7,2.1,0,2.9l8.4,9.2c0.7,0.8,2.2,1.4,3.2,1.4h25.3
			c1.1,0,1.9-0.9,1.9-1.9V1.9C45.7,0.9,44.8,0,43.7,0z M19.2,15.7c-2,0-3.7-1.7-3.7-3.7c0-2,1.6-3.7,3.7-3.7c2,0,3.7,1.7,3.7,3.7
			C22.9,14.1,21.3,15.7,19.2,15.7z"/>
	</g>
</g>
<g>
</g>
<g>
</g>
<g>
</g>
<g>
</g>
<g>
</g>
<g>
</g>
<g>
</g>
<g>
</g>
<g>
</g>
<g>
</g>
<g>
</g>
<g>
</g>
<g>
</g>
<g>
</g>
<g>
</g>
</svg>
