<?xml version="1.0" encoding="utf-8"?>
<!-- Generator: Adobe Illustrator 18.1.1, SVG Export Plug-In . SVG Version: 6.00 Build 0)  -->
<svg version="1.1" id="Layer_1" xmlns="http://www.w3.org/2000/svg" xmlns:xlink="http://www.w3.org/1999/xlink" x="0px" y="0px"
	 viewBox="0 0 43.9 43.9" enable-background="new 0 0 43.9 43.9" xml:space="preserve">
<g>
	<path d="M22,0C9.8,0,0,9.8,0,22c0,12.1,9.8,21.9,22,21.9c12.1,0,21.9-9.8,21.9-21.9C43.9,9.8,34.1,0,22,0z M22,39.3
		c-9.6,0-17.3-7.7-17.3-17.3c0-9.6,7.8-17.3,17.3-17.3c9.6,0,17.3,7.7,17.3,17.3C39.2,31.5,31.5,39.2,22,39.3z M21.9,8.9
		c-7.2,0-13,5.8-13,13c0,7.2,5.8,13,13,13c7.2,0,13-5.8,13-13C35,14.8,29.1,8.9,21.9,8.9z M21.9,30.3c-4.6,0-8.3-3.7-8.4-8.4
		c0-4.6,3.7-8.4,8.4-8.4c4.6,0,8.3,3.7,8.4,8.4C30.3,26.6,26.6,30.3,21.9,30.3z M22,18c-2.2,0-4,1.8-4,4c0,2.2,1.8,4,4,4
		c2.2,0,4-1.8,4-4C25.9,19.8,24.1,18,22,18z"/>
</g>
<g>
</g>
<g>
</g>
<g>
</g>
<g>
</g>
<g>
</g>
<g>
</g>
<g>
</g>
<g>
</g>
<g>
</g>
<g>
</g>
<g>
</g>
<g>
</g>
<g>
</g>
<g>
</g>
<g>
</g>
</svg>
