<?xml version="1.0" encoding="utf-8"?>
<!-- Generator: Adobe Illustrator 18.1.1, SVG Export Plug-In . SVG Version: 6.00 Build 0)  -->
<svg version="1.1" id="Layer_1" xmlns="http://www.w3.org/2000/svg" xmlns:xlink="http://www.w3.org/1999/xlink" x="0px" y="0px"
	 viewBox="0 0 45.8 26.3" enable-background="new 0 0 45.8 26.3" xml:space="preserve">
<g>
	<path d="M42.6,0H3.2C1.5,0,0,1.5,0,3.2v19.8c0,1.8,1.5,3.2,3.2,3.2h39.3c1.8,0,3.2-1.5,3.2-3.2V3.2C45.8,1.5,44.4,0,42.6,0z
		 M41.4,21.9h-9.9v-1.5c0-0.3-0.2-0.5-0.5-0.5l-1.4,0c-0.3,0-0.6,0.2-0.6,0.5v1.5H4.4V4.4h24.7V6c0,0.3,0.2,0.5,0.5,0.5l1.4,0
		c0.3,0,0.6-0.2,0.6-0.5V4.4h9.9V21.9z M31,7.9l-1.4,0c-0.3,0-0.5,0.2-0.5,0.5v1.5c0,0.3,0.2,0.5,0.5,0.5l1.4,0
		c0.3,0,0.6-0.2,0.5-0.5V8.4C31.5,8.1,31.3,7.9,31,7.9z M31,11.9l-1.4,0c-0.3,0-0.5,0.2-0.5,0.5v1.5c0,0.3,0.2,0.5,0.5,0.5l1.4,0
		c0.3,0,0.5-0.2,0.5-0.5v-1.5C31.5,12.1,31.3,11.9,31,11.9z M31,15.9l-1.4,0c-0.3,0-0.5,0.2-0.5,0.5v1.5c0,0.3,0.3,0.5,0.6,0.5
		l1.4,0c0.3,0,0.5-0.2,0.5-0.5v-1.5C31.5,16.1,31.3,15.9,31,15.9z"/>
</g>
<g>
</g>
<g>
</g>
<g>
</g>
<g>
</g>
<g>
</g>
<g>
</g>
<g>
</g>
<g>
</g>
<g>
</g>
<g>
</g>
<g>
</g>
<g>
</g>
<g>
</g>
<g>
</g>
<g>
</g>
</svg>
