<?xml version="1.0" encoding="utf-8"?>
<!-- Generator: Adobe Illustrator 18.1.1, SVG Export Plug-In . SVG Version: 6.00 Build 0)  -->
<svg version="1.1" id="Layer_1" xmlns="http://www.w3.org/2000/svg" xmlns:xlink="http://www.w3.org/1999/xlink" x="0px" y="0px"
	 viewBox="0 0 52.8 37.8" enable-background="new 0 0 52.8 37.8" xml:space="preserve">
<g>
	<path d="M49.1,0H11.8C9.7,0,8,1.7,8,3.8h40.6c0.3,0,0.5,0.3,0.5,0.5V29c2.1,0,3.7-1.7,3.7-3.8h0V3.8C52.8,1.7,51.2,0,49.1,0z
		 M18.3,23.8h-2.9c-0.2,0-0.4,0.2-0.4,0.4v2.1c0,0.2,0.2,0.4,0.4,0.4h2.9c0.2,0,0.4-0.2,0.4-0.4v-2.1C18.7,24,18.6,23.8,18.3,23.8z
		 M18.3,28.7h-2.9c-0.2,0-0.4,0.2-0.4,0.4v2.1c0,0.2,0.2,0.4,0.4,0.4h2.9c0.2,0,0.4-0.2,0.4-0.4v-2.1C18.7,28.9,18.6,28.7,18.3,28.7
		z M18.3,14.1h-2.9c-0.2,0-0.4,0.2-0.4,0.4v2.1c0,0.2,0.2,0.4,0.4,0.4h2.9c0.2,0,0.4-0.2,0.4-0.4v-2.1
		C18.7,14.3,18.6,14.1,18.3,14.1z M41.1,8H3.8C1.7,8,0,9.7,0,11.7h0V34c0,2.1,1.7,3.8,3.8,3.8h37.3c2.1,0,3.8-1.7,3.8-3.8h0V11.7
		C44.9,9.7,43.2,8,41.1,8z M41.1,33.5c0,0.3-0.3,0.5-0.5,0.5H4.3c-0.3,0-0.5-0.3-0.5-0.5l0-21.2h0c0-0.3,0.3-0.5,0.5-0.5h36.3
		c0.3,0,0.5,0.3,0.5,0.5V33.5L41.1,33.5z M18.3,19h-2.9c-0.2,0-0.4,0.2-0.4,0.4v2.1c0,0.2,0.2,0.4,0.4,0.4h2.9
		c0.2,0,0.4-0.2,0.4-0.4v-2.1C18.7,19.2,18.6,19,18.3,19z"/>
</g>
<g>
</g>
<g>
</g>
<g>
</g>
<g>
</g>
<g>
</g>
<g>
</g>
<g>
</g>
<g>
</g>
<g>
</g>
<g>
</g>
<g>
</g>
<g>
</g>
<g>
</g>
<g>
</g>
<g>
</g>
</svg>
