<?xml version="1.0" encoding="utf-8"?>
<!-- Generator: Adobe Illustrator 18.1.1, SVG Export Plug-In . SVG Version: 6.00 Build 0)  -->
<svg version="1.1" id="Layer_1" xmlns="http://www.w3.org/2000/svg" xmlns:xlink="http://www.w3.org/1999/xlink" x="0px" y="0px"
	 viewBox="0 0 45.3 30.7" enable-background="new 0 0 45.3 30.7" xml:space="preserve">
<g>
	<g>
		<path d="M0,2.9v24.8c0,1.6,1.3,2.9,3,2.9h26.1l0-2.9H3V2.9h14.4V0H3C1.3,0,0,1.3,0,2.9z"/>
		<path d="M42.3,0H20.3v2.9h22.1v18.6c0,0.1-0.1,0.5-0.2,0.8c-0.1,0.3-0.3,0.6-0.4,0.7L38,27.1c-0.1,0.1-0.3,0.3-0.6,0.4
			c-0.3,0.1-0.6,0.2-0.7,0.2h0v0H35v-5.9h4.4v-2.9H32v11.8h4.7v0c0.7,0,1.3-0.2,1.9-0.4c0.6-0.3,1.2-0.6,1.6-1.1l3.7-4.1
			c0.5-0.5,0.8-1.1,1-1.7c0.2-0.6,0.4-1.2,0.4-1.9V2.9C45.3,1.3,44,0,42.3,0z"/>
	</g>
	<rect x="14.4" y="6.1" width="2.9" height="2.9"/>
	<rect x="14.4" y="12.3" width="2.9" height="2.9"/>
	<rect x="14.4" y="18.4" width="2.9" height="2.9"/>
	<rect x="14.4" y="18.4" width="2.9" height="2.9"/>
</g>
<g>
</g>
<g>
</g>
<g>
</g>
<g>
</g>
<g>
</g>
<g>
</g>
<g>
</g>
<g>
</g>
<g>
</g>
<g>
</g>
<g>
</g>
<g>
</g>
<g>
</g>
<g>
</g>
<g>
</g>
</svg>
