<?xml version="1.0" encoding="utf-8"?>
<!-- Generator: Adobe Illustrator 18.1.1, SVG Export Plug-In . SVG Version: 6.00 Build 0)  -->
<svg version="1.1" id="Layer_1" xmlns="http://www.w3.org/2000/svg" xmlns:xlink="http://www.w3.org/1999/xlink" x="0px" y="0px"
	 viewBox="0 0 70.9 42.3" enable-background="new 0 0 70.9 42.3" xml:space="preserve">
<g>
	<path d="M16,20.6c-0.4,1.2-0.2,2.5,0.4,3.6c0.1,0.2,0.2,0.4,0.3,0.6c0.7,0.9,1.7,1.4,2.7,1.7c1.3,0.3,2.7,0,3.9-0.9
		c1-0.8,1.6-1.9,1.7-3c0.2-1.2-0.1-2.5-0.9-3.5c-0.2-0.3-0.4-0.5-0.7-0.7c-0.9-0.8-2-1.1-3.2-1.1L9.6,5.3l0,0C9,4.6,8.1,4.4,7.5,4.9
		C6.9,5.4,6.8,6.3,7.3,7L16,20.6z M19,20c1.1-0.8,2.6-0.7,3.5,0.4c0.8,1.1,0.7,2.6-0.4,3.5c-1.1,0.8-2.6,0.6-3.5-0.4
		C17.7,22.4,17.9,20.9,19,20z M45.3,15.7l2.1,2.7l2-1.7V32h3.7V11.8h-3.4L45.3,15.7z M70.3,14.6c-0.4-0.7-0.9-1.3-1.5-1.7
		c-0.6-0.5-1.3-0.8-2-1c-0.8-0.2-1.5-0.3-2.2-0.3c-0.7,0-1.5,0.1-2.2,0.3c-0.8,0.2-1.4,0.6-2.1,1c-0.6,0.4-1.1,1-1.5,1.7
		c-0.4,0.7-0.6,1.5-0.6,2.4v9.7c0,0.9,0.2,1.7,0.6,2.4c0.4,0.7,0.9,1.2,1.5,1.7c0.6,0.4,1.3,0.8,2,1c0.8,0.2,1.5,0.3,2.2,0.3
		c0.7,0,1.5-0.1,2.2-0.3c0.8-0.2,1.4-0.5,2-1c0.6-0.4,1.1-1,1.5-1.7c0.4-0.7,0.6-1.5,0.6-2.4V17C70.9,16.1,70.7,15.3,70.3,14.6z
		 M67.2,26c0,0.5-0.1,0.9-0.2,1.2c-0.2,0.3-0.4,0.6-0.6,0.8c-0.3,0.2-0.5,0.4-0.8,0.4c-0.3,0.1-0.6,0.1-0.9,0.1
		c-0.3,0-0.6,0-0.9-0.1c-0.3-0.1-0.6-0.2-0.9-0.4c-0.3-0.2-0.5-0.5-0.6-0.8c-0.2-0.3-0.2-0.7-0.2-1.2v-8.2c0-0.5,0.1-0.9,0.2-1.2
		c0.2-0.3,0.4-0.6,0.6-0.8c0.3-0.2,0.5-0.4,0.9-0.5c0.3-0.1,0.6-0.1,0.9-0.1c0.3,0,0.6,0,0.9,0.1c0.3,0.1,0.6,0.2,0.8,0.5
		c0.3,0.2,0.5,0.5,0.6,0.8c0.2,0.3,0.2,0.7,0.2,1.2V26z M26.7,2.4c0.1,0.3,0.1,0.7,0.1,1c0,1.1-0.3,2.1-0.7,3
		c6.3,2.3,10.8,8.3,10.8,15.4c0,2.5-0.6,4.8-1.5,6.9c-2.2,4.8-6.7,8.3-12.1,9.2c-0.9,0.2-1.9,0.3-2.8,0.3C11.4,38.3,4,30.9,4,21.9
		c0-2.1,0.4-4.1,1.2-6l-3.3-2.4C0.7,16,0,18.9,0,21.9c0,11.3,9.1,20.4,20.4,20.4c1.2,0,2.4-0.1,3.5-0.3c6.7-1.2,12.2-5.5,15-11.5
		c1.2-2.6,1.9-5.5,1.9-8.6C40.8,12.8,34.9,5.1,26.7,2.4z M20.4,6.9c1.9,0,3.4-1.5,3.4-3.4c0-1.9-1.5-3.4-3.4-3.4
		C18.5,0,17,1.5,17,3.4C17,5.3,18.5,6.9,20.4,6.9z"/>
</g>
<g>
</g>
<g>
</g>
<g>
</g>
<g>
</g>
<g>
</g>
<g>
</g>
<g>
</g>
<g>
</g>
<g>
</g>
<g>
</g>
<g>
</g>
<g>
</g>
<g>
</g>
<g>
</g>
<g>
</g>
</svg>
