<?xml version="1.0" encoding="utf-8"?>
<!-- Generator: Adobe Illustrator 18.1.1, SVG Export Plug-In . SVG Version: 6.00 Build 0)  -->
<svg version="1.1" id="Layer_1" xmlns="http://www.w3.org/2000/svg" xmlns:xlink="http://www.w3.org/1999/xlink" x="0px" y="0px"
	 viewBox="0 0 45.8 47.4" enable-background="new 0 0 45.8 47.4" xml:space="preserve">
<g>
	<path d="M29.9,2.7C30,3.1,30,3.5,30,3.8c0,1.2-0.3,2.4-0.8,3.4c7.1,2.6,12.1,9.3,12.1,17.3c0,2.8-0.6,5.4-1.7,7.8
		c-2.5,5.4-7.5,9.3-13.5,10.4c-1.1,0.2-2.1,0.3-3.2,0.3c-10.2,0-18.4-8.2-18.4-18.4c0-2.4,0.5-4.6,1.3-6.7l-3.7-2.7
		C0.8,18,0,21.1,0,24.5c0,12.6,10.2,22.9,22.9,22.9c1.4,0,2.7-0.1,3.9-0.4c7.5-1.3,13.7-6.2,16.8-12.9c1.4-2.9,2.2-6.2,2.2-9.7
		C45.8,14.3,39.1,5.7,29.9,2.7z M18,23.1c-0.4,1.3-0.2,2.8,0.5,4.1c0.1,0.2,0.2,0.4,0.4,0.6c0.8,1,1.9,1.6,3,1.9
		c1.5,0.3,3.1,0,4.4-1c1.1-0.9,1.8-2.1,2-3.4c0.2-1.4-0.1-2.8-1-4c-0.2-0.3-0.5-0.5-0.8-0.8c-1-0.8-2.3-1.3-3.5-1.2L10.7,5.9l0,0
		c-0.6-0.8-1.6-1-2.3-0.4C7.7,6,7.6,7.1,8.2,7.9L18,23.1z M21.3,22.5c1.2-0.9,2.9-0.7,3.9,0.5c0.9,1.2,0.7,3-0.5,3.9
		c-1.2,0.9-3,0.7-3.9-0.5C19.9,25.1,20.1,23.4,21.3,22.5z M22.9,7.7c2.1,0,3.9-1.7,3.9-3.9C26.8,1.7,25,0,22.9,0
		C20.8,0,19,1.7,19,3.8C19,6,20.8,7.7,22.9,7.7z"/>
</g>
<g>
</g>
<g>
</g>
<g>
</g>
<g>
</g>
<g>
</g>
<g>
</g>
<g>
</g>
<g>
</g>
<g>
</g>
<g>
</g>
<g>
</g>
<g>
</g>
<g>
</g>
<g>
</g>
<g>
</g>
</svg>
