<?xml version="1.0" encoding="utf-8"?>
<!-- Generator: Adobe Illustrator 18.1.1, SVG Export Plug-In . SVG Version: 6.00 Build 0)  -->
<svg version="1.1" id="Layer_1" xmlns="http://www.w3.org/2000/svg" xmlns:xlink="http://www.w3.org/1999/xlink" x="0px" y="0px"
	 viewBox="0 0 37.2 45" enable-background="new 0 0 37.2 45" xml:space="preserve">
<g>
	<path d="M0.3,33.3l11.4,11.4c0.5,0.5,1.2,0.5,1.7,0l2.4-2.4c0.5-0.5,0.5-1.2,0-1.7l-5.4-5.4H31v0c1.6,0,2.8-1.3,2.8-2.9
		c0-1.6-1.3-2.9-2.9-2.9c0,0-20.5,0-20.5,0l5.4-5.4c0.5-0.5,0.5-1.2,0-1.7l-2.4-2.4c-0.5-0.5-1.2-0.5-1.7,0L0.3,31.6
		C0.1,31.8,0,32.1,0,32.4C0,32.7,0.1,33,0.3,33.3z"/>
	<path d="M6.2,15.5c0,0,20.5,0,20.5,0l-5.4,5.4c-0.5,0.5-0.5,1.2,0,1.7l2.4,2.4c0.5,0.5,1.2,0.5,1.7,0l11.4-11.4
		c0.2-0.2,0.3-0.5,0.3-0.8c0-0.3-0.1-0.6-0.3-0.8L25.4,0.3c-0.5-0.5-1.2-0.5-1.7,0l-2.4,2.4c-0.5,0.5-0.5,1.2,0,1.7l5.4,5.4l-20.6,0
		c-1.6,0-2.8,1.3-2.8,2.9C3.3,14.2,4.6,15.5,6.2,15.5z"/>
</g>
<g>
</g>
<g>
</g>
<g>
</g>
<g>
</g>
<g>
</g>
<g>
</g>
<g>
</g>
<g>
</g>
<g>
</g>
<g>
</g>
<g>
</g>
<g>
</g>
<g>
</g>
<g>
</g>
<g>
</g>
</svg>
