<?xml version="1.0" encoding="utf-8"?>
<!-- Generator: Adobe Illustrator 18.1.1, SVG Export Plug-In . SVG Version: 6.00 Build 0)  -->
<svg version="1.1" id="Layer_1" xmlns="http://www.w3.org/2000/svg" xmlns:xlink="http://www.w3.org/1999/xlink" x="0px" y="0px"
	 viewBox="0 0 42.9 42.9" enable-background="new 0 0 42.9 42.9" xml:space="preserve">
<g>
	<path d="M41.7,0H1.2C0.9,0,0.6,0.1,0.3,0.3C0.1,0.6,0,0.9,0,1.2v40.6c0,0.3,0.1,0.6,0.3,0.8c0.2,0.2,0.5,0.3,0.8,0.3h40.6
		c0.3,0,0.6-0.1,0.8-0.4c0.2-0.2,0.3-0.5,0.3-0.8V1.2c0-0.3-0.1-0.6-0.4-0.8C42.3,0.1,42,0,41.7,0z M34.9,29.5
		c0,0.2-0.1,0.4-0.2,0.6c-0.2,0.2-0.4,0.2-0.6,0.2H22.5V35c0,0.3-0.2,0.6-0.4,0.7c-0.1,0.1-0.3,0.1-0.4,0.1c-0.1,0-0.3,0-0.4-0.1
		L8.5,28.2c-0.3-0.2-0.4-0.4-0.4-0.7V25c0-0.2,0.1-0.4,0.2-0.6c0.2-0.2,0.4-0.2,0.6-0.2H34c0.2,0,0.4,0.1,0.6,0.2
		c0.2,0.2,0.2,0.4,0.2,0.6V29.5z M34.9,17.9c0,0.2-0.1,0.4-0.2,0.6c-0.2,0.2-0.4,0.2-0.6,0.2H8.9c-0.2,0-0.4-0.1-0.6-0.2
		c-0.2-0.2-0.2-0.4-0.2-0.6v-4.5c0-0.2,0.1-0.4,0.2-0.6c0.2-0.2,0.4-0.2,0.6-0.2h11.5V7.9c0-0.3,0.2-0.6,0.4-0.7
		c0.3-0.1,0.6-0.1,0.8,0l12.8,7.6c0.3,0.2,0.4,0.4,0.4,0.7V17.9z"/>
</g>
<g>
</g>
<g>
</g>
<g>
</g>
<g>
</g>
<g>
</g>
<g>
</g>
<g>
</g>
<g>
</g>
<g>
</g>
<g>
</g>
<g>
</g>
<g>
</g>
<g>
</g>
<g>
</g>
<g>
</g>
</svg>
