<?xml version="1.0" encoding="utf-8"?>
<!-- Generator: Adobe Illustrator 18.1.1, SVG Export Plug-In . SVG Version: 6.00 Build 0)  -->
<svg version="1.1" id="Layer_1" xmlns="http://www.w3.org/2000/svg" xmlns:xlink="http://www.w3.org/1999/xlink" x="0px" y="0px"
	 viewBox="0 0 47.2 46.1" enable-background="new 0 0 47.2 46.1" xml:space="preserve">
<g>
	<path d="M43.1,11.4H30.2l9.2-9.2L37.3,0c0,0-7.3,7.3-11.4,11.4h-4.8C17.2,7.3,9.8,0,9.8,0L7.7,2.1l9.2,9.2H4.1
		c-2.3,0-4.1,1.8-4.1,4.1v26.6c0,2.3,1.8,4.1,4.1,4.1h39c2.3,0,4.1-1.8,4.1-4.1V15.5C47.2,13.2,45.3,11.4,43.1,11.4z M41.9,40.8H5.3
		V16.7h36.5V40.8z"/>
</g>
<g>
</g>
<g>
</g>
<g>
</g>
<g>
</g>
<g>
</g>
<g>
</g>
<g>
</g>
<g>
</g>
<g>
</g>
<g>
</g>
<g>
</g>
<g>
</g>
<g>
</g>
<g>
</g>
<g>
</g>
</svg>
