<?xml version="1.0" encoding="utf-8"?>
<!-- Generator: Adobe Illustrator 18.1.1, SVG Export Plug-In . SVG Version: 6.00 Build 0)  -->
<svg version="1.1" id="Layer_1" xmlns="http://www.w3.org/2000/svg" xmlns:xlink="http://www.w3.org/1999/xlink" x="0px" y="0px"
	 viewBox="0 0 614 389.6" enable-background="new 0 0 614 389.6" xml:space="preserve">
<path d="M578.5,0H145.6c-15.7,0-31.5,13.8-31.5,31.5v57.1L37.4,51.2l-3.9-2c-2,0-5.9-2-9.8-2C11.8,47.2,0,59,0,72.8v246
	c0,13.8,11.8,23.6,23.6,23.6c3.9,0,5.9,0,9.8-2l3.9-2l76.7-37.4l0,0l0,0v57.1c0,17.7,15.7,31.5,33.5,31.5h432.9
	c17.7,0,33.5-13.8,33.5-31.5V31.5C612,13.8,598.2,0,578.5,0z M562.8,342.4H163.3V224.3L49.2,279.4V110.2l114.1,55.1V47.2h399.5
	L562.8,342.4L562.8,342.4z"/>
<g>
</g>
<g>
</g>
<g>
</g>
<g>
</g>
<g>
</g>
<g>
</g>
<g>
</g>
<g>
</g>
<g>
</g>
<g>
</g>
<g>
</g>
<g>
</g>
<g>
</g>
<g>
</g>
<g>
</g>
</svg>
