<?xml version="1.0" encoding="utf-8"?>
<!-- Generator: Adobe Illustrator 18.1.1, SVG Export Plug-In . SVG Version: 6.00 Build 0)  -->
<svg version="1.1" id="Layer_1" xmlns="http://www.w3.org/2000/svg" xmlns:xlink="http://www.w3.org/1999/xlink" x="0px" y="0px"
	 viewBox="0 0 45.9 40.9" enable-background="new 0 0 45.9 40.9" xml:space="preserve">
<g>
	<path d="M40,20.7H15c-1.3,0-2.4,1.1-2.4,2.4v15.3c0,1.3,1.1,2.4,2.4,2.4h25c1.3,0,2.4-1.1,2.4-2.4V23.2
		C42.4,21.8,41.3,20.7,40,20.7z"/>
	<polygon points="0,39.9 9.9,34.9 9.9,26.7 0,21.7 	"/>
	<path d="M25.5,8.2c0-4.5-3.7-8.2-8.2-8.2c-4.5,0-8.2,3.7-8.2,8.2c0,4.5,3.7,8.2,8.2,8.2C21.8,16.4,25.5,12.8,25.5,8.2z"/>
	<path d="M37.7,0c-4.5,0-8.2,3.7-8.2,8.2c0,4.5,3.7,8.2,8.2,8.2c4.5,0,8.2-3.7,8.2-8.2C45.9,3.7,42.2,0,37.7,0z"/>
</g>
<g>
</g>
<g>
</g>
<g>
</g>
<g>
</g>
<g>
</g>
<g>
</g>
<g>
</g>
<g>
</g>
<g>
</g>
<g>
</g>
<g>
</g>
<g>
</g>
<g>
</g>
<g>
</g>
<g>
</g>
</svg>
