<?xml version="1.0" encoding="utf-8"?>
<!-- Generator: Adobe Illustrator 18.1.1, SVG Export Plug-In . SVG Version: 6.00 Build 0)  -->
<svg version="1.1" id="Layer_1" xmlns="http://www.w3.org/2000/svg" xmlns:xlink="http://www.w3.org/1999/xlink" x="0px" y="0px"
	 viewBox="0 0 44 40.9" enable-background="new 0 0 44 40.9" xml:space="preserve">
<g>
	<path d="M44,9.4C44,4.2,39.8,0,34.6,0v0c-4.5,0-8.3,3.2-9.2,7.5C24.5,3.2,20.7,0,16.2,0C11,0,6.8,4.2,6.8,9.4
		c0,4.9,3.7,8.9,8.4,9.4h-1.1c-2.3,0-4.2,1.9-4.2,4.2v0.5l-7.1-3.6h0C1.3,19,0,19.8,0,21.5v16.6c0,1.7,1.3,2.5,2.8,1.7h0l7.1-3.6
		v0.5c0,2.3,1.9,4.1,4.2,4.2h22.6c2.3,0,4.2-1.9,4.2-4.2V22.9c0-2.3-1.9-4.2-4.2-4.2h-1.1C40.3,18.3,44,14.3,44,9.4z M3.9,34.9V24.8
		l6,3v4L3.9,34.9z M10.7,9.4c0-3,2.4-5.5,5.5-5.5c3,0,5.5,2.5,5.5,5.5c0,3-2.5,5.5-5.5,5.5C13.1,14.9,10.7,12.4,10.7,9.4z
		 M36.9,22.7V37H13.8V22.7L36.9,22.7z M17.1,18.8c4.1-0.4,7.4-3.5,8.2-7.5c0.8,4,4.1,7.1,8.3,7.5H17.1z M34.6,14.9
		c-3,0-5.5-2.5-5.5-5.5c0-3,2.5-5.5,5.5-5.5v0c3,0,5.5,2.5,5.5,5.5C40.1,12.4,37.6,14.9,34.6,14.9z"/>
</g>
<g>
</g>
<g>
</g>
<g>
</g>
<g>
</g>
<g>
</g>
<g>
</g>
<g>
</g>
<g>
</g>
<g>
</g>
<g>
</g>
<g>
</g>
<g>
</g>
<g>
</g>
<g>
</g>
<g>
</g>
</svg>
