<?xml version="1.0" encoding="utf-8"?>
<!-- Generator: Adobe Illustrator 18.1.1, SVG Export Plug-In . SVG Version: 6.00 Build 0)  -->
<svg version="1.1" id="Layer_1" xmlns="http://www.w3.org/2000/svg" xmlns:xlink="http://www.w3.org/1999/xlink" x="0px" y="0px"
	 viewBox="0 0 43.4 42.4" enable-background="new 0 0 43.4 42.4" xml:space="preserve">
<g>
	<g>
		<g>
			<path d="M13.2,19.7c5.4,0,9.8-4.4,9.8-9.8C23,4.4,18.6,0,13.2,0C7.7,0,3.3,4.4,3.3,9.8C3.3,15.3,7.7,19.7,13.2,19.7z M13.2,4
				C16.4,4,19,6.6,19,9.8c0,3.2-2.6,5.8-5.8,5.8c-3.2,0-5.8-2.6-5.8-5.8C7.3,6.6,9.9,4,13.2,4z"/>
			<path d="M33.6,0c-5.4,0-9.8,4.4-9.8,9.8c0,5.4,4.4,9.8,9.8,9.8c5.4,0,9.8-4.4,9.8-9.8C43.4,4.4,39,0,33.6,0z M33.6,15.7
				c-3.2,0-5.8-2.6-5.8-5.8c0-3.2,2.6-5.8,5.8-5.8c3.2,0,5.8,2.6,5.8,5.8C39.4,13.1,36.8,15.7,33.6,15.7z"/>
			<path d="M34.8,21.3H11.9c-2.2,0-4,1.8-4,4l-3.8-1.9c-0.3-0.1-0.7-0.2-1.1-0.2c-1.7,0-3,1.3-3,3v11.4c0,1.7,1.3,3,3,3
				c0.4,0,0.8-0.1,1.1-0.2l3.8-1.9c0,2.2,1.8,4,4,4h22.9c2.2,0,4-1.8,4-4V25.3C38.8,23.1,37,21.3,34.8,21.3z M7.9,34L4,35.9v-8.1
				l3.9,1.9V34z M34.8,38.4H11.9V25.3h22.9V38.4z"/>
		</g>
	</g>
</g>
<g>
</g>
<g>
</g>
<g>
</g>
<g>
</g>
<g>
</g>
<g>
</g>
<g>
</g>
<g>
</g>
<g>
</g>
<g>
</g>
<g>
</g>
<g>
</g>
<g>
</g>
<g>
</g>
<g>
</g>
</svg>
