<?xml version="1.0" encoding="utf-8"?>
<!-- Generator: Adobe Illustrator 18.1.1, SVG Export Plug-In . SVG Version: 6.00 Build 0)  -->
<svg version="1.1" id="Layer_1" xmlns="http://www.w3.org/2000/svg" xmlns:xlink="http://www.w3.org/1999/xlink" x="0px" y="0px"
	 viewBox="0 0 612 520.5" enable-background="new 0 0 612 520.5" xml:space="preserve">
<g>
	<path d="M612,142.3c0-24.4-8.1-44.7-20.3-63l0,0c-18.3-26.4-46.8-46.8-79.3-59S443.2,0,404.6,0H231.8C189.1,0,152.5,6.1,120,20.3
		c-30.5,12.2-59,32.5-79.3,59c-12.2,18.3-20.3,38.6-20.3,61c0,0,0,2,0,6.1l0,0l6.1,36.6c2,20.3,20.3,32.5,38.6,34.6c2,0,2,0,2,0
		l107.8-10.2l0,0c20.3-2,34.6-18.3,34.6-38.6l0,0v-2l-2-36.6c0-2,2-2,2-2h207.4c2,0,2,2,2,2l0,0l-2,36.6v2
		c0,20.3,14.2,36.6,34.6,38.6l0,0l107.8,10.2c2,0,2,0,4.1,0c20.3,0,36.6-14.2,38.6-34.6l6.1-36.6L612,142.3L612,142.3z M557.1,166.7
		l-85.4-8.1l2-28.5c0-2,0-2,0-4.1l0,0c-2-28.5-24.4-50.8-52.9-50.8H213.5c-30.5,0-54.9,24.4-54.9,52.9v2l2,28.5l-85.4,8.1l-4.1-26.4
		c0-12.2,4.1-22.4,12.2-32.5c12.2-16.3,30.5-30.5,56.9-40.7c24.4-10.2,56.9-16.3,89.5-16.3h172.8c32.5,0,63,6.1,89.5,16.3
		c24.4,10.2,44.7,24.4,56.9,40.7l0,0c8.1,10.2,12.2,22.4,12.2,32.5L557.1,166.7z"/>
	<path d="M502.2,227.7H130.1c-18.3,0-34.6,14.2-34.6,30.5v30.5l-65.1-24.4c-16.3-8.1-30.5,2-30.5,20.3v181
		c0,18.3,14.2,28.5,30.5,20.3l0,0l65.1-26.4V490c0,16.3,14.2,30.5,34.6,30.5h372.1c18.3,0,34.6-14.2,34.6-32.5V260.3
		C536.8,242,520.5,227.7,502.2,227.7z M485.9,471.7H146.4v-87.4l-95.6,38.6v-97.6l95.6,38.6v-87.4h339.5L485.9,471.7L485.9,471.7z"
		/>
</g>
<g>
</g>
<g>
</g>
<g>
</g>
<g>
</g>
<g>
</g>
<g>
</g>
<g>
</g>
<g>
</g>
<g>
</g>
<g>
</g>
<g>
</g>
<g>
</g>
<g>
</g>
<g>
</g>
<g>
</g>
</svg>
