<?xml version="1.0" encoding="utf-8"?>
<!-- Generator: Adobe Illustrator 18.1.1, SVG Export Plug-In . SVG Version: 6.00 Build 0)  -->
<svg version="1.1" id="Layer_1" xmlns="http://www.w3.org/2000/svg" xmlns:xlink="http://www.w3.org/1999/xlink" x="0px" y="0px"
	 viewBox="0 0 52.3 29.2" enable-background="new 0 0 52.3 29.2" xml:space="preserve">
<g>
	<path d="M40.6,0H11.7C9.8,0,8.3,1.3,7.8,3H4C1.8,3,0,4.8,0,7v8.1c0,2.2,1.8,4,4,4h3.7v6.1c0,2.2,1.8,4,4,4h28.9c2.2,0,4-1.8,4-4V4
		C44.6,1.8,42.8,0,40.6,0z M7.7,15.1H4V7h3.7V15.1z M40.6,25.2H11.7V4h28.9V25.2z"/>
	<rect x="48.3" y="4" width="4" height="9.6"/>
</g>
<g>
</g>
<g>
</g>
<g>
</g>
<g>
</g>
<g>
</g>
<g>
</g>
<g>
</g>
<g>
</g>
<g>
</g>
<g>
</g>
<g>
</g>
<g>
</g>
<g>
</g>
<g>
</g>
<g>
</g>
</svg>
