<?xml version="1.0" encoding="utf-8"?>
<!-- Generator: Adobe Illustrator 18.1.1, SVG Export Plug-In . SVG Version: 6.00 Build 0)  -->
<svg version="1.1" id="Layer_1" xmlns="http://www.w3.org/2000/svg" xmlns:xlink="http://www.w3.org/1999/xlink" x="0px" y="0px"
	 viewBox="0 0 48.2 28.4" enable-background="new 0 0 48.2 28.4" xml:space="preserve">
<g>
	<path d="M47.9,13.4c0-0.1-2.6-3.3-6.9-6.7C36.8,3.4,30.9,0,24.1,0C17.4,0,11.4,3.4,7.2,6.7c-4.3,3.3-6.9,6.6-6.9,6.7
		c-0.4,0.5-0.4,1.1,0,1.6c0,0.1,2.6,3.3,6.9,6.7c4.2,3.3,10.2,6.7,16.9,6.7c6.8,0,12.7-3.4,16.9-6.7c4.3-3.3,6.9-6.6,6.9-6.7
		C48.3,14.5,48.3,13.8,47.9,13.4z M24.1,25c-6,0-10.8-4.9-10.8-10.8S18.1,3.3,24.1,3.3c6,0,10.8,4.9,10.8,10.8S30.1,25,24.1,25z"/>
	<path d="M24.1,8c-3.4,0-6.2,2.8-6.2,6.2c0,3.4,2.8,6.2,6.2,6.2c3.4,0,6.2-2.8,6.2-6.2C30.3,10.8,27.5,8,24.1,8z"/>
</g>
<g>
</g>
<g>
</g>
<g>
</g>
<g>
</g>
<g>
</g>
<g>
</g>
<g>
</g>
<g>
</g>
<g>
</g>
<g>
</g>
<g>
</g>
<g>
</g>
<g>
</g>
<g>
</g>
<g>
</g>
</svg>
