<?xml version="1.0" encoding="utf-8"?>
<!-- Generator: Adobe Illustrator 18.1.1, SVG Export Plug-In . SVG Version: 6.00 Build 0)  -->
<svg version="1.1" id="Layer_1" xmlns="http://www.w3.org/2000/svg" xmlns:xlink="http://www.w3.org/1999/xlink" x="0px" y="0px"
	 viewBox="0 0 612 539.5" enable-background="new 0 0 612 539.5" xml:space="preserve">
<g>
	<path d="M441.4,117.3L403,153.5c32,32,49,74.6,49,117.3s-17.1,85.3-49,117.3l38.4,36.3c42.6-42.6,64-98.1,64-153.5
		C507.5,215.4,484.1,159.9,441.4,117.3z"/>
	<path d="M516,42.6l-38.4,36.3l0,0c53.3,53.3,81,121.5,81,189.8s-27.7,138.6-81,191.9l38.4,36.3c64-61.8,96-145,96-228.2
		C612,189.8,580,106.6,516,42.6z"/>
	<path d="M339.1,0c-6.4,0-10.7,2.1-14.9,4.3l-4.3,4.3L166.3,140.7H36.3C14.9,140.7,0,155.7,0,174.9v191.9
		c0,19.2,14.9,34.1,36.3,34.1h130.1l153.5,132.2l4.3,2.1c4.3,4.3,10.7,4.3,14.9,4.3c14.9,0,25.6-10.7,25.6-25.6V23.5
		C364.6,10.7,354,0,339.1,0z M313.5,458.5L185.5,349.7H53.3V191.9h132.2L313.5,83.2V458.5z"/>
</g>
<g>
</g>
<g>
</g>
<g>
</g>
<g>
</g>
<g>
</g>
<g>
</g>
<g>
</g>
<g>
</g>
<g>
</g>
<g>
</g>
<g>
</g>
<g>
</g>
<g>
</g>
<g>
</g>
<g>
</g>
</svg>
