<?xml version="1.0" encoding="utf-8"?>
<!-- Generator: Adobe Illustrator 18.1.1, SVG Export Plug-In . SVG Version: 6.00 Build 0)  -->
<svg version="1.1" id="Layer_1" xmlns="http://www.w3.org/2000/svg" xmlns:xlink="http://www.w3.org/1999/xlink" x="0px" y="0px"
	 viewBox="0 0 612 681.7" enable-background="new 0 0 612 681.7" xml:space="preserve">
<g>
	<rect x="260.3" y="491.1" width="91.4" height="190.6"/>
	<rect x="260.3" y="0" width="91.4" height="40.3"/>
	<path d="M0,71.3v388.9h612V71.3H0z M63.5,418.3c-12.4,0-21.7-9.3-21.7-21.7s9.3-21.7,21.7-21.7s21.7,9.3,21.7,21.7
		C86.8,407.5,75.9,418.3,63.5,418.3z M63.5,156.5c-12.4,0-21.7-9.3-21.7-21.7c0-12.4,9.3-21.7,21.7-21.7s21.7,9.3,21.7,21.7
		C86.8,147.2,75.9,156.5,63.5,156.5z M334.7,392c0,12.4-9.3,21.7-21.7,21.7h-15.5c-12.4,0-21.7-9.3-21.7-21.7v-15.5
		c0-12.4,9.3-21.7,21.7-21.7H313c12.4,0,21.7,9.3,21.7,21.7V392z M336.2,308.3c0,12.4-10.8,21.7-23.2,21.7h-15.5
		c-12.4,0-21.7-9.3-21.7-21.7l-10.8-159.6c-1.5-17,12.4-32.5,29.4-32.5h20.1c17,0,31,13.9,29.4,32.5L336.2,308.3z M546.9,418.3
		c-12.4,0-21.7-9.3-21.7-21.7s9.3-21.7,21.7-21.7c12.4,0,21.7,9.3,21.7,21.7C568.6,407.5,559.3,418.3,546.9,418.3z M546.9,156.5
		c-12.4,0-21.7-9.3-21.7-21.7c0-12.4,9.3-21.7,21.7-21.7c12.4,0,21.7,9.3,21.7,21.7C568.6,147.2,559.3,156.5,546.9,156.5z"/>
</g>
<g>
</g>
<g>
</g>
<g>
</g>
<g>
</g>
<g>
</g>
<g>
</g>
<g>
</g>
<g>
</g>
<g>
</g>
<g>
</g>
<g>
</g>
<g>
</g>
<g>
</g>
<g>
</g>
<g>
</g>
</svg>
