<?xml version="1.0" encoding="utf-8"?>
<!-- Generator: Adobe Illustrator 18.1.1, SVG Export Plug-In . SVG Version: 6.00 Build 0)  -->
<svg version="1.1" id="Layer_1" xmlns="http://www.w3.org/2000/svg" xmlns:xlink="http://www.w3.org/1999/xlink" x="0px" y="0px"
	 viewBox="0 0 40.2 40.2" enable-background="new 0 0 40.2 40.2" xml:space="preserve">
<g>
	<path d="M33,0H7.2C3.3,0,0.1,3.1,0,7c0,0.1,0,0.1,0,0.1v0V33c0,4,3.2,7.1,7.2,7.2H33c3.9,0,7.1-3.1,7.1-7c0-0.1,0-0.1,0-0.1V7.2v0
		C40.2,3.2,37,0,33,0z M36.2,33c0,1.8-1.4,3.2-3.2,3.2H7.2c-0.5,0-1.1-0.1-1.5-0.4C4.7,35.3,4,34.2,4,33V7.2C4,5.4,5.4,4,7.2,4H33
		c0.5,0,1.1,0.1,1.5,0.4c1,0.5,1.7,1.6,1.7,2.8V33z"/>
	<g>
		<path d="M16,25.7H14l-1.1-5.2c-0.1-0.4-0.2-0.8-0.2-1.1c-0.1-0.4-0.1-0.7-0.2-1.1c-0.1-0.3-0.1-0.7-0.2-1
			c-0.1-0.3-0.1-0.6-0.2-0.9C12.1,16.7,12,17,12,17.4c-0.1,0.3-0.1,0.6-0.2,1c-0.1,0.3-0.1,0.7-0.2,1c-0.1,0.4-0.1,0.7-0.2,1.1
			l-1.1,5.3h-2L6,16.1c-0.1-0.3-0.1-0.6-0.2-0.8c-0.1-0.2-0.2-0.5-0.3-0.8h1.9c0,0.3,0.1,0.6,0.1,0.8c0,0.3,0.1,0.5,0.1,0.8l0.8,3.6
			c0.1,0.3,0.1,0.6,0.2,1c0.1,0.3,0.1,0.7,0.2,1.1C9,22.1,9,22.5,9.1,22.9c0.1,0.4,0.1,0.7,0.2,1c0.1-0.3,0.1-0.6,0.2-1
			c0.1-0.3,0.1-0.6,0.2-1c0.1-0.3,0.1-0.7,0.2-1c0.1-0.3,0.1-0.7,0.2-1.1l1.2-5.4h1.9l1.2,5.6c0,0.2,0.1,0.5,0.1,0.8
			c0.1,0.3,0.1,0.6,0.2,0.9c0.1,0.3,0.1,0.7,0.2,1c0.1,0.4,0.1,0.7,0.2,1c0.1-0.3,0.1-0.7,0.2-1c0.1-0.3,0.1-0.7,0.2-1
			c0.1-0.3,0.1-0.7,0.2-1.1c0.1-0.4,0.2-0.8,0.3-1.2l0.7-3.5c0.1-0.3,0.1-0.6,0.1-0.8c0-0.3,0.1-0.5,0.1-0.8h1.9
			c-0.1,0.3-0.2,0.6-0.3,0.8c-0.1,0.2-0.1,0.5-0.2,0.8L16,25.7z"/>
		<path d="M19.4,25.7c0-0.3,0.1-0.5,0.1-0.8c0-0.2,0-0.5,0-0.8v-8c0-0.3,0-0.6,0-0.8c0-0.3,0-0.5-0.1-0.8h4.8c0.2,0,0.4,0,0.6,0
			c0.2,0,0.5,0,0.7-0.1l-0.1,1.5c-0.2,0-0.4,0-0.7-0.1c-0.2,0-0.5,0-0.7,0h-3v3.4h2.2c0.3,0,0.5,0,0.7,0c0.2,0,0.5,0,0.7-0.1v1.5
			c-0.2,0-0.5,0-0.7-0.1c-0.2,0-0.5,0-0.7,0h-2.2v3.8H24c0.3,0,0.6,0,0.9,0c0.3,0,0.6,0,0.9-0.1v1.5c-0.4,0-0.7,0-0.9-0.1
			c-0.3,0-0.6,0-0.8,0H19.4z"/>
		<path d="M32.2,19.7c0.4,0.1,0.8,0.2,1.1,0.4c0.3,0.2,0.6,0.4,0.8,0.6c0.2,0.2,0.3,0.5,0.4,0.8c0.1,0.3,0.1,0.6,0.1,1
			c0,0.5-0.1,0.9-0.3,1.3c-0.2,0.4-0.4,0.7-0.8,1c-0.4,0.3-0.8,0.5-1.4,0.6c-0.5,0.1-1.2,0.2-1.9,0.2H27c0-0.3,0.1-0.6,0.1-0.8
			c0-0.2,0-0.5,0-0.8v-8c0-0.3,0-0.6,0-0.8c0-0.2,0-0.5-0.1-0.8h3.1c0.6,0,1.1,0,1.6,0.1c0.5,0.1,0.9,0.2,1.3,0.4
			c0.4,0.2,0.6,0.5,0.8,0.8c0.2,0.3,0.3,0.8,0.3,1.3c0,0.3,0,0.6-0.1,0.8c-0.1,0.3-0.2,0.5-0.4,0.7c-0.2,0.2-0.4,0.4-0.6,0.6
			C32.8,19.5,32.5,19.6,32.2,19.7z M32.5,17.5c0-0.3-0.1-0.6-0.2-0.8c-0.1-0.2-0.3-0.4-0.4-0.5c-0.2-0.1-0.4-0.2-0.7-0.3
			c-0.3-0.1-0.6-0.1-0.9-0.1h-1.6v3.4h1.8c0.3,0,0.6,0,0.9-0.1c0.2-0.1,0.5-0.2,0.6-0.4c0.2-0.1,0.3-0.3,0.4-0.5
			C32.4,17.9,32.5,17.7,32.5,17.5z M32.8,22.4c0-0.3-0.1-0.6-0.2-0.8c-0.1-0.2-0.3-0.4-0.5-0.6c-0.2-0.1-0.5-0.3-0.7-0.3
			c-0.3-0.1-0.6-0.1-0.9-0.1h-1.9v3.9h1.9c0.4,0,0.7,0,0.9-0.1c0.3-0.1,0.5-0.2,0.7-0.4c0.2-0.2,0.3-0.4,0.4-0.6
			C32.8,23,32.8,22.7,32.8,22.4z"/>
	</g>
</g>
<g>
</g>
<g>
</g>
<g>
</g>
<g>
</g>
<g>
</g>
<g>
</g>
<g>
</g>
<g>
</g>
<g>
</g>
<g>
</g>
<g>
</g>
<g>
</g>
<g>
</g>
<g>
</g>
<g>
</g>
</svg>
