<?xml version="1.0" encoding="utf-8"?>
<!-- Generator: Adobe Illustrator 18.1.1, SVG Export Plug-In . SVG Version: 6.00 Build 0)  -->
<svg version="1.1" id="Layer_1" xmlns="http://www.w3.org/2000/svg" xmlns:xlink="http://www.w3.org/1999/xlink" x="0px" y="0px"
	 viewBox="0 0 47.8 45.6" enable-background="new 0 0 47.8 45.6" xml:space="preserve">
<g>
	<path d="M46.3,0H1.5C0.7,0,0.1,0.6,0,1.4l0,34.4c0,0.8,0.7,1.5,1.5,1.5h44.8c0.8,0,1.5-0.7,1.5-1.5V1.4C47.8,0.6,47.1,0,46.3,0z
		 M44.2,30.1H3.7V3.6h40.5V30.1z M33.5,44.4c-2.4-0.6-3-2.4-3-4.8v-0.6H17.3v0.6c0,2.4-0.6,4.2-3,4.8c-0.6,0.1-0.6,1.2,0,1.2h19.1
		C34.1,45.6,34.1,44.6,33.5,44.4z M18.3,20.7l1.9,1.9c1-1,2.4-1.6,3.7-1.6c1.4,0,2.7,0.5,3.7,1.6l1.9-1.9c-1.5-1.6-3.6-2.3-5.6-2.3
		C21.9,18.3,19.8,19.1,18.3,20.7z M22.2,24.6c-0.9,0.9-0.9,2.4,0,3.4c0.9,0.9,2.4,0.9,3.4,0c0.9-0.9,0.9-2.4,0-3.4
		C24.7,23.7,23.2,23.7,22.2,24.6z M14.3,16.7l1.9,1.9c2.1-2.1,4.9-3.2,7.7-3.2c2.8,0,5.6,1.1,7.7,3.2l1.9-1.9c-2.6-2.6-6.1-4-9.6-4
		C20.4,12.7,17,14,14.3,16.7z M23.9,9.7c4.3,0,8.5,1.6,11.8,4.9l1.9-1.9C33.8,8.9,28.8,7,23.9,7C19,7,14,8.9,10.3,12.7l1.9,1.9
		C15.4,11.3,19.7,9.7,23.9,9.7z"/>
</g>
<g>
</g>
<g>
</g>
<g>
</g>
<g>
</g>
<g>
</g>
<g>
</g>
<g>
</g>
<g>
</g>
<g>
</g>
<g>
</g>
<g>
</g>
<g>
</g>
<g>
</g>
<g>
</g>
<g>
</g>
</svg>
