<?xml version="1.0" encoding="utf-8"?>
<!-- Generator: Adobe Illustrator 18.1.1, SVG Export Plug-In . SVG Version: 6.00 Build 0)  -->
<svg version="1.1" id="Layer_1" xmlns="http://www.w3.org/2000/svg" xmlns:xlink="http://www.w3.org/1999/xlink" x="0px" y="0px"
	 viewBox="0 0 53.1 42.2" enable-background="new 0 0 53.1 42.2" xml:space="preserve">
<g>
	<path d="M23.3,34.3c-1.8,1.8-1.8,4.7,0,6.6c1.8,1.8,4.7,1.8,6.5,0c1.8-1.8,1.8-4.7,0-6.6C28,32.4,25.1,32.5,23.3,34.3z M26.5,0
		C16.9,0,7.3,3.7,0,11l3.6,3.6C10,8.3,18.2,5.2,26.5,5.2c8.3,0,16.6,3.1,22.9,9.5l3.6-3.6C45.8,3.7,36.1,0,26.5,0z M15.6,26.6
		l3.6,3.6c2-2,4.7-3,7.3-3c2.7,0,5.3,1,7.3,3l3.6-3.6c-3-3-7-4.5-10.9-4.5C22.6,22,18.6,23.6,15.6,26.6z M7.9,18.8l3.6,3.6
		c4.2-4.2,9.6-6.2,15.1-6.2c5.5,0,10.9,2.1,15.1,6.2l3.6-3.6c-5.2-5.2-11.9-7.7-18.7-7.7C19.8,11.1,13,13.7,7.9,18.8z"/>
</g>
<g>
</g>
<g>
</g>
<g>
</g>
<g>
</g>
<g>
</g>
<g>
</g>
<g>
</g>
<g>
</g>
<g>
</g>
<g>
</g>
<g>
</g>
<g>
</g>
<g>
</g>
<g>
</g>
<g>
</g>
</svg>
