<?xml version="1.0" encoding="utf-8"?>
<!-- Generator: Adobe Illustrator 18.1.1, SVG Export Plug-In . SVG Version: 6.00 Build 0)  -->
<svg version="1.1" id="Layer_1" xmlns="http://www.w3.org/2000/svg" xmlns:xlink="http://www.w3.org/1999/xlink" x="0px" y="0px"
	 viewBox="0 0 46.8 46.9" enable-background="new 0 0 46.8 46.9" xml:space="preserve">
<g>
	<path d="M44.8,11.3c2.6-2.6,2.6-6.8,0-9.4c-2.6-2.6-6.8-2.6-9.4,0c-0.1,0.1,0,0-1.5,1.5H3.7c-1,0-1.9,0.4-2.6,1.1
		C0.4,5.3,0,6.2,0,7.2v36c0,1,0.4,1.9,1.1,2.6c0.7,0.7,1.6,1.1,2.6,1.1l36,0c1,0,1.9-0.4,2.6-1.1c0.7-0.7,1.1-1.6,1.1-2.6V17.8
		l-3.3,3.3v22.1c0,0.1-0.1,0.3-0.1,0.3c-0.1,0.1-0.2,0.1-0.3,0.1h-36c-0.1,0-0.3-0.1-0.3-0.1c-0.1-0.1-0.1-0.2-0.1-0.3v-36
		c0-0.1,0.1-0.3,0.1-0.3c0.1-0.1,0.2-0.1,0.3-0.1h27c-6.4,6.4-15.9,15.9-15.9,15.9l9.4,9.4C24.2,31.9,44.5,11.7,44.8,11.3z
		 M9.3,36.2c-0.1,0.4,0,0.8,0.3,1c0.3,0.3,0.7,0.4,1,0.3l11.2-3.2l-9.4-9.4L9.3,36.2z"/>
</g>
<g>
</g>
<g>
</g>
<g>
</g>
<g>
</g>
<g>
</g>
<g>
</g>
<g>
</g>
<g>
</g>
<g>
</g>
<g>
</g>
<g>
</g>
<g>
</g>
<g>
</g>
<g>
</g>
<g>
</g>
</svg>
