<?xml version="1.0" encoding="utf-8"?>
<!-- Generator: Adobe Illustrator 18.1.1, SVG Export Plug-In . SVG Version: 6.00 Build 0)  -->
<svg version="1.1" id="Layer_1" xmlns="http://www.w3.org/2000/svg" xmlns:xlink="http://www.w3.org/1999/xlink" x="0px" y="0px"
	 viewBox="0 0 46.9 32.8" enable-background="new 0 0 46.9 32.8" xml:space="preserve">
<g>
	<path d="M8.5,17.6h15.1v-2.5H8.5V17.6z M23.6,7.7H8.5v2.5h15.1V7.7z M46.5,7.2l-4.4-4.4c-0.3-0.3-0.7-0.5-1.1-0.5
		c-0.4,0-0.8,0.2-1.1,0.5l-13,13c-0.2,0.2-0.3,0.4-0.4,0.6l0,0l-2.1,6.2h-9.9v0H8.5v2.5h9.2v0h8.2v0l0.4-0.1l6.6-2.2v0
		c0.2-0.1,0.4-0.2,0.6-0.4l13-13c0.3-0.3,0.5-0.7,0.5-1.1C46.9,7.8,46.8,7.4,46.5,7.2z M31.6,20.1l-3.8,1.3l1.3-3.9L41,5.7l2.5,2.5
		L31.6,20.1z M30.3,29.7l-0.1,0.2l0,0l-0.1,0l0,0c0,0-0.1,0-0.1,0L3.1,30l-0.1,0l0,0l-0.1,0l0,0c0,0,0-0.1,0-0.1l0,0V3.1L2.9,3l0,0
		l0.1,0l0,0c0,0,0.1,0,0.1,0l26.9,0l0.1,0l0,0l0.1,0l0,0c0,0,0,0.1,0,0.1l0,0v6.1l2.9-2.9V3.1C33.1,1.4,31.7,0,30,0H3.1h0
		C1.8,0,0.6,0.9,0.2,2c0,0,0,0,0,0C0.1,2.2,0.1,2.4,0.1,2.5C0,2.7,0,2.8,0,3c0,0,0,0.1,0,0.1v26.6c0,1.7,1.4,3.1,3.1,3.1H30l0,0
		c1.3,0,2.5-0.9,2.9-2c0,0,0,0,0,0c0.1-0.2,0.1-0.3,0.1-0.5c0-0.1,0-0.3,0-0.4c0,0,0-0.1,0-0.1V25l-2.9,1V29.7z"/>
</g>
<g>
</g>
<g>
</g>
<g>
</g>
<g>
</g>
<g>
</g>
<g>
</g>
<g>
</g>
<g>
</g>
<g>
</g>
<g>
</g>
<g>
</g>
<g>
</g>
<g>
</g>
<g>
</g>
<g>
</g>
</svg>
