<?xml version="1.0" encoding="utf-8"?>
<!-- Generator: Adobe Illustrator 18.1.1, SVG Export Plug-In . SVG Version: 6.00 Build 0)  -->
<svg version="1.1" id="Layer_1" xmlns="http://www.w3.org/2000/svg" xmlns:xlink="http://www.w3.org/1999/xlink" x="0px" y="0px"
	 viewBox="0 0 41.4 31.7" enable-background="new 0 0 41.4 31.7" xml:space="preserve">
<g>
	<path d="M41.4,7.5c0-0.4-0.2-0.8-0.4-1.1l-5.1-5.1c-0.6-0.6-1.5-0.6-2.1,0L30,5V2.7C30,1.2,28.9,0,27.4,0H2.7C1.2,0,0,1.2,0,2.7V29
		c0,1.5,1.2,2.7,2.7,2.7l24.7,0c1.5,0,2.7-1.2,2.7-2.7v-9.5L41,8.6C41.3,8.3,41.4,7.9,41.4,7.5z M30.7,8.6l3,3l-8,8L22,20.3l0.8-3.8
		L30.7,8.6z M3,28.7V3l24,0v5l-6.7,6.7c-0.2,0.2-0.4,0.5-0.4,0.8l-1.1,5.2H7c-0.8,0-1.5,0.7-1.5,1.5c0,0.8,0.7,1.5,1.5,1.5h12.4H20
		c0,0,0,0,0,0c0,0,0,0,0,0c0.1,0,0.2,0,0.3,0l6.4-1.3c0.1,0,0.2-0.1,0.3-0.1v6.4L3,28.7z M35.8,9.5l-3-3l2-2l3,3L35.8,9.5z"/>
</g>
<g>
</g>
<g>
</g>
<g>
</g>
<g>
</g>
<g>
</g>
<g>
</g>
<g>
</g>
<g>
</g>
<g>
</g>
<g>
</g>
<g>
</g>
<g>
</g>
<g>
</g>
<g>
</g>
<g>
</g>
</svg>
