<?xml version="1.0" encoding="utf-8"?>
<!-- Generator: Adobe Illustrator 18.1.1, SVG Export Plug-In . SVG Version: 6.00 Build 0)  -->
<svg version="1.1" id="Layer_1" xmlns="http://www.w3.org/2000/svg" xmlns:xlink="http://www.w3.org/1999/xlink" x="0px" y="0px"
	 viewBox="0 0 612.6 599.3" enable-background="new 0 0 612.6 599.3" xml:space="preserve">
<path d="M600.5,84.3L600.5,84.3l-76.2-73.9c-13.9-13.9-39.3-13.9-55.4,0l-39.3,37H37c-20.8,0-37,18.5-37,39.3v475.7
	c0,20.8,16.2,37,39.3,37h485c20.8,0,39.3-16.2,39.3-37V229.8l-57.7,55.4v256.3h-448V102.8h316.4L173.2,299.1l-25.4,124.7
	c-4.6,20.8,9.2,34.6,30,30l0,0l127-25.4l295.6-291l0,0C616.6,123.6,616.6,100.5,600.5,84.3z M519.6,137.4L411.1,243.6L277.1,375.3
	l-30,6.9l0,0l0,0l-30,6.9l6.9-30l0,0l0,0l6.9-30l27.7-27.7l0,0L473.4,88.9l0,0l27.7-27.7l25.4,23.1l0,0l0,0l25.4,23.1L519.6,137.4z"
	/>
<g>
</g>
<g>
</g>
<g>
</g>
<g>
</g>
<g>
</g>
<g>
</g>
<g>
</g>
<g>
</g>
<g>
</g>
<g>
</g>
<g>
</g>
<g>
</g>
<g>
</g>
<g>
</g>
<g>
</g>
</svg>
