<?xml version="1.0" encoding="utf-8"?>
<!-- Generator: Adobe Illustrator 18.1.1, SVG Export Plug-In . SVG Version: 6.00 Build 0)  -->
<svg version="1.1" id="Layer_1" xmlns="http://www.w3.org/2000/svg" xmlns:xlink="http://www.w3.org/1999/xlink" x="0px" y="0px"
	 viewBox="0 0 51.2 45.5" enable-background="new 0 0 51.2 45.5" xml:space="preserve">
<g>
	<path d="M50.6,30.5c0.4-0.7,0.6-1.5,0.6-2.3c0-1.1-0.4-2.2-1.1-3c-1-1.3-2.5-2.2-4.3-2.9c-1.8-0.7-3.9-1-6.1-1
		c-3,0-5.7,0.6-7.8,1.8c-1,0.6-1.9,1.3-2.6,2.1c-0.7,0.9-1.1,1.9-1.1,3c0,0.8,0.2,1.6,0.6,2.3c-0.4,0.7-0.6,1.6-0.6,2.4
		c0,0.9,0.3,1.8,0.7,2.5c-0.4,0.8-0.7,1.6-0.7,2.5c0,1.2,0.4,2.3,1.1,3.2c1,1.4,2.5,2.4,4.3,3.1c1.8,0.7,3.9,1.1,6.2,1.1
		c3,0,5.7-0.7,7.8-2c1-0.6,1.9-1.4,2.6-2.3c0.7-0.9,1.1-2,1.1-3.2c0-0.9-0.2-1.8-0.7-2.5c0.4-0.8,0.7-1.6,0.7-2.5
		C51.2,32.1,51,31.2,50.6,30.5z M46.7,35.5c-0.5,0.4-1.1,0.7-1.9,1c-1.4,0.6-3.2,0.9-5.1,0.9c-2.5,0-4.8-0.6-6.3-1.5
		c-0.2-0.1-0.4-0.3-0.6-0.4c-0.5-0.3-0.8-0.7-1.1-1.1c-0.3-0.5-0.5-1-0.5-1.4c0,0,0,0,0,0c0,0,0,0,0,0c0.7,0.5,1.5,0.9,2.4,1.2
		c0.3,0.1,0.6,0.2,1,0.3c1.6,0.5,3.3,0.7,5.1,0.7c1.8,0,3.6-0.3,5.1-0.7c1-0.3,1.9-0.6,2.7-1.1c0.2-0.1,0.5-0.3,0.7-0.4c0,0,0,0,0,0
		c0,0,0,0,0,0h0l0,0c0,0,0,0,0,0c0,0.5-0.2,0.9-0.5,1.4C47.5,34.8,47.1,35.1,46.7,35.5z M31.7,27c0.5-0.7,1.6-1.4,3-1.9
		c1.4-0.5,3.2-0.8,5.1-0.8c2.5,0,4.8,0.6,6.4,1.4c0.8,0.4,1.3,0.9,1.7,1.4c0.2,0.3,0.3,0.6,0.4,0.9c0,0.1,0.1,0.3,0.1,0.4
		c0,0.4-0.1,0.8-0.5,1.2c-0.2,0.3-0.6,0.7-1.1,1c-0.5,0.3-1.1,0.7-1.8,0.9c0,0-0.1,0-0.1,0c-1.4,0.5-3.2,0.8-5.1,0.8
		c-1.9,0-3.7-0.3-5.2-0.9c-0.4-0.2-0.9-0.4-1.2-0.6c-0.2-0.1-0.4-0.3-0.6-0.4c-0.5-0.3-0.8-0.6-1.1-1c-0.3-0.5-0.5-0.8-0.5-1.2
		c0-0.1,0-0.3,0.1-0.4C31.3,27.6,31.4,27.3,31.7,27z M47.8,39.5c-0.5,0.8-1.6,1.6-3,2.1c-1.4,0.6-3.2,0.9-5.1,0.9
		c-2.5,0-4.8-0.6-6.3-1.5c-0.8-0.5-1.3-1-1.7-1.5c-0.4-0.5-0.5-1-0.5-1.5c0,0,0,0,0-0.1c0.7,0.5,1.5,0.9,2.4,1.3
		c1.8,0.7,3.9,1.1,6.2,1.1c3,0,5.7-0.7,7.8-2c0.2-0.1,0.5-0.3,0.7-0.5c0,0,0,0,0,0.1C48.3,38.5,48.1,39,47.8,39.5z"/>
	<path d="M42.5,0.9C42.7,0.4,42.3,0,41.8,0H8.6c-0.4,0-0.8,0.2-1,0.6C7.5,0.7,7.3,0.9,7.2,1.1l-7.2,17c-0.3,0.6,0.1,1.1,0.7,1.1h6.8
		v12c0,0.6,0.5,1.2,1.2,1.2h16.8c0-0.1-0.3-2.8,0.1-2.9H10.6V19.2H34c0.3,0,1-0.5,1.3-1.1l4.4-10.3v10.6c0,0,2,0.1,2.9,0.2L42.5,0.9
		z M32.8,16.2H4.1L9.7,2.9h28.8C37.1,6.3,34.7,11.9,32.8,16.2z"/>
</g>
<g>
</g>
<g>
</g>
<g>
</g>
<g>
</g>
<g>
</g>
<g>
</g>
<g>
</g>
<g>
</g>
<g>
</g>
<g>
</g>
<g>
</g>
<g>
</g>
<g>
</g>
<g>
</g>
<g>
</g>
</svg>
