<?xml version="1.0" encoding="utf-8"?>
<!-- Generator: Adobe Illustrator 18.1.1, SVG Export Plug-In . SVG Version: 6.00 Build 0)  -->
<svg version="1.1" id="Layer_1" xmlns="http://www.w3.org/2000/svg" xmlns:xlink="http://www.w3.org/1999/xlink" x="0px" y="0px"
	 viewBox="0 0 612 520.3" enable-background="new 0 0 612 520.3" xml:space="preserve">
<path d="M576.4,0H146c-18.7,0-35.6,15-35.6,35.6v275.1L5.6,479.1C1.9,484.7,0,490.3,0,496c0,7.5,3.7,15,9.4,18.7
	c5.6,3.7,13.1,5.6,18.7,5.6h430.5c16.8,0,33.7-9.4,43-24.3L612,320V35.6C612,15,597,0,576.4,0z M146,33.7h430.5l1.9,1.9v263.9H144.1
	V35.6L146,33.7z M473.5,479.1c0,3.7-11.2,9.4-15,7.5H39.3l97.3-153.5h428.6L473.5,479.1z"/>
<g>
</g>
<g>
</g>
<g>
</g>
<g>
</g>
<g>
</g>
<g>
</g>
<g>
</g>
<g>
</g>
<g>
</g>
<g>
</g>
<g>
</g>
<g>
</g>
<g>
</g>
<g>
</g>
<g>
</g>
</svg>
