<?xml version="1.0" encoding="utf-8"?>
<!-- Generator: Adobe Illustrator 18.1.1, SVG Export Plug-In . SVG Version: 6.00 Build 0)  -->
<svg version="1.1" id="Layer_1" xmlns="http://www.w3.org/2000/svg" xmlns:xlink="http://www.w3.org/1999/xlink" x="0px" y="0px"
	 viewBox="0 0 35.2 40.3" enable-background="new 0 0 35.2 40.3" xml:space="preserve">
<g>
	<path d="M27.3,0H8C3.6,0,0,3.6,0,8v24.4c0,4.4,3.6,8,8,8h19.3c4.4,0,8-3.6,8-8V8C35.2,3.6,31.7,0,27.3,0z M29.8,34.9
		c-0.7,0.7-1.5,1.1-2.5,1.1H8c-1,0-1.9-0.4-2.5-1.1c-0.7-0.7-1.1-1.5-1.1-2.5V8c0-1,0.4-1.9,1.1-2.5C6.1,4.8,7,4.4,8,4.4h19.3
		c1,0,1.9,0.4,2.5,1.1c0.7,0.7,1,1.5,1.1,2.5v24.4C30.9,33.4,30.5,34.3,29.8,34.9z"/>
	<path d="M10.2,15H9.5c-1.2,0-2.2,1-2.2,2.2s1,2.2,2.2,2.2h0.7c1.2,0,2.2-1,2.2-2.2S11.4,15,10.2,15z"/>
	<path d="M18,15h-0.7c-1.2,0-2.2,1-2.2,2.2s1,2.2,2.2,2.2H18c1.2,0,2.2-1,2.2-2.2S19.2,15,18,15z"/>
	<path d="M25.8,15H25c-1.2,0-2.2,1-2.2,2.2s1,2.2,2.2,2.2h0.7c1.2,0,2.2-1,2.2-2.2S27,15,25.8,15z"/>
	<path d="M10.2,21.5H9.5c-1.2,0-2.2,1-2.2,2.2c0,1.2,1,2.2,2.2,2.2h0.7c1.2,0,2.2-1,2.2-2.2C12.4,22.5,11.4,21.5,10.2,21.5z"/>
	<path d="M18,21.5h-0.7c-1.2,0-2.2,1-2.2,2.2c0,1.2,1,2.2,2.2,2.2H18c1.2,0,2.2-1,2.2-2.2C20.2,22.5,19.2,21.5,18,21.5z"/>
	<path d="M25.8,21.5H25c-1.2,0-2.2,1-2.2,2.2c0,1.2,1,2.2,2.2,2.2h0.7c1.2,0,2.2-1,2.2-2.2C28,22.5,27,21.5,25.8,21.5z"/>
	<path d="M10.2,28.1H9.5c-1.2,0-2.2,1-2.2,2.2c0,1.2,1,2.2,2.2,2.2h0.7c1.2,0,2.2-1,2.2-2.2C12.4,29.1,11.4,28.1,10.2,28.1z"/>
	<path d="M18,28.1h-0.7c-1.2,0-2.2,1-2.2,2.2c0,1.2,1,2.2,2.2,2.2H18c1.2,0,2.2-1,2.2-2.2C20.2,29.1,19.2,28.1,18,28.1z"/>
	<path d="M25.8,28.1H25c-1.2,0-2.2,1-2.2,2.2c0,1.2,1,2.2,2.2,2.2h0.7c1.2,0,2.2-1,2.2-2.2C28,29.1,27,28.1,25.8,28.1z"/>
	<path d="M25.8,7.2H9.4c-1.2,0-2.2,1-2.2,2.2c0,1.2,1,2.2,2.2,2.2h16.5c1.2,0,2.2-1,2.2-2.2C28,8.2,27.1,7.2,25.8,7.2z"/>
</g>
<g>
</g>
<g>
</g>
<g>
</g>
<g>
</g>
<g>
</g>
<g>
</g>
<g>
</g>
<g>
</g>
<g>
</g>
<g>
</g>
<g>
</g>
<g>
</g>
<g>
</g>
<g>
</g>
<g>
</g>
</svg>
