<?xml version="1.0" encoding="utf-8"?>
<!-- Generator: Adobe Illustrator 18.1.1, SVG Export Plug-In . SVG Version: 6.00 Build 0)  -->
<svg version="1.1" id="Layer_1" xmlns="http://www.w3.org/2000/svg" xmlns:xlink="http://www.w3.org/1999/xlink" x="0px" y="0px"
	 viewBox="0 0 42 42" enable-background="new 0 0 42 42" xml:space="preserve">
<g>
	<path d="M0,0v42h42V0H0z M17.3,34.6L15,36.8l-3.4-3.4l-3.4,3.4l-2.2-2.2l3.4-3.4l-3.4-3.4l2.2-2.2l3.4,3.4l3.4-3.4l0.4,0.4l1.4,1.4
		l0.4,0.4l-3.4,3.4L17.3,34.6z M18,10.9v2.6h-4.8v4.8h-0.6H10v-4.8H5.2v-0.6v-2.6H10V5.5h0.6h2.6v4.8h4.2H18V10.9z M36,33.2v2.6
		H24.9v-0.6v-2.6h10.5H36V33.2z M24.9,29.7v-0.6v-2.6h10.5H36v0.6v2.6H24.9z M36.8,10.9v2.6H24v-0.6v-2.6h12.2h0.6V10.9z"/>
</g>
<g>
</g>
<g>
</g>
<g>
</g>
<g>
</g>
<g>
</g>
<g>
</g>
<g>
</g>
<g>
</g>
<g>
</g>
<g>
</g>
<g>
</g>
<g>
</g>
<g>
</g>
<g>
</g>
<g>
</g>
</svg>
