<?xml version="1.0" encoding="utf-8"?>
<!-- Generator: Adobe Illustrator 18.1.1, SVG Export Plug-In . SVG Version: 6.00 Build 0)  -->
<svg version="1.1" id="Layer_1" xmlns="http://www.w3.org/2000/svg" xmlns:xlink="http://www.w3.org/1999/xlink" x="0px" y="0px"
	 viewBox="0 0 43.2 43.3" enable-background="new 0 0 43.2 43.3" xml:space="preserve">
<g>
	<path d="M32,12.9c0.6-1,1-2.1,1-3.3c0-1.5-0.6-2.9-1.5-4.1c-1.4-1.8-3.5-3.1-6.1-4C22.8,0.5,19.8,0,16.5,0C12.1,0,8.2,0.9,5.2,2.5
		c-1.5,0.8-2.8,1.8-3.7,3C0.6,6.7,0,8.1,0,9.6c0,1.2,0.4,2.3,1,3.3c-0.6,1.1-1,2.3-1,3.6c0,1.3,0.4,2.6,1.1,3.8
		C0.4,21.4,0,22.7,0,24c0,1.6,0.5,3,1.5,4.3c1.4,1.9,3.5,3.4,6.1,4.4c2.6,1,5.7,1.6,8.9,1.6c0.1,0,0.3,0,0.4,0c-0.2-0.5-0.2-1,0-1.5
		c0.1-0.2,0.2-0.4,0.3-0.7l0.5-0.9c-0.4,0-0.8,0.1-1.2,0.1c-3.9,0-7.4-1-9.9-2.4c-1.2-0.7-2.2-1.6-2.8-2.4c-0.6-0.9-0.9-1.7-0.9-2.6
		c0-0.5,0.1-0.9,0.3-1.4c1.2,1,2.7,1.9,4.3,2.6c2.6,1,5.7,1.6,8.9,1.6c4.4,0,8.4-1,11.4-2.8c0.7-0.4,1.3-0.9,1.9-1.4
		C30,23.1,30,23.6,30,24c0,0.9-0.3,1.7-0.9,2.6c-0.9,1.3-2.6,2.5-4.8,3.4c-0.6,0.2-1.3,0.5-2,0.7l1.4,1.1l1.3,1.1
		c1-0.4,2-0.8,2.8-1.3c1.5-0.9,2.8-2,3.7-3.2c0.9-1.3,1.5-2.7,1.5-4.3c0-1.4-0.4-2.6-1.1-3.8c0.7-1.1,1.1-2.4,1.1-3.8
		C33,15.2,32.6,14,32,12.9z M28,20.3c-0.9,0.8-2.2,1.6-3.7,2.2c-2.2,0.9-4.9,1.4-7.9,1.4c-3.9,0-7.4-0.9-9.9-2.4
		c-0.6-0.4-1.2-0.8-1.7-1.2c-0.4-0.4-0.7-0.7-1-1.1c0,0-0.1-0.1-0.1-0.1c-0.3-0.4-0.5-0.8-0.6-1.2C3,17.4,2.9,17,2.9,16.5
		c0-0.4,0.1-0.9,0.2-1.3c0.6,0.5,1.2,0.9,2,1.3c0.5,0.3,1.1,0.5,1.6,0.8c0.3,0.1,0.5,0.2,0.8,0.4C8,17.8,8.4,17.9,8.8,18
		c2.3,0.7,4.9,1.1,7.7,1.1c2.8,0,5.4-0.4,7.8-1.1c0.7-0.2,1.4-0.5,2-0.7c0.5-0.2,1.1-0.5,1.6-0.7c0,0,0,0,0.1,0
		c0.7-0.4,1.4-0.8,2-1.3c0.1,0.4,0.2,0.8,0.2,1.2c0,0.5-0.1,0.9-0.3,1.4c-0.1,0.4-0.4,0.8-0.6,1.2c0,0-0.1,0.1-0.1,0.1
		C28.8,19.6,28.4,19.9,28,20.3z M3.8,7.3C4.7,6.2,6.4,5,8.6,4.2c2.2-0.8,4.9-1.3,7.9-1.3c3.9,0,7.5,0.9,9.9,2.2
		c1.2,0.7,2.2,1.4,2.8,2.2C29.8,8.1,30,8.8,30,9.6c0,0.3-0.1,0.6-0.2,0.9c-0.1,0.4-0.4,0.9-0.7,1.3c0,0,0,0,0,0
		c-0.3,0.3-0.6,0.7-1,1c-0.9,0.8-2.2,1.5-3.8,2.1c0,0-0.1,0-0.1,0c-0.9,0.3-1.8,0.6-2.8,0.8c-1.5,0.3-3.2,0.5-5,0.5
		c-1.8,0-3.4-0.2-5-0.5c-1-0.2-2-0.5-2.8-0.8c-0.8-0.3-1.5-0.6-2.1-0.9c-0.7-0.4-1.2-0.8-1.7-1.2c-0.4-0.3-0.8-0.7-1-1c0,0,0,0,0,0
		c-0.4-0.5-0.6-0.9-0.7-1.4C3,10.1,2.9,9.9,2.9,9.6C2.9,8.8,3.2,8.1,3.8,7.3z"/>
	<path d="M19.1,33.8l0-0.3l0.4-0.7c-0.8,0.1-1.7,0.2-2.6,0.2c-0.1,0.5-0.1,1,0,1.5c0.8,0,1.7-0.1,2.5-0.2L19.1,33.8z"/>
	<g>
		<path d="M43.1,26.1L42.4,25c-0.1-0.1-0.2-0.1-0.3-0.1c0,0-0.1,0-0.1,0c0,0,0,0,0,0c-4.8,1.8-12.2,7.9-15.6,12l-6.1-5.1
			c-0.1,0-0.1-0.1-0.2-0.1c0,0,0,0-0.1,0c-0.1,0-0.2,0.1-0.2,0.1L19,33.4c-0.1,0.1-0.1,0.2,0,0.3l7.9,9.6c0,0,6.4-10.7,16.1-16.8
			c0.1,0,0.1-0.1,0.1-0.2C43.2,26.3,43.2,26.2,43.1,26.1z"/>
	</g>
</g>
<g>
</g>
<g>
</g>
<g>
</g>
<g>
</g>
<g>
</g>
<g>
</g>
<g>
</g>
<g>
</g>
<g>
</g>
<g>
</g>
<g>
</g>
<g>
</g>
<g>
</g>
<g>
</g>
<g>
</g>
</svg>
