<?xml version="1.0" encoding="utf-8"?>
<!-- Generator: Adobe Illustrator 18.1.1, SVG Export Plug-In . SVG Version: 6.00 Build 0)  -->
<svg version="1.1" id="Layer_1" xmlns="http://www.w3.org/2000/svg" xmlns:xlink="http://www.w3.org/1999/xlink" x="0px" y="0px"
	 viewBox="0 0 41 49.5" enable-background="new 0 0 41 49.5" xml:space="preserve">
<g>
	<path d="M23.9,42.6c-3.1,1.7-6.9,2.5-11,2.5c-4.2,0-7.9-0.9-11-2.5c-0.6-0.3-1.1-0.7-1.7-1c-0.1,0.3-0.1,0.7-0.1,1
		c0,3.9,5.8,7,12.8,7c7.1,0,12.8-3.1,12.8-7c0-0.3-0.1-0.7-0.1-1C25,41.9,24.4,42.2,23.9,42.6z"/>
	<path d="M28.1,14C35.2,14,41,10.9,41,7c0-3.9-5.8-7-12.8-7C21,0,15.3,3.1,15.3,7C15.3,10.9,21,14,28.1,14z"/>
	<path d="M39.1,15.5c-3.1,1.7-6.9,2.5-11,2.6c-4.2,0-8-0.9-11-2.6c-0.6-0.3-1.1-0.6-1.7-1c-0.1,0.3-0.1,0.7-0.1,1
		c0,3.9,5.7,7,12.8,7c7.1,0,12.8-3.1,12.8-7c0-0.3-0.1-0.7-0.1-1C40.3,14.9,39.7,15.2,39.1,15.5z"/>
	<path d="M39.1,24c-3.1,1.7-6.9,2.5-11,2.5c-0.9,0-1.8-0.1-2.7-0.1c1.6,1.1,3,2.6,3.7,4.5c6.6-0.3,11.8-3.3,11.8-7
		c0-0.3-0.1-0.7-0.1-1C40.3,23.4,39.7,23.7,39.1,24z"/>
	<path d="M39.1,32.5c-2.7,1.5-5.9,2.3-9.5,2.5c-0.2,1.2-0.6,2.3-1.1,3.2c0.2,0.4,0.4,0.8,0.6,1.2c6.6-0.3,11.8-3.3,11.8-7
		c0-0.3-0.1-0.7-0.1-1C40.3,31.9,39.7,32.2,39.1,32.5z"/>
	<path d="M12.8,27C5.8,27,0,30.1,0,34c0,3.9,5.8,7,12.8,7c7.1,0,12.8-3.1,12.8-7C25.7,30.1,19.9,27,12.8,27z"/>
</g>
<g>
</g>
<g>
</g>
<g>
</g>
<g>
</g>
<g>
</g>
<g>
</g>
<g>
</g>
<g>
</g>
<g>
</g>
<g>
</g>
<g>
</g>
<g>
</g>
<g>
</g>
<g>
</g>
<g>
</g>
</svg>
