<?xml version="1.0" encoding="utf-8"?>
<!-- Generator: Adobe Illustrator 18.1.1, SVG Export Plug-In . SVG Version: 6.00 Build 0)  -->
<svg version="1.1" id="Layer_1" xmlns="http://www.w3.org/2000/svg" xmlns:xlink="http://www.w3.org/1999/xlink" x="0px" y="0px"
	 viewBox="0 0 47.6 42.6" enable-background="new 0 0 47.6 42.6" xml:space="preserve">
<g>
	<path d="M41.6,23.1c0-0.1-0.1-0.2-0.2-0.2h-1.9c-0.1,0-0.2-0.1-0.2-0.2l0.8-4.1c0-0.1-0.1-0.2-0.2-0.2h-2.2c-0.1,0-0.2,0.1-0.2,0.2
		l-0.8,4.1c0,0.1-0.1,0.2-0.2,0.2h-2.8c-0.1,0-0.2-0.1-0.2-0.2l-0.8-4.1c0-0.1-0.1-0.2-0.2-0.2h-2.2c-0.1,0-0.2,0.1-0.2,0.2
		l-0.8,4.1c0,0.1-0.1,0.2-0.2,0.2h-2.8c-0.1,0-0.2-0.1-0.2-0.2l-0.8-4.1c0-0.1-0.1-0.2-0.2-0.2h-2.2c-0.1,0-0.2,0.1-0.2,0.2l0.8,4.1
		c0,0.1-0.1,0.2-0.2,0.2h-1.9c-0.1,0-0.2,0.1-0.2,0.2v2.1c0,0.1,0.1,0.2,0.2,0.2h2.4c0.1,0,0.2,0.1,0.2,0.2l1.4,7.6
		c0,0.1,0.1,0.2,0.2,0.2h4c0.1,0,0.2-0.1,0.2-0.2l1.4-7.6c0-0.1,0.1-0.2,0.1-0.2c0,0,0.1,0.1,0.1,0.2l1.4,7.6c0,0.1,0.1,0.2,0.2,0.2
		h4c0.1,0,0.2-0.1,0.2-0.2l1.4-7.6c0-0.1,0.1-0.2,0.2-0.2h2.4c0.1,0,0.2-0.1,0.2-0.2V23.1z M27.6,31.2
		C27.5,31.3,27.5,31.3,27.6,31.2l-1.1-5.6c0-0.1,0.1-0.2,0.2-0.2h1.8c0.1,0,0.2,0.1,0.2,0.2L27.6,31.2z M35.1,31.2
		C35.1,31.3,35.1,31.3,35.1,31.2L34,25.6c0-0.1,0-0.2,0.2-0.2H36c0.1,0,0.2,0.1,0.2,0.2L35.1,31.2z"/>
	<path d="M6.6,29c-1.2-0.7-2.2-1.6-2.8-2.4c-0.6-0.9-0.9-1.7-0.9-2.6c0-0.5,0.1-0.9,0.3-1.4c1.2,1,2.7,1.9,4.3,2.6
		c1.6,0.6,3.4,1.1,5.2,1.3c0-0.1,0-0.2,0-0.3c0-0.9,0.1-1.8,0.2-2.6c-2.5-0.4-4.7-1.1-6.4-2.1c-0.6-0.4-1.2-0.8-1.7-1.2
		c-0.4-0.4-0.7-0.7-1-1.1c0,0-0.1-0.1-0.1-0.1c-0.3-0.4-0.5-0.8-0.6-1.2C3,17.4,2.9,17,2.9,16.5c0-0.4,0.1-0.9,0.2-1.3
		c0.6,0.5,1.2,0.9,2,1.3c0.5,0.3,1.1,0.5,1.6,0.8c0.3,0.1,0.5,0.2,0.8,0.4C8,17.8,8.4,17.9,8.8,18c1.7,0.5,3.5,0.9,5.5,1
		c0.4-1,0.9-2,1.5-2.9c-1.5,0-2.9-0.2-4.3-0.5c-1-0.2-2-0.5-2.8-0.8c-0.8-0.3-1.5-0.6-2.1-0.9c-0.7-0.4-1.2-0.8-1.7-1.2
		c-0.4-0.3-0.8-0.7-1-1c0,0,0,0,0,0c-0.4-0.5-0.6-0.9-0.7-1.4C3,10.1,2.9,9.9,2.9,9.6c0-0.7,0.3-1.5,0.9-2.2C4.7,6.2,6.4,5,8.6,4.2
		c2.2-0.8,4.9-1.3,7.9-1.3c3.9,0,7.5,0.9,9.9,2.2c1.2,0.7,2.2,1.4,2.8,2.2c0.1,0.2,0.2,0.3,0.3,0.5c0.6-0.1,1.2-0.1,1.8-0.1h0
		c0.5,0,0.9,0,1.4,0.1C32.4,7,32,6.2,31.5,5.5c-1.4-1.8-3.5-3.1-6.1-4C22.8,0.5,19.8,0,16.5,0C12.1,0,8.2,0.9,5.2,2.5
		c-1.5,0.8-2.8,1.8-3.7,3C0.6,6.7,0,8.1,0,9.6c0,1.2,0.4,2.3,1,3.3c-0.6,1.1-1,2.3-1,3.6c0,1.4,0.4,2.6,1.1,3.8
		C0.4,21.4,0,22.7,0,24c0,1.6,0.5,3,1.5,4.3c1.4,1.9,3.5,3.4,6.1,4.4c2.1,0.8,4.5,1.4,7.1,1.5c-0.5-1-0.9-2-1.2-3.1
		C10.8,30.9,8.4,30.1,6.6,29z"/>
	<path d="M42.8,14.7c-2.9-3-7-4.8-11.5-4.8h0c-4.5,0-8.6,1.8-11.5,4.8c-3,2.9-4.8,7-4.8,11.5s1.8,8.6,4.8,11.5c2.9,3,7,4.8,11.5,4.8
		h0c4.5,0,8.6-1.8,11.5-4.8c3-2.9,4.8-7,4.8-11.5C47.6,21.7,45.8,17.7,42.8,14.7z M40.8,35.7c-2.5,2.5-5.9,3.9-9.5,3.9
		c-3.6,0-6.9-1.4-9.5-3.9c-2.5-2.5-3.9-5.9-3.9-9.5c0-3.6,1.4-6.9,3.9-9.5c2.5-2.5,5.9-3.9,9.5-3.9h0c3.6,0,6.9,1.4,9.5,3.9
		c2.5,2.5,3.9,5.9,3.9,9.5C44.7,29.8,43.3,33.2,40.8,35.7z"/>
</g>
<g>
</g>
<g>
</g>
<g>
</g>
<g>
</g>
<g>
</g>
<g>
</g>
<g>
</g>
<g>
</g>
<g>
</g>
<g>
</g>
<g>
</g>
<g>
</g>
<g>
</g>
<g>
</g>
<g>
</g>
</svg>
