<?xml version="1.0" encoding="utf-8"?>
<!-- Generator: Adobe Illustrator 18.1.1, SVG Export Plug-In . SVG Version: 6.00 Build 0)  -->
<svg version="1.1" id="Layer_1" xmlns="http://www.w3.org/2000/svg" xmlns:xlink="http://www.w3.org/1999/xlink" x="0px" y="0px"
	 viewBox="0 0 609.8 462.1" enable-background="new 0 0 609.8 462.1" xml:space="preserve">
<path d="M577.6,0H32C14.7,0,0,14.7,0,32v398.2c0,17.2,14.7,32,32,32h545.6c17.2,0,32-14.7,32-32V32C612,14.7,597.3,0,577.6,0z
	 M68.8,275.3c0-4.9,4.9-12.3,9.8-14.7l61.4-36.9c7.4-2.5,9.8-9.8,9.8-14.7v-19.7l0,0c-4.9-4.9-9.8-9.8-12.3-12.3
	c-7.4-7.4-9.8-19.7-12.3-49.2C120.4,86,145,61.4,177,61.4l0,0l0,0l0,0l0,0c32,0,56.5,24.6,51.6,66.4c-2.5,29.5-7.4,41.8-12.3,49.2
	c0,2.5-7.4,7.4-9.8,12.3l0,0l0,0v19.7c0,4.9,4.9,12.3,9.8,14.7l61.4,36.9c4.9,2.5,9.8,9.8,9.8,14.7l2.5,19.7c0,4.9-2.5,9.8-9.8,9.8
	h-204c-4.9,0-9.8-4.9-9.8-9.8L68.8,275.3z M553,405.5H59v-49.2h494V405.5z M553,304.8H346.6v-49.2H553V304.8z M553,206.5H346.6
	v-49.2H553V206.5z M553,105.7H346.6V56.5H553V105.7z"/>
<g>
</g>
<g>
</g>
<g>
</g>
<g>
</g>
<g>
</g>
<g>
</g>
<g>
</g>
<g>
</g>
<g>
</g>
<g>
</g>
<g>
</g>
<g>
</g>
<g>
</g>
<g>
</g>
<g>
</g>
</svg>
