<?xml version="1.0" encoding="utf-8"?>
<!-- Generator: Adobe Illustrator 18.1.1, SVG Export Plug-In . SVG Version: 6.00 Build 0)  -->
<svg version="1.1" id="Layer_1" xmlns="http://www.w3.org/2000/svg" xmlns:xlink="http://www.w3.org/1999/xlink" x="0px" y="0px"
	 viewBox="0 0 46.6 34" enable-background="new 0 0 46.6 34" xml:space="preserve">
<g>
	<path d="M46.6,10.2h-5.3L43.2,0h-5.8c-0.4,2-1.1,5.7-1.9,10.2h-7.3C27.4,5.7,26.7,2,26.3,0h-6c-0.4,2-1.1,5.7-1.9,10.2h-7.3
		C10.3,5.7,9.6,2,9.2,0H3.4l1.9,10.2H0v5.7h6.4L9.8,34h9.9l3.4-18.1h0.3L26.9,34h9.9l3.4-18.1h6.4V10.2z M14.8,29.4
		c-0.8-4.4-1.7-9.1-2.6-13.5h5.1C16.5,20.3,15.6,25.1,14.8,29.4z M31.8,29.4c-0.8-4.4-1.7-9.1-2.6-13.5h5.1
		C33.6,20.3,32.7,25.1,31.8,29.4z"/>
</g>
<g>
</g>
<g>
</g>
<g>
</g>
<g>
</g>
<g>
</g>
<g>
</g>
<g>
</g>
<g>
</g>
<g>
</g>
<g>
</g>
<g>
</g>
<g>
</g>
<g>
</g>
<g>
</g>
<g>
</g>
</svg>
