<?xml version="1.0" encoding="utf-8"?>
<!-- Generator: Adobe Illustrator 18.1.1, SVG Export Plug-In . SVG Version: 6.00 Build 0)  -->
<svg version="1.1" id="Layer_1" xmlns="http://www.w3.org/2000/svg" xmlns:xlink="http://www.w3.org/1999/xlink" x="0px" y="0px"
	 viewBox="0 0 36.3 44.7" enable-background="new 0 0 36.3 44.7" xml:space="preserve">
<g>
	<polygon points="13.5,29 14.8,22.5 12.3,22.5 	"/>
	<polygon points="23.1,29 24.3,22.5 21.7,22.5 	"/>
	<path d="M0,0v44.7h36.3V0H0z M30.9,21.7c0,0.5-0.5,0.8-1,0.8h-2.5l-2.1,9.6h0c0,0.2-0.1,0.4-0.2,0.6c-0.1,0.2-0.2,0.3-0.4,0.4
		c-0.2,0.1-0.4,0.1-0.7,0.2c-0.3,0-0.6,0-1,0c-0.5,0-0.8,0-1.1,0c-0.3,0-0.5-0.1-0.7-0.2c-0.2-0.1-0.3-0.2-0.4-0.4
		c-0.1-0.2-0.1-0.3-0.2-0.6l-2-9.6h-0.8l-1.9,9.6c0,0.2-0.1,0.4-0.2,0.6c-0.1,0.2-0.2,0.3-0.4,0.4c-0.2,0.1-0.4,0.1-0.7,0.2
		c-0.3,0-0.6,0-1.1,0c-0.5,0-0.9,0-1.1,0c-0.3,0-0.5-0.1-0.7-0.2c-0.2-0.1-0.3-0.2-0.4-0.4c-0.1-0.2-0.1-0.3-0.2-0.6l-2.1-9.6H6.4
		c-0.5,0-0.9-0.3-1-0.8v-1.5c0-0.5,0.5-0.8,1-0.8h1.8l-0.8-3.6c-0.1-0.4-0.1-0.6-0.1-0.8l0-0.1c0-0.2,0.1-0.4,0.2-0.5
		c0.1-0.1,0.3-0.2,0.6-0.2c0.2,0,0.6,0,1,0c0.4,0,0.7,0,0.9,0c0.2,0,0.4,0,0.5,0.1c0.1,0,0.2,0.2,0.3,0.3c0,0.1,0.1,0.3,0.1,0.4
		l0.8,4.4l3.8,0l0.9-4.2c0-0.2,0.1-0.3,0.1-0.5c0.1-0.1,0.2-0.2,0.3-0.3c0.1-0.1,0.3-0.1,0.6-0.1c0.2,0,0.5,0,0.9,0
		c0.4,0,0.7,0,0.9,0c0.2,0,0.4,0.1,0.6,0.1c0.1,0.1,0.2,0.2,0.3,0.3c0.1,0.1,0.1,0.3,0.1,0.5l0.9,4.3h3.9l0.8-4.3
		c0-0.2,0.1-0.3,0.1-0.4c0-0.1,0.2-0.2,0.3-0.3c0.1-0.1,0.3-0.1,0.5-0.1c0.2,0,0.5,0,0.9,0c0.4,0,0.6,0,0.8,0c0.2,0,0.4,0.1,0.5,0.2
		c0.1,0.1,0.1,0.3,0.1,0.4c0,0,0,0,0,0.1c0,0.2-0.1,0.5-0.1,0.8l-0.8,3.6h1.8c0.5,0,0.9,0.3,1,0.8V21.7z"/>
</g>
<g>
</g>
<g>
</g>
<g>
</g>
<g>
</g>
<g>
</g>
<g>
</g>
<g>
</g>
<g>
</g>
<g>
</g>
<g>
</g>
<g>
</g>
<g>
</g>
<g>
</g>
<g>
</g>
<g>
</g>
</svg>
