<?xml version="1.0" encoding="utf-8"?>
<!-- Generator: Adobe Illustrator 18.1.1, SVG Export Plug-In . SVG Version: 6.00 Build 0)  -->
<svg version="1.1" id="Layer_1" xmlns="http://www.w3.org/2000/svg" xmlns:xlink="http://www.w3.org/1999/xlink" x="0px" y="0px"
	 viewBox="0 0 38.8 33.3" enable-background="new 0 0 38.8 33.3" xml:space="preserve">
<g>
	<path d="M38.8,12.4h-4.2l2-12.4h-4.2l-2,12.4h-5.5l-1.5-9.1C23,1.4,21.4,0,19.4,0c-2,0-3.6,1.4-4.1,3.3l-1.5,9.1H8.4L6.4,0H2.1
		l2,12.4H0l0.7,4.2h4.2L7,30c0.4,1.9,2.1,3.3,4.1,3.3c2,0,3.7-1.4,4.1-3.3l2.2-13.5h4L23.6,30c0.4,1.9,2.1,3.3,4.1,3.3
		c2,0,3.7-1.4,4.1-3.3l2.2-13.5h4.2L38.8,12.4z M11.1,29.1L9.1,16.6h4.1L11.1,29.1z M18.1,12.4l1.3-8.2l1.3,8.2H18.1z M27.7,29.1
		l-2.1-12.6h4.1L27.7,29.1z"/>
</g>
<g>
</g>
<g>
</g>
<g>
</g>
<g>
</g>
<g>
</g>
<g>
</g>
<g>
</g>
<g>
</g>
<g>
</g>
<g>
</g>
<g>
</g>
<g>
</g>
<g>
</g>
<g>
</g>
<g>
</g>
</svg>
