<?xml version="1.0" encoding="utf-8"?>
<!-- Generator: Adobe Illustrator 18.1.1, SVG Export Plug-In . SVG Version: 6.00 Build 0)  -->
<svg version="1.1" id="Layer_1" xmlns="http://www.w3.org/2000/svg" xmlns:xlink="http://www.w3.org/1999/xlink" x="0px" y="0px"
	 viewBox="0 0 612 612" enable-background="new 0 0 612 612" xml:space="preserve">
<g>
	<path d="M460,186.7h-36.6l-19.2,92.4h-57.7l-19.2-92.4h-40.4l-21.2,92.4h-55.8l-21.2-92.4H152l21.2,92.4h-36.6v34.6h44.3
		l30.8,138.6h50L306,254l44.3,198.2h50l30.8-138.6h44.3v-34.6h-36.6L460,186.7z M236.7,404.2l-21.2-90.5H256L236.7,404.2z
		 M375.3,404.2l-21.2-90.5h40.4L375.3,404.2z"/>
	<path d="M306,0C136.6,0,0,136.6,0,306s136.6,306,306,306s306-136.6,306-306S475.4,0,306,0z M306,577.4
		C155.9,577.4,34.6,456.1,34.6,306S155.9,34.6,306,34.6c150.1,0,271.4,121.2,271.4,271.4S456.1,577.4,306,577.4z"/>
</g>
<g>
</g>
<g>
</g>
<g>
</g>
<g>
</g>
<g>
</g>
<g>
</g>
<g>
</g>
<g>
</g>
<g>
</g>
<g>
</g>
<g>
</g>
<g>
</g>
<g>
</g>
<g>
</g>
<g>
</g>
</svg>
