<?xml version="1.0" encoding="utf-8"?>
<!-- Generator: Adobe Illustrator 18.1.1, SVG Export Plug-In . SVG Version: 6.00 Build 0)  -->
<svg version="1.1" id="Layer_1" xmlns="http://www.w3.org/2000/svg" xmlns:xlink="http://www.w3.org/1999/xlink" x="0px" y="0px"
	 viewBox="0 0 47.2 47.2" enable-background="new 0 0 47.2 47.2" xml:space="preserve">
<g>
	<polygon points="18.4,30.8 19.9,23.6 17.1,23.6 	"/>
	<polygon points="29.1,30.8 30.5,23.6 27.6,23.6 	"/>
	<path d="M23.6,0C10.6,0,0,10.6,0,23.6s10.6,23.6,23.6,23.6c13,0,23.6-10.6,23.6-23.6S36.7,0,23.6,0z M37.7,22.7
		c0,0.6-0.5,0.9-1.1,0.9h-2.8l-2.4,10.7l0,0c-0.1,0.3-0.1,0.5-0.2,0.6c-0.1,0.2-0.3,0.3-0.5,0.4c-0.2,0.1-0.5,0.1-0.8,0.2
		c-0.3,0-0.7,0-1.1,0c-0.5,0-0.9,0-1.3,0c-0.3,0-0.6-0.1-0.8-0.2c-0.2-0.1-0.4-0.2-0.4-0.4c-0.1-0.2-0.2-0.4-0.2-0.6L24,23.6h-0.9
		l-2.1,10.7c0,0.3-0.1,0.5-0.2,0.6c-0.1,0.2-0.2,0.3-0.4,0.4c-0.2,0.1-0.4,0.2-0.8,0.2c-0.3,0-0.7,0-1.2,0c-0.5,0-1,0-1.3,0
		c-0.3,0-0.6-0.1-0.8-0.2c-0.2-0.1-0.4-0.2-0.4-0.4c-0.1-0.2-0.2-0.4-0.2-0.6l-2.3-10.7h-2.7c-0.6,0-1.1-0.4-1.1-0.9V21
		c0-0.6,0.5-0.9,1.1-0.9h2l-0.9-4c-0.1-0.4-0.1-0.7-0.1-0.9l0-0.1c0-0.2,0.1-0.4,0.2-0.5c0.2-0.2,0.4-0.2,0.6-0.3c0.3,0,0.6,0,1.1,0
		c0.4,0,0.8,0,1,0c0.3,0,0.4,0.1,0.6,0.1c0.1,0.1,0.3,0.2,0.3,0.3c0,0.1,0.1,0.3,0.1,0.5l0.9,4.9l4.2,0l1-4.7c0-0.2,0.1-0.4,0.1-0.5
		c0.1-0.1,0.2-0.3,0.3-0.3c0.2-0.1,0.4-0.1,0.6-0.2c0.3,0,0.6,0,1,0c0.4,0,0.8,0,1.1,0c0.3,0,0.5,0.1,0.6,0.2
		c0.2,0.1,0.3,0.2,0.3,0.3c0.1,0.1,0.1,0.3,0.2,0.5l1,4.7h4.3l0.9-4.8c0-0.2,0.1-0.3,0.1-0.5c0-0.1,0.2-0.3,0.3-0.3
		c0.2-0.1,0.3-0.1,0.6-0.2c0.2,0,0.6,0,1,0c0.4,0,0.7,0,0.9,0c0.2,0,0.4,0.1,0.6,0.3c0.1,0.1,0.1,0.3,0.1,0.5c0,0,0,0,0,0.1
		c0,0.2-0.1,0.5-0.1,0.9l-0.9,4h2c0.6,0,1,0.4,1.1,0.9V22.7z"/>
</g>
<g>
</g>
<g>
</g>
<g>
</g>
<g>
</g>
<g>
</g>
<g>
</g>
<g>
</g>
<g>
</g>
<g>
</g>
<g>
</g>
<g>
</g>
<g>
</g>
<g>
</g>
<g>
</g>
<g>
</g>
</svg>
