<?xml version="1.0" encoding="utf-8"?>
<!-- Generator: Adobe Illustrator 18.1.1, SVG Export Plug-In . SVG Version: 6.00 Build 0)  -->
<svg version="1.1" id="Layer_1" xmlns="http://www.w3.org/2000/svg" xmlns:xlink="http://www.w3.org/1999/xlink" x="0px" y="0px"
	 viewBox="0 0 613.4 613.4" enable-background="new 0 0 613.4 613.4" xml:space="preserve">
<g>
	<path d="M306.7,0C137.7,0,0,137.7,0,306.7s137.7,306.7,306.7,306.7s306.7-137.7,306.7-306.7C612,137.7,475.7,0,306.7,0z
		 M306.7,557.5c-139,0-252.2-111.8-252.2-250.8S167.7,54.5,306.7,54.5s250.8,113.1,252.2,252.2C557.5,445.7,445.7,557.5,306.7,557.5
		z"/>
	<path d="M467.5,188.1h-50.4l-17.7,79.1h-50.4l-17.7-79.1h-49.1l-17.7,79.1H214l-17.7-79.1h-50.4l17.7,79.1h-32.7v49.1h43.6
		l27.3,117.2l0,0c2.7,10.9,13.6,20.4,24.5,20.4h24.5c10.9,0,23.2-9.5,24.5-20.4l27.3-117.2h6.8l27.3,117.2
		c2.7,10.9,13.6,20.4,24.5,20.4h24.5c10.9,0,23.2-9.5,24.5-20.4l27.3-117.2h43.6v-49.1h-32.7L467.5,188.1z M238.5,376.2l-13.6-60
		h27.3L238.5,376.2z M373.5,376.2l-13.6-60h27.3L373.5,376.2z"/>
</g>
<g>
</g>
<g>
</g>
<g>
</g>
<g>
</g>
<g>
</g>
<g>
</g>
<g>
</g>
<g>
</g>
<g>
</g>
<g>
</g>
<g>
</g>
<g>
</g>
<g>
</g>
<g>
</g>
<g>
</g>
</svg>
