<?xml version="1.0" encoding="utf-8"?>
<!-- Generator: Adobe Illustrator 18.1.1, SVG Export Plug-In . SVG Version: 6.00 Build 0)  -->
<svg version="1.1" id="Layer_1" xmlns="http://www.w3.org/2000/svg" xmlns:xlink="http://www.w3.org/1999/xlink" x="0px" y="0px"
	 viewBox="0 0 43.1 43.1" enable-background="new 0 0 43.1 43.1" xml:space="preserve">
<g>
	<path d="M26.5,21c0.7,3.2,1.3,6.4,1.8,9.6l0.2,0.1v-0.1c0,0,0,0,0,0l0.1,0c0.4-3.2,0.9-6.4,1.4-9.6l0-0.1h-3.6L26.5,21z"/>
	<path d="M13.1,21c0.5,3,1,6.3,1.5,9.6l0.2,0.1v-0.1h0v0l0.1,0c0.5-3.4,1.3-6.7,1.9-9.6l0-0.1h-3.8L13.1,21z"/>
	<path d="M21.6,0C9.7,0,0,9.6,0,21.6c0,11.9,9.7,21.6,21.6,21.6c11.9,0,21.6-9.7,21.6-21.6C43.1,9.6,33.5,0,21.6,0z M34.8,20.8
		l-3.2,15l-6.5-0.1l-2-9c-0.4-1.9-0.8-3.7-1.1-5.9l-0.8-0.1c-0.5,2.3-0.8,4.2-1.3,6l-2.3,9.1L11,35.8L8.2,20.9l-2.9-0.1l-0.9-5.1
		h2.6h0.1l-1.1-5.5h5.4l0.8,5.4l5.2,0.1l1.4-5.6l5.5,0.1l1.1,5.4l5.1,0.1l1.2-5.6l5,0.1l-1.1,5.5h2.8l-1,5.2L34.8,20.8z"/>
</g>
<g>
</g>
<g>
</g>
<g>
</g>
<g>
</g>
<g>
</g>
<g>
</g>
<g>
</g>
<g>
</g>
<g>
</g>
<g>
</g>
<g>
</g>
<g>
</g>
<g>
</g>
<g>
</g>
<g>
</g>
</svg>
