<?xml version="1.0" encoding="utf-8"?>
<!-- Generator: Adobe Illustrator 18.1.1, SVG Export Plug-In . SVG Version: 6.00 Build 0)  -->
<svg version="1.1" id="Layer_1" xmlns="http://www.w3.org/2000/svg" xmlns:xlink="http://www.w3.org/1999/xlink" x="0px" y="0px"
	 viewBox="0 0 47.4 41.5" enable-background="new 0 0 47.4 41.5" xml:space="preserve">
<g>
	<g>
		<path d="M23.6,0C12.8,0,3.9,8,2.2,18.5H2.1H0.3c-0.1,0-0.1,0-0.2,0C0,18.6,0,18.7,0,18.8l1.7,2.9l1.6,2.8c0.1,0.1,0.1,0.2,0.2,0.2
			c0.1,0,0.2,0,0.2-0.2l0.8-1.3l2.6-4.4c0.1-0.1,0.1-0.3,0-0.3c0,0-0.1,0-0.2,0H5C6.7,9.6,14.4,2.9,23.6,2.9
			c5.3,0,10.1,2.3,13.5,5.9l2-2C35.2,2.6,29.7,0,23.6,0z"/>
		<path d="M23.4,41.5c11,0,20.1-8,21.8-18.5h0.1h1.9c0.1,0,0.1,0,0.2,0c0.1-0.1,0.1-0.2,0-0.3l-1.8-2.9l-1.7-2.8
			c-0.1-0.1-0.1-0.2-0.2-0.2c-0.1,0-0.2,0-0.2,0.2l-0.8,1.3l-2.6,4.4c-0.1,0.1-0.1,0.3,0,0.3c0,0,0.1,0,0.2,0h2
			c-1.7,8.9-9.5,15.6-18.9,15.6c-5.4,0-10.3-2.3-13.8-5.9l-2.1,2C11.5,38.9,17.2,41.5,23.4,41.5z"/>
	</g>
	<g>
		<path d="M35.4,17.5c0-0.1-0.1-0.2-0.2-0.2H33c-0.1,0-0.2-0.1-0.2-0.2l0.9-4.7c0-0.1-0.1-0.2-0.2-0.2H31c-0.1,0-0.2,0.1-0.3,0.2
			l-0.9,4.7c0,0.1-0.1,0.2-0.3,0.2h-3.2c-0.1,0-0.2-0.1-0.3-0.2l-0.9-4.7c0-0.1-0.1-0.2-0.3-0.2h-2.5c-0.1,0-0.2,0.1-0.3,0.2
			l-0.9,4.7c0,0.1-0.1,0.2-0.3,0.2h-3.2c-0.1,0-0.2-0.1-0.3-0.2l-0.9-4.7c0-0.1-0.1-0.2-0.3-0.2h-2.5c-0.1,0-0.2,0.1-0.2,0.2
			l0.9,4.7c0,0.1-0.1,0.2-0.2,0.2h-2.2c-0.1,0-0.2,0.1-0.2,0.2V20c0,0.1,0.1,0.2,0.2,0.2H15c0.1,0,0.2,0.1,0.3,0.2l1.6,8.7
			c0,0.1,0.1,0.2,0.3,0.2h4.5c0.1,0,0.2-0.1,0.3-0.2l1.6-8.7c0-0.1,0.1-0.2,0.1-0.2c0,0,0.1,0.1,0.1,0.2l1.6,8.7
			c0,0.1,0.1,0.2,0.3,0.2h4.5c0.1,0,0.2-0.1,0.3-0.2l1.6-8.7c0-0.1,0.1-0.2,0.3-0.2h2.7c0.1,0,0.2-0.1,0.2-0.2V17.5z M19.5,26.7
			C19.5,26.9,19.4,26.9,19.5,26.7l-1.3-6.3c0-0.1,0.1-0.2,0.2-0.2h2.1c0.1,0,0.2,0.1,0.2,0.2L19.5,26.7z M28,26.7
			C28,26.9,28,26.9,28,26.7l-1.3-6.3c0-0.1,0.1-0.2,0.2-0.2h2.1c0.1,0,0.2,0.1,0.2,0.2L28,26.7z"/>
	</g>
</g>
<g>
</g>
<g>
</g>
<g>
</g>
<g>
</g>
<g>
</g>
<g>
</g>
<g>
</g>
<g>
</g>
<g>
</g>
<g>
</g>
<g>
</g>
<g>
</g>
<g>
</g>
<g>
</g>
<g>
</g>
</svg>
