<?xml version="1.0" encoding="utf-8"?>
<!-- Generator: Adobe Illustrator 18.1.1, SVG Export Plug-In . SVG Version: 6.00 Build 0)  -->
<svg version="1.1" id="Layer_1" xmlns="http://www.w3.org/2000/svg" xmlns:xlink="http://www.w3.org/1999/xlink" x="0px" y="0px"
	 viewBox="0 0 48.2 37" enable-background="new 0 0 48.2 37" xml:space="preserve">
<g>
	<path d="M48.1,30.7c-0.1-0.3-0.2-0.5-0.4-0.7l-4.1-4.1l-8.9-9c0,0,0,0,0,0c-0.2-0.1-0.3-0.2-0.5-0.3c0,0,0,0-0.1,0v0l0,0l0,0
		L33,16.2l-5.5-1.9l-0.4-0.1v0h0v0h-2.2c0,0,0-0.1,0-0.1l0.7-3.9c0-0.1-0.1-0.2-0.2-0.2h-2.1c-0.1,0-0.2,0.1-0.2,0.2l-0.7,3.9
		c0,0,0,0.1-0.1,0.1h-3c0,0-0.1-0.1-0.1-0.1l-0.7-3.9c0-0.1-0.1-0.2-0.2-0.2h-2.1c-0.1,0-0.2,0.1-0.2,0.2l-0.7,3.9
		c0,0.1-0.1,0.2-0.2,0.2h-2.7c-0.1,0-0.2-0.1-0.2-0.2l-0.7-3.9c0-0.1-0.1-0.2-0.2-0.2H9.1C9,10,9,10.1,9,10.2l0.7,3.9
		c0,0.1-0.1,0.2-0.2,0.2H7.7c-0.1,0-0.2,0.1-0.2,0.2v2c0,0.1,0.1,0.2,0.2,0.2H10c0.1,0,0.2,0.1,0.2,0.2l1.4,7.2
		c0,0.1,0.1,0.2,0.2,0.2h3.8c0.1,0,0.2-0.1,0.2-0.2l1.4-7.2c0-0.1,0.1-0.2,0.1-0.2c0,0,0.1,0.1,0.1,0.2l1.4,7.2
		c0,0.1,0.1,0.2,0.2,0.2h3.8c0.1,0,0.2-0.1,0.2-0.2l1.4-7.2c0-0.1,0.1-0.2,0.2-0.2h1l2.1,6.2l0,0v0l0,0c0.1,0.2,0.1,0.3,0.2,0.4
		c0,0.1,0.1,0.1,0.1,0.2l13,13c0.3,0.3,0.7,0.5,1.1,0.5c0.3,0,0.5-0.1,0.7-0.2c0.1-0.1,0.3-0.1,0.4-0.2l1.6-1.6l2.7-2.7
		c0.2-0.2,0.3-0.5,0.4-0.8c0-0.1,0.1-0.2,0.1-0.3C48.2,30.9,48.1,30.8,48.1,30.7z M13.8,22.2C13.7,22.3,13.7,22.3,13.8,22.2
		l-1.1-5.3c0-0.1,0.1-0.2,0.2-0.2h1.8c0.1,0,0.2,0.1,0.2,0.2L13.8,22.2z M20.9,22.2C20.9,22.3,20.9,22.3,20.9,22.2l-1.1-5.3
		c0-0.1,0-0.2,0.2-0.2h1.8c0.1,0,0.2,0.1,0.2,0.2L20.9,22.2z M43.4,32.4l-1.2,1.2L30.3,21.7L29,17.9l2.2,0.7l1.6,0.6L44.8,31
		L43.4,32.4z M3.1,30L3.1,30l-0.1,0l-0.1,0l0,0c0,0,0-0.1,0-0.1l0,0V3.1L2.9,3l0,0l0.1,0l0,0c0,0,0.1,0,0.1,0l28.4,0l0.1,0l0,0
		l0.1,0l0,0c0,0,0,0.1,0,0.1l0,0v10.3l2.9,1V3.1c0-1.7-1.4-3.1-3.1-3.1H3.1h0C1.8,0,0.6,0.9,0.2,2c0,0,0,0,0,0
		C0.1,2.2,0.1,2.4,0.1,2.5C0,2.7,0,2.8,0,3c0,0,0,0.1,0,0.1v26.6c0,1.7,1.4,3.1,3.1,3.1h28.4l0,0c0.8,0,1.5-0.3,2-0.8l-2.1-2.1
		L3.1,30z"/>
</g>
<g>
</g>
<g>
</g>
<g>
</g>
<g>
</g>
<g>
</g>
<g>
</g>
<g>
</g>
<g>
</g>
<g>
</g>
<g>
</g>
<g>
</g>
<g>
</g>
<g>
</g>
<g>
</g>
<g>
</g>
</svg>
