<?xml version="1.0" encoding="utf-8"?>
<!-- Generator: Adobe Illustrator 18.1.1, SVG Export Plug-In . SVG Version: 6.00 Build 0)  -->
<svg version="1.1" id="Layer_1" xmlns="http://www.w3.org/2000/svg" xmlns:xlink="http://www.w3.org/1999/xlink" x="0px" y="0px"
	 viewBox="0 0 44.6 42.4" enable-background="new 0 0 44.6 42.4" xml:space="preserve">
<g>
	<path d="M22,10c2.8,0,5-2.2,5-5c0-2.8-2.2-5-5-5c-2.8,0-5,2.2-5,5C17,7.8,19.2,10,22,10z M41.6,23.3C41.6,23.3,41.6,23.3,41.6,23.3
		c-1.4-6-6.7-10.5-13.2-10.5H16.2c-0.2,0-0.5,0-0.7,0.1c0,0,0,0,0-0.1H4.7c0,1.6,0.7,3.1,1.9,4.1c-1.8,1.8-3.1,4.1-3.6,6.7H0.2
		C0.1,24.4,0,25.3,0,26.2c0,3.3,1,6.4,2.7,9h3.4c1.9,2.1,4.5,3.7,7.4,4.2l0.6,3H16l0.6-2.8h11.1l0.6,2.8h1.9l0.6-3
		c5.3-0.9,9.5-4.9,10.7-10.1c0,0,0.1,0,0.1,0c1.6,0,2.9-1.4,2.9-3C44.6,24.6,43.2,23.3,41.6,23.3z M9.2,26c-1.3,0-2.3-1-2.3-2.3
		c0-1.3,1-2.3,2.3-2.3c1.3,0,2.3,1,2.3,2.3C11.6,25,10.5,26,9.2,26z"/>
</g>
<g>
</g>
<g>
</g>
<g>
</g>
<g>
</g>
<g>
</g>
<g>
</g>
<g>
</g>
<g>
</g>
<g>
</g>
<g>
</g>
<g>
</g>
<g>
</g>
<g>
</g>
<g>
</g>
<g>
</g>
</svg>
