<?xml version="1.0" encoding="utf-8"?>
<!-- Generator: Adobe Illustrator 18.1.1, SVG Export Plug-In . SVG Version: 6.00 Build 0)  -->
<svg version="1.1" id="Layer_1" xmlns="http://www.w3.org/2000/svg" xmlns:xlink="http://www.w3.org/1999/xlink" x="0px" y="0px"
	 viewBox="0 0 52.3 43.6" enable-background="new 0 0 52.3 43.6" xml:space="preserve">
<g>
	<polygon points="31.8,27.2 33.7,27.2 33,23.8 	"/>
	<path d="M43.9,12.1c0-0.1,0-0.3-0.1-0.4c0,0,0,0,0-0.1c-0.1-0.2-0.1-0.5-0.2-0.7c0-0.1-0.1-0.2-0.1-0.3c-0.1-0.1-0.1-0.3-0.2-0.4
		c-0.7-1.1-1.9-1.9-3.3-2.1c-0.2,0-0.5-0.1-0.7-0.1H4.8C2.2,8.1,0,10.2,0,12.9v26c0,0.1,0,0.2,0,0.4c0,0.1,0,0.3,0.1,0.4
		c0,0.1,0,0.3,0.1,0.4c0,0,0,0.1,0,0.1c0.1,0.2,0.1,0.4,0.2,0.7c0.1,0.1,0.1,0.2,0.2,0.4c0.1,0.1,0.1,0.2,0.2,0.3
		c0.7,1.1,1.9,1.9,3.3,2.1c0.2,0,35.2,0.1,35.2,0.1c2.6,0,4.8-2.2,4.8-4.8v-26c0-0.1,0-0.2,0-0.4C44,12.4,44,12.2,43.9,12.1z
		 M12,30.4L10,22.5c0,0-0.1-0.1-0.1-0.1c-0.1,0-0.1-0.1-0.2-0.1c-0.1-0.1-0.2-0.1-0.4-0.2c-0.1,0-0.1-0.1-0.2-0.1
		c-0.1-0.1-0.3-0.1-0.4-0.2c0,0-0.1,0-0.1,0c-0.1-0.1-0.3-0.1-0.4-0.1c0,0-0.1,0-0.1,0c-0.1,0-0.1,0-0.2-0.1c0,0-0.1,0-0.1,0
		c0,0-0.1,0-0.1,0c0,0,0,0-0.1,0c0,0-0.1,0-0.1,0l0-0.2h3.7c1,0,1.1,0.8,1.1,0.8l0.8,4.1v0l0.3,1.4l2.3-6.3h2.6l-3.8,9.1H12z
		 M17.7,30.4l1.5-9.1h2.4l-1.5,9.1H17.7z M24.2,30.6c-1.6,0-2.7-0.5-2.7-0.5l0.4-2c1,0.8,3.9,1,3.9-0.2c0-1.2-3.3-1.3-3.3-3.6
		c0-2.5,2.8-3,4-3c1.1,0,2.1,0.4,2.1,0.4l-0.3,2c-1-0.6-3.3-0.7-3.3,0.3c0,1,3.3,1.3,3.3,3.6C28.3,29.7,25.8,30.6,24.2,30.6z
		 M34.4,30.4l-0.3-1.4h-3l-0.5,1.4h-2.5l3.5-8.4c0,0,0.2-0.7,1.1-0.7h1.9l1.9,9.1H34.4z"/>
	<path d="M52.3,4.4c0-0.1,0-0.3-0.1-0.4c0-0.1,0-0.3-0.1-0.4c0,0,0,0,0-0.1c-0.1-0.2-0.1-0.5-0.2-0.7c0-0.1-0.1-0.2-0.1-0.3
		c-0.1-0.1-0.1-0.3-0.2-0.4c-0.7-1.1-1.9-1.9-3.3-2.1C48,0,47.8,0,47.5,0H13.1c-2.3,0-4.2,1.6-4.7,3.7H12h36.6h0v31.7
		c2.1-0.5,3.7-2.4,3.7-4.7v-26C52.3,4.7,52.3,4.6,52.3,4.4z"/>
</g>
<g>
</g>
<g>
</g>
<g>
</g>
<g>
</g>
<g>
</g>
<g>
</g>
<g>
</g>
<g>
</g>
<g>
</g>
<g>
</g>
<g>
</g>
<g>
</g>
<g>
</g>
<g>
</g>
<g>
</g>
</svg>
