<?xml version="1.0" encoding="utf-8"?>
<!-- Generator: Adobe Illustrator 18.1.1, SVG Export Plug-In . SVG Version: 6.00 Build 0)  -->
<svg version="1.1" id="Layer_1" xmlns="http://www.w3.org/2000/svg" xmlns:xlink="http://www.w3.org/1999/xlink" x="0px" y="0px"
	 viewBox="0 0 53.6 17.4" enable-background="new 0 0 53.6 17.4" xml:space="preserve">
<g>
	<polygon points="21.6,0.3 18.9,17.1 23.2,17.1 26,0.3 	"/>
	<path d="M15.2,0.3L11,11.9l-0.5-2.5v0L9.1,1.8c0,0-0.2-1.5-2.1-1.5H0.1L0,0.6c0,0,0.1,0,0.1,0c0,0,0.1,0,0.1,0c0.1,0,0.2,0,0.2,0.1
		c0.1,0,0.1,0,0.2,0.1c0.1,0,0.2,0.1,0.4,0.1c0.1,0,0.2,0.1,0.3,0.1C1.5,1,1.7,1.1,2,1.2c0.1,0,0.1,0.1,0.2,0.1
		c0.2,0.1,0.5,0.2,0.8,0.3C3,1.7,3.2,1.7,3.3,1.8C3.5,1.9,3.7,2,3.9,2.1c0.1,0.1,0.3,0.1,0.4,0.2c0.1,0,0.2,0.1,0.3,0.2l3.8,14.6
		h4.6l7-16.8H15.2z"/>
	<path d="M50.1,0.3h-3.5c-1.6,0-2,1.3-2,1.3l-6.5,15.6h4.6l0.9-2.5h5.6l0.5,2.5h4L50.1,0.3z M44.8,11.2l2.3-6.3l1.3,6.3H44.8z"/>
	<path d="M32.3,5c0-1.9,4.3-1.7,6.1-0.6L39,0.7c0,0-1.9-0.7-3.9-0.7c-2.2,0-7.3,0.9-7.3,5.6c0,4.3,6.1,4.4,6.1,6.7
		c0,2.3-5.4,1.9-7.2,0.4l-0.7,3.8c0,0,2,0.9,4.9,0.9c3,0,7.5-1.5,7.5-5.8C38.4,7.3,32.3,6.9,32.3,5z"/>
</g>
<g>
</g>
<g>
</g>
<g>
</g>
<g>
</g>
<g>
</g>
<g>
</g>
<g>
</g>
<g>
</g>
<g>
</g>
<g>
</g>
<g>
</g>
<g>
</g>
<g>
</g>
<g>
</g>
<g>
</g>
</svg>
