<?xml version="1.0" encoding="utf-8"?>
<!-- Generator: Adobe Illustrator 18.1.1, SVG Export Plug-In . SVG Version: 6.00 Build 0)  -->
<svg version="1.1" id="Layer_1" xmlns="http://www.w3.org/2000/svg" xmlns:xlink="http://www.w3.org/1999/xlink" x="0px" y="0px"
	 viewBox="0 0 39.4 40.1" enable-background="new 0 0 39.4 40.1" xml:space="preserve">
<g>
	<path d="M39.4,20.1c0-1.4-0.7-2.6-1.8-3.4L19.5,0.8c-0.1-0.1-0.2-0.2-0.3-0.2c-0.6-0.4-1.3-0.5-2-0.5c-0.7,0-1.4,0.2-2,0.5l0,0
		c-1.3,0.7-2,2.1-2,3.5v5.2H6.9C5,9.2,3.3,10,2,11.2c-1.2,1.2-2,2.9-2,4.8v8.1c0,1.9,0.8,3.6,2,4.8c1.2,1.2,3,2,4.8,2H13v5.1
		c0,1.5,0.8,2.8,2,3.5c0.6,0.4,1.3,0.5,2,0.5c0.7,0,1.4-0.2,2-0.5c0.1-0.1,0.2-0.2,0.3-0.2l18.2-15.9C38.7,22.7,39.4,21.4,39.4,20.1
		z M17.4,35.4v-6.6c0-0.6-0.3-1.2-0.7-1.6c-0.4-0.4-0.9-0.7-1.6-0.7H6.9c-0.7,0-1.3-0.3-1.8-0.7c-0.5-0.5-0.7-1-0.7-1.7V16
		c0-0.7,0.3-1.3,0.7-1.7c0.5-0.4,1.1-0.7,1.8-0.7h8.3c0.5,0,0.9-0.1,1.2-0.4c0.6-0.4,1-1.1,1-1.8V4.7l17.5,15.3c0,0,0,0,0,0
		c0,0,0,0,0,0L17.4,35.4z"/>
	<polygon points="15.1,39.6 15.1,39.6 15,39.6 	"/>
</g>
<g>
</g>
<g>
</g>
<g>
</g>
<g>
</g>
<g>
</g>
<g>
</g>
<g>
</g>
<g>
</g>
<g>
</g>
<g>
</g>
<g>
</g>
<g>
</g>
<g>
</g>
<g>
</g>
<g>
</g>
</svg>
