<?xml version="1.0" encoding="utf-8"?>
<!-- Generator: Adobe Illustrator 18.1.1, SVG Export Plug-In . SVG Version: 6.00 Build 0)  -->
<svg version="1.1" id="Layer_1" xmlns="http://www.w3.org/2000/svg" xmlns:xlink="http://www.w3.org/1999/xlink" x="0px" y="0px"
	 viewBox="0 0 46.4 35.5" enable-background="new 0 0 46.4 35.5" xml:space="preserve">
<g>
	<path d="M38.6,0H38c-0.1,0-0.2,0-0.2,0C37.6,0,37.4,0,37.3,0H8C7.9,0,7.8,0,7.7,0C3.4,0.1,0,3.6,0,7.8v0.6c0,4.3,3.5,7.8,7.8,7.8H8
		v0.5c0,1.4,0.5,2.6,1.1,3.6c0.9,1.5,2.1,2.6,3.2,3.4c0.5,0.4,1,0.7,1.4,0.9c0.2,0.1,0.4,0.2,0.6,0.3c0.1,0,0.2,0.1,0.3,0.1
		c0.1,0,0.1,0,0.3,0.1c0,0,0,0,0,0l0.7,0.2l-4.3,5c-0.1,0.1-0.2,0.2-0.2,0.3c-0.3,0.5-0.4,1.1-0.4,1.6c0,0.6,0.1,1.1,0.4,1.6
		c0.6,1,1.7,1.6,2.8,1.6h18.5c1.2,0,2.3-0.6,2.8-1.6l0,0c0.3-0.5,0.4-1.1,0.4-1.6c0-0.6-0.1-1.1-0.4-1.6c-0.1-0.1-0.1-0.2-0.2-0.3
		l-4.3-5l0.8-0.2c0,0,0,0,0.1,0c0.2,0,0.3-0.1,0.5-0.1c0.5-0.2,1-0.4,1.6-0.8c0.9-0.6,2-1.4,3-2.6c0.5-0.6,0.9-1.3,1.2-2.1
		c0.3-0.8,0.5-1.7,0.5-2.7v-0.5h0.2c4.3,0,7.8-3.5,7.8-7.8V7.8C46.4,3.5,42.9,0,38.6,0z M42,8.4c0,1-0.4,1.8-1,2.4
		c-0.6,0.6-1.5,1-2.4,1h-0.2V7.9c0-1.2-1-2.2-2.2-2.2c-1.2,0-2.2,1-2.2,2.2v8.7c0,0.5-0.2,1-0.4,1.5c-0.4,0.8-1.2,1.5-1.9,2
		c-0.4,0.2-0.7,0.4-0.9,0.5c-0.1,0-0.1,0.1-0.2,0.1c0,0,0,0,0,0l-3.7,0.9c-0.5,0.1-0.9,0.4-1.2,0.8L25.2,23
		c-0.6,0.8-0.6,1.9,0.1,2.7l4.7,5.4H16.3l4.8-5.5c0.4-0.5,0.6-1.1,0.5-1.7l0-0.3c-0.1-0.9-0.8-1.6-1.7-1.8l-4-0.9
		c-0.1,0-0.1-0.1-0.2-0.1c-0.5-0.3-1.5-1-2.2-1.7c-0.4-0.4-0.6-0.8-0.8-1.2c-0.2-0.4-0.3-0.7-0.3-1.1V7.9c0-1.2-1-2.2-2.2-2.2
		S8,6.7,8,7.9v3.9H7.8c-1,0-1.8-0.4-2.4-1c-0.6-0.6-1-1.5-1-2.4V7.8c0-1,0.4-1.8,1-2.4c0.6-0.6,1.5-1,2.4-1h0.6c0.1,0,0.2,0,0.3,0
		h28.6c0.1,0,0.2,0,0.2,0c0.2,0,0.3,0.1,0.5,0.1h0.6c1,0,1.8,0.4,2.4,1c0.6,0.6,1,1.5,1,2.4V8.4z"/>
</g>
<g>
</g>
<g>
</g>
<g>
</g>
<g>
</g>
<g>
</g>
<g>
</g>
<g>
</g>
<g>
</g>
<g>
</g>
<g>
</g>
<g>
</g>
<g>
</g>
<g>
</g>
<g>
</g>
<g>
</g>
</svg>
