<?xml version="1.0" encoding="utf-8"?>
<!-- Generator: Adobe Illustrator 18.1.1, SVG Export Plug-In . SVG Version: 6.00 Build 0)  -->
<svg version="1.1" id="Layer_1" xmlns="http://www.w3.org/2000/svg" xmlns:xlink="http://www.w3.org/1999/xlink" x="0px" y="0px"
	 viewBox="0 0 34 42" enable-background="new 0 0 34 42" xml:space="preserve">
<g>
	<path d="M20.8,35.4l-2.1,0.5l0.4,1.8h-4.2l0.4-1.8l0-0.2l0.1-0.8c0.1-0.7-0.1-1.4-0.6-1.9c-2.1-2.1-4.9-4.9-7-7.8
		c-1.1-1.4-2-2.9-2.6-4.2c-0.6-1.3-0.9-2.5-0.9-3.3v-1.5c0-3.3,1.3-6.3,3.5-8.4C10,5.7,13,4.4,16.3,4.4h1.5c3.3,0,6.3,1.3,8.4,3.5
		c2.2,2.2,3.5,5.1,3.5,8.4v1.5c0,0.8-0.3,2-0.9,3.3c-0.9,2-2.5,4.2-4.3,6.3c-1.8,2.1-3.7,4.1-5.3,5.6c-0.5,0.5-0.8,1.3-0.6,2
		l0.2,0.7l0,0L20.8,35.4l2.1-0.5l-0.2-0.7l-2.1,0.5l1.5,1.6c2.2-2.2,5.1-5.1,7.5-8.3c1.2-1.6,2.2-3.3,3-4.9c0.8-1.7,1.3-3.4,1.3-5.2
		v-1.5C34,7.3,26.7,0,17.7,0h-1.5C7.3,0,0,7.3,0,16.3v1.5c0,1.8,0.5,3.5,1.3,5.2c1.2,2.5,3,5,4.9,7.3c1.9,2.3,3.9,4.4,5.6,6l1.5-1.6
		l-2.2-0.3L11.1,35l-1,4.4c-0.1,0.6,0,1.3,0.4,1.8c0.4,0.5,1,0.8,1.7,0.8h9.7c0.7,0,1.3-0.3,1.7-0.8c0.4-0.5,0.6-1.2,0.4-1.8l-1-4.5
		l0,0L20.8,35.4z"/>
</g>
<g>
</g>
<g>
</g>
<g>
</g>
<g>
</g>
<g>
</g>
<g>
</g>
<g>
</g>
<g>
</g>
<g>
</g>
<g>
</g>
<g>
</g>
<g>
</g>
<g>
</g>
<g>
</g>
<g>
</g>
</svg>
