<?xml version="1.0" encoding="utf-8"?>
<!-- Generator: Adobe Illustrator 18.1.1, SVG Export Plug-In . SVG Version: 6.00 Build 0)  -->
<svg version="1.1" id="Layer_1" xmlns="http://www.w3.org/2000/svg" xmlns:xlink="http://www.w3.org/1999/xlink" x="0px" y="0px"
	 viewBox="0 0 43.4 28.1" enable-background="new 0 0 43.4 28.1" xml:space="preserve">
<g>
	<path d="M43.2,10.3c-0.1-0.6-0.3-1.1-0.6-1.7c-0.5-0.8-1.2-1.6-2.2-2c-0.4-0.2-0.8-0.3-1.3-0.4c-0.8-3.5-4-6.1-7.7-6.1H8
		C3.6,0,0,3.6,0,8v12.2c0,4.4,3.6,8,8,8h23.4c3.8,0,6.9-2.6,7.7-6.1c0.3-0.1,0.6-0.2,1-0.3c0.7-0.3,1.3-0.6,1.7-1.1
		c0.7-0.7,1.1-1.6,1.3-2.4c0.2-0.8,0.3-1.6,0.3-2.4v-3.3C43.4,11.7,43.3,11,43.2,10.3z M33.9,22.7c-0.7,0.7-1.5,1-2.5,1.1H8
		c-1,0-1.9-0.4-2.5-1.1c-0.7-0.7-1.1-1.5-1.1-2.5V8c0-1,0.4-1.9,1.1-2.5C6.1,4.8,7,4.4,8,4.4h23.4c1,0,1.9,0.4,2.5,1.1
		C34.6,6.1,34.9,7,34.9,8c0,0.2,0,0.3,0,0.4c0.1,1.1,1,1.9,2.2,1.9c0.7,0,1.1,0.1,1.3,0.2c0.2,0.1,0.2,0.1,0.3,0.2
		c0.1,0.1,0.1,0.2,0.2,0.5c0.1,0.3,0.1,0.8,0.1,1.3v3.3c0,0.5,0,0.9-0.1,1.2c0,0.2-0.1,0.4-0.2,0.4c-0.1,0.1-0.1,0.1-0.3,0.2
		c-0.2,0.1-0.6,0.2-1.4,0.2c-1.1,0-2,0.8-2.2,1.9c0,0.1,0,0.3,0,0.4C34.9,21.2,34.6,22,33.9,22.7z"/>
	<path d="M10,7.5c-1.2,0-2.2,1-2.2,2.2v8.5c0,1.2,1,2.2,2.2,2.2c1.2,0,2.2-1,2.2-2.2V9.7C12.2,8.5,11.2,7.5,10,7.5z"/>
	<path d="M17.9,7.5c-1.2,0-2.2,1-2.2,2.2v8.5c0,1.2,1,2.2,2.2,2.2c1.2,0,2.2-1,2.2-2.2V9.7C20.1,8.5,19.1,7.5,17.9,7.5z"/>
</g>
<g>
</g>
<g>
</g>
<g>
</g>
<g>
</g>
<g>
</g>
<g>
</g>
<g>
</g>
<g>
</g>
<g>
</g>
<g>
</g>
<g>
</g>
<g>
</g>
<g>
</g>
<g>
</g>
<g>
</g>
</svg>
