<?xml version="1.0" encoding="utf-8"?>
<!-- Generator: Adobe Illustrator 18.1.1, SVG Export Plug-In . SVG Version: 6.00 Build 0)  -->
<svg version="1.1" id="Layer_1" xmlns="http://www.w3.org/2000/svg" xmlns:xlink="http://www.w3.org/1999/xlink" x="0px" y="0px"
	 viewBox="0 0 39.3 32.6" enable-background="new 0 0 39.3 32.6" xml:space="preserve">
<g>
	<path d="M20.5,32.4L20.5,32.4c0.3-0.2,1.8-0.9,3.4-1.6c0.8-0.3,1.7-0.7,2.5-0.9c0.8-0.2,1.5-0.3,1.9-0.3c0.6,0,1.4,0.1,2.3,0.3
		c1.3,0.3,2.8,0.7,3.9,1c0.6,0.2,1,0.3,1.3,0.4c0.2,0.1,0.3,0.1,0.4,0.1l0.1,0l0,0c0.7,0.2,1.4,0.1,2-0.3c0.6-0.4,0.9-1.1,0.9-1.8
		V4.2c0-0.9-0.5-1.7-1.3-2c-0.1,0-1.3-0.6-3.1-1.1C33.1,0.6,30.7,0,28.4,0l-0.3,0c-1.2,0-2.3,0.3-3.4,0.6c-1.6,0.5-3.1,1.2-4.3,1.7
		c-1.1,0.6-1.9,1-1.9,1l1.1,1.9V3.1h0v2.2l1.1-1.9c0,0-1.3-0.8-3.1-1.6c-0.9-0.4-1.9-0.8-3-1.1C13.5,0.3,12.4,0,11.2,0l-0.3,0
		C8.6,0,6.2,0.6,4.4,1.1c-1.8,0.5-3,1.1-3.1,1.1C0.5,2.6,0,3.3,0,4.2v25.2c0,0.7,0.3,1.4,0.9,1.8c0.6,0.4,1.3,0.5,2,0.3l0.1,0
		c0.3-0.1,1.7-0.6,3.3-1C7.1,30.2,8,30,8.8,29.8c0.8-0.2,1.6-0.2,2.2-0.2c0.4,0,1.2,0.1,2,0.4c1.3,0.4,2.8,1,3.9,1.5
		c0.6,0.3,1,0.5,1.4,0.7c0.2,0.1,0.3,0.1,0.4,0.2l0.1,0l0,0c1.1,0.6,2.4,0.2,2.9-0.9c0.6-1.1,0.2-2.4-0.9-2.9c0,0-1.5-0.8-3.4-1.6
		c-1-0.4-2-0.8-3.1-1.1c-1.1-0.3-2.2-0.6-3.3-0.6c-1,0-2.1,0.2-3.2,0.4c-3.2,0.6-6.4,1.8-6.4,1.8l0.7,2.1h2.2V4.2H2.2l0.9,2l0,0
		c0.1,0,1.2-0.5,2.8-1c1.5-0.5,3.5-0.9,5.1-0.9l0.2,0c0.6,0,1.4,0.2,2.2,0.4c1.3,0.4,2.6,1,3.6,1.5c0.5,0.2,0.9,0.5,1.2,0.6
		C18.2,6.9,18.4,7,18.4,7l0.1,0l0,0l0,0c0.3,0.2,0.7,0.3,1.1,0.3h0c0.4,0,0.8-0.1,1.1-0.3l0,0c0.1-0.1,1.3-0.8,2.8-1.4
		C24.4,5.3,25.2,5,26,4.8c0.8-0.2,1.6-0.4,2.2-0.4l0.2,0c1.6,0,3.7,0.4,5.3,0.9c0.8,0.2,1.5,0.5,1.9,0.7C35.8,6,36,6.1,36.1,6.2
		l0.1,0.1l0,0l0,0l0.9-2h-2.2v25.2h2.2l0.7-2.1c0,0-1.5-0.5-3.4-1.1c-0.9-0.3-2-0.5-3.1-0.7c-1.1-0.2-2.1-0.4-3.2-0.4
		c-1.1,0-2.2,0.2-3.3,0.6c-1.6,0.5-3.2,1.2-4.5,1.7c-1.2,0.6-2.1,1-2.1,1c-1.1,0.6-1.5,1.9-0.9,2.9C18.1,32.5,19.4,32.9,20.5,32.4z"
		/>
</g>
<g>
</g>
<g>
</g>
<g>
</g>
<g>
</g>
<g>
</g>
<g>
</g>
<g>
</g>
<g>
</g>
<g>
</g>
<g>
</g>
<g>
</g>
<g>
</g>
<g>
</g>
<g>
</g>
<g>
</g>
</svg>
