<?xml version="1.0" encoding="utf-8"?>
<!-- Generator: Adobe Illustrator 18.1.1, SVG Export Plug-In . SVG Version: 6.00 Build 0)  -->
<svg version="1.1" id="Layer_1" xmlns="http://www.w3.org/2000/svg" xmlns:xlink="http://www.w3.org/1999/xlink" x="0px" y="0px"
	 viewBox="0 0 47.8 34.9" enable-background="new 0 0 47.8 34.9" xml:space="preserve">
<g>
	<path d="M47.5,20.5l-0.1-0.2l-1-3l0,0c-0.6-1.7-1.3-3.4-2.5-4.8c-0.6-0.7-1.4-1.3-2.3-1.8c-0.5-0.3-1.1-0.4-1.6-0.5l-1.8-3.6
		c-0.6-1.4-1.3-2.9-2.5-4.2c-0.6-0.7-1.3-1.3-2.2-1.7c-0.9-0.4-1.9-0.7-3-0.7H16.2c-1.1,0-2.1,0.2-2.9,0.7c-0.6,0.4-1.2,0.9-1.6,1.4
		c-0.6,0.8-0.9,1.5-1.2,2.3c-0.3,0.7-0.6,1.5-1,2.2l0,0l-1.7,3.6c-0.6,0.1-1.2,0.3-1.7,0.5c-1.4,0.6-2.4,1.7-3.1,2.8
		c-0.7,1.2-1.3,2.4-1.7,3.7l0,0l-1,3l-0.1,0.2C0.1,21.2,0,21.8,0,22.3c0,1,0.2,1.9,0.6,2.8c0.6,1.3,1.5,2.3,2.7,2.9
		C4.4,28.7,5.7,29,7.1,29h0c0.6,3.4,3.5,6,7.1,6h0.5c3.6,0,6.5-2.6,7.1-6h3.9c0.6,3.4,3.5,6,7.1,6h0.5c3.6,0,6.5-2.6,7.1-6h0.3
		c1.8,0,3.6-0.5,4.9-1.7c0.7-0.6,1.2-1.3,1.6-2.2c0.4-0.8,0.6-1.8,0.6-2.8C47.8,21.8,47.7,21.2,47.5,20.5z M43.2,23.3
		c-0.2,0.4-0.4,0.6-0.8,0.9c-0.4,0.2-1,0.4-1.7,0.4h-2.4c-1.2,0-2.2,1-2.2,2.2c0,0.1,0,0.2,0,0.3c0,0,0,0.1,0,0.1v0.5
		c0,0.8-0.3,1.5-0.8,2c-0.5,0.5-1.2,0.8-2,0.8h-0.5c-0.8,0-1.5-0.3-2-0.8c-0.5-0.5-0.8-1.2-0.8-2v-0.5c0-0.2,0-0.4-0.1-0.6
		c-0.1-1.1-1-2-2.2-2h-8c-1.2,0-2.2,1-2.2,2.2c0,0,0,0.1,0,0.1c0,0.1,0,0.2,0,0.3v0.5c0,0.8-0.3,1.5-0.8,2c-0.5,0.5-1.2,0.8-2,0.8
		h-0.5c-0.8,0-1.5-0.3-2-0.8c-0.5-0.5-0.8-1.2-0.8-2v-0.5c0-0.1,0-0.2,0-0.2c0-0.1,0-0.1,0-0.2c0-1.2-1-2.2-2.2-2.2H7.1
		c-1,0-1.7-0.3-2.1-0.6c-0.2-0.2-0.3-0.4-0.5-0.6c-0.1-0.3-0.2-0.6-0.2-1c0-0.2,0-0.5,0.1-0.8l1-2.9c0.6-1.6,1.1-2.8,1.7-3.4
		c0.3-0.3,0.5-0.5,0.8-0.7c0.3-0.1,0.6-0.2,1.2-0.2c0.6,0,1.2-0.2,1.6-0.7l0.3-0.3c0.2-0.2,0.3-0.4,0.4-0.6l2-4.3l0,0c0,0,0,0,0,0
		l0,0l0,0c0.4-0.8,0.7-1.6,0.9-2.2c0.2-0.5,0.4-0.8,0.5-1.1c0.1-0.2,0.2-0.4,0.3-0.4c0.1-0.1,0.2-0.2,0.3-0.2c0.1,0,0.3-0.1,0.8-0.1
		h14.2c0.5,0,0.8,0.1,1.1,0.2c0.4,0.2,0.8,0.6,1.3,1.2c0.5,0.7,0.9,1.6,1.4,2.6l0,0.1l2,4l0,0l0.3,0.7c0.4,0.7,1.1,1.2,1.9,1.2
		c0.5,0,0.8,0.1,1.1,0.2c0.4,0.2,0.9,0.6,1.3,1.3c0.4,0.7,0.9,1.6,1.2,2.7l0,0l1,2.9c0.1,0.3,0.1,0.6,0.1,0.8
		C43.4,22.8,43.3,23.1,43.2,23.3z"/>
</g>
<g>
</g>
<g>
</g>
<g>
</g>
<g>
</g>
<g>
</g>
<g>
</g>
<g>
</g>
<g>
</g>
<g>
</g>
<g>
</g>
<g>
</g>
<g>
</g>
<g>
</g>
<g>
</g>
<g>
</g>
</svg>
