<?xml version="1.0" encoding="utf-8"?>
<!-- Generator: Adobe Illustrator 18.1.1, SVG Export Plug-In . SVG Version: 6.00 Build 0)  -->
<svg version="1.1" id="Layer_1" xmlns="http://www.w3.org/2000/svg" xmlns:xlink="http://www.w3.org/1999/xlink" x="0px" y="0px"
	 viewBox="0 0 41.9 33.1" enable-background="new 0 0 41.9 33.1" xml:space="preserve">
<g>
	<path d="M34.1,0H7.7C3.5,0,0,3.5,0,7.7v17.6c0,4.3,3.5,7.7,7.7,7.7h26.4c4.3,0,7.7-3.5,7.7-7.7V7.7C41.9,3.5,38.4,0,34.1,0z
		 M5.3,5.3c0.6-0.6,1.4-1,2.4-1h26.4c0.9,0,1.8,0.4,2.4,1c0.6,0.6,1,1.4,1,2.4v1.8H4.4V7.7C4.4,6.8,4.7,6,5.3,5.3z M36.5,27.7
		c-0.6,0.6-1.4,1-2.4,1H7.7c-0.9,0-1.8-0.4-2.4-1c-0.6-0.6-1-1.4-1-2.4V13.9h33.1v11.5C37.5,26.3,37.1,27.1,36.5,27.7z"/>
</g>
<g>
</g>
<g>
</g>
<g>
</g>
<g>
</g>
<g>
</g>
<g>
</g>
<g>
</g>
<g>
</g>
<g>
</g>
<g>
</g>
<g>
</g>
<g>
</g>
<g>
</g>
<g>
</g>
<g>
</g>
</svg>
