<?xml version="1.0" encoding="utf-8"?>
<!-- Generator: Adobe Illustrator 18.1.1, SVG Export Plug-In . SVG Version: 6.00 Build 0)  -->
<svg version="1.1" id="Layer_1" xmlns="http://www.w3.org/2000/svg" xmlns:xlink="http://www.w3.org/1999/xlink" x="0px" y="0px"
	 viewBox="0 0 42.3 32.8" enable-background="new 0 0 42.3 32.8" xml:space="preserve">
<g>
	<path d="M34,0c-0.1,0-0.3,0-0.4,0H2.2C1.6,0,1,0.2,0.6,0.6C0.2,1,0,1.6,0,2.2V11c0,0.1,0,0.2,0,0.4c0,0.1,0,0.1,0,0.2v8.9
		c0,2.1,1,3.9,2.4,5.2c0.9,0.8,2,1.4,3.2,1.7v1.8c0,1.1,0.5,2.1,1.3,2.7c0.7,0.6,1.7,1,2.6,1h14.1c1,0,1.9-0.3,2.6-1
		c0.7-0.6,1.3-1.6,1.3-2.7v-1.8c1.2-0.3,2.4-0.9,3.3-1.7c1.5-1.2,2.5-3.1,2.4-5.2v-2.8h0.5c4.7,0,8.5-3.8,8.5-8.5V8.5
		C42.3,3.9,38.6,0.1,34,0z M37.9,9.2c0,1.1-0.5,2.2-1.2,2.9c-0.8,0.7-1.8,1.2-2.9,1.2h-0.5V8.6c0-1.2-1-2.2-2.2-2.2
		c-1.2,0-2.2,1-2.2,2.2v11.8c0,0.7-0.3,1.3-0.9,1.9c-0.6,0.5-1.6,0.9-2.7,0.9c-1.2,0-2.2,1-2.2,2.2c0,0.1,0,0.3,0,0.4
		c0,0.1,0,0.2,0,0.4v2.2H10.1v-2.3c0.1-0.2,0.1-0.4,0.1-0.6c0-1.2-1-2.2-2.2-2.2c-1.1,0-2-0.4-2.7-0.9c-0.6-0.6-0.9-1.2-0.9-1.9
		v-8.9c0-0.1,0-0.2,0-0.4c0-0.1,0-0.1,0-0.2V4.4h28.4c0.1,0,0.2,0,0.3,0h0.7c1.1,0,2.2,0.5,2.9,1.2c0.7,0.8,1.2,1.8,1.2,2.9V9.2z"/>
</g>
<g>
</g>
<g>
</g>
<g>
</g>
<g>
</g>
<g>
</g>
<g>
</g>
<g>
</g>
<g>
</g>
<g>
</g>
<g>
</g>
<g>
</g>
<g>
</g>
<g>
</g>
<g>
</g>
<g>
</g>
</svg>
