<?xml version="1.0" encoding="utf-8"?>
<!-- Generator: Adobe Illustrator 18.1.1, SVG Export Plug-In . SVG Version: 6.00 Build 0)  -->
<svg version="1.1" id="Layer_1" xmlns="http://www.w3.org/2000/svg" xmlns:xlink="http://www.w3.org/1999/xlink" x="0px" y="0px"
	 viewBox="0 0 41.3 35.2" enable-background="new 0 0 41.3 35.2" xml:space="preserve">
<g>
	<path d="M33.4,5.1H19.5l-1-1.4c-0.5-0.7-1-1.5-1.7-2.3c-0.4-0.4-0.9-0.7-1.5-1C14.6,0.1,13.9,0,13.3,0h-7C5.6,0,4.8,0.2,4.2,0.5
		C3.3,1,2.7,1.7,2.3,2.4c-0.4,0.7-0.7,1.4-1,2l0,0.1L0.1,8.1C0,8.3,0,8.5,0,8.7V13v0.1v14.1c0,4.4,3.6,8,8,8h25.4c4.4,0,8-3.6,8-8
		V13C41.3,8.6,37.8,5.1,33.4,5.1z M37,27.3c0,1-0.4,1.9-1.1,2.5c-0.7,0.7-1.5,1.1-2.5,1.1H8c-1,0-1.9-0.4-2.5-1.1
		c-0.7-0.7-1-1.5-1.1-2.5V13.1V13v-4l1-3.1c0.3-0.7,0.5-1.2,0.7-1.4c0.1-0.1,0.1-0.1,0.1-0.1l0.1,0h7c0.2,0,0.2,0,0.2,0
		c0.1,0,0.2,0.1,0.4,0.4C14.2,5,14.5,5.5,14.8,6l0.1,0.1l1.6,2.3C16.7,8.7,17,9,17.3,9.1c0.3,0.2,0.7,0.3,1.1,0.3h15
		c1,0,1.9,0.4,2.5,1.1C36.6,11.1,37,12,37,13V27.3z"/>
</g>
<g>
</g>
<g>
</g>
<g>
</g>
<g>
</g>
<g>
</g>
<g>
</g>
<g>
</g>
<g>
</g>
<g>
</g>
<g>
</g>
<g>
</g>
<g>
</g>
<g>
</g>
<g>
</g>
<g>
</g>
</svg>
