<?xml version="1.0" encoding="utf-8"?>
<!-- Generator: Adobe Illustrator 18.1.1, SVG Export Plug-In . SVG Version: 6.00 Build 0)  -->
<svg version="1.1" id="Layer_1" xmlns="http://www.w3.org/2000/svg" xmlns:xlink="http://www.w3.org/1999/xlink" x="0px" y="0px"
	 viewBox="0 0 47.8 34.3" enable-background="new 0 0 47.8 34.3" xml:space="preserve">
<g>
	<path d="M47.7,24c0-0.1-0.1-0.3-0.1-0.4l-4.1-11.2l0,0C43,10.7,42.3,9,41,7.6c-0.6-0.7-1.4-1.3-2.3-1.8c-0.9-0.5-2-0.7-3.1-0.7h-10
		v-3c0-1.2-1-2.2-2.2-2.2c-1.2,0-2.2,1-2.2,2.2v3h-9.1c-1.1,0-2.1,0.2-3,0.6C7.9,6.4,6.9,7.4,6.1,8.6C5.4,9.7,4.9,11,4.4,12.4
		L0.4,23.5l0,0C0.1,24.3,0,25,0,25.7c0,1.2,0.3,2.3,0.8,3.2c0.7,1.5,1.7,2.7,3,3.7c1.3,0.9,2.7,1.6,4.4,1.6l0.1,0c0,0,0.7,0,1.6-0.2
		c0.5-0.1,1-0.2,1.5-0.3c0.5-0.1,1-0.3,1.6-0.6c2.7-1.6,3.5-2.3,3.7-2.6c0.1-0.1,0.2-0.2,0.3-0.4c0,0,0.1-0.1,0.1-0.1l2.8-4.2l0,0
		c0.6-0.9,1-1.5,1.2-1.7c0.1-0.1,0.1-0.1,0.1-0.1c0,0,0.1,0,0.3,0h4.7c0.1,0,0.1,0,0.1,0c0,0,0.2,0.1,0.5,0.5
		c0.3,0.4,0.6,0.9,1.1,1.5l2.7,4c0.1,0.2,0.2,0.3,0.3,0.4c0.1,0.1,0.1,0.2,0.2,0.3c0,0,0.6,0.5,1.3,1.1c0.4,0.3,0.8,0.6,1.1,0.9
		c0.2,0.1,0.4,0.3,0.6,0.4c0.2,0.1,0.4,0.2,0.7,0.4c1.1,0.4,2.1,0.6,3,0.7c0.8,0.1,1.4,0.2,1.5,0.2l0.1,0c1.1,0,2.1-0.3,3.1-0.7
		c1.4-0.7,2.6-1.8,3.5-3.2c0.9-1.4,1.4-3.1,1.4-4.9C47.8,24.9,47.7,24.4,47.7,24z M42.1,28.7c-0.4,0.4-0.8,0.7-1.2,0.9
		c-0.4,0.2-0.8,0.3-1.2,0.3c-0.2,0-0.6-0.1-1.2-0.1c-0.6-0.1-1.4-0.3-1.9-0.4c-0.1,0-0.3-0.2-0.5-0.3c-0.4-0.3-0.9-0.7-1.3-1
		c-0.2-0.2-0.4-0.3-0.5-0.4l-0.1-0.1l-2.6-3.9l-0.1-0.1c-0.5-0.6-0.9-1.4-1.7-2.2c-0.4-0.4-0.9-0.8-1.5-1.1
		c-0.6-0.3-1.4-0.5-2.1-0.5h-4.7c-0.6,0-1.3,0.1-1.9,0.3c-0.5,0.2-0.9,0.4-1.2,0.7c-0.5,0.4-0.9,0.9-1.2,1.4
		c-0.3,0.5-0.6,0.9-0.9,1.4h0l-2.7,4.2c-0.3,0.2-1,0.8-2.7,1.8c0,0-0.3,0.1-0.6,0.2c-0.5,0.1-1,0.2-1.5,0.3c-0.2,0-0.4,0-0.5,0.1
		l-0.1,0c-0.3,0-0.7-0.1-1.1-0.3c-0.7-0.3-1.4-1-1.9-1.7c-0.5-0.7-0.8-1.6-0.8-2.2c0-0.3,0-0.5,0.1-0.7l0,0l4.1-11.2l0-0.1
		c0.5-1.6,1.1-2.7,1.6-3.4c0.3-0.3,0.6-0.5,0.9-0.7c0.3-0.1,0.7-0.2,1.2-0.2h23.4c0.5,0,0.8,0.1,1.2,0.3c0.5,0.2,0.9,0.7,1.4,1.4
		c0.4,0.7,0.8,1.6,1.1,2.6l0,0.1l4,10.9c0,0.2,0,0.4,0,0.6C43.4,26.7,42.9,27.9,42.1,28.7z"/>
</g>
<g>
</g>
<g>
</g>
<g>
</g>
<g>
</g>
<g>
</g>
<g>
</g>
<g>
</g>
<g>
</g>
<g>
</g>
<g>
</g>
<g>
</g>
<g>
</g>
<g>
</g>
<g>
</g>
<g>
</g>
</svg>
