<?xml version="1.0" encoding="utf-8"?>
<!-- Generator: Adobe Illustrator 18.1.1, SVG Export Plug-In . SVG Version: 6.00 Build 0)  -->
<svg version="1.1" id="Layer_1" xmlns="http://www.w3.org/2000/svg" xmlns:xlink="http://www.w3.org/1999/xlink" x="0px" y="0px"
	 viewBox="0 0 40.8 40.8" enable-background="new 0 0 40.8 40.8" xml:space="preserve">
<g>
	<path d="M21.3,0h-1.8C8.7,0,0,8.7,0,19.5v1.8c0,10.8,8.7,19.5,19.5,19.5h1.8c10.8,0,19.5-8.7,19.5-19.5v-1.8
		C40.8,8.7,32.1,0,21.3,0z M32,32c-2.7,2.7-6.5,4.4-10.7,4.4h-1.8c-4.2,0-8-1.7-10.7-4.4c-2.7-2.7-4.4-6.5-4.4-10.7v-1.8
		c0-4.2,1.7-8,4.4-10.7c2.7-2.7,6.5-4.4,10.7-4.4h1.8c4.2,0,8,1.7,10.7,4.4c2.7,2.7,4.4,6.5,4.4,10.7v1.8C36.5,25.5,34.8,29.3,32,32
		z"/>
	<path d="M21.5,8.3h-1.5c-1.8,0-3.4,0.7-4.6,1.8c-1.2,1.1-1.9,2.8-1.9,4.5c0,1.2,1,2.2,2.2,2.2c1.2,0,2.2-1,2.2-2.2
		c0-0.5,0.2-1,0.6-1.4c0.4-0.4,0.9-0.6,1.5-0.6h1.5c0.6,0,1.1,0.2,1.5,0.6c0.4,0.4,0.6,0.9,0.6,1.4v0.9v0c0,0.8-0.1,1.2-0.2,1.4
		c-0.2,0.4-0.3,0.4-0.5,0.5l-0.2,0.1l0,0v0c-0.6,0-1.2,0.1-1.8,0.3c-1,0.3-1.9,0.9-2.5,1.8c-0.6,0.9-0.9,1.9-0.9,2.9
		c0,0.4,0,0.8,0.1,1.2c0.2,1.2,1.3,2,2.5,1.8c1.2-0.2,2-1.3,1.8-2.5c0-0.2,0-0.3,0-0.5c0-0.2,0-0.3,0-0.4l0.1-0.1
		c0.1-0.1,0.4-0.2,0.9-0.2l0.1,0c0.1,0,0.5,0,0.9-0.2c0.7-0.2,1.8-0.7,2.6-1.7c0.4-0.5,0.8-1.2,1-1.9c0.2-0.8,0.4-1.6,0.4-2.6v0
		v-0.9c0-1.8-0.7-3.4-1.9-4.5C24.9,9,23.2,8.3,21.5,8.3z M22.8,17.6L22.8,17.6L22.8,17.6L22.8,17.6z"/>
	<ellipse cx="19.9" cy="29.9" rx="2.8" ry="2.7"/>
</g>
<g>
</g>
<g>
</g>
<g>
</g>
<g>
</g>
<g>
</g>
<g>
</g>
<g>
</g>
<g>
</g>
<g>
</g>
<g>
</g>
<g>
</g>
<g>
</g>
<g>
</g>
<g>
</g>
<g>
</g>
</svg>
