<?xml version="1.0" encoding="utf-8"?>
<!-- Generator: Adobe Illustrator 18.1.1, SVG Export Plug-In . SVG Version: 6.00 Build 0)  -->
<svg version="1.1" id="Layer_1" xmlns="http://www.w3.org/2000/svg" xmlns:xlink="http://www.w3.org/1999/xlink" x="0px" y="0px"
	 viewBox="0 0 33.4 43.2" enable-background="new 0 0 33.4 43.2" xml:space="preserve">
<g>
	<path d="M17.4,0H16C7.1,0,0,7.1,0,16v1.4C0,23.1,2.9,28,7.4,30.9c0,0.1,0,0.3,0,0.4L8.8,38c0.2,2.3,2,4.1,4.3,4.3l3.2,0.9
		c0.4,0.1,0.8,0.1,1.2,0l2.9-0.9c2.3-0.2,4-2,4.2-4.3l1.4-6.7c0-0.1,0-0.3,0-0.4c4.4-2.8,7.4-7.8,7.4-13.5V16
		C33.4,7.1,26.2,0,17.4,0z M29,17.4c0,4.4-2.4,8.2-6,10.2c-0.8,0.5-1.2,1.4-1.1,2.2c-0.1,0.2-0.2,0.4-0.2,0.6l-1.4,6.8
		c0,0.2,0,0.3,0,0.4c0,0.2-0.2,0.4-0.4,0.4c-0.2,0-0.4,0-0.6,0.1l-2.4,0.7L14.1,38C13.9,38,13.7,38,13.5,38c-0.2,0-0.4-0.2-0.4-0.4
		c0-0.2,0-0.3,0-0.4l-1.4-6.8c0-0.2-0.1-0.3-0.2-0.5c0.2-0.9-0.2-1.8-1.1-2.3c-3.6-2-6.1-5.8-6.1-10.2V16c0-3.2,1.3-6.1,3.4-8.2
		c2.1-2.1,5-3.4,8.2-3.4h1.4c3.2,0,6.1,1.3,8.2,3.4c2.1,2.1,3.4,5,3.4,8.2V17.4z"/>
	<path d="M21.7,13.2h-5h-5.1c-0.6,0-1.1,0.2-1.5,0.6c-0.4,0.4-0.6,1-0.6,1.5v7.9c0,1.2,1,2.2,2.2,2.2c1.2,0,2.2-1,2.2-2.2v-5.7h2.9
		h2.8v5.7c0,1.2,1,2.2,2.2,2.2c1.2,0,2.2-1,2.2-2.2v-7.9c0-0.6-0.2-1.1-0.6-1.5C22.9,13.5,22.3,13.2,21.7,13.2z"/>
</g>
<g>
</g>
<g>
</g>
<g>
</g>
<g>
</g>
<g>
</g>
<g>
</g>
<g>
</g>
<g>
</g>
<g>
</g>
<g>
</g>
<g>
</g>
<g>
</g>
<g>
</g>
<g>
</g>
<g>
</g>
</svg>
