<?xml version="1.0" encoding="utf-8"?>
<!-- Generator: Adobe Illustrator 18.1.1, SVG Export Plug-In . SVG Version: 6.00 Build 0)  -->
<svg version="1.1" id="Layer_1" xmlns="http://www.w3.org/2000/svg" xmlns:xlink="http://www.w3.org/1999/xlink" x="0px" y="0px"
	 viewBox="0 0 39 38.3" enable-background="new 0 0 39 38.3" xml:space="preserve">
<g>
	<path d="M32.1,0L32.1,0L32.1,0L32.1,0c-3.8,0-6.9,3.1-6.9,6.9v1.2H13.8V6.9c0-3.8-3.1-6.9-6.9-6.9h0h0h0C3.1,0,0,3.1,0,6.9v8.3v1.4
		v13.3c0,4.7,3.8,8.4,8.4,8.4h22.1c4.7,0,8.4-3.8,8.4-8.4V16.5v-1.4V6.9C39,3.1,35.9,0,32.1,0z M34.6,15.2v1.4v13.3
		c0,1.1-0.5,2.1-1.2,2.9c-0.7,0.7-1.8,1.2-2.9,1.2H8.4c-1.1,0-2.1-0.5-2.9-1.2C4.8,32,4.4,31,4.4,29.9V16.5v-1.4V6.9
		c0-0.7,0.3-1.3,0.7-1.8c0.5-0.5,1.1-0.7,1.8-0.7c0.7,0,1.3,0.3,1.8,0.7c0.5,0.5,0.7,1.1,0.7,1.8v3.4c0,1.2,1,2.2,2.2,2.2
		c0,0,0,0,0,0c0,0,0,0,0,0h15.2c0.6,0,1.1-0.2,1.5-0.6c0.7-0.4,1.2-1.1,1.2-1.9v-3c0-0.7,0.3-1.3,0.7-1.8c0.5-0.5,1.1-0.7,1.8-0.7
		c0.7,0,1.3,0.3,1.8,0.7c0.5,0.5,0.7,1.1,0.7,1.8V15.2z"/>
	<circle cx="9.4" cy="19.9" r="1.9"/>
	<circle cx="29.5" cy="19.9" r="1.9"/>
	<circle cx="19.5" cy="22.9" r="4.6"/>
</g>
<g>
</g>
<g>
</g>
<g>
</g>
<g>
</g>
<g>
</g>
<g>
</g>
<g>
</g>
<g>
</g>
<g>
</g>
<g>
</g>
<g>
</g>
<g>
</g>
<g>
</g>
<g>
</g>
<g>
</g>
</svg>
