<?xml version="1.0" encoding="utf-8"?>
<!-- Generator: Adobe Illustrator 18.1.1, SVG Export Plug-In . SVG Version: 6.00 Build 0)  -->
<svg version="1.1" id="Layer_1" xmlns="http://www.w3.org/2000/svg" xmlns:xlink="http://www.w3.org/1999/xlink" x="0px" y="0px"
	 viewBox="0 0 41.2 39.1" enable-background="new 0 0 41.2 39.1" xml:space="preserve">
<g>
	<path d="M35.3,5.2C31.8,2,27.1,0,22.1,0h-3c-5,0-9.7,2-13.2,5.2C2.4,8.5,0,13,0,18.1v3c0,5.1,2.4,9.6,5.9,12.8
		c3.5,3.2,8.2,5.2,13.2,5.2h3c5,0,9.7-2,13.2-5.2c3.5-3.2,5.9-7.8,5.9-12.8v-3C41.2,13,38.8,8.5,35.3,5.2z M36.4,24.1h-4.2
		c0.1-0.9,0.1-1.7,0.1-2.6v-3.9c0-0.4,0-0.9,0-1.3h4.4c0.1,0.6,0.2,1.2,0.2,1.8v3C36.8,22.1,36.7,23.1,36.4,24.1z M4.4,21.1v-3
		c0-0.6,0.1-1.2,0.2-1.8h4.4c0,0.4,0,0.9,0,1.3v3.9c0,0.9,0.1,1.7,0.1,2.6H4.8C4.5,23.1,4.4,22.1,4.4,21.1z M11.6,21.5v-3.9
		c0-0.4,0-0.9,0-1.3h7.6v7.8h-7.5C11.7,23.3,11.6,22.4,11.6,21.5z M22,16.3h7.6c0,0.4,0,0.9,0,1.3v3.9c0,0.9-0.1,1.7-0.1,2.6H22
		V16.3z M35.9,13.6h-3.9c-0.3-2.4-1-4.7-1.9-6.8c0.8,0.5,1.5,1.1,2.2,1.7C33.9,9.9,35.2,11.6,35.9,13.6z M26.1,4.9
		c1.6,2.4,2.7,5.4,3.2,8.6H22V4.4h0.1C23.4,4.4,24.8,4.6,26.1,4.9z M19.2,4.4v9.2h-7.3c0.5-3.2,1.6-6.2,3.1-8.6
		c1.3-0.4,2.7-0.6,4.1-0.6H19.2z M8.8,8.4c0.7-0.6,1.4-1.2,2.2-1.7c-0.9,2.1-1.5,4.4-1.9,6.8H5.3C6,11.6,7.2,9.9,8.8,8.4z M5.8,26.8
		h3.5c0.4,2,0.9,3.8,1.7,5.5c-0.8-0.5-1.5-1.1-2.2-1.7C7.6,29.6,6.6,28.3,5.8,26.8z M15,34.2c-1.3-2.1-2.3-4.6-2.9-7.3h7.1v7.9h-0.1
		C17.7,34.8,16.3,34.6,15,34.2z M22,34.8v-7.9h7.1c-0.6,2.8-1.6,5.3-3,7.4c-1.3,0.4-2.6,0.6-4,0.6H22z M32.4,30.7
		c-0.7,0.6-1.4,1.2-2.2,1.7c0.8-1.7,1.3-3.6,1.7-5.6h3.5C34.6,28.3,33.6,29.6,32.4,30.7z"/>
</g>
<g>
</g>
<g>
</g>
<g>
</g>
<g>
</g>
<g>
</g>
<g>
</g>
<g>
</g>
<g>
</g>
<g>
</g>
<g>
</g>
<g>
</g>
<g>
</g>
<g>
</g>
<g>
</g>
<g>
</g>
</svg>
