<?xml version="1.0" encoding="utf-8"?>
<!-- Generator: Adobe Illustrator 18.1.1, SVG Export Plug-In . SVG Version: 6.00 Build 0)  -->
<svg version="1.1" id="Layer_1" xmlns="http://www.w3.org/2000/svg" xmlns:xlink="http://www.w3.org/1999/xlink" x="0px" y="0px"
	 viewBox="0 0 41.8 32.3" enable-background="new 0 0 41.8 32.3" xml:space="preserve">
<g>
	<path d="M34.2,0H7.6C3.4,0,0,3.4,0,7.6v17.1c0,4.2,3.4,7.6,7.6,7.6h26.6c4.2,0,7.6-3.4,7.6-7.6V7.6C41.8,3.4,38.4,0,34.2,0z
		 M37.4,24.7l-8.8-8.8l8.8-8.8c0,0.1,0,0.3,0,0.4L37.4,24.7C37.4,24.7,37.4,24.7,37.4,24.7z M34.2,4.4c0.4,0,0.8,0.1,1.1,0.2
		L23.5,16.4c-0.7,0.7-1.7,1.1-2.7,1.1c-1,0-1.9-0.4-2.7-1.1L6.3,4.6c0.4-0.2,0.8-0.2,1.2-0.2H34.2z M4.4,24.6v-17c0-0.1,0-0.2,0-0.3
		l8.6,8.6L4.4,24.6z M7.6,27.9c-0.5,0-1.1-0.1-1.5-0.4l9.3-9.3l0.5,0.5c1.4,1.4,3.2,2.1,5,2.1c1.8,0,3.6-0.7,5-2.1l0.5-0.5l9.3,9.3
		c-0.4,0.2-0.9,0.3-1.4,0.3H7.6z"/>
</g>
<g>
</g>
<g>
</g>
<g>
</g>
<g>
</g>
<g>
</g>
<g>
</g>
<g>
</g>
<g>
</g>
<g>
</g>
<g>
</g>
<g>
</g>
<g>
</g>
<g>
</g>
<g>
</g>
<g>
</g>
</svg>
