<?xml version="1.0" encoding="utf-8"?>
<!-- Generator: Adobe Illustrator 18.1.1, SVG Export Plug-In . SVG Version: 6.00 Build 0)  -->
<svg version="1.1" id="Layer_1" xmlns="http://www.w3.org/2000/svg" xmlns:xlink="http://www.w3.org/1999/xlink" x="0px" y="0px"
	 viewBox="0 0 36.3 40.3" enable-background="new 0 0 36.3 40.3" xml:space="preserve">
<g>
	<path d="M28.3,0H8C3.6,0,0,3.6,0,8v24.4c0,4.4,3.6,8,8,8h20.4c4.4,0,7.9-3.6,8-8V8C36.3,3.6,32.7,0,28.3,0z M30.8,34.9
		c-0.7,0.7-1.5,1.1-2.5,1.1H8c-1,0-1.9-0.4-2.5-1.1c-0.7-0.7-1.1-1.5-1.1-2.5V8c0-1,0.4-1.9,1.1-2.5C6.1,4.8,7,4.4,8,4.4h20.4
		c1,0,1.9,0.4,2.5,1.1C31.5,6.1,31.9,7,31.9,8v24.4C31.9,33.4,31.5,34.3,30.8,34.9z"/>
	<path d="M26.4,18H10.1c-1.2,0-2.2,1-2.2,2.2c0,1.2,1,2.2,2.2,2.2h16.3c1.2,0,2.2-1,2.2-2.2C28.5,19,27.6,18,26.4,18z"/>
	<path d="M26.4,26.6H10.1c-1.2,0-2.2,1-2.2,2.2c0,1.2,1,2.2,2.2,2.2h16.3c1.2,0,2.2-1,2.2-2.2C28.5,27.6,27.6,26.6,26.4,26.6z"/>
	<path d="M26.4,9.5H10.1c-1.2,0-2.2,1-2.2,2.2c0,1.2,1,2.2,2.2,2.2h16.3c1.2,0,2.2-1,2.2-2.2C28.5,10.5,27.6,9.5,26.4,9.5z"/>
</g>
<g>
</g>
<g>
</g>
<g>
</g>
<g>
</g>
<g>
</g>
<g>
</g>
<g>
</g>
<g>
</g>
<g>
</g>
<g>
</g>
<g>
</g>
<g>
</g>
<g>
</g>
<g>
</g>
<g>
</g>
</svg>
