<?xml version="1.0" encoding="utf-8"?>
<!-- Generator: Adobe Illustrator 18.1.1, SVG Export Plug-In . SVG Version: 6.00 Build 0)  -->
<svg version="1.1" id="Layer_1" xmlns="http://www.w3.org/2000/svg" xmlns:xlink="http://www.w3.org/1999/xlink" x="0px" y="0px"
	 viewBox="0 0 40.8 40.8" enable-background="new 0 0 40.8 40.8" xml:space="preserve">
<g>
	<path d="M21.3,0h-1.8C8.7,0,0,8.7,0,19.5v1.8c0,10.8,8.7,19.5,19.5,19.5h1.8c10.8,0,19.5-8.7,19.5-19.5v-1.8
		C40.8,8.7,32.1,0,21.3,0z M32,32c-2.7,2.7-6.5,4.4-10.7,4.4h-1.8c-4.2,0-8-1.7-10.7-4.4c-2.7-2.7-4.4-6.5-4.4-10.7v-1.8
		c0-4.2,1.7-8,4.4-10.7c2.7-2.7,6.5-4.4,10.7-4.4h1.8c4.2,0,8,1.7,10.7,4.4c2.7,2.7,4.4,6.5,4.4,10.7v1.8C36.5,25.5,34.8,29.3,32,32
		z"/>
	<path d="M22.3,18c-0.2-0.1-0.6-0.2-1-0.3c-1.9-0.5-2.9-1.2-2.9-1.9c0-0.5,0.2-0.9,0.7-1.2c0.4-0.3,1-0.4,1.8-0.4
		c0.4,0,1.1,0.1,2,0.3c0.9,0.2,1.5,0.3,1.9,0.3c0.7,0,1.2-0.2,1.6-0.5c0.4-0.3,0.6-0.8,0.6-1.3c0-0.7-0.5-1.4-1.4-1.9
		c-0.7-0.4-1.7-0.7-2.9-0.8V8.9c0-1.2-1-2.2-2.2-2.2c-1.2,0-2.2,1-2.2,2.2v1.7c-1.4,0.4-2.6,1-3.5,1.9c-1.1,1-1.6,2.3-1.6,3.8
		c0,1.4,0.5,2.4,1.4,3.3c0.9,0.8,2.5,1.5,4.8,2.1c1.6,0.4,2.6,0.8,3.1,1.2c0.5,0.4,0.7,0.8,0.7,1.4c0,0.6-0.2,1-0.7,1.4
		c-0.5,0.4-1,0.6-1.7,0.6c-0.8,0-1.8-0.2-3-0.5c-1.2-0.3-1.9-0.5-2.3-0.5c-0.7,0-1.3,0.2-1.8,0.5c-0.4,0.4-0.7,0.8-0.7,1.4
		c0,0.8,0.6,1.4,1.7,2c0.9,0.5,2.2,0.8,3.7,1v1.4c0,1.2,1,2.2,2.2,2.2c1.2,0,2.2-1,2.2-2.2v-1.5c1.5-0.3,2.8-0.9,3.9-1.9
		c1.2-1.2,1.9-2.6,1.9-4.2c0-1.4-0.5-2.5-1.4-3.4C25.9,19.4,24.4,18.6,22.3,18z"/>
</g>
<g>
</g>
<g>
</g>
<g>
</g>
<g>
</g>
<g>
</g>
<g>
</g>
<g>
</g>
<g>
</g>
<g>
</g>
<g>
</g>
<g>
</g>
<g>
</g>
<g>
</g>
<g>
</g>
<g>
</g>
</svg>
