<?xml version="1.0" encoding="utf-8"?>
<!-- Generator: Adobe Illustrator 18.1.1, SVG Export Plug-In . SVG Version: 6.00 Build 0)  -->
<svg version="1.1" id="Layer_1" xmlns="http://www.w3.org/2000/svg" xmlns:xlink="http://www.w3.org/1999/xlink" x="0px" y="0px"
	 viewBox="0 0 39.3 38.9" enable-background="new 0 0 39.3 38.9" xml:space="preserve">
<g>
	<path d="M31.4,0H8C3.6,0,0,3.6,0,8v16.3c0,4.4,3.6,8,8,8h2.8l-0.4,0.7c-0.2,0.3-0.2,0.6-0.2,1c0,0.9,0.1,1.7,0.5,2.5
		c0.3,0.6,0.7,1.1,1.2,1.5c0.8,0.6,1.6,0.8,2.3,0.9c0.7,0.1,1.4,0.1,2.1,0.1c0.6,0,1.2,0,1.8,0h3c0.6,0,1.2,0,1.8,0
		c0.6,0,1.2,0,1.9-0.1c0.5-0.1,1-0.2,1.5-0.4c0.4-0.2,0.8-0.4,1.1-0.7c0.6-0.4,1-1.1,1.3-1.7c0.3-0.7,0.4-1.4,0.4-2.1
		c0-0.3-0.1-0.7-0.2-1l-0.4-0.7h2.8c4.4,0,8-3.6,8-8V8C39.3,3.6,35.8,0,31.4,0z M34.9,24.2c0,1-0.4,1.9-1.1,2.5
		c-0.7,0.7-1.5,1.1-2.5,1.1h-6.2c-1.2,0-2.2,1-2.2,2.2c0,0.5,0.2,0.9,0.4,1.3c0,0.1,0,0.1,0,0.2c0.1,0.4,0.3,0.8,0.4,1.2l0.1,0.2
		l0.8,1.5l0,0c-0.1,0-0.2,0.1-0.4,0.1c-0.3,0-0.8,0.1-1.3,0.1c-0.5,0-1.1,0-1.8,0h-3c-0.7,0-1.3,0-1.8,0c-0.5,0-1,0-1.3-0.1
		c-0.2,0-0.4-0.1-0.4-0.1l0,0l0.8-1.5l0.1-0.2c0.2-0.6,0.4-1.1,0.6-1.6c0-0.1,0-0.1,0.1-0.2c0.1-0.3,0.2-0.6,0.2-0.9
		c0-1.2-1-2.2-2.2-2.2H8c-1,0-1.9-0.4-2.5-1.1c-0.7-0.7-1.1-1.5-1.1-2.5V8c0-1,0.4-1.9,1.1-2.5C6.1,4.8,7,4.4,8,4.4h23.4
		c1,0,1.9,0.4,2.5,1.1C34.6,6.1,34.9,7,34.9,8V24.2z"/>
	<path d="M29,7.7H10.3c-0.6,0-1.1,0.2-1.5,0.6c-0.4,0.4-0.6,1-0.6,1.5v12.5c0,0.6,0.2,1.1,0.6,1.5c0.4,0.4,1,0.6,1.5,0.6H29
		c0.6,0,1.1-0.2,1.5-0.6c0.4-0.4,0.6-1,0.6-1.5V9.8c0-0.6-0.2-1.1-0.6-1.5C30.1,7.9,29.6,7.7,29,7.7z M12.5,12h14.3v8.1H12.5V12z"/>
</g>
<g>
</g>
<g>
</g>
<g>
</g>
<g>
</g>
<g>
</g>
<g>
</g>
<g>
</g>
<g>
</g>
<g>
</g>
<g>
</g>
<g>
</g>
<g>
</g>
<g>
</g>
<g>
</g>
<g>
</g>
</svg>
