<?xml version="1.0" encoding="utf-8"?>
<!-- Generator: Adobe Illustrator 18.1.1, SVG Export Plug-In . SVG Version: 6.00 Build 0)  -->
<svg version="1.1" id="Layer_1" xmlns="http://www.w3.org/2000/svg" xmlns:xlink="http://www.w3.org/1999/xlink" x="0px" y="0px"
	 viewBox="0 0 32.9 44.6" enable-background="new 0 0 32.9 44.6" xml:space="preserve">
<g>
	<path d="M28.8,12.1c-1.4-1.7-3.1-3.1-5.1-4c-1.5-0.7-3.2-1.2-5-1.4c0-0.1,0-0.3,0-0.4V2.2c0-1.2-1-2.2-2.2-2.2
		c-1.2,0-2.2,1-2.2,2.2v4.2c0,0.1,0,0.3,0,0.4c-1.8,0.2-3.5,0.7-5,1.4c-3,1.4-5.4,3.8-7,6.7C0.8,17.7,0,21.2,0,24.8v1.7
		c0,4.8,1.4,9.3,4.2,12.7c1.4,1.7,3.1,3.1,5.1,4c2,0.9,4.3,1.5,6.8,1.5h0.7c2.5,0,4.8-0.5,6.8-1.5c3-1.4,5.4-3.8,7-6.7
		c1.6-2.9,2.4-6.3,2.4-9.9v-1.7C32.9,20,31.5,15.5,28.8,12.1z M26.1,15.8c-0.1,0.9-0.4,1.7-1,2.3c-0.7,0.7-1.5,1-2.5,1.1h-3.8v-8
		c1.1,0.2,2.2,0.5,3.1,0.9C23.5,12.9,25,14.1,26.1,15.8z M11.2,12.1c0.9-0.4,2-0.7,3.1-0.9v8h-4c-1,0-1.9-0.4-2.5-1.1
		c-0.6-0.6-0.9-1.3-1-2.1c0.2-0.4,0.5-0.8,0.8-1.1C8.5,13.7,9.7,12.7,11.2,12.1z M25.4,36.3c-1,1.2-2.2,2.2-3.6,2.8
		c-1.4,0.7-3.1,1-5,1h-0.7c-1.9,0-3.5-0.4-5-1c-2.1-1-3.8-2.6-5-4.8c-1.2-2.2-1.8-4.9-1.8-7.9v-1.7c0-1.2,0.1-2.4,0.3-3.5
		c1.4,1.4,3.4,2.3,5.6,2.3h12.2c2.2,0,4.3-0.9,5.7-2.4c0.2,1.2,0.4,2.4,0.4,3.7v1.7C28.6,30.4,27.4,33.9,25.4,36.3z"/>
</g>
<g>
</g>
<g>
</g>
<g>
</g>
<g>
</g>
<g>
</g>
<g>
</g>
<g>
</g>
<g>
</g>
<g>
</g>
<g>
</g>
<g>
</g>
<g>
</g>
<g>
</g>
<g>
</g>
<g>
</g>
</svg>
