<?xml version="1.0" encoding="utf-8"?>
<!-- Generator: Adobe Illustrator 18.1.1, SVG Export Plug-In . SVG Version: 6.00 Build 0)  -->
<svg version="1.1" id="Layer_1" xmlns="http://www.w3.org/2000/svg" xmlns:xlink="http://www.w3.org/1999/xlink" x="0px" y="0px"
	 viewBox="0 0 36.4 36.4" enable-background="new 0 0 36.4 36.4" xml:space="preserve">
<g>
	<path d="M36.4,29.7c0-1.2-0.4-2.3-0.9-3.2c-0.5-0.9-1.2-1.8-2-2.5l0,0L27,17.6l3.5-3.5c0.7-0.7,1.1-1.7,1.1-2.7c0-0.3,0-0.7-0.1-1
		l0,0C31.2,9,30.2,8,28.9,7.7v0l-24-7.5l-0.1,0C4.5,0,4.2,0,3.9,0c-1,0-2,0.4-2.7,1.1l0,0C0.4,1.9,0,2.8,0,3.9c0,0.3,0,0.7,0.1,1
		l0,0.1l7.5,24l0,0c0.4,1.3,1.4,2.3,2.7,2.6l0,0c0.3,0.1,0.7,0.1,1,0.1c1,0,2-0.4,2.7-1.1l0,0l3.5-3.5l6.5,6.5
		c0.8,0.8,1.6,1.4,2.5,2c0.9,0.5,2,0.9,3.2,0.9c0.7,0,1.5-0.2,2.2-0.5c0.7-0.3,1.3-0.8,1.9-1.3l0,0l0.8-0.8l0,0
		c0.6-0.6,1-1.2,1.3-1.9C36.2,31.2,36.4,30.5,36.4,29.7z M11,27.4L11,27.4L11,27.4L11,27.4z M31.9,30.1c-0.1,0.2-0.2,0.3-0.4,0.6
		l0,0l-0.8,0.8l0,0c-0.2,0.2-0.4,0.4-0.6,0.4C30,32,29.9,32,29.8,32c-0.2,0-0.5-0.1-1-0.3c-0.5-0.3-1-0.7-1.6-1.3l-8-8
		c-0.4-0.4-1-0.6-1.5-0.6c-0.6,0-1.1,0.2-1.5,0.6l-4.5,4.5l-7-22.2l22.2,7L22.4,16c-0.4,0.4-0.6,1-0.6,1.5c0,0.6,0.2,1.1,0.6,1.5
		l8,8c0.6,0.6,1,1.1,1.3,1.6c0.3,0.5,0.3,0.8,0.3,1C32,29.9,32,30,31.9,30.1z"/>
</g>
<g>
</g>
<g>
</g>
<g>
</g>
<g>
</g>
<g>
</g>
<g>
</g>
<g>
</g>
<g>
</g>
<g>
</g>
<g>
</g>
<g>
</g>
<g>
</g>
<g>
</g>
<g>
</g>
<g>
</g>
</svg>
