<?xml version="1.0" encoding="utf-8"?>
<!-- Generator: Adobe Illustrator 18.1.1, SVG Export Plug-In . SVG Version: 6.00 Build 0)  -->
<svg version="1.1" id="Layer_1" xmlns="http://www.w3.org/2000/svg" xmlns:xlink="http://www.w3.org/1999/xlink" x="0px" y="0px"
	 viewBox="0 0 41.9 37.2" enable-background="new 0 0 41.9 37.2" xml:space="preserve">
<g>
	<path d="M41.9,27.4l-0.1-0.9V7.3c0-4-3.3-7.3-7.3-7.3h-20c-4,0-7.3,3.3-7.3,7.3v11.4C3.1,19.5,0,23.2,0,27.5v0.7c0,4.9,4,9,9,9h1.8
		c4.9,0,9-4,9-9v-0.7v0l0-0.7V12.6c0-0.1,0.1-0.2,0.2-0.2h9.2c0.1,0,0.2,0.1,0.2,0.2V19c-3.9,0.9-6.8,4.4-6.8,8.5v0.7
		c0,4.8,3.9,8.7,8.7,8.7h1.8c4.8,0,8.7-3.9,8.7-8.7v-0.7L41.9,27.4z M37.5,28.2c0,1.2-0.5,2.3-1.3,3.1c-0.8,0.8-1.9,1.3-3.1,1.3
		h-1.8c-1.2,0-2.3-0.5-3.1-1.3c-0.8-0.8-1.3-1.9-1.3-3.1v-0.7c0-1.2,0.5-2.3,1.3-3.1c0.8-0.8,1.9-1.3,3.1-1.3c0,0,0.1,0,0.1,0
		c0,0,0.1,0,0.1,0c1.2,0,2.2-1,2.2-2.2v-8.4c0-2.5-2.1-4.6-4.6-4.6h-9.2c-2.5,0-4.6,2.1-4.6,4.6v14.2v0l0,0.7v0.7
		c0,1.3-0.5,2.4-1.3,3.2c-0.8,0.8-2,1.3-3.2,1.3H9c-1.3,0-2.4-0.5-3.3-1.3c-0.8-0.8-1.3-2-1.3-3.2v-0.7c0-1.3,0.5-2.4,1.3-3.2
		c0.8-0.8,2-1.3,3.3-1.3c0,0,0,0,0,0c0.1,0,0.3,0,0.4,0c1.2,0,2.2-1,2.2-2.2V7.3c0-0.8,0.3-1.5,0.9-2.1c0.5-0.5,1.3-0.9,2.1-0.9h20
		c0.8,0,1.5,0.3,2.1,0.9c0.5,0.5,0.9,1.3,0.9,2.1v19.3l0,0.2l0.1,0.9V28.2z"/>
</g>
<g>
</g>
<g>
</g>
<g>
</g>
<g>
</g>
<g>
</g>
<g>
</g>
<g>
</g>
<g>
</g>
<g>
</g>
<g>
</g>
<g>
</g>
<g>
</g>
<g>
</g>
<g>
</g>
<g>
</g>
</svg>
