<?xml version="1.0" encoding="utf-8"?>
<!-- Generator: Adobe Illustrator 18.1.1, SVG Export Plug-In . SVG Version: 6.00 Build 0)  -->
<svg version="1.1" id="Layer_1" xmlns="http://www.w3.org/2000/svg" xmlns:xlink="http://www.w3.org/1999/xlink" x="0px" y="0px"
	 viewBox="0 0 36.8 36.8" enable-background="new 0 0 36.8 36.8" xml:space="preserve">
<g>
	<path d="M32.7,6.4c-0.1-0.2-0.2-0.3-0.3-0.5c-0.2-0.2-0.3-0.3-0.5-0.4C28.7,2.1,24.2,0,19.2,0h-1.6C7.9,0,0,7.9,0,17.6v1.6
		c0,9.7,7.9,17.6,17.6,17.6h1.6c9.7,0,17.6-7.9,17.6-17.6v-1.6C36.8,13.3,35.2,9.4,32.7,6.4z M4.4,17.6c0-3.7,1.5-6.9,3.9-9.3
		c2.4-2.4,5.7-3.9,9.3-3.9h1.6c3.1,0,6,1.1,8.3,2.9L6.2,25.9c-1.1-2-1.8-4.2-1.8-6.7V17.6z M28.5,28.5c-2.4,2.4-5.7,3.9-9.3,3.9
		h-1.6c-3.3,0-6.3-1.2-8.6-3.2l21.4-18.6c1.3,2,2,4.4,2,7v1.6C32.4,22.8,30.9,26.1,28.5,28.5z"/>
</g>
<g>
</g>
<g>
</g>
<g>
</g>
<g>
</g>
<g>
</g>
<g>
</g>
<g>
</g>
<g>
</g>
<g>
</g>
<g>
</g>
<g>
</g>
<g>
</g>
<g>
</g>
<g>
</g>
<g>
</g>
</svg>
