<?xml version="1.0" encoding="utf-8"?>
<!-- Generator: Adobe Illustrator 18.1.1, SVG Export Plug-In . SVG Version: 6.00 Build 0)  -->
<svg version="1.1" id="Layer_1" xmlns="http://www.w3.org/2000/svg" xmlns:xlink="http://www.w3.org/1999/xlink" x="0px" y="0px"
	 viewBox="0 0 40.1 39.8" enable-background="new 0 0 40.1 39.8" xml:space="preserve">
<g>
	<path d="M31.7,10.3V8.8c0-1,0-2-0.2-2.9c-0.1-0.7-0.3-1.4-0.6-2.1c-0.4-1-1.1-2-2.1-2.7c-1-0.7-2.3-1-3.7-1c-0.4,0-0.9,0.1-1.2,0.4
		L9.2,10.6L2.4,9.9C1.8,9.8,1.2,10,0.7,10.4c-0.5,0.4-0.7,1-0.7,1.6v15.7c0,0.6,0.3,1.2,0.7,1.6c0.5,0.4,1.1,0.6,1.7,0.5l6.7-0.7
		l14.7,10.2c0.4,0.3,0.8,0.4,1.2,0.4c1.2,0,2.4-0.3,3.3-0.8c0.7-0.4,1.3-1,1.8-1.6c0.7-1,1-2,1.2-3.1c0.2-1.1,0.3-2.2,0.3-3.3v-1.4
		c4.7-0.2,8.4-4,8.4-8.7V19C40.1,14.3,36.4,10.5,31.7,10.3z M27.3,31c0,0.8,0,1.6-0.1,2.2c-0.1,0.5-0.2,0.9-0.3,1.2
		c-0.2,0.4-0.4,0.6-0.5,0.8c-0.1,0.1-0.3,0.2-0.6,0.2L11.1,25.3c-0.5-0.3-1-0.4-1.5-0.4c-0.2-0.1-0.5-0.1-0.8-0.1l-4.5,0.5V14.5
		l4.5,0.5c0.3,0,0.5,0,0.8-0.1c0.5,0.1,1,0,1.5-0.4L25.7,4.4c0.2,0,0.4,0.1,0.5,0.2c0.1,0.1,0.3,0.2,0.4,0.4
		c0.2,0.3,0.4,0.7,0.5,1.4c0.1,0.7,0.2,1.5,0.2,2.5V31z M35.7,20.8c0,1.2-0.5,2.3-1.3,3.1c-0.7,0.7-1.7,1.2-2.7,1.3V14.7
		c1.1,0.1,2,0.5,2.7,1.3c0.8,0.8,1.3,1.9,1.3,3.1V20.8z"/>
</g>
<g>
</g>
<g>
</g>
<g>
</g>
<g>
</g>
<g>
</g>
<g>
</g>
<g>
</g>
<g>
</g>
<g>
</g>
<g>
</g>
<g>
</g>
<g>
</g>
<g>
</g>
<g>
</g>
<g>
</g>
</svg>
