<?xml version="1.0" encoding="utf-8"?>
<!-- Generator: Adobe Illustrator 18.1.1, SVG Export Plug-In . SVG Version: 6.00 Build 0)  -->
<svg version="1.1" id="Layer_1" xmlns="http://www.w3.org/2000/svg" xmlns:xlink="http://www.w3.org/1999/xlink" x="0px" y="0px"
	 viewBox="0 0 38.1 38.1" enable-background="new 0 0 38.1 38.1" xml:space="preserve">
<g>
	<path d="M36.5,5.9l-4.3-4.3c-1.1-1.1-2.5-1.7-4-1.6c-1.4,0-2.9,0.6-4,1.6l-0.7,0.7c0,0-0.1,0.1-0.1,0.1c0,0,0,0-0.1,0.1
		c-4.4,4.1-8.5,6.4-11.6,7.8C10.3,11,9,11.5,8.1,11.7C7.7,11.9,7.3,12,7.1,12c-0.1,0-0.2,0.1-0.3,0.1c-0.1,0-0.1,0-0.2,0.1l0,0
		c-1.3,0.3-2.3,1.4-2.6,2.7l0,0.1L0.1,33.5l0,0C0,33.8,0,34.1,0,34.4c0,1,0.4,1.9,1.1,2.7c0.7,0.7,1.7,1.1,2.7,1.1
		c0.3,0,0.6,0,0.8-0.1v0l18.6-3.7l0.1,0c1.3-0.3,2.3-1.4,2.6-2.6c0-0.1,0-0.2,0.1-0.2c0.1-0.3,0.2-1,0.5-1.9c1-2.9,3.3-8.4,9-14.7
		c0,0,0-0.1,0.1-0.1c0,0,0.1,0,0.1-0.1l0.7-0.7l0,0c1.1-1.1,1.6-2.5,1.6-4C38.1,8.5,37.6,7,36.5,5.9z M21.7,30.5L21.7,30.5
		L21.7,30.5L21.7,30.5z M23.8,24.5c-0.8,1.7-1.3,3.1-1.6,4.2c-0.2,0.5-0.3,1-0.4,1.3c0,0.1,0,0.1,0,0.1L7.4,33l6.2-6.2
		c1,0.3,2.1,0,2.9-0.8l0.2-0.2c1.2-1.2,1.2-3.1,0-4.2l-0.2-0.2c-1.2-1.2-3.1-1.2-4.2,0L12,21.6c-0.8,0.8-1,1.9-0.8,2.9l-6.2,6.2
		L8,16.3c1-0.2,3.2-0.9,6.3-2.3c3.3-1.6,7.5-4.1,12-8.2c0.1-0.1,0.1-0.1,0.2-0.2c0,0,0.1-0.1,0.1-0.1l0.7-0.7
		c0.3-0.3,0.6-0.4,0.9-0.4c0.3,0,0.6,0.1,0.9,0.4L33.4,9c0.2,0.3,0.4,0.6,0.4,0.9c0,0.3-0.1,0.6-0.4,0.9l-0.7,0.7
		c0,0-0.1,0.1-0.1,0.1c-0.1,0-0.1,0.1-0.2,0.2C28,16.6,25.4,21.1,23.8,24.5z"/>
	<polygon points="1.1,37 1.1,37 1.1,37 	"/>
</g>
<g>
</g>
<g>
</g>
<g>
</g>
<g>
</g>
<g>
</g>
<g>
</g>
<g>
</g>
<g>
</g>
<g>
</g>
<g>
</g>
<g>
</g>
<g>
</g>
<g>
</g>
<g>
</g>
<g>
</g>
</svg>
