<?xml version="1.0" encoding="utf-8"?>
<!-- Generator: Adobe Illustrator 18.1.1, SVG Export Plug-In . SVG Version: 6.00 Build 0)  -->
<svg version="1.1" id="Layer_1" xmlns="http://www.w3.org/2000/svg" xmlns:xlink="http://www.w3.org/1999/xlink" x="0px" y="0px"
	 viewBox="0 0 42.4 41.9" enable-background="new 0 0 42.4 41.9" xml:space="preserve">
<g>
	<path d="M35,7.6V2.2c0-0.6-0.2-1.1-0.6-1.5c-0.4-0.4-1-0.6-1.5-0.6H9.6C9,0,8.4,0.2,8,0.6C7.6,1,7.4,1.6,7.4,2.2v5.4
		C3.3,7.9,0,11.3,0,15.5v11.2c0,4.2,3.3,7.6,7.4,7.9v5.1c0,0.6,0.2,1.1,0.6,1.5c0.4,0.4,1,0.6,1.5,0.6h23.2c0.6,0,1.1-0.2,1.5-0.6
		c0.4-0.4,0.6-1,0.6-1.5v-5.1c4.1-0.3,7.4-3.7,7.4-7.9V15.5C42.4,11.3,39.1,7.9,35,7.6z M30.6,4.4v3.2H11.8V4.4H30.6z M30.6,37.6
		H11.8V28h18.8V37.6z M38,26.7c0,1-0.4,1.9-1.1,2.5c-0.5,0.5-1.2,0.9-2,1v-4.4c0-0.6-0.2-1.1-0.6-1.5c-0.4-0.4-1-0.6-1.5-0.6H9.6
		c-0.6,0-1.1,0.2-1.5,0.6c-0.4,0.4-0.6,1-0.6,1.5v4.4c-0.8-0.1-1.5-0.5-2-1c-0.7-0.7-1.1-1.5-1.1-2.5V15.5c0-1,0.4-1.9,1.1-2.5
		c0.7-0.7,1.5-1,2.5-1.1h26.5c1,0,1.9,0.4,2.5,1.1c0.7,0.7,1.1,1.5,1.1,2.5V26.7z"/>
	<circle cx="32.2" cy="17.4" r="2.2"/>
</g>
<g>
</g>
<g>
</g>
<g>
</g>
<g>
</g>
<g>
</g>
<g>
</g>
<g>
</g>
<g>
</g>
<g>
</g>
<g>
</g>
<g>
</g>
<g>
</g>
<g>
</g>
<g>
</g>
<g>
</g>
</svg>
