<?xml version="1.0" encoding="utf-8"?>
<!-- Generator: Adobe Illustrator 18.1.1, SVG Export Plug-In . SVG Version: 6.00 Build 0)  -->
<svg version="1.1" id="Layer_1" xmlns="http://www.w3.org/2000/svg" xmlns:xlink="http://www.w3.org/1999/xlink" x="0px" y="0px"
	 viewBox="0 0 40.9 41.4" enable-background="new 0 0 40.9 41.4" xml:space="preserve">
<g>
	<path d="M40.2,32c-0.5-0.9-1.1-1.8-1.8-2.5l-4.4-4.4c0.9-2.1,1.4-4.3,1.4-6.7v-1.5C35.3,7.6,27.7,0,18.4,0h-1.5C7.6,0,0,7.6,0,16.9
		v1.5c0,9.3,7.6,16.9,16.9,16.9h1.5c2.1,0,4.1-0.4,6-1.1l4.6,4.6c0.8,0.8,1.6,1.4,2.5,1.8c0.9,0.5,1.9,0.7,3,0.7
		c0.7,0,1.4-0.1,2.1-0.4c0.7-0.3,1.3-0.7,1.9-1.3l0,0l0.6-0.6v0c0.6-0.5,1-1.2,1.3-1.9c0.3-0.7,0.4-1.4,0.4-2.1
		C40.9,34,40.6,33,40.2,32z M36.4,35.5c-0.1,0.1-0.2,0.3-0.3,0.5l-0.6,0.6l0,0c-0.2,0.2-0.3,0.3-0.5,0.3C34.9,37,34.7,37,34.5,37
		c-0.3,0-0.6-0.1-1.1-0.3c-0.4-0.2-0.9-0.6-1.4-1l-5.4-5.4c-0.3-0.3-0.7-0.5-1.2-0.6c-0.5-0.2-1.2-0.2-1.7,0
		c-1.6,0.8-3.4,1.2-5.4,1.2h-1.5c-3.5,0-6.6-1.4-8.8-3.7c-2.3-2.3-3.7-5.4-3.7-8.8v-1.5c0-3.5,1.4-6.6,3.7-8.8
		c2.3-2.3,5.4-3.7,8.8-3.7h1.5c3.5,0,6.6,1.4,8.8,3.7c2.3,2.3,3.7,5.4,3.7,8.8v1.5c0,2.2-0.5,4.2-1.5,6c-0.2,0.3-0.3,0.7-0.3,1.1
		c0,0.6,0.2,1.2,0.6,1.7l5.4,5.4c0.5,0.5,0.8,0.9,1,1.4c0.2,0.4,0.3,0.8,0.3,1.1C36.5,35.2,36.5,35.4,36.4,35.5z"/>
	<path d="M18,7.5h-0.8c-5.4,0-9.8,4.4-9.8,9.8V18c0,5.4,4.4,9.8,9.8,9.8H18c5.4,0,9.8-4.4,9.8-9.8v-0.8C27.8,11.8,23.4,7.5,18,7.5z
		 M21.9,21.9c-1,1-2.3,1.6-3.8,1.6h-0.8c-1.5,0-2.8-0.6-3.8-1.6c-1-1-1.6-2.3-1.6-3.8v-0.8c0-1.5,0.6-2.8,1.6-3.8
		c1-1,2.3-1.6,3.8-1.6H18c1.5,0,2.8,0.6,3.8,1.6c1,1,1.6,2.3,1.6,3.8V18C23.5,19.5,22.9,20.9,21.9,21.9z"/>
</g>
<g>
</g>
<g>
</g>
<g>
</g>
<g>
</g>
<g>
</g>
<g>
</g>
<g>
</g>
<g>
</g>
<g>
</g>
<g>
</g>
<g>
</g>
<g>
</g>
<g>
</g>
<g>
</g>
<g>
</g>
</svg>
