<?xml version="1.0" encoding="utf-8"?>
<!-- Generator: Adobe Illustrator 18.1.1, SVG Export Plug-In . SVG Version: 6.00 Build 0)  -->
<svg version="1.1" id="Layer_1" xmlns="http://www.w3.org/2000/svg" xmlns:xlink="http://www.w3.org/1999/xlink" x="0px" y="0px"
	 viewBox="0 0 47.5 27.1" enable-background="new 0 0 47.5 27.1" xml:space="preserve">
<g>
	<path d="M39.3,10.7h-6.9c-0.1,0-0.3,0.1-0.4,0.2c-0.1,0.1-0.1,0.3,0,0.4l3.5,6c0.1,0.1,0.2,0.2,0.4,0.2c0.1,0,0.3-0.1,0.4-0.2
		l3.5-6c0.1-0.1,0.1-0.3,0-0.4C39.6,10.8,39.4,10.7,39.3,10.7z"/>
	<path d="M39.5,0H8C3.6,0,0,3.6,0,8v11.2c0,4.4,3.6,8,8,8h31.6c4.4,0,7.9-3.6,8-8V8C47.5,3.6,43.9,0,39.5,0z M42,21.7
		c-0.7,0.7-1.5,1.1-2.5,1.1H8c-1,0-1.9-0.4-2.5-1.1c-0.7-0.7-1.1-1.5-1.1-2.5V8c0-1,0.4-1.9,1.1-2.5C6.1,4.8,7,4.4,8,4.4h31.6
		c1,0,1.9,0.4,2.5,1.1c0.7,0.7,1,1.5,1.1,2.5v11.2C43.1,20.1,42.7,21,42,21.7z"/>
</g>
<g>
</g>
<g>
</g>
<g>
</g>
<g>
</g>
<g>
</g>
<g>
</g>
<g>
</g>
<g>
</g>
<g>
</g>
<g>
</g>
<g>
</g>
<g>
</g>
<g>
</g>
<g>
</g>
<g>
</g>
</svg>
