<?xml version="1.0" encoding="utf-8"?>
<!-- Generator: Adobe Illustrator 18.1.1, SVG Export Plug-In . SVG Version: 6.00 Build 0)  -->
<svg version="1.1" id="Layer_1" xmlns="http://www.w3.org/2000/svg" xmlns:xlink="http://www.w3.org/1999/xlink" x="0px" y="0px"
	 viewBox="0 0 41.5 41.4" enable-background="new 0 0 41.5 41.4" xml:space="preserve">
<g>
	<path d="M29.3,20.7c0-4.4-3.6-8-8-8h-0.6c-4.4,0-8,3.6-8,8v0.6c0,4.4,3.6,8,8,8h0.6c4.4,0,8-3.6,8-8v0L29.3,20.7L29.3,20.7z
		 M21.4,25h-0.6c-1,0-1.9-0.4-2.6-1.1c-0.7-0.7-1.1-1.6-1.1-2.6v-0.6c0-1,0.4-1.9,1.1-2.6c0.7-0.7,1.6-1.1,2.6-1.1h0.6
		c1,0,1.9,0.4,2.6,1.1c0.7,0.7,1.1,1.6,1.1,2.6v0l0,0.6c0,1-0.4,1.9-1.1,2.6C23.3,24.6,22.4,25,21.4,25z"/>
	<path d="M40.3,24.8l-3.1-1.7c0-0.5,0.1-1,0.1-1.5v-1.4c0-0.6,0-1.1-0.1-1.6l3.2-1.8c1-0.6,1.4-1.9,0.8-3L37,6.5
		c-0.3-0.5-0.8-0.9-1.3-1c-0.6-0.1-1.2-0.1-1.7,0.2l-3.1,1.8c-0.5-0.4-1-0.8-1.6-1.1c-0.7-0.4-1.4-0.7-2.2-1l-0.1-3.3
		c0-1.2-1-2.1-2.2-2.1l-8.4,0c-0.6,0-1.1,0.2-1.6,0.7c-0.4,0.4-0.6,1-0.6,1.6l0.1,3.5c-1.2,0.5-2.3,1.1-3.3,1.8L8.5,5.8
		C8,5.5,7.4,5.4,6.8,5.6c-0.6,0.1-1.1,0.5-1.4,1l-4.2,7.3c-0.6,1-0.3,2.3,0.7,2.9l2.7,1.6c-0.1,0.6-0.1,1.2-0.1,1.8v1.4
		c0,0.2,0,0.3,0,0.5l-3.5,2c-1,0.6-1.4,1.9-0.8,3l4.2,7.3c0.3,0.5,0.8,0.9,1.3,1c0.6,0.2,1.2,0.1,1.7-0.2l2.6-1.5
		c0.5,0.5,1.1,0.9,1.7,1.3c0.7,0.4,1.4,0.8,2.1,1.1l0,3.3c0,0.6,0.2,1.1,0.6,1.5c0.4,0.4,1,0.6,1.5,0.6l8.4,0c1.2,0,2.2-1,2.2-2.2
		v-2.8c0.8-0.3,1.5-0.6,2.3-0.9c0.7-0.4,1.4-0.8,2-1.3l3.1,1.7c1,0.6,2.3,0.2,2.9-0.8l4.2-7.3c0.3-0.5,0.4-1.1,0.2-1.7
		C41.2,25.6,40.8,25.1,40.3,24.8z M34.2,31.1l-1.6-0.9c-0.1-0.1-0.1-0.2-0.2-0.3c-0.8-0.9-2.2-0.9-3.1-0.1c-0.8,0.8-1.6,1.4-2.5,1.9
		c-0.9,0.5-1.8,0.8-2.9,1c-1.2,0.2-2,1.3-1.8,2.5c0,0.1,0.1,0.3,0.1,0.4v1.4l-4,0v-1.9c0,0,0-0.1,0-0.1c0.3-1.2-0.3-2.4-1.5-2.7
		c-1.1-0.3-1.9-0.7-2.7-1.2c-0.8-0.5-1.5-1.1-2.2-1.9c-0.8-0.9-2.2-1-3.1-0.2c-0.1,0.1-0.2,0.2-0.3,0.4l-1.3,0.8l-2-3.5l2.2-1.3
		c0,0,0,0,0,0c1.1-0.3,1.8-1.3,1.7-2.4c-0.1-0.5-0.1-1-0.1-1.5v-1.4c0-0.8,0.1-1.6,0.2-2.3c0.2-0.8-0.1-1.5-0.7-2
		c-0.2-0.2-0.3-0.4-0.6-0.5l-1.8-1.1l2-3.5l1.3,0.8c0.1,0.1,0.2,0.1,0.4,0.2c0.8,0.8,2.1,0.8,3,0.1v0c1.2-1.1,2.9-2,4.5-2.5
		c1.2-0.3,1.8-1.5,1.5-2.7c0-0.1,0-0.2,0-0.3l0-2l4,0l0,2.3c0,0.3,0.1,0.5,0.2,0.8c0.1,0.9,0.8,1.7,1.7,1.9c1,0.2,1.8,0.5,2.5,1
		c0.7,0.4,1.4,1,2.2,1.7c0.9,0.8,2.2,0.8,3.1-0.1c0.1-0.1,0.2-0.2,0.3-0.4l1.6-0.9l2,3.5L34.7,15c-0.2,0-0.4,0-0.6,0.1
		c-1.2,0.3-1.9,1.5-1.5,2.7v0c0.1,0.5,0.2,0.8,0.2,1.2c0,0.3,0.1,0.7,0.1,1.3v1.4c0,0.8-0.1,1.6-0.2,2.4c-0.3,1.2,0.5,2.3,1.7,2.6
		c0,0,0,0,0.1,0l1.8,1L34.2,31.1z"/>
</g>
<g>
</g>
<g>
</g>
<g>
</g>
<g>
</g>
<g>
</g>
<g>
</g>
<g>
</g>
<g>
</g>
<g>
</g>
<g>
</g>
<g>
</g>
<g>
</g>
<g>
</g>
<g>
</g>
<g>
</g>
</svg>
