<?xml version="1.0" encoding="utf-8"?>
<!-- Generator: Adobe Illustrator 18.1.1, SVG Export Plug-In . SVG Version: 6.00 Build 0)  -->
<svg version="1.1" id="Layer_1" xmlns="http://www.w3.org/2000/svg" xmlns:xlink="http://www.w3.org/1999/xlink" x="0px" y="0px"
	 viewBox="0 0 41.7 39.1" enable-background="new 0 0 41.7 39.1" xml:space="preserve">
<g>
	<path d="M41.7,14.1c0-0.9-0.1-1.7-0.5-2.5c-0.3-0.6-0.7-1.1-1.2-1.5c-0.7-0.6-1.5-0.8-2.3-0.9C37,9.1,36.3,9,35.7,9
		c-0.7,0-1.4,0-2.1,0H30c-0.2-2.1-1.1-4.2-2.4-5.8c-0.8-0.9-1.7-1.7-2.8-2.3C23.8,0.4,22.5,0,21.2,0h-0.7c-1.3,0-2.6,0.4-3.6,0.9
		c-1.6,0.9-2.9,2.2-3.8,3.8c-0.8,1.3-1.2,2.8-1.4,4.3H8.2C7.5,9.1,6.7,9,6,9C5.4,9,4.8,9,4.2,9.1c-0.5,0.1-1,0.2-1.5,0.4
		c-0.8,0.3-1.6,0.9-2,1.8C0.2,12.2,0,13.1,0,14.1l0,0.3l2.1,16.9c0.1,4.4,3.7,7.9,8.2,7.9h21.1c4.4,0,8-3.5,8.2-7.9l2.1-16.9
		L41.7,14.1z M17.4,6c0.4-0.5,1-1,1.5-1.3c0.5-0.3,1-0.4,1.6-0.4h0.7c0.5,0,1,0.1,1.6,0.4c0.8,0.4,1.6,1.2,2.1,2.1
		c0.4,0.7,0.7,1.4,0.8,2.1h-9.6C16.2,8,16.7,6.9,17.4,6z M34.1,33.6c-0.7,0.7-1.6,1.1-2.7,1.1H10.3c-1.1,0-2-0.4-2.7-1.1
		C6.9,32.9,6.5,32,6.5,31l0-0.3L4.4,14c0-0.2,0-0.3,0-0.4c0.1,0,0.2-0.1,0.4-0.1c0.3,0,0.7-0.1,1.2-0.1c0.6,0,1.3,0,2.1,0h25.3
		c0.8,0,1.5,0,2.1,0c0.5,0,0.9,0,1.2,0.1c0.2,0,0.3,0.1,0.4,0.1c0,0.1,0,0.2,0,0.4l-2.1,16.7l0,0.3C35.2,32,34.8,32.9,34.1,33.6z"/>
</g>
<g>
</g>
<g>
</g>
<g>
</g>
<g>
</g>
<g>
</g>
<g>
</g>
<g>
</g>
<g>
</g>
<g>
</g>
<g>
</g>
<g>
</g>
<g>
</g>
<g>
</g>
<g>
</g>
<g>
</g>
</svg>
