<?xml version="1.0" encoding="utf-8"?>
<!-- Generator: Adobe Illustrator 18.1.1, SVG Export Plug-In . SVG Version: 6.00 Build 0)  -->
<svg version="1.1" id="Layer_1" xmlns="http://www.w3.org/2000/svg" xmlns:xlink="http://www.w3.org/1999/xlink" x="0px" y="0px"
	 viewBox="0 0 34.6 37.1" enable-background="new 0 0 34.6 37.1" xml:space="preserve">
<g>
	<path d="M31.2,23.6c-1.4-1.9-3.3-3.4-5.4-4.5c1.9-1.9,3.1-4.6,3.1-7.5v-0.9C28.9,4.8,24.2,0,18.3,0h-1.9C10.4,0,5.7,4.8,5.7,10.7
		v0.9c0,2.9,1.2,5.6,3.1,7.5c-2.1,1.1-4,2.6-5.4,4.5C1.3,26.3,0,29.7,0,33.4v1.5c0,0.6,0.2,1.1,0.6,1.5c0.4,0.4,1,0.6,1.5,0.6h30.2
		c0.6,0,1.1-0.2,1.5-0.6c0.4-0.4,0.6-1,0.6-1.5v-1.5C34.6,29.7,33.3,26.3,31.2,23.6z M6.8,26.3c1.5-2,3.7-3.5,6.2-4.1
		c1.2-0.3,1.8-1.5,1.5-2.7c0,0,0-0.1,0-0.1c0.1-0.9-0.3-1.8-1.1-2.2c-0.5-0.3-1-0.6-1.4-1l0,0c-1.2-1.2-1.9-2.7-1.9-4.5v-0.9
		c0-1.8,0.7-3.3,1.8-4.5c1.1-1.1,2.7-1.8,4.5-1.8h1.9c1.7,0,3.3,0.7,4.5,1.8c1.1,1.1,1.8,2.7,1.8,4.5v0.9c0,2.4-1.4,4.5-3.4,5.6
		c-0.8,0.4-1.3,1.3-1.1,2.2c0,0,0,0.1,0,0.1c-0.3,1.2,0.4,2.4,1.5,2.7c2.5,0.7,4.7,2.1,6.2,4.1c1.4,1.8,2.3,4,2.4,6.5H4.4
		C4.5,30.3,5.4,28.1,6.8,26.3z"/>
</g>
<g>
</g>
<g>
</g>
<g>
</g>
<g>
</g>
<g>
</g>
<g>
</g>
<g>
</g>
<g>
</g>
<g>
</g>
<g>
</g>
<g>
</g>
<g>
</g>
<g>
</g>
<g>
</g>
<g>
</g>
</svg>
