<?xml version="1.0" encoding="utf-8"?>
<!-- Generator: Adobe Illustrator 18.1.1, SVG Export Plug-In . SVG Version: 6.00 Build 0)  -->
<svg version="1.1" id="Layer_1" xmlns="http://www.w3.org/2000/svg" xmlns:xlink="http://www.w3.org/1999/xlink" x="0px" y="0px"
	 viewBox="0 0 42.2 36.9" enable-background="new 0 0 42.2 36.9" xml:space="preserve">
<g>
	<path d="M29.1,17.1c0.2,0.2,0.4,0.4,0.5,0.8c0.1,0.3,0.2,0.7,0.2,1.2c0,0.1,0,0.2,0,0.3c-0.1,1.2,0.7,2.3,1.9,2.4
		c1.2,0.1,2.3-0.7,2.4-1.9c0-0.3,0-0.5,0-0.8c0-1-0.2-2-0.6-2.9c-0.4-0.9-0.9-1.6-1.5-2.2c-0.9-0.8-2.2-0.8-3.1,0
		C28.2,14.9,28.2,16.3,29.1,17.1z"/>
	<path d="M29.8,30.1c0,0.7-0.3,1.3-0.7,1.7c-0.5,0.4-1.1,0.7-1.7,0.7H6.8c-0.7,0-1.3-0.3-1.7-0.7c-0.4-0.5-0.7-1.1-0.7-1.7V18.9
		c0-1,0.6-1.8,1.4-2.2c1.1-0.5,1.5-1.8,1-2.9c-0.5-1.1-1.8-1.5-2.9-1C1.5,13.9,0,16.2,0,18.9v11.2c0,3.8,3.1,6.8,6.8,6.8h20.5
		c3.8,0,6.8-3.1,6.8-6.8c0-1.2-1-2.2-2.2-2.2C30.8,27.9,29.8,28.9,29.8,30.1z"/>
	<path d="M33.3,21.7l4.5-2.5l-1.1-1.9v2.2c0.6,0,1.1,0.5,1.1,1.1v7.7c0,0.6-0.5,1.1-1.1,1.1v2.2l1.1-1.9l-4.5-2.5
		c-1.1-0.6-2.4-0.2-3,0.9c-0.6,1.1-0.2,2.4,0.9,3l4.5,2.5c0.3,0.2,0.7,0.3,1.1,0.3c3,0,5.5-2.5,5.5-5.5v-7.7c0-3-2.5-5.5-5.5-5.5
		c-0.4,0-0.7,0.1-1,0.3l-4.5,2.5c-1.1,0.6-1.4,1.9-0.9,3C30.9,21.9,32.3,22.3,33.3,21.7z"/>
	<path d="M6.4,13c-0.6-0.8-0.9-1.8-0.9-2.9V9.3c0-1.4,0.6-2.6,1.5-3.5c0.9-0.9,2.1-1.5,3.5-1.5h0.8c1.4,0,2.6,0.6,3.5,1.5
		c0.9,0.9,1.5,2.1,1.5,3.5v0.8c0,1.2,1,2.2,2.2,2.2c1.2,0,2.2-1,2.2-2.2V9.3c0-5.1-4.2-9.3-9.3-9.3h-0.8C5.3,0,1.1,4.2,1.1,9.3v0.8
		c0,2,0.7,4,1.8,5.5c0.7,1,2.1,1.2,3,0.5C6.9,15.3,7.2,14,6.4,13z"/>
	<path d="M20.6,10.9c0.3-0.7,0.7-1.3,1.3-1.8c0.6-0.4,1.3-0.7,2.1-0.7h0.6c1,0,1.9,0.4,2.6,1.1c0.7,0.7,1.1,1.6,1.1,2.6v0.6
		c0,0.4-0.1,1.2-0.3,1.8c-0.4,1.2,0.3,2.4,1.4,2.7c1.2,0.4,2.4-0.3,2.7-1.4c0.3-1,0.5-2.1,0.5-3.1v-0.6c0-4.5-3.6-8.1-8.1-8.1h-0.6
		c-1.7,0-3.4,0.6-4.7,1.5c-1.3,0.9-2.3,2.3-2.9,3.8c-0.4,1.1,0.2,2.4,1.3,2.8C19,12.6,20.2,12.1,20.6,10.9z"/>
</g>
<g>
</g>
<g>
</g>
<g>
</g>
<g>
</g>
<g>
</g>
<g>
</g>
<g>
</g>
<g>
</g>
<g>
</g>
<g>
</g>
<g>
</g>
<g>
</g>
<g>
</g>
<g>
</g>
<g>
</g>
</svg>
