<?xml version="1.0" encoding="utf-8"?>
<!-- Generator: Adobe Illustrator 17.0.0, SVG Export Plug-In . SVG Version: 6.00 Build 0)  -->
<!DOCTYPE svg PUBLIC "-//W3C//DTD SVG 1.1//EN" "http://www.w3.org/Graphics/SVG/1.1/DTD/svg11.dtd">
<svg version="1.1" id="Layer_1" xmlns="http://www.w3.org/2000/svg" xmlns:xlink="http://www.w3.org/1999/xlink" x="0px" y="0px"
	 width="612px" height="410.5px" viewBox="0 0 612 410.5" enable-background="new 0 0 612 410.5" xml:space="preserve">
<g>
	<path d="M114.3,55.8c14.9,6,31.8-1,37.8-15.9c3-7,3-14.9,0-21.9s-7.9-12.9-15.9-15.9c-14.9-6-31.8,1-37.8,15.9
		C92.4,32.9,99.4,49.8,114.3,55.8z M362.6,55.8c14.9,6,31.8-1,37.8-14.9c3-7,3-14.9,0-21.9c-3-7-7.9-12.9-15.9-15.9
		c-14.9-6-31.8,1-37.8,15.9C341.8,32.9,348.7,49.8,362.6,55.8z M542.5,325c-23.8-30.8-39.7-89.4-49.7-139.1
		c-6-28.8-40.7-99.4-59.6-127.2c-8.9,4-42.7,28.8-76.5,41.7c-65.6,24.8-114.3,22.9-114.3,22.9l2,33.8c0,0,53.6,0,94.4-7.9
		c21.9-4,46.7-9.9,65.6-20.9c15.9,19.9,25.8,42.7,31.8,71.5c-18.9,4-93.4,14.9-112.3,74.5c-7,22.9,1,46.7,13.9,67.6
		c-33.8-12.9-76.5-46.7-91.4-133.1c-3-15.9-21.9-90.4-62.6-150c-8.9,4-16.9,8.9-24.8,13.9c-13.9,7.9-27.8,16.9-42.7,23.8
		c-17.9,7.9-38.7,12.9-57.6-4C38.7,76.6,27.8,54.8,26.8,55.8L0,69.7c1,0,7,24.8,30.8,51.7c16.9,18.9,39.7,27.8,65.6,27.8
		c22.9,0,39.7-8.9,58.6-18.9c15.9,19.9,25.8,42.7,31.8,71.5c-18.9,4-103.3,23.8-112.3,80.5c-5,33.8,7.9,54.6,19.9,72.5
		c26.8,36.8,55.6,55.6,55.6,55.6l25.8-26.8c1-1-22.9-23.8-39.7-54.6c-17.9-35.8-7.9-47.7,13.9-56.6c13.9-6,30.8-9.9,49.7-13.9
		c34.8,127.2,180.8,137.1,180.8,137.1l21.9-32.8c0,0-63.6-64.6-7.9-90.4c13.9-6,35.8-9.9,54.6-13.9c37.8,143.1,151,144.1,151,144.1
		l11.9-37.8C613,363.8,570.3,360.8,542.5,325z"/>
</g>
<g>
</g>
<g>
</g>
<g>
</g>
<g>
</g>
<g>
</g>
<g>
</g>
<g>
</g>
<g>
</g>
<g>
</g>
<g>
</g>
<g>
</g>
<g>
</g>
<g>
</g>
<g>
</g>
<g>
</g>
</svg>
