<?xml version="1.0" encoding="utf-8"?>
<!-- Generator: Adobe Illustrator 17.0.0, SVG Export Plug-In . SVG Version: 6.00 Build 0)  -->
<!DOCTYPE svg PUBLIC "-//W3C//DTD SVG 1.1//EN" "http://www.w3.org/Graphics/SVG/1.1/DTD/svg11.dtd">
<svg version="1.1" id="Layer_1" xmlns="http://www.w3.org/2000/svg" xmlns:xlink="http://www.w3.org/1999/xlink" x="0px" y="0px"
	 width="612.2476px" height="375.0047px" viewBox="0 0 612.2476 375.0047" enable-background="new 0 0 612.2476 375.0047"
	 xml:space="preserve">
<g>
	<path d="M345.7468,28.5537"/>
	<path d="M536.1045,294.1026c-5.7108,2.8553-10.4697,4.7589-9.5179,6.6625c0,0.9518,5.7107,0.9518,11.4214-0.9518l0.9518,1.9036
		c0,0.9518,1.9036,0.9518,3.8071,0.9518c1.9036-0.9518,2.8554-1.9036,2.8554-2.8553l-0.9518-1.9036
		c5.7107-2.8553,10.4697-4.7589,9.5179-6.6625c0-0.9518-5.7108-0.9518-11.4215,0.9518L476.1418,91.3717
		c0,4.7589-0.9518,9.5179-2.8554,13.325L536.1045,294.1026z"/>
	<path d="M9.7655,337.8849c-4.7589-4.7589-7.6143-8.5661-9.5179-7.6143c-0.9518,0.9518,0.9518,5.7107,3.8072,11.4214l-0.9518,0.9518
		c-0.9518,0.9518-0.9518,1.9036,0,3.8072c0.9518,1.9036,2.8554,1.9036,2.8554,1.9036l1.9036-0.9518
		c3.8072,4.7589,7.6143,8.5661,8.5661,7.6143c0.9518-0.9518-0.9518-5.7107-3.8072-11.4215l185.5987-125.6361
		c-0.9518-1.9036-1.9036-3.8071-2.8554-5.7107L9.7655,337.8849z"/>
	<path d="M425.697,346.451c-10.4697,11.4215,0,28.5537,0,28.5537s2.8553-2.8554,12.3732-13.3251
		c9.5179-9.5179,17.1322-18.084,17.1322-18.084S437.1185,335.0295,425.697,346.451z"/>
	<path d="M576.0796,363.5832L576.0796,363.5832L576.0796,363.5832z"/>
	<path d="M454.2507,39.0233c-1.9036,0.9518-2.8553,1.9036-2.8553,2.8554l20.9393,61.8662c1.9036-3.8072,1.9036-8.5661,2.8554-13.325
		l-17.1322-50.4448C457.106,39.0233,456.1543,39.0233,454.2507,39.0233z"/>
	<path d="M208.6893,206.5381c-0.9518-1.9036-2.8554-1.9036-2.8554-1.9036l-9.5179,6.6625c0.9518,1.9036,0.9518,3.8071,2.8554,5.7107
		l10.4697-6.6625C209.641,209.3934,209.641,208.4417,208.6893,206.5381z"/>
	<path d="M576.0796,332.1742c-8.5661-17.1322-33.3126-17.1322-39.9751-19.9875c-8.5662-3.8072-19.0358-14.2768-29.5055-22.8429
		c-19.0358-14.2768-42.8305-28.5536-72.3359-38.0715c-12.3732-3.8071-19.0358-6.6625-19.0358-6.6625
		s-21.8911-38.0715-36.1679-50.4448c-14.2768-12.3732-25.6983-36.168-25.6983-36.168s-7.6143,14.2768-18.084,26.6501
		c30.4572-51.3966,37.1198-89.4681,37.1198-89.4681s50.4448,19.0358,76.1431,19.0358c14.2768,0,19.9875-4.7589,22.843-10.4697
		l-20.9394-61.8662c0-0.9518,0.9518-1.9036,2.8553-2.8554c1.9036-0.9518,2.8554,0,3.8072,0.9518l17.1322,50.4448
		c0-0.9518,0-1.9036,0-2.8554c0.9518-11.4215-9.5179-52.3484-15.2286-58.0591c-5.7107-5.7107-28.5536-4.7589-28.5536,6.6625
		c0.9518,17.1322,9.5179,27.6019,19.0358,30.4572c5.7107,1.9036-0.9518,13.325-9.5179,25.6983
		c3.8072-6.6625,3.8072-18.084,3.8072-18.084s-28.5537-9.5179-37.1198-15.2286c-9.5179-5.7107-12.3732-13.325-27.6019-16.1804
		c-5.7107-0.9518-11.4215-1.9036-24.7465-4.7589c-2.8553,16.1804-12.3732,31.409-24.7465,38.0715
		c-4.7589,2.8554-9.5179,4.7589-15.2286,4.7589c-4.7589,0-8.5661-1.9036-12.3732-3.8071
		c-11.4215-5.7107-21.8911-17.1322-23.7947-30.4572c-5.7107,0.9518-13.325,1.9036-30.4572,17.1322
		c-16.1804,14.2768-12.3732,19.9876-41.8787,49.493c-17.1322,17.1322-25.6983,21.8911-20.9394,41.8787
		c6.6625,23.7947,10.4697,36.168,10.4697,36.168s-2.8554,11.4215-0.9518,20.9393l9.5179-6.6625
		c0.9518-0.9518,1.9036,0,2.8554,1.9036c0.9518,1.9036,0.9518,2.8554,0,3.8072l-10.4697,6.6625
		c0.9518,0.9518,1.9036,1.9036,3.8072,2.8554c11.4215,7.6143,17.1322,4.7589,21.8911,0
		c10.4697-9.5179,15.2286-19.9876,9.5179-30.4572c-5.7107-10.4697-13.325-14.2768-13.325-14.2768l-1.9036-27.6019l37.1198-24.7465
		c-6.6625,32.3608-7.6143,72.3359-5.7107,98.0342c2.8554,41.8787,39.0233,47.5894,39.0233,47.5894s-13.325-15.2286-13.325-19.9875
		c7.6143,7.6143,19.0358,21.8911,40.9269,37.1198c20.9394,14.2768,51.3966,23.7947,73.2877,44.7341
		c10.4696,7.6143,21.8911,20.9393,21.8911,20.9393s0-12.3732,11.4215-15.2286c10.4697-2.8553,26.6501,1.9036,26.6501,1.9036
		s7.6143-14.2768-59.0109-59.9627c-23.7947-16.1804-48.5412-36.1679-66.6252-48.5412c-5.7107-18.084-17.1322-26.6501-32.3608-31.409
		c-5.7108-1.9036-16.1804-3.8071-24.7465-1.9036c2.8554-0.9518,5.7108-1.9036,9.5179-1.9036
		c47.5894-2.8553,53.3001,30.4572,53.3001,30.4572s65.6734,49.493,76.1431,53.3001c10.4697,4.7589,51.3966,33.3126,74.2395,42.8305
		c17.1322,6.6625,37.1198,19.0358,48.5412,26.6501l-39.9751,12.3732c0,0,56.1555,0.9518,80.902,0.9518
		C562.7545,352.1617,561.8027,337.8849,576.0796,332.1742z"/>
	<path d="M612.2476,332.1742c-11.4214-0.9518-19.0358-0.9518-25.6983,2.8554c-19.0358,10.4696-0.9517,26.6501-0.9517,27.6019
		C587.501,359.776,612.2476,332.1742,612.2476,332.1742z"/>
	<path d="M331.4699,76.1431c-3.8072,1.9036-8.5661,3.8072-13.325,3.8072s-9.5179-0.9518-14.2768-2.8554
		c3.8072,2.8554,7.6143,3.8072,12.3732,3.8072C321.9521,80.902,327.6628,78.9984,331.4699,76.1431z"/>
	<path d="M317.1931,0c-18.084,0-32.3608,14.2768-32.3608,37.1198s14.2768,45.6859,32.3608,45.6859
		c18.084,0,32.3608-22.8429,32.3608-45.6858C350.5057,14.2768,335.2771,0,317.1931,0z M318.1449,42.8305
		c-5.7107,0-13.325-0.9518-16.1804-0.9518c-4.7589,0-4.7589,22.8429,3.8072,25.6983c4.7589,1.9036,7.6143-5.7107,11.4215-5.7107
		c6.6625,0,2.8553,5.7107,12.3732,7.6143c-6.6625-0.9518-8.5661-5.7107-11.4215-5.7107c-1.9036,0-3.8072,1.9036-5.7107,4.7589
		c-1.9036,1.9036-3.8072,2.8554-5.7107,2.8554l0,0c-2.8554,0-6.6625-1.9036-10.4697-4.7589
		c-3.8071-3.8072-4.7589-11.4215-5.7107-18.084c0-1.9036,0-3.8072,0-4.7589c0-3.8072,2.8553-5.7107,6.6625-4.7589
		c21.8911,4.7589,41.8787,0.9518,41.8787,0.9518C338.1325,39.9751,331.4699,42.8305,318.1449,42.8305z"/>
</g>
<g>
</g>
<g>
</g>
<g>
</g>
<g>
</g>
<g>
</g>
<g>
</g>
<g>
</g>
<g>
</g>
<g>
</g>
<g>
</g>
<g>
</g>
<g>
</g>
<g>
</g>
<g>
</g>
<g>
</g>
</svg>
