<?xml version="1.0" encoding="utf-8"?>
<!-- Generator: Adobe Illustrator 17.0.0, SVG Export Plug-In . SVG Version: 6.00 Build 0)  -->
<!DOCTYPE svg PUBLIC "-//W3C//DTD SVG 1.1//EN" "http://www.w3.org/Graphics/SVG/1.1/DTD/svg11.dtd">
<svg version="1.1" id="Layer_1" xmlns="http://www.w3.org/2000/svg" xmlns:xlink="http://www.w3.org/1999/xlink" x="0px" y="0px"
	 width="463.6176px" height="792.2076px" viewBox="0 0 463.6176 792.2076" enable-background="new 0 0 463.6176 792.2076"
	 xml:space="preserve">
<g>
	<path d="M343.2647,286.2077L455.853,300.443l7.7647-59.5294l-112.5883-14.2353c-94.4706-11.647-305.4117-29.7647-306.7059-28.4706
		l-5.1765,38.8235c0,1.2941,102.2353,19.4118,195.4118,33.6471c-6.4706,40.1176-7.7647,81.5294-3.8823,120.353
		c0,5.1765,1.2941,11.647,1.2941,16.8235c-23.2941,20.7058-44,42.7059-62.1176,67.2941
		c-32.353,40.1176-67.2941,115.1764-78.9412,181.1765c-12.9412,65.9999-9.0588,120.3529-9.0588,121.647l47.8824,1.2941
		c2.5882,0,5.1765-50.4706,22-107.4117C168.5588,614.9135,203.5,554.09,230.6765,520.4429
		c5.1765-7.7646,11.6471-15.5294,18.1176-23.2941c12.9412,51.7647,32.353,106.1176,55.6471,152.7059
		c40.1176,82.8235,85.4118,141.0588,85.4118,142.3529l40.1176-27.1765c-6.4706,2.5883-132-252.3529-124.2353-379.1765
		c-2.5883-34.9412-1.2941-69.8823,3.8823-104.8235C322.5588,283.6194,334.2059,284.9136,343.2647,286.2077z M274.6765,180.09
		c20.7059,2.5882,38.8235-11.647,42.7059-31.0588c1.2941-10.3529-1.2941-19.4118-7.7647-27.1765s-14.2353-12.9412-24.5882-14.2353
		c-20.7059-2.5882-38.8235,11.647-41.4118,31.0588C241.0294,159.3842,255.2647,177.5018,274.6765,180.09z M19.7353,273.2665
		c0-6.4706,1.2941-12.9412,1.2941-19.4117c1.2941-20.7059,3.8824-40.1177,9.0588-59.5294
		c2.5882-10.353,6.4706-19.4118,10.3529-29.7647c14.2353-32.353,29.7647-58.2353,55.6471-88
		c6.4706-6.4706,54.3529-54.3529,76.3529-67.2941l-5.1765-9.0588c0-1.2941-7.7647,3.8824-7.7647,3.8824
		C99.9706,42.9136,46.9118,95.9724,19.7353,161.9724c-5.1765,11.6471-9.0588,24.5882-11.6471,37.5294
		c-6.4706,25.8823-9.0588,51.7647-7.7647,77.647c1.2941,40.1176,10.3529,77.6471,23.2941,115.1765
		c1.2941,3.8823,25.8824,66,27.1765,66l12.9412-5.1765c-22-41.4118-38.8235-113.8823-42.7059-142.3529
		C19.7353,299.1489,19.7353,286.2077,19.7353,273.2665z"/>
</g>
<g>
</g>
<g>
</g>
<g>
</g>
<g>
</g>
<g>
</g>
<g>
</g>
<g>
</g>
<g>
</g>
<g>
</g>
<g>
</g>
<g>
</g>
<g>
</g>
<g>
</g>
<g>
</g>
<g>
</g>
</svg>
