<?xml version="1.0" encoding="utf-8"?>
<!-- Generator: Adobe Illustrator 17.0.0, SVG Export Plug-In . SVG Version: 6.00 Build 0)  -->
<!DOCTYPE svg PUBLIC "-//W3C//DTD SVG 1.1//EN" "http://www.w3.org/Graphics/SVG/1.1/DTD/svg11.dtd">
<svg version="1.1" id="Layer_1" xmlns="http://www.w3.org/2000/svg" xmlns:xlink="http://www.w3.org/1999/xlink" x="0px" y="0px"
	 width="612px" height="610.8209px" viewBox="0 0 612 610.8209" enable-background="new 0 0 612 610.8209" xml:space="preserve">
<g>
	<path d="M239.3757,524.7399c17.6879-5.8959,28.3006-24.763,22.4046-42.4508c-5.896-17.6879-24.763-28.3006-42.4509-22.4046
		c-8.2543,2.3584-15.3295,8.2543-20.0462,16.5087c-4.7168,8.2544-4.7168,17.6879-2.3584,25.9422
		C202.8208,521.2023,221.6879,530.6358,239.3757,524.7399z M393.8497,584.8786c2.3584-12.9711,4.7168-34.1966,1.1792-61.3179
		c-4.7168-41.2717-30.659-84.9018-51.8844-104.948C332.5318,408,320.7399,397.3873,308.948,389.1329
		c5.896-30.659,14.1503-58.9595,24.763-87.2601c17.6879-44.8092,61.3179-110.8439,121.4567-141.5029
		c57.7803-33.0173,115.5607-42.4509,115.5607-43.6301l-7.0751-43.6301c0,0-63.6763,2.3584-135.6069,36.5549
		c-42.4508,17.6879-80.185,50.7052-109.6647,86.0809C235.8382,132.0694,195.7457,21.2254,191.0289,0l-43.6301,4.7168
		c0,0,0,43.6301,20.0462,90.7977c17.6879,47.1676,53.0636,96.6936,79.0058,122.6358
		c11.7919,11.7919,23.5838,22.4046,36.5549,33.0173c-4.7168,8.2543-8.2543,16.5087-11.7919,24.763
		c-10.6127,24.763-18.8671,50.7052-24.763,77.8266c-4.7168-2.3584-10.6127-4.7168-15.3295-7.0752
		c-50.7052-27.1214-172.1619-34.1965-172.1619-30.659l-2.3584,35.3757c1.1792-1.1792,110.8439,22.4046,154.474,45.9885
		c35.3757,15.3295,68.393,34.1965,94.3353,61.3179c16.5087,16.5087,37.7341,44.8093,45.9884,75.4683
		c5.8959,22.4046,5.8959,42.4508,5.8959,51.8844H224.0462C154.474,584.8786,0,589.5953,0,589.5953v16.5087
		c0,0,154.474,4.7168,224.0462,4.7168h163.9075c69.5723,0,224.0462-3.5376,224.0462-4.7168v-16.5087
		C612,589.5953,465.7803,586.0578,393.8497,584.8786z"/>
</g>
<g>
</g>
<g>
</g>
<g>
</g>
<g>
</g>
<g>
</g>
<g>
</g>
<g>
</g>
<g>
</g>
<g>
</g>
<g>
</g>
<g>
</g>
<g>
</g>
<g>
</g>
<g>
</g>
<g>
</g>
</svg>
