<?xml version="1.0" encoding="utf-8"?>
<!-- Generator: Adobe Illustrator 17.0.0, SVG Export Plug-In . SVG Version: 6.00 Build 0)  -->
<!DOCTYPE svg PUBLIC "-//W3C//DTD SVG 1.1//EN" "http://www.w3.org/Graphics/SVG/1.1/DTD/svg11.dtd">
<svg version="1.1" id="Layer_1" xmlns="http://www.w3.org/2000/svg" xmlns:xlink="http://www.w3.org/1999/xlink" x="0px" y="0px"
	 width="609.4656px" height="542.9597px" viewBox="0 0 609.4656 542.9597" enable-background="new 0 0 609.4656 542.9597"
	 xml:space="preserve">
<g>
	<g>
		<g>
			<g>
				<path d="M146.88,77.8397c21.76,2.72,40.8-12.24,44.88-34c1.36-10.88-1.36-20.4-8.16-28.56s-14.96-13.6-25.84-14.96
					c-21.76-2.72-40.8,12.24-44.88,32.64C110.16,54.7197,125.12,75.1197,146.88,77.8397z M489.6,412.3997
					c-61.2-54.4-96.56-142.8-127.84-205.36c-17.68-35.36-44.88-73.44-78.88-102c6.8-5.44,13.6-10.88,20.4-16.32
					c20.4-14.96,46.24-20.4,77.52,0c29.92,19.04,51.68,43.52,53.04,43.52l31.28-25.84c0,0-17.68-29.92-53.04-59.84
					c-25.84-21.76-54.4-31.28-87.04-29.92c-21.76,1.36-39.44,8.16-55.76,19.04c-9.52,6.8-19.04,14.96-29.92,23.12
					c-9.52,8.16-19.04,17.68-28.56,27.2c-16.32,16.32-31.28,31.28-48.96,46.24c-21.76,17.68-47.6,29.92-77.52,14.96
					c-29.92-13.6-53.04-39.44-54.4-38.08L0,134.9597c1.36,0,17.68,29.92,58.48,57.12c29.92,19.04,61.2,23.12,95.2,13.6
					c29.92-8.16,50.32-25.84,70.72-46.24c27.2,20.4,48.96,47.6,66.64,82.96c-23.12,10.88-48.96,24.48-74.8,43.52
					c-17.68,14.96-48.96,44.88-48.96,92.48s31.28,77.52,53.04,97.92c48.96,39.44,92.48,54.4,92.48,54.4l24.48-44.88
					c1.36-1.36-38.08-23.12-70.72-58.48c-36.72-40.8-25.84-59.84-1.36-80.24c16.32-13.6,38.08-23.12,61.2-35.36
					c28.56,50.32,66.64,110.16,116.96,146.88c73.44,59.84,145.52,84.32,144.16,84.32l21.76-46.2401
					C613.36,498.0797,549.4401,468.1597,489.6,412.3997z"/>
			</g>
		</g>
	</g>
</g>
<g>
</g>
<g>
</g>
<g>
</g>
<g>
</g>
<g>
</g>
<g>
</g>
<g>
</g>
<g>
</g>
<g>
</g>
<g>
</g>
<g>
</g>
<g>
</g>
<g>
</g>
<g>
</g>
<g>
</g>
</svg>
