<?xml version="1.0" encoding="utf-8"?>
<!-- Generator: Adobe Illustrator 17.0.0, SVG Export Plug-In . SVG Version: 6.00 Build 0)  -->
<!DOCTYPE svg PUBLIC "-//W3C//DTD SVG 1.1//EN" "http://www.w3.org/Graphics/SVG/1.1/DTD/svg11.dtd">
<svg version="1.1" id="Layer_1" xmlns="http://www.w3.org/2000/svg" xmlns:xlink="http://www.w3.org/1999/xlink" x="0px" y="0px"
	 width="422.071px" height="790.8654px" viewBox="0 0 422.071 790.8654" enable-background="new 0 0 422.071 790.8654"
	 xml:space="preserve">
<g>
	<path d="M420.9627,234.8768l-34.0401,2.2693c-1.1346-1.1347,0,26.0974-17.0201,39.7135
		c-17.0201,13.616-55.5988,13.616-78.2923,12.4814c-27.2321-1.1347-53.3295-9.0773-78.2923-18.1547
		c-21.5587-9.0774-43.1175-17.0201-63.5415-28.3668c-14.7507-7.9427-29.5014-17.0201-43.1175-26.0974
		c-3.404-2.2693-48.7908-32.9054-47.6562-34.0401l-26.0974,21.5587c9.0774,14.7507,39.7135,41.9828,44.2522,45.3868
		c13.616,11.3467,28.3668,22.6934,43.1175,32.9054c23.8281,17.0201,48.7908,27.2321,76.0229,37.4441h1.1347
		C188.3553,358.5559,186.086,396,184.9513,432.3094c-9.0774,10.2121-38.5788,47.6562-40.8481,51.0602
		c-5.6734,7.9427-11.3467,14.7507-15.8854,22.6934c-10.212,14.7507-20.4241,30.6361-27.2321,47.6562
		c-14.7507,31.7708-26.0974,64.6762-35.1748,97.5817c-7.9427,30.6361-13.616,69.2149-13.616,96.447l39.7135,4.5387
		c1.1347-7.9427,9.0774-36.3095,9.0774-37.4442c10.212-32.9055,21.5587-64.6762,35.1748-96.447
		c13.616-31.7708,31.7708-62.4069,52.1948-90.7736c10.212,119.1404,39.7135,263.2435,43.1175,263.2435l41.9828-7.9427
		c-1.1347,0-28.3668-240.5501-21.5587-347.2091c1.1347-34.0401,3.404-68.0802,10.212-98.7163
		c9.0773,1.1347,19.2894,2.2693,29.5014,3.404c26.0974,0,74.8882,0,110.063-32.9054
		C432.3094,270.0515,418.6934,232.6074,420.9627,234.8768z M249.6275,243.9541c18.1547,2.2693,34.0401-10.212,37.4441-27.2321
		c1.1347-9.0774-1.1347-17.0201-5.6734-23.8281c-5.6733-6.808-12.4814-11.3467-21.5587-12.4814
		c-18.1547-2.2693-34.0401,10.212-37.4441,27.2321C220.1261,224.6647,232.6074,241.6848,249.6275,243.9541z M346.0745,132.7564
		c12.4814,13.616,27.2321,27.2321,34.0401,44.2522c5.6734,12.4814,10.2121,26.0974,12.4814,36.3095
		c1.1347,5.6734,2.2693,10.212,3.404,14.7507l13.6161-1.1347c-1.1347-4.5387-2.2693-10.212-3.404-17.0201
		c-2.2693-11.3467-4.5387-23.8281-5.6733-38.5788c-1.1347-18.1547,4.5387-35.1748,9.0774-53.3295
		c5.6733-19.2894,9.0773-40.8481,2.2693-60.1375c-9.0774-26.0974-31.7708-49.9255-60.1375-44.2522
		c-31.7708,7.9427-37.4441,38.5788-32.9054,65.8109C323.3811,100.9857,332.4584,116.8711,346.0745,132.7564z M372.1719,35.1748
		c5.6733,2.2693,10.212,7.9427,13.6161,12.4814c6.808,10.212,12.4814,24.9627,12.4814,37.4441
		c0,9.0774-2.2693,17.0201-4.5387,26.0974c-3.404,13.616-6.808,27.2321-7.9427,41.9828
		c-7.9427-12.4814-17.0201-23.8281-26.0974-34.0401c-11.3467-14.7507-19.2894-27.2321-22.6934-46.5215
		C333.5931,52.1948,347.2092,22.6934,372.1719,35.1748z M69.2149,57.8682c4.5387-2.2693,7.9427-7.9427,7.9427-13.616
		s-1.1347-11.3467-6.808-14.7507c-3.404-3.404-7.9427-4.5387-12.4814-6.808c-3.404-1.1347-6.808-4.5387-9.0774-7.9427
		c-3.404-3.404-6.808-6.808-10.212-10.212C34.0401,2.2693,30.6361,0,24.9627,0C14.7507,0,9.0774,10.212,4.5387,18.1547
		C2.2693,23.8281,0,29.5014,0,36.3095s1.1347,13.616,2.2693,20.4241c1.1347,4.5387,6.808,7.9427,11.3467,9.0774
		c4.5387,1.1347,9.0774,0,13.616-1.1347c6.808-2.2693,13.616-5.6734,21.5587-6.808C53.3295,57.8682,61.2722,61.2722,69.2149,57.8682
		z M40.8481,48.7908c-5.6734,0-10.212,2.2693-14.7507,3.404s-10.212,3.404-12.4814-1.1347
		c-4.5387-9.0774,2.2693-32.9054,9.0774-38.5788c4.5387-3.404,7.9427,1.1347,11.3467,4.5387
		c2.2693,2.2693,5.6734,5.6734,7.9427,7.9427c4.5387,4.5387,9.0774,6.808,14.7507,7.9427s11.3467,3.404,12.4814,9.0774
		c0,1.1347,0,2.2693,0,3.404c-2.2693,3.404-4.5387,4.5387-7.9427,4.5387c-2.2693,0-4.5387,0-6.808-1.1347
		C49.9255,48.7908,45.3868,47.6562,40.8481,48.7908z"/>
</g>
<g>
</g>
<g>
</g>
<g>
</g>
<g>
</g>
<g>
</g>
<g>
</g>
<g>
</g>
<g>
</g>
<g>
</g>
<g>
</g>
<g>
</g>
<g>
</g>
<g>
</g>
<g>
</g>
<g>
</g>
</svg>
