<?xml version="1.0" encoding="utf-8"?>
<!-- Generator: Adobe Illustrator 18.1.1, SVG Export Plug-In . SVG Version: 6.00 Build 0)  -->
<svg version="1.1" id="Layer_1" xmlns="http://www.w3.org/2000/svg" xmlns:xlink="http://www.w3.org/1999/xlink" x="0px" y="0px"
	 viewBox="0 0 38 38" enable-background="new 0 0 38 38" xml:space="preserve">
<g>
	<g>
		<g>
			<path d="M19,0C8.5,0,0,8.5,0,19c0,10.5,8.5,19,19,19c10.5,0,19-8.5,19-19C38,8.5,29.5,0,19,0z M19,34c-8.3,0-15-6.7-15-15
				c0-8.3,6.7-15,15-15c8.3,0,15,6.7,15,15C34,27.3,27.3,34,19,34z"/>
			<path d="M28,25.6l-2.7,1.3c0.5,1,1,1.9,1.6,2.8l2.4-1.7h0C28.9,27.2,28.4,26.4,28,25.6z"/>
			<path d="M27.1,23.1c-0.2-0.9-0.4-1.8-0.5-2.7l-3,0.3c0.1,1.1,0.3,2.2,0.6,3.2L27.1,23.1L27.1,23.1z"/>
			<path d="M28,12.4c0.4-0.8,0.9-1.6,1.4-2.4l-2.4-1.7c-0.6,0.9-1.2,1.8-1.6,2.8L28,12.4L28,12.4z"/>
			<path d="M27.1,14.9l-2.9-0.8c-0.3,1-0.5,2.1-0.6,3.2l3,0.3C26.7,16.7,26.8,15.8,27.1,14.9z"/>
			<path d="M8.6,28L8.6,28l2.4,1.7c0.6-0.9,1.2-1.8,1.6-2.8L10,25.6C9.6,26.4,9.1,27.2,8.6,28z"/>
			<path d="M10.9,23.1L10.9,23.1l2.9,0.8c0.3-1,0.5-2.1,0.6-3.2l-3-0.3C11.3,21.3,11.2,22.2,10.9,23.1z"/>
			<path d="M10,12.4l2.7-1.3c-0.5-1-1-1.9-1.6-2.8L8.6,10C9.1,10.8,9.6,11.6,10,12.4L10,12.4z"/>
			<path d="M10.9,14.9c0.2,0.9,0.4,1.8,0.5,2.7l3-0.3c-0.1-1.1-0.3-2.2-0.6-3.2L10.9,14.9z"/>
		</g>
	</g>
</g>
<g>
</g>
<g>
</g>
<g>
</g>
<g>
</g>
<g>
</g>
<g>
</g>
<g>
</g>
<g>
</g>
<g>
</g>
<g>
</g>
<g>
</g>
<g>
</g>
<g>
</g>
<g>
</g>
<g>
</g>
</svg>
