<?xml version="1.0" encoding="utf-8"?>
<!-- Generator: Adobe Illustrator 17.0.0, SVG Export Plug-In . SVG Version: 6.00 Build 0)  -->
<!DOCTYPE svg PUBLIC "-//W3C//DTD SVG 1.1//EN" "http://www.w3.org/Graphics/SVG/1.1/DTD/svg11.dtd">
<svg version="1.1" id="Layer_1" xmlns="http://www.w3.org/2000/svg" xmlns:xlink="http://www.w3.org/1999/xlink" x="0px" y="0px"
	 width="471.7559px" height="793.2612px" viewBox="0 0 471.7559 793.2612" enable-background="new 0 0 471.7559 793.2612"
	 xml:space="preserve">
<g>
	<path d="M160.1656,8.828L138.7261,0L99.6306,92.0637C68.1019,170.2548,0,343.0319,0,344.293l13.8726,6.3057
		c1.2611,0,75.6688-170.2548,108.4586-248.4459L160.1656,8.828z M205.5669,259.7962c18.9172-2.5223,31.5287-20.1784,29.0064-39.0956
		c-2.5223-18.9172-20.1784-31.5287-39.0956-29.0064c-8.828,1.2612-17.6561,6.3057-22.7006,13.8726s-7.5669,16.3949-6.3057,25.2229
		C168.9936,248.4459,186.6497,262.3185,205.5669,259.7962z M324.1147,408.6115c7.5669-65.5797-13.8726-121.0701-59.2739-157.6433
		c-1.2611-1.2612-29.0063,29.0064-31.5287,31.5287c-15.1338,15.1338-35.3121,27.7452-55.4904,35.3121
		c-6.3057,2.5223-13.8726,5.0446-21.4395,6.3058c-16.3949,3.7834-32.7898,5.0446-49.1847,5.0446
		c-15.1338,0-31.5287,0-46.6624-2.5223c-1.2611,0-15.1338-2.5223-18.9172-5.0446l-16.3949,34.051
		c17.6561,10.0891,55.4904,18.9172,60.535,20.1783c36.5733,6.3057,76.9299,8.828,112.242-3.7834
		c6.3058-2.5223,13.8726-5.0446,20.1783-8.8281c7.5669-3.7834,15.1338-8.828,22.7006-12.6115c0,0,1.2612-1.2611,2.5223-1.2611
		c8.828,12.6115,12.6115,29.0063,10.0892,56.7516c-1.2611,10.0891-2.5223,22.7006-3.7834,36.5732
		c-25.2229,21.4395-47.9236,44.1401-66.8408,71.8854c-66.8408,76.9299-75.6688,267.3631-75.6688,273.6688L152.5987,792
		c-1.2612-1.2611,34.051-180.3439,87.0191-237.0955c3.7834-5.0446,7.5669-10.0892,11.3503-13.8726
		c3.7834,39.0956,11.3503,78.1911,25.2229,112.2421c29.0063,80.7134,61.7962,138.7261,61.7962,139.9872l41.6178-17.6561
		c-1.2612-5.0446-25.2229-63.0573-46.6624-138.7261C307.7198,557.4268,316.5478,475.4523,324.1147,408.6115z M440.1402,389.6943
		c-5.0446,1.2612-10.0892,3.7834-12.6115,8.828c-2.5223,5.0446-3.7834,11.3503-3.7834,16.3949
		c1.2611,11.3503,11.3503,20.1783,21.4395,21.4395c15.1338,1.2611,27.7452-12.6115,26.484-27.7452
		C470.4077,394.7389,454.0128,387.172,440.1402,389.6943z M445.1847,423.7452c-15.1338-1.2611-18.9172-29.0063,2.5223-25.2229
		c6.3057,1.2612,10.0891,6.3058,10.0891,11.3503C459.0574,417.4395,455.2739,425.0064,445.1847,423.7452z"/>
</g>
<g>
</g>
<g>
</g>
<g>
</g>
<g>
</g>
<g>
</g>
<g>
</g>
<g>
</g>
<g>
</g>
<g>
</g>
<g>
</g>
<g>
</g>
<g>
</g>
<g>
</g>
<g>
</g>
<g>
</g>
</svg>
