<?xml version="1.0" encoding="utf-8"?>
<!-- Generator: Adobe Illustrator 18.1.1, SVG Export Plug-In . SVG Version: 6.00 Build 0)  -->
<svg version="1.1" id="Layer_1" xmlns="http://www.w3.org/2000/svg" xmlns:xlink="http://www.w3.org/1999/xlink" x="0px" y="0px"
	 viewBox="0 0 46 46" enable-background="new 0 0 46 46" xml:space="preserve">
<g>
	<path d="M0,23c0,12.7,10.3,23,23,23c12.7,0,23-10.3,23-23C46,10.3,35.7,0,23,0C10.3,0,0,10.3,0,23z M2.5,31.7
		c-0.5-1.2-0.9-2.4-1.2-3.6c3-7.3,4.5-16,8.8-23.3c1.5-1.1,3.2-2,5-2.7C8.4,9.8,7.2,21.8,2.5,31.7z M23,45.2c-0.6,0-1.3,0-1.9-0.1
		c-1.7-2.3-2.4-4.9-2.4-7.6c0,0,0,0,0,0c0-4.9,2.2-9.9,5-13.5c4.2-5.2,10.6-9.1,17.4-9.1c0.9,0,1.8,0.1,2.7,0.2
		c0.3,0.9,0.6,1.8,0.8,2.7c-1.2-0.3-2.3-0.4-3.5-0.4c0,0,0,0-0.1,0c-5.8,0-11.6,3.4-15.4,8.1c-2.5,3.1-4.5,7.7-4.5,11.9c0,0,0,0,0,0
		c0,3,0.9,5.6,3.3,7.7C24,45.2,23.5,45.2,23,45.2z"/>
</g>
<g>
</g>
<g>
</g>
<g>
</g>
<g>
</g>
<g>
</g>
<g>
</g>
<g>
</g>
<g>
</g>
<g>
</g>
<g>
</g>
<g>
</g>
<g>
</g>
<g>
</g>
<g>
</g>
<g>
</g>
</svg>
