<?xml version="1.0" encoding="utf-8"?>
<!-- Generator: Adobe Illustrator 18.1.1, SVG Export Plug-In . SVG Version: 6.00 Build 0)  -->
<svg version="1.1" id="Layer_1" xmlns="http://www.w3.org/2000/svg" xmlns:xlink="http://www.w3.org/1999/xlink" x="0px" y="0px"
	 viewBox="0 0 44.2 44.2" enable-background="new 0 0 44.2 44.2" xml:space="preserve">
<g>
	<path d="M22.1,0C9.9,0,0,9.9,0,22.1c0,12.2,9.9,22.1,22.1,22.1c12.2,0,22.1-9.9,22.1-22.1C44.2,9.9,34.3,0,22.1,0z M22.1,40.1
		c-9.9,0-18-8.1-18-18c0-9.9,8.1-18,18-18c9.9,0,18,8.1,18,18C40.1,32,32,40.1,22.1,40.1z"/>
	<path d="M10.2,13.4c1.6,2.6,2.5,5.6,2.5,8.6c0,3.1-0.9,6.2-2.5,8.8l3.5,2.2c2.1-3.3,3.2-7.1,3.2-11c0-3.8-1.1-7.6-3.2-10.8
		L10.2,13.4z"/>
	<path d="M34.5,12.7L31,10.5c-2.2,3.5-3.3,7.4-3.3,11.6c0,4.2,1.1,8.2,3.4,11.8l3.5-2.2c-1.8-2.9-2.7-6.2-2.7-9.6
		C31.8,18.7,32.8,15.5,34.5,12.7z"/>
</g>
<g>
</g>
<g>
</g>
<g>
</g>
<g>
</g>
<g>
</g>
<g>
</g>
<g>
</g>
<g>
</g>
<g>
</g>
<g>
</g>
<g>
</g>
<g>
</g>
<g>
</g>
<g>
</g>
<g>
</g>
</svg>
