<?xml version="1.0" encoding="utf-8"?>
<!-- Generator: Adobe Illustrator 17.0.0, SVG Export Plug-In . SVG Version: 6.00 Build 0)  -->
<!DOCTYPE svg PUBLIC "-//W3C//DTD SVG 1.1//EN" "http://www.w3.org/Graphics/SVG/1.1/DTD/svg11.dtd">
<svg version="1.1" id="Layer_1" xmlns="http://www.w3.org/2000/svg" xmlns:xlink="http://www.w3.org/1999/xlink" x="0px" y="0px"
	 width="612px" height="612px" viewBox="0 0 612 612" enable-background="new 0 0 612 612" xml:space="preserve">
<path d="M306,0C136.8543,0,0,136.8543,0,306s136.8543,306,306,306s306-136.8543,306-306S475.1457,0,306,0z M58.4322,306
	c0-67.6583,27.6784-129.1658,70.7337-173.7588C176.8342,175.2965,207.5879,236.804,207.5879,306s-30.7538,130.7035-78.4221,173.7588
	C86.1105,435.1658,58.4322,373.6583,58.4322,306z M162.995,507.4372C216.8141,456.6935,250.6432,385.9598,250.6432,306
	s-33.8291-152.2312-87.6482-201.4372C202.9749,75.3467,252.1809,58.4321,306,58.4321s103.0251,16.9146,143.005,46.1307
	C395.1859,155.3065,361.3568,227.5779,361.3568,306c0,79.9598,33.8292,152.2311,87.6483,201.4372
	c-39.9799,29.2161-89.1859,46.1307-143.005,46.1307S202.9749,536.6533,162.995,507.4372z M482.8342,479.7588
	C435.1658,436.7036,404.412,375.196,404.412,306s30.7538-130.7035,78.4221-173.7588
	c44.593,44.593,70.7337,106.1005,70.7337,173.7588S525.8895,435.1658,482.8342,479.7588z"/>
<g>
</g>
<g>
</g>
<g>
</g>
<g>
</g>
<g>
</g>
<g>
</g>
<g>
</g>
<g>
</g>
<g>
</g>
<g>
</g>
<g>
</g>
<g>
</g>
<g>
</g>
<g>
</g>
<g>
</g>
</svg>
