<?xml version="1.0" encoding="utf-8"?>
<!-- Generator: Adobe Illustrator 17.0.0, SVG Export Plug-In . SVG Version: 6.00 Build 0)  -->
<!DOCTYPE svg PUBLIC "-//W3C//DTD SVG 1.1//EN" "http://www.w3.org/Graphics/SVG/1.1/DTD/svg11.dtd">
<svg version="1.1" id="Layer_1" xmlns="http://www.w3.org/2000/svg" xmlns:xlink="http://www.w3.org/1999/xlink" x="0px" y="0px"
	 width="613.351px" height="613.351px" viewBox="0 0 613.351 613.351" enable-background="new 0 0 613.351 613.351"
	 xml:space="preserve">
<g>
	<path d="M306.6755,0C136.4503,0,0,136.4503,0,306.6755C0,475.5497,136.4503,613.351,306.6755,613.351
		c168.8742,0,306.6755-136.4503,306.6755-306.6755C612,136.4503,475.5497,0,306.6755,0z M602.543,306.6755
		c0,12.159-1.351,24.3179-2.702,36.4768c-17.5629,9.457-39.1788,17.5629-66.1987,24.3179
		c-58.0927,14.8609-136.4503,25.6689-222.9139,31.0728c-22.9669,1.351-45.9338,1.351-67.5497,1.351
		c-52.6887,0-99.9735-2.702-140.5033-8.106c2.702,17.5629,5.404,35.1259,9.457,51.3377
		c41.8808,10.808,89.1656,31.0728,118.8874,49.9868c54.0397,35.1258,133.7484,68.9006,194.5431,68.9006l0,0l0,0
		c14.8609,0,28.3708-1.351,40.5298-5.404c-22.9669,14.8609-47.2848,27.0199-74.3046,35.1258
		c-63.4967-9.457-129.6954-40.5298-179.6821-71.6026c-20.2649-13.5099-56.7417-29.7219-89.1656-39.1789
		c17.5629,45.9338,44.5828,83.7616,75.6556,104.0265c-32.4238-12.1589-60.7947-29.7219-86.4636-51.3378
		c-10.808-18.9139-20.2649-39.1788-27.0199-62.1457c-5.404-1.351-10.8079-1.351-14.8609-1.351v-1.351l-1.351,1.351l0,0l0,0l0,0
		c-5.404,0-9.457,1.351-10.808,1.351c-5.404-9.457-10.8079-17.5629-16.2119-28.3708c8.106-5.404,17.5629-5.404,27.0199-6.7549
		c2.702,0,4.053,0,6.755,0c-4.053-16.2119-6.755-33.7748-8.106-51.3377c-20.2649-4.053-37.8278-9.457-52.6887-14.8609
		c-2.702-12.1589-5.404-25.6689-5.404-39.1788c2.702,1.351,5.404,4.0529,9.457,5.404c9.457,5.404,25.6689,10.8079,45.9338,14.8609
		c0-5.404,0-10.808,0-16.2119c0-16.2119,1.351-32.4238,2.702-48.6358c-12.1589-5.404-21.6159-12.1589-29.7219-21.6159
		c-8.106-9.457-14.8609-20.2649-20.2649-32.4239c6.755-24.3179,14.8609-47.2848,27.0199-67.5497
		c-1.351,9.457-2.702,18.9139-2.702,27.0199c0,27.0199,10.8079,47.2848,29.7219,59.4437
		c13.5099-82.4106,45.9338-155.3642,90.5166-205.351c29.7219-16.2119,63.4967-28.3709,98.6225-33.7748
		c-71.6026,28.3709-137.8013,124.2914-156.7152,249.9338c2.702,0,5.404,0,8.106,0l0,0c27.0199,0,62.1457-12.1589,102.6755-45.9338
		C320.1855,131.0464,416.106,79.7086,480.9536,66.1987c12.159,9.457,22.9669,18.9139,33.7748,28.3709c-1.351,0-2.702,0-4.0529,0
		h-1.351c-47.2848,0-156.7152,49.9867-272.9007,147.2583c-44.5828,36.4768-86.4636,52.6888-122.9404,52.6888l0,0
		c-4.053,0-8.106,0-12.1589-1.351c-1.351,13.5099-1.351,27.0199-1.351,40.5298c0,8.106,0,14.8609,0,21.6159
		c39.1788,5.404,89.1656,9.4569,143.2053,9.4569c21.6159,0,43.2318,0,66.1987-1.351
		c126.9934-5.404,237.7748-28.3709,278.3046-52.6888c6.755-2.702,10.808-6.755,14.8609-9.457
		C602.543,303.9735,602.543,305.3245,602.543,306.6755z"/>
</g>
<g>
</g>
<g>
</g>
<g>
</g>
<g>
</g>
<g>
</g>
<g>
</g>
<g>
</g>
<g>
</g>
<g>
</g>
<g>
</g>
<g>
</g>
<g>
</g>
<g>
</g>
<g>
</g>
<g>
</g>
</svg>
