<?xml version="1.0" encoding="utf-8"?>
<!-- Generator: Adobe Illustrator 17.0.0, SVG Export Plug-In . SVG Version: 6.00 Build 0)  -->
<!DOCTYPE svg PUBLIC "-//W3C//DTD SVG 1.1//EN" "http://www.w3.org/Graphics/SVG/1.1/DTD/svg11.dtd">
<svg version="1.1" id="Layer_1" xmlns="http://www.w3.org/2000/svg" xmlns:xlink="http://www.w3.org/1999/xlink" x="0px" y="0px"
	 width="612px" height="612px" viewBox="0 0 612 612" enable-background="new 0 0 612 612" xml:space="preserve">
<g>
	<path d="M306,0C137.0348,0,0,137.0348,0,306s137.0348,306,306,306s306-137.0348,306-306S474.9652,0,306,0z M580.0696,306
		c0,3.9913,0,7.9826,0,11.9739c-45.2348,22.6174-146.3479,42.5739-263.4261,47.8957C294.0261,367.2,272.7391,367.2,252.7826,367.2
		c-53.2174,0-101.1131-2.6609-138.3652-9.313h-2.6609v-2.6609c0-6.6522,0-14.6348,0-21.287c0-13.3044,0-26.6087,1.3304-39.9131
		v-3.9913h3.9913c3.9913,0,6.6522,0,10.6435,0c34.5913,0,74.5043-15.9652,117.0783-50.5565
		c99.7826-82.487,191.5826-129.0522,244.8-139.6957C545.4783,150.3391,580.0696,223.513,580.0696,306z M465.6522,82.487
		c-59.8696,17.2957-143.687,63.8609-236.8174,139.6957c-39.913,31.9304-74.5043,45.2348-102.4435,45.2348
		c-2.6609,0-5.3217,0-7.9826-1.3304h-3.9913v-3.9913c14.6348-98.4522,59.8696-178.2783,114.4174-220.8522
		C254.1131,34.5913,279.3913,30.6,306,30.6C365.8696,30.6,420.4174,50.5565,465.6522,82.487z M172.9565,65.1913
		c-38.5826,47.8957-67.8522,113.087-79.8261,187.5913L91.8,259.4348l-5.3217-3.9913c-18.6261-11.9739-29.2696-34.5913-30.6-61.2
		c0-1.3304,0-3.9913,0-5.3217C81.1565,137.0348,122.4,93.1304,172.9565,65.1913z M98.4522,433.7217h-5.3217
		c-2.6609,0-3.9913,0-6.6522,0c-7.9826,0-14.6348,1.3304-21.287,3.9913c-11.9739-22.6174-22.6174-47.8957-27.9391-74.5043
		c13.3043,5.3217,29.2696,10.6435,49.2261,14.6348h2.6609v2.6609c1.3304,17.2957,3.9913,33.2609,7.9826,47.8956L98.4522,433.7217z
		 M41.2435,232.8261c3.9913,10.6435,9.313,21.287,17.2957,29.2696c7.9826,7.9826,17.2957,14.6348,27.9391,19.9565l2.6609,1.3304
		v2.6609c-1.3304,15.9652-2.6609,31.9304-2.6609,46.5652c0,5.3217,0,10.6435,0,15.9652v5.3217l-5.3217-1.3304
		c-19.9565-3.9913-35.9217-9.313-45.2348-14.6348c-1.3304-1.3304-2.6609-1.3304-3.9913-2.6609C30.6,325.9565,30.6,315.313,30.6,306
		C30.6,280.7217,34.5913,255.4435,41.2435,232.8261z M77.1652,457.6696C94.4609,451.0174,105.1043,459,105.1043,459l1.3304,2.6609
		c6.6522,21.2869,14.6348,39.9131,23.9478,55.8783C109.0956,500.2435,91.8,480.287,77.1652,457.6696z M180.9391,550.8
		c-18.6261-19.9565-34.5913-46.5652-46.5652-78.4957l-2.6609-7.9826l7.9826,2.6609c31.9305,10.6435,66.5217,25.2783,86.4783,38.5826
		c42.5739,26.6087,98.4522,53.2174,151.6696,65.1913c-22.6174,6.6522-46.5652,9.313-71.8435,9.313
		C260.7652,580.0696,218.1913,569.4261,180.9391,550.8z M424.4087,553.4609c-59.8696-1.3304-134.3739-34.5913-186.2609-66.5218
		c-27.9391-17.2957-73.1739-37.2522-113.087-46.5652H122.4v-2.6609c-3.9913-15.9652-7.9826-31.9304-9.313-49.2261l-1.3304-5.3217
		h5.3217c38.5826,5.3217,83.8174,7.9826,134.3739,7.9826c21.287,0,42.5739,0,65.1913-1.3304
		c83.8174-3.9913,159.6522-14.6348,214.2-29.2696c17.2957-3.9913,33.2609-9.313,46.5652-15.9652
		C564.1044,436.3826,505.5652,514.8783,424.4087,553.4609z"/>
</g>
<g>
</g>
<g>
</g>
<g>
</g>
<g>
</g>
<g>
</g>
<g>
</g>
<g>
</g>
<g>
</g>
<g>
</g>
<g>
</g>
<g>
</g>
<g>
</g>
<g>
</g>
<g>
</g>
<g>
</g>
</svg>
