<?xml version="1.0" encoding="utf-8"?>
<!-- Generator: Adobe Illustrator 17.0.0, SVG Export Plug-In . SVG Version: 6.00 Build 0)  -->
<!DOCTYPE svg PUBLIC "-//W3C//DTD SVG 1.1//EN" "http://www.w3.org/Graphics/SVG/1.1/DTD/svg11.dtd">
<svg version="1.1" id="Layer_1" xmlns="http://www.w3.org/2000/svg" xmlns:xlink="http://www.w3.org/1999/xlink" x="0px" y="0px"
	 width="594.0969px" height="790.1561px" viewBox="0 0 594.0969 790.1561" enable-background="new 0 0 594.0969 790.1561"
	 xml:space="preserve">
<g>
	<path d="M507.4569,648.5402c-41.9603-61.6292-61.6292-148.1721-64.2517-201.9338c-2.6225-26.2252-2.6225-53.7616,0-81.298
		c6.5563,2.6225,11.8014,5.245,18.3576,7.8676c27.5364,11.8013,64.2517,28.8477,73.4305,60.3179
		c10.4901,31.4702,3.9338,66.8741,6.5563,65.5629l39.3378,6.5563c-2.6226-1.3112,13.1125-35.404,3.9338-86.543
		c-9.1788-56.3841-70.808-91.7881-98.3444-102.2782c-32.7815-13.1126-65.5629-24.9139-94.4106-47.2053
		c-20.9802-15.7351-34.0927-35.404-43.2715-59.0066c-14.4239-38.0265-20.9801-78.6755-28.8477-118.0132
		c17.0463-9.1788,30.1589-39.3377,19.6689-60.3179C330.437,8.6462,308.1457,3.4012,309.4569,3.4012l0,0l0,0l0,0
		c0,1.3113-19.6689-9.1788-41.9603,1.3113c-23.6026,10.4901-32.7814,44.5828-23.6026,62.9404
		c5.245,15.7351,18.3576,27.5364,34.0927,31.4702c0,38.0265,2.6225,141.6159,48.5166,192.7549
		c13.1126,17.0464,27.5364,28.8477,43.2715,39.3378c-3.9338,32.7814-5.245,65.5629-3.9338,98.3443
		c-28.8477,9.1788-57.6953,24.9139-78.6755,51.1391c-77.3642,93.0994,15.7351,259.6292,14.4238,253.0729l41.9603-18.3577
		c-2.6225-3.9337-18.3576-82.6093-19.6689-87.8543c-2.6225-19.6688-3.9338-40.649-1.3113-61.6292
		c1.3113-7.8675,2.6225-17.0463,6.5563-24.9139c5.245-10.4901,17.0464-22.2914,26.2252-30.1589
		c5.245-3.9338,11.8013-6.5563,17.0464-10.4901c11.8013,59.0066,39.3377,131.1258,81.298,183.5761
		c51.1391,69.4967,110.1458,106.2119,110.1458,106.2119l30.1589-38.0265C596.6225,750.8184,545.4834,712.7919,507.4569,648.5402z
		 M305.5232,75.5204c-7.8676,3.9338-15.7351,5.245-24.9139,2.6225c-24.9139-9.1788-27.5364-43.2715-5.245-57.6954
		c13.1126-9.1788,28.8477-3.9338,28.8477-5.245l2.6225-6.5563l-2.6225,6.5563c-1.3112,1.3113,13.1126,6.5563,18.3576,22.2914
		S318.6357,68.9641,305.5232,75.5204z M444.5166,259.0965c20.9801,1.3113,39.3377-13.1126,40.649-34.0927
		c1.3112-20.9801-13.1126-39.3378-34.0927-40.649c-10.4901-1.3113-19.6689,2.6225-27.5364,9.1788
		c-7.8676,6.5563-11.8013,15.7351-13.1126,26.2252C407.8013,239.4277,423.5364,257.7853,444.5166,259.0965z M142.9271,47.984
		c-2.6225-6.5563-11.8013-9.1788-18.3576-11.8013c-15.7351-3.9338-32.7815-5.245-48.5166-6.5563c-7.8675,0-17.0464,0-24.9139,0
		c-13.1126,1.3113-24.9139,3.9338-36.7152,7.8676C9.1788,40.1164,2.6225,44.0502,0,50.6065c0,3.9338,0,6.5563,1.3113,9.1788l0,0l0,0
		c1.3113,1.3113,1.3113,2.6225,2.6225,3.9338c5.245,9.1788,13.1126,22.2914,17.0464,30.1589
		c19.6689,34.0927,22.2914,77.3643,20.9801,77.3643h11.8013c0,0,0-43.2715-13.1126-76.053
		c-1.3113-1.3113-5.245-9.1788-9.1788-18.3576c6.5563,2.6225,14.4238,2.6225,20.9801,2.6225c13.1126,1.3113,26.2252,0,40.649-1.3113
		c5.245,0,13.1126-1.3113,20.9801-3.9338c-5.245,10.4901-9.1788,19.6689-10.4901,22.2914
		c-14.4238,32.7814-13.1126,76.053-13.1126,76.053h11.8013c0-2.6225,1.3113-43.2715,20.9801-77.3642
		c5.245-9.1788,14.4239-24.9139,19.6689-34.0927l0,0c1.3112-3.9338,1.3112-6.5563,1.3112-7.8676
		C144.2384,50.6065,144.2384,49.2952,142.9271,47.984z M91.7881,62.4078c-13.1126,1.3113-26.2252,1.3113-39.3377,0
		c-6.5563,0-14.4238-1.3113-20.9801-2.6225c-3.9338-1.3113-7.8675-2.6225-10.4901-3.9338c-5.245-2.6225,0-3.9338,2.6225-5.245
		c26.2252-13.1126,65.5629-7.8675,65.5629-7.8675c14.4238,1.3113,28.8477,2.6225,38.0265,7.8675
		C132.4371,53.229,121.947,61.0966,91.7881,62.4078z"/>
</g>
<g>
</g>
<g>
</g>
<g>
</g>
<g>
</g>
<g>
</g>
<g>
</g>
<g>
</g>
<g>
</g>
<g>
</g>
<g>
</g>
<g>
</g>
<g>
</g>
<g>
</g>
<g>
</g>
<g>
</g>
</svg>
