<?xml version="1.0" encoding="utf-8"?>
<!-- Generator: Adobe Illustrator 17.0.0, SVG Export Plug-In . SVG Version: 6.00 Build 0)  -->
<!DOCTYPE svg PUBLIC "-//W3C//DTD SVG 1.1//EN" "http://www.w3.org/Graphics/SVG/1.1/DTD/svg11.dtd">
<svg version="1.1" id="Layer_1" xmlns="http://www.w3.org/2000/svg" xmlns:xlink="http://www.w3.org/1999/xlink" x="0px" y="0px"
	 width="612px" height="751.7614px" viewBox="0 0 612 751.7614" enable-background="new 0 0 612 751.7614" xml:space="preserve">
<g>
	<path d="M143.6326,79.8104c14.9878-4.9959,29.9755-31.2245,21.2327-51.2082c-7.4939-19.9837-24.9796-24.9796-23.7306-24.9796l0,0
		l0,0l0,0c0,1.249-16.2367-8.7429-34.9714,0c-19.9837,8.7429-28.7265,36.2204-21.2327,51.2082
		C91.1755,78.5614,122.4,92.3002,143.6326,79.8104z M112.4082,17.3614c11.2408-7.4939,23.7306-2.498,23.7306-2.498l2.498-4.9959
		l-2.498,4.9959c0,1.249,11.2408,6.2449,14.9878,18.7347c3.7469,12.4898-4.9959,27.4775-14.9878,31.2245
		c-12.4898,7.4939-31.2245,0-34.9714-14.9878C97.4204,41.092,101.1674,23.6063,112.4082,17.3614z M277.2735,164.741
		c19.9837,2.498,37.4694-11.2408,39.9673-31.2245c2.498-19.9837-12.4898-37.4694-31.2245-39.9673
		c-9.9918-1.249-18.7347,1.249-26.2286,7.4939c-7.4939,6.2449-12.4898,14.9878-13.7388,23.7306
		C243.551,144.7573,257.2898,162.2431,277.2735,164.741z M267.2816,455.7533c19.9837,41.2163,47.4612,82.4326,77.4367,114.9061
		c49.9592,58.7021,101.1673,93.6735,101.1673,93.6735l29.9755-36.2204c-13.7388-11.2408-78.6857-91.1755-83.6816-97.4204
		c-22.4816-31.2245-43.7143-62.449-59.951-97.4204c-16.2367-33.7225-23.7306-66.1959-29.9755-102.4164
		c-1.249-9.9918-2.498-19.9837-2.498-29.9755c0-3.7469,0-32.4735,1.249-48.7102c16.2367-1.249,33.7224-3.7469,53.7061-9.9918
		c29.9755-8.7429,81.1837-44.9633,86.1796-97.4204c4.9959-49.9592-21.2327-78.6857-19.9836-78.6857l-33.7225,17.4857
		c-1.249,0,12.4898,27.4776,4.9959,52.4571c-4.9959,24.9796-36.2204,44.9633-57.4531,51.2082
		c-31.2245,9.9918-64.9469,7.4939-97.4204,8.7429c-37.4694,1.249-76.1878,0-112.4082-12.4898
		c-29.9755-11.2408-52.4571-29.9755-53.7061-28.7265l-24.9796,27.4776c0,0,21.2327,24.9796,59.951,44.9633
		s88.6776,23.7306,116.1551,24.9796c2.498,0,3.7469,0,6.2449,0c-3.7469,37.4694-1.249,74.9388,6.2449,109.9102
		c-7.4939,12.4898-19.9837,37.4694-21.2327,41.2163c-3.7469,8.7429-7.4939,16.2367-9.9918,24.9796
		c-2.498,6.2449-3.7469,12.4898-6.2449,18.7347c-17.4857,66.1959-9.9918,134.8898,4.9959,201.0858
		c1.249,3.7469,9.9918,39.9673,14.9878,51.2081l42.4653-9.9918c-1.249-8.7429-7.4939-57.4531-8.7429-61.2
		c-2.498-28.7265-3.7469-58.702-2.498-87.4286C249.7959,511.9573,254.7918,481.9818,267.2816,455.7533z M154.8735,751.7614h24.9796
		v-24.9796h-24.9796V751.7614z M226.0653,751.7614h24.9796v-24.9796h-24.9796V751.7614z M113.6571,709.2961h24.9796v-24.9796
		h-24.9796V709.2961z M41.2163,709.2961h24.9796v-24.9796H41.2163C41.2163,684.3165,41.2163,709.2961,41.2163,709.2961z M0,668.0798
		h24.9796v-24.9796H0V668.0798z M83.6816,751.7614h24.9796v-24.9796H83.6816V751.7614z M96.1714,643.1002H71.1918v24.9796h24.9796
		V643.1002z M167.3633,643.1002h-24.9796v24.9796h24.9796V643.1002z M298.5061,751.7614h24.9796v-24.9796h-24.9796V751.7614z
		 M399.6735,709.2961h24.9796v-24.9796h-24.9796V709.2961z M440.8898,751.7614h24.9796v-24.9796h-24.9796V751.7614z
		 M369.698,751.7614h24.9796v-24.9796H369.698V751.7614z M382.1877,643.1002h-24.9796v24.9796h24.9796V643.1002z M328.4816,709.2961
		h24.9796v-24.9796h-24.9796V709.2961z M310.9959,643.1002h-24.9796v24.9796h24.9796V643.1002z M587.0204,726.7818v24.9796H612
		v-24.9796H587.0204z M515.8286,751.7614h24.9796v-24.9796h-24.9796V751.7614z M545.8041,709.2961h24.9796v-24.9796h-24.9796
		V709.2961z M528.3184,643.1002h-24.9796v24.9796h24.9796V643.1002z M474.6122,709.2961h24.9796v-24.9796h-24.9796V709.2961z"/>
</g>
<g>
</g>
<g>
</g>
<g>
</g>
<g>
</g>
<g>
</g>
<g>
</g>
<g>
</g>
<g>
</g>
<g>
</g>
<g>
</g>
<g>
</g>
<g>
</g>
<g>
</g>
<g>
</g>
<g>
</g>
</svg>
