<?xml version="1.0" encoding="utf-8"?>
<!-- Generator: Adobe Illustrator 17.0.0, SVG Export Plug-In . SVG Version: 6.00 Build 0)  -->
<!DOCTYPE svg PUBLIC "-//W3C//DTD SVG 1.1//EN" "http://www.w3.org/Graphics/SVG/1.1/DTD/svg11.dtd">
<svg version="1.1" id="Layer_1" xmlns="http://www.w3.org/2000/svg" xmlns:xlink="http://www.w3.org/1999/xlink" x="0px" y="0px"
	 width="612px" height="511.5074px" viewBox="0 0 612 511.5074" enable-background="new 0 0 612 511.5074" xml:space="preserve">
<g>
	<path d="M411.0148,481.3596c-1.0049-1.0049-5.0246,0-9.0444,4.0197L133.6551,175.8621c-1.0049-1.0049-2.0098-1.0049-3.0148,0
		c-1.0049,1.0049-2.0099,2.0099-1.0049,3.0148l267.3103,309.5172c-4.0197,4.0197-6.0295,8.0394-5.0246,9.0443
		c1.0049,1.0049,5.0246,0,9.0444-4.0197l1.0049,2.0099c1.0049,1.0049,2.0099,1.0049,3.0148,0
		c1.0049-1.0049,2.0099-2.0099,1.0049-3.0148l-1.0049-2.0099C409.0049,485.3793,412.0197,482.3645,411.0148,481.3596z"/>
	<path d="M143.7044,503.468c0-2.0099-4.0197-3.0148-10.0493-3.0148L112.5517,84.4138c0-1.0049-1.0049-2.0098-3.0148-2.0098
		s-3.0148,1.0049-3.0148,2.0098l21.1034,416.0395c-5.0246,1.0049-10.0493,2.0099-9.0443,4.0197
		c0,2.0099,4.0197,3.0148,10.0493,3.0148v2.0099c0,1.0049,1.0049,2.0099,3.0148,2.0099c2.0099,0,3.0148-1.0049,3.0148-2.0099
		v-2.0099C139.6847,506.4828,143.7044,505.4778,143.7044,503.468z"/>
	<path d="M221.0837,104.5123c-7.0345-12.0591-7.0345-44.2168-38.1872-37.1823c-10.0493,2.0098-25.1232,14.069-19.0936,31.1527
		c11.0542,30.1478,21.1035,33.1626,34.1675,38.1872c-19.0936,14.069-31.1527,25.1231-31.1527,25.1231
		s-28.1379-31.1527-33.1626-40.197c-4.0197-9.0443-9.0443-22.1084-26.1281-21.1035c-6.0296,1.0049-7.0345,10.0493-3.0148,10.0493
		c3.0148,0-4.0197,11.0542,0,15.0739c4.0197,4.0197,22.1084,7.0345,22.1084,7.0345s23.1133,38.1872,30.1478,50.2463
		c5.0246,8.0394,14.069,0,49.2414-21.1034C195.9606,136.67,205.0049,109.5369,221.0837,104.5123z"/>
	<path d="M470.3054,428.0985c-6.0295-6.0295-33.1626-9.0443-33.1626-9.0443s-30.1478-21.1035-40.1971-31.1527
		c-12.0591-12.0591-34.1675-17.0837-34.1675-17.0837s-9.0444-26.1281-19.0936-68.335
		c-4.0197-17.0838-9.0443-38.1872-10.0493-44.2168c-7.0345,22.1084-26.1281,31.1527-41.202,37.1823
		c7.0345,21.1035,35.1724,89.4384,49.2414,99.4877c3.0148,2.0099,14.069,5.0246,46.2266,21.1035
		c19.0936,10.0493,43.2118,19.0936,50.2463,43.2118c7.0345,24.1183-5.0246,30.1478-5.0246,36.1773
		c0,5.0246,10.0493,1.0049,19.0936,1.0049s14.069-23.1133,12.0591-34.1675C462.266,449.202,476.335,433.1231,470.3054,428.0985z"/>
	<path d="M322.5812,229.1231c-7.0345-15.0739-26.1281-27.133-32.1577-53.2611c-3.0148-15.0739-16.0788-36.1774-32.1576-52.2562
		c-10.0493-10.0493-18.0887-12.0591-30.1478-11.0542c-19.0936,2.0098-30.1478,30.1478-17.0838,53.2611
		c1.0049,19.0936,7.0345,35.1724,7.0345,35.1724s-20.0985,2.0099-29.1429,2.0099c-10.0493,0-17.0838-1.0049-17.0838-1.0049
		s-11.0542-12.0591-24.1182-6.0296c-13.064,7.0345-11.0542,9.0443-5.0246,16.0788c7.0345,8.0394,11.0542,14.069,14.069,13.064
		c5.0246-2.0099,14.069-8.0394,14.069-8.0394s18.0887,0,31.1527,2.0099c13.064,3.0148,34.1675,0,34.1675,0
		c2.0099-3.0148,2.0099-6.0296,2.0099-12.0591c2.0099,3.0148,5.0246,8.0394,6.0296,11.0542
		c3.0148,7.0345,16.0788,16.0788,20.0985,24.1182c-6.0295,8.0394-23.1133,33.1626-30.1478,47.2315
		c-19.0936,40.1971-16.0788,44.2168-24.1182,63.3103c-4.0197,9.0444,2.0099,17.0838,5.0246,36.1773
		c3.0148,19.0936,11.0542,67.33,6.0296,79.3892c-5.0246,12.0591-41.202,28.1379-48.2365,30.1478s-14.069,9.0443,1.0049,9.0443
		c15.0739,0,68.335,0,73.3596,0s1.0049-24.1182-1.0049-35.1724s8.0394-72.3547-4.0197-103.5074
		c-5.0246-13.064,42.2069-61.3005,49.2414-77.3793C302.4827,285.399,340.6699,266.3054,322.5812,229.1231z"/>
	<path d="M380.867,511.5074c0,0-326.601,0-352.729,0c-28.1379,0-35.1724-14.069-21.1034-14.069
		c9.0443,0,4.0197,7.0345,40.197,7.0345s323.5862,0,323.5862,0L380.867,511.5074z"/>
	<path d="M612,499.4483c0,0-341.6749,0-367.803,0c-28.1379,0-35.1724-14.069-21.1034-14.069c9.0443,0,4.0197,7.0345,40.1971,7.0345
		s338.6601,0,338.6601,0L612,499.4483z"/>
	<path d="M375.8423,182.8966c-25.1231-17.0838-39.1921-24.1182-48.2365-33.1626c-5.0246-6.0296-8.0394-4.0197-19.0936-7.0345
		c-4.0197-1.0049-8.0394-5.0246-13.064-12.0591c-4.0197-7.0345-14.069-16.0788-24.1182-26.1281
		c-13.064-13.064-37.1823-39.1921-48.2364-41.202L176.867,16.0788l-12.0591-13.064L163.8029,0l-4.0197,4.0197l2.0099,2.0099
		l-5.0246,5.0246l9.0443,10.0493l5.0246-5.0246l47.2315,48.2365c-4.0197,6.0296,78.3842,86.4237,78.3842,86.4237
		s6.0295,2.0098,13.064,2.0098c6.0295,0,35.1724,28.1379,56.2758,54.266C372.8275,200.9852,366.798,181.8916,375.8423,182.8966z"/>
	<path d="M225.1034,104.5123c0,0-23.1133,10.0493-49.2414-1.0049c24.1182,8.0394,48.2364-5.0246,48.2364-5.0246L225.1034,104.5123z"
		/>
</g>
<g>
</g>
<g>
</g>
<g>
</g>
<g>
</g>
<g>
</g>
<g>
</g>
<g>
</g>
<g>
</g>
<g>
</g>
<g>
</g>
<g>
</g>
<g>
</g>
<g>
</g>
<g>
</g>
<g>
</g>
</svg>
