<?xml version="1.0" encoding="utf-8"?>
<!-- Generator: Adobe Illustrator 17.0.0, SVG Export Plug-In . SVG Version: 6.00 Build 0)  -->
<!DOCTYPE svg PUBLIC "-//W3C//DTD SVG 1.1//EN" "http://www.w3.org/Graphics/SVG/1.1/DTD/svg11.dtd">
<svg version="1.1" id="Layer_1" xmlns="http://www.w3.org/2000/svg" xmlns:xlink="http://www.w3.org/1999/xlink" x="0px" y="0px"
	 width="612px" height="673.2875px" viewBox="0 0 612 673.2875" enable-background="new 0 0 612 673.2875" xml:space="preserve">
<g>
	<path d="M299.4335,147.0901c21.0129,2.6266,41.1502-12.2575,43.7768-33.2704c1.7511-10.5064-0.8755-21.0129-7.8799-28.8927
		c-6.1288-8.7554-15.7596-14.0086-25.3906-14.8841c-21.0129-2.6266-41.1502,12.2575-43.7768,33.2704
		C263.5365,124.3262,278.4206,143.588,299.4335,147.0901z"/>
	<path d="M208.3777,267.9142c18.3863-67.4163,24.515-113.8197,24.515-113.8197l-8.7554-3.5022
		C249.5279,60.412,261.7854,2.6266,261.7854,2.6266L251.279,0c0,0-1.7511,3.5021-3.5021,10.5064l-5.2532-1.7511
		c-8.7554-2.6266-15.7597-3.5021-15.7597-3.5021l-1.7511,5.2532c0,0,6.1288,2.6266,14.8841,6.1288l5.2532,1.7511
		c-8.7554,26.2661-26.2661,77.9227-46.4034,147.9657l-1.7511,6.1288c-7.0043,20.1373-16.6352,49.03-27.1416,84.0515l-11.382,39.3991
		l37.6481,11.382L208.3777,267.9142z"/>
	<path d="M602.3691,556.8412c-11.382,22.7639-52.5322,23.6394-52.5322,23.6394c-149.7167,0-305.5623,0.8755-422.0086,0.8755
		c55.1588-47.279,119.9485-123.4506,152.3433-181.2361c23.6395,1.7511,49.03,11.382,57.7854,23.6395
		c33.2704,44.6523-13.1331,129.5794-13.1331,129.5794h51.6567c0,0,61.2875-73.5451,26.2661-163.7253
		c-14.8841-37.6481-59.5365-60.412-95.4335-73.5451c5.2532-19.2618,8.7554-40.2747,11.382-61.2876
		c18.3862,1.7511,35.897,0.8755,57.7854-2.6266c31.5193-6.1288,53.4077-28.8927,67.4163-50.7811
		c33.2704,71.794,120.8241,257.4077,152.3434,323.073l12.2575-6.1288c-30.6437-69.1673-117.3219-260.9098-150.5923-333.5793
		l-2.6266-6.1288c7.8798-17.5107,10.5064-31.5193,10.5064-31.5193l-35.0215-18.3863
		c-13.1331,42.9013-36.7726,55.1588-63.9142,60.412c-49.03,8.7554-103.3133-23.6395-103.3133-23.6395l-5.2532,34.1459
		c-12.2575,70.0429-29.7682,133.0815-61.2876,198.7468C160.2232,472.7897,75.2961,579.6051,0,626.0085h62.1631
		c4.3777,0,25.3906-13.1331,47.279-28.0172c115.5708,5.2532,267.0386,9.6309,439.5193,6.1287
		c50.7811,0,63.0386-46.4034,63.0386-46.4034L602.3691,556.8412z"/>
	<path d="M371.2275,650.5236c-188.2403,0-210.1288,1.751-371.2275,0.8755v13.1331c162.8498,7.0043,169.8541,7.8798,371.2275,8.7554
		c50.7811,0,63.0386-46.4034,63.0386-46.4034h-9.6309C413.2532,649.648,371.2275,650.5236,371.2275,650.5236z"/>
</g>
<g>
</g>
<g>
</g>
<g>
</g>
<g>
</g>
<g>
</g>
<g>
</g>
<g>
</g>
<g>
</g>
<g>
</g>
<g>
</g>
<g>
</g>
<g>
</g>
<g>
</g>
<g>
</g>
<g>
</g>
</svg>
