<?xml version="1.0" encoding="utf-8"?>
<!-- Generator: Adobe Illustrator 17.0.0, SVG Export Plug-In . SVG Version: 6.00 Build 0)  -->
<!DOCTYPE svg PUBLIC "-//W3C//DTD SVG 1.1//EN" "http://www.w3.org/Graphics/SVG/1.1/DTD/svg11.dtd">
<svg version="1.1" id="Layer_1" xmlns="http://www.w3.org/2000/svg" xmlns:xlink="http://www.w3.org/1999/xlink" x="0px" y="0px"
	 width="612.3088px" height="456.0524px" viewBox="0 0 612.3088 456.0524" enable-background="new 0 0 612.3088 456.0524"
	 xml:space="preserve">
<g>
	<path d="M311.8927,64.0597c16.7518-4.4672,27.9197-21.219,24.5694-39.0876c-2.2336-7.8175-6.7007-15.635-14.5182-20.1022
		s-15.635-5.5839-24.5693-4.4672c-16.7518,4.4672-27.9197,21.219-23.4526,39.0876
		C277.2723,57.359,295.1409,67.4101,311.8927,64.0597z M612.3088,152.286v-20.1022H507.3307c-11.1679,0-22.3358,0-35.7372,0
		c-12.2846-10.0511-29.0365-20.1022-48.0219-30.1533c23.4525-6.7007,55.8394-12.2847,77.0584-1.1168
		c23.4525,11.1679,18.9854,22.3358,18.9854,22.3358h32.3869c0,0,8.9343-35.7372-35.7372-62.5401
		c-41.3212-24.5693-100.511-21.219-233.4088,25.6861c-84.8759,30.1533-147.416,24.5693-147.416,24.5693l-1.1168,22.3358
		c-46.9051,0-78.1752,1.1168-78.1752,1.1168v13.4015c0,0,204.3722,2.2336,338.3868,4.4671
		c10.0511,7.8175,18.9854,14.5182,24.5694,18.9854c-12.2847,10.0511-27.9197,25.6861-44.6715,45.7883
		c-75.9416,91.5766-106.0949,224.4745-103.8613,224.4745l40.2044,10.0511c0,0,42.438-123.9635,102.7445-184.2701
		c12.2847-12.2847,25.6861-24.5694,37.9708-34.6204c1.1168,89.3431-11.1679,222.2409-11.1679,222.2409l40.2043,1.1168
		c0,0,21.219-131.781,30.1533-224.4745c3.3504-33.5036-2.2336-58.073-18.9854-79.292c6.7007,0,12.2847,0,14.5182,0L612.3088,152.286
		z M301.8416,132.1838c13.4015-3.3504,29.0365-6.7007,43.5547-11.1679c6.7007,2.2336,13.4015,6.7007,20.1022,11.1679
		C345.3964,132.1838,324.1774,132.1838,301.8416,132.1838z M23.7614,104.2641c0,0-10.0511-1.1168-17.8686,7.8175
		c-8.9343,7.8175-6.7007,24.5693,0,30.1533c8.9343,11.1679,26.8029,11.1679,35.7372,0c6.7007-5.5839,7.8175-22.3358,0-30.1533
		C33.8125,103.1473,23.7614,105.3809,23.7614,104.2641z M32.6957,134.4174c-4.4672,5.5839-13.4015,5.5839-17.8686,0
		c-11.1679-8.9343,6.7007-25.6861,8.9343-22.3358C25.9949,108.7313,43.8636,125.4831,32.6957,134.4174z"/>
</g>
<g>
</g>
<g>
</g>
<g>
</g>
<g>
</g>
<g>
</g>
<g>
</g>
<g>
</g>
<g>
</g>
<g>
</g>
<g>
</g>
<g>
</g>
<g>
</g>
<g>
</g>
<g>
</g>
<g>
</g>
</svg>
