<?xml version="1.0" encoding="utf-8"?>
<!-- Generator: Adobe Illustrator 17.0.0, SVG Export Plug-In . SVG Version: 6.00 Build 0)  -->
<!DOCTYPE svg PUBLIC "-//W3C//DTD SVG 1.1//EN" "http://www.w3.org/Graphics/SVG/1.1/DTD/svg11.dtd">
<svg version="1.1" id="Layer_1" xmlns="http://www.w3.org/2000/svg" xmlns:xlink="http://www.w3.org/1999/xlink" x="0px" y="0px"
	 width="612.9562px" height="577.2143px" viewBox="0 0 612.9562 577.2143" enable-background="new 0 0 612.9562 577.2143"
	 xml:space="preserve">
<g>
	<path d="M190.2937,67.4268c7.65-7.65,11.475-18.1688,11.475-28.6875s-4.7812-21.0375-12.4312-27.7313
		c-16.2563-15.3-41.1187-14.3438-56.4187,0.9563c-16.2563,16.2563-15.3,41.1188,0.9562,56.4187
		C149.175,83.6831,174.9937,82.7268,190.2937,67.4268z"/>
	<path d="M278.2688,130.5393c7.65-7.65,11.475-18.1687,11.475-28.6875s-4.7812-21.0375-12.4312-27.7312
		c-16.2563-15.3-41.1188-14.3438-56.4188,0.9562c-15.3,16.2562-14.3438,41.1188,0.9563,56.4188
		C237.15,146.7956,262.9688,146.7956,278.2688,130.5393z"/>
	<path d="M366.2437,193.6518c7.65-7.65,11.475-18.1687,11.475-28.6875s-4.7812-21.0375-12.4312-27.7312
		c-16.2563-15.3-41.1187-14.3438-56.4188,0.9563c-15.3,16.2563-14.3438,41.1187,0.9562,56.4187
		C326.0812,209.9081,350.9438,209.9081,366.2437,193.6518z"/>
	<path d="M454.2188,256.7643c7.65-7.65,11.475-18.1687,11.475-28.6875s-4.7812-21.0375-12.4312-27.7312
		c-16.2563-15.3-41.1187-14.3438-56.4188,0.9563c-15.3,16.2563-14.3438,41.1188,0.9562,56.4187
		C414.0562,273.0206,438.9188,273.0206,454.2188,256.7643z"/>
	<path d="M518.2875,290.2331L518.2875,290.2331L518.2875,290.2331z"/>
	<path d="M559.4062,508.2581L559.4062,508.2581l14.3438,9.5625c69.8063-127.1812-55.4625-224.7187-55.4625-227.5875l-22.95,21.9937
		c-2.8687-1.9125,36.3375,43.0312,39.2062,103.275l-13.3875-9.5625C254.3625,215.6456,42.075,79.8581,42.075,79.8581L22.95,105.6768
		c0,0,196.9875,157.7812,462.825,349.0312L559.4062,508.2581z"/>
	<path d="M6.6937,131.4956L0,140.1018c0,0,61.2,50.6813,142.4812,115.7063l22.95,18.1687l10.5188-12.4312L153,243.3768
		C71.7188,179.3081,6.6937,131.4956,6.6937,131.4956z"/>
	<path d="M606.2625,560.8518c-17.2125,9.5625-44.9437-9.5625-44.9437-9.5625c-120.4875-87.975-238.1063-174.0375-340.425-249.5812
		l-5.7375,8.6063c100.4062,80.325,200.8125,161.6063,335.6437,256.275c32.5125,23.9062,62.1562,0,62.1562,0L606.2625,560.8518z"/>
</g>
<g>
</g>
<g>
</g>
<g>
</g>
<g>
</g>
<g>
</g>
<g>
</g>
<g>
</g>
<g>
</g>
<g>
</g>
<g>
</g>
<g>
</g>
<g>
</g>
<g>
</g>
<g>
</g>
<g>
</g>
</svg>
