<?xml version="1.0" encoding="utf-8"?>
<!-- Generator: Adobe Illustrator 17.0.0, SVG Export Plug-In . SVG Version: 6.00 Build 0)  -->
<!DOCTYPE svg PUBLIC "-//W3C//DTD SVG 1.1//EN" "http://www.w3.org/Graphics/SVG/1.1/DTD/svg11.dtd">
<svg version="1.1" id="Layer_1" xmlns="http://www.w3.org/2000/svg" xmlns:xlink="http://www.w3.org/1999/xlink" x="0px" y="0px"
	 width="612.5643px" height="496.6457px" viewBox="0 0 612.5643 496.6457" enable-background="new 0 0 612.5643 496.6457"
	 xml:space="preserve">
<g>
	<path d="M276.7967,402.6872c0,0-39.361,34.2822-55.8672,49.5187c-15.2365,16.5062-24.1245,44.4398-24.1245,44.4398
		l139.668-119.3527L276.7967,402.6872z"/>
	<path d="M82.5311,243.9735c0,0-48.249,25.3942-59.6763,33.0125C11.4274,284.6042,0,309.9984,0,309.9984l77.4523-36.8216
		L82.5311,243.9735z"/>
	<path d="M500.2656,218.5793c17.7759,0,35.5519,11.4274,52.058-5.0788c16.5062-16.5062,24.1245-24.1245,30.4731-30.473
		c6.3485-6.3485-11.4274-25.3942-11.4274-25.3942L500.2656,218.5793z"/>
	<path d="M156.1743,174.1395c-33.0124,13.9668-96.4979,43.1701-105.3859,62.2158c-10.1577,21.5851,30.473,78.722,30.473,78.722
		C68.5643,241.4341,124.4315,196.9943,156.1743,174.1395z"/>
	<path d="M529.4689,152.5545c13.9668-1.2697,41.9004-33.0125,41.9004-57.1369c0-11.4274-10.1577-25.3942-17.7759-33.0124
		c6.3486-15.2365,10.1577-29.2033-1.2697-44.4398C539.6265-1.0804,515.502-3.6198,500.2656,3.9984
		c-10.1577,5.0788-17.776,16.5062-19.0457,27.9336c3.8091,2.5394,27.9336,25.3942,10.1577,53.3278c0,0,8.888-30.473-19.0457-46.9792
		c-8.888-5.0788-22.8548-7.6183-38.0913-1.2697c-21.5851,5.0788-27.9336,26.6639-27.9336,41.9004
		c6.3485,3.8091,17.7759,11.4274,27.9336,17.7759C483.7593,133.5088,500.2656,155.0939,529.4689,152.5545z"/>
	<path d="M402.4979,81.4507c-6.3485-5.0788-25.3942-1.2697-13.9668-10.1577c15.2365-10.1577,1.2697-10.1577-15.2365-3.8091
		C182.8382,133.5088,45.7095,241.4341,100.3071,336.6623C110.4647,232.5461,243.7842,132.2391,402.4979,81.4507z"/>
	<path d="M601.8423,110.654c-6.3486,6.3485-25.3942,27.9336-44.4399,41.9004c-63.4854,50.7884-238.7054,151.0954-356.7884,191.7262
		c-3.8091,1.2697-8.888,2.5394-12.6971,3.8091c6.3485-6.3485,16.5062-17.7759,25.3942-21.5851
		c119.3527-46.9792,198.0747-91.4191,317.4274-162.5228c-33.0125-1.2697-60.9461-41.9004-114.2739-77.4523
		C181.5685,167.791,115.5436,317.6167,134.5892,356.9777c1.2697,2.5394,2.5394,5.0788,3.8091,6.3485
		c11.4274,12.6971,40.6307,19.0457,146.0166-19.0456c116.8133-41.9004,139.668-104.1162,154.9046-60.946
		c36.8216-33.0125,53.3278-46.9793,81.2614-71.1037c45.7095-38.0913,83.8008-91.4191,88.8797-96.4979
		C615.8091,110.654,612,101.7661,601.8423,110.654z"/>
	<path d="M416.4647,306.1893l-1.2697-1.2697c-11.4274-3.8091-27.9336,13.9668-119.3527,49.5187
		c-102.8465,40.6307-156.1743,21.5851-144.7469,33.0125s128.2407,48.249,146.0166,48.249c16.5062,0,39.361-13.9668,76.1826-59.6763
		C408.8465,331.5835,421.5435,312.5379,416.4647,306.1893z"/>
</g>
<g>
</g>
<g>
</g>
<g>
</g>
<g>
</g>
<g>
</g>
<g>
</g>
<g>
</g>
<g>
</g>
<g>
</g>
<g>
</g>
<g>
</g>
<g>
</g>
<g>
</g>
<g>
</g>
<g>
</g>
</svg>
