<?xml version="1.0" encoding="utf-8"?>
<!-- Generator: Adobe Illustrator 17.0.0, SVG Export Plug-In . SVG Version: 6.00 Build 0)  -->
<!DOCTYPE svg PUBLIC "-//W3C//DTD SVG 1.1//EN" "http://www.w3.org/Graphics/SVG/1.1/DTD/svg11.dtd">
<svg version="1.1" id="Layer_1" xmlns="http://www.w3.org/2000/svg" xmlns:xlink="http://www.w3.org/1999/xlink" x="0px" y="0px"
	 width="543.2933px" height="792.7479px" viewBox="0 0 543.2933 792.7479" enable-background="new 0 0 543.2933 792.7479"
	 xml:space="preserve">
<g>
	<path d="M463.0334,592.8549c-19.6864-96.9178-4.543-222.608-9.0861-307.4111c-3.0287-62.088-13.6291-149.9197-89.3461-202.9216
		l-48.4589,74.2027c-7.5717,12.1147-16.6577,24.2294-21.2008,28.7725c-4.543,6.0574-10.6004,9.086-16.6577,7.5717
		s-12.1147-6.0574-16.6577-10.6004c-16.6578-12.1147-30.2868-27.2581-43.9159-43.9159
		c-10.6004-13.6291-1.5144-31.8011-3.0287-48.4589c-6.0574-68.1453-93.8891-59.0593-98.4321,6.0574
		c-1.5143,16.6577,6.0574,28.7725,16.6578,39.3728c12.1147,10.6004,27.2581,21.2008,36.3442,33.3155
		c4.543,9.086,10.6004,18.1721,16.6577,28.7725c6.0574,9.086,12.1147,18.1721,21.2008,27.2581
		c-18.1721,3.0287-36.3442,3.0287-54.5163,0c-16.6577-1.5143-30.2868-7.5717-42.4015-12.1147
		c-10.6004-6.0574-10.6004-30.2868-16.6577-45.4302c-9.086-22.7151-33.3155-36.3442-56.0306-30.2868
		c-34.8298,7.5717-42.4015,34.8298-34.8298,65.1166c3.0287,15.1434,15.1434,24.2295,28.7725,30.2868
		c13.6291,7.5717,31.8011,12.1147,43.9159,21.2008l0,0c16.6577,10.6004,37.8585,21.2008,65.1166,28.7725
		c66.631,21.2007,149.9197-4.543,189.2925-31.8012c9.086-6.0574,18.1721-13.6291,27.2581-19.6864
		c4.543,18.1721,6.0573,39.3728,7.5717,62.088c1.5143,22.7151,1.5143,49.9732,1.5143,80.26
		c-15.1434,7.5717-53.0019,30.2868-56.0306,33.3155c-19.6864,13.6291-37.8585,30.2868-51.4875,48.4589
		c-25.7438,30.2868-45.4302,66.631-57.545,106.0038c-16.6577,53.0019-24.2294,109.0325-27.2581,165.063
		c-1.5143,15.1434-1.5143,28.7725,0,43.9159c0,1.5143,1.5144,22.7151,1.5144,22.7151h57.5449c0-9.086,6.0574-48.4589,6.0574-53.0019
		c1.5143-13.6291,4.543-27.2581,7.5717-39.3728c6.0573-25.7438,12.1147-51.4876,21.2007-77.2314
		c18.1721-57.5449,45.4302-102.9751,93.8891-139.3193c1.5143,0,4.543-3.0287,9.0861-6.0574
		c3.0287,46.9445,9.086,89.3461,21.2007,134.7763C422.1461,730.66,506.9492,792.7479,505.4348,792.7479l37.8585-42.4015
		C543.2934,745.8033,481.2054,691.287,463.0334,592.8549z M170.7657,146.1245c-10.6004-13.6291-39.3728-27.2581-37.8585-48.4589
		c0-7.5717,3.0287-13.6291,6.0574-19.6864c9.086-13.6291,37.8585-16.6577,49.9732-4.543
		c10.6004,12.1147,7.5717,33.3155,9.086,46.9446c0,4.543,0,9.086,0,9.086C196.5094,130.9811,170.7657,146.1245,170.7657,146.1245z
		 M69.3048,230.9276c-15.1434-10.6004-45.4302-15.1434-51.4876-34.8298c-1.5143-6.0573-1.5143-13.6291,0-19.6864
		c4.543-15.1434,30.2868-27.2581,45.4302-19.6864s16.6577,27.2581,22.7151,40.8872c3.0287,6.0574,4.543,9.086,4.543,9.086
		C88.9913,208.2125,69.3048,230.9276,69.3048,230.9276z M307.0563,85.5509c24.2295-3.0287,40.8872-25.7438,36.3442-48.4589
		c-3.0287-24.2294-25.7438-40.8872-49.9732-36.3442c-12.1147,1.5143-21.2007,7.5717-28.7725,16.6577
		c-7.5717,9.086-10.6004,21.2008-9.086,31.8011C261.6261,73.4362,282.8268,90.0939,307.0563,85.5509z"/>
</g>
<g>
</g>
<g>
</g>
<g>
</g>
<g>
</g>
<g>
</g>
<g>
</g>
<g>
</g>
<g>
</g>
<g>
</g>
<g>
</g>
<g>
</g>
<g>
</g>
<g>
</g>
<g>
</g>
<g>
</g>
</svg>
