<?xml version="1.0" encoding="utf-8"?>
<!-- Generator: Adobe Illustrator 17.0.0, SVG Export Plug-In . SVG Version: 6.00 Build 0)  -->
<!DOCTYPE svg PUBLIC "-//W3C//DTD SVG 1.1//EN" "http://www.w3.org/Graphics/SVG/1.1/DTD/svg11.dtd">
<svg version="1.1" id="Layer_1" xmlns="http://www.w3.org/2000/svg" xmlns:xlink="http://www.w3.org/1999/xlink" x="0px" y="0px"
	 width="612px" height="566.4px" viewBox="0 0 612 566.4" enable-background="new 0 0 612 566.4" xml:space="preserve">
<g>
	<path d="M0,552.1l7,9.4c-1.2,0,31.7-20,77.5-30.5c44.6-10.6,99.8-9.4,133.9-4.7c27,3.5,52.9,10.6,79.9,17.6l5.9-16.4
		c-27-8.2-54-15.3-82.2-17.6c-35.2-5.9-92.8-5.9-139.8,7C32.9,528.6,0,552.1,0,552.1z M303.1,528.6l-5.9,16.4
		c27,8.2,54,15.3,82.2,17.6c35.2,5.9,92.8,5.9,139.8-7c47-11.7,81.1-34.1,81.1-35.2l-7-9.4c1.2,0-31.7,20-77.5,30.5
		c-44.6,10.6-99.8,9.4-133.9,4.7C354.7,542.7,328.9,535.6,303.1,528.6z M215,153.9c-7-16.4-27-24.7-44.6-17.6s-24.7,28.2-17.6,44.6
		c3.5,8.2,10.6,14.1,18.8,17.6c8.2,3.5,17.6,3.5,25.8-1.2C215,191.5,223.2,171.5,215,153.9z M530.9,507.5
		c48.2-12.9,81.1-36.4,81.1-37.6l-10.6-14.1c0,0-12.9,8.2-35.2,16.4H518c-12.9-12.9-29.4-35.2-37.6-68.1
		c-10.6-31.7-14.1-68.1-31.7-108.1c-16.4-39.9-45.8-70.5-70.5-86.9c-25.8-17.6-51.7-31.7-78.7-42.3c1.2-18.8-1.2-37.6-7-56.4
		c-8.2-31.7-42.3-74-81.1-91.6c-9.4-4.7-20-8.2-30.5-11.7c-11.7-3.5-23.5-5.9-36.4-7c-2.3,0-69.3,284.3-89.3,374.7l-1.2,7
		c-10.6,1.2-20,9.4-23.5,21.1L8.2,499.2c0,0,0,0,1.2,0l0,0L20,513.3c-1.2,0,31.7-20,76.4-29.4c44.6-10.6,98.7-9.4,132.7-4.7
		c27,3.5,52.9,9.4,78.7,16.4c27,8.2,55.2,14.1,83.4,17.6C425.2,520.4,484,520.4,530.9,507.5z M224.4,220.8
		c-12.9,16.4-42.3,34.1-75.2,36.4c-17.6,2.3-34.1,1.2-44.6-1.2c17.6-79.9,36.4-165.6,47-213.8c10.6,3.5,24.7,9.4,38.8,18.8
		c27,16.4,47,47,51.7,68.1C253.7,159.8,246.7,197.3,224.4,220.8z M367.7,292.5c-8.2,1.2-17.6,3.5-25.8,4.7
		c-35.2,5.9-96.3,48.2-109.2,99.8c-7,22.3-9.4,42.3-10.6,57.6c-35.2-3.5-89.3-2.3-132.7,9.4c-5.9,1.2-11.7,3.5-17.6,5.9l11.7-51.7
		c3.5-11.7-1.2-22.3-9.4-28.2l2.3-8.2c5.9-24.7,12.9-55.2,20-88.1c12.9,3.5,31.7,8.2,55.2,8.2c41.1,3.5,92.8-18.8,113.9-45.8
		c5.9-7,10.6-14.1,15.3-21.1c21.1,9.4,41.1,20,58.7,31.7C350,272.5,359.4,281.9,367.7,292.5z M451.1,473.4H316l2.3,1.2
		c-1.2,0-3.5-1.2-4.7-1.2l0,0c-14.1-3.5-28.2-8.2-42.3-10.6c2.3-11.7,7-28.2,14.1-42.3c15.3-32.9,49.3-49.3,75.2-55.2
		c12.9-3.5,27-5.9,42.3-7c8.2,20,15.3,43.5,23.5,68.1C432.3,444,440.5,459.3,451.1,473.4z"/>
</g>
<g>
</g>
<g>
</g>
<g>
</g>
<g>
</g>
<g>
</g>
<g>
</g>
<g>
</g>
<g>
</g>
<g>
</g>
<g>
</g>
<g>
</g>
<g>
</g>
<g>
</g>
<g>
</g>
<g>
</g>
</svg>
