<?xml version="1.0" encoding="utf-8"?>
<!-- Generator: Adobe Illustrator 17.0.0, SVG Export Plug-In . SVG Version: 6.00 Build 0)  -->
<!DOCTYPE svg PUBLIC "-//W3C//DTD SVG 1.1//EN" "http://www.w3.org/Graphics/SVG/1.1/DTD/svg11.dtd">
<svg version="1.1" id="Layer_1" xmlns="http://www.w3.org/2000/svg" xmlns:xlink="http://www.w3.org/1999/xlink" x="0px" y="0px"
	 width="610.8px" height="614px" viewBox="0 0 610.8 614" enable-background="new 0 0 610.8 614" xml:space="preserve">
<g>
	<path d="M306.6,576.3l-5.9,16.6c27.3,8.3,54.7,15.4,83.2,17.8c35.7,4.8,93.9,5.9,141.4-7.1c47.5-11.9,82-34.5,82-35.7l-7.1-8.3
		c1.2,0-32.1,20.2-78.4,30.9c-45.2,10.7-101,9.5-135.5,4.8C358.9,590.5,332.7,583.4,306.6,576.3z M0,601.2l7.1,9.5
		c-1.2,0,32.1-20.2,78.4-30.9c45.2-10.7,101-9.5,135.5-4.8c27.3,3.6,53.5,9.5,80.8,17.8l4.8-16.6c-27.3-8.3-54.7-15.4-83.2-17.8
		c-35.7-4.8-93.9-5.9-141.4,7.1C33.3,577.4,0,600,0,601.2z M528.8,557.2c48.7-13.1,82-36.8,82-38L600.1,505c0,0-13.1,8.3-35.7,16.6
		h-80.8c-11.9-64.2-36.8-133.1-93.9-186.6c4.8-17.8,5.9-35.7,2.4-53.5c-2.4-33.3-33.3-78.4-67.7-99.8c-26.1-17.8-51.1-25-60.6-27.3
		c2.4-7.1,5.9-13.1,8.3-19c11.9,1.2,23.8-4.8,28.5-15.4l34.5-80.8c5.9-14.3,0-30.9-14.3-36.8c-14.3-5.9-29.7,0-36.8,14.3l-34.5,80.8
		c-4.8,10.7-1.2,23.8,7.1,32.1c-32.1,71.3-70.1,158.1-93.9,211.5l-32.1,82c-11.9-1.2-23.8,4.8-28.5,16.6l-38,80.8
		c-38,13.1-63,30.9-63,32.1l10.7,13.1c-1.2,0,32.1-20.2,77.2-29.7c45.2-10.7,99.8-9.5,134.3-4.8c27.3,3.6,53.5,9.5,79.6,16.6l8.3-25
		c-27.3-8.3-55.9-14.3-84.4-17.8c-23.8-3.6-59.4-4.8-93.9,0l20.2-44c4.8-10.7,2.4-21.4-4.8-29.7l9.5-21.4
		c9.5,5.9,30.9,16.6,58.2,22.6c38,10.7,91.5,3.6,118.8-15.4c8.3-4.8,15.4-10.7,22.6-17.8c28.5,30.9,47.5,71.3,58.2,124.8H312.5
		l9.5,2.4c-3.6-1.2-7.1-2.4-10.7-3.6l-8.3,25c27.3,8.3,55.9,14.3,84.4,17.8C421.9,571.5,481.3,571.5,528.8,557.2z M307.8,368.3
		c-25,19-54.7,20.2-84.4,17.8c-3.6,0-38-4.8-52.3-8.3l11.9-28.5c17.8-40.4,44-102.2,67.7-160.4c5.9,3.6,27.3,13.1,47.5,30.9
		c23.8,20.2,39.2,51.1,40.4,71.3C344.6,320.8,331.5,350.5,307.8,368.3z M304.2,312.4c-1.2-9.5-4.8-17.8-11.9-23.8
		c-7.1-5.9-15.4-8.3-25-8.3c-19,1.2-33.3,17.8-30.9,36.8c1.2,19,17.8,33.3,36.8,30.9C292.3,348.1,306.6,331.5,304.2,312.4z"/>
</g>
<g>
</g>
<g>
</g>
<g>
</g>
<g>
</g>
<g>
</g>
<g>
</g>
<g>
</g>
<g>
</g>
<g>
</g>
<g>
</g>
<g>
</g>
<g>
</g>
<g>
</g>
<g>
</g>
<g>
</g>
</svg>
