<?xml version="1.0" encoding="utf-8"?>
<!-- Generator: Adobe Illustrator 17.0.0, SVG Export Plug-In . SVG Version: 6.00 Build 0)  -->
<!DOCTYPE svg PUBLIC "-//W3C//DTD SVG 1.1//EN" "http://www.w3.org/Graphics/SVG/1.1/DTD/svg11.dtd">
<svg version="1.1" id="Layer_1" xmlns="http://www.w3.org/2000/svg" xmlns:xlink="http://www.w3.org/1999/xlink" x="0px" y="0px"
	 width="611.6177px" height="521.4854px" viewBox="0 0 611.6177 521.4854" enable-background="new 0 0 611.6177 521.4854"
	 xml:space="preserve">
<g>
	<path d="M453.6295,64.8085c6.6377-7.9653,10.6204-17.2581,9.2928-27.8785c0-10.6204-5.3102-19.9132-13.2755-26.551
		c-15.9306-13.2755-39.8265-11.9479-54.4295,3.9826c-13.2755,15.9306-11.9479,39.8265,3.9826,54.4295
		C415.1305,82.0667,440.354,80.7391,453.6295,64.8085z M598.3323,205.5287c-30.5336-58.4122-88.9458-115.4968-115.4968-140.7202
		c-11.948,22.5683-61.0673,122.1345-84.9631,106.2039c-14.6031-9.2928,21.2408-71.6876,21.2408-71.6876l-25.2234-14.603
		c0,0-27.8785,33.1887-35.8438,63.7223c-11.9479,43.8091,2.6551,69.0325,33.1887,76.9978
		c25.2234,5.3102,57.0846-18.5857,69.0325-30.5336c9.2928-9.2928,21.2408-25.2234,21.2408-25.2234s34.5163,33.1887,50.4469,69.0325
		c3.9826,7.9653,2.6551,19.9132-5.3102,26.551c-30.5336,30.5336-76.9978,22.5683-116.8243,63.7224
		c-84.9631,84.9631,49.1193,192.4946,49.1193,192.4946l45.1367-29.2061c0,0-114.1692-103.5488-29.2061-130.0998
		c80.9804-26.551,116.8243-31.8611,131.4273-71.6876C618.2455,255.9756,607.6251,222.7868,598.3323,205.5287z M83.2433,262.6133
		c-6.6377-6.6377-7.9653-18.5857-5.3102-26.551c15.9306-35.8438,49.1193-66.3774,49.1193-66.3774s23.8959,26.551,84.9631,47.7918
		c38.4989,13.2755,99.5661,15.9306,99.5661,15.9306l5.3102-30.5336c0,0-71.6876-9.2928-130.0998-55.757
		c-27.8785-21.2408-47.7917-57.0846-58.4122-82.308c-26.551,25.2234-84.9631,82.308-115.4967,140.7202
		C3.5904,222.7869-7.03,257.3032,6.2455,290.4919c14.603,41.154,50.4469,46.4642,131.4273,71.6876
		c84.9631,27.8785-29.2061,130.0998-29.2061,130.0998l45.1367,27.8785c0,0,134.0824-107.5315,49.1193-192.4946
		C160.2411,286.5092,113.7769,294.4745,83.2433,262.6133z M212.0155,67.4636c15.9306-13.2755,17.2581-38.4989,3.9826-54.4295
		C202.7227-2.8965,177.4993-4.224,161.5687,9.0515c-7.9653,6.6377-11.9479,15.9306-13.2755,26.551
		c-1.3276,10.6204,2.6551,19.9132,9.2928,27.8785C170.8615,80.7391,196.085,82.0667,212.0155,67.4636z M460.2672,242.7001
		c0,0-78.3254-3.9826-112.8416-3.9826h-82.308c-34.5163,0-112.8416,2.6551-112.8416,3.9826v11.9479
		c0,0,78.3254,3.9826,112.8416,3.9826h82.308c34.5163,0,112.8416-2.6551,112.8416-3.9826V242.7001z"/>
</g>
<g>
</g>
<g>
</g>
<g>
</g>
<g>
</g>
<g>
</g>
<g>
</g>
<g>
</g>
<g>
</g>
<g>
</g>
<g>
</g>
<g>
</g>
<g>
</g>
<g>
</g>
<g>
</g>
<g>
</g>
</svg>
