<?xml version="1.0" encoding="utf-8"?>
<!-- Generator: Adobe Illustrator 17.0.0, SVG Export Plug-In . SVG Version: 6.00 Build 0)  -->
<!DOCTYPE svg PUBLIC "-//W3C//DTD SVG 1.1//EN" "http://www.w3.org/Graphics/SVG/1.1/DTD/svg11.dtd">
<svg version="1.1" id="Layer_1" xmlns="http://www.w3.org/2000/svg" xmlns:xlink="http://www.w3.org/1999/xlink" x="0px" y="0px"
	 width="612px" height="544.4698px" viewBox="0 0 612 544.4698" enable-background="new 0 0 612 544.4698" xml:space="preserve">
<g>
	<path d="M282.2528,74.9531c20.3548-2.714,33.9246-21.7118,31.2106-42.0665S291.7517-2.395,271.3969,0.3189
		c-9.4989,1.357-18.9978,6.7849-24.4257,14.9268s-8.1419,17.6408-6.7849,27.1397C242.9002,62.7402,261.898,77.6671,282.2528,74.9531
		z M17.6408,392.4875c-5.4279,1.357-10.8559,4.071-13.5698,9.4989C0,407.4143,0,414.1992,0,419.6272
		c1.357,12.2128,12.2129,21.7117,23.0687,23.0687c16.2838,1.357,29.8537-13.5698,28.4967-29.8537
		C50.2084,397.9154,32.5676,388.4165,17.6408,392.4875z M23.0687,429.1261c-16.2838-1.357-20.3548-31.2106,2.714-27.1397
		c6.7849,1.357,10.8559,6.7849,10.8559,12.2129C37.9956,422.3411,33.9246,430.483,23.0687,429.1261z M141.1264,297.4985h-9.4989
		V156.3722h-17.6408v141.1264h-9.4989c-4.071,0-6.7849,2.714-6.7849,6.7849v221.1884c0,4.0709,2.714,6.7849,6.7849,6.7849h35.2816
		c4.071,0,6.7849-2.714,6.7849-6.7849V302.9265C147.9113,300.2125,143.8404,297.4985,141.1264,297.4985z M521.0821,454.9088
		c-42.0665-25.7827-85.49-77.3481-94.9889-187.2639c-9.4989-97.7029-46.1375-189.9778-78.7051-222.5454
		c-17.6408,33.9246-44.7805,63.7783-97.7029,100.4168c-31.2106,21.7118-66.4922,35.2816-105.8448,39.3526v35.2816
		c0,0,39.3526,1.357,84.133-12.2129c43.4235-12.2129,73.2772-28.4967,93.6319-48.8515
		c14.9268,23.0687,25.7827,96.3459,24.4257,113.9867c-28.4967,9.4989-104.4878,33.9246-143.8404,92.275
		c-50.2084,75.9911,0,179.122,0,179.122l44.7805-13.5699c0,0-32.5676-82.776,6.7849-126.1995
		c35.2816-37.9956,89.561-50.2084,109.9158-50.2084c8.1419,39.3525,51.5654,107.2018,96.3459,132.9845
		c17.6408,10.8559,39.3526,17.6408,59.7073,23.0688v32.5676h17.6408V300.2125H519.725v154.6962H521.0821z M557.7206,541.7558
		h17.6407V300.2125h-17.6407V541.7558z M594.3592,300.2125v241.5433H612V300.2125H594.3592z"/>
</g>
<g>
</g>
<g>
</g>
<g>
</g>
<g>
</g>
<g>
</g>
<g>
</g>
<g>
</g>
<g>
</g>
<g>
</g>
<g>
</g>
<g>
</g>
<g>
</g>
<g>
</g>
<g>
</g>
<g>
</g>
</svg>
