<?xml version="1.0" encoding="utf-8"?>
<!-- Generator: Adobe Illustrator 17.0.0, SVG Export Plug-In . SVG Version: 6.00 Build 0)  -->
<!DOCTYPE svg PUBLIC "-//W3C//DTD SVG 1.1//EN" "http://www.w3.org/Graphics/SVG/1.1/DTD/svg11.dtd">
<svg version="1.1" id="Layer_1" xmlns="http://www.w3.org/2000/svg" xmlns:xlink="http://www.w3.org/1999/xlink" x="0px" y="0px"
	 width="611.9957px" height="501.406px" viewBox="0 0 611.9957 501.406" enable-background="new 0 0 611.9957 501.406"
	 xml:space="preserve">
<g>
	<path d="M404.4478,327.9173c-22.3513-11.7078-40.4452-40.4452-69.1826-36.1878c-12.7722-17.0296-25.5443-38.3165-34.0591-53.2174
		c-7.4504,15.9652-15.9652,28.7374-24.48,43.6383c10.6435,12.7722,30.8661,35.1235,39.3809,38.3165
		c13.8365,4.2574,45.7669,15.9652,56.4104,21.2869c13.8365,6.3861,28.7374,14.9009,28.7374,28.7374c0,31.9305-10.6435,48.96,0,48.96
		c10.6435,0,30.8661-18.0939,30.8661-34.0591c0-17.0295,15.9652-18.0939,15.9652-31.9304
		C448.0861,338.5608,426.7991,339.6252,404.4478,327.9173z"/>
	<path d="M178.8061,2.2269c-13.8365,6.3861-19.1582,19.1583-19.1582,34.0591c10.6435-5.3217,32.9948-5.3217,42.5739,1.0643
		c-10.6435-3.193-31.9304-3.193-41.5096,3.193c0,3.193,1.0644,6.3861,2.1287,8.5148c5.3217,18.0939,17.0296,30.8661,25.5444,30.8661
		c8.5148,0,20.2226-19.1583,23.4157-30.8661C223.5087,9.6773,200.093-6.2879,178.8061,2.2269z"/>
	<path d="M429.9922,103.3399c-6.3861,6.3861-26.6087-3.193-37.2522,2.1287c-10.6435-6.3861-44.7026-24.48-57.4748-25.5443
		c-13.8365-1.0643-58.5391-10.6435-70.2469-14.9009c-22.3513-7.4504-32.9948-8.5148-51.0887-4.2574
		c-3.193,10.6435-15.9652,24.48-24.48,23.4157c-9.5791-1.0643-13.8365-8.5148-17.0296-20.2226
		c-5.3217,1.0643-14.9009,2.1287-22.3513,13.8365c-6.3861,9.5791-19.1583,4.2574-38.3165,21.287
		c-26.6087-12.7722-48.96-9.5791-55.3461-31.9304c-4.2574-13.8365-29.8017-9.5791-27.673,3.193
		c4.2574,21.287,7.4504,25.5443,20.2226,29.8017c27.673,6.3861,29.8017,17.0296,55.3461,29.8018
		c17.0296-6.3861,41.5096-6.3861,62.7965-14.9009c3.193,24.48,35.1235,59.6035,44.7026,75.5687
		c9.5791,15.9652,17.0296,35.1235,17.0296,35.1235s6.3861-17.0296,19.1582-29.8017
		c-10.6435,26.6087-34.0591,79.8261-39.3809,107.4991c-5.3217,28.7374-3.193,27.673,2.1287,59.6035
		c6.3861,31.9305,9.5791,76.6331,3.193,85.1478c-7.4504,11.7078-21.287,26.6087-34.0591,26.6087
		c-9.5791,0-24.48,18.0939-1.0644,18.0939c29.8017,0,48.96,0,67.0539,0s6.3861-29.8017,2.1287-43.6382
		s2.1287-61.7322,2.1287-80.8904c0-26.6087-8.5148-40.4452-8.5148-40.4452s52.153-80.8904,61.7322-109.6278
		c9.5791-28.7374-20.2226-43.6383-23.4156-54.2818c-10.6435-30.8661-5.3217-54.2817-5.3217-54.2817s-7.4504,0-18.0939-4.2574
		c36.1878,2.1287,57.4748-1.0644,75.5687-1.0644c15.9652,9.5791,52.153,17.0296,62.7965,22.3513
		c19.1583,8.5148,34.0591,6.3861,43.6382-8.5148C447.0217,103.3399,436.3783,96.9538,429.9922,103.3399z"/>
	<path d="M73.4357,490.7625h335.2696l17.0295,10.6435c0,0-300.1461,0-354.4278,0s-76.633-14.9009-70.247-22.3513
		C10.6391,465.2182,28.733,490.7625,73.4357,490.7625z"/>
	<path d="M282.0478,467.3469l308.6609-134.1078h21.287c0,0-273.5374,118.1426-328.8835,142.6226
		c-55.3461,24.48-81.9548,23.4157-78.7617,15.9652C210.7365,477.9904,237.3452,487.5695,282.0478,467.3469z"/>
	<path d="M37.2478,44.8008c-2.1287,0-3.193,2.1287-2.1287,4.2574l107.4991,445.9617c2.1287,0,4.2574,0,7.4504,0L41.5052,46.9295
		C40.4409,45.8651,39.3765,44.8008,37.2478,44.8008z"/>
	<path d="M602.4165,295.9869c-1.0643-1.0644-5.3217,2.1287-10.6435,6.3861L398.0618,119.3051c-1.0643-1.0644-2.1287,0-3.1931,1.0644
		s-2.1287,3.193-1.0643,3.193l193.7113,183.0678c-4.2574,5.3217-6.386,9.5791-5.3217,10.6435
		c1.0643,1.0643,5.3217-2.1287,10.6435-6.3861l1.0643,1.0644c1.0643,1.0643,2.1287,0,3.193-1.0644s2.1287-3.193,1.0643-3.193
		l-2.1287-1.0644C600.2878,301.3086,603.4809,297.0512,602.4165,295.9869z"/>
</g>
<g>
</g>
<g>
</g>
<g>
</g>
<g>
</g>
<g>
</g>
<g>
</g>
<g>
</g>
<g>
</g>
<g>
</g>
<g>
</g>
<g>
</g>
<g>
</g>
<g>
</g>
<g>
</g>
<g>
</g>
</svg>
