<?xml version="1.0" encoding="utf-8"?>
<!-- Generator: Adobe Illustrator 17.0.0, SVG Export Plug-In . SVG Version: 6.00 Build 0)  -->
<!DOCTYPE svg PUBLIC "-//W3C//DTD SVG 1.1//EN" "http://www.w3.org/Graphics/SVG/1.1/DTD/svg11.dtd">
<svg version="1.1" id="Layer_1" xmlns="http://www.w3.org/2000/svg" xmlns:xlink="http://www.w3.org/1999/xlink" x="0px" y="0px"
	 width="612px" height="599.0275px" viewBox="0 0 612 599.0275" enable-background="new 0 0 612 599.0275" xml:space="preserve">
<g>
	<path d="M354.8379,132.015c18.3142,2.2893,35.1022-9.9202,38.1546-28.2344c1.5262-9.1571-0.7631-17.5511-6.1047-25.1821
		c-5.3416-6.8678-12.9726-11.4464-22.1297-12.9726c-18.3142-2.2893-35.1022,9.9202-38.1546,28.9975
		C323.5511,112.1746,336.5237,128.9626,354.8379,132.015z"/>
	<path d="M603.606,499.8254c-9.9202,19.8404-45.7855,20.6035-45.7855,20.6035c-130.4888,0-261.7406,0.7631-361.7057,0.7631
		c46.5486-38.9177,98.4389-93.0973,128.1995-148.0399c20.6035,0.7631,44.2594,9.1571,52.6534,20.6035
		c27.4713,38.1546-11.4464,109.8853-11.4464,109.8853h44.2593c0,0,51.8903-62.5736,22.1297-138.8828
		c-12.2095-32.813-51.8903-51.8903-82.414-62.5736c12.9726-44.2594,20.6035-92.3342,22.1297-138.1197
		c-17.5511-9.1571-36.6284-15.2618-58.7581-19.0773c-67.9152-11.4464-129.7257,45.7855-161.7756,83.9402
		c-0.7631-1.5262-2.2893-3.8155-3.0524-5.3417C70.2045,96.1496,7.6309,0,7.6309,0L0,4.5786c0,0,57.2319,99.9651,134.3042,227.4015
		c2.2893,3.0524,4.5786,6.8678,6.1047,10.6833c-2.2893,3.0524-3.8155,5.3416-5.3417,7.6309l18.3142,30.5237
		c1.5262-0.7631,28.9975-26.7082,31.2868-28.2344c20.6035-16.0249,41.9701-32.0499,66.389-42.7332
		c16.0249-6.8678,37.3915-10.6833,55.7057-3.0524c-10.6833,53.4165-22.1297,103.0175-49.601,152.6185
		c-35.8653,66.389-90.808,135.8304-169.4065,198.404h57.995c6.8678-3.8154,19.8404-10.6833,34.3392-22.1297
		c99.202,4.5786,226.6384,8.394,376.9676,4.5786c44.2593,0,54.9426-40.4439,54.9426-40.4439L603.606,499.8254z"/>
	<path d="M411.3068,579.1871c-164.0648,0-183.1422,1.5261-323.5511,0.7631v11.4464c141.9352,6.1047,148.0399,6.8678,323.5511,7.6309
		c44.2593,0,54.9426-40.444,54.9426-40.444h-8.394C447.1721,578.424,411.3068,579.1871,411.3068,579.1871z"/>
</g>
<g>
</g>
<g>
</g>
<g>
</g>
<g>
</g>
<g>
</g>
<g>
</g>
<g>
</g>
<g>
</g>
<g>
</g>
<g>
</g>
<g>
</g>
<g>
</g>
<g>
</g>
<g>
</g>
<g>
</g>
</svg>
