<?xml version="1.0" encoding="utf-8"?>
<!-- Generator: Adobe Illustrator 17.0.0, SVG Export Plug-In . SVG Version: 6.00 Build 0)  -->
<!DOCTYPE svg PUBLIC "-//W3C//DTD SVG 1.1//EN" "http://www.w3.org/Graphics/SVG/1.1/DTD/svg11.dtd">
<svg version="1.1" id="Layer_1" xmlns="http://www.w3.org/2000/svg" xmlns:xlink="http://www.w3.org/1999/xlink" x="0px" y="0px"
	 width="612.1339px" height="364.22px" viewBox="0 0 612.1339 364.22" enable-background="new 0 0 612.1339 364.22"
	 xml:space="preserve">
<g>
	<path d="M145.7143,332.6379c-37.4694-7.2857-39.551,6.2449-35.3877,16.653c4.1633,9.3674,24.9796,16.653,53.0816,14.5714
		c29.1428-2.0816,51-16.653,48.9184-26.0204c-2.0816-9.3673-12.4898-9.3673-36.4286-5.2041l17.6939-36.4286
		C176.9388,319.1073,157.1633,334.7195,145.7143,332.6379z"/>
	<path d="M55.1633,201.495c-2.0816-3.1224-4.1633-6.2449-1.0408-6.2449c5.2041,0,32.2653-6.2449,29.1429-9.3673
		c-3.1225-3.1224-26.0204,1.0408-37.4694,3.1225c-6.2449,1.0408-8.3265,8.3265-9.3673,13.5306
		C15.6122,204.6175,0,216.0664,0,231.6787c0,18.7347,20.8163,28.1021,45.7959,28.1021s45.7959-9.3673,45.7959-28.1021
		C91.5918,215.0257,75.9796,203.5767,55.1633,201.495z"/>
	<path d="M242.5102,145.291c-7.2857-3.1225-34.3469-2.0816-43.7143,0c-9.3673,3.1225-14.5714,24.9796-2.0816,36.4286
		c4.1633,4.1633,27.0612,26.0204,33.3061,32.2653l8.3265-44.7551C239.3878,169.2297,248.7551,154.6583,242.5102,145.291z"/>
	<path d="M239.3878,263.944c30.1837,2.0816,56.2041-5.2041,56.2041-12.4898c-1.0408-19.7755-14.5714-40.5918-33.3061-58.2857
		C259.1633,219.1889,249.7959,243.1277,239.3878,263.944z"/>
	<path d="M552.6735,142.1685c-12.4898,0-20.8163,17.6939-20.8163,17.6939s-6.2449,8.3265-38.5102,13.5306
		c-26.0204,3.1225-44.7551,13.5306-44.7551,13.5306s-62.449-38.5102-73.8979-52.0408c7.2857,29.1429,3.1224,56.2041-8.3265,67.653
		c15.6122,9.3674,51,21.8571,71.8163,23.9388c24.9796,2.0816,31.2245-8.3265,62.449-20.8163s43.7143-16.6531,43.7143-16.6531
		s35.3878-5.2041,54.1224,14.5714c6.2449,6.2449,18.7347-4.1633,11.449-20.8163
		C602.6326,168.1889,578.6938,142.1685,552.6735,142.1685z"/>
	<path d="M369.4898,164.0257c12.4898-42.6735-41.6326-80.1429-68.6939-97.8367l26.0204-56.2041c0,0,2.0816-4.1633-2.0816-6.2449
		c-3.1224-1.0408-6.2449,2.0816-6.2449,2.0816l-26.0204,56.2041c-2.0816-1.0408-4.1633-2.0816-6.2449-4.1633
		c-34.3469-20.8163-65.5714-13.5306-84.3061-12.4898c-12.4898-5.2041-7.2857-31.2245-19.7755-40.5918
		c-11.449-9.3673-41.6326-5.2041-46.8367,14.5714c-9.3673,35.3878,22.8979,65.5714,27.0612,65.5714
		c7.2857,0,10.4082-1.0408,20.8163-20.8163c-2.0816,18.7347-9.3673,28.102-22.8979,30.1837
		c-11.449,14.5714-17.6939,29.1429-21.8571,31.2245c-35.3877,18.7347-53.0816,32.2653-65.5714,43.7143
		c-5.2041,5.2041-17.6939,23.9388-14.5714,27.0612c3.1225,3.1224,19.7755,2.0816,26.0204-3.1225
		c12.4898-10.4082,16.6531-17.6939,21.8571-26.0204c15.6122-4.1633,41.6327-8.3265,46.8367-12.4898
		c8.3265-7.2857,35.3878-28.102,44.7551-35.3878c0-1.0408-1.0408-1.0408-1.0408-2.0816
		c-7.2857-14.5714-4.1633-30.1837-4.1633-30.1837l59.3265,18.7347c0,0,12.4898,41.6327,11.449,84.3061
		c20.8163,8.3265,40.5918,12.4898,56.2041,10.4082C345.551,196.291,362.2041,191.0869,369.4898,164.0257z"/>
	<path d="M252.9184,102.6175l-62.449-19.7755c0,0,3.1224,18.7347,11.449,32.2653c5.2041,8.3265,12.4898,11.449,21.8571,28.102
		c6.2449,11.449,4.1633,20.8163,4.1633,20.8163s-3.1224,18.7347-5.2041,39.551c-3.1224,28.1021-10.4082,37.4694-10.4082,37.4694
		s-15.6122,12.4898-21.8571,24.9796c-2.0816,3.1224-4.1633,11.449,0,21.8571c4.1633-12.4898,7.2857-5.2041,7.2857-2.0816
		c2.0816,7.2857,1.0408,15.6122,4.1633,16.653c10.4082,3.1224,19.7755-19.7755,29.1428-40.5918
		c12.4898-28.1021,24.9796-56.2041,26.0204-85.3469C258.1224,144.2501,252.9184,102.6175,252.9184,102.6175z"/>
</g>
<g>
</g>
<g>
</g>
<g>
</g>
<g>
</g>
<g>
</g>
<g>
</g>
<g>
</g>
<g>
</g>
<g>
</g>
<g>
</g>
<g>
</g>
<g>
</g>
<g>
</g>
<g>
</g>
<g>
</g>
</svg>
