<?xml version="1.0" encoding="utf-8"?>
<!-- Generator: Adobe Illustrator 17.0.0, SVG Export Plug-In . SVG Version: 6.00 Build 0)  -->
<!DOCTYPE svg PUBLIC "-//W3C//DTD SVG 1.1//EN" "http://www.w3.org/Graphics/SVG/1.1/DTD/svg11.dtd">
<svg version="1.1" id="Layer_1" xmlns="http://www.w3.org/2000/svg" xmlns:xlink="http://www.w3.org/1999/xlink" x="0px" y="0px"
	 width="612.2574px" height="485.9471px" viewBox="0 0 612.2574 485.9471" enable-background="new 0 0 612.2574 485.9471"
	 xml:space="preserve">
<g>
	<path d="M314.9601,86.5601c-13.0213-24.4149-26.0425-55.3404-26.0425-55.3404
		c-77.3138,35.8085-111.4947,126.1436-111.4947,214.8511s-8.9521,124.516-78.1277,156.2553
		c-38.25,18.7181-100.1011,17.9043-99.2872,18.7181l0.8138,43.9468c6.5106-0.8138,95.2181,4.883,147.3032-14.6489
		c90.3351-34.1808,93.5904-114.75,97.6596-136.7234c19.5319-3.2553,69.1755,6.5106,94.4043,41.5053
		c30.9255,43.9468,30.1117,119.633,30.1117,119.633l47.2021,1.6277c0,0,13.8351-115.5638-29.2979-168.4628
		c-43.133-53.7128-98.4734-68.3617-139.1649-74.8723c0-45.5745,11.3936-76.5,30.9256-98.4734
		c4.883,8.1383,17.9043,34.1808,54.5266,56.9681c54.5266,33.367,88.7075,43.9468,88.7075,43.9468l25.2287-30.9255
		c0,0-36.6223-13.8351-74.0585-43.133C354.8377,144.342,327.9814,111.7888,314.9601,86.5601z"/>
	<path d="M358.0931,67.842c18.7181,2.4415,35.8085-10.5798,39.0638-29.2979c1.6277-8.9521-0.8138-17.9043-6.5106-25.2287
		c-5.6968-7.3245-13.8351-12.2074-22.7872-13.0213c-18.7181-2.4415-35.8085,10.5798-39.0638,29.2979
		C326.3537,47.4963,339.375,65.4005,358.0931,67.842z"/>
	<path d="M594.9175,403.1399c-3.2554-8.1383-8.1383-18.7181-14.649-30.9255l-4.0692-8.9521h-9.7659
		c-35.8085,0.8138-62.6649,3.2553-62.6649,3.2553v11.3936c0,0,26.8564,2.4415,61.8511,2.4415
		c2.4415,4.883,5.6968,9.766,8.1382,14.6489c-2.4415,0-4.0691,0-6.5106-0.8138h-21.1596l0,0h-21.1595
		c-61.0372,0.8138-55.3404,74.8723-21.1595,86.266c20.3458,7.3245,56.1542,7.3245,84.6383,0
		C613.6356,473.9431,623.4016,423.4856,594.9175,403.1399z M580.2686,465.8047c-14.6489,6.5107-33.367,4.883-34.9947,4.883
		c-0.8138-0.8138-20.3458,1.6277-34.9947-4.883c-18.7181-7.3245-19.5319-48.8298,13.8351-48.8298h21.1595l0,0h21.1595
		C599.8005,416.975,598.9867,458.4803,580.2686,465.8047z"/>
</g>
<g>
</g>
<g>
</g>
<g>
</g>
<g>
</g>
<g>
</g>
<g>
</g>
<g>
</g>
<g>
</g>
<g>
</g>
<g>
</g>
<g>
</g>
<g>
</g>
<g>
</g>
<g>
</g>
<g>
</g>
</svg>
