<?xml version="1.0" encoding="utf-8"?>
<!-- Generator: Adobe Illustrator 17.0.0, SVG Export Plug-In . SVG Version: 6.00 Build 0)  -->
<!DOCTYPE svg PUBLIC "-//W3C//DTD SVG 1.1//EN" "http://www.w3.org/Graphics/SVG/1.1/DTD/svg11.dtd">
<svg version="1.1" id="Layer_1" xmlns="http://www.w3.org/2000/svg" xmlns:xlink="http://www.w3.org/1999/xlink" x="0px" y="0px"
	 width="612px" height="544.9462px" viewBox="0 0 612 544.9462" enable-background="new 0 0 612 544.9462" xml:space="preserve">
<g>
	<path d="M324.4337,87.7896c23.5952-5.8988,38.3422-29.494,33.9181-53.0892c-5.8988-23.5952-29.494-38.3422-53.0892-33.9181
		c-23.5952,5.8988-38.3422,29.494-33.9181,54.5639C277.2434,78.9414,300.8386,93.6884,324.4337,87.7896z M314.1108,270.6522
		l-72.2602-38.3422l38.3422-61.9373l100.2795,98.8048c5.8988,5.8988,11.7976,8.8482,19.1711,8.8482
		c14.747,0,26.5446-11.7976,26.5446-26.5446c0-7.3735-2.9494-13.2723-7.3735-17.6964l0,0L283.1421,101.0619
		c0,0-14.747-16.2217-35.3928-10.3229c0,0-17.6964,1.4747-26.5446,19.1711c-1.4747,1.4747-69.3109,113.5518-69.3109,115.0265
		c-8.8482,16.2217-2.9494,38.3422,14.747,47.1904l113.5518,60.4627v109.1277c0,14.747,11.7976,28.0193,28.0193,28.0193
		c14.747,0,28.0193-11.7976,28.0193-28.0193V306.045C334.7567,304.5703,337.706,282.4498,314.1108,270.6522z M123.8747,295.7221
		C54.5639,295.7221,0,351.7607,0,419.5968c0,69.3109,56.0386,125.3494,123.8747,125.3494
		c69.3108,0,123.8747-56.0385,123.8747-123.8747C249.2241,351.7607,193.1855,295.7221,123.8747,295.7221z M123.8747,502.1799
		c-44.241,0-81.1084-36.8675-81.1084-81.1084s36.8675-81.1084,81.1084-81.1084s81.1084,36.8675,81.1084,81.1084
		S169.5904,502.1799,123.8747,502.1799z M488.1253,295.7221c-69.3109,0-123.8747,56.0385-123.8747,123.8747
		c0,69.3109,56.0385,123.8747,123.8747,123.8747C557.4362,543.4716,612,487.433,612,419.5969S555.9615,295.7221,488.1253,295.7221z
		 M488.1253,502.1799c-44.241,0-81.1085-36.8675-81.1085-81.1084s36.8675-81.1084,81.1085-81.1084s81.1084,36.8675,81.1084,81.1084
		S532.3663,502.1799,488.1253,502.1799z"/>
</g>
<g>
</g>
<g>
</g>
<g>
</g>
<g>
</g>
<g>
</g>
<g>
</g>
<g>
</g>
<g>
</g>
<g>
</g>
<g>
</g>
<g>
</g>
<g>
</g>
<g>
</g>
<g>
</g>
<g>
</g>
</svg>
