<?xml version="1.0" encoding="utf-8"?>
<!-- Generator: Adobe Illustrator 17.0.0, SVG Export Plug-In . SVG Version: 6.00 Build 0)  -->
<!DOCTYPE svg PUBLIC "-//W3C//DTD SVG 1.1//EN" "http://www.w3.org/Graphics/SVG/1.1/DTD/svg11.dtd">
<svg version="1.1" id="Layer_1" xmlns="http://www.w3.org/2000/svg" xmlns:xlink="http://www.w3.org/1999/xlink" x="0px" y="0px"
	 width="611.4796px" height="462.448px" viewBox="0 0 611.4796 462.448" enable-background="new 0 0 611.4796 462.448"
	 xml:space="preserve">
<g>
	<path d="M158.8024,70.0693c18.3234-4.8862,30.5389-23.2096,26.8743-42.7545c-2.4431-8.5509-7.3293-17.1018-15.8802-21.988
		c-8.5509-4.8862-17.1018-6.1078-26.8743-4.8862c-18.3234,4.8862-30.5389,24.4311-25.6527,42.7545
		C120.9341,62.74,140.479,73.734,158.8024,70.0693z M440.982,158.0214c15.8802-18.3234,31.7605-62.2994,8.5509-94.0599
		c-18.3234-28.0958-48.8623-37.8683-67.1856-40.3114c-59.8563-8.5509-130.7066,0-163.6886,6.1078
		c1.2216,24.4311,6.1078,63.521,6.1078,84.2874c1.2216,26.8743-1.2216,64.7425-21.988,65.9641
		c-24.4311,6.1078-57.4132-7.3293-57.4132-4.8862l-12.2156,31.7605c0,0-15.8802,0-18.3234,0
		c-6.1078,0-12.2156,1.2216-18.3234,3.6647c-23.2096,6.1078-43.976,17.1018-61.0778,32.982
		c-7.3293,7.3293-14.6587,14.6587-19.5449,24.4311c-7.3293,12.2156-12.2156,26.8743-14.6587,40.3114
		C0,319.267,0,329.0394,0,338.8119c1.2216,19.5449,6.1078,37.8683,14.6587,54.9701c7.3293,14.6587,18.3234,28.0958,30.5389,39.0898
		c6.1078,4.8863,13.4371,9.7725,20.7665,14.6587c34.2036,18.3234,70.8503,19.5449,107.497,4.8863
		c30.5389-12.2156,52.5269-32.9821,65.9641-62.2994c28.0958-57.4132-1.2216-107.497,0-106.2755
		c0,1.2216-12.2156-32.982-47.6407-56.1916c6.1078,0,13.4371,1.2216,20.7665,0c28.0958-1.2216,56.1916-30.5389,62.2994-54.9701
		c7.3293-24.4311,7.3293-45.1976,7.3293-59.8563c0-6.1078,0-13.4371-1.2216-21.988c31.7605-3.6647,62.2994-6.1078,89.1737-2.4431
		c7.3293,1.2216,19.5449,2.4431,23.2096,10.994c3.6646,7.3293-1.2216,15.8802-6.1078,21.988
		c-17.1018,28.0958-59.8563,58.6347-85.509,105.0539c-46.4191,85.509-13.4371,169.7964-17.1018,168.5748l42.7545-7.3293
		c2.4431,1.2216-15.8802-74.515,23.2096-134.3712C370.1317,225.2071,408,200.7759,440.982,158.0214z M227.2096,289.9496
		c1.2216,3.6647,2.4431,7.3293,3.6647,10.994c3.6647,12.2156,4.8862,24.4312,4.8862,36.6467
		c-1.2216,15.8802-6.1078,30.5389-12.2156,43.9761c-8.5509,18.3233-23.2096,32.9821-41.5329,42.7545
		c-31.7605,18.3234-68.4072,19.5449-100.1677,3.6647c-4.8862-2.4431-9.7725-4.8863-13.4371-7.3293
		c-8.5509-6.1078-15.8802-13.4371-21.988-20.7665c-12.2156-14.6587-19.5449-34.2036-21.988-52.5269
		c-1.2216-9.7725-1.2216-19.5449,0-29.3174c1.2216-7.3293,3.6647-14.6587,6.1078-21.988
		c6.1078-15.8802,15.8802-30.5389,29.3174-41.5329c17.1018-14.6587,37.8683-24.4311,59.8563-26.8743
		c13.4371-1.2216,25.6527,0,37.8683,2.4431c24.4311,6.1078,46.4192,20.7665,61.0779,41.5329
		C221.1018,277.734,224.7665,283.8418,227.2096,289.9496z M596.1198,271.6263c-12.2156-25.6527-35.4252-43.9761-61.0779-54.9701
		c-34.2036-14.6587-69.6288-13.4371-103.8323,2.4431c-4.8863,2.4431-9.7725,4.8862-13.4371,7.3293
		c-8.5509,6.1078-17.1018,12.2156-24.4312,20.7665c-13.4371,15.8802-24.4311,34.2036-29.3174,53.7485
		c-4.8862,18.3234-6.1078,37.8683-2.4431,56.1916c1.2216,9.7725,4.8862,18.3234,8.5509,26.8743
		c4.8862,9.7725,8.5509,19.5449,15.8802,28.0958c4.8862,6.1078,12.2155,12.2156,18.3233,18.3233
		c32.9821,25.6527,81.8443,39.0898,122.1557,21.988c59.8563-20.7665,75.7365-75.7365,75.7365-74.515
		C602.2275,379.1233,626.6587,327.8178,596.1198,271.6263z M590.012,373.0155c-1.2216-2.4431-15.8802,46.4192-68.4072,62.2994
		c-40.3113,15.8802-91.6167-2.4431-118.491-35.4252c-25.6527-31.7605-28.0958-76.9581-9.7725-113.6048
		c6.1078-10.994,13.4371-21.988,23.2096-30.5389c4.8863-4.8862,9.7725-8.5509,15.8802-10.994
		c15.8802-9.7724,32.9821-15.8802,50.0838-15.8802c18.3234,0,36.6467,3.6647,53.7486,12.2156
		c19.5449,9.7724,32.982,23.2096,43.976,40.3114C608.3353,327.8178,587.5688,374.237,590.012,373.0155z"/>
</g>
<g>
</g>
<g>
</g>
<g>
</g>
<g>
</g>
<g>
</g>
<g>
</g>
<g>
</g>
<g>
</g>
<g>
</g>
<g>
</g>
<g>
</g>
<g>
</g>
<g>
</g>
<g>
</g>
<g>
</g>
</svg>
