<?xml version="1.0" encoding="utf-8"?>
<!-- Generator: Adobe Illustrator 17.0.0, SVG Export Plug-In . SVG Version: 6.00 Build 0)  -->
<!DOCTYPE svg PUBLIC "-//W3C//DTD SVG 1.1//EN" "http://www.w3.org/Graphics/SVG/1.1/DTD/svg11.dtd">
<svg version="1.1" id="Layer_1" xmlns="http://www.w3.org/2000/svg" xmlns:xlink="http://www.w3.org/1999/xlink" x="0px" y="0px"
	 width="612px" height="683.9297px" viewBox="0 0 612 683.9297" enable-background="new 0 0 612 683.9297" xml:space="preserve">
<g>
	<path d="M186.1551,222.8005c21.9006-15.8171,49.8847-27.9841,81.5189-35.2843c48.668-9.7336,65.7018-8.5169,65.7018-8.5169
		l2.4334-37.7177c0,0-66.9185-3.6501-121.67,10.9503c-87.6024,23.1173-137.4871,74.2187-137.4871,74.2187
		s102.2028,51.1014,135.0537,131.4036C171.5547,516.0251,0,561.043,0,561.043l13.3837,34.0676c0,0,64.4851-12.167,130.1869-52.3181
		c64.4851-40.1511,100.9861-90.0358,100.9861-90.0358s12.167,31.6342,2.4334,88.8191
		c-10.9503,64.485-53.5348,116.8032-53.5348,116.8032l40.1511,25.5507c0,0,60.835-73.002,73.002-163.0378
		C327.2922,368.8044,238.4732,258.0848,186.1551,222.8005z M60.835,199.6832c18.2505,0,32.8509-14.6004,34.0676-32.8509
		c0-8.5169-3.6501-17.0338-9.7336-23.1173c-6.0835-6.0835-14.6004-9.7336-23.1173-9.7336
		c-18.2505,0-32.8509,14.6004-34.0676,32.8509C27.9841,183.8661,42.5845,199.6832,60.835,199.6832z M429.495,315.2697
		c-93.6859-48.668-93.6859-126.5368-93.6859-126.5368s-38.9344,1.2167-65.7018,9.7336
		c9.7336,68.1352,37.7177,166.6879,128.9702,243.34c86.3857,73.002,161.821,80.3022,161.821,80.3022L612,352.9873
		C612,351.7707,509.7972,356.6375,429.495,315.2697z M475.7296,159.5321c3.6501-10.9503,6.0835-19.4672,10.9503-31.6342
		c-64.4851-27.9841-135.0537-49.8847-223.8728-42.5845c-2.4334,15.8171-3.6501,31.6342-2.4334,48.668
		C330.9424,125.4645,394.2108,137.6315,475.7296,159.5321z M358.9265,62.1961c15.8171-9.7336,20.6839-30.4175,10.9503-46.2346
		c-9.7336-15.8171-29.2008-20.6839-45.0179-10.9503c-7.3002,4.8668-13.3837,12.167-14.6004,20.6839
		c-2.4334,8.5169-1.2167,18.2505,3.6501,25.5507C322.4254,67.0629,343.1093,71.9297,358.9265,62.1961z"/>
</g>
<g>
</g>
<g>
</g>
<g>
</g>
<g>
</g>
<g>
</g>
<g>
</g>
<g>
</g>
<g>
</g>
<g>
</g>
<g>
</g>
<g>
</g>
<g>
</g>
<g>
</g>
<g>
</g>
<g>
</g>
</svg>
