<?xml version="1.0" encoding="utf-8"?>
<!-- Generator: Adobe Illustrator 17.0.0, SVG Export Plug-In . SVG Version: 6.00 Build 0)  -->
<!DOCTYPE svg PUBLIC "-//W3C//DTD SVG 1.1//EN" "http://www.w3.org/Graphics/SVG/1.1/DTD/svg11.dtd">
<svg version="1.1" id="Layer_1" xmlns="http://www.w3.org/2000/svg" xmlns:xlink="http://www.w3.org/1999/xlink" x="0px" y="0px"
	 width="609.4656px" height="541.5997px" viewBox="0 0 609.4656 541.5997" enable-background="new 0 0 609.4656 541.5997"
	 xml:space="preserve">
<g>
	<path d="M489.6,411.0396c-61.2-54.4-96.56-142.8-127.84-205.36c-17.68-35.36-44.88-73.44-78.88-102c6.8-5.44,13.6-10.88,20.4-16.32
		c20.4-14.96,46.24-20.4,77.52,0c23.12,14.96,40.8,32.64,48.96,40.8c-20.4,20.4-28.56,44.88-17.68,61.2
		c13.6,19.04,50.32,17.68,82.96-4.08c32.64-23.12,48.96-57.12,35.36-77.52c-10.88-16.32-38.08-17.68-65.28-5.44
		c-4.08-5.44-20.4-32.64-51.68-59.84c-25.84-21.76-54.4-31.28-87.04-29.92c-21.76,1.36-39.44,8.16-55.76,19.04
		c-12.24,8.16-21.76,16.32-31.28,25.84c-9.52,8.16-19.04,17.68-28.56,27.2c-16.32,16.32-31.28,31.28-48.96,46.24
		c-21.76,17.68-47.6,29.92-77.52,14.96c-29.92-13.6-53.04-39.44-54.4-38.08L0,133.5997c1.36,0,17.68,29.92,58.48,57.12
		c29.92,19.04,61.2,23.12,95.2,13.6c29.92-8.16,50.32-25.84,70.72-46.24c27.2,20.4,48.96,47.6,66.64,82.96
		c-23.12,10.88-48.96,24.48-74.8,43.52c-17.68,14.96-48.96,44.88-48.96,92.48s31.28,77.52,53.04,97.92
		c48.96,39.4401,92.48,54.4,92.48,54.4l24.48-44.88c1.36-1.36-38.08-23.12-70.72-58.48c-36.72-40.8-25.84-59.84-1.36-80.24
		c16.32-13.6,38.08-23.12,61.2-35.36c28.56,50.32,66.64,110.16,116.96,146.88c73.44,59.84,145.52,84.32,144.16,84.32l21.76-46.24
		C613.36,496.7196,549.4401,466.7997,489.6,411.0396z M452.88,122.7197c23.12-14.96,47.6-17.68,57.12-5.44
		c8.16,12.24-2.72,35.36-25.84,50.32c-23.12,14.96-47.6,17.68-57.12,5.44C418.88,160.7997,429.76,137.6797,452.88,122.7197z
		 M146.88,76.4797c21.76,2.72,40.8-12.24,44.88-32.64c1.36-10.88-1.36-20.4-6.8-28.56c-6.8-8.16-14.96-13.6-25.84-14.96
		c-21.76-2.72-40.8,12.24-44.88,32.64S125.12,73.7597,146.88,76.4797z"/>
</g>
<g>
</g>
<g>
</g>
<g>
</g>
<g>
</g>
<g>
</g>
<g>
</g>
<g>
</g>
<g>
</g>
<g>
</g>
<g>
</g>
<g>
</g>
<g>
</g>
<g>
</g>
<g>
</g>
<g>
</g>
</svg>
