<?xml version="1.0" encoding="utf-8"?>
<!-- Generator: Adobe Illustrator 17.0.0, SVG Export Plug-In . SVG Version: 6.00 Build 0)  -->
<!DOCTYPE svg PUBLIC "-//W3C//DTD SVG 1.1//EN" "http://www.w3.org/Graphics/SVG/1.1/DTD/svg11.dtd">
<svg version="1.1" id="Layer_1" xmlns="http://www.w3.org/2000/svg" xmlns:xlink="http://www.w3.org/1999/xlink" x="0px" y="0px"
	 width="611.2797px" height="622.5504px" viewBox="0 0 611.2797 622.5504" enable-background="new 0 0 611.2797 622.5504"
	 xml:space="preserve">
<g>
	<path d="M569.1713,98.462c27.0497-4.5083,45.0829-29.3039,41.7017-56.3536c-4.5084-27.0497-29.3039-45.0829-56.3536-41.7017
		c-13.5248,2.2541-24.7956,10.1436-32.6851,20.2873c-7.8895,10.1436-11.2708,23.6685-9.0166,37.1934
		C517.326,84.9371,543.2487,102.9703,569.1713,98.462z"/>
	<path d="M178.0774,457.9979c23.6685-56.3536,43.9558-93.547,56.3536-128.4862c16.9061-64.2431,243.4475-164.5525,296.4199-180.3315
		c-27.0497-41.7017-67.6243-77.768-125.1049-99.1823c-37.1934-14.6519-110.453-21.4143-179.2044,6.7624
		c-65.3702,27.0497-85.6575,71.0055-85.6575,69.8785l39.4475,28.1768c1.1271,2.2542,22.5414-33.8121,69.8785-43.9558
		c77.7679-15.779,112.7072,12.3978,112.7072,12.3978s-144.2652,64.2431-179.2044,99.1823
		c-71.0055,71.0055-56.3536,144.2652-91.2928,227.6685C61.989,523.3681,9.0166,612.4067,0,622.5504
		c37.1934-14.6519,39.4475-15.7791,77.768-31.558C107.0718,567.3239,151.0276,522.241,178.0774,457.9979z"/>
</g>
<g>
</g>
<g>
</g>
<g>
</g>
<g>
</g>
<g>
</g>
<g>
</g>
<g>
</g>
<g>
</g>
<g>
</g>
<g>
</g>
<g>
</g>
<g>
</g>
<g>
</g>
<g>
</g>
<g>
</g>
</svg>
