<?xml version="1.0" encoding="utf-8"?>
<!-- Generator: Adobe Illustrator 17.0.0, SVG Export Plug-In . SVG Version: 6.00 Build 0)  -->
<!DOCTYPE svg PUBLIC "-//W3C//DTD SVG 1.1//EN" "http://www.w3.org/Graphics/SVG/1.1/DTD/svg11.dtd">
<svg version="1.1" id="Layer_1" xmlns="http://www.w3.org/2000/svg" xmlns:xlink="http://www.w3.org/1999/xlink" x="0px" y="0px"
	 width="612px" height="624.6085px" viewBox="0 0 612 624.6085" enable-background="new 0 0 612 624.6085" xml:space="preserve">
<g>
	<path d="M504.2731,84.3235c23.217-6.5008,36.2185-30.6464,29.7177-52.9347c-6.5007-23.217-30.6464-36.2185-52.9348-29.7178
		c-11.1442,2.786-20.4309,10.2155-26.003,20.431c-5.5721,10.2155-7.4294,21.3596-3.7147,32.5038
		C457.8391,77.8227,481.9848,90.8242,504.2731,84.3235z"/>
	<path d="M582.2822,166.976c-0.9286,0.9287-4.6434,4.6434-10.2155,9.2868c-21.3597-1.8574-42.7193-3.7147-63.1502-5.5721
		c-14.8589-1.8574-29.7178-2.786-44.5766-3.7147c-3.7147-7.4294-7.4294-13.9302-10.2155-21.3596
		c-12.0728-24.1457-32.5038-72.437-45.5053-101.2261c-50.1488,6.5008-133.7299,19.5023-196.8802,66.8649
		c-9.2868,7.4294-20.431,17.6449-29.7178,31.5751C74.2944,134.4722,7.4294,129.8288,7.4294,129.8288l-1.8574,15.7876
		c0,0,62.2215,7.4294,162.519,19.5023c-4.6434,10.2155-7.4294,22.2883-8.3581,34.3612
		c-5.5721,52.0061,47.3627,76.1517,72.437,82.6525c39.0046,11.1442,50.1487,6.5008,69.651,13.9302
		c28.7891,12.0728-52.0061,122.5857-49.22,119.7997l48.2913,29.7178c42.7193-46.434,141.1593-155.0895,60.3642-211.739
		c-15.7876-10.2155-62.2216-23.217-80.7951-26.9317c-10.2155-1.8574-20.431-7.4294-17.6449-17.6449
		c0.9287-4.6434,6.5008-9.2868,14.8589-13.9302c37.1472,3.7147,78.0091,8.3581,120.7284,13.0015
		c9.2868,15.7876,20.431,34.3612,39.9332,52.0061c21.3596,24.1457,67.7936,35.2898,100.2974,19.5023
		c8.3581-4.6434,13.0015-6.5008,19.5023-11.1442C598.9984,217.1247,612,190.1929,612,190.1929L582.2822,166.976z M377.9727,152.1171
		c0.9287,2.786,2.786,5.5721,3.7148,7.4294c-15.7876-0.9287-30.6464-2.786-45.5053-3.7147
		C351.0409,152.1171,365.8998,151.1884,377.9727,152.1171z M486.6282,198.5511c6.5008,0.9287,12.0728,0.9287,18.5736,1.8574
		c9.2868,0.9287,18.5736,1.8574,27.8604,2.786c-4.6434,1.8574-9.2868,3.7147-13.9302,4.6434
		C506.1305,211.5526,495.915,206.9092,486.6282,198.5511z"/>
	<path d="M488.4855,592.3113C318.5371,487.3705,151.3748,385.2157,6.5007,295.1338L0,306.2779
		c143.0167,96.5827,288.8194,195.9514,478.2701,307.393c45.5053,28.7891,79.8665-8.3582,79.8665-8.3582l-9.2868-5.572
		C527.4901,614.5995,488.4855,592.3113,488.4855,592.3113z"/>
</g>
<g>
</g>
<g>
</g>
<g>
</g>
<g>
</g>
<g>
</g>
<g>
</g>
<g>
</g>
<g>
</g>
<g>
</g>
<g>
</g>
<g>
</g>
<g>
</g>
<g>
</g>
<g>
</g>
<g>
</g>
</svg>
