<?xml version="1.0" encoding="utf-8"?>
<!-- Generator: Adobe Illustrator 17.0.0, SVG Export Plug-In . SVG Version: 6.00 Build 0)  -->
<!DOCTYPE svg PUBLIC "-//W3C//DTD SVG 1.1//EN" "http://www.w3.org/Graphics/SVG/1.1/DTD/svg11.dtd">
<svg version="1.1" id="Layer_1" xmlns="http://www.w3.org/2000/svg" xmlns:xlink="http://www.w3.org/1999/xlink" x="0px" y="0px"
	 width="613.1906px" height="460.1233px" viewBox="0 0 613.1906 460.1233" enable-background="new 0 0 613.1906 460.1233"
	 xml:space="preserve">
<g>
	<path d="M522.7004,434.5914c-45.2451,10.716-101.2062,9.5253-135.7354,4.7627c-27.3852-3.572-53.5798-9.5253-80.965-16.6693l0,0
		c-27.3852-7.144-54.7704-14.288-83.3463-17.8599c-35.7198-4.7627-94.0623-4.7627-141.6887,8.3346
		C33.3385,425.0661,0,448.8794,0,448.8794l7.144,9.5253c-1.1907,0,32.1479-20.2413,78.5837-30.9572
		c45.2451-10.716,101.2062-9.5253,135.7354-4.7627c27.3852,3.572,53.5798,9.5253,80.965,16.6693l0,0
		c27.3852,7.144,54.7704,14.2879,83.3463,17.8599c35.7198,4.7627,94.0623,4.7627,141.6887-8.3347
		c47.6265-11.9066,80.965-35.7198,80.965-35.7198l-7.1439-9.5253C601.284,403.6342,569.1362,423.8755,522.7004,434.5914z
		 M601.284,352.4358c0,0-5.9533,3.572-17.8599,9.5253c-16.6693-58.3424-34.5292-101.2062-100.0156-157.1673
		c4.7627-17.8599,5.9533-35.7198,2.3813-53.5798c-3.572-33.3385-33.3385-79.7743-67.8677-100.0156
		c-26.1945-17.8599-51.1984-25.0039-60.7237-27.3852c2.3813-5.9533,4.7626-11.9066,7.144-17.8599L348.8638,0
		c-30.9572,69.0584-70.249,158.358-92.8716,209.5564l-34.5292,80.965c-11.9066-1.1906-23.8132,4.7627-28.5759,16.6693
		l-19.0506,41.6731c-61.9144-7.144-61.9144-111.9221-4.7626-166.6926c58.3424-55.9611,119.0662-85.7276,119.0662-85.7276
		l-10.716-29.7665c0,0-57.1517,50.0078-140.498,32.1479C63.105,83.3463,42.8638,55.9611,42.8638,55.9611l-26.1946,45.2451
		c0,0,20.2412,36.9105,101.2062,58.3424c-75.0117,107.1595-66.677,167.8833-33.3385,201.2218h-1.1907
		c-47.6265,13.0973-82.1556,36.9105-82.1556,38.1012l10.716,14.2879c-1.1907,0,32.1479-20.2412,77.393-29.7665
		c45.2451-10.7159,100.0156-9.5253,134.5447-4.7626c27.3852,3.572,53.5798,9.5253,79.7743,16.6693l0,0
		c27.3852,8.3347,55.9611,14.288,84.537,17.8599c35.7198,4.7627,95.2529,4.7627,142.8794-9.5253
		c47.6265-13.0973,82.1556-36.9105,82.1556-38.1012L601.284,352.4358z M273.8521,217.891
		c17.8599-40.4825,44.0545-102.3969,67.8677-160.7393c5.9533,3.572,27.3852,13.0973,47.6265,30.9572
		c23.8132,20.2412,39.2918,51.1984,40.4825,71.4397c5.9533,29.7665-8.3347,59.5331-32.1479,77.393
		c-25.0039,19.0506-54.7704,20.2412-84.537,17.8599c-3.572,0-38.1012-4.7626-52.3891-8.3346L273.8521,217.891z M234.5603,347.6732
		l8.3346-19.0506c4.7626-10.7159,2.3813-21.4319-4.7626-29.7665l9.5253-21.4319c9.5253,5.9533,30.9572,16.6693,58.3424,22.6226
		c38.1012,10.7159,91.6809,3.572,119.0661-15.4786c8.3346-4.7627,15.4786-10.716,22.6226-17.8599
		c20.2412,22.6226,35.7198,48.8171,46.4358,82.1556C414.3502,347.6732,308.3813,347.6732,234.5603,347.6732z M364.3424,216.7004
		c19.0506-1.1907,33.3386-17.8599,30.9572-36.9105c-1.1906-9.5253-4.7627-17.8599-11.9066-23.8132
		c-7.144-5.9533-15.4786-8.3346-25.0039-8.3346c-19.0506,1.1907-33.3385,17.8599-30.9572,36.9105
		C328.6226,204.7938,345.2918,217.891,364.3424,216.7004z"/>
</g>
<g>
</g>
<g>
</g>
<g>
</g>
<g>
</g>
<g>
</g>
<g>
</g>
<g>
</g>
<g>
</g>
<g>
</g>
<g>
</g>
<g>
</g>
<g>
</g>
<g>
</g>
<g>
</g>
<g>
</g>
</svg>
