<?xml version="1.0" encoding="utf-8"?>
<!-- Generator: Adobe Illustrator 17.0.0, SVG Export Plug-In . SVG Version: 6.00 Build 0)  -->
<!DOCTYPE svg PUBLIC "-//W3C//DTD SVG 1.1//EN" "http://www.w3.org/Graphics/SVG/1.1/DTD/svg11.dtd">
<svg version="1.1" id="Layer_1" xmlns="http://www.w3.org/2000/svg" xmlns:xlink="http://www.w3.org/1999/xlink" x="0px" y="0px"
	 width="612.1px" height="584px" viewBox="0 0 612.1 584" enable-background="new 0 0 612.1 584" xml:space="preserve">
<g>
	<path d="M213,146.3c0,0-2.2,11.8-3.2,19.4l-46.2-2.2c-47.3-2.2-162.4-2.2-163.5-2.2v10.8c0,0,115.1,5.4,162.4,7.5l47.3,2.2
		c0,7.5,2.2,19.4,2.2,19.4l10.8-1.1c0,0,3.2-15.1,3.2-22.6v-9.7c0-6.5-2.2-21.5-2.2-21.5H213z M542.1,446.4
		c-31.2-63.5-34.4-148.4-37.6-204.4c-2.2-28-3.2-55.9-6.5-83.9c2.2,0,4.3,0,6.5-1.1c30.1-3.2,86-34.4,97.9-81.7
		c12.9-43,1.1-75.3,2.2-75.3l-32.3,4.3c-2.2,0,2.2,30.1-9.7,57c-10.8,28-44.1,40.9-66.7,44.1c-18.3,3.2-38.7,2.2-58.1,2.2v1.1h-1.1
		c-2.2,3.2-4.3,5.4-5.4,8.6h-1.1c0,0,0,0,0,1.1c-8.6,11.8-19.4,20.4-31.2,25.8c-34.4,23.7-149.5,16.1-164.6,16.1v32.3
		c15.1,2.2,118.3,30.1,187.1-3.2c5.4-2.2,10.8-5.4,15.1-8.6c2.2,22.6,3.2,44.1,4.3,66.7c1.1,14,2.2,32.3,4.3,51.6
		c-25.8,14-48.4,31.2-68.8,51.6c-79.6,80.7-86,197.9-87.1,206.5l40.9,8.6c-1.1-1.1,22.6-114,89.3-177.5c11.8-11.8,23.7-21.5,35.5-29
		c7.5,37.6,19.4,77.4,39.8,110.8c39.8,71,88.2,112.9,87.1,114l30.1-26.9C614.2,556.1,572.2,510.9,542.1,446.4z M428.1,83.9
		c17.2-2.2,29-18.3,25.8-35.5c-2.2-16.1-17.2-28-34.4-25.8c-8.6,1.1-15.1,5.4-20.4,11.8c-5.4,6.5-7.5,15.1-6.5,22.6
		C395.8,74.2,410.9,86,428.1,83.9z"/>
</g>
<g>
</g>
<g>
</g>
<g>
</g>
<g>
</g>
<g>
</g>
<g>
</g>
<g>
</g>
<g>
</g>
<g>
</g>
<g>
</g>
<g>
</g>
<g>
</g>
<g>
</g>
<g>
</g>
<g>
</g>
</svg>
