<?xml version="1.0" encoding="utf-8"?>
<!-- Generator: Adobe Illustrator 17.0.0, SVG Export Plug-In . SVG Version: 6.00 Build 0)  -->
<!DOCTYPE svg PUBLIC "-//W3C//DTD SVG 1.1//EN" "http://www.w3.org/Graphics/SVG/1.1/DTD/svg11.dtd">
<svg version="1.1" id="Layer_1" xmlns="http://www.w3.org/2000/svg" xmlns:xlink="http://www.w3.org/1999/xlink" x="0px" y="0px"
	 width="612.8px" height="610.3px" viewBox="0 0 612.8 610.3" enable-background="new 0 0 612.8 610.3" xml:space="preserve">
<g>
	<path d="M408,92.8c10-0.8,18.4-5,25.1-11.7c6.7-7.5,10-16.7,9.2-25.9c-0.8-20.1-17.6-35.1-37.6-34.3s-35.1,17.6-34.3,37.6
		C371.2,77.8,387.9,93.6,408,92.8z"/>
	<path d="M576.9,0c-2.5,5.9-13.4,29.3-35.1,54.3c-20.1,25.1-58.5,39.3-85.3,47.7c-20.9,6.7-56.9,15.9-83.6,18.4
		c-27.6,2.5-69.4,6.7-97.8-6.7c-30.1-14.2-50.2-30.1-54.3-34.3L194.8,107c0.8,0,20.1,25.9,57.7,50.2c24.2,15.9,66.9,23.4,111.2,22.6
		c-5,15.9-20.1,36.8-44.3,50.2c-113.7,61.9-250,21.7-250.8,23.4l-16.7,38.5c0-0.8,139.6,56.9,281.8,9.2
		c18.4,27.6,70.2,107.9,75.2,174.7c3.3,42.6,4.2,89.5,4.2,92.8h43.5c3.3-15,8.4-61,6.7-100.3c-4.2-95.3-51.8-178.1-66.9-201.5
		c39.3-31.8,63.5-75.2,70.2-104.5c51.8-17.6,95.3-46.8,115.4-78.6C606.1,46,612,14.2,612.8,13.4L576.9,0z"/>
	<path d="M463.2,592.8c-47.7,0-83.6,4.2-83.6,4.2v9.2c0,0,36.8,4.2,83.6,4.2h13.4v-18.4L463.2,592.8z"/>
	<path d="M46,212.4c0,0-19.2,30.9-40.1,73.6L0,297.6l15.9,7.5l5.9-11.7c20.1-42.6,32.6-76.9,32.6-76.9L46,212.4z"/>
</g>
<g>
</g>
<g>
</g>
<g>
</g>
<g>
</g>
<g>
</g>
<g>
</g>
<g>
</g>
<g>
</g>
<g>
</g>
<g>
</g>
<g>
</g>
<g>
</g>
<g>
</g>
<g>
</g>
<g>
</g>
</svg>
