<?xml version="1.0" encoding="utf-8"?>
<!-- Generator: Adobe Illustrator 17.0.0, SVG Export Plug-In . SVG Version: 6.00 Build 0)  -->
<!DOCTYPE svg PUBLIC "-//W3C//DTD SVG 1.1//EN" "http://www.w3.org/Graphics/SVG/1.1/DTD/svg11.dtd">
<svg version="1.1" id="Layer_1" xmlns="http://www.w3.org/2000/svg" xmlns:xlink="http://www.w3.org/1999/xlink" x="0px" y="0px"
	 width="376px" height="792px" viewBox="0 0 376 792" enable-background="new 0 0 376 792" xml:space="preserve">
<g>
	<path d="M305,187.5c0,0,1.4-5.4,5.4-14.9c4.1-14.9,1.4-50.3,1.4-50.3s-5.4-4.1-17.7-2.7c-17.7,4.1-25.8,47.5-5.4,59.8
		C299.5,187.5,305,187.5,305,187.5z"/>
	<path d="M220.8,78.8c0,0,29.9,34,44.8,53c2.7-12.2,16.3-20.4,16.3-20.4S258.8,91,234.3,69.3C231.6,74.7,220.8,78.8,220.8,78.8z"/>
	<path d="M374.3,173.9c-1.4-1.4-6.8-10.9-4.1-19c4.1-13.6-6.8-38-21.7-38c5.4,29.9,8.2,62.5,9.5,91c1.4-2.7,10.9-12.2,10.9-23.1
		c1.4-1.4,5.4-4.1,6.8-6.8C375.6,178,377,175.2,374.3,173.9z"/>
	<path d="M137.9,20.4c2.7,4.1,4.1,6.8,6.8,9.5l1.4-1.4C143.3,24.5,140.6,21.7,137.9,20.4C137.9,19,137.9,19,137.9,20.4z"/>
	<path d="M315.8,361.4c20.4-21.7,43.5-46.2,58.4-67.9c6.8-9.5-13.6-55.7-13.6-73.4c0-29.9-10.9-110-10.9-110
		c0-10.9-84.2-55.7-99.2-61.1c-14.9-5.4-29.9-6.8-36.7-2.7c-5.4,2.7-12.2,12.2-13.6,19c0,2.7-1.4,14.9,12.2,14.9
		c10.9,1.4,32.6-13.6,32.6-13.6s20.4,12.2,31.2,21.7c9.5,8.2,40.8,29.9,40.8,29.9s8.2,42.1,1.4,57.1c-13.6,31.2,6.8,50.3,6.8,50.3
		s-10.9-2.7-14.9-13.6S292.8,197,286,222.8c-5.4,25.8-9.5,55.7-9.5,55.7s-1.4,12.2-16.3,27.2c13.6,13.6,17.7,31.2,13.6,48.9
		c4.1-25.8-38-47.5-61.1-54.3c-21.7-6.8-51.6,1.4-51.6,1.4s-39.4-20.4-61.1-35.3c-23.1-14.9-46.2-29.9-46.2-29.9
		c16.3-12.2,25.8-27.2,31.2-35.3c12.2-19,29.9-61.1,42.1-70.6c17.7-14.9,34-16.3,40.8-20.4c9.5-8.2,16.3-17.7,16.3-20.4
		c-2.7-4.1-6.8-9.5-12.2-17.7c-2.7,1.4-8.2,4.1-12.2,0c-6.8-5.4-1.4-13.6-6.8-23.1c-2.7-10.9-8.2-20.4-23.1-35.3
		c-4.1,0-9.5,4.1-5.4,14.9c5.4,14.9,1.4,43.5-4.1,57.1c-5.4,12.2-19,34-53,73.4c-5.4,5.4-54.3,58.4-61.1,65.2s-10.9,21.7,4.1,36.7
		c14.9,14.9,31.2,35.3,67.9,65.2c35.3,28.5,53,38,77.4,55.7c47.5,107.3,29.9,171.2,47.5,221.4c6.8,19,12.2,53,17.7,69.3
		c4.1,16.3,5.4,57.1,2.7,67.9c-2.7,9.5,2.7,27.2,4.1,29.9h20.4c0-1.4,0-6.8,5.4-8.2c6.8-1.4,16.3,5.4,34,5.4
		c13.6,0,28.5-1.4,39.4-6.8c1.4-4.1,4.1-13.6-12.2-14.9c-16.3,0-47.5-27.2-51.6-34c-14.9-29.9-21.7-123.6-21.7-146.7
		c0-17.7,8.2-34,4.1-48.9c-4.1-16.3-2.7-40.8-4.1-58.4c-1.4-10.9-2.7-44.8-5.4-62.5C292.8,391.2,294.1,385.8,315.8,361.4z"/>
	<path d="M171.8,36.7C159.6,16.3,148.8,4.1,139.2,0c-1.4,4.1-1.4,6.8-2.7,9.5c4.1,2.7,14.9,13.6,24.5,28.5s9.5,13.6,29.9,47.5
		l10.9-2.7C201.7,84.2,180,48.9,171.8,36.7z"/>
	<path d="M281.9,792c25.8,0,43.5-1.4,53-8.2c-4.1-4.1-4.1-5.4-8.2-8.2c-5.4,1.4-21.7,5.4-40.8,5.4c-23.1,0-59.8,0-59.8,0l-2.7,10.9
		C222.1,790.6,266.9,792,281.9,792z"/>
</g>
<g>
</g>
<g>
</g>
<g>
</g>
<g>
</g>
<g>
</g>
<g>
</g>
<g>
</g>
<g>
</g>
<g>
</g>
<g>
</g>
<g>
</g>
<g>
</g>
<g>
</g>
<g>
</g>
<g>
</g>
</svg>
