<?xml version="1.0" encoding="utf-8"?>
<!-- Generator: Adobe Illustrator 17.0.0, SVG Export Plug-In . SVG Version: 6.00 Build 0)  -->
<!DOCTYPE svg PUBLIC "-//W3C//DTD SVG 1.1//EN" "http://www.w3.org/Graphics/SVG/1.1/DTD/svg11.dtd">
<svg version="1.1" id="Layer_1" xmlns="http://www.w3.org/2000/svg" xmlns:xlink="http://www.w3.org/1999/xlink" x="0px" y="0px"
	 width="613.1px" height="481.7px" viewBox="0 0 613.1 481.7" enable-background="new 0 0 613.1 481.7" xml:space="preserve">
<g>
	<path d="M329.4,67.4c18.8-3.5,30.6-20,28.2-38.8c-1.2-9.4-5.9-16.5-14.1-22.4c-7.1-4.7-15.3-7.1-24.7-5.9
		c-18.8,3.5-30.6,20-28.2,38.8C294.1,58,311.8,70.9,329.4,67.4z M478.9,356.9c-58.8-45.9-91.8-110.6-108.3-200.1
		c17.7,2.4,34.1,7.1,50.6,14.1c51.8,22.4,80,60,80,60l25.9-23.5c0,0-21.2-38.8-67.1-70.6C393,89.7,297.7,108.6,236.5,73.3
		C187,46.2,162.3,6.2,162.3,6.2l-28.2,21.2c0,0,16.5,41.2,60,76.5c38.8,31.8,81.2,42.4,105.9,48.3c5.9,28.2,12.9,58.8,24.7,90.6
		c-28.2,10.6-62.4,27.1-80,45.9c-71.8,75.3-3.5,193-3.5,193l44.7-12.9c-2.4-2.4-41.2-80,3.5-127.1c14.1-15.3,41.2-27.1,65.9-34.1
		c16.5,27.1,37.7,53,67.1,75.3c76.5,60,175.4,97.7,175.4,97.7l15.3-42.4C613.1,438.1,537.7,402.8,478.9,356.9z M54,381.6L54,381.6
		L54,381.6c0,1.2-20-4.7-37.7,10.6c-18.8,14.1-21.2,47.1-8.2,60c14.1,23.5,50.6,28.2,70.6,9.4c15.3-9.4,22.4-42.4,8.2-60
		C74,381.6,54,381.6,54,381.6z M67,446.4c-11.8,11.8-33,8.2-41.2-5.9c-7.1-8.2-7.1-27.1,3.5-37.7c14.1-14.1,35.3-10.6,44.7,5.9
		C81.1,422.8,75.2,441.6,67,446.4z"/>
</g>
<g>
</g>
<g>
</g>
<g>
</g>
<g>
</g>
<g>
</g>
<g>
</g>
<g>
</g>
<g>
</g>
<g>
</g>
<g>
</g>
<g>
</g>
<g>
</g>
<g>
</g>
<g>
</g>
<g>
</g>
</svg>
