<?xml version="1.0" encoding="utf-8"?>
<!-- Generator: Adobe Illustrator 18.1.1, SVG Export Plug-In . SVG Version: 6.00 Build 0)  -->
<svg version="1.1" id="Layer_1" xmlns="http://www.w3.org/2000/svg" xmlns:xlink="http://www.w3.org/1999/xlink" x="0px" y="0px"
	 viewBox="0 0 45.7 45.7" enable-background="new 0 0 45.7 45.7" xml:space="preserve">
<g>
	<path d="M22.8,0C10.2,0,0,10.2,0,22.8c0,12.6,10.2,22.8,22.8,22.8s22.8-10.2,22.8-22.8C45.7,10.2,35.5,0,22.8,0z M38.9,16.1
		C38.9,16.1,38.9,16.1,38.9,16.1L38.9,16.1c0.9-4.7,0-7.4,0-7.4c0,0,0,0,0,0c0.5,0.1,0.9,0.2,1.3,0.4c2.6,3.3,4.4,7.4,4.8,11.8
		c-0.3,0.5-0.8,1.1-1.5,1.9v0C43.4,22.8,42.4,19.3,38.9,16.1z M22.8,28.4c-2.8,0-5.4-0.4-5.4-0.4h0c0,0-1.1-2.3-2-5
		c-0.9-2.7-1.3-5.2-1.3-5.2l0,0c0,0,1.7-1.7,4.1-3.5c2.4-1.8,4.6-2.8,4.6-2.8s1.9,0.9,4.6,2.8c2.6,1.9,4.1,3.5,4.1,3.5h0
		c0,0-0.2,2-1.3,5.2c-1.1,3.2-2,5-2,5S25.6,28.4,22.8,28.4z M6.9,8.7L6.9,8.7c0,0-1,2.8,0,7.4h0c0,0,0,0,0,0
		c-3.5,3.2-4.5,6.7-4.5,6.7v0c-0.7-0.8-1.1-1.4-1.5-1.9C1.2,16.4,2.9,12.3,5.6,9C6,8.9,6.4,8.8,6.9,8.7z M29.9,1.9
		C30,2,30.2,2.2,30.3,2.3c0,0-3.3,0-7.4,2c0,0,0,0,0,0c-4.1-1.9-7.4-2-7.4-2c0.1-0.2,0.2-0.3,0.3-0.4c2.2-0.8,4.6-1.2,7.1-1.2
		C25.3,0.7,27.7,1.1,29.9,1.9z M5.2,36.2c0-0.8,0-1.8,0.2-3.1c0,0,0,0,0,0s2.7,2,7.8,2.2c1.7,5,4.4,7.1,4.4,7.1
		c-1,0.6-1.9,0.9-2.6,1.1C11.1,42,7.7,39.5,5.2,36.2z M30.7,43.5c-0.7-0.2-1.6-0.6-2.6-1.1c0,0,0,0,0,0c0,0,2.7-2.1,4.4-7.1
		c5.1-0.2,7.8-2.2,7.8-2.2l0,0c0.2,1.3,0.2,2.3,0.2,3.1C38,39.5,34.6,42,30.7,43.5z"/>
</g>
<g>
</g>
<g>
</g>
<g>
</g>
<g>
</g>
<g>
</g>
<g>
</g>
<g>
</g>
<g>
</g>
<g>
</g>
<g>
</g>
<g>
</g>
<g>
</g>
<g>
</g>
<g>
</g>
<g>
</g>
</svg>
