<?xml version="1.0" encoding="utf-8"?>
<!-- Generator: Adobe Illustrator 17.0.0, SVG Export Plug-In . SVG Version: 6.00 Build 0)  -->
<!DOCTYPE svg PUBLIC "-//W3C//DTD SVG 1.1//EN" "http://www.w3.org/Graphics/SVG/1.1/DTD/svg11.dtd">
<svg version="1.1" id="Layer_1" xmlns="http://www.w3.org/2000/svg" xmlns:xlink="http://www.w3.org/1999/xlink" x="0px" y="0px"
	 width="585.2px" height="790.8px" viewBox="0 0 585.2 790.8" enable-background="new 0 0 585.2 790.8" xml:space="preserve">
<g>
	<path d="M181.4,89.8c25,7.8,50.1-6.3,56.3-31.3c3.1-12.5,1.6-23.5-3.1-34.4c-6.3-11-15.7-18.8-28.2-21.9
		c-23.5-7.8-50.1,6.3-56.3,31.3C142.3,56.9,156.4,82,181.4,89.8z M466.3,560.9c-72-114.3-136.2-241-167.5-374.1
		c11-1.6,21.9-3.1,32.9-3.1c68.9-4.7,170.6,47,189.4,61l34.4-32.9c0,0-26.6-36-73.6-62.6c-47-28.2-111.1-40.7-151.8-40.7
		c-62.6,1.6-126.8,20.3-178.4,59.5C117.2,191.6,75,249.5,64,304.3s-3.1,97-3.1,97l48.5-1.6c1.6,0,1.6-37.6,15.7-76.7
		c14.1-40.7,47-76.7,72-92.3c4.7-3.1,9.4-6.3,14.1-9.4c11,42.3,26.6,83,42.3,122.1c1.6,1.6,1.6,4.7,3.1,7.8
		c-23.5,28.2-45.4,59.5-62.6,93.9c-25,47-39.1,134.6-25,201.9c12.5,67.3,37.6,115.8,37.6,115.8l56.3-20.3
		c1.6,0-12.5-48.5-15.7-104.9c-4.7-56.3,14.1-119,31.3-153.4c6.3-14.1,14.1-26.6,23.5-39.1c26.6,50.1,57.9,101.7,90.8,147.1
		c56.3,79.8,148.7,148.7,150.3,147.1l42.3-42.3C568,684.6,471,568.8,466.3,560.9z M71.9,668.9L71.9,668.9L71.9,668.9
		c0,1.6-26.6-6.3-50.1,14.1c-25,18.8-28.2,62.6-11,79.8c18.8,31.3,67.3,37.6,93.9,12.5c20.3-12.5,29.7-56.3,11-79.8
		C98.5,670.5,71.9,668.9,71.9,668.9z M89.1,756.6c-15.7,15.7-43.8,11-54.8-7.8c-9.4-11-9.4-36,4.7-50.1c18.8-18.8,47-14.1,59.5,7.8
		C107.9,723.7,100,748.8,89.1,756.6z"/>
</g>
<g>
</g>
<g>
</g>
<g>
</g>
<g>
</g>
<g>
</g>
<g>
</g>
<g>
</g>
<g>
</g>
<g>
</g>
<g>
</g>
<g>
</g>
<g>
</g>
<g>
</g>
<g>
</g>
<g>
</g>
</svg>
