<?xml version="1.0" encoding="utf-8"?>
<!-- Generator: Adobe Illustrator 17.0.0, SVG Export Plug-In . SVG Version: 6.00 Build 0)  -->
<!DOCTYPE svg PUBLIC "-//W3C//DTD SVG 1.1//EN" "http://www.w3.org/Graphics/SVG/1.1/DTD/svg11.dtd">
<svg version="1.1" id="Layer_1" xmlns="http://www.w3.org/2000/svg" xmlns:xlink="http://www.w3.org/1999/xlink" x="0px" y="0px"
	 width="612px" height="612px" viewBox="0 0 612 612" enable-background="new 0 0 612 612" xml:space="preserve">
<g>
	<path d="M306,0C137,0,0,137,0,306s137,306,306,306s306-137,306-306S475,0,306,0z M520.2,433.7L520.2,433.7c0,0-33.3,25.3-95.8,27.9
		l0,0c-21.3,61.2-54.5,87.8-54.5,87.8l0,0c13.3,6.7,23.9,10.6,33.3,14.6c-30.6,12-62.5,18.6-97.1,18.6s-66.5-6.7-97.1-18.6
		c9.3-2.7,20-6.7,33.3-14.6c0,0-33.3-25.3-54.5-87.8l0,0c-62.5-2.7-95.8-27.9-95.8-27.9l0,0c-2.7,17.3-2.7,30.6-2.7,39.9
		C51.9,427.1,30.6,369.9,30.6,306c0-9.3,0-17.3,1.3-25.3c4,6.7,10.6,14.6,20,27.9l0,0c0,0,13.3-42.6,55.9-82.5l0,0l0,0
		c-12-57.2,0-91.8,0-91.8l0,0c-9.3,2.7-16,4-22.6,6.7c34.6-45.2,82.5-79.8,138.4-97.1c-2.7,4-6.7,8-10.6,12c0,0,39.9,0,91.8,23.9
		c50.6-23.9,91.8-23.9,91.8-23.9c-4-5.3-6.7-8-10.6-12c55.9,17.3,103.8,51.9,138.4,97.1c-6.7-2.7-13.3-5.3-22.6-6.7l0,0
		c0,0,12,34.6,0,91.8l0,0l0,0c42.6,39.9,55.9,82.5,55.9,82.5l0,0c10.6-12,16-21.3,20-26.6c1.3,8,1.3,17.3,1.3,25.3
		c0,63.9-21.3,122.4-57.2,167.6C522.9,464.3,522.9,451,520.2,433.7z M361.9,202.2c-31.9-23.9-55.9-34.6-55.9-34.6
		s-26.6,13.3-55.9,34.6c-30.6,21.3-50.6,42.6-50.6,42.6l0,0c0,0,5.3,30.6,16,65.2c10.6,33.3,25.3,61.2,25.3,61.2l0,0
		c0,0,31.9,5.3,66.5,5.3s66.5-5.3,66.5-5.3l0,0c0,0,12-21.3,25.3-61.2c13.3-39.9,16-65.2,16-65.2l0,0
		C413.8,244.8,395.1,226.2,361.9,202.2z"/>
</g>
<g>
</g>
<g>
</g>
<g>
</g>
<g>
</g>
<g>
</g>
<g>
</g>
<g>
</g>
<g>
</g>
<g>
</g>
<g>
</g>
<g>
</g>
<g>
</g>
<g>
</g>
<g>
</g>
<g>
</g>
</svg>
