<?xml version="1.0" encoding="utf-8"?>
<!-- Generator: Adobe Illustrator 17.0.0, SVG Export Plug-In . SVG Version: 6.00 Build 0)  -->
<!DOCTYPE svg PUBLIC "-//W3C//DTD SVG 1.1//EN" "http://www.w3.org/Graphics/SVG/1.1/DTD/svg11.dtd">
<svg version="1.1" id="Layer_1" xmlns="http://www.w3.org/2000/svg" xmlns:xlink="http://www.w3.org/1999/xlink" x="0px" y="0px"
	 width="525.7px" height="790.6px" viewBox="0 0 525.7 790.6" enable-background="new 0 0 525.7 790.6" xml:space="preserve">
<g>
	<path d="M227.4,28.1c1.4,0,2.8-4.2,4.2-11.3l267.3,22.5c1.4,0,1.4-1.4,1.4-2.8s0-2.8-1.4-2.8L231.6,11.3c0-7,0-11.3-1.4-11.3
		s-2.8,4.2-4.2,11.3h-1.4c-1.4,0-1.4,1.4-1.4,2.8s0,2.8,1.4,2.8h1.4C224.6,23.9,226,28.1,227.4,28.1z"/>
	<path d="M503.1,18.3c-21.1,0-18.3,16.9-25.3,18.3c-11.3,4.2-42.2,9.8-83,32.4c-40.8,23.9-66.1,54.9-106.9,70.3
		c-40.8,15.5-64.7,29.5-102.7,59.1c9.8,19.7,7,38,7,38s-28.1,15.5-74.6,143.5c-19.7,54.9-16.9,61.9,23.9,73.2
		c39.4,11.3,64.7,15.5,64.7,15.5l-11.3,50.6c0,0,98.5-57.7,112.5-77.4c14.1-19.7,12.7-28.1-25.3-42.2c-16.9-5.6-52-15.5-66.1-19.7
		c-32.4-8.4-68.9,23.9-68.9,23.9s21.1-29.5,54.9-36.6c9.8-1.4,47.8-19.7,60.5-43.6c12.7-23.9,11.3-38,11.3-38s19.7-15.5,40.8-28.1
		c11.3-5.6,16.9-7,16.9-7s7-8.4,2.8-30.9c15.5,28.1-9.8,57.7-14.1,81.6c-5.6,23.9-1.4,54.9-1.4,64.7c0,11.3,16.9,43.6,16.9,43.6
		l45-29.5c0,0-22.5-21.1-26.7-26.7c-2.8-5.6,16.9-49.2,19.7-63.3c19.7-70.3,39.4-97.1,33.8-128c-4.2,0-9.8-1.4-15.5-2.8
		c-22.5-5.6-43.6-18.3-43.6-29.5c0-5.6,11.3-21.1,26.7-28.1c21.1-9.8,39.4-12.7,60.5-7c16.9-9.8,25.3-11.3,33.8-16.9
		c23.9-12.7,38-21.1,43.6-26.7C527.1,38,532.7,18.3,503.1,18.3z"/>
	<path d="M459.5,137.9c1.4-11.3-8.4-23.9-18.3-32.4c-5.6-4.2-16.9-7-28.1-7c-19.7,4.2-23.9,29.5-18.3,40.8c-8.4-8.4-7-26.7,5.6-38
		c-7,1.4-11.3,1.4-19.7,5.6c-15.5,5.6-25.3,18.3-26.7,23.9c-2.8,8.4,16.9,22.5,36.6,28.1v1.4c1.4,0,2.8,1.4,4.2,1.4
		c5.6,2.8,11.3,4.2,15.5,4.2C434.2,168.8,456.7,160.4,459.5,137.9z"/>
	<path d="M525.7,296.8c0,0-462.8,340.4-483.9,354.5C20.6,666.8-23,649.9,15,626c36.6-25.3,491-337.6,491-337.6L525.7,296.8z"/>
	<path d="M521.4,758.2c-4.2-14.1-105.5-372.8-105.5-372.8l-88.6,70.3c0,0,23.9-1.4,45,7c28.1,9.8,18.3,36.6,35.2,42.2
		c7,1.4,11.3,2.8,15.5,2.8c30.9,122.4,61.9,244.8,66.1,264.5C497.5,810.3,528.5,780.7,521.4,758.2z"/>
	<path d="M370.9,226.5l-14.1,14.1c0,0,14.1,57.7,33.8,135c7-4.2,12.7-8.4,19.7-12.7C387.8,285.6,370.9,226.5,370.9,226.5z"/>
</g>
<g>
</g>
<g>
</g>
<g>
</g>
<g>
</g>
<g>
</g>
<g>
</g>
<g>
</g>
<g>
</g>
<g>
</g>
<g>
</g>
<g>
</g>
<g>
</g>
<g>
</g>
<g>
</g>
<g>
</g>
</svg>
