<?xml version="1.0" encoding="utf-8"?>
<!-- Generator: Adobe Illustrator 17.0.0, SVG Export Plug-In . SVG Version: 6.00 Build 0)  -->
<!DOCTYPE svg PUBLIC "-//W3C//DTD SVG 1.1//EN" "http://www.w3.org/Graphics/SVG/1.1/DTD/svg11.dtd">
<svg version="1.1" id="Layer_1" xmlns="http://www.w3.org/2000/svg" xmlns:xlink="http://www.w3.org/1999/xlink" x="0px" y="0px"
	 width="612px" height="727px" viewBox="0 0 612 727" enable-background="new 0 0 612 727" xml:space="preserve">
<g>
	<path d="M584.3,528.9c-8.6-5.7-20.1-7.7-30.6-5.7c-22,4.8-36.3,25.8-31.6,47.8c4.8,22,25.8,36.3,47.8,31.6
		c22-4.8,36.3-25.8,31.6-47.8C599.6,544.2,592.9,534.7,584.3,528.9z"/>
	<path d="M396.8,359.7c7.6-9.6,14.3-21,21-33.5c4.8-8.6,11.5-22.9,15.3-32.5c34.4-79.4,54.5-209.4,54.5-209.4L431.3,113
		c-28.7,83.2-58.3,134.8-88.9,177.9c-22,36.3-66,77.5-71.7,82.2c1.9-21,1.9-64.1-4.8-92.8C244.8,169.4,174,96.7,174,96.7l-44.9,27.7
		c0,0,42.1,60.2,60.2,140.6c0,1.9,4.8,24.9,4.8,29.6c4.8,33.5,3.8,68.8-5.7,104.2c-26.8,97.5,22,131,66,159.7
		c51.6,33.5,141.5,50.7,141.5,50.7c-2.9,6.7-6.7,12.4-9.6,18.2c-11.5,19.1-33.5,41.1-64.1,44.9c-29.6,6.7-60.2-1.9-59.3,1
		l-10.5,41.1c1-1.9,29.6,14.3,75.5,12.4c45.9,2.9,99.5-35.4,113.8-64.1c27.7-43,50.7-139.6,50.7-139.6s-140.6-3.8-197-60.2
		C349,422.8,373.9,390.3,396.8,359.7z"/>
	<path d="M292.6,25l6.7-3.8c0,0-28.7-28.7-65-6.7C89.9,101.5,85.1,105.3,0,160.8l5.7,9.6c86.1-50.7,102.3-59.3,238.1-139.6
		C243.8,30.7,274.4,12.6,292.6,25z"/>
	<path d="M547,6.8C397.8,86.2,392.1,90,304.1,139.7l4.8,9.6C397.8,104.4,415,96.7,555.6,23.1c0,0,31.6-15.3,48.8-2.9l7.7-2.9
		C612,17.3,584.3-13.3,547,6.8z"/>
</g>
<g>
</g>
<g>
</g>
<g>
</g>
<g>
</g>
<g>
</g>
<g>
</g>
<g>
</g>
<g>
</g>
<g>
</g>
<g>
</g>
<g>
</g>
<g>
</g>
<g>
</g>
<g>
</g>
<g>
</g>
</svg>
