<?xml version="1.0" encoding="utf-8"?>
<!-- Generator: Adobe Illustrator 17.0.0, SVG Export Plug-In . SVG Version: 6.00 Build 0)  -->
<!DOCTYPE svg PUBLIC "-//W3C//DTD SVG 1.1//EN" "http://www.w3.org/Graphics/SVG/1.1/DTD/svg11.dtd">
<svg version="1.1" id="Layer_1" xmlns="http://www.w3.org/2000/svg" xmlns:xlink="http://www.w3.org/1999/xlink" x="0px" y="0px"
	 width="534.8px" height="793.5px" viewBox="0 0 534.8 793.5" enable-background="new 0 0 534.8 793.5" xml:space="preserve">
<g>
	<g>
		<path d="M370.1,13.2L361.3,0C343.6,10.3,109.5,160.5,31.5,214.9c-45.6,32.4-38.3,103,0,108.9c67.7,11.8-4.4-69.2,16.2-91.3
			C119.9,184,340.7,32.4,370.1,13.2z"/>
		<path d="M414.3,400.4c-41.2-97.2-163.4-159-163.4-159s134-58.9,142.8-101.6c10.3-44.2-54.5-92.7-54.5-92.7l35.3-25
			c0,0,88.3,51.5,88.3,122.2c0,32.4-36.8,75.1-63.3,95.7c63.3,44.2,156,173.7,131,356.3c-14.7,108.9-88.3,197.3-88.3,197.3
			l-48.6-30.9c0,0,51.5-63.3,64.8-141.3c11.8-69.2-2.9-107.5-2.9-107.5s-20.6,57.4-86.9,128.1c-64.8,67.7-145.7,128.1-145.7,128.1
			l-36.8-44.2C184.6,724.3,365.7,590.3,414.3,400.4z"/>
		<path d="M293.6,164.9c0-10.3-4.4-20.6-11.8-28s-17.7-11.8-28-11.8c-22.1,0-39.7,17.7-41.2,39.7c0,22.1,17.7,39.7,39.7,41.2
			C275.9,204.6,293.6,187,293.6,164.9z"/>
	</g>
</g>
<g>
</g>
<g>
</g>
<g>
</g>
<g>
</g>
<g>
</g>
<g>
</g>
<g>
</g>
<g>
</g>
<g>
</g>
<g>
</g>
<g>
</g>
<g>
</g>
<g>
</g>
<g>
</g>
<g>
</g>
</svg>
