<?xml version="1.0" encoding="utf-8"?>
<!-- Generator: Adobe Illustrator 18.1.1, SVG Export Plug-In . SVG Version: 6.00 Build 0)  -->
<svg version="1.1" id="Layer_1" xmlns="http://www.w3.org/2000/svg" xmlns:xlink="http://www.w3.org/1999/xlink" x="0px" y="0px"
	 viewBox="0 0 25.6 46.1" enable-background="new 0 0 25.6 46.1" xml:space="preserve">
<g>
	<path d="M19.4,28.8H6.2c-0.2,0-0.4,0.1-0.5,0.2c0,0.1-0.1,0.1-0.1,0.2c0,0.1,0,0.2,0.1,0.2l5.5,8.1v8.6h3.2v-8.8l5.5-7.8
		c0.1-0.1,0.2-0.3,0.1-0.4C19.8,28.9,19.6,28.8,19.4,28.8z M12.8,0C5.7,0,0,5.7,0,12.8c0,7.1,5.7,12.8,12.8,12.8
		c7.1,0,12.8-5.7,12.8-12.8C25.6,5.7,19.8,0,12.8,0z"/>
</g>
<g>
</g>
<g>
</g>
<g>
</g>
<g>
</g>
<g>
</g>
<g>
</g>
<g>
</g>
<g>
</g>
<g>
</g>
<g>
</g>
<g>
</g>
<g>
</g>
<g>
</g>
<g>
</g>
<g>
</g>
</svg>
