<?xml version="1.0" encoding="utf-8"?>
<!-- Generator: Adobe Illustrator 17.0.0, SVG Export Plug-In . SVG Version: 6.00 Build 0)  -->
<!DOCTYPE svg PUBLIC "-//W3C//DTD SVG 1.1//EN" "http://www.w3.org/Graphics/SVG/1.1/DTD/svg11.dtd">
<svg version="1.1" id="Layer_1" xmlns="http://www.w3.org/2000/svg" xmlns:xlink="http://www.w3.org/1999/xlink" x="0px" y="0px"
	 width="479.2px" height="792.1px" viewBox="0 0 479.2 792.1" enable-background="new 0 0 479.2 792.1" xml:space="preserve">
<g>
	<g>
		<g>
			<path d="M378.2,604.4c-49.8-65.4-82.5-155-92.4-211.9c-8.5-42.7-11.4-85.3-5.7-126.5c19.9-2.8,41.2-7.1,62.6-11.4
				c28.4-8.5,96.7-31.3,108.1-98.1c2.8-45.5-15.6-71.1-24.2-81c7.1-12.8,10-28.4,4.3-42.7c-21.3-59.7-108.1-31.3-91,32.7
				c5.7,19.9,27,32.7,48.3,31.3c4.3,10,12.8,31.3,7.1,49.8c-4.3,21.3-45.5,38.4-71.1,45.5c-41.2,11.4-89.6,14.2-137.9,19.9
				c-29.9,4.3-85.3,14.2-125.1,41.2C21.3,278.8,1.4,310,0,310l31.3,28.4c1.4,1.4,24.2-21.3,56.9-37s76.8-19.9,106.6-24.2h1.4
				c-2.8,39.8,0,79.6,7.1,119.4c-25.6,25.6-49.8,56.9-61.1,92.4C119.4,540.4,126.5,630,155,691.1s65.4,101,65.4,101l39.8-29.9
				c1.4-1.4-27-41.2-44.1-95.3c-18.5-54-17.1-118-1.4-150.7c2.8-10,8.5-19.9,14.2-29.9c21.3,55.5,55.5,118,96.7,163.5
				c58.3,71.1,120.9,109.5,120.9,110.9l32.7-41.2C479.2,715.3,425.1,671.2,378.2,604.4z M358.3,57c-5.7-10-1.4-28.4,11.4-37
				c17.1-11.4,38.4-2.8,44.1,17.1c4.3,14.2-5.7,32.7-15.6,35.5C383.9,81.1,362.6,72.6,358.3,57z M243.1,176.4
				c22.8,1.4,42.7-14.2,44.1-37s-14.2-42.7-37-44.1c-11.4-1.4-21.3,2.8-29.9,10c-8.5,7.1-12.8,17.1-14.2,28.4
				C203.3,155.1,220.4,173.5,243.1,176.4z"/>
		</g>
	</g>
</g>
<g>
</g>
<g>
</g>
<g>
</g>
<g>
</g>
<g>
</g>
<g>
</g>
<g>
</g>
<g>
</g>
<g>
</g>
<g>
</g>
<g>
</g>
<g>
</g>
<g>
</g>
<g>
</g>
<g>
</g>
</svg>
