<?xml version="1.0" encoding="utf-8"?>
<!-- Generator: Adobe Illustrator 17.0.0, SVG Export Plug-In . SVG Version: 6.00 Build 0)  -->
<!DOCTYPE svg PUBLIC "-//W3C//DTD SVG 1.1//EN" "http://www.w3.org/Graphics/SVG/1.1/DTD/svg11.dtd">
<svg version="1.1" id="Layer_1" xmlns="http://www.w3.org/2000/svg" xmlns:xlink="http://www.w3.org/1999/xlink" x="0px" y="0px"
	 width="613.2px" height="578.2px" viewBox="0 0 613.2 578.2" enable-background="new 0 0 613.2 578.2" xml:space="preserve">
<g>
	<path d="M258.1,70.7c19.7-2.5,33.2-20.9,29.5-40.6C285.1,10.4,266.7-3.1,247,0.6c-9.8,1.2-17.2,6.1-23.3,13.5
		c-6.1,7.4-8.6,17.2-7.4,25.8C221.2,60.8,238.4,74.3,258.1,70.7z M529.7,418.4c-32-77.4-33.2-184.3-63.9-254.4
		c-20.9-56.5-71.3-125.3-126.6-147.5c0,0-46.7,207.7-116.7,271.6l30.7,20.9c22.1-14.7,40.6-43,55.3-65.1
		c11.1-16,22.1-33.2,30.7-50.4c8.6-16,14.7-32,19.7-47.9c1.2-3.7,2.5-7.4,3.7-12.3c16,16,28.3,34.4,38.1,57.8
		c7.4,14.7,12.3,35.6,18.4,59c-27,19.7-52.8,43-67.6,75c-23.3,38.1-28.3,110.6-12.3,162.2c14.7,52.8,39.3,88.5,38.1,88.5l38.1-19.7
		c2.5-1.2-14.7-36.9-22.1-81.1c-4.9-30.7-2.5-66.4,7.4-97.1c4.9-16,11.1-30.7,20.9-44.2c3.7-6.1,13.5-12.3,13.5-12.3
		c9.8,40.6,20.9,82.3,39.3,120.4c40.6,90.9,109.4,136.4,108.1,136.4l30.7-34.4C614.5,542.6,557.9,497.1,529.7,418.4z M81.1,515.5
		c-17.2,19.7-46.7,17.2-66.4-6.1L0,522.9c17.2,28.3,68.8,43,95.9,6.1c46.7-65.1,132.7-201.5,141.3-217.5l-11.1-7.4
		C208.9,330,121.7,455.3,81.1,515.5z M66.4,508.1c1.2-1.2,3.7-2.5,4.9-3.7c2.5-2.5,3.7-4.9,4.9-7.4c2.5-6.1,2.5-13.5-1.2-18.4
		c-4.9-11.1-16-12.3-16-12.3s-9.8-3.7-19.7,2.5c-11.1,6.1-12.3,22.1-8.6,30.7c3.7,7.4,9.8,12.3,18.4,13.5
		C55.3,513.1,61.4,511.8,66.4,508.1z M56.5,471.3c9.8,1.2,14.7,16,9.8,24.6c-6.1,8.6-22.1,8.6-25.8-2.5
		C36.9,484.8,44.2,468.8,56.5,471.3z"/>
</g>
<g>
</g>
<g>
</g>
<g>
</g>
<g>
</g>
<g>
</g>
<g>
</g>
<g>
</g>
<g>
</g>
<g>
</g>
<g>
</g>
<g>
</g>
<g>
</g>
<g>
</g>
<g>
</g>
<g>
</g>
</svg>
