<?xml version="1.0" encoding="utf-8"?>
<!-- Generator: Adobe Illustrator 17.0.0, SVG Export Plug-In . SVG Version: 6.00 Build 0)  -->
<!DOCTYPE svg PUBLIC "-//W3C//DTD SVG 1.1//EN" "http://www.w3.org/Graphics/SVG/1.1/DTD/svg11.dtd">
<svg version="1.1" id="Layer_1" xmlns="http://www.w3.org/2000/svg" xmlns:xlink="http://www.w3.org/1999/xlink" x="0px" y="0px"
	 width="612px" height="573.8px" viewBox="0 0 612 573.8" enable-background="new 0 0 612 573.8" xml:space="preserve">
<g>
	<path d="M286.7,22.4C233.5,43.7,195,91.2,174.5,145.3c-28.7,68-21.3,156.5-51.6,229.4C95,450.9,41.8,494.3,43.4,496l29.5,32.8
		c-0.8,0,63.9-44.2,103.2-131.1c17.2-36.9,19.7-63.1,28.7-101.6c0,0,9,6.6,13.1,12.3c9.8,13.1,21.3,26.2,26.2,41.8
		c9,28.7,9.8,50.8,4.9,80.3c-7.4,42.6-23.8,77-21.3,77.8l36.9,18c-0.8-0.8,22.9-34.4,36.9-84.4c15.6-50,4.1-103.2-6.6-128.6
		c-11.5-26.2-47.5-67.2-72.9-86c5.7-22.1,10.7-41.8,17.2-56.5c6.6-14.7,18-31.1,27-37.7c0.8,4.1,1.6,7.4,3.3,11.5
		c4.9,15.6,10.7,31.1,18,46.7c8.2,17.2,18.8,32.8,29.5,48.3c14.7,21.3,32,48.3,53.3,63.1l29.5-19.7C331,221.5,286.7,22.4,286.7,22.4
		z"/>
	<path d="M358.8,71.6c19.7,2.5,37.7-10.7,41-30.3c1.6-9.8-0.8-18.8-6.6-27c-6.6-7.4-14.7-12.3-24.6-13.9
		c-19.7-2.5-37.7,10.7-41,30.3C325.3,51.1,339.2,69.1,358.8,71.6z"/>
	<path d="M598.1,494.3c-18.8,22.9-46.7,25.4-63.1,5.7c-39.3-57.3-122.9-178.6-138.5-201.5l-11.5,6.6
		c8.2,14.7,90.1,145.8,135.2,208.1c25.4,36,75.4,22.1,91.8-5.7L598.1,494.3z"/>
	<path d="M194.2,520.5l-4.1,8.2c0,0,29.5,18.8,68.8,39.3l11.5,5.7l8.2-15.6l-11.5-5.7C226.9,532,194.2,520.5,194.2,520.5z"/>
	<path d="M7.4,494.3L0,500.1c0,0,20.5,28.7,50,63.1l8.2,9.8l13.1-11.5l-8.2-9.8C32.8,518.1,7.4,494.3,7.4,494.3z"/>
</g>
<g>
</g>
<g>
</g>
<g>
</g>
<g>
</g>
<g>
</g>
<g>
</g>
<g>
</g>
<g>
</g>
<g>
</g>
<g>
</g>
<g>
</g>
<g>
</g>
<g>
</g>
<g>
</g>
<g>
</g>
</svg>
