<?xml version="1.0" encoding="utf-8"?>
<!-- Generator: Adobe Illustrator 17.0.0, SVG Export Plug-In . SVG Version: 6.00 Build 0)  -->
<!DOCTYPE svg PUBLIC "-//W3C//DTD SVG 1.1//EN" "http://www.w3.org/Graphics/SVG/1.1/DTD/svg11.dtd">
<svg version="1.1" id="Layer_1" xmlns="http://www.w3.org/2000/svg" xmlns:xlink="http://www.w3.org/1999/xlink" x="0px" y="0px"
	 width="610.6px" height="589.3px" viewBox="0 0 610.6 589.3" enable-background="new 0 0 610.6 589.3" xml:space="preserve">
<g>
	<path d="M164.9,574.8c-7.2-1.4-27.5-10.1-47.7-23.1c-24.6-15.9-65.1-43.4-65.1-43.4l-13,10.1c0,0,46.3,31.8,63.7,42
		c27.5,17.4,47.7,28.9,63.7,28.9C166.4,582,166.4,580.6,164.9,574.8z"/>
	<path d="M193.9,389.6c-15.9,5.8-28.9,11.6-47.7,23.1c-30.4,20.3-75.2,53.5-83.9,81c-4.3,14.5,24.6,27.5,46.3,43.4
		c21.7,15.9,56.4,24.6,60.8,17.4c8.7-11.6,8.7-15.9-15.9-37.6c-18.8-14.5-5.8-20.3-5.8-20.3c66.6-24.6,66.6-26,102.7-44.9
		C221.4,437.4,202.6,415.7,193.9,389.6z"/>
	<path d="M319.7,398.3c7.2-20.3-26-123-34.7-128.8c-15.9,10.1-81,20.3-140.3,5.8c14.5,49.2,92.6,104.2,92.6,104.2s-13,0-28.9,5.8
		c4.3,28.9,23.1,50.6,47.7,63.7C290.8,431.6,315.4,414.2,319.7,398.3z"/>
	<path d="M20.3,470.6c-2.9-7.2-5.8-28.9-5.8-53.5c0-28.9,1.4-78.1,1.4-78.1l-14.5-5.8c0,0-1.4,56.4-1.4,75.2
		c0,33.3,1.4,56.4,10.1,69.4C13,475,15.9,473.5,20.3,470.6z"/>
	<path d="M211.2,367.9c-10.1-10.1-20.3-20.3-28.9-31.8c-20.3-4.3-36.2-4.3-69.4-2.9c-37.6,1.4-50.6,4.3-79.6,5.8
		c-14.5,1.4-8.7,36.2-11.6,62.2c-1.4,27.5,7.2,60.8,15.9,60.8c13,1.4,21.7-1.4,24.6-34.7c2.9-23.1,11.6-24.6,11.6-24.6
		s17.4,0,47.7,4.3C143.2,391.1,191,375.1,211.2,367.9z"/>
	<path d="M403.7,311.5c-7.2-7.2-20.3-68-20.3-72.3c0-5.8,34.7-49.2,34.7-72.3c0-11.6-4.3-34.7-10.1-60.8
		c-14.5-5.8-37.6-30.4-33.3-68c-17.4-17.4-56.4-18.8-72.3-15.9C272,10.5,230-14.1,205.4,10.5c-21.7,21.7-20.3,47.7-10.1,68
		c10.1-4.3,40.5-20.3,79.6-40.5c-133.1,83.9-150.5,98.4-162,175.1c-4.3,78.1,183.7,62.2,183.7,62.2s1.4-39.1,7.2-59.3
		s20.3-40.5,20.3-40.5s-10.1,24.6-11.6,46.3c-2.9,20.3,0,55,10.1,60.8c17.4,11.6,62.2,5.8,62.2,5.8s-36.2,11.6-55,8.7
		c26,52.1,24.6,60.8,28.9,79.6c4.3,20.3,26,24.6,33.3,27.5c13,5.8,28.9-7.2,36.2-18.8C435.5,375.1,410.9,318.7,403.7,311.5z"/>
	<path d="M590.3,537.2c-11.6-11.6-57.9,0-86.8-11.6c-21.7-8.7-78.1-112.9-102.7-162c-4.3,1.4-5.8,7.2-10.1,8.7
		c15.9,28.9,78.1,133.1,98.4,164.9c24.6,36.2,75.2,33.3,98.4,36.2C610.6,574.8,601.9,548.8,590.3,537.2z"/>
	<path d="M434,127.7c7.2,4.3,15.9,7.2,20.3,7.2c14.5,0,11.6-2.9,27.5-57.9c0-2.9-4.3-7.2-2.9-8.7c-10.1,1.4-14.5,1.4-33.3,1.4
		C429.7,69.9,431.1,107.5,434,127.7z"/>
	<path d="M416.7,7.7c-24.6,2.9-34.7,20.3-36.2,39.1c0,10.1,1.4,21.7,2.9,31.8c5.8,17.4,20.3,30.4,33.3,39.1c2.9,1.4,5.8,2.9,8.7,4.3
		c-2.9-20.3-5.8-59.3,14.5-56.4c10.1,1.4,27.5,2.9,37.6,2.9C486.1,27.9,442.7,4.8,416.7,7.7z"/>
	<path d="M610.6,502.5c0,10.1-13,13-27.5,13c-15.9,0-27.5-2.9-27.5-13s13-13,27.5-13C597.5,489.4,610.6,492.3,610.6,502.5z"/>
</g>
<g>
</g>
<g>
</g>
<g>
</g>
<g>
</g>
<g>
</g>
<g>
</g>
<g>
</g>
<g>
</g>
<g>
</g>
<g>
</g>
<g>
</g>
<g>
</g>
<g>
</g>
<g>
</g>
<g>
</g>
</svg>
