<?xml version="1.0" encoding="utf-8"?>
<!-- Generator: Adobe Illustrator 17.0.0, SVG Export Plug-In . SVG Version: 6.00 Build 0)  -->
<!DOCTYPE svg PUBLIC "-//W3C//DTD SVG 1.1//EN" "http://www.w3.org/Graphics/SVG/1.1/DTD/svg11.dtd">
<svg version="1.1" id="Layer_1" xmlns="http://www.w3.org/2000/svg" xmlns:xlink="http://www.w3.org/1999/xlink" x="0px" y="0px"
	 width="613.6px" height="472.5px" viewBox="0 0 613.6 472.5" enable-background="new 0 0 613.6 472.5" xml:space="preserve">
<g>
	<path d="M177.5,411.3l-38.2,6.4c-16.6,2.6-52.3,11.5-52.3,12.8l2.5,11.5c0,0,37-2.6,53.5-6.4l38.2-6.4
		c16.6-2.6,52.3-11.5,52.3-12.8l-2.6-11.5C231.1,405,194.1,407.5,177.5,411.3z M602.1,333.6c0,0-17.9,31.9-24.2,47.2l-16.6,37
		c-6.4,15.3-19.1,49.7-19.1,49.7l11.5,5.1c0,0,17.9-31.9,24.2-47.2l16.6-35.7c6.4-15.3,19.1-49.7,19.1-49.7L602.1,333.6z M58.9,41.6
		c-7.7-6.4-17.8-8.9-26.8-7.6C11.8,36.5-2.3,55.6,0.3,76s21.7,34.4,40.8,31.9c20.4-3.8,35.7-21.7,31.9-42.1
		C71.7,55.6,66.6,46.7,58.9,41.6z M579.1,346.3c0,0-93.1-38.2-133.9-86.7c-42.1-51-37-113.5-103.3-149.2
		c-31.9-16.6-147.9-31.9-147.9-31.9s17.8-28.1,76.5-33.2c35.7-2.5,58.6,16.6,58.6,15.3l21.7-29.3c0,1.3-24.2-25.5-76.5-30.6
		c-53.5-5.1-105.8,15.3-128.8,33.1c-37,28-57.4,62.5-67.6,98.2c40.8-1.3,107.1,6.4,161.9,19.1c-150.4,68.8-84.1,246.1-84.1,246.1
		l52.3-7.7c0,0-57.4-174.7,118.6-193.8c16.6,21.7,29.3,51,57.4,86.7c53.6,63.8,172.1,103.3,172.1,103.3L579.1,346.3z"/>
</g>
<g>
</g>
<g>
</g>
<g>
</g>
<g>
</g>
<g>
</g>
<g>
</g>
<g>
</g>
<g>
</g>
<g>
</g>
<g>
</g>
<g>
</g>
<g>
</g>
<g>
</g>
<g>
</g>
<g>
</g>
</svg>
