<?xml version="1.0" encoding="utf-8"?>
<!-- Generator: Adobe Illustrator 17.0.0, SVG Export Plug-In . SVG Version: 6.00 Build 0)  -->
<!DOCTYPE svg PUBLIC "-//W3C//DTD SVG 1.1//EN" "http://www.w3.org/Graphics/SVG/1.1/DTD/svg11.dtd">
<svg version="1.1" id="Layer_1" xmlns="http://www.w3.org/2000/svg" xmlns:xlink="http://www.w3.org/1999/xlink" x="0px" y="0px"
	 width="588.1px" height="788.9px" viewBox="0 0 588.1 788.9" enable-background="new 0 0 588.1 788.9" xml:space="preserve">
<g>
	<path d="M392.2,150.6c41.9,0,74.5-34.2,74.5-74.5C468.3,34.2,434.2,0,392.2,0s-74.5,34.2-74.5,74.5
		C317.7,116.5,350.3,150.6,392.2,150.6z"/>
	<path d="M566.2,180.1c-12.4,0-23.3,10.9-23.3,23.3v153.7l-76.1,4.7L400,212.8c-1.6-4.7-4.7-17.1-14-32.6
		c-10.9-17.1-32.6-31.1-66.8-28c-32.6,3.1-38.8,23.3-38.8,23.3L145.3,442.6l0,0L5.6,683.3c-12.4,23.3-3.1,51.2,18.6,63.7
		c3.1,1.6,7.8,3.1,10.9,4.7c20.2,4.7,41.9-4.7,51.2-23.3l135.1-240.7l12.4,7.8l97.8,124.2v108.7c0,23.3,18.6,43.5,43.5,43.5
		c23.3,0,41.9-18.6,41.9-43.5V604.1c0-9.3-3.1-18.6-9.3-26.4l-77.6-99.4c21.7-46.6,49.7-99.4,62.1-124.2l21.7,48.1
		c4.7,12.4,15.5,20.2,28,20.2l99.4-4.7v347.9c0,12.4,10.9,23.3,23.3,23.3s23.3-10.9,23.3-23.3V205
		C589.5,191,578.6,180.1,566.2,180.1z"/>
	<path d="M81.7,340.1c26.4,12.4,54.4-3.1,65.2-28l74.5-144.4c0,0,7.8-35.7-18.6-49.7c-24.8-14-49.7-9.3-55.9-1.6l-91.6,177
		C55.3,293.5,41.3,319.9,81.7,340.1z"/>
</g>
<g>
</g>
<g>
</g>
<g>
</g>
<g>
</g>
<g>
</g>
<g>
</g>
<g>
</g>
<g>
</g>
<g>
</g>
<g>
</g>
<g>
</g>
<g>
</g>
<g>
</g>
<g>
</g>
<g>
</g>
</svg>
