<?xml version="1.0" encoding="utf-8"?>
<!-- Generator: Adobe Illustrator 17.0.0, SVG Export Plug-In . SVG Version: 6.00 Build 0)  -->
<!DOCTYPE svg PUBLIC "-//W3C//DTD SVG 1.1//EN" "http://www.w3.org/Graphics/SVG/1.1/DTD/svg11.dtd">
<svg version="1.1" id="Layer_1" xmlns="http://www.w3.org/2000/svg" xmlns:xlink="http://www.w3.org/1999/xlink" x="0px" y="0px"
	 width="612.2px" height="567.5px" viewBox="0 0 612.2 567.5" enable-background="new 0 0 612.2 567.5" xml:space="preserve">
<g>
	<path d="M306.1,132.4c17.1,5.7,35.4-3.4,40-20.6c2.3-8,2.3-17.1-2.3-24c-3.4-8-10.3-13.7-18.3-16c-16-6.9-34.3,3.4-40,19.4
		C279.9,108.5,290.1,126.7,306.1,132.4z M171.4,228.4c17.1-13.7,36.5-27.4,57.1-37.7c0,1.1,1.1,2.3,1.1,2.3
		c10.3,26.3,30.8,69.6,57.1,101.6c25.1,34.3,60.5,50.2,60.5,50.2l14.8-30.8c0-1.1-20.6-14.8-38.8-45.7
		c-18.3-29.7-34.3-70.8-44.5-95.9c-8-20.6-16-46.8-24-68.5c-16,8-33.1,16-49.1,25.1c-14.8,8-29.7,17.1-44.5,26.3
		c-51.4,33.1-94.8,76.5-87.9,142.7c3.4,38.8,9.1,76.5,3.4,105C67.5,459-3.3,461.3,0.1,463.6l5.7,41.1c0-1.1,16,0,43.4-8
		c26.3-5.7,69.6-34.3,81.1-81.1c12.6-43.4,6.9-86.8,5.7-123.3c0-5.7,0-10.3,0-14.8c10.3,11.4,19.4,24,25.1,37.7
		c18.3,30.8,32,90.2,27.4,143.9c-3.4,53.7-17.1,97.1-14.8,97.1l36.5,11.4c-1.1,0,18.3-44.5,27.4-103.9c10.3-59.4,0-135.9-24-177
		C204.5,267.2,189.7,246.6,171.4,228.4z M607.6,63.9c0,1.1-16,0-43.4,8c-26.3,5.7-69.6,34.3-81.1,81.1
		c-12.6,43.4-6.9,86.8-5.7,123.3c0,5.7,0,10.3,0,14.8c-10.3-11.4-19.4-24-25.1-37.7c-18.3-30.8-32-90.2-27.4-143.9
		c2.3-53.7,16-98.2,13.7-98.2L402,0c1.1,0-18.3,44.5-27.4,103.9c-10.3,59.4,0,135.9,24,177c11.4,22.8,26.3,43.4,43.4,61.7
		c-27.4,22.8-61.7,42.2-95.9,57.1l25.1,59.4c42.2-18.3,82.2-40,119.9-73.1c21.7-16,57.1-66.2,48-113c-3.4-38.8-9.1-77.6-3.4-105
		c9.1-55.9,79.9-58.2,76.5-60.5L607.6,63.9z M315.3,423.6c-17.1-5.7-35.4,3.4-40,20.6c-2.3,8-2.3,17.1,2.3,24
		c3.4,8,10.3,13.7,18.3,16c17.1,5.7,35.4-3.4,40-20.6C340.4,447.6,331.2,429.3,315.3,423.6z"/>
</g>
<g>
</g>
<g>
</g>
<g>
</g>
<g>
</g>
<g>
</g>
<g>
</g>
<g>
</g>
<g>
</g>
<g>
</g>
<g>
</g>
<g>
</g>
<g>
</g>
<g>
</g>
<g>
</g>
<g>
</g>
</svg>
