<?xml version="1.0" encoding="utf-8"?>
<!-- Generator: Adobe Illustrator 17.0.0, SVG Export Plug-In . SVG Version: 6.00 Build 0)  -->
<!DOCTYPE svg PUBLIC "-//W3C//DTD SVG 1.1//EN" "http://www.w3.org/Graphics/SVG/1.1/DTD/svg11.dtd">
<svg version="1.1" id="Layer_1" xmlns="http://www.w3.org/2000/svg" xmlns:xlink="http://www.w3.org/1999/xlink" x="0px" y="0px"
	 width="612px" height="505.3px" viewBox="0 0 612 505.3" enable-background="new 0 0 612 505.3" xml:space="preserve">
<g>
	<path d="M210.6,66.9c18.5-3.7,29.6-22.2,25.9-40.6c-2.5-8.6-7.4-16-14.8-20.9c-7.4-4.9-16-6.2-25.9-4.9
		c-18.5,3.7-29.6,22.2-25.9,40.6C173.7,59.6,192.1,70.6,210.6,66.9z M567.7,328l44.3-45.6c-25.9-25.9-67.7-54.2-114.5-51.7
		c-23.4,1.2-43.1,7.4-60.3,14.8c14.8-41.9,18.5-97.3-6.2-133c-9.9-14.8-22.2-28.3-36.9-38.2c-20.9-13.5-45.6-22.2-70.2-25.9
		C311.6,47.2,298,46,285.7,46c-6.2,0-25.9,1.2-28.3,1.2c4.9,12.3,12.3,52.9,11.1,72.7c0,25.9-6.2,69-23.4,98.5
		c-9.9,16-20.9,25.9-29.6,33.2c-19.7-24.6-30.8-57.9-30.8-91.1l1.2-18.5v-4.9L141.7,115l-1.2,1.2l-1.2,1.2l-7.4,7.4
		c-9.9,9.9-18.5,18.5-28.3,25.9c-18.5,16-35.7,28.3-51.7,36.9C21,206.1-1.2,212.2,0,212.2l9.9,39.4c1.2,0,27.1-6.2,64-24.6
		c18.5-8.6,38.2-22.2,59.1-38.2c6.2,57.9,38.2,121.9,101,147.8c45.6,17.2,89.9,14.8,126.8,6.2c2.5,17.2,8.6,32,17.2,45.6
		c54.2,85,125.6,115.8,125.6,117l22.2-35.7c2.5-1.2-61.6-38.2-99.7-107.1c-7.4-13.5-9.9-25.9-9.9-39.4
		C482.8,289.8,522.2,280,567.7,328z M374.4,234.4c-4.9,11.1-9.9,25.9-12.3,43.1c-32,11.1-70.2,16-105.9,4.9
		c-3.7-1.2-6.2-2.5-9.9-3.7c11.1-7.4,24.6-18.5,35.7-33.2c27.1-36.9,39.4-89.9,39.4-121.9c0-2.5,0-6.2,0-8.6
		c23.4,4.9,44.3,14.8,52.9,32C387.9,163,389.2,193.8,374.4,234.4z"/>
</g>
<g>
</g>
<g>
</g>
<g>
</g>
<g>
</g>
<g>
</g>
<g>
</g>
<g>
</g>
<g>
</g>
<g>
</g>
<g>
</g>
<g>
</g>
<g>
</g>
<g>
</g>
<g>
</g>
<g>
</g>
</svg>
