<?xml version="1.0" encoding="utf-8"?>
<!-- Generator: Adobe Illustrator 17.0.0, SVG Export Plug-In . SVG Version: 6.00 Build 0)  -->
<!DOCTYPE svg PUBLIC "-//W3C//DTD SVG 1.1//EN" "http://www.w3.org/Graphics/SVG/1.1/DTD/svg11.dtd">
<svg version="1.1" id="Layer_1" xmlns="http://www.w3.org/2000/svg" xmlns:xlink="http://www.w3.org/1999/xlink" x="0px" y="0px"
	 width="611.8px" height="613.5px" viewBox="0 0 611.8 613.5" enable-background="new 0 0 611.8 613.5" xml:space="preserve">
<g>
	<path d="M390.3,125.7c22.2-5.9,37-28.1,32.5-51.7c-3-10.3-8.9-20.7-19.2-26.6c-10.3-5.9-20.7-7.4-32.5-5.9
		c-22.2,5.9-37,28.1-31,51.7C344.5,116.8,366.7,131.6,390.3,125.7z M585.4,430.2c-29.6-37-87.2-63.6-149.3-71
		c4.4-42.9,7.4-91.7,7.4-137.5c22.2-3,44.3-8.9,63.6-16.3c34-14.8,78.3-44.3,91.7-97.6C610.6,53.2,575.1,0,575.1,0l-44.3,25.1
		c0,0,54.7,84.3-65,124.2c-99,32.5-350.3,22.2-351.8,20.7v44.3c1.5,1.5,93.1,11.8,207,13.3c8.9,0,20.7,0,32.5,0
		c1.5,50.3-3,93.1-8.9,131.6c-8.9,1.5-16.3,3-23.7,5.9C121.3,422.8-2.9,563.2,0.1,563.2l35.5,35.5c0,0,66.5-60.6,229.1-133
		c73.9-32.5,180.3-44.3,252.8,5.9c60.6,42.9,13.3,130.1,14.8,130.1l54.7,11.8C588.4,615,643.1,504.1,585.4,430.2z"/>
</g>
<g>
</g>
<g>
</g>
<g>
</g>
<g>
</g>
<g>
</g>
<g>
</g>
<g>
</g>
<g>
</g>
<g>
</g>
<g>
</g>
<g>
</g>
<g>
</g>
<g>
</g>
<g>
</g>
<g>
</g>
</svg>
