<?xml version="1.0" encoding="utf-8"?>
<!-- Generator: Adobe Illustrator 17.0.0, SVG Export Plug-In . SVG Version: 6.00 Build 0)  -->
<!DOCTYPE svg PUBLIC "-//W3C//DTD SVG 1.1//EN" "http://www.w3.org/Graphics/SVG/1.1/DTD/svg11.dtd">
<svg version="1.1" id="Layer_1" xmlns="http://www.w3.org/2000/svg" xmlns:xlink="http://www.w3.org/1999/xlink" x="0px" y="0px"
	 width="611.1px" height="498.1px" viewBox="0 0 611.1 498.1" enable-background="new 0 0 611.1 498.1" xml:space="preserve">
<g>
	<path d="M336.3,376.1c-13.4-32.1-72.3-67-99.1-75c-96.4-29.5-113.8-79-137.9-83c-32.1-5.4-67-4-76.3-16.1c0,0-9.4,6.7,54.9,49.5
		c14.7,9.4,222.3,151.3,246.4,155.3C340.3,409.6,347,402.9,336.3,376.1z"/>
	<path d="M535.8,431c17.4,5.4,40.2,12.1,58.9,17.4c8-2.7,24.1-8,12.1-14.7c-8-5.4-72.3-21.4-89.7-30.8c-37.5-18.7-89.7-67-99.1-89.7
		c-9.4-22.8-18.7-25.4-36.2-40.2c-13.4-12.1-26.8-20.1-79-46.9c-18.7-9.4-67-25.4-97.8-45.5c-37.5-25.4-49.5-56.2-76.3-67
		s-92.4-9.4-112.5,9.4c-28.1,25.4-16.1,56.2,12.1,72.3c21.4,12.1,46.9,6.7,75,16.1c-13.4-17.4-20.1-36.2-20.1-36.2
		s10.7,20.1,34.8,44.2c77.7,77.7,112.5,50.9,188.8,104.5c10.7,8,42.9,24.1,65.6,65.6c17.4,32.1,80.4,53.6,99.1,69.6
		C489,475.2,493,498,501,498c8,1.3,14.7-10.7,44.2-4c38.8,8,57.6-12.1,61.6-21.4c1.3-2.7,0-5.4-2.7-8c-29.5-5.4-46.9-13.4-69.6-18.7
		c-26.8-6.7-73.7-36.2-96.4-61.6c-24.1-29.5-30.8-49.5-37.5-62.9c-6.7-12.1-25.4-25.4-53.6-40.2c-54.9-28.1-58.9-42.9-58.9-42.9
		s20.1,17.4,62.9,37.5c30.8,14.7,42.9,20.1,54.9,37.5c2.7,4,4,8,6.7,13.4c0-1.3,1.3-1.3,4,0c8,5.4,22.8,28.1,28.1,49.5l0,0
		C466.2,401.6,501,419,535.8,431z"/>
	<path d="M420.7,419c6.7,13.4,6.7,25.4-9.4,34.8c-21.4,12.1-71-4-105.8-26.8C272,404.2,83.2,273,57.8,255.6c0,0-45.5-25.4-38.8-9.4
		c5.4,12.1,26.8,28.1,113.8,87s166.1,113.8,184.8,125.9c48.2,33.5,103.1,30.8,124.5,10.7c10.7-9.4,12.1-24.1,9.4-37.5
		C439.4,428.3,430,424.3,420.7,419z"/>
	<path d="M56.4,37.3c0-4,0-6.7,1.3-9.4c1.3-2.7,2.7-4,5.4-4c2.7,0,16.1,2.7,28.1,12.1c-1.3-4-1.3-8-4-10.7C79.2,3.8,47-8.2,18.9,6.5
		C-11.9,23.9,4.2,70.8,4.2,70.8l16.1,13.4c1.3,5.4,2.7,10.7,2.7,20.1c25.4-5.4,45.5-4,52.2-2.7C61.8,86.8,57.8,72.1,56.4,52
		C56.4,46.7,55.1,41.3,56.4,37.3z M92.6,40c-22.8-12.1-32.1-13.4-33.5,6.7c-1.3,37.5,4,41.5,14.7,54.9c5.4-2.7,16.1-6.7,18.7-18.7
		C95.3,68.1,95.3,53.4,92.6,40z"/>
</g>
<g>
</g>
<g>
</g>
<g>
</g>
<g>
</g>
<g>
</g>
<g>
</g>
<g>
</g>
<g>
</g>
<g>
</g>
<g>
</g>
<g>
</g>
<g>
</g>
<g>
</g>
<g>
</g>
<g>
</g>
</svg>
