<?xml version="1.0" encoding="utf-8"?>
<!-- Generator: Adobe Illustrator 17.0.0, SVG Export Plug-In . SVG Version: 6.00 Build 0)  -->
<!DOCTYPE svg PUBLIC "-//W3C//DTD SVG 1.1//EN" "http://www.w3.org/Graphics/SVG/1.1/DTD/svg11.dtd">
<svg version="1.1" id="Layer_1" xmlns="http://www.w3.org/2000/svg" xmlns:xlink="http://www.w3.org/1999/xlink" x="0px" y="0px"
	 width="612px" height="393.4px" viewBox="0 0 612 393.4" enable-background="new 0 0 612 393.4" xml:space="preserve">
<g>
	<path d="M30.1,72.5c20.1,4.2,39.3-9.2,42.6-29.3C76.1,23.2,63.5,4,43.5,0.6c-10-1.7-19.2,0-27.6,5.9S2.5,20.7,0.8,29.9
		C-3.3,49.9,10,69.2,30.1,72.5z"/>
	<path d="M118.7,109.3C75.2,86.7,8.4,111.8,8.4,111.8c-2.5,20.9,30.9,40.1,52.7,51c245,119.6,463.2,208.2,476.6,214L612,376
		C612,376.8,181.4,146.9,118.7,109.3z"/>
	<path d="M393.8,366C231.6,288.2,143.8,248.9,5,182l-5,11.7c137.1,72.7,205.7,112,386.3,193.1c43.5,20.9,71.1-15,71.1-15l-8.4-4.2
		C430.6,382.7,393.8,366,393.8,366z"/>
</g>
<g>
</g>
<g>
</g>
<g>
</g>
<g>
</g>
<g>
</g>
<g>
</g>
<g>
</g>
<g>
</g>
<g>
</g>
<g>
</g>
<g>
</g>
<g>
</g>
<g>
</g>
<g>
</g>
<g>
</g>
</svg>
