<?xml version="1.0" encoding="utf-8"?>
<!-- Generator: Adobe Illustrator 17.0.0, SVG Export Plug-In . SVG Version: 6.00 Build 0)  -->
<!DOCTYPE svg PUBLIC "-//W3C//DTD SVG 1.1//EN" "http://www.w3.org/Graphics/SVG/1.1/DTD/svg11.dtd">
<svg version="1.1" id="Layer_1" xmlns="http://www.w3.org/2000/svg" xmlns:xlink="http://www.w3.org/1999/xlink" x="0px" y="0px"
	 width="612.7px" height="435.8px" viewBox="0 0 612.7 435.8" enable-background="new 0 0 612.7 435.8" xml:space="preserve">
<g>
	<g>
		<path d="M248.6,254.7l-4.6,0.9c0,0-225.7-161.6-234-170.9C1.6,75.5-4,58.8,3.5,69.9C11.8,81.1,10,81.1,23,90.4
			S248.6,254.7,248.6,254.7z"/>
		<path d="M60.1,39.3c6.5-0.9,8.4,7.4,13,12.1c4.6,4.6-13-12.1,109.6,105.9c0.9,5.6,0,10.2,0.9,15.8C128.8,121,73.1,67.2,66.6,60.7
			C55.5,49.5,54.6,40.2,60.1,39.3z"/>
		<path d="M101,13.3c0,0,0-11.1-11.1-13S71.3,5.9,71.3,12.4c-0.9,6.5,9.3,23.2,11.1,23.2c1.9,0,4.6-1.9,3.7-5.6
			C87.1,25.4,87.1,19.8,101,13.3z"/>
		<path d="M139.1,36.5c0,0,2.8,4.6,7.4,9.3c4.6,4.6,10.2,6.5,10.2,6.5s-4.6-4.6-8.4-9.3C143.7,39.3,139.1,36.5,139.1,36.5z"/>
		<path d="M114,17c16.7,2.8,24.1,23.2,30.6,29.7c7.4,7.4,14.9,6.5,21.4,16.7c7.4,11.1,13.9,36.2,15.8,43.6
			c1.9,7.4,9.3,12.1,14.9,19.5c8.4,11.1,24.1,43.6,24.1,54.8c0,1.9-1.9,6.5-7.4,6.5c16.7,16.7,37.1,37.1,58.5,58.5l-10.2,4.6
			c0,0-28.8-27.9-61.3-59.4c-2.8-20.4-10.2-39.9-14.9-50.1c-5.6-13-13-25.1-16.7-35.3c-4.6-12.1-8.4-32.5-8.4-32.5
			c0,1.9,2.8,23.2,6.5,33.4c4.6,13.9,14.9,28.8,20.4,49.2c2.8,12.1,7.4,33.4,5.6,37.1c-1.9,5.6-11.1,4.6-22.3,2.8
			c-11.1-1.9-24.1-9.3-24.1-14.9s12.1,0.9,15.8-0.9c8.4-4.6,0.9-34.4-7.4-52c-1.9-4.6-13-19.5-16.7-26.9c13,7.4,19.5,0.9,20.4-1.9
			c0-2.8-2.8-4.6-3.7-5.6c-1.9-0.9-4.6-2.8-6.5-4.6c-3.7-3.7-7.4-4.6-8.4-4.6c0-1.9-2.8-10.2-13.9-25.1
			c-12.1-17.6-23.2-25.1-23.2-25.1l0,0c0,0,9.3,7.4,22.3,23.2c12.1,15.8,13,26.9,13,26.9s5.6,0.9,9.3,5.6s8.4,4.6,7.4,7.4
			s-5.6,2.8-9.3,1.9c-6.5-1.9-12.1-7.4-13-9.3c-3.7-4.6-8.4-12.1-12.1-16.7c-2.8-4.6-8.4-13.9-8.4-13.9S84.3,43.9,84.3,34.7
			C85.2,26.3,96.3,14.2,114,17z"/>
	</g>
	<g>
		<path d="M475.2,320.7c-14.9-8.4-26.9-26.9-46.4-24.1c-8.4-11.1-16.7-25.1-22.3-35.3c-4.6,10.2-11.1,18.6-16.7,28.8
			c7.4,8.4,20.4,23.2,26,25.1c9.3,2.8,29.7,10.2,37.1,13.9c9.3,4.6,18.6,9.3,18.6,18.6c0,20.4-7.4,32.5,0,32.5
			c7.4,0,20.4-12.1,20.4-22.3c0-11.1,10.2-12.1,10.2-21.4C504,327.2,490.1,328.1,475.2,320.7z"/>
		<path d="M326.7,105.2c-9.3,3.7-13,12.1-13,22.3c7.4-3.7,22.3-3.7,27.9,0.9c-6.5-1.9-21.4-2.8-27.9,1.9c0,1.9,0.9,3.7,0.9,5.6
			c3.7,12.1,11.1,20.4,16.7,20.4c6.5,0,13.9-13,15.8-20.4C356.4,110.8,340.6,99.7,326.7,105.2z"/>
		<path d="M492.9,172.1c-4.6,3.7-17.6-1.9-24.1,0.9c-6.5-4.6-29.7-15.8-38.1-16.7c-9.3-0.9-38.1-6.5-46.4-9.3
			c-14.9-5.6-21.4-5.6-33.4-2.8c-1.9,7.4-10.2,16.7-15.8,15.8c-6.5-0.9-9.3-5.6-11.1-13c-2.8,0-10.2,0.9-14.9,9.3
			c-4.6,6.5-13,2.8-26,13.9c-17.6-8.4-31.6-6.5-36.2-21.4c-2.8-9.3-19.5-6.5-17.6,1.9c2.8,13.9,5.6,16.7,13.9,19.5
			c17.6,4.6,19.5,12.1,36.2,20.4c11.1-3.7,26.9-4.6,41.8-10.2c2.8,15.8,23.2,39.9,29.7,50.1c6.5,10.2,11.1,23.2,11.1,23.2
			s4.6-11.1,13-19.5c-7.4,17.6-22.3,52.9-26,71.5c-3.7,18.6-1.9,18.6,1.9,39.9c3.7,21.4,6.5,50.1,1.9,56.6
			c-8.4,5.6-16.7,15.8-26,15.8c-6.5,0-16.7,12.1-0.9,12.1c19.5,0,32.5,0,43.6,0s4.6-19.5,0.9-28.8c-2.8-9.3,1.9-40.9,1.9-53.9
			c0-17.6-5.6-26.9-5.6-26.9s34.4-53.9,40.9-72.4s-13-28.8-15.8-36.2c-6.5-20.4-3.7-36.2-3.7-36.2s-5.6,0-12.1-2.8
			c24.1,0.9,38.1-0.9,50.1-0.9c10.2,6.5,34.4,11.1,41.8,14.9c13,5.6,22.3,4.6,28.8-5.6C503.1,172.1,496.6,168.4,492.9,172.1z"/>
		<path d="M256.1,428.4h222l11.1,7.4c0,0-198.7,0-234,0c-36.2,0-50.1-10.2-46.4-14.9C215.2,411.7,227.3,428.4,256.1,428.4z"/>
		<path d="M394.4,412.6l204.3-88.2h13.9c0,0-180.2,78-217.3,93.8c-36.2,15.8-54.8,15.8-52,10.2C348,420.1,364.7,425.6,394.4,412.6z"
			/>
		<path d="M232.9,133.1c-0.9,0-1.9,1.9-1.9,2.8l70.6,295.3c1.9,0,2.8,0,4.6,0l-71.5-296.2C234.7,134,233.8,133.1,232.9,133.1z"/>
		<path d="M606.2,299.3c-0.9-0.9-3.7,0.9-6.5,4.6L471.5,183.2c-0.9-0.9-1.9,0-2.8,0.9c-0.9,0.9-0.9,1.9-0.9,2.8L596,307.7
			c-2.8,3.7-4.6,6.5-3.7,6.5c0.9,0.9,3.7-0.9,6.5-4.6l0.9,0.9c0.9,0,1.9,0,2.8-0.9c0.9-0.9,0.9-1.9,0.9-2.8h-0.9
			C605.3,303,607.1,300.3,606.2,299.3z"/>
	</g>
</g>
<g>
</g>
<g>
</g>
<g>
</g>
<g>
</g>
<g>
</g>
<g>
</g>
<g>
</g>
<g>
</g>
<g>
</g>
<g>
</g>
<g>
</g>
<g>
</g>
<g>
</g>
<g>
</g>
<g>
</g>
</svg>
