<?xml version="1.0" encoding="utf-8"?>
<!-- Generator: Adobe Illustrator 17.0.0, SVG Export Plug-In . SVG Version: 6.00 Build 0)  -->
<!DOCTYPE svg PUBLIC "-//W3C//DTD SVG 1.1//EN" "http://www.w3.org/Graphics/SVG/1.1/DTD/svg11.dtd">
<svg version="1.1" id="Layer_1" xmlns="http://www.w3.org/2000/svg" xmlns:xlink="http://www.w3.org/1999/xlink" x="0px" y="0px"
	 width="612px" height="778.3px" viewBox="0 0 612 778.3" enable-background="new 0 0 612 778.3" xml:space="preserve">
<g>
	<g>
		<path d="M431.7,320.7c18.2-13.6,22.7-39.4,9.1-59.1c-13.6-18.2-39.4-22.7-59.1-9.1c-9.1,6.1-15.1,16.7-16.7,27.3
			c-1.5,10.6,1.5,22.7,7.6,31.8C387.8,329.8,413.6,334.4,431.7,320.7z M552.9,323.8c-1.5,0-16.7,37.9-54.5,69.7
			c-36.4,33.3-93.9,59.1-130.3,77.3c-15.1,7.6-31.8,15.1-48.5,21.2c-7.6-9.1-13.6-18.2-18.2-27.3c-6.1-13.6-9.1-27.3-9.1-42.4
			c0-19.7,4.5-42.4,13.6-62.1c4.5-9.1,7.6-18.2,12.1-25.8c4.5-6.1,7.6-13.6,12.1-18.2c1.5-1.5,3-3,3-4.5l0,0
			c4.5-6.1,6.1-9.1,7.6-9.1c-22.7-12.1-50-27.3-71.2-40.9c-28.8-16.7-68.2-39.4-83.3-72.7c-18.2-33.3-24.2-63.6-25.8-69.7l-42.4,6.1
			c0,0,0,37.9,16.7,87.9c18.2,51.5,69.7,89.4,98.5,106c-1.5,3-3,7.6-4.5,10.6c-10.6,27.3-19.7,59.1-19.7,93.9
			c0,24.2,4.5,50,15.1,75.7c4.5,9.1,10.6,19.7,16.7,28.8c-16.7,7.6-34.8,16.7-51.5,25.8C151.5,573.7,90.9,613.1,53,663.1
			c-39.4,48.5-53,98.5-53,97l45.4,18.2c1.5,1.5,19.7-37.9,54.5-74.2c34.8-36.4,89.4-66.7,124.2-84.8
			c54.5-28.8,115.1-51.5,175.7-80.3c37.9-18.2,101.5-53,142.4-100c42.4-47,56-100,56-98.5L552.9,323.8z"/>
		<g>
			<g>
				<g>
					<path d="M612,113.2c-6.1,0-24.2-4.5-39.4-12.1C549.9,89,528.7,75.3,506,63.2c-1.5-3-4.5-4.5-6.1-4.5
						c-21.2-10.6-51.5-15.1-65.1,9.1c-7.6,13.6-6.1,28.8-3,42.4c3,13.6,6.1,28.8-9.1,34.8c-16.7,9.1-40.9-10.6-57.6-28.8
						C328.7,76.8,296.9,32.9,256,14.7C225.7,1.1,189.4-8,154.5,10.2c-34.8,21.2-36.4,63.6-31.8,95.4l24.2-3
						c-4.5-28.8-3-59.1,19.7-72.7c21.2-12.1,53-6.1,78.8,4.5c31.8,15.1,65.1,56,103,95.4c18.2,16.7,45.4,48.5,84.8,33.3
						c16.7-9.1,24.2-25.8,21.2-43.9c-1.5-7.6-3-15.1-4.5-21.2c-6.1-30.3,21.2-31.8,40.9-22.7c10.6,4.5,21.2,10.6,31.8,16.7
						c18.2,12.1,37.9,21.2,56,28.8c9.1,4.5,31.8,7.6,31.8,4.5L612,113.2z"/>
				</g>
			</g>
		</g>
	</g>
</g>
<g>
</g>
<g>
</g>
<g>
</g>
<g>
</g>
<g>
</g>
<g>
</g>
<g>
</g>
<g>
</g>
<g>
</g>
<g>
</g>
<g>
</g>
<g>
</g>
<g>
</g>
<g>
</g>
<g>
</g>
</svg>
