<?xml version="1.0" encoding="utf-8"?>
<!-- Generator: Adobe Illustrator 17.0.0, SVG Export Plug-In . SVG Version: 6.00 Build 0)  -->
<!DOCTYPE svg PUBLIC "-//W3C//DTD SVG 1.1//EN" "http://www.w3.org/Graphics/SVG/1.1/DTD/svg11.dtd">
<svg version="1.1" id="Layer_1" xmlns="http://www.w3.org/2000/svg" xmlns:xlink="http://www.w3.org/1999/xlink" x="0px" y="0px"
	 width="612px" height="421.5px" viewBox="0 0 612 421.5" enable-background="new 0 0 612 421.5" xml:space="preserve">
<g>
	<path d="M312.6,64.6c8.4-4.8,14.3-11.9,16.7-20.3s1.2-17.9-2.4-26.2c-9.5-16.7-29.8-22.7-46.5-14.3c-16.7,9.5-22.7,29.8-14.3,46.5
		C275.6,67,295.9,74.1,312.6,64.6z M225.5,371.2c23.9-2.4,50.1-8.4,84.7-17.9c25.1-7.2,50.1-13.1,76.4-16.7c1.2,0,2.4,0,3.6,0
		c27.4-3.6,70.4-6,109.8,0c8.4,1.2,16.7,2.4,23.9,4.8c45.3,9.5,78.7,29.8,77.5,29.8l10.7-14.3c0-1.2-34.6-25.1-82.3-38.2
		c-3.6-1.2-7.2-1.2-10.7-2.4c-1.2-3.6-2.4-8.4-4.8-13.1c-11.9-29.8-27.4-84.7-72.8-105c16.7-52.5,31-99,29.8-99V98l-17.9-31
		c-11.9,9.5-76.4,29.8-83.5,31c-21.5,4.8-46.5,6-68,3.6c-26.2-3.6-53.7-19.1-76.4-32.2c0,0-76.4,131.2-81.1,229.1
		c-1.2,8.4,1.2,19.1,4.8,31H45.3c-22.7-8.4-35.8-16.7-35.8-16.7L0,324.7c0,1.2,34.6,25.1,82.3,38.2S189.7,376,225.5,371.2z
		 M384.1,309.2c-14.3,1.2-28.6,4.8-42.9,7.2c23.9-37,39.4-69.2,58.5-68c1.2,0,3.6,0,4.8,0C397.3,272.2,390.1,292.4,384.1,309.2z
		 M460.5,306.8c-19.1-1.2-37-1.2-52.5,0c4.8-14.3,10.7-33.4,15.5-51.3C437.8,267.4,450.9,290.1,460.5,306.8z M266,149.3
		c3.6,1.2,7.2,2.4,9.5,2.4c56.1,19.1,139.6-19.1,177.8-40.6c-6,17.9-16.7,47.7-28.6,79.9c-8.4-1.2-16.7-2.4-26.2-2.4
		C305.4,203,294.7,290.1,263.6,310.3c-21.5,13.1-45.3,9.5-48.9-16.7C215.9,251.9,239.8,199.4,266,149.3z M504.6,366.4
		c-41.8-7.2-87.1-6-116.9-2.4c-6,1.2-10.7,1.2-16.7,2.4c-22.7,3.6-45.3,9.5-66.8,15.5l0,0c-26.2,7.2-53.7,14.3-81.1,17.9
		c-34.6,4.8-90.7,7.2-136-3.6c-46.5-9.5-78.7-31-78.7-31l-7.2,9.5c0,1.2,33.4,23.9,82.3,35.8c47.7,13.1,106.2,13.1,142,7.2
		c28.6-3.6,56.1-10.7,83.5-17.9l0,0c17.9-4.8,37-9.5,54.9-13.1c8.4-1.2,16.7-3.6,25.1-3.6c34.6-4.8,90.7-7.2,136,3.6
		c37,8.4,64.4,22.7,75.2,28.6l6-10.7c-10.7-7.2-39.4-22.7-77.5-32.2C521.3,370,513,367.6,504.6,366.4z"/>
</g>
<g>
</g>
<g>
</g>
<g>
</g>
<g>
</g>
<g>
</g>
<g>
</g>
<g>
</g>
<g>
</g>
<g>
</g>
<g>
</g>
<g>
</g>
<g>
</g>
<g>
</g>
<g>
</g>
<g>
</g>
</svg>
