<?xml version="1.0" encoding="utf-8"?>
<!-- Generator: Adobe Illustrator 17.0.0, SVG Export Plug-In . SVG Version: 6.00 Build 0)  -->
<!DOCTYPE svg PUBLIC "-//W3C//DTD SVG 1.1//EN" "http://www.w3.org/Graphics/SVG/1.1/DTD/svg11.dtd">
<svg version="1.1" id="Layer_1" xmlns="http://www.w3.org/2000/svg" xmlns:xlink="http://www.w3.org/1999/xlink" x="0px" y="0px"
	 width="612.2px" height="531.6px" viewBox="0 0 612.2 531.6" enable-background="new 0 0 612.2 531.6" xml:space="preserve">
<g>
	<path d="M608.6,215.4c8-14.8,2.3-33.1-12.5-41c-14.8-8-33.1-2.3-41,12.5c-3.4,6.8-4.6,14.8-2.3,22.8c2.3,8,8,13.7,14.8,18.2
		C582.4,234.8,600.6,229.1,608.6,215.4z M507.2,477.5c46.7-12.5,78.6-35.3,78.6-36.5l-10.3-13.7c1.1,0-30.8,19.4-74.1,28.5
		c-43.3,10.3-95.7,9.1-128.8,4.6c-26.2-3.4-51.3-9.1-76.4-16l0,0c-26.2-8-53.6-13.7-80.9-17.1c-34.2-4.6-91.2-4.6-136.8,9.1
		C33.1,449,0,471.8,0,473l10.3,13.7c-1.1,0,30.8-19.4,74.1-28.5c43.3-10.3,95.7-9.1,128.8-4.6c26.2,3.4,51.3,9.1,76.4,16l0,0
		c26.2,6.8,53.6,13.7,80.9,17.1C404.6,491.2,460.4,491.2,507.2,477.5z M590.3,272.4l-50.1-23.9c-8,14.8-18.2,28.5-33.1,35.3
		c-16,11.4-50.1,16-79.8,6.8c21.7-16,41-34.2,60.4-52.4l14.8-16l3.4-3.4l0,0c0,0-4.6-22.8-4.6-18.2l0,0h-1.1l-2.3-1.1l-8-6.8
		c-12.5-5.7-23.9-13.7-36.5-20.5c-29.6-18.2-74.1-55.8-101.4-95.7C323.7,37.6,312.3,0,311.1,0l-13.7,4.6c0,0,11.4,38.7,39.9,80.9
		c27.4,43.3,75.2,82.1,106,102.6c12.5,8,30.8,16,43.3,21.7L476.4,220c-20.5,19.4-72.9,58.1-74.1,59.3
		c-20.5-10.3-33.1-22.8-34.2-21.7l-21.7,21.7c0,0,9.1,10.3,23.9,22.8c-62.7,44.4-159.6,95.7-164.1,95.7l-9.1,6.8
		c14.8-2.3,63.8,2.3,114,19.4c36.5,12.5,82.1,18.2,121.9,16c20.5-1.1,39.9-4.6,59.3-11.4C550.5,408,586.9,329.4,590.3,272.4z
		 M504.9,336.2c-3.4,8-8,13.7-13.7,20.5c-22.8,30.8-90,35.3-158.4,17.1c-9.1-2.3-17.1-3.4-25.1-4.6c28.5-16,58.1-34.2,83.2-51.3
		c4.6,3.4,10.3,5.7,16,9.1C434.2,341.9,475.2,344.2,504.9,336.2z M0,520.8l6.8,9.1c-1.1,0,30.8-19.4,75.2-29.6
		c43.3-10.3,96.9-9.1,129.9-4.6c26.2,3.4,51.3,9.1,77.5,16l0,0c26.2,6.8,52.4,13.7,79.8,17.1c34.2,4.6,90,4.6,135.6-8
		c45.6-11.4,77.5-34.2,77.5-34.2l-6.8-9.1c1.1,0-30.8,19.4-75.2,29.6c-43.3,10.3-96.9,9.1-129.9,4.6c-26.2-3.4-51.3-9.1-77.5-16l0,0
		c-26.2-6.8-52.4-13.7-79.8-17.1c-34.2-4.6-90-4.6-135.6,8C31.9,496.9,0,519.7,0,520.8z"/>
</g>
<g>
</g>
<g>
</g>
<g>
</g>
<g>
</g>
<g>
</g>
<g>
</g>
<g>
</g>
<g>
</g>
<g>
</g>
<g>
</g>
<g>
</g>
<g>
</g>
<g>
</g>
<g>
</g>
<g>
</g>
</svg>
