<?xml version="1.0" encoding="utf-8"?>
<!-- Generator: Adobe Illustrator 17.0.0, SVG Export Plug-In . SVG Version: 6.00 Build 0)  -->
<!DOCTYPE svg PUBLIC "-//W3C//DTD SVG 1.1//EN" "http://www.w3.org/Graphics/SVG/1.1/DTD/svg11.dtd">
<svg version="1.1" id="Layer_1" xmlns="http://www.w3.org/2000/svg" xmlns:xlink="http://www.w3.org/1999/xlink" x="0px" y="0px"
	 width="610.9px" height="485.9px" viewBox="0 0 610.9 485.9" enable-background="new 0 0 610.9 485.9" xml:space="preserve">
<g>
	<path d="M419.3,333.6c-6.8-4.5-15.8-6.8-23.7-4.5c-16.9,3.4-28.2,20.3-24.8,37.2c3.4,16.9,20.3,28.2,37.2,24.8
		c16.9-3.4,28.2-20.3,24.8-37.2C430.5,344.9,426,338.1,419.3,333.6z M273.9,202.9c5.6-7.9,11.3-15.8,15.8-25.9
		c33.8-1.1,68.8-4.5,102.6-10.1c73.3-7.9,218.7-71,218.7-71l-5.6-14.7c0,0-147.6,54.1-217.5,62c-28.2,4.5-57.5,7.9-85.7,9
		c27-62,44-136.4,44-136.4L305.4,4.5c-22.5,64.2-49.6,112.7-72.1,145.4c-2.3,0-4.5,0-7.9-1.1c-14.7-1.1-32.7-3.4-51.8-7.9
		C157.8,56.4,102.6,0,102.6,0L67.6,20.3c0,0,32.7,46.2,46.2,108.2C56.4,115,5.6,99.2,5.6,99.2L0,115c0,1.1,56.4,20.3,118.3,37.2
		c3.4,25.9,2.3,53-4.5,80c-20.3,75.5,16.9,101.4,51.8,122.9C206.3,381,275,394.5,275,394.5c-2.3,4.5-4.5,10.1-7.9,13.5
		c-9,14.7-25.9,31.6-49.6,34.9c-22.5,4.5-46.2-1.1-46.2,1.1l-7.9,31.6c1.1-1.1,23.7,11.3,57.5,10.1c36.1,2.3,76.6-27,87.9-49.6
		c21.4-33.8,39.4-107.1,39.4-107.1s-108.2-2.3-152.2-46.2C237.8,251.3,257,226.5,273.9,202.9z M177,213c1.1-15.8,1.1-31.6,0-47.3
		c13.5,3.4,25.9,5.6,38.3,6.8C196.1,197.2,181.5,210.8,177,213z M461,82.3c14.7-9,21.4-40.6,7.9-57.5c-12.4-18-31.6-19.2-31.6-19.2
		l0,0l0,0c0,1.1-19.2-4.5-36.1,10.1c-18,13.5-20.3,45.1-7.9,57.5C406.9,95.8,441.8,100.3,461,82.3z M412.5,27
		c13.5-13.5,33.8-10.1,42.8,5.6c7.9,12.4,1.1,30.4-6.8,34.9c-11.3,11.3-31.6,7.9-39.4-5.6C402.4,55.2,401.2,36.1,412.5,27z"/>
</g>
<g>
</g>
<g>
</g>
<g>
</g>
<g>
</g>
<g>
</g>
<g>
</g>
<g>
</g>
<g>
</g>
<g>
</g>
<g>
</g>
<g>
</g>
<g>
</g>
<g>
</g>
<g>
</g>
<g>
</g>
</svg>
