<?xml version="1.0" encoding="utf-8"?>
<!-- Generator: Adobe Illustrator 17.0.0, SVG Export Plug-In . SVG Version: 6.00 Build 0)  -->
<!DOCTYPE svg PUBLIC "-//W3C//DTD SVG 1.1//EN" "http://www.w3.org/Graphics/SVG/1.1/DTD/svg11.dtd">
<svg version="1.1" id="Layer_1" xmlns="http://www.w3.org/2000/svg" xmlns:xlink="http://www.w3.org/1999/xlink" x="0px" y="0px"
	 width="571.7px" height="790.5px" viewBox="0 0 571.7 790.5" enable-background="new 0 0 571.7 790.5" xml:space="preserve">
<g>
	<path d="M362.5,129.3c24-3.2,39.9-25.5,36.7-49.5c-3.2-24-25.5-41.5-49.5-36.7c-11.2,1.6-22.4,8-28.7,17.6
		c-6.4,9.6-9.6,20.8-8,31.9C316.2,116.6,338.5,132.5,362.5,129.3z M526.9,590.8c1.6-99,39.9-191.6,17.6-285.8
		c-11.2-75-57.5-158.1-121.4-188.4l-1.6,3.2c-8,12.8-31.9,38.3-43.1,47.9l-91-43.1C201.2,84.6,8,0,8,0L0,17.6
		c0,0,252.3,123,276.2,134.1l71.9,33.5c-1.6,1.6-4.8,1.6-6.4,3.2c-31.9,16-95.8,19.2-127.7-17.6c-12.8-14.4-20.8-31.9-25.5-47.9
		l-51.1-24c-1.6,20.8,1.6,63.9,31.9,108.6c47.9,67.1,153.3,68.7,198,44.7c12.8-4.8,25.5-12.8,38.3-20.8
		c27.1,24,51.1,81.4,57.5,124.5c-103.8,41.5-177.2,140.5-214,242.7c-25.5,75-28.7,138.9-28.7,138.9l51.1,6.4
		c1.6,0,11.2-57.5,39.9-121.4c27.1-63.9,79.8-126.1,118.2-153.3c9.6-6.4,19.2-12.8,28.7-17.6c-3.2,44.7-8,91-6.4,137.3
		c0,121.4,78.2,204.4,76.6,201.2l43.1-35.1C573.2,753.7,520.5,693,526.9,590.8z"/>
</g>
<g>
</g>
<g>
</g>
<g>
</g>
<g>
</g>
<g>
</g>
<g>
</g>
<g>
</g>
<g>
</g>
<g>
</g>
<g>
</g>
<g>
</g>
<g>
</g>
<g>
</g>
<g>
</g>
<g>
</g>
</svg>
