<?xml version="1.0" encoding="utf-8"?>
<!-- Generator: Adobe Illustrator 17.0.0, SVG Export Plug-In . SVG Version: 6.00 Build 0)  -->
<!DOCTYPE svg PUBLIC "-//W3C//DTD SVG 1.1//EN" "http://www.w3.org/Graphics/SVG/1.1/DTD/svg11.dtd">
<svg version="1.1" id="Layer_1" xmlns="http://www.w3.org/2000/svg" xmlns:xlink="http://www.w3.org/1999/xlink" x="0px" y="0px"
	 width="610.8px" height="432px" viewBox="0 0 610.8 432" enable-background="new 0 0 610.8 432" xml:space="preserve">
<g>
	<path d="M358.2,30.6c-27.9,12.1-58.3,46.1-35.2,83.8c23.1,36.4,95.9,17,105.6-17c8.5-32.8,4.9-52.2-13.4-64.4
		C399.5,23.3,371.6,24.5,358.2,30.6z"/>
	<path d="M329.1,126.5c0,0,9.7,43.7,24.3,46.1c38.9,7.3,63.1-58.3,63.1-58.3s-25.5,25.5-58.3,23.1
		C341.2,137.4,329.1,126.5,329.1,126.5z"/>
	<path d="M366.7,178.7c-29.1,9.7-35.2-19.4-43.7-52.2c-10.9-10.9-18.2-31.6-13.4-53.4c0,0-24.3,31.6-53.4,71.6
		c-21.9,30.4-31.6,58.3-43.7,61.9c-12.1,2.4-32.8,18.2-44.9,30.4s-41.3,41.3-41.3,41.3s-59.5,2.4-74.1,29.1
		c-8.5,15.8,9.7,34,35.2,24.3c25.5-9.7,35.2-8.5,52.2-15.8c17-7.3,9.7-8.5,27.9-19.4s60.7-40.1,87.4-54.6
		c26.7-15.8,72.9-61.9,72.9-61.9s-12.1,26.7-46.1,51c-17,12.1-37.6,21.9-32.8,40.1c3.6,19.4,18.2,31.6,51,18.2
		c57.1-24.3,137.2-88.6,137.2-88.6s-24.3,1.2-43.7-6.1C380.1,188.4,371.6,181.1,366.7,178.7z"/>
	<path d="M575.6,390c-12.1-3.6-29.1-27.9-32.8-38.9c-3.6-8.5,2.4-98.4-3.6-109.3c-6.1-10.9-36.4-57.1-49.8-82.6
		c9.7-15.8,29.1-77.7-31.6-109.3c-9.7-4.9-14.6-7.3-23.1-9.7c17,15.8,4.9,72.9-12.1,77.7c-15.8,26.7-23.1,41.3-46.1,54.6
		c27.9,13.4,53.4,12.1,53.4,12.1s-8.5-13.4-6.1-37.6c2.4,18.2,7.3,34,31.6,55.9c19.4,17,47.4,55.9,47.4,55.9s4.9,44.9,8.5,57.1
		c3.6,12.1,4.9,46.1,4.9,59.5c0,24.3,14.6,36.4-1.2,48.6c-7.3,6.1-1.2,9.7,10.9,7.3c10.9-1.2,6.1-17,19.4-18.2
		c17-2.4,32.8,2.4,43.7,10.9c8.5,6.1,21.9,4.9,21.9-3.6C612,410.6,595,396.1,575.6,390z"/>
	<path d="M354.6,28.1c-6.1-10.9-17-25.5-30.4-27.9c-18.2-3.6-66.8,42.5-82.6,58.3c-21.9,21.9-41.3,13.4-46.1,20.6
		c-9.7,14.6-19.4,47.4-4.9,47.4s-3.6-14.6,26.7-18.2c19.4-2.4,27.9-21.9,27.9-21.9s43.7-42.5,63.1-44.9c0,0,2.4,8.5,6.1,23.1
		C326.6,45.1,338.8,35.4,354.6,28.1z"/>
	<polygon points="64.4,313.5 0,341.4 75.3,322 	"/>
</g>
<g>
</g>
<g>
</g>
<g>
</g>
<g>
</g>
<g>
</g>
<g>
</g>
<g>
</g>
<g>
</g>
<g>
</g>
<g>
</g>
<g>
</g>
<g>
</g>
<g>
</g>
<g>
</g>
<g>
</g>
</svg>
