<?xml version="1.0" encoding="utf-8"?>
<!-- Generator: Adobe Illustrator 17.0.0, SVG Export Plug-In . SVG Version: 6.00 Build 0)  -->
<!DOCTYPE svg PUBLIC "-//W3C//DTD SVG 1.1//EN" "http://www.w3.org/Graphics/SVG/1.1/DTD/svg11.dtd">
<svg version="1.1" id="Layer_1" xmlns="http://www.w3.org/2000/svg" xmlns:xlink="http://www.w3.org/1999/xlink" x="0px" y="0px"
	 width="612.3px" height="654.8px" viewBox="0 0 612.3 654.8" enable-background="new 0 0 612.3 654.8" xml:space="preserve">
<g>
	<path d="M184.2,575.8l-7.6,3.4c0,0,10.2,28.9,26.3,65.4l4.2,10.2l13.6-6.8l-4.2-10.2C200.3,602.2,184.2,575.8,184.2,575.8z"/>
	<path d="M399.8,567.4l-6.8,4.2c0,0,12.7,28,32.3,62.8l5.1,9.3l13.6-7.6l-5.9-9.3C418.5,592,399.8,567.4,399.8,567.4z"/>
	<path d="M612,210.9c-2.5-17-18.7-28.9-35.7-26.3c-8.5,0.8-15.3,5.1-20.4,11.9c-5.1,6.8-6.8,15.3-5.9,22.9
		c2.5,17,18.7,28.9,35.7,26.3C602.7,244,614.5,228.7,612,210.9z"/>
	<path d="M567,288.1c-6.8-8.5-14.4-17-22.9-25.5l0,0c-3.4-3.4-6.8-6.8-10.2-10.2c-7.6-7.6-15.3-14.4-22.9-22.1
		c-6.8-5.9-13.6-11.9-21.2-17c-2.5-5.9-6.8-11.9-10.2-17.8c-6.8-8.5-14.4-17-22.9-25.5l0,0c-3.4-3.4-6.8-6.8-10.2-10.2
		c-7.6-7.6-15.3-14.4-22.9-22.1c-7.6-6.8-14.4-12.7-22.1-17.8c-3.4-6.8-6.8-11.9-10.2-17.8c-6.8-8.5-14.4-17-22.9-25.5l0,0
		c-4.2-1.7-7.6-4.2-11.9-8.5c-7.6-7.6-15.3-14.4-22.9-22.1c-7.6-6.8-15.3-13.6-23.8-18.7c-12.7-8.5-27.2-14.4-45-15.3
		c-27.2-1.7-50.1,5.9-70.5,23.8c-28,24.6-42.4,48.4-42.4,48.4l25.5,20.4c0.8,0.8,17.8-19.5,41.6-34.8c25.5-16.1,45.8-11.9,62,0
		c5.9,4.2,11,8.5,16.1,12.7c-28,22.9-49.2,52.6-63.7,81.5c-24.6,50.1-52.6,120.5-101.9,164.7c-46.7,45-98.5,68.8-97.6,70.5
		l17.8,36.5c0-0.8,56.9-19.5,115.4-67.9c39.9-30.6,71.3-77.2,93.4-118c18.7,9.3,36.5,17.8,49.2,28c0.8,0,0.8,0.8,1.7,0.8
		c-19.5,40.7-41.6,88.3-74.7,124.8c-9.3-14.4-15.3-22.9-15.3-22.9l-6.8,4.2c0,0,5.1,11,13.6,28c-2.5,2.5-5.1,5.1-7.6,6.8
		c-45,47.5-96.8,71.3-95.9,73l17.8,36.5c0-0.8,56.9-19.5,115.4-67.9c39.9-30.6,71.3-77.2,93.4-118c18.7,9.3,36.5,17.8,49.2,28l0,0
		c-19.5,39.9-41.6,88.3-73.8,124.8c-8.5-13.6-14.4-21.2-14.4-21.2l-6.8,5.1c0,0,4.2,10.2,12.7,26.3c-2.5,2.5-5.1,5.1-7.6,7.6
		c-47.5,45-99.3,68.8-98.5,70.5l17.8,36.5c0-0.8,56.9-19.5,115.4-67.9c39.9-30.6,71.3-77.2,93.4-118c18.7,9.3,36.5,17.8,49.2,28
		c20.4,16.1,28,31.4-0.8,64.5c-26.3,28-57.7,45.8-56.9,46.7l19.5,35.7c0-0.8,34.8-11.9,73.8-44.1c17.8-16.1,42.4-40.7,42.4-78.1
		c0-25.5-11-44.1-22.1-57.7c8.5-7.6,18.7-19.5,28.9-35.7c15.3-23.8,17-50.1,8.5-77.2C578.9,306.8,573.8,296.6,567,288.1z
		 M359.1,191.3c-5.1,11.9-12.7,22.9-18.7,30.6c-17-11.9-33.1-19.5-49.2-27.2c5.9-11.9,12.7-22.9,20.4-33.1c21.2-12.7,39-11,53.5-2.5
		C367.5,171,364.1,181.1,359.1,191.3z M448.2,283.8c-5.1,11.9-12.7,22.9-18.7,30.6c-17-11.9-33.1-19.5-49.2-27.2
		c6.8-13.6,14.4-25.5,22.9-36.5c20.4-10.2,37.3-7.6,50.9,0C456.7,263.5,453.3,273.7,448.2,283.8z M535.6,375.5
		c-5.1,11.9-12.7,22.9-18.7,30.6c-17-11.9-33.1-19.5-49.2-27.2c14.4-28,32.3-51.8,56-67.9C548.3,338.2,545.8,356,535.6,375.5z"/>
	<path d="M96.8,484.2l-7.6,3.4c0,0,10.2,28.9,26.3,65.4l4.2,10.2l13.6-6.8l-4.2-10.2C112,510.5,96.8,484.2,96.8,484.2z"/>
	<path d="M497.4,154.8c17-2.5,28.9-18.7,26.3-35.7c-2.5-17-18.7-28.9-35.7-26.3c-8.5,0.8-15.3,5.1-20.4,11.9
		c-5.1,6.8-6.8,15.3-5.9,22.9C464.3,145.5,480.4,157.4,497.4,154.8z"/>
	<path d="M7.6,391.7L0,395c0,0,10.2,28.9,26.3,65.4l4.2,10.2l13.6-6.8l-4.2-10.2C22.9,418,7.6,391.7,7.6,391.7z"/>
	<path d="M408.3,62.3c17-2.5,28.9-18.7,26.3-35.7S415.9-2.2,398.9,0.3c-8.5,0.8-15.3,5.1-20.4,11.9s-6.8,15.3-5.9,22.9
		C375.2,53,391.3,64.9,408.3,62.3z"/>
</g>
<g>
</g>
<g>
</g>
<g>
</g>
<g>
</g>
<g>
</g>
<g>
</g>
<g>
</g>
<g>
</g>
<g>
</g>
<g>
</g>
<g>
</g>
<g>
</g>
<g>
</g>
<g>
</g>
<g>
</g>
</svg>
