<?xml version="1.0" encoding="utf-8"?>
<!-- Generator: Adobe Illustrator 17.0.0, SVG Export Plug-In . SVG Version: 6.00 Build 0)  -->
<!DOCTYPE svg PUBLIC "-//W3C//DTD SVG 1.1//EN" "http://www.w3.org/Graphics/SVG/1.1/DTD/svg11.dtd">
<svg version="1.1" id="Layer_1" xmlns="http://www.w3.org/2000/svg" xmlns:xlink="http://www.w3.org/1999/xlink" x="0px" y="0px"
	 width="611.1px" height="505.2px" viewBox="0 0 611.1 505.2" enable-background="new 0 0 611.1 505.2" xml:space="preserve">
<g>
	<path d="M563.7,353.9c-61.6-8-75,48.2-67,76.3v1.3c8,28.1,37.5,79,67,57.6c14.7-10.7,21.4-16.1,32.1-29.5
		c-26.8,10.7-42.9,0-56.2-5.4c-9.4-4-14.7,9.4-4,20.1c-14.7-12.1-6.7-29.5,4-25.4c13.4,5.4,38.8,14.7,61.6,1.3
		c4-6.7,6.7-13.4,8-20.1C615.9,398.1,605.2,359.3,563.7,353.9z"/>
	<path d="M216.8,252.2c-6.7-4-16.1-9.4-28.1-16.1C227.5,287,348.1,445,365.5,466.4c36.2,46.9,68.3,52.2,113.8,10.7
		c-44.2,13.4-65.6,8-107.1-36.2C328,395.4,246.3,288.3,216.8,252.2z"/>
	<path d="M448.5,256.2c-53.6-32.1-40.2-54.9-83-71c-5.4-1.3-12.1-2.7-17.4-2.7c-38.8-17.4-117.8-67-117.8-67s-6.7-28.1-24.1-40.2
		s-69.6-42.9-83-49.5c-8-18.7-13.4-32.1-29.5-22.8c-9.4-1.3-22.8,0-33.5,9.4s-37.5,0-53.6,16.1S7.9,40.6,16,43.2
		c9.4,2.7,37.5,8,56.2,25.4c28.1,26.8,44.2,45.5,60.3,61.6c9.4,9.4,33.5,44.2,57.6,65.6c28.1-10.7,30.8,4,92.4,52.2
		c14.7,12.1,30.8,13.4,72.3,75c12.1,17.4,44.2,34.8,44.2,34.8s-28.1-12.1-42.9-25.4c-17.4-14.7-26.8-36.2-41.5-48.2
		c-21.4-17.4-97.8-76.3-101.8-83c-2.7-5.4-22.8,0-33.5,10.7c-13.4,14.7,33.5,29.5,41.5,33.5c8,4,128.6,158,172.8,184.8
		c26.8,16.1,52.2,17.4,77.7,6.7c26.8-12.1,9.4-54.9-56.2-75c58.9,12.1,68.3,32.1,76.3,41.5c12.1-65.6,68.3-53.6,81.7-46.9
		C610.5,292.3,475.3,272.2,448.5,256.2z M310.6,203.9c-28.1-13.4-50.9-28.1-88.4-65.6c52.2,40.2,87,56.2,112.5,49.5
		C326.6,191.9,317.3,198.6,310.6,203.9z"/>
</g>
<g>
</g>
<g>
</g>
<g>
</g>
<g>
</g>
<g>
</g>
<g>
</g>
<g>
</g>
<g>
</g>
<g>
</g>
<g>
</g>
<g>
</g>
<g>
</g>
<g>
</g>
<g>
</g>
<g>
</g>
</svg>
