<?xml version="1.0" encoding="utf-8"?>
<!-- Generator: Adobe Illustrator 17.0.0, SVG Export Plug-In . SVG Version: 6.00 Build 0)  -->
<!DOCTYPE svg PUBLIC "-//W3C//DTD SVG 1.1//EN" "http://www.w3.org/Graphics/SVG/1.1/DTD/svg11.dtd">
<svg version="1.1" id="Layer_1" xmlns="http://www.w3.org/2000/svg" xmlns:xlink="http://www.w3.org/1999/xlink" x="0px" y="0px"
	 width="611.9px" height="574.8px" viewBox="0 0 611.9 574.8" enable-background="new 0 0 611.9 574.8" xml:space="preserve">
<g>
	<path d="M557.6,571.2l-9.4,3.5c0,0-507.1-362-525.9-383.2c-17.7-21.2-31.8-59-14.2-34.2s15.3,25.9,43.6,46
		C78.9,223.4,557.6,571.2,557.6,571.2z"/>
	<path d="M133.1,87.7c13-2.4,17.7,16.5,29.5,28.3c10.6,10.6-28.3-27.1,246.5,238.2c2.4,13,0,23.6,1.2,36.6
		C286.4,271.7,162.6,152.6,146.1,136.1C122.5,110.1,120.2,90.1,133.1,87.7z"/>
	<path d="M225.1,30c0,0,0-25.9-24.8-29.5s-41.3,13-42.5,27.1c-1.2,15.3,21.2,51.9,25.9,51.9c4.7,0,10.6-4.7,9.4-11.8
		C194.4,57.1,193.3,44.1,225.1,30z"/>
	<path d="M310,83c0,0,5.9,11.8,16.5,21.2c10.6,10.6,23.6,14.2,23.6,14.2s-9.4-10.6-20-20C320.6,87.7,310,83,310,83z"/>
	<path d="M254.6,38.2c36.6,5.9,53.1,50.7,69.6,67.2c15.3,15.3,33,15.3,47.2,36.6c16.5,24.8,30.7,81.4,35.4,97.9s21.2,27.1,33,42.5
		c20,25.9,55.4,99.1,55.4,122.6c0,4.7-3.5,14.2-15.3,14.2c37.7,37.7,83.7,83.7,132.1,132.1l-22.4,10.6c0,0-63.7-62.5-138-133.2
		c-7.1-47.2-23.6-89.6-33-113.2c-13-29.5-29.5-55.4-37.7-79c-10.6-28.3-20-74.3-20-73.1c0,3.5,7.1,51.9,14.2,74.3
		c10.6,31.8,34.2,63.7,46,109.7c7.1,27.1,15.3,74.3,13,83.7c-3.5,13-24.8,10.6-49.5,7.1c-24.8-3.5-55.4-20-55.4-34.2
		c0-11.8,25.9,2.4,35.4-3.5c17.7-9.4,1.2-77.8-16.5-117.9c-4.7-9.4-28.3-43.6-36.6-60.1c29.5,16.5,44.8,2.4,46-3.5
		c1.2-5.9-5.9-10.6-9.4-13c-3.5-2.4-10.6-5.9-15.3-10.6c-8.3-8.3-16.5-10.6-18.9-10.6c-1.2-3.5-5.9-23.6-30.7-55.4
		c-27.1-34.2-53.1-50.7-53.1-50.7l0,0c0,0,21.2,17.7,49.5,51.9c27.1,34.2,29.5,60.1,29.5,60.1s13,2.4,21.2,11.8
		c9.4,10.6,17.7,11.8,16.5,17.7c-1.2,7.1-11.8,7.1-21.2,4.7c-14.2-3.5-25.9-16.5-29.5-20c-9.4-10.6-18.9-25.9-25.9-37.7
		c-5.9-9.4-18.9-30.7-18.9-30.7s-61.3-37.7-61.3-59C188.5,59.4,215.7,32.3,254.6,38.2z"/>
</g>
<g>
</g>
<g>
</g>
<g>
</g>
<g>
</g>
<g>
</g>
<g>
</g>
<g>
</g>
<g>
</g>
<g>
</g>
<g>
</g>
<g>
</g>
<g>
</g>
<g>
</g>
<g>
</g>
<g>
</g>
</svg>
