<?xml version="1.0" encoding="utf-8"?>
<!-- Generator: Adobe Illustrator 17.0.0, SVG Export Plug-In . SVG Version: 6.00 Build 0)  -->
<!DOCTYPE svg PUBLIC "-//W3C//DTD SVG 1.1//EN" "http://www.w3.org/Graphics/SVG/1.1/DTD/svg11.dtd">
<svg version="1.1" id="Layer_1" xmlns="http://www.w3.org/2000/svg" xmlns:xlink="http://www.w3.org/1999/xlink" x="0px" y="0px"
	 width="613.5px" height="622.7px" viewBox="0 0 613.5 622.7" enable-background="new 0 0 613.5 622.7" xml:space="preserve">
<g>
	<circle cx="101.2" cy="56.8" r="56.8"/>
	<path d="M598.2,398.8l-266.9,92l-85.9-87.4l76.7-76.7l0,0c13.8-13.8,15.3-39.9,3.1-55.2l-6.1-10.7h217.8v-29.1H297.6l-81.3-108.9
		l0,0c-12.3-16.9-35.3-19.9-52.2-7.7l-35.3,26.1c-6.1,4.6-12.3,15.3-12.3,23v64.4H38.3c-13.8,0-24.5,10.7-24.5,24.5l0,0l0,0l0,0l0,0
		l0,0l0,0l0,0l0,0c0,13.8,10.7,24.5,24.5,24.5h108.9c4.6,0,7.7-1.5,10.7-3.1c3.1-1.5,4.6-4.6,7.7-6.1c1.5-3.1,3.1-6.1,3.1-9.2h23
		l44.5,59.8l-61.4,61.4c-10.7,10.7-10.7,30.7,0,41.4l0,0l89,90.5L79.8,576.7c0,0-1.5,0-4.6,1.5c-1.5,0-3.1,0-4.6,0
		c-9.2,3.1-18.4-1.5-24.5-10.7c-1.5-1.5-4.6-12.3-4.6-12.3L0,570.6l3.1,6.1c3.1,7.7,6.1,13.8,10.7,18.4s9.2,10.7,13.8,13.8
		c6.1,4.6,10.7,7.7,18.4,9.2c6.1,3.1,13.8,4.6,19.9,4.6h1.5H69c0,0,0,0,3.1,0l0,0c7.7,0,15.3-1.5,23-4.6c0,0,1.5,0,3.1-1.5
		c1.5,0,515.4-181,515.4-181L598.2,398.8z"/>
</g>
<g>
</g>
<g>
</g>
<g>
</g>
<g>
</g>
<g>
</g>
<g>
</g>
<g>
</g>
<g>
</g>
<g>
</g>
<g>
</g>
<g>
</g>
<g>
</g>
<g>
</g>
<g>
</g>
<g>
</g>
</svg>
