<?xml version="1.0" encoding="utf-8"?>
<!-- Generator: Adobe Illustrator 17.0.0, SVG Export Plug-In . SVG Version: 6.00 Build 0)  -->
<!DOCTYPE svg PUBLIC "-//W3C//DTD SVG 1.1//EN" "http://www.w3.org/Graphics/SVG/1.1/DTD/svg11.dtd">
<svg version="1.1" id="Layer_1" xmlns="http://www.w3.org/2000/svg" xmlns:xlink="http://www.w3.org/1999/xlink" x="0px" y="0px"
	 width="612px" height="688.8px" viewBox="0 0 612 688.8" enable-background="new 0 0 612 688.8" xml:space="preserve">
<g>
	<path d="M451.6,654.2L451.6,654.2C405.7,613.1,328.4,546.3,274,498.5l-54.4-46.8C165.1,404,86.9,338.1,40.1,299l0,0
		c0,0-34.4-30.6-26.7-57.3L4.7,235c0,0-13.4,28.6,4.8,59.2c3.8,6.7,9.5,13.4,17.2,20l0,0C63,348.6,145.1,424.1,201.4,472.8
		l54.4,46.8c56.3,48.7,143.2,119.3,182.4,149.9l0,0c7.6,6.7,15.3,11.5,22,14.3c32.5,13.4,59.2-3.8,59.2-3.8l-7.6-6.7
		C485.9,682.8,451.6,654.2,451.6,654.2z"/>
	<path d="M446.8,80.3c22,1.9,42-15.3,43-37.2c1-10.5-2.9-21-9.5-29.6C473.5,5.9,463,0.1,452.5,0.1c-22-1.9-41.1,15.3-43,37.2
		C407.7,59.3,424.8,78.4,446.8,80.3z"/>
	<path d="M604.3,202.6c-18.1-48.7-63-71.6-96.4-81.2c-29.6-9.5-67.8-11.5-103.1-10.5c-35.3,1.9-85,13.4-113.6,56.3
		c-22,32.5-22.9,71.6-22,91.7c-76.4-4.8-136.5,24.8-174.7,51.6l46.8,40.1c30.6-11.5,69.7-21,107.9-19.1
		c54.4,2.9,111.7,23.9,146.1,89.7c32.5,62.1-7.6,137.5-7.6,138.4l40.1,35.3c1.9,0,59.2-90.7,43.9-177.6
		c-7.6-43.9-21-67.8-53.5-104.1c2.9-3.8,13.4-11.5,32.5-45.8s28.6-82.1,29.6-86.9c113.6,24.8,76.4,116.5,76.4,116.5l45.8,12.4
		C600.5,309.5,623.4,254.1,604.3,202.6z M371.4,232.2c0,0-19.1,31.5-29.6,41.1c-7.6-2.9-15.3-4.8-22.9-6.7c-1,0-1,0-1.9,0
		c-1-17.2-1-80.2,77.3-89.7C387.6,202.6,384.7,212.1,371.4,232.2z"/>
</g>
<g>
</g>
<g>
</g>
<g>
</g>
<g>
</g>
<g>
</g>
<g>
</g>
<g>
</g>
<g>
</g>
<g>
</g>
<g>
</g>
<g>
</g>
<g>
</g>
<g>
</g>
<g>
</g>
<g>
</g>
</svg>
