<?xml version="1.0" encoding="utf-8"?>
<!-- Generator: Adobe Illustrator 17.0.0, SVG Export Plug-In . SVG Version: 6.00 Build 0)  -->
<!DOCTYPE svg PUBLIC "-//W3C//DTD SVG 1.1//EN" "http://www.w3.org/Graphics/SVG/1.1/DTD/svg11.dtd">
<svg version="1.1" id="Layer_1" xmlns="http://www.w3.org/2000/svg" xmlns:xlink="http://www.w3.org/1999/xlink" x="0px" y="0px"
	 width="613.5px" height="466px" viewBox="0 0 613.5 466" enable-background="new 0 0 613.5 466" xml:space="preserve">
<g>
	<path d="M613.5,323.6c0,0-151.3,38.1-209,50.8c-57.7,13.9-103.9-1.2-118.9,3.5c-15,4.6-90.1,63.5-70.4,83.1
		c19.6,19.6,161.7-24.2,221.7-39.3c60-15,132.8-42.7,132.8-42.7L613.5,323.6z"/>
	<path d="M329.4,314.4c-18.5-11.5-35.8-20.8-50.8-30c-6.9,5.8-8.1,16.2-2.3,26.6c9.2,17.3,31.2,18.5,91.2,28.9
		C364.1,331.7,352.5,328.3,329.4,314.4z"/>
	<path d="M503.8,337.5c0-12.7-23.1-24.2-102.8-47.3c109.7,56.6,71.6,62.4,46.2,83.1c-9.2,6.9,30-2.3,30-2.3S503.8,357.1,503.8,337.5
		z"/>
	<path d="M360.6,193.2c-8.1,21.9-19.6,40.4-33.5,53.1c11.5,4.6,17.3,8.1,31.2,17.3C360.6,238.2,361.8,213.9,360.6,193.2z"/>
	<path d="M356,272.8c-33.5-28.9-56.6-28.9-61.2-30c11.5-2.3,23.1,0,23.1,0s30-32.3,40.4-61.2s-6.9-41.6-31.2-52
		c-18.5-8.1-50.8-2.3-62.4-1.2c-12.7,1.2-49.7-5.8-49.7-5.8s-10.4,6.9-13.9,16.2c5.8-26.6,32.3-37,50.8-60
		c3.5-47.3-23.1-55.4-31.2-12.7c-23.1,13.9-57.7,35.8-65.8,39.3c-10.4,4.6-31.2,27.7-31.2,27.7s3.5,13.9-5.8,33.5
		c-9.2,19.6-21.9,19.6-21.9,19.6s-6.9,6.9-10.4,19.6c-4.6,21.9,2.3,98.2,2.3,98.2l-27.7,78.5c0,0-17.3,8.1-31.2,13.9
		c-12.7,5.8-21.9,16.2-26.6,27.7c-9.2,21.9,8.1,19.6,16.2,11.5c12.7-12.7,23.1-11.5,31.2-11.5s4.6,11.5,10.4,16.2
		c9.2,6.9,20.8,2.3,10.4-6.9c-3.5-2.3,4.6-13.9,6.9-21.9c3.5-12.7,30-53.1,43.9-82c11.5-23.1,12.7-97,12.7-97
		c10.4,1.2,24.2,2.3,45,3.5c21.9,0,67-11.5,67-11.5s13.9-32.3,42.7-60c-30,58.9-47.3,98.2-34.6,110.9c3.5,4.6,10.4,8.1,17.3,12.7
		c15,9.2,35.8,19.6,54.3,31.2c23.1,13.9,39.3,20.8,42.7,30c1.2,2.3,1.2,3.5,0,5.8c-2.3,12.7-24.2,33.5-24.2,33.5l56.6-1.2
		c0,0,40.4-25.4,41.6-42.7C444.9,330.6,409.1,316.7,356,272.8z"/>
	<path d="M261.3,32.6c3.5-5.8,23.1-13.9,13.9-24.2c-10.4-10.4-37-11.5-42.7-1.2c-4.6-3.5-11.5,2.3-12.7,15
		c-1.2,12.7,1.2,23.1,6.9,26.6c9.2,5.8,19.6,8.1,25.4,2.3l0,0C256.7,48.8,257.8,38.4,261.3,32.6z"/>
	<path d="M71.9,103.1c-16.2,3.5-35.8,20.8-28.9,46.2c1.2-10.4,6.9-28.9,25.4-33.5c5.8-1.2,13.9,0,20.8,8.1c6.9,9.2,6.9,15,3.5,18.5
		c-5.8,5.8-15,2.3-21.9,9.2c5.8-9.2,16.2-4.6,17.3-12.7c2.3-6.9-8.1-18.5-17.3-17.3c-13.9,1.2-25.4,16.2-27.7,31.2
		c8.1,26.6,35.8,38.1,52,38.1c17.3,0,24.2-28.9,24.2-41.6C120.4,135.4,110,95,71.9,103.1z"/>
</g>
<g>
</g>
<g>
</g>
<g>
</g>
<g>
</g>
<g>
</g>
<g>
</g>
<g>
</g>
<g>
</g>
<g>
</g>
<g>
</g>
<g>
</g>
<g>
</g>
<g>
</g>
<g>
</g>
<g>
</g>
</svg>
