<?xml version="1.0" encoding="utf-8"?>
<!-- Generator: Adobe Illustrator 17.0.0, SVG Export Plug-In . SVG Version: 6.00 Build 0)  -->
<!DOCTYPE svg PUBLIC "-//W3C//DTD SVG 1.1//EN" "http://www.w3.org/Graphics/SVG/1.1/DTD/svg11.dtd">
<svg version="1.1" id="Layer_1" xmlns="http://www.w3.org/2000/svg" xmlns:xlink="http://www.w3.org/1999/xlink" x="0px" y="0px"
	 width="611.8px" height="787.5px" viewBox="0 0 611.8 787.5" enable-background="new 0 0 611.8 787.5" xml:space="preserve">
<g>
	<path d="M28.5,0.1c0,0-12.1-1.3-21.4,9.4c-10.7,9.4-8,29.5,0,36.2C17.8,59,39.2,59,49.9,45.6c8-6.7,9.4-26.8,0-36.2
		C40.5-1.3,28.5,0.1,28.5,0.1z M39.2,36.2c-5.4,6.7-16.1,6.7-21.4,0C4.4,25.5,25.8,5.4,28.5,9.4C31.2,5.4,52.6,25.5,39.2,36.2z
		 M471.8,182.2c8-5.4,14.7-14.7,16.1-24.1c2.7-10.7,0-20.1-5.4-29.5c-12.1-17.4-36.2-22.8-53.6-10.7c-17.4,12.1-22.8,36.2-10.7,53.6
		C430.2,188.9,453,194.2,471.8,182.2z M611,431.3c0,0,4-33.5-6.7-75c-4-22.8-16.1-44.2-29.5-62.9s-29.5-32.1-46.9-42.9
		c-9.4-5.4-20.1-10.7-32.1-16.1c-46.9-18.7-96.4-28.1-144.6-44.2c-17.4-6.7-34.8-13.4-49.5-22.8c-18.7-12.1-30.8-26.8-38.8-48.2
		c-9.4-21.4-13.4-41.5-24.1-67c-9.4-20.1-26.8-38.8-46.9-45.5c-17.4-6.7-46.9-2.7-49.5,20.1c0,4,0,8,1.3,10.7
		c-1.3,0-1.3,1.3-2.7,1.3c-6.7,5.4-8,12.1-9.4,18.7c0,5.4,0,10.7,2.7,17.4c-9.4,8-13.4,22.8-8,33.5c8,17.4,25.4,20.1,42.9,22.8
		c8,1.3,17.4,1.3,25.4,4c8,2.7,14.7,9.4,21.4,14.7c21.4,16.1,34.8,41.5,54.9,60.3c17.4,14.7,37.5,26.8,57.6,36.2
		c9.4,4,18.7,8,28.1,12.1c10.7,4,21.4,6.7,32.1,10.7c-4,46.9-6.7,93.7-5.4,142c-22.8,20.1-44.2,42.9-62.9,68.3
		c-30.8,38.8-64.3,111.2-79,174.1c-16.1,64.3-12.1,119.2-12.1,119.2h52.2c24.1-187.5,109.8-254.4,112.5-257.1
		c9.4,49.5,24.1,101.8,48.2,147.3c40.2,84.4,111.2,124.5,109.8,124.5l29.5-41.5c1.3-1.3-50.9-38.8-79-111.2
		c-30.8-71-38.8-166.1-40.2-225c-1.3-38.8,0-79,4-117.8c20.1,6.7,41.5,14.7,56.2,30.8c12.1,12.1,21.4,28.1,28.1,44.2
		c1.3,4,24.1,68.3,20.1,68.3L611,431.3z M150.4,49.6L150.4,49.6C150.4,50.9,149,52.3,150.4,49.6z M233.4,128.6
		c-2.7,2.7-5.4,5.4-9.4,9.4c1.3-1.3-16.1-13.4-17.4-14.7c-10.7-6.7-25.4-9.4-37.5-10.7c-6.7-1.3-14.7-1.3-21.4-5.4
		c-2.7-1.3-6.7-4-6.7-8c0-1.3,0-1.3,0-2.7c1.3-2.7,2.7-5.4,5.4-8c5.4-4,12.1-9.4,6.7-17.4c-2.7-5.4-8-12.1-1.3-17.4
		c4-4,10.7-2.7,12.1-9.4c1.3-4-1.3-6.7-2.7-10.7c-5.4-17.4,20.1-12.1,28.1-8c14.7,6.7,28.1,18.7,33.5,33.5
		c6.7,13.4,14.7,36.2,22.8,53.6C245.4,116.6,238.7,123.3,233.4,128.6z"/>
</g>
<g>
</g>
<g>
</g>
<g>
</g>
<g>
</g>
<g>
</g>
<g>
</g>
<g>
</g>
<g>
</g>
<g>
</g>
<g>
</g>
<g>
</g>
<g>
</g>
<g>
</g>
<g>
</g>
<g>
</g>
</svg>
