<?xml version="1.0" encoding="utf-8"?>
<!-- Generator: Adobe Illustrator 17.0.0, SVG Export Plug-In . SVG Version: 6.00 Build 0)  -->
<!DOCTYPE svg PUBLIC "-//W3C//DTD SVG 1.1//EN" "http://www.w3.org/Graphics/SVG/1.1/DTD/svg11.dtd">
<svg version="1.1" id="Layer_1" xmlns="http://www.w3.org/2000/svg" xmlns:xlink="http://www.w3.org/1999/xlink" x="0px" y="0px"
	 width="612px" height="612px" viewBox="0 0 612 612" enable-background="new 0 0 612 612" xml:space="preserve">
<g>
	<path d="M465.7,243.5l2.7-10.6l-30.6-27.9l0,0l0,0l0,0c-14.6,2.7-26.6,5.3-41.2,9.3l-4,14.6l41.2-12L465.7,243.5z M461.7,272.7
		l1.3-12l-34.6-23.9l0,0l0,0l0,0l0,0l-39.9,14.6l-1.3,14.6l38.6-16L461.7,272.7z M461.7,333.9l-1.3-12c-12-5.3-25.3-12-37.3-18.6
		l0,0l0,0l0,0c-12,6.7-25.3,13.3-37.3,21.3l1.3,14.6l35.9-22.6L461.7,333.9z M472.3,216.9l4-10.6c-9.3-9.3-18.6-21.3-25.3-31.9l0,0
		l0,0l0,0c-14.6,0-27.9,0-42.6,2.7l-6.7,14.6c14.6-2.7,29.3-5.3,42.6-6.7C453.7,198.2,463,207.5,472.3,216.9z M498.9,167.6l8-12
		l-20-38.6l0,0l0,0l0,0l-41.2-5.3l-6.7,13.3l41.2,5.3L498.9,167.6z M461.7,157l22.6,34.6l5.3-9.3l-20-35.9l0,0l0,0l0,0l-42.6-4
		l-8,13.3C433.7,155.7,447,155.7,461.7,157z M460.3,303.3V290c-12-5.3-23.9-13.3-35.9-20l0,0l0,0l0,0c-13.3,5.3-26.6,12-38.6,18.6
		v14.6l37.3-20L460.3,303.3z M469.6,460.3L469.6,460.3L469.6,460.3L469.6,460.3l-20,37.3l5.3,9.3c9.3-10.6,14.6-22.6,21.3-34.6
		c14.6-1.3,27.9-4,42.6-1.3l-8-13.3L469.6,460.3z M612,306C612,137,475,0,306,0S0,137,0,306c0,75.8,27.9,145,73.2,198.2
		c0,0,6.7,8,8,9.3C138.4,573.4,216.9,612,306,612c87.8,0,167.6-37.3,223.5-97.1c1.3-1.3,6.7-6.7,6.7-6.7
		C582.7,453.7,612,383.2,612,306z M510.9,489.6c-8-1.3-16-1.3-22.6-1.3l0,0l0,0l0,0l0,0c-8,12-16,22.6-26.6,30.6l2.7,8
		c10.6-6.7,21.3-14.6,30.6-26.6c1.3,0,4,1.3,5.3,1.3C451,550.8,381.8,581.4,306,581.4s-145-30.6-194.2-79.8c1.3,0,1.3,0,2.7,0
		c9.3,10.6,20,20,30.6,26.6l2.7-8c-10.6-8-18.6-18.6-26.6-30.6l0,0l0,0l0,0l0,0c-6.7,0-13.3,0-20,0C57.2,440.4,30.6,376.5,30.6,306
		c0-81.2,35.9-154.3,91.8-204.9c10.6,0,21.3,0,30.6-1.3l-4-8c-5.3,0-9.3,0-14.6,0c46.6-38.6,106.4-61.2,173-61.2
		s125.1,22.6,173,61.2c-6.7,0-12,0-18.6,0l-4,8c10.6,1.3,22.6,2.7,33.3,1.3c9.3,8,17.3,16,25.3,25.3c1.3,4,4,6.7,5.3,10.6l1.3-2.7
		c37.3,46.6,59.9,106.4,59.9,170.3C581.4,376.5,553.5,440.4,510.9,489.6z M498.9,439l-6.7-10.6l-41.2,4l0,0l0,0l0,0l-21.3,37.3l8,12
		l18.6-38.6L498.9,439z M484.3,413.8l-5.3-9.3c-13.3,0-26.6,0-41.2-2.7l0,0l0,0c-9.3,10.6-18.6,21.3-26.6,34.6l6.7,14.6
		c6.7-12,14.6-25.3,23.9-35.9C456.3,416.4,469.6,416.4,484.3,413.8z M465.7,363.2l-1.3-12l-38.6-14.6l0,0l0,0l-34.6,25.3l2.7,14.6
		c10.6-9.3,22.6-18.6,34.6-26.6C439,355.2,451,359.2,465.7,363.2z M432.4,383.2c13.3,2.7,26.6,5.3,39.9,6.7l-2.7-10.6l-39.9-9.3l0,0
		l0,0l0,0l0,0l-31.9,29.3l4,14.6C411.1,403.1,421.7,392.5,432.4,383.2z M139.7,146.3L139.7,146.3L139.7,146.3l-20,35.9l5.3,9.3
		l22.6-34.6c14.6-1.3,27.9-1.3,42.6-1.3l-8-13.3L139.7,146.3L139.7,146.3z M127.7,130.4l41.2-5.3l-8-10.6l-39.9,4l0,0l0,0l-20,38.6
		l8,12L127.7,130.4z M157,174.3L157,174.3L157,174.3L157,174.3c-6.7,12-16,22.6-25.3,33.3l4,10.6c9.3-9.3,18.6-18.6,27.9-30.6
		c13.3,1.3,27.9,2.7,42.6,6.7l-6.7-17.3C184.9,175.6,171.6,174.3,157,174.3L157,174.3z M179.6,236.8L179.6,236.8L179.6,236.8
		L145,260.8l1.3,12l34.6-22.6l38.6,16l-1.3-14.6L179.6,236.8L179.6,236.8z M139.7,460.3L139.7,460.3L139.7,460.3L97.1,455l-8,13.3
		c14.6-1.3,29.3,0,42.6,1.3c6.7,12,13.3,25.3,21.3,34.6l5.3-9.3L139.7,460.3L139.7,460.3z M170.3,204.9L170.3,204.9L170.3,204.9
		l-30.6,27.9l2.7,10.6l31.9-26.6l41.2,12l-4-14.6C198.2,210.2,184.9,206.2,170.3,204.9L170.3,204.9z M179.6,369.9L179.6,369.9
		l-41.2,9.3l-2.7,10.6c13.3-1.3,26.6-4,39.9-6.7c10.6,9.3,21.3,20,29.3,31.9l4-14.6L179.6,369.9L179.6,369.9z M184.9,303.3
		L184.9,303.3L184.9,303.3L184.9,303.3c-12,6.7-25.3,13.3-37.3,18.6l-1.3,12l38.6-16l35.9,22.6l1.3-14.6
		C210.2,316.6,196.9,310,184.9,303.3L184.9,303.3z M183.6,270.1L183.6,270.1L183.6,270.1l-35.9,20v13.3l37.3-20l37.3,20v-14.6
		L183.6,270.1z M183.6,336.6L183.6,336.6L183.6,336.6L145,351.2l-1.3,12c13.3-2.7,26.6-8,38.6-12c12,8,23.9,17.3,34.6,26.6l2.7-14.6
		L183.6,336.6L183.6,336.6z M157,432.4L157,432.4L157,432.4l-41.2-4l-6.7,10.6l41.2,5.3l18.6,38.6l8-12L157,432.4L157,432.4z
		 M170.3,401.8L170.3,401.8L170.3,401.8L170.3,401.8c-14.6,1.3-27.9,2.7-41.2,2.7l-5.3,9.3c13.3,1.3,26.6,1.3,41.2,0
		c9.3,10.6,17.3,23.9,23.9,35.9l6.7-14.6C188.9,423.1,179.6,412.4,170.3,401.8L170.3,401.8z"/>
</g>
<g>
</g>
<g>
</g>
<g>
</g>
<g>
</g>
<g>
</g>
<g>
</g>
<g>
</g>
<g>
</g>
<g>
</g>
<g>
</g>
<g>
</g>
<g>
</g>
<g>
</g>
<g>
</g>
<g>
</g>
</svg>
