<?xml version="1.0" encoding="utf-8"?>
<!-- Generator: Adobe Illustrator 17.0.0, SVG Export Plug-In . SVG Version: 6.00 Build 0)  -->
<!DOCTYPE svg PUBLIC "-//W3C//DTD SVG 1.1//EN" "http://www.w3.org/Graphics/SVG/1.1/DTD/svg11.dtd">
<svg version="1.1" id="Layer_1" xmlns="http://www.w3.org/2000/svg" xmlns:xlink="http://www.w3.org/1999/xlink" x="0px" y="0px"
	 width="610.7px" height="542.1px" viewBox="0 0 610.7 542.1" enable-background="new 0 0 610.7 542.1" xml:space="preserve">
<g>
	<path d="M355.8,297.6c7.8-2.6,20.7-14.2,20.7-14.2s-7.8-11.6-15.5-32.3c-3.9-9.1-7.8-19.4-9.1-32.3c-25.9,14.2-55.6,37.5-62.1,44
		c-6.5,6.5-15.5,15.5-15.5,15.5s-18.1,3.9-38.8,16.8s-73.8,54.3-86.7,60.8c-12.9,6.5-27.2,11.6-42.7,16.8
		c-11.6,3.9-34.9,9.1-46.6,46.6c-7.8,23.3,29.8,15.5,44,1.3c12.9-14.2,28.5-31.1,55.6-46.6c40.1-22,80.2-18.1,113.9-41.4
		C306.6,309.2,323.5,310.5,355.8,297.6z"/>
	<path d="M516.3,110c-5.2-32.3-16.8-82.8-18.1-88c-3.9-16.8-15.5-12.9-47.9-16.8c-18.1-2.6-37.5-3.9-37.5-3.9s-25.9,3.9-37.5,3.9
		S357.1,2.6,348.1,0c1.3,11.6,15.5,12.9,25.9,20.7c-3.9,1.3-7.8,5.2-6.5,9.1c0,0,10.4-1.3,23.3-1.3s22-11.6,22-11.6
		c5.2,2.6,14.2,7.8,28.5,14.2c10.4,5.2,22,5.2,22,5.2s-1.3,12.9-7.8,47.9l0,0c-86.7-2.6-117.7,29.8-116.4,67.3
		c1.3,20.7,3.9,38.8,3.9,38.8s2.6,32.3,9.1,53c6.5,20.7,14.2,41.4,14.2,41.4s-20.7,15.5-31.1,31.1c-10.4,16.8-31.1,78.9-44,99.6
		s-47.9,25.9-38.8,58.2c3.9,12.9,34.9,29.8,40.1,23.3c5.2-5.2,0-44,15.5-67.3c15.5-23.3,47.9-54.3,63.4-73.8
		c12.9-15.5,19.4-36.2,32.3-45.3c12.9-9.1,20.7-36.2,23.3-58.2c3.9-40.1,5.2-60.8-49.2-116.4c44,29.8,68.6,81.5,116.4,86.7
		C477.4,129.4,516.3,110,516.3,110z"/>
	<path d="M605.5,163c-2.6-22-9.1-45.3-14.2-47.9c-2.6-1.3-7.8-2.6-16.8-3.9c6.5,10.4,10.4,23.3,12.9,31.1
		c2.6,14.2-6.5,50.5-9.1,60.8c-1.3,7.8-19.4,28.5-19.4,28.5c27.2,0,44-10.4,49.2-28.5C614.6,182.4,606.8,172.1,605.5,163z"/>
	<path d="M442.5,214.8c0,0,1.3,9.1-1.3,24.6c-2.6,12.9-6.5,20.7-6.5,20.7s16.8-11.6,28.5-29.8C452.9,225.1,447.7,220,442.5,214.8z"
		/>
	<path d="M244.5,455.4c0,0,29.8,40.1,42.7,59.5c7.8,11.6-9.1,27.2-9.1,27.2l-34.9-72.5v-14.2H244.5z"/>
	<path d="M68.6,389.5L0,441.2c0,0,27.2,2.6,38.8-6.5c11.6-9.1,45.3-46.6,45.3-46.6L68.6,389.5z"/>
	<path d="M556.4,170.8c-20.7-2.6-36.2-14.2-44-7.8c-14.2,12.9-12.9,27.2-12.9,27.2c1.3,12.9,16.8,40.1,20.7,44
		c3.9,5.2,15.5,6.5,23.3-2.6c9.1-10.4,24.6-27.2,27.2-34.9c1.3-6.5,3.9-15.5,6.5-29.8C571.9,172.1,566.7,172.1,556.4,170.8z
		 M582.2,139.7c-1.3-7.8-5.2-20.7-12.9-31.1c-6.5-7.8-22-12.9-33.6-11.6c-15.5,2.6-23.3,10.4-28.5,19.4
		c-12.9,20.7-11.6,50.5-7.8,76.3c0,0,0-24.6,12.9-37.5c7.8-7.8,29.8,6.5,49.2,7.8c11.6,0,15.5,0,18.1-3.9
		C580.9,154,582.2,144.9,582.2,139.7z"/>
</g>
<g>
</g>
<g>
</g>
<g>
</g>
<g>
</g>
<g>
</g>
<g>
</g>
<g>
</g>
<g>
</g>
<g>
</g>
<g>
</g>
<g>
</g>
<g>
</g>
<g>
</g>
<g>
</g>
<g>
</g>
</svg>
