<?xml version="1.0" encoding="utf-8"?>
<!-- Generator: Adobe Illustrator 17.0.0, SVG Export Plug-In . SVG Version: 6.00 Build 0)  -->
<!DOCTYPE svg PUBLIC "-//W3C//DTD SVG 1.1//EN" "http://www.w3.org/Graphics/SVG/1.1/DTD/svg11.dtd">
<svg version="1.1" id="Layer_1" xmlns="http://www.w3.org/2000/svg" xmlns:xlink="http://www.w3.org/1999/xlink" x="0px" y="0px"
	 width="611.9px" height="617.6px" viewBox="0 0 611.9 617.6" enable-background="new 0 0 611.9 617.6" xml:space="preserve">
<g>
	<path d="M389.7,4.7c-41.4-9.9-71.1-0.9-72-2.7l1.8,39.6c-0.9,2.7,28.8,0.9,54.9,12.6c27.9,9.9,43.2,33.3,50.4,54
		c2.7,5.4,4.5,11.7,5.4,18.9c0,0-86.4-0.9-140.4,19.8c-45.9,18-80.1,26.1-105.3,117.9c-11.7,40.5-24.3,64.8-51.3,98.1
		s-87.3,69.3-87.3,69.3l29.7,50.4c0,0,87.3-45.9,137.7-98.1c24.3-25.2,35.1-47.7,48.6-72.9c4.5,4.5,50.4,38.7,64.8,76.5
		c19.8,45.9,6.3,101.7-9.9,183.6h57.6c0,0,26.1-85.5,29.7-144.9c2.7-38.7,0.9-65.7-9.9-88.2c-15.3-32.4-44.1-62.1-85.5-95.4
		c63-41.4,193.5-18,193.5-18s-2.7-92.7-19.8-137.7C474.3,56,432.9,11,389.7,4.7z"/>
	<path d="M589.5,165.8c-19.8-8.1-42.3,0.9-50.4,19.8c-8.1,19.8,0.9,42.3,19.8,50.4c9,3.6,19.8,4.5,28.8,0
		c9.9-3.6,17.1-10.8,20.7-20.7C617.4,196.4,608.4,173.9,589.5,165.8z"/>
	<path d="M9,425.9l-9,5.4c0,0,15.3,36,40.5,79.2l7.2,11.7l16.2-9l-7.2-11.7C31.5,457.4,9,425.9,9,425.9z"/>
	<path d="M290.7,598.7v9.9c0,0,38.7,5.4,89.1,8.1l13.5,0.9l0.9-19.8l-13.5-0.9C329.4,596,290.7,598.7,290.7,598.7z"/>
</g>
<g>
</g>
<g>
</g>
<g>
</g>
<g>
</g>
<g>
</g>
<g>
</g>
<g>
</g>
<g>
</g>
<g>
</g>
<g>
</g>
<g>
</g>
<g>
</g>
<g>
</g>
<g>
</g>
<g>
</g>
</svg>
