<?xml version="1.0" encoding="utf-8"?>
<!-- Generator: Adobe Illustrator 17.0.0, SVG Export Plug-In . SVG Version: 6.00 Build 0)  -->
<!DOCTYPE svg PUBLIC "-//W3C//DTD SVG 1.1//EN" "http://www.w3.org/Graphics/SVG/1.1/DTD/svg11.dtd">
<svg version="1.1" id="Layer_1" xmlns="http://www.w3.org/2000/svg" xmlns:xlink="http://www.w3.org/1999/xlink" x="0px" y="0px"
	 width="612px" height="606.6px" viewBox="0 0 612 606.6" enable-background="new 0 0 612 606.6" xml:space="preserve">
<g>
	<path d="M180.6,180.6c7.1,53.5,28.5,109.3,30.9,109.3c0,0,1.2-1.2,3.6-2.4c20.2-8.3,57-22.6,74.9-28.5c10.7-3.6,23.8-7.1,38-10.7
		c0,3.6,0,7.1,0,9.5c0,13.1,0,26.1,0,39.2c1.2,22.6,2.4,46.3,4.8,68.9c0,3.6,8.3,65.4,11.9,64.2l39.2-10.7
		c-1.2-1.2-8.3-85.6-4.8-180.6c2.4,0,3.6,0,5.9,0c30.9,0,47.5,15.4,48.7,14.3l26.1-23.8c1.2,1.2-26.1-33.3-70.1-36.8
		c-2.4,0-5.9,0-8.3-1.2c0-9.5,1.2-17.8,2.4-27.3c2.4-21.4,3.6-42.8,1.2-63c-2.4-22.6-8.3-48.7-21.4-67.7C348.2,11.9,316.1,0,288.8,0
		c-10.7,0-21.4,2.4-30.9,4.8c-19,7.1-38,19-52.3,33.3c-26.1,27.3-28.5,72.5-28.5,108.1C178.3,158.1,179.4,168.7,180.6,180.6z
		 M244.8,93.9c5.9-16.6,23.8-27.3,40.4-32.1c20.2-4.8,33.3,3.6,39.2,22.6c2.4,7.1,3.6,15.4,4.8,23.8c1.2,15.4,1.2,30.9,1.2,46.3
		c0,13.1,0,26.1,0,39.2c-21.4,2.4-41.6,7.1-55.9,11.9c-7.1,2.4-14.3,4.8-22.6,7.1C241.2,169.9,235.3,122.4,244.8,93.9z M243.6,317.3
		c-4.8,17.8,5.9,35.7,22.6,40.4c8.3,2.4,17.8,1.2,25-3.6s13.1-11.9,15.4-20.2c4.8-17.8-5.9-35.7-22.6-40.4
		C266.2,288.8,248.4,299.5,243.6,317.3z M530,551.4c48.7-13.1,82-36.8,82-38l-10.7-14.3c1.2,0-32.1,20.2-77.2,29.7
		c-45.2,10.7-99.8,9.5-134.3,4.8c-27.3-3.6-53.5-9.5-79.6-16.6l0,0c-27.3-8.3-55.9-14.3-84.4-17.8c-35.7-4.8-95.1-4.8-142.6,9.5
		c-47.5,13.1-82,36.8-82,38l10.7,13.1c-1.2,0,32.1-20.2,77.2-29.7c45.2-10.7,99.8-9.5,134.3-4.8c27.3,3.6,53.5,9.5,79.6,16.6l0,0
		c27.3,7.1,55.9,14.3,84.4,17.8C423.1,565.7,482.5,565.7,530,551.4z M0,595.4l7.1,9.5c-1.2,0,32.1-20.2,78.4-30.9
		c45.2-10.7,101-9.5,135.5-4.8c27.3,3.6,53.5,9.5,80.8,16.6l0,0c27.3,7.1,54.7,14.3,83.2,17.8c35.7,4.8,93.9,4.8,141.4-8.3
		c47.5-11.9,80.8-35.7,80.8-35.7l-7.1-9.5c1.2,0-32.1,20.2-78.4,30.9c-45.2,10.7-101,9.5-135.5,4.8c-27.3-3.6-53.5-9.5-80.8-16.6
		l0,0c-27.3-7.1-54.7-14.3-83.2-17.8c-35.7-4.8-93.9-4.8-141.4,8.3C33.3,571.6,0,594.2,0,595.4z"/>
</g>
<g>
</g>
<g>
</g>
<g>
</g>
<g>
</g>
<g>
</g>
<g>
</g>
<g>
</g>
<g>
</g>
<g>
</g>
<g>
</g>
<g>
</g>
<g>
</g>
<g>
</g>
<g>
</g>
<g>
</g>
</svg>
