<?xml version="1.0" encoding="utf-8"?>
<!-- Generator: Adobe Illustrator 17.0.0, SVG Export Plug-In . SVG Version: 6.00 Build 0)  -->
<!DOCTYPE svg PUBLIC "-//W3C//DTD SVG 1.1//EN" "http://www.w3.org/Graphics/SVG/1.1/DTD/svg11.dtd">
<svg version="1.1" id="Layer_1" xmlns="http://www.w3.org/2000/svg" xmlns:xlink="http://www.w3.org/1999/xlink" x="0px" y="0px"
	 width="612px" height="544.7px" viewBox="0 0 612 544.7" enable-background="new 0 0 612 544.7" xml:space="preserve">
<g>
	<path d="M71.7,301.5c-13.5,14.6-1.1,39.2,17.9,39.2c9,0,15.7-4.5,20.2-12.3c4.5-7.8,3.4-20.2-3.4-26.9c-7.8-9-17.9-6.7-17.9-7.8
		C89.7,294.8,79.6,292.5,71.7,301.5z M100.9,311.6c2.2,5.6,0,11.2-2.2,13.5c-3.4,2.2-7.8,3.4-12.3,2.2c-4.5-1.1-6.7-4.5-9-7.8
		c-2.2-7.8,4.5-19.1,12.3-17.9C95.3,301.5,99.8,307.1,100.9,311.6z M310.5,243.2c33.6-20.2,44.8-43.7,49.3-51.6
		c17.9,20.2,28,48.2,28,89.7c-37,5.6-86.3,19.1-125.5,67.3C223.1,397.9,235.4,501,235.4,501l42.6-1.1c0,0-1.1-68.4,26.9-107.6
		c22.4-31.4,67.3-40.4,85.2-37c3.4,20.2,6.7,91.9,87.4,123.3c47.1,17.9,126.7,12.3,133.4,13.5l1.1-39.2c0-1.1-54.9,0-89.7-16.8
		c-62.8-28-70.6-60.5-70.6-141.2s-31.4-161.4-100.9-193.9c0,0-11.2,28-23.5,49.3c-12.3,22.4-35.9,51.6-53.8,66.1
		c-33.6,26.9-67.3,38.1-67.3,38.1l23.5,28C230.9,282.5,261.2,273.5,310.5,243.2z M71.7,209.6c5.6,6.7,12.3,12.3,20.2,15.7
		c9,4.5,19.1,7.8,29.1,11.2c19.1,5.6,38.1,10.1,54.9,21.3c11.2,7.8,22.4,16.8,30.3,24.7c6.7,6.7,12.3,11.2,14.6,14.6
		c3.4-2.2,5.6-3.4,9-5.6c-3.4-3.4-9-9-15.7-16.8c-7.8-7.8-16.8-19.1-25.8-30.3c-14.6-17.9-19.1-42.6-25.8-65
		c-3.4-7.8-6.7-15.7-11.2-22.4c-4.5-5.6-7.8-11.2-13.5-14.6c-4.5-3.4-10.1-6.7-15.7-10.1c-5.6-3.4-12.3-5.6-19.1-5.6
		c-13.5-2.2-28,1.1-38.1,11.2l0,0C44.8,158,53.8,189.4,71.7,209.6z M72.9,148c21.3-24.7,52.7-4.5,66.1,14.6
		c4.5,6.7,11.2,22.4,13.5,30.3c4.5,14.6,7.8,28,14.6,41.5c-12.3-6.7-29.1-7.8-42.6-12.3c-7.8-2.2-20.2-6.7-26.9-11.2
		C79.6,200.6,53.8,169.3,72.9,148z M28,516.7v-66.1C28,310.5,23.5,1.1,23.5,0H4.5C4.5,1.1,0,310.5,0,450.6v66.1v28h28h77.3
		c156.9,0,505.5-4.5,505.5-5.6v-17.9c-1.1-1.1-348.6-4.5-505.5-4.5L28,516.7L28,516.7z M289.2,133.4c16.8-2.2,29.1-17.9,25.8-34.7
		c-1.1-16.8-16.8-29.1-34.7-26.9c-7.8,1.1-15.7,5.6-20.2,12.3c-4.5,6.7-6.7,14.6-5.6,22.4C256.7,123.3,272.4,135.6,289.2,133.4z"/>
</g>
<g>
</g>
<g>
</g>
<g>
</g>
<g>
</g>
<g>
</g>
<g>
</g>
<g>
</g>
<g>
</g>
<g>
</g>
<g>
</g>
<g>
</g>
<g>
</g>
<g>
</g>
<g>
</g>
<g>
</g>
</svg>
