<?xml version="1.0" encoding="utf-8"?>
<!-- Generator: Adobe Illustrator 17.0.0, SVG Export Plug-In . SVG Version: 6.00 Build 0)  -->
<!DOCTYPE svg PUBLIC "-//W3C//DTD SVG 1.1//EN" "http://www.w3.org/Graphics/SVG/1.1/DTD/svg11.dtd">
<svg version="1.1" id="Layer_1" xmlns="http://www.w3.org/2000/svg" xmlns:xlink="http://www.w3.org/1999/xlink" x="0px" y="0px"
	 width="612px" height="503.6px" viewBox="0 0 612 503.6" enable-background="new 0 0 612 503.6" xml:space="preserve">
<g>
	<path d="M92.4,394c-8.6,0-16,7.4-16,16c0,8.6,7.4,16,16,16s16-7.4,16-16C108.4,401.4,101,394,92.4,394z M92.4,300.5
		c-8.6,0-16,7.4-16,16c0,8.6,7.4,16,16,16s16-7.4,16-16C108.4,307.8,101,300.5,92.4,300.5z M45.6,347.3c-8.6,0-16,7.4-16,16
		s7.4,16,16,16s16-7.4,16-16C61.6,354.6,54.2,347.3,45.6,347.3z M139.2,347.3c-8.6,0-16,7.4-16,16s7.4,16,16,16c8.6,0,16-7.4,16-16
		C155.2,354.6,147.8,347.3,139.2,347.3z M92.4,347.3c-8.6,0-16,7.4-16,16s7.4,16,16,16s16-7.4,16-16
		C108.4,354.6,101,347.3,92.4,347.3z M209.4,66.5c18.5-3.7,29.6-22.2,25.9-40.6c-2.5-8.6-7.4-16-14.8-20.9s-17.2-6.2-25.9-3.7
		c-18.5,3.7-29.6,22.2-25.9,40.6C173.7,59.1,190.9,70.2,209.4,66.5z M567.7,326.3l44.3-45.6c-25.9-25.9-67.7-54.2-114.5-50.5
		c-23.4,1.2-43.1,7.4-60.3,14.8c14.8-41.9,18.5-98.5-6.2-134.2c-9.9-14.8-23.4-28.3-38.2-38.2c-20.9-13.5-45.6-22.2-70.2-24.6
		c-12.3-1.2-25.9-2.5-38.2-2.5c-6.2,0-25.9,1.2-28.3,1.2c4.9,12.3,12.3,52.9,11.1,72.7c0,25.9-6.2,69-23.4,98.5
		c-8.6,16-20.9,25.9-29.6,33.2c-19.7-24.6-30.8-57.9-30.8-91.1l1.2-18.5v-4.9l-44.3-22.2l-1.2,1.2L138,117l-7.4,7.4
		c-9.9,9.9-18.5,18.5-27.1,25.9c-18.5,16-35.7,28.3-51.7,36.9C21,205.6-1.2,213,0,213l9.9,39.4c1.2,0,27.1-6.2,64-24.6
		c18.5-8.6,38.2-22.2,59.1-38.2c6.2,57.9,39.4,121.9,102.2,147.8c45.6,17.2,89.9,14.8,126.8,4.9c2.5,17.2,8.6,32,18.5,45.6
		c54.2,83.7,126.8,114.5,125.6,115.8l20.9-35.7c2.5-1.2-61.6-38.2-99.7-107.1c-7.4-13.5-9.9-25.9-11.1-39.4
		C482.8,289.4,523.4,278.3,567.7,326.3z M374.4,234c-4.9,11.1-9.9,27.1-12.3,43.1c-32,11.1-70.2,16-105.9,4.9
		c-3.7-1.2-6.2-2.5-9.9-3.7c11.1-7.4,24.6-18.5,35.7-34.5c27.1-36.9,38.2-89.9,39.4-121.9c0-2.5,0-6.2,0-8.6
		c23.4,4.9,44.3,14.8,52.9,30.8C386.7,162.5,389.2,192.1,374.4,234z"/>
</g>
<g>
</g>
<g>
</g>
<g>
</g>
<g>
</g>
<g>
</g>
<g>
</g>
<g>
</g>
<g>
</g>
<g>
</g>
<g>
</g>
<g>
</g>
<g>
</g>
<g>
</g>
<g>
</g>
<g>
</g>
</svg>
