<?xml version="1.0" encoding="utf-8"?>
<!-- Generator: Adobe Illustrator 17.0.0, SVG Export Plug-In . SVG Version: 6.00 Build 0)  -->
<!DOCTYPE svg PUBLIC "-//W3C//DTD SVG 1.1//EN" "http://www.w3.org/Graphics/SVG/1.1/DTD/svg11.dtd">
<svg version="1.1" id="Layer_1" xmlns="http://www.w3.org/2000/svg" xmlns:xlink="http://www.w3.org/1999/xlink" x="0px" y="0px"
	 width="613.2px" height="477.3px" viewBox="0 0 613.2 477.3" enable-background="new 0 0 613.2 477.3" xml:space="preserve">
<g>
	<path d="M113.6,120.5c20.1-2.4,34.3-20.1,33.1-40.2c-1.2-20.1-18.9-34.3-39.1-33.1c-10.7,1.2-18.9,5.9-24.9,13
		c-7.1,8.3-9.5,17.8-8.3,27.2C75.8,107.5,93.5,121.7,113.6,120.5z M81.7,179.7c47.4,14.2,106.5,14.2,142.1,9.5
		c28.4-3.6,56.8-10.7,84-17.8c26-7.1,52.1-14.2,79.3-16.6c33.1-4.7,88.8-5.9,133.8,4.7c45,9.5,78.1,29.6,76.9,29.6l10.7-14.2
		c0-1.2-34.3-24.9-81.7-37.9c-46.2-11.8-90-10.7-137.3-10.7c-50.9,0-101.8-10.7-149.2-27.2c3.6-4.7,7.1-9.5,9.5-13
		c7.1-8.3,14.2-16.6,24.9-21.3c4.7-2.4,9.5-3.6,14.2-4.7c34.3-5.9,68.7,9.5,98.3,26c1.2,0,17.8,10.7,17.8,10.7l26-27.2
		c0,0-10.7-14.2-23.7-23.7c-13-11.8-28.4-22.5-43.8-29.6c-36.7-18.9-76.9-22.5-114.8-4.7c-17.8,8.3-35.5,21.3-46.2,37.9
		c-15.4,17.8-27.2,47.4-39.1,63.9c-10.7,15.4-29.6,30.8-46.2,37.9c-10.7,4.7-22.5,5.9-33.1,5.9c-43.8-9.5-74.6-29.6-73.4-28.4L0,143
		C0,144.1,34.3,167.8,81.7,179.7z M390.6,178.5c-28.4,3.6-55.6,10.7-82.9,17.8l4.7,16.6c26-7.1,53.3-14.2,80.5-16.6
		c34.3-4.7,90-5.9,134.9,4.7c46.2,9.5,78.1,30.8,78.1,30.8l7.1-9.5c0-1.2-33.1-23.7-80.5-35.5C484.2,173.7,426.2,173.7,390.6,178.5z
		 M307.8,196.2c-26,7.1-53.3,14.2-80.5,16.6c-34.3,4.7-90,5.9-134.9-4.7c-46.2-9.5-78.1-30.8-78.1-30.8l-7.1,9.5
		c0,1.2,33.1,23.7,80.5,35.5c47.4,13,105.4,13,140.9,8.3c28.4-3.6,55.6-10.7,82.9-17.8L307.8,196.2z M269.9,290.9
		c-9.5,1.2-18.9,5.9-24.9,13c-5.9,7.1-8.3,16.6-8.3,27.2c2.4,20.1,20.1,34.3,40.2,32c20.1-2.4,34.3-20.1,32-40.2
		C307.8,302.8,290,288.6,269.9,290.9z M223.7,431.8c28.4-3.6,56.8-10.7,84-17.8c26-7.1,52.1-14.2,79.3-16.6
		c33.1-4.7,88.8-5.9,133.8,4.7c45,9.5,78.1,29.6,76.9,29.6l10.7-14.2c0-1.2-68.7-37.9-75.8-41.4c-34.3-15.4-69.8-26-106.5-34.3
		c-1.2,0-10.7-2.4-11.8-2.4c0,0,17.8-34.3,46.2-37.9c23.7-2.4,47.4,4.7,68.7,13c2.4,1.2,34.3,16.6,40.2,20.1l26-28.4
		c0,0-14.2-16.6-29.6-28.4c-15.4-10.7-32-21.3-48.5-28.4c-35.5-15.4-78.1-13-112.5,5.9c-24.9,14.2-40.2,37.9-53.3,62.7
		c-5.9,10.7-11.8,21.3-18.9,30.8c-15.4,18.9-33.1,35.5-55.6,45c-17.8,4.7-36.7,8.3-54.5,10.7c-33.1,4.7-88.8,5.9-133.8-4.7
		c-45-9.5-78.1-29.6-76.9-29.6L0,385.6c0,1.2,34.3,24.9,81.7,37.9S188.2,436.5,223.7,431.8z M531.5,429.4
		c-47.4-13-105.4-13-140.9-8.3c-28.4,3.6-55.6,10.7-82.9,17.8l4.7,16.6c26-7.1,53.3-14.2,80.5-16.6c34.3-4.7,90-5.9,134.9,4.7
		c46.2,9.5,78.1,30.8,78.1,30.8l7.1-9.5C612,464.9,578.9,441.3,531.5,429.4z M227.3,456.7c-34.3,4.7-90,5.9-134.9-4.7
		c-46.2-9.5-78.1-30.8-78.1-30.8l-7.1,9.5c0,1.2,33.1,23.7,80.5,35.5c47.4,13,105.4,13,140.9,8.3c28.4-3.6,55.6-10.7,82.9-17.8
		l-3.6-17.8C280.5,447.2,254.5,453.1,227.3,456.7z"/>
</g>
<g>
</g>
<g>
</g>
<g>
</g>
<g>
</g>
<g>
</g>
<g>
</g>
<g>
</g>
<g>
</g>
<g>
</g>
<g>
</g>
<g>
</g>
<g>
</g>
<g>
</g>
<g>
</g>
<g>
</g>
</svg>
