<?xml version="1.0" encoding="utf-8"?>
<!-- Generator: Adobe Illustrator 17.0.0, SVG Export Plug-In . SVG Version: 6.00 Build 0)  -->
<!DOCTYPE svg PUBLIC "-//W3C//DTD SVG 1.1//EN" "http://www.w3.org/Graphics/SVG/1.1/DTD/svg11.dtd">
<svg version="1.1" id="Layer_1" xmlns="http://www.w3.org/2000/svg" xmlns:xlink="http://www.w3.org/1999/xlink" x="0px" y="0px"
	 width="612px" height="413.3px" viewBox="0 0 612 413.3" enable-background="new 0 0 612 413.3" xml:space="preserve">
<g>
	<path d="M476,115.7c19.1,1.2,35.8-11.9,37-31c1.2-19.1-11.9-35.8-31-37c-9.5-1.2-17.9,2.4-25.1,8.4S446.2,70.4,445,79.9
		C443.8,97.8,456.9,114.5,476,115.7z M229.1,392.5c-34.6,4.8-90.7,6-136-4.8c-46.5-9.5-78.7-31-78.7-31l-7.2,9.5
		c0,1.2,33.4,23.9,81.1,35.8c47.7,13.1,106.2,13.1,142,8.4c28.6-3.6,56.1-10.7,83.5-17.9l-4.8-17.9
		C282.7,381.8,256.5,388.9,229.1,392.5z M196.8,134.8c19.1,1.2,35.8-11.9,37-31c1.2-19.1-13.1-35.8-31-37
		c-9.5-1.2-17.9,2.4-25.1,8.4c-7.2,6-10.7,14.3-11.9,23.9C164.6,116.9,177.8,133.6,196.8,134.8z M225.5,368.6
		c28.6-3.6,57.3-10.7,84.7-17.9c26.2-7.2,52.5-14.3,79.9-16.7c33.4-4.8,89.5-6,134.8,4.8c16.7,3.6,34.6,8.4,50.1,15.5
		c2.4,1.2,25.1,11.9,25.1,11.9l10.7-14.3c0,0,4.8-31-6-71.6c-10.7-41.8-46.5-81.1-70.4-97.8c-37-27.4-77.5-46.5-110.9-68
		c-21.5-13.1-54.9-34.6-70.4-60.8C336.4,27.4,334,0,332.8,0l-35.8,1.2c1.2,0-3.6,34.6,13.1,74c17.9,40.6,58.5,71.6,82.3,87.1
		c9.5,6,17.9,10.7,27.4,16.7c-7.2,37-2.4,82.3,3.6,125.3c-14.3,0-26.2,1.2-37,2.4c-20.3,2.4-39.4,6-59.6,11.9
		c-2.4-13.1-8.4-32.2-21.5-51.3c-21.5-33.4-56.1-59.6-77.5-74c-33.4-22.7-68-41.8-96.6-63.2c-19.1-14.3-46.5-38.2-59.6-63.2
		C57.3,42.9,54.9,16.7,53.7,16.7l-35.8,1.2c0,0-3.6,32.2,10.7,69.2s47.7,70.4,69.2,85.9c14.3,10.7,27.4,20.3,41.8,28.6
		c-7.2,42.9,1.2,95.4,8.4,143.2c-20.3-1.2-41.8-3.6-60.8-7.2c-45.3-9.5-78.7-29.8-77.5-29.8L0,322.1c0,1.2,34.6,25.1,82.3,38.2
		C130,373.4,189.7,373.4,225.5,368.6z M499.9,226.7c20.3,14.3,47.7,39.4,59.6,68c4.8,11.9,8.4,23.9,9.5,33.4
		c-11.9-4.8-25.1-9.5-39.4-13.1c-11.9-3.6-23.9-6-35.8-7.2c-4.8-31-9.5-64.4-9.5-91.9C490.3,219.5,495.1,223.1,499.9,226.7z
		 M268.4,294.7c10.7,11.9,16.7,25.1,21.5,34.6c-22.7,6-44.1,10.7-66.8,13.1c-1.2,0-3.6,0-4.8,0c-4.8-31-10.7-68-11.9-99
		C225.5,256.5,251.7,274.4,268.4,294.7z M534.5,365.1c-47.7-13.1-106.2-13.1-142-8.4c-28.6,3.6-56.1,10.7-83.5,17.9l4.8,16.7
		c26.2-7.2,53.7-14.3,81.1-16.7c34.6-4.8,90.7-6,136,4.8c37,8.4,64.4,22.7,75.2,28.6l6-10.7C601.3,390.1,572.6,374.6,534.5,365.1z"
		/>
</g>
<g>
</g>
<g>
</g>
<g>
</g>
<g>
</g>
<g>
</g>
<g>
</g>
<g>
</g>
<g>
</g>
<g>
</g>
<g>
</g>
<g>
</g>
<g>
</g>
<g>
</g>
<g>
</g>
<g>
</g>
</svg>
