<?xml version="1.0" encoding="utf-8"?>
<!-- Generator: Adobe Illustrator 17.0.0, SVG Export Plug-In . SVG Version: 6.00 Build 0)  -->
<!DOCTYPE svg PUBLIC "-//W3C//DTD SVG 1.1//EN" "http://www.w3.org/Graphics/SVG/1.1/DTD/svg11.dtd">
<svg version="1.1" id="Layer_1" xmlns="http://www.w3.org/2000/svg" xmlns:xlink="http://www.w3.org/1999/xlink" x="0px" y="0px"
	 width="612.2px" height="653.6px" viewBox="0 0 612.2 653.6" enable-background="new 0 0 612.2 653.6" xml:space="preserve">
<g>
	<path d="M319.8,306.3c0,0-81.3-4.1-117.2-4.1h-85.5C81.3,302.1,0,304.9,0,306.3v12.4c0,0,81.3,4.1,117.2,4.1h85.5
		c35.8,0,117.2-2.8,117.2-4.1V306.3z M343.2,78.8c22.1,1.4,41.4-13.8,42.7-35.8S370.8,1.6,350.1,0.3c-11-1.4-20.7,2.8-28.9,9.6
		c-8.3,6.9-12.4,16.5-13.8,27.6C304.6,58.2,321.2,77.5,343.2,78.8z M57.9,263.5c8.3,0,13.8-6.9,13.8-13.8c0-8.3-6.9-13.8-13.8-13.8
		c-8.3,0-13.8,6.9-13.8,13.8C44.1,258,51,263.5,57.9,263.5z M111.6,216.7c9.6,0,22.1-2.8,31.7,0c4.1,1.4,6.9,2.8,9.6,5.5l5.5-17.9
		c0-1.4-2.8-8.3-2.8-9.6c0-2.8,0-5.5,0-8.3c0-4.1,0-9.6,0-13.8c-5.5-19.3-17.9-35.8-38.6-34.5c-26.2,1.4-42.7,22.1-41.4,48.2
		C75.8,205.6,93.7,215.3,111.6,216.7z M135.1,173.9c1.4,6.9,0,12.4,0,19.3c0,1.4,0,2.8,0,5.5c-1.4,0-2.8,0-5.5,0
		c-12.4,0-33.1,4.1-38.6-11C78.6,156,130.9,139.5,135.1,173.9z M493.5,157.4c22.1,12.4,40,28.9,57.9,46.9
		c1.4,1.4,26.2,30.3,26.2,28.9l34.5-22.1c4.1,4.1-64.8-133.7-159.9-126.8c-60.6,1.4-103.4,34.5-140.6,59.3
		c-24.8,16.5-59.3,45.5-89.6,57.9c-30.3,13.8-55.1,8.3-55.1,9.6l-11,40c-1.4,0,38.6,16.5,84.1,1.4c44.1-12.4,84.1-41.4,107.5-56.5
		c6.9-5.5,15.2-9.6,22.1-15.2c26.2,28.9,49.6,62,64.8,93.7c0,0,0,0,0,1.4c-24.8,17.9-49.6,37.2-70.3,59.3
		c-40,37.2-86.8,111.6-110.3,179.2c-23.4,67.5-30.3,124.1-31.7,124.1l46.9,11c-1.4,0,8.3-24.8,8.3-26.2
		c16.5-45.5,35.8-89.6,59.3-132.3c12.4-23.4,27.6-46.9,44.1-67.5c16.5-19.3,35.8-37.2,55.1-53.8c0,0,1.4-1.4,2.8-1.4
		c-17.9,45.5-27.6,106.1-5.5,158.5c49.6,103.4,126.8,124.1,130.9,126.8l26.2-45.5c4.1-1.4-70.3-37.2-93.7-104.8
		c-11-33.1-2.8-73.1,15.2-111.6c15.2-27.6,23.4-57.9,19.3-88.2c-1.4-11-4.1-22.1-9.6-33.1c-4.1-9.6-8.3-19.3-13.8-28.9
		c-11-20.7-23.4-41.4-37.2-59.3c-1.4-2.8-12.4-16.5-24.8-31.7C461.8,146.4,478.3,149.1,493.5,157.4z"/>
</g>
<g>
</g>
<g>
</g>
<g>
</g>
<g>
</g>
<g>
</g>
<g>
</g>
<g>
</g>
<g>
</g>
<g>
</g>
<g>
</g>
<g>
</g>
<g>
</g>
<g>
</g>
<g>
</g>
<g>
</g>
</svg>
