<?xml version="1.0" encoding="utf-8"?>
<!-- Generator: Adobe Illustrator 17.0.0, SVG Export Plug-In . SVG Version: 6.00 Build 0)  -->
<!DOCTYPE svg PUBLIC "-//W3C//DTD SVG 1.1//EN" "http://www.w3.org/Graphics/SVG/1.1/DTD/svg11.dtd">
<svg version="1.1" id="Layer_1" xmlns="http://www.w3.org/2000/svg" xmlns:xlink="http://www.w3.org/1999/xlink" x="0px" y="0px"
	 width="570px" height="792px" viewBox="0 0 570 792" enable-background="new 0 0 570 792" xml:space="preserve">
<g>
	<path d="M451.2,120c24-3.2,41.6-25.6,38.4-49.6S464,28.8,440,32c-14.4,1.6-24,6.4-32,16c-6.4,9.6-9.6,20.8-8,33.6
		C403.2,105.6,425.6,123.2,451.2,120z M505.6,196.8c-46.4-33.6-94.4-48-134.4-65.6c-27.2-12.8-60.8-28.8-64-51.2
		c-4.8-27.2,11.2-59.2,8-59.2L273.6,0c1.6,1.6-24,28.8-27.2,84.8c3.2,65.6,68.8,100.8,92.8,112c4.8,1.6,9.6,4.8,14.4,6.4L320,305.6
		c-30.4-35.2-64-67.2-97.6-92.8c-28.8-22.4-57.6-41.6-89.6-60.8C128,148.8,24,89.6,22.4,94.4L0,137.6c1.6,0,171.2,116.8,224,192
		c46.4,54.4,86.4,115.2,116.8,179.2c46.4,80,81.6,270.4,80,281.6L472,792c3.2-81.6-9.6-164.8-11.2-176
		c-12.8-78.4-32-147.2-68.8-214.4l52.8-160c6.4,3.2,12.8,8,19.2,12.8c20.8,14.4,43.2,38.4,44.8,73.6c4.8,33.6-6.4,65.6-3.2,65.6
		l44.8,14.4c-1.6-1.6,17.6-32,19.2-81.6C574.4,275.2,536,216,505.6,196.8z"/>
</g>
<g>
</g>
<g>
</g>
<g>
</g>
<g>
</g>
<g>
</g>
<g>
</g>
<g>
</g>
<g>
</g>
<g>
</g>
<g>
</g>
<g>
</g>
<g>
</g>
<g>
</g>
<g>
</g>
<g>
</g>
</svg>
