<?xml version="1.0" encoding="utf-8"?>
<!-- Generator: Adobe Illustrator 17.0.0, SVG Export Plug-In . SVG Version: 6.00 Build 0)  -->
<!DOCTYPE svg PUBLIC "-//W3C//DTD SVG 1.1//EN" "http://www.w3.org/Graphics/SVG/1.1/DTD/svg11.dtd">
<svg version="1.1" id="Layer_1" xmlns="http://www.w3.org/2000/svg" xmlns:xlink="http://www.w3.org/1999/xlink" x="0px" y="0px"
	 width="615.2px" height="688.2px" viewBox="0 0 615.2 688.2" enable-background="new 0 0 615.2 688.2" xml:space="preserve">
<g>
	<path d="M539.6,588.3c-32.8-34.2-49.9-89.9-54.2-127c-5.7-28.5-4.3-58.5-2.9-88.4l0,0c11.4-135.5-28.5-225.4-117-266.8l-30,62.8
		c-5.7,12.8-12.8,24.3-15.7,28.5c-11.4,15.7-22.8,31.4-38.5,42.8c-30,24.3-68.5,39.9-104.1,51.4c0,0-4.3,1.4-8.6,2.9l14.3,39.9
		c15.7-1.4,35.7-2.9,59.9-10c45.7-12.8,92.7-45.7,114.1-74.2c7.1-8.6,14.3-17.1,20-27.1c22.8,25.7,35.7,61.3,35.7,114.1
		c-34.2,20-64.2,44.2-89.9,72.8c-34.2,34.2-74.2,99.9-94.2,159.8c-21.4,59.9-21.4,114.1-21.4,114.1l51.4,4.3
		c12.8-52.8,59.9-159.8,124.1-225.4c8.6-10,18.5-20,30-27.1c0,12.8,1.4,25.7,4.3,38.5c4.3,44.2,32.8,118.4,84.2,159.8
		c48.5,42.8,99.9,49.9,99.9,49.9l14.3-44.2C613.7,636.8,572.4,622.6,539.6,588.3z M143,234.5c-8.6-35.7,2.9-72.8,7.1-107
		c1.4-12.8,1.4-25.7,0-38.5c-1.4-11.4-4.3-20-8.6-30c-4.3-8.6-8.6-17.1-14.3-24.3c-5.7-8.6-14.3-15.7-21.4-21.4
		c-20-12.8-41.4-17.1-61.3-10l0,0C1.7,19.1-6.8,67.6,4.6,109c4.3,12.8,10,25.7,17.1,35.7c8.6,12.8,21.4,24.3,32.8,34.2
		c22.8,20,47.1,39.9,61.3,67c11.4,20,20,38.5,25.7,54.2c10,27.1,14.3,35.7,14.3,35.7l0,0l0,0l15.7-1.4c0,0-5.7-14.3-14.3-41.4
		C153,277.3,147.3,255.9,143,234.5z M125.9,140.4c-2.9,24.3-7.1,49.9-5.7,75.6c-14.3-20-32.8-35.7-49.9-52.8c-10-10-20-18.5-28.5-30
		c-20-27.1-31.4-92.7,10-107l0,0c41.4-15.7,75.6,39.9,77,74.2C128.7,113.3,127.3,127.5,125.9,140.4z M304.2,111.9
		C325.6,109,341.3,89,337,67.6c-2.9-21.4-22.8-37.1-44.2-34.2c-10,1.4-20,7.1-25.7,15.7s-8.6,18.5-7.1,28.5
		C262.8,100.4,282.8,114.7,304.2,111.9z M33.1,351.5c0,0-12.8-1.4-22.8,10c-17.1,18.5-1.4,49.9,22.8,49.9c11.4,0,20-5.7,25.7-15.7
		s4.3-25.7-4.3-34.2C46,350.1,31.7,351.5,33.1,351.5z M44.5,391.5c-4.3,2.9-10,4.3-15.7,2.9c-5.7-1.4-8.6-5.7-11.4-10
		c-2.9-10,5.7-24.3,15.7-22.8c7.1,0,12.8,7.1,14.3,12.8C50.3,381.5,48.8,387.2,44.5,391.5z"/>
</g>
<g>
</g>
<g>
</g>
<g>
</g>
<g>
</g>
<g>
</g>
<g>
</g>
<g>
</g>
<g>
</g>
<g>
</g>
<g>
</g>
<g>
</g>
<g>
</g>
<g>
</g>
<g>
</g>
<g>
</g>
</svg>
