<?xml version="1.0" encoding="utf-8"?>
<!-- Generator: Adobe Illustrator 17.0.0, SVG Export Plug-In . SVG Version: 6.00 Build 0)  -->
<!DOCTYPE svg PUBLIC "-//W3C//DTD SVG 1.1//EN" "http://www.w3.org/Graphics/SVG/1.1/DTD/svg11.dtd">
<svg version="1.1" id="Layer_1" xmlns="http://www.w3.org/2000/svg" xmlns:xlink="http://www.w3.org/1999/xlink" x="0px" y="0px"
	 width="612px" height="565.1px" viewBox="0 0 612 565.1" enable-background="new 0 0 612 565.1" xml:space="preserve">
<g>
	<path d="M399,68.8c11.3-13.5,10.1-33.8-3.4-46.2c-13.5-11.3-33.8-10.1-46.2,3.4c-5.6,6.8-7.9,14.7-7.9,23.7
		c1.1,9,4.5,16.9,11.3,22.5C367.4,84.5,387.7,82.3,399,68.8z M519.6,75.5c2.3-3.4,36.1-60.9,32.7-62L521.8,0
		c-3.4,9-32.7,42.8-34.9,46.2c-30.4,31.6-69.9,59.7-115,62c-16.9,1.1-31.6-2.3-45.1-6.8c-24.8-10.1-46.2-29.3-63.1-53
		c-2.3-3.4-24.8-38.3-27-46.2l-32.7,9c0,0,4.5,29.3,22.5,62c16.9,33.8,53,66.5,81.1,75.5c12.4,4.5,25.9,6.8,39.4,9
		c-2.3,27,0,50.7-2.3,69.9c-7.9,13.5-28.2,11.3-55.2,15.8c-34.9,0-116.1,24.8-144.3,87.9c-27,58.6-21.4,102.6-22.5,102.6l34.9,2.3
		c1.1,1.1,3.4-45.1,29.3-81.1c15.8-22.5,38.3-36.1,62-45.1c-16.9,12.4-32.7,28.2-44,47.3c-29.3,60.9-24.8,116.1-24.8,127.4l38.3,6.8
		c3.4,3.4,5.6-62,30.4-105.9c13.5-23.7,53-41.7,76.6-53c31.6-14.7,66.5-33.8,75.5-71c7.9-33.8,0-71,6.8-104.8
		c25.9-5.6,51.8-16.9,72.1-36.1C494.8,107.1,508.3,91.3,519.6,75.5z M0,503.8c0,1.1,143.1,49.6,223.2,58.6
		c56.4,5.6,113.8,2.3,170.2-7.9c73.3-7.9,218.7-71,218.7-71l-5.6-14.7c0,0-147.6,54.1-217.5,62c-54.1,9-109.3,12.4-163.4,6.8
		C152.2,532,6.8,488,5.6,488L0,503.8z"/>
</g>
<g>
</g>
<g>
</g>
<g>
</g>
<g>
</g>
<g>
</g>
<g>
</g>
<g>
</g>
<g>
</g>
<g>
</g>
<g>
</g>
<g>
</g>
<g>
</g>
<g>
</g>
<g>
</g>
<g>
</g>
</svg>
