<?xml version="1.0" encoding="utf-8"?>
<!-- Generator: Adobe Illustrator 17.0.0, SVG Export Plug-In . SVG Version: 6.00 Build 0)  -->
<!DOCTYPE svg PUBLIC "-//W3C//DTD SVG 1.1//EN" "http://www.w3.org/Graphics/SVG/1.1/DTD/svg11.dtd">
<svg version="1.1" id="Layer_1" xmlns="http://www.w3.org/2000/svg" xmlns:xlink="http://www.w3.org/1999/xlink" x="0px" y="0px"
	 width="612px" height="632.4px" viewBox="0 0 612 632.4" enable-background="new 0 0 612 632.4" xml:space="preserve">
<g>
	<path d="M217.2,79.7c21.2,7.1,43.7-4.2,52.2-25.4c2.8-9.9,2.8-21.2-1.4-31c-4.2-9.9-12.7-16.9-24-21.2
		c-21.2-7.1-43.7,4.2-52.2,25.4C184.7,48.6,196,72.6,217.2,79.7z M490.7,454.8c-57.8-52.2-76.1-145.2-102.9-211.5
		c-12.7-31-31-63.5-53.6-93.1c8.5-4.2,18.3-8.5,26.8-12.7c28.2-12.7,70.5-29.6,101.5-19.7c32.4,8.5,55,36.7,56.4,35.3l35.3-28.2
		c0,1.4-18.3-38.1-70.5-62c-55-24-119.9-2.8-149.5,11.3c-49.4,22.6-93.1,49.4-136.8,63.5c-28.2,9.9-70.5,19.7-104.4,7.1
		c-35.3-9.9-59.2-35.3-60.6-33.8L0,141.7c0,0,21.2,33.8,70.5,57.8c47.9,26.8,117,18.3,149.5,5.6c14.1-4.2,26.8-9.9,39.5-15.5
		c22.6,24,39.5,53.6,53.6,86c0,1.4,1.4,2.8,1.4,4.2c-29.6,21.2-57.8,47.9-76.1,77.6c-62,80.4-63.5,272.2-60.6,270.7l52.2,4.2
		c0,0,21.2-150.9,71.9-228.4c11.3-16.9,25.4-33.8,42.3-46.5c21.2,50.8,50.8,110,100.1,148.1c74.7,63.5,148.1,79,148.1,80.4
		l19.7-49.4C613.4,535.1,545.7,511.2,490.7,454.8z M42.3,339.1c-11.3,0-19.7,8.5-19.7,19.7s8.5,19.7,19.7,19.7S62,370.1,62,358.9
		S53.6,339.1,42.3,339.1z M101.5,339.1c-11.3,0-19.7,8.5-19.7,19.7s8.5,19.7,19.7,19.7s19.7-8.5,19.7-19.7
		C121.3,347.6,112.8,339.1,101.5,339.1z M91.7,306.7c0-11.3-8.5-19.7-19.7-19.7s-19.7,8.5-19.7,19.7s8.5,19.7,19.7,19.7
		S91.7,318,91.7,306.7z"/>
</g>
<g>
</g>
<g>
</g>
<g>
</g>
<g>
</g>
<g>
</g>
<g>
</g>
<g>
</g>
<g>
</g>
<g>
</g>
<g>
</g>
<g>
</g>
<g>
</g>
<g>
</g>
<g>
</g>
<g>
</g>
</svg>
