<?xml version="1.0" encoding="utf-8"?>
<!-- Generator: Adobe Illustrator 17.0.0, SVG Export Plug-In . SVG Version: 6.00 Build 0)  -->
<!DOCTYPE svg PUBLIC "-//W3C//DTD SVG 1.1//EN" "http://www.w3.org/Graphics/SVG/1.1/DTD/svg11.dtd">
<svg version="1.1" id="Layer_1" xmlns="http://www.w3.org/2000/svg" xmlns:xlink="http://www.w3.org/1999/xlink" x="0px" y="0px"
	 width="597.9px" height="789.2px" viewBox="0 0 597.9 789.2" enable-background="new 0 0 597.9 789.2" xml:space="preserve">
<g>
	<path d="M268.7,90.7c25.8,3.2,48.4-14.5,53.2-38.7c1.6-12.9-1.6-24.2-9.7-33.9S294.5,2,281.6,0.4c-25.8-3.2-48.4,14.5-51.6,38.7
		C225.1,63.3,242.9,87.5,268.7,90.7z M520.3,589.1C501,490.7,509,358.5,481.6,271.4c-17.7-67.7-54.8-135.5-111.3-183.9
		c0,0-45.2,50-75.8,79c-9.7,9.7-24.2,22.6-33.9,30.6c-25.8,22.6-67.7,59.7-106.5,74.2c-38.7,16.1-71,8.1-72.6,11.3l-11.3,46.8
		c0-1.6,46.8,17.7,103.2,1.6c56.5-14.5,108.1-53.2,135.5-77.4c16.1-14.5,32.3-27.4,46.8-40.3c14.5,24.2,27.4,51.6,35.5,82.3
		c3.2,11.3,6.5,25.8,9.7,40.3c-30.6,19.4-59.7,40.3-83.9,66.1c-50,45.2-96.8,143.6-109.7,227.4c-14.5,83.9-6.5,151.6-8.1,151.6h61.3
		c1.6,0,4.8-62.9,24.2-133.9c17.7-72.6,62.9-145.2,100-179c9.7-9.7,19.4-19.4,30.6-27.4C421.9,494,430,552,442.9,606.9
		C470.3,726.2,560.7,790.8,559,789.2l38.7-46.8C601,742.4,536.5,690.8,520.3,589.1z M97.7,181c-14.5-22.6-37.1-22.6-37.1-24.2
		c0,0-22.6-4.8-41.9,11.3c-37.1,27.4-14.5,87.1,29,93.6C89.7,268.1,123.5,218.1,97.7,181z M73.5,232.7c-8.1,4.8-17.7,8.1-27.4,6.5
		C20.3,234.3,12.2,202,30,184.3c16.1-16.1,40.3-12.9,51.6,6.5C91.3,205.2,84.8,226.2,73.5,232.7z"/>
</g>
<g>
</g>
<g>
</g>
<g>
</g>
<g>
</g>
<g>
</g>
<g>
</g>
<g>
</g>
<g>
</g>
<g>
</g>
<g>
</g>
<g>
</g>
<g>
</g>
<g>
</g>
<g>
</g>
<g>
</g>
</svg>
