<?xml version="1.0" encoding="utf-8"?>
<!-- Generator: Adobe Illustrator 17.0.0, SVG Export Plug-In . SVG Version: 6.00 Build 0)  -->
<!DOCTYPE svg PUBLIC "-//W3C//DTD SVG 1.1//EN" "http://www.w3.org/Graphics/SVG/1.1/DTD/svg11.dtd">
<svg version="1.1" id="Layer_1" xmlns="http://www.w3.org/2000/svg" xmlns:xlink="http://www.w3.org/1999/xlink" x="0px" y="0px"
	 width="612px" height="435.3px" viewBox="0 0 612 435.3" enable-background="new 0 0 612 435.3" xml:space="preserve">
<g>
	<path d="M522.7,409.8c-45.2,10.7-101.2,9.5-135.7,4.8c-27.4-3.6-53.6-9.5-81-16.7l0,0c-27.4-7.1-54.8-14.3-83.3-17.9
		c-35.7-4.8-94.1-4.8-141.7,8.3c-47.6,11.9-81,35.7-81,35.7l7.1,9.5c-1.2,0,32.1-20.2,78.6-31c45.2-10.7,101.2-9.5,135.7-4.8
		c27.4,3.6,53.6,9.5,81,16.7l0,0c27.4,7.1,54.8,14.3,83.3,17.9c35.7,4.8,94.1,4.8,141.7-8.3c47.6-11.9,81-35.7,81-35.7l-7.1-9.5
		C601.3,378.8,569.1,399,522.7,409.8z M601.3,327.6c1.2,0-32.1,20.2-77.4,29.8c-45.2,10.7-100,9.5-134.5,4.8
		c-21.4-2.4-42.9-7.1-64.3-13.1c11.9-26.2,44.1-88.1,51.2-114.3c14.3-3.6,29.8-8.3,44.1-13.1c27.4-8.3,61.9-39.3,76.2-78.6
		C510.8,108.5,512,80,512,75.2c14.3-6,26.2-31,17.9-48.8c-7.1-19.1-25-22.6-23.8-23.8l0,0l0,0c0,1.2-15.5-7.1-33.3,1.2
		c-19.1,8.3-26.2,35.7-19.1,48.8c2.4,11.9,10.7,19.1,20.2,23.8c-3.6,9.5-9.5,27.4-19.1,45.2c-14.3,26.2-42.9,42.9-64.3,51.2
		c-33.3,13.1-72.6,19.1-113.1,26.2c-25,3.6-70.2,15.5-102.4,35.7c-34.5,20.2-51.2,47.6-52.4,46.4l26.2,23.8
		c1.2,1.2,19.1-17.9,47.6-29.8c28.6-13.1,64.3-17.9,90.5-22.6c1.2,0,2.4,0,3.6-1.2c-6,15.5-11.9,32.1-20.2,46.4
		c-2.4,3.6-10.7,20.2-16.7,33.3c-9.5-2.4-20.2-3.6-29.8-4.8c-35.7-4.8-95.3-4.8-142.9,9.5c-46.4,11.9-81,35.7-81,36.9l10.7,14.3
		c-1.2,0,32.1-20.2,77.4-29.8c45.2-10.7,100-9.5,134.5-4.8c27.4,3.6,53.6,9.5,79.8,16.7l0,0c27.4,8.3,56,14.3,84.5,17.9
		c35.7,4.8,95.3,4.8,142.9-9.5c47.6-13.1,82.2-36.9,82.2-38.1L601.3,327.6z M469.1,47.8c-4.8-8.3-1.2-23.8,9.5-31
		c3.6-2.4,8.3-3.6,13.1-3.6c4.8,0,9.5,0,13.1,3.6c4.8,3.6,8.3,8.3,9.5,14.3c3.6,11.9-2.4,23.8-13.1,29.8c-2.4,1.2-6,2.4-9.5,2.4
		c-3.6,0-7.1,0-10.7-1.2c-3.6-1.2-6-3.6-8.3-6C471.5,53.8,470.3,50.2,469.1,47.8z M335.8,165.7c19.1,1.2,35.7-11.9,36.9-31
		c1.2-19.1-13.1-35.7-31-36.9c-9.5-1.2-17.9,2.4-25,8.3S306,120.4,304.8,130C303.6,147.8,316.7,164.5,335.8,165.7z"/>
</g>
<g>
</g>
<g>
</g>
<g>
</g>
<g>
</g>
<g>
</g>
<g>
</g>
<g>
</g>
<g>
</g>
<g>
</g>
<g>
</g>
<g>
</g>
<g>
</g>
<g>
</g>
<g>
</g>
<g>
</g>
</svg>
