<?xml version="1.0" encoding="utf-8"?>
<!-- Generator: Adobe Illustrator 17.0.0, SVG Export Plug-In . SVG Version: 6.00 Build 0)  -->
<!DOCTYPE svg PUBLIC "-//W3C//DTD SVG 1.1//EN" "http://www.w3.org/Graphics/SVG/1.1/DTD/svg11.dtd">
<svg version="1.1" id="Layer_1" xmlns="http://www.w3.org/2000/svg" xmlns:xlink="http://www.w3.org/1999/xlink" x="0px" y="0px"
	 width="612.4px" height="654.7px" viewBox="0 0 612.4 654.7" enable-background="new 0 0 612.4 654.7" xml:space="preserve">
<g>
	<path d="M334.7,176.7c7.1-4.7,13-13,14.2-21.3c2.4-9.5,0-17.8-4.7-26.1c-10.7-15.4-32-20.2-47.4-9.5c-15.4,10.7-20.2,32-9.5,47.4
		C296.7,182.7,318,187.4,334.7,176.7z M436.7,536.1c-53.4-46.3-87.8-115-94.9-163.7c-5.9-34.4-7.1-70-3.6-106.7
		c19-1.2,38-5.9,54.6-13c33.2-10.7,75.9-48.6,94.9-89c20.2-40.3,22.5-74.7,22.5-74.7L475.8,83c-1.2,0-9.5,28.5-28.5,58.1
		c-19,29.7-52.2,53.4-74.7,60.5c-35.6,15.4-77.1,13-111.5-3.6c-22.5-9.5-56.9-32-78.3-61.7C166.2,113.9,155.6,91.3,152,83L114,89
		c0,0,7.1,34.4,28.5,72.3s64,73.5,94.9,85.4c9.5,4.7,20.2,8.3,30.8,10.7c-2.4,33.2-3.6,66.4,1.2,99.6c-24.9,19-46.3,41.5-62.9,67.6
		c-49.8,71.2-43.9,227.7-43.9,230.1h46.3v-1.2c2.4-124.5,48.6-191,78.3-220.6c21.3,52.2,64,110.3,111.5,144.7
		c60.5,47.4,115,74.7,115,74.7l23.7-38C538.7,615.6,487.7,582.3,436.7,536.1z M612.2,3.6L592,0c-1.2,0-13,41.5-16.6,61.7L573,77.1
		c-35.6-9.5-135.2-34.4-187.4-35.6C334.7,38,284.8,38,235,42.7C179.3,43.9,71.3,71.2,41.7,78.3l-3.6-16.6C34.6,41.5,21.5,0,20.3,0
		L0.2,4.7c-1.2,0,3.6,43.9,7.1,62.9l9.5,45.1c3.6,19,17.8,60.5,17.8,60.5l20.2-3.6c1.2,0-3.6-43.9-7.1-62.9l-2.4-15.4
		c28.5-5.9,137.6-28.5,192.1-29.7c48.6-4.7,98.4-4.7,147.1-1.2c49.8,1.2,150.6,21.3,185,28.5l-3.6,17.8c-3.6,19-5.9,62.9-5.9,62.9
		l20.2,3.6c1.2,0,13-41.5,16.6-61.7l8.3-46.3C609.8,47.4,613.4,3.6,612.2,3.6z"/>
</g>
<g>
</g>
<g>
</g>
<g>
</g>
<g>
</g>
<g>
</g>
<g>
</g>
<g>
</g>
<g>
</g>
<g>
</g>
<g>
</g>
<g>
</g>
<g>
</g>
<g>
</g>
<g>
</g>
<g>
</g>
</svg>
