<?xml version="1.0" encoding="utf-8"?>
<!-- Generator: Adobe Illustrator 17.0.0, SVG Export Plug-In . SVG Version: 6.00 Build 0)  -->
<!DOCTYPE svg PUBLIC "-//W3C//DTD SVG 1.1//EN" "http://www.w3.org/Graphics/SVG/1.1/DTD/svg11.dtd">
<svg version="1.1" id="Layer_1" xmlns="http://www.w3.org/2000/svg" xmlns:xlink="http://www.w3.org/1999/xlink" x="0px" y="0px"
	 width="614.7px" height="581.3px" viewBox="0 0 614.7 581.3" enable-background="new 0 0 614.7 581.3" xml:space="preserve">
<g>
	<path d="M609.3,530.5c-13.4,0-25.4-2.7-36.1-8l0,0c-12-5.3-25.4-9.4-40.1-9.4s-28.1,2.7-40.1,9.4c-10.7,5.3-22.7,8-36.1,8
		c-13.4,0-25.4-2.7-36.1-8c-12-5.3-25.4-9.4-40.1-9.4s-28.1,2.7-40.1,9.4c-10.7,5.3-22.7,8-36.1,8c-13.4,0-25.4-2.7-36.1-8
		c-12-5.3-25.4-9.4-40.1-9.4s-28.1,2.7-40.1,9.4c-10.7,5.3-22.7,8-36.1,8s-25.4-2.7-36.1-8c-12-5.3-25.4-9.4-40.1-9.4
		s-28.1,2.7-40.1,9.4c-10.7,5.3-22.7,8-36.1,8h0v50.8h2.7c13.4,0,26.7-2.7,38.8-8c12-5.3,24.1-8,37.4-8s25.4,2.7,37.4,8
		s25.4,8,38.8,8c13.4,0,26.7-2.7,38.8-8c10.7-5.3,24.1-8,37.4-8c13.4,0,25.4,2.7,37.4,8s25.4,8,38.8,8c13.4,0,26.7-2.7,38.8-8
		c10.7-5.3,24.1-8,37.4-8c13.4,0,25.4,2.7,37.4,8c12,5.3,25.4,8,38.8,8c13.4,0,26.7-2.7,38.8-8c10.7-5.3,24.1-8,37.4-8
		c13.4,0,25.4,2.7,37.4,8c12,5.3,25.4,8,38.8,8h2.7v-50.8H609.3z M64.1,315.4c0,5.3,1.3,12,4,18.7l34.7,80.2
		c6.7,13.4,18.7,22.7,34.7,22.7h93.5l53.4,52.1c2.7,2.7,6.7,4,9.4,4c8,0,13.4-6.7,18.7-13.4c5.3-5.3,10.7-10.7,10.7-17.4
		c0-4-1.3-6.7-5.3-10.7l-62.8-60.1c-4-4-9.4-6.7-17.4-6.7H175L148.3,326h30.7c0,0,5.3,0,10.7-2.7l0,0l57.5-26.7c4-2.7,8-5.3,8-10.7
		c0-1.3,0-2.7-1.3-4c-1.3-2.7-5.3-14.7-8-17.4c-1.3-4-5.3-4-8-4s-5.3,1.3-6.7,1.3L179.1,286H93.5C80.2,286,64.1,295.3,64.1,315.4z
		 M367.5,465l2.7-1.3L367.5,465c1.3,2.7,2.7,4,5.3,4l0,0c1.3,0,2.7,0,4-1.3l220.5-167c1.3-1.3,2.7-4,2.7-5.3s0-2.7,0-4
		C537.2,50.8,233.8,5.3,201.8,1.3c-1.3,0-5.3-1.3-6.7-1.3h-1.3c-1.3,0-4,0-5.3,1.3s-1.3,2.7-1.3,4s0,1.3,0,2.7L367.5,465z
		 M96.2,259.2c18.7,0,33.4-14.7,33.4-33.4s-14.7-33.4-33.4-33.4s-33.4,14.7-33.4,33.4S77.5,259.2,96.2,259.2z"/>
</g>
<g>
</g>
<g>
</g>
<g>
</g>
<g>
</g>
<g>
</g>
<g>
</g>
<g>
</g>
<g>
</g>
<g>
</g>
<g>
</g>
<g>
</g>
<g>
</g>
<g>
</g>
<g>
</g>
<g>
</g>
</svg>
