<?xml version="1.0" encoding="utf-8"?>
<!-- Generator: Adobe Illustrator 17.0.0, SVG Export Plug-In . SVG Version: 6.00 Build 0)  -->
<!DOCTYPE svg PUBLIC "-//W3C//DTD SVG 1.1//EN" "http://www.w3.org/Graphics/SVG/1.1/DTD/svg11.dtd">
<svg version="1.1" id="Layer_1" xmlns="http://www.w3.org/2000/svg" xmlns:xlink="http://www.w3.org/1999/xlink" x="0px" y="0px"
	 width="611.9px" height="634.2px" viewBox="0 0 611.9 634.2" enable-background="new 0 0 611.9 634.2" xml:space="preserve">
<g>
	<path d="M610.7,342.3c4-44.4,0-103.6-36.3-133.2c-49.8-41.7-114.3-56.5-176.2-72.6l-6.7,25.6c-6.7,24.2-16.1,45.7-29.6,61.9
		c-16.1,18.8-37.7,28.2-63.2,25.6c-26.9-2.7-48.4-12.1-69.9-26.9C226,221.2,191,191.7,191,193l-29.6,26.9c0,0,25.6,36.3,76.7,65.9
		c30.9,17.5,60.5,25.6,96.8,20.2c16.1-2.7,32.3-6.7,47.1-14.8c18.8-10.8,33.6-30.9,44.4-48.4c4-6.7,6.7-12.1,10.8-18.8
		c30.9,8.1,59.2,18.8,78,32.3c1.3,1.3,2.7,1.3,4,2.7c-32.3,21.5-56.5,49.8-76.7,78c-30.9,41.7-63.2,118.4-74,187
		c-8.1,45.7-5.4,86.1-2.7,108.9h49.8c0-17.5,0-53.8,12.1-96.8c14.8-59.2,47.1-123.7,74-157.4c10.8-16.1,22.9-29.6,36.3-43
		c-2.7,39-10.8,88.8-17.5,134.5c-13.5,68.6,4,131.8,18.8,162.8l45.7-17.5c-8.1-18.8-20.2-65.9-4-133.2
		C590.5,443.2,606.6,392.1,610.7,342.3z M291.9,131.1c-9.4,2.7-17.5,9.4-21.5,18.8c-4,9.4-5.4,18.8-2.7,28.2
		c6.7,20.2,28.2,30.9,47.1,24.2c20.2-6.7,30.9-28.2,24.2-47.1C332.2,135.2,312.1,124.4,291.9,131.1z M162.8,336.9
		c-20.2-29.6-45.7-56.5-78-79.4c9.4-18.8,20.2-35,30.9-48.4c32.3-40.4,75.3-74,123.7-99.5L205.8,45
		C150.6,74.6,99.5,112.3,59.2,163.4C33.6,195.7,2.7,242.8,0,307.3C1.3,367.9,17.5,419,25.6,466c18.8,74,6.7,127.8-1.3,148l44.4,20.2
		c14.8-30.9,33.6-103.6,16.1-177.5c-5.4-39-13.5-80.7-16.1-117c8.1,6.7,13.5,13.5,14.8,14.8c13.5,16.1,26.9,33.6,37.7,52.5
		c8.1,12.1,14.8,25.6,20.2,39c13.5,28.2,25.6,59.2,33.6,90.1c10.8,43,12.1,79.4,12.1,96.8h49.8c2.7-22.9,6.7-63.2-2.7-108.9
		C224.6,455.3,193.7,378.6,162.8,336.9z M285.2,74.6c20.2,6.7,41.7-4,47.1-24.2c4-9.4,2.7-20.2-1.3-29.6S318.8,4.7,309.4,2
		c-20.2-6.7-41.7,4-47.1,24.2C255.6,46.4,266.3,67.9,285.2,74.6z"/>
</g>
<g>
</g>
<g>
</g>
<g>
</g>
<g>
</g>
<g>
</g>
<g>
</g>
<g>
</g>
<g>
</g>
<g>
</g>
<g>
</g>
<g>
</g>
<g>
</g>
<g>
</g>
<g>
</g>
<g>
</g>
</svg>
