<?xml version="1.0" encoding="utf-8"?>
<!-- Generator: Adobe Illustrator 17.0.0, SVG Export Plug-In . SVG Version: 6.00 Build 0)  -->
<!DOCTYPE svg PUBLIC "-//W3C//DTD SVG 1.1//EN" "http://www.w3.org/Graphics/SVG/1.1/DTD/svg11.dtd">
<svg version="1.1" id="Layer_1" xmlns="http://www.w3.org/2000/svg" xmlns:xlink="http://www.w3.org/1999/xlink" x="0px" y="0px"
	 width="610.9px" height="444.3px" viewBox="0 0 610.9 444.3" enable-background="new 0 0 610.9 444.3" xml:space="preserve">
<g>
	<path d="M428.2,64.3c16.8-4.5,28-21.3,23.5-39.2c-2.2-7.8-6.7-15.7-14.6-20.2s-15.7-5.6-24.7-4.5c-16.8,4.5-28,21.3-23.5,39.2
		C393.4,57.6,410.2,67.7,428.2,64.3z M505.5,240.3h105.4v-28H505.5c-10.1,0-20.2,0-30.3,0c1.1-21.3,2.2-42.6,2.2-63.9
		c0-5.6-1.1-10.1-2.2-13.5c93-7.8,85.2,70.6,85.2,70.6l38.1-1.1c0,0,4.5-47.1-21.3-81.8c-24.7-32.5-65-39.2-93-39.2
		c-44.8,0-107.6,22.4-134.5,41.5c-50.4,33.6-82.9,72.9-96.4,90.8C122.2,214.5,0,216.7,0,216.7v17.9c1.1,0,235.4,3.4,405.8,4.5
		c-1.1,4.5-1.1,7.8-2.2,12.3c-6.7,1.1-12.3,2.2-17.9,4.5C233.1,299.7,139,406.2,141.2,406.2l26.9,26.9c0,0,50.4-46,173.7-100.9
		c56-24.7,136.7-33.6,191.7,4.5c46,32.5,10.1,98.6,11.2,98.6l41.5,9c1.1,0,43.7-84.1,0-140.1c-22.4-28-66.1-48.2-113.2-53.8
		c0-3.4,1.1-7.8,1.1-11.2C485.3,240.3,495.4,240.3,505.5,240.3z M409.1,212.3c-31.4,0-65,0-99.8,1.1c19.1-17.9,54.9-46,100.9-63.9
		C411.4,171.9,410.2,193.2,409.1,212.3z"/>
</g>
<g>
</g>
<g>
</g>
<g>
</g>
<g>
</g>
<g>
</g>
<g>
</g>
<g>
</g>
<g>
</g>
<g>
</g>
<g>
</g>
<g>
</g>
<g>
</g>
<g>
</g>
<g>
</g>
<g>
</g>
</svg>
