<?xml version="1.0" encoding="utf-8"?>
<!-- Generator: Adobe Illustrator 18.1.1, SVG Export Plug-In . SVG Version: 6.00 Build 0)  -->
<svg version="1.1" id="Layer_1" xmlns="http://www.w3.org/2000/svg" xmlns:xlink="http://www.w3.org/1999/xlink" x="0px" y="0px"
	 viewBox="0 0 61 53.6" enable-background="new 0 0 61 53.6" xml:space="preserve">
<path d="M59,42c-0.8-0.8-1.9-1.5-3.1-1.8c-0.6-1.8-1.6-3.3-2.9-4.5c-1.7-1.5-3.9-2.5-6.3-2.6c0-0.6-0.1-1.1-0.3-1.7h5.8
	c2.2,0,4.2-0.9,5.7-2.4c1.5-1.5,2.4-3.5,2.4-5.7c0-2-0.8-3.9-2-5.4c-0.8-0.9-1.7-1.5-2.8-2c-0.2-2.7-1.3-5.2-3.1-7
	c-1.9-1.9-4.7-3.2-7.6-3.2c-0.4,0-0.8,0-1.1,0.1C40.8,2.3,36.4,0,31.5,0c-3.6,0-7,1.2-9.6,3.3c-2.2,1.7-4,4.1-5,6.8
	c-2.1,0.5-3.9,1.6-5.3,3.2c-1.8,1.9-2.8,4.5-2.8,7.3c0,1.4,0.3,2.8,0.8,4c-0.6,0.9-1.1,1.9-1.5,3c-2.1,0.5-3.9,1.6-5.3,3.2
	C1.1,32.6,0,35.2,0,38c0,3,1.2,5.7,3.2,7.6c1.9,1.9,4.7,3.2,7.6,3.2H31c0.4,0.9,1,1.7,1.6,2.4c1.5,1.5,3.6,2.5,5.9,2.5h15.6
	c1.9,0,3.6-0.8,4.8-2c1.2-1.2,2-2.9,2-4.8C61,44.9,60.3,43.2,59,42z M19,14.8l1.7-0.2l0.4-1.7c0.6-2.3,1.9-4.3,3.8-5.7
	C26.8,5.8,29,5,31.5,5c3.8,0,7.1,1.9,9,4.9l1,1.6l1.8-0.5c0.5-0.1,1-0.2,1.6-0.2c1.6,0,3,0.6,4.1,1.7c1.1,1.1,1.7,2.5,1.7,4.1
	c0,0.3,0,0.6-0.1,0.9l-0.4,2.5l2.5,0.3c0.8,0.1,1.4,0.5,1.9,1c0.5,0.5,0.8,1.2,0.8,2c0,0.9-0.3,1.6-0.9,2.2
	c-0.6,0.6-1.3,0.9-2.2,0.9h-8.6c0,0,0,0,0,0c-1.9-1.9-4.7-3.2-7.6-3.2c-0.4,0-0.8,0-1.1,0.1c-2.9-3.5-7.3-5.8-12.2-5.8
	c-3.3,0-6.4,1-8.9,2.8c0.1-1.4,0.6-2.6,1.5-3.6C16.2,15.6,17.5,14.9,19,14.8z M6.7,42.1C5.6,41,5,39.6,5,38c0-1.5,0.6-2.9,1.5-3.9
	c0.9-1,2.2-1.7,3.7-1.9L12,32l0.4-1.7c0.6-2.3,1.9-4.3,3.8-5.7c1.8-1.4,4.1-2.3,6.6-2.3c3.8,0,7.1,1.9,9,4.9l1,1.6l1.8-0.5
	c0.5-0.1,1-0.2,1.6-0.2c1.6,0,3,0.6,4.1,1.7c1,1.1,1.7,2.5,1.7,4.1v0c-1.4,0.6-2.7,1.6-3.6,2.8c-2.1,0.1-4.1,1-5.5,2.5
	c-1.2,1.2-2.1,2.8-2.4,4.6H10.8C9.2,43.8,7.7,43.1,6.7,42.1z M55.5,48.1c-0.3,0.3-0.8,0.5-1.3,0.5H38.6c-1,0-1.8-0.4-2.4-1
	c-0.6-0.6-1-1.5-1-2.4c0-1,0.4-1.8,1-2.4c0.6-0.6,1.5-1,2.4-1c0.1,0,0.3,0,0.5,0l1.6,0.2l0.8-1.4c0.9-1.5,2.6-2.5,4.5-2.5
	c1.4,0,2.6,0.5,3.6,1.4c0.9,0.9,1.6,2.1,1.7,3.4l0.2,2.5l2.5-0.2l0.1,0c0.5,0,0.9,0.2,1.3,0.5c0.3,0.3,0.5,0.8,0.5,1.3
	C56,47.3,55.8,47.8,55.5,48.1z"/>
<g>
</g>
<g>
</g>
<g>
</g>
<g>
</g>
<g>
</g>
<g>
</g>
<g>
</g>
<g>
</g>
<g>
</g>
<g>
</g>
<g>
</g>
<g>
</g>
<g>
</g>
<g>
</g>
<g>
</g>
</svg>
