<?xml version="1.0" encoding="utf-8"?>
<!-- Generator: Adobe Illustrator 18.1.1, SVG Export Plug-In . SVG Version: 6.00 Build 0)  -->
<svg version="1.1" id="Layer_1" xmlns="http://www.w3.org/2000/svg" xmlns:xlink="http://www.w3.org/1999/xlink" x="0px" y="0px"
	 viewBox="0 0 36.4 39.4" enable-background="new 0 0 36.4 39.4" xml:space="preserve">
<g>
	<polygon points="28.7,32.7 26.8,31.6 26.8,33.8 25.2,33.8 25.2,31.6 23.3,32.7 22.5,31.4 24.4,30.2 22.5,29.1 23.3,27.8 25.2,28.9 
		25.2,26.7 26.8,26.7 26.8,28.9 28.7,27.8 29.5,29.1 27.5,30.2 29.5,31.4 	"/>
	<polygon points="23.3,24.2 21.3,23.1 21.3,25.3 19.8,25.3 19.8,23.1 17.9,24.2 17.1,22.9 19,21.8 17.1,20.6 17.9,19.3 19.8,20.4 
		19.8,18.2 21.3,18.2 21.3,20.4 23.3,19.3 24,20.6 22.1,21.8 24,22.9 	"/>
	<polygon points="18.5,32.3 18.5,34.5 20.4,33.4 21.2,34.7 19.3,35.8 21.2,37 20.4,38.3 18.5,37.2 18.5,39.4 17,39.4 17,37.2 
		15,38.3 14.3,37 16.2,35.8 14.3,34.7 15,33.4 17,34.5 17,32.3 	"/>
	<path d="M0,12.9c0,3,2.4,5.4,5.3,5.5c0.3,3.1,2.9,5.5,6,5.5h2.8v-2.6h-2.8c-1.9,0-3.5-1.6-3.5-3.5s1.6-3.5,3.5-3.5h4l-0.2-1.5
		C15,12.5,15,12.2,15,11.9c0-3.2,2.6-5.9,5.9-5.9s5.9,2.6,5.9,5.9c0,0.3,0,0.6-0.1,0.9l-0.2,1.5h4c1.9,0,3.5,1.6,3.5,3.5
		s-1.6,3.5-3.5,3.5h-2.7v2.6h2.7c3.3,0,6.1-2.7,6.1-6.1s-2.7-6.1-6.1-6.1c0,0-0.6,0-1.1,0c-0.1-4.6-3.8-8.3-8.4-8.3
		c-0.2,0-0.4,0-0.6,0l0.2-0.1C18.9,1.3,16.6,0,14,0c-2,0-4,0.8-5.4,2.2C7.2,3.6,6.5,5.4,6.4,7.4c-0.4,0-0.9,0-0.9,0
		C2.5,7.4,0,9.9,0,12.9z M2.5,12.9c0-1.7,1.4-3,3-3h2.2l1.4-0.1L8.9,7.6C8.9,6.3,9.4,5,10.4,4c1-1,2.3-1.5,3.6-1.5
		c1.4,0,2.8,0.6,3.7,1.6c-3,1.2-5.2,4.2-5.3,7.7c-0.5,0-1.1,0-1.1,0c-2.7,0-5,1.7-5.7,4.2H5.5C3.9,15.9,2.5,14.6,2.5,12.9z"/>
</g>
<g>
</g>
<g>
</g>
<g>
</g>
<g>
</g>
<g>
</g>
<g>
</g>
<g>
</g>
<g>
</g>
<g>
</g>
<g>
</g>
<g>
</g>
<g>
</g>
<g>
</g>
<g>
</g>
<g>
</g>
</svg>
