<?xml version="1.0" encoding="utf-8"?>
<!-- Generator: Adobe Illustrator 18.1.1, SVG Export Plug-In . SVG Version: 6.00 Build 0)  -->
<svg version="1.1" id="Layer_1" xmlns="http://www.w3.org/2000/svg" xmlns:xlink="http://www.w3.org/1999/xlink" x="0px" y="0px"
	 viewBox="0 0 51.9 35.9" enable-background="new 0 0 51.9 35.9" xml:space="preserve">
<g>
	<path d="M40.4,9.6C40.2,7,39,4.6,37,2.8C34.9,1,32,0,28.9,0c-6.3,0-11,3.9-11.5,9.5c-5.4,0.4-8.8,3.2-9.7,8.1
		C3.4,18.4,0,22.2,0,26.7c0,5.6,4.2,9.2,10.7,9.2h28c7.3,0,13.2-5.9,13.2-13.2C51.9,16.1,46.8,10.5,40.4,9.6z M38.7,31.5h-28
		c-1.9,0-6.3-0.5-6.3-4.8c0-2.6,2.1-4.7,4.7-4.8c1.5,0,2.7-1.1,2.8-2.6c0.4-3.8,2.3-5.4,6.6-5.4h0.4c1.6,0,2.9-1.3,2.9-2.9v-0.6
		c0-3.6,2.9-6,7.1-6c2.1,0,4,0.6,5.2,1.7c1.2,1.1,1.9,2.6,1.9,4.3v0.7c0,1.6,1.3,2.8,2.8,2.9c4.8,0.1,8.6,4,8.6,8.8
		C47.5,27.6,43.5,31.5,38.7,31.5z"/>
</g>
<g>
</g>
<g>
</g>
<g>
</g>
<g>
</g>
<g>
</g>
<g>
</g>
<g>
</g>
<g>
</g>
<g>
</g>
<g>
</g>
<g>
</g>
<g>
</g>
<g>
</g>
<g>
</g>
<g>
</g>
</svg>
