<?xml version="1.0" encoding="utf-8"?>
<!-- Generator: Adobe Illustrator 18.1.1, SVG Export Plug-In . SVG Version: 6.00 Build 0)  -->
<svg version="1.1" id="Layer_1" xmlns="http://www.w3.org/2000/svg" xmlns:xlink="http://www.w3.org/1999/xlink" x="0px" y="0px"
	 viewBox="0 0 36.4 39.5" enable-background="new 0 0 36.4 39.5" xml:space="preserve">
<g>
	<path d="M17.8,32L17.8,32L17.8,32L17.8,32L17.8,32c0.1,0.2,2.2,3.7,2.3,3.8l0.1,0.1c0.1,0.3,0.2,0.6,0.2,1c0,1.4-1.1,2.5-2.5,2.5
		c0,0,0,0,0,0h0c0,0,0,0,0,0c-1.4,0-2.5-1.1-2.5-2.5c0-0.3,0.1-0.7,0.2-1l0.1-0.1C15.5,35.7,17.6,32.3,17.8,32L17.8,32L17.8,32z"/>
	<path d="M0,12.9c0,3,2.4,5.4,5.3,5.5c0.3,3,2.9,5.4,6,5.4h2.8v-2.6h-2.8c-1.9,0-3.5-1.6-3.5-3.5c0-1.9,1.6-3.5,3.5-3.5h4l-0.2-1.5
		C15,12.4,15,12.1,15,11.8C15,8.6,17.6,6,20.8,6c1.6,0,3,0.6,4.1,1.7c1.1,1.1,1.7,2.6,1.7,4.1c0,0.3,0,0.6-0.1,0.9l-0.2,1.5h4
		c1.9,0,3.5,1.6,3.5,3.5c0,1.9-1.6,3.5-3.5,3.5h-2.7v2.6h2.7c3.3,0,6.1-2.7,6.1-6.1c0-3.3-2.7-6.1-6.1-6.1c0,0-0.6,0-1.1,0
		c0-2.2-0.9-4.2-2.5-5.8c-1.6-1.6-3.7-2.5-5.9-2.5c-0.2,0-0.3,0-0.5,0l0,0C19,1.3,16.6,0,14,0c-2,0-4,0.8-5.4,2.2
		C7.2,3.6,6.5,5.4,6.4,7.4c-0.4,0-0.9,0-0.9,0C2.5,7.4,0,9.9,0,12.9z M2.5,12.9c0-1.7,1.4-3,3-3h2.2l1.4-0.1L8.9,7.6
		C8.9,6.3,9.4,5,10.4,4c1-1,2.3-1.5,3.6-1.5c1.4,0,2.7,0.6,3.7,1.5c-3,1.2-5.2,4.2-5.2,7.6c-0.5,0-1.1,0-1.1,0c-2.7,0-5,1.8-5.8,4.2
		h0C3.9,15.9,2.5,14.6,2.5,12.9z"/>
	<polygon points="29.2,33.1 27.2,32 27.2,34.2 25.7,34.2 25.7,32 23.7,33.1 22.9,31.8 24.9,30.6 22.9,29.5 23.7,28.2 25.7,29.3 
		25.7,27 27.2,27 27.2,29.3 29.2,28.2 29.9,29.5 28,30.6 29.9,31.8 	"/>
	<path d="M20.7,18.4L20.7,18.4L20.7,18.4L20.7,18.4L20.7,18.4c0.1,0.2,2.2,3.7,2.3,3.8l0.1,0.2c0.1,0.3,0.2,0.6,0.2,1
		c0,1.4-1.1,2.5-2.5,2.5v0h0v0c-1.4,0-2.5-1.1-2.5-2.5c0-0.3,0.1-0.7,0.2-1l0.1-0.2C18.5,22.1,20.5,18.6,20.7,18.4L20.7,18.4
		L20.7,18.4z"/>
</g>
<g>
</g>
<g>
</g>
<g>
</g>
<g>
</g>
<g>
</g>
<g>
</g>
<g>
</g>
<g>
</g>
<g>
</g>
<g>
</g>
<g>
</g>
<g>
</g>
<g>
</g>
<g>
</g>
<g>
</g>
</svg>
