<?xml version="1.0" encoding="utf-8"?>
<!-- Generator: Adobe Illustrator 18.1.1, SVG Export Plug-In . SVG Version: 6.00 Build 0)  -->
<svg version="1.1" id="Layer_1" xmlns="http://www.w3.org/2000/svg" xmlns:xlink="http://www.w3.org/1999/xlink" x="0px" y="0px"
	 viewBox="0 0 36.4 23.8" enable-background="new 0 0 36.4 23.8" xml:space="preserve">
<path d="M0,12.9c0,3,2.4,5.4,5.4,5.5c0.3,3,2.9,5.4,6,5.4h19c3.3,0,6.1-2.7,6.1-6.1s-2.7-6.1-6.1-6.1c0,0-0.6,0-1.1,0
	c-0.1-4.6-3.8-8.3-8.4-8.3c-0.2,0-0.4,0-0.6,0l0.1-0.1C18.9,1.3,16.6,0,14,0c-2,0-4,0.8-5.4,2.2C7.2,3.6,6.5,5.4,6.4,7.4
	c-0.4,0-0.9,0-0.9,0C2.5,7.4,0,9.9,0,12.9z M7.9,17.8c0-1.9,1.6-3.5,3.5-3.5h4l-0.2-1.5c-0.1-0.3-0.1-0.6-0.1-0.9
	C15,8.6,17.7,6,20.9,6s5.9,2.6,5.9,5.9l-0.1,0.9l-0.1,1.5h3.9c1.9,0,3.5,1.6,3.5,3.5c0,1.9-1.6,3.5-3.5,3.5h-19
	C9.5,21.3,7.9,19.7,7.9,17.8z M2.5,12.9c0-1.7,1.4-3,3-3h2.2l1.4-0.1L8.9,7.6C8.9,6.3,9.4,5,10.4,4c1-1,2.3-1.5,3.6-1.5
	c1.4,0,2.7,0.6,3.7,1.6c-3,1.2-5.1,4.2-5.2,7.6c-0.5,0-1.1,0-1.1,0c-2.7,0-5,1.8-5.8,4.2H5.5C3.9,15.9,2.5,14.6,2.5,12.9z"/>
<g>
</g>
<g>
</g>
<g>
</g>
<g>
</g>
<g>
</g>
<g>
</g>
<g>
</g>
<g>
</g>
<g>
</g>
<g>
</g>
<g>
</g>
<g>
</g>
<g>
</g>
<g>
</g>
<g>
</g>
</svg>
