<?xml version="1.0" encoding="utf-8"?>
<!-- Generator: Adobe Illustrator 18.1.1, SVG Export Plug-In . SVG Version: 6.00 Build 0)  -->
<svg version="1.1" id="Layer_1" xmlns="http://www.w3.org/2000/svg" xmlns:xlink="http://www.w3.org/1999/xlink" x="0px" y="0px"
	 viewBox="0 0 59.7 54.3" enable-background="new 0 0 59.7 54.3" xml:space="preserve">
<g>
	<path d="M15.9,48.7L13,44.2l-2.9,4.4h0c-0.4,0.6-0.7,1.3-0.7,2.1c0,2,1.6,3.6,3.6,3.6c2,0,3.6-1.6,3.6-3.6
		C16.6,50,16.3,49.3,15.9,48.7L15.9,48.7z"/>
	<path d="M30.1,48.7l-2.9-4.4l-2.9,4.4h0c-0.4,0.6-0.7,1.3-0.7,2.1c0,2,1.6,3.6,3.6,3.6s3.6-1.6,3.6-3.6
		C30.8,50,30.5,49.3,30.1,48.7L30.1,48.7z"/>
	<path d="M44.3,48.7l-2.9-4.4l-2.9,4.4h0c-0.4,0.6-0.7,1.3-0.7,2.1c0,2,1.6,3.6,3.6,3.6c2,0,3.6-1.6,3.6-3.6
		C44.9,50,44.7,49.3,44.3,48.7L44.3,48.7z"/>
	<path d="M59.7,23.3c0-2.1-0.8-3.9-2-5.4c-0.8-0.9-1.7-1.5-2.8-2c-0.2-2.7-1.3-5.2-3.1-7c-1.9-2-4.7-3.2-7.6-3.2
		c-0.4,0-0.8,0-1.1,0.1C40.1,2.3,35.7,0,30.7,0c-3.6,0-7,1.2-9.7,3.3c-2.3,1.8-4,4.2-5.1,6.9c-0.8,0.4-1.5,0.9-2.2,1.5
		c-2.4,1.9-4.2,4.3-5.3,7.2c-2.2,0.5-4.1,1.7-5.6,3.3c-1.8,2-3,4.7-3,7.6c0,3.1,1.3,5.9,3.3,8c2,2,4.9,3.3,8,3.3H46
		c2.3,0,4.4-0.9,5.9-2.5c1.5-1.5,2.5-3.6,2.5-5.9c0-0.6-0.1-1.2-0.2-1.8c1.2-0.4,2.3-1.1,3.1-1.9C58.8,27.6,59.7,25.6,59.7,23.3z
		 M48.4,35.2c-0.6,0.6-1.5,1-2.4,1H11.3c-1.7,0-3.3-0.7-4.4-1.8C5.7,33.2,5,31.6,5,29.9c0-1.6,0.6-3.1,1.6-4.2c1-1.1,2.4-1.9,4-2
		l1.7-0.2l0.4-1.7c0.6-2.5,2.1-4.6,4-6.1c2-1.5,4.4-2.4,7-2.4c4,0,7.6,2.1,9.6,5.3l1,1.6l1.8-0.5c0.5-0.2,1.1-0.2,1.7-0.2
		c1.7,0,3.3,0.7,4.4,1.8c1.1,1.1,1.8,2.7,1.8,4.4c0,0.3,0,0.6-0.1,1l-0.4,2.5l2.5,0.3c0.8,0.1,1.6,0.5,2.1,1.1
		c0.5,0.6,0.9,1.4,0.9,2.2C49.4,33.7,49,34.5,48.4,35.2z M53.8,25.5c-0.6,0.6-1.3,0.9-2.2,0.9v0.1c-0.7-0.6-1.5-1.1-2.3-1.5
		c-0.1-2.9-1.4-5.5-3.3-7.4c-2-2-4.9-3.3-8-3.3c-0.4,0-0.8,0-1.3,0.1c-3-3.8-7.6-6.2-12.8-6.2c-0.3,0-0.6,0-0.9,0
		c0.3-0.4,0.7-0.7,1.1-1C26,5.8,28.2,5,30.7,5c3.8,0,7.1,2,9,4.9l1,1.6l1.8-0.5c0.5-0.1,1-0.2,1.6-0.2c1.6,0,3,0.6,4.1,1.7
		c1.1,1.1,1.7,2.5,1.7,4.1c0,0.3,0,0.6-0.1,0.9L49.5,20l2.5,0.3c0.8,0.1,1.4,0.5,1.9,1c0.5,0.5,0.8,1.2,0.8,2
		C54.7,24.2,54.4,25,53.8,25.5z"/>
</g>
<g>
</g>
<g>
</g>
<g>
</g>
<g>
</g>
<g>
</g>
<g>
</g>
<g>
</g>
<g>
</g>
<g>
</g>
<g>
</g>
<g>
</g>
<g>
</g>
<g>
</g>
<g>
</g>
<g>
</g>
</svg>
