<?xml version="1.0" encoding="utf-8"?>
<!-- Generator: Adobe Illustrator 18.1.1, SVG Export Plug-In . SVG Version: 6.00 Build 0)  -->
<svg version="1.1" id="Layer_1" xmlns="http://www.w3.org/2000/svg" xmlns:xlink="http://www.w3.org/1999/xlink" x="0px" y="0px"
	 viewBox="0 0 36.8 23.9" enable-background="new 0 0 36.8 23.9" xml:space="preserve">
<g>
	<path d="M8.6,9.8C8.6,9.9,8.6,9.9,8.6,9.8C7.8,9.9,7,9.9,7,9.9c-3.9,0-7,3.1-7,7c0,3.9,3.1,7,7,7h22.8c3.9,0,7-3.1,7-7
		c0-3.9-3.1-7-7-7c0,0-0.8,0-1.6,0c0,0,0,0,0-0.1c0-5.4-4.4-9.8-9.8-9.8C13,0,8.6,4.4,8.6,9.8z M2.6,16.9c0-2.5,2-4.4,4.5-4.4h4.4
		L11.2,11c-0.1-0.4-0.1-0.8-0.1-1.2c0-4,3.3-7.3,7.3-7.3c4,0,7.3,3.3,7.3,7.3c0,0.3,0,0.7-0.1,1.2l-0.2,1.5h4.4c2.5,0,4.5,2,4.5,4.4
		c0,2.5-2,4.5-4.5,4.5H7C4.6,21.4,2.6,19.4,2.6,16.9z"/>
</g>
<g>
</g>
<g>
</g>
<g>
</g>
<g>
</g>
<g>
</g>
<g>
</g>
<g>
</g>
<g>
</g>
<g>
</g>
<g>
</g>
<g>
</g>
<g>
</g>
<g>
</g>
<g>
</g>
<g>
</g>
</svg>
