<?xml version="1.0" encoding="utf-8"?>
<!-- Generator: Adobe Illustrator 18.1.1, SVG Export Plug-In . SVG Version: 6.00 Build 0)  -->
<svg version="1.1" id="Layer_1" xmlns="http://www.w3.org/2000/svg" xmlns:xlink="http://www.w3.org/1999/xlink" x="0px" y="0px"
	 viewBox="0 0 56.5 57.9" enable-background="new 0 0 56.5 57.9" xml:space="preserve">
<g>
	<polygon points="18.3,38.2 12.9,38.2 9.3,46.3 13.8,46.3 	"/>
	<polygon points="30.8,38.2 25.4,38.2 21.7,46.4 26.2,46.4 	"/>
	<polygon points="34.9,46.4 39.4,46.4 43.9,38.2 38.5,38.2 	"/>
	<polygon points="11.7,57.9 16.2,57.9 20.7,49.7 15.3,49.7 	"/>
	<polygon points="24.6,57.9 29.2,57.9 33.7,49.7 28.3,49.7 	"/>
	<path d="M54.4,19.7c-0.9-1-1.9-1.7-3.1-2.2c-0.1-3-1.4-5.8-3.4-7.7c-2.1-2.1-5-3.4-8.2-3.4c-0.5,0-0.9,0-1.4,0.1
		C35.1,2.5,30.3,0,24.9,0c-4,0-7.6,1.4-10.5,3.6c-2.5,1.9-4.4,4.5-5.5,7.5c-2.3,0.6-4.3,1.8-5.8,3.4C1.2,16.7,0,19.4,0,22.5
		c0,3.2,1.3,6.1,3.4,8.2c2.1,2.1,5,3.4,8.2,3.4h36.2c2.4,0,4.6-1,6.1-2.5c1.6-1.6,2.5-3.7,2.5-6.1C56.5,23.3,55.7,21.3,54.4,19.7z
		 M50.5,28.1c-0.7,0.7-1.6,1.1-2.6,1.1H11.7c-1.8,0-3.5-0.7-4.7-2c-1.2-1.2-2-2.9-2-4.7c0-1.7,0.7-3.3,1.7-4.5
		c1.1-1.2,2.6-2,4.3-2.1l1.7-0.2l0.4-1.7c0.7-2.6,2.2-4.8,4.2-6.4C19.5,6,22.1,5,24.9,5c4.3,0,8,2.2,10.2,5.5l1,1.6l1.8-0.5
		c0.6-0.2,1.2-0.2,1.8-0.2c1.8,0,3.5,0.7,4.7,2c1.2,1.2,2,2.9,2,4.7c0,0.3,0,0.7-0.1,1l-0.4,2.5l2.5,0.3c0.9,0.1,1.7,0.5,2.3,1.2
		c0.6,0.6,0.9,1.5,0.9,2.4C51.5,26.5,51.1,27.4,50.5,28.1z"/>
</g>
<g>
</g>
<g>
</g>
<g>
</g>
<g>
</g>
<g>
</g>
<g>
</g>
<g>
</g>
<g>
</g>
<g>
</g>
<g>
</g>
<g>
</g>
<g>
</g>
<g>
</g>
<g>
</g>
<g>
</g>
</svg>
