<?xml version="1.0" encoding="utf-8"?>
<!-- Generator: Adobe Illustrator 18.1.1, SVG Export Plug-In . SVG Version: 6.00 Build 0)  -->
<svg version="1.1" id="Layer_1" xmlns="http://www.w3.org/2000/svg" xmlns:xlink="http://www.w3.org/1999/xlink" x="0px" y="0px"
	 viewBox="0 0 31.1 36.5" enable-background="new 0 0 31.1 36.5" xml:space="preserve">
<g>
	<path d="M25,8.3c0,0-0.6,0-1.1,0C23.9,3.7,20.1,0,15.5,0C11,0,7.2,3.7,7.1,8.3c-0.5,0-1.1,0-1.1,0C2.7,8.3,0,11,0,14.3
		c0,3.3,2.7,6.1,6.1,6.1h2.7v-2.6H6.1c-1.9,0-3.5-1.6-3.5-3.5c0-1.9,1.6-3.5,3.5-3.5h4L9.8,9.3C9.7,9,9.7,8.7,9.7,8.4
		c0-3.2,2.6-5.9,5.9-5.9c3.2,0,5.9,2.6,5.9,5.9c0,0.3,0,0.6-0.1,0.9l-0.2,1.5h4c1.9,0,3.5,1.6,3.5,3.5c0,1.9-1.6,3.5-3.5,3.5h-2.8
		v2.6H25c3.3,0,6.1-2.7,6.1-6.1C31.1,11,28.4,8.3,25,8.3z"/>
	<polygon points="5.2,24.2 7.5,24.2 9.7,17.8 7.4,17.8 	"/>
	<polygon points="11.5,27.4 13.8,27.4 17,17.8 14.8,17.8 	"/>
	<polygon points="20,24.2 22.3,24.2 24.5,17.8 22.2,17.8 	"/>
	<polygon points="2.8,26.1 4.7,27.2 4.7,25 6.3,25 6.3,27.2 8.2,26.1 9,27.4 7.1,28.5 9,29.7 8.2,31 6.3,29.9 6.3,32.1 4.7,32.1 
		4.7,29.9 2.8,31 2,29.7 4,28.5 2,27.4 	"/>
	<polygon points="18.2,26.1 20.1,27.2 20.1,25 21.7,25 21.7,27.2 23.6,26.1 24.4,27.4 22.5,28.5 24.4,29.7 23.6,31 21.7,29.9 
		21.7,32.1 20.1,32.1 20.1,29.9 18.2,31 17.4,29.7 19.4,28.5 17.4,27.4 	"/>
	<polygon points="10.6,30.5 12.6,31.6 12.6,29.4 14.1,29.4 14.1,31.6 16.1,30.5 16.8,31.8 14.9,32.9 16.8,34 16.1,35.4 14.1,34.3 
		14.1,36.5 12.6,36.5 12.6,34.3 10.6,35.4 9.9,34 11.8,32.9 9.9,31.8 	"/>
</g>
<g>
</g>
<g>
</g>
<g>
</g>
<g>
</g>
<g>
</g>
<g>
</g>
<g>
</g>
<g>
</g>
<g>
</g>
<g>
</g>
<g>
</g>
<g>
</g>
<g>
</g>
<g>
</g>
<g>
</g>
</svg>
