<?xml version="1.0" encoding="utf-8"?>
<!-- Generator: Adobe Illustrator 18.1.1, SVG Export Plug-In . SVG Version: 6.00 Build 0)  -->
<svg version="1.1" id="Layer_1" xmlns="http://www.w3.org/2000/svg" xmlns:xlink="http://www.w3.org/1999/xlink" x="0px" y="0px"
	 viewBox="0 0 48.4 41.4" enable-background="new 0 0 48.4 41.4" xml:space="preserve">
<g>
	<polygon points="24.2,11.6 22.2,12.8 22.2,20 15.9,16.4 13.9,17.6 13.9,19.9 20.2,23.5 13.9,27.1 13.9,29.4 15.9,30.5 22.2,26.9 
		22.2,34.2 24.2,35.3 26.2,34.2 26.2,26.9 32.4,30.5 34.4,29.4 34.4,27.1 28.2,23.5 34.4,19.9 34.4,17.6 32.4,16.4 26.2,20 
		26.2,12.8 	"/>
	<path d="M47.6,17.3L26.4,0.7C25.7,0.2,25,0,24.2,0c-0.8,0-1.6,0.2-2.2,0.7L0.7,17.3C0.3,17.8,0,18.4,0,19.1c0,1.3,1,2.4,2.4,2.5
		h3.5v16.1c0.1,2.1,1.8,3.8,4,3.8h28.8c2.1,0,3.9-1.7,4-3.8V21.6H46c1.3-0.1,2.4-1.2,2.4-2.5C48.4,18.4,48.1,17.8,47.6,17.3z
		 M38.5,17.6v19.9H9.8V17.6H6.9L24.2,4l17.3,13.5H38.5z"/>
</g>
<g>
</g>
<g>
</g>
<g>
</g>
<g>
</g>
<g>
</g>
<g>
</g>
<g>
</g>
<g>
</g>
<g>
</g>
<g>
</g>
<g>
</g>
<g>
</g>
<g>
</g>
<g>
</g>
<g>
</g>
</svg>
