<?xml version="1.0" encoding="utf-8"?>
<!-- Generator: Adobe Illustrator 18.1.1, SVG Export Plug-In . SVG Version: 6.00 Build 0)  -->
<svg version="1.1" id="Layer_1" xmlns="http://www.w3.org/2000/svg" xmlns:xlink="http://www.w3.org/1999/xlink" x="0px" y="0px"
	 viewBox="0 0 48.4 41.4" enable-background="new 0 0 48.4 41.4" xml:space="preserve">
<g>
	<path d="M29,33.8h4.8c-0.2-0.3-0.4-0.7-0.7-1c-1-1.2-1.6-2.9-1.6-4.7c0-1.7,0.6-3.5,1.6-4.7c1.4-1.7,2.1-3.7,2.4-5.8h-4
		c-0.2,1.2-0.7,2.4-1.4,3.3c-1.7,2.1-2.5,4.7-2.5,7.2C27.6,30.1,28,32,29,33.8z"/>
	<path d="M22.5,11.5c1,1.2,1.6,2.9,1.6,4.7c0,1.7-0.6,3.5-1.6,4.7c-1.7,2.1-2.5,4.7-2.5,7.2c0,2,0.5,3.9,1.4,5.7h4.8
		c-0.2-0.3-0.4-0.7-0.7-1c-1-1.2-1.6-2.9-1.6-4.7c0-1.7,0.6-3.5,1.6-4.7c1.7-2.1,2.5-4.7,2.5-7.2c0-1.8-0.4-3.6-1.2-5.2h-4.7
		C22.2,11.2,22.3,11.3,22.5,11.5z"/>
	<path d="M16.4,28.1c0-1.7,0.6-3.5,1.6-4.7c1.4-1.7,2.1-3.7,2.4-5.8h-4c-0.2,1.2-0.7,2.4-1.4,3.3c-1.7,2.1-2.5,4.7-2.5,7.2
		c0,2,0.5,3.9,1.4,5.7h4.8c-0.2-0.3-0.4-0.7-0.7-1C17,31.6,16.4,29.8,16.4,28.1z"/>
	<path d="M47.6,17.3L26.4,0.7C25.7,0.2,25,0,24.2,0c-0.8,0-1.6,0.2-2.2,0.7L0.7,17.3C0.3,17.8,0,18.4,0,19.1c0,1.3,1,2.4,2.4,2.5
		h3.5v16.1c0.1,2.1,1.8,3.8,4,3.8h28.8c2.1,0,3.9-1.7,4-3.8V21.6H46c1.3-0.1,2.4-1.2,2.4-2.5C48.4,18.4,48.1,17.8,47.6,17.3z
		 M38.5,17.6v19.9H9.8V17.6H6.9L24.2,4l17.3,13.5H38.5z"/>
</g>
<g>
</g>
<g>
</g>
<g>
</g>
<g>
</g>
<g>
</g>
<g>
</g>
<g>
</g>
<g>
</g>
<g>
</g>
<g>
</g>
<g>
</g>
<g>
</g>
<g>
</g>
<g>
</g>
<g>
</g>
</svg>
