<?xml version="1.0" encoding="utf-8"?>
<!-- Generator: Adobe Illustrator 18.1.1, SVG Export Plug-In . SVG Version: 6.00 Build 0)  -->
<svg version="1.1" id="Layer_1" xmlns="http://www.w3.org/2000/svg" xmlns:xlink="http://www.w3.org/1999/xlink" x="0px" y="0px"
	 viewBox="0 0 41.5 40.5" enable-background="new 0 0 41.5 40.5" xml:space="preserve">
<g>
	<path d="M5.6,35.1c-1-1.6-1.6-3.8-1.6-6c0-2.2,0.6-4.5,1.6-6c0.9-1.4,1.6-3,1.9-4.6H3.4c-0.3,0.9-0.6,1.7-1.1,2.4
		C0.7,23.2,0,26.1,0,29.1c0,2.9,0.7,5.9,2.3,8.3c0.6,0.9,1,2,1.3,3.2h4.1C7.4,38.6,6.7,36.7,5.6,35.1z"/>
	<path d="M14.1,35.1c-1-1.6-1.6-3.8-1.6-6c0-2.2,0.6-4.5,1.6-6c1.6-2.4,2.3-5.3,2.3-8.3c0-2.4-0.5-4.8-1.6-6.9h-4.6
		c0.2,0.3,0.4,0.6,0.6,0.9c1,1.5,1.6,3.8,1.6,6c0,2.2-0.6,4.5-1.6,6c-1.6,2.4-2.3,5.3-2.3,8.3c0,2.9,0.7,5.9,2.3,8.3
		c0.6,0.9,1,2,1.3,3.2h4.1C15.8,38.6,15.2,36.7,14.1,35.1z"/>
	<path d="M41.3,18.4h-4.1c-0.3,0.9-0.6,1.7-1.1,2.4c-1.6,2.4-2.3,5.3-2.3,8.3c0,2.9,0.7,5.9,2.3,8.3c0.6,0.9,1,2,1.3,3.2h4.1
		c-0.3-1.9-1-3.8-2.1-5.4c-1.1-1.6-1.7-3.8-1.6-6c0-2.2,0.6-4.5,1.6-6C40.3,21.6,40.9,20.1,41.3,18.4z"/>
	<path d="M19.2,8.8c1,1.6,1.6,3.8,1.6,6c0,2.2-0.6,4.5-1.6,6c-1.6,2.4-2.3,5.3-2.3,8.3c0,2.9,0.7,5.9,2.3,8.3c0.6,0.9,1,2,1.3,3.2
		h4.1c-0.3-1.9-1-3.8-2.1-5.4c-1-1.6-1.6-3.8-1.6-6c0-2.2,0.6-4.5,1.6-6c1.6-2.4,2.3-5.3,2.3-8.3c0-2.9-0.7-5.9-2.3-8.3
		c-1-1.6-1.6-3.8-1.6-6c0-0.2,0-0.3,0-0.5h-4c0,0.2,0,0.3,0,0.5C16.9,3.4,17.6,6.4,19.2,8.8z"/>
	<path d="M29.3,29.1c0-2.2,0.6-4.5,1.6-6c1.6-2.4,2.3-5.3,2.3-8.3c0-2.4-0.5-4.8-1.6-7h-4.6c0.2,0.3,0.4,0.6,0.6,0.9
		c1,1.6,1.6,3.8,1.6,6c0,2.2-0.6,4.5-1.6,6c-1.6,2.4-2.3,5.3-2.3,8.3c0,2.9,0.7,5.9,2.3,8.3c0.6,0.9,1,2,1.3,3.2H33
		c-0.3-1.9-1-3.8-2.1-5.4C29.9,33.5,29.3,31.3,29.3,29.1z"/>
</g>
<g>
</g>
<g>
</g>
<g>
</g>
<g>
</g>
<g>
</g>
<g>
</g>
<g>
</g>
<g>
</g>
<g>
</g>
<g>
</g>
<g>
</g>
<g>
</g>
<g>
</g>
<g>
</g>
<g>
</g>
</svg>
