<?xml version="1.0" encoding="utf-8"?>
<!-- Generator: Adobe Illustrator 18.1.1, SVG Export Plug-In . SVG Version: 6.00 Build 0)  -->
<svg version="1.1" id="Layer_1" xmlns="http://www.w3.org/2000/svg" xmlns:xlink="http://www.w3.org/1999/xlink" x="0px" y="0px"
	 viewBox="0 0 32.8 26.3" enable-background="new 0 0 32.8 26.3" xml:space="preserve">
<g>
	<path d="M0,4.7c0.1,0,0.9,0.7,2.4,1.3C3.9,6.6,6,7.3,8.5,7.3c2.5,0,5.5-0.7,8.6-2.5c2.7-1.6,5.1-2.2,7.2-2.2c2.1,0,3.8,0.5,5,1.1
		c0.6,0.3,1.1,0.5,1.4,0.7c0.2,0.1,0.3,0.2,0.3,0.2l0.1,0.1l0,0l0.2-0.2l-0.2,0.2l0,0l0.2-0.2l-0.2,0.2l1.6-2
		c-0.1,0-0.9-0.7-2.4-1.3C29,0.6,26.9,0,24.4,0c-2.5,0-5.5,0.7-8.5,2.5c-2.7,1.6-5.1,2.2-7.3,2.2c-2.1,0-3.9-0.5-5.1-1.1
		C2.8,3.4,2.3,3.1,2,2.9C1.8,2.8,1.7,2.7,1.6,2.7L1.5,2.6l0,0L1.4,2.8l0.2-0.2l0,0L1.4,2.8l0.2-0.2L0,4.7z"/>
	<path d="M0,11c0.1,0,0.9,0.7,2.4,1.3C3.9,13,6,13.6,8.5,13.6c2.5,0,5.5-0.7,8.6-2.5c2.7-1.6,5.1-2.2,7.2-2.2c2.1,0,3.8,0.5,5,1.1
		c0.6,0.3,1.1,0.5,1.4,0.7c0.2,0.1,0.3,0.2,0.3,0.2l0.1,0.1l0,0l0.2-0.2L31.2,11l0,0l0.2-0.2L31.2,11l1.6-2c-0.1,0-0.9-0.7-2.4-1.3
		C29,7,26.9,6.3,24.4,6.3c-2.5,0-5.5,0.7-8.5,2.5c-2.7,1.6-5.1,2.2-7.3,2.2c-2.1,0-3.9-0.5-5.1-1.1C2.8,9.7,2.3,9.5,2,9.3
		C1.8,9.2,1.7,9.1,1.6,9L1.5,9l0,0L1.4,9.2L1.5,9l0,0L1.4,9.2L1.5,9L0,11z"/>
	<path d="M0,17.4c0.1,0,0.9,0.7,2.4,1.3C3.9,19.3,6,20,8.5,20c2.5,0,5.5-0.7,8.6-2.5c2.7-1.6,5.1-2.2,7.2-2.2c2.1,0,3.8,0.5,5,1.1
		c0.6,0.3,1.1,0.5,1.4,0.7c0.2,0.1,0.3,0.2,0.3,0.2l0.1,0.1l0,0l0.2-0.2l-0.2,0.2l0,0l0.2-0.2l-0.2,0.2l1.6-2
		c-0.1,0-0.9-0.7-2.4-1.3c-1.5-0.6-3.5-1.3-6.1-1.3c-2.5,0-5.5,0.7-8.5,2.5c-2.7,1.6-5.1,2.2-7.3,2.2c-2.1,0-3.9-0.5-5.1-1.1
		c-0.6-0.3-1.1-0.5-1.4-0.7c-0.2-0.1-0.3-0.2-0.4-0.2l-0.1-0.1l0,0l-0.2,0.2l0.2-0.2l0,0l-0.2,0.2l0.2-0.2L0,17.4z"/>
	<path d="M0,23.7c0.1,0,0.9,0.7,2.4,1.3c1.5,0.6,3.6,1.3,6.1,1.3c2.5,0,5.5-0.7,8.6-2.5c2.7-1.6,5.1-2.2,7.2-2.2
		c2.1,0,3.8,0.5,5,1.1c0.6,0.3,1.1,0.5,1.4,0.7c0.2,0.1,0.3,0.2,0.3,0.2l0.1,0.1l0,0l0.2-0.2l-0.2,0.2l0,0l0.2-0.2l-0.2,0.2l1.6-2
		c-0.1,0-0.9-0.7-2.4-1.3C29,19.7,26.9,19,24.4,19c-2.5,0-5.5,0.7-8.5,2.5c-2.7,1.6-5.1,2.2-7.3,2.2c-2.1,0-3.9-0.5-5.1-1.1
		C2.8,22.4,2.3,22.2,2,22c-0.2-0.1-0.3-0.2-0.4-0.2l-0.1-0.1l0,0l-0.2,0.2l0.2-0.2l0,0l-0.2,0.2l0.2-0.2L0,23.7z"/>
</g>
<g>
</g>
<g>
</g>
<g>
</g>
<g>
</g>
<g>
</g>
<g>
</g>
<g>
</g>
<g>
</g>
<g>
</g>
<g>
</g>
<g>
</g>
<g>
</g>
<g>
</g>
<g>
</g>
<g>
</g>
</svg>
