<?xml version="1.0" encoding="utf-8"?>
<!-- Generator: Adobe Illustrator 18.1.1, SVG Export Plug-In . SVG Version: 6.00 Build 0)  -->
<svg version="1.1" id="Layer_1" xmlns="http://www.w3.org/2000/svg" xmlns:xlink="http://www.w3.org/1999/xlink" x="0px" y="0px"
	 viewBox="0 0 36.9 29.6" enable-background="new 0 0 36.9 29.6" xml:space="preserve">
<g>
	<path d="M27.8,4.1c-3.1,0-6.2-0.6-8.4-1.8C16.4,0.7,12.8,0,9.2,0C6,0,2.8,0.6,0,1.7v4.4C2.4,4.8,5.8,4,9.2,4c3.1,0,6.2,0.6,8.4,1.8
		c3,1.6,6.6,2.3,10.3,2.3c3.1,0,6.3-0.5,9.1-1.7V2C34.5,3.4,31.2,4.1,27.8,4.1z"/>
	<path d="M19.4,13c-3-1.6-6.6-2.3-10.3-2.3c-3.2,0-6.4,0.6-9.2,1.7v4.4c2.4-1.4,5.8-2.1,9.2-2.1c3.1,0,6.2,0.6,8.4,1.8
		c3,1.6,6.6,2.3,10.3,2.3c3.2,0,6.3-0.5,9.1-1.7v-4.4c-2.4,1.3-5.7,2.1-9.1,2.1C24.7,14.8,21.6,14.2,19.4,13z"/>
	<path d="M19.4,23.7c-3-1.6-6.6-2.3-10.3-2.3C6,21.5,2.8,22,0,23.2v4.4c2.4-1.4,5.8-2.1,9.1-2.1c3.1,0,6.2,0.6,8.4,1.8
		c3,1.6,6.6,2.3,10.3,2.3c3.2,0,6.3-0.5,9.1-1.7v-4.4c-2.4,1.3-5.7,2.1-9.1,2.1C24.7,25.6,21.6,24.9,19.4,23.7z"/>
</g>
<g>
</g>
<g>
</g>
<g>
</g>
<g>
</g>
<g>
</g>
<g>
</g>
<g>
</g>
<g>
</g>
<g>
</g>
<g>
</g>
<g>
</g>
<g>
</g>
<g>
</g>
<g>
</g>
<g>
</g>
</svg>
