<?xml version="1.0" encoding="utf-8"?>
<!-- Generator: Adobe Illustrator 18.1.1, SVG Export Plug-In . SVG Version: 6.00 Build 0)  -->
<svg version="1.1" id="Layer_1" xmlns="http://www.w3.org/2000/svg" xmlns:xlink="http://www.w3.org/1999/xlink" x="0px" y="0px"
	 viewBox="0 0 60.8 57.7" enable-background="new 0 0 60.8 57.7" xml:space="preserve">
<g>
	<path d="M15.5,41l-2.9-4.4L9.7,41h0C9.3,41.5,9,42.3,9,43c0,2,1.6,3.6,3.6,3.6c2,0,3.6-1.6,3.6-3.6C16.1,42.3,15.9,41.5,15.5,41
		L15.5,41z"/>
	<path d="M29.7,41l-2.9-4.4L23.9,41h0c-0.4,0.6-0.7,1.3-0.7,2.1c0,2,1.6,3.6,3.6,3.6c2,0,3.6-1.6,3.6-3.6
		C30.3,42.3,30.1,41.5,29.7,41L29.7,41z"/>
	<path d="M22.8,51.6l-2.9-4.4L17,51.6h0c-0.4,0.6-0.7,1.3-0.7,2.1c0,2,1.6,3.6,3.6,3.6s3.6-1.6,3.6-3.6
		C23.5,52.9,23.2,52.2,22.8,51.6L22.8,51.6z"/>
	<path d="M58.8,21.9c-0.8-0.8-1.9-1.4-3-1.7c-0.5-1.7-1.5-3.3-2.8-4.4c-1.1-1-2.3-1.7-3.7-2.1c-0.8-2-2.1-3.8-3.7-5
		c-1.9-1.5-4.3-2.3-6.9-2.3c-0.4,0-0.9,0-1.3,0.1c-3-3.8-7.7-6.3-13-6.3C20.4,0,16.8,1.3,14,3.5c-2.4,1.9-4.3,4.4-5.4,7.3
		c-2.2,0.6-4.2,1.7-5.6,3.4c-1.9,2-3,4.7-3,7.7c0,3.1,1.3,6,3.3,8.1c2.1,2.1,4.9,3.3,8.1,3.3h27c0.1,0,0.2,0,0.4,0l15.3,0
		c1.8,0,3.5-0.8,4.7-2c1.2-1.2,2-2.9,2-4.7C60.8,24.8,60,23.1,58.8,21.9z M6.9,26.4C5.7,25.3,5,23.7,5,21.9c0-1.7,0.6-3.2,1.7-4.3
		c1-1.1,2.5-1.9,4.1-2.1l1.7-0.2l0.4-1.7c0.7-2.5,2.1-4.7,4.1-6.2c2-1.5,4.5-2.5,7.2-2.5c4.1,0,7.7,2.1,9.8,5.4l1,1.5l1.8-0.5
		c0.6-0.2,1.1-0.2,1.7-0.2c1.5,0,2.8,0.5,3.9,1.3c0.4,0.3,0.7,0.6,1,0.9c-2,0.6-3.8,1.7-5.1,3.3c-2.1,0.1-4,1-5.4,2.4
		c-1.5,1.5-2.4,3.6-2.4,5.9c0,1.2,0.2,2.3,0.7,3.3H11.4C9.6,28.3,8,27.6,6.9,26.4z M55.3,27.8c-0.3,0.3-0.7,0.5-1.2,0.5l-15.3,0h0
		c-0.9,0-1.7-0.4-2.3-1c-0.6-0.6-1-1.4-1-2.3c0-0.9,0.4-1.7,1-2.4c0.6-0.6,1.4-1,2.4-1c0.1,0,0.3,0,0.4,0l1.6,0.2l0.8-1.4
		c0.9-1.5,2.5-2.5,4.4-2.5c1.3,0,2.5,0.5,3.5,1.3c0.9,0.8,1.5,2,1.7,3.3l0.2,2.5l2.5-0.2l0.1,0c0.5,0,0.9,0.2,1.2,0.5
		c0.3,0.3,0.5,0.7,0.5,1.2C55.8,27.1,55.6,27.5,55.3,27.8z"/>
	<polygon points="47.6,43.5 44.8,41.8 47.6,40.2 46.6,38.4 43.7,40 43.7,36.8 41.6,36.8 41.6,40 38.8,38.4 37.8,40.2 40.6,41.8 
		37.8,43.5 38.8,45.3 41.6,43.7 41.6,46.9 43.7,46.9 43.7,43.7 46.6,45.3 	"/>
	<polygon points="39.7,49.2 36.9,50.8 36.9,47.6 34.8,47.6 34.8,50.8 32,49.2 30.9,51 33.8,52.7 30.9,54.3 32,56.1 34.8,54.5 
		34.8,57.7 36.9,57.7 36.9,54.5 39.7,56.1 40.8,54.3 38,52.7 40.8,51 	"/>
	<polygon points="53.4,49.2 50.6,50.8 50.6,47.6 48.5,47.6 48.5,50.8 45.7,49.2 44.6,51 47.4,52.7 44.6,54.3 45.7,56.1 48.5,54.5 
		48.5,57.7 50.6,57.7 50.6,54.5 53.4,56.1 54.5,54.3 51.6,52.7 54.5,51 	"/>
</g>
<g>
</g>
<g>
</g>
<g>
</g>
<g>
</g>
<g>
</g>
<g>
</g>
<g>
</g>
<g>
</g>
<g>
</g>
<g>
</g>
<g>
</g>
<g>
</g>
<g>
</g>
<g>
</g>
<g>
</g>
</svg>
