<?xml version="1.0" encoding="utf-8"?>
<!-- Generator: Adobe Illustrator 18.1.1, SVG Export Plug-In . SVG Version: 6.00 Build 0)  -->
<svg version="1.1" id="Layer_1" xmlns="http://www.w3.org/2000/svg" xmlns:xlink="http://www.w3.org/1999/xlink" x="0px" y="0px"
	 viewBox="0 0 38.1 38.1" enable-background="new 0 0 38.1 38.1" xml:space="preserve">
<g>
	<polygon points="35.2,11.4 28.8,11.4 35.2,3.4 35.2,0.6 22.7,0.6 22.7,4.6 29.1,4.6 22.7,12.6 22.7,15.4 35.2,15.4 	"/>
	<path d="M35,21.8c-2.2,1.6-4.9,2.6-7.9,2.6c-7.4,0-13.4-6-13.4-13.4c0-2.9,1-5.6,2.6-7.9L14.1,0C6,2.3,0,9.8,0,18.7
		c0,10.7,8.7,19.4,19.4,19.4c8.9,0,16.4-6,18.7-14.1L35,21.8z M19.4,34.1C10.9,34.1,4,27.2,4,18.7C4,13.5,6.5,9,10.4,6.2
		C9.9,7.7,9.7,9.3,9.7,11c0,9.6,7.8,17.4,17.4,17.4c1.7,0,3.3-0.2,4.8-0.7C29.1,31.6,24.5,34.1,19.4,34.1z"/>
</g>
<g>
</g>
<g>
</g>
<g>
</g>
<g>
</g>
<g>
</g>
<g>
</g>
<g>
</g>
<g>
</g>
<g>
</g>
<g>
</g>
<g>
</g>
<g>
</g>
<g>
</g>
<g>
</g>
<g>
</g>
</svg>
