<?xml version="1.0" encoding="utf-8"?>
<!-- Generator: Adobe Illustrator 18.1.1, SVG Export Plug-In . SVG Version: 6.00 Build 0)  -->
<svg version="1.1" id="Layer_1" xmlns="http://www.w3.org/2000/svg" xmlns:xlink="http://www.w3.org/1999/xlink" x="0px" y="0px"
	 viewBox="0 0 59.8 53.9" enable-background="new 0 0 59.8 53.9" xml:space="preserve">
<g>
	<rect x="22.3" y="1.4" transform="matrix(0.3395 0.9406 -0.9406 0.3395 20.477 -21.4181)" width="6.4" height="5"/>
	<rect x="50.5" y="13.6" transform="matrix(0.3395 0.9406 -0.9406 0.3395 50.8069 -38.7532)" width="5" height="6.4"/>
	<rect x="39.4" y="1.4" transform="matrix(0.905 0.4254 -0.4254 0.905 5.955 -17.3936)" width="5" height="6.4"/>
	<rect x="10.1" y="12.4" transform="matrix(0.9052 0.425 -0.425 0.9052 7.6155 -4.2466)" width="6.4" height="5"/>
	<path d="M57.9,35c-0.8-0.8-1.8-1.4-3-1.7c-0.5-1.7-1.5-3.2-2.8-4.4c-1.4-1.3-3.3-2.2-5.3-2.5c0.1-0.8,0.2-1.5,0.2-2.3
		c0-1.6-0.3-3.2-0.8-4.8c-1-2.9-2.9-5.2-5.3-6.8c-2.3-1.6-5.2-2.5-8.1-2.5c-1.6,0-3.2,0.3-4.8,0.8c-2.9,1-5.2,2.9-6.8,5.3
		c-1.6,2.3-2.5,5-2.5,7.9c-2.2,0.5-4.2,1.5-6,2.8c-2.2,1.7-3.8,4-4.8,6.6c-2,0.5-3.7,1.6-5.1,3.1C1,38.2,0,40.7,0,43.4
		c0,2.9,1.2,5.5,3.1,7.4c1.9,1.9,4.5,3.1,7.4,3.1h31.6c2.2,0,4.1-0.9,5.6-2.3c1.3-1.3,2.2-3.2,2.3-5.2h3.2c1.8,0,3.5-0.7,4.7-2
		c1.2-1.2,2-2.9,2-4.7C59.8,37.9,59.1,36.2,57.9,35z M29.7,15.5c1-0.4,2.1-0.5,3.1-0.5c1.9,0,3.7,0.6,5.2,1.6
		c1.5,1.1,2.7,2.6,3.4,4.4c0.4,1,0.5,2.1,0.5,3.1c0,2.3-0.9,4.4-2.3,6.1c-1.4-0.7-3-1.1-4.7-1.1c-0.4,0-0.7,0-1,0.1
		c-2.5-3-6.1-5.1-10.2-5.5c0.1-1.7,0.6-3.3,1.6-4.7C26.3,17.4,27.8,16.1,29.7,15.5z M44.2,48.1c-0.5,0.5-1.2,0.8-2,0.8H10.5
		c-1.5,0-2.9-0.6-3.9-1.6c-1-1-1.6-2.4-1.6-3.9c0-1.4,0.5-2.7,1.4-3.7c0.9-1,2.1-1.6,3.5-1.8l1.7-0.2l0.4-1.7
		c0.6-2.2,1.9-4.1,3.6-5.4c1.7-1.4,3.9-2.2,6.3-2.2c3.6,0,6.8,1.9,8.6,4.7l1,1.5l1.8-0.5c0.5-0.1,1-0.2,1.5-0.2
		c1.5,0,2.9,0.6,3.9,1.6c1,1,1.6,2.4,1.6,3.9c0,0.3,0,0.6-0.1,0.8l-0.4,2.5l2.5,0.3c0.7,0.1,1.3,0.4,1.8,0.9
		c0.5,0.5,0.7,1.2,0.7,1.9C45,46.9,44.7,47.6,44.2,48.1z M54.3,40.9c-0.3,0.3-0.7,0.5-1.2,0.5h-4.7c-0.1-0.2-0.3-0.4-0.4-0.5
		c-0.7-0.8-1.6-1.5-2.7-1.9c-0.1-2-0.8-3.9-1.9-5.5c0.6-0.7,1.1-1.4,1.5-2.1c0.1,0,0.3,0,0.4,0c1.3,0,2.5,0.5,3.4,1.3
		c0.9,0.8,1.5,1.9,1.6,3.2l0.2,2.5l2.5-0.2l0.1,0c0.5,0,0.9,0.2,1.2,0.5c0.3,0.3,0.5,0.7,0.5,1.2C54.8,40.2,54.6,40.6,54.3,40.9z"/>
</g>
<g>
</g>
<g>
</g>
<g>
</g>
<g>
</g>
<g>
</g>
<g>
</g>
<g>
</g>
<g>
</g>
<g>
</g>
<g>
</g>
<g>
</g>
<g>
</g>
<g>
</g>
<g>
</g>
<g>
</g>
</svg>
