<?xml version="1.0" encoding="utf-8"?>
<!-- Generator: Adobe Illustrator 18.1.1, SVG Export Plug-In . SVG Version: 6.00 Build 0)  -->
<svg version="1.1" id="Layer_1" xmlns="http://www.w3.org/2000/svg" xmlns:xlink="http://www.w3.org/1999/xlink" x="0px" y="0px"
	 viewBox="0 0 55.5 55.1" enable-background="new 0 0 55.5 55.1" xml:space="preserve">
<g>
	<path d="M43.4,27.6C43.4,19,36.5,12,27.9,12c-8.6,0-15.5,6.9-15.5,15.5c0,1.8,0.3,3.5,0.8,5c-1.5,0.8-2.9,1.9-3.9,3.2
		c-2.5,0.1-4.8,1.1-6.5,2.8C1.1,40.3,0,42.8,0,45.4c0,2.6,1.1,5.1,2.8,6.8C4.5,54,6.9,55,9.6,55.1h0l18.7,0c4.2,0,7.7-3.4,7.7-7.7
		c0-2.1-0.9-4-2.2-5.4c0,0,0,0,0,0C39.4,39.6,43.4,34.1,43.4,27.6z M30.2,49.3c-0.5,0.5-1.1,0.8-1.9,0.8l-18.7,0h0
		c-1.3,0-2.4-0.5-3.3-1.4c-0.8-0.8-1.4-2-1.4-3.3c0-1.3,0.5-2.4,1.4-3.3c0.9-0.8,2-1.4,3.3-1.4c0.2,0,0.4,0,0.6,0l1.6,0.2l0.8-1.4
		c1.2-2,3.4-3.3,5.9-3.3c1.8,0,3.4,0.7,4.6,1.8c1.2,1.1,2,2.7,2.2,4.4l0.2,2.4l2.4-0.2l0.2,0c0.7,0,1.4,0.3,1.9,0.8
		c0.5,0.5,0.8,1.1,0.8,1.9C31,48.1,30.7,48.8,30.2,49.3z M35.4,35c-1.6,1.6-3.8,2.7-6.1,3c-0.7-1.4-1.6-2.6-2.6-3.6
		c-2.1-1.9-4.9-3.1-8-3.1c-0.2,0-0.3,0-0.5,0c-0.5-1.2-0.7-2.5-0.7-3.8c0-2.9,1.2-5.5,3.1-7.4c1.9-1.9,4.5-3.1,7.4-3.1
		c2.9,0,5.5,1.2,7.4,3.1c1.9,1.9,3.1,4.5,3.1,7.4C38.4,30.5,37.3,33.1,35.4,35z"/>
	<rect x="25.4" y="0" width="5" height="7.2"/>
	<rect x="0.4" y="25.1" width="7.2" height="5"/>
	<rect x="48.3" y="25.1" width="7.2" height="5"/>
	<rect x="42.4" y="7" transform="matrix(0.7071 0.7071 -0.7071 0.7071 20.6444 -28.629)" width="5" height="7.2"/>
	<rect x="7.4" y="8.1" transform="matrix(0.7071 0.7071 -0.7071 0.7071 10.7126 -4.6535)" width="7.2" height="5"/>
	<rect x="41.3" y="42" transform="matrix(-0.7072 -0.707 0.707 -0.7072 45.1477 107.7177)" width="7.2" height="5"/>
</g>
<g>
</g>
<g>
</g>
<g>
</g>
<g>
</g>
<g>
</g>
<g>
</g>
<g>
</g>
<g>
</g>
<g>
</g>
<g>
</g>
<g>
</g>
<g>
</g>
<g>
</g>
<g>
</g>
<g>
</g>
</svg>
