<?xml version="1.0" encoding="utf-8"?>
<!-- Generator: Adobe Illustrator 18.1.1, SVG Export Plug-In . SVG Version: 6.00 Build 0)  -->
<svg version="1.1" id="Layer_1" xmlns="http://www.w3.org/2000/svg" xmlns:xlink="http://www.w3.org/1999/xlink" x="0px" y="0px"
	 viewBox="0 0 42 33.2" enable-background="new 0 0 42 33.2" xml:space="preserve">
<path d="M18,16.9H12v2.6H18V16.9z M38.5,8.5l-1.8-1.8l-4.2,4.2l1.8,1.8L38.5,8.5z M28.3,3.2h-2.6v5.9h2.6V3.2z M15.5,8.5l4.2,4.2
	l1.8-1.8l-4.2-4.2L15.5,8.5z M15.5,27.9l1.8,1.8l4.2-4.2l-1.8-1.8L15.5,27.9z M25.8,33.2h2.6v-5.9h-2.6V33.2z M32.5,25.5l4.2,4.2
	l1.8-1.8l-4.2-4.2L32.5,25.5z M36.1,16.9v2.6H42v-2.6H36.1z M27,11.3c-3.8,0-6.9,3.1-6.9,6.9s3.1,6.9,6.9,6.9s6.9-3.1,6.9-6.9
	S30.8,11.3,27,11.3z M27,22.5c-2.4,0-4.3-1.9-4.3-4.3c0-1.2,0.4-2.2,1.3-3.1c0.8-0.8,1.9-1.3,3.1-1.3c1.2,0,2.2,0.4,3.1,1.3
	c0.8,0.8,1.3,1.9,1.3,3.1C31.4,20.6,29.4,22.5,27,22.5z M6.8,12.1h4.3l-0.2-1.5c-0.1-0.4-0.1-0.8-0.1-1.1c0-3.8,3.1-7,7-7
	c1.2,0,2.3,0.3,3.4,0.9l1.2-2.2C21,0.4,19.4,0,17.8,0c-5.3,0-9.5,4.3-9.5,9.5c0,0,0,0,0,0c-0.7,0-1.4,0-1.4,0C3,9.5,0,12.6,0,16.3
	c0,3.7,3,6.8,6.8,6.8h3.1v-2.6H6.8c-2.3,0-4.2-1.9-4.2-4.2C2.6,14,4.5,12.1,6.8,12.1z"/>
<g>
</g>
<g>
</g>
<g>
</g>
<g>
</g>
<g>
</g>
<g>
</g>
<g>
</g>
<g>
</g>
<g>
</g>
<g>
</g>
<g>
</g>
<g>
</g>
<g>
</g>
<g>
</g>
<g>
</g>
</svg>
