<?xml version="1.0" encoding="utf-8"?>
<!-- Generator: Adobe Illustrator 18.1.1, SVG Export Plug-In . SVG Version: 6.00 Build 0)  -->
<svg version="1.1" id="Layer_1" xmlns="http://www.w3.org/2000/svg" xmlns:xlink="http://www.w3.org/1999/xlink" x="0px" y="0px"
	 viewBox="0 0 54.8 60.2" enable-background="new 0 0 54.8 60.2" xml:space="preserve">
<g>
	<rect x="32.4" y="0" width="5" height="5"/>
	<rect x="32.4" y="33.8" width="5" height="5.1"/>
	<rect x="49.3" y="16.9" width="5" height="5"/>
	<rect x="44.4" y="4.9" transform="matrix(0.7071 0.7071 -0.7071 0.7071 19.0083 -30.9459)" width="5" height="5.1"/>
	<rect x="20.5" y="28.8" transform="matrix(-0.7071 -0.7071 0.7071 -0.7071 17.0328 69.7809)" width="5" height="5"/>
	<rect x="20.4" y="5" transform="matrix(0.7069 0.7073 -0.7073 0.7069 12.017 -14.0559)" width="5" height="5"/>
	<path d="M14.6,54.6l-2.9-4.4l-2.9,4.4h0c-0.4,0.6-0.7,1.3-0.7,2.1c0,2,1.6,3.6,3.6,3.6c2,0,3.6-1.6,3.6-3.6
		C15.3,55.9,15.1,55.1,14.6,54.6L14.6,54.6z"/>
	<path d="M28.8,54.6l-2.9-4.4l-2.9,4.4h0c-0.4,0.6-0.7,1.3-0.7,2.1c0,2,1.6,3.6,3.6,3.6s3.6-1.6,3.6-3.6
		C29.5,55.9,29.2,55.1,28.8,54.6L28.8,54.6z"/>
	<path d="M43,54.6l-2.9-4.4l-2.9,4.4h0c-0.4,0.6-0.7,1.3-0.7,2.1c0,2,1.6,3.6,3.6,3.6c2,0,3.6-1.6,3.6-3.6
		C43.7,55.9,43.4,55.1,43,54.6L43,54.6z"/>
	<path d="M52.7,33.2c-0.8-0.9-1.8-1.7-3-2.1c-0.1-2-0.7-3.8-1.7-5.4c-0.6-0.9-1.3-1.7-2.1-2.5c0.4-1.2,0.6-2.5,0.6-3.8
		c0-3.2-1.3-6.1-3.4-8.3c-2.1-2.1-5-3.4-8.2-3.4c-3.2,0-6.1,1.3-8.3,3.4c-0.9,0.9-1.6,1.9-2.1,3c-0.1,0-0.3,0-0.4,0
		c-3.8,0-7.4,1.3-10.2,3.5c-2.4,1.9-4.2,4.4-5.3,7.3c-2.2,0.6-4.1,1.7-5.6,3.3c-1.8,2-3,4.7-3,7.7c0,3.1,1.3,6,3.3,8
		c2,2.1,4.9,3.3,8,3.3h35c2.3,0,4.4-0.9,6-2.5c1.5-1.5,2.5-3.6,2.5-6C54.8,36.7,54,34.7,52.7,33.2z M30.2,14.7c1.2-1.2,2.9-2,4.7-2
		c1.8,0,3.5,0.7,4.7,2c1.2,1.2,2,2.9,2,4.7c0,1.8-0.7,3.5-2,4.7c-1.2,1.2-2.9,2-4.7,2c-1.8,0-3.5-0.7-4.7-2c-1.2-1.2-2-2.9-2-4.7
		C28.2,17.6,29,15.9,30.2,14.7z M48.8,41.3c-0.6,0.6-1.5,1-2.4,1h-35c-1.8,0-3.3-0.7-4.5-1.9C5.7,39.3,5,37.7,5,35.9
		c0-1.7,0.6-3.1,1.7-4.3c1-1.1,2.5-1.9,4.1-2l1.7-0.2l0.4-1.7c0.7-2.5,2.1-4.6,4.1-6.2c1.8-1.4,3.9-2.2,6.3-2.4c0,0.1,0,0.2,0,0.2
		c0,6.4,5.2,11.7,11.7,11.7c3.2,0,6.1-1.3,8.2-3.4c0,0,0.1-0.1,0.1-0.1c0.2,0.2,0.4,0.5,0.5,0.7c0.6,1,0.9,2.1,0.9,3.3
		c0,0.3,0,0.6-0.1,1l-0.4,2.5l2.5,0.3c0.8,0.1,1.6,0.5,2.1,1.1c0.5,0.6,0.9,1.4,0.9,2.3C49.8,39.8,49.4,40.6,48.8,41.3z"/>
</g>
<g>
</g>
<g>
</g>
<g>
</g>
<g>
</g>
<g>
</g>
<g>
</g>
<g>
</g>
<g>
</g>
<g>
</g>
<g>
</g>
<g>
</g>
<g>
</g>
<g>
</g>
<g>
</g>
<g>
</g>
</svg>
