<?xml version="1.0" encoding="utf-8"?>
<!-- Generator: Adobe Illustrator 18.1.1, SVG Export Plug-In . SVG Version: 6.00 Build 0)  -->
<svg version="1.1" id="Layer_1" xmlns="http://www.w3.org/2000/svg" xmlns:xlink="http://www.w3.org/1999/xlink" x="0px" y="0px"
	 viewBox="0 0 35.2 38.8" enable-background="new 0 0 35.2 38.8" xml:space="preserve">
<g>
	<path d="M11.5,29.6c0-0.3-0.1-0.7-0.2-1l-0.1-0.1c-0.1-0.1-2.1-3.6-2.2-3.8v0l0,0l0,0l0,0l0,0v0c-0.1,0.2-2.2,3.7-2.2,3.8l-0.1,0.1
		c-0.1,0.3-0.2,0.6-0.2,1c0,1.4,1.1,2.5,2.5,2.5l0,0c0,0,0,0,0,0h0h0c0,0,0,0,0,0h0C10.4,32.1,11.5,31,11.5,29.6z"/>
	<path d="M20.9,36.2c0-0.3-0.1-0.7-0.2-1l-0.1-0.1c-0.1-0.1-2.1-3.6-2.2-3.8v0l0,0c0,0,0,0,0,0l0,0l0,0v0c-0.1,0.2-2.2,3.7-2.2,3.8
		L16,35.3c-0.1,0.3-0.2,0.6-0.2,1c0,1.4,1.1,2.5,2.5,2.5l0,0c0,0,0,0,0,0h0c0,0,0,0,0,0c0,0,0,0,0,0l0,0
		C19.7,38.8,20.9,37.6,20.9,36.2z"/>
	<g>
		<path d="M17.6,15.6c0,3.1,2.5,5.6,5.6,5.6c3.1,0,5.6-2.5,5.6-5.6c0-3.1-2.5-5.6-5.6-5.6C20.1,10,17.6,12.5,17.6,15.6z M19.8,15.6
			c0-1.9,1.5-3.4,3.4-3.4c1.9,0,3.4,1.5,3.4,3.4S25.1,19,23.2,19C21.3,19,19.8,17.5,19.8,15.6z"/>
		<rect x="22.1" y="3.5" width="2.1" height="4.8"/>
		<rect x="22.1" y="22.9" width="2.1" height="4.8"/>
		<rect x="29" y="6.4" transform="matrix(-0.7071 -0.7071 0.7071 -0.7071 45.0752 36.1728)" width="2.1" height="4.8"/>
		<rect x="15.3" y="20" transform="matrix(-0.7069 -0.7073 0.7073 -0.7069 12.0615 49.8431)" width="2.1" height="4.8"/>
		<rect x="30.5" y="14.5" width="4.8" height="2.1"/>
		<rect x="11.1" y="14.5" width="4.8" height="2.1"/>
		<rect x="27.6" y="21.4" transform="matrix(-0.707 -0.7072 0.7072 -0.707 35.4025 59.5117)" width="4.8" height="2.1"/>
		<rect x="14" y="7.7" transform="matrix(-0.707 -0.7072 0.7072 -0.707 21.735 26.5076)" width="4.8" height="2.1"/>
	</g>
	<g>
		<path d="M15.5,0C11,0,7.2,3.7,7.2,8.3c-0.5,0-1.1,0-1.1,0C2.7,8.3,0,11,0,14.3c0,3.3,2.7,6.1,6.1,6.1h2.7v-2.6H6.1
			c-1.9,0-3.5-1.6-3.5-3.5c0-1.9,1.6-3.5,3.5-3.5h3.9L9.8,9.3L9.7,8.4c0-3.2,2.6-5.9,5.9-5.9c1.3,0,2.4,0.4,3.4,1.1l1.8-1.8
			C19.3,0.7,17.5,0,15.5,0z"/>
	</g>
</g>
<g>
</g>
<g>
</g>
<g>
</g>
<g>
</g>
<g>
</g>
<g>
</g>
<g>
</g>
<g>
</g>
<g>
</g>
<g>
</g>
<g>
</g>
<g>
</g>
<g>
</g>
<g>
</g>
<g>
</g>
</svg>
