<?xml version="1.0" encoding="utf-8"?>
<!-- Generator: Adobe Illustrator 18.1.1, SVG Export Plug-In . SVG Version: 6.00 Build 0)  -->
<svg version="1.1" id="Layer_1" xmlns="http://www.w3.org/2000/svg" xmlns:xlink="http://www.w3.org/1999/xlink" x="0px" y="0px"
	 viewBox="0 0 61 55.4" enable-background="new 0 0 61 55.4" xml:space="preserve">
<path d="M58.9,35.5c-0.9-0.9-2-1.5-3.2-1.8c-0.5-1.6-1.3-3-2.4-4.1c0.7-1.3,1.3-2.7,1.7-4.2l1.1-4.2l-4.2,1.1
	c-1.2,0.3-2.5,0.5-3.8,0.5c-4.1,0-7.8-1.7-10.5-4.3c-2.7-2.7-4.3-6.4-4.3-10.5c0-1.3,0.2-2.6,0.5-3.8L34.9,0l-4.2,1.1
	c-4.2,1.1-7.9,3.6-10.5,7c-2.6,3.3-4.2,7.6-4.2,12.1c0,1.9,0.3,3.8,0.8,5.6c-1.5,0.6-2.9,1.3-4.2,2.3c-2.2,1.7-3.8,4-4.8,6.6
	c-2,0.5-3.7,1.6-5.1,3.1C1,39.6,0,42.1,0,44.9c0,2.9,1.2,5.5,3.1,7.4c1.9,1.9,4.5,3.1,7.4,3.1h31.6c2.2,0,4.1-0.9,5.6-2.3
	c1.4-1.4,2.3-3.4,2.3-5.6c0-0.1,0-0.1,0-0.2l4,0c1.9,0,3.7-0.8,4.9-2c1.2-1.2,2-3,2-4.9C61,38.5,60.2,36.7,58.9,35.5z M21,20.2
	c0-3.4,1.2-6.6,3.1-9.1c1.1-1.4,2.5-2.7,4.1-3.6c0,0.2,0,0.3,0,0.5c0,10.9,8.9,19.8,19.8,19.8c0.2,0,0.3,0,0.5,0
	c-1.5,2.5-3.6,4.5-6.2,5.7c-1.9-1.9-4.5-3.1-7.4-3.1c-0.4,0-0.7,0-1,0.1c-2.8-3.4-7-5.6-11.8-5.6c-0.1,0-0.1,0-0.2,0
	C21.3,23.5,21,21.9,21,20.2z M44.2,49.5c-0.5,0.5-1.2,0.8-2,0.8H10.5c-1.5,0-2.9-0.6-3.9-1.6c-1-1-1.6-2.4-1.6-3.9
	c0-1.4,0.5-2.7,1.4-3.7c0.9-1,2.1-1.6,3.5-1.8l1.7-0.2l0.4-1.7c0.6-2.2,1.9-4.1,3.6-5.4c1.7-1.4,3.9-2.2,6.3-2.2
	c3.6,0,6.8,1.9,8.6,4.7l1,1.5l1.8-0.5c0.5-0.1,1-0.2,1.5-0.2c1.5,0,2.9,0.6,3.9,1.6c1,1,1.6,2.4,1.6,3.9c0,0.3,0,0.6-0.1,0.8
	L40,44.4l2.5,0.3c0.7,0.1,1.3,0.4,1.8,0.9c0.5,0.5,0.7,1.2,0.7,1.9C45,48.3,44.7,49,44.2,49.5z M55.4,41.8c-0.4,0.4-0.8,0.6-1.4,0.6
	l-6,0c0,0,0,0,0,0c-0.7-0.8-1.6-1.5-2.7-1.9c-0.1-0.9-0.2-1.7-0.5-2.5c2-1,3.9-2.4,5.4-4.1c0.5,0.7,0.8,1.6,0.9,2.5l0.2,2.5l2.5-0.2
	l0.1,0c0.5,0,1,0.2,1.4,0.6c0.4,0.4,0.6,0.8,0.6,1.4C56,40.9,55.7,41.4,55.4,41.8z"/>
<g>
</g>
<g>
</g>
<g>
</g>
<g>
</g>
<g>
</g>
<g>
</g>
<g>
</g>
<g>
</g>
<g>
</g>
<g>
</g>
<g>
</g>
<g>
</g>
<g>
</g>
<g>
</g>
<g>
</g>
</svg>
