<?xml version="1.0" encoding="utf-8"?>
<!-- Generator: Adobe Illustrator 18.1.1, SVG Export Plug-In . SVG Version: 6.00 Build 0)  -->
<svg version="1.1" id="Layer_1" xmlns="http://www.w3.org/2000/svg" xmlns:xlink="http://www.w3.org/1999/xlink" x="0px" y="0px"
	 viewBox="0 0 36.9 35.8" enable-background="new 0 0 36.9 35.8" xml:space="preserve">
<path d="M19.3,0h-2.6v7.1h2.6V0z M31.7,6.2l-1.8-1.8l-5,5l1.8,1.8L31.7,6.2z M4.4,29.8l1.8,1.8l5-5l-1.8-1.8L4.4,29.8z M28.9,19.3
	H36v-2.6h-7.1V19.3z M7.1,16.7H0v2.6h7.1V16.7z M11.2,9.4l-5-5L4.4,6.2l5,5L11.2,9.4z M32,26c0,0-0.3,0-0.6,0
	c-0.2-3.1-2.6-5.7-5.6-6.2C26,19.3,26,18.6,26,18c0-4.4-3.6-8-8-8c-4.4,0-8,3.6-8,8c0,2.1,0.8,4.2,2.4,5.7c1.5,1.4,3.4,2.3,5.4,2.3
	c-0.1,0-0.2,0-0.2,0c-2.7,0-4.9,2.2-4.9,4.9c0,2.7,2.2,4.9,4.9,4.9H32c2.7,0,4.9-2.2,4.9-4.9C36.9,28.2,34.7,26,32,26z M14.2,21.9
	c-1-1-1.6-2.4-1.6-3.8c0-3,2.4-5.4,5.4-5.4c3,0,5.4,2.4,5.4,5.4c0,0.7-0.1,1.4-0.4,2c-1.8,0.5-3.3,1.7-4.2,3.4
	c-0.3,0-0.6,0.1-0.8,0.1C16.6,23.4,15.2,22.9,14.2,21.9z M32,33.3H17.6c-1.3,0-2.3-1.1-2.3-2.3c0-1.3,1.1-2.3,2.3-2.3h3.3l-0.1-1.5
	l-0.1-0.7c0-0.3,0-0.6,0.1-0.9c0.4-1.9,2.1-3.2,4-3.2c0,0,0,0,0,0c2.3,0,4.1,1.9,4.1,4.1l-0.2,2l1.4,0.1H32c1.3,0,2.3,1.1,2.3,2.3
	C34.3,32.2,33.3,33.3,32,33.3z"/>
<g>
</g>
<g>
</g>
<g>
</g>
<g>
</g>
<g>
</g>
<g>
</g>
<g>
</g>
<g>
</g>
<g>
</g>
<g>
</g>
<g>
</g>
<g>
</g>
<g>
</g>
<g>
</g>
<g>
</g>
</svg>
