<?xml version="1.0" encoding="utf-8"?>
<!-- Generator: Adobe Illustrator 18.1.1, SVG Export Plug-In . SVG Version: 6.00 Build 0)  -->
<svg version="1.1" id="Layer_1" xmlns="http://www.w3.org/2000/svg" xmlns:xlink="http://www.w3.org/1999/xlink" x="0px" y="0px"
	 viewBox="0 0 55.8 53.6" enable-background="new 0 0 55.8 53.6" xml:space="preserve">
<path d="M51.6,27.6c-1.6,0.4-3.3,0.7-5,0.7c-5.3,0-10.1-2.1-13.5-5.6c-3.5-3.5-5.6-8.2-5.6-13.5c0-1.7,0.2-3.4,0.7-5L29.3,0
	l-4.2,1.1C20,2.5,15.5,5.5,12.4,9.6c-3.2,4.1-5.1,9.2-5.1,14.8c0,3.5,0.8,6.8,2.1,9.8c0,0,0,0,0,0.1c-2.5,0.1-4.8,1.1-6.5,2.8
	C1.1,38.8,0,41.3,0,43.9c0,2.6,1.1,5.1,2.8,6.8c1.7,1.7,4.1,2.8,6.8,2.8h18.8c3.5,0,6.4-2.3,7.3-5.4c9.2-1.7,16.6-8.5,19-17.5
	l1.1-4.2L51.6,27.6z M30.2,47.8c-0.5,0.5-1.1,0.8-1.9,0.8H9.6h0c-1.3,0-2.4-0.5-3.3-1.4c-0.8-0.8-1.4-2-1.4-3.3
	c0-1.3,0.5-2.4,1.4-3.3c0.8-0.8,2-1.4,3.3-1.4c0.2,0,0.4,0,0.6,0l1.6,0.2l0.8-1.4c1.2-2,3.4-3.3,5.9-3.3c1.8,0,3.4,0.7,4.6,1.8
	c1.2,1.1,2,2.7,2.2,4.4l0.2,2.4l2.4-0.2c0.1,0,0.2,0,0.2,0c0.7,0,1.4,0.3,1.9,0.8c0.5,0.5,0.8,1.1,0.8,1.9
	C31,46.7,30.7,47.3,30.2,47.8z M35.5,43.1c-0.9-2.3-3-4.1-5.5-4.7c-0.6-2.1-1.8-4-3.4-5.5c-2.1-1.9-4.9-3.1-8-3.1
	c-1.8,0-3.6,0.4-5.1,1.2c-0.8-2.1-1.2-4.3-1.2-6.6c0-4.4,1.5-8.5,4-11.7c1.7-2.2,3.8-3.9,6.3-5.2c0,0.6-0.1,1.1-0.1,1.7
	c0,13.3,10.8,24.1,24.1,24.1c0.6,0,1.1,0,1.7-0.1C45.8,38.2,41.1,41.9,35.5,43.1z"/>
<g>
</g>
<g>
</g>
<g>
</g>
<g>
</g>
<g>
</g>
<g>
</g>
<g>
</g>
<g>
</g>
<g>
</g>
<g>
</g>
<g>
</g>
<g>
</g>
<g>
</g>
<g>
</g>
<g>
</g>
</svg>
