<?xml version="1.0" encoding="utf-8"?>
<!-- Generator: Adobe Illustrator 18.1.1, SVG Export Plug-In . SVG Version: 6.00 Build 0)  -->
<svg version="1.1" id="Layer_1" xmlns="http://www.w3.org/2000/svg" xmlns:xlink="http://www.w3.org/1999/xlink" x="0px" y="0px"
	 viewBox="0 0 36.9 34.7" enable-background="new 0 0 36.9 34.7" xml:space="preserve">
<path d="M19.7,0h-2.6v6.5h2.6V0z M31,5.7l-1.8-1.8l-4.6,4.6l1.8,1.8L31,5.7z M28.4,17.7h6.5v-2.6h-6.5V17.7z M8.6,15.1H2.1v2.6h6.5
	V15.1z M12.4,8.5L7.8,3.9L6,5.7l4.6,4.6L12.4,8.5z M31.7,24.3c0,0-0.4,0-0.7,0c-0.2-3.2-2.3-5.8-5.3-6.6c0.1-0.4,0.1-0.9,0.1-1.3
	c0-4.1-3.3-7.4-7.4-7.4c-4.1,0-7.4,3.3-7.4,7.4c0,0.5,0,0.9,0.1,1.3c-2.9,0.8-5.1,3.4-5.3,6.6c-0.3,0-0.7,0-0.7,0
	c-2.9,0-5.2,2.3-5.2,5.2s2.3,5.2,5.2,5.2h26.5c2.9,0,5.2-2.3,5.2-5.2S34.6,24.3,31.7,24.3z M18.5,11.5c2.7,0,4.8,2.2,4.8,4.8
	c0,0.4-0.1,0.8-0.1,1.1c-1.9,0.2-3.5,1.1-4.7,2.5c-1.2-1.4-2.8-2.3-4.7-2.5c-0.1-0.4-0.1-0.7-0.1-1.1C13.6,13.7,15.8,11.5,18.5,11.5
	z M11.6,32.1H5.2c-1.5,0-2.7-1.2-2.7-2.7c0-1.5,1.2-2.7,2.7-2.7h3.4l-0.1-1.5l-0.1-0.7c0-2.2,1.6-4.1,3.7-4.5
	c0.3-0.1,0.6-0.1,0.9-0.1c1.8,0,3.3,1,4.1,2.5c-0.1,0.3-0.2,0.7-0.3,1.1c0,0.2-0.1,0.5-0.1,0.7c-0.3,0-0.7,0-0.7,0
	c-2.9,0-5.2,2.3-5.2,5.2C10.9,30.5,11.1,31.4,11.6,32.1z M31.7,32.1H16.1c-1.5,0-2.7-1.2-2.7-2.7c0-1.5,1.2-2.7,2.7-2.7h3.4
	l-0.1-1.5l-0.1-0.7c0-0.3,0-0.6,0.1-0.9c0.1-0.4,0.2-0.8,0.4-1.2c0.8-1.5,2.3-2.5,4.1-2.5c0.3,0,0.6,0,0.9,0.1
	c2.1,0.4,3.7,2.3,3.7,4.5l-0.2,2.1l1.4,0.1h2c1.5,0,2.7,1.2,2.7,2.7C34.4,30.9,33.2,32.1,31.7,32.1z"/>
<g>
</g>
<g>
</g>
<g>
</g>
<g>
</g>
<g>
</g>
<g>
</g>
<g>
</g>
<g>
</g>
<g>
</g>
<g>
</g>
<g>
</g>
<g>
</g>
<g>
</g>
<g>
</g>
<g>
</g>
</svg>
