<?xml version="1.0" encoding="utf-8"?>
<!-- Generator: Adobe Illustrator 18.1.1, SVG Export Plug-In . SVG Version: 6.00 Build 0)  -->
<svg version="1.1" id="Layer_1" xmlns="http://www.w3.org/2000/svg" xmlns:xlink="http://www.w3.org/1999/xlink" x="0px" y="0px"
	 viewBox="0 0 40.9 38" enable-background="new 0 0 40.9 38" xml:space="preserve">
<g>
	<path d="M32,6.5c-1,0-2,0.2-2.9,0.5c-0.8-4-4.4-7-8.7-7c-4.3,0-7.8,3-8.7,7c-0.9-0.3-1.9-0.5-2.9-0.5C4,6.5,0,10.5,0,15.4
		c0,4.9,4,8.9,8.9,8.9c4.3,0,18.9,0,23.2,0c4.9,0,8.9-4,8.9-8.9C40.9,10.5,36.9,6.5,32,6.5z"/>
	<path d="M8.6,27l-3,6c-0.3,0.5-0.4,1-0.4,1.6c0,0.6,0.1,1.1,0.4,1.6l0.3,0.4C6.6,37.5,7.5,38,8.6,38s2.1-0.5,2.7-1.4
		c0.1-0.1,0.2-0.3,0.3-0.4c0.3-0.5,0.4-1,0.4-1.6c0-0.6-0.1-1.1-0.4-1.6L8.6,27z"/>
	<path d="M20.4,27l-3,6c-0.3,0.5-0.4,1-0.4,1.6c0,0.6,0.1,1.1,0.4,1.6l0.3,0.4c0.6,0.8,1.6,1.4,2.7,1.4s2.1-0.5,2.7-1.4
		c0.1-0.1,0.2-0.3,0.3-0.4c0.3-0.5,0.4-1,0.4-1.6c0-0.6-0.1-1.1-0.4-1.6L20.4,27z"/>
	<path d="M32.2,27l-3,6c-0.3,0.5-0.4,1-0.4,1.6c0,0.6,0.1,1.1,0.4,1.6l0.3,0.4c0.6,0.8,1.6,1.4,2.7,1.4c1.1,0,2.1-0.5,2.7-1.4
		c0.1-0.1,0.2-0.3,0.3-0.4c0.3-0.5,0.4-1,0.4-1.6c0-0.6-0.1-1.1-0.4-1.6L32.2,27z"/>
</g>
<g>
</g>
<g>
</g>
<g>
</g>
<g>
</g>
<g>
</g>
<g>
</g>
<g>
</g>
<g>
</g>
<g>
</g>
<g>
</g>
<g>
</g>
<g>
</g>
<g>
</g>
<g>
</g>
<g>
</g>
</svg>
