<?xml version="1.0" encoding="utf-8"?>
<!-- Generator: Adobe Illustrator 18.1.1, SVG Export Plug-In . SVG Version: 6.00 Build 0)  -->
<svg version="1.1" id="Layer_1" xmlns="http://www.w3.org/2000/svg" xmlns:xlink="http://www.w3.org/1999/xlink" x="0px" y="0px"
	 viewBox="0 0 42.6 40.1" enable-background="new 0 0 42.6 40.1" xml:space="preserve">
<g>
	<path d="M32.2,6.1c-0.5,0-1,0-1.4,0.1C29.2,2.6,25.5,0,21.3,0c-4.3,0-7.9,2.6-9.5,6.2c-0.5-0.1-0.9-0.1-1.4-0.1
		C4.6,6.1,0,10.8,0,16.5c0,5.7,4.6,10.3,10.4,10.4c4,0,17.8,0,21.8,0c5.7,0,10.4-4.6,10.4-10.4C42.6,10.8,37.9,6.1,32.2,6.1z
		 M32.2,22.8c-4,0-17.8,0-21.8,0C6.8,22.8,4,20,4,16.5c0-3.5,2.8-6.3,6.4-6.3c0.7,0,1.4,0.1,2.1,0.4l2.1,0.8L15.1,9
		c0.6-2.9,3.2-5,6.2-5c3.1,0,5.6,2.2,6.2,5l0.5,2.2l2.1-0.7c0.7-0.2,1.4-0.4,2.1-0.4v0c3.5,0,6.3,2.8,6.4,6.3
		C38.5,20,35.7,22.8,32.2,22.8z"/>
	<path d="M8.5,29.1l-3,6c-0.3,0.5-0.4,1-0.4,1.6c0,0.6,0.1,1.1,0.4,1.6l0.3,0.4c0.6,0.8,1.6,1.4,2.7,1.4s2.1-0.5,2.7-1.4
		c0.1-0.1,0.2-0.3,0.3-0.4c0.3-0.5,0.4-1,0.4-1.6c0-0.6-0.1-1.1-0.4-1.6L8.5,29.1z"/>
	<path d="M21.3,29.1l-3,6c-0.3,0.5-0.4,1-0.4,1.6c0,0.6,0.1,1.1,0.4,1.6l0.3,0.4c0.6,0.8,1.6,1.4,2.7,1.4c1.1,0,2.1-0.5,2.7-1.4
		c0.1-0.1,0.2-0.3,0.3-0.4c0.3-0.5,0.4-1,0.4-1.6c0-0.6-0.1-1.1-0.4-1.6L21.3,29.1z"/>
	<path d="M34.1,29.1l-3,6c-0.3,0.5-0.4,1-0.4,1.6c0,0.6,0.1,1.1,0.4,1.6l0.3,0.4c0.6,0.8,1.6,1.4,2.7,1.4c1.1,0,2.1-0.5,2.7-1.4
		c0.1-0.1,0.2-0.3,0.3-0.4c0.3-0.5,0.4-1,0.4-1.6c0-0.6-0.1-1.1-0.4-1.6L34.1,29.1z"/>
</g>
<g>
</g>
<g>
</g>
<g>
</g>
<g>
</g>
<g>
</g>
<g>
</g>
<g>
</g>
<g>
</g>
<g>
</g>
<g>
</g>
<g>
</g>
<g>
</g>
<g>
</g>
<g>
</g>
<g>
</g>
</svg>
