<?xml version="1.0" encoding="utf-8"?>
<!-- Generator: Adobe Illustrator 18.1.1, SVG Export Plug-In . SVG Version: 6.00 Build 0)  -->
<svg version="1.1" id="Layer_1" xmlns="http://www.w3.org/2000/svg" xmlns:xlink="http://www.w3.org/1999/xlink" x="0px" y="0px"
	 viewBox="0 0 31.1 36.1" enable-background="new 0 0 31.1 36.1" xml:space="preserve">
<path d="M6.1,20.4h3.1L4,36.1h2.3l5.2-15.8h3.5L9.8,36.1h2.3l5.2-15.8h3.5l-5.2,15.8h2.3L23,20.4h2c3.3,0,6.1-2.7,6.1-6.1
	c0-3.3-2.7-6.1-6.1-6.1c0,0-0.6,0-1.1,0c0-2.2-0.9-4.2-2.4-5.8c-1.6-1.6-3.7-2.5-6-2.5c-2.2,0-4.4,0.9-5.9,2.5C8,4,7.2,6.1,7.1,8.3
	c-0.5,0-1.1,0-1.1,0C2.7,8.3,0,11,0,14.3C0,17.7,2.7,20.4,6.1,20.4z M6.1,10.8h4L9.8,9.3C9.7,9,9.7,8.7,9.7,8.4c0-1.6,0.6-3,1.7-4.1
	c1.1-1.1,2.6-1.7,4.1-1.7c1.6,0,3,0.6,4.1,1.7c1.1,1.1,1.7,2.6,1.7,4.1c0,0.3,0,0.6-0.1,0.9l-0.2,1.5h4c1.9,0,3.5,1.6,3.5,3.5
	c0,1.9-1.6,3.5-3.5,3.5h-19c-1.9,0-3.5-1.6-3.5-3.5C2.6,12.4,4.1,10.8,6.1,10.8z"/>
<g>
</g>
<g>
</g>
<g>
</g>
<g>
</g>
<g>
</g>
<g>
</g>
<g>
</g>
<g>
</g>
<g>
</g>
<g>
</g>
<g>
</g>
<g>
</g>
<g>
</g>
<g>
</g>
<g>
</g>
</svg>
