<?xml version="1.0" encoding="utf-8"?>
<!-- Generator: Adobe Illustrator 18.1.1, SVG Export Plug-In . SVG Version: 6.00 Build 0)  -->
<svg version="1.1" id="Layer_1" xmlns="http://www.w3.org/2000/svg" xmlns:xlink="http://www.w3.org/1999/xlink" x="0px" y="0px"
	 viewBox="0 0 31.1 36.1" enable-background="new 0 0 31.1 36.1" xml:space="preserve">
<g>
	<polygon points="18.4,24.8 20.4,25.9 20.4,23.6 21.9,23.6 21.9,25.9 23.9,24.8 24.7,26.1 22.7,27.2 24.7,28.3 23.9,29.7 21.9,28.6 
		21.9,30.8 20.4,30.8 20.4,28.6 18.4,29.7 17.7,28.3 19.6,27.2 17.7,26.1 	"/>
	<path d="M12.9,19.9c0-0.3,0.1-0.7,0.2-1l0.1-0.2c0.1-0.1,2.1-3.6,2.3-3.8v0l0,0l0,0l0,0l0,0v0c0.1,0.2,2.2,3.7,2.3,3.8l0.1,0.2
		c0.1,0.3,0.2,0.6,0.2,1c0,1.4-1.1,2.5-2.5,2.5v0h0v0C14,22.5,12.9,21.3,12.9,19.9z"/>
	<path d="M10.2,32.4c0.1-0.1,2.1-3.6,2.3-3.8v0l0,0l0,0l0,0l0,0v0c0.1,0.2,2.2,3.7,2.3,3.8l0.1,0.2c0.1,0.3,0.2,0.6,0.2,1
		c0,1.4-1.1,2.5-2.5,2.5c0,0,0,0,0,0h0c0,0,0,0,0,0c-1.4,0-2.5-1.1-2.5-2.5c0-0.3,0.1-0.7,0.2-1L10.2,32.4z"/>
	<path d="M6.1,8.3c0,0,0.6,0,1.1,0C7.2,3.7,11,0,15.5,0c2.2,0,4.4,0.9,5.9,2.5c1.6,1.6,2.4,3.6,2.4,5.8c0.5,0,1.1,0,1.1,0
		c3.3,0,6.1,2.7,6.1,6.1c0,3.3-2.7,6.1-6.1,6.1h-2.7v-2.6H25c1.9,0,3.5-1.6,3.5-3.5c0-1.9-1.6-3.5-3.5-3.5h-4l0.2-1.5
		c0.1-0.3,0.1-0.6,0.1-0.9c0-1.6-0.6-3-1.7-4.1c-1.1-1.1-2.6-1.7-4.1-1.7c-3.2,0-5.9,2.6-5.9,5.9c0,0.3,0,0.6,0.1,0.9l0.2,1.5h-4
		c-1.9,0-3.5,1.6-3.5,3.5c0,1.9,1.6,3.5,3.5,3.5h2.8v2.6H6.1c-3.3,0-6.1-2.7-6.1-6.1C0,11,2.7,8.3,6.1,8.3z"/>
</g>
<g>
</g>
<g>
</g>
<g>
</g>
<g>
</g>
<g>
</g>
<g>
</g>
<g>
</g>
<g>
</g>
<g>
</g>
<g>
</g>
<g>
</g>
<g>
</g>
<g>
</g>
<g>
</g>
<g>
</g>
</svg>
