<?xml version="1.0" encoding="utf-8"?>
<!-- Generator: Adobe Illustrator 18.1.1, SVG Export Plug-In . SVG Version: 6.00 Build 0)  -->
<svg version="1.1" id="Layer_1" xmlns="http://www.w3.org/2000/svg" xmlns:xlink="http://www.w3.org/1999/xlink" x="0px" y="0px"
	 viewBox="0 0 35.2 37.7" enable-background="new 0 0 35.2 37.7" xml:space="preserve">
<g>
	<polygon points="12.7,26.4 10.7,27.5 10.7,25.2 9.2,25.2 9.2,27.5 7.2,26.4 6.4,27.7 8.4,28.8 6.4,30 7.2,31.3 9.2,30.2 9.2,32.4 
		10.7,32.4 10.7,30.2 12.7,31.3 13.4,30 11.5,28.8 13.4,27.7 	"/>
	<path d="M20.9,34c-0.1-0.1-2.1-3.6-2.3-3.8v0l0,0l0,0l0,0l0,0v0c-0.1,0.2-2.2,3.7-2.3,3.8l-0.1,0.2c-0.1,0.3-0.2,0.6-0.2,1
		c0,1.4,1.1,2.5,2.5,2.5c0,0,0,0,0,0h0c0,0,0,0,0,0c1.4,0,2.5-1.1,2.5-2.5c0-0.3-0.1-0.7-0.2-1L20.9,34z"/>
	<g>
		<path d="M17.6,15.5c0,3.1,2.5,5.6,5.6,5.6c3.1,0,5.6-2.5,5.6-5.6c0-3.1-2.5-5.6-5.6-5.6C20.1,9.9,17.6,12.4,17.6,15.5z M19.7,15.5
			c0-1.9,1.5-3.4,3.4-3.4c1.9,0,3.4,1.5,3.4,3.4c0,1.9-1.5,3.4-3.4,3.4C21.3,18.9,19.7,17.4,19.7,15.5z"/>
		<rect x="22.1" y="3.5" width="2.1" height="4.8"/>
		<rect x="22.1" y="22.8" width="2.1" height="4.8"/>
		<rect x="28.9" y="6.3" transform="matrix(-0.7071 -0.7071 0.7071 -0.7071 45.0979 36.0171)" width="2.1" height="4.8"/>
		<rect x="15.3" y="20" transform="matrix(-0.7073 -0.7069 0.7069 -0.7073 12.103 49.6906)" width="2.1" height="4.8"/>
		<rect x="30.5" y="14.4" width="4.8" height="2.1"/>
		<rect x="11.1" y="14.4" width="4.8" height="2.1"/>
		<rect x="27.6" y="21.3" transform="matrix(-0.7072 -0.707 0.707 -0.7072 35.4362 59.3548)" width="4.8" height="2.1"/>
		<rect x="14" y="7.6" transform="matrix(-0.707 -0.7072 0.7072 -0.707 21.7584 26.3515)" width="4.8" height="2.1"/>
	</g>
	<g>
		<path d="M15.5,0c-2.2,0-4.4,0.9-6,2.5C8,4,7.2,6.1,7.1,8.3c-0.5,0-1.1,0-1.1,0C2.7,8.3,0,11,0,14.3s2.7,6.1,6.1,6.1h2.7v-2.6H6.1
			c-1.9,0-3.5-1.6-3.5-3.5c0-1.9,1.6-3.5,3.5-3.5h4L9.8,9.3C9.7,9,9.7,8.7,9.7,8.4c0-1.6,0.6-3,1.7-4.1c1.1-1.1,2.6-1.7,4.1-1.7
			C16.8,2.6,18,3,19,3.7l1.8-1.8C19.4,0.7,17.5,0,15.5,0z"/>
	</g>
</g>
<g>
</g>
<g>
</g>
<g>
</g>
<g>
</g>
<g>
</g>
<g>
</g>
<g>
</g>
<g>
</g>
<g>
</g>
<g>
</g>
<g>
</g>
<g>
</g>
<g>
</g>
<g>
</g>
<g>
</g>
</svg>
