<?xml version="1.0" encoding="utf-8"?>
<!-- Generator: Adobe Illustrator 18.1.1, SVG Export Plug-In . SVG Version: 6.00 Build 0)  -->
<svg version="1.1" id="Layer_1" xmlns="http://www.w3.org/2000/svg" xmlns:xlink="http://www.w3.org/1999/xlink" x="0px" y="0px"
	 viewBox="0 0 54.8 60.3" enable-background="new 0 0 54.8 60.3" xml:space="preserve">
<g>
	<path d="M52.7,33.2c-0.8-0.9-1.8-1.7-3-2.2c-0.1-2.9-1.4-5.6-3.3-7.5c-0.1-0.1-0.3-0.3-0.4-0.4c0.4-1.2,0.6-2.5,0.6-3.8
		c0-3.2-1.3-6.1-3.4-8.3c-2.1-2.1-5-3.4-8.2-3.4c-2.5,0-4.9,0.8-6.8,2.2c-1.5,1.1-2.7,2.5-3.6,4.2c-0.1,0-0.3,0-0.4,0
		c-3.8,0-7.4,1.3-10.2,3.5c-2.4,1.9-4.2,4.4-5.3,7.3c-2.2,0.6-4.1,1.7-5.6,3.3c-1.8,2-3,4.7-3,7.7c0,3.1,1.3,6,3.3,8
		c2,2.1,4.9,3.3,8,3.3h35c2.3,0,4.4-0.9,6-2.5c1.5-1.5,2.5-3.6,2.5-6C54.8,36.7,54,34.7,52.7,33.2z M31,14c1.1-0.8,2.4-1.3,3.9-1.3
		c1.8,0,3.5,0.7,4.7,2c1.2,1.2,2,2.9,2,4.7c0,0.4-0.1,0.9-0.1,1.3c-1-0.3-2-0.4-3.1-0.4c-0.4,0-0.9,0-1.3,0.1
		c-1.9-2.3-4.4-4.2-7.2-5.2C30.2,14.7,30.6,14.3,31,14z M48.8,41.3c-0.6,0.6-1.5,1-2.4,1h-35c-1.8,0-3.3-0.7-4.5-1.9
		C5.7,39.3,5,37.7,5,35.9c0-1.7,0.6-3.1,1.7-4.3c1-1.1,2.5-1.9,4.1-2l1.7-0.2l0.4-1.7c0.6-2.5,2.1-4.6,4.1-6.2
		c2-1.5,4.4-2.4,7.1-2.4c4.1,0,7.7,2.1,9.7,5.3l1,1.5l1.8-0.5c0.5-0.2,1.1-0.2,1.7-0.2c1.8,0,3.3,0.7,4.5,1.9
		c1.2,1.2,1.9,2.7,1.9,4.5c0,0.3,0,0.6-0.1,1l-0.4,2.5l2.5,0.3c0.8,0.1,1.6,0.5,2.1,1.1c0.5,0.6,0.9,1.4,0.9,2.3
		C49.8,39.8,49.4,40.6,48.8,41.3z"/>
	<rect x="32.4" y="0" width="5" height="5"/>
	<rect x="49.3" y="16.9" width="5" height="5"/>
	<rect x="44.4" y="4.9" transform="matrix(0.707 0.7072 -0.7072 0.707 19.0136 -30.9493)" width="5" height="5.1"/>
	<rect x="20.4" y="5" transform="matrix(0.707 0.7072 -0.7072 0.707 12.014 -14.0544)" width="5" height="5"/>
	<path d="M16.1,54.6l-2.9-4.4l-2.9,4.4h0c-0.4,0.6-0.7,1.3-0.7,2.1c0,2,1.6,3.6,3.6,3.6c2,0,3.6-1.6,3.6-3.6
		C16.8,55.9,16.6,55.1,16.1,54.6L16.1,54.6z"/>
	<path d="M44.5,54.6l-2.9-4.4l-2.9,4.4h0c-0.4,0.6-0.7,1.3-0.7,2.1c0,2,1.6,3.6,3.6,3.6c2,0,3.6-1.6,3.6-3.6
		C45.2,55.9,44.9,55.1,44.5,54.6L44.5,54.6z"/>
	<polygon points="31.3,51.8 28.5,53.4 28.5,50.1 26.4,50.1 26.4,53.4 23.6,51.8 22.5,53.6 25.3,55.2 22.5,56.8 23.6,58.7 26.4,57 
		26.4,60.3 28.5,60.3 28.5,57 31.3,58.7 32.4,56.8 29.5,55.2 32.4,53.6 	"/>
</g>
<g>
</g>
<g>
</g>
<g>
</g>
<g>
</g>
<g>
</g>
<g>
</g>
<g>
</g>
<g>
</g>
<g>
</g>
<g>
</g>
<g>
</g>
<g>
</g>
<g>
</g>
<g>
</g>
<g>
</g>
</svg>
