<?xml version="1.0" encoding="utf-8"?>
<!-- Generator: Adobe Illustrator 18.1.1, SVG Export Plug-In . SVG Version: 6.00 Build 0)  -->
<svg version="1.1" id="Layer_1" xmlns="http://www.w3.org/2000/svg" xmlns:xlink="http://www.w3.org/1999/xlink" x="0px" y="0px"
	 viewBox="0 0 54.8 60.1" enable-background="new 0 0 54.8 60.1" xml:space="preserve">
<g>
	<polygon points="16.9,51.6 14,53.2 14,50 11.9,50 11.9,53.2 9.1,51.6 8.1,53.4 10.9,55 8.1,56.7 9.1,58.5 11.9,56.9 11.9,60.1 
		14,60.1 14,56.9 16.9,58.5 17.9,56.7 15.1,55 17.9,53.4 	"/>
	<polygon points="31.4,51.6 28.6,53.2 28.6,50 26.5,50 26.5,53.2 23.7,51.6 22.6,53.4 25.5,55 22.6,56.7 23.7,58.5 26.5,56.9 
		26.5,60.1 28.6,60.1 28.6,56.9 31.4,58.5 32.5,56.7 29.7,55 32.5,53.4 	"/>
	<polygon points="46,51.6 43.2,53.2 43.2,50 41.1,50 41.1,53.2 38.3,51.6 37.2,53.4 40.1,55 37.2,56.7 38.3,58.5 41.1,56.9 
		41.1,60.1 43.2,60.1 43.2,56.9 46,58.5 47.1,56.7 44.3,55 47.1,53.4 	"/>
	<rect x="32.4" y="0" width="5" height="5"/>
	<rect x="32.4" y="33.8" width="5" height="5.1"/>
	<rect x="49.3" y="16.9" width="5.1" height="5"/>
	<rect x="44.4" y="4.9" transform="matrix(0.7071 0.7071 -0.7071 0.7071 19.0084 -30.945)" width="5" height="5"/>
	<rect x="20.5" y="28.8" transform="matrix(-0.707 -0.7072 0.7072 -0.707 17.027 69.7787)" width="5" height="5.1"/>
	<rect x="20.4" y="5" transform="matrix(0.7073 0.7069 -0.7069 0.7073 12.0043 -14.0492)" width="5.1" height="5"/>
	<path d="M52.7,33.2c-0.8-0.9-1.8-1.7-3-2.2c-0.2-3.1-1.6-5.9-3.7-7.9c0.4-1.2,0.6-2.5,0.6-3.8c0-3.2-1.3-6.1-3.4-8.3
		c-2.1-2.1-5-3.4-8.3-3.4c-3.2,0-6.1,1.3-8.3,3.4c-0.9,0.9-1.6,1.9-2.1,3c-0.1,0-0.3,0-0.4,0c-3.8,0-7.4,1.3-10.2,3.5
		c-2.4,1.9-4.2,4.4-5.3,7.3c-2.2,0.6-4.1,1.7-5.6,3.3c-1.8,2-3,4.7-3,7.7c0,3.1,1.3,6,3.3,8c2,2.1,4.9,3.3,8,3.3h35
		c2.3,0,4.4-0.9,6-2.5c1.5-1.5,2.5-3.6,2.5-6C54.8,36.7,54,34.7,52.7,33.2z M30.2,14.7c1.2-1.2,2.9-2,4.7-2c1.8,0,3.5,0.7,4.7,2
		c1.2,1.2,2,2.9,2,4.7c0,1.8-0.7,3.5-2,4.7c-1.2,1.2-2.9,2-4.7,2c-1.8,0-3.5-0.7-4.7-2c-1.2-1.2-2-2.9-2-4.7
		C28.2,17.6,29,15.9,30.2,14.7z M48.8,41.3c-0.6,0.6-1.5,1-2.4,1h-35c-1.8,0-3.3-0.7-4.5-1.9C5.7,39.3,5,37.7,5,35.9
		c0-1.7,0.6-3.1,1.7-4.3c1-1.1,2.5-1.9,4.1-2l1.7-0.2l0.4-1.7c0.7-2.5,2.1-4.6,4.1-6.2c1.8-1.4,3.9-2.2,6.3-2.4c0,0.1,0,0.2,0,0.2
		c0,3.2,1.3,6.1,3.4,8.3c2.1,2.1,5,3.4,8.3,3.4c3.3,0,6.2-1.3,8.3-3.5c0.9,1.1,1.5,2.5,1.5,4c0,0.3,0,0.6-0.1,1l-0.4,2.5l2.5,0.3
		c0.8,0.1,1.6,0.5,2.1,1.1c0.5,0.6,0.9,1.4,0.9,2.3C49.8,39.8,49.4,40.6,48.8,41.3z"/>
</g>
<g>
</g>
<g>
</g>
<g>
</g>
<g>
</g>
<g>
</g>
<g>
</g>
<g>
</g>
<g>
</g>
<g>
</g>
<g>
</g>
<g>
</g>
<g>
</g>
<g>
</g>
<g>
</g>
<g>
</g>
</svg>
