<?xml version="1.0" encoding="utf-8"?>
<!-- Generator: Adobe Illustrator 18.1.1, SVG Export Plug-In . SVG Version: 6.00 Build 0)  -->
<svg version="1.1" id="Layer_1" xmlns="http://www.w3.org/2000/svg" xmlns:xlink="http://www.w3.org/1999/xlink" x="0px" y="0px"
	 viewBox="0 0 56.4 40.4" enable-background="new 0 0 56.4 40.4" xml:space="preserve">
<g>
	<polygon points="13.6,9.1 16.6,7.4 16.6,10.7 18.9,10.7 18.9,7.4 21.8,9.1 22.9,7.1 20,5.4 22.9,3.7 21.8,1.7 18.9,3.4 18.9,0 
		16.6,0 16.6,3.4 13.6,1.7 12.5,3.7 15.4,5.4 12.5,7.1 	"/>
	<polygon points="30.4,9.1 33.3,7.4 33.3,10.7 35.6,10.7 35.6,7.4 38.5,9.1 39.7,7.1 36.7,5.4 39.7,3.7 38.5,1.7 35.6,3.4 35.6,0 
		33.3,0 33.3,3.4 30.4,1.7 29.2,3.7 32.1,5.4 29.2,7.1 	"/>
	<polygon points="56.4,3.7 55.2,1.7 52.3,3.4 52.3,0 50,0 50,3.4 47.1,1.7 45.9,3.7 48.9,5.4 45.9,7.1 47.1,9.1 50,7.4 50,10.7 
		52.3,10.7 52.3,7.4 55.2,9.1 56.4,7.1 53.5,5.4 	"/>
	<polygon points="15.5,16.5 12.6,18.2 12.6,14.8 10.3,14.8 10.3,18.2 7.4,16.5 6.2,18.5 9.2,20.2 6.2,21.9 7.4,23.9 10.3,22.2 
		10.3,25.6 12.6,25.6 12.6,22.2 15.5,23.9 16.7,21.9 13.8,20.2 16.7,18.5 	"/>
	<polygon points="32.3,16.5 29.3,18.2 29.3,14.8 27,14.8 27,18.2 24.1,16.5 23,18.5 25.9,20.2 23,21.9 24.1,23.9 27,22.2 27,25.5 
		29.3,25.5 29.3,22.2 32.3,23.9 33.4,21.9 30.5,20.2 33.4,18.5 	"/>
	<polygon points="49,16.5 46.1,18.2 46.1,14.8 43.8,14.8 43.8,18.2 40.9,16.5 39.7,18.5 42.6,20.2 39.7,21.9 40.9,23.9 43.8,22.2 
		43.8,25.6 46.1,25.6 46.1,22.2 49,23.9 50.1,21.9 47.2,20.2 50.1,18.5 	"/>
	<polygon points="9.3,31.3 6.4,33 6.4,29.6 4.1,29.6 4.1,33 1.2,31.3 0,33.3 2.9,35 0,36.7 1.2,38.7 4.1,37 4.1,40.4 6.4,40.4 
		6.4,37 9.3,38.7 10.5,36.7 7.5,35 10.5,33.3 	"/>
	<polygon points="26,31.3 23.1,33 23.1,29.6 20.8,29.6 20.8,33 17.9,31.3 16.7,33.3 19.6,35 16.7,36.7 17.9,38.7 20.8,37 20.8,40.4 
		23.1,40.4 23.1,37 26,38.7 27.2,36.7 24.3,35 27.2,33.3 	"/>
	<polygon points="42.8,31.3 39.8,33 39.8,29.6 37.5,29.6 37.5,33 34.6,31.3 33.5,33.3 36.4,35 33.5,36.7 34.6,38.7 37.5,37 
		37.5,40.4 39.8,40.4 39.8,37 42.8,38.7 43.9,36.7 41,35 43.9,33.3 	"/>
</g>
<g>
</g>
<g>
</g>
<g>
</g>
<g>
</g>
<g>
</g>
<g>
</g>
<g>
</g>
<g>
</g>
<g>
</g>
<g>
</g>
<g>
</g>
<g>
</g>
<g>
</g>
<g>
</g>
<g>
</g>
</svg>
