<?xml version="1.0" encoding="utf-8"?>
<!-- Generator: Adobe Illustrator 18.1.1, SVG Export Plug-In . SVG Version: 6.00 Build 0)  -->
<svg version="1.1" id="Layer_1" xmlns="http://www.w3.org/2000/svg" xmlns:xlink="http://www.w3.org/1999/xlink" x="0px" y="0px"
	 viewBox="0 0 39 41.3" enable-background="new 0 0 39 41.3" xml:space="preserve">
<polygon points="37.8,21 29,23.8 23.5,20.6 29,17.5 37.8,20.3 39,16.5 33.7,14.8 38.4,12 36.4,8.6 31.7,11.3 32.9,5.8 29,5 27,14 
	21.5,17.2 21.5,10.8 28.4,4.6 25.7,1.6 21.5,5.4 21.5,0 17.5,0 17.5,5.4 13.4,1.6 10.7,4.6 17.5,10.8 17.5,17.2 12,14 10.1,5 
	6.1,5.8 7.3,11.3 2.6,8.6 0.6,12 5.3,14.8 0,16.5 1.2,20.3 10,17.5 15.5,20.6 10,23.8 1.2,21 0,24.8 5.3,26.5 0.6,29.2 2.6,32.7 
	7.3,30 6.1,35.4 10.1,36.3 12,27.3 17.5,24.1 17.5,30.4 10.7,36.7 13.4,39.6 17.5,35.9 17.5,41.3 21.5,41.3 21.5,35.9 25.7,39.6 
	28.4,36.7 28.4,36.7 21.5,30.4 21.5,24.1 27,27.3 29,36.3 32.9,35.4 31.7,30 36.4,32.7 38.4,29.2 33.7,26.5 39,24.8 "/>
<g>
</g>
<g>
</g>
<g>
</g>
<g>
</g>
<g>
</g>
<g>
</g>
<g>
</g>
<g>
</g>
<g>
</g>
<g>
</g>
<g>
</g>
<g>
</g>
<g>
</g>
<g>
</g>
<g>
</g>
</svg>
