<?xml version="1.0" encoding="utf-8"?>
<!-- Generator: Adobe Illustrator 18.1.1, SVG Export Plug-In . SVG Version: 6.00 Build 0)  -->
<svg version="1.1" id="Layer_1" xmlns="http://www.w3.org/2000/svg" xmlns:xlink="http://www.w3.org/1999/xlink" x="0px" y="0px"
	 viewBox="0 0 35.2 37.5" enable-background="new 0 0 35.2 37.5" xml:space="preserve">
<g>
	<polygon points="13.1,25.9 11.2,27 11.2,24.8 9.6,24.8 9.6,27 7.7,25.9 6.9,27.2 8.9,28.3 6.9,29.5 7.7,30.8 9.6,29.7 9.6,31.9 
		11.2,31.9 11.2,29.7 13.1,30.8 13.9,29.5 11.9,28.3 13.9,27.2 	"/>
	<polygon points="21.4,31.5 19.4,32.6 19.4,30.4 17.9,30.4 17.9,32.6 16,31.5 15.2,32.8 17.1,33.9 15.2,35.1 16,36.4 17.9,35.3 
		17.9,37.5 19.4,37.5 19.4,35.3 21.4,36.4 22.1,35.1 20.2,33.9 22.1,32.8 	"/>
	<path d="M17.6,15.5c0,3.1,2.5,5.6,5.6,5.6c3.1,0,5.6-2.5,5.6-5.6c0-3.1-2.5-5.6-5.6-5.6C20.1,10,17.6,12.5,17.6,15.5z M19.7,15.5
		c0-1.9,1.5-3.4,3.4-3.4c1.9,0,3.4,1.5,3.4,3.4c0,1.9-1.5,3.4-3.4,3.4C21.3,19,19.7,17.4,19.7,15.5z"/>
	<rect x="22.1" y="3.5" width="2.1" height="4.8"/>
	<rect x="22.1" y="22.8" width="2.1" height="4.8"/>
	<rect x="28.9" y="6.3" transform="matrix(-0.7071 -0.7071 0.7071 -0.7071 45.0681 36.0556)" width="2.1" height="4.8"/>
	<rect x="15.3" y="20" transform="matrix(-0.7071 -0.7071 0.7071 -0.7071 12.0628 49.7262)" width="2.1" height="4.8"/>
	<rect x="30.5" y="14.5" width="4.8" height="2.1"/>
	<rect x="11.1" y="14.5" width="4.8" height="2.1"/>
	<rect x="27.6" y="21.3" transform="matrix(-0.7071 -0.7071 0.7071 -0.7071 35.4013 59.3933)" width="4.8" height="2.1"/>
	<rect x="14" y="7.6" transform="matrix(-0.707 -0.7072 0.7072 -0.707 21.727 26.3893)" width="4.8" height="2.1"/>
	<path d="M15.5,0C11,0,7.2,3.7,7.2,8.3c-0.5,0-1.1,0-1.1,0C2.7,8.3,0,11,0,14.3c0,3.3,2.7,6.1,6.1,6.1h2.7v-2.6H6.1
		c-1.9,0-3.5-1.6-3.5-3.5c0-1.9,1.6-3.5,3.5-3.5h4L9.8,9.3C9.7,9,9.7,8.7,9.7,8.4c0-3.2,2.6-5.9,5.9-5.9c1.2,0,2.4,0.4,3.4,1.1
		l1.8-1.8C19.3,0.7,17.5,0,15.5,0z"/>
	<polygon points="22.6,11.7 22.7,11.6 22.5,11.6 	"/>
</g>
<g>
</g>
<g>
</g>
<g>
</g>
<g>
</g>
<g>
</g>
<g>
</g>
<g>
</g>
<g>
</g>
<g>
</g>
<g>
</g>
<g>
</g>
<g>
</g>
<g>
</g>
<g>
</g>
<g>
</g>
</svg>
