<?xml version="1.0" encoding="utf-8"?>
<!-- Generator: Adobe Illustrator 18.1.1, SVG Export Plug-In . SVG Version: 6.00 Build 0)  -->
<svg version="1.1" id="Layer_1" xmlns="http://www.w3.org/2000/svg" xmlns:xlink="http://www.w3.org/1999/xlink" x="0px" y="0px"
	 viewBox="0 0 31.1 35.9" enable-background="new 0 0 31.1 35.9" xml:space="preserve">
<g>
	<polygon points="18,24.3 19.9,25.4 19.9,23.2 21.5,23.2 21.5,25.4 23.4,24.3 24.2,25.6 22.2,26.7 24.2,27.9 23.4,29.2 21.5,28.1 
		21.5,30.3 19.9,30.3 19.9,28.1 18,29.2 17.2,27.9 19.2,26.7 17.2,25.6 	"/>
	<polygon points="16,21.8 14.5,21.8 14.5,19.6 12.6,20.7 11.8,19.4 13.7,18.3 11.8,17.1 12.6,15.8 14.5,16.9 14.5,14.7 16,14.7 
		16,16.9 18,15.8 18.7,17.1 16.8,18.3 18.7,19.4 18,20.7 16,19.6 	"/>
	<polygon points="9.7,29.9 11.7,31 11.7,28.8 13.2,28.8 13.2,31 15.1,29.9 15.9,31.2 14,32.3 15.9,33.5 15.1,34.8 13.2,33.7 
		13.2,35.9 11.7,35.9 11.7,33.7 9.7,34.8 9,33.5 10.9,32.3 9,31.2 	"/>
	<path d="M6.1,8.3c0,0,0.6,0,1.1,0C7.2,3.7,11,0,15.5,0c4.6,0,8.3,3.7,8.4,8.3c0.5,0,1.1,0,1.1,0c3.3,0,6.1,2.7,6.1,6.1
		c0,3.3-2.7,6.1-6.1,6.1h-2.7v-2.6H25c1.9,0,3.5-1.6,3.5-3.5c0-1.9-1.6-3.5-3.5-3.5h-4l0.2-1.5c0.1-0.3,0.1-0.6,0.1-0.9
		c0-3.2-2.6-5.9-5.9-5.9c-3.2,0-5.9,2.6-5.9,5.9c0,0.3,0,0.6,0.1,0.9l0.2,1.5h-4c-1.9,0-3.5,1.6-3.5,3.5c0,1.9,1.6,3.5,3.5,3.5h2.8
		v2.6H6.1c-3.3,0-6.1-2.7-6.1-6.1C0,11,2.7,8.3,6.1,8.3z"/>
</g>
<g>
</g>
<g>
</g>
<g>
</g>
<g>
</g>
<g>
</g>
<g>
</g>
<g>
</g>
<g>
</g>
<g>
</g>
<g>
</g>
<g>
</g>
<g>
</g>
<g>
</g>
<g>
</g>
<g>
</g>
</svg>
