<?xml version="1.0" encoding="utf-8"?>
<!-- Generator: Adobe Illustrator 18.1.1, SVG Export Plug-In . SVG Version: 6.00 Build 0)  -->
<svg version="1.1" id="Layer_1" xmlns="http://www.w3.org/2000/svg" xmlns:xlink="http://www.w3.org/1999/xlink" x="0px" y="0px"
	 viewBox="0 0 56.5 57.9" enable-background="new 0 0 56.5 57.9" xml:space="preserve">
<g>
	<path d="M54.4,19.7c-0.9-1-1.9-1.7-3.1-2.2c-0.1-3-1.4-5.8-3.4-7.7c-2.1-2.1-5-3.4-8.2-3.4c-0.5,0-0.9,0-1.4,0.1
		C35.1,2.5,30.3,0,24.9,0c-4,0-7.6,1.4-10.5,3.6c-2.5,1.9-4.4,4.5-5.5,7.5c-2.3,0.6-4.3,1.8-5.8,3.4C1.2,16.7,0,19.4,0,22.5
		c0,3.2,1.3,6.1,3.4,8.2c2.1,2.1,5,3.4,8.2,3.4h36.2c2.4,0,4.6-1,6.1-2.5c1.6-1.6,2.5-3.7,2.5-6.1C56.5,23.3,55.7,21.3,54.4,19.7z
		 M50.5,28.1c-0.7,0.7-1.6,1.1-2.6,1.1H11.7c-1.9,0-3.5-0.7-4.7-2c-1.2-1.2-2-2.9-2-4.7c0-1.7,0.7-3.3,1.7-4.5
		c1.1-1.2,2.6-2,4.3-2.1l1.7-0.2l0.4-1.7c0.7-2.6,2.2-4.8,4.2-6.4C19.5,6,22.1,5,24.9,5c4.3,0,8,2.2,10.2,5.5l1,1.6l1.8-0.5
		c0.6-0.2,1.2-0.2,1.8-0.2c1.8,0,3.5,0.7,4.7,2c1.2,1.2,2,2.9,2,4.7c0,0.3,0,0.7-0.1,1l-0.4,2.5l2.5,0.3c0.9,0.1,1.7,0.5,2.3,1.2
		c0.6,0.7,0.9,1.5,0.9,2.4C51.5,26.5,51.1,27.4,50.5,28.1z"/>
	<polygon points="18.6,43.9 15.8,42.3 18.6,40.7 17.6,38.8 14.7,40.5 14.7,37.2 12.6,37.2 12.6,40.5 9.8,38.8 8.8,40.7 11.6,42.3 
		8.8,43.9 9.8,45.7 12.6,44.1 12.6,47.4 14.7,47.4 14.7,44.1 17.6,45.7 	"/>
	<polygon points="33.2,43.9 30.4,42.3 33.2,40.7 32.1,38.8 29.3,40.5 29.3,37.2 27.2,37.2 27.2,40.5 24.4,38.8 23.3,40.7 26.2,42.3 
		23.3,43.9 24.4,45.7 27.2,44.1 27.2,47.4 29.3,47.4 29.3,44.1 32.1,45.7 	"/>
	<polygon points="46.7,38.8 43.9,40.5 43.9,37.2 41.8,37.2 41.8,40.5 39,38.8 37.9,40.7 40.8,42.3 37.9,43.9 39,45.7 41.8,44.1 
		41.8,47.4 43.9,47.4 43.9,44.1 46.7,45.7 47.8,43.9 45,42.3 47.8,40.7 	"/>
	<polygon points="24.8,49.4 22,51 22,47.7 19.9,47.7 19.9,51 17.1,49.4 16,51.2 18.8,52.8 16,54.4 17.1,56.3 19.9,54.6 19.9,57.9 
		22,57.9 22,54.6 24.8,56.3 25.9,54.4 23,52.8 25.9,51.2 	"/>
	<polygon points="39.4,49.4 36.6,51 36.6,47.7 34.5,47.7 34.5,51 31.6,49.4 30.6,51.2 33.4,52.8 30.6,54.4 31.6,56.3 34.5,54.6 
		34.5,57.9 36.6,57.9 36.6,54.6 39.4,56.3 40.4,54.4 37.6,52.8 40.4,51.2 	"/>
</g>
<g>
</g>
<g>
</g>
<g>
</g>
<g>
</g>
<g>
</g>
<g>
</g>
<g>
</g>
<g>
</g>
<g>
</g>
<g>
</g>
<g>
</g>
<g>
</g>
<g>
</g>
<g>
</g>
<g>
</g>
</svg>
