<?xml version="1.0" encoding="utf-8"?>
<!-- Generator: Adobe Illustrator 18.1.1, SVG Export Plug-In . SVG Version: 6.00 Build 0)  -->
<svg version="1.1" id="Layer_1" xmlns="http://www.w3.org/2000/svg" xmlns:xlink="http://www.w3.org/1999/xlink" x="0px" y="0px"
	 viewBox="0 0 55.1 55.1" enable-background="new 0 0 55.1 55.1" xml:space="preserve">
<g>
	<path d="M27.6,12C19,12,12,19,12,27.6c0,8.6,6.9,15.5,15.5,15.5c8.6,0,15.5-6.9,15.5-15.5C43.1,19,36.1,12,27.6,12z M35,35
		c-1.9,1.9-4.5,3.1-7.4,3.1c-2.9,0-5.5-1.2-7.4-3.1c-1.9-1.9-3.1-4.5-3.1-7.4c0-2.9,1.2-5.5,3.1-7.4c1.9-1.9,4.5-3.1,7.4-3.1
		c2.9,0,5.5,1.2,7.4,3.1c1.9,1.9,3.1,4.5,3.1,7.4C38.1,30.5,36.9,33.1,35,35z"/>
	<rect x="25.1" y="0" width="5" height="7.2"/>
	<rect x="25.1" y="47.9" width="5" height="7.2"/>
	<rect x="0" y="25.1" width="7.2" height="5"/>
	<rect x="47.9" y="25.1" width="7.2" height="5"/>
	<rect x="42" y="7" transform="matrix(0.7071 0.7071 -0.7071 0.7071 20.5354 -28.3678)" width="5" height="7.2"/>
	<rect x="8.1" y="40.9" transform="matrix(-0.7071 -0.7071 0.7071 -0.7071 -13.371 83.482)" width="5" height="7.2"/>
	<rect x="7" y="8.1" transform="matrix(0.7072 0.707 -0.707 0.7072 10.6029 -4.3925)" width="7.2" height="5"/>
	<rect x="40.9" y="42" transform="matrix(-0.7072 -0.707 0.707 -0.7072 44.5172 107.4577)" width="7.2" height="5"/>
</g>
<g>
</g>
<g>
</g>
<g>
</g>
<g>
</g>
<g>
</g>
<g>
</g>
<g>
</g>
<g>
</g>
<g>
</g>
<g>
</g>
<g>
</g>
<g>
</g>
<g>
</g>
<g>
</g>
<g>
</g>
</svg>
