<?xml version="1.0" encoding="utf-8"?>
<!-- Generator: Adobe Illustrator 18.1.1, SVG Export Plug-In . SVG Version: 6.00 Build 0)  -->
<svg version="1.1" id="Layer_1" xmlns="http://www.w3.org/2000/svg" xmlns:xlink="http://www.w3.org/1999/xlink" x="0px" y="0px"
	 viewBox="0 0 51 51" enable-background="new 0 0 51 51" xml:space="preserve">
<g>
	<path d="M28.8,7.2L25.5,0l-3.3,7.2c1.1-0.2,2.2-0.3,3.3-0.3S27.7,7,28.8,7.2z"/>
	<circle cx="25.5" cy="25.5" r="16.2"/>
	<path d="M40.8,14.9l2.8-7.4l-7.4,2.8C37.9,11.5,39.5,13.1,40.8,14.9z"/>
	<path d="M51,25.5l-7.2-3.3c0.2,1.1,0.3,2.2,0.3,3.3s-0.1,2.2-0.3,3.3L51,25.5z"/>
	<path d="M36.1,40.8l7.4,2.8l-2.8-7.4C39.5,37.9,37.9,39.5,36.1,40.8z"/>
	<path d="M22.2,43.8l3.3,7.2l3.3-7.2c-1.1,0.2-2.2,0.3-3.3,0.3S23.3,44,22.2,43.8z"/>
	<path d="M10.2,36.1l-2.8,7.4l7.4-2.8C13.1,39.5,11.5,37.9,10.2,36.1z"/>
	<path d="M7.2,22.2L0,25.5l7.2,3.3c-0.2-1.1-0.3-2.2-0.3-3.3S7,23.3,7.2,22.2z"/>
	<path d="M14.9,10.2L7.5,7.5l2.8,7.4C11.5,13.1,13.1,11.5,14.9,10.2z"/>
</g>
<g>
</g>
<g>
</g>
<g>
</g>
<g>
</g>
<g>
</g>
<g>
</g>
<g>
</g>
<g>
</g>
<g>
</g>
<g>
</g>
<g>
</g>
<g>
</g>
<g>
</g>
<g>
</g>
<g>
</g>
</svg>
