<?xml version="1.0" encoding="utf-8"?>
<!-- Generator: Adobe Illustrator 18.1.1, SVG Export Plug-In . SVG Version: 6.00 Build 0)  -->
<svg version="1.1" id="Layer_1" xmlns="http://www.w3.org/2000/svg" xmlns:xlink="http://www.w3.org/1999/xlink" x="0px" y="0px"
	 viewBox="0 0 36 36" enable-background="new 0 0 36 36" xml:space="preserve">
<g>
	<g>
		<path d="M10,18c0,2.1,0.8,4.2,2.4,5.7c1.5,1.5,3.5,2.4,5.7,2.4s4.2-0.8,5.7-2.4c1.5-1.5,2.4-3.5,2.4-5.7c0-4.4-3.6-8-8-8
			S10,13.6,10,18z M14.2,21.9c-1-1-1.6-2.4-1.6-3.8c0-3,2.4-5.4,5.4-5.4s5.4,2.4,5.4,5.4c0,1.4-0.6,2.8-1.6,3.8
			c-1,1-2.4,1.6-3.8,1.6S15.2,22.9,14.2,21.9z"/>
	</g>
	<g>
		<g>
			<rect x="16.7" y="0" width="2.6" height="7.1"/>
		</g>
		<g>
			<rect x="16.7" y="28.9" width="2.6" height="7.1"/>
		</g>
	</g>
	<g>
		<g>
			<rect x="26.9" y="4.2" transform="matrix(-0.707 -0.7072 0.7072 -0.707 42.6943 33.2729)" width="2.6" height="7.1"/>
		</g>
		<g>
			<rect x="6.5" y="24.7" transform="matrix(-0.7071 -0.7071 0.7071 -0.7071 -6.663 53.7185)" width="2.6" height="7.1"/>
		</g>
	</g>
	<g>
		<g>
			<rect x="28.9" y="16.7" width="7.1" height="2.6"/>
		</g>
		<g>
			<rect x="0" y="16.7" width="7.1" height="2.6"/>
		</g>
	</g>
	<g>
		<g>
			<rect x="24.7" y="26.9" transform="matrix(-0.7071 -0.7071 0.7071 -0.7071 28.2377 68.1757)" width="7.1" height="2.6"/>
		</g>
		<g>
			<rect x="4.2" y="6.5" transform="matrix(-0.7069 -0.7073 0.7073 -0.7069 7.7917 18.8137)" width="7.1" height="2.6"/>
		</g>
	</g>
</g>
<g>
</g>
<g>
</g>
<g>
</g>
<g>
</g>
<g>
</g>
<g>
</g>
<g>
</g>
<g>
</g>
<g>
</g>
<g>
</g>
<g>
</g>
<g>
</g>
<g>
</g>
<g>
</g>
<g>
</g>
</svg>
