<?xml version="1.0" encoding="utf-8"?>
<!-- Generator: Adobe Illustrator 18.1.1, SVG Export Plug-In . SVG Version: 6.00 Build 0)  -->
<svg version="1.1" id="Layer_1" xmlns="http://www.w3.org/2000/svg" xmlns:xlink="http://www.w3.org/1999/xlink" x="0px" y="0px"
	 viewBox="0 0 40.4 40.4" enable-background="new 0 0 40.4 40.4" xml:space="preserve">
<g>
	<path d="M40.4,7.2c0-1.8-0.7-3.7-2.1-5.1C36.9,0.7,35.1,0,33.2,0c-1.8,0-3.7,0.7-5.1,2.1c-0.7,0.7-7.7,7.7-12.3,12.3
		c-0.9-0.2-1.8-0.3-2.7-0.3c-3.3,0-6.7,1.3-9.3,3.8C1.3,20.5,0,23.9,0,27.3c0,3.4,1.3,6.7,3.8,9.3c2.6,2.6,5.9,3.8,9.3,3.8
		c0,0,0,0,0,0c3.3,0,6.7-1.3,9.3-3.8c2.6-2.6,3.8-5.9,3.8-9.3c0-0.9-0.1-1.8-0.3-2.7c4.6-4.6,11.7-11.7,12.3-12.3
		C39.7,10.9,40.4,9,40.4,7.2z M35.5,9.4c-0.7,0.7-8.6,8.6-13.1,13.1l-0.9,0.9l0.4,1.2c0.3,0.9,0.4,1.8,0.4,2.7
		c0,2.3-0.9,4.7-2.7,6.5c-1.8,1.8-4.1,2.7-6.5,2.7c-2.3,0-4.7-0.9-6.5-2.7C4.9,31.9,4,29.6,4,27.3c0-2.3,0.9-4.7,2.7-6.5
		c1.8-1.8,4.1-2.7,6.4-2.7c0.9,0,1.8,0.1,2.7,0.4l1.2,0.4l0.9-0.9C22.4,13.5,30.3,5.6,31,4.9C31.6,4.3,32.4,4,33.2,4
		c0.8,0,1.6,0.3,2.2,0.9c0.6,0.6,0.9,1.4,0.9,2.2C36.4,8,36.1,8.8,35.5,9.4z"/>
	<path d="M17.3,21.5c-2.8-2-6.7-1.8-9.2,0.8c-2.8,2.8-2.8,7.3,0,10.1c2.8,2.8,7.3,2.8,10.1,0c2.5-2.5,2.8-6.4,0.8-9.2
		c1.7-1.7,4.9-4.9,7.9-7.9l-1.7-1.7C22.1,16.6,18.9,19.8,17.3,21.5z"/>
</g>
<g>
</g>
<g>
</g>
<g>
</g>
<g>
</g>
<g>
</g>
<g>
</g>
<g>
</g>
<g>
</g>
<g>
</g>
<g>
</g>
<g>
</g>
<g>
</g>
<g>
</g>
<g>
</g>
<g>
</g>
</svg>
