<?xml version="1.0" encoding="utf-8"?>
<!-- Generator: Adobe Illustrator 18.1.1, SVG Export Plug-In . SVG Version: 6.00 Build 0)  -->
<svg version="1.1" id="Layer_1" xmlns="http://www.w3.org/2000/svg" xmlns:xlink="http://www.w3.org/1999/xlink" x="0px" y="0px"
	 viewBox="0 0 22.8 44.6" enable-background="new 0 0 22.8 44.6" xml:space="preserve">
<g>
	<path d="M15.2,28.2L13.6,27V9.5c0-0.5-0.4-0.8-0.8-0.8h-2.7c-0.5,0-0.8,0.4-0.8,0.8V27l-1.6,1.2c-1.5,1.2-2.5,3-2.5,5
		c0,3.5,2.8,6.3,6.3,6.3c3.5,0,6.3-2.8,6.3-6.3C17.7,31.1,16.7,29.3,15.2,28.2z"/>
	<path d="M18.8,24.4l0-17.1c0-4.1-3.3-7.3-7.3-7.3C7.4,0,4.1,3.3,4.1,7.3l0,17.1C1.6,26.5,0,29.7,0,33.2c0,6.3,5.1,11.4,11.4,11.4
		c6.3,0,11.4-5.1,11.4-11.4C22.8,29.7,21.3,26.5,18.8,24.4z M11.4,42.3c-5,0-9.1-4.1-9.1-9.1c0-3,1.4-5.6,3.6-7.3l0.5-0.4l0-18.2
		c0-2.8,2.2-5,5-5c2.8,0,5,2.2,5,5l0,18.2l0.5,0.4c2.2,1.7,3.6,4.3,3.6,7.3C20.5,38.2,16.5,42.3,11.4,42.3z"/>
</g>
<g>
</g>
<g>
</g>
<g>
</g>
<g>
</g>
<g>
</g>
<g>
</g>
<g>
</g>
<g>
</g>
<g>
</g>
<g>
</g>
<g>
</g>
<g>
</g>
<g>
</g>
<g>
</g>
<g>
</g>
</svg>
