<?xml version="1.0" encoding="utf-8"?>
<!-- Generator: Adobe Illustrator 18.1.1, SVG Export Plug-In . SVG Version: 6.00 Build 0)  -->
<svg version="1.1" id="Layer_1" xmlns="http://www.w3.org/2000/svg" xmlns:xlink="http://www.w3.org/1999/xlink" x="0px" y="0px"
	 viewBox="0 0 472.1 794.6" enable-background="new 0 0 472.1 794.6" xml:space="preserve">
<g>
	<path d="M359.3,359.3c0-39.3,0-86.5,0-131.1c0-49.8,0-91.8,0-102.3C359.3,55.1,304.2,0,236,0l0,0c-70.8,0-125.9,55.1-125.9,125.9
		c0,23.6,0,152.1,0,233.4C44.6,401.2,0,474.7,0,558.6c0,128.5,104.9,236,236,236c128.5,0,236-104.9,236-236
		C469.4,474.7,424.8,401.2,359.3,359.3z M236,739.5c-99.7,0-181-81.3-181-181c0-68.2,39.3-128.5,97-160l13.1-7.9
		c0,0,0-241.3,0-264.9c0-39.3,31.5-70.8,68.2-70.8h2.6c39.3,0,70.8,31.5,70.8,70.8c0,13.1,0,264.9,0,264.9l13.1,7.9
		c57.7,31.5,97,91.8,97,160C417,658.3,335.7,739.5,236,739.5z"/>
	<path d="M262.3,424.8c0-23.6,0-97,0-165.2v-10.5h-52.5v7.9c0,68.2,0,141.6,0,165.2C146.9,435.3,99.7,490.4,99.7,556
		C99.7,632,160,692.3,236,692.3S372.4,632,372.4,556C372.4,490.4,325.2,435.3,262.3,424.8z"/>
</g>
<g>
</g>
<g>
</g>
<g>
</g>
<g>
</g>
<g>
</g>
<g>
</g>
<g>
</g>
<g>
</g>
<g>
</g>
<g>
</g>
<g>
</g>
<g>
</g>
<g>
</g>
<g>
</g>
<g>
</g>
</svg>
