<?xml version="1.0" encoding="utf-8"?>
<!-- Generator: Adobe Illustrator 18.1.1, SVG Export Plug-In . SVG Version: 6.00 Build 0)  -->
<svg version="1.1" id="Layer_1" xmlns="http://www.w3.org/2000/svg" xmlns:xlink="http://www.w3.org/1999/xlink" x="0px" y="0px"
	 viewBox="0 0 41 37.9" enable-background="new 0 0 41 37.9" xml:space="preserve">
<g>
	<polygon points="12.7,17.8 7,17.8 4.6,28.2 8.7,27.9 7.6,37.5 14.4,24.2 10.1,24.6 	"/>
	<g>
		<path d="M21.5,16.4c0,3.4,2.8,6.2,6.2,6.2c3.4,0,6.2-2.8,6.2-6.2c0-3.4-2.8-6.2-6.2-6.2C24.2,10.3,21.5,13,21.5,16.4z M23.8,16.4
			c0-2.1,1.7-3.8,3.8-3.8c2.1,0,3.8,1.7,3.8,3.8c0,2.1-1.7,3.8-3.8,3.8C25.5,20.3,23.8,18.5,23.8,16.4z"/>
		<rect x="26.4" y="3.1" width="2.4" height="5.3"/>
		<rect x="26.4" y="24.5" width="2.4" height="5.3"/>
		<rect x="34" y="6.2" transform="matrix(-0.7071 -0.7071 0.7071 -0.7071 53.8489 40.0324)" width="2.4" height="5.3"/>
		<rect x="18.9" y="21.4" transform="matrix(-0.7073 -0.7069 0.7069 -0.7073 17.2292 55.2041)" width="2.4" height="5.3"/>
		<rect x="35.7" y="15.3" width="5.3" height="2.4"/>
		<rect x="14.3" y="15.3" width="5.3" height="2.4"/>
		<rect x="32.6" y="22.9" transform="matrix(-0.7071 -0.7071 0.7071 -0.7071 43.1211 65.932)" width="5.3" height="2.4"/>
		<rect x="17.4" y="7.7" transform="matrix(-0.7071 -0.7071 0.7071 -0.7071 27.949 29.3034)" width="5.3" height="2.4"/>
	</g>
	<g>
		<path d="M15.5,0c-2.2,0-4.4,0.9-6,2.5C8,4,7.2,6.1,7.2,8.3c-0.5,0-1.1,0-1.1,0C2.7,8.3,0,11,0,14.3c0,3.3,2.7,6.1,6.1,6.1h5.7
			l0.9-2.6H6.1c-1.9,0-3.5-1.6-3.5-3.5c0-1.9,1.6-3.5,3.5-3.5h4L9.8,9.3C9.7,9,9.7,8.7,9.7,8.4c0-1.6,0.6-3,1.7-4.1
			c1.1-1.1,2.6-1.7,4.1-1.7C16.8,2.6,18,3,19,3.7l1.8-1.8C19.4,0.7,17.5,0,15.5,0z"/>
	</g>
	<path d="M19.6,35.4c0-0.3-0.1-0.7-0.2-1l-0.1-0.1c-0.1-0.1-2.1-3.6-2.2-3.8v0l0,0c0,0,0,0,0,0l0,0l0,0v0c-0.1,0.2-2.2,3.7-2.2,3.8
		l-0.1,0.1c-0.1,0.3-0.2,0.6-0.2,1c0,1.4,1.1,2.5,2.5,2.5l0,0c0,0,0,0,0,0h0c0,0,0,0,0,0c0,0,0,0,0,0l0,0
		C18.4,37.9,19.6,36.7,19.6,35.4z"/>
</g>
<g>
</g>
<g>
</g>
<g>
</g>
<g>
</g>
<g>
</g>
<g>
</g>
<g>
</g>
<g>
</g>
<g>
</g>
<g>
</g>
<g>
</g>
<g>
</g>
<g>
</g>
<g>
</g>
<g>
</g>
</svg>
