<?xml version="1.0" encoding="utf-8"?>
<!-- Generator: Adobe Illustrator 18.1.1, SVG Export Plug-In . SVG Version: 6.00 Build 0)  -->
<svg version="1.1" id="Layer_1" xmlns="http://www.w3.org/2000/svg" xmlns:xlink="http://www.w3.org/1999/xlink" x="0px" y="0px"
	 viewBox="0 0 31.1 36.6" enable-background="new 0 0 31.1 36.6" xml:space="preserve">
<g>
	<g>
		<path d="M9.6,2.5C8,4,7.2,6.1,7.1,8.3c-0.5,0-1.1,0-1.1,0C2.7,8.3,0,11,0,14.3c0,3.3,2.7,6.1,6.1,6.1h2.7v-2.6H6.1
			c-1.9,0-3.5-1.6-3.5-3.5c0-1.9,1.6-3.5,3.5-3.5h4L9.8,9.3C9.7,9,9.7,8.7,9.7,8.4c0-1.6,0.6-3,1.7-4.1c1.1-1.1,2.6-1.7,4.1-1.7
			c3.2,0,5.9,2.6,5.9,5.9c0,0.3,0,0.6-0.1,0.9l-0.2,1.5h4c1.9,0,3.5,1.6,3.5,3.5c0,1.9-1.6,3.5-3.5,3.5h-2.8v2.6H25
			c3.3,0,6.1-2.7,6.1-6.1c0-3.3-2.7-6.1-6.1-6.1c0,0-0.6,0-1.1,0C23.9,3.7,20.1,0,15.5,0C13.3,0,11.2,0.9,9.6,2.5z"/>
	</g>
	<polygon points="19.1,17.7 12.5,17.7 11.3,27.7 15.3,27.4 14.2,36.6 20.8,23.9 16.6,24.3 	"/>
</g>
<g>
</g>
<g>
</g>
<g>
</g>
<g>
</g>
<g>
</g>
<g>
</g>
<g>
</g>
<g>
</g>
<g>
</g>
<g>
</g>
<g>
</g>
<g>
</g>
<g>
</g>
<g>
</g>
<g>
</g>
</svg>
