<?xml version="1.0" encoding="utf-8"?>
<!-- Generator: Adobe Illustrator 18.1.1, SVG Export Plug-In . SVG Version: 6.00 Build 0)  -->
<svg version="1.1" id="Layer_1" xmlns="http://www.w3.org/2000/svg" xmlns:xlink="http://www.w3.org/1999/xlink" x="0px" y="0px"
	 viewBox="0 0 42.6 39.2" enable-background="new 0 0 42.6 39.2" xml:space="preserve">
<g>
	<path d="M32.2,6.1c-0.5,0-1,0-1.4,0.1C29.2,2.6,25.5,0,21.3,0c-4.3,0-7.9,2.6-9.5,6.2c-0.5-0.1-0.9-0.1-1.4-0.1
		C4.6,6.1,0,10.8,0,16.5c0,5.7,4.6,10.3,10.4,10.4c1,0,2.7,0,4.7,0l2.8-4c-3.2,0-6,0-7.4,0C6.8,22.8,4,20,4,16.5
		c0-3.5,2.8-6.3,6.4-6.3c0.7,0,1.4,0.1,2.1,0.4l2.1,0.8L15.1,9c0.6-2.9,3.2-5,6.2-5c3.1,0,5.6,2.2,6.2,5l0.5,2.2l2.1-0.7
		c0.7-0.2,1.4-0.4,2.1-0.4v0c3.5,0,6.3,2.8,6.4,6.3c0,3.5-2.8,6.3-6.4,6.3c-1,0-2.7,0-4.7,0l-2.8,4c3.2,0,6,0,7.4,0
		c5.7,0,10.4-4.6,10.4-10.4C42.5,10.8,37.9,6.1,32.2,6.1z"/>
	<polygon points="25.1,22.8 20.2,22.8 13.3,32.9 20.1,32.9 15.7,39.2 20.6,39.2 27.7,28.9 20.9,28.9 	"/>
</g>
<g>
</g>
<g>
</g>
<g>
</g>
<g>
</g>
<g>
</g>
<g>
</g>
<g>
</g>
<g>
</g>
<g>
</g>
<g>
</g>
<g>
</g>
<g>
</g>
<g>
</g>
<g>
</g>
<g>
</g>
</svg>
