<?xml version="1.0" encoding="utf-8"?>
<!-- Generator: Adobe Illustrator 18.1.1, SVG Export Plug-In . SVG Version: 6.00 Build 0)  -->
<svg version="1.1" id="Layer_1" xmlns="http://www.w3.org/2000/svg" xmlns:xlink="http://www.w3.org/1999/xlink" x="0px" y="0px"
	 viewBox="0 0 40.9 41.8" enable-background="new 0 0 40.9 41.8" xml:space="preserve">
<path d="M32,6.5c-1,0-2,0.2-2.9,0.5c-0.8-4-4.4-7-8.7-7c-4.3,0-7.8,3-8.7,7c-0.9-0.3-1.9-0.5-2.9-0.5C4,6.5,0,10.5,0,15.4
	s4,8.9,8.9,8.9c2.2,0,7,0,11.7,0l-7.7,10.3l8-1l-2.7,8.3l9.7-13l-8,1l1.8-5.6c4.3,0,8.4,0,10.3,0c4.9,0,8.9-4,8.9-8.9
	S36.9,6.5,32,6.5z"/>
<g>
</g>
<g>
</g>
<g>
</g>
<g>
</g>
<g>
</g>
<g>
</g>
<g>
</g>
<g>
</g>
<g>
</g>
<g>
</g>
<g>
</g>
<g>
</g>
<g>
</g>
<g>
</g>
<g>
</g>
</svg>
