<?xml version="1.0" encoding="utf-8"?>
<!-- Generator: Adobe Illustrator 18.1.1, SVG Export Plug-In . SVG Version: 6.00 Build 0)  -->
<svg version="1.1" id="Layer_1" xmlns="http://www.w3.org/2000/svg" xmlns:xlink="http://www.w3.org/1999/xlink" x="0px" y="0px"
	 viewBox="0 0 31.6 35.1" enable-background="new 0 0 31.6 35.1" xml:space="preserve">
<g>
	<path d="M31.6,18.1l-0.1-1.4C30.9,9,24.8,2.9,17.1,2.2c0-1.4,0-2.2,0-2.2h-2.6c0,0,0,0.8,0,2.2C6.8,2.8,0.7,9,0.1,16.7L0,18.1h14.5
		v11.4c0,1.1-0.4,1.8-0.8,2.3c-0.5,0.5-1.1,0.7-1.8,0.7c-0.6,0-1.3-0.2-1.7-0.7c-0.5-0.5-0.8-1.2-0.8-2.3H6.8c0,1.7,0.6,3.2,1.6,4.2
		c1,1,2.3,1.4,3.6,1.4c1.3,0,2.6-0.5,3.6-1.5c1-1,1.6-2.4,1.6-4.1V18.1H31.6z M15.8,4.7c6.4,0,11.8,4.6,12.9,10.7H2.9
		C4,9.4,9.4,4.7,15.8,4.7z"/>
	<path d="M23,27.8c0-0.3,0.1-0.7,0.2-1l0.1-0.2c0.1-0.1,2.1-3.6,2.3-3.8v0l0,0l0,0l0,0l0,0v0c0.1,0.2,2.2,3.7,2.3,3.8l0.1,0.2
		c0.1,0.3,0.2,0.6,0.2,1c0,1.4-1.1,2.5-2.5,2.5v0h0v0C24.1,30.3,23,29.2,23,27.8z"/>
</g>
<g>
</g>
<g>
</g>
<g>
</g>
<g>
</g>
<g>
</g>
<g>
</g>
<g>
</g>
<g>
</g>
<g>
</g>
<g>
</g>
<g>
</g>
<g>
</g>
<g>
</g>
<g>
</g>
<g>
</g>
</svg>
