<?xml version="1.0" encoding="utf-8"?>
<!-- Generator: Adobe Illustrator 18.1.1, SVG Export Plug-In . SVG Version: 6.00 Build 0)  -->
<svg version="1.1" id="Layer_1" xmlns="http://www.w3.org/2000/svg" xmlns:xlink="http://www.w3.org/1999/xlink" x="0px" y="0px"
	 viewBox="0 0 612 562.7" enable-background="new 0 0 612 562.7" xml:space="preserve">
<path d="M607.9,242.3c0-2.1-2.1-2.1-2.1-4.1C558.6,131.4,455.9,53.4,332.7,43.1V0h-55.4v43.1C154,53.4,51.3,129.4,4.1,238.2
	c0,2.1-2.1,2.1-2.1,4.1c0,4.1-2.1,10.3-2.1,16.4c0,24.6,20.5,45.2,45.2,45.2l0,0l0,0h232.1v174.6c0,16.4-12.3,28.8-28.8,28.8
	s-28.8-12.3-28.8-28.8h-53.4c0,47.2,37,84.2,84.2,84.2s84.2-37,84.2-84.2V303.9h232.1l0,0l0,0c24.6,0,45.2-20.5,45.2-45.2
	C612,252.6,609.9,246.4,607.9,242.3z M90.4,248.5H61.6c4.1-8.2,10.3-16.4,14.4-24.6c49.3-76,133.5-125.3,230-125.3l0,0
	c96.5,0,180.7,49.3,230,125.3c6.2,8.2,10.3,16.4,14.4,24.6h-30.8H90.4z"/>
<g>
</g>
<g>
</g>
<g>
</g>
<g>
</g>
<g>
</g>
<g>
</g>
<g>
</g>
<g>
</g>
<g>
</g>
<g>
</g>
<g>
</g>
<g>
</g>
<g>
</g>
<g>
</g>
<g>
</g>
</svg>
