<?xml version="1.0" encoding="utf-8"?>
<!-- Generator: Adobe Illustrator 18.1.1, SVG Export Plug-In . SVG Version: 6.00 Build 0)  -->
<svg version="1.1" id="Layer_1" xmlns="http://www.w3.org/2000/svg" xmlns:xlink="http://www.w3.org/1999/xlink" x="0px" y="0px"
	 viewBox="0 0 44.4 37.8" enable-background="new 0 0 44.4 37.8" xml:space="preserve">
<path d="M44.4,20.1c-2.5-9.4-10.7-16.4-20.7-17c0-1.4,0-2.7,0-3.1h-3h0c0,0.3,0,1.7,0,3.1c-10,0.6-18.2,7.7-20.7,17h20.7
	c0,3.9,0,11.3,0,12.1c0,1.4-1.2,2.6-2.6,2.6c-1.4,0-2.6-1.2-2.6-2.6h-3c0,3.1,2.5,5.6,5.6,5.6c3.1,0,5.6-2.5,5.6-5.6
	c0-0.8,0-8.2,0-12.1H44.4z"/>
<g>
</g>
<g>
</g>
<g>
</g>
<g>
</g>
<g>
</g>
<g>
</g>
<g>
</g>
<g>
</g>
<g>
</g>
<g>
</g>
<g>
</g>
<g>
</g>
<g>
</g>
<g>
</g>
<g>
</g>
</svg>
