<?xml version="1.0" encoding="utf-8"?>
<!-- Generator: Adobe Illustrator 18.1.1, SVG Export Plug-In . SVG Version: 6.00 Build 0)  -->
<svg version="1.1" id="Layer_1" xmlns="http://www.w3.org/2000/svg" xmlns:xlink="http://www.w3.org/1999/xlink" x="0px" y="0px"
	 viewBox="0 0 34.9 28.6" enable-background="new 0 0 34.9 28.6" xml:space="preserve">
<g>
	<circle cx="1.4" cy="22.9" r="1.4"/>
	<circle cx="9.4" cy="22.9" r="1.4"/>
	<circle cx="17.4" cy="22.9" r="1.4"/>
	<circle cx="25.5" cy="22.9" r="1.4"/>
	<circle cx="33.5" cy="22.9" r="1.4"/>
	<circle cx="5.3" cy="18.6" r="1.4"/>
	<circle cx="13.3" cy="18.6" r="1.4"/>
	<circle cx="21.3" cy="18.6" r="1.4"/>
	<circle cx="29.4" cy="18.6" r="1.4"/>
	<circle cx="5.3" cy="27.2" r="1.4"/>
	<circle cx="13.3" cy="27.2" r="1.4"/>
	<circle cx="21.3" cy="27.2" r="1.4"/>
	<circle cx="29.4" cy="27.2" r="1.4"/>
	<circle cx="1.4" cy="14.1" r="1.4"/>
	<circle cx="9.4" cy="14.1" r="1.4"/>
	<circle cx="17.4" cy="14.1" r="1.4"/>
	<circle cx="25.5" cy="14.1" r="1.4"/>
	<circle cx="33.5" cy="14" r="1.4"/>
	<circle cx="5.3" cy="10" r="1.4"/>
	<circle cx="13.3" cy="10" r="1.4"/>
	<circle cx="21.3" cy="10" r="1.4"/>
	<circle cx="29.4" cy="10" r="1.4"/>
	<circle cx="1.4" cy="5.8" r="1.4"/>
	<circle cx="9.4" cy="5.8" r="1.4"/>
	<circle cx="17.4" cy="5.8" r="1.4"/>
	<circle cx="25.5" cy="5.8" r="1.4"/>
	<circle cx="33.5" cy="5.8" r="1.4"/>
	<circle cx="5.3" cy="1.4" r="1.4"/>
	<circle cx="13.3" cy="1.4" r="1.4"/>
	<circle cx="21.3" cy="1.4" r="1.4"/>
	<circle cx="29.4" cy="1.4" r="1.4"/>
</g>
<g>
</g>
<g>
</g>
<g>
</g>
<g>
</g>
<g>
</g>
<g>
</g>
<g>
</g>
<g>
</g>
<g>
</g>
<g>
</g>
<g>
</g>
<g>
</g>
<g>
</g>
<g>
</g>
<g>
</g>
</svg>
