<?xml version="1.0" encoding="utf-8"?>
<!-- Generator: Adobe Illustrator 18.1.1, SVG Export Plug-In . SVG Version: 6.00 Build 0)  -->
<svg version="1.1" id="Layer_1" xmlns="http://www.w3.org/2000/svg" xmlns:xlink="http://www.w3.org/1999/xlink" x="0px" y="0px"
	 viewBox="0 0 41 28.5" enable-background="new 0 0 41 28.5" xml:space="preserve">
<g>
	<circle cx="3.5" cy="3.5" r="3.5"/>
	<path d="M17.1,7c1.9,0,3.5-1.6,3.5-3.5C20.6,1.6,19,0,17.1,0c-1.9,0-3.5,1.6-3.5,3.5C13.6,5.4,15.2,7,17.1,7z"/>
	<circle cx="30.7" cy="3.5" r="3.5"/>
	<path d="M10.3,10.8c-1.9,0-3.5,1.6-3.5,3.5c0,1.9,1.6,3.5,3.5,3.5s3.5-1.6,3.5-3.5C13.8,12.3,12.2,10.8,10.3,10.8z"/>
	<path d="M23.9,10.8c-1.9,0-3.5,1.6-3.5,3.5c0,1.9,1.6,3.5,3.5,3.5c1.9,0,3.5-1.6,3.5-3.5C27.4,12.3,25.8,10.8,23.9,10.8z"/>
	<path d="M37.5,10.8c-1.9,0-3.5,1.6-3.5,3.5c0,1.9,1.6,3.5,3.5,3.5c1.9,0,3.5-1.6,3.5-3.5C41,12.3,39.5,10.8,37.5,10.8z"/>
	<path d="M3.5,21.5C1.6,21.5,0,23.1,0,25c0,1.9,1.6,3.5,3.5,3.5C5.4,28.5,7,26.9,7,25C7,23.1,5.4,21.5,3.5,21.5z"/>
	<path d="M17.1,21.5c-1.9,0-3.5,1.6-3.5,3.5c0,1.9,1.6,3.5,3.5,3.5c1.9,0,3.5-1.6,3.5-3.5C20.6,23.1,19,21.5,17.1,21.5z"/>
	<circle cx="30.7" cy="25" r="3.5"/>
</g>
<g>
</g>
<g>
</g>
<g>
</g>
<g>
</g>
<g>
</g>
<g>
</g>
<g>
</g>
<g>
</g>
<g>
</g>
<g>
</g>
<g>
</g>
<g>
</g>
<g>
</g>
<g>
</g>
<g>
</g>
</svg>
