<?xml version="1.0" encoding="utf-8"?>
<!-- Generator: Adobe Illustrator 18.1.1, SVG Export Plug-In . SVG Version: 6.00 Build 0)  -->
<svg version="1.1" id="Layer_1" xmlns="http://www.w3.org/2000/svg" xmlns:xlink="http://www.w3.org/1999/xlink" x="0px" y="0px"
	 viewBox="0 0 38.2 31.1" enable-background="new 0 0 38.2 31.1" xml:space="preserve">
<g>
	<path d="M2.6,5.1C4,5.1,5.1,4,5.1,2.6C5.1,1.1,4,0,2.6,0S0,1.1,0,2.6C0,4,1.1,5.1,2.6,5.1z"/>
	<path d="M12.1,5.1c1.4,0,2.5-1.1,2.6-2.6c0-1.4-1.1-2.6-2.6-2.6c-1.4,0-2.6,1.1-2.6,2.6C9.5,4,10.7,5.1,12.1,5.1z"/>
	<path d="M21.6,5.1c1.4,0,2.5-1.1,2.6-2.5c0-1.4-1.1-2.6-2.6-2.6c-1.4,0-2.6,1.1-2.6,2.6C19.1,4,20.2,5.1,21.6,5.1z"/>
	<path d="M31.2,5.1c1.4,0,2.5-1.1,2.6-2.6c0-1.4-1.1-2.5-2.6-2.6c-1.4,0-2.6,1.1-2.6,2.6C28.6,4,29.8,5.1,31.2,5.1z"/>
	<path d="M7.1,13.8c1.4,0,2.5-1.1,2.6-2.6c0-1.4-1.1-2.5-2.6-2.5c-1.4,0-2.6,1.1-2.6,2.5C4.5,12.6,5.6,13.8,7.1,13.8z"/>
	<path d="M16.6,13.8c1.4,0,2.5-1.1,2.6-2.6c0-1.4-1.1-2.6-2.6-2.6c-1.4,0-2.6,1.1-2.6,2.6C14,12.6,15.2,13.8,16.6,13.8z"/>
	<path d="M26.1,13.8c1.4,0,2.5-1.1,2.6-2.6c0-1.4-1.1-2.6-2.6-2.6c-1.4,0-2.6,1.1-2.6,2.6C23.6,12.6,24.7,13.8,26.1,13.8z"/>
	<path d="M35.7,13.8c1.4,0,2.5-1.1,2.6-2.6c0-1.4-1.1-2.5-2.6-2.5c-1.4,0-2.6,1.1-2.6,2.5C33.1,12.6,34.3,13.8,35.7,13.8z"/>
	<path d="M2.6,17.3c-1.4,0-2.6,1.1-2.6,2.6c0,1.4,1.1,2.5,2.6,2.6c1.4,0,2.5-1.1,2.6-2.6C5.1,18.5,4,17.3,2.6,17.3z"/>
	<path d="M12.1,17.3c-1.4,0-2.6,1.1-2.6,2.5c0,1.4,1.2,2.5,2.6,2.6c1.4,0,2.5-1.1,2.6-2.6C14.7,18.5,13.5,17.3,12.1,17.3z"/>
	<path d="M21.6,17.3c-1.4,0-2.6,1.1-2.6,2.5c0,1.4,1.2,2.5,2.6,2.6c1.4,0,2.5-1.1,2.6-2.6C24.2,18.5,23.1,17.3,21.6,17.3z"/>
	<path d="M31.2,17.3c-1.4,0-2.6,1.1-2.6,2.6c0,1.4,1.1,2.5,2.6,2.6c1.4,0,2.5-1.1,2.6-2.6C33.7,18.5,32.6,17.3,31.2,17.3z"/>
	<path d="M7.1,26c-1.4,0-2.6,1.1-2.6,2.5c0,1.4,1.1,2.5,2.6,2.6c1.4,0,2.5-1.1,2.6-2.6C9.6,27.1,8.5,26,7.1,26z"/>
	<path d="M16.6,26c-1.4,0-2.6,1.1-2.6,2.5c0,1.4,1.1,2.6,2.6,2.6c1.4,0,2.5-1.1,2.6-2.6C19.2,27.1,18,26,16.6,26z"/>
	<path d="M26.1,26c-1.4,0-2.6,1.1-2.6,2.5c0,1.4,1.1,2.5,2.6,2.6c1.4,0,2.5-1.1,2.6-2.6C28.7,27.1,27.6,26,26.1,26z"/>
	<path d="M35.7,26c-1.4,0-2.6,1.1-2.6,2.5c0,1.4,1.1,2.5,2.6,2.6c1.4,0,2.5-1.1,2.6-2.6C38.2,27.1,37.1,26,35.7,26z"/>
</g>
<g>
</g>
<g>
</g>
<g>
</g>
<g>
</g>
<g>
</g>
<g>
</g>
<g>
</g>
<g>
</g>
<g>
</g>
<g>
</g>
<g>
</g>
<g>
</g>
<g>
</g>
<g>
</g>
<g>
</g>
</svg>
