<?xml version="1.0" encoding="utf-8"?>
<!-- Generated by IcoMoon.io -->
<!DOCTYPE svg PUBLIC "-//W3C//DTD SVG 1.1//EN" "http://www.w3.org/Graphics/SVG/1.1/DTD/svg11.dtd">
<svg version="1.1" xmlns="http://www.w3.org/2000/svg" xmlns:xlink="http://www.w3.org/1999/xlink" width="32" height="32" viewBox="0 0 32 32">
<path fill="#333333" d="M28.897 12.353c-0.725 0.128-1.209 0.82-1.081 1.545 0.121 0.687 0.183 1.395 0.183 2.102 0 6.617-5.383 12-12 12s-12-5.383-12-12 5.383-12 12-12c1.145 0 2.275 0.161 3.361 0.477 0.709 0.205 1.447-0.2 1.653-0.907 0.207-0.707-0.2-1.447-0.907-1.653-1.329-0.387-2.711-0.583-4.107-0.583-8.087 0-14.667 6.579-14.667 14.667s6.579 14.667 14.667 14.667 14.667-6.579 14.667-14.667c0-0.863-0.075-1.726-0.224-2.567-0.128-0.725-0.817-1.21-1.545-1.081z"></path>
<path fill="#333333" d="M10.667 23.333c0.736 0 1.333-0.597 1.333-1.333v-12c0-0.462-0.239-0.891-0.632-1.134s-0.885-0.265-1.297-0.059l-2.667 1.333c-0.659 0.329-0.926 1.13-0.597 1.789 0.329 0.658 1.129 0.927 1.789 0.597l0.737-0.369v9.843c0 0.736 0.597 1.333 1.333 1.333z"></path>
<path fill="#333333" d="M24.267 13c0-2.389-2.213-4.333-4.933-4.333s-4.933 1.944-4.933 4.333c0 1.164 0.528 2.221 1.382 3-0.853 0.779-1.382 1.836-1.382 3 0 2.389 2.213 4.333 4.933 4.333s4.933-1.944 4.933-4.333c0-1.164-0.528-2.221-1.382-3 0.854-0.779 1.382-1.836 1.382-3zM21.6 19c0 0.903-1.039 1.667-2.267 1.667s-2.267-0.763-2.267-1.667 1.038-1.667 2.267-1.667 2.267 0.763 2.267 1.667zM17.067 13c0-0.903 1.039-1.667 2.267-1.667s2.267 0.763 2.267 1.667-1.038 1.667-2.267 1.667-2.267-0.763-2.267-1.667z"></path>
<path fill="#333333" d="M30 4.667h-1.333v-1.333c0-0.736-0.597-1.333-1.333-1.333s-1.333 0.597-1.333 1.333v1.333h-1.333c-0.736 0-1.333 0.597-1.333 1.333s0.597 1.333 1.333 1.333h1.333v1.333c0 0.736 0.597 1.333 1.333 1.333s1.333-0.597 1.333-1.333v-1.333h1.333c0.736 0 1.333-0.597 1.333-1.333s-0.597-1.333-1.333-1.333z"></path>
</svg>
