<?xml version="1.0" encoding="utf-8"?>
<!-- Generated by IcoMoon.io -->
<!DOCTYPE svg PUBLIC "-//W3C//DTD SVG 1.1//EN" "http://www.w3.org/Graphics/SVG/1.1/DTD/svg11.dtd">
<svg version="1.1" xmlns="http://www.w3.org/2000/svg" xmlns:xlink="http://www.w3.org/1999/xlink" width="32" height="32" viewBox="0 0 32 32">
<path fill="#333333" d="M3.983 10.948c-0.553 1.439-0.87 2.997-0.87 4.631 0 3.551 1.435 6.767 3.755 9.101-0.108 0.095-0.206 0.203-0.281 0.333l-1.975 3.42c-0.368 0.638-0.15 1.454 0.488 1.821s1.454 0.15 1.821-0.488l1.975-3.42c0.001-0.001 0.001-0.003 0.002-0.004 2.043 1.355 4.491 2.149 7.126 2.149 2.655 0 5.123-0.803 7.175-2.179 0.007 0.011 0.009 0.023 0.015 0.034l1.975 3.42c0.367 0.638 1.183 0.856 1.821 0.488s0.855-1.183 0.488-1.821l-1.975-3.42c-0.083-0.145-0.193-0.265-0.315-0.365 2.302-2.332 3.727-5.533 3.727-9.069 0-1.634-0.317-3.191-0.87-4.631 1.565-0.88 2.625-2.554 2.625-4.478 0-2.837-2.3-5.137-5.137-5.137-1.838 0-3.446 0.969-4.353 2.421-1.585-0.695-3.333-1.087-5.175-1.087s-3.591 0.392-5.177 1.087c-0.907-1.452-2.515-2.421-4.353-2.421-2.837 0-5.137 2.299-5.137 5.137 0 1.924 1.059 3.598 2.625 4.478zM25.555 4c1.364 0 2.47 1.105 2.47 2.47 0 0.885-0.469 1.656-1.17 2.093-0.884-1.363-2.018-2.543-3.338-3.486 0.445-0.649 1.191-1.077 2.038-1.077zM11.625 6.337c1.335-0.637 2.823-1.004 4.4-1.004s3.065 0.367 4.401 1.004c2.26 1.078 4.068 2.949 5.044 5.265 0.515 1.223 0.801 2.566 0.801 3.976 0 5.659-4.587 10.245-10.245 10.245s-10.245-4.587-10.245-10.245c0-1.41 0.285-2.753 0.801-3.976 0.977-2.316 2.785-4.187 5.045-5.265zM6.495 4c0.847 0 1.593 0.427 2.038 1.076-1.319 0.943-2.454 2.124-3.338 3.486-0.701-0.436-1.17-1.207-1.17-2.093 0-1.364 1.106-2.469 2.47-2.469z"></path>
<path fill="#333333" d="M14.737 17.679c0.191 0.711 0.922 1.133 1.633 0.943 0.117-0.031 0.221-0.081 0.32-0.139l0.001 0.002 5.699-3.291c0.029-0.014 0.059-0.023 0.087-0.039 0.638-0.368 0.856-1.183 0.487-1.821s-1.183-0.855-1.821-0.487c-0.003 0.001-0.005 0.004-0.008 0.005l-0.005-0.009-3.773 2.179v-5.979c0-0.736-0.597-1.333-1.333-1.333s-1.333 0.597-1.333 1.333v8.291h0.005c0.001 0.115 0.011 0.229 0.041 0.345z"></path>
</svg>
