<?xml version="1.0" encoding="utf-8"?>
<!-- Generated by IcoMoon.io -->
<!DOCTYPE svg PUBLIC "-//W3C//DTD SVG 1.1//EN" "http://www.w3.org/Graphics/SVG/1.1/DTD/svg11.dtd">
<svg version="1.1" xmlns="http://www.w3.org/2000/svg" xmlns:xlink="http://www.w3.org/1999/xlink" width="32" height="32" viewBox="0 0 32 32">
<path fill="#333333" d="M4 8h24c0.737 0 1.333-0.597 1.333-1.333 0-0.737-0.597-1.333-1.333-1.333h-24c-0.736 0-1.333 0.596-1.333 1.333 0 0.736 0.597 1.333 1.333 1.333z"></path>
<path fill="#333333" d="M4 14h18.667c0.736 0 1.333-0.597 1.333-1.333 0-0.737-0.597-1.333-1.333-1.333h-18.667c-0.736 0-1.333 0.596-1.333 1.333 0 0.736 0.597 1.333 1.333 1.333z"></path>
<path fill="#333333" d="M28 17.333h-24c-0.736 0-1.333 0.596-1.333 1.333 0 0.736 0.597 1.333 1.333 1.333h24c0.737 0 1.333-0.597 1.333-1.333 0-0.737-0.597-1.333-1.333-1.333z"></path>
<path fill="#333333" d="M22.667 23.333h-18.667c-0.736 0-1.333 0.596-1.333 1.333 0 0.736 0.597 1.333 1.333 1.333h18.667c0.736 0 1.333-0.597 1.333-1.333 0-0.737-0.597-1.333-1.333-1.333z"></path>
</svg>
