<?xml version="1.0" encoding="utf-8"?>
<!-- Generated by IcoMoon.io -->
<!DOCTYPE svg PUBLIC "-//W3C//DTD SVG 1.1//EN" "http://www.w3.org/Graphics/SVG/1.1/DTD/svg11.dtd">
<svg version="1.1" xmlns="http://www.w3.org/2000/svg" xmlns:xlink="http://www.w3.org/1999/xlink" width="32" height="32" viewBox="0 0 32 32">
<path fill="#333333" d="M28 26.67h-6.667c-0.479 0-0.921-0.256-1.157-0.671l-10.283-17.995h-5.893c-0.736 0-1.333-0.597-1.333-1.333s0.597-1.333 1.333-1.333h6.667c0.479 0 0.921 0.257 1.157 0.671l10.283 17.995h5.893c0.737 0 1.333 0.597 1.333 1.333s-0.597 1.333-1.333 1.333zM26.667 6.67c0-0.736-0.597-1.333-1.333-1.333h-6.667c-0.737 0-1.333 0.597-1.333 1.333s0.597 1.333 1.333 1.333h6.667c0.737 0 1.333-0.597 1.333-1.333z"></path>
</svg>
