<?xml version="1.0" encoding="utf-8"?>
<!-- Generated by IcoMoon.io -->
<!DOCTYPE svg PUBLIC "-//W3C//DTD SVG 1.1//EN" "http://www.w3.org/Graphics/SVG/1.1/DTD/svg11.dtd">
<svg version="1.1" xmlns="http://www.w3.org/2000/svg" xmlns:xlink="http://www.w3.org/1999/xlink" width="32" height="32" viewBox="0 0 32 32">
<path fill="#333333" d="M24.667 7.333h-0.667v-1.333c0-2.206-1.794-4-4-4s-4 1.794-4 4v1.333h-9.333c-4.915 0-6.667 3.444-6.667 6.667v11.333c0 0.736 0.597 1.333 1.333 1.333h3.333c0.111 0 0.216-0.017 0.319-0.043 0.644 1.587 2.2 2.709 4.015 2.709 1.799 0 3.345-1.103 3.999-2.667h5.335c0.655 1.564 2.2 2.667 3.999 2.667s3.345-1.103 3.999-2.667h1.667c2.935 0 4-2.392 4-4v-3.333c0-2.443-1.914-12-7.333-12zM18.667 6c0-0.735 0.598-1.333 1.333-1.333s1.333 0.598 1.333 1.333v1.333h-2.667v-1.333zM9 26.667c-0.919 0-1.667-0.748-1.667-1.667s0.747-1.667 1.667-1.667 1.667 0.748 1.667 1.667-0.747 1.667-1.667 1.667zM22.333 26.667c-0.919 0-1.667-0.748-1.667-1.667s0.747-1.667 1.667-1.667 1.667 0.748 1.667 1.667-0.747 1.667-1.667 1.667zM29.333 22.651c-0.015 0.615-0.26 1.349-1.333 1.349h-1.455c-0.453-1.908-2.167-3.333-4.212-3.333s-3.759 1.425-4.212 3.333h-4.909c-0.453-1.908-2.167-3.333-4.212-3.333-2.049 0-3.767 1.431-4.215 3.345-0.040-0.003-0.078-0.012-0.119-0.012h-2v-10c0-1.825 0.694-4 4-4h18c2.647 0 4.667 6.627 4.667 9.333v3.318z"></path>
<path fill="#333333" d="M18 15.333h-1.331v-1.333c0-0.736-0.597-1.333-1.333-1.333s-1.333 0.597-1.333 1.333v1.333h-1.336c-0.736 0-1.333 0.597-1.333 1.333s0.597 1.333 1.333 1.333h1.336v1.333c0 0.736 0.597 1.333 1.333 1.333s1.333-0.597 1.333-1.333v-1.333h1.331c0.736 0 1.333-0.597 1.333-1.333s-0.597-1.333-1.333-1.333z"></path>
</svg>
