<?xml version="1.0" encoding="utf-8"?>
<!-- Generated by IcoMoon.io -->
<!DOCTYPE svg PUBLIC "-//W3C//DTD SVG 1.1//EN" "http://www.w3.org/Graphics/SVG/1.1/DTD/svg11.dtd">
<svg version="1.1" xmlns="http://www.w3.org/2000/svg" xmlns:xlink="http://www.w3.org/1999/xlink" width="32" height="32" viewBox="0 0 32 32">
<path fill="#333333" d="M26.268 23.054l-9.265-9.254c-0.245-0.281-0.601-0.463-1.003-0.463-0.366 0-0.697 0.148-0.939 0.387v0l-0.004 0.004c0 0 0 0 0 0l-9.322 9.323c-0.248 0.242-0.402 0.579-0.402 0.952 0 0.737 0.597 1.333 1.333 1.333 0.364 0 0.693-0.147 0.934-0.383v0l0.004-0.004c0.003-0.003 0.005-0.005 0.008-0.008l8.386-8.388 8.386 8.386c0.242 0.245 0.577 0.397 0.948 0.397 0.736 0 1.333-0.597 1.333-1.333 0.001-0.373-0.152-0.708-0.398-0.95z"></path>
<path fill="#333333" d="M6.667 17.337c0.364 0 0.693-0.147 0.934-0.383v0l0.004-0.004c0.003-0.003 0.005-0.005 0.008-0.008l8.386-8.388 8.386 8.386c0.242 0.245 0.577 0.397 0.948 0.397 0.736 0 1.333-0.597 1.333-1.333 0-0.372-0.153-0.707-0.399-0.949l-9.265-9.255c-0.244-0.281-0.6-0.463-1.003-0.463-0.366 0-0.697 0.148-0.939 0.387v0l-0.004 0.004c0 0 0 0 0 0l-9.322 9.323c-0.248 0.242-0.402 0.579-0.402 0.952 0 0.737 0.597 1.333 1.333 1.333z"></path>
</svg>
