<?xml version="1.0" encoding="utf-8"?>
<!-- Generated by IcoMoon.io -->
<!DOCTYPE svg PUBLIC "-//W3C//DTD SVG 1.1//EN" "http://www.w3.org/Graphics/SVG/1.1/DTD/svg11.dtd">
<svg version="1.1" xmlns="http://www.w3.org/2000/svg" xmlns:xlink="http://www.w3.org/1999/xlink" width="32" height="32" viewBox="0 0 32 32">
<path fill="#333333" d="M7.073 8.959l9.316 9.319c0.001 0.001 0.003 0.003 0.004 0.004l0.001 0.001c0.241 0.239 0.573 0.387 0.939 0.387 0.403 0 0.759-0.181 1.003-0.463l0.003 0.003 9.263-9.256c0.246-0.242 0.399-0.577 0.399-0.949 0-0.736-0.597-1.333-1.333-1.333-0.372 0-0.707 0.153-0.949 0.398v0l-8.386 8.385-8.398-8.399c-0.241-0.237-0.57-0.383-0.934-0.383-0.736 0-1.333 0.597-1.333 1.333 0 0.375 0.156 0.713 0.406 0.955z"></path>
<path fill="#333333" d="M26.667 14.67c-0.372 0-0.707 0.153-0.949 0.398v0l-8.386 8.385-8.398-8.399c-0.241-0.237-0.57-0.383-0.934-0.383-0.736 0-1.333 0.597-1.333 1.333 0 0.375 0.156 0.713 0.406 0.956l9.316 9.319c0.001 0.001 0.003 0.003 0.004 0.004l0.001 0.001c0.241 0.239 0.573 0.387 0.939 0.387 0.403 0 0.759-0.181 1.003-0.463l0.003 0.003 9.263-9.256c0.246-0.243 0.399-0.578 0.399-0.95 0-0.736-0.597-1.333-1.333-1.333z"></path>
</svg>
