<?xml version="1.0" encoding="utf-8"?>
<!-- Generated by IcoMoon.io -->
<!DOCTYPE svg PUBLIC "-//W3C//DTD SVG 1.1//EN" "http://www.w3.org/Graphics/SVG/1.1/DTD/svg11.dtd">
<svg version="1.1" xmlns="http://www.w3.org/2000/svg" xmlns:xlink="http://www.w3.org/1999/xlink" width="32" height="32" viewBox="0 0 32 32">
<path fill="#333333" d="M24.951 24.402l-8.401-8.397 8.385-8.385c0.245-0.243 0.398-0.578 0.398-0.949 0-0.737-0.597-1.333-1.333-1.333-0.372 0-0.707 0.153-0.949 0.399l-9.254 9.265c-0.281 0.245-0.463 0.601-0.463 1.003 0 0.366 0.148 0.697 0.387 0.939v0l9.325 9.323c0.243 0.249 0.58 0.405 0.955 0.405 0.736 0 1.333-0.597 1.333-1.333 0-0.364-0.147-0.693-0.383-0.934l0.001-0.001z"></path>
<path fill="#333333" d="M16.951 24.402l-8.401-8.397 8.385-8.385c0.245-0.243 0.398-0.578 0.398-0.949 0-0.737-0.597-1.333-1.333-1.333-0.372 0-0.707 0.153-0.949 0.399l-9.254 9.265c-0.281 0.245-0.463 0.601-0.463 1.003 0 0.366 0.148 0.697 0.387 0.939v0l9.325 9.323c0.243 0.249 0.58 0.405 0.955 0.405 0.736 0 1.333-0.597 1.333-1.333 0-0.364-0.147-0.693-0.383-0.934l0.001-0.001z"></path>
</svg>
