<?xml version="1.0" encoding="utf-8"?>
<!-- Generated by IcoMoon.io -->
<!DOCTYPE svg PUBLIC "-//W3C//DTD SVG 1.1//EN" "http://www.w3.org/Graphics/SVG/1.1/DTD/svg11.dtd">
<svg version="1.1" xmlns="http://www.w3.org/2000/svg" xmlns:xlink="http://www.w3.org/1999/xlink" width="32" height="32" viewBox="0 0 32 32">
<path fill="#333333" d="M18.28 16.943v0c0.239-0.241 0.387-0.573 0.387-0.939 0-0.403-0.182-0.759-0.463-1.003l0.003-0.003-9.257-9.263c-0.242-0.246-0.577-0.399-0.949-0.399-0.736 0-1.333 0.597-1.333 1.333 0 0.371 0.153 0.707 0.398 0.949h-0.001l8.385 8.385-8.4 8.399c-0.236 0.241-0.383 0.57-0.383 0.934 0 0.736 0.597 1.333 1.333 1.333 0.375 0 0.712-0.156 0.955-0.405l9.325-9.322z"></path>
<path fill="#333333" d="M26.279 16.942c0.239-0.241 0.387-0.573 0.387-0.939 0-0.403-0.182-0.759-0.463-1.003l0.003-0.003-9.257-9.262c-0.242-0.246-0.577-0.399-0.949-0.399-0.736 0-1.333 0.597-1.333 1.333 0 0.371 0.153 0.707 0.398 0.949h-0.001l8.385 8.385-8.4 8.399c-0.236 0.241-0.383 0.57-0.383 0.934 0 0.736 0.597 1.333 1.333 1.333 0.375 0 0.712-0.156 0.955-0.405l9.325-9.323z"></path>
</svg>
