<?xml version="1.0" encoding="utf-8"?>
<!-- Generated by IcoMoon.io -->
<!DOCTYPE svg PUBLIC "-//W3C//DTD SVG 1.1//EN" "http://www.w3.org/Graphics/SVG/1.1/DTD/svg11.dtd">
<svg version="1.1" xmlns="http://www.w3.org/2000/svg" xmlns:xlink="http://www.w3.org/1999/xlink" width="32" height="32" viewBox="0 0 32 32">
<path fill="#333333" d="M26.683 9.334v-6.667c0-0.114-0.019-0.222-0.045-0.328-0.007-0.029-0.017-0.055-0.026-0.083-0.027-0.083-0.061-0.161-0.103-0.235-0.013-0.022-0.023-0.045-0.036-0.066-0.057-0.090-0.124-0.173-0.201-0.247-0.016-0.015-0.035-0.028-0.052-0.043-0.068-0.059-0.141-0.11-0.219-0.154-0.015-0.008-0.026-0.021-0.041-0.029-0.011-0.005-0.023-0.007-0.034-0.012-0.099-0.048-0.201-0.087-0.311-0.109-0.002 0-0.004 0-0.006-0.001-0.083-0.016-0.17-0.026-0.259-0.026-0.020 0-0.039 0.005-0.059 0.006-0.031 0.001-0.062 0.006-0.093 0.009-0.085 0.010-0.167 0.027-0.246 0.052-0.025 0.008-0.051 0.014-0.076 0.023-0.103 0.039-0.199 0.089-0.289 0.151-0.004 0.003-0.009 0.004-0.013 0.007-2.501 1.785-9.873 6.419-13.892 6.419h-1.667c-0.012 0-0.023 0.003-0.035 0.003h-4.965c-2.206 0-4 1.795-4 4v5.333c0 2.206 1.794 4 4 4h2.667v1.33c0 4.501 2.932 7.485 3.057 7.61 0.26 0.26 0.601 0.39 0.943 0.39s0.683-0.13 0.943-0.39c0.521-0.521 0.521-1.365 0-1.886-0.023-0.023-2.276-2.316-2.276-5.724v-1.333h1.333c4.019 0 11.39 4.639 13.891 6.426 0.003 0.003 0.008 0.003 0.012 0.006 0.099 0.070 0.21 0.123 0.327 0.163 0.025 0.009 0.049 0.016 0.073 0.023 0.117 0.033 0.237 0.057 0.363 0.057 0.101 0 0.199-0.013 0.294-0.035 0.025-0.005 0.047-0.015 0.071-0.023 0.071-0.021 0.141-0.045 0.207-0.077 0.013-0.006 0.026-0.008 0.038-0.014 0.015-0.008 0.026-0.021 0.041-0.029 0.079-0.045 0.153-0.097 0.221-0.155 0.017-0.014 0.035-0.027 0.051-0.042 0.077-0.074 0.143-0.157 0.201-0.247 0.013-0.021 0.023-0.043 0.035-0.065 0.042-0.075 0.076-0.153 0.103-0.236 0.009-0.028 0.019-0.055 0.026-0.083 0.027-0.105 0.045-0.214 0.045-0.328v-6.667c2.943 0 5.337-2.395 5.337-5.338s-2.395-5.337-5.337-5.337zM6.683 18.671h-2.667c-0.735 0-1.333-0.598-1.333-1.333v-5.333c0-0.735 0.598-1.333 1.333-1.333h2.667v8zM24.017 9.514v14.663c-3.17-2.029-9.209-5.51-13.333-5.51h-1.333v-7.999h1.333c4.124 0 10.164-3.477 13.333-5.503v4.35zM26.683 17.342v-5.341c1.473 0 2.671 1.198 2.671 2.67s-1.198 2.671-2.671 2.671z"></path>
</svg>
