<?xml version="1.0" encoding="utf-8"?>
<!-- Generated by IcoMoon.io -->
<!DOCTYPE svg PUBLIC "-//W3C//DTD SVG 1.1//EN" "http://www.w3.org/Graphics/SVG/1.1/DTD/svg11.dtd">
<svg version="1.1" xmlns="http://www.w3.org/2000/svg" xmlns:xlink="http://www.w3.org/1999/xlink" width="32" height="32" viewBox="0 0 32 32">
<path fill="#333333" d="M29.711 20.529l-8.493-8.493 1.728-1.727c0.522 0.25 1.104 0.394 1.721 0.394 2.206 0 4-1.794 4-4s-1.794-4-4-4-4 1.794-4 4c0 0.617 0.144 1.199 0.394 1.721l-1.727 1.727-8.528-8.527c-0.233-0.199-0.532-0.322-0.863-0.322-0.276 0-0.532 0.083-0.745 0.226-0.018 0.015-0.037 0.029-0.055 0.044-0.078 0.067-0.147 0.142-0.223 0.21-0.305 0.271-0.609 0.542-0.889 0.839-2.495 2.63-4.031 6.18-4.031 10.083 0 2.956 0.882 5.708 2.391 8.013-2.445 0.144-4.391 2.172-4.391 4.653 0 2.573 2.093 4.667 4.667 4.667 2.564 0 4.651-2.079 4.665-4.64 2.159 1.253 4.663 1.974 7.335 1.974 3.903 0 7.453-1.536 10.083-4.031 0.312-0.295 0.609-0.605 0.894-0.927 0.079-0.089 0.149-0.184 0.225-0.274 0.127-0.204 0.203-0.443 0.203-0.701 0-0.352-0.139-0.67-0.361-0.908zM24.666 5.369c0.735 0 1.333 0.598 1.333 1.333s-0.598 1.333-1.333 1.333c-0.359 0-0.683-0.144-0.923-0.375-0.006-0.006-0.010-0.014-0.016-0.020s-0.014-0.011-0.020-0.016c-0.231-0.24-0.375-0.564-0.375-0.923 0-0.735 0.598-1.333 1.333-1.333zM6.666 27.368c-1.103 0-2-0.897-2-2s0.897-2 2-2 2 0.897 2 2c0 1.103-0.897 2-2 2zM18.666 24.702c-6.617 0-12-5.383-12-12 0-3.168 1.243-6.045 3.256-8.192l16.936 16.936c-2.147 2.013-5.024 3.256-8.192 3.256z"></path>
</svg>
