<?xml version="1.0" encoding="utf-8"?>
<!-- Generated by IcoMoon.io -->
<!DOCTYPE svg PUBLIC "-//W3C//DTD SVG 1.1//EN" "http://www.w3.org/Graphics/SVG/1.1/DTD/svg11.dtd">
<svg version="1.1" xmlns="http://www.w3.org/2000/svg" xmlns:xlink="http://www.w3.org/1999/xlink" width="32" height="32" viewBox="0 0 32 32">
<path fill="#333333" d="M20 31.556c-1.567 0-2.428-0.267-3.056-0.461-0.383-0.119-0.614-0.191-0.944-0.191-0.31 0-0.503 0.063-0.855 0.177-0.615 0.201-1.458 0.475-3.145 0.475-4.801 0-8.667-7.505-8.667-13.719 0-5.007 2.879-8.504 7-8.504 1.121 0 2.017 0.34 2.885 0.669 0.862 0.327 1.677 0.635 2.782 0.635s1.92-0.309 2.782-0.635c0.867-0.329 1.764-0.669 2.885-0.669 4.121 0 7 3.497 7 8.504 0 4.819-3.574 13.719-8.667 13.719zM16 28.237c0.733 0 1.265 0.165 1.734 0.31 0.542 0.168 1.103 0.342 2.266 0.342 2.782 0 6-6.688 6-11.052 0-3.546-1.701-5.837-4.333-5.837-0.633 0-1.209 0.219-1.939 0.495-0.951 0.361-2.133 0.809-3.727 0.809s-2.777-0.448-3.727-0.809c-0.731-0.277-1.307-0.495-1.939-0.495-2.633 0-4.333 2.291-4.333 5.837 0 5.693 3.38 11.052 6 11.052 1.264 0 1.801-0.175 2.319-0.344 0.444-0.144 0.947-0.308 1.681-0.308z"></path>
<path fill="#333333" d="M16 9.333c-0.736 0-1.333-0.597-1.333-1.333 0-2.767 1.672-8 8-8 0.736 0 1.333 0.597 1.333 1.333 0 2.767-1.672 8-8 8zM21.116 2.837c-2.322 0.554-3.219 2.34-3.565 3.659 2.323-0.553 3.219-2.34 3.565-3.659z"></path>
</svg>
