<?xml version="1.0" encoding="utf-8"?>
<!-- Generated by IcoMoon.io -->
<!DOCTYPE svg PUBLIC "-//W3C//DTD SVG 1.1//EN" "http://www.w3.org/Graphics/SVG/1.1/DTD/svg11.dtd">
<svg version="1.1" xmlns="http://www.w3.org/2000/svg" xmlns:xlink="http://www.w3.org/1999/xlink" width="32" height="32" viewBox="0 0 32 32">
<path fill="#333333" d="M23.886 5.399c-0.333-0.46-0.867-0.733-1.435-0.733h-12.903c-0.568 0-1.101 0.273-1.435 0.733l-6.781 8.379v13.777c0 0.981 0.794 1.777 1.774 1.777h25.786c0.979 0 1.773-0.796 1.773-1.777v-13.777l-6.781-8.379zM10 7.334h12l4.732 5.555h-4.081c-0.353 0-0.691 0.141-0.941 0.391l-3.157 3.165h-5.107l-3.158-3.165c-0.249-0.251-0.587-0.391-0.941-0.391h-4.080l4.732-5.555zM28.006 26.667h-24.012v-11.112h4.804l3.157 3.166c0.25 0.249 0.587 0.391 0.941 0.391h6.208c0.353 0 0.691-0.141 0.941-0.391l3.157-3.166h4.804v11.112z"></path>
</svg>
