<?xml version="1.0" encoding="utf-8"?>
<!-- Generated by IcoMoon.io -->
<!DOCTYPE svg PUBLIC "-//W3C//DTD SVG 1.1//EN" "http://www.w3.org/Graphics/SVG/1.1/DTD/svg11.dtd">
<svg version="1.1" xmlns="http://www.w3.org/2000/svg" xmlns:xlink="http://www.w3.org/1999/xlink" width="32" height="32" viewBox="0 0 32 32">
<path fill="#333333" d="M26.29 19.596c0.232-0.24 0.377-0.566 0.377-0.926 0-0.737-0.597-1.333-1.333-1.333-0.351 0-0.669 0.139-0.907 0.361l-0.003-0.003-0.030 0.030c-0.001 0.001-0.003 0.003-0.004 0.004l-7.056 7.058v-20.779h-0.001c0-0.002 0.001-0.003 0.001-0.005 0-0.737-0.597-1.333-1.333-1.333s-1.333 0.597-1.333 1.333c0 0.001 0.001 0.003 0.001 0.005h-0.001v20.777l-7.052-7.051c-0.004-0.004-0.007-0.007-0.011-0.011l-0.011-0.011-0.001 0.001c-0.24-0.232-0.565-0.376-0.925-0.376-0.736 0-1.333 0.597-1.333 1.333 0 0.331 0.125 0.631 0.326 0.864l-0.003 0.003 0.031 0.031c0.026 0.028 0.052 0.055 0.080 0.080l9.287 9.294c0.002 0.002 0.004 0.004 0.006 0.006l0.002 0.002c0.241 0.239 0.571 0.387 0.937 0.387s0.697-0.148 0.938-0.387l0.001 0.001 9.325-9.328c0.008-0.007 0.015-0.015 0.023-0.023l0.005-0.003z"></path>
</svg>
