<?xml version="1.0" encoding="utf-8"?>
<!-- Generated by IcoMoon.io -->
<!DOCTYPE svg PUBLIC "-//W3C//DTD SVG 1.1//EN" "http://www.w3.org/Graphics/SVG/1.1/DTD/svg11.dtd">
<svg version="1.1" xmlns="http://www.w3.org/2000/svg" xmlns:xlink="http://www.w3.org/1999/xlink" width="32" height="32" viewBox="0 0 32 32">
<path fill="#333333" d="M28.946 16.942c0.239-0.241 0.387-0.573 0.387-0.939s-0.148-0.697-0.387-0.939v0 0c-0.003-0.003-0.005-0.005-0.008-0.008l-9.297-9.291c-0.023-0.025-0.047-0.049-0.072-0.071l-0.035-0.035-0.003 0.003c-0.233-0.201-0.533-0.326-0.865-0.326-0.736 0-1.333 0.597-1.333 1.333 0 0.36 0.144 0.685 0.376 0.925l-0.001 0.001 0.011 0.011c0.003 0.003 0.006 0.006 0.009 0.009l7.053 7.053-20.776 0.001c-0.002 0-0.004-0.001-0.006-0.001-0.736 0-1.333 0.597-1.333 1.333s0.597 1.333 1.333 1.333c0.002 0 0.004-0.001 0.006-0.001v0.001h20.777l-7.089 7.093c-0.223 0.238-0.361 0.555-0.361 0.907 0 0.736 0.597 1.333 1.333 1.333 0.361 0 0.686-0.145 0.926-0.377l0.001 0.001 0.005-0.005c0.007-0.007 0.013-0.013 0.019-0.019l9.328-9.327z"></path>
</svg>
