<?xml version="1.0" encoding="utf-8"?>
<!-- Generated by IcoMoon.io -->
<!DOCTYPE svg PUBLIC "-//W3C//DTD SVG 1.1//EN" "http://www.w3.org/Graphics/SVG/1.1/DTD/svg11.dtd">
<svg version="1.1" xmlns="http://www.w3.org/2000/svg" xmlns:xlink="http://www.w3.org/1999/xlink" width="32" height="32" viewBox="0 0 32 32">
<path fill="#333333" d="M30.946 16.942c0.239-0.241 0.387-0.572 0.387-0.939s-0.148-0.697-0.387-0.938v0l-0.002-0.002c-0.001-0.001-0.003-0.003-0.004-0.004l-6.646-6.643c-0.013-0.014-0.027-0.028-0.041-0.041l-0.007-0.007-0.001 0.001c-0.239-0.225-0.558-0.365-0.912-0.365-0.736 0-1.333 0.597-1.333 1.333 0 0.382 0.163 0.724 0.421 0.967l-0.001 0.001 4.363 4.365h-21.565l4.362-4.366c0.258-0.243 0.421-0.585 0.421-0.967 0-0.736-0.597-1.333-1.333-1.333-0.354 0-0.673 0.14-0.912 0.365l-0.001-0.001-0.007 0.007c-0.014 0.013-0.028 0.027-0.041 0.041l-6.646 6.643c-0.001 0.001-0.003 0.003-0.004 0.004l-0.002 0.002c-0.239 0.241-0.387 0.573-0.387 0.938s0.148 0.697 0.387 0.939v0l0.003 0.003c0.001 0.001 0.001 0.001 0.002 0.002l6.655 6.653c0.242 0.248 0.579 0.403 0.953 0.403 0.736 0 1.333-0.597 1.333-1.333 0-0.363-0.147-0.692-0.383-0.933l0.001-0.001-0.009-0.009c0 0 0 0 0 0l-4.393-4.391h21.567l-4.393 4.391c0 0 0 0 0 0l-0.009 0.009 0.001 0.001c-0.236 0.241-0.383 0.57-0.383 0.933 0 0.736 0.597 1.333 1.333 1.333 0.374 0 0.711-0.155 0.953-0.403l6.655-6.653c0.001-0.001 0.001-0.001 0.002-0.002l0.003-0.003z"></path>
</svg>
