<?xml version="1.0" encoding="utf-8"?>
<!-- Generated by IcoMoon.io -->
<!DOCTYPE svg PUBLIC "-//W3C//DTD SVG 1.1//EN" "http://www.w3.org/Graphics/SVG/1.1/DTD/svg11.dtd">
<svg version="1.1" xmlns="http://www.w3.org/2000/svg" xmlns:xlink="http://www.w3.org/1999/xlink" width="32" height="32" viewBox="0 0 32 32">
<path fill="#333333" d="M22.667 22.003c-0.363 0-0.693 0.147-0.933 0.383l-0.001-0.001-0.007 0.007c-0.001 0.001-0.003 0.003-0.004 0.004l-4.389 4.391v-21.567l4.389 4.391c0.001 0.001 0.001 0.001 0.002 0.002l0.008 0.008 0.001-0.001c0.241 0.236 0.569 0.382 0.933 0.382 0.736 0 1.333-0.597 1.333-1.333 0-0.373-0.154-0.71-0.402-0.952l-6.655-6.657c0 0 0 0 0 0l-0.004-0.004c-0.241-0.239-0.573-0.387-0.939-0.387s-0.697 0.148-0.938 0.387v0l-0.001 0.001c-0.003 0.003-0.005 0.005-0.007 0.007l-6.641 6.644c-0.014 0.013-0.028 0.027-0.041 0.041l-0.007 0.007 0.001 0.001c-0.225 0.239-0.365 0.559-0.365 0.912 0 0.736 0.597 1.333 1.333 1.333 0.382 0 0.724-0.163 0.967-0.421l0.001 0.001 4.365-4.362v21.565l-4.366-4.362c-0.243-0.257-0.585-0.421-0.967-0.421-0.736 0-1.333 0.597-1.333 1.333 0 0.354 0.14 0.673 0.365 0.912l-0.001 0.001 0.007 0.007c0.014 0.014 0.028 0.028 0.042 0.042l6.641 6.645c0.001 0.001 0.003 0.003 0.005 0.005l0.002 0.002c0.241 0.239 0.572 0.387 0.938 0.387s0.697-0.148 0.938-0.387h0.001l6.657-6.659c0.25-0.241 0.405-0.579 0.405-0.954 0-0.736-0.597-1.333-1.333-1.333z"></path>
</svg>
