<?xml version="1.0" encoding="utf-8"?>
<!-- Generated by IcoMoon.io -->
<!DOCTYPE svg PUBLIC "-//W3C//DTD SVG 1.1//EN" "http://www.w3.org/Graphics/SVG/1.1/DTD/svg11.dtd">
<svg version="1.1" xmlns="http://www.w3.org/2000/svg" xmlns:xlink="http://www.w3.org/1999/xlink" width="32" height="32" viewBox="0 0 32 32">
<path fill="#333333" d="M31.082 16.955c0.247-0.242 0.401-0.579 0.401-0.952 0-0.369-0.151-0.704-0.393-0.945l-3.965-4.625c-0.243-0.263-0.589-0.43-0.975-0.43-0.736 0-1.333 0.597-1.333 1.333 0 0.369 0.15 0.703 0.392 0.944l2.050 2.389h-9.926v-9.775l2.39 2.051c0.001 0.001 0.003 0.002 0.003 0.003l0.009 0.007c0.241 0.235 0.569 0.381 0.931 0.381 0.736 0 1.333-0.597 1.333-1.333 0-0.387-0.167-0.732-0.431-0.976l-4.624-3.963c-0.241-0.244-0.575-0.395-0.945-0.395-0.373 0-0.71 0.155-0.952 0.402l-0.013-0.013-4.436 3.833c-0.089 0.059-0.169 0.13-0.241 0.208l-0.011 0.011 0.002 0.001c-0.215 0.237-0.349 0.547-0.349 0.891 0 0.736 0.597 1.333 1.333 1.333 0.392 0 0.741-0.172 0.985-0.441l0.002 0.002 2.347-1.995v9.767h-9.775l2.050-2.389c0.242-0.241 0.392-0.575 0.392-0.944 0-0.736-0.597-1.333-1.333-1.333-0.387 0-0.731 0.167-0.975 0.43l-3.965 4.625c-0.243 0.242-0.393 0.576-0.393 0.945 0 0.373 0.154 0.709 0.401 0.952l-0.013 0.013 3.833 4.436c0.059 0.089 0.13 0.169 0.209 0.241l0.010 0.011 0.001-0.002c0.237 0.214 0.547 0.348 0.891 0.348 0.736 0 1.333-0.597 1.333-1.333 0-0.392-0.172-0.741-0.442-0.985l0.001-0.001-1.994-2.347h9.768v9.777l-2.391-2.051c-0.003-0.003-0.007-0.006-0.011-0.009l-0.002-0.002c-0.241-0.235-0.569-0.381-0.931-0.381-0.736 0-1.333 0.597-1.333 1.333 0 0.384 0.165 0.727 0.424 0.971l4.632 3.971c0.241 0.242 0.575 0.392 0.944 0.392 0.373 0 0.709-0.154 0.952-0.401l0.013 0.013 4.438-3.834c0.088-0.058 0.166-0.128 0.237-0.205l0.013-0.012-0.002-0.002c0.215-0.237 0.349-0.547 0.349-0.892 0-0.736-0.597-1.333-1.333-1.333-0.392 0-0.741 0.173-0.985 0.442l-0.002-0.001-2.346 1.993v-9.767h9.917l-1.994 2.347 0.001 0.001c-0.269 0.244-0.442 0.593-0.442 0.985 0 0.736 0.597 1.333 1.333 1.333 0.345 0 0.655-0.134 0.891-0.348l0.001 0.002 0.010-0.011c0.079-0.073 0.15-0.152 0.209-0.241l3.833-4.436-0.012-0.013z"></path>
</svg>
