<?xml version="1.0" encoding="utf-8"?>
<!-- Generated by IcoMoon.io -->
<!DOCTYPE svg PUBLIC "-//W3C//DTD SVG 1.1//EN" "http://www.w3.org/Graphics/SVG/1.1/DTD/svg11.dtd">
<svg version="1.1" xmlns="http://www.w3.org/2000/svg" xmlns:xlink="http://www.w3.org/1999/xlink" width="32" height="32" viewBox="0 0 32 32">
<path fill="#333333" d="M28.713 4.625h-0.001c0-0.341-0.13-0.683-0.391-0.944-0.262-0.262-0.607-0.391-0.951-0.389h-6.651c-0.344-0.002-0.689 0.127-0.951 0.389-0.52 0.521-0.52 1.365 0 1.885 0.261 0.261 0.603 0.391 0.945 0.391v0.001h3.447l-8.159 8.161-8.114-8.114h3.445c0 0 0 0 0.001 0h0.014v-0.001c0.336-0.004 0.671-0.133 0.928-0.389 0.521-0.522 0.521-1.365 0-1.886-0.257-0.257-0.591-0.385-0.928-0.389v-0.001l-6.667 0.001c-0.345-0.003-0.691 0.126-0.955 0.389-0.261 0.261-0.391 0.603-0.391 0.945v0 6.665c0 0.341 0.13 0.683 0.39 0.943 0.521 0.521 1.365 0.521 1.885 0 0.261-0.262 0.391-0.604 0.391-0.946v-3.445l8.113 8.113-8.104 8.105v-3.445h-0.002c0-0.341-0.13-0.683-0.39-0.943-0.521-0.521-1.365-0.521-1.886 0-0.265 0.265-0.394 0.615-0.389 0.963v6.625c-0.005 0.348 0.123 0.697 0.389 0.963 0.261 0.261 0.602 0.39 0.943 0.39v0.002l6.665-0.002c0.341 0 0.683-0.13 0.943-0.39 0.52-0.521 0.52-1.365 0-1.885-0.266-0.267-0.616-0.395-0.965-0.389h-3.427l8.109-8.109 8.137 8.137h-3.423c-0.349-0.006-0.699 0.122-0.965 0.388-0.521 0.521-0.521 1.365 0 1.886 0.26 0.261 0.601 0.391 0.942 0.391v0.002l6.667-0.003c0.34-0.001 0.681-0.131 0.94-0.39 0.261-0.26 0.39-0.601 0.39-0.943h0.003v-6.664h-0.003c0-0.342-0.129-0.684-0.39-0.945-0.521-0.52-1.365-0.52-1.885 0-0.268 0.268-0.396 0.622-0.388 0.973v3.421l-8.139-8.139 8.161-8.16v3.434c-0.003 0.345 0.125 0.692 0.389 0.955 0.521 0.521 1.365 0.521 1.886 0 0.261-0.26 0.391-0.601 0.391-0.943h0.001v-6.666z"></path>
</svg>
