<?xml version="1.0" encoding="utf-8"?>
<!-- Generated by IcoMoon.io -->
<!DOCTYPE svg PUBLIC "-//W3C//DTD SVG 1.1//EN" "http://www.w3.org/Graphics/SVG/1.1/DTD/svg11.dtd">
<svg version="1.1" xmlns="http://www.w3.org/2000/svg" xmlns:xlink="http://www.w3.org/1999/xlink" width="32" height="32" viewBox="0 0 32 32">
<path fill="#333333" d="M28 14.67c-0.002 0-0.004 0.001-0.006 0.001v-0.001h-20.775l7.053-7.053c0.003-0.003 0.007-0.006 0.009-0.009l0.011-0.011-0.001-0.001c0.231-0.24 0.375-0.565 0.375-0.925 0-0.737-0.597-1.333-1.333-1.333-0.332 0-0.631 0.125-0.865 0.326l-0.003-0.003-0.036 0.035c-0.025 0.023-0.048 0.047-0.071 0.071l-9.301 9.294c0 0-0.001 0.001-0.001 0.001l-0.003 0.004c-0.239 0.241-0.387 0.573-0.387 0.939s0.148 0.697 0.387 0.939v0l9.329 9.327c0.007 0.007 0.013 0.013 0.019 0.019l0.005 0.005 0.001-0.001c0.24 0.233 0.565 0.377 0.926 0.377 0.736 0 1.333-0.597 1.333-1.333 0-0.352-0.139-0.669-0.361-0.908l0.003-0.003-7.092-7.088 20.777-0.001c0.002 0 0.004 0.001 0.006 0.001 0.736 0 1.333-0.597 1.333-1.333s-0.598-1.333-1.334-1.333z"></path>
</svg>
