<?xml version="1.0" encoding="utf-8"?>
<!-- Generated by IcoMoon.io -->
<!DOCTYPE svg PUBLIC "-//W3C//DTD SVG 1.1//EN" "http://www.w3.org/Graphics/SVG/1.1/DTD/svg11.dtd">
<svg version="1.1" xmlns="http://www.w3.org/2000/svg" xmlns:xlink="http://www.w3.org/1999/xlink" width="32" height="32" viewBox="0 0 32 32">
<path fill="#333333" d="M26.29 12.411v0l-0.004-0.005c-0.007-0.007-0.014-0.014-0.021-0.021l-9.32-9.322c-0.001-0.001-0.003-0.003-0.004-0.004l-0.001-0.001c-0.241-0.239-0.573-0.387-0.939-0.387-0.373 0-0.709 0.153-0.951 0.4l-9.285 9.289c-0.027 0.024-0.051 0.049-0.075 0.075l-0.033 0.033 0.003 0.003c-0.201 0.234-0.326 0.533-0.326 0.865 0 0.736 0.597 1.333 1.333 1.333 0.36 0 0.685-0.144 0.925-0.376l0.001 0.001 7.074-7.073v20.775h0.001c0 0.003-0.001 0.004-0.001 0.006 0 0.736 0.597 1.333 1.333 1.333s1.333-0.597 1.333-1.333c0-0.002-0.001-0.004-0.001-0.006h0.001v-20.777l7.093 7.089c0.238 0.222 0.555 0.361 0.907 0.361 0.736 0 1.333-0.597 1.333-1.333 0-0.361-0.145-0.687-0.377-0.927z"></path>
</svg>
