<?xml version="1.0" encoding="utf-8"?>
<!-- Generated by IcoMoon.io -->
<!DOCTYPE svg PUBLIC "-//W3C//DTD SVG 1.1//EN" "http://www.w3.org/Graphics/SVG/1.1/DTD/svg11.dtd">
<svg version="1.1" xmlns="http://www.w3.org/2000/svg" xmlns:xlink="http://www.w3.org/1999/xlink" width="32" height="32" viewBox="0 0 32 32">
<path fill="#333333" d="M18.117 20.951c-0.572 0.883-1.233 1.531-1.982 1.947s-1.633 0.623-2.652 0.623c-1.644 0-2.895-0.453-3.753-1.356s-1.287-2.238-1.287-4.004c0-2.513 0.726-4.62 2.177-6.323s3.237-2.553 5.359-2.553c0.832 0 1.555 0.173 2.169 0.519 0.614 0.347 1.118 0.862 1.513 1.545l0.827-1.545h2.777l-2.293 9.429c-0.031 0.116-0.057 0.235-0.078 0.354-0.021 0.121-0.031 0.219-0.031 0.292 0 0.368 0.125 0.643 0.375 0.827s0.618 0.276 1.107 0.276c0.405 0 0.829-0.105 1.271-0.315s0.855-0.505 1.24-0.883c0.895-0.841 1.573-1.823 2.037-2.948 0.462-1.125 0.694-2.361 0.694-3.705 0-2.523-0.965-4.596-2.895-6.221s-4.418-2.435-7.465-2.435c-1.466 0-2.831 0.179-4.095 0.535-1.264 0.358-2.411 0.889-3.441 1.593-1.767 1.198-3.127 2.696-4.079 4.493-0.951 1.798-1.427 3.768-1.427 5.913 0 3.227 1.077 5.805 3.229 7.733 2.153 1.929 5.029 2.893 8.628 2.893 1.685 0 3.331-0.257 4.938-0.773 1.607-0.514 3.101-1.261 4.485-2.238l1.279 1.845c-1.591 1.209-3.279 2.118-5.063 2.727s-3.643 0.915-5.577 0.915c-1.998 0-3.833-0.256-5.508-0.765s-3.161-1.263-4.461-2.262c-1.613-1.272-2.819-2.738-3.619-4.399s-1.201-3.542-1.201-5.645c0-1.755 0.273-3.43 0.819-5.021 0.547-1.593 1.35-3.041 2.41-4.344 1.54-1.903 3.391-3.343 5.555-4.32 2.163-0.977 4.571-1.466 7.223-1.466 1.758 0 3.409 0.239 4.953 0.717 1.545 0.479 2.889 1.154 4.033 2.027 1.404 1.103 2.452 2.362 3.144 3.776s1.038 3.009 1.038 4.785c0 1.733-0.341 3.333-1.022 4.8s-1.661 2.72-2.941 3.76c-0.728 0.589-1.521 1.039-2.379 1.349s-1.75 0.465-2.676 0.465c-1.102 0-1.931-0.221-2.488-0.662-0.558-0.443-0.846-1.094-0.867-1.956zM18.897 14.202c-0.135-0.85-0.434-1.5-0.897-1.947s-1.073-0.669-1.833-0.669c-1.185 0-2.215 0.652-3.089 1.955s-1.311 2.87-1.311 4.699c0 0.967 0.21 1.702 0.631 2.207s1.033 0.758 1.833 0.758c0.863 0 1.651-0.332 2.364-0.993 0.712-0.662 1.199-1.524 1.459-2.586l0.843-3.423z"></path>
</svg>
