<?xml version="1.0" encoding="utf-8"?>
<!-- Generated by IcoMoon.io -->
<!DOCTYPE svg PUBLIC "-//W3C//DTD SVG 1.1//EN" "http://www.w3.org/Graphics/SVG/1.1/DTD/svg11.dtd">
<svg version="1.1" xmlns="http://www.w3.org/2000/svg" xmlns:xlink="http://www.w3.org/1999/xlink" width="32" height="32" viewBox="0 0 32 32">
<path fill="#333333" d="M22.248 15.083c0.762-0.635 1.417-1.247 1.973-1.821-1.465-1.161-3.071-2.268-4.764-3.246-1.681-0.971-3.384-1.795-5.038-2.458-0.223 0.763-0.427 1.649-0.6 2.642 1.419 0.59 2.873 1.299 4.305 2.125 1.563 0.903 2.929 1.835 4.125 2.758z"></path>
<path fill="#333333" d="M17.334 16c0 0.736-0.597 1.333-1.333 1.333s-1.333-0.597-1.333-1.333c0-0.736 0.597-1.333 1.333-1.333s1.333 0.597 1.333 1.333z"></path>
<path fill="#333333" d="M12.319 20.85c-0.197-1.471-0.318-3.091-0.318-4.85 0-8.015 2.407-13.333 4-13.333 0.746 0 1.672 1.182 2.444 3.251 0.88-0.316 1.733-0.571 2.569-0.789-1.121-3.065-2.803-5.129-5.013-5.129-4.377 0-6.667 8.049-6.667 16 0 1.929 0.138 3.86 0.404 5.683 0.823-0.218 1.679-0.489 2.581-0.833z"></path>
<path fill="#333333" d="M26.184 18.772c1.531 1.844 2.116 3.361 1.695 4.087-0.269 0.471-1.169 0.751-2.405 0.751-0.643 0-1.367-0.084-2.135-0.221-0.172 0.907-0.381 1.776-0.623 2.604 0.987 0.185 1.915 0.284 2.759 0.284 2.903 0 4.167-1.133 4.713-2.085 1.168-2.018 0.155-4.63-2.053-7.245-0.602 0.618-1.252 1.228-1.951 1.825z"></path>
<path fill="#333333" d="M5.816 13.227c-1.531-1.843-2.117-3.359-1.697-4.085 0.269-0.471 1.172-0.752 2.407-0.752 0.641 0 1.369 0.084 2.135 0.221 0.173-0.907 0.388-1.775 0.63-2.603-0.992-0.187-1.92-0.285-2.765-0.285-2.904 0-4.168 1.133-4.717 2.085-1.164 2.018-0.152 4.63 2.059 7.245 0.601-0.619 1.247-1.23 1.948-1.827z"></path>
<path fill="#333333" d="M19.201 23.526c-0.843 3.641-2.185 5.807-3.201 5.807-0.749 0-1.667-1.194-2.439-3.264-0.879 0.315-1.736 0.586-2.567 0.804 1.117 3.063 2.792 5.127 5.005 5.127 3.313 0 5.429-4.616 6.262-10.308-0.717 0.471-1.441 0.931-2.189 1.361-0.289 0.167-0.581 0.317-0.873 0.473z"></path>
<path fill="#333333" d="M30.203 7.801c-0.537-0.93-1.772-2.037-4.612-2.037-2.181 0-4.936 0.658-7.862 1.831 0.801 0.394 1.6 0.807 2.395 1.265 0.246 0.143 0.485 0.305 0.729 0.454 1.779-0.561 3.418-0.883 4.739-0.883 1.187 0 2.048 0.263 2.302 0.704 0.825 1.429-2.671 6.328-9.819 10.455-4.253 2.455-8.721 3.98-11.663 3.98-1.187 0-2.048-0.263-2.302-0.701-0.548-0.952 0.825-3.441 3.905-6.213-0.007-0.218-0.013-0.435-0.013-0.653 0-0.971 0.044-1.939 0.109-2.9-4.825 3.713-8.045 8.089-6.311 11.099 0.537 0.929 1.772 2.035 4.611 2.035 3.433 0 8.291-1.621 12.996-4.337 7.056-4.074 13.029-10.224 10.796-14.098z"></path>
</svg>
