<?xml version="1.0" encoding="utf-8"?>
<!-- Generated by IcoMoon.io -->
<!DOCTYPE svg PUBLIC "-//W3C//DTD SVG 1.1//EN" "http://www.w3.org/Graphics/SVG/1.1/DTD/svg11.dtd">
<svg version="1.1" xmlns="http://www.w3.org/2000/svg" xmlns:xlink="http://www.w3.org/1999/xlink" width="32" height="32" viewBox="0 0 32 32">
<path fill="#333333" d="M24.151 12.179c-1.943-2.726-5.249-6.846-7.483-6.846-10.593 0-16.667 2.916-16.667 8 0 1.379 0.667 3.593 1.089 4.859-0.573 0.567-1.089 1.403-1.089 2.474v2c0 0.736 0.597 1.333 1.333 1.333h2.667c0.070 0 0.137-0.010 0.205-0.021 0.557 1.749 2.197 3.021 4.129 3.021 1.924 0 3.557-1.261 4.121-3h6.425c0.564 1.739 2.197 3 4.121 3s3.557-1.261 4.121-3h2.879c0.574 0 1.083-0.367 1.265-0.912 0.030-0.090 0.735-2.238 0.735-5.088 0-3.182-5.513-5.137-7.85-5.821zM8.333 24.333c-0.919 0-1.667-0.748-1.667-1.667s0.748-1.667 1.667-1.667c0.887 0 1.609 0.699 1.657 1.575-0.002 0.031-0.009 0.061-0.009 0.092s0.007 0.061 0.009 0.092c-0.049 0.875-0.77 1.575-1.657 1.575zM23.001 24.333c-0.887 0-1.607-0.699-1.657-1.573 0.002-0.031 0.009-0.061 0.009-0.093s-0.007-0.062-0.009-0.093c0.049-0.875 0.77-1.573 1.657-1.573 0.919 0 1.667 0.748 1.667 1.667s-0.748 1.667-1.667 1.667zM28.971 21.333h-1.849c-0.564-1.739-2.197-3-4.121-3s-3.557 1.261-4.121 3h-6.425c-0.564-1.739-2.197-3-4.121-3-1.932 0-3.571 1.271-4.129 3.021-0.067-0.011-0.134-0.021-0.204-0.021h-1.333v-0.667c0-0.469 0.597-0.807 0.597-0.807s0 0 0 0c0.608-0.304 0.889-1.017 0.655-1.654-0.484-1.311-1.251-3.794-1.251-4.872 0-3.932 7.232-5.333 13.95-5.337 0.843 0.175 3.471 3.027 5.625 6.101 0.179 0.255 0.441 0.44 0.741 0.522 3.205 0.874 6.351 2.549 6.351 3.38 0 1.376-0.196 2.566-0.363 3.333z"></path>
</svg>
