<?xml version="1.0" encoding="utf-8"?>
<!-- Generated by IcoMoon.io -->
<!DOCTYPE svg PUBLIC "-//W3C//DTD SVG 1.1//EN" "http://www.w3.org/Graphics/SVG/1.1/DTD/svg11.dtd">
<svg version="1.1" xmlns="http://www.w3.org/2000/svg" xmlns:xlink="http://www.w3.org/1999/xlink" width="32" height="32" viewBox="0 0 32 32">
<path fill="#333333" d="M26 15.333c2.573 0 4.667-2.093 4.667-4.667s-2.094-4.667-4.667-4.667-4.667 2.093-4.667 4.667 2.094 4.667 4.667 4.667zM26 8.667c1.103 0 2 0.897 2 2s-0.897 2-2 2-2-0.897-2-2 0.897-2 2-2z"></path>
<path fill="#333333" d="M28 24c-5.239 0-5.332-6.397-5.333-6.667 0-0.354-0.141-0.693-0.391-0.943s-0.589-0.391-0.943-0.391h-6.667c-3.863 0-6.667 3.084-6.667 7.333 0 0.598-0.069 0.667-0.667 0.667h-4c-0.736 0-1.333 0.597-1.333 1.333s0.597 1.333 1.333 1.333h4c2.056 0 3.333-1.277 3.333-3.333 0-2.323 1.237-4.667 4-4.667h5.437c0.113 0.853 0.347 2.013 0.832 3.179 1.295 3.109 3.804 4.821 7.065 4.821 0.736 0 1.333-0.597 1.333-1.333s-0.597-1.333-1.333-1.333z"></path>
</svg>
