<?xml version="1.0" encoding="utf-8"?>
<!-- Generated by IcoMoon.io -->
<!DOCTYPE svg PUBLIC "-//W3C//DTD SVG 1.1//EN" "http://www.w3.org/Graphics/SVG/1.1/DTD/svg11.dtd">
<svg version="1.1" xmlns="http://www.w3.org/2000/svg" xmlns:xlink="http://www.w3.org/1999/xlink" width="32" height="32" viewBox="0 0 32 32">
<path fill="#333333" d="M28 23.35v-11.35c0-3.719-2.555-6.845-6-7.737v-0.93c0-1.838-1.495-3.333-3.333-3.333h-5.333c-1.838 0-3.333 1.495-3.333 3.333v0.93c-3.445 0.891-6 4.017-6 7.737v11.35c-0.805 0.609-1.333 1.565-1.333 2.65v2.667c0 1.838 1.495 3.333 3.333 3.333h20c1.838 0 3.333-1.495 3.333-3.333v-2.667c0-1.085-0.529-2.041-1.333-2.65zM12.667 3.333c0-0.367 0.299-0.667 0.667-0.667h5.333c0.368 0 0.667 0.299 0.667 0.667v0.667h-6.667v-0.667zM12 6.667h8c2.479 0 4.563 1.703 5.158 4h-18.316c0.595-2.297 2.679-4 5.158-4zM6.667 13.333h18.667v9.333h-18.667v-9.333zM9.333 29.333h-3.333c-0.368 0-0.667-0.299-0.667-0.667v-2.667c0-0.367 0.299-0.667 0.667-0.667h3.333v4zM20 29.333h-8v-4h8v4zM26.667 28.667c0 0.367-0.299 0.667-0.667 0.667h-3.333v-4h3.333c0.368 0 0.667 0.299 0.667 0.667v2.667z"></path>
<path fill="#333333" d="M17.667 16.667c0 0.92-0.746 1.667-1.667 1.667s-1.667-0.746-1.667-1.667c0-0.92 0.746-1.667 1.667-1.667s1.667 0.746 1.667 1.667z"></path>
</svg>
