<?xml version="1.0" encoding="utf-8"?>
<!-- Generated by IcoMoon.io -->
<!DOCTYPE svg PUBLIC "-//W3C//DTD SVG 1.1//EN" "http://www.w3.org/Graphics/SVG/1.1/DTD/svg11.dtd">
<svg version="1.1" xmlns="http://www.w3.org/2000/svg" xmlns:xlink="http://www.w3.org/1999/xlink" width="32" height="32" viewBox="0 0 32 32">
<path fill="#333333" d="M26 2h-20c-2.209 0-4 1.791-4 4v20c0 2.209 1.791 4 4 4h20c2.209 0 4-1.792 4-4v-20c0-2.209-1.791-4-4-4zM14.115 16l-9.448 9.448v-18.896l9.448 9.448zM6.552 4.667h18.896l-9.448 9.448-9.448-9.448zM16 17.885l9.448 9.448h-18.896l9.448-9.448zM17.885 16l9.448-9.447v18.895l-9.448-9.448z"></path>
</svg>
