<?xml version="1.0" encoding="utf-8"?>
<!-- Generated by IcoMoon.io -->
<!DOCTYPE svg PUBLIC "-//W3C//DTD SVG 1.1//EN" "http://www.w3.org/Graphics/SVG/1.1/DTD/svg11.dtd">
<svg version="1.1" xmlns="http://www.w3.org/2000/svg" xmlns:xlink="http://www.w3.org/1999/xlink" width="32" height="32" viewBox="0 0 32 32">
<path fill="#333333" d="M15.999 1.333c-8.087 0-14.666 6.579-14.666 14.667s6.579 14.667 14.666 14.667c8.087 0 14.667-6.579 14.667-14.667s-6.58-14.667-14.667-14.667zM23.481 6.633l-7.481 7.482-7.481-7.482c2.053-1.643 4.652-2.633 7.481-2.633s5.428 0.99 7.481 2.633zM4 15.999c0-2.829 0.989-5.427 2.633-7.481l7.482 7.481-7.481 7.481c-1.643-2.053-2.633-4.652-2.633-7.481zM8.519 25.367l7.481-7.481 7.481 7.481c-2.054 1.643-4.653 2.633-7.481 2.633s-5.427-0.989-7.48-2.633zM25.367 23.481l-7.481-7.481 7.481-7.481c1.643 2.053 2.633 4.652 2.633 7.481s-0.99 5.428-2.633 7.481z"></path>
</svg>
