<?xml version="1.0" encoding="utf-8"?>
<!-- Generated by IcoMoon.io -->
<!DOCTYPE svg PUBLIC "-//W3C//DTD SVG 1.1//EN" "http://www.w3.org/Graphics/SVG/1.1/DTD/svg11.dtd">
<svg version="1.1" xmlns="http://www.w3.org/2000/svg" xmlns:xlink="http://www.w3.org/1999/xlink" width="32" height="32" viewBox="0 0 32 32">
<path fill="#333333" d="M26 13.333h-2.039l0.684-3.761c0.132-0.725-0.349-1.419-1.073-1.551-0.723-0.133-1.418 0.348-1.551 1.073l-0.771 4.239h-3.159l-0.78-4.241c-0.117-0.633-0.668-1.092-1.311-1.092 0 0-0.001 0-0.001 0-0.644 0.001-1.195 0.461-1.311 1.095l-0.771 4.239h-3.169l-0.771-4.239c-0.132-0.724-0.824-1.203-1.551-1.073-0.724 0.132-1.205 0.826-1.073 1.551l0.685 3.761h-2.039c-0.736 0-1.333 0.597-1.333 1.333s0.597 1.333 1.333 1.333h2.523l1.498 8.239c0.115 0.634 0.667 1.095 1.312 1.095h2c0.645 0 1.197-0.461 1.312-1.095l1.362-7.493 1.379 7.496c0.117 0.633 0.669 1.092 1.311 1.092h1.969c0.645 0 1.197-0.461 1.312-1.095l1.498-8.239h2.523c0.736 0 1.333-0.597 1.333-1.333s-0.597-1.333-1.333-1.333zM12.333 22.047l-1.099-6.047h2.199l-1.099 6.047zM19.68 21.971l-1.098-5.971h2.184l-1.086 5.971z"></path>
<path fill="#333333" d="M16 0.667c-8.455 0-15.333 6.879-15.333 15.333s6.879 15.333 15.333 15.333 15.333-6.879 15.333-15.333-6.879-15.333-15.333-15.333zM16 28.667c-6.985 0-12.667-5.682-12.667-12.667s5.682-12.667 12.667-12.667 12.667 5.682 12.667 12.667-5.682 12.667-12.667 12.667z"></path>
</svg>
