<?xml version="1.0" encoding="utf-8"?>
<!-- Generated by IcoMoon.io -->
<!DOCTYPE svg PUBLIC "-//W3C//DTD SVG 1.1//EN" "http://www.w3.org/Graphics/SVG/1.1/DTD/svg11.dtd">
<svg version="1.1" xmlns="http://www.w3.org/2000/svg" xmlns:xlink="http://www.w3.org/1999/xlink" width="32" height="32" viewBox="0 0 32 32">
<path fill="#333333" d="M31.218 8.786l-14.667-6.667c-0.35-0.159-0.753-0.159-1.103 0l-14.667 6.667c-0.477 0.217-0.782 0.691-0.782 1.214v2.667c0 0.736 0.597 1.333 1.333 1.333h2.667v11.333c0 0.736 0.597 1.333 1.333 1.333s1.333-0.597 1.333-1.333v-11.333h4v11.333c0 0.736 0.597 1.333 1.333 1.333s1.333-0.597 1.333-1.333v-11.333h5.333v11.333c0 0.736 0.597 1.333 1.333 1.333s1.333-0.597 1.333-1.333v-11.333h4v11.333c0 0.736 0.597 1.333 1.333 1.333s1.333-0.597 1.333-1.333v-11.333h2.667c0.736 0 1.333-0.597 1.333-1.333v-2.667c0-0.523-0.305-0.997-0.782-1.214zM29.333 11.333h-26.667v-0.475l13.333-6.061 13.333 6.061v0.475z"></path>
<path fill="#333333" d="M30.667 27.333h-29.333c-0.736 0-1.333 0.597-1.333 1.333s0.597 1.333 1.333 1.333h29.333c0.736 0 1.333-0.597 1.333-1.333s-0.597-1.333-1.333-1.333z"></path>
</svg>
