<?xml version="1.0" encoding="utf-8"?>
<!-- Generated by IcoMoon.io -->
<!DOCTYPE svg PUBLIC "-//W3C//DTD SVG 1.1//EN" "http://www.w3.org/Graphics/SVG/1.1/DTD/svg11.dtd">
<svg version="1.1" xmlns="http://www.w3.org/2000/svg" xmlns:xlink="http://www.w3.org/1999/xlink" width="32" height="32" viewBox="0 0 32 32">
<path fill="#333333" d="M2 4c-0.736 0-1.333 0.597-1.333 1.333v22c0 0.736 0.597 1.333 1.333 1.333s1.333-0.597 1.333-1.333v-22c0-0.736-0.597-1.333-1.333-1.333z"></path>
<path fill="#333333" d="M11.333 4c-0.736 0-1.333 0.597-1.333 1.333v18.222c0 0.736 0.597 1.333 1.333 1.333s1.333-0.597 1.333-1.333v-18.222c0-0.736-0.597-1.333-1.333-1.333z"></path>
<path fill="#333333" d="M6.667 4c-0.736 0-1.333 0.597-1.333 1.333v18.222c0 0.736 0.597 1.333 1.333 1.333s1.333-0.597 1.333-1.333v-18.222c0-0.736-0.597-1.333-1.333-1.333z"></path>
<path fill="#333333" d="M16 4c-0.736 0-1.333 0.597-1.333 1.333v18.222c0 0.736 0.597 1.333 1.333 1.333s1.333-0.597 1.333-1.333v-18.222c0-0.736-0.597-1.333-1.333-1.333z"></path>
<path fill="#333333" d="M20.667 4c-0.736 0-1.333 0.597-1.333 1.333v18.222c0 0.736 0.597 1.333 1.333 1.333s1.333-0.597 1.333-1.333v-18.222c0-0.736-0.597-1.333-1.333-1.333z"></path>
<path fill="#333333" d="M25.333 4c-0.736 0-1.333 0.597-1.333 1.333v18.222c0 0.736 0.597 1.333 1.333 1.333s1.333-0.597 1.333-1.333v-18.222c0-0.736-0.597-1.333-1.333-1.333z"></path>
<path fill="#333333" d="M30 4c-0.736 0-1.333 0.597-1.333 1.333v22c0 0.736 0.597 1.333 1.333 1.333s1.333-0.597 1.333-1.333v-22c0-0.736-0.597-1.333-1.333-1.333z"></path>
</svg>
