<?xml version="1.0" encoding="utf-8"?>
<!-- Generated by IcoMoon.io -->
<!DOCTYPE svg PUBLIC "-//W3C//DTD SVG 1.1//EN" "http://www.w3.org/Graphics/SVG/1.1/DTD/svg11.dtd">
<svg version="1.1" xmlns="http://www.w3.org/2000/svg" xmlns:xlink="http://www.w3.org/1999/xlink" width="32" height="32" viewBox="0 0 32 32">
<path fill="#333333" d="M31.653 19.503l-8.858-9.745c-0.297-0.275-0.692-0.447-1.129-0.447-0.921 0-1.667 0.746-1.667 1.667v2.088c0 0.773-0.783 1.6-1.333 1.6h-5.333c-1.941 0-3.722 1.749-3.971 3.783l-6.227-6.85 6.229-6.852c0.255 2.005 2.065 3.785 3.969 3.785h6.667c0.736 0 1.333-0.597 1.333-1.333s-0.597-1.333-1.333-1.333h-6.667c-0.539 0-1.333-0.843-1.333-1.6v-2.933c0-0.551-0.339-1.045-0.853-1.243s-1.097-0.061-1.467 0.347l-9.333 10.267c-0.462 0.509-0.462 1.285 0 1.793l8.821 9.701c0.301 0.295 0.711 0.478 1.167 0.478 0.921 0 1.667-0.746 1.667-1.667v-2.076c0-0.763 0.698-1.6 1.333-1.6h5.333c1.905 0 3.713-1.779 3.969-3.785l6.228 6.852-6.229 6.852c-0.256-2.005-2.065-3.785-3.969-3.785h-6.667c-0.736 0-1.333 0.597-1.333 1.333s0.597 1.333 1.333 1.333h6.667c0.551 0 1.333 0.827 1.333 1.6v2.933c0 0.551 0.339 1.045 0.853 1.243 0.157 0.061 0.319 0.090 0.481 0.090 0.369 0 0.729-0.153 0.987-0.437l9.333-10.267c0.462-0.508 0.462-1.285 0-1.793z"></path>
</svg>
