<?xml version="1.0" encoding="utf-8"?>
<!-- Generated by IcoMoon.io -->
<!DOCTYPE svg PUBLIC "-//W3C//DTD SVG 1.1//EN" "http://www.w3.org/Graphics/SVG/1.1/DTD/svg11.dtd">
<svg version="1.1" xmlns="http://www.w3.org/2000/svg" xmlns:xlink="http://www.w3.org/1999/xlink" width="32" height="32" viewBox="0 0 32 32">
<path fill="#333333" d="M30.345 11.132c-0.253-0.295-0.623-0.465-1.012-0.465h-6.667v-4c0-3.676-2.991-6.667-6.667-6.667s-6.667 2.991-6.667 6.667v4h-6.667c-0.389 0-0.759 0.17-1.012 0.465s-0.365 0.687-0.306 1.071l2.667 17.333c0.101 0.651 0.66 1.131 1.318 1.131h21.333c0.658 0 1.217-0.48 1.318-1.131l2.667-17.333c0.059-0.384-0.053-0.775-0.306-1.071zM17.333 28v-14.667h4.504l-1.692 14.667h-2.812zM11.855 28l-1.692-14.667h4.503v14.667h-2.811zM12 6.667c0-2.206 1.794-4 4-4s4 1.794 4 4v4h-8v-4zM4.22 13.333h3.258l1.692 14.667h-2.693l-2.257-14.667zM25.523 28h-2.693l1.692-14.667h3.258l-2.257 14.667z"></path>
</svg>
