<?xml version="1.0" encoding="utf-8"?>
<!-- Generated by IcoMoon.io -->
<!DOCTYPE svg PUBLIC "-//W3C//DTD SVG 1.1//EN" "http://www.w3.org/Graphics/SVG/1.1/DTD/svg11.dtd">
<svg version="1.1" xmlns="http://www.w3.org/2000/svg" xmlns:xlink="http://www.w3.org/1999/xlink" width="32" height="32" viewBox="0 0 32 32">
<path fill="#333333" d="M6.667 10c-0.736 0-1.333 0.597-1.333 1.333v9.333c0 0.736 0.597 1.333 1.333 1.333s1.333-0.597 1.333-1.333v-9.333c0-0.736-0.597-1.333-1.333-1.333z"></path>
<path fill="#333333" d="M12.001 10c-0.736 0-1.333 0.597-1.333 1.333v9.333c0 0.736 0.597 1.333 1.333 1.333s1.333-0.597 1.333-1.333v-9.333c0-0.736-0.597-1.333-1.333-1.333z"></path>
<path fill="#333333" d="M17.334 10c-0.736 0-1.333 0.597-1.333 1.333v9.333c0 0.736 0.597 1.333 1.333 1.333s1.333-0.597 1.333-1.333v-9.333c0-0.736-0.597-1.333-1.333-1.333z"></path>
<path fill="#333333" d="M22.667 10c-0.736 0-1.333 0.597-1.333 1.333v9.333c0 0.736 0.597 1.333 1.333 1.333s1.333-0.597 1.333-1.333v-9.333c0-0.736-0.597-1.333-1.333-1.333z"></path>
<path fill="#333333" d="M30.001 10.333h-0.667v-2.944c0-1.134-0.897-2.056-2-2.056h-25.333c-1.103 0-2 0.922-2 2.056v17.223c0 1.133 0.897 2.055 2 2.055h25.333c1.103 0 2-0.922 2-2.055v-2.945h0.667c1.103 0 2-0.922 2-2.055v-7.223c0-1.134-0.897-2.056-2-2.056zM29.334 19h-2.667v5h-24v-16h24v5h2.667v6z"></path>
</svg>
