<?xml version="1.0" encoding="utf-8"?>
<!-- Generated by IcoMoon.io -->
<!DOCTYPE svg PUBLIC "-//W3C//DTD SVG 1.1//EN" "http://www.w3.org/Graphics/SVG/1.1/DTD/svg11.dtd">
<svg version="1.1" xmlns="http://www.w3.org/2000/svg" xmlns:xlink="http://www.w3.org/1999/xlink" width="32" height="32" viewBox="0 0 32 32">
<path fill="#333333" d="M14.11 15.104c0 0 2.413-0.769 2.273-3.847-0.139-3.076-2.273-3.741-3.916-4.021h-9.79v17.272h8.879c0 0 5.63 0.211 5.63-5.138 0 0 0.29-3.238-3.076-4.266zM6.484 10.209h4.338c1.714 0 1.819 1.94 1.819 1.94 0 2.011-2.168 1.94-2.168 1.94h-3.99v-3.88zM11.242 21.537h-4.757v-4.721h4.723c0 0 2.204 0.315 2.204 2.36 0.002 2.047-2.169 2.36-2.169 2.36z"></path>
<path fill="#333333" d="M24.53 11.573c0 0-5.979 0.14-6.293 6.573 0 0 0 1.259 0.313 2.413 0.313 1.153 1.993 4.231 6.26 4.231 4.266 0 5.419-3.182 5.838-4.196h-3.113c0 0-0.802 1.679-2.796 1.679-1.993 0-2.972-1.714-3.005-3.094h9.092c-0.002 0 0.592-7.606-6.296-7.606zM21.734 16.818c0 0 0.383-2.552 2.832-2.552 0 0 2.445-0.211 2.761 2.552h-5.593z"></path>
<path fill="#333333" d="M21.066 8.355h6.994v1.854h-6.994v-1.854z"></path>
</svg>
