<?xml version="1.0" encoding="utf-8"?>
<!-- Generated by IcoMoon.io -->
<!DOCTYPE svg PUBLIC "-//W3C//DTD SVG 1.1//EN" "http://www.w3.org/Graphics/SVG/1.1/DTD/svg11.dtd">
<svg version="1.1" xmlns="http://www.w3.org/2000/svg" xmlns:xlink="http://www.w3.org/1999/xlink" width="32" height="32" viewBox="0 0 32 32">
<path fill="#333333" d="M2.691 30.667c0.341 0 0.683-0.13 0.943-0.391l26.667-26.667c0.521-0.521 0.521-1.365 0-1.885s-1.365-0.521-1.885 0l-26.667 26.667c-0.521 0.521-0.521 1.365 0 1.885 0.26 0.261 0.601 0.391 0.943 0.391z"></path>
<path fill="#333333" d="M20.645 27.333h8.073c0.736 0 1.332-0.595 1.333-1.331 0.001-0.609-0.406-1.125-0.965-1.285-0.225-0.531-0.349-2.002-0.263-3.34 0.131-3.89-0.207-7.128-0.982-9.731l0.004 0.001c0 0-0.063-0.419-0.207-0.794-0.016-0.043-0.036-0.085-0.057-0.127-0.068-0.15-0.151-0.278-0.25-0.36-0.005-0.005-0.011-0.009-0.015-0.014-0.007-0.006-0.013-0.015-0.020-0.019-0.003-0.002-0.005-0.002-0.007-0.003-0.245-0.229-0.573-0.373-0.935-0.373-0.759 0-1.375 0.616-1.375 1.375 0 0.255 0.074 0.49 0.195 0.695 0.682 2.075 1.127 5.009 0.986 9.217-0.049 0.746-0.091 2.156 0.161 3.422h-15.404c-0.736 0-1.333 0.597-1.333 1.333s0.597 1.333 1.333 1.333h0.395c0 2.577 2.089 4.667 4.667 4.667 2.577 0 4.667-2.089 4.667-4.667zM14.001 27.333h3.955c0.014 0.093 0.023 0.188 0.023 0.285 0 1.105-0.896 2-2 2s-2-0.895-2-2c0-0.097 0.009-0.192 0.022-0.285z"></path>
<path fill="#333333" d="M21.085 4.441c-0.014-0.018-0.025-0.030-0.025-0.030-0.194-1.177-0.675-2.155-1.435-2.915-1.454-1.451-3.347-1.495-3.573-1.495 0 0-0.002 0-0.003 0-0.008 0-0.015 0.003-0.023 0.003-0.009 0-0.017-0.003-0.025-0.003-0.001 0-0.002 0-0.002 0-0.227 0-2.121 0.045-3.573 1.495-0.762 0.761-1.242 1.737-1.435 2.915-0.987 0.165-2.364 0.625-3.691 1.839-2.756 2.525-4.132 5.803-4.098 12.417 0.003 0.465 0.011 0.937 0.027 1.422 0.027 0.406 0.030 0.166 0.018 0.578h0.015c-0.001 0.017-0.005 0.035-0.005 0.052 0 0.736 0.597 1.333 1.333 1.333s1.333-0.597 1.333-1.333c0-0.017-0.005-0.035-0.005-0.052h0.005c0.010-0.552-0.011-0.375-0.033-0.711-0.015-0.445-0.020-0.871-0.023-1.289-0.043-7.128 1.673-8.978 3.171-10.392 1.488-1.405 2.983-1.289 3.026-1.285 0.379 0.047 0.759-0.072 1.045-0.325s0.449-0.617 0.449-0.998c0-2.733 1.872-2.987 2.45-3 0.007 0 0.013-0.002 0.021-0.003 0.008 0.001 0.014 0.003 0.022 0.003 0 0 0.001 0 0.003 0 0.009 0 0.999 0.029 1.687 0.716 0.484 0.483 0.731 1.227 0.745 2.201 0 0.009-0.003 0.017-0.003 0.027 0 0.15 0.029 0.291 0.069 0.427 0.013 0.040 0.022 0.081 0.037 0.119 0.041 0.098 0.097 0.189 0.159 0.275 0.267 0.403 0.713 0.679 1.235 0.679 0.829 0 1.5-0.672 1.5-1.5 0-0.013-0.003-0.023-0.003-0.036s0.003-0.022 0.003-0.037c0-0.571-0.309-0.989-0.398-1.097z"></path>
</svg>
