<?xml version="1.0" encoding="utf-8"?>
<!-- Generated by IcoMoon.io -->
<!DOCTYPE svg PUBLIC "-//W3C//DTD SVG 1.1//EN" "http://www.w3.org/Graphics/SVG/1.1/DTD/svg11.dtd">
<svg version="1.1" xmlns="http://www.w3.org/2000/svg" xmlns:xlink="http://www.w3.org/1999/xlink" width="32" height="32" viewBox="0 0 32 32">
<path fill="#333333" d="M20.358 27.313h8.073c0.736 0 1.332-0.595 1.333-1.331 0.001-0.609-0.406-1.125-0.964-1.285-0.226-0.531-0.349-2.002-0.263-3.34 0.247-7.336-1.125-12.426-4.073-15.128-1.326-1.215-2.703-1.674-3.69-1.839-0.194-1.178-0.675-2.155-1.435-2.915-1.454-1.451-3.347-1.495-3.573-1.495-0.001 0-0.003 0-0.003 0-0.009 0-0.017 0.003-0.025 0.003s-0.016-0.003-0.025-0.003c0 0-0.001 0-0.003 0-0.226 0-2.12 0.045-3.573 1.495-0.761 0.761-1.241 1.737-1.435 2.915-0.987 0.165-2.365 0.625-3.691 1.839-2.949 2.703-4.319 7.792-4.071 15.172 0.085 1.273-0.042 2.764-0.265 3.297-0.558 0.16-0.965 0.675-0.964 1.284 0.002 0.736 0.598 1.331 1.333 1.331h7.98c0 2.577 2.089 4.667 4.667 4.667s4.665-2.089 4.665-4.667zM13.714 27.313h3.955c0.014 0.093 0.023 0.188 0.023 0.285 0 1.105-0.896 2-2 2s-2-0.895-2-2c0-0.097 0.009-0.193 0.023-0.285zM5.441 24.646c0.253-1.261 0.211-2.659 0.163-3.378-0.27-8.043 1.563-11.517 3.147-13.014 1.488-1.405 2.983-1.289 3.026-1.285 0.38 0.047 0.76-0.072 1.045-0.325s0.449-0.617 0.449-0.998c0-2.733 1.872-2.987 2.449-3 0.007 0 0.014-0.002 0.021-0.003 0.008 0.001 0.015 0.003 0.022 0.003 0.001 0 0.002 0 0.002 0 0.011 0 0.999 0.029 1.688 0.716 0.497 0.497 0.75 1.265 0.75 2.284 0 0.381 0.163 0.745 0.449 0.998s0.665 0.375 1.045 0.325c0.015-0.002 1.502-0.113 2.964 1.226 1.615 1.48 3.482 4.949 3.211 13.029-0.049 0.746-0.091 2.156 0.162 3.422h-20.593z"></path>
</svg>
