<?xml version="1.0" encoding="utf-8"?>
<!-- Generated by IcoMoon.io -->
<!DOCTYPE svg PUBLIC "-//W3C//DTD SVG 1.1//EN" "http://www.w3.org/Graphics/SVG/1.1/DTD/svg11.dtd">
<svg version="1.1" xmlns="http://www.w3.org/2000/svg" xmlns:xlink="http://www.w3.org/1999/xlink" width="32" height="32" viewBox="0 0 32 32">
<path fill="#333333" d="M6.666 17.333c-3.675 0-6.666 2.991-6.666 6.667s2.991 6.667 6.667 6.667c3.676 0 6.667-2.991 6.667-6.667s-2.991-6.667-6.667-6.667zM6.666 28c-2.205 0-4-1.794-4-4s1.794-4 4-4c2.206 0 4 1.794 4 4s-1.794 4-4 4z"></path>
<path fill="#333333" d="M25.333 17.333c-0.097 0-0.192 0.011-0.289 0.015l-0.418-1.671c-0.179-0.715-0.903-1.148-1.617-0.971-0.715 0.179-1.149 0.903-0.971 1.617l0.418 1.671c-2.237 1.077-3.79 3.361-3.79 6.006 0 3.676 2.991 6.667 6.667 6.667s6.667-2.991 6.667-6.667-2.991-6.667-6.667-6.667zM25.333 28c-2.205 0-4-1.794-4-4s1.794-4 4-4c2.206 0 4 1.794 4 4s-1.794 4-4 4z"></path>
<path fill="#333333" d="M12.647 14.877l2.717-3.736c1.089 1.582 3.026 3.526 5.969 3.526 0.736 0 1.333-0.597 1.333-1.333s-0.597-1.333-1.333-1.333c-3.025 0-4.562-3.783-4.575-3.817-0.177-0.454-0.588-0.776-1.071-0.838-0.482-0.062-0.963 0.143-1.25 0.538l-4.849 6.667c-0.235 0.324-0.313 0.737-0.211 1.124s0.373 0.709 0.737 0.874c6.179 2.808 4.665 8.851 4.599 9.102-0.194 0.711 0.225 1.443 0.935 1.637 0.118 0.032 0.236 0.047 0.352 0.047 0.587 0 1.124-0.39 1.286-0.983 0.733-2.689 0.582-8.264-4.639-11.474z"></path>
<path fill="#333333" d="M20 8c2.206 0 4-1.794 4-4s-1.794-4-4-4-4 1.794-4 4 1.794 4 4 4zM20 2.667c0.735 0 1.333 0.598 1.333 1.333s-0.598 1.333-1.333 1.333-1.333-0.598-1.333-1.333 0.598-1.333 1.333-1.333z"></path>
</svg>
