<?xml version="1.0" encoding="utf-8"?>
<!-- Generated by IcoMoon.io -->
<!DOCTYPE svg PUBLIC "-//W3C//DTD SVG 1.1//EN" "http://www.w3.org/Graphics/SVG/1.1/DTD/svg11.dtd">
<svg version="1.1" xmlns="http://www.w3.org/2000/svg" xmlns:xlink="http://www.w3.org/1999/xlink" width="32" height="32" viewBox="0 0 32 32">
<path fill="#333333" d="M23.333 12.667c-0.173 0-0.343 0.016-0.514 0.026l-1.526-7.016c-0.318-1.272-1.694-3.677-4.627-3.677h-2c-0.736 0-1.333 0.597-1.333 1.333s0.597 1.333 1.333 1.333h2c1.544 0 1.997 1.499 2.030 1.617l0.537 2.467c-1.517 0.236-5.261 1.135-8.765 4.433-0.507-1.313-1.881-3.183-4.468-3.183h-1.333c-0.736 0-1.333 0.597-1.333 1.333s0.597 1.333 1.333 1.333h1.333c1.544 0 1.997 1.499 2.028 1.607l0.279 1.329c-0.683 0.911-1.331 1.947-1.927 3.113-0.235-0.030-0.472-0.050-0.714-0.050-3.125 0-5.667 2.542-5.667 5.667s2.542 5.667 5.667 5.667 5.667-2.542 5.667-5.667c0-1.929-0.97-3.632-2.445-4.656 3.703-6.976 9.551-8.137 10.913-8.316l0.412 1.896c-3.24 1.256-5.547 4.398-5.547 8.076 0 4.779 3.888 8.667 8.667 8.667s8.667-3.888 8.667-8.667-3.888-8.667-8.667-8.667zM8.667 24.333c0 1.654-1.346 3-3 3s-3-1.346-3-3c0-1.498 1.106-2.731 2.543-2.954-0.303 0.817-0.583 1.683-0.831 2.608-0.191 0.711 0.231 1.443 0.943 1.633 0.115 0.032 0.232 0.046 0.346 0.046 0.588 0 1.127-0.393 1.287-0.988 0.239-0.889 0.511-1.714 0.805-2.489 0.559 0.545 0.908 1.303 0.908 2.143zM23.333 27.333c-3.308 0-6-2.691-6-6 0-2.398 1.417-4.466 3.456-5.426l1.241 5.709c0.135 0.625 0.688 1.051 1.301 1.051 0.094 0 0.189-0.010 0.285-0.031 0.72-0.156 1.176-0.867 1.020-1.586l-1.243-5.713c3.28 0.033 5.939 2.709 5.939 5.997 0 3.309-2.692 6-6 6z"></path>
</svg>
