<?xml version="1.0" encoding="utf-8"?>
<!-- Generated by IcoMoon.io -->
<!DOCTYPE svg PUBLIC "-//W3C//DTD SVG 1.1//EN" "http://www.w3.org/Graphics/SVG/1.1/DTD/svg11.dtd">
<svg version="1.1" xmlns="http://www.w3.org/2000/svg" xmlns:xlink="http://www.w3.org/1999/xlink" width="32" height="32" viewBox="0 0 32 32">
<path fill="#333333" d="M12.989 10.34c-0.187 0.131-0.375 0.26-0.564 0.391-2.195 1.52-3.195 4.191-2.541 6.777 0.629 2.491 2.821 4.404 5.403 4.709 2.972 0.353 5.867-1.524 6.752-4.375 1.549-5.001-0.139-10.18-4.337-13.319-0.124-0.092-0.233-0.203-0.351-0.304 0.016-0.041 0.031-0.081 0.047-0.123 0.188 0 0.379-0.025 0.563 0.003 5.311 0.824 9.487 5.344 9.987 10.667 0.56 5.959-3.364 11.6-9.524 12.912-6.641 1.417-13.339-3.259-14.249-9.972-0.027-0.197-0.041-0.399-0.085-0.595-0.352-1.552 0.416-2.633 1.468-3.632 1.964-1.865 4.268-2.999 6.959-3.339 0.148-0.019 0.303 0.028 0.455 0.043 0.004 0.053 0.012 0.104 0.020 0.156z"></path>
<path fill="#333333" d="M21.021 11.807c-0.156-0.109-0.323-0.207-0.467-0.329-2.413-2.043-5.201-3.024-8.357-2.901-2.323 0.091-4.443 0.829-6.359 2.153-0.148 0.103-0.349 0.129-0.527 0.191 0.031-0.199 0.013-0.425 0.104-0.592 1.557-2.879 3.901-4.825 7.016-5.829 0.22-0.071 0.497-0.072 0.721-0.009 3.664 1.028 6.268 3.296 7.844 6.751 0.071 0.153 0.084 0.332 0.125 0.497-0.035 0.024-0.068 0.045-0.101 0.069z"></path>
</svg>
