<?xml version="1.0" encoding="utf-8"?>
<!-- Generated by IcoMoon.io -->
<!DOCTYPE svg PUBLIC "-//W3C//DTD SVG 1.1//EN" "http://www.w3.org/Graphics/SVG/1.1/DTD/svg11.dtd">
<svg version="1.1" xmlns="http://www.w3.org/2000/svg" xmlns:xlink="http://www.w3.org/1999/xlink" width="32" height="32" viewBox="0 0 32 32">
<path fill="#333333" d="M26.369 13.803c-0.352-0.352-0.838-0.367-0.838-0.367h-1.272c0 0-0.552 0.050-0.973-0.369-0.418-0.42-0.401-1.038-0.401-1.038s0.136-2.112-1.574-4.289c-1.709-2.178-4.592-2.479-4.592-2.479h-4.658c0 0-2.614-0.201-4.757 1.943-2.143 2.145-2.078 4.792-2.078 4.792v8.142c0.603 6.199 6.233 6.634 6.233 6.634h9.18c5.798-0.938 6.131-6.232 6.131-6.232v-5.764c0-0.267-0.050-0.618-0.403-0.972zM12.096 10.788h4.022c0 0 1.171 0.168 1.171 1.376 0 1.205-1.14 1.272-1.14 1.272h-4.287c0 0-1.006-0.27-1.006-1.272 0-0.001-0.068-1.141 1.239-1.376zM20.171 21.208h-8.21c0 0-1.105-0.268-1.105-1.139 0 0-0.302-1.038 1.038-1.409h8.075c0 0 1.239 0.136 1.239 1.174 0 0 0.134 1.105-1.038 1.373z"></path>
</svg>
