<?xml version="1.0" encoding="utf-8"?>
<!-- Generated by IcoMoon.io -->
<!DOCTYPE svg PUBLIC "-//W3C//DTD SVG 1.1//EN" "http://www.w3.org/Graphics/SVG/1.1/DTD/svg11.dtd">
<svg version="1.1" xmlns="http://www.w3.org/2000/svg" xmlns:xlink="http://www.w3.org/1999/xlink" width="32" height="32" viewBox="0 0 32 32">
<path fill="#333333" d="M26.665 22.645c0-0.233-0.017-0.463-0.041-0.691-0.007-0.066-0.014-0.132-0.022-0.198-0.029-0.216-0.066-0.43-0.114-0.64-0.017-0.075-0.040-0.149-0.059-0.224-0.039-0.145-0.082-0.29-0.13-0.431-0.029-0.089-0.057-0.179-0.090-0.265-0.067-0.175-0.141-0.347-0.22-0.515-0.051-0.109-0.107-0.216-0.163-0.321-0.043-0.083-0.090-0.163-0.136-0.243-0.12-0.207-0.249-0.408-0.389-0.604-0.030-0.042-0.059-0.084-0.089-0.125-0.095-0.127-0.193-0.253-0.295-0.375-0.001-0.001-0.001-0.001-0.001-0.001-0.219-0.261-0.457-0.51-0.709-0.746-0.001-0.002-0.003-0.003-0.005-0.004-0.508-0.475-1.076-0.901-1.704-1.259-0.139-0.079-0.285-0.151-0.429-0.223 1.978-1.457 3.267-3.794 3.267-6.439 0-4.388-3.535-7.287-7.912-7.335-0.030-0.001-0.059-0.005-0.090-0.005-0.007 0-0.013 0.001-0.019 0.001h-6.64c-0.003-0.001-0.005-0.001-0.007-0.001s-0.005 0-0.007 0.001h-3.993c-0.736 0-1.333 0.597-1.333 1.333s0.597 1.333 1.333 1.333h1.333v23.339h-1.333c-0.736 0-1.333 0.597-1.333 1.333s0.597 1.333 1.333 1.333h10.659c0.002 0 0.005 0.001 0.007 0.001 5.155 0 9.333-3.582 9.333-8.001v-0.006c0 0 0-0.003 0-0.004 0-0.006-0.001-0.012-0.001-0.018zM11.333 4.667l6-0.001c2.946 0 5.334 1.728 5.334 4.674 0 2.907-2.325 5.265-5.217 5.328-0.040-0.001-0.077-0.005-0.117-0.005s-0.077 0.005-0.117 0.005c-0.046 0.001-0.092 0.005-0.139 0.006l-5.744-0.001c-0.369 0-0.667-0.299-0.667-0.667v-9.34h0.667zM17.333 28.007l-6.667-0.001v-10c0-0.368 0.297-0.665 0.665-0.666h6.001c0.004 0 0.008-0.001 0.012-0.001 3.677 0.005 6.655 2.391 6.655 5.333 0 2.946-2.985 5.334-6.667 5.334z"></path>
</svg>
