<?xml version="1.0" encoding="utf-8"?>
<!-- Generated by IcoMoon.io -->
<!DOCTYPE svg PUBLIC "-//W3C//DTD SVG 1.1//EN" "http://www.w3.org/Graphics/SVG/1.1/DTD/svg11.dtd">
<svg version="1.1" xmlns="http://www.w3.org/2000/svg" xmlns:xlink="http://www.w3.org/1999/xlink" width="32" height="32" viewBox="0 0 32 32">
<path fill="#333333" d="M24.685 2.667h-15.351c-2.431 0-4.001 1.57-4.001 4v22.667c0 0.501 0.281 0.961 0.729 1.188 0.191 0.097 0.398 0.145 0.605 0.145 0.277 0 0.552-0.086 0.785-0.255l6.549-4.763 6.549 4.763c0.406 0.295 0.944 0.337 1.389 0.11 0.447-0.228 0.729-0.687 0.729-1.189v-23.333c0-0.368 0.298-0.667 0.667-0.667h4.019c-0.001-1.333-1.334-2.667-2.667-2.667zM20 6v20.715l-5.215-3.793c-0.234-0.171-0.509-0.255-0.785-0.255s-0.551 0.085-0.785 0.255l-5.215 3.793v-20.049c0-0.693 0.161-1.333 1.334-1.333h10.736c-0.046 0.216-0.070 0.439-0.070 0.667z"></path>
</svg>
