<?xml version="1.0" encoding="utf-8"?>
<!-- Generated by IcoMoon.io -->
<!DOCTYPE svg PUBLIC "-//W3C//DTD SVG 1.1//EN" "http://www.w3.org/Graphics/SVG/1.1/DTD/svg11.dtd">
<svg version="1.1" xmlns="http://www.w3.org/2000/svg" xmlns:xlink="http://www.w3.org/1999/xlink" width="32" height="32" viewBox="0 0 32 32">
<path fill="#333333" d="M30.667 2.667h-9.333c-2.639 0-4.333 0.999-5.333 1.915-1-0.916-2.695-1.915-5.333-1.915h-9.333c-0.737 0-1.333 0.597-1.333 1.333v21.333c0 0.736 0.597 1.333 1.333 1.333h9.333c3.040 0 4.090 1.837 4.149 1.945 0.225 0.436 0.677 0.705 1.169 0.712 0.007 0 0.013 0 0.020 0 0.49 0 0.946-0.278 1.179-0.71 0.043-0.079 1.085-1.947 4.149-1.947h9.333c0.736 0 1.333-0.597 1.333-1.333v-21.333c0-0.736-0.597-1.333-1.333-1.333zM29.333 24h-8c-2.639 0-4.333 0.999-5.333 1.915-1-0.916-2.695-1.915-5.333-1.915h-8v-18.667h8c2.473 0 3.628 1.215 4 1.717v14.283c0 0.736 0.597 1.333 1.333 1.333s1.333-0.597 1.333-1.333v-14.279c0.381-0.515 1.536-1.721 4-1.721h8v18.667z"></path>
<path fill="#333333" d="M11.333 9.333h-5.333c-0.736 0-1.333 0.597-1.333 1.333s0.597 1.333 1.333 1.333h5.333c0.736 0 1.333-0.597 1.333-1.333s-0.597-1.333-1.333-1.333z"></path>
<path fill="#333333" d="M11.333 16h-5.333c-0.736 0-1.333 0.597-1.333 1.333s0.597 1.333 1.333 1.333h5.333c0.736 0 1.333-0.597 1.333-1.333s-0.597-1.333-1.333-1.333z"></path>
<path fill="#333333" d="M19.333 10.667c0 0.736 0.597 1.333 1.333 1.333h5.333c0.736 0 1.333-0.597 1.333-1.333s-0.597-1.333-1.333-1.333h-5.333c-0.737 0-1.333 0.597-1.333 1.333z"></path>
<path fill="#333333" d="M26 16h-5.333c-0.736 0-1.333 0.597-1.333 1.333s0.597 1.333 1.333 1.333h5.333c0.736 0 1.333-0.597 1.333-1.333s-0.597-1.333-1.333-1.333z"></path>
</svg>
