<?xml version="1.0" encoding="utf-8"?>
<!-- Generated by IcoMoon.io -->
<!DOCTYPE svg PUBLIC "-//W3C//DTD SVG 1.1//EN" "http://www.w3.org/Graphics/SVG/1.1/DTD/svg11.dtd">
<svg version="1.1" xmlns="http://www.w3.org/2000/svg" xmlns:xlink="http://www.w3.org/1999/xlink" width="32" height="32" viewBox="0 0 32 32">
<path fill="#333333" d="M31.951 7.659c-0.007-0.028-0.016-0.055-0.025-0.082-0.031-0.094-0.072-0.183-0.123-0.267-0.008-0.013-0.013-0.027-0.022-0.041-0.061-0.093-0.135-0.175-0.217-0.25-0.020-0.019-0.041-0.035-0.063-0.052-0.078-0.063-0.162-0.118-0.253-0.163-0.011-0.005-0.019-0.014-0.030-0.019l-14.667-6.667c-0.35-0.159-0.753-0.159-1.103 0l-14.667 6.667c-0.011 0.005-0.019 0.014-0.030 0.019-0.091 0.044-0.175 0.099-0.253 0.163-0.021 0.017-0.043 0.033-0.063 0.052-0.082 0.075-0.156 0.157-0.217 0.25-0.009 0.013-0.014 0.027-0.022 0.040-0.051 0.083-0.091 0.173-0.123 0.267-0.009 0.027-0.018 0.054-0.025 0.082-0.029 0.109-0.049 0.222-0.049 0.341v14.667c0 0.488 0.266 0.937 0.695 1.171l14.667 8c0.015 0.008 0.031 0.011 0.047 0.018 0.067 0.033 0.137 0.060 0.21 0.082 0.027 0.008 0.053 0.019 0.080 0.025 0.097 0.023 0.197 0.038 0.302 0.038s0.205-0.015 0.303-0.038c0.027-0.006 0.053-0.017 0.080-0.025 0.073-0.022 0.143-0.049 0.21-0.082 0.015-0.007 0.031-0.010 0.047-0.018l14.667-8c0.428-0.234 0.694-0.683 0.694-1.171v-14.667c0-0.119-0.021-0.231-0.049-0.341zM16 13.202l-4.111-1.869 11.445-5.202 4.111 1.869-11.445 5.202zM16 2.798l4.111 1.869-11.445 5.202-4.111-1.869 11.445-5.202zM2.667 10.071l4.667 2.121v3.869l2.667 1.212v-3.869l4.667 2.121v12.895l-12-6.545v-11.805zM17.333 28.421v-12.895l12-5.455v11.805l-12 6.545z"></path>
</svg>
