<?xml version="1.0" encoding="utf-8"?>
<!-- Generated by IcoMoon.io -->
<!DOCTYPE svg PUBLIC "-//W3C//DTD SVG 1.1//EN" "http://www.w3.org/Graphics/SVG/1.1/DTD/svg11.dtd">
<svg version="1.1" xmlns="http://www.w3.org/2000/svg" xmlns:xlink="http://www.w3.org/1999/xlink" width="32" height="32" viewBox="0 0 32 32">
<path fill="#333333" d="M28 6.667h-6v-0.667c0-2.573-2.094-4.667-4.667-4.667h-2.667c-2.573 0-4.667 2.093-4.667 4.667v0.667h-6c-1.838 0-3.333 1.495-3.333 3.333v17.333c0 1.838 1.495 3.333 3.333 3.333h24c1.838 0 3.333-1.495 3.333-3.333v-17.333c0-1.838-1.495-3.333-3.333-3.333zM21.333 9.333v18.667h-10.667v-18.667h10.667zM12.667 6c0-1.103 0.897-2 2-2h2.667c1.103 0 2 0.897 2 2v0.667h-6.667v-0.667zM3.333 27.333v-17.333c0-0.367 0.299-0.667 0.667-0.667h4v18.667h-4c-0.368 0-0.667-0.299-0.667-0.667zM28.667 27.333c0 0.367-0.299 0.667-0.667 0.667h-4v-18.667h4c0.368 0 0.667 0.299 0.667 0.667v17.333z"></path>
</svg>
