<?xml version="1.0" encoding="utf-8"?>
<!-- Generated by IcoMoon.io -->
<!DOCTYPE svg PUBLIC "-//W3C//DTD SVG 1.1//EN" "http://www.w3.org/Graphics/SVG/1.1/DTD/svg11.dtd">
<svg version="1.1" xmlns="http://www.w3.org/2000/svg" xmlns:xlink="http://www.w3.org/1999/xlink" width="32" height="32" viewBox="0 0 32 32">
<path fill="#333333" d="M24.667 5.333h-18c-4.915 0-6.667 3.444-6.667 6.667v12c0 0.736 0.597 1.333 1.333 1.333h2.879c0.564 1.739 2.197 3 4.121 3s3.557-1.261 4.121-3h7.091c0.564 1.739 2.197 3 4.121 3s3.557-1.261 4.121-3h0.212c2.935 0 4-2.392 4-4v-4c-0.001-2.443-1.915-12-7.334-12zM6.667 8h18c1.971 0 3.593 3.673 4.294 6.667h-4.961v-2.667c0-0.736-0.597-1.333-1.333-1.333s-1.333 0.597-1.333 1.333v2.667h-5.333v-2.667c0-0.736-0.597-1.333-1.333-1.333s-1.333 0.597-1.333 1.333v2.667h-5.333v-2.667c0-0.736-0.597-1.333-1.333-1.333s-1.333 0.597-1.333 1.333v2.667h-2.667v-2.667c0-1.825 0.694-4 4-4zM8.333 25.667c-0.919 0-1.667-0.748-1.667-1.667s0.748-1.667 1.667-1.667 1.667 0.748 1.667 1.667-0.748 1.667-1.667 1.667zM23.667 25.667c-0.919 0-1.667-0.748-1.667-1.667s0.748-1.667 1.667-1.667 1.667 0.748 1.667 1.667-0.748 1.667-1.667 1.667zM29.334 21.318c-0.015 0.615-0.259 1.349-1.333 1.349h-0.212c-0.564-1.739-2.197-3-4.121-3s-3.557 1.261-4.121 3h-7.091c-0.564-1.739-2.197-3-4.121-3s-3.557 1.261-4.121 3h-1.545v-5.333h26.667v3.985z"></path>
</svg>
