<?xml version="1.0" encoding="utf-8"?>
<!-- Generated by IcoMoon.io -->
<!DOCTYPE svg PUBLIC "-//W3C//DTD SVG 1.1//EN" "http://www.w3.org/Graphics/SVG/1.1/DTD/svg11.dtd">
<svg version="1.1" xmlns="http://www.w3.org/2000/svg" xmlns:xlink="http://www.w3.org/1999/xlink" width="32" height="32" viewBox="0 0 32 32">
<path fill="#333333" d="M10 21c0 0.92-0.746 1.667-1.667 1.667s-1.667-0.746-1.667-1.667c0-0.92 0.746-1.667 1.667-1.667s1.667 0.746 1.667 1.667z"></path>
<path fill="#333333" d="M25.333 21c0 0.92-0.746 1.667-1.667 1.667s-1.667-0.746-1.667-1.667c0-0.92 0.746-1.667 1.667-1.667s1.667 0.746 1.667 1.667z"></path>
<path fill="#333333" d="M24 0.667h-16c-2.941 0-5.333 2.393-5.333 5.333v22c0 1.838 1.495 3.333 3.333 3.333h1.333c1.838 0 3.333-1.495 3.333-3.333v-1.333h10.667v1.333c0 1.838 1.495 3.333 3.333 3.333h1.333c1.838 0 3.333-1.495 3.333-3.333v-22c0-2.941-2.393-5.333-5.333-5.333zM5.333 6c0-1.471 1.196-2.667 2.667-2.667h16c1.471 0 2.667 1.196 2.667 2.667v9.333h-21.333v-9.333zM8 28c0 0.367-0.299 0.667-0.667 0.667h-1.333c-0.367 0-0.667-0.299-0.667-0.667v-1.333h2.667v1.333zM5.333 24v-6h21.333v6h-21.333zM26 28.667h-1.333c-0.367 0-0.667-0.299-0.667-0.667v-1.333h2.667v1.333c0 0.367-0.299 0.667-0.667 0.667z"></path>
</svg>
