<?xml version="1.0" encoding="utf-8"?>
<!-- Generated by IcoMoon.io -->
<!DOCTYPE svg PUBLIC "-//W3C//DTD SVG 1.1//EN" "http://www.w3.org/Graphics/SVG/1.1/DTD/svg11.dtd">
<svg version="1.1" xmlns="http://www.w3.org/2000/svg" xmlns:xlink="http://www.w3.org/1999/xlink" width="32" height="32" viewBox="0 0 32 32">
<path fill="#333333" d="M15.976 2.667c3.747 0 6.905 1.285 9.476 3.857 2.587 2.587 3.881 5.745 3.881 9.476 0 3.747-1.269 6.865-3.809 9.357-2.699 2.651-5.881 3.976-9.548 3.976-3.604 0-6.731-1.309-9.381-3.929-2.619-2.619-3.928-5.753-3.928-9.404s1.309-6.809 3.928-9.476c2.572-2.572 5.7-3.857 9.381-3.857zM16.024 5.071c-3.031 0-5.595 1.064-7.691 3.191-2.175 2.223-3.261 4.801-3.261 7.739 0 2.952 1.080 5.508 3.239 7.667 2.159 2.16 4.731 3.239 7.713 3.239 2.969 0 5.556-1.087 7.763-3.261 2.095-2.016 3.141-4.563 3.141-7.643 0-3.032-1.064-5.611-3.191-7.739s-4.697-3.192-7.713-3.192zM19.595 12.691v5.452h-1.524v6.476h-4.143v-6.476h-1.523v-5.452c0-0.237 0.084-0.44 0.251-0.608 0.167-0.167 0.369-0.249 0.607-0.249h5.476c0.221 0 0.42 0.084 0.595 0.249 0.175 0.168 0.261 0.369 0.261 0.608zM14.143 9.261c0-1.253 0.62-1.881 1.857-1.881 1.239 0 1.859 0.627 1.859 1.881 0 1.239-0.62 1.857-1.859 1.857-1.237 0-1.857-0.619-1.857-1.857z"></path>
</svg>
