<?xml version="1.0" encoding="utf-8"?>
<!-- Generated by IcoMoon.io -->
<!DOCTYPE svg PUBLIC "-//W3C//DTD SVG 1.1//EN" "http://www.w3.org/Graphics/SVG/1.1/DTD/svg11.dtd">
<svg version="1.1" xmlns="http://www.w3.org/2000/svg" xmlns:xlink="http://www.w3.org/1999/xlink" width="32" height="32" viewBox="0 0 32 32">
<path fill="#333333" d="M28.7 14.869c-0.963-1.253-2.943-2.153-5.364-2.729v-4.806c0-0.737-0.597-1.333-1.333-1.333s-1.333 0.597-1.333 1.333v4.32c-1.085-0.145-2.209-0.236-3.333-0.275v-4.045c0-0.737-0.597-1.333-1.333-1.333s-1.333 0.597-1.333 1.333v4.045c-1.125 0.039-2.249 0.13-3.333 0.275v-4.32c0-0.737-0.597-1.333-1.333-1.333s-1.333 0.597-1.333 1.333v4.806c-2.421 0.575-4.401 1.477-5.364 2.729-0.38 0.234-0.636 0.651-0.636 1.131v3.873c-0.008 0.085-0.009 0.169 0 0.255v6.539c0 2.206 1.794 4 4 4h18.667c2.206 0 4-1.794 4-4v-6.601c0.001-0.012 0-0.025 0-0.037v-4.029c0-0.481-0.256-0.897-0.636-1.131zM26.669 26.667c0 0.735-0.598 1.333-1.333 1.333h-18.667c-0.736 0-1.333-0.599-1.333-1.333v-4.247c0.126 0.014 0.253 0.038 0.38 0.038 1.022 0 2.086-0.491 3.171-1.465 0.008-0.008 0.013-0.015 0.021-0.023 0.007-0.007 0.015-0.010 0.021-0.017 0.393-0.377 1.809-1.491 3.514 0.041 0.004 0.004 0.009 0.005 0.013 0.009 0.715 0.687 2.027 1.465 3.58 1.465 1.099 0 2.317-0.389 3.526-1.474 0.008-0.008 0.013-0.015 0.021-0.023 0.008-0.007 0.015-0.010 0.022-0.017 0.391-0.375 1.789-1.474 3.479 0.013 0.009 0.008 0.015 0.018 0.025 0.027 1.085 0.974 2.148 1.465 3.17 1.465 0.131 0 0.26-0.023 0.389-0.039v4.247zM26.669 19.597c-0.074 0.078-0.175 0.16-0.291 0.183-0.119 0.025-0.57 0.035-1.45-0.741-0.010-0.011-0.017-0.022-0.029-0.031-2.925-2.626-5.893-1.18-7.112-0.007-0.003 0.003-0.006 0.004-0.008 0.007-1.702 1.529-3.117 0.421-3.512 0.042-0.007-0.007-0.015-0.012-0.022-0.018-0.009-0.008-0.013-0.017-0.021-0.023-2.925-2.626-5.894-1.18-7.112-0.007-0.003 0.003-0.005 0.004-0.008 0.007-0.896 0.803-1.359 0.792-1.478 0.775-0.117-0.021-0.215-0.1-0.292-0.18v-2.957c0.025-0.612 3.397-2.625 10.667-2.625 7.272 0 10.643 2.013 10.667 2.625v2.951z"></path>
<path fill="#333333" d="M10.003 5.112c0.775 0 1.403-0.629 1.403-1.403s-0.837-1.625-1.403-2.154c-0.567 0.529-1.404 1.379-1.404 2.154s0.629 1.403 1.404 1.403z"></path>
<path fill="#333333" d="M16.003 5.112c0.775 0 1.403-0.629 1.403-1.403s-0.837-1.625-1.403-2.154c-0.567 0.529-1.404 1.379-1.404 2.154s0.629 1.403 1.404 1.403z"></path>
<path fill="#333333" d="M22.003 5.112c0.775 0 1.403-0.629 1.403-1.403s-0.837-1.625-1.403-2.154c-0.567 0.529-1.404 1.379-1.404 2.154s0.629 1.403 1.404 1.403z"></path>
</svg>
