<?xml version="1.0" encoding="utf-8"?>
<!-- Generated by IcoMoon.io -->
<!DOCTYPE svg PUBLIC "-//W3C//DTD SVG 1.1//EN" "http://www.w3.org/Graphics/SVG/1.1/DTD/svg11.dtd">
<svg version="1.1" xmlns="http://www.w3.org/2000/svg" xmlns:xlink="http://www.w3.org/1999/xlink" width="32" height="32" viewBox="0 0 32 32">
<path fill="#333333" d="M26 0h-20c-1.838 0-3.333 1.495-3.333 3.333v25.333c0 1.838 1.495 3.333 3.333 3.333h20c1.838 0 3.333-1.495 3.333-3.333v-25.333c0-1.838-1.495-3.333-3.333-3.333zM5.333 13.333h9.333v6.667h-9.333v-6.667zM17.333 13.333h9.333v6.667h-9.333v-6.667zM5.333 3.333c0-0.367 0.299-0.667 0.667-0.667h20c0.367 0 0.667 0.299 0.667 0.667v7.333h-21.333v-7.333zM5.333 28.667v-6h9.333v6.667h-8.667c-0.367 0-0.667-0.299-0.667-0.667zM26.667 28.667c0 0.367-0.299 0.667-0.667 0.667h-8.667v-6.667h9.333v6z"></path>
<path fill="#333333" d="M22.667 6.667h2.667v2.667h-2.667v-2.667z"></path>
</svg>
