<?xml version="1.0" encoding="utf-8"?>
<!-- Generated by IcoMoon.io -->
<!DOCTYPE svg PUBLIC "-//W3C//DTD SVG 1.1//EN" "http://www.w3.org/Graphics/SVG/1.1/DTD/svg11.dtd">
<svg version="1.1" xmlns="http://www.w3.org/2000/svg" xmlns:xlink="http://www.w3.org/1999/xlink" width="32" height="32" viewBox="0 0 32 32">
<path fill="#333333" d="M28 4.667h-3.333v2.667h3.333v19.333h-24v-19.333h3.333v-2.667h-3.333c-1.471 0-2.667 1.196-2.667 2.667v19.333c0 1.471 1.196 2.667 2.667 2.667h24c1.471 0 2.667-1.196 2.667-2.667v-19.333c0-1.471-1.196-2.667-2.667-2.667z"></path>
<path fill="#333333" d="M10 9.333c0.736 0 1.333-0.597 1.333-1.333v-4c0-0.736-0.597-1.333-1.333-1.333s-1.333 0.597-1.333 1.333v4c0 0.736 0.597 1.333 1.333 1.333z"></path>
<path fill="#333333" d="M22 9.333c0.736 0 1.333-0.597 1.333-1.333v-4c0-0.736-0.597-1.333-1.333-1.333s-1.333 0.597-1.333 1.333v4c0 0.736 0.597 1.333 1.333 1.333z"></path>
<path fill="#333333" d="M12.667 4.667h6.667v2.667h-6.667v-2.667z"></path>
</svg>
