<?xml version="1.0" encoding="utf-8"?>
<!-- Generated by IcoMoon.io -->
<!DOCTYPE svg PUBLIC "-//W3C//DTD SVG 1.1//EN" "http://www.w3.org/Graphics/SVG/1.1/DTD/svg11.dtd">
<svg version="1.1" xmlns="http://www.w3.org/2000/svg" xmlns:xlink="http://www.w3.org/1999/xlink" width="32" height="32" viewBox="0 0 32 32">
<path fill="#333333" d="M26.536 19.14c-0.595-0.435-1.43-0.305-1.863 0.29l-2.979 4.077-1.566-1.566c-0.521-0.521-1.365-0.521-1.885 0s-0.521 1.365 0 1.885l2.667 2.667c0.251 0.251 0.591 0.391 0.943 0.391 0.034 0 0.069-0.001 0.103-0.004 0.388-0.030 0.744-0.229 0.974-0.543l3.897-5.333c0.435-0.595 0.305-1.429-0.29-1.863z"></path>
<path fill="#333333" d="M4 7.333h3.333v-2.667h-3.333c-1.471 0-2.667 1.196-2.667 2.667v19.333c0 1.471 1.196 2.667 2.667 2.667h8.667v-2.667h-8.667v-19.333z"></path>
<path fill="#333333" d="M28 13.333h2.667v-6c0-1.471-1.196-2.667-2.667-2.667h-3.333v2.667h3.333v6z"></path>
<path fill="#333333" d="M10 9.333c0.736 0 1.333-0.597 1.333-1.333v-4c0-0.736-0.597-1.333-1.333-1.333s-1.333 0.597-1.333 1.333v4c0 0.736 0.597 1.333 1.333 1.333z"></path>
<path fill="#333333" d="M22 9.333c0.736 0 1.333-0.597 1.333-1.333v-4c0-0.736-0.597-1.333-1.333-1.333s-1.333 0.597-1.333 1.333v4c0 0.736 0.597 1.333 1.333 1.333z"></path>
<path fill="#333333" d="M12.667 4.667h6.667v2.667h-6.667v-2.667z"></path>
<path fill="#333333" d="M22.667 13.333c-5.147 0-9.333 4.187-9.333 9.333s4.187 9.333 9.333 9.333 9.333-4.187 9.333-9.333-4.187-9.333-9.333-9.333zM22.667 29.333c-3.676 0-6.667-2.991-6.667-6.667s2.991-6.667 6.667-6.667 6.667 2.991 6.667 6.667-2.991 6.667-6.667 6.667z"></path>
</svg>
