<?xml version="1.0" encoding="utf-8"?>
<!-- Generated by IcoMoon.io -->
<!DOCTYPE svg PUBLIC "-//W3C//DTD SVG 1.1//EN" "http://www.w3.org/Graphics/SVG/1.1/DTD/svg11.dtd">
<svg version="1.1" xmlns="http://www.w3.org/2000/svg" xmlns:xlink="http://www.w3.org/1999/xlink" width="32" height="32" viewBox="0 0 32 32">
<path fill="#333333" d="M28.001 4.667h-3.333v2.667h3.333v19.333h-24v-19.333h3.333v-2.667h-3.333c-1.471 0-2.667 1.196-2.667 2.667v19.333c0 1.471 1.196 2.667 2.667 2.667h24c1.471 0 2.667-1.196 2.667-2.667v-19.333c0-1.471-1.197-2.667-2.667-2.667z"></path>
<path fill="#333333" d="M10.001 9.333c0.736 0 1.333-0.597 1.333-1.333v-4c0-0.736-0.597-1.333-1.333-1.333s-1.333 0.597-1.333 1.333v4c0 0.736 0.597 1.333 1.333 1.333z"></path>
<path fill="#333333" d="M22.001 9.333c0.736 0 1.333-0.597 1.333-1.333v-4c0-0.736-0.597-1.333-1.333-1.333s-1.333 0.597-1.333 1.333v4c0 0.736 0.597 1.333 1.333 1.333z"></path>
<path fill="#333333" d="M12.667 4.667h6.667v2.667h-6.667v-2.667z"></path>
<path fill="#333333" d="M13.001 14.667h3.978l-3.203 7.475c-0.29 0.677 0.023 1.461 0.701 1.751 0.171 0.073 0.349 0.108 0.524 0.108 0.517 0 1.009-0.303 1.226-0.809l4-9.333c0.177-0.412 0.134-0.885-0.112-1.259-0.247-0.373-0.665-0.599-1.113-0.599h-6c-0.736 0-1.333 0.597-1.333 1.333s0.597 1.333 1.333 1.333z"></path>
</svg>
