<?xml version="1.0" encoding="utf-8"?>
<!-- Generated by IcoMoon.io -->
<!DOCTYPE svg PUBLIC "-//W3C//DTD SVG 1.1//EN" "http://www.w3.org/Graphics/SVG/1.1/DTD/svg11.dtd">
<svg version="1.1" xmlns="http://www.w3.org/2000/svg" xmlns:xlink="http://www.w3.org/1999/xlink" width="32" height="32" viewBox="0 0 32 32">
<path fill="#333333" d="M15.996 25.32c3.677 0 6.667-2.991 6.667-6.667s-2.99-6.667-6.667-6.667c-3.676 0-6.667 2.99-6.667 6.667s2.991 6.667 6.667 6.667zM15.996 14.653c2.207 0 4 1.793 4 4s-1.793 4-4 4c-2.206 0-4-1.794-4-4s1.795-4 4-4z"></path>
<path fill="#333333" d="M26.663 1.319h-21.333c-2.208 0-3.998 1.792-3.998 4v21.333c0 2.21 1.79 4 3.998 4h21.333c2.209 0 4-1.79 4-4v-21.333c0-2.208-1.791-4-4-4zM3.997 5.319c0-0.735 0.597-1.333 1.333-1.333h15.999v4.001h-17.332v-2.667zM27.997 26.653c0 0.736-0.597 1.333-1.333 1.333h-21.333c-0.736 0-1.333-0.597-1.333-1.333v-16h23.999v16zM27.997 7.987h-4.001v-4.001h2.667c0.736 0 1.333 0.598 1.333 1.333v2.667z"></path>
</svg>
