<?xml version="1.0" encoding="utf-8"?>
<!-- Generated by IcoMoon.io -->
<!DOCTYPE svg PUBLIC "-//W3C//DTD SVG 1.1//EN" "http://www.w3.org/Graphics/SVG/1.1/DTD/svg11.dtd">
<svg version="1.1" xmlns="http://www.w3.org/2000/svg" xmlns:xlink="http://www.w3.org/1999/xlink" width="32" height="32" viewBox="0 0 32 32">
<path fill="#333333" d="M9.33 5.32c-2.206 0-4 1.794-4 4s1.794 4 4 4 4-1.794 4-4-1.794-4-4-4zM9.33 10.653c-0.735 0-1.333-0.598-1.333-1.333s0.598-1.333 1.333-1.333 1.333 0.598 1.333 1.333-0.598 1.333-1.333 1.333z"></path>
<path fill="#333333" d="M25.961 7.987h-6.667c-0.722 0-1.403 0.169-2.014 0.463-0.435-4.003-3.833-7.131-7.951-7.131-4.411 0-8 3.589-8 8v16c0 3.14 2.467 5.333 6 5.333h3.965c3.533 0 6-2.193 6-5.333v-4.456c0.607 0.29 1.283 0.457 2 0.457h6.667c2.573 0 4.667-2.093 4.667-4.667v-4c0-2.573-2.093-4.667-4.667-4.667zM14.663 11.014c-0.023 0.098-0.035 0.2-0.035 0.305v14c0 1.966-1.722 2.667-3.333 2.667h-3.965c-1.611 0-3.333-0.701-3.333-2.667v-16c0-2.941 2.393-5.333 5.333-5.333s5.333 2.393 5.333 5.333v1.695zM27.961 16.653c0 1.103-0.897 2-2 2h-6.667c-1.103 0-2-0.897-2-2v-4c0-1.103 0.897-2 2-2h6.667c1.103 0 2 0.897 2 2v4z"></path>
</svg>
