<?xml version="1.0" encoding="utf-8"?>
<!-- Generated by IcoMoon.io -->
<!DOCTYPE svg PUBLIC "-//W3C//DTD SVG 1.1//EN" "http://www.w3.org/Graphics/SVG/1.1/DTD/svg11.dtd">
<svg version="1.1" xmlns="http://www.w3.org/2000/svg" xmlns:xlink="http://www.w3.org/1999/xlink" width="32" height="32" viewBox="0 0 32 32">
<path fill="#333333" d="M16 10.667c-3.676 0-6.667 2.991-6.667 6.667s2.991 6.667 6.667 6.667c3.676 0 6.667-2.991 6.667-6.667s-2.991-6.667-6.667-6.667zM16 21.333c-2.205 0-4-1.795-4-4s1.794-4 4-4c2.206 0 4 1.795 4 4s-1.794 4-4 4z"></path>
<path fill="#333333" d="M26.667 7.333h-3.227l-2.283-3.995c-0.237-0.415-0.679-0.671-1.157-0.671h-8c-0.479 0-0.92 0.257-1.157 0.672l-2.283 3.995h-3.227c-2.209 0-4 1.792-4 4v14c0 2.21 1.791 4 4 4h21.333c2.209 0 4-1.79 4-4v-14c0-2.208-1.791-4.001-4-4.001zM23.993 8.611c-0.001-0.013 0-0.025-0.001-0.038l0.004 0.004c0.001 0.010-0.001 0.021 0 0.031l-0.003 0.003zM28 25.334c0 0.736-0.597 1.333-1.333 1.333h-21.333c-0.736 0-1.333-0.597-1.333-1.333v-14.001c0-0.735 0.597-1.333 1.333-1.333h4v-0.005c0.463 0 0.912-0.236 1.157-0.666l2.283-3.995h6.453l2.283 3.995c0.245 0.429 0.693 0.67 1.154 0.671v0c0.001 0 0.003 0.001 0.005 0.001s0.004-0.001 0.006-0.001h3.993c0.736 0 1.333 0.598 1.333 1.333v14.001z"></path>
</svg>
