<?xml version="1.0" encoding="utf-8"?>
<!-- Generated by IcoMoon.io -->
<!DOCTYPE svg PUBLIC "-//W3C//DTD SVG 1.1//EN" "http://www.w3.org/Graphics/SVG/1.1/DTD/svg11.dtd">
<svg version="1.1" xmlns="http://www.w3.org/2000/svg" xmlns:xlink="http://www.w3.org/1999/xlink" width="32" height="32" viewBox="0 0 32 32">
<path fill="#333333" d="M22.829 7.328l-2.302-4.605c-0.226-0.451-0.688-0.737-1.193-0.737h-6.667c-0.505 0-0.967 0.285-1.193 0.737l-2.303 4.605c-4.335 0.087-7.838 3.635-7.838 7.992v6.667c0 4.411 3.589 8 8 8h13.333c4.411 0 8-3.589 8-8v-6.667c0-4.357-3.502-7.905-7.838-7.992zM13.491 4.653h5.019l1.333 2.667h-7.685l1.333-2.667zM28 21.987c0 2.941-2.393 5.333-5.333 5.333h-13.333c-2.941 0-5.333-2.393-5.333-5.333v-6.667c0-2.941 2.393-5.333 5.333-5.333h12.665c0.001 0 0.001 0 0.002 0s0.002 0 0.003 0h0.663c2.941 0 5.333 2.393 5.333 5.333v6.667z"></path>
<path fill="#333333" d="M16 11.987c-3.676 0-6.667 2.991-6.667 6.667s2.991 6.667 6.667 6.667 6.667-2.991 6.667-6.667-2.99-6.667-6.667-6.667zM16 22.653c-2.206 0-4-1.794-4-4s1.794-4 4-4 4 1.794 4 4-1.794 4-4 4z"></path>
</svg>
