<?xml version="1.0" encoding="utf-8"?>
<!-- Generated by IcoMoon.io -->
<!DOCTYPE svg PUBLIC "-//W3C//DTD SVG 1.1//EN" "http://www.w3.org/Graphics/SVG/1.1/DTD/svg11.dtd">
<svg version="1.1" xmlns="http://www.w3.org/2000/svg" xmlns:xlink="http://www.w3.org/1999/xlink" width="32" height="32" viewBox="0 0 32 32">
<path fill="#333333" d="M26 4h-8.667v-1.333c0-0.736-0.597-1.333-1.333-1.333s-1.333 0.597-1.333 1.333v1.333h-8.667c-1.838 0-3.333 1.495-3.333 3.333v12c0 1.838 1.495 3.333 3.333 3.333h3.333l-2.564 6.154c-0.283 0.68 0.038 1.461 0.717 1.743 0.168 0.070 0.342 0.103 0.513 0.103 0.522 0 1.018-0.309 1.231-0.821l2.991-7.179h2.445v6.667c0 0.736 0.597 1.333 1.333 1.333s1.333-0.597 1.333-1.333v-6.667h2.445l2.991 7.179c0.213 0.512 0.709 0.821 1.231 0.821 0.171 0 0.345-0.033 0.513-0.103 0.68-0.283 1.001-1.064 0.717-1.743l-2.564-6.154h3.333c1.838 0 3.333-1.495 3.333-3.333v-12c0-1.838-1.495-3.333-3.333-3.333zM26.667 19.333c0 0.368-0.299 0.667-0.667 0.667h-5.321c-0.003 0-0.005 0-0.008 0h-9.34c-0.003 0-0.005 0-0.008 0h-5.323c-0.368 0-0.667-0.299-0.667-0.667v-12c0-0.368 0.299-0.667 0.667-0.667h20c0.368 0 0.667 0.299 0.667 0.667v12z"></path>
</svg>
