<?xml version="1.0" encoding="utf-8"?>
<!-- Generated by IcoMoon.io -->
<!DOCTYPE svg PUBLIC "-//W3C//DTD SVG 1.1//EN" "http://www.w3.org/Graphics/SVG/1.1/DTD/svg11.dtd">
<svg version="1.1" xmlns="http://www.w3.org/2000/svg" xmlns:xlink="http://www.w3.org/1999/xlink" width="32" height="32" viewBox="0 0 32 32">
<path fill="#333333" d="M26.667 2.001v-0.001l-21.333 0.001c-0.736 0-1.333 0.597-1.333 1.333v2.666c0 0.736 0.597 1.333 1.333 1.333s1.333-0.597 1.333-1.333v-1.333h8v23.34h-2.647c-0.007 0-0.013-0.001-0.019-0.001-0.736 0-1.333 0.597-1.333 1.333s0.597 1.333 1.333 1.333v0.001l8-0.001c0.736 0 1.333-0.597 1.333-1.333s-0.597-1.333-1.333-1.333c-0.007 0-0.013 0.001-0.019 0.001h-2.647v-23.34h8v1.333c0 0.736 0.597 1.333 1.333 1.333s1.333-0.597 1.333-1.333v-2.666c0-0.737-0.597-1.333-1.333-1.333z"></path>
</svg>
