<?xml version="1.0" encoding="utf-8"?>
<!-- Generated by IcoMoon.io -->
<!DOCTYPE svg PUBLIC "-//W3C//DTD SVG 1.1//EN" "http://www.w3.org/Graphics/SVG/1.1/DTD/svg11.dtd">
<svg version="1.1" xmlns="http://www.w3.org/2000/svg" xmlns:xlink="http://www.w3.org/1999/xlink" width="32" height="32" viewBox="0 0 32 32">
<path fill="#333333" d="M8 19.333c0 0.92-0.746 1.667-1.667 1.667s-1.667-0.746-1.667-1.667c0-0.92 0.746-1.667 1.667-1.667s1.667 0.746 1.667 1.667z"></path>
<path fill="#333333" d="M27.333 19.333c0 0.92-0.746 1.667-1.667 1.667s-1.667-0.746-1.667-1.667c0-0.92 0.746-1.667 1.667-1.667s1.667 0.746 1.667 1.667z"></path>
<path fill="#333333" d="M29.262 14.011c-0.353-2.635-2.084-12.678-7.929-12.678h-10.667c-5.845 0-7.575 10.043-7.929 12.678-1.631 0.913-2.738 2.657-2.738 4.655v1.333c0 2.233 1.381 4.147 3.333 4.941v2.393c0 1.838 1.495 3.333 3.333 3.333h1.333c1.838 0 3.333-1.495 3.333-3.333v-2h9.333v2c0 1.838 1.495 3.333 3.333 3.333h1.333c1.838 0 3.333-1.495 3.333-3.333v-2.393c1.952-0.793 3.333-2.707 3.333-4.941v-1.333c0-1.999-1.107-3.742-2.738-4.655zM10.667 4h10.667c2.73 0 4.469 5.575 5.126 9.333h-20.92c0.655-3.758 2.391-9.333 5.127-9.333zM8.667 27.333c0 0.367-0.299 0.667-0.667 0.667h-1.333c-0.367 0-0.667-0.299-0.667-0.667v-2h2.667v2zM25.333 28h-1.333c-0.367 0-0.667-0.299-0.667-0.667v-2h2.667v2c0 0.367-0.299 0.667-0.667 0.667zM29.333 20c0 1.471-1.196 2.667-2.667 2.667h-21.333c-1.471 0-2.667-1.196-2.667-2.667v-1.333c0-1.471 1.196-2.667 2.667-2.667h21.333c1.471 0 2.667 1.196 2.667 2.667v1.333z"></path>
</svg>
