<?xml version="1.0" encoding="utf-8"?>
<!-- Generated by IcoMoon.io -->
<!DOCTYPE svg PUBLIC "-//W3C//DTD SVG 1.1//EN" "http://www.w3.org/Graphics/SVG/1.1/DTD/svg11.dtd">
<svg version="1.1" xmlns="http://www.w3.org/2000/svg" xmlns:xlink="http://www.w3.org/1999/xlink" width="32" height="32" viewBox="0 0 32 32">
<path fill="#333333" d="M27.767 23.252l-10.533-17.083c-0.053-0.129-0.128-0.245-0.216-0.351l-0.001-0.001c-0.245-0.291-0.607-0.48-1.017-0.48-0.493 0-0.919 0.271-1.15 0.669l-0.005-0.003-10.661 17.336c-0.113 0.196-0.183 0.421-0.183 0.664 0 0.737 0.597 1.333 1.333 1.333h21.333c0.736 0 1.333-0.597 1.333-1.333 0-0.279-0.086-0.537-0.233-0.751zM16.004 9.195l8.283 13.475h-16.578l8.295-13.475z"></path>
</svg>
