<?xml version="1.0" encoding="utf-8"?>
<!-- Generated by IcoMoon.io -->
<!DOCTYPE svg PUBLIC "-//W3C//DTD SVG 1.1//EN" "http://www.w3.org/Graphics/SVG/1.1/DTD/svg11.dtd">
<svg version="1.1" xmlns="http://www.w3.org/2000/svg" xmlns:xlink="http://www.w3.org/1999/xlink" width="32" height="32" viewBox="0 0 32 32">
<path fill="#333333" d="M21.497 14.968l0.002-0.003-0.028-0.019c-0.043-0.032-0.087-0.061-0.133-0.089l-7.857-5.236c-0.226-0.175-0.506-0.284-0.814-0.284-0.736 0-1.333 0.597-1.333 1.333v10.667c0 0.736 0.597 1.333 1.333 1.333 0.345 0 0.657-0.135 0.893-0.35l0.002 0.002 7.633-5.096c0.145-0.063 0.275-0.152 0.388-0.259l0.010-0.007-0.001-0.001c0.251-0.242 0.408-0.581 0.408-0.957 0-0.421-0.199-0.791-0.503-1.036zM14 13.156l4.285 2.856-4.285 2.857v-5.713z"></path>
<path fill="#333333" d="M26 2.004h-20c-2.209 0-4 1.791-4 4v20c0 2.209 1.791 4 4 4h20c2.209 0 4-1.792 4-4v-20c0-2.209-1.791-4-4-4zM27.333 26.004c0 0.736-0.597 1.333-1.333 1.333h-20c-0.736 0-1.333-0.597-1.333-1.333v-20c0-0.737 0.597-1.333 1.333-1.333h20c0.736 0 1.333 0.597 1.333 1.333v20z"></path>
</svg>
