<?xml version="1.0" encoding="utf-8"?>
<!-- Generated by IcoMoon.io -->
<!DOCTYPE svg PUBLIC "-//W3C//DTD SVG 1.1//EN" "http://www.w3.org/Graphics/SVG/1.1/DTD/svg11.dtd">
<svg version="1.1" xmlns="http://www.w3.org/2000/svg" xmlns:xlink="http://www.w3.org/1999/xlink" width="32" height="32" viewBox="0 0 32 32">
<path fill="#333333" d="M26.667 16.003c0-0.493-0.271-0.919-0.669-1.15l0.003-0.005-17.336-10.662c-0.196-0.113-0.421-0.183-0.664-0.183-0.736 0-1.333 0.597-1.333 1.333v21.333c0 0.737 0.597 1.333 1.333 1.333 0.272 0 0.525-0.083 0.736-0.222v0l0.003-0.002c0.003-0.002 0.006-0.003 0.009-0.005l17.089-10.537c0.127-0.052 0.242-0.126 0.346-0.213l0.005-0.003v-0.001c0.29-0.244 0.479-0.606 0.479-1.017zM9.333 7.713l13.475 8.295-13.475 8.283v-16.578z"></path>
</svg>
