<?xml version="1.0" encoding="utf-8"?>
<!-- Generated by IcoMoon.io -->
<!DOCTYPE svg PUBLIC "-//W3C//DTD SVG 1.1//EN" "http://www.w3.org/Graphics/SVG/1.1/DTD/svg11.dtd">
<svg version="1.1" xmlns="http://www.w3.org/2000/svg" xmlns:xlink="http://www.w3.org/1999/xlink" width="32" height="32" viewBox="0 0 32 32">
<path fill="#333333" d="M22.32 18.442l-5.1-7.639c-0.062-0.141-0.149-0.268-0.253-0.379l-0.009-0.014-0.001 0.001c-0.242-0.251-0.581-0.408-0.957-0.408-0.421 0-0.791 0.199-1.035 0.503l-0.002-0.001-0.015 0.023c-0.035 0.045-0.067 0.093-0.096 0.143l-5.236 7.848 0.003 0.003c-0.175 0.226-0.285 0.506-0.285 0.814 0 0.736 0.597 1.333 1.333 1.333h10.667c0.736 0 1.333-0.597 1.333-1.333 0-0.345-0.135-0.656-0.349-0.893l0.003-0.002zM16.009 13.718l2.857 4.285h-5.713l2.856-4.285z"></path>
<path fill="#333333" d="M16 1.337c-8.1 0-14.667 6.567-14.667 14.667s6.567 14.667 14.667 14.667 14.667-6.567 14.667-14.667-6.567-14.667-14.667-14.667zM16 28.003c-6.627 0-11.999-5.372-11.999-12s5.373-12 11.999-12 12 5.373 12 12c0 6.629-5.373 12-12 12z"></path>
</svg>
