<?xml version="1.0" encoding="utf-8"?>
<!-- Generated by IcoMoon.io -->
<!DOCTYPE svg PUBLIC "-//W3C//DTD SVG 1.1//EN" "http://www.w3.org/Graphics/SVG/1.1/DTD/svg11.dtd">
<svg version="1.1" xmlns="http://www.w3.org/2000/svg" xmlns:xlink="http://www.w3.org/1999/xlink" width="32" height="32" viewBox="0 0 32 32">
<path fill="#333333" d="M21.333 11.337h-10.667c-0.736 0-1.333 0.597-1.333 1.333 0 0.308 0.109 0.588 0.285 0.814l-0.003 0.003 5.236 7.848c0.029 0.050 0.061 0.098 0.096 0.143l0.015 0.023 0.002-0.001c0.245 0.305 0.615 0.503 1.035 0.503 0.376 0 0.715-0.157 0.957-0.408l0.001 0.001 0.009-0.014c0.104-0.111 0.191-0.237 0.253-0.379l5.1-7.639-0.003-0.003c0.215-0.236 0.349-0.547 0.349-0.892 0-0.737-0.597-1.333-1.333-1.333zM16.009 18.289l-2.857-4.285h5.712l-2.855 4.285z"></path>
<path fill="#333333" d="M26 2.004h-20c-2.209 0-4 1.791-4 4v20c0 2.209 1.791 4 4 4h20c2.209 0 4-1.792 4-4v-20c0-2.209-1.791-4-4-4zM27.333 26.004c0 0.736-0.597 1.333-1.333 1.333h-20c-0.736 0-1.333-0.597-1.333-1.333v-20c0-0.737 0.597-1.333 1.333-1.333h20c0.736 0 1.333 0.597 1.333 1.333v20z"></path>
</svg>
