<?xml version="1.0" encoding="utf-8"?>
<!-- Generated by IcoMoon.io -->
<!DOCTYPE svg PUBLIC "-//W3C//DTD SVG 1.1//EN" "http://www.w3.org/Graphics/SVG/1.1/DTD/svg11.dtd">
<svg version="1.1" xmlns="http://www.w3.org/2000/svg" xmlns:xlink="http://www.w3.org/1999/xlink" width="32" height="32" viewBox="0 0 32 32">
<path fill="#333333" d="M21.333 11.337h-10.667c-0.736 0-1.333 0.597-1.333 1.333 0 0.308 0.109 0.589 0.285 0.815l-0.003 0.003 5.236 7.847c0.029 0.051 0.061 0.099 0.097 0.145l0.015 0.023 0.002-0.001c0.245 0.305 0.615 0.503 1.035 0.503 0.376 0 0.715-0.157 0.957-0.408l0.001 0.001 0.009-0.013c0.105-0.111 0.191-0.238 0.253-0.38l5.099-7.638-0.003-0.003c0.215-0.235 0.349-0.547 0.349-0.892 0-0.736-0.597-1.333-1.333-1.333zM16.009 18.29l-2.857-4.286h5.713l-2.857 4.286z"></path>
<path fill="#333333" d="M16 1.337c-8.1 0-14.667 6.567-14.667 14.667s6.567 14.667 14.667 14.667 14.667-6.567 14.667-14.667-6.567-14.667-14.667-14.667zM16 28.003c-6.627 0-11.999-5.372-11.999-12s5.373-12 11.999-12 12 5.373 12 12c0 6.629-5.373 12-12 12z"></path>
</svg>
