<?xml version="1.0" encoding="utf-8"?>
<!-- Generated by IcoMoon.io -->
<!DOCTYPE svg PUBLIC "-//W3C//DTD SVG 1.1//EN" "http://www.w3.org/Graphics/SVG/1.1/DTD/svg11.dtd">
<svg version="1.1" xmlns="http://www.w3.org/2000/svg" xmlns:xlink="http://www.w3.org/1999/xlink" width="32" height="32" viewBox="0 0 32 32">
<path fill="#333333" d="M19.333 9.337c-0.308 0-0.588 0.109-0.814 0.284l-0.003-0.004-7.854 5.24c-0.046 0.027-0.091 0.057-0.133 0.089l-0.028 0.019 0.002 0.003c-0.305 0.245-0.503 0.616-0.503 1.037 0 0.376 0.157 0.714 0.407 0.957l-0.001 0.001 0.010 0.007c0.113 0.107 0.243 0.196 0.388 0.259l7.635 5.094c0.237 0.215 0.549 0.35 0.893 0.35 0.736 0 1.333-0.597 1.333-1.333v-10.667c0.001-0.737-0.597-1.334-1.333-1.334zM18 18.869l-4.285-2.857 4.285-2.856v5.713z"></path>
<path fill="#333333" d="M26 2.004h-20c-2.209 0-4 1.791-4 4v20c0 2.209 1.791 4 4 4h20c2.209 0 4-1.792 4-4v-20c0-2.209-1.791-4-4-4zM27.333 26.004c0 0.736-0.597 1.333-1.333 1.333h-20c-0.736 0-1.333-0.597-1.333-1.333v-20c0-0.737 0.597-1.333 1.333-1.333h20c0.736 0 1.333 0.597 1.333 1.333v20z"></path>
</svg>
