<?xml version="1.0" encoding="utf-8"?>
<!-- Generated by IcoMoon.io -->
<!DOCTYPE svg PUBLIC "-//W3C//DTD SVG 1.1//EN" "http://www.w3.org/Graphics/SVG/1.1/DTD/svg11.dtd">
<svg version="1.1" xmlns="http://www.w3.org/2000/svg" xmlns:xlink="http://www.w3.org/1999/xlink" width="32" height="32" viewBox="0 0 32 32">
<path fill="#333333" d="M17.019 26.188c0.088-0.105 0.163-0.221 0.215-0.349l10.535-17.085c0.146-0.213 0.231-0.472 0.231-0.75 0-0.736-0.597-1.333-1.333-1.333h-21.333c-0.736 0-1.333 0.597-1.333 1.333 0 0.243 0.070 0.468 0.183 0.664l-0.004 0.003 10.671 17.331c0.231 0.399 0.657 0.669 1.15 0.669 0.41 0 0.772-0.189 1.017-0.48v0l0.002-0.002zM16.004 22.812l-8.295-13.475h16.578l-8.283 13.475z"></path>
</svg>
