<?xml version="1.0" encoding="utf-8"?>
<!-- Generated by IcoMoon.io -->
<!DOCTYPE svg PUBLIC "-//W3C//DTD SVG 1.1//EN" "http://www.w3.org/Graphics/SVG/1.1/DTD/svg11.dtd">
<svg version="1.1" xmlns="http://www.w3.org/2000/svg" xmlns:xlink="http://www.w3.org/1999/xlink" width="32" height="32" viewBox="0 0 32 32">
<path fill="#333333" d="M19.333 9.337c-0.308 0-0.589 0.109-0.815 0.285l-0.003-0.003-7.848 5.236c-0.050 0.029-0.098 0.061-0.143 0.096l-0.023 0.015 0.001 0.002c-0.304 0.245-0.503 0.616-0.503 1.036 0 0.376 0.157 0.715 0.408 0.957l-0.001 0.001 0.015 0.010c0.11 0.103 0.236 0.189 0.375 0.25l7.643 5.098c0.237 0.215 0.548 0.349 0.893 0.349 0.736 0 1.333-0.597 1.333-1.333v-10.667c0.001-0.735-0.596-1.333-1.332-1.333zM18 18.869l-4.286-2.857 4.286-2.857v5.714z"></path>
<path fill="#333333" d="M16 1.337c-8.1 0-14.667 6.567-14.667 14.667s6.567 14.667 14.667 14.667 14.667-6.567 14.667-14.667-6.567-14.667-14.667-14.667zM16 28.003c-6.627 0-11.999-5.372-11.999-12s5.373-12 11.999-12 12 5.373 12 12c0 6.629-5.373 12-12 12z"></path>
</svg>
