<?xml version="1.0" encoding="utf-8"?>
<!-- Generated by IcoMoon.io -->
<!DOCTYPE svg PUBLIC "-//W3C//DTD SVG 1.1//EN" "http://www.w3.org/Graphics/SVG/1.1/DTD/svg11.dtd">
<svg version="1.1" xmlns="http://www.w3.org/2000/svg" xmlns:xlink="http://www.w3.org/1999/xlink" width="32" height="32" viewBox="0 0 32 32">
<path fill="#333333" d="M21.497 14.968l0.001-0.002-0.023-0.015c-0.045-0.035-0.093-0.067-0.143-0.096l-7.851-5.233c-0.226-0.176-0.506-0.285-0.815-0.285-0.736 0-1.333 0.597-1.333 1.333v10.667c0 0.736 0.597 1.333 1.333 1.333 0.345 0 0.656-0.135 0.893-0.349l0.003 0.003 7.64-5.101c0.139-0.061 0.265-0.147 0.375-0.25l0.015-0.010-0.001-0.001c0.252-0.243 0.409-0.582 0.409-0.959 0-0.42-0.199-0.791-0.503-1.035zM14 13.155l4.286 2.857-4.286 2.857v-5.714z"></path>
<path fill="#333333" d="M16 1.337c-8.1 0-14.667 6.567-14.667 14.667s6.567 14.667 14.667 14.667 14.667-6.567 14.667-14.667-6.567-14.667-14.667-14.667zM16 28.003c-6.627 0-11.999-5.372-11.999-12s5.373-12 11.999-12 12 5.373 12 12c0 6.629-5.373 12-12 12z"></path>
</svg>
