<?xml version="1.0" encoding="utf-8"?>
<!-- Generated by IcoMoon.io -->
<!DOCTYPE svg PUBLIC "-//W3C//DTD SVG 1.1//EN" "http://www.w3.org/Graphics/SVG/1.1/DTD/svg11.dtd">
<svg version="1.1" xmlns="http://www.w3.org/2000/svg" xmlns:xlink="http://www.w3.org/1999/xlink" width="32" height="32" viewBox="0 0 32 32">
<path fill="#333333" d="M22.32 18.441l-5.101-7.639c-0.061-0.14-0.147-0.266-0.251-0.376l-0.010-0.015-0.001 0.001c-0.243-0.251-0.581-0.407-0.957-0.407-0.421 0-0.791 0.199-1.035 0.503l-0.002-0.001-0.015 0.023c-0.035 0.046-0.067 0.094-0.097 0.144l-5.236 7.848 0.003 0.003c-0.176 0.224-0.285 0.504-0.285 0.813 0 0.736 0.597 1.333 1.333 1.333h10.667c0.736 0 1.333-0.597 1.333-1.333 0-0.345-0.135-0.657-0.349-0.893l0.003-0.003zM16.009 13.718l2.857 4.287h-5.714l2.857-4.287z"></path>
<path fill="#333333" d="M26 2.004h-20c-2.209 0-4 1.791-4 4v20c0 2.209 1.791 4 4 4h20c2.209 0 4-1.792 4-4v-20c0-2.209-1.791-4-4-4zM27.333 26.004c0 0.736-0.597 1.333-1.333 1.333h-20c-0.736 0-1.333-0.597-1.333-1.333v-20c0-0.737 0.597-1.333 1.333-1.333h20c0.736 0 1.333 0.597 1.333 1.333v20z"></path>
</svg>
