<?xml version="1.0" encoding="utf-8"?>
<!-- Generated by IcoMoon.io -->
<!DOCTYPE svg PUBLIC "-//W3C//DTD SVG 1.1//EN" "http://www.w3.org/Graphics/SVG/1.1/DTD/svg11.dtd">
<svg version="1.1" xmlns="http://www.w3.org/2000/svg" xmlns:xlink="http://www.w3.org/1999/xlink" width="32" height="32" viewBox="0 0 32 32">
<path fill="#333333" d="M30.702 5.663c-0.623-0.877-1.715-0.996-2.702-0.996h-19.317c0.013-0.085 0.025-0.171 0.039-0.255 0.145-0.887 0.325-1.991-0.421-2.869-0.502-0.589-1.255-0.876-2.301-0.876h-4.667c-0.737 0-1.333 0.597-1.333 1.333s0.597 1.333 1.333 1.333h4.667c0.070 0 0.13 0.002 0.18 0.006-0.017 0.193-0.059 0.451-0.090 0.643-0.027 0.167-0.055 0.336-0.078 0.505-0.272 1.997-2.667 20.004-2.667 20.004-0.051 0.381 0.065 0.765 0.319 1.055s0.619 0.455 1.003 0.455h18c0.736 0 1.333-0.597 1.333-1.333s-0.597-1.333-1.333-1.333h-16.477c0.113-0.85 0.267-2.009 0.443-3.333h16.034c2.239 0 3.817-0.475 4.763-2.838 0.027-0.069 2.748-6.872 3.163-8.054 0.462-1.318 0.789-2.487 0.11-3.445zM28.075 8.225c-0.329 0.936-2.365 6.053-3.122 7.946-0.377 0.942-0.633 1.162-2.287 1.162h-15.679c0.467-3.507 0.993-7.457 1.333-10h19.679c0.141 0 0.258 0.003 0.353 0.009-0.050 0.195-0.136 0.477-0.278 0.883z"></path>
<path fill="#333333" d="M7.333 30c0 1.105-0.895 2-2 2s-2-0.895-2-2c0-1.105 0.895-2 2-2s2 0.895 2 2z"></path>
<path fill="#333333" d="M22.667 30c0 1.105-0.895 2-2 2s-2-0.895-2-2c0-1.105 0.895-2 2-2s2 0.895 2 2z"></path>
</svg>
