<?xml version="1.0" encoding="utf-8"?>
<!-- Generated by IcoMoon.io -->
<!DOCTYPE svg PUBLIC "-//W3C//DTD SVG 1.1//EN" "http://www.w3.org/Graphics/SVG/1.1/DTD/svg11.dtd">
<svg version="1.1" xmlns="http://www.w3.org/2000/svg" xmlns:xlink="http://www.w3.org/1999/xlink" width="32" height="32" viewBox="0 0 32 32">
<path fill="#333333" d="M28 2.667h-24c-2.206 0-4 1.794-4 4v8c0 2.206 1.794 4 4 4h0.785l-2.085 9.033c-0.091 0.396 0.003 0.812 0.256 1.13s0.637 0.503 1.043 0.503h24c0.406 0 0.791-0.185 1.043-0.503s0.347-0.734 0.256-1.13l-2.085-9.033h0.785c2.206 0 4-1.794 4-4v-8c0-2.206-1.794-4-4-4zM5.676 26.667l3.385-14.667h2.24l-2.603 11.711c-0.16 0.719 0.293 1.431 1.012 1.591 0.098 0.022 0.195 0.032 0.291 0.032 0.611 0 1.162-0.423 1.3-1.044l2.667-12c0.021-0.097 0.030-0.194 0.030-0.289h8.941l3.385 14.667h-20.648zM29.333 14.667c0 0.735-0.598 1.333-1.333 1.333h-1.401l-0.923-4h0.991c0.736 0 1.333-0.597 1.333-1.333s-0.597-1.333-1.333-1.333h-21.333c-0.736 0-1.333 0.597-1.333 1.333s0.597 1.333 1.333 1.333h0.991l-0.923 4h-1.401c-0.735 0-1.333-0.598-1.333-1.333v-8c0-0.735 0.598-1.333 1.333-1.333h24c0.735 0 1.333 0.598 1.333 1.333v8z"></path>
</svg>
