<?xml version="1.0" encoding="utf-8"?>
<!-- Generated by IcoMoon.io -->
<!DOCTYPE svg PUBLIC "-//W3C//DTD SVG 1.1//EN" "http://www.w3.org/Graphics/SVG/1.1/DTD/svg11.dtd">
<svg version="1.1" xmlns="http://www.w3.org/2000/svg" xmlns:xlink="http://www.w3.org/1999/xlink" width="32" height="32" viewBox="0 0 32 32">
<path fill="#333333" d="M15.976 2.667c3.729 0 6.905 1.301 9.524 3.905 1.253 1.253 2.207 2.687 2.859 4.297 0.649 1.611 0.975 3.321 0.975 5.131 0 1.825-0.321 3.535-0.965 5.131-0.641 1.595-1.591 3.004-2.845 4.225-1.301 1.285-2.777 2.271-4.428 2.952s-3.356 1.025-5.119 1.025-3.449-0.337-5.060-1.012c-1.611-0.675-3.055-1.651-4.333-2.928-1.277-1.277-2.251-2.719-2.917-4.321-0.665-1.604-0.999-3.295-0.999-5.072 0-1.763 0.337-3.456 1.012-5.084 0.676-1.627 1.655-3.083 2.941-4.368 2.539-2.588 5.657-3.881 9.356-3.881zM16.024 5.071c-3.047 0-5.611 1.064-7.691 3.191-1.047 1.064-1.853 2.259-2.416 3.584s-0.845 2.711-0.845 4.155c0 1.428 0.283 2.805 0.845 4.131 0.564 1.325 1.369 2.508 2.417 3.548s2.231 1.833 3.548 2.381c1.316 0.548 2.697 0.821 4.141 0.821 1.429 0 2.813-0.277 4.156-0.833 1.341-0.556 2.551-1.357 3.631-2.405 2.080-2.031 3.119-4.58 3.119-7.643 0-1.476-0.269-2.873-0.809-4.191-0.539-1.317-1.324-2.492-2.357-3.524-2.143-2.143-4.723-3.215-7.739-3.215zM15.857 13.785l-1.785 0.928c-0.191-0.396-0.424-0.675-0.703-0.833-0.277-0.159-0.535-0.239-0.773-0.239-1.191 0-1.785 0.785-1.785 2.357 0 0.715 0.151 1.285 0.452 1.715 0.303 0.428 0.747 0.643 1.333 0.643 0.777 0 1.325-0.381 1.643-1.143l1.643 0.833c-0.349 0.651-0.833 1.163-1.453 1.535-0.619 0.373-1.301 0.56-2.047 0.56-1.191 0-2.151-0.365-2.881-1.095-0.729-0.729-1.095-1.745-1.095-3.047 0-1.271 0.369-2.277 1.108-3.024 0.737-0.747 1.669-1.119 2.797-1.119 1.651 0 2.832 0.643 3.547 1.928zM23.548 13.785l-1.761 0.928c-0.192-0.396-0.425-0.675-0.703-0.833s-0.543-0.239-0.797-0.239c-1.191 0-1.787 0.785-1.787 2.357 0 0.715 0.151 1.285 0.453 1.715 0.301 0.428 0.745 0.643 1.333 0.643 0.777 0 1.324-0.381 1.641-1.143l1.667 0.833c-0.364 0.651-0.857 1.163-1.475 1.535-0.62 0.373-1.295 0.56-2.025 0.56-1.205 0-2.171-0.365-2.892-1.095-0.723-0.729-1.083-1.745-1.083-3.047 0-1.271 0.368-2.277 1.107-3.024s1.671-1.119 2.799-1.119c1.649 0 2.824 0.643 3.523 1.928z"></path>
</svg>
