<?xml version="1.0" encoding="utf-8"?>
<!-- Generated by IcoMoon.io -->
<!DOCTYPE svg PUBLIC "-//W3C//DTD SVG 1.1//EN" "http://www.w3.org/Graphics/SVG/1.1/DTD/svg11.dtd">
<svg version="1.1" xmlns="http://www.w3.org/2000/svg" xmlns:xlink="http://www.w3.org/1999/xlink" width="32" height="32" viewBox="0 0 32 32">
<path fill="#333333" d="M16.005-0.015c-8.823 0-16 7.177-16 16s7.177 16 16 16 16-7.177 16-16-7.177-16-16-16zM16.005 29.318c-7.352 0-13.333-5.981-13.333-13.333s5.981-13.333 13.333-13.333 13.333 5.981 13.333 13.333-5.981 13.333-13.333 13.333z"></path>
<path fill="#333333" d="M16.006 10.772c-2.875 0-5.213 2.338-5.213 5.212s2.339 5.213 5.213 5.213 5.213-2.339 5.213-5.213c0-2.873-2.339-5.212-5.213-5.212zM16.006 18.531c-1.404 0-2.546-1.143-2.546-2.547s1.142-2.545 2.546-2.545 2.546 1.142 2.546 2.545c0 1.404-1.142 2.547-2.546 2.547z"></path>
<path fill="#333333" d="M17.472 15.985c0 0.81-0.657 1.467-1.467 1.467s-1.467-0.657-1.467-1.467c0-0.81 0.657-1.467 1.467-1.467s1.467 0.657 1.467 1.467z"></path>
</svg>
