<?xml version="1.0" encoding="utf-8"?>
<!-- Generated by IcoMoon.io -->
<!DOCTYPE svg PUBLIC "-//W3C//DTD SVG 1.1//EN" "http://www.w3.org/Graphics/SVG/1.1/DTD/svg11.dtd">
<svg version="1.1" xmlns="http://www.w3.org/2000/svg" xmlns:xlink="http://www.w3.org/1999/xlink" width="32" height="32" viewBox="0 0 32 32">
<path fill="#333333" d="M27.949 12.801c-0.316-0.159-0.683-0.184-1.018-0.073l-10.265 3.422v-10.817c0-0.736-0.597-1.333-1.333-1.333-7.72 0-14 6.28-14 14s6.28 14 14 14 14-6.28 14-14c0-1.514-0.241-3.004-0.715-4.429-0.111-0.335-0.352-0.613-0.669-0.771zM15.333 29.333c-6.249 0-11.333-5.084-11.333-11.333 0-5.799 4.377-10.594 10-11.255v11.255c0 0.429 0.206 0.831 0.554 1.082s0.795 0.319 1.201 0.183l10.68-3.56c0.153 0.751 0.231 1.518 0.231 2.295 0 6.249-5.084 11.333-11.333 11.333z"></path>
<path fill="#333333" d="M31.163 7.242c-2.446-4.351-6.489-6.983-11.093-7.223-0.369-0.018-0.722 0.113-0.987 0.365s-0.416 0.602-0.416 0.967v9.982c0 0.431 0.208 0.835 0.559 1.085 0.229 0.163 0.501 0.248 0.775 0.248 0.146 0 0.292-0.024 0.433-0.073l10-3.438c0.374-0.129 0.672-0.417 0.813-0.787s0.11-0.783-0.083-1.127zM21.333 9.465v-6.616c2.635 0.495 4.923 1.991 6.631 4.336l-6.631 2.28z"></path>
</svg>
