<?xml version="1.0" encoding="utf-8"?>
<!-- Generated by IcoMoon.io -->
<!DOCTYPE svg PUBLIC "-//W3C//DTD SVG 1.1//EN" "http://www.w3.org/Graphics/SVG/1.1/DTD/svg11.dtd">
<svg version="1.1" xmlns="http://www.w3.org/2000/svg" xmlns:xlink="http://www.w3.org/1999/xlink" width="32" height="32" viewBox="0 0 32 32">
<path fill="#333333" d="M32.023 12.687c0.001-0.026 0.001-0.051-0.001-0.076-0.004-0.119-0.019-0.239-0.056-0.359-0.001-0.002-0.002-0.004-0.003-0.006-0.001-0.005-0.005-0.009-0.006-0.014-0.039-0.116-0.095-0.219-0.161-0.317-0.015-0.023-0.029-0.044-0.046-0.066-0.075-0.098-0.16-0.185-0.257-0.258-0.005-0.004-0.009-0.011-0.015-0.015l-14.667-10.656c-0.005-0.003-0.010-0.004-0.014-0.007-0.1-0.071-0.211-0.125-0.329-0.167-0.025-0.009-0.049-0.016-0.074-0.023-0.116-0.033-0.236-0.057-0.363-0.057-0.001 0-0.002 0-0.003 0-0.128 0-0.249 0.024-0.366 0.057-0.025 0.007-0.049 0.014-0.074 0.023-0.117 0.041-0.228 0.095-0.328 0.166-0.005 0.003-0.011 0.005-0.016 0.008l-14.667 10.656c-0.005 0.004-0.009 0.010-0.014 0.014-0.098 0.073-0.183 0.161-0.259 0.26-0.016 0.021-0.030 0.042-0.045 0.064-0.065 0.097-0.123 0.201-0.161 0.318-0.001 0.004-0.004 0.009-0.005 0.013-0.001 0.001-0.001 0.003-0.002 0.004-0.038 0.119-0.053 0.239-0.057 0.359-0.001 0.027-0.001 0.052-0.001 0.079 0.003 0.125 0.020 0.248 0.057 0.365 0.001 0.004 0.001 0.009 0.002 0.013l5.602 17.344c0.002 0.007 0.007 0.013 0.010 0.019 0.039 0.115 0.096 0.224 0.166 0.326 0.015 0.022 0.031 0.042 0.048 0.063 0.070 0.089 0.15 0.173 0.245 0.245 0.007 0.005 0.013 0.012 0.020 0.017 0.002 0.001 0.003 0.003 0.006 0.005 0.047 0.034 0.101 0.049 0.151 0.075 0.071 0.038 0.137 0.082 0.214 0.107 0.133 0.043 0.27 0.066 0.407 0.066 0 0 0.001 0 0.001 0s0 0 0.001 0h18.129c0 0 0 0 0.001 0s0.001 0 0.001 0c0.137 0 0.275-0.023 0.409-0.066 0.091-0.029 0.172-0.080 0.254-0.127 0.037-0.022 0.078-0.031 0.113-0.057 0.001-0.001 0.002-0.002 0.003-0.003 0.007-0.005 0.011-0.011 0.018-0.016 0.095-0.071 0.175-0.155 0.246-0.245 0.017-0.021 0.033-0.042 0.049-0.065 0.070-0.102 0.127-0.21 0.166-0.325 0.002-0.007 0.007-0.012 0.009-0.019l5.602-17.344c0.001-0.004 0.001-0.008 0.002-0.013 0.038-0.119 0.055-0.242 0.057-0.367zM24.637 27.077l-0.998-1.39 1.901-9.991 3.091-0.984-3.994 12.365zM3.429 14.716l3.3 1.055 3.709 7.064-3.019 4.233-3.99-12.351zM17.344 11.769l3.913 2.491-3.921 1.248 0.007-3.739zM14.67 15.509l-3.904-1.247 3.911-2.5-0.007 3.747zM13.853 18.047l-1.68 2.355-1.825-3.475 3.505 1.12zM16.003 19.625l2.855 3.977-4.691-1.403 1.835-2.573zM18.154 18.047l4.496-1.431-1.157 6.082-3.339-4.651zM24.568 13.207l-7.218-4.595 0.007-3.999 10.422 7.571-3.211 1.023zM14.683 8.593l-7.219 4.613-3.189-1.019 10.415-7.567-0.007 3.972zM12.531 24.492l8.872 2.655 1.091 1.52h-12.941l2.978-4.175z"></path>
</svg>
