<?xml version="1.0" encoding="utf-8"?>
<!-- Generated by IcoMoon.io -->
<!DOCTYPE svg PUBLIC "-//W3C//DTD SVG 1.1//EN" "http://www.w3.org/Graphics/SVG/1.1/DTD/svg11.dtd">
<svg version="1.1" xmlns="http://www.w3.org/2000/svg" xmlns:xlink="http://www.w3.org/1999/xlink" width="32" height="32" viewBox="0 0 32 32">
<path fill="#333333" d="M29.333 1.333h-6.667c-0.736 0-1.333 0.597-1.333 1.333v5.333h-5.333c-0.736 0-1.333 0.597-1.333 1.333v5.333h-5.333c-0.736 0-1.333 0.597-1.333 1.333v5.333h-5.333c-0.736 0-1.333 0.597-1.333 1.333v6.667c0 0.736 0.597 1.333 1.333 1.333h26.667c0.736 0 1.333-0.597 1.333-1.333v-26.667c0-0.737-0.597-1.333-1.333-1.333zM4 24h4v4h-4v-4zM10.667 22.667v-5.333h4v10.667h-4v-5.333zM17.333 16v-5.333h4v17.333h-4v-12zM28 28h-4v-24h4v24z"></path>
</svg>
