<?xml version="1.0" encoding="utf-8"?>
<!-- Generated by IcoMoon.io -->
<!DOCTYPE svg PUBLIC "-//W3C//DTD SVG 1.1//EN" "http://www.w3.org/Graphics/SVG/1.1/DTD/svg11.dtd">
<svg version="1.1" xmlns="http://www.w3.org/2000/svg" xmlns:xlink="http://www.w3.org/1999/xlink" width="32" height="32" viewBox="0 0 32 32">
<path fill="#333333" d="M31.463 10.931c-0.592-0.441-1.427-0.317-1.866 0.273l-2.793 3.747c-0.455-0.181-0.951-0.284-1.471-0.284-0.477 0-0.933 0.089-1.359 0.243l-5.217-7.519c0.363-0.602 0.575-1.304 0.575-2.057 0-2.206-1.794-4-4-4s-4 1.794-4 4c0 1.045 0.406 1.995 1.065 2.708l-5.166 12.67c-0.185-0.027-0.373-0.045-0.565-0.045-2.206 0-4 1.794-4 4 0 0.563 0.118 1.099 0.329 1.585l-2.523 2.134c-0.563 0.475-0.633 1.317-0.157 1.879 0.264 0.312 0.64 0.472 1.019 0.472 0.304 0 0.61-0.103 0.86-0.315l2.619-2.215c0.555 0.293 1.185 0.459 1.854 0.459 2.206 0 4-1.794 4-4 0-1.045-0.406-1.995-1.065-2.708l5.167-12.67c0.185 0.027 0.373 0.045 0.565 0.045 0.477 0 0.933-0.089 1.359-0.243l5.217 7.519c-0.363 0.602-0.575 1.304-0.575 2.057 0 2.206 1.794 4 4 4s4-1.794 4-4c0-0.711-0.188-1.377-0.515-1.956l2.917-3.914c0.441-0.59 0.319-1.426-0.272-1.866zM15.333 4c0.735 0 1.333 0.598 1.333 1.333s-0.598 1.333-1.333 1.333-1.333-0.598-1.333-1.333 0.598-1.333 1.333-1.333zM6.667 26c-0.735 0-1.333-0.598-1.333-1.333s0.598-1.333 1.333-1.333 1.333 0.598 1.333 1.333-0.598 1.333-1.333 1.333zM25.333 20c-0.735 0-1.333-0.598-1.333-1.333s0.598-1.333 1.333-1.333c0.294 0 0.563 0.099 0.784 0.26 0.065 0.077 0.137 0.151 0.222 0.213 0.003 0.002 0.006 0.002 0.008 0.004 0.197 0.233 0.319 0.529 0.319 0.856 0 0.735-0.598 1.333-1.333 1.333z"></path>
</svg>
