<?xml version="1.0" encoding="utf-8"?>
<!-- Generated by IcoMoon.io -->
<!DOCTYPE svg PUBLIC "-//W3C//DTD SVG 1.1//EN" "http://www.w3.org/Graphics/SVG/1.1/DTD/svg11.dtd">
<svg version="1.1" xmlns="http://www.w3.org/2000/svg" xmlns:xlink="http://www.w3.org/1999/xlink" width="32" height="32" viewBox="0 0 32 32">
<path fill="#333333" d="M16 0.667c-8.455 0-15.333 6.879-15.333 15.333s6.878 15.333 15.333 15.333 15.333-6.879 15.333-15.333-6.878-15.333-15.333-15.333zM27.101 9.91l-3.567 1.274c-1.593-2.483-4.371-4.136-7.534-4.136-1.459 0-2.833 0.358-4.052 0.98l-2.111-3.083c1.826-1.023 3.926-1.611 6.163-1.611 4.778 0 8.944 2.661 11.101 6.577zM16 9.714c3.466 0 6.286 2.819 6.286 6.286s-2.82 6.286-6.286 6.286-6.286-2.82-6.286-6.286 2.82-6.286 6.286-6.286zM16 28.667c-6.985 0-12.667-5.682-12.667-12.667 0-3.791 1.682-7.189 4.329-9.512l2.115 3.089c-1.68 1.628-2.73 3.903-2.73 6.423 0 4.937 4.016 8.953 8.953 8.953 2.765 0 5.24-1.261 6.883-3.237l3.043 2.029c0.017 0.011 0.037 0.015 0.055 0.026-2.319 2.973-5.927 4.896-9.981 4.896zM27.387 21.513l-3.121-2.081c0.441-1.057 0.687-2.217 0.687-3.432 0-0.823-0.121-1.617-0.329-2.374l3.509-1.253c0.344 1.15 0.535 2.366 0.535 3.627 0 1.977-0.469 3.843-1.28 5.513z"></path>
</svg>
