<?xml version="1.0" encoding="utf-8"?>
<!-- Generated by IcoMoon.io -->
<!DOCTYPE svg PUBLIC "-//W3C//DTD SVG 1.1//EN" "http://www.w3.org/Graphics/SVG/1.1/DTD/svg11.dtd">
<svg version="1.1" xmlns="http://www.w3.org/2000/svg" xmlns:xlink="http://www.w3.org/1999/xlink" width="32" height="32" viewBox="0 0 32 32">
<path fill="#333333" d="M31.835 28.691l-14.667-26.667c-0.234-0.426-0.681-0.691-1.168-0.691s-0.934 0.265-1.168 0.691l-14.667 26.667c-0.227 0.413-0.219 0.915 0.020 1.321 0.241 0.405 0.677 0.655 1.148 0.655h29.333c0.471 0 0.907-0.249 1.148-0.655 0.239-0.406 0.247-0.908 0.020-1.321zM10.955 14.606c0.121 0.035 0.246 0.061 0.378 0.061h9.579c0.054 0 0.105-0.010 0.157-0.016l2.942 5.349h-16.023l2.967-5.394zM16 5.433l3.611 6.567h-7.223l3.611-6.567zM3.589 28l2.959-5.379c0.106 0.027 0.215 0.046 0.33 0.046h17.789c0.257 0 0.496-0.077 0.7-0.203l3.045 5.537h-24.823z"></path>
</svg>
