<?xml version="1.0" encoding="utf-8"?>
<!-- Generated by IcoMoon.io -->
<!DOCTYPE svg PUBLIC "-//W3C//DTD SVG 1.1//EN" "http://www.w3.org/Graphics/SVG/1.1/DTD/svg11.dtd">
<svg version="1.1" xmlns="http://www.w3.org/2000/svg" xmlns:xlink="http://www.w3.org/1999/xlink" width="32" height="32" viewBox="0 0 32 32">
<path fill="#333333" d="M17.991 15.333c0 1.105-0.895 2-2 2s-2-0.895-2-2c0-1.105 0.895-2 2-2s2 0.895 2 2z"></path>
<path fill="#333333" d="M11.333 15.333c0 1.105-0.895 2-2 2s-2-0.895-2-2c0-1.105 0.895-2 2-2s2 0.895 2 2z"></path>
<path fill="#333333" d="M24.667 15.333c0 1.105-0.895 2-2 2s-2-0.895-2-2c0-1.105 0.895-2 2-2s2 0.895 2 2z"></path>
<path fill="#333333" d="M16.001 1.333c-9.047 0-14.667 6.131-14.667 16 0 8.331 3.435 13.237 3.582 13.442 0.251 0.351 0.656 0.558 1.085 0.558 0.035 0 0.069-0.001 0.105-0.004 0.467-0.037 0.879-0.315 1.089-0.733 1.395-2.791 3.344-3.167 5.066-3.167 0.689 0 1.372 0.068 2.033 0.134 0.605 0.060 1.175 0.117 1.709 0.117 8.499 0 14.667-5.473 14.667-13.014-0.001-7.726-6.169-13.333-14.667-13.333zM16.001 25.014c-0.401 0-0.908-0.051-1.445-0.104-0.692-0.069-1.475-0.147-2.297-0.147-2.617 0-4.651 0.873-6.163 2.656-0.903-1.947-2.097-5.405-2.097-10.085 0-8.349 4.486-13.333 12-13.333 6.953 0 12 4.486 12 10.667 0.001 6.092-4.934 10.347-11.999 10.347z"></path>
</svg>
