<?xml version="1.0" encoding="utf-8"?>
<!-- Generated by IcoMoon.io -->
<!DOCTYPE svg PUBLIC "-//W3C//DTD SVG 1.1//EN" "http://www.w3.org/Graphics/SVG/1.1/DTD/svg11.dtd">
<svg version="1.1" xmlns="http://www.w3.org/2000/svg" xmlns:xlink="http://www.w3.org/1999/xlink" width="32" height="32" viewBox="0 0 32 32">
<path fill="#333333" d="M31.482 12.945l-14.667-11.333c-0.48-0.371-1.151-0.371-1.63 0l-14.667 11.333c-0.583 0.45-0.69 1.287-0.24 1.87s1.287 0.69 1.87 0.24l1.851-1.431v15.709c0 0.736 0.597 1.333 1.333 1.333h21.333c0.736 0 1.333-0.597 1.333-1.333v-15.709l1.851 1.431c0.243 0.188 0.529 0.279 0.815 0.279 0.399 0 0.793-0.178 1.056-0.518 0.45-0.583 0.343-1.42-0.24-1.871zM25.333 28h-18.667v-16.436l9.333-7.212 9.333 7.212v16.436z"></path>
</svg>
