<?xml version="1.0" encoding="utf-8"?>
<!-- Generated by IcoMoon.io -->
<!DOCTYPE svg PUBLIC "-//W3C//DTD SVG 1.1//EN" "http://www.w3.org/Graphics/SVG/1.1/DTD/svg11.dtd">
<svg version="1.1" xmlns="http://www.w3.org/2000/svg" xmlns:xlink="http://www.w3.org/1999/xlink" width="32" height="32" viewBox="0 0 32 32">
<path fill="#333333" d="M15.989 30.675c-3.759 0-13.333-8.277-13.333-18.667v-9.333c0-0.736 0.597-1.333 1.333-1.333h24c0.736 0 1.333 0.597 1.333 1.333v9.333c0 9.383-9.803 18.667-13.333 18.667zM5.323 4.008v8c0 9.373 8.89 15.997 10.666 16 1.908-0.063 10.667-7.957 10.667-16v-8h-21.333z"></path>
<path fill="#333333" d="M13.997 20.675c-0.009 0-0.019 0-0.028 0-0.379-0.009-0.737-0.178-0.985-0.465l-4-4.667c-0.479-0.559-0.415-1.401 0.145-1.88 0.559-0.48 1.401-0.414 1.88 0.145l3.029 3.535 8.303-8.909c0.501-0.539 1.345-0.569 1.885-0.067s0.569 1.346 0.066 1.884l-9.32 10c-0.253 0.27-0.606 0.424-0.975 0.424z"></path>
</svg>
