<?xml version="1.0" encoding="utf-8"?>
<!-- Generated by IcoMoon.io -->
<!DOCTYPE svg PUBLIC "-//W3C//DTD SVG 1.1//EN" "http://www.w3.org/Graphics/SVG/1.1/DTD/svg11.dtd">
<svg version="1.1" xmlns="http://www.w3.org/2000/svg" xmlns:xlink="http://www.w3.org/1999/xlink" width="32" height="32" viewBox="0 0 32 32">
<path fill="#333333" d="M25.989 2.008h-20c-2.209 0-4 1.791-4 4v20c0 2.209 1.791 4 4 4h20c2.209 0 4-1.792 4-4v-20c0-2.21-1.791-4-4-4zM27.323 26.008c0 0.736-0.597 1.333-1.333 1.333h-20c-0.736 0-1.333-0.597-1.333-1.333v-20c0-0.737 0.597-1.333 1.333-1.333h20c0.736 0 1.333 0.597 1.333 1.333v20z"></path>
<path fill="#333333" d="M22.973 9.263l-9.55 11.235-4.343-6.181c-0.423-0.603-1.255-0.748-1.858-0.325s-0.748 1.255-0.325 1.857l5.333 7.591c0.237 0.338 0.617 0.547 1.030 0.566 0.021 0.001 0.041 0.001 0.061 0.001 0.39 0 0.762-0.171 1.016-0.47l10.667-12.549c0.477-0.561 0.409-1.403-0.153-1.879-0.561-0.479-1.402-0.411-1.879 0.151z"></path>
</svg>
