<?xml version="1.0" encoding="utf-8"?>
<!-- Generated by IcoMoon.io -->
<!DOCTYPE svg PUBLIC "-//W3C//DTD SVG 1.1//EN" "http://www.w3.org/Graphics/SVG/1.1/DTD/svg11.dtd">
<svg version="1.1" xmlns="http://www.w3.org/2000/svg" xmlns:xlink="http://www.w3.org/1999/xlink" width="32" height="32" viewBox="0 0 32 32">
<path fill="#333333" d="M16 30.675c-3.759 0-13.333-8.277-13.333-18.667v-9.333c0-0.736 0.597-1.333 1.333-1.333h19.333c0.736 0 1.333 0.597 1.333 1.333s-0.597 1.333-1.333 1.333h-18v8c0 9.375 8.893 16 10.667 16 1.905-0.061 10.667-7.956 10.667-16 0-0.736 0.597-1.333 1.333-1.333s1.333 0.597 1.333 1.333c0 9.383-9.803 18.667-13.333 18.667z"></path>
<path fill="#333333" d="M14.007 20.675c-0.012 0-0.024 0-0.036-0.001-0.377-0.010-0.731-0.179-0.976-0.465l-4-4.667c-0.479-0.559-0.415-1.401 0.145-1.88 0.559-0.48 1.401-0.414 1.88 0.145l3.042 3.549 13.641-14.269c0.509-0.531 1.353-0.552 1.885-0.042 0.532 0.509 0.551 1.353 0.042 1.885l-14.66 15.333c-0.251 0.263-0.599 0.412-0.963 0.412z"></path>
</svg>
