<?xml version="1.0" encoding="utf-8"?>
<!-- Generated by IcoMoon.io -->
<!DOCTYPE svg PUBLIC "-//W3C//DTD SVG 1.1//EN" "http://www.w3.org/Graphics/SVG/1.1/DTD/svg11.dtd">
<svg version="1.1" xmlns="http://www.w3.org/2000/svg" xmlns:xlink="http://www.w3.org/1999/xlink" width="32" height="32" viewBox="0 0 32 32">
<path fill="#333333" d="M14 20.78c-0.009 0-0.019 0-0.028 0-0.375-0.008-0.729-0.174-0.976-0.457l-5.333-6.105c-0.485-0.555-0.427-1.397 0.127-1.881 0.555-0.485 1.397-0.428 1.881 0.127l4.371 5.003 13.659-14.378c0.507-0.533 1.351-0.555 1.885-0.048s0.555 1.351 0.049 1.885l-14.667 15.439c-0.253 0.265-0.603 0.415-0.967 0.415z"></path>
<path fill="#333333" d="M28 10.008c-0.736 0-1.333 0.597-1.333 1.333v10.667c0 0.736-0.597 1.333-1.333 1.333h-5.333c-0.419 0-0.815 0.198-1.067 0.533l-2.933 3.911-2.933-3.911c-0.252-0.335-0.647-0.533-1.067-0.533h-5.333c-0.736 0-1.333-0.597-1.333-1.333v-16.667c0-0.736 0.597-1.333 1.333-1.333h16.667c0.736 0 1.333-0.597 1.333-1.333s-0.597-1.333-1.333-1.333h-16.667c-2.209 0-4 1.791-4 4v16.667c0 2.209 1.791 4 4 4h4.667l3.6 4.8c0.252 0.335 0.647 0.533 1.067 0.533s0.815-0.198 1.067-0.533l3.6-4.8h4.667c2.209 0 4-1.791 4-4v-10.667c0-0.737-0.597-1.333-1.333-1.333z"></path>
</svg>
