<?xml version="1.0" encoding="utf-8"?>
<!-- Generated by IcoMoon.io -->
<!DOCTYPE svg PUBLIC "-//W3C//DTD SVG 1.1//EN" "http://www.w3.org/Graphics/SVG/1.1/DTD/svg11.dtd">
<svg version="1.1" xmlns="http://www.w3.org/2000/svg" xmlns:xlink="http://www.w3.org/1999/xlink" width="32" height="32" viewBox="0 0 32 32">
<path fill="#333333" d="M15.999 30.675c-8.087 0-14.666-6.579-14.666-14.667s6.579-14.667 14.666-14.667c8.087 0 14.667 6.579 14.667 14.667s-6.58 14.667-14.667 14.667zM15.999 4.009c-6.617 0-11.999 5.383-11.999 12s5.383 12 11.999 12c6.617 0 12.001-5.383 12.001-12s-5.383-12-12.001-12z"></path>
<path fill="#333333" d="M13.333 23.447c-0.010 0-0.021 0-0.031-0.001-0.378-0.009-0.735-0.177-0.981-0.464l-4.667-5.439c-0.479-0.559-0.415-1.401 0.144-1.88 0.558-0.481 1.4-0.416 1.88 0.143l3.701 4.313 8.983-9.542c0.505-0.536 1.349-0.562 1.885-0.057s0.561 1.348 0.057 1.885l-10 10.623c-0.252 0.266-0.603 0.418-0.971 0.418z"></path>
</svg>
