<?xml version="1.0" encoding="utf-8"?>
<!-- Generated by IcoMoon.io -->
<!DOCTYPE svg PUBLIC "-//W3C//DTD SVG 1.1//EN" "http://www.w3.org/Graphics/SVG/1.1/DTD/svg11.dtd">
<svg version="1.1" xmlns="http://www.w3.org/2000/svg" xmlns:xlink="http://www.w3.org/1999/xlink" width="32" height="32" viewBox="0 0 32 32">
<path fill="#333333" d="M30.886 3.011c-0.55-0.49-1.393-0.44-1.882 0.111l-14.917 16.781-5.021-6.695c-0.442-0.589-1.278-0.709-1.867-0.266-0.589 0.441-0.709 1.277-0.267 1.867l6 8c0.24 0.32 0.611 0.515 1.011 0.532 0.019 0.001 0.037 0.001 0.055 0.001 0.38 0 0.743-0.162 0.997-0.447l16-18c0.489-0.551 0.439-1.394-0.111-1.883z"></path>
<path fill="#333333" d="M28.667 12.008c-0.736 0-1.333 0.597-1.333 1.333v12.667c0 0.736-0.597 1.333-1.333 1.333h-20c-0.736 0-1.333-0.597-1.333-1.333v-20c0-0.737 0.597-1.333 1.333-1.333h17.333c0.736 0 1.333-0.597 1.333-1.333s-0.597-1.333-1.333-1.333h-17.333c-2.209 0-4 1.791-4 4v20c0 2.209 1.791 4 4 4h20c2.209 0 4-1.792 4-4v-12.667c0-0.737-0.597-1.333-1.333-1.333z"></path>
</svg>
