<?xml version="1.0" encoding="utf-8"?>
<!-- Generated by IcoMoon.io -->
<!DOCTYPE svg PUBLIC "-//W3C//DTD SVG 1.1//EN" "http://www.w3.org/Graphics/SVG/1.1/DTD/svg11.dtd">
<svg version="1.1" xmlns="http://www.w3.org/2000/svg" xmlns:xlink="http://www.w3.org/1999/xlink" width="32" height="32" viewBox="0 0 32 32">
<path fill="#333333" d="M15.34 30.009c-0.223 0-0.445-0.005-0.67-0.015-7.711-0.367-13.686-6.937-13.321-14.647s6.929-13.671 14.646-13.323c2.135 0.101 4.167 0.669 6.036 1.687 0.647 0.352 0.885 1.162 0.533 1.809s-1.163 0.883-1.809 0.533c-1.513-0.824-3.157-1.283-4.887-1.365-6.249-0.306-11.561 4.543-11.857 10.785s4.542 11.561 10.784 11.857c6.249 0.302 11.561-4.542 11.857-10.785 0.036-0.765-0.004-1.532-0.12-2.279-0.113-0.727 0.386-1.409 1.113-1.521 0.731-0.111 1.409 0.386 1.522 1.114 0.143 0.923 0.193 1.869 0.148 2.813-0.355 7.486-6.559 13.338-13.977 13.339z"></path>
<path fill="#333333" d="M13.993 22.113c-0.009 0-0.019 0-0.028 0-0.375-0.008-0.729-0.174-0.976-0.457l-5.333-6.105c-0.485-0.555-0.427-1.397 0.127-1.881 0.555-0.485 1.397-0.427 1.881 0.127l4.371 5.003 13.659-14.378c0.507-0.533 1.351-0.555 1.885-0.048s0.555 1.351 0.049 1.885l-14.667 15.439c-0.252 0.265-0.602 0.415-0.967 0.415z"></path>
</svg>
