<?xml version="1.0" encoding="utf-8"?>
<!-- Generated by IcoMoon.io -->
<!DOCTYPE svg PUBLIC "-//W3C//DTD SVG 1.1//EN" "http://www.w3.org/Graphics/SVG/1.1/DTD/svg11.dtd">
<svg version="1.1" xmlns="http://www.w3.org/2000/svg" xmlns:xlink="http://www.w3.org/1999/xlink" width="32" height="32" viewBox="0 0 32 32">
<path fill="#333333" d="M11.371 15.727c-0.459-0.577-1.298-0.672-1.874-0.212-0.576 0.459-0.671 1.298-0.212 1.874l4.333 5.439c0.243 0.305 0.607 0.488 0.996 0.502 0.016 0.001 0.031 0.001 0.047 0.001 0.373 0 0.729-0.155 0.982-0.431l7.333-7.978c0.498-0.542 0.463-1.385-0.079-1.884-0.542-0.497-1.385-0.461-1.884 0.079l-6.28 6.831-3.363-4.221z"></path>
<path fill="#333333" d="M31.476 12.953l-14.667-11.333c-0.48-0.371-1.151-0.371-1.63 0l-14.667 11.333c-0.583 0.451-0.69 1.288-0.24 1.871s1.287 0.691 1.87 0.24l1.851-1.431v15.709c0 0.736 0.597 1.333 1.333 1.333h21.333c0.736 0 1.333-0.597 1.333-1.333v-15.709l1.851 1.431c0.243 0.187 0.529 0.278 0.814 0.278 0.399 0 0.793-0.179 1.056-0.518 0.451-0.583 0.343-1.42-0.239-1.87zM25.328 28.008h-18.667v-16.437l9.333-7.212 9.333 7.212v16.437z"></path>
</svg>
