<?xml version="1.0" encoding="utf-8"?>
<!-- Generated by IcoMoon.io -->
<!DOCTYPE svg PUBLIC "-//W3C//DTD SVG 1.1//EN" "http://www.w3.org/Graphics/SVG/1.1/DTD/svg11.dtd">
<svg version="1.1" xmlns="http://www.w3.org/2000/svg" xmlns:xlink="http://www.w3.org/1999/xlink" width="32" height="32" viewBox="0 0 32 32">
<path fill="#333333" d="M10.991 14.122c-0.489-0.55-1.332-0.599-1.882-0.111-0.551 0.489-0.6 1.332-0.111 1.883l5.333 6c0.253 0.285 0.616 0.447 0.997 0.447 0.008 0 0.016 0 0.024 0 0.389-0.007 0.756-0.183 1.004-0.485l12.667-15.333c0.469-0.568 0.389-1.408-0.179-1.877-0.569-0.469-1.409-0.391-1.877 0.179l-11.676 14.133-4.3-4.837z"></path>
<path fill="#333333" d="M31.505 13.309l-3.277-2.681-2.901 3.523v13.523h-18.667v-15.974l9.333-7.637 5.391 4.411 1.695-2.059-6.241-5.106c-0.491-0.402-1.197-0.402-1.689 0l-14.667 12c-0.57 0.466-0.654 1.306-0.187 1.876s1.307 0.653 1.876 0.187l1.822-1.491v15.125c0 0.736 0.597 1.333 1.333 1.333h21.333c0.736 0 1.333-0.597 1.333-1.333v-15.125l1.822 1.491c0.248 0.203 0.547 0.301 0.844 0.301 0.386 0 0.769-0.167 1.033-0.489 0.467-0.57 0.383-1.41-0.187-1.876z"></path>
</svg>
