<?xml version="1.0" encoding="utf-8"?>
<!-- Generated by IcoMoon.io -->
<!DOCTYPE svg PUBLIC "-//W3C//DTD SVG 1.1//EN" "http://www.w3.org/Graphics/SVG/1.1/DTD/svg11.dtd">
<svg version="1.1" xmlns="http://www.w3.org/2000/svg" xmlns:xlink="http://www.w3.org/1999/xlink" width="32" height="32" viewBox="0 0 32 32">
<path fill="#333333" d="M22.362 8.422l-8.325 8.742-4.372-5.005c-0.485-0.555-1.326-0.612-1.881-0.127s-0.611 1.326-0.127 1.881l5.333 6.105c0.247 0.283 0.601 0.448 0.975 0.457 0.009 0 0.019 0 0.029 0 0.365 0 0.713-0.149 0.965-0.414l9.333-9.801c0.508-0.533 0.487-1.377-0.046-1.885s-1.377-0.487-1.885 0.046z"></path>
<path fill="#333333" d="M25.328 1.341h-18.667c-2.209 0-4 1.791-4 4v16.667c0 2.209 1.791 4 4 4h4.667l3.6 4.8c0.252 0.335 0.647 0.533 1.067 0.533s0.815-0.198 1.067-0.533l3.6-4.8h4.667c2.209 0 4-1.791 4-4v-16.667c0-2.209-1.791-4-4-4zM26.661 22.008c0 0.736-0.597 1.333-1.333 1.333h-5.334c-0.419 0-0.815 0.198-1.067 0.533l-2.933 3.911-2.933-3.911c-0.252-0.335-0.647-0.533-1.067-0.533h-5.333c-0.736 0-1.333-0.597-1.333-1.333v-16.667c0-0.736 0.597-1.333 1.333-1.333h18.666c0.736 0 1.333 0.597 1.333 1.333v16.667z"></path>
</svg>
