<?xml version="1.0" encoding="utf-8"?>
<!-- Generated by IcoMoon.io -->
<!DOCTYPE svg PUBLIC "-//W3C//DTD SVG 1.1//EN" "http://www.w3.org/Graphics/SVG/1.1/DTD/svg11.dtd">
<svg version="1.1" xmlns="http://www.w3.org/2000/svg" xmlns:xlink="http://www.w3.org/1999/xlink" width="32" height="32" viewBox="0 0 32 32">
<path fill="#333333" d="M26.667 1.333h-21.333c-2.206 0-4 1.794-4 4v21.333c0 2.206 1.794 4 4 4h21.333c2.206 0 4-1.794 4-4v-21.333c0-2.206-1.794-4-4-4zM28 26.667c0 0.735-0.598 1.333-1.333 1.333h-21.333c-0.735 0-1.333-0.598-1.333-1.333v-21.333c0-0.735 0.598-1.333 1.333-1.333h21.333c0.735 0 1.333 0.598 1.333 1.333v21.333z"></path>
<path fill="#333333" d="M22.667 18.667h-4v2.667h-5.333v-2.667h-4v-9.333h-2.667v12h4v2.667h10.667v-2.667h4v-12h-2.667z"></path>
<path fill="#333333" d="M12 9.333h2.667v5.333h-2.667v-5.333z"></path>
<path fill="#333333" d="M17.333 9.333h2.667v5.333h-2.667v-5.333z"></path>
</svg>
