<?xml version="1.0" encoding="utf-8"?>
<!-- Generated by IcoMoon.io -->
<!DOCTYPE svg PUBLIC "-//W3C//DTD SVG 1.1//EN" "http://www.w3.org/Graphics/SVG/1.1/DTD/svg11.dtd">
<svg version="1.1" xmlns="http://www.w3.org/2000/svg" xmlns:xlink="http://www.w3.org/1999/xlink" width="32" height="32" viewBox="0 0 32 32">
<path fill="#333333" d="M24.667 15.333h-14.667c-1.787 0-3.238 1.416-3.318 3.183l-3.419-1.709c-0.413-0.207-0.904-0.185-1.297 0.058s-0.633 0.673-0.633 1.135v10c0 0.462 0.239 0.891 0.632 1.134 0.215 0.133 0.458 0.199 0.701 0.199 0.204 0 0.408-0.047 0.597-0.141l3.419-1.709c0.080 1.767 1.531 3.183 3.318 3.183h14.667c1.838 0 3.333-1.495 3.333-3.333v-8.667c0-1.838-1.495-3.333-3.333-3.333zM4 20.157l2.667 1.333v3.019l-2.667 1.333v-5.685zM25.333 27.333c0 0.368-0.299 0.667-0.667 0.667h-14.667c-0.368 0-0.667-0.299-0.667-0.667v-8.667c0-0.368 0.299-0.667 0.667-0.667h14.667c0.368 0 0.667 0.299 0.667 0.667v8.667z"></path>
<path fill="#333333" d="M9.667 14.333c3.492 0 6.333-2.841 6.333-6.333s-2.841-6.333-6.333-6.333-6.333 2.841-6.333 6.333 2.841 6.333 6.333 6.333zM9.667 4.333c2.021 0 3.667 1.645 3.667 3.667s-1.645 3.667-3.667 3.667-3.667-1.645-3.667-3.667 1.645-3.667 3.667-3.667z"></path>
<path fill="#333333" d="M23.333 14.333c3.492 0 6.333-2.841 6.333-6.333s-2.841-6.333-6.333-6.333-6.333 2.841-6.333 6.333 2.841 6.333 6.333 6.333zM23.333 4.333c2.021 0 3.667 1.645 3.667 3.667s-1.645 3.667-3.667 3.667-3.667-1.645-3.667-3.667 1.645-3.667 3.667-3.667z"></path>
</svg>
