<?xml version="1.0" encoding="utf-8"?>
<!-- Generated by IcoMoon.io -->
<!DOCTYPE svg PUBLIC "-//W3C//DTD SVG 1.1//EN" "http://www.w3.org/Graphics/SVG/1.1/DTD/svg11.dtd">
<svg version="1.1" xmlns="http://www.w3.org/2000/svg" xmlns:xlink="http://www.w3.org/1999/xlink" width="32" height="32" viewBox="0 0 32 32">
<path fill="#333333" d="M31.559 10.863c-0.133-2.645-1.288-5.082-3.253-6.859-4.057-3.669-10.342-3.354-14.010 0.702l-11.861 13.113c0 0-0.001 0.001-0.002 0.002l-0.314 0.347c-0.071 0.078-0.127 0.163-0.177 0.252-1.057 1.429-1.589 3.159-1.507 4.952 0.095 2.057 0.985 3.947 2.505 5.323 1.416 1.28 3.219 1.972 5.119 1.972 0.143 0 0.285-0.003 0.429-0.012 2.051-0.112 3.942-1.015 5.325-2.544l6.255-6.915c0.001-0.001 0.001-0.001 0.001-0.001l5.573-6.161c0.943-1.043 1.423-2.389 1.353-3.793s-0.683-2.696-1.725-3.639c-2.127-1.924-5.407-1.778-7.363 0.303-0.011 0.012-0.025 0.020-0.036 0.033l-0.031 0.034c-0.001 0.002-0.003 0.003-0.003 0.004-0.001 0-0.001 0.001-0.001 0.001l-8.173 9.035c-0.494 0.546-0.452 1.389 0.095 1.884 0.255 0.23 0.575 0.344 0.894 0.344 0.364 0 0.727-0.148 0.989-0.438l8.176-9.039c0.96-1.060 2.605-1.143 3.665-0.183 0.514 0.465 0.817 1.102 0.851 1.795s-0.203 1.357-0.668 1.871l-11.829 13.076c-0.907 1.004-2.148 1.597-3.492 1.671-1.352 0.070-2.624-0.381-3.613-1.276s-1.569-2.127-1.63-3.466c-0.062-1.345 0.403-2.638 1.311-3.641l11.862-13.114c2.681-2.965 7.277-3.195 10.243-0.513 1.437 1.299 2.281 3.081 2.378 5.015s-0.566 3.791-1.865 5.227l-8.421 9.31c-0.494 0.547-0.452 1.389 0.095 1.884 0.255 0.231 0.575 0.344 0.894 0.344 0.364 0 0.727-0.147 0.989-0.439l8.421-9.31c1.777-1.965 2.683-4.504 2.551-7.15z"></path>
</svg>
