<?xml version="1.0" encoding="utf-8"?>
<!-- Generated by IcoMoon.io -->
<!DOCTYPE svg PUBLIC "-//W3C//DTD SVG 1.1//EN" "http://www.w3.org/Graphics/SVG/1.1/DTD/svg11.dtd">
<svg version="1.1" xmlns="http://www.w3.org/2000/svg" xmlns:xlink="http://www.w3.org/1999/xlink" width="32" height="32" viewBox="0 0 32 32">
<path fill="#333333" d="M31.777 13.261l-5.859-8.788c-0.582-0.873-1.768-1.806-3.351-1.806h-13.127c-1.999 0-3.069 1.373-3.35 1.794l-5.867 8.8c-0.212 0.319-0.277 0.712-0.179 1.082s0.35 0.679 0.693 0.851l6.058 3.029 0.373 2.325-2.429 7.017c-0.141 0.407-0.076 0.858 0.174 1.209s0.655 0.56 1.086 0.56h20c0.435 0 0.843-0.212 1.092-0.569s0.309-0.812 0.161-1.221l-2.539-6.983 0.465-2.327 6.084-3.042c0.342-0.171 0.594-0.481 0.693-0.851 0.099-0.369 0.033-0.763-0.179-1.081zM18.365 5.333l-2.365 2.66-2.364-2.66h4.729zM25.842 14.921l0.132-0.66c0.145-0.722-0.323-1.425-1.046-1.569-0.723-0.146-1.425 0.324-1.569 1.046l-1.333 6.667c-0.048 0.239-0.029 0.487 0.055 0.717l2.016 5.544h-16.224l1.925-5.564c0.072-0.208 0.091-0.43 0.056-0.647l-1.069-6.667c-0.117-0.727-0.801-1.225-1.528-1.105-0.727 0.117-1.222 0.801-1.105 1.528l0.123 0.769-2.995-1.497 5.029-7.543c0.095-0.142 0.457-0.607 1.132-0.607h0.628l4.936 5.553c0.252 0.285 0.615 0.447 0.996 0.447s0.743-0.163 0.997-0.447l4.935-5.553h0.635c0.699 0 1.090 0.555 1.132 0.619l5.021 7.531-2.877 1.439z"></path>
</svg>
