<?xml version="1.0" encoding="utf-8"?>
<!-- Generated by IcoMoon.io -->
<!DOCTYPE svg PUBLIC "-//W3C//DTD SVG 1.1//EN" "http://www.w3.org/Graphics/SVG/1.1/DTD/svg11.dtd">
<svg version="1.1" xmlns="http://www.w3.org/2000/svg" xmlns:xlink="http://www.w3.org/1999/xlink" width="32" height="32" viewBox="0 0 32 32">
<path fill="#333333" d="M20.001 4.001c-5.223 0-9.653 3.343-11.301 8h-0.699c-4.418 0-8 3.582-8 8s3.582 8 8 8h12c6.627 0 12-5.372 12-12s-5.373-12-12-12zM20.001 25.335h-12c-2.945 0-5.333-2.389-5.333-5.333s2.389-5.333 5.333-5.333h2.774c0.097-0.68 0.266-1.335 0.502-1.959 0.091-0.241 0.194-0.476 0.303-0.707 1.498-3.151 4.701-5.333 8.421-5.333 5.156 0 9.333 4.177 9.333 9.333s-4.177 9.333-9.333 9.333z"></path>
</svg>
