<?xml version="1.0" encoding="utf-8"?>
<!-- Generated by IcoMoon.io -->
<!DOCTYPE svg PUBLIC "-//W3C//DTD SVG 1.1//EN" "http://www.w3.org/Graphics/SVG/1.1/DTD/svg11.dtd">
<svg version="1.1" xmlns="http://www.w3.org/2000/svg" xmlns:xlink="http://www.w3.org/1999/xlink" width="32" height="32" viewBox="0 0 32 32">
<path fill="#333333" d="M21.724 23.059l-3.057 3.056v-10.112c0-0.736-0.597-1.333-1.333-1.333s-1.333 0.597-1.333 1.333v10.112l-3.057-3.056c-0.521-0.521-1.365-0.521-1.886 0.001-0.521 0.52-0.521 1.364 0 1.885l5.333 5.331c0.261 0.261 0.601 0.39 0.943 0.39s0.682-0.13 0.943-0.39l5.333-5.331c0.521-0.521 0.521-1.365 0-1.885-0.519-0.521-1.363-0.521-1.885-0.001z"></path>
<path fill="#333333" d="M20.001 4.001c-5.223 0-9.653 3.343-11.301 8h-0.699c-4.418 0-8 3.582-8 8s3.582 8 8 8h0.311c0.736 0 1.333-0.597 1.333-1.333s-0.597-1.333-1.333-1.333h-0.311c-2.945 0-5.333-2.389-5.333-5.333s2.389-5.333 5.333-5.333h2.774c0.097-0.68 0.266-1.335 0.502-1.959 0.091-0.241 0.194-0.476 0.303-0.707 1.498-3.151 4.701-5.333 8.421-5.333 5.156 0 9.333 4.177 9.333 9.333 0 2.735-1.185 5.181-3.061 6.881-0.071 0.065-0.146 0.126-0.219 0.189-0.231 0.242-0.375 0.569-0.375 0.931 0 0.745 0.604 1.349 1.35 1.349 0.27 0 0.521-0.081 0.732-0.218 0.092-0.077 0.183-0.156 0.272-0.237 2.433-2.191 3.968-5.359 3.968-8.894 0-6.628-5.373-12.001-12-12.001z"></path>
</svg>
