<?xml version="1.0" encoding="utf-8"?>
<!-- Generated by IcoMoon.io -->
<!DOCTYPE svg PUBLIC "-//W3C//DTD SVG 1.1//EN" "http://www.w3.org/Graphics/SVG/1.1/DTD/svg11.dtd">
<svg version="1.1" xmlns="http://www.w3.org/2000/svg" xmlns:xlink="http://www.w3.org/1999/xlink" width="32" height="32" viewBox="0 0 32 32">
<path fill="#333333" d="M17.335 13.333c-4.779 0-8.667 3.888-8.667 8.667s3.888 8.667 8.667 8.667 8.667-3.888 8.667-8.667-3.888-8.667-8.667-8.667zM17.335 28c-3.308 0-6-2.691-6-6s2.692-6 6-6 6 2.692 6 6c0 3.309-2.692 6-6 6z"></path>
<path fill="#333333" d="M20.002 20.667h-5.333c-0.736 0-1.333 0.597-1.333 1.333s0.597 1.333 1.333 1.333h5.333c0.736 0 1.333-0.597 1.333-1.333s-0.597-1.333-1.333-1.333z"></path>
<path fill="#333333" d="M20.002 1.333c-5.223 0-9.653 3.343-11.301 8h-0.699c-4.418 0-8 3.581-8 8 0 3.784 2.629 6.946 6.159 7.779 0.154 0.063 0.322 0.099 0.499 0.1 0.003 0 0.006 0.001 0.009 0.001 0.742 0 1.343-0.601 1.343-1.343 0-0.635-0.442-1.164-1.034-1.304-0.029-0.006-0.057-0.011-0.086-0.017-2.412-0.511-4.223-2.652-4.223-5.216 0-2.945 2.389-5.333 5.333-5.333h2.774c0.097-0.68 0.266-1.335 0.502-1.959 0.091-0.241 0.194-0.475 0.303-0.707 1.498-3.151 4.701-5.333 8.421-5.333 5.156 0 9.333 4.178 9.333 9.333 0 2.332-0.863 4.45-2.277 6.080-0.041 0.040-0.075 0.086-0.111 0.132-0.178 0.228-0.288 0.511-0.288 0.822 0 0.742 0.601 1.344 1.343 1.344 0.364 0 0.693-0.146 0.935-0.382 0.059-0.066 0.115-0.136 0.173-0.203 1.8-2.094 2.892-4.811 2.892-7.792 0-6.628-5.373-12.001-12-12.001z"></path>
</svg>
