<?xml version="1.0" encoding="utf-8"?>
<!-- Generated by IcoMoon.io -->
<!DOCTYPE svg PUBLIC "-//W3C//DTD SVG 1.1//EN" "http://www.w3.org/Graphics/SVG/1.1/DTD/svg11.dtd">
<svg version="1.1" xmlns="http://www.w3.org/2000/svg" xmlns:xlink="http://www.w3.org/1999/xlink" width="32" height="32" viewBox="0 0 32 32">
<path fill="#333333" d="M24.090 13.023c-0.897-3.681-4.228-6.356-8.090-6.356-4.595 0-8.333 3.738-8.333 8.333 0 0.245 0.011 0.49 0.032 0.733-2.285 0.383-4.032 2.375-4.032 4.767 0 2.665 2.168 4.833 4.833 4.833h13.5c3.492 0 6.333-2.841 6.333-6.333 0-2.722-1.737-5.104-4.243-5.977zM22 22.667h-13.5c-1.195 0-2.167-0.972-2.167-2.167 0-1.149 0.901-2.082 2.032-2.153 0.307 0.615 0.863 1.4 1.875 2.102 0.232 0.161 0.497 0.238 0.759 0.238 0.422 0 0.837-0.2 1.097-0.573 0.42-0.605 0.27-1.435-0.335-1.855-0.927-0.644-1.108-1.317-1.125-1.388-0.007-0.040-0.022-0.077-0.032-0.115-0.005-0.018-0.004-0.037-0.009-0.055-0.174-0.549-0.261-1.121-0.261-1.701 0-3.125 2.542-5.667 5.667-5.667 2.834 0 5.247 2.119 5.612 4.929 0.075 0.571 0.508 1.031 1.075 1.138 1.727 0.326 2.98 1.84 2.98 3.599 0 2.022-1.645 3.667-3.667 3.667z"></path>
</svg>
