<?xml version="1.0" encoding="utf-8"?>
<!-- Generated by IcoMoon.io -->
<!DOCTYPE svg PUBLIC "-//W3C//DTD SVG 1.1//EN" "http://www.w3.org/Graphics/SVG/1.1/DTD/svg11.dtd">
<svg version="1.1" xmlns="http://www.w3.org/2000/svg" xmlns:xlink="http://www.w3.org/1999/xlink" width="32" height="32" viewBox="0 0 32 32">
<path fill="#333333" d="M17.333 26.667c-0.736 0-1.333 0.597-1.333 1.333v2.667c0 0.736 0.597 1.333 1.333 1.333s1.333-0.597 1.333-1.333v-2.667c0-0.736-0.597-1.333-1.333-1.333z"></path>
<path fill="#333333" d="M12 26.667c-0.736 0-1.333 0.597-1.333 1.333v2.667c0 0.736 0.597 1.333 1.333 1.333s1.333-0.597 1.333-1.333v-2.667c0-0.736-0.597-1.333-1.333-1.333z"></path>
<path fill="#333333" d="M22.667 26.667c-0.736 0-1.333 0.597-1.333 1.333v2.667c0 0.736 0.597 1.333 1.333 1.333s1.333-0.597 1.333-1.333v-2.667c0-0.736-0.597-1.333-1.333-1.333z"></path>
<path fill="#333333" d="M28 26.667c-0.736 0-1.333 0.597-1.333 1.333v2.667c0 0.736 0.597 1.333 1.333 1.333s1.333-0.597 1.333-1.333v-2.667c0-0.736-0.597-1.333-1.333-1.333z"></path>
<path fill="#333333" d="M12 4.819c0.736 0 1.333-0.597 1.333-1.333v-2.152c0-0.736-0.597-1.333-1.333-1.333s-1.333 0.597-1.333 1.333v2.152c0 0.736 0.597 1.333 1.333 1.333z"></path>
<path fill="#333333" d="M1.084 8.405l1.864 1.076c0.21 0.121 0.439 0.179 0.665 0.179 0.461 0 0.909-0.239 1.156-0.667 0.368-0.638 0.15-1.453-0.488-1.821l-1.864-1.077c-0.64-0.369-1.453-0.15-1.821 0.488s-0.15 1.453 0.488 1.821z"></path>
<path fill="#333333" d="M2.948 16.855l-1.864 1.076c-0.638 0.368-0.856 1.183-0.488 1.821 0.247 0.428 0.695 0.667 1.156 0.667 0.226 0 0.456-0.057 0.665-0.179l1.864-1.076c0.638-0.368 0.856-1.183 0.488-1.821-0.368-0.637-1.185-0.857-1.821-0.487z"></path>
<path fill="#333333" d="M27.757 13.023c-0.897-3.681-4.227-6.356-8.090-6.356-0.943 0-1.863 0.159-2.749 0.473-1.387-1.138-3.099-1.76-4.917-1.76-4.294 0-7.789 3.494-7.789 7.789 0 2.537 1.218 4.864 3.24 6.315-0.075 0.335-0.118 0.674-0.118 1.017 0 2.665 2.168 4.833 4.833 4.833h13.5c3.492 0 6.333-2.841 6.333-6.333 0-2.722-1.737-5.104-4.243-5.977zM12 8.046c0.827 0 1.622 0.195 2.335 0.563-0.025 0.021-0.047 0.045-0.071 0.067-0.202 0.173-0.397 0.353-0.581 0.543-0.017 0.018-0.033 0.038-0.051 0.057-0.17 0.18-0.33 0.368-0.483 0.561-0.038 0.048-0.077 0.095-0.113 0.144-0.158 0.209-0.308 0.425-0.446 0.647-0.025 0.040-0.047 0.081-0.071 0.121-0.12 0.201-0.231 0.407-0.334 0.617-0.023 0.047-0.048 0.094-0.070 0.142-0.111 0.238-0.21 0.481-0.298 0.729-0.019 0.054-0.036 0.108-0.054 0.162-0.076 0.229-0.143 0.461-0.2 0.696-0.009 0.035-0.019 0.069-0.027 0.105-0.059 0.26-0.101 0.524-0.135 0.79-0.008 0.062-0.014 0.124-0.020 0.186-0.027 0.273-0.047 0.547-0.047 0.824 0 0.227 0.011 0.453 0.029 0.679 0.001 0.018 0.001 0.037 0.003 0.055-1.005 0.169-1.922 0.653-2.629 1.377-1.166-0.96-1.857-2.392-1.857-3.942-0.001-2.825 2.297-5.123 5.121-5.123zM25.667 22.667h-13.5c-1.195 0-2.167-0.972-2.167-2.167 0-0.326 0.084-0.655 0.251-0.979 0 0 0-0.001 0.001-0.001 0.359-0.697 1.016-1.143 1.789-1.179 0.273 0.542 0.738 1.22 1.545 1.859v0l0.059 0.048c0.081 0.067 0.164 0.133 0.259 0.2 0.233 0.163 0.499 0.24 0.763 0.24 0.421 0 0.835-0.199 1.095-0.569 0.162-0.233 0.24-0.499 0.24-0.762 0.001-0.421-0.199-0.835-0.569-1.095-0.035-0.024-0.063-0.049-0.093-0.073l-0.097-0.079c0 0-0.001 0-0.001 0v0c-0.523-0.414-0.761-0.816-0.863-1.039l-0.116-0.369c-0.175-0.549-0.263-1.121-0.263-1.701 0-2.195 1.235-4.151 3.223-5.105 0.777-0.373 1.599-0.561 2.444-0.561 2.834 0 5.247 2.119 5.612 4.929 0.074 0.572 0.508 1.031 1.075 1.139 1.727 0.325 2.98 1.839 2.98 3.599 0 2.022-1.645 3.667-3.667 3.667z"></path>
</svg>
