<?xml version="1.0" encoding="utf-8"?>
<!-- Generated by IcoMoon.io -->
<!DOCTYPE svg PUBLIC "-//W3C//DTD SVG 1.1//EN" "http://www.w3.org/Graphics/SVG/1.1/DTD/svg11.dtd">
<svg version="1.1" xmlns="http://www.w3.org/2000/svg" xmlns:xlink="http://www.w3.org/1999/xlink" width="32" height="32" viewBox="0 0 32 32">
<path fill="#333333" d="M29.334 26h-8.863c-0.575-1.925-2.361-3.333-4.47-3.333s-3.895 1.408-4.47 3.333h-8.864c-0.736 0-1.333 0.597-1.333 1.333s0.597 1.333 1.333 1.333h8.864c0.575 1.925 2.361 3.333 4.47 3.333s3.895-1.408 4.47-3.333h8.863c0.736 0 1.333-0.597 1.333-1.333s-0.597-1.333-1.333-1.333zM16.001 29.333c-1.103 0-2-0.897-2-2s0.897-2 2-2 2 0.897 2 2-0.897 2-2 2z"></path>
<path fill="#333333" d="M9.333 21.333h13.333c3.676 0 6.667-2.991 6.667-6.667 0-2.8-1.719-5.247-4.273-6.223-1.010-4.108-4.763-7.11-9.060-7.11s-8.050 3.002-9.061 7.11c-2.554 0.976-4.273 3.423-4.273 6.223 0 3.676 2.991 6.667 6.667 6.667zM8.403 10.777l0.876-0.209 0.133-0.892c0.481-3.236 3.313-5.675 6.588-5.675s6.107 2.439 6.587 5.675l0.133 0.892 0.876 0.209c1.807 0.431 3.071 2.030 3.071 3.889 0 2.207-1.794 4-4.001 4h-13.333c-2.207 0-4.001-1.793-4.001-4 0-1.859 1.263-3.458 3.071-3.889z"></path>
</svg>
