<?xml version="1.0" encoding="utf-8"?>
<!-- Generated by IcoMoon.io -->
<!DOCTYPE svg PUBLIC "-//W3C//DTD SVG 1.1//EN" "http://www.w3.org/Graphics/SVG/1.1/DTD/svg11.dtd">
<svg version="1.1" xmlns="http://www.w3.org/2000/svg" xmlns:xlink="http://www.w3.org/1999/xlink" width="32" height="32" viewBox="0 0 32 32">
<path fill="#333333" d="M27.757 13.023c-0.897-3.681-4.227-6.356-8.089-6.356-4.595 0-8.333 3.738-8.333 8.333 0 0.246 0.011 0.491 0.032 0.735-0.433 0.075-0.849 0.222-1.245 0.41-0.345-0.898-0.54-1.847-0.54-2.812 0-3.383 2.226-6.459 5.539-7.655 0.528-0.191 0.881-0.693 0.881-1.254s-0.352-1.063-0.881-1.254c-1.27-0.458-2.585-0.691-3.909-0.691-6.182 0-11.211 4.869-11.211 10.854 0 5.107 3.66 9.475 8.764 10.575 0.906 0.91 2.12 1.425 3.403 1.425h13.5c3.492 0 6.333-2.841 6.333-6.333 0-2.722-1.737-5.104-4.244-5.977zM7.335 20.627c-2.805-1.363-4.668-4.146-4.668-7.293 0-4.374 3.598-7.958 8.107-8.177-2.397 2.027-3.86 4.997-3.86 8.177 0 1.63 0.381 3.236 1.108 4.697-0.448 0.745-0.688 1.595-0.688 2.47 0 0.042 0.001 0.085 0.001 0.127zM25.667 22.667h-13.5c-0.642 0-1.25-0.296-1.67-0.811-0.227-0.279-0.497-0.74-0.497-1.355 0-0.536 0.207-1.055 0.581-1.461 0 0 0 0 0 0s0 0 0 0c0.387-0.419 0.895-0.665 1.444-0.701 0.306 0.615 0.865 1.406 1.881 2.111 0.605 0.42 1.435 0.27 1.855-0.335 0.161-0.232 0.239-0.497 0.238-0.76 0-0.422-0.2-0.837-0.573-1.095-0.952-0.661-1.117-1.353-1.12-1.353 0 0 0-0.001 0-0.001s0-0.001 0-0.001 0-0.001 0-0.001 0-0.001 0-0.001 0-0.001 0-0.001 0-0.001 0-0.002c0 0 0 0 0 0-0.011-0.071-0.027-0.14-0.049-0.207-0.171-0.547-0.257-1.116-0.257-1.691 0-3.125 2.542-5.667 5.667-5.667 2.834 0 5.247 2.119 5.612 4.929 0.075 0.572 0.508 1.031 1.075 1.139 1.727 0.326 2.98 1.84 2.98 3.599-0.001 2.020-1.646 3.665-3.667 3.665z"></path>
</svg>
