<?xml version="1.0" encoding="utf-8"?>
<!-- Generated by IcoMoon.io -->
<!DOCTYPE svg PUBLIC "-//W3C//DTD SVG 1.1//EN" "http://www.w3.org/Graphics/SVG/1.1/DTD/svg11.dtd">
<svg version="1.1" xmlns="http://www.w3.org/2000/svg" xmlns:xlink="http://www.w3.org/1999/xlink" width="32" height="32" viewBox="0 0 32 32">
<path fill="#333333" d="M27.678 9.35c-0.812-3.105-3.646-5.35-6.928-5.35-2.315 0-4.434 1.102-5.771 2.929-0.661-0.17-1.353-0.262-2.062-0.262-4.595 0-8.333 3.738-8.333 8.333 0 0.245 0.011 0.49 0.032 0.733-2.285 0.383-4.032 2.375-4.032 4.767 0 2.665 2.168 4.833 4.833 4.833h13.5c3.151 0 5.765-2.316 6.247-5.333h0.587c3.033 0 5.5-2.467 5.5-5.5 0-2.323-1.457-4.36-3.572-5.15zM18.917 22.667h-13.5c-1.195 0-2.167-0.972-2.167-2.167 0-1.149 0.901-2.082 2.031-2.153 0.307 0.614 0.863 1.4 1.875 2.102 0.232 0.161 0.497 0.238 0.759 0.238 0.423 0 0.837-0.2 1.097-0.573 0.42-0.605 0.27-1.435-0.335-1.855-0.928-0.645-1.109-1.318-1.125-1.389-0.007-0.039-0.021-0.074-0.031-0.111-0.005-0.019-0.004-0.039-0.010-0.058-0.173-0.55-0.261-1.123-0.261-1.701 0-3.125 2.542-5.667 5.667-5.667 2.834 0 5.247 2.119 5.612 4.929 0.074 0.572 0.508 1.031 1.075 1.139 1.727 0.326 2.98 1.84 2.98 3.599 0 2.021-1.645 3.666-3.667 3.666zM25.75 17.333h-0.727c-0.545-1.993-2.039-3.622-4.016-4.311-0.506-2.077-1.788-3.833-3.503-4.971 0.835-0.873 1.995-1.385 3.246-1.385 2.251 0 4.167 1.683 4.456 3.914 0.074 0.572 0.508 1.031 1.075 1.139 1.334 0.252 2.303 1.421 2.303 2.781 0 1.562-1.271 2.833-2.833 2.833z"></path>
</svg>
