<?xml version="1.0" encoding="utf-8"?>
<!-- Generated by IcoMoon.io -->
<!DOCTYPE svg PUBLIC "-//W3C//DTD SVG 1.1//EN" "http://www.w3.org/Graphics/SVG/1.1/DTD/svg11.dtd">
<svg version="1.1" xmlns="http://www.w3.org/2000/svg" xmlns:xlink="http://www.w3.org/1999/xlink" width="32" height="32" viewBox="0 0 32 32">
<path fill="#333333" d="M20.001 4.001c-5.223 0-9.653 3.343-11.301 8h-0.699c-4.418 0-8 3.582-8 8s3.582 8 8 8h4c0.736 0 1.333-0.597 1.333-1.333s-0.597-1.333-1.333-1.333h-4c-2.945 0-5.333-2.389-5.333-5.333s2.389-5.333 5.333-5.333h2.774c0.097-0.68 0.266-1.335 0.502-1.959 0.091-0.241 0.194-0.476 0.303-0.707 1.498-3.151 4.701-5.333 8.421-5.333 5.156 0 9.333 4.177 9.333 9.333 0 4.315-2.931 7.927-6.908 8.995-0.087 0.023-0.171 0.053-0.259 0.074-0.447 0.179-0.771 0.59-0.833 1.084-0.007 0.055-0.017 0.111-0.017 0.168s0.010 0.113 0.017 0.168c0.083 0.665 0.645 1.182 1.333 1.182 0.039 0 0.076-0.008 0.115-0.011 0.159-0.014 0.309-0.051 0.447-0.114 5.057-1.411 8.772-6.037 8.772-11.545-0.001-6.627-5.374-12-12.001-12z"></path>
<path fill="#333333" d="M21.724 20.943c0.261 0.261 0.601 0.39 0.943 0.39s0.683-0.13 0.943-0.391c0.521-0.521 0.521-1.365 0-1.885l-5.333-5.331c-0.007-0.007-0.014-0.011-0.021-0.017-0.056-0.055-0.117-0.105-0.182-0.149-0.035-0.023-0.074-0.040-0.111-0.060-0.039-0.021-0.077-0.045-0.119-0.062-0.046-0.019-0.095-0.031-0.142-0.044-0.036-0.011-0.070-0.025-0.107-0.031-0.173-0.035-0.35-0.035-0.523 0-0.037 0.007-0.071 0.021-0.107 0.031-0.048 0.014-0.096 0.025-0.142 0.044-0.042 0.017-0.079 0.041-0.119 0.062-0.037 0.021-0.075 0.037-0.111 0.060-0.065 0.044-0.125 0.095-0.182 0.149-0.007 0.006-0.014 0.010-0.021 0.017l-5.333 5.331c-0.521 0.521-0.521 1.364 0 1.885s1.365 0.521 1.886 0l3.056-3.056v11.447c0 0.736 0.597 1.333 1.333 1.333s1.333-0.597 1.333-1.333v-11.447l3.057 3.057z"></path>
</svg>
