<?xml version="1.0" encoding="utf-8"?>
<!-- Generated by IcoMoon.io -->
<!DOCTYPE svg PUBLIC "-//W3C//DTD SVG 1.1//EN" "http://www.w3.org/Graphics/SVG/1.1/DTD/svg11.dtd">
<svg version="1.1" xmlns="http://www.w3.org/2000/svg" xmlns:xlink="http://www.w3.org/1999/xlink" width="32" height="32" viewBox="0 0 32 32">
<path fill="#333333" d="M26.667 7.335c0-2.573-2.093-4.667-4.667-4.667s-4.667 2.093-4.667 4.667c0 1.797 1.023 3.357 2.515 4.137-0.485 1.265-2.131 2.181-4.445 3.337-0.227 0.113-0.466 0.23-0.711 0.349-1.064 0.518-2.29 1.119-3.359 1.877v-6.563c1.925-0.575 3.333-2.361 3.333-4.47 0-2.573-2.093-4.667-4.667-4.667s-4.667 2.093-4.667 4.667c0 2.11 1.408 3.895 3.333 4.47v11.060c-1.925 0.575-3.333 2.361-3.333 4.47 0 2.573 2.093 4.667 4.667 4.667s4.667-2.093 4.667-4.667c0-2.11-1.408-3.895-3.333-4.47v-0.197c0-1.575 2.616-2.849 4.527-3.779 0.254-0.124 0.501-0.245 0.737-0.362 2.463-1.232 5.207-2.608 5.901-5.22 2.34-0.249 4.169-2.234 4.169-4.639zM8.001 6.001c0-1.103 0.897-2 2-2s2 0.897 2 2-0.897 2-2 2-2-0.897-2-2zM12.001 26.001c0 1.103-0.897 2-2 2s-2-0.897-2-2 0.897-2 2-2 2 0.897 2 2zM22.001 9.335c-1.103 0-2-0.897-2-2s0.897-2 2-2 2 0.897 2 2-0.897 2-2 2z"></path>
</svg>
