<?xml version="1.0" encoding="utf-8"?>
<!-- Generated by IcoMoon.io -->
<!DOCTYPE svg PUBLIC "-//W3C//DTD SVG 1.1//EN" "http://www.w3.org/Graphics/SVG/1.1/DTD/svg11.dtd">
<svg version="1.1" xmlns="http://www.w3.org/2000/svg" xmlns:xlink="http://www.w3.org/1999/xlink" width="32" height="32" viewBox="0 0 32 32">
<path fill="#333333" d="M8.775 5.582c-0.599-0.428-1.432-0.289-1.86 0.31l-6.667 9.333c-0.331 0.464-0.331 1.087 0 1.55l6.667 9.333c0.26 0.364 0.669 0.558 1.085 0.558 0.268 0 0.539-0.081 0.774-0.249 0.599-0.428 0.738-1.261 0.31-1.86l-6.113-8.558 6.113-8.558c0.429-0.599 0.29-1.432-0.309-1.86z"></path>
<path fill="#333333" d="M31.679 15.132l-8-9.333c-0.479-0.559-1.321-0.624-1.88-0.145s-0.624 1.321-0.145 1.88l7.256 8.466-7.257 8.465c-0.479 0.559-0.415 1.401 0.145 1.88 0.252 0.216 0.561 0.321 0.867 0.321 0.375 0 0.749-0.158 1.013-0.465l8-9.333c0.428-0.5 0.428-1.236 0-1.736z"></path>
<path fill="#333333" d="M19.115 5.411c-0.695-0.248-1.457 0.114-1.704 0.807l-6.667 18.667c-0.248 0.693 0.113 1.457 0.807 1.704 0.149 0.053 0.3 0.078 0.449 0.078 0.547 0 1.061-0.34 1.255-0.885l6.667-18.667c0.248-0.693-0.113-1.456-0.807-1.704z"></path>
</svg>
