<?xml version="1.0" encoding="utf-8"?>
<!-- Generated by IcoMoon.io -->
<!DOCTYPE svg PUBLIC "-//W3C//DTD SVG 1.1//EN" "http://www.w3.org/Graphics/SVG/1.1/DTD/svg11.dtd">
<svg version="1.1" xmlns="http://www.w3.org/2000/svg" xmlns:xlink="http://www.w3.org/1999/xlink" width="32" height="32" viewBox="0 0 32 32">
<path fill="#333333" d="M9.333 8.667c0.713 0 1.29-0.561 1.327-1.265l0.007 0.005v-2.074c0-1.172 0.641-1.333 1.333-1.333h1.333c0.736 0 1.333-0.597 1.333-1.333s-0.597-1.333-1.333-1.333h-1.333c-2.43 0-4 1.57-4 4v2.074l0.007-0.005c0.037 0.704 0.614 1.265 1.327 1.265z"></path>
<path fill="#333333" d="M28.719 10h-25.333c-0.736 0-1.333 0.597-1.333 1.333v9.333c0 3.866 3.077 10 11.333 10s11.333-6.134 11.333-10h1.333c1.494 0 4-0.606 4-4.667v-4.667c0-0.736-0.597-1.333-1.333-1.333zM22.053 20.667c0 2.040-1.557 7.333-8.667 7.333s-8.667-5.293-8.667-7.333v-8h17.333v8zM27.386 16c0 2-0.709 2-1.333 2h-1.333v-5.333h2.667v3.333z"></path>
<path fill="#333333" d="M14.667 7.407c0 0.736 0.597 1.333 1.333 1.333s1.333-0.597 1.333-1.333l-0.001-0.704c0.001-0.011 0.003-0.023 0.005-0.037h1.996c1.732 0 2.667-1.374 2.667-2.667v-1.333c0-0.736-0.597-1.333-1.333-1.333s-1.333 0.597-1.333 1.333l0.001 1.295c-0.001 0.011-0.003 0.025-0.005 0.038h-2.006c-1.725 0-2.656 1.374-2.656 2.667v0.741z"></path>
</svg>
