<?xml version="1.0" encoding="utf-8"?>
<!-- Generated by IcoMoon.io -->
<!DOCTYPE svg PUBLIC "-//W3C//DTD SVG 1.1//EN" "http://www.w3.org/Graphics/SVG/1.1/DTD/svg11.dtd">
<svg version="1.1" xmlns="http://www.w3.org/2000/svg" xmlns:xlink="http://www.w3.org/1999/xlink" width="32" height="32" viewBox="0 0 32 32">
<path fill="#333333" d="M29.394 19.157l-1.774-1.405c0.088-0.581 0.133-1.168 0.133-1.752 0-0.579-0.044-1.16-0.131-1.737l1.779-1.405c0.466-0.32 0.8-0.792 0.941-1.327 0.169-0.612 0.087-1.253-0.231-1.805l-1.566-2.719c-0.421-0.733-1.209-1.188-2.056-1.188-0.346 0-0.691 0.077-1.005 0.223l-2.124 0.827c-0.933-0.749-1.981-1.357-3.090-1.791l-0.335-2.237c-0.101-1.225-1.124-2.173-2.364-2.173h-3.143c-1.241 0-2.264 0.948-2.364 2.173l-0.337 2.237c-1.104 0.433-2.149 1.038-3.081 1.784l-2.123-0.829c-0.314-0.147-0.66-0.225-1.007-0.225-0.847 0-1.635 0.455-2.056 1.186l-1.568 2.719c-0.62 1.075-0.307 2.435 0.709 3.132l1.779 1.409c-0.089 0.583-0.133 1.168-0.133 1.747 0 0.577 0.044 1.159 0.131 1.738l-1.778 1.405c-0.463 0.318-0.797 0.788-0.944 1.329-0.167 0.612-0.085 1.252 0.233 1.803l1.565 2.717c0.315 0.549 0.825 0.943 1.438 1.109 0.539 0.145 1.125 0.094 1.625-0.143l2.122-0.826c0.933 0.749 1.981 1.357 3.089 1.791l0.337 2.237c0.1 1.225 1.123 2.173 2.364 2.173h3.143c1.239 0 2.263-0.948 2.364-2.173l0.335-2.237c1.105-0.433 2.149-1.037 3.079-1.783l2.121 0.829c0.503 0.235 1.081 0.288 1.625 0.143 0.611-0.165 1.122-0.557 1.436-1.104l1.569-2.721c0.617-1.075 0.303-2.434-0.71-3.131zM26.353 23.451l-2.779-1.085c-0.473-0.186-1.016-0.083-1.392 0.264-1 0.928-2.211 1.629-3.503 2.027-0.489 0.151-0.849 0.569-0.925 1.076l-0.44 2.934h-2.625l-0.441-2.934c-0.076-0.507-0.435-0.925-0.925-1.076-1.295-0.399-2.509-1.103-3.51-2.035-0.375-0.349-0.916-0.452-1.392-0.267l-2.783 1.083-1.304-2.265 2.332-1.843c0.403-0.318 0.587-0.839 0.474-1.34-0.149-0.66-0.225-1.329-0.225-1.991s0.076-1.334 0.227-1.999c0.113-0.5-0.071-1.021-0.473-1.339l-2.332-1.847 1.307-2.265 2.783 1.087c0.476 0.186 1.016 0.084 1.391-0.264 1.003-0.929 2.215-1.631 3.505-2.029 0.489-0.151 0.849-0.569 0.925-1.076l0.441-2.933h2.625l0.441 2.934c0.076 0.507 0.435 0.925 0.925 1.076 1.295 0.399 2.509 1.103 3.511 2.035 0.375 0.349 0.917 0.451 1.392 0.266l2.783-1.083 1.305 2.266-2.332 1.842c-0.403 0.318-0.587 0.839-0.475 1.34 0.149 0.658 0.224 1.327 0.224 1.991 0 0.668-0.076 1.341-0.226 2.001-0.114 0.501 0.069 1.022 0.472 1.341l2.328 1.844-1.308 2.265z"></path>
<path fill="#333333" d="M16.035 9.119c-3.794 0-6.881 3.087-6.881 6.881s3.087 6.88 6.881 6.88c3.793 0 6.88-3.087 6.88-6.88 0-3.795-3.087-6.881-6.88-6.881zM16.035 20.214c-2.323 0-4.214-1.89-4.214-4.213s1.891-4.215 4.214-4.215 4.213 1.891 4.213 4.215c0 2.323-1.89 4.213-4.213 4.213z"></path>
</svg>
