<?xml version="1.0" encoding="utf-8"?>
<!-- Generated by IcoMoon.io -->
<!DOCTYPE svg PUBLIC "-//W3C//DTD SVG 1.1//EN" "http://www.w3.org/Graphics/SVG/1.1/DTD/svg11.dtd">
<svg version="1.1" xmlns="http://www.w3.org/2000/svg" xmlns:xlink="http://www.w3.org/1999/xlink" width="32" height="32" viewBox="0 0 32 32">
<path fill="#333333" d="M20.667 6c0-2.573-2.094-4.667-4.667-4.667s-4.667 2.093-4.667 4.667 2.094 4.667 4.667 4.667 4.667-2.093 4.667-4.667zM16 8c-1.103 0-2-0.897-2-2s0.897-2 2-2 2 0.897 2 2-0.897 2-2 2z"></path>
<path fill="#333333" d="M10.667 12h-6.115l1.724-1.724c0.521-0.521 0.521-1.365 0-1.886s-1.365-0.521-1.885 0l-4 4c-0.521 0.521-0.521 1.365 0 1.886l4 4c0.261 0.261 0.601 0.391 0.943 0.391s0.682-0.13 0.943-0.391c0.521-0.521 0.521-1.365 0-1.886l-1.724-1.723h6.115c0.598 0 1.333 0.735 1.333 1.333v13.333c0 0.736 0.597 1.333 1.333 1.333s1.333-0.597 1.333-1.333v-13.333c0-2.056-1.944-4-4-4z"></path>
<path fill="#333333" d="M31.609 12.391l-4-4c-0.521-0.521-1.365-0.521-1.885 0s-0.521 1.365 0 1.886l1.724 1.723h-6.115c-2.056 0-4 1.944-4 4v13.333c0 0.736 0.597 1.333 1.333 1.333s1.333-0.597 1.333-1.333v-13.333c0-0.598 0.735-1.333 1.333-1.333h6.115l-1.724 1.724c-0.521 0.521-0.521 1.365 0 1.886 0.261 0.26 0.601 0.39 0.943 0.39s0.682-0.13 0.943-0.391l4-4c0.521-0.521 0.521-1.365 0-1.885z"></path>
</svg>
