<?xml version="1.0" encoding="utf-8"?>
<!-- Generated by IcoMoon.io -->
<!DOCTYPE svg PUBLIC "-//W3C//DTD SVG 1.1//EN" "http://www.w3.org/Graphics/SVG/1.1/DTD/svg11.dtd">
<svg version="1.1" xmlns="http://www.w3.org/2000/svg" xmlns:xlink="http://www.w3.org/1999/xlink" width="32" height="32" viewBox="0 0 32 32">
<path fill="#333333" d="M16.019 2.11c-8.823 0-16 6.579-16 14.667 0 7.045 5.683 12.795 12.776 13.086 0.016 0.001 0.031 0.007 0.048 0.009 0.122 0.009 0.242 0.014 0.362 0.014 0.009 0 0.018-0.001 0.028-0.001 0.040 0.001 0.079 0.006 0.119 0.006 0.075 0 0.149-0.011 0.221-0.022 2.166-0.179 3.952-1.906 4.129-4.14 0.096-1.203-0.283-2.371-1.065-3.289s-1.875-1.477-3.078-1.572l-2.485-0.198c-0.724-0.057-1.376 0.489-1.435 1.223s0.489 1.377 1.224 1.435l2.485 0.198c0.492 0.039 0.94 0.267 1.261 0.643s0.475 0.854 0.436 1.347c-0.039 0.492-0.267 0.939-0.643 1.26-0.361 0.308-0.815 0.462-1.287 0.435-5.771-0.125-10.429-4.753-10.429-10.435 0-6.617 5.981-12 13.333-12s13.333 5.383 13.333 12c0 5.127-2.947 8.54-8.759 10.143-0.71 0.195-1.127 0.93-0.931 1.639s0.929 1.13 1.64 0.931c6.91-1.905 10.716-6.42 10.716-12.713 0-8.087-7.177-14.667-16-14.667z"></path>
<path fill="#333333" d="M20.888 9.443c0 1.216-0.986 2.203-2.203 2.203s-2.203-0.986-2.203-2.203c0-1.216 0.986-2.203 2.203-2.203s2.203 0.986 2.203 2.203z"></path>
<path fill="#333333" d="M13.593 10.524c0 1.448-1.174 2.623-2.623 2.623s-2.623-1.174-2.623-2.623c0-1.448 1.174-2.623 2.623-2.623s2.623 1.174 2.623 2.623z"></path>
<path fill="#333333" d="M26.348 13.612c0 1.011-0.82 1.831-1.831 1.831s-1.831-0.82-1.831-1.831c0-1.011 0.82-1.831 1.831-1.831s1.831 0.82 1.831 1.831z"></path>
<path fill="#333333" d="M27.015 19.443c0 1.011-0.82 1.831-1.831 1.831s-1.831-0.82-1.831-1.831c0-1.011 0.82-1.831 1.831-1.831s1.831 0.82 1.831 1.831z"></path>
</svg>
