<?xml version="1.0" encoding="utf-8"?>
<!-- Generated by IcoMoon.io -->
<!DOCTYPE svg PUBLIC "-//W3C//DTD SVG 1.1//EN" "http://www.w3.org/Graphics/SVG/1.1/DTD/svg11.dtd">
<svg version="1.1" xmlns="http://www.w3.org/2000/svg" xmlns:xlink="http://www.w3.org/1999/xlink" width="32" height="32" viewBox="0 0 32 32">
<path fill="#333333" d="M24 18.67h-2.667v-5.333h2.667c2.945 0 5.333-2.388 5.333-5.333 0-2.947-2.388-5.334-5.333-5.334s-5.333 2.388-5.333 5.334v2.665h-5.333v-2.665c0-2.947-2.387-5.334-5.333-5.334s-5.333 2.388-5.333 5.334c0 2.945 2.388 5.333 5.333 5.333h2.667v5.333h-2.667c-2.945 0-5.333 2.389-5.333 5.333 0 2.947 2.388 5.334 5.333 5.334s5.333-2.387 5.333-5.334v-2.665h5.333v2.659c0 0.003 0 0.004 0 0.006 0 2.947 2.387 5.334 5.333 5.334s5.333-2.387 5.333-5.334c0-2.945-2.388-5.331-5.333-5.333zM21.333 8.004c0-1.474 1.195-2.667 2.667-2.667s2.667 1.194 2.667 2.667c0 1.473-1.194 2.665-2.667 2.665h-2.667v-2.665zM10.667 24.003c0 1.474-1.195 2.667-2.667 2.667s-2.667-1.193-2.667-2.667c0-1.472 1.194-2.665 2.667-2.665h2.667v2.665zM10.667 10.669h-2.667c-1.473 0-2.667-1.193-2.667-2.665 0-1.474 1.194-2.667 2.667-2.667s2.667 1.194 2.667 2.667v2.665zM18.667 18.67h-5.333v-5.333h5.333v5.333zM24 26.67c-1.472 0-2.667-1.193-2.667-2.667v-2.665h2.667c1.473 0 2.667 1.193 2.667 2.665 0 1.474-1.194 2.667-2.667 2.667z"></path>
</svg>
