<?xml version="1.0" encoding="utf-8"?>
<!-- Generated by IcoMoon.io -->
<!DOCTYPE svg PUBLIC "-//W3C//DTD SVG 1.1//EN" "http://www.w3.org/Graphics/SVG/1.1/DTD/svg11.dtd">
<svg version="1.1" xmlns="http://www.w3.org/2000/svg" xmlns:xlink="http://www.w3.org/1999/xlink" width="32" height="32" viewBox="0 0 32 32">
<path fill="#333333" d="M6 1.333c-2.573 0-4.667 2.093-4.667 4.667s2.094 4.667 4.667 4.667 4.667-2.093 4.667-4.667-2.094-4.667-4.667-4.667zM6 8c-1.103 0-2-0.897-2-2s0.897-2 2-2 2 0.897 2 2-0.897 2-2 2z"></path>
<path fill="#333333" d="M16 6.667c-2.573 0-4.667 2.093-4.667 4.667s2.094 4.667 4.667 4.667 4.667-2.093 4.667-4.667-2.094-4.667-4.667-4.667zM16 13.333c-1.103 0-2-0.897-2-2s0.897-2 2-2 2 0.897 2 2-0.897 2-2 2z"></path>
<path fill="#333333" d="M26 10.667c2.573 0 4.667-2.093 4.667-4.667s-2.094-4.667-4.667-4.667-4.667 2.093-4.667 4.667 2.094 4.667 4.667 4.667zM26 4c1.103 0 2 0.897 2 2s-0.897 2-2 2-2-0.897-2-2 0.897-2 2-2z"></path>
<path fill="#333333" d="M6 12.667c-2.206 0-4 1.795-4 4v11.333c0 0.736 0.597 1.333 1.333 1.333s1.333-0.597 1.333-1.333v-11.333c0-0.87 0.774-1.333 1.333-1.333s1.333 0.463 1.333 1.333v11.333c0 0.736 0.597 1.333 1.333 1.333s1.333-0.597 1.333-1.333v-11.333c0-2.205-1.794-4-4-4z"></path>
<path fill="#333333" d="M26 12.667c-2.206 0-4 1.795-4 4v11.333c0 0.736 0.597 1.333 1.333 1.333s1.333-0.597 1.333-1.333v-11.333c0-0.87 0.774-1.333 1.333-1.333s1.333 0.463 1.333 1.333v11.333c0 0.736 0.597 1.333 1.333 1.333s1.333-0.597 1.333-1.333v-11.333c0-2.205-1.794-4-4-4z"></path>
<path fill="#333333" d="M16 18c-2.206 0-4 1.795-4 4v8.667c0 0.736 0.597 1.333 1.333 1.333s1.333-0.597 1.333-1.333v-8.667c0-0.87 0.774-1.333 1.333-1.333s1.333 0.463 1.333 1.333v8.667c0 0.736 0.597 1.333 1.333 1.333s1.333-0.597 1.333-1.333v-8.667c0-2.205-1.794-4-4-4z"></path>
</svg>
