<?xml version="1.0" encoding="utf-8"?>
<!-- Generated by IcoMoon.io -->
<!DOCTYPE svg PUBLIC "-//W3C//DTD SVG 1.1//EN" "http://www.w3.org/Graphics/SVG/1.1/DTD/svg11.dtd">
<svg version="1.1" xmlns="http://www.w3.org/2000/svg" xmlns:xlink="http://www.w3.org/1999/xlink" width="32" height="32" viewBox="0 0 32 32">
<path fill="#333333" d="M20.667 7.525h-9.333c-0.736 0-1.333 0.597-1.333 1.333s0.597 1.333 1.333 1.333h9.333c0.736 0 1.333-0.597 1.333-1.333s-0.597-1.333-1.333-1.333z"></path>
<path fill="#333333" d="M20.667 12.651h-9.333c-0.736 0-1.333 0.597-1.333 1.333s0.597 1.333 1.333 1.333h9.333c0.736 0 1.333-0.597 1.333-1.333s-0.597-1.333-1.333-1.333z"></path>
<path fill="#333333" d="M20.667 18h-9.333c-0.736 0-1.333 0.597-1.333 1.333s0.597 1.333 1.333 1.333h9.333c0.736 0 1.333-0.597 1.333-1.333s-0.597-1.333-1.333-1.333z"></path>
<path fill="#333333" d="M24 1.333h-16c-2.741 0-5.333 2.592-5.333 5.333v15.333c0 2.741 2.592 5.333 5.333 5.333h4.043l2.933 3.52c0.254 0.304 0.629 0.48 1.025 0.48s0.771-0.176 1.024-0.48l2.933-3.52h4.043c2.741 0 5.333-2.592 5.333-5.333v-15.333c0-2.741-2.592-5.333-5.333-5.333zM26.667 22c0 1.271-1.396 2.667-2.667 2.667h-4.667c-0.396 0-0.771 0.176-1.024 0.48l-2.309 2.771-2.309-2.771c-0.253-0.304-0.628-0.48-1.024-0.48h-4.667c-1.271 0-2.667-1.396-2.667-2.667v-15.333c0-1.271 1.396-2.667 2.667-2.667h16c1.271 0 2.667 1.396 2.667 2.667v15.333z"></path>
</svg>
