<?xml version="1.0" encoding="utf-8"?>
<!-- Generated by IcoMoon.io -->
<!DOCTYPE svg PUBLIC "-//W3C//DTD SVG 1.1//EN" "http://www.w3.org/Graphics/SVG/1.1/DTD/svg11.dtd">
<svg version="1.1" xmlns="http://www.w3.org/2000/svg" xmlns:xlink="http://www.w3.org/1999/xlink" width="32" height="32" viewBox="0 0 32 32">
<path fill="#333333" d="M8.667 12.667c0 0.92-0.746 1.667-1.667 1.667s-1.667-0.746-1.667-1.667c0-0.92 0.746-1.667 1.667-1.667s1.667 0.746 1.667 1.667z"></path>
<path fill="#333333" d="M13.667 12.667c0 0.92-0.746 1.667-1.667 1.667s-1.667-0.746-1.667-1.667c0-0.92 0.746-1.667 1.667-1.667s1.667 0.746 1.667 1.667z"></path>
<path fill="#333333" d="M18.667 12.667c0 0.92-0.746 1.667-1.667 1.667s-1.667-0.746-1.667-1.667c0-0.92 0.746-1.667 1.667-1.667s1.667 0.746 1.667 1.667z"></path>
<path fill="#333333" d="M24 12.667c0-0.977-0.166-1.955-0.484-2.899-0.361-1.074-0.931-2.097-1.696-3.019-1.981-2.388-5.292-4.082-9.881-4.082-7.030 0-11.939 4.066-11.939 9.887 0 4.997 3.386 6.773 6.257 8.129l-0.703 1.583c-0.349 0.719-0.274 1.567 0.2 2.219 0.406 0.553 1.057 0.883 1.742 0.883 0.107 0 0.213-0.009 0.318-0.025 0.027-0.004 0.055-0.009 0.082-0.015 1.535-0.334 2.918-0.709 4.177-1.115 1.084-0.349 2.072-0.719 2.97-1.108 7.937-3.436 8.956-8.226 8.956-10.439zM9.969 22.068c-0.511 0.143-1.037 0.283-1.594 0.417l0.848-1.908c0.292-0.657 0.011-1.427-0.636-1.741-0.103-0.050-0.209-0.099-0.314-0.149-0.183-0.087-0.366-0.175-0.551-0.262-3.134-1.472-5.055-2.543-5.055-5.871 0-4.251 3.813-7.221 9.273-7.221 2.319 0 4.339 0.535 5.909 1.469 1.105 0.657 1.982 1.513 2.58 2.525 0.581 0.981 0.905 2.104 0.905 3.339 0 1.761-0.959 5.679-8.641 8.525-0.827 0.306-1.733 0.599-2.723 0.877z"></path>
<path fill="#333333" d="M32 16.537c0-4.453-2.877-7.87-7.373-9.235 0.587 1.083 0.98 2.239 1.189 3.418 2.193 1.271 3.517 3.319 3.517 5.817 0 3.327-1.921 4.399-5.055 5.871-0.291 0.137-0.58 0.273-0.865 0.411-0.647 0.314-0.928 1.084-0.636 1.741l0.849 1.908c-2.634-0.632-4.735-1.375-6.416-2.17-0.935 0.467-1.97 0.913-3.111 1.332 2.345 1.418 5.569 2.717 10.005 3.682 0.027 0.006 0.055 0.011 0.082 0.015 0.105 0.016 0.211 0.024 0.318 0.024 0.685 0 1.336-0.33 1.745-0.888 0.471-0.647 0.546-1.495 0.216-2.173l-0.722-1.625c2.871-1.355 6.257-3.132 6.257-8.128z"></path>
</svg>
