<?xml version="1.0" encoding="utf-8"?>
<!-- Generated by IcoMoon.io -->
<!DOCTYPE svg PUBLIC "-//W3C//DTD SVG 1.1//EN" "http://www.w3.org/Graphics/SVG/1.1/DTD/svg11.dtd">
<svg version="1.1" xmlns="http://www.w3.org/2000/svg" xmlns:xlink="http://www.w3.org/1999/xlink" width="32" height="32" viewBox="0 0 32 32">
<path fill="#333333" d="M6.667 21.333h18.667c2.206 0 4-1.794 4-4v-12c0-2.206-1.794-4-4-4h-18.667c-2.206 0-4 1.794-4 4v12c0 2.206 1.794 4 4 4zM5.333 5.333c0-0.735 0.598-1.333 1.333-1.333h18.667c0.735 0 1.333 0.598 1.333 1.333v12c0 0.735-0.598 1.333-1.333 1.333h-18.667c-0.735 0-1.333-0.598-1.333-1.333v-12z"></path>
<path fill="#333333" d="M29.334 26h-8.863c-0.575-1.925-2.361-3.333-4.47-3.333s-3.895 1.408-4.47 3.333h-8.864c-0.736 0-1.333 0.597-1.333 1.333s0.597 1.333 1.333 1.333h8.863c0.575 1.925 2.361 3.333 4.47 3.333s3.895-1.408 4.47-3.333h8.863c0.736 0 1.333-0.597 1.333-1.333s-0.597-1.333-1.333-1.333zM16.001 29.333c-1.103 0-2-0.897-2-2s0.897-2 2-2 2 0.897 2 2-0.897 2-2 2z"></path>
</svg>
