<?xml version="1.0" encoding="utf-8"?>
<!-- Generated by IcoMoon.io -->
<!DOCTYPE svg PUBLIC "-//W3C//DTD SVG 1.1//EN" "http://www.w3.org/Graphics/SVG/1.1/DTD/svg11.dtd">
<svg version="1.1" xmlns="http://www.w3.org/2000/svg" xmlns:xlink="http://www.w3.org/1999/xlink" width="32" height="32" viewBox="0 0 32 32">
<path fill="#333333" d="M16 0.667c-8.455 0-15.333 6.879-15.333 15.333s6.879 15.333 15.333 15.333 15.333-6.879 15.333-15.333-6.879-15.333-15.333-15.333zM16 28.667c-6.985 0-12.667-5.682-12.667-12.667s5.682-12.667 12.667-12.667 12.667 5.682 12.667 12.667-5.682 12.667-12.667 12.667z"></path>
<path fill="#333333" d="M17.333 6c0 0.736-0.597 1.333-1.333 1.333s-1.333-0.597-1.333-1.333c0-0.736 0.597-1.333 1.333-1.333s1.333 0.597 1.333 1.333z"></path>
<path fill="#333333" d="M17.333 26c0 0.736-0.597 1.333-1.333 1.333s-1.333-0.597-1.333-1.333c0-0.736 0.597-1.333 1.333-1.333s1.333 0.597 1.333 1.333z"></path>
<path fill="#333333" d="M27.333 16c0 0.736-0.597 1.333-1.333 1.333s-1.333-0.597-1.333-1.333c0-0.736 0.597-1.333 1.333-1.333s1.333 0.597 1.333 1.333z"></path>
<path fill="#333333" d="M7.333 16c0 0.736-0.597 1.333-1.333 1.333s-1.333-0.597-1.333-1.333c0-0.736 0.597-1.333 1.333-1.333s1.333 0.597 1.333 1.333z"></path>
<path fill="#333333" d="M8.007 23.961l10.999-4.843 4.986-11.125-10.999 5-4.986 10.968zM15.007 15.007l3.667-1.667-1.681 3.751-3.667 1.615 1.681-3.699z"></path>
</svg>
