<?xml version="1.0" encoding="utf-8"?>
<!-- Generated by IcoMoon.io -->
<!DOCTYPE svg PUBLIC "-//W3C//DTD SVG 1.1//EN" "http://www.w3.org/Graphics/SVG/1.1/DTD/svg11.dtd">
<svg version="1.1" xmlns="http://www.w3.org/2000/svg" xmlns:xlink="http://www.w3.org/1999/xlink" width="32" height="32" viewBox="0 0 32 32">
<path fill="#333333" d="M28.941 3.061c-0.521-0.521-1.365-0.521-1.886 0-0.006 0.006-0.009 0.013-0.015 0.019l-0.001-0.001-7.041 7.041v-4.769c0.003-0.345-0.125-0.692-0.389-0.955-0.521-0.521-1.365-0.521-1.886 0-0.261 0.26-0.391 0.601-0.391 0.942h-0.001v8h0.001c0 0.341 0.13 0.683 0.391 0.944 0.262 0.262 0.606 0.391 0.95 0.389h7.984c0.344 0.002 0.688-0.127 0.951-0.389 0.52-0.522 0.52-1.366 0-1.886-0.261-0.261-0.602-0.391-0.943-0.391v-0.001h-4.78l7.039-7.041c0.006-0.006 0.013-0.010 0.019-0.015 0.519-0.521 0.518-1.365-0.001-1.886z"></path>
<path fill="#333333" d="M14.273 17.731c-0.261-0.261-0.602-0.391-0.943-0.391v-0.003l-7.999 0.003c-0.341 0-0.683 0.13-0.943 0.391-0.52 0.521-0.52 1.364 0 1.885 0.267 0.267 0.62 0.395 0.971 0.388h4.757l-7.059 7.059c-0.521 0.519-0.521 1.363 0 1.885 0.52 0.519 1.365 0.521 1.886 0 0.001-0.001 0.002-0.003 0.003-0.003l7.051-7.051v4.779h0.002c0 0.341 0.13 0.682 0.39 0.943 0.521 0.521 1.365 0.521 1.886 0 0.265-0.265 0.394-0.615 0.389-0.963v-7.958c0.005-0.348-0.123-0.697-0.389-0.963z"></path>
</svg>
