<?xml version="1.0" encoding="utf-8"?>
<!-- Generated by IcoMoon.io -->
<!DOCTYPE svg PUBLIC "-//W3C//DTD SVG 1.1//EN" "http://www.w3.org/Graphics/SVG/1.1/DTD/svg11.dtd">
<svg version="1.1" xmlns="http://www.w3.org/2000/svg" xmlns:xlink="http://www.w3.org/1999/xlink" width="32" height="32" viewBox="0 0 32 32">
<path fill="#333333" d="M25.333 10.67h4c0.736 0 1.333-0.597 1.333-1.333s-0.597-1.333-1.333-1.333h-4c-0.737 0-1.333-0.596-1.333-1.333v-4c0-0.736-0.597-1.333-1.333-1.333s-1.333 0.597-1.333 1.333v4c0 2.21 1.791 4 4 4zM2.667 10.67h4c2.209 0 4-1.791 4-4v-4c0-0.736-0.597-1.333-1.333-1.333s-1.333 0.597-1.333 1.333v4c0 0.737-0.597 1.333-1.333 1.333h-4c-0.736 0-1.333 0.597-1.333 1.333s0.597 1.333 1.333 1.333zM22.667 30.67c0.736 0 1.333-0.596 1.333-1.333v-4c0-0.737 0.597-1.333 1.333-1.333h4c0.736 0 1.333-0.596 1.333-1.333 0-0.736-0.597-1.333-1.333-1.333h-4c-2.209 0-4 1.792-4 4v4c0 0.737 0.597 1.333 1.333 1.333zM2.667 24.003h4c0.737 0 1.333 0.597 1.333 1.333v4c0 0.737 0.597 1.333 1.333 1.333s1.333-0.596 1.333-1.333v-4c0-2.208-1.791-4-4-4h-4c-0.736 0-1.333 0.597-1.333 1.333 0 0.737 0.597 1.333 1.333 1.333z"></path>
</svg>
