<?xml version="1.0" encoding="utf-8"?>
<!-- Generated by IcoMoon.io -->
<!DOCTYPE svg PUBLIC "-//W3C//DTD SVG 1.1//EN" "http://www.w3.org/Graphics/SVG/1.1/DTD/svg11.dtd">
<svg version="1.1" xmlns="http://www.w3.org/2000/svg" xmlns:xlink="http://www.w3.org/1999/xlink" width="32" height="32" viewBox="0 0 32 32">
<path fill="#333333" d="M10.747 12.873c0.977 3.108 1.864 2.53 1.864 2.53 0.887-0.422 0.598-2.997 0.598-2.997-0.199-1.488-0.909-5.106-0.909-5.106-0.398-2.397-1.288-2.442-1.288-2.442-1.597-0.222-1.376 2.353-1.376 2.353 0.222 2.019 1.111 5.661 1.111 5.661z"></path>
<path fill="#333333" d="M8.217 17.49c0.844 0.867 0.598-1.087 0.598-1.087-0.154-0.71-1.729-6.349-1.729-6.349-0.469-1.109-1.378-0.865-1.378-0.865-1.311 0.377-0.778 2.175-0.778 2.175 0.312 1.199 1.244 2.997 1.244 2.997 1.445 2.909 2.043 3.13 2.043 3.13z"></path>
<path fill="#333333" d="M21.758 15.027c1.421-2.843 1.909-7.459 1.909-7.459 0-2.841-1.643-1.732-1.643-1.732-1.064 0.489-1.998 7.060-1.998 7.060-0.134 0.488-0.134 2.131-0.134 2.131 0.621 2.44 1.866 0 1.866 0z"></path>
<path fill="#333333" d="M15.765 13.207c0.798 3.063 1.776 0.844 1.776 0.844 0.666-1.109 0.711-7.991 0.711-7.991 0.176-2.708-0.934-2.975-0.934-2.975-1.909-0.623-1.821 2.265-1.821 2.265-0.045 6.391 0.267 7.857 0.267 7.857z"></path>
<path fill="#333333" d="M26.196 19.2c-1.33-0.354-3.062 1.154-3.062 1.154-0.489 0.311-3.33 3.329-3.33 3.329-0.489 0.71-1.686 1.333-1.686 1.333-3.863 1.508-5.684-1.022-5.684-1.022-1.064-2.308 0.977-3.775 0.977-3.775 1.021-0.887 3.862-0.132 3.862-0.132 2.708 0.621 3.508-0.576 3.508-0.576 1.687-1.909-1.241-2.931-1.241-2.931-3.11-1.153-7.194-0.132-7.194-0.132-6.437 2.265-5.194 7.104-5.194 7.104 1.154 4.084 5.194 5.017 5.194 5.017 5.772 1.821 8.881-1.376 8.881-1.376 1.729-1.553 3.995-4.084 3.995-4.084 1.954-2.088 2.088-2.886 2.088-2.886-0.001-0.756-1.114-1.022-1.114-1.022z"></path>
</svg>
