<?xml version="1.0" encoding="utf-8"?>
<!-- Generated by IcoMoon.io -->
<!DOCTYPE svg PUBLIC "-//W3C//DTD SVG 1.1//EN" "http://www.w3.org/Graphics/SVG/1.1/DTD/svg11.dtd">
<svg version="1.1" xmlns="http://www.w3.org/2000/svg" xmlns:xlink="http://www.w3.org/1999/xlink" width="32" height="32" viewBox="0 0 32 32">
<path fill="#333333" d="M16 1.333c-8.087 0-14.667 6.579-14.667 14.667s6.579 14.667 14.667 14.667 14.667-6.579 14.667-14.667-6.579-14.667-14.667-14.667zM16 28c-6.617 0-12-5.383-12-12s5.383-12 12-12 12 5.383 12 12-5.383 12-12 12z"></path>
<path fill="#333333" d="M16 16c-5.15 0-7.042 4.253-7.323 6.501-0.047 0.379 0.070 0.761 0.323 1.048s0.617 0.451 0.999 0.451h12c0.005 0 0.010 0 0.013 0 0.737 0 1.333-0.597 1.333-1.333 0-0.131-0.018-0.257-0.053-0.376-0.369-2.293-2.301-6.291-7.293-6.291zM11.773 21.333c0.548-1.202 1.729-2.667 4.227-2.667s3.679 1.465 4.227 2.667h-8.453z"></path>
<path fill="#333333" d="M10.667 14c0.736 0 1.333-0.597 1.333-1.333v-1.333c0-0.736-0.597-1.333-1.333-1.333s-1.333 0.597-1.333 1.333v1.333c0 0.736 0.597 1.333 1.333 1.333z"></path>
<path fill="#333333" d="M21.333 14c0.736 0 1.333-0.597 1.333-1.333v-1.333c0-0.736-0.597-1.333-1.333-1.333s-1.333 0.597-1.333 1.333v1.333c0 0.736 0.597 1.333 1.333 1.333z"></path>
</svg>
