<?xml version="1.0" encoding="utf-8"?>
<!-- Generated by IcoMoon.io -->
<!DOCTYPE svg PUBLIC "-//W3C//DTD SVG 1.1//EN" "http://www.w3.org/Graphics/SVG/1.1/DTD/svg11.dtd">
<svg version="1.1" xmlns="http://www.w3.org/2000/svg" xmlns:xlink="http://www.w3.org/1999/xlink" width="32" height="32" viewBox="0 0 32 32">
<path fill="#333333" d="M10.667 17.332h-5.333c-2.21 0-4 1.791-4 4v5.335c0 2.209 1.79 3.999 4 3.999h5.333c2.21 0 4-1.791 4-3.999v-5.335c0-2.209-1.79-4-4-4zM12 26.667c0 0.736-0.597 1.332-1.333 1.332h-5.333c-0.737 0-1.333-0.596-1.333-1.332v-5.335c0-0.737 0.597-1.333 1.333-1.333h5.333c0.737 0 1.333 0.597 1.333 1.333v5.335z"></path>
<path fill="#333333" d="M10.667 1.333h-5.333c-2.21 0-4 1.791-4 3.999v5.334c0 2.209 1.79 3.999 4 3.999h5.333c2.21 0 4-1.791 4-3.999v-5.334c0-2.209-1.79-3.999-4-3.999zM12 10.666c0 0.737-0.597 1.334-1.333 1.334h-5.333c-0.737 0-1.333-0.597-1.333-1.334v-5.334c0-0.737 0.597-1.333 1.333-1.333h5.333c0.737 0 1.333 0.597 1.333 1.333v5.334z"></path>
<path fill="#333333" d="M26.667 1.333h-5.333c-2.21 0-4 1.791-4 3.999v21.335c0 2.209 1.79 3.999 4 3.999h5.333c2.21 0 4-1.791 4-3.999v-21.335c0-2.209-1.79-3.999-4-3.999zM28 26.667c0 0.736-0.597 1.332-1.333 1.332h-5.333c-0.737 0-1.333-0.596-1.333-1.332v-21.335c0-0.737 0.597-1.333 1.333-1.333h5.333c0.737 0 1.333 0.597 1.333 1.333v21.335z"></path>
</svg>
