<?xml version="1.0" encoding="utf-8"?>
<!-- Generated by IcoMoon.io -->
<!DOCTYPE svg PUBLIC "-//W3C//DTD SVG 1.1//EN" "http://www.w3.org/Graphics/SVG/1.1/DTD/svg11.dtd">
<svg version="1.1" xmlns="http://www.w3.org/2000/svg" xmlns:xlink="http://www.w3.org/1999/xlink" width="32" height="32" viewBox="0 0 32 32">
<path fill="#333333" d="M10.667 1.34h-5.333c-2.209 0-4 1.791-4 4v5.333c0 2.209 1.791 4 4 4h5.333c2.209 0 4-1.791 4-4v-5.333c0-2.209-1.791-4-4-4zM12 10.673c0 0.736-0.597 1.333-1.333 1.333h-5.333c-0.736 0-1.333-0.597-1.333-1.333v-5.333c0-0.736 0.597-1.333 1.333-1.333h5.333c0.736 0 1.333 0.597 1.333 1.333v5.333z"></path>
<path fill="#333333" d="M26.667 1.34h-5.333c-2.209 0-4 1.791-4 4v5.333c0 2.209 1.791 4 4 4h5.333c2.209 0 4-1.791 4-4v-5.333c0-2.209-1.791-4-4-4zM28 10.673c0 0.736-0.597 1.333-1.333 1.333h-5.333c-0.736 0-1.333-0.597-1.333-1.333v-5.333c0-0.736 0.597-1.333 1.333-1.333h5.333c0.736 0 1.333 0.597 1.333 1.333v5.333z"></path>
<path fill="#333333" d="M10.667 17.34h-5.333c-2.209 0-4 1.791-4 4v5.333c0 2.209 1.791 4 4 4h5.333c2.209 0 4-1.791 4-4v-5.333c0-2.209-1.791-4-4-4zM12 26.673c0 0.736-0.597 1.333-1.333 1.333h-5.333c-0.736 0-1.333-0.597-1.333-1.333v-5.333c0-0.736 0.597-1.333 1.333-1.333h5.333c0.736 0 1.333 0.597 1.333 1.333v5.333z"></path>
<path fill="#333333" d="M26.667 17.34h-5.333c-2.209 0-4 1.791-4 4v5.333c0 2.209 1.791 4 4 4h5.333c2.209 0 4-1.791 4-4v-5.333c0-2.209-1.791-4-4-4zM28 26.673c0 0.736-0.597 1.333-1.333 1.333h-5.333c-0.736 0-1.333-0.597-1.333-1.333v-5.333c0-0.736 0.597-1.333 1.333-1.333h5.333c0.736 0 1.333 0.597 1.333 1.333v5.333z"></path>
</svg>
