<?xml version="1.0" encoding="utf-8"?>
<!-- Generated by IcoMoon.io -->
<!DOCTYPE svg PUBLIC "-//W3C//DTD SVG 1.1//EN" "http://www.w3.org/Graphics/SVG/1.1/DTD/svg11.dtd">
<svg version="1.1" xmlns="http://www.w3.org/2000/svg" xmlns:xlink="http://www.w3.org/1999/xlink" width="32" height="32" viewBox="0 0 32 32">
<path fill="#333333" d="M19.477 17.881l2.785 0.884c-0.425 1.552-1.137 2.705-2.131 3.459-0.992 0.753-2.252 1.131-3.779 1.131-1.887 0-3.44-0.645-4.656-1.936-1.215-1.291-1.823-3.055-1.823-5.292 0-2.367 0.609-4.205 1.832-5.515 1.224-1.311 2.831-1.965 4.821-1.965 1.741 0 3.152 0.513 4.241 1.543 0.647 0.609 1.131 1.481 1.456 2.619l-2.844 0.679c-0.169-0.736-0.519-1.32-1.053-1.747-0.531-0.427-1.18-0.64-1.944-0.64-1.056 0-1.911 0.379-2.568 1.136-0.653 0.757-0.984 1.983-0.984 3.677 0 1.797 0.324 3.077 0.972 3.841 0.645 0.763 1.487 1.145 2.523 1.145 0.763 0 1.42-0.244 1.971-0.728 0.547-0.485 0.941-1.249 1.18-2.291z"></path>
<path fill="#333333" d="M16.069 29.333c-7.353 0-13.333-5.981-13.333-13.333s5.98-13.333 13.333-13.333 13.333 5.981 13.333 13.333-5.981 13.333-13.333 13.333zM16.069 5.043c-6.041 0-10.956 4.916-10.956 10.957s4.915 10.957 10.956 10.957c6.040 0 10.955-4.916 10.955-10.957s-4.915-10.957-10.955-10.957z"></path>
</svg>
