<?xml version="1.0" encoding="utf-8"?>
<!-- Generated by IcoMoon.io -->
<!DOCTYPE svg PUBLIC "-//W3C//DTD SVG 1.1//EN" "http://www.w3.org/Graphics/SVG/1.1/DTD/svg11.dtd">
<svg version="1.1" xmlns="http://www.w3.org/2000/svg" xmlns:xlink="http://www.w3.org/1999/xlink" width="32" height="32" viewBox="0 0 32 32">
<path fill="#333333" d="M13.773 20.172c0.549 0.484 1.207 0.728 1.971 0.728 1.035 0 1.876-0.383 2.523-1.145 0.647-0.764 0.972-2.044 0.972-3.841 0-1.695-0.331-2.92-0.984-3.677-0.657-0.757-1.512-1.136-2.568-1.136-0.764 0-1.413 0.215-1.944 0.64-0.535 0.427-0.884 1.009-1.053 1.747l-2.845-0.679c0.325-1.137 0.808-2.011 1.456-2.619 1.088-1.028 2.5-1.543 4.241-1.543 1.991 0 3.597 0.655 4.821 1.965 1.223 1.309 1.832 3.148 1.832 5.515 0 2.237-0.608 4.001-1.823 5.292-1.216 1.291-2.769 1.936-4.656 1.936-1.527 0-2.787-0.377-3.779-1.131-0.993-0.753-1.704-1.907-2.131-3.459l2.785-0.884c0.239 1.041 0.633 1.805 1.181 2.291z"></path>
<path fill="#333333" d="M2.667 16c0-7.352 5.98-13.333 13.333-13.333s13.333 5.981 13.333 13.333-5.98 13.333-13.333 13.333-13.333-5.981-13.333-13.333zM5.045 16c0 6.041 4.915 10.957 10.955 10.957 6.041 0 10.956-4.916 10.956-10.957s-4.915-10.957-10.956-10.957c-6.040 0-10.955 4.916-10.955 10.957z"></path>
</svg>
