<?xml version="1.0" encoding="utf-8"?>
<!-- Generated by IcoMoon.io -->
<!DOCTYPE svg PUBLIC "-//W3C//DTD SVG 1.1//EN" "http://www.w3.org/Graphics/SVG/1.1/DTD/svg11.dtd">
<svg version="1.1" xmlns="http://www.w3.org/2000/svg" xmlns:xlink="http://www.w3.org/1999/xlink" width="32" height="32" viewBox="0 0 32 32">
<path fill="#333333" d="M28.667 28h-25.333c-1.838 0-3.333-1.495-3.333-3.333v-17.333c0-1.838 1.495-3.333 3.333-3.333h25.333c1.838 0 3.333 1.495 3.333 3.333v17.333c0 1.838-1.495 3.333-3.333 3.333zM3.333 6.667c-0.368 0-0.667 0.299-0.667 0.667v17.333c0 0.367 0.299 0.667 0.667 0.667h25.333c0.368 0 0.667-0.299 0.667-0.667v-17.333c0-0.367-0.299-0.667-0.667-0.667h-25.333z"></path>
<path fill="#333333" d="M6.833 6.667h2.333v2.667h-2.333v-2.667z"></path>
<path fill="#333333" d="M6.833 10.667h2.333v2.667h-2.333v-2.667z"></path>
<path fill="#333333" d="M6.833 14.667h2.333v2.667h-2.333v-2.667z"></path>
<path fill="#333333" d="M6.833 18.667h2.333v2.667h-2.333v-2.667z"></path>
<path fill="#333333" d="M6.833 22.667h2.333v2.667h-2.333v-2.667z"></path>
</svg>
