<?xml version="1.0" encoding="utf-8"?>
<!-- Generated by IcoMoon.io -->
<!DOCTYPE svg PUBLIC "-//W3C//DTD SVG 1.1//EN" "http://www.w3.org/Graphics/SVG/1.1/DTD/svg11.dtd">
<svg version="1.1" xmlns="http://www.w3.org/2000/svg" xmlns:xlink="http://www.w3.org/1999/xlink" width="32" height="32" viewBox="0 0 32 32">
<path fill="#333333" d="M28 4h-24c-2.206 0-4 1.794-4 4v16c0 2.206 1.794 4 4 4h24c2.206 0 4-1.794 4-4v-16c0-2.206-1.794-4-4-4zM4 6.667h24c0.735 0 1.333 0.598 1.333 1.333v2.667h-26.667v-2.667c0-0.735 0.598-1.333 1.333-1.333zM28 25.333h-24c-0.735 0-1.333-0.598-1.333-1.333v-10.667h26.667v10.667c0 0.735-0.598 1.333-1.333 1.333z"></path>
<path fill="#333333" d="M14.667 16.667h-8c-0.736 0-1.333 0.597-1.333 1.333s0.597 1.333 1.333 1.333h8c0.736 0 1.333-0.597 1.333-1.333s-0.597-1.333-1.333-1.333z"></path>
</svg>
