<?xml version="1.0" encoding="utf-8"?>
<!-- Generated by IcoMoon.io -->
<!DOCTYPE svg PUBLIC "-//W3C//DTD SVG 1.1//EN" "http://www.w3.org/Graphics/SVG/1.1/DTD/svg11.dtd">
<svg version="1.1" xmlns="http://www.w3.org/2000/svg" xmlns:xlink="http://www.w3.org/1999/xlink" width="32" height="32" viewBox="0 0 32 32">
<path fill="#333333" d="M21.789 27.223c-4.85-1.751-8.109-6.261-8.109-11.223s3.259-9.473 8.109-11.223c0.529-0.191 0.881-0.693 0.881-1.255s-0.352-1.063-0.881-1.254c-1.721-0.621-3.502-0.935-5.294-0.935-8.362 0-15.165 6.579-15.165 14.667s6.803 14.667 15.165 14.667c1.792 0 3.573-0.315 5.293-0.935 0.529-0.191 0.881-0.692 0.881-1.254s-0.351-1.063-0.88-1.255zM16.495 28c-6.891 0-12.498-5.383-12.498-12s5.607-12 12.498-12c0.315 0 0.628 0.012 0.941 0.035-3.949 2.709-6.423 7.161-6.423 11.965s2.474 9.255 6.423 11.965c-0.313 0.023-0.627 0.035-0.941 0.035z"></path>
</svg>
