<?xml version="1.0" encoding="utf-8"?>
<!-- Generated by IcoMoon.io -->
<!DOCTYPE svg PUBLIC "-//W3C//DTD SVG 1.1//EN" "http://www.w3.org/Graphics/SVG/1.1/DTD/svg11.dtd">
<svg version="1.1" xmlns="http://www.w3.org/2000/svg" xmlns:xlink="http://www.w3.org/1999/xlink" width="32" height="32" viewBox="0 0 32 32">
<path fill="#333333" d="M30.276 3.609c0.521-0.521 0.521-1.365 0-1.886s-1.365-0.521-1.885 0l-6.276 6.277h-14.115v-2.667c0-0.736-0.597-1.333-1.333-1.333s-1.333 0.597-1.333 1.333v2.667h-2.667c-0.736 0-1.333 0.597-1.333 1.333s0.597 1.333 1.333 1.333h2.667v14.667c0 0.087 0.009 0.175 0.026 0.261 0.008 0.039 0.023 0.076 0.034 0.114 0.013 0.045 0.024 0.091 0.042 0.135s0.043 0.084 0.066 0.125c0.019 0.035 0.034 0.071 0.057 0.104 0.049 0.073 0.104 0.141 0.166 0.203v0c0.001 0.001 0.001 0.001 0.002 0.001 0.061 0.061 0.129 0.116 0.201 0.164 0.034 0.023 0.071 0.039 0.106 0.058 0.041 0.022 0.080 0.047 0.123 0.065s0.090 0.029 0.135 0.042c0.038 0.011 0.075 0.026 0.114 0.034 0.086 0.017 0.173 0.026 0.261 0.026h14.667v2.667c0 0.736 0.597 1.333 1.333 1.333s1.333-0.597 1.333-1.333v-2.667h2.667c0.736 0 1.333-0.597 1.333-1.333s-0.597-1.333-1.333-1.333h-2.667v-14.115l6.276-6.276zM19.448 10.667l-11.448 11.448v-11.448h11.448zM21.333 24h-11.448l11.448-11.448v11.448z"></path>
</svg>
