<?xml version="1.0" encoding="utf-8"?>
<!-- Generated by IcoMoon.io -->
<!DOCTYPE svg PUBLIC "-//W3C//DTD SVG 1.1//EN" "http://www.w3.org/Graphics/SVG/1.1/DTD/svg11.dtd">
<svg version="1.1" xmlns="http://www.w3.org/2000/svg" xmlns:xlink="http://www.w3.org/1999/xlink" width="32" height="32" viewBox="0 0 32 32">
<path fill="#333333" d="M18 4.667c0 1.105-0.895 2-2 2s-2-0.895-2-2c0-1.105 0.895-2 2-2s2 0.895 2 2z"></path>
<path fill="#333333" d="M4 7.333c0 1.105-0.895 2-2 2s-2-0.895-2-2c0-1.105 0.895-2 2-2s2 0.895 2 2z"></path>
<path fill="#333333" d="M32 7.333c0 1.105-0.895 2-2 2s-2-0.895-2-2c0-1.105 0.895-2 2-2s2 0.895 2 2z"></path>
<path fill="#333333" d="M30.043 10.871c-0.489-0.307-1.119-0.265-1.563 0.105l-6.778 5.648-4.544-7.952c-0.237-0.415-0.679-0.671-1.158-0.671s-0.921 0.257-1.157 0.672l-4.544 7.952-6.779-5.648c-0.443-0.369-1.073-0.411-1.563-0.105-0.488 0.307-0.725 0.893-0.585 1.453l4 16c0.149 0.593 0.682 1.009 1.294 1.009h18.667c0.612 0 1.145-0.417 1.293-1.010l4-16c0.14-0.559-0.096-1.146-0.584-1.453zM24.293 26.667h-16.585l-2.757-11.028 4.863 4.052c0.303 0.253 0.704 0.358 1.091 0.288 0.388-0.070 0.725-0.308 0.921-0.651l4.175-7.307 4.176 7.307c0.195 0.343 0.533 0.581 0.921 0.651s0.787-0.035 1.091-0.288l4.863-4.052-2.757 11.028z"></path>
</svg>
