<?xml version="1.0" encoding="utf-8"?>
<!-- Generated by IcoMoon.io -->
<!DOCTYPE svg PUBLIC "-//W3C//DTD SVG 1.1//EN" "http://www.w3.org/Graphics/SVG/1.1/DTD/svg11.dtd">
<svg version="1.1" xmlns="http://www.w3.org/2000/svg" xmlns:xlink="http://www.w3.org/1999/xlink" width="32" height="32" viewBox="0 0 32 32">
<path fill="#333333" d="M18 20c0 0.736-0.597 1.333-1.333 1.333s-1.333-0.597-1.333-1.333c0-0.736 0.597-1.333 1.333-1.333s1.333 0.597 1.333 1.333z"></path>
<path fill="#333333" d="M22 20c0 0.736-0.597 1.333-1.333 1.333s-1.333-0.597-1.333-1.333c0-0.736 0.597-1.333 1.333-1.333s1.333 0.597 1.333 1.333z"></path>
<path fill="#333333" d="M26 20c0 0.736-0.597 1.333-1.333 1.333s-1.333-0.597-1.333-1.333c0-0.736 0.597-1.333 1.333-1.333s1.333 0.597 1.333 1.333z"></path>
<path fill="#333333" d="M31.733 15.2c-0.251-0.336-0.647-0.533-1.067-0.533h-4v-2.667c0-1.838-1.495-3.333-3.333-3.333h-9.333v-2.333c0-2.022-1.645-3.667-3.667-3.667s-3.667 1.645-3.667 3.667v2.333h-0.667c-1.838 0-3.333 1.495-3.333 3.333v2.667h-1.333c-0.407 0-0.793 0.187-1.046 0.506s-0.345 0.737-0.251 1.135l2.16 9.124c0.649 2.561 3.075 3.902 5.138 3.902h13.333c4.283 0 8.013-2.703 9.504-6.886 0.009-0.025 0.017-0.049 0.024-0.074l1.751-6c0.117-0.403 0.039-0.837-0.213-1.173zM9.333 6.333c0-0.551 0.449-1 1-1s1 0.449 1 1v2.333h-2v-2.333zM5.333 12c0-0.367 0.299-0.667 0.667-0.667h17.333c0.367 0 0.667 0.299 0.667 0.667v2.667h-18.667v-2.667zM27.647 21.587c-1.353 3.748-4.603 5.079-6.98 5.079h-13.333c-0.677 0-2.191-0.462-2.547-1.87l-1.767-7.463h25.869l-1.242 4.254z"></path>
</svg>
