<?xml version="1.0" encoding="utf-8"?>
<!-- Generated by IcoMoon.io -->
<!DOCTYPE svg PUBLIC "-//W3C//DTD SVG 1.1//EN" "http://www.w3.org/Graphics/SVG/1.1/DTD/svg11.dtd">
<svg version="1.1" xmlns="http://www.w3.org/2000/svg" xmlns:xlink="http://www.w3.org/1999/xlink" width="32" height="32" viewBox="0 0 32 32">
<path fill="#333333" d="M29.665 1.783c-0.253-0.286-0.617-0.449-0.998-0.449h-25.333c-0.382 0-0.745 0.163-0.999 0.449s-0.371 0.665-0.325 1.045l2.667 22c0.055 0.457 0.343 0.853 0.76 1.048l10 4.667c0.179 0.083 0.371 0.125 0.564 0.125s0.385-0.042 0.564-0.125l10-4.667c0.417-0.195 0.705-0.591 0.76-1.048l2.667-22c0.045-0.379-0.073-0.759-0.326-1.044zM24.765 23.771l-8.765 4.091-8.765-4.091-2.397-19.771h22.324l-2.397 19.771z"></path>
<path fill="#333333" d="M8.815 8.667h9.28l-8.601 4.838c-0.528 0.297-0.79 0.913-0.636 1.5s0.684 0.995 1.29 0.995h10.176c0.008 0.013 0.016 0.028 0.023 0.043l-0.379 2.915c-0.347 3.239-3.833 3.276-3.981 3.276-1.195 0-3.111-0.927-3.627-2.989-0.179-0.715-0.901-1.147-1.617-0.97-0.714 0.179-1.149 0.903-0.97 1.617 0.814 3.253 3.809 5.009 6.214 5.009 2.903 0 6.217-1.771 6.629-5.629l0.387-2.971c0.097-0.667-0.169-1.478-0.677-2.065-0.504-0.583-1.199-0.903-1.958-0.903h-5.13l8.601-4.838c0.528-0.297 0.79-0.913 0.636-1.5s-0.683-0.995-1.29-0.995h-14.37c-0.736 0-1.333 0.597-1.333 1.333s0.597 1.333 1.333 1.333z"></path>
</svg>
