<?xml version="1.0" encoding="utf-8"?>
<!-- Generated by IcoMoon.io -->
<!DOCTYPE svg PUBLIC "-//W3C//DTD SVG 1.1//EN" "http://www.w3.org/Graphics/SVG/1.1/DTD/svg11.dtd">
<svg version="1.1" xmlns="http://www.w3.org/2000/svg" xmlns:xlink="http://www.w3.org/1999/xlink" width="32" height="32" viewBox="0 0 32 32">
<path fill="#333333" d="M30.074 8.661c-0.001-0.479-0.258-0.92-0.673-1.159-0.019-0.011-0.039-0.014-0.059-0.024l-12.64-7.297c-0.415-0.24-0.925-0.24-1.341 0l-12.65 7.303c-0.014 0.008-0.030 0.011-0.045 0.018-0.415 0.239-0.671 0.681-0.673 1.159l-0.029 14.647c0 0.479 0.254 0.921 0.667 1.162l12.67 7.349c0.209 0.121 0.441 0.181 0.673 0.181 0.020 0 0.038-0.007 0.057-0.007 0.020 0.001 0.040 0.009 0.059 0.009 0.232 0 0.465-0.060 0.673-0.181l12.67-7.349c0.414-0.241 0.667-0.683 0.667-1.162l-0.029-14.647zM14.693 3.663v6.306c0 0.739 0.599 1.34 1.34 1.34 0.739 0 1.341-0.601 1.341-1.34v-6.306l8.663 5.001-10.004 5.777-10.004-5.777 8.664-5.001zM14.641 28.335l-9.993-5.796 0.023-11.551 9.992 5.795-0.022 11.553zM17.428 28.335l-0.022-11.553 9.992-5.794 0.023 11.551-9.993 5.796z"></path>
</svg>
