<?xml version="1.0" encoding="utf-8"?>
<!-- Generated by IcoMoon.io -->
<!DOCTYPE svg PUBLIC "-//W3C//DTD SVG 1.1//EN" "http://www.w3.org/Graphics/SVG/1.1/DTD/svg11.dtd">
<svg version="1.1" xmlns="http://www.w3.org/2000/svg" xmlns:xlink="http://www.w3.org/1999/xlink" width="32" height="32" viewBox="0 0 32 32">
<path fill="#333333" d="M29.187 27.263c0.019-0.037 0.037-0.073 0.053-0.113 0.017-0.042 0.028-0.085 0.040-0.129 0.011-0.040 0.023-0.079 0.030-0.119 0.009-0.049 0.012-0.099 0.015-0.149 0.002-0.029 0.009-0.057 0.009-0.086v-21.334c0-0.031-0.007-0.059-0.009-0.089-0.003-0.049-0.006-0.097-0.015-0.144-0.007-0.043-0.019-0.083-0.031-0.124s-0.023-0.083-0.039-0.124-0.035-0.079-0.055-0.117c-0.019-0.039-0.039-0.077-0.062-0.114s-0.050-0.070-0.077-0.104c-0.026-0.034-0.052-0.067-0.081-0.099-0.033-0.035-0.071-0.066-0.107-0.097-0.023-0.019-0.042-0.042-0.067-0.060-0.011-0.008-0.025-0.016-0.036-0.025-0.007-0.005-0.013-0.009-0.019-0.013-2.467-1.783-7.335-2.89-12.735-2.89-0.001 0-0.001 0-0.002 0-5.354 0-10.224 1.107-12.733 2.889-0.006 0.004-0.012 0.008-0.017 0.012-0.009 0.006-0.019 0.011-0.027 0.017-0.026 0.019-0.047 0.043-0.071 0.063-0.038 0.032-0.076 0.062-0.11 0.097-0.031 0.032-0.055 0.066-0.082 0.1s-0.054 0.067-0.077 0.103c-0.024 0.037-0.043 0.075-0.063 0.114s-0.040 0.076-0.056 0.116c-0.016 0.041-0.027 0.083-0.039 0.126-0.012 0.040-0.025 0.080-0.033 0.122-0.009 0.050-0.011 0.1-0.015 0.151-0.002 0.030-0.009 0.059-0.009 0.090v2.659c0 0.001 0 0.003 0 0.005v5.996c0 0.001 0 0.003 0 0.005v6.339c0 0.001 0 0.003 0 0.005v6.319c0 0.001 0 0.003 0 0.005v0.002c0 0.001 0.001 0.003 0.001 0.005-0.009 0.425 0.182 0.847 0.553 1.113 2.466 1.778 7.362 2.882 12.777 2.882 0.001 0 0.002 0 0.003 0 5.403 0 10.271-1.107 12.737-2.89 0.005-0.003 0.010-0.007 0.015-0.010 0.012-0.009 0.026-0.017 0.038-0.026 0.026-0.019 0.047-0.043 0.071-0.064 0.035-0.030 0.071-0.059 0.103-0.093s0.058-0.068 0.085-0.103c0.025-0.033 0.051-0.065 0.073-0.1 0.025-0.038 0.045-0.078 0.065-0.118zM26.667 13.275c-2.173 1.261-6.238 2.058-10.667 2.058-0.001 0-0.001 0-0.002 0-4.41 0-8.473-0.786-10.665-2.031v-3.053c2.68 1.101 6.517 1.751 10.664 1.751 0.001 0 0.002 0 0.003 0 4.155 0 7.992-0.656 10.667-1.769v3.045zM5.334 16.249c2.68 1.101 6.517 1.751 10.664 1.751 0.001 0 0.002 0 0.003 0 4.155 0 7.992-0.656 10.667-1.769v3.388c-2.173 1.261-6.238 2.058-10.667 2.058-0.001 0-0.001 0-0.002 0-4.41 0-8.473-0.786-10.665-2.031v-3.397zM16.001 4c4.429 0 8.493 0.797 10.667 2.058v1.216c-2.173 1.261-6.238 2.058-10.667 2.058-0.001 0-0.001 0-0.002 0-4.41 0-8.473-0.786-10.665-2.031v-1.231c1.923-1.079 5.751-2.070 10.665-2.070 0.001 0 0.001 0 0.002 0zM15.999 28c-4.41 0-8.473-0.786-10.665-2.031v-3.377c2.68 1.101 6.517 1.751 10.664 1.751 0.001 0 0.002 0 0.003 0 4.155 0 7.992-0.656 10.667-1.769v3.368c-2.173 1.261-6.238 2.058-10.667 2.058-0.001 0-0.001 0-0.002 0z"></path>
</svg>
