<?xml version="1.0" encoding="utf-8"?>
<!-- Generated by IcoMoon.io -->
<!DOCTYPE svg PUBLIC "-//W3C//DTD SVG 1.1//EN" "http://www.w3.org/Graphics/SVG/1.1/DTD/svg11.dtd">
<svg version="1.1" xmlns="http://www.w3.org/2000/svg" xmlns:xlink="http://www.w3.org/1999/xlink" width="32" height="32" viewBox="0 0 32 32">
<path fill="#333333" d="M29.187 27.263c0.019-0.037 0.037-0.073 0.053-0.113 0.017-0.042 0.028-0.085 0.040-0.129 0.011-0.040 0.023-0.079 0.030-0.119 0.009-0.049 0.012-0.099 0.015-0.149 0.001-0.029 0.008-0.057 0.008-0.087v-21.333c0-0.029-0.007-0.057-0.009-0.087-0.003-0.049-0.006-0.099-0.015-0.148-0.007-0.042-0.019-0.081-0.031-0.121-0.012-0.043-0.023-0.085-0.039-0.127-0.015-0.040-0.035-0.077-0.054-0.115-0.019-0.039-0.039-0.078-0.063-0.115s-0.050-0.069-0.077-0.103c-0.026-0.034-0.052-0.068-0.082-0.099-0.033-0.035-0.071-0.066-0.107-0.097-0.023-0.019-0.042-0.042-0.067-0.060-0.012-0.009-0.026-0.017-0.038-0.027-0.005-0.003-0.009-0.006-0.013-0.009-1.064-0.77-2.541-1.411-4.395-1.905-0.711-0.19-1.442 0.234-1.631 0.945s0.234 1.442 0.945 1.631c1.222 0.326 2.244 0.723 3.009 1.163v7.882c-2.173 1.261-6.238 2.059-10.667 2.059-0.001 0-0.001 0-0.002 0-4.41 0-8.473-0.787-10.665-2.031v-7.902c0.771-0.436 1.793-0.832 3.011-1.157 0.711-0.191 1.134-0.921 0.944-1.633s-0.923-1.133-1.633-0.944c-1.847 0.495-3.324 1.131-4.394 1.891-0.004 0.003-0.008 0.005-0.012 0.009-0.009 0.006-0.019 0.013-0.029 0.019-0.026 0.019-0.047 0.043-0.071 0.063-0.037 0.032-0.075 0.062-0.109 0.097-0.031 0.032-0.056 0.067-0.083 0.101-0.026 0.033-0.053 0.065-0.077 0.101-0.024 0.037-0.043 0.077-0.063 0.116-0.019 0.038-0.039 0.075-0.055 0.114-0.017 0.042-0.027 0.085-0.040 0.127-0.011 0.040-0.024 0.079-0.032 0.121-0.009 0.051-0.011 0.101-0.015 0.152-0.002 0.030-0.009 0.059-0.009 0.089v9.326c0 0.001 0 0.003 0 0.005v11.996c0 0.001 0 0.003 0 0.005v0.002c0 0.001 0.001 0.003 0.001 0.005-0.009 0.425 0.182 0.847 0.553 1.113 2.467 1.778 7.363 2.882 12.778 2.882 0.001 0 0.002 0 0.003 0 5.403 0 10.271-1.107 12.737-2.89 0.005-0.003 0.010-0.007 0.015-0.010 0.012-0.009 0.026-0.017 0.038-0.026 0.026-0.019 0.047-0.043 0.071-0.064 0.035-0.030 0.071-0.059 0.103-0.093s0.058-0.068 0.085-0.103c0.025-0.033 0.051-0.065 0.073-0.1 0.025-0.038 0.044-0.078 0.065-0.118zM15.998 28c-4.41 0-8.473-0.786-10.665-2.031v-9.053c2.68 1.101 6.518 1.751 10.665 1.751 0.001 0 0.002 0 0.003 0 4.155 0 7.992-0.656 10.667-1.769v9.045c-2.174 1.261-6.239 2.058-10.667 2.058-0.001 0-0.001 0-0.002 0z"></path>
<path fill="#333333" d="M15.075 12.945c0.249 0.249 0.588 0.389 0.941 0.389 0.001 0 0.001 0 0.002 0 0.353-0.001 0.693-0.141 0.942-0.392l4.651-4.667c0.52-0.521 0.519-1.365-0.003-1.885s-1.366-0.519-1.885 0.003l-2.389 2.397v-7.456c0-0.736-0.597-1.333-1.333-1.333s-1.333 0.597-1.333 1.333v7.44l-2.392-2.384c-0.521-0.52-1.366-0.519-1.885 0.003s-0.519 1.365 0.003 1.885l4.682 4.667z"></path>
</svg>
