<?xml version="1.0" encoding="utf-8"?>
<!-- Generated by IcoMoon.io -->
<!DOCTYPE svg PUBLIC "-//W3C//DTD SVG 1.1//EN" "http://www.w3.org/Graphics/SVG/1.1/DTD/svg11.dtd">
<svg version="1.1" xmlns="http://www.w3.org/2000/svg" xmlns:xlink="http://www.w3.org/1999/xlink" width="32" height="32" viewBox="0 0 32 32">
<path fill="#333333" d="M29.187 27.263c0.019-0.037 0.038-0.075 0.053-0.114 0.016-0.041 0.027-0.084 0.039-0.127 0.011-0.041 0.023-0.080 0.031-0.122 0.009-0.049 0.011-0.097 0.015-0.147 0.002-0.029 0.009-0.058 0.009-0.088v-21.333c0-0.031-0.007-0.059-0.009-0.089-0.003-0.049-0.006-0.097-0.015-0.145-0.007-0.043-0.020-0.083-0.031-0.125s-0.023-0.083-0.038-0.123c-0.016-0.041-0.036-0.079-0.056-0.119-0.019-0.038-0.038-0.076-0.061-0.112-0.024-0.038-0.051-0.072-0.079-0.107-0.025-0.033-0.050-0.065-0.079-0.096-0.035-0.037-0.073-0.069-0.111-0.101-0.022-0.019-0.040-0.040-0.064-0.057-0.009-0.007-0.020-0.013-0.029-0.019-0.013-0.009-0.027-0.018-0.041-0.027-0.919-0.661-2.149-1.232-3.667-1.693-0.703-0.214-1.449 0.183-1.663 0.889-0.213 0.705 0.184 1.449 0.889 1.663 0.947 0.287 1.757 0.623 2.388 0.985v7.883c-2.173 1.261-6.238 2.059-10.667 2.059-0.001 0-0.001 0-0.003 0-4.41 0-8.473-0.786-10.664-2.031v-7.905c0.634-0.357 1.445-0.691 2.387-0.978 0.705-0.215 1.101-0.959 0.887-1.664s-0.961-1.101-1.664-0.887c-1.515 0.461-2.745 1.027-3.666 1.679-0.011 0.007-0.023 0.014-0.034 0.021-0.007 0.005-0.015 0.009-0.022 0.014-0.025 0.018-0.044 0.040-0.067 0.059-0.039 0.033-0.079 0.065-0.114 0.101-0.029 0.031-0.055 0.065-0.081 0.098-0.027 0.034-0.055 0.067-0.079 0.105s-0.042 0.075-0.062 0.114c-0.019 0.038-0.040 0.076-0.056 0.116-0.016 0.041-0.027 0.083-0.039 0.126-0.011 0.041-0.024 0.080-0.032 0.122-0.009 0.050-0.011 0.101-0.015 0.152-0.002 0.030-0.009 0.058-0.009 0.089v9.327c0 0.001 0 0.001 0 0.002v11.999c0 0.001 0 0.001 0 0.002v0.004c0 0.003 0.001 0.005 0.001 0.008-0.009 0.423 0.183 0.843 0.553 1.11 2.467 1.778 7.363 2.882 12.777 2.882 0.001 0 0.002 0 0.003 0 5.404 0 10.273-1.107 12.739-2.891 0.004-0.003 0.008-0.005 0.012-0.008 0.013-0.009 0.027-0.018 0.040-0.027 0.027-0.020 0.048-0.045 0.073-0.067 0.034-0.029 0.068-0.057 0.099-0.090s0.059-0.069 0.086-0.104c0.025-0.033 0.051-0.065 0.073-0.099 0.023-0.037 0.043-0.077 0.063-0.117zM15.998 28c-4.41 0-8.473-0.786-10.664-2.031v-9.054c2.68 1.102 6.518 1.751 10.664 1.751 0.001 0 0.002 0 0.003 0 4.155 0 7.993-0.656 10.667-1.769v9.045c-2.173 1.261-6.238 2.059-10.667 2.059-0.001-0.001-0.001-0.001-0.003-0.001z"></path>
<path fill="#333333" d="M12.279 6.941l2.389-2.397v7.456c0 0.736 0.597 1.333 1.333 1.333s1.333-0.597 1.333-1.333v-7.44l2.392 2.384c0.261 0.259 0.601 0.389 0.941 0.389 0.342 0 0.684-0.131 0.945-0.392 0.519-0.521 0.518-1.365-0.003-1.885l-4.682-4.667c-0.25-0.25-0.589-0.389-0.941-0.389-0.359-0.022-0.694 0.141-0.945 0.392l-4.651 4.667c-0.519 0.521-0.518 1.365 0.003 1.885s1.366 0.518 1.886-0.003z"></path>
</svg>
