<?xml version="1.0" encoding="utf-8"?>
<!-- Generated by IcoMoon.io -->
<!DOCTYPE svg PUBLIC "-//W3C//DTD SVG 1.1//EN" "http://www.w3.org/Graphics/SVG/1.1/DTD/svg11.dtd">
<svg version="1.1" xmlns="http://www.w3.org/2000/svg" xmlns:xlink="http://www.w3.org/1999/xlink" width="32" height="32" viewBox="0 0 32 32">
<path fill="#333333" d="M16 19.609c-4.001 0-5.706 2.488-5.776 2.594-0.408 0.613-0.243 1.441 0.37 1.849s1.44 0.243 1.849-0.37c0.009-0.014 1.009-1.406 3.557-1.406 2.555 0 3.515 1.345 3.541 1.381 0.254 0.401 0.686 0.619 1.127 0.619 0.244 0 0.491-0.067 0.713-0.207 0.622-0.395 0.806-1.218 0.412-1.84-0.068-0.107-1.708-2.619-5.793-2.619z"></path>
<path fill="#333333" d="M23.996 12.753l-3.333-1.91c-0.639-0.366-1.455-0.145-1.819 0.494-0.366 0.639-0.145 1.454 0.494 1.82l3.333 1.91c0.209 0.12 0.437 0.177 0.661 0.177 0.462 0 0.912-0.241 1.158-0.671 0.366-0.639 0.145-1.454-0.494-1.82z"></path>
<path fill="#333333" d="M13.143 11.314c-0.379-0.632-1.198-0.836-1.829-0.457l-3.333 2c-0.631 0.379-0.836 1.198-0.457 1.829 0.25 0.417 0.691 0.647 1.145 0.647 0.234 0 0.47-0.061 0.685-0.19l3.333-2c0.632-0.379 0.836-1.198 0.457-1.829z"></path>
<path fill="#333333" d="M16 1.333c-8.087 0-14.667 6.579-14.667 14.667s6.579 14.667 14.667 14.667 14.667-6.579 14.667-14.667-6.579-14.667-14.667-14.667zM16 28c-6.617 0-12-5.383-12-12s5.383-12 12-12 12 5.383 12 12-5.383 12-12 12z"></path>
</svg>
