<?xml version="1.0" encoding="utf-8"?>
<!-- Generated by IcoMoon.io -->
<!DOCTYPE svg PUBLIC "-//W3C//DTD SVG 1.1//EN" "http://www.w3.org/Graphics/SVG/1.1/DTD/svg11.dtd">
<svg version="1.1" xmlns="http://www.w3.org/2000/svg" xmlns:xlink="http://www.w3.org/1999/xlink" width="32" height="32" viewBox="0 0 32 32">
<path fill="#333333" d="M3.995 6.003h24c0.736 0 1.333-0.596 1.333-1.333 0-0.735-0.597-1.333-1.333-1.333h-24c-0.736 0-1.333 0.598-1.333 1.333 0 0.737 0.597 1.333 1.333 1.333z"></path>
<path fill="#333333" d="M27.995 10.669h-11.993c-0.736 0-1.333 0.598-1.333 1.333 0 0.737 0.597 1.333 1.333 1.333h11.993c0.736 0 1.333-0.596 1.333-1.333 0-0.735-0.597-1.333-1.333-1.333z"></path>
<path fill="#333333" d="M27.995 18.669h-11.993c-0.736 0-1.333 0.598-1.333 1.333 0 0.737 0.597 1.333 1.333 1.333h11.993c0.736 0 1.333-0.596 1.333-1.333 0-0.735-0.597-1.333-1.333-1.333z"></path>
<path fill="#333333" d="M27.995 26.003h-24c-0.736 0-1.333 0.598-1.333 1.333 0 0.737 0.597 1.333 1.333 1.333h24c0.736 0 1.333-0.596 1.333-1.333 0-0.735-0.597-1.333-1.333-1.333z"></path>
<path fill="#333333" d="M3.162 17.037l-0.003 0.003 0.044 0.031c0.027 0.020 0.054 0.040 0.083 0.058l6.574 4.6c0.033 0.025 0.066 0.049 0.101 0.071l0.034 0.024 0.003-0.004c0.196 0.113 0.421 0.183 0.664 0.183 0.736 0 1.333-0.596 1.333-1.333 0-0.463-0.238-0.872-0.597-1.111v0l-5.095-3.561 4.975-3.485c0.109-0.057 0.209-0.125 0.297-0.209l0.013-0.009-0.001-0.001c0.251-0.242 0.409-0.581 0.409-0.959 0-0.735-0.597-1.333-1.333-1.333-0.318 0-0.605 0.116-0.835 0.301l-0.001-0.001-6.522 4.565c-0.042 0.026-0.083 0.055-0.121 0.085l-0.023 0.016 0.001 0.001c-0.302 0.245-0.499 0.613-0.499 1.032 0 0.421 0.198 0.791 0.5 1.035z"></path>
</svg>
