<?xml version="1.0" encoding="utf-8"?>
<!-- Generated by IcoMoon.io -->
<!DOCTYPE svg PUBLIC "-//W3C//DTD SVG 1.1//EN" "http://www.w3.org/Graphics/SVG/1.1/DTD/svg11.dtd">
<svg version="1.1" xmlns="http://www.w3.org/2000/svg" xmlns:xlink="http://www.w3.org/1999/xlink" width="32" height="32" viewBox="0 0 32 32">
<path fill="#333333" d="M4 5.995h24c0.736 0 1.333-0.597 1.333-1.333s-0.597-1.333-1.333-1.333h-24c-0.736 0-1.333 0.597-1.333 1.333s0.597 1.333 1.333 1.333z"></path>
<path fill="#333333" d="M28 10.662h-10.667c-0.736 0-1.333 0.597-1.333 1.333s0.597 1.333 1.333 1.333h10.667c0.736 0 1.333-0.597 1.333-1.333s-0.597-1.333-1.333-1.333z"></path>
<path fill="#333333" d="M28 18.662h-10.667c-0.736 0-1.333 0.597-1.333 1.333s0.597 1.333 1.333 1.333h10.667c0.736 0 1.333-0.597 1.333-1.333s-0.597-1.333-1.333-1.333z"></path>
<path fill="#333333" d="M28 25.995h-24c-0.736 0-1.333 0.597-1.333 1.333s0.597 1.333 1.333 1.333h24c0.736 0 1.333-0.597 1.333-1.333s-0.597-1.333-1.333-1.333z"></path>
<path fill="#333333" d="M3.068 16.947l-0.013 0.013 3.833 4.436c0.059 0.089 0.13 0.169 0.209 0.241l0.010 0.011 0.001-0.002c0.237 0.214 0.547 0.348 0.891 0.348 0.736 0 1.333-0.597 1.333-1.333 0-0.392-0.172-0.741-0.442-0.985l0.001-0.001-1.994-2.347h6.435c0.736 0 1.333-0.597 1.333-1.333s-0.597-1.333-1.333-1.333h-6.442l2.050-2.389c0.242-0.241 0.392-0.575 0.392-0.944 0-0.736-0.597-1.333-1.333-1.333-0.387 0-0.731 0.167-0.975 0.43l-3.966 4.626c-0.243 0.241-0.393 0.575-0.393 0.944 0 0.373 0.154 0.71 0.401 0.952z"></path>
</svg>
