<?xml version="1.0" encoding="utf-8"?>
<!-- Generated by IcoMoon.io -->
<!DOCTYPE svg PUBLIC "-//W3C//DTD SVG 1.1//EN" "http://www.w3.org/Graphics/SVG/1.1/DTD/svg11.dtd">
<svg version="1.1" xmlns="http://www.w3.org/2000/svg" xmlns:xlink="http://www.w3.org/1999/xlink" width="32" height="32" viewBox="0 0 32 32">
<path fill="#333333" d="M19.333 22.668h-16c-1.838 0-3.333-1.495-3.333-3.333v-12.002c0-1.838 1.495-3.333 3.333-3.333h17.333c1.838 0 3.333 1.495 3.333 3.333v2.667h-2.667v-2.667c0-0.367-0.299-0.667-0.667-0.667h-17.333c-0.367 0-0.667 0.299-0.667 0.667v12.001c0 0.367 0.299 0.667 0.667 0.667h16v2.667z"></path>
<path fill="#333333" d="M12.679 28c-0.736 0-1.333-0.597-1.333-1.333v-5.333c0-0.736 0.597-1.333 1.333-1.333s1.333 0.597 1.333 1.333v5.333c0 0.737-0.597 1.333-1.333 1.333z"></path>
<path fill="#333333" d="M29.333 28h-5.333c-1.471 0-2.667-1.196-2.667-2.667v-10.667c0-1.471 1.196-2.667 2.667-2.667h5.333c1.471 0 2.667 1.196 2.667 2.667v10.667c0 1.471-1.196 2.667-2.667 2.667zM24 14.667v10.667h5.335l-0.001-10.667h-5.333z"></path>
<path fill="#333333" d="M6 28v-1.333c0-0.736 0.597-1.333 1.333-1.333h10.667c0.736 0 1.333 0.597 1.333 1.333v1.333z"></path>
</svg>
