<?xml version="1.0" encoding="utf-8"?>
<!-- Generated by IcoMoon.io -->
<!DOCTYPE svg PUBLIC "-//W3C//DTD SVG 1.1//EN" "http://www.w3.org/Graphics/SVG/1.1/DTD/svg11.dtd">
<svg version="1.1" xmlns="http://www.w3.org/2000/svg" xmlns:xlink="http://www.w3.org/1999/xlink" width="32" height="32" viewBox="0 0 32 32">
<path fill="#333333" d="M30.525 15.258c-3.377-4.426-7.406-5.107-7.406-5.107-5.846-1.191-10.794 0.106-10.794 0.106l-1.363-2.592-3.783 0.888 1.23 2.724c-10.285 3.907-6.376 12.524-6.376 12.524 0.313 0.881 1.165 0.455 1.165 0.455l14.559-4.088-4.228-7.719c9.649-2.241 12.544 2.497 12.544 2.497l-4.768 1.080-2.271-3.434c-2.497-0.085-4.257 0.454-4.257 0.454l3.804 6.897 11.349-3.122c1.252-0.397 0.597-1.562 0.597-1.562zM6.887 19.574c0 0-1.448-3.548 2.696-5.818l2.241 4.569-4.938 1.249z"></path>
</svg>
