<?xml version="1.0" encoding="utf-8"?>
<!-- Generated by IcoMoon.io -->
<!DOCTYPE svg PUBLIC "-//W3C//DTD SVG 1.1//EN" "http://www.w3.org/Graphics/SVG/1.1/DTD/svg11.dtd">
<svg version="1.1" xmlns="http://www.w3.org/2000/svg" xmlns:xlink="http://www.w3.org/1999/xlink" width="32" height="32" viewBox="0 0 32 32">
<path fill="#333333" d="M9.252 7.322h-2.636c0 0-0.351 0.082-0.351 0.351v3.349h-4.612c0 0-0.371 0.058-0.371 0.37v9.846h7.591c0 0 0.406-0.084 0.406-0.337l-0.026-13.579zM5.862 19.037h-1.682v-5.369c0 0-0.010-0.394 0.335-0.394h1.73v5.346c0.002 0 0.025 0.417-0.383 0.417z"></path>
<path fill="#333333" d="M10.124 9.517v-1.803c0 0 0.036-0.393 0.394-0.393h2.565v1.788c0 0 0.035 0.407-0.45 0.407h-2.509z"></path>
<path fill="#333333" d="M10.124 21.236v-9.834c0 0 0.036-0.396 0.394-0.396h2.565v9.823c0 0 0.035 0.407-0.45 0.407h-2.509z"></path>
<path fill="#333333" d="M14.444 11.005c-0.394 0-0.417 0.431-0.417 0.431v9.763h5.010v1.288h-4.592c-0.37 0-0.394 0.44-0.394 0.44v1.778h7.518c0.371 0 0.43-0.287 0.43-0.287v-13.414h-7.555zM18.991 18.619c0 0-0.071 0.323-0.345 0.323h-1.72v-5.396c0 0-0.012-0.37 0.353-0.37h1.712v5.442z"></path>
<path fill="#333333" d="M23.161 11.005c-0.393 0-0.416 0.431-0.416 0.431v9.763h5.013v1.288h-4.597c-0.368 0-0.393 0.44-0.393 0.44v1.778h7.52c0.368 0 0.429-0.287 0.429-0.287v-13.414h-7.556zM27.71 18.619c0 0-0.073 0.323-0.346 0.323h-1.719v-5.396c0 0-0.013-0.37 0.353-0.37h1.712v5.442z"></path>
</svg>
