<?xml version="1.0" encoding="utf-8"?>
<!-- Generated by IcoMoon.io -->
<!DOCTYPE svg PUBLIC "-//W3C//DTD SVG 1.1//EN" "http://www.w3.org/Graphics/SVG/1.1/DTD/svg11.dtd">
<svg version="1.1" xmlns="http://www.w3.org/2000/svg" xmlns:xlink="http://www.w3.org/1999/xlink" width="32" height="32" viewBox="0 0 32 32">
<path fill="#333333" d="M29.346 1.325h-21.818c-0.353 0-0.693 0.141-0.943 0.391l-4.849 4.848c-0.25 0.25-0.391 0.59-0.391 0.943v21.819c0 0.736 0.597 1.333 1.333 1.333h26.667c0.736 0 1.333-0.597 1.333-1.333v-26.667c0.001-0.736-0.597-1.334-1.333-1.334zM10.013 3.992h12v4h-12v-4zM28.013 27.992h-24v-19.933l3.333-3.332v4.599c0 0.736 0.597 1.333 1.333 1.333h14.667c0.736 0 1.333-0.597 1.333-1.333v-5.333h3.333v24z"></path>
<path fill="#333333" d="M16.013 13.325c-2.941 0-5.333 2.392-5.333 5.333 0 2.94 2.393 5.333 5.333 5.333s5.333-2.393 5.333-5.333c0-2.941-2.393-5.333-5.333-5.333zM16.013 21.325c-1.471 0-2.667-1.197-2.667-2.667 0-1.471 1.196-2.667 2.667-2.667s2.667 1.195 2.667 2.667c0 1.47-1.196 2.667-2.667 2.667z"></path>
</svg>
