<?xml version="1.0" encoding="utf-8"?>
<!-- Generated by IcoMoon.io -->
<!DOCTYPE svg PUBLIC "-//W3C//DTD SVG 1.1//EN" "http://www.w3.org/Graphics/SVG/1.1/DTD/svg11.dtd">
<svg version="1.1" xmlns="http://www.w3.org/2000/svg" xmlns:xlink="http://www.w3.org/1999/xlink" width="32" height="32" viewBox="0 0 32 32">
<path fill="#333333" d="M18.667 29.333h-10.667c-1.471 0-2.667-1.196-2.667-2.667v-21.102c-1.553 0.551-2.667 2.027-2.667 3.769v17.333c0 2.941 2.393 5.333 5.333 5.333h12c1.741 0 3.217-1.115 3.768-2.667h-5.101z"></path>
<path fill="#333333" d="M25.333 4c0-2.206-1.794-4-4-4h-10.667c-1.838 0-3.333 1.495-3.333 3.333v20.667c0 1.838 1.495 3.333 3.333 3.333h15.333c1.838 0 3.333-1.495 3.333-3.333v-16c0-2.206-1.794-4-4-4zM26.667 8.875v15.125c0 0.367-0.299 0.667-0.667 0.667h-15.333c-0.368 0-0.667-0.299-0.667-0.667v-20.667c0-0.367 0.299-0.667 0.667-0.667h10.667c0.735 0 1.333 0.598 1.333 1.333v2.667h2.667c0.735 0 1.333 0.598 1.333 1.333v0.875z"></path>
</svg>
