<?xml version="1.0" encoding="utf-8"?>
<!-- Generated by IcoMoon.io -->
<!DOCTYPE svg PUBLIC "-//W3C//DTD SVG 1.1//EN" "http://www.w3.org/Graphics/SVG/1.1/DTD/svg11.dtd">
<svg version="1.1" xmlns="http://www.w3.org/2000/svg" xmlns:xlink="http://www.w3.org/1999/xlink" width="32" height="32" viewBox="0 0 32 32">
<path fill="#333333" d="M26.667 21.647c0-4.411-3.541-7.264-9.333-7.641v-8.607c5.077 0.475 5.803 3.603 5.839 3.781 0.131 0.717 0.815 1.195 1.536 1.075 0.726-0.124 1.214-0.813 1.091-1.539-0.040-0.234-1.021-5.437-8.465-5.999v-1.385c0-0.736-0.597-1.333-1.333-1.333s-1.333 0.597-1.333 1.333v1.385c-5.847 0.431-8.486 3.692-8.486 6.929s2.639 6.499 8.485 6.929v10.029c-4.037-0.343-6.667-2.246-6.667-4.959 0-0.736-0.597-1.333-1.333-1.333s-1.333 0.597-1.333 1.333c0 4.197 3.776 7.215 9.333 7.632v1.387c0 0.736 0.597 1.333 1.333 1.333s1.333-0.597 1.333-1.333v-1.382c5.713-0.389 9.334-3.298 9.334-7.637zM8.849 9.647c0-1.811 1.561-3.893 5.818-4.253v8.507c-4.257-0.361-5.818-2.443-5.818-4.253zM17.334 26.608v-9.928c2.689 0.202 6.667 1.145 6.667 4.967 0 3.265-3.347 4.672-6.667 4.961z"></path>
</svg>
