<?xml version="1.0" encoding="utf-8"?>
<!-- Generated by IcoMoon.io -->
<!DOCTYPE svg PUBLIC "-//W3C//DTD SVG 1.1//EN" "http://www.w3.org/Graphics/SVG/1.1/DTD/svg11.dtd">
<svg version="1.1" xmlns="http://www.w3.org/2000/svg" xmlns:xlink="http://www.w3.org/1999/xlink" width="32" height="32" viewBox="0 0 32 32">
<path fill="#333333" d="M16 9.557l5.688-5.784c0 0 4.772 0.65 6.652 6.484l-5.977 5.857c0-0.001-0.579-5.014-6.363-6.556z"></path>
<path fill="#333333" d="M21.688 28.452c0 0 1.145-5.531 6.652-6.543l-5.977-5.797c0 0-5.061 0.796-6.375 6.459l5.7 5.881z"></path>
<path fill="#333333" d="M3.66 21.768l5.753-5.752c0 0 5.338 0.632 6.527 6.543l-5.659 5.893c0 0-0.903-5.399-6.622-6.684z"></path>
<path fill="#333333" d="M9.42 15.98c0 0 0.989-5.106 6.507-6.423l-5.749-5.785c0 0-5.314 0.928-6.519 6.593l5.761 5.616z"></path>
</svg>
