<?xml version="1.0" encoding="utf-8"?>
<!-- Generated by IcoMoon.io -->
<!DOCTYPE svg PUBLIC "-//W3C//DTD SVG 1.1//EN" "http://www.w3.org/Graphics/SVG/1.1/DTD/svg11.dtd">
<svg version="1.1" xmlns="http://www.w3.org/2000/svg" xmlns:xlink="http://www.w3.org/1999/xlink" width="32" height="32" viewBox="0 0 32 32">
<path fill="#333333" d="M14.671 19.45l-3.061-3.059c-0.521-0.521-1.365-0.521-1.886 0s-0.52 1.364 0 1.885c0.003 0.003 0.006 0.005 0.009 0.007l5.297 5.297c0.009 0.010 0.015 0.021 0.025 0.030 0.521 0.521 1.365 0.521 1.886 0v0 0l5.326-5.325c0.003-0.003 0.007-0.005 0.011-0.009 0.52-0.521 0.52-1.365 0-1.885s-1.365-0.521-1.886 0v0l-0.001-0.001-3.057 3.057v-16.752c0.007-0.349-0.121-0.702-0.388-0.97-0.52-0.521-1.365-0.521-1.885 0-0.267 0.268-0.395 0.621-0.388 0.97v16.756z"></path>
<path fill="#333333" d="M25.333 5.333h-4c-0.737 0-1.333 0.597-1.333 1.333s0.597 1.333 1.333 1.333h4c0.736 0 1.333 0.597 1.333 1.333v17.334c0 0.736-0.597 1.333-1.333 1.333h-18.667c-0.736 0-1.333-0.597-1.333-1.333v-17.334c0-0.736 0.597-1.333 1.333-1.333h4c0.736 0 1.333-0.597 1.333-1.333s-0.597-1.333-1.333-1.333h-4c-2.209 0-4 1.791-4 4v17.334c0 2.209 1.791 4 4 4h18.667c2.209 0 4-1.791 4-4v-17.334c0-2.209-1.791-4-4-4z"></path>
</svg>
