<?xml version="1.0" encoding="utf-8"?>
<!-- Generated by IcoMoon.io -->
<!DOCTYPE svg PUBLIC "-//W3C//DTD SVG 1.1//EN" "http://www.w3.org/Graphics/SVG/1.1/DTD/svg11.dtd">
<svg version="1.1" xmlns="http://www.w3.org/2000/svg" xmlns:xlink="http://www.w3.org/1999/xlink" width="32" height="32" viewBox="0 0 32 32">
<path fill="#333333" d="M8.425 16.972l6.626 6.631c0.242 0.245 0.577 0.397 0.949 0.397 0.366 0 0.697-0.149 0.939-0.387v0l6.662-6.663c0.005-0.005 0.011-0.011 0.016-0.016l0.020-0.019-0.002-0.002c0.225-0.239 0.365-0.558 0.365-0.912 0-0.737-0.597-1.333-1.333-1.333-0.377 0-0.716 0.157-0.959 0.409l-0.001-0.001-4.373 4.375v-16.783c0-0.737-0.597-1.333-1.333-1.333s-1.333 0.597-1.333 1.333v16.781l-4.375-4.372c-0.243-0.252-0.582-0.409-0.959-0.409-0.736 0-1.333 0.597-1.333 1.333 0 0.384 0.165 0.728 0.425 0.971z"></path>
<path fill="#333333" d="M29.333 22.667c0-0.736-0.597-1.333-1.333-1.333s-1.333 0.597-1.333 1.333v0 4.667c0 0.369-0.299 0.667-0.667 0.667h-20c-0.368 0-0.667-0.298-0.667-0.667v-4.667c0-0.736-0.597-1.333-1.333-1.333s-1.333 0.597-1.333 1.333v0 5.333c0 1.473 1.194 2.667 2.667 2.667h21.333c0.488 0 0.94-0.141 1.333-0.369 0.793-0.463 1.333-1.313 1.333-2.297v-5.333z"></path>
</svg>
