<?xml version="1.0" encoding="utf-8"?>
<!-- Generated by IcoMoon.io -->
<!DOCTYPE svg PUBLIC "-//W3C//DTD SVG 1.1//EN" "http://www.w3.org/Graphics/SVG/1.1/DTD/svg11.dtd">
<svg version="1.1" xmlns="http://www.w3.org/2000/svg" xmlns:xlink="http://www.w3.org/1999/xlink" width="32" height="32" viewBox="0 0 32 32">
<path fill="#333333" d="M7.709 9.593l0.003 0.003c0.008 0.009 0.016 0.016 0.024 0.025l7.325 7.327c0.241 0.239 0.572 0.387 0.939 0.387 0.371 0 0.707-0.153 0.949-0.397l7.281-7.289c0.267-0.244 0.437-0.591 0.437-0.981 0-0.737-0.597-1.333-1.333-1.333-0.375 0-0.713 0.156-0.955 0.405l-0.001-0.001-5.044 5.043v-11.449c0-0.737-0.597-1.333-1.333-1.333s-1.333 0.597-1.333 1.333v11.451l-5.054-5.057c-0.003-0.002-0.005-0.005-0.008-0.007l-0.028-0.028-0.003 0.003c-0.238-0.223-0.556-0.361-0.907-0.361-0.736 0-1.333 0.597-1.333 1.333 0 0.36 0.145 0.685 0.376 0.926v0z"></path>
<path fill="#333333" d="M30.277 17.724l-4.667-4.667c-0.52-0.521-1.365-0.521-1.885 0s-0.521 1.365 0 1.885l1.947 1.947h-3.019c-0.353 0-0.691 0.141-0.941 0.391l-3.157 3.165h-5.107l-3.158-3.165c-0.249-0.251-0.587-0.391-0.941-0.391h-3.019l1.947-1.947c0.521-0.521 0.521-1.365 0-1.885s-1.365-0.521-1.885 0l-4.667 4.667c-0.261 0.261-0.391 0.602-0.391 0.943v10.223c0 0.981 0.794 1.777 1.774 1.777h25.786c0.979 0 1.774-0.796 1.774-1.777v-10.226c-0.001-0.341-0.131-0.68-0.391-0.94zM28.006 28.001h-24.012v-8.445h4.804l3.157 3.165c0.25 0.249 0.587 0.391 0.941 0.391h6.208c0.353 0 0.691-0.141 0.941-0.391l3.157-3.165h4.804v8.445z"></path>
</svg>
