<?xml version="1.0" encoding="utf-8"?>
<!-- Generated by IcoMoon.io -->
<!DOCTYPE svg PUBLIC "-//W3C//DTD SVG 1.1//EN" "http://www.w3.org/Graphics/SVG/1.1/DTD/svg11.dtd">
<svg version="1.1" xmlns="http://www.w3.org/2000/svg" xmlns:xlink="http://www.w3.org/1999/xlink" width="32" height="32" viewBox="0 0 32 32">
<path fill="#333333" d="M4.401 7.619v0l10.483 13.105c0.052 0.081 0.111 0.155 0.178 0.222l0.001 0.001c0.241 0.239 0.572 0.387 0.939 0.387 0.403 0 0.759-0.182 1.003-0.464l0.003 0.003 10.612-13.273c0.236-0.241 0.382-0.569 0.382-0.933 0-0.737-0.597-1.333-1.333-1.333h-21.333c-0.736 0-1.333 0.597-1.333 1.333 0 0.373 0.153 0.709 0.4 0.951zM16.003 17.879l-7.905-9.877h15.805l-7.9 9.877z"></path>
<path fill="#333333" d="M28.001 25.335h-24c-0.736 0-1.333 0.597-1.333 1.333s0.597 1.333 1.333 1.333h24c0.736 0 1.333-0.597 1.333-1.333s-0.597-1.333-1.333-1.333z"></path>
</svg>
