<?xml version="1.0" encoding="utf-8"?>
<!-- Generated by IcoMoon.io -->
<!DOCTYPE svg PUBLIC "-//W3C//DTD SVG 1.1//EN" "http://www.w3.org/Graphics/SVG/1.1/DTD/svg11.dtd">
<svg version="1.1" xmlns="http://www.w3.org/2000/svg" xmlns:xlink="http://www.w3.org/1999/xlink" width="32" height="32" viewBox="0 0 32 32">
<path fill="#333333" d="M4.401 7.619v0l10.651 11.984c0.003 0.003 0.006 0.007 0.009 0.010l0.002 0.002c0.241 0.239 0.572 0.387 0.939 0.387 0.403 0 0.759-0.182 1.003-0.464l0.003 0.003 10.602-11.929c0.002-0.002 0.004-0.004 0.006-0.006l0.004-0.005c0.236-0.241 0.382-0.569 0.382-0.933 0-0.737-0.597-1.333-1.333-1.333-0.369 0-0.704 0.151-0.945 0.393h-0.001l-9.721 10.936-9.718-10.933c-0.003-0.003-0.005-0.006-0.007-0.008l-0.007-0.008-0.002 0.001c-0.24-0.236-0.569-0.383-0.933-0.383-0.736 0-1.333 0.597-1.333 1.333 0 0.373 0.153 0.709 0.4 0.951z"></path>
<path fill="#333333" d="M28.001 24.001h-24c-0.736 0-1.333 0.597-1.333 1.333s0.597 1.333 1.333 1.333h24c0.736 0 1.333-0.597 1.333-1.333s-0.597-1.333-1.333-1.333z"></path>
</svg>
