<?xml version="1.0" encoding="utf-8"?>
<!-- Generated by IcoMoon.io -->
<!DOCTYPE svg PUBLIC "-//W3C//DTD SVG 1.1//EN" "http://www.w3.org/Graphics/SVG/1.1/DTD/svg11.dtd">
<svg version="1.1" xmlns="http://www.w3.org/2000/svg" xmlns:xlink="http://www.w3.org/1999/xlink" width="32" height="32" viewBox="0 0 32 32">
<path fill="#333333" d="M16.001 1.334c-8.1 0-14.667 6.567-14.667 14.667s6.567 14.667 14.667 14.667 14.667-6.567 14.667-14.667-6.567-14.667-14.667-14.667zM16.001 28.001c-6.627 0-11.999-5.373-11.999-12s5.373-12 11.999-12 12 5.373 12 12-5.373 12-12 12z"></path>
<path fill="#333333" d="M21.004 16.447l-0.001-0.001-3.669 3.669v-11.447c0-0.341-0.13-0.682-0.391-0.943-0.521-0.521-1.365-0.521-1.885 0-0.275 0.275-0.4 0.638-0.385 0.998v11.393l-3.671-3.668c-0.521-0.521-1.365-0.52-1.885 0s-0.52 1.365 0 1.886c0.004 0.004 0.010 0.007 0.014 0.012l5.933 5.932c0.521 0.521 1.365 0.521 1.886 0 0.009-0.009 0.015-0.021 0.025-0.030l5.903-5.902c0.004-0.005 0.010-0.007 0.014-0.012 0.52-0.521 0.52-1.366 0-1.886s-1.365-0.521-1.886-0.001z"></path>
</svg>
