<?xml version="1.0" encoding="utf-8"?>
<!-- Generated by IcoMoon.io -->
<!DOCTYPE svg PUBLIC "-//W3C//DTD SVG 1.1//EN" "http://www.w3.org/Graphics/SVG/1.1/DTD/svg11.dtd">
<svg version="1.1" xmlns="http://www.w3.org/2000/svg" xmlns:xlink="http://www.w3.org/1999/xlink" width="32" height="32" viewBox="0 0 32 32">
<path fill="#333333" d="M26 2.004h-20c-2.209 0-4 1.791-4 4v20c0 2.209 1.791 4 4 4h20c2.209 0 4-1.792 4-4v-20c0-2.209-1.791-4-4-4zM27.333 26.004c0 0.736-0.597 1.333-1.333 1.333h-20c-0.736 0-1.333-0.597-1.333-1.333v-20c0-0.737 0.597-1.333 1.333-1.333h20c0.736 0 1.333 0.597 1.333 1.333v20z"></path>
<path fill="#333333" d="M16 20.671c-0.341 0-0.683-0.13-0.943-0.391l-5.333-5.333c-0.521-0.521-0.521-1.365 0-1.885s1.365-0.521 1.885 0l4.391 4.391 4.391-4.391c0.52-0.521 1.365-0.521 1.885 0s0.521 1.365 0 1.885l-5.333 5.333c-0.26 0.261-0.601 0.391-0.943 0.391z"></path>
</svg>
