<?xml version="1.0" encoding="utf-8"?>
<!-- Generated by IcoMoon.io -->
<!DOCTYPE svg PUBLIC "-//W3C//DTD SVG 1.1//EN" "http://www.w3.org/Graphics/SVG/1.1/DTD/svg11.dtd">
<svg version="1.1" xmlns="http://www.w3.org/2000/svg" xmlns:xlink="http://www.w3.org/1999/xlink" width="32" height="32" viewBox="0 0 32 32">
<path fill="#333333" d="M7.769 9.647l7.284 7.291c0.241 0.245 0.577 0.397 0.947 0.397 0.366 0 0.697-0.149 0.938-0.387h0.001l7.323-7.326c0.009-0.009 0.017-0.017 0.027-0.027l0.002-0.002c0.232-0.241 0.376-0.566 0.376-0.926 0-0.737-0.597-1.333-1.333-1.333-0.351 0-0.669 0.139-0.907 0.361l-0.003-0.003-0.031 0.031c-0.001 0.001-0.002 0.003-0.003 0.003l-5.056 5.058v-11.451c0-0.737-0.597-1.333-1.333-1.333s-1.333 0.597-1.333 1.333v11.449l-5.044-5.043c-0.243-0.25-0.581-0.406-0.956-0.406-0.736 0-1.333 0.597-1.333 1.333 0 0.389 0.169 0.736 0.435 0.979z"></path>
<path fill="#333333" d="M25.333 18.667h-18.667c-2.209 0-4 1.791-4 4v5.333c0 2.209 1.791 4 4 4h18.667c2.209 0 4-1.791 4-4v-5.333c0-2.209-1.791-4-4-4zM26.667 28.001c0 0.737-0.597 1.333-1.333 1.333h-18.667c-0.736 0-1.333-0.597-1.333-1.333v-5.333c0-0.736 0.597-1.333 1.333-1.333h18.667c0.736 0 1.333 0.597 1.333 1.333v5.333z"></path>
<path fill="#333333" d="M24 24.001h-16c-0.736 0-1.333 0.597-1.333 1.333s0.597 1.333 1.333 1.333h16c0.736 0 1.333-0.597 1.333-1.333s-0.597-1.333-1.333-1.333z"></path>
</svg>
