<?xml version="1.0" encoding="utf-8"?>
<!-- Generated by IcoMoon.io -->
<!DOCTYPE svg PUBLIC "-//W3C//DTD SVG 1.1//EN" "http://www.w3.org/Graphics/SVG/1.1/DTD/svg11.dtd">
<svg version="1.1" xmlns="http://www.w3.org/2000/svg" xmlns:xlink="http://www.w3.org/1999/xlink" width="32" height="32" viewBox="0 0 32 32">
<path fill="#333333" d="M24.715 15.667c2.412-7.689-0.032-11.147-0.327-11.523-0.107-0.136-0.241-0.242-0.387-0.326v-2.485c0-0.736-0.597-1.333-1.333-1.333s-1.333 0.597-1.333 1.333v2.461c-2.663 0.403-4.356 1.549-5.333 2.533-0.977-0.983-2.67-2.13-5.333-2.533v-2.461c0-0.736-0.597-1.333-1.333-1.333s-1.333 0.597-1.333 1.333v2.485c-0.146 0.084-0.281 0.19-0.387 0.326-0.295 0.375-2.739 3.834-0.327 11.523-1.059 1.633-4.619 7.572-4.619 13.666 0 0.736 0.597 1.333 1.333 1.333h24c0.736 0 1.333-0.597 1.333-1.333 0-6.094-3.559-12.033-4.619-13.666zM14.757 9.030c0.262 0.536 0.836 0.819 1.4 0.731 0.448-0.039 0.867-0.302 1.085-0.729 0.054-0.105 1.292-2.437 5.325-2.705 0.434 1.040 1.093 3.647-0.302 8.266-5.625 0.751-10.647 0.25-12.529 0.003-1.381-4.586-0.723-7.219-0.294-8.268 4 0.269 5.246 2.57 5.315 2.703zM5.399 28c0.452-4.735 3.123-9.297 4.044-10.751 0.561 0.074 1.348 0.165 2.315 0.243-0.344 1.477-0.896 4.12-1.087 6.571-0.057 0.734 0.491 1.375 1.226 1.433 0.035 0.003 0.070 0.004 0.105 0.004 0.689 0 1.273-0.531 1.328-1.23 0.198-2.538 0.837-5.393 1.135-6.631 0.499 0.014 1.021 0.023 1.564 0.023 0.485 0 0.991-0.010 1.505-0.025 0.299 1.237 0.938 4.093 1.136 6.633 0.055 0.699 0.639 1.23 1.328 1.23 0.035 0 0.069-0.001 0.105-0.004 0.735-0.057 1.283-0.699 1.226-1.433-0.191-2.456-0.746-5.104-1.089-6.58 0.753-0.062 1.523-0.145 2.308-0.249 0.912 1.435 3.6 6.014 4.054 10.765h-21.203z"></path>
</svg>
