<?xml version="1.0" encoding="utf-8"?>
<!-- Generated by IcoMoon.io -->
<!DOCTYPE svg PUBLIC "-//W3C//DTD SVG 1.1//EN" "http://www.w3.org/Graphics/SVG/1.1/DTD/svg11.dtd">
<svg version="1.1" xmlns="http://www.w3.org/2000/svg" xmlns:xlink="http://www.w3.org/1999/xlink" width="32" height="32" viewBox="0 0 32 32">
<path fill="#333333" d="M16 2.645c-7.384 0-13.369 5.985-13.369 13.369s5.985 13.368 13.369 13.368c7.381 0 13.366-5.985 13.366-13.369s-5.985-13.368-13.366-13.368zM27.279 15.523c-3.047-0.72-5.742-0.691-8.073-0.238-0.277-0.656-0.553-1.28-0.832-1.872 2.494-0.988 4.813-2.407 6.451-4.443 1.448 1.81 2.35 4.080 2.454 6.554zM16 4.721c2.757 0 5.284 0.989 7.244 2.631-1.403 1.859-3.53 3.149-5.861 4.043-0.258-0.497-0.512-0.963-0.751-1.395-1.304-2.336-2.48-4.025-3.2-4.987 0.824-0.191 1.685-0.292 2.568-0.292zM11.201 5.788c0.567 0.715 2.218 2.907 4.019 6.317-4.237 1.183-8.602 1.304-10.211 1.304 0.798-3.381 3.116-6.176 6.191-7.622zM4.708 16.012c0-0.121 0.002-0.242 0.006-0.364 0.13 0.002 0.286 0.003 0.468 0.003 1.925 0 6.544-0.159 11.063-1.506 0.258 0.547 0.517 1.117 0.773 1.71-2.030 0.674-3.704 1.642-5.019 2.601-2.389 1.744-3.943 3.696-4.692 4.763-1.624-1.954-2.6-4.468-2.6-7.208zM16 27.304c-2.677 0-5.136-0.932-7.070-2.488 0.505-0.767 1.963-2.78 4.387-4.549 1.438-1.051 2.953-1.832 4.539-2.344 0.962 2.522 1.833 5.379 2.448 8.53-1.324 0.547-2.778 0.85-4.304 0.85zM22.364 25.341c-0.614-2.928-1.432-5.595-2.318-7.947 2.248-0.368 4.622-0.235 7.103 0.404-0.495 3.127-2.278 5.828-4.786 7.543z"></path>
</svg>
