<?xml version="1.0" encoding="utf-8"?>
<!-- Generated by IcoMoon.io -->
<!DOCTYPE svg PUBLIC "-//W3C//DTD SVG 1.1//EN" "http://www.w3.org/Graphics/SVG/1.1/DTD/svg11.dtd">
<svg version="1.1" xmlns="http://www.w3.org/2000/svg" xmlns:xlink="http://www.w3.org/1999/xlink" width="32" height="32" viewBox="0 0 32 32">
<path fill="#333333" d="M21.571 7.506c-1.307-0.816-2.538-1.137-3.773-1.953-0.763-0.521-1.824-1.756-2.71-2.822-0.173 1.708-0.691 2.4-1.281 2.895-1.257 0.99-2.046 1.287-3.131 1.881-0.913 0.471-5.866 3.44-5.866 9.824s5.349 11.085 11.288 11.085c5.94 0 11.093-4.331 11.093-10.887 0-6.558-4.831-9.527-5.62-10.022zM6.634 12.461c0 0-0.439-0.395 0.432-1.605 0 0 0.334-0.425 0.428-0.532 0 0 0.264-0.283 0.325-0.332 0 0 0.545-0.552 0.701-0.696 0 0 0.601-0.545 1.425-1.116 0 0 0.518-0.338 0.905-0.565 0 0 0.545-0.295 0.858-0.451 0 0 0.475-0.227 1.042-0.584 0 0 0.819-0.528 1.039-0.702 0 0 0.575-0.421 0.823-0.829 0 0 0.264-0.344 0.438-1.042 0 0 0.146-0.576 0.157-0.802 0 0 0.2 0.632 0.23 0.859 0 0 0.12 0.646 0.050 1.067 0 0-0.064 0.582-0.431 0.903 0 0-0.207 0.163-0.24 0.213 0 0-0.073 0.081-0.040 0.138 0 0 0.049 0.061 0.106 0.118 0 0 0.148 0.11 0.091 0.351 0 0-0.011 0.362-0.474 0.946 0 0-0.906 1.112-1.468 1.562 0 0-0.918 0.778-1.361 1.060 0 0-1.468 0.997-1.774 1.116 0 0-1.27 0.708-1.719 0.853-0.001-0.001-1.134 0.475-1.542 0.069zM21.712 26.087c-0.121 0.123-1.256 0.913-2.587 1.039-1.33 0.124-3.129 0.197-4.214-0.792-0.173-0.173-0.124-0.421 0-0.521 0.123-0.098 0.22-0.173 0.37-0.173 0.148 0 0.124 0 0.197 0.050 0.494 0.397 1.233 0.716 2.811 0.716s2.687-0.445 3.18-0.816c0.221-0.174 0.321-0.026 0.345 0.073 0.021 0.1 0.071 0.25-0.103 0.424zM17.398 23.834c0.271-0.247 0.716-0.642 1.134-0.816 0.419-0.174 0.641-0.148 1.036-0.148s0.812 0.024 1.109 0.223c0.295 0.197 0.469 0.644 0.566 0.892 0.097 0.247 0 0.395-0.198 0.495-0.173 0.098-0.198 0.050-0.37-0.271-0.173-0.323-0.321-0.644-1.183-0.644s-1.134 0.297-1.554 0.644c-0.418 0.345-0.566 0.469-0.715 0.271s-0.096-0.397 0.174-0.645zM23.932 24.032c-0.889-0.074-2.661-2.847-3.796-2.895-1.43-0.050-4.536 2.994-6.976 2.994-1.48 0-1.923-0.223-2.416-0.544-0.739-0.521-1.109-1.311-1.084-2.401 0.026-1.931 1.822-3.736 4.091-3.76 2.884-0.024 4.881 2.869 6.334 2.845 1.231-0.026 3.599-2.45 4.757-2.45 1.233 0 1.577 1.287 1.577 2.055s-0.245 2.153-0.836 3.018c-0.592 0.866-0.962 1.189-1.651 1.139z"></path>
</svg>
