<?xml version="1.0" encoding="utf-8"?>
<!-- Generated by IcoMoon.io -->
<!DOCTYPE svg PUBLIC "-//W3C//DTD SVG 1.1//EN" "http://www.w3.org/Graphics/SVG/1.1/DTD/svg11.dtd">
<svg version="1.1" xmlns="http://www.w3.org/2000/svg" xmlns:xlink="http://www.w3.org/1999/xlink" width="32" height="32" viewBox="0 0 32 32">
<path fill="#333333" d="M24 8h-0.12c-0.636-3.782-3.917-6.667-7.88-6.667s-7.244 2.885-7.88 6.667h-0.12c-0.736 0-1.333 0.597-1.333 1.333s0.597 1.333 1.333 1.333h0.124c0.329 1.954 1.356 3.671 2.829 4.871l1.031 11.795 0.025 0.284 0.005-0.001c0.146 2.076 1.873 3.717 3.986 3.717s3.84-1.641 3.985-3.717l0.005 0.001 0.025-0.284 1.031-11.795c1.473-1.2 2.5-2.917 2.829-4.871h0.125c0.736 0 1.333-0.597 1.333-1.333s-0.597-1.333-1.333-1.333zM16 4c2.484 0 4.565 1.702 5.159 4h-10.317c0.593-2.298 2.675-4 5.159-4zM17.746 22.667l-0.090 1.029-0.318 3.638h-0.005c0 0.736-0.597 1.333-1.333 1.333s-1.333-0.597-1.333-1.333h-0.005l-0.319-3.638-0.089-1.029-0.495-5.657c0.712 0.207 1.463 0.324 2.241 0.324s1.529-0.117 2.241-0.324l-0.495 5.657zM19.519 13.333c-0.31 0.273-0.65 0.513-1.018 0.709-0.746 0.398-1.597 0.625-2.501 0.625s-1.755-0.227-2.501-0.625c-0.369-0.195-0.709-0.435-1.018-0.709-0.789-0.695-1.367-1.619-1.639-2.667h10.315c-0.272 1.047-0.849 1.972-1.639 2.667z"></path>
</svg>
