<?xml version="1.0" encoding="utf-8"?>
<!-- Generated by IcoMoon.io -->
<!DOCTYPE svg PUBLIC "-//W3C//DTD SVG 1.1//EN" "http://www.w3.org/Graphics/SVG/1.1/DTD/svg11.dtd">
<svg version="1.1" xmlns="http://www.w3.org/2000/svg" xmlns:xlink="http://www.w3.org/1999/xlink" width="32" height="32" viewBox="0 0 32 32">
<path fill="#333333" d="M16.001 18c-0.171 0-0.341-0.033-0.502-0.098l-14.667-5.961c-0.493-0.201-0.819-0.675-0.831-1.207s0.295-1.020 0.779-1.241l14.667-6.706c0.352-0.161 0.757-0.161 1.109 0l14.667 6.706c0.484 0.221 0.79 0.709 0.779 1.241s-0.338 1.006-0.831 1.207l-14.667 5.961c-0.161 0.065-0.331 0.098-0.501 0.098zM4.697 10.634l11.303 4.593 11.303-4.593-11.302-5.168-11.303 5.168z"></path>
<path fill="#333333" d="M16.001 29.333c-0.201 0-0.403-0.045-0.588-0.137l-10-4.912c-0.592-0.291-0.882-0.971-0.683-1.599l2.667-8.421c0.222-0.702 0.97-1.091 1.674-0.869 0.702 0.222 1.091 0.972 0.869 1.674l-2.32 7.327 8.383 4.118 8.383-4.118-2.32-7.327c-0.222-0.702 0.167-1.451 0.869-1.674 0.704-0.223 1.451 0.167 1.674 0.869l2.667 8.421c0.199 0.629-0.091 1.309-0.683 1.599l-10 4.912c-0.187 0.091-0.389 0.137-0.589 0.137z"></path>
<path fill="#333333" d="M28.001 10.667h2.667v13.333h-2.667v-13.333z"></path>
</svg>
