<?xml version="1.0" encoding="utf-8"?>
<!-- Generated by IcoMoon.io -->
<!DOCTYPE svg PUBLIC "-//W3C//DTD SVG 1.1//EN" "http://www.w3.org/Graphics/SVG/1.1/DTD/svg11.dtd">
<svg version="1.1" xmlns="http://www.w3.org/2000/svg" xmlns:xlink="http://www.w3.org/1999/xlink" width="32" height="32" viewBox="0 0 32 32">
<path fill="#333333" d="M25.333 23.333h-18.667c-0.736 0-1.333 0.597-1.333 1.333s0.597 1.333 1.333 1.333h18.667c0.736 0 1.333-0.597 1.333-1.333s-0.597-1.333-1.333-1.333z"></path>
<path fill="#333333" d="M6.667 20.667h18.667c0.005 0 0.010 0 0.013 0 0.737 0 1.333-0.597 1.333-1.333 0-0.369-0.15-0.703-0.391-0.944l-9.236-11.875c-0.505-0.65-1.6-0.65-2.105 0l-9.333 12c-0.313 0.402-0.369 0.947-0.145 1.404s0.689 0.748 1.198 0.748zM16 9.505l6.607 8.495h-13.215l6.607-8.495z"></path>
</svg>
