<?xml version="1.0" encoding="utf-8"?>
<!-- Generated by IcoMoon.io -->
<!DOCTYPE svg PUBLIC "-//W3C//DTD SVG 1.1//EN" "http://www.w3.org/Graphics/SVG/1.1/DTD/svg11.dtd">
<svg version="1.1" xmlns="http://www.w3.org/2000/svg" xmlns:xlink="http://www.w3.org/1999/xlink" width="32" height="32" viewBox="0 0 32 32">
<path fill="#333333" d="M5.317 17.328h21.333c0.736 0 1.333-0.597 1.333-1.333 0-0.361-0.145-0.686-0.377-0.926l0.001-0.001-0.011-0.011c-0.003-0.003-0.005-0.005-0.009-0.009l-10.644-10.641c-0.243-0.253-0.582-0.412-0.96-0.412s-0.717 0.159-0.96 0.411l-0.001-0.001-10.642 10.641c-0.245 0.241-0.398 0.577-0.398 0.949 0.001 0.737 0.597 1.333 1.334 1.333zM15.985 7.212l7.448 7.449h-14.899l7.451-7.449z"></path>
<path fill="#333333" d="M23.985 19.995h-16c-2.209 0-4 1.791-4 4s1.791 4 4 4h16c2.209 0 4-1.791 4-4s-1.791-4-4-4zM23.985 25.328h-16c-0.736 0-1.333-0.597-1.333-1.333s0.597-1.333 1.333-1.333h15.999c0.736 0 1.333 0.597 1.333 1.333s-0.597 1.333-1.333 1.333z"></path>
</svg>
