<?xml version="1.0" encoding="utf-8"?>
<!-- Generated by IcoMoon.io -->
<!DOCTYPE svg PUBLIC "-//W3C//DTD SVG 1.1//EN" "http://www.w3.org/Graphics/SVG/1.1/DTD/svg11.dtd">
<svg version="1.1" xmlns="http://www.w3.org/2000/svg" xmlns:xlink="http://www.w3.org/1999/xlink" width="32" height="32" viewBox="0 0 32 32">
<path fill="#333333" d="M19.997 5.333c0-2.209-1.792-4-4-4-2.209 0-4 1.792-4 4 0 2.209 1.791 4 4 4 2.208 0 4-1.791 4-4zM14.663 5.333c0-0.737 0.596-1.333 1.333-1.333 0.736 0 1.333 0.597 1.333 1.333s-0.597 1.333-1.333 1.333c-0.737 0-1.333-0.597-1.333-1.333zM19.997 16c0-2.209-1.792-4-4-4-2.209 0-4 1.792-4 4 0 2.209 1.791 4 4 4 2.208 0 4-1.791 4-4zM14.663 16c0-0.737 0.596-1.333 1.333-1.333 0.736 0 1.333 0.597 1.333 1.333s-0.597 1.333-1.333 1.333c-0.737 0-1.333-0.597-1.333-1.333zM19.997 26.667c0-2.209-1.792-4-4-4-2.209 0-4 1.792-4 4 0 2.209 1.791 4 4 4 2.208 0 4-1.791 4-4zM14.663 26.667c0-0.737 0.596-1.333 1.333-1.333 0.736 0 1.333 0.597 1.333 1.333s-0.597 1.333-1.333 1.333c-0.737 0-1.333-0.597-1.333-1.333z"></path>
</svg>
