<?xml version="1.0" encoding="utf-8"?>
<!-- Generated by IcoMoon.io -->
<!DOCTYPE svg PUBLIC "-//W3C//DTD SVG 1.1//EN" "http://www.w3.org/Graphics/SVG/1.1/DTD/svg11.dtd">
<svg version="1.1" xmlns="http://www.w3.org/2000/svg" xmlns:xlink="http://www.w3.org/1999/xlink" width="32" height="32" viewBox="0 0 32 32">
<path fill="#333333" d="M26.667 4.667h-21.333c-2.209 0-4 1.792-4 4v14.667c0 2.209 1.791 4 4 4h21.333c2.209 0 4-1.791 4-4v-14.667c0-2.208-1.791-4-4-4zM26.611 7.333l-10.611 9.011-10.611-9.011h21.222zM26.667 24.667h-21.333c-0.736 0-1.333-0.597-1.333-1.333v-13.699l11.209 9.439c0.235 0.173 0.513 0.261 0.791 0.261s0.556-0.087 0.791-0.261l11.209-9.439v13.699c0 0.736-0.597 1.333-1.333 1.333z"></path>
</svg>
