<?xml version="1.0" encoding="utf-8"?>
<!-- Generated by IcoMoon.io -->
<!DOCTYPE svg PUBLIC "-//W3C//DTD SVG 1.1//EN" "http://www.w3.org/Graphics/SVG/1.1/DTD/svg11.dtd">
<svg version="1.1" xmlns="http://www.w3.org/2000/svg" xmlns:xlink="http://www.w3.org/1999/xlink" width="32" height="32" viewBox="0 0 32 32">
<path fill="#333333" d="M28 27.999h-24c-0.736 0-1.333 0.597-1.333 1.333s0.597 1.333 1.333 1.333h24c0.736 0 1.333-0.597 1.333-1.333s-0.597-1.333-1.333-1.333z"></path>
<path fill="#333333" d="M3.753 18.966l-0.003 0.002 5.653 5.697c0.842 0.824 1.993 1.333 3.264 1.333 1.287 0 2.451-0.521 3.295-1.363h0.001l0.009-0.009 12.878-12.941c0.293-0.244 0.485-0.608 0.485-1.020 0-0.358-0.143-0.682-0.373-0.921l0.001-0.001-0.012-0.012c-0.005-0.005-0.011-0.011-0.015-0.015l-7.948-7.941c-0.245-0.27-0.593-0.442-0.985-0.442-0.407 0-0.767 0.187-1.013 0.474l-15.263 15.25c-0.241 0.241-0.391 0.575-0.391 0.943 0 0.381 0.162 0.723 0.419 0.967zM19.997 4.551l6.119 6.116-3.718 3.733-6.126-6.127 3.725-3.722zM14.385 10.157l6.131 6.131-6.431 6.458c-0.362 0.362-0.862 0.585-1.414 0.585-0.54 0-1.028-0.216-1.387-0.565l-0.049-0.049-4.694-4.725 7.845-7.836z"></path>
</svg>
