<?xml version="1.0" encoding="utf-8"?>
<!-- Generated by IcoMoon.io -->
<!DOCTYPE svg PUBLIC "-//W3C//DTD SVG 1.1//EN" "http://www.w3.org/Graphics/SVG/1.1/DTD/svg11.dtd">
<svg version="1.1" xmlns="http://www.w3.org/2000/svg" xmlns:xlink="http://www.w3.org/1999/xlink" width="32" height="32" viewBox="0 0 32 32">
<path fill="#333333" d="M30.113 23.187c-0.597-0.432-1.431-0.298-1.862 0.297-2.079 2.869-5.249 4.515-8.697 4.515-4.889 0-9.035-3.373-10.405-8h8.185c0.736 0 1.333-0.597 1.333-1.333s-0.597-1.333-1.333-1.333h-8.634c-0.013-0.222-0.033-0.442-0.033-0.667 0-0.683 0.069-1.349 0.18-2h8.487c0.736 0 1.333-0.597 1.333-1.333s-0.597-1.333-1.333-1.333h-7.689c1.713-3.925 5.506-6.667 9.91-6.667 3.448 0 6.619 1.647 8.7 4.518 0.431 0.596 1.264 0.73 1.862 0.297 0.597-0.432 0.729-1.266 0.297-1.862-2.588-3.571-6.545-5.62-10.859-5.62-5.888 0-10.897 3.905-12.763 9.333h-4.124c-0.736 0-1.333 0.597-1.333 1.333s0.597 1.333 1.333 1.333h3.488c-0.091 0.655-0.155 1.319-0.155 2 0 0.225 0.023 0.445 0.033 0.667h-3.366c-0.736 0-1.333 0.597-1.333 1.333s0.597 1.333 1.333 1.333h3.738c1.453 6.113 6.789 10.667 13.149 10.667 4.313 0 8.269-2.047 10.856-5.617 0.433-0.597 0.299-1.43-0.297-1.862z"></path>
</svg>
