<?xml version="1.0" encoding="utf-8"?>
<!-- Generated by IcoMoon.io -->
<!DOCTYPE svg PUBLIC "-//W3C//DTD SVG 1.1//EN" "http://www.w3.org/Graphics/SVG/1.1/DTD/svg11.dtd">
<svg version="1.1" xmlns="http://www.w3.org/2000/svg" xmlns:xlink="http://www.w3.org/1999/xlink" width="32" height="32" viewBox="0 0 32 32">
<path fill="#333333" d="M5.553 8.411c0 0 0.774-0.405 1.776-0.405s2.198 0 2.198 0 0.457 0.087 0.457-0.528v-2.425c0 0 0.033-1.035 0.279-1.317l-4.71 4.675z"></path>
<path fill="#333333" d="M26.594 10.168c-0.071-0.968-0.055-2.725-0.668-3.621-0.617-0.897-1.479-0.932-3.2-1.266-1.725-0.332-4.747-0.282-4.747-0.282-0.316-1.826-2.654-2.213-4.991-2.002-2.336 0.209-2.215 2.021-2.215 2.021s0.019 2.25 0 2.583c-0.016 0.334 0.028 0.553-0.261 0.845-0.29 0.29-1 0.28-1 0.28h-2.305c-2.355 0.176-2.143 2.056-2.092 2.654 0.054 0.598 0.396 4.087 1.063 6.098 0.671 2.014 0.502 2.497 2.409 3.069 1.908 0.571 4.596 0.983 4.816 1.010 0.221 0.025 0.932 0.263 1.503-0.038 0.572-0.298 0.762-1.334 0.957-2.127 0.195-0.79 0.199-1.911 0.199-2.024 0-0.115-0.041-0.212 0.057-0.212s0.073 0.251 0.073 0.251c-0.054 1.494 0.421 2.146 0.421 2.146 0.579 1.177 4.077 1.353 4.077 1.353 1.81 0.141 1.845 1.864 1.915 2.866 0.073 1.002-0.070 1.757-0.315 2.179-0.247 0.422-1.793 0.422-2.147 0.422-0.348 0-1.967 0.228-2.019-1.073-0.054-1.301 1.67-1.035 1.67-1.035 0.228 0 0.298-0.179 0.264-0.266-0.035-0.087-0.090-0.405-0.106-0.563-0.019-0.158 0.087-0.649 0.141-0.809 0.051-0.158-0.158-0.212-0.158-0.212-0.508-0.054-1.651 0-1.651 0-2.321 0.228-2.358 1.706-2.391 3.323s0.739 2.374 0.739 2.374c1 1.16 4.096 0.965 5.028 0.929 0.931-0.033 1.51-0.192 1.51-0.192 2.075-0.738 2.636-3.814 3.007-5.589 0.367-1.776 0.685-4.464 0.738-6.010 0.054-1.548-0.244-6.118-0.314-7.083zM20.302 15.371c0.123-0.597 0.315-1.582 1.543-1.582 1.234 0 1.234 1.898 1.234 1.898-1.109-0.632-2.777-0.315-2.777-0.315z"></path>
</svg>
