<?xml version="1.0" encoding="utf-8"?>
<!-- Generated by IcoMoon.io -->
<!DOCTYPE svg PUBLIC "-//W3C//DTD SVG 1.1//EN" "http://www.w3.org/Graphics/SVG/1.1/DTD/svg11.dtd">
<svg version="1.1" xmlns="http://www.w3.org/2000/svg" xmlns:xlink="http://www.w3.org/1999/xlink" width="32" height="32" viewBox="0 0 32 32">
<path fill="#333333" d="M30.667 14.667l-8 0.001c-0.193 0-0.375 0.043-0.541 0.117-0.467 0.207-0.793 0.673-0.793 1.216 0 0.725 0.579 1.312 1.299 1.331 0.011 0 0.022 0.003 0.033 0.003h4.781l-7.948 7.948c-1.79 1.681-4.189 2.719-6.833 2.719-2.72 0-5.183-1.097-6.986-2.867-0.049-0.057-0.103-0.109-0.161-0.158-0.233-0.193-0.527-0.314-0.853-0.314-0.74 0-1.34 0.599-1.34 1.339 0 0.319 0.116 0.608 0.302 0.838 0.063 0.065 0.126 0.129 0.191 0.193 0.061 0.059 0.118 0.123 0.181 0.181 2.268 2.136 5.313 3.455 8.667 3.455 3.153 0 6.035-1.166 8.255-3.080l0.022 0.022 0.458-0.459 0.416-0.415 7.515-7.515-0.001 4.78c0 0.736 0.597 1.333 1.333 1.333s1.333-0.597 1.333-1.333v-8.001c0.001-0.736-0.596-1.333-1.333-1.333z"></path>
<path fill="#333333" d="M9.334 17.333c0.193 0 0.375-0.043 0.541-0.117 0.466-0.207 0.792-0.673 0.792-1.216 0-0.725-0.579-1.312-1.299-1.331-0.011 0-0.022-0.003-0.033-0.003h-4.787l7.893-7.892c1.797-1.715 4.222-2.775 6.895-2.775 2.72 0 5.183 1.097 6.986 2.867 0.049 0.057 0.103 0.109 0.161 0.158 0.233 0.193 0.527 0.315 0.853 0.315 0.31 0 0.593-0.11 0.819-0.287 0.315-0.245 0.52-0.623 0.52-1.053 0-0.353-0.145-0.667-0.369-0.905l0.001-0.007c-0.046-0.047-0.099-0.088-0.147-0.136-2.297-2.287-5.538-3.618-8.824-3.618-3.153 0-6.035 1.166-8.254 3.080-0.189 0.162-0.373 0.328-0.552 0.501l-7.861 7.86v-4.775c0-0.736-0.597-1.333-1.333-1.333s-1.333 0.597-1.333 1.333v8c0 0.736 0.597 1.333 1.333 1.333h8z"></path>
</svg>
