<?xml version="1.0" encoding="utf-8"?>
<!-- Generated by IcoMoon.io -->
<!DOCTYPE svg PUBLIC "-//W3C//DTD SVG 1.1//EN" "http://www.w3.org/Graphics/SVG/1.1/DTD/svg11.dtd">
<svg version="1.1" xmlns="http://www.w3.org/2000/svg" xmlns:xlink="http://www.w3.org/1999/xlink" width="32" height="32" viewBox="0 0 32 32">
<path fill="#333333" d="M13.057 17.060v0 0 0 0l-7.055 7.055v-4.779h-0.002c0-0.341-0.13-0.682-0.39-0.943-0.521-0.521-1.365-0.521-1.886 0-0.265 0.265-0.394 0.615-0.389 0.963v7.959c-0.005 0.348 0.123 0.697 0.389 0.963 0.261 0.261 0.602 0.39 0.943 0.39v0.002l7.999-0.002c0.341 0 0.683-0.13 0.943-0.39 0.52-0.521 0.52-1.365 0-1.885-0.266-0.266-0.617-0.395-0.965-0.389h-4.761l7.058-7.058c0.521-0.521 0.521-1.364 0-1.885-0.52-0.52-1.364-0.521-1.885-0.001z"></path>
<path fill="#333333" d="M28.667 4.67h-0.001c0-0.341-0.13-0.683-0.391-0.943s-0.603-0.391-0.945-0.39h-7.993c-0.343-0.001-0.685 0.129-0.946 0.39-0.52 0.521-0.52 1.365 0 1.886 0.261 0.261 0.602 0.391 0.943 0.391v0h4.78l-7.039 7.042c-0.006 0.005-0.013 0.009-0.019 0.015-0.52 0.521-0.519 1.365 0 1.885 0.521 0.522 1.365 0.521 1.886 0 0.006-0.006 0.009-0.013 0.015-0.019l0.002 0.002 7.041-7.040v4.768c-0.003 0.345 0.125 0.692 0.389 0.955 0.521 0.521 1.365 0.521 1.886 0 0.261-0.261 0.391-0.601 0.391-0.943h0.001v-8z"></path>
</svg>
