<?xml version="1.0" encoding="utf-8"?>
<!-- Generated by IcoMoon.io -->
<!DOCTYPE svg PUBLIC "-//W3C//DTD SVG 1.1//EN" "http://www.w3.org/Graphics/SVG/1.1/DTD/svg11.dtd">
<svg version="1.1" xmlns="http://www.w3.org/2000/svg" xmlns:xlink="http://www.w3.org/1999/xlink" width="32" height="32" viewBox="0 0 32 32">
<path fill="#333333" d="M15.508 6.797c0 0 8.763-1.748 13.095 3.589 0 0 4.011 4.514-2.691 10.259l2.052 1.368-8.073 2.143c0 0 6.019-2.737 6.019-8.801 0.001 0 0.459-8.208-10.403-8.559z"></path>
<path fill="#333333" d="M12.139 7.876c0 0-7.844 3.421-5.701 11.538 0 0 1.484 5.891 9.949 5.855 0 0-10.517 1.837-13.724-4.863 0 0-2.27-4.034 3.314-9.043l-2.126-1.332 8.287-2.154z"></path>
<path fill="#333333" d="M14.912 20.090c-1.919-0.757-1.377-3.161-1.377-3.161 4.132-0.648 5.295-1.567 5.295-1.567 3.161-2.108 1.081-4.080 1.081-4.080-1.974-1.666-5.323-0.063-5.323-0.063-2.702 1.099-3.674 3.748-3.674 3.748-1.676 5.403 2.756 6.070 2.756 6.070 3.927 0.594 6.123-2.27 6.123-2.27l-0.477-0.378c-2.539 2.621-4.404 1.702-4.404 1.702zM16.263 11.39c0 0 1.269-0.432 1.621 0.756 0 0 0.432 1.892-1.513 3.215 0 0-0.568 0.648-2.756 0.946 0 0 0.73-4.026 2.648-4.917z"></path>
</svg>
