<?xml version="1.0" encoding="utf-8"?>
<!-- Generated by IcoMoon.io -->
<!DOCTYPE svg PUBLIC "-//W3C//DTD SVG 1.1//EN" "http://www.w3.org/Graphics/SVG/1.1/DTD/svg11.dtd">
<svg version="1.1" xmlns="http://www.w3.org/2000/svg" xmlns:xlink="http://www.w3.org/1999/xlink" width="32" height="32" viewBox="0 0 32 32">
<path fill="#333333" d="M30.277 8.391l-6.667-6.667c-0.52-0.521-1.365-0.521-1.885 0s-0.521 1.365 0 1.886l4.391 4.39h-3.449c-8.455 0-15.333 6.878-15.333 15.333v0.667c0 0.737 0.597 1.333 1.333 1.333s1.333-0.597 1.333-1.333v-0.667c0-6.985 5.682-12.667 12.667-12.667h3.448l-4.391 4.391c-0.521 0.521-0.521 1.365 0 1.886s1.365 0.521 1.885 0l6.667-6.667c0.521-0.521 0.521-1.365 0.001-1.886z"></path>
<path fill="#333333" d="M26.001 18.667c-0.736 0-1.333 0.597-1.333 1.333v6.667c0 0.735-0.598 1.333-1.333 1.333h-18c-0.735 0-1.333-0.598-1.333-1.333v-18.667c0-0.735 0.598-1.333 1.333-1.333h10c0.736 0 1.333-0.597 1.333-1.333s-0.597-1.333-1.333-1.333h-10c-2.206 0-4 1.794-4 4v18.667c0 2.206 1.794 4 4 4h18c2.206 0 4-1.794 4-4v-6.667c0-0.737-0.597-1.333-1.333-1.333z"></path>
</svg>
