<?xml version="1.0" encoding="utf-8"?>
<!-- Generated by IcoMoon.io -->
<!DOCTYPE svg PUBLIC "-//W3C//DTD SVG 1.1//EN" "http://www.w3.org/Graphics/SVG/1.1/DTD/svg11.dtd">
<svg version="1.1" xmlns="http://www.w3.org/2000/svg" xmlns:xlink="http://www.w3.org/1999/xlink" width="32" height="32" viewBox="0 0 32 32">
<path fill="#333333" d="M28.667 16.667c-0.736 0-1.333 0.597-1.333 1.333v8.667c0 0.736-0.597 1.333-1.333 1.333h-20c-0.736 0-1.333-0.597-1.333-1.333v-20.001c0-0.736 0.597-1.333 1.333-1.333h8.667c0.736 0 1.333-0.597 1.333-1.333s-0.597-1.333-1.333-1.333h-8.667c-2.209 0-4 1.791-4 4v20c0 2.209 1.791 4 4 4h20c2.209 0 4-1.791 4-4v-8.667c0-0.737-0.597-1.333-1.333-1.333z"></path>
<path fill="#333333" d="M29.973 3.74c-0.008-0.041-0.023-0.077-0.034-0.116-0.013-0.045-0.023-0.090-0.041-0.133-0.019-0.045-0.045-0.087-0.069-0.131-0.018-0.033-0.033-0.067-0.054-0.099-0.097-0.147-0.223-0.272-0.369-0.369-0.033-0.023-0.070-0.039-0.105-0.057-0.041-0.022-0.081-0.047-0.125-0.065-0.044-0.019-0.090-0.030-0.136-0.043-0.037-0.011-0.073-0.026-0.112-0.033-0.086-0.017-0.173-0.027-0.261-0.027h-8c-0.736 0-1.333 0.597-1.333 1.333s0.597 1.333 1.333 1.333h4.781l-10.391 10.391c-0.521 0.521-0.521 1.365 0 1.886 0.26 0.26 0.601 0.39 0.943 0.39s0.683-0.13 0.943-0.39l10.391-10.391v4.114c0 0.737 0.597 1.333 1.333 1.333s1.333-0.597 1.333-1.333v-7.333c0-0.087-0.009-0.175-0.027-0.261z"></path>
</svg>
