<?xml version="1.0" encoding="utf-8"?>
<!-- Generated by IcoMoon.io -->
<!DOCTYPE svg PUBLIC "-//W3C//DTD SVG 1.1//EN" "http://www.w3.org/Graphics/SVG/1.1/DTD/svg11.dtd">
<svg version="1.1" xmlns="http://www.w3.org/2000/svg" xmlns:xlink="http://www.w3.org/1999/xlink" width="32" height="32" viewBox="0 0 32 32">
<path fill="#333333" d="M29.695 2.313c-0.521-0.52-1.365-0.52-1.885 0l-25.504 25.505c-0.521 0.52-0.521 1.365 0 1.885 0.261 0.261 0.601 0.391 0.943 0.391s0.682-0.13 0.943-0.391l25.504-25.504c0.521-0.52 0.521-1.365 0-1.885z"></path>
<path fill="#333333" d="M15.999 21.342c2.945 0 5.333-2.388 5.333-5.333 0-0.471-0.067-0.924-0.181-1.359l-6.511 6.511c0.435 0.115 0.888 0.181 1.358 0.181z"></path>
<path fill="#333333" d="M10.666 16.009c0 0.475 0.068 0.931 0.185 1.37l6.519-6.519c-0.437-0.117-0.896-0.185-1.371-0.185-2.945-0.001-5.333 2.389-5.333 5.334z"></path>
<path fill="#333333" d="M6.964 21.265c-1.933-1.885-3.267-3.973-3.963-5.207 1.499-2.683 5.951-9.383 12.999-9.383 1.672 0 3.195 0.377 4.569 0.985l2.003-2.003c-1.904-0.995-4.091-1.649-6.572-1.649-10.667 0-16 12.055-16 12.055s1.691 3.786 5.072 7.095l1.893-1.893z"></path>
<path fill="#333333" d="M26.924 8.877l-1.892 1.893c1.936 1.897 3.271 3.999 3.967 5.239-1.501 2.672-5.952 9.333-13 9.333-1.668 0-3.19-0.375-4.563-0.977l-2.004 2.004c1.902 0.989 4.089 1.639 6.567 1.639 10.667 0 16-12 16-12s-1.691-3.806-5.075-7.131z"></path>
</svg>
