<?xml version="1.0" encoding="utf-8"?>
<!-- Generated by IcoMoon.io -->
<!DOCTYPE svg PUBLIC "-//W3C//DTD SVG 1.1//EN" "http://www.w3.org/Graphics/SVG/1.1/DTD/svg11.dtd">
<svg version="1.1" xmlns="http://www.w3.org/2000/svg" xmlns:xlink="http://www.w3.org/1999/xlink" width="32" height="32" viewBox="0 0 32 32">
<path fill="#333333" d="M29.168 2.831c-1.987-1.986-5.219-1.985-7.205 0l-3.054 3.054c-1.577-0.413-3.327-0.007-4.561 1.227-0.896 0.896-1.39 2.087-1.39 3.354 0 0.764 0.183 1.499 0.522 2.161l-9.58 9.512c-1.313 1.313-1.573 3.283-0.787 4.861l-1.383 1.383c-0.521 0.521-0.521 1.365 0 1.885 0.261 0.261 0.601 0.391 0.943 0.391s0.682-0.13 0.943-0.391l1.383-1.383c0.59 0.294 1.234 0.444 1.88 0.444 1.079 0 2.16-0.411 2.984-1.235l9.509-9.577c0.677 0.345 1.419 0.521 2.161 0.521 1.214 0 2.429-0.463 3.353-1.387 1.214-1.214 1.647-2.949 1.223-4.557l3.058-3.058c1.986-1.986 1.986-5.218 0-7.205zM7.975 26.213c-0.602 0.603-1.585 0.604-2.188 0s-0.603-1.585-0.003-2.185l9.42-9.353 2.121 2.121-9.349 9.417zM27.283 8.151l-3.653 3.653c-0.013 0.013-0.021 0.028-0.034 0.041-0.033 0.035-0.063 0.073-0.091 0.111-0.025 0.033-0.049 0.067-0.071 0.103-0.022 0.037-0.041 0.075-0.059 0.113-0.019 0.040-0.038 0.080-0.053 0.121-0.014 0.039-0.024 0.077-0.035 0.117-0.011 0.043-0.022 0.085-0.029 0.129-0.007 0.041-0.009 0.083-0.012 0.125-0.003 0.043-0.005 0.085-0.003 0.129 0.001 0.042 0.007 0.084 0.012 0.126 0.006 0.045 0.013 0.088 0.023 0.132 0.009 0.039 0.021 0.077 0.034 0.115 0.015 0.047 0.033 0.092 0.053 0.137 0.007 0.016 0.011 0.033 0.019 0.049 0.41 0.804 0.257 1.773-0.383 2.413-0.81 0.811-2.127 0.809-2.937 0l-3.83-3.83c-0.393-0.392-0.609-0.914-0.609-1.469s0.216-1.076 0.609-1.469c0.785-0.785 2.151-0.785 2.937 0l1.118 1.117c0.521 0.521 1.365 0.521 1.885 0s0.521-1.365 0-1.885l-0.919-0.919 2.594-2.594c0.947-0.946 2.487-0.946 3.433 0s0.945 2.487-0.001 3.434z"></path>
</svg>
