<?xml version="1.0" encoding="utf-8"?>
<!-- Generated by IcoMoon.io -->
<!DOCTYPE svg PUBLIC "-//W3C//DTD SVG 1.1//EN" "http://www.w3.org/Graphics/SVG/1.1/DTD/svg11.dtd">
<svg version="1.1" xmlns="http://www.w3.org/2000/svg" xmlns:xlink="http://www.w3.org/1999/xlink" width="32" height="32" viewBox="0 0 32 32">
<path fill="#333333" d="M7.589 29.869c0-1.601 0.020-3.062-0.020-4.522-0.008-0.292-0.154-0.671-0.368-0.859-3.715-3.265-5.37-7.313-4.264-12.181 1.124-4.954 4.407-8.112 9.206-9.485 5.581-1.598 10.612-0.347 14.542 4.002 5.776 6.397 3.386 16.14-4.696 19.656-2.883 1.256-5.875 1.5-8.955 0.862-0.364-0.074-0.826-0.011-1.154 0.159-1.403 0.729-2.771 1.521-4.29 2.368zM14.676 11.646c-2.304 2.442-4.674 4.958-7.044 7.476 0.029 0.035 0.059 0.068 0.086 0.103 2.127-1.173 4.254-2.347 6.26-3.451 1.294 1.177 2.534 2.301 3.807 3.457 2.297-2.434 4.652-4.936 7.010-7.437-0.032-0.038-0.065-0.077-0.097-0.115-2.121 1.168-4.242 2.336-6.214 3.424-1.318-1.197-2.544-2.307-3.807-3.457z"></path>
</svg>
