<?xml version="1.0" encoding="utf-8"?>
<!-- Generated by IcoMoon.io -->
<!DOCTYPE svg PUBLIC "-//W3C//DTD SVG 1.1//EN" "http://www.w3.org/Graphics/SVG/1.1/DTD/svg11.dtd">
<svg version="1.1" xmlns="http://www.w3.org/2000/svg" xmlns:xlink="http://www.w3.org/1999/xlink" width="32" height="32" viewBox="0 0 32 32">
<path fill="#333333" d="M6 11.333c2.573 0 4.667-2.093 4.667-4.667s-2.093-4.667-4.667-4.667-4.667 2.093-4.667 4.667 2.093 4.667 4.667 4.667zM6 4.667c1.103 0 2 0.897 2 2s-0.897 2-2 2-2-0.897-2-2 0.897-2 2-2z"></path>
<path fill="#333333" d="M26 11.333c2.573 0 4.667-2.093 4.667-4.667s-2.093-4.667-4.667-4.667-4.667 2.093-4.667 4.667 2.093 4.667 4.667 4.667zM26 4.667c1.103 0 2 0.897 2 2s-0.897 2-2 2-2-0.897-2-2 0.897-2 2-2z"></path>
<path fill="#333333" d="M20.667 14c0-2.573-2.093-4.667-4.667-4.667s-4.667 2.093-4.667 4.667 2.093 4.667 4.667 4.667 4.667-2.093 4.667-4.667zM16 16c-1.103 0-2-0.897-2-2s0.897-2 2-2 2 0.897 2 2-0.897 2-2 2z"></path>
<path fill="#333333" d="M4.502 13.761l-0.084-0.067c-0.318-0.213-0.699-0.337-1.111-0.337-1.016 0-1.846 0.761-1.974 1.741-0.011 0.085-0.026 0.17-0.026 0.259s0.015 0.173 0.026 0.258v13.719c0 0.736 0.597 1.333 1.333 1.333s1.333-0.597 1.333-1.333v-12.559l7.333 5.867v6.693c0 0.736 0.597 1.333 1.333 1.333s1.333-0.597 1.333-1.333v-7.333c0-0.405-0.184-0.788-0.5-1.041l-8.998-7.198z"></path>
<path fill="#333333" d="M28.667 13.356c-0.378 0-0.728 0.111-1.029 0.293l-9.137 7.309c-0.317 0.253-0.501 0.636-0.501 1.041v7.333c0 0.736 0.597 1.333 1.333 1.333s1.333-0.597 1.333-1.333v-6.693l7.333-5.867v12.559c0 0.736 0.597 1.333 1.333 1.333s1.333-0.597 1.333-1.333v-13.977c0-1.105-0.895-2-2-2z"></path>
</svg>
