<?xml version="1.0" encoding="utf-8"?>
<!-- Generated by IcoMoon.io -->
<!DOCTYPE svg PUBLIC "-//W3C//DTD SVG 1.1//EN" "http://www.w3.org/Graphics/SVG/1.1/DTD/svg11.dtd">
<svg version="1.1" xmlns="http://www.w3.org/2000/svg" xmlns:xlink="http://www.w3.org/1999/xlink" width="32" height="32" viewBox="0 0 32 32">
<path fill="#333333" d="M28.65 6.66c0-0.737-0.597-1.333-1.333-1.333-0.365 0-0.695 0.147-0.936 0.385v0l-0.002 0.001c-0.003 0.003-0.005 0.006-0.009 0.009l-9.256 9.269c-0.282 0.244-0.464 0.601-0.464 1.003 0 0.366 0.149 0.697 0.387 0.938l-0.001 0.001 9.327 9.324c0.242 0.248 0.579 0.403 0.953 0.403 0.737 0 1.333-0.597 1.333-1.333 0-0.364-0.147-0.693-0.383-0.933l0.001-0.001-8.401-8.397 8.385-8.386c0.245-0.242 0.397-0.577 0.397-0.948z"></path>
<path fill="#333333" d="M20.268 24.391l-8.401-8.397 8.385-8.386c0.245-0.242 0.397-0.577 0.397-0.949 0-0.737-0.597-1.333-1.333-1.333-0.365 0-0.695 0.147-0.936 0.385v0l-0.002 0.001c-0.003 0.003-0.005 0.006-0.009 0.009l-9.256 9.269c-0.282 0.244-0.464 0.601-0.464 1.003 0 0.366 0.149 0.697 0.387 0.938l-0.001 0.001 9.327 9.324c0.242 0.248 0.579 0.403 0.953 0.403 0.737 0 1.333-0.597 1.333-1.333 0-0.364-0.147-0.693-0.383-0.933l0.001-0.001z"></path>
<path fill="#333333" d="M5.317 5.327c-0.736 0-1.333 0.597-1.333 1.333v18.667c0 0.736 0.597 1.333 1.333 1.333s1.333-0.597 1.333-1.333v-18.667c0-0.737-0.597-1.333-1.333-1.333z"></path>
</svg>
