<?xml version="1.0" encoding="utf-8"?>
<!-- Generated by IcoMoon.io -->
<!DOCTYPE svg PUBLIC "-//W3C//DTD SVG 1.1//EN" "http://www.w3.org/Graphics/SVG/1.1/DTD/svg11.dtd">
<svg version="1.1" xmlns="http://www.w3.org/2000/svg" xmlns:xlink="http://www.w3.org/1999/xlink" width="32" height="32" viewBox="0 0 32 32">
<path fill="#333333" d="M14.927 16.937c0.001-0.001 0.001-0.001 0.002-0.002l0.003-0.003c0.239-0.241 0.387-0.573 0.387-0.939 0-0.403-0.181-0.759-0.463-1.003l0.003-0.003-9.257-9.263c-0.241-0.245-0.577-0.397-0.949-0.397-0.736 0-1.333 0.597-1.333 1.333 0 0.371 0.153 0.707 0.398 0.948l-0.001 0.001 8.385 8.386-8.391 8.388c0 0-0.001 0.001-0.002 0.002l-0.007 0.007 0.001 0.001c-0.236 0.241-0.383 0.569-0.383 0.934 0 0.736 0.597 1.333 1.333 1.333 0.375 0 0.713-0.157 0.956-0.407l9.32-9.317z"></path>
<path fill="#333333" d="M22.854 14.989l0.003-0.003-9.257-9.263c-0.241-0.245-0.577-0.398-0.949-0.398-0.736 0-1.333 0.597-1.333 1.333 0 0.371 0.153 0.707 0.398 0.948l-0.001 0.001 8.385 8.387-8.391 8.388c0 0-0.001 0.001-0.002 0.002l-0.007 0.007 0.001 0.001c-0.236 0.241-0.383 0.569-0.383 0.934 0 0.736 0.597 1.333 1.333 1.333 0.375 0 0.713-0.157 0.956-0.407l9.32-9.317c0.001-0.001 0.001-0.001 0.002-0.002l0.003-0.003c0.239-0.241 0.387-0.573 0.387-0.939 0-0.403-0.182-0.759-0.464-1.004z"></path>
<path fill="#333333" d="M26.651 5.327c-0.736 0-1.333 0.597-1.333 1.333v18.667c0 0.736 0.597 1.333 1.333 1.333s1.333-0.597 1.333-1.333v-18.667c0-0.737-0.597-1.333-1.333-1.333z"></path>
</svg>
