<?xml version="1.0" encoding="utf-8"?>
<!-- Generated by IcoMoon.io -->
<!DOCTYPE svg PUBLIC "-//W3C//DTD SVG 1.1//EN" "http://www.w3.org/Graphics/SVG/1.1/DTD/svg11.dtd">
<svg version="1.1" xmlns="http://www.w3.org/2000/svg" xmlns:xlink="http://www.w3.org/1999/xlink" width="32" height="32" viewBox="0 0 32 32">
<path fill="#333333" d="M26 20h0.667c0.736 0 1.333-0.597 1.333-1.333s-0.597-1.333-1.333-1.333h-0.667c-0.736 0-1.333 0.597-1.333 1.333s0.597 1.333 1.333 1.333z"></path>
<path fill="#333333" d="M26 25.333h0.667c0.736 0 1.333-0.597 1.333-1.333s-0.597-1.333-1.333-1.333h-0.667c-0.736 0-1.333 0.597-1.333 1.333s0.597 1.333 1.333 1.333z"></path>
<path fill="#333333" d="M4.667 6.667c-2.573 0-4.667 2.093-4.667 4.667v14.667c0 2.573 2.094 4.667 4.667 4.667s4.667-2.093 4.667-4.667v-14.667c0-2.573-2.094-4.667-4.667-4.667zM6.667 26c0 1.103-0.897 2-2 2s-2-0.897-2-2v-14.667c0-1.103 0.897-2 2-2s2 0.897 2 2v14.667z"></path>
<path fill="#333333" d="M16 20h0.667c0.736 0 1.333-0.597 1.333-1.333s-0.597-1.333-1.333-1.333h-0.667c-0.736 0-1.333 0.597-1.333 1.333s0.597 1.333 1.333 1.333z"></path>
<path fill="#333333" d="M21 20h0.667c0.736 0 1.333-0.597 1.333-1.333s-0.597-1.333-1.333-1.333h-0.667c-0.736 0-1.333 0.597-1.333 1.333s0.597 1.333 1.333 1.333z"></path>
<path fill="#333333" d="M16.667 22.667h-0.667c-0.736 0-1.333 0.597-1.333 1.333s0.597 1.333 1.333 1.333h0.667c0.736 0 1.333-0.597 1.333-1.333s-0.597-1.333-1.333-1.333z"></path>
<path fill="#333333" d="M21 25.333h0.667c0.736 0 1.333-0.597 1.333-1.333s-0.597-1.333-1.333-1.333h-0.667c-0.736 0-1.333 0.597-1.333 1.333s0.597 1.333 1.333 1.333z"></path>
<path fill="#333333" d="M28.667 1.333h-10.667c-1.838 0-3.333 1.495-3.333 3.333v3.333h-4v22.667h18c1.838 0 3.333-1.495 3.333-3.333v-22.667c0-1.838-1.495-3.333-3.333-3.333zM29.333 27.333c0 0.367-0.299 0.667-0.667 0.667h-15.333v-17.333h1.333v4h14.667v12.667zM29.333 10v2h-12v-7.333c0-0.367 0.299-0.667 0.667-0.667h10.667c0.368 0 0.667 0.299 0.667 0.667v5.333z"></path>
</svg>
