<?xml version="1.0" encoding="utf-8"?>
<!-- Generated by IcoMoon.io -->
<!DOCTYPE svg PUBLIC "-//W3C//DTD SVG 1.1//EN" "http://www.w3.org/Graphics/SVG/1.1/DTD/svg11.dtd">
<svg version="1.1" xmlns="http://www.w3.org/2000/svg" xmlns:xlink="http://www.w3.org/1999/xlink" width="32" height="32" viewBox="0 0 32 32">
<path fill="#333333" d="M21.333 32h-10.667c-2.206 0-4-1.794-4-4v-12c0-2.206 1.794-4 4-4h10.667c2.206 0 4 1.794 4 4v12c0 2.206-1.794 4-4 4zM10.667 14.667c-0.735 0-1.333 0.598-1.333 1.333v12c0 0.735 0.598 1.333 1.333 1.333h10.667c0.735 0 1.333-0.598 1.333-1.333v-12c0-0.735-0.598-1.333-1.333-1.333h-10.667z"></path>
<path fill="#333333" d="M18 8.667c-0.736 0-1.333-0.597-1.333-1.333v-3.667c0-0.367-0.299-0.667-0.667-0.667s-0.667 0.299-0.667 0.667v3.667c0 0.736-0.597 1.333-1.333 1.333s-1.333-0.597-1.333-1.333v-3.667c0-1.838 1.495-3.333 3.333-3.333s3.333 1.495 3.333 3.333v3.667c0 0.737-0.597 1.333-1.333 1.333z"></path>
<path fill="#333333" d="M22.667 13.333h-2.667v-4h-8v4h-2.667v-4c0-1.471 1.196-2.667 2.667-2.667h8c1.471 0 2.667 1.196 2.667 2.667v4z"></path>
<path fill="#333333" d="M12 20.667h-2.667c-0.736 0-1.333-0.597-1.333-1.333s0.597-1.333 1.333-1.333h2.667c0.736 0 1.333 0.597 1.333 1.333s-0.597 1.333-1.333 1.333z"></path>
<path fill="#333333" d="M12 26h-2.667c-0.736 0-1.333-0.597-1.333-1.333s0.597-1.333 1.333-1.333h2.667c0.736 0 1.333 0.597 1.333 1.333s-0.597 1.333-1.333 1.333z"></path>
</svg>
