<?xml version="1.0" encoding="utf-8"?>
<!-- Generated by IcoMoon.io -->
<!DOCTYPE svg PUBLIC "-//W3C//DTD SVG 1.1//EN" "http://www.w3.org/Graphics/SVG/1.1/DTD/svg11.dtd">
<svg version="1.1" xmlns="http://www.w3.org/2000/svg" xmlns:xlink="http://www.w3.org/1999/xlink" width="32" height="32" viewBox="0 0 32 32">
<path fill="#333333" d="M8.431 19.187c-0.655 0.779-1.807 0.575-2.694 0.436-0.781-0.626-1.496-1.351-2.125-2.126-0.366-0.43 0.1-0.877 0.388-1.178 3.971-3.951 7.922-7.918 11.883-11.875 0.532-0.518 1.014-1.094 1.611-1.539 0.513-0.257 0.911 0.301 1.252 0.595 0.728 0.776 1.554 1.465 2.222 2.297 0.345 0.41-0.032 0.888-0.334 1.183-4.072 4.065-8.145 8.129-12.205 12.207z"></path>
<path fill="#333333" d="M20.914 28.549c-0.632 0.711-1.294 1.409-2.037 2.003-0.68 0.166-1.407 0.127-2.098 0.028-0.664-0.335-1.112-0.981-1.656-1.478-0.385-0.377-0.992-0.942-0.493-1.486 0.84-0.934 1.739-1.827 2.67-2.675 0.346-0.292 0.863-0.148 1.142 0.17 0.796 0.768 1.579 1.55 2.347 2.35 0.303 0.269 0.466 0.776 0.124 1.088z"></path>
<path fill="#333333" d="M20.678 17.885c-2.259 2.258-4.526 4.511-6.771 6.781-0.63 0.772-1.741 0.527-2.606 0.456-0.833-0.537-1.48-1.33-2.151-2.051-0.447-0.423-0.029-0.978 0.316-1.297 2.262-2.253 4.522-4.505 6.771-6.773 0.412-0.399 0.782-0.858 1.279-1.162 0.497-0.213 0.861 0.292 1.192 0.577 0.751 0.806 1.608 1.515 2.293 2.378 0.303 0.387-0.047 0.817-0.323 1.089z"></path>
</svg>
