<?xml version="1.0" encoding="utf-8"?>
<!-- Generated by IcoMoon.io -->
<!DOCTYPE svg PUBLIC "-//W3C//DTD SVG 1.1//EN" "http://www.w3.org/Graphics/SVG/1.1/DTD/svg11.dtd">
<svg version="1.1" xmlns="http://www.w3.org/2000/svg" xmlns:xlink="http://www.w3.org/1999/xlink" width="32" height="32" viewBox="0 0 32 32">
<path fill="#333333" d="M25.341 10.667c0-5.147-4.187-9.333-9.333-9.333s-9.333 4.187-9.333 9.333c0 4.697 3.49 8.583 8.011 9.229-0.003 0.035-0.011 0.069-0.011 0.105v2.667h-3.333c-0.736 0-1.333 0.597-1.333 1.333s0.597 1.333 1.333 1.333h3.333v4c0 0.736 0.597 1.333 1.333 1.333s1.333-0.597 1.333-1.333v-4h3.333c0.736 0 1.333-0.597 1.333-1.333s-0.597-1.333-1.333-1.333h-3.333v-2.667c0-0.036-0.008-0.069-0.011-0.105 4.521-0.646 8.011-4.532 8.011-9.229zM16.007 17.333c-3.676 0-6.667-2.991-6.667-6.667s2.991-6.667 6.667-6.667 6.667 2.991 6.667 6.667-2.991 6.667-6.667 6.667z"></path>
</svg>
