<?xml version="1.0" encoding="utf-8"?>
<!-- Generated by IcoMoon.io -->
<!DOCTYPE svg PUBLIC "-//W3C//DTD SVG 1.1//EN" "http://www.w3.org/Graphics/SVG/1.1/DTD/svg11.dtd">
<svg version="1.1" xmlns="http://www.w3.org/2000/svg" xmlns:xlink="http://www.w3.org/1999/xlink" width="32" height="32" viewBox="0 0 32 32">
<path fill="#333333" d="M22.219 11.67c-0.55-0.489-1.393-0.441-1.882 0.111l-4.337 4.879-4.337-4.879c-0.489-0.551-1.333-0.6-1.882-0.111-0.551 0.489-0.6 1.332-0.111 1.882l4.547 5.115-4.546 5.114c-0.489 0.55-0.44 1.393 0.111 1.882 0.253 0.226 0.57 0.337 0.885 0.337 0.367 0 0.733-0.151 0.997-0.447l4.337-4.879 4.337 4.879c0.263 0.296 0.629 0.447 0.997 0.447 0.315 0 0.631-0.111 0.885-0.337 0.551-0.489 0.6-1.332 0.111-1.882l-4.546-5.115 4.546-5.114c0.489-0.551 0.44-1.393-0.111-1.883z"></path>
<path fill="#333333" d="M26.667 6.676c-0.804-0.607-1.746-1.041-2.773-1.236-0.195-1.027-0.629-1.969-1.235-2.773-1.221-1.617-3.151-2.667-5.325-2.667h-10.667c-2.205 0-4 1.794-4 4v24c0 2.206 1.794 4 4 4h18.667c2.206 0 4-1.794 4-4v-16c0-2.173-1.049-4.103-2.667-5.324zM26.667 28c0 0.736-0.598 1.333-1.333 1.333h-18.667c-0.735 0-1.333-0.597-1.333-1.333v-24c0-0.735 0.598-1.333 1.333-1.333h10.667c2.213 0 4 1.787 4 4v1.333h1.333c2.213 0 4 1.787 4 4v16z"></path>
</svg>
