<?xml version="1.0" encoding="utf-8"?>
<!-- Generated by IcoMoon.io -->
<!DOCTYPE svg PUBLIC "-//W3C//DTD SVG 1.1//EN" "http://www.w3.org/Graphics/SVG/1.1/DTD/svg11.dtd">
<svg version="1.1" xmlns="http://www.w3.org/2000/svg" xmlns:xlink="http://www.w3.org/1999/xlink" width="32" height="32" viewBox="0 0 32 32">
<path fill="#333333" d="M26.667 6.676c-0.804-0.607-1.746-1.041-2.773-1.236-0.195-1.027-0.629-1.969-1.235-2.773-1.221-1.617-3.151-2.667-5.325-2.667h-10.667c-2.206 0-4 1.794-4 4v24c0 2.206 1.794 4 4 4h18.667c2.206 0 4-1.794 4-4v-16c0-2.173-1.050-4.103-2.667-5.324zM26.667 28c0 0.736-0.598 1.333-1.333 1.333h-18.667c-0.735 0-1.333-0.597-1.333-1.333v-24c0-0.735 0.598-1.333 1.333-1.333h10.667c2.213 0 4 1.787 4 4v1.333h1.333c2.213 0 4 1.787 4 4v16z"></path>
<path fill="#333333" d="M23.535 14.815l-4.529-0.692-1.795-3.889c-0.218-0.472-0.691-0.775-1.211-0.775s-0.993 0.303-1.211 0.775l-1.795 3.889-4.529 0.692c-0.512 0.078-0.932 0.445-1.078 0.942s0.009 1.033 0.397 1.375l3.265 2.883-0.897 4.485c-0.104 0.52 0.11 1.053 0.545 1.355 0.435 0.304 1.009 0.319 1.461 0.041l3.841-2.363 3.841 2.363c0.215 0.132 0.457 0.198 0.699 0.198 0.267 0 0.533-0.080 0.762-0.239 0.435-0.303 0.649-0.835 0.545-1.355l-0.897-4.485 3.265-2.883c0.388-0.343 0.543-0.879 0.397-1.375s-0.565-0.864-1.077-0.942zM18.61 18.525c-0.356 0.315-0.518 0.795-0.425 1.261l0.447 2.237-1.933-1.189c-0.215-0.132-0.457-0.198-0.699-0.198s-0.485 0.066-0.699 0.198l-1.933 1.189 0.447-2.237c0.093-0.466-0.069-0.946-0.425-1.261l-1.703-1.503 2.419-0.369c0.443-0.068 0.821-0.353 1.009-0.759l0.883-1.917 0.885 1.917c0.187 0.406 0.567 0.691 1.009 0.759l2.419 0.369-1.703 1.504z"></path>
</svg>
