<?xml version="1.0" encoding="utf-8"?>
<!-- Generated by IcoMoon.io -->
<!DOCTYPE svg PUBLIC "-//W3C//DTD SVG 1.1//EN" "http://www.w3.org/Graphics/SVG/1.1/DTD/svg11.dtd">
<svg version="1.1" xmlns="http://www.w3.org/2000/svg" xmlns:xlink="http://www.w3.org/1999/xlink" width="32" height="32" viewBox="0 0 32 32">
<path fill="#333333" d="M26.667 6.676c-0.804-0.607-1.746-1.041-2.773-1.236-0.195-1.027-0.629-1.969-1.235-2.773-1.221-1.617-3.151-2.667-5.325-2.667h-10.667c-2.206 0-4 1.794-4 4v24c0 2.206 1.794 4 4 4h18.667c2.206 0 4-1.794 4-4v-16c0-2.173-1.050-4.103-2.667-5.324zM26.667 28c0 0.736-0.598 1.333-1.333 1.333h-18.667c-0.735 0-1.333-0.597-1.333-1.333v-24c0-0.735 0.598-1.333 1.333-1.333h10.667c2.213 0 4 1.787 4 4v1.333h1.333c2.213 0 4 1.787 4 4v16z"></path>
<path fill="#333333" d="M10.667 23.333c-0.391 0-0.779-0.171-1.042-0.5l-2.667-3.333c-0.389-0.487-0.389-1.179 0-1.666l2.667-3.333c0.46-0.575 1.299-0.669 1.874-0.208s0.668 1.299 0.208 1.874l-2 2.5 2 2.5c0.46 0.575 0.367 1.414-0.208 1.874-0.245 0.197-0.54 0.293-0.832 0.293z"></path>
<path fill="#333333" d="M21.333 23.333c-0.292 0-0.586-0.095-0.832-0.292-0.575-0.46-0.668-1.299-0.208-1.874l2-2.5-2-2.5c-0.46-0.575-0.367-1.414 0.208-1.874s1.415-0.367 1.874 0.208l2.667 3.333c0.389 0.487 0.389 1.179 0 1.666l-2.667 3.333c-0.264 0.328-0.651 0.499-1.042 0.499z"></path>
<path fill="#333333" d="M14.001 26.667c-0.127 0-0.256-0.018-0.384-0.057-0.705-0.211-1.105-0.955-0.894-1.66l4-13.333c0.211-0.705 0.955-1.105 1.66-0.894s1.105 0.955 0.894 1.66l-4 13.333c-0.173 0.578-0.703 0.951-1.276 0.951z"></path>
</svg>
