<?xml version="1.0" encoding="utf-8"?>
<!-- Generated by IcoMoon.io -->
<!DOCTYPE svg PUBLIC "-//W3C//DTD SVG 1.1//EN" "http://www.w3.org/Graphics/SVG/1.1/DTD/svg11.dtd">
<svg version="1.1" xmlns="http://www.w3.org/2000/svg" xmlns:xlink="http://www.w3.org/1999/xlink" width="32" height="32" viewBox="0 0 32 32">
<path fill="#333333" d="M26.667 6.676c-0.804-0.607-1.746-1.041-2.773-1.236-0.195-1.027-0.629-1.969-1.235-2.773-1.221-1.617-3.151-2.667-5.325-2.667h-10.667c-2.206 0-4 1.794-4 4v24c0 2.206 1.794 4 4 4h18.667c2.206 0 4-1.794 4-4v-16c0-2.173-1.050-4.103-2.667-5.324zM26.667 28c0 0.736-0.598 1.333-1.333 1.333h-18.667c-0.735 0-1.333-0.597-1.333-1.333v-24c0-0.735 0.598-1.333 1.333-1.333h10.667c2.213 0 4 1.787 4 4v1.333h1.333c2.213 0 4 1.787 4 4v16z"></path>
<path fill="#333333" d="M17.708 8.5c-0.354-0.443-0.95-0.613-1.483-0.425-0.535 0.188-0.892 0.692-0.892 1.259v8h-2c-2.573 0-4.667 2.093-4.667 4.667s2.094 4.667 4.667 4.667 4.667-2.093 4.667-4.667v-8.865l2.959 3.699c0.459 0.575 1.3 0.668 1.874 0.208 0.575-0.46 0.669-1.299 0.209-1.874l-5.333-6.667zM13.333 24c-1.103 0-2-0.897-2-2s0.897-2 2-2h2v2c0 1.103-0.897 2-2 2z"></path>
</svg>
