<?xml version="1.0" encoding="utf-8"?>
<!-- Generated by IcoMoon.io -->
<!DOCTYPE svg PUBLIC "-//W3C//DTD SVG 1.1//EN" "http://www.w3.org/Graphics/SVG/1.1/DTD/svg11.dtd">
<svg version="1.1" xmlns="http://www.w3.org/2000/svg" xmlns:xlink="http://www.w3.org/1999/xlink" width="32" height="32" viewBox="0 0 32 32">
<path fill="#333333" d="M26.667 6.676c-0.804-0.607-1.746-1.041-2.773-1.236-0.195-1.027-0.629-1.969-1.235-2.773-1.221-1.617-3.151-2.667-5.325-2.667h-10.667c-2.206 0-4 1.794-4 4v24c0 2.206 1.794 4 4 4h18.667c2.206 0 4-1.794 4-4v-16c0-2.173-1.050-4.103-2.667-5.324zM26.667 28c0 0.736-0.598 1.333-1.333 1.333h-18.667c-0.735 0-1.333-0.597-1.333-1.333v-24c0-0.735 0.598-1.333 1.333-1.333h10.667c2.213 0 4 1.787 4 4v1.333h1.333c2.213 0 4 1.787 4 4v16z"></path>
<path fill="#333333" d="M21.333 16h-4v-4c0-0.736-0.597-1.333-1.333-1.333s-1.333 0.597-1.333 1.333v4h-4c-0.736 0-1.333 0.597-1.333 1.333s0.597 1.333 1.333 1.333h4v4c0 0.736 0.597 1.333 1.333 1.333s1.333-0.597 1.333-1.333v-4h4c0.736 0 1.333-0.597 1.333-1.333s-0.597-1.333-1.333-1.333z"></path>
</svg>
