<?xml version="1.0" encoding="utf-8"?>
<!-- Generated by IcoMoon.io -->
<!DOCTYPE svg PUBLIC "-//W3C//DTD SVG 1.1//EN" "http://www.w3.org/Graphics/SVG/1.1/DTD/svg11.dtd">
<svg version="1.1" xmlns="http://www.w3.org/2000/svg" xmlns:xlink="http://www.w3.org/1999/xlink" width="32" height="32" viewBox="0 0 32 32">
<path fill="#333333" d="M28 1.333c-0.736 0-1.333 0.597-1.333 1.333v1.333h-21.333v-1.333c0-0.736-0.597-1.333-1.333-1.333s-1.333 0.597-1.333 1.333v26.667c0 0.736 0.597 1.333 1.333 1.333s1.333-0.597 1.333-1.333v-1.333h21.333v1.333c0 0.736 0.597 1.333 1.333 1.333s1.333-0.597 1.333-1.333v-26.667c0-0.737-0.597-1.333-1.333-1.333zM5.333 25.333v-18.667h21.333v18.667h-21.333z"></path>
<path fill="#333333" d="M6.667 8.667h2.667v2.667h-2.667v-2.667z"></path>
<path fill="#333333" d="M6.667 14.667h2.667v2.667h-2.667v-2.667z"></path>
<path fill="#333333" d="M6.667 20.667h2.667v2.667h-2.667v-2.667z"></path>
<path fill="#333333" d="M22.667 8.667h2.667v2.667h-2.667v-2.667z"></path>
<path fill="#333333" d="M22.667 14.667h2.667v2.667h-2.667v-2.667z"></path>
<path fill="#333333" d="M22.667 20.667h2.667v2.667h-2.667v-2.667z"></path>
</svg>
