<?xml version="1.0" encoding="utf-8"?>
<!-- Generated by IcoMoon.io -->
<!DOCTYPE svg PUBLIC "-//W3C//DTD SVG 1.1//EN" "http://www.w3.org/Graphics/SVG/1.1/DTD/svg11.dtd">
<svg version="1.1" xmlns="http://www.w3.org/2000/svg" xmlns:xlink="http://www.w3.org/1999/xlink" width="32" height="32" viewBox="0 0 32 32">
<path fill="#333333" d="M21.542 5.461c-1.301-1.419-2.81-3.065-4.545-5.014-0.492-0.553-1.336-0.599-1.881-0.108-0.551 0.489-0.601 1.332-0.112 1.881 1.75 1.962 3.265 3.615 4.573 5.043 5.589 6.097 7.091 7.735 7.091 11.653 0 3.112-1.649 6.364-4.065 8.537 0.038-0.277 0.065-0.545 0.065-0.788 0-1.765-0.691-3.439-1.899-4.661l-4.768-5.34-4.709 5.279c-1.262 1.279-1.958 2.957-1.958 4.722 0 0.232 0.023 0.487 0.060 0.75-2.398-2.227-4.059-5.599-4.059-8.749 0-3.734 1.643-5.484 4.919-8.973 0.458-0.487 0.949-1.015 1.457-1.567l1.963 2.079c0.262 0.295 0.629 0.447 0.996 0.447 0.315 0 0.631-0.112 0.885-0.339 0.551-0.489 0.599-1.333 0.108-1.883-0.249-0.269-2.845-3.104-3.131-3.336 0 0-0.003-0.001-0.004-0.003-0.547-0.422-1.332-0.371-1.802 0.153-0.87 0.975-1.679 1.836-2.418 2.623-3.396 3.619-5.641 6.010-5.641 10.799 0 5.475 3.885 11.291 8.844 13.241 0.161 0.064 0.327 0.093 0.489 0.093 0.531 0 1.034-0.32 1.241-0.847 0.176-0.445 0.074-0.917-0.194-1.275l0.018-0.014c-0.527-0.701-1.065-2.315-1.065-3.198 0-1.061 0.422-2.073 1.235-2.898l2.765-3.099 2.824 3.16c0.758 0.769 1.176 1.776 1.176 2.837 0 0.883-0.538 2.497-1.065 3.198l0.018 0.014c-0.268 0.358-0.37 0.829-0.195 1.276 0.209 0.525 0.711 0.845 1.243 0.845 0.163 0 0.328-0.029 0.488-0.093 5.043-1.983 8.845-7.567 8.845-12.991 0-4.957-2.121-7.271-7.791-13.455z"></path>
</svg>
