<?xml version="1.0" encoding="utf-8"?>
<!-- Generated by IcoMoon.io -->
<!DOCTYPE svg PUBLIC "-//W3C//DTD SVG 1.1//EN" "http://www.w3.org/Graphics/SVG/1.1/DTD/svg11.dtd">
<svg version="1.1" xmlns="http://www.w3.org/2000/svg" xmlns:xlink="http://www.w3.org/1999/xlink" width="32" height="32" viewBox="0 0 32 32">
<path fill="#333333" d="M27.263 10.807l-18.667-9.333c-0.012-0.006-0.025-0.009-0.037-0.014-0.043-0.020-0.089-0.035-0.135-0.051-0.040-0.013-0.079-0.028-0.12-0.037s-0.081-0.014-0.121-0.020c-0.049-0.007-0.096-0.013-0.145-0.015-0.013 0-0.026-0.003-0.039-0.003-0.027 0-0.052 0.007-0.079 0.008-0.048 0.003-0.095 0.007-0.142 0.014-0.043 0.007-0.083 0.017-0.125 0.029s-0.082 0.023-0.122 0.038c-0.041 0.015-0.081 0.033-0.119 0.053s-0.076 0.039-0.112 0.061c-0.035 0.022-0.069 0.046-0.103 0.071-0.035 0.027-0.070 0.055-0.103 0.085-0.031 0.029-0.059 0.059-0.086 0.090-0.029 0.033-0.057 0.065-0.083 0.101-0.027 0.037-0.051 0.077-0.075 0.117-0.014 0.024-0.031 0.044-0.043 0.069-0.006 0.013-0.009 0.025-0.015 0.038-0.020 0.043-0.035 0.088-0.051 0.133-0.013 0.040-0.028 0.080-0.037 0.121-0.009 0.039-0.014 0.080-0.020 0.121-0.007 0.049-0.013 0.097-0.015 0.145-0.001 0.014-0.004 0.027-0.004 0.040v28c0 0.736 0.597 1.333 1.333 1.333s1.333-0.597 1.333-1.333v-8.509l17.93-8.965c0.451-0.226 0.737-0.687 0.737-1.193s-0.285-0.967-0.737-1.193zM9.333 19.176v-14.352l14.352 7.176-14.352 7.176z"></path>
</svg>
