<?xml version="1.0" encoding="utf-8"?>
<!-- Generated by IcoMoon.io -->
<!DOCTYPE svg PUBLIC "-//W3C//DTD SVG 1.1//EN" "http://www.w3.org/Graphics/SVG/1.1/DTD/svg11.dtd">
<svg version="1.1" xmlns="http://www.w3.org/2000/svg" xmlns:xlink="http://www.w3.org/1999/xlink" width="32" height="32" viewBox="0 0 32 32">
<path fill="#333333" d="M30.397 11.46c0.024-0.033 0.052-0.063 0.073-0.097 0.023-0.038 0.039-0.079 0.059-0.119 0.017-0.037 0.039-0.072 0.053-0.11 0.015-0.040 0.023-0.083 0.034-0.125s0.025-0.083 0.032-0.125c0.006-0.035 0.005-0.071 0.008-0.107 0.005-0.053 0.010-0.105 0.008-0.157 0-0.006 0.001-0.012 0.001-0.018-0.001-0.032-0.010-0.061-0.014-0.092-0.006-0.050-0.011-0.1-0.023-0.15-0.011-0.046-0.027-0.089-0.043-0.132-0.013-0.037-0.024-0.075-0.041-0.113-0.024-0.052-0.054-0.1-0.084-0.148-0.014-0.022-0.023-0.047-0.039-0.068-0.004-0.005-0.009-0.010-0.012-0.015-0.009-0.013-0.019-0.025-0.029-0.037-2.319-3.215-7.619-4.154-11.868-3.656-7.605 0.897-10.996-2.427-11.844-3.448v-1.403c0-0.736-0.597-1.333-1.333-1.333s-1.333 0.597-1.333 1.333v29.327c0 0.736 0.597 1.333 1.333 1.333s1.333-0.597 1.333-1.333v-9.016c0.941 0.251 2.171 0.475 3.566 0.475 2.912 0 6.543-0.974 9.768-4.703 0.047-0.052 4.805-5.195 9.399-5.423 0.107-0.005 0.209-0.026 0.307-0.055 0.022-0.007 0.043-0.016 0.064-0.023 0.108-0.038 0.21-0.087 0.303-0.15 0.009-0.006 0.020-0.008 0.029-0.014 0.005-0.003 0.008-0.007 0.013-0.011 0.045-0.032 0.083-0.070 0.124-0.107 0.025-0.023 0.053-0.044 0.075-0.069 0.031-0.034 0.055-0.073 0.083-0.109zM18.009 15.649c-4.367 5.049-9.465 3.901-11.341 3.235v-12.583c2.227 1.585 6.1 3.249 12.156 2.537 2.525-0.297 5.508 0.026 7.563 1.083-4.493 1.526-8.173 5.504-8.377 5.729z"></path>
</svg>
