<?xml version="1.0" encoding="utf-8"?>
<!-- Generated by IcoMoon.io -->
<!DOCTYPE svg PUBLIC "-//W3C//DTD SVG 1.1//EN" "http://www.w3.org/Graphics/SVG/1.1/DTD/svg11.dtd">
<svg version="1.1" xmlns="http://www.w3.org/2000/svg" xmlns:xlink="http://www.w3.org/1999/xlink" width="32" height="32" viewBox="0 0 32 32">
<path fill="#333333" d="M29.628 7.525c-1.089-1.396-2.707-2.229-4.326-2.229-1.008 0-2.003 0.306-2.958 0.911-0.021 0.014-0.043 0.028-0.063 0.043l-3.086 2.209-8.367-3.968c-0.576-0.307-1.25-0.475-1.902-0.475-0.989 0-1.889 0.383-2.535 1.077-1.355 1.457-1.386 3.345-0.083 5.051 0.017 0.022 0.035 0.043 0.053 0.065l3.722 4.285-1.663 1.331-2.628-0.961c-1.245-0.456-2.645-0.108-3.585 0.889-0.657 0.697-0.986 1.791-0.837 2.785 0.147 0.987 0.731 1.823 1.645 2.357l3.596 2.323c0.216 0.139 0.467 0.213 0.723 0.213h4c0.206 0 0.409-0.048 0.594-0.139l15.961-7.942c1.409-0.785 2.355-2.059 2.665-3.588 0.303-1.494-0.051-3.117-0.925-4.235zM27.939 11.231c-0.108 0.533-0.43 1.276-1.294 1.759l-15.625 7.773h-3.293l-3.293-2.127c-0.021-0.013-0.042-0.026-0.063-0.038-0.287-0.164-0.345-0.329-0.364-0.455-0.035-0.237 0.071-0.488 0.141-0.562 0.143-0.152 0.423-0.326 0.729-0.214l3.333 1.219c0.439 0.16 0.927 0.080 1.291-0.211l3.333-2.667c0.283-0.227 0.462-0.559 0.495-0.921s-0.083-0.721-0.321-0.995l-4.603-5.299c-0.631-0.843-0.376-1.245-0.060-1.585 0.052-0.055 0.209-0.225 0.582-0.225 0.221 0 0.467 0.063 0.659 0.168 0.023 0.013 0.045 0.024 0.069 0.035l9.107 4.319c0.437 0.208 0.953 0.161 1.347-0.121l3.691-2.643c0.511-0.317 1.016-0.478 1.501-0.478 0.947 0 1.77 0.621 2.223 1.203 0.401 0.512 0.563 1.323 0.413 2.063z"></path>
<path fill="#333333" d="M18.667 25.333h-14.667c-0.736 0-1.333 0.597-1.333 1.333s0.597 1.333 1.333 1.333h14.667c0.736 0 1.333-0.597 1.333-1.333s-0.597-1.333-1.333-1.333z"></path>
</svg>
