<?xml version="1.0" encoding="utf-8"?>
<!-- Generated by IcoMoon.io -->
<!DOCTYPE svg PUBLIC "-//W3C//DTD SVG 1.1//EN" "http://www.w3.org/Graphics/SVG/1.1/DTD/svg11.dtd">
<svg version="1.1" xmlns="http://www.w3.org/2000/svg" xmlns:xlink="http://www.w3.org/1999/xlink" width="32" height="32" viewBox="0 0 32 32">
<path fill="#333333" d="M28.667 2c-6.605 0-10.723 3.831-12.667 8.111-1.944-4.281-6.062-8.111-12.667-8.111h-1.333v1.333c0 9.51 7.925 13.291 12.667 13.907v0.093h2.667v-0.093c4.742-0.616 12.667-4.397 12.667-13.907v-1.333h-1.333zM4.743 4.741c6.093 0.663 9.211 5.589 9.814 9.777-3.395-0.621-9.087-3.297-9.814-9.777zM17.443 14.519c0.603-4.188 3.721-9.115 9.814-9.777-0.727 6.481-6.419 9.156-9.814 9.777z"></path>
<path fill="#333333" d="M6 20c0 3.689 2.090 10.667 10 10.667s10-6.977 10-10.667v-1.333h-20v1.333zM23.209 21.333c-0.361 2.283-1.762 6.667-7.209 6.667s-6.848-4.385-7.209-6.667h14.417z"></path>
</svg>
