<?xml version="1.0" encoding="utf-8"?>
<!-- Generated by IcoMoon.io -->
<!DOCTYPE svg PUBLIC "-//W3C//DTD SVG 1.1//EN" "http://www.w3.org/Graphics/SVG/1.1/DTD/svg11.dtd">
<svg version="1.1" xmlns="http://www.w3.org/2000/svg" xmlns:xlink="http://www.w3.org/1999/xlink" width="32" height="32" viewBox="0 0 32 32">
<path fill="#333333" d="M30.693 12.012c-0.969-2.983-3.726-4.987-6.861-4.987-0.258 0-0.515 0.014-0.771 0.041-0.687-3.268-3.592-5.73-7.061-5.73s-6.375 2.462-7.061 5.73c-0.256-0.028-0.513-0.041-0.771-0.041-3.135 0-5.891 2.004-6.86 4.987-0.596 1.833-0.442 3.788 0.433 5.505 0.646 1.267 1.627 2.293 2.832 2.983-0.57 1.267-0.761 2.673-0.539 4.077 0.301 1.903 1.326 3.575 2.885 4.708 1.241 0.902 2.706 1.379 4.236 1.379 1.802 0 3.529-0.679 4.845-1.867 1.315 1.187 3.042 1.867 4.845 1.867 0 0 0 0 0.001 0 1.529 0 2.995-0.477 4.235-1.378 1.559-1.133 2.584-2.805 2.885-4.709 0.223-1.405 0.031-2.811-0.539-4.079 2.896-1.663 4.339-5.187 3.267-8.486zM25.247 18.564l-0.122 0.033c-0.421 0.125-0.753 0.45-0.889 0.868s-0.055 0.876 0.213 1.224c0.012 0.015 0.059 0.071 0.071 0.086 0.714 0.983 1.003 2.185 0.813 3.385s-0.836 2.254-1.819 2.969c-0.782 0.569-1.705 0.869-2.667 0.869 0 0 0 0 0 0-1.454 0-2.831-0.701-3.681-1.871-0.010-0.016-0.055-0.085-0.066-0.101-0.249-0.362-0.659-0.578-1.099-0.578s-0.85 0.216-1.099 0.578l-0.061 0.097c-0.853 1.175-2.231 1.875-3.685 1.875-0.963 0-1.886-0.301-2.668-0.869-0.983-0.714-1.629-1.768-1.819-2.968s0.099-2.402 0.803-3.371c0.031-0.037 0.061-0.073 0.089-0.111 0.263-0.348 0.338-0.803 0.203-1.217s-0.465-0.736-0.883-0.862c-0.021-0.006-0.096-0.025-0.117-0.031-1.155-0.375-2.096-1.179-2.647-2.261s-0.649-2.315-0.273-3.471c0.611-1.881 2.348-3.144 4.324-3.144 0.475 0 0.949 0.075 1.399 0.222 0.042 0.017 0.084 0.033 0.127 0.048 0.413 0.141 0.87 0.072 1.221-0.187s0.555-0.673 0.543-1.11c-0.001-0.021-0.006-0.093-0.007-0.114 0-2.508 2.041-4.548 4.548-4.548s4.548 2.041 4.547 4.544c-0.001 0.018-0.005 0.1-0.006 0.118-0.011 0.437 0.193 0.853 0.546 1.111s0.812 0.327 1.224 0.183l0.114-0.044c0.458-0.149 0.931-0.224 1.407-0.224 1.975 0 3.713 1.263 4.325 3.144 0.775 2.385-0.534 4.956-2.91 5.728z"></path>
<path fill="#333333" d="M16 10.667c-2.941 0-5.333 2.393-5.333 5.333s2.393 5.333 5.333 5.333 5.333-2.393 5.333-5.333-2.393-5.333-5.333-5.333zM16 18.667c-1.471 0-2.667-1.196-2.667-2.667s1.196-2.667 2.667-2.667 2.667 1.196 2.667 2.667-1.196 2.667-2.667 2.667z"></path>
</svg>
