<?xml version="1.0" encoding="utf-8"?>
<!-- Generated by IcoMoon.io -->
<!DOCTYPE svg PUBLIC "-//W3C//DTD SVG 1.1//EN" "http://www.w3.org/Graphics/SVG/1.1/DTD/svg11.dtd">
<svg version="1.1" xmlns="http://www.w3.org/2000/svg" xmlns:xlink="http://www.w3.org/1999/xlink" width="32" height="32" viewBox="0 0 32 32">
<path fill="#333333" d="M30 25.333h-19.333c-0.641 0-1.333-0.51-1.333-1.333s0.692-1.333 1.333-1.333h14c2.206 0 4-1.794 4-4s-1.794-4-4-4h-17.333c-0.644 0-1.333-0.536-1.333-1.333 0-0.823 0.692-1.333 1.333-1.333h14.667c2.206 0 4-1.794 4-4s-1.794-4-4-4h-20c-0.737 0-1.333 0.597-1.333 1.333s0.597 1.333 1.333 1.333h20c0.641 0 1.333 0.51 1.333 1.333s-0.692 1.333-1.333 1.333h-14.667c-2.206 0-4 1.794-4 4s1.794 4 4 4h17.333c0.641 0 1.333 0.51 1.333 1.333s-0.692 1.333-1.333 1.333h-14c-2.206 0-4 1.794-4 4s1.794 4 4 4h19.333c0.736 0 1.333-0.597 1.333-1.333s-0.597-1.333-1.333-1.333z"></path>
</svg>
