<?xml version="1.0" encoding="utf-8"?>
<!-- Generated by IcoMoon.io -->
<!DOCTYPE svg PUBLIC "-//W3C//DTD SVG 1.1//EN" "http://www.w3.org/Graphics/SVG/1.1/DTD/svg11.dtd">
<svg version="1.1" xmlns="http://www.w3.org/2000/svg" xmlns:xlink="http://www.w3.org/1999/xlink" width="32" height="32" viewBox="0 0 32 32">
<path fill="#333333" d="M22.27 21.744c-0.521-0.521-1.365-0.521-1.885 0l-3.048 3.048v-10.125c0-0.736-0.597-1.333-1.333-1.333s-1.333 0.597-1.333 1.333v10.103l-3.057-3.057c-0.521-0.521-1.365-0.521-1.885 0s-0.521 1.365 0 1.885l5.345 5.345c0.26 0.26 0.601 0.39 0.943 0.39s0.682-0.13 0.943-0.391l5.313-5.313c0.521-0.52 0.521-1.365-0.001-1.885z"></path>
<path fill="#333333" d="M28 7.333h-11.448l-2.943-2.943c-0.25-0.25-0.589-0.391-0.943-0.391h-8.667c-2.206 0-4 1.794-4 4v17.333c0 2.206 1.794 4 4 4h5.333c0.736 0 1.333-0.597 1.333-1.333s-0.597-1.333-1.333-1.333h-5.333c-0.735 0-1.333-0.598-1.333-1.333v-17.333c0-0.735 0.598-1.333 1.333-1.333h8.115l2.943 2.943c0.25 0.25 0.589 0.391 0.943 0.391h12c0.735 0 1.333 0.598 1.333 1.333v14c0 0.735-0.598 1.333-1.333 1.333h-5.333c-0.736 0-1.333 0.597-1.333 1.333s0.597 1.333 1.333 1.333h5.333c2.206 0 4-1.794 4-4v-14c0-2.206-1.794-4-4-4z"></path>
</svg>
