<?xml version="1.0" encoding="utf-8"?>
<!-- Generated by IcoMoon.io -->
<!DOCTYPE svg PUBLIC "-//W3C//DTD SVG 1.1//EN" "http://www.w3.org/Graphics/SVG/1.1/DTD/svg11.dtd">
<svg version="1.1" xmlns="http://www.w3.org/2000/svg" xmlns:xlink="http://www.w3.org/1999/xlink" width="32" height="32" viewBox="0 0 32 32">
<path fill="#333333" d="M28 7.333h-11.447l-2.943-2.943c-0.25-0.25-0.589-0.391-0.943-0.391h-8.667c-2.206 0-4 1.794-4 4v17.333c0 2.206 1.794 4 4 4h24c2.206 0 4-1.794 4-4v-14c0-2.206-1.794-4-4-4zM29.333 25.333c0 0.735-0.598 1.333-1.333 1.333h-24c-0.735 0-1.333-0.598-1.333-1.333v-8h3.333v-2.667h-3.333v-6.667c0-0.735 0.598-1.333 1.333-1.333h8.114l2.943 2.943c0.25 0.25 0.589 0.391 0.943 0.391h12c0.735 0 1.333 0.598 1.333 1.333v14z"></path>
<path fill="#333333" d="M7.333 14.667h4v2.667h-4v-2.667z"></path>
<path fill="#333333" d="M19.333 12c-2.349 0-5.549 2.465-6.167 2.959-0.316 0.253-0.5 0.637-0.5 1.041s0.184 0.788 0.5 1.041c0.618 0.494 3.818 2.959 6.167 2.959 2.206 0 4-1.794 4-4s-1.794-4-4-4zM19.333 17.333c-0.705 0-1.931-0.624-3.036-1.332 1.102-0.704 2.339-1.335 3.036-1.335 0.735 0 1.333 0.598 1.333 1.333s-0.598 1.333-1.333 1.333z"></path>
</svg>
