<?xml version="1.0" encoding="utf-8"?>
<!-- Generated by IcoMoon.io -->
<!DOCTYPE svg PUBLIC "-//W3C//DTD SVG 1.1//EN" "http://www.w3.org/Graphics/SVG/1.1/DTD/svg11.dtd">
<svg version="1.1" xmlns="http://www.w3.org/2000/svg" xmlns:xlink="http://www.w3.org/1999/xlink" width="32" height="32" viewBox="0 0 32 32">
<path fill="#333333" d="M31.739 12.541c-0.251-0.341-0.649-0.541-1.073-0.541h-2.667c-0.025 0-0.049 0.001-0.073 0.002h-21.261c-0.589 0-1.108 0.386-1.277 0.95l-2.722 9.074v-14.025c0-0.735 0.598-1.333 1.333-1.333h5.447l2.943 2.943c0.249 0.25 0.589 0.391 0.942 0.391h12c0.736 0 1.333-0.597 1.333-1.333s-0.597-1.333-1.333-1.333h-11.447l-2.943-2.943c-0.25-0.25-0.589-0.391-0.943-0.391h-6c-2.206 0-4 1.794-4 4v17.333c0 2.206 1.794 4 4 4h22c0.030 0 0.059-0.007 0.088-0.009 0.021 0.001 0.041 0.009 0.061 0.009 0.57 0 1.097-0.368 1.274-0.941l4.518-14.667c0.125-0.405 0.049-0.844-0.202-1.184zM25.165 26.667h-21.106l3.6-11.999h20.342c0.025 0 0.049-0.001 0.073-0.002h0.788l-3.697 12.001z"></path>
</svg>
