<?xml version="1.0" encoding="utf-8"?>
<!-- Generated by IcoMoon.io -->
<!DOCTYPE svg PUBLIC "-//W3C//DTD SVG 1.1//EN" "http://www.w3.org/Graphics/SVG/1.1/DTD/svg11.dtd">
<svg version="1.1" xmlns="http://www.w3.org/2000/svg" xmlns:xlink="http://www.w3.org/1999/xlink" width="32" height="32" viewBox="0 0 32 32">
<path fill="#333333" d="M28 29.333h-24c-2.2 0-4-1.8-4-4v-17.333c0-2.2 1.8-4 4-4h8.667c0.333 0 0.667 0.133 0.933 0.4l2.933 2.933h11.467c2.2 0 4 1.8 4 4v14c0 2.2-1.8 4-4 4zM4 6.667c-0.733 0-1.333 0.6-1.333 1.333v17.333c0 0.733 0.6 1.333 1.333 1.333h24c0.733 0 1.333-0.6 1.333-1.333v-14c0-0.733-0.6-1.333-1.333-1.333h-12c-0.333 0-0.667-0.133-0.933-0.4l-2.933-2.933h-8.133z"></path>
<path fill="#333333" d="M21 17.333h-3.667v-3.667c0-0.733-0.6-1.333-1.333-1.333s-1.333 0.6-1.333 1.333v3.667h-3.667c-0.733 0-1.333 0.6-1.333 1.333s0.6 1.333 1.333 1.333h3.667v3.667c0 0.733 0.6 1.333 1.333 1.333s1.333-0.6 1.333-1.333v-3.667h3.667c0.733 0 1.333-0.6 1.333-1.333s-0.6-1.333-1.333-1.333z"></path>
</svg>
