<?xml version="1.0" encoding="utf-8"?>
<!-- Generated by IcoMoon.io -->
<!DOCTYPE svg PUBLIC "-//W3C//DTD SVG 1.1//EN" "http://www.w3.org/Graphics/SVG/1.1/DTD/svg11.dtd">
<svg version="1.1" xmlns="http://www.w3.org/2000/svg" xmlns:xlink="http://www.w3.org/1999/xlink" width="32" height="32" viewBox="0 0 32 32">
<path fill="#333333" d="M28 14c-0.736 0-1.333 0.597-1.333 1.333v12c0 0.368-0.299 0.667-0.667 0.667h-20c-0.368 0-0.667-0.299-0.667-0.667v-20c0-0.368 0.299-0.667 0.667-0.667h2.667c0 1.471 1.196 2.667 2.667 2.667h9.333c1.471 0 2.667-1.196 2.667-2.667v-2.667c0-1.471-1.196-2.667-2.667-2.667h-9.333c-1.471 0-2.667 1.196-2.667 2.667h-2.667c-1.838 0-3.333 1.495-3.333 3.333v20c0 1.838 1.495 3.333 3.333 3.333h20c1.838 0 3.333-1.495 3.333-3.333v-12c0-0.736-0.597-1.333-1.333-1.333zM20.667 4.667v0l0.001 1.333h-0.001c0 0.368-0.299 0.667-0.667 0.667h-8c-0.368 0-0.667-0.299-0.667-0.667v-1.333c0-0.368 0.299-0.667 0.667-0.667h8c0.368 0 0.667 0.299 0.667 0.667z"></path>
<path fill="#333333" d="M30.214 5.666c-0.553-0.487-1.397-0.432-1.881 0.12l-13.583 15.435-5.016-6.688c-0.441-0.589-1.275-0.709-1.867-0.267-0.589 0.442-0.709 1.278-0.266 1.867l6 8c0.241 0.321 0.613 0.517 1.014 0.533 0.017 0.001 0.035 0.001 0.052 0.001 0.382 0 0.747-0.164 1.001-0.453l14.667-16.667c0.487-0.553 0.433-1.395-0.12-1.881z"></path>
</svg>
