<?xml version="1.0" encoding="utf-8"?>
<!-- Generated by IcoMoon.io -->
<!DOCTYPE svg PUBLIC "-//W3C//DTD SVG 1.1//EN" "http://www.w3.org/Graphics/SVG/1.1/DTD/svg11.dtd">
<svg version="1.1" xmlns="http://www.w3.org/2000/svg" xmlns:xlink="http://www.w3.org/1999/xlink" width="32" height="32" viewBox="0 0 32 32">
<path fill="#333333" d="M26 4h-2.667c0-1.471-1.196-2.667-2.667-2.667h-9.333c-1.471 0-2.667 1.196-2.667 2.667h-2.667c-1.838 0-3.333 1.495-3.333 3.333v20c0 1.838 1.495 3.333 3.333 3.333h20c1.838 0 3.333-1.495 3.333-3.333v-20c0-1.838-1.495-3.333-3.333-3.333zM20.667 4.667v0l0.001 1.333h-0.001c0 0.368-0.299 0.667-0.667 0.667h-8c-0.368 0-0.667-0.299-0.667-0.667v-1.333c0-0.368 0.299-0.667 0.667-0.667h8c0.368 0 0.667 0.299 0.667 0.667zM26.667 27.333c0 0.368-0.299 0.667-0.667 0.667h-20c-0.368 0-0.667-0.299-0.667-0.667v-20c0-0.368 0.299-0.667 0.667-0.667h2.667c0 1.471 1.196 2.667 2.667 2.667h9.333c1.471 0 2.667-1.196 2.667-2.667h2.667c0.368 0 0.667 0.299 0.667 0.667v20z"></path>
<path fill="#333333" d="M21.674 12.443l-7.789 8.684-3.44-5.197c-0.406-0.614-1.236-0.783-1.847-0.376-0.615 0.407-0.783 1.234-0.376 1.848l4.393 6.635c0.228 0.344 0.603 0.563 1.014 0.594 0.033 0.003 0.065 0.003 0.097 0.003 0.377 0 0.739-0.16 0.993-0.443l8.941-9.969c0.491-0.549 0.445-1.391-0.103-1.883s-1.391-0.446-1.883 0.103z"></path>
</svg>
