<?xml version="1.0" encoding="utf-8"?>
<!-- Generated by IcoMoon.io -->
<!DOCTYPE svg PUBLIC "-//W3C//DTD SVG 1.1//EN" "http://www.w3.org/Graphics/SVG/1.1/DTD/svg11.dtd">
<svg version="1.1" xmlns="http://www.w3.org/2000/svg" xmlns:xlink="http://www.w3.org/1999/xlink" width="32" height="32" viewBox="0 0 32 32">
<path fill="#333333" d="M28.781 14.931l0.003-0.004-14.69-10.679c-0.219-0.158-0.486-0.253-0.776-0.253-0.736 0-1.333 0.597-1.333 1.333v4.146l-5.718-5.082c-0.001-0.001-0.001-0.001-0.001-0.001-0.242-0.245-0.577-0.396-0.947-0.396-0.736 0-1.333 0.597-1.333 1.333v21.333c0 0.736 0.597 1.333 1.333 1.333 0.307 0 0.586-0.108 0.811-0.282l0.004 0.003 0.094-0.083 0.042-0.037 5.716-5.083v4.148c0 0.736 0.597 1.333 1.333 1.333 0.272 0 0.525-0.083 0.736-0.223v0.001l0.003-0.002 0.021-0.015 14.706-10.699c0.323-0.243 0.534-0.626 0.534-1.062s-0.213-0.821-0.537-1.063zM14.651 24.045v-4.497c0-0.736-0.597-1.333-1.333-1.333-0.359 0-0.683 0.144-0.923 0.375l-0.023 0.020-5.72 5.083v-15.4l5.723 5.087c0.003 0.003 0.007 0.006 0.011 0.010 0.241 0.236 0.57 0.383 0.933 0.383 0.737 0 1.333-0.597 1.333-1.333v-4.496l11.068 8.049-11.068 8.052z"></path>
</svg>
