<?xml version="1.0" encoding="utf-8"?>
<!-- Generated by IcoMoon.io -->
<!DOCTYPE svg PUBLIC "-//W3C//DTD SVG 1.1//EN" "http://www.w3.org/Graphics/SVG/1.1/DTD/svg11.dtd">
<svg version="1.1" xmlns="http://www.w3.org/2000/svg" xmlns:xlink="http://www.w3.org/1999/xlink" width="32" height="32" viewBox="0 0 32 32">
<path fill="#333333" d="M17.276 23.639l-0.12 0.079c-0.137 0.087-0.633 0.371-1.305 0.371-0.639 0-1.228-0.249-1.695-0.717l-6.32-6.261-0.060-0.081c-0.548-0.739-0.681-1.909 0.128-2.719l1.983-1.98 0.027-0.024c0.145-0.132 0.683-0.559 1.456-0.559 0.563 0 1.084 0.223 1.509 0.647l2.953 2.911 6.296-6.296-4.181-4.183c-1.080-1.079-2.825-1.079-3.905 0l-9.235 9.235c-1.079 1.077-1.079 2.825 0 3.903l9.235 9.235c1.080 1.079 2.825 1.079 3.905 0l9.235-9.235c1.077-1.077 1.077-2.825 0-3.903l-0.139-0.137-9.767 9.716z"></path>
<path fill="#333333" d="M27.848 10.287l-1.968-1.969c-0.033-0.035-0.071-0.063-0.104-0.091-0.008-0.005-0.016-0.013-0.024-0.019-0.032-0.025-0.067-0.047-0.099-0.065-0.004-0.001-0.007-0.003-0.013-0.005-0.028-0.016-0.057-0.029-0.087-0.041-0.008-0.003-0.015-0.005-0.021-0.008-0.032-0.012-0.064-0.020-0.095-0.027-0.005-0.001-0.011-0.003-0.016-0.003-0.027-0.004-0.053-0.008-0.080-0.008-0.007 0-0.012 0-0.017 0-0.012 0-0.023 0-0.033 0-0.031 0.003-0.061 0.005-0.091 0.011-0.011 0.001-0.023 0.003-0.032 0.007-0.031 0.007-0.061 0.015-0.088 0.025-0.005 0.001-0.011 0.004-0.019 0.005-0.031 0.012-0.064 0.027-0.093 0.041-0.008 0.004-0.015 0.008-0.023 0.013-0.021 0.012-0.043 0.025-0.063 0.039-0.008 0.004-0.013 0.009-0.023 0.013-0.020 0.016-0.040 0.029-0.059 0.044-0.001 0.001-0.004 0.003-0.005 0.004-0.019 0.016-0.035 0.029-0.051 0.044-0.003 0.003-0.008 0.007-0.011 0.011-0.008 0.008-0.017 0.017-0.024 0.023-0.001 0.001-0.004 0.004-0.007 0.005-0.003 0.005-0.008 0.009-0.008 0.009l-8.863 8.861-3.908-3.853c-0.028-0.032-0.060-0.057-0.089-0.081-0.009-0.008-0.017-0.013-0.025-0.019-0.027-0.020-0.052-0.037-0.076-0.052-0.005-0.003-0.011-0.007-0.016-0.009-0.031-0.017-0.063-0.032-0.091-0.044-0.008-0.003-0.015-0.005-0.021-0.007-0.024-0.009-0.049-0.016-0.072-0.023-0.007-0.001-0.013-0.003-0.023-0.005-0.027-0.007-0.053-0.011-0.083-0.013-0.007 0-0.011 0-0.015 0-0.023-0.001-0.040-0.001-0.060-0.001-0.031 0-0.060 0.001-0.089 0.007-0.005 0.001-0.011 0.001-0.015 0.001-0.032 0.005-0.064 0.015-0.095 0.023-0.009 0.003-0.017 0.005-0.024 0.008-0.023 0.007-0.044 0.015-0.065 0.023-0.008 0.004-0.017 0.007-0.025 0.011-0.019 0.011-0.039 0.019-0.057 0.028-0.004 0.003-0.011 0.005-0.012 0.008-0.024 0.012-0.045 0.024-0.064 0.036-0.003 0.001-0.005 0.003-0.008 0.005-0.013 0.009-0.028 0.017-0.037 0.027-0.003 0.003-0.008 0.005-0.012 0.008-0.008 0.005-0.016 0.012-0.020 0.016-0.001 0.001-0.004 0.004-0.005 0.005-0.005 0.003-0.011 0.007-0.011 0.007s-1.545 1.547-1.955 1.955c-0.408 0.408 0 0.956 0 0.956l6.245 6.188c0.035 0.036 0.072 0.068 0.108 0.097 0.012 0.008 0.024 0.016 0.033 0.025 0.025 0.019 0.051 0.036 0.077 0.051 0.012 0.009 0.025 0.016 0.037 0.024 0.025 0.015 0.049 0.027 0.073 0.037 0.012 0.007 0.025 0.012 0.036 0.017 0.028 0.012 0.057 0.021 0.084 0.029 0.008 0.003 0.015 0.005 0.021 0.007 0.036 0.011 0.072 0.019 0.104 0.025 0.008 0.001 0.019 0.001 0.027 0.003 0.027 0.004 0.052 0.007 0.077 0.008 0.012 0.001 0.023 0.001 0.033 0.001 0.019 0.001 0.036 0.001 0.055 0.001 0.027-0.001 0.048-0.003 0.072-0.005 0.016 0 0.027-0.001 0.040-0.003 0.027-0.004 0.051-0.007 0.075-0.012 0.008-0.001 0.019-0.003 0.027-0.004 0.032-0.005 0.063-0.015 0.089-0.024 0.008-0.003 0.015-0.004 0.021-0.005 0.023-0.007 0.041-0.015 0.061-0.021 0.008-0.004 0.017-0.008 0.025-0.011 0.015-0.007 0.029-0.012 0.041-0.019 0.008-0.003 0.016-0.007 0.021-0.009 0.013-0.005 0.023-0.011 0.032-0.015 0.004-0.003 0.008-0.005 0.015-0.008 0.008-0.004 0.016-0.008 0.021-0.012 0.001-0.001 0.005-0.003 0.008-0.004 0.004-0.003 0.009-0.005 0.009-0.005l11.419-11.365c0.337-0.336-0.001-0.927-0.001-0.927z"></path>
</svg>
