<?xml version="1.0" encoding="utf-8"?>
<!-- Generated by IcoMoon.io -->
<!DOCTYPE svg PUBLIC "-//W3C//DTD SVG 1.1//EN" "http://www.w3.org/Graphics/SVG/1.1/DTD/svg11.dtd">
<svg version="1.1" xmlns="http://www.w3.org/2000/svg" xmlns:xlink="http://www.w3.org/1999/xlink" width="32" height="32" viewBox="0 0 32 32">
<path fill="#333333" d="M27.333 11.555c0-3.709-1.972-10.325-2.056-10.605-0.169-0.564-0.689-0.95-1.277-0.95h-4c-0.545 0-1.036 0.332-1.238 0.838l-1.333 3.333c-0.273 0.683 0.059 1.459 0.743 1.733 0.685 0.273 1.459-0.059 1.734-0.743l0.998-2.495h2.091c0.534 1.929 1.672 6.335 1.672 8.889 0 4.973-3.564 8.445-8.667 8.445-5.183 0-8.667-3.483-8.667-8.667 0-2.381 1.137-6.745 1.672-8.667h3.692l-1.935 4.838c-0.164 0.411-0.114 0.876 0.134 1.243s0.661 0.586 1.104 0.586h2.031l-1.935 4.838c-0.273 0.683 0.059 1.459 0.743 1.733s1.459-0.059 1.734-0.743l2.667-6.667c0.164-0.411 0.114-0.876-0.134-1.243s-0.662-0.586-1.105-0.586h-2.031l1.935-4.838c0.164-0.411 0.114-0.876-0.134-1.243s-0.661-0.586-1.104-0.586h-6.667c-0.589 0-1.108 0.386-1.277 0.95-0.084 0.28-2.056 6.895-2.056 10.383 0 6.221 4.052 10.688 10.007 11.266-0.001 0.023-0.007 0.044-0.007 0.067v6.667h-3.333c-0.736 0-1.333 0.597-1.333 1.333s0.597 1.333 1.333 1.333h9.333c0.736 0 1.333-0.597 1.333-1.333s-0.597-1.333-1.333-1.333h-3.333v-6.667c0-0.024-0.006-0.046-0.007-0.070 5.872-0.585 10.007-5.045 10.007-11.041z"></path>
</svg>
