<?xml version="1.0" encoding="utf-8"?>
<!-- Generated by IcoMoon.io -->
<!DOCTYPE svg PUBLIC "-//W3C//DTD SVG 1.1//EN" "http://www.w3.org/Graphics/SVG/1.1/DTD/svg11.dtd">
<svg version="1.1" xmlns="http://www.w3.org/2000/svg" xmlns:xlink="http://www.w3.org/1999/xlink" width="32" height="32" viewBox="0 0 32 32">
<path fill="#333333" d="M12.45 19.405v8.372c0 0.219 0.053 0.435 0.157 0.628 0.671 1.259 1.973 2.039 3.399 2.039s2.727-0.781 3.399-2.039c0.103-0.193 0.157-0.409 0.157-0.628v-8.372c4.196-2.266 7.604-5.848 9.65-10.167 0.085-0.18 0.128-0.375 0.128-0.571v-2.667c0-3.712-10.206-4-13.333-4s-13.333 0.288-13.333 4v2.667c0 0.197 0.043 0.392 0.128 0.571 2.046 4.319 5.454 7.901 9.65 10.167zM16.005 4.667c5.264 0 8.759 0.746 10.154 1.333-1.395 0.587-4.89 1.333-10.154 1.333s-8.759-0.746-10.154-1.333c1.395-0.587 4.89-1.333 10.154-1.333zM16.005 10c2.064 0 7.209-0.125 10.471-1.277-1.941 3.741-5.049 6.811-8.837 8.675-0.456 0.224-0.745 0.689-0.745 1.197v8.784c-0.445 0.503-1.333 0.503-1.778 0v-8.784c0-0.508-0.289-0.973-0.745-1.197-3.787-1.864-6.895-4.933-8.837-8.675 3.261 1.153 8.406 1.277 10.47 1.277z"></path>
</svg>
