<?xml version="1.0" encoding="utf-8"?>
<!-- Generated by IcoMoon.io -->
<!DOCTYPE svg PUBLIC "-//W3C//DTD SVG 1.1//EN" "http://www.w3.org/Graphics/SVG/1.1/DTD/svg11.dtd">
<svg version="1.1" xmlns="http://www.w3.org/2000/svg" xmlns:xlink="http://www.w3.org/1999/xlink" width="32" height="32" viewBox="0 0 32 32">
<path fill="#333333" d="M22.001 8h-5.333v-5.333c0-0.736-0.597-1.333-1.333-1.333s-1.333 0.597-1.333 1.333v5.333h-4c-5.515 0-10.001 4.486-10.001 10s4.486 10 10 10h12c5.514 0 10-4.486 10-10s-4.485-10-9.999-10zM22.001 25.333h-12.001c-4.043 0-7.333-3.29-7.333-7.333s3.29-7.333 7.333-7.333h12c4.043 0 7.333 3.29 7.333 7.333s-3.289 7.333-7.333 7.333z"></path>
<path fill="#333333" d="M12.667 16.667h-2v-2c0-0.736-0.597-1.333-1.333-1.333s-1.333 0.597-1.333 1.333v2h-2.001c-0.736 0-1.333 0.597-1.333 1.333s0.597 1.333 1.333 1.333h2v2c0 0.736 0.597 1.333 1.333 1.333s1.333-0.597 1.333-1.333v-2h2c0.736 0 1.333-0.597 1.333-1.333s-0.597-1.333-1.333-1.333z"></path>
<path fill="#333333" d="M18.667 16.555c0.736 0 1.333-0.597 1.333-1.333s-0.597-1.333-1.333-1.333h-1.333c-0.736 0-1.333 0.597-1.333 1.333s0.597 1.333 1.333 1.333h1.333z"></path>
<path fill="#333333" d="M24.001 16.555c0.736 0 1.333-0.597 1.333-1.333s-0.597-1.333-1.333-1.333h-1.333c-0.736 0-1.333 0.597-1.333 1.333s0.597 1.333 1.333 1.333h1.333z"></path>
<path fill="#333333" d="M19.334 19.221h-1.333c-0.736 0-1.333 0.597-1.333 1.333s0.597 1.333 1.333 1.333h1.333c0.736 0 1.333-0.597 1.333-1.333s-0.597-1.333-1.333-1.333z"></path>
<path fill="#333333" d="M24.667 19.221h-1.333c-0.736 0-1.333 0.597-1.333 1.333s0.597 1.333 1.333 1.333h1.333c0.736 0 1.333-0.597 1.333-1.333s-0.597-1.333-1.333-1.333z"></path>
</svg>
