<?xml version="1.0" encoding="utf-8"?>
<!-- Generated by IcoMoon.io -->
<!DOCTYPE svg PUBLIC "-//W3C//DTD SVG 1.1//EN" "http://www.w3.org/Graphics/SVG/1.1/DTD/svg11.dtd">
<svg version="1.1" xmlns="http://www.w3.org/2000/svg" xmlns:xlink="http://www.w3.org/1999/xlink" width="32" height="32" viewBox="0 0 32 32">
<path fill="#333333" d="M16 17.333h-5.333c-0.736 0-1.333 0.597-1.333 1.333s0.597 1.333 1.333 1.333h5.333c0.736 0 1.333-0.597 1.333-1.333s-0.597-1.333-1.333-1.333z"></path>
<path fill="#333333" d="M25.985 12c-0.736 0-1.333 0.597-1.333 1.333v6.667c0 2.667-1.493 2.667-1.985 2.667v-18c0-1.838-1.495-3.333-3.333-3.333h-12c-1.838 0-3.333 1.495-3.333 3.333v23.333h-1.333c-0.736 0-1.333 0.597-1.333 1.333s0.597 1.333 1.333 1.333h22.667c0.736 0 1.333-0.597 1.333-1.333s-0.597-1.333-1.333-1.333h-2.667v-2.667c2.249 0 4.651-1.401 4.651-5.333v-6.667c0-0.736-0.597-1.333-1.333-1.333zM7.333 4h12c0.367 0 0.667 0.299 0.667 0.667v7.333h-13.333v-7.333c0-0.367 0.299-0.667 0.667-0.667zM6.667 28v-13.333h13.333v13.333h-13.333z"></path>
<path fill="#333333" d="M28.286 4.385c-0.524-0.517-1.368-0.513-1.885 0.011-1.661 1.681-1.717 4.605-1.719 4.933-0.002 0.736 0.593 1.335 1.329 1.337 0.001 0 0.003 0 0.004 0 0.735 0 1.331-0.595 1.333-1.329 0.002-0.689 0.236-2.347 0.948-3.067 0.518-0.525 0.513-1.369-0.011-1.886z"></path>
</svg>
