<?xml version="1.0" encoding="utf-8"?>
<!-- Generated by IcoMoon.io -->
<!DOCTYPE svg PUBLIC "-//W3C//DTD SVG 1.1//EN" "http://www.w3.org/Graphics/SVG/1.1/DTD/svg11.dtd">
<svg version="1.1" xmlns="http://www.w3.org/2000/svg" xmlns:xlink="http://www.w3.org/1999/xlink" width="32" height="32" viewBox="0 0 32 32">
<path fill="#333333" d="M14.674 10c0-3.676-2.991-6.667-6.667-6.667s-6.667 2.991-6.667 6.667c0 3.219 2.294 5.913 5.333 6.533v1.467h-4c-0.736 0-1.333 0.597-1.333 1.333s0.597 1.333 1.333 1.333h4v6.667c0 0.736 0.597 1.333 1.333 1.333s1.333-0.597 1.333-1.333v-6.667h4c0.736 0 1.333-0.597 1.333-1.333s-0.597-1.333-1.333-1.333h-4v-1.467c3.039-0.62 5.333-3.313 5.333-6.533zM4.007 10c0-2.206 1.794-4 4-4s4 1.794 4 4-1.794 4-4 4-4-1.794-4-4z"></path>
<path fill="#333333" d="M28.398 11.609c0.52 0.521 1.365 0.521 1.885 0s0.521-1.365 0-1.885l-6-6c-0.52-0.521-1.365-0.521-1.885 0l-6.013 6.013c-0.521 0.521-0.521 1.365 0 1.885 0.26 0.261 0.601 0.391 0.943 0.391s0.683-0.13 0.943-0.391l3.737-3.737v7.582c-3.039 0.62-5.333 3.313-5.333 6.533 0 3.676 2.991 6.667 6.667 6.667s6.667-2.991 6.667-6.667c0-3.219-2.294-5.913-5.333-6.533v-7.583l3.725 3.724zM27.341 22c0 2.206-1.794 4-4 4s-4-1.794-4-4 1.794-4 4-4 4 1.794 4 4z"></path>
</svg>
