<?xml version="1.0" encoding="utf-8"?>
<!-- Generated by IcoMoon.io -->
<!DOCTYPE svg PUBLIC "-//W3C//DTD SVG 1.1//EN" "http://www.w3.org/Graphics/SVG/1.1/DTD/svg11.dtd">
<svg version="1.1" xmlns="http://www.w3.org/2000/svg" xmlns:xlink="http://www.w3.org/1999/xlink" width="32" height="32" viewBox="0 0 32 32">
<path fill="#333333" d="M13.392 4.557c0.108-0.064 0.203-0.122 0.307-0.183-1.415-1.175-2.366-2.513-2.366-4.373h-2.667c0 2.739 1.042 4.532 2.523 5.909 0.754-0.49 1.503-0.939 2.202-1.353z"></path>
<path fill="#333333" d="M15.917 22.851c-3.277-1.938-5.917-3.613-5.917-6.851 0-3.24 2.641-4.915 5.918-6.853 0.027-0.016 0.055-0.032 0.082-0.048 0.027 0.016 0.055 0.032 0.082 0.048 2.793 1.651 5.105 3.12 5.735 5.519h-7.817c-0.737 0-1.333 0.597-1.333 1.333s0.597 1.333 1.333 1.333h7.819c-0.426 1.613-1.611 2.809-3.197 3.917 0.776 0.473 1.581 0.987 2.365 1.565 2.077-1.637 3.679-3.706 3.679-6.815 0-4.229-2.959-6.539-6.055-8.444 2.544-1.604 4.721-3.592 4.721-7.556h-2.667c0 3.239-2.829 4.913-6.107 6.851-3.477 2.057-7.227 4.387-7.227 9.149 0 4.258 3.001 6.571 6.123 8.484-2.575 1.745-4.789 3.947-4.789 7.516h2.667c0-2.75 2.045-4.372 4.667-5.985 2.62 1.613 4.667 3.235 4.667 5.985h2.667c0-4.761-3.94-7.092-7.417-9.149z"></path>
</svg>
