<?xml version="1.0" encoding="utf-8"?>
<!-- Generated by IcoMoon.io -->
<!DOCTYPE svg PUBLIC "-//W3C//DTD SVG 1.1//EN" "http://www.w3.org/Graphics/SVG/1.1/DTD/svg11.dtd">
<svg version="1.1" xmlns="http://www.w3.org/2000/svg" xmlns:xlink="http://www.w3.org/1999/xlink" width="32" height="32" viewBox="0 0 32 32">
<path fill="#333333" d="M14.907 14.759h-5.409c-0.141 0-0.253 0.113-0.253 0.254v2.645c0 0.139 0.112 0.253 0.253 0.253h2.109v3.29c0 0-0.473 0.161-1.784 0.161-1.548 0-3.709-0.565-3.709-5.316s2.252-5.377 4.363-5.377c1.829 0 2.616 0.322 3.117 0.478 0.157 0.049 0.303-0.109 0.303-0.248l0.603-2.558c0-0.065-0.023-0.145-0.097-0.197-0.202-0.144-1.443-0.839-4.579-0.839-3.615 0-7.32 1.537-7.32 8.929s4.244 8.493 7.819 8.493c2.962 0 4.758-1.266 4.758-1.266 0.074-0.042 0.083-0.145 0.083-0.193v-8.252c0-0.141-0.113-0.254-0.255-0.254z"></path>
<path fill="#333333" d="M20.66 10.281c0 1.096-0.88 1.985-1.966 1.985s-1.966-0.889-1.966-1.985c0-1.096 0.88-1.985 1.966-1.985s1.966 0.889 1.966 1.985z"></path>
<path fill="#333333" d="M20.442 20.773c0-0.408 0-7.362 0-7.362 0-0.139-0.113-0.254-0.253-0.254h-3.040c-0.138 0-0.263 0.144-0.263 0.283 0 0 0 8.86 0 10.547 0 0.311 0.193 0.404 0.443 0.404 0 0 1.298 0 2.738 0 0.301 0 0.375-0.15 0.375-0.408 0-0.566 0-2.782 0-3.21z"></path>
<path fill="#333333" d="M29.203 13.156h-2.287l-0.003-3.021c0-0.115-0.059-0.171-0.192-0.171h-3.116c-0.122 0-0.187 0.054-0.187 0.168v3.121c0 0-1.561 0.377-1.667 0.409-0.103 0.030-0.183 0.128-0.183 0.242v1.961c0 0.141 0.112 0.254 0.251 0.254h1.6c0 0 0 2.051 0 4.718 0 3.506 2.458 3.85 4.117 3.85 0.756 0 1.664-0.242 1.815-0.299 0.090-0.033 0.145-0.128 0.145-0.229l0.001-2.157c0-0.142-0.119-0.254-0.254-0.254-0.131 0-0.472 0.054-0.825 0.054-1.122 0-1.503-0.523-1.503-1.199 0-0.675 0-4.483 0-4.483h2.287c0.139 0 0.253-0.113 0.253-0.254v-2.456c-0.001-0.142-0.116-0.254-0.254-0.254z"></path>
</svg>
