<?xml version="1.0" encoding="utf-8"?>
<!-- Generated by IcoMoon.io -->
<!DOCTYPE svg PUBLIC "-//W3C//DTD SVG 1.1//EN" "http://www.w3.org/Graphics/SVG/1.1/DTD/svg11.dtd">
<svg version="1.1" xmlns="http://www.w3.org/2000/svg" xmlns:xlink="http://www.w3.org/1999/xlink" width="32" height="32" viewBox="0 0 32 32">
<path fill="#333333" d="M29.065 16.295c0-7.215-5.849-13.066-13.066-13.066-7.214 0-13.066 5.851-13.066 13.066 0 5.888 3.897 10.865 9.248 12.5l0.019-0.028c0 0 0.431 0 0.592-0.377v-2.59c0 0-1.761 0.27-2.571-0.035s-1.385-0.755-1.995-2.247c-0.613-1.492-1.584-1.224-1.69-1.762-0.107-0.54 1.041-0.305 1.436-0.073 0.398 0.234 0.704 0.594 1.028 0.99 0.324 0.395 0.771 1.511 2.319 1.511 0 0 0.719 0.125 1.061-0.036 0.34-0.161 0.485-0.251 0.575-0.27 0 0-0.181-1.079 0.682-1.834 0 0-5.647-0.090-5.862-5.88 0 0-0.035-2.446 1.404-3.92 0 0-0.539-1.776 0.036-3.404 0 0 1.749-0.215 3.57 1.366 0 0 1.247-0.527 3.165-0.527 1.919 0 3.431 0.552 3.431 0.552s1.148-1.151 3.474-1.415c0 0 0.576 1.318 0.097 3.357 0 0 1.365 1.295 1.365 3.691 0 2.398-0.814 5.73-5.899 6.138 0 0 0.864 1.151 0.864 2.157 0 1.008-0.046 3.884-0.046 3.884s-0.003 0.553 0.618 0.739c5.337-1.643 9.212-6.61 9.212-12.485z"></path>
</svg>
