<?xml version="1.0" encoding="utf-8"?>
<!-- Generated by IcoMoon.io -->
<!DOCTYPE svg PUBLIC "-//W3C//DTD SVG 1.1//EN" "http://www.w3.org/Graphics/SVG/1.1/DTD/svg11.dtd">
<svg version="1.1" xmlns="http://www.w3.org/2000/svg" xmlns:xlink="http://www.w3.org/1999/xlink" width="32" height="32" viewBox="0 0 32 32">
<path fill="#333333" d="M31.6 19.632c-0.645-2.757-2.077-8.899-2.746-11.92-1.117-5.045-4.801-5.045-6.187-5.045h-1.333c-0.736 0-1.333 0.597-1.333 1.333s0.597 1.333 1.333 1.333h1.333c1.305 0 2.93 0 3.584 2.955 0.388 1.753 1.031 4.549 1.63 7.13-0.972-0.477-2.060-0.752-3.214-0.752-3.199 0-5.919 2.063-6.919 4.925-0.519-0.141-1.124-0.252-1.748-0.252-0.627 0-1.231 0.112-1.747 0.252-1-2.863-3.72-4.925-6.919-4.925-1.154 0-2.242 0.275-3.214 0.752 0.599-2.582 1.242-5.377 1.63-7.13 0.654-2.955 2.279-2.955 3.584-2.955h1.333c0.736 0 1.333-0.597 1.333-1.333s-0.597-1.333-1.333-1.333h-1.333c-1.387 0-5.070 0-6.187 5.045-0.669 3.021-2.101 9.163-2.746 11.921-0.255 0.744-0.4 1.539-0.4 2.368 0 4.043 3.29 7.333 7.333 7.333 3.957 0 7.184-3.153 7.321-7.077 0.394-0.129 0.885-0.249 1.346-0.249 0.454 0 0.945 0.119 1.346 0.249 0.137 3.925 3.363 7.078 7.321 7.078 4.043 0 7.333-3.29 7.333-7.333 0-0.829-0.145-1.624-0.4-2.368zM7.333 26.667c-2.573 0-4.667-2.093-4.667-4.667 0-0.152 0.009-0.301 0.023-0.449 0.039-0.168 0.137-0.583 0.276-1.178 0.663-1.772 2.368-3.039 4.368-3.039 2.573 0 4.667 2.093 4.667 4.667s-2.093 4.667-4.667 4.667zM24.667 26.667c-2.573 0-4.667-2.093-4.667-4.667s2.093-4.667 4.667-4.667c2 0 3.705 1.267 4.368 3.039 0.139 0.595 0.237 1.010 0.276 1.178 0.014 0.148 0.023 0.297 0.023 0.449 0 2.573-2.093 4.667-4.667 4.667z"></path>
</svg>
