<?xml version="1.0" encoding="utf-8"?>
<!-- Generated by IcoMoon.io -->
<!DOCTYPE svg PUBLIC "-//W3C//DTD SVG 1.1//EN" "http://www.w3.org/Graphics/SVG/1.1/DTD/svg11.dtd">
<svg version="1.1" xmlns="http://www.w3.org/2000/svg" xmlns:xlink="http://www.w3.org/1999/xlink" width="32" height="32" viewBox="0 0 32 32">
<path fill="#333333" d="M23.111 2.55v3.604c-1.35-2.46-4.015-4.057-7.040-4.057-5.237 0-8.754 3.989-8.754 9.926 0 4.831 2.627 9.704 8.492 9.704 2.737 0 5.81-1.336 7.3-3.911v3.918c0 4.394-2.343 6.621-6.965 6.621-2.244 0-6.034-0.646-6.204-4.975l-0.015-0.39h-1.564l0.010 0.416c0.107 4.081 3.029 6.517 7.812 6.517 5.479 0 8.494-2.908 8.494-8.189v-19.183h-1.567zM16.072 3.666c1.818 0 3.42 0.647 4.636 1.871 1.525 1.537 2.389 3.901 2.369 6.488 0 4.051-2.261 8.141-7.311 8.141-4.182 0-6.883-3.194-6.883-8.141 0-3.857 1.881-8.359 7.189-8.359z"></path>
</svg>
