<?xml version="1.0" encoding="utf-8"?>
<!-- Generated by IcoMoon.io -->
<!DOCTYPE svg PUBLIC "-//W3C//DTD SVG 1.1//EN" "http://www.w3.org/Graphics/SVG/1.1/DTD/svg11.dtd">
<svg version="1.1" xmlns="http://www.w3.org/2000/svg" xmlns:xlink="http://www.w3.org/1999/xlink" width="32" height="32" viewBox="0 0 32 32">
<path fill="#333333" d="M17.482 16.26c-0.672-0.729-0.167-1.866 0.338-2.393 0.501-0.531 1.411-1.235 1.839-1.638 0.43-0.404 1.463-1.336 1.485-4.133 0 0 0.253-2.52-2.494-4.564h2.168l2.292-1.309h-7.761c0 0-4.615-0.151-6.831 2.671-2.22 2.824-2.146 6.352 0.251 8.345 2.394 1.99 5.251 1.434 5.251 1.434s-0.44 0.934-0.364 1.716c0.078 0.781 0.935 1.89 1.114 2.143 0 0-5.283-0.026-7.857 2.292-2.578 2.319-2.857 6.855 2.259 8.419 5.118 1.562 11.746-0.126 13.082-5.042 0 0 0.581-2.017-0.425-3.731-1.009-1.715-3.679-3.477-4.347-4.21zM11.814 12.202c-1.642-2.211-2.893-6.539 0-8.374 0 0 2.117-1.286 3.99 0.587 1.87 1.871 2.4 5.046 2.060 6.654-0.341 1.609-1.247 1.985-1.643 2.233-0.395 0.244-2.761 1.112-4.406-1.099zM19.945 24.338c-0.074 0.871-0.192 2.78-3.307 3.688-3.118 0.907-8.471-0.585-8.317-4.233 0 0 0.019-1.55 1-2.42 0.984-0.87 2.419-1.758 6.712-1.815 0 0 1.418 1.058 2.363 1.796 0.942 0.736 1.625 2.118 1.549 2.985z"></path>
<path fill="#333333" d="M27.019 13.917v-2.773h-1.664v2.773h-2.77v1.662h2.77v2.774h1.664v-2.774h2.773v-1.662z"></path>
</svg>
