<?xml version="1.0" encoding="utf-8"?>
<!-- Generated by IcoMoon.io -->
<!DOCTYPE svg PUBLIC "-//W3C//DTD SVG 1.1//EN" "http://www.w3.org/Graphics/SVG/1.1/DTD/svg11.dtd">
<svg version="1.1" xmlns="http://www.w3.org/2000/svg" xmlns:xlink="http://www.w3.org/1999/xlink" width="32" height="32" viewBox="0 0 32 32">
<path fill="#333333" d="M25.334 1.333c-2.573 0-4.667 2.093-4.667 4.667s2.093 4.667 4.667 4.667 4.667-2.093 4.667-4.667-2.094-4.667-4.667-4.667zM25.334 8c-1.103 0-2-0.897-2-2s0.897-2 2-2 2 0.897 2 2-0.897 2-2 2z"></path>
<path fill="#333333" d="M11.333 6c0-2.573-2.093-4.667-4.667-4.667s-4.667 2.093-4.667 4.667 2.093 4.667 4.667 4.667 4.667-2.093 4.667-4.667zM4.667 6c0-1.103 0.897-2 2-2s2 0.897 2 2-0.897 2-2 2-2-0.897-2-2z"></path>
<path fill="#333333" d="M24.667 12.771c-0.497 0-0.947 0.189-1.297 0.489l-0.127 0.109-7.242 6.207-7.369-6.315c-0.35-0.301-0.8-0.49-1.299-0.49-1.105 0-2 0.895-2 2v14.561c0 0.736 0.597 1.333 1.333 1.333s1.333-0.597 1.333-1.333v-13.101l7.133 6.113c0.499 0.428 1.236 0.428 1.736 0l7.132-6.113v13.101c0 0.736 0.597 1.333 1.333 1.333s1.333-0.597 1.333-1.333v-14.562c0-1.105-0.895-2-2-2z"></path>
</svg>
