<?xml version="1.0" encoding="utf-8"?>
<!-- Generated by IcoMoon.io -->
<!DOCTYPE svg PUBLIC "-//W3C//DTD SVG 1.1//EN" "http://www.w3.org/Graphics/SVG/1.1/DTD/svg11.dtd">
<svg version="1.1" xmlns="http://www.w3.org/2000/svg" xmlns:xlink="http://www.w3.org/1999/xlink" width="32" height="32" viewBox="0 0 32 32">
<path fill="#333333" d="M22 17.333h-12c-0.379 0-0.741 0.161-0.993 0.444s-0.374 0.659-0.332 1.037c0.276 2.485 2.163 7.186 7.325 7.186s7.049-4.701 7.325-7.186c0.042-0.377-0.079-0.754-0.332-1.037s-0.614-0.444-0.993-0.444zM16 23.333c-2.612 0-3.789-1.917-4.303-3.333h8.615c-0.505 1.416-1.675 3.333-4.312 3.333z"></path>
<path fill="#333333" d="M22 10.667c-0.736 0-1.333 0.597-1.333 1.333v1.333c0 0.736 0.597 1.333 1.333 1.333s1.333-0.597 1.333-1.333v-1.333c0-0.736-0.597-1.333-1.333-1.333z"></path>
<path fill="#333333" d="M10 14.667c0.736 0 1.333-0.597 1.333-1.333v-1.333c0-0.736-0.597-1.333-1.333-1.333s-1.333 0.597-1.333 1.333v1.333c0 0.736 0.597 1.333 1.333 1.333z"></path>
<path fill="#333333" d="M16 1.333c-8.087 0-14.667 6.579-14.667 14.667s6.579 14.667 14.667 14.667 14.667-6.579 14.667-14.667-6.579-14.667-14.667-14.667zM16 28c-6.617 0-12-5.383-12-12s5.383-12 12-12 12 5.383 12 12-5.383 12-12 12z"></path>
</svg>
