<?xml version="1.0" encoding="utf-8"?>
<!-- Generated by IcoMoon.io -->
<!DOCTYPE svg PUBLIC "-//W3C//DTD SVG 1.1//EN" "http://www.w3.org/Graphics/SVG/1.1/DTD/svg11.dtd">
<svg version="1.1" xmlns="http://www.w3.org/2000/svg" xmlns:xlink="http://www.w3.org/1999/xlink" width="32" height="32" viewBox="0 0 32 32">
<path fill="#333333" d="M26.667 16.443v-9.109c0-2.966-3.888-4.667-10.667-4.667s-10.667 1.701-10.667 4.667v9.109c-3.439 1.358-5.333 3.325-5.333 5.558 0 4.763 8.243 7.333 16 7.333s16-2.57 16-7.333c0-2.233-1.894-4.201-5.333-5.557zM8 16.709c1.924 1.213 4.743 1.957 8 1.957s6.076-0.745 8-1.957v1.957c0 0.94-3.037 2.667-8 2.667s-8-1.727-8-2.667v-1.957zM8 7.333c0-0.675 2.416-2 8-2s8 1.325 8 2v5.333c0 1.392-3.043 3.333-8 3.333s-8-1.941-8-3.333v-5.333zM16 26.667c-8.261 0-13.333-2.718-13.333-4.667 0-0.871 1.029-1.853 2.734-2.677 0.628 3.073 5.641 4.677 10.599 4.677s9.971-1.603 10.599-4.676c1.706 0.823 2.735 1.805 2.735 2.676 0 1.949-5.072 4.667-13.333 4.667z"></path>
</svg>
