<?xml version="1.0" encoding="utf-8"?>
<!-- Generated by IcoMoon.io -->
<!DOCTYPE svg PUBLIC "-//W3C//DTD SVG 1.1//EN" "http://www.w3.org/Graphics/SVG/1.1/DTD/svg11.dtd">
<svg version="1.1" xmlns="http://www.w3.org/2000/svg" xmlns:xlink="http://www.w3.org/1999/xlink" width="32" height="32" viewBox="0 0 32 32">
<path fill="#333333" d="M31.245 20.563l-3.937-16.219-0.037-0.125c-0.289-0.827-1.301-2.227-3.259-2.227h-16c-1.957 0-2.969 1.399-3.259 2.226l-3.973 16.345 0.007 0.001c-0.065 0.258-0.109 0.523-0.109 0.801v5.293c0 1.838 1.495 3.333 3.333 3.333h24c1.838 0 3.333-1.495 3.333-3.333v-5.293c0-0.278-0.044-0.543-0.109-0.801l0.008-0.001zM7.281 5.082c0.079-0.157 0.281-0.423 0.731-0.423h16c0.463 0 0.663 0.281 0.727 0.411l3.147 12.963h-23.747l3.143-12.95zM28.679 26.659c0 0.361-0.305 0.667-0.667 0.667h-24c-0.361 0-0.667-0.305-0.667-0.667v-5.293c0-0.361 0.305-0.667 0.667-0.667h24c0.361 0 0.667 0.305 0.667 0.667v5.293z"></path>
<path fill="#333333" d="M27.346 23.992c0 0.736-0.597 1.333-1.333 1.333s-1.333-0.597-1.333-1.333c0-0.736 0.597-1.333 1.333-1.333s1.333 0.597 1.333 1.333z"></path>
</svg>
