<?xml version="1.0" encoding="utf-8"?>
<!-- Generated by IcoMoon.io -->
<!DOCTYPE svg PUBLIC "-//W3C//DTD SVG 1.1//EN" "http://www.w3.org/Graphics/SVG/1.1/DTD/svg11.dtd">
<svg version="1.1" xmlns="http://www.w3.org/2000/svg" xmlns:xlink="http://www.w3.org/1999/xlink" width="32" height="32" viewBox="0 0 32 32">
<path fill="#333333" d="M16 1.333c-7.352 0-13.333 5.989-13.333 13.349v10.555c-0.001 0.032-0.005 0.063-0.005 0.096s0.004 0.064 0.005 0.097c0.052 2.896 2.42 5.237 5.329 5.237h2.005c1.036 0 1.879-0.791 1.98-1.801 0.007-0.067 0.020-0.131 0.020-0.199v-8.667c0-1.838-1.495-3.333-3.333-3.333h-2.667c-0.228 0-0.451 0.023-0.667 0.067v-2.051c0-5.891 4.785-10.683 10.667-10.683s10.667 4.792 10.667 10.683v2.051c-0.215-0.044-0.439-0.067-0.667-0.067h-2.667c-1.838 0-3.333 1.495-3.333 3.333v8.667c0 0.070 0.014 0.137 0.021 0.205 0.104 1.007 0.945 1.795 1.979 1.795h2c2.941 0 5.333-2.393 5.333-5.333v-10.651c0-7.361-5.981-13.349-13.333-13.349zM6 19.333h2.667c0.367 0 0.667 0.299 0.667 0.667v8h-1.338c-1.454 0-2.635-1.171-2.662-2.618v-5.382c0-0.367 0.299-0.667 0.667-0.667zM26.667 25.333c0 1.471-1.196 2.667-2.667 2.667h-1.333v-8c0-0.367 0.299-0.667 0.667-0.667h2.667c0.367 0 0.667 0.299 0.667 0.667v5.333z"></path>
</svg>
