<?xml version="1.0" encoding="utf-8"?>
<!-- Generated by IcoMoon.io -->
<!DOCTYPE svg PUBLIC "-//W3C//DTD SVG 1.1//EN" "http://www.w3.org/Graphics/SVG/1.1/DTD/svg11.dtd">
<svg version="1.1" xmlns="http://www.w3.org/2000/svg" xmlns:xlink="http://www.w3.org/1999/xlink" width="32" height="32" viewBox="0 0 32 32">
<path fill="#333333" d="M16 29.343c-0.267 0-0.535-0.081-0.765-0.241-0.568-0.397-13.906-9.839-13.906-18.435 0-3.852 3.060-8.009 8.004-8.009 3.304 0 5.453 2.128 6.667 3.894 1.214-1.766 3.363-3.894 6.667-3.894 4.944 0 8.004 4.157 8.004 8.009 0 8.595-13.338 18.037-13.905 18.435-0.23 0.161-0.498 0.241-0.765 0.241zM9.333 5.324c-3.297 0-5.337 2.773-5.337 5.343 0 5.593 8.051 12.751 12.004 15.697 3.953-2.946 12.004-10.103 12.004-15.697 0-2.569-2.041-5.343-5.337-5.343-3.669 0-5.403 4.436-5.419 4.481-0.197 0.517-0.694 0.86-1.247 0.86-0.001 0-0.003 0-0.004 0-0.555-0.001-1.051-0.345-1.245-0.864-0.015-0.041-1.749-4.477-5.418-4.477z"></path>
</svg>
