<?xml version="1.0" encoding="utf-8"?>
<!-- Generated by IcoMoon.io -->
<!DOCTYPE svg PUBLIC "-//W3C//DTD SVG 1.1//EN" "http://www.w3.org/Graphics/SVG/1.1/DTD/svg11.dtd">
<svg version="1.1" xmlns="http://www.w3.org/2000/svg" xmlns:xlink="http://www.w3.org/1999/xlink" width="32" height="32" viewBox="0 0 32 32">
<path fill="#333333" d="M24.667 9.333h-4.001c0-0.003 0.001-0.006 0.001-0.009v-2.648h10c0.736 0 1.333-0.597 1.333-1.333s-0.597-1.333-1.333-1.333h-22.667c-0.736 0-1.333 0.597-1.333 1.333s0.597 1.333 1.333 1.333h10v2.648c0 0.003 0.001 0.006 0.001 0.009h-0.667c-1.673 0-3.31 0.579-4.609 1.629-0.145 0.117-0.276 0.245-0.41 0.371h-6.981c-0.034 0-0.065 0.013-0.099 0.016l-2.959-2.959c-0.521-0.521-1.365-0.521-1.885 0s-0.521 1.365 0 1.885l2.387 2.387-2.389 2.395c-0.52 0.521-0.519 1.365 0.003 1.885 0.261 0.26 0.601 0.389 0.941 0.389 0.342 0 0.683-0.131 0.944-0.392l2.803-2.81 5.008 3.642c0.069 0.457 0.177 0.906 0.331 1.343 1.035 2.921 3.813 4.884 6.914 4.884h7.333c4.043 0 7.333-3.29 7.333-7.333s-3.29-7.333-7.333-7.333zM24.667 21.333h-7.333c-1.634 0-3.118-0.865-3.957-2.215-0.175-0.28-0.331-0.573-0.444-0.893-0.177-0.498-0.266-1.023-0.266-1.559 0-0.102 0.011-0.203 0.017-0.303l-2.385-1.735c0.061-0.213 0.131-0.423 0.211-0.629h3.001c0.249-0.356 0.543-0.683 0.891-0.964 0.283-0.229 0.593-0.407 0.913-0.563 0.625-0.302 1.305-0.473 2.020-0.473h7.333c2.573 0 4.667 2.093 4.667 4.667s-2.094 4.667-4.667 4.667z"></path>
<path fill="#333333" d="M29.072 24.375c-0.041 0.039-1.047 0.958-3.072 0.958h-14c-0.736 0-1.333 0.597-1.333 1.333s0.597 1.333 1.333 1.333h14c3.129 0 4.766-1.547 4.943-1.724 0.514-0.514 0.513-1.339 0.007-1.861-0.505-0.522-1.346-0.537-1.878-0.039z"></path>
</svg>
