<?xml version="1.0" encoding="utf-8"?>
<!-- Generated by IcoMoon.io -->
<!DOCTYPE svg PUBLIC "-//W3C//DTD SVG 1.1//EN" "http://www.w3.org/Graphics/SVG/1.1/DTD/svg11.dtd">
<svg version="1.1" xmlns="http://www.w3.org/2000/svg" xmlns:xlink="http://www.w3.org/1999/xlink" width="32" height="32" viewBox="0 0 32 32">
<path fill="#333333" d="M26.371 5.637c-5.727-5.727-15.014-5.727-20.741 0-5.728 5.728-5.728 15.014 0 20.742s15.014 5.727 20.741 0c5.728-5.727 5.728-15.014 0-20.742zM23.491 6.631l-3.814 3.814c-2.221-1.473-5.133-1.473-7.354 0l-3.814-3.814c4.369-3.499 10.615-3.499 14.982 0zM20 16.008c0 2.209-1.791 4-4 4s-4-1.791-4-4c0-2.209 1.791-4 4-4s4 1.791 4 4zM6.624 8.517l3.813 3.814c-1.473 2.223-1.473 5.133 0 7.354l-3.813 3.814c-3.499-4.367-3.499-10.613 0-14.982zM8.509 25.384l3.814-3.814c2.221 1.473 5.133 1.473 7.354 0l3.814 3.814c-4.367 3.499-10.614 3.499-14.982 0zM25.376 23.499l-3.813-3.814c1.473-2.221 1.473-5.131 0-7.354l3.813-3.814c3.497 4.369 3.497 10.615 0 14.982z"></path>
</svg>
