<?xml version="1.0" encoding="utf-8"?>
<!-- Generated by IcoMoon.io -->
<!DOCTYPE svg PUBLIC "-//W3C//DTD SVG 1.1//EN" "http://www.w3.org/Graphics/SVG/1.1/DTD/svg11.dtd">
<svg version="1.1" xmlns="http://www.w3.org/2000/svg" xmlns:xlink="http://www.w3.org/1999/xlink" width="32" height="32" viewBox="0 0 32 32">
<path fill="#333333" d="M22 2h-12c-4.411 0-8 3.589-8 8v12c0 4.411 3.589 8 8 8h12c4.411 0 8-3.589 8-8v-12c0-4.411-3.589-8-8-8zM27.333 22c0 2.941-2.393 5.333-5.333 5.333h-12c-2.941 0-5.333-2.393-5.333-5.333v-12c0-2.941 2.393-5.333 5.333-5.333h12c2.941 0 5.333 2.393 5.333 5.333v12z"></path>
<path fill="#333333" d="M22 8c-0.736 0-1.333 0.597-1.333 1.333v5.333h-9.333v-5.333c0-0.736-0.597-1.333-1.333-1.333s-1.333 0.597-1.333 1.333v13.333c0 0.736 0.597 1.333 1.333 1.333s1.333-0.597 1.333-1.333v-5.333h9.333v5.333c0 0.736 0.597 1.333 1.333 1.333s1.333-0.597 1.333-1.333v-13.333c0-0.736-0.597-1.333-1.333-1.333z"></path>
</svg>
