<?xml version="1.0" encoding="utf-8"?>
<!-- Generated by IcoMoon.io -->
<!DOCTYPE svg PUBLIC "-//W3C//DTD SVG 1.1//EN" "http://www.w3.org/Graphics/SVG/1.1/DTD/svg11.dtd">
<svg version="1.1" xmlns="http://www.w3.org/2000/svg" xmlns:xlink="http://www.w3.org/1999/xlink" width="32" height="32" viewBox="0 0 32 32">
<path fill="#333333" d="M29.333 26h-8.863c-0.575-1.925-2.361-3.333-4.47-3.333s-3.895 1.408-4.47 3.333h-8.864c-0.736 0-1.333 0.597-1.333 1.333s0.597 1.333 1.333 1.333h8.863c0.575 1.925 2.361 3.333 4.47 3.333s3.895-1.408 4.47-3.333h8.864c0.736 0 1.333-0.597 1.333-1.333s-0.597-1.333-1.333-1.333zM16 29.333c-1.103 0-2-0.897-2-2s0.897-2 2-2 2 0.897 2 2-0.897 2-2 2z"></path>
<path fill="#333333" d="M4.819 11.719l0.515-0.401v8.681c0 0.736 0.597 1.333 1.333 1.333h18.667c0.736 0 1.333-0.597 1.333-1.333v-8.681l0.515 0.4c0.243 0.19 0.531 0.281 0.818 0.281 0.397 0 0.791-0.177 1.053-0.515 0.452-0.581 0.347-1.419-0.234-1.871l-12-9.333c-0.482-0.375-1.155-0.375-1.637 0l-12 9.333c-0.581 0.453-0.686 1.29-0.234 1.871s1.289 0.686 1.871 0.234zM16 3.023l8.008 6.229c-0.001 0.027-0.008 0.054-0.008 0.082v9.333h-16v-9.333c0-0.028-0.007-0.055-0.008-0.082l8.008-6.229z"></path>
</svg>
