<?xml version="1.0" encoding="utf-8"?>
<!-- Generated by IcoMoon.io -->
<!DOCTYPE svg PUBLIC "-//W3C//DTD SVG 1.1//EN" "http://www.w3.org/Graphics/SVG/1.1/DTD/svg11.dtd">
<svg version="1.1" xmlns="http://www.w3.org/2000/svg" xmlns:xlink="http://www.w3.org/1999/xlink" width="32" height="32" viewBox="0 0 32 32">
<path fill="#333333" d="M30.841 14.299c0-0.001-0.001-0.001-0.001-0.001l-14-11.333c-0.489-0.396-1.189-0.396-1.678 0l-14 11.333c0 0-0.001 0.001-0.002 0.001l-1.034 0.837 0.837 1.035c0.001 0.001 0.001 0.001 0.001 0.001s0.001 0.001 0.001 0.001l0.838 1.035 1.036-0.839c0.001 0 0.001 0 0.001 0l1.16-0.939v12.57c0 0.736 0.597 1.333 1.333 1.333h21.333c0.736 0 1.333-0.597 1.333-1.333v-12.57l2.197 1.778 0.838-1.035c0.001-0.001 0.001-0.001 0.001-0.001s0.001-0.001 0.001-0.001l0.837-1.035-1.035-0.837zM18.333 26.667h-4.667v-8h4.667v8zM25.333 13.333v13.333h-4.333v-9.333c0-0.736-0.597-1.333-1.333-1.333h-7.333c-0.736 0-1.333 0.597-1.333 1.333v9.333h-4.333v-13.333c0-0.020-0.005-0.038-0.006-0.057l9.339-7.561 9.339 7.561c-0.001 0.019-0.006 0.037-0.006 0.057z"></path>
</svg>
