<?xml version="1.0" encoding="utf-8"?>
<!-- Generated by IcoMoon.io -->
<!DOCTYPE svg PUBLIC "-//W3C//DTD SVG 1.1//EN" "http://www.w3.org/Graphics/SVG/1.1/DTD/svg11.dtd">
<svg version="1.1" xmlns="http://www.w3.org/2000/svg" xmlns:xlink="http://www.w3.org/1999/xlink" width="32" height="32" viewBox="0 0 32 32">
<path fill="#333333" d="M26.667 9.333h-4v-4c0-2.206-1.794-4-4-4h-5.333c-2.206 0-4 1.794-4 4v4h-4c-2.206 0-4 1.794-4 4v5.333c0 2.206 1.794 4 4 4h4v4c0 2.206 1.794 4 4 4h5.333c2.206 0 4-1.794 4-4v-4h4c2.206 0 4-1.794 4-4v-5.333c0-2.206-1.794-4-4-4zM28 18.667c0 0.735-0.598 1.333-1.333 1.333h-6.667v6.667c0 0.735-0.598 1.333-1.333 1.333h-5.333c-0.735 0-1.333-0.598-1.333-1.333v-6.667h-6.667c-0.735 0-1.333-0.598-1.333-1.333v-5.333c0-0.735 0.598-1.333 1.333-1.333h6.667v-6.667c0-0.735 0.598-1.333 1.333-1.333h5.333c0.735 0 1.333 0.598 1.333 1.333v6.667h6.667c0.735 0 1.333 0.598 1.333 1.333v5.333z"></path>
</svg>
