<?xml version="1.0" encoding="utf-8"?>
<!-- Generated by IcoMoon.io -->
<!DOCTYPE svg PUBLIC "-//W3C//DTD SVG 1.1//EN" "http://www.w3.org/Graphics/SVG/1.1/DTD/svg11.dtd">
<svg version="1.1" xmlns="http://www.w3.org/2000/svg" xmlns:xlink="http://www.w3.org/1999/xlink" width="32" height="32" viewBox="0 0 32 32">
<path fill="#333333" d="M21.333 18.046v-12.713c0-2.941-2.393-5.333-5.333-5.333s-5.333 2.393-5.333 5.333v12.713c-1.703 1.518-2.667 3.653-2.667 5.954 0 4.411 3.589 8 8 8s8-3.589 8-8c0-2.301-0.963-4.435-2.667-5.954zM16 29.333c-2.941 0-5.333-2.393-5.333-5.333 0-1.686 0.778-3.238 2.135-4.259l0.532-0.4v-14.008c0-1.471 1.196-2.667 2.667-2.667s2.667 1.196 2.667 2.667v14.008l0.531 0.4c1.357 1.021 2.135 2.573 2.135 4.259 0 2.941-2.393 5.333-5.333 5.333z"></path>
<path fill="#333333" d="M17.333 20.233v-13.567c0-0.736-0.597-1.333-1.333-1.333s-1.333 0.597-1.333 1.333v13.567c-1.551 0.551-2.667 2.029-2.667 3.767 0 2.206 1.794 4 4 4s4-1.794 4-4c0-1.737-1.115-3.216-2.667-3.767zM16 25.333c-0.735 0-1.333-0.598-1.333-1.333s0.598-1.333 1.333-1.333 1.333 0.598 1.333 1.333-0.598 1.333-1.333 1.333z"></path>
</svg>
