<?xml version="1.0" encoding="utf-8"?>
<!-- Generated by IcoMoon.io -->
<!DOCTYPE svg PUBLIC "-//W3C//DTD SVG 1.1//EN" "http://www.w3.org/Graphics/SVG/1.1/DTD/svg11.dtd">
<svg version="1.1" xmlns="http://www.w3.org/2000/svg" xmlns:xlink="http://www.w3.org/1999/xlink" width="32" height="32" viewBox="0 0 32 32">
<path fill="#333333" d="M29.665 1.783c-0.253-0.286-0.617-0.449-0.998-0.449h-25.333c-0.381 0-0.745 0.163-0.998 0.449s-0.371 0.665-0.325 1.045l2.667 22c0.055 0.457 0.343 0.853 0.76 1.048l10 4.667c0.178 0.083 0.371 0.125 0.563 0.125s0.385-0.042 0.564-0.125l10-4.667c0.417-0.195 0.705-0.591 0.76-1.048l2.667-22c0.045-0.379-0.073-0.759-0.326-1.044zM24.765 23.771l-8.765 4.091-8.765-4.091-2.397-19.771h22.324l-2.397 19.771z"></path>
<path fill="#333333" d="M11.195 14.993h9.276c0.008 0.013 0.017 0.028 0.023 0.043l-0.513 4.021c-0.346 3.239-3.833 3.277-3.981 3.277-1.195 0-3.111-0.927-3.627-2.989-0.179-0.714-0.903-1.148-1.617-0.97s-1.149 0.903-0.97 1.617c0.813 3.253 3.809 5.009 6.214 5.009 2.903 0 6.217-1.771 6.629-5.632l0.519-4.074c0.097-0.667-0.169-1.478-0.677-2.065-0.503-0.582-1.199-0.903-1.957-0.903l-9.308 0.009c-0.004-0.005-0.015-0.027-0.019-0.056l-0.375-3.613h12.135c0.736 0 1.333-0.597 1.333-1.333s-0.597-1.333-1.333-1.333h-13.615c-0.377 0-0.737 0.16-0.99 0.441s-0.375 0.655-0.336 1.031l0.53 5.098c0.161 1.405 1.279 2.424 2.657 2.424z"></path>
</svg>
