<?xml version="1.0" encoding="utf-8"?>
<!-- Generated by IcoMoon.io -->
<!DOCTYPE svg PUBLIC "-//W3C//DTD SVG 1.1//EN" "http://www.w3.org/Graphics/SVG/1.1/DTD/svg11.dtd">
<svg version="1.1" xmlns="http://www.w3.org/2000/svg" xmlns:xlink="http://www.w3.org/1999/xlink" width="32" height="32" viewBox="0 0 32 32">
<path fill="#333333" d="M23.241 15.212c0.709-0.591 1.421-1.176 2.123-1.774 0.344-0.293 0.532-0.31 0.808 0.057 0.545 0.721 0.716 1.231 0.039 1.878-0.906 0.862-1.812 1.724-2.751 2.544-0.254 0.221-0.365 0.411-0.364 0.741 0.011 2.991-0.001 5.98 0.016 8.969 0.003 0.402-0.117 0.686-0.482 0.798-0.909 0.277-1.816 0.556-2.742 0.761-0.494 0.108-0.592-0.039-0.594-0.549 0-2.691 0-5.382 0-8.073 0-0.156 0-0.31 0-0.544-2.401 0.759-4.829 1.036-7.351 0.992 0 0.188 0 0.34 0 0.491 0 1.836-0.014 3.673 0.009 5.509 0.006 0.407-0.134 0.679-0.497 0.789-0.893 0.271-1.789 0.552-2.701 0.746-0.538 0.116-0.614-0.009-0.614-0.561 0-2.292-0.009-4.585 0.009-6.876 0.003-0.342-0.1-0.462-0.435-0.512-0.816-0.123-1.624-0.3-2.436-0.439-0.422-0.071-0.705-0.317-0.739-0.716-0.039-0.487-0.016-0.987 0.058-1.471 0.056-0.371 0.31-0.517 0.728-0.424 0.778 0.171 1.568 0.284 2.353 0.418 0.137 0.023 0.274 0.033 0.461 0.056 0-0.228 0-0.411 0-0.594 0-3.573 0.007-7.147-0.009-10.72 0.001-0.415 0.116-0.712 0.507-0.828 0.909-0.271 1.816-0.551 2.742-0.749 0.485-0.103 0.565 0.031 0.565 0.532 0.001 4.001 0 8 0 12.003 0 0.195 0 0.39 0 0.616 0.528 0 1.007 0.017 1.487-0.003 1.859-0.073 3.674-0.394 5.451-0.955 0.331-0.104 0.425-0.261 0.424-0.602-0.011-4.385-0.001-8.77-0.017-13.154-0.003-0.422 0.131-0.711 0.507-0.828 0.893-0.277 1.789-0.554 2.701-0.755 0.515-0.114 0.611 0.027 0.611 0.572 0 4.015 0 8.029 0 12.044 0 0.18 0 0.36 0 0.539 0.044 0.024 0.091 0.049 0.136 0.071z"></path>
</svg>
