<?xml version="1.0" encoding="utf-8"?>
<!-- Generated by IcoMoon.io -->
<!DOCTYPE svg PUBLIC "-//W3C//DTD SVG 1.1//EN" "http://www.w3.org/Graphics/SVG/1.1/DTD/svg11.dtd">
<svg version="1.1" xmlns="http://www.w3.org/2000/svg" xmlns:xlink="http://www.w3.org/1999/xlink" width="32" height="32" viewBox="0 0 32 32">
<path fill="#333333" d="M24.485 10.181l-8.486-8.847-8.485 8.847c-2.265 2.265-3.512 5.277-3.512 8.485s1.246 6.221 3.512 8.486c2.264 2.267 5.278 3.515 8.486 3.515s6.222-1.247 8.486-3.515c2.265-2.264 3.514-5.277 3.512-8.484 0-3.207-1.246-6.221-3.513-8.487zM22.601 25.267c-1.763 1.763-4.107 2.733-6.601 2.733s-4.839-0.971-6.601-2.733c-1.761-1.762-2.73-4.105-2.73-6.601 0-2.494 0.969-4.838 2.73-6.599l6.6-6.733 6.601 6.733c1.763 1.762 2.732 4.107 2.732 6.601s-0.969 4.837-2.73 6.599z"></path>
<path fill="#333333" d="M22.627 17.131c-0.111-0.725-0.788-1.222-1.512-1.113-0.726 0.107-1.229 0.784-1.125 1.511 0.003 0.021 0.283 2.103-0.866 3.578-0.685 0.881-1.792 1.408-3.29 1.568-0.733 0.078-1.263 0.735-1.184 1.467 0.074 0.683 0.652 1.191 1.325 1.191 0.047 0 0.095-0.002 0.143-0.007 2.258-0.241 3.985-1.118 5.131-2.607 1.843-2.392 1.399-5.458 1.378-5.587z"></path>
</svg>
