<?xml version="1.0" encoding="utf-8"?>
<!-- Generated by IcoMoon.io -->
<!DOCTYPE svg PUBLIC "-//W3C//DTD SVG 1.1//EN" "http://www.w3.org/Graphics/SVG/1.1/DTD/svg11.dtd">
<svg version="1.1" xmlns="http://www.w3.org/2000/svg" xmlns:xlink="http://www.w3.org/1999/xlink" width="32" height="32" viewBox="0 0 32 32">
<path fill="#333333" d="M14.329 15.685l2.087 11.498-3.787 0.686-4.639-1.948-1.124-6.039 3.677-3.512z"></path>
<path fill="#333333" d="M5.549 21.091l0.768 4.115-3.54-1.455z"></path>
<path fill="#333333" d="M20.697 14.532l2.057 11.471 3.676-0.659c0 0 1.317-0.083 2.198-1.839 0.877-1.756 0.629-3.898 0.246-5.461s-1.73-3.348-2.497-3.761c-0.768-0.41-1.482-0.549-1.867-0.465l-3.813 0.714z"></path>
<path fill="#333333" d="M25.636 7.671c-0.934-2.99-3.156-3.566-4.885-3.512-1.73 0.056-2.855 1.098-3.759 2.387-0.906 1.291-2.057 0.329-2.057 0.329-2.881-2.277-5.656-0.3-5.656-0.3-2.826 2.139-1.838 5.186-1.838 5.186 1.043 3.073 3.759 3.512 5.297 3.293 1.537-0.22 2.66-1.509 2.66-1.509l2.524 13.393 3.402-0.632-2.441-13.445c4.529 2.11 7.686-2.197 6.752-5.189zM11.914 12.419c-1.074 0-1.949-0.872-1.949-1.948 0-1.077 0.875-1.948 1.949-1.948 1.077 0 1.949 0.871 1.949 1.948 0 1.076-0.872 1.948-1.949 1.948zM19.159 8.742c0-1.076 0.874-1.949 1.948-1.949 1.076 0 1.949 0.874 1.949 1.949s-0.874 1.949-1.949 1.949c-1.074-0.002-1.948-0.874-1.948-1.949z"></path>
</svg>
