<?xml version="1.0" encoding="utf-8"?>
<!-- Generated by IcoMoon.io -->
<!DOCTYPE svg PUBLIC "-//W3C//DTD SVG 1.1//EN" "http://www.w3.org/Graphics/SVG/1.1/DTD/svg11.dtd">
<svg version="1.1" xmlns="http://www.w3.org/2000/svg" xmlns:xlink="http://www.w3.org/1999/xlink" width="32" height="32" viewBox="0 0 32 32">
<path fill="#333333" d="M18.509 28.033l-4.896 1.049c-0.72 0.154-1.179 0.863-1.025 1.583 0.134 0.625 0.687 1.054 1.303 1.054 0.093 0 0.187-0.009 0.281-0.029l4.896-1.049c0.72-0.154 1.179-0.863 1.025-1.583-0.155-0.719-0.863-1.178-1.583-1.025z"></path>
<path fill="#333333" d="M16.341 21.552c0.736 0 1.333-0.597 1.333-1.333v-6.018l3.135-1.961c0.624-0.39 0.814-1.213 0.424-1.837-0.391-0.625-1.215-0.816-1.838-0.423l-3.025 1.892-3.024-1.892c-0.624-0.391-1.447-0.201-1.838 0.423-0.39 0.625-0.201 1.447 0.424 1.837l3.075 1.925v6.055c0 0.737 0.597 1.333 1.333 1.333z"></path>
<path fill="#333333" d="M28.396 11.912c-0.173-6.239-5.53-11.457-11.977-11.631l-0.876 0.001c-6.411 0.174-11.767 5.391-11.94 11.612-0.17 4.085 1.651 7.911 4.871 10.237 0.597 0.431 1.43 0.296 1.862-0.3 0.431-0.597 0.296-1.431-0.301-1.861-2.492-1.801-3.901-4.778-3.767-7.984 0.135-4.848 4.328-8.903 9.311-9.039l0.804-0.001c5.019 0.136 9.211 4.191 9.347 9.057 0.133 3.187-1.275 6.165-3.787 7.979-1.221 0.915-2.013 2.224-2.278 3.689l-7.898 1.692c-0.72 0.154-1.179 0.863-1.025 1.583 0.134 0.625 0.687 1.054 1.302 1.054 0.093 0 0.187-0.009 0.281-0.029l8.586-1.84c0.078-0.016 0.151-0.042 0.221-0.071 0.621-0.115 1.093-0.655 1.093-1.309 0-1.046 0.48-2.007 1.298-2.621 3.219-2.324 5.040-6.151 4.871-10.218z"></path>
</svg>
