<?xml version="1.0" encoding="utf-8"?>
<!-- Generated by IcoMoon.io -->
<!DOCTYPE svg PUBLIC "-//W3C//DTD SVG 1.1//EN" "http://www.w3.org/Graphics/SVG/1.1/DTD/svg11.dtd">
<svg version="1.1" xmlns="http://www.w3.org/2000/svg" xmlns:xlink="http://www.w3.org/1999/xlink" width="32" height="32" viewBox="0 0 32 32">
<path fill="#333333" d="M26.667 21.333v-14.667c0-1.838-1.495-3.333-3.333-3.333h-20c-1.838 0-3.333 1.495-3.333 3.333v14.667c0 1.838 1.495 3.333 3.333 3.333h20c1.838 0 3.333-1.495 3.333-3.333zM3.333 6h20c0.367 0 0.667 0.299 0.667 0.667v13.448l-7.452-7.452c-0.25-0.25-0.589-0.391-0.943-0.391s-0.693 0.141-0.943 0.391l-2.241 2.242-5.426-5.426c-0.521-0.521-1.365-0.521-1.885 0l-2.443 2.443v-5.255c0-0.368 0.299-0.667 0.667-0.667zM2.667 21.333v-5.711c0.098-0.057 0.192-0.122 0.276-0.206l3.11-3.11 7.005 7.005c0.261 0.26 0.601 0.391 0.943 0.391s0.683-0.13 0.943-0.391c0.521-0.521 0.521-1.365 0-1.886l-0.636-0.636 1.299-1.299 6.509 6.509h-18.781c-0.367 0-0.667-0.299-0.667-0.667z"></path>
<path fill="#333333" d="M28.667 8.067v16.599c0 1.103-0.897 2-2 2h-21.933c0.31 1.519 1.656 2.667 3.266 2.667h18.667c2.573 0 4.667-2.093 4.667-4.667v-13.333c0-1.61-1.147-2.956-2.667-3.266z"></path>
</svg>
