<?xml version="1.0" encoding="utf-8"?>
<!-- Generated by IcoMoon.io -->
<!DOCTYPE svg PUBLIC "-//W3C//DTD SVG 1.1//EN" "http://www.w3.org/Graphics/SVG/1.1/DTD/svg11.dtd">
<svg version="1.1" xmlns="http://www.w3.org/2000/svg" xmlns:xlink="http://www.w3.org/1999/xlink" width="32" height="32" viewBox="0 0 32 32">
<path fill="#333333" d="M27.333 4h-22.667c-1.838 0-3.333 1.495-3.333 3.333v17.333c0 1.838 1.495 3.333 3.333 3.333h22.667c1.838 0 3.333-1.495 3.333-3.333v-17.333c0-1.838-1.495-3.333-3.333-3.333zM4.667 6.667h22.667c0.367 0 0.667 0.299 0.667 0.667v16.115l-8.267-8.268c-0.361-0.354-0.853-0.573-1.399-0.573s-1.041 0.22-1.401 0.575l-2.266 2.266-5.936-5.936c-0.36-0.353-0.853-0.571-1.397-0.571s-1.037 0.219-1.397 0.571l-1.937 1.936v-6.115c0-0.368 0.299-0.667 0.667-0.667zM4 24.667v-7.448l3.333-3.333 8.391 8.391c0.26 0.261 0.601 0.391 0.943 0.391s0.683-0.13 0.943-0.391c0.521-0.521 0.521-1.365 0-1.886l-1.057-1.057 1.781-1.781 7.781 7.781h-21.448c-0.367 0-0.667-0.299-0.667-0.667z"></path>
</svg>
