<?xml version="1.0" encoding="utf-8"?>
<!-- Generated by IcoMoon.io -->
<!DOCTYPE svg PUBLIC "-//W3C//DTD SVG 1.1//EN" "http://www.w3.org/Graphics/SVG/1.1/DTD/svg11.dtd">
<svg version="1.1" xmlns="http://www.w3.org/2000/svg" xmlns:xlink="http://www.w3.org/1999/xlink" width="32" height="32" viewBox="0 0 32 32">
<path fill="#333333" d="M3.998 6.003h24c0.736 0 1.333-0.596 1.333-1.333 0-0.735-0.597-1.333-1.333-1.333h-24c-0.736 0-1.333 0.598-1.333 1.333 0 0.737 0.597 1.333 1.333 1.333z"></path>
<path fill="#333333" d="M27.998 10.669h-10.667c-0.736 0-1.333 0.598-1.333 1.333 0 0.737 0.597 1.333 1.333 1.333h10.667c0.736 0 1.333-0.596 1.333-1.333 0-0.735-0.597-1.333-1.333-1.333z"></path>
<path fill="#333333" d="M27.998 18.669h-10.667c-0.736 0-1.333 0.598-1.333 1.333 0 0.737 0.597 1.333 1.333 1.333h10.667c0.736 0 1.333-0.596 1.333-1.333 0-0.735-0.597-1.333-1.333-1.333z"></path>
<path fill="#333333" d="M27.998 26.003h-24c-0.736 0-1.333 0.598-1.333 1.333 0 0.737 0.597 1.333 1.333 1.333h24c0.736 0 1.333-0.596 1.333-1.333 0-0.735-0.597-1.333-1.333-1.333z"></path>
<path fill="#333333" d="M3.998 17.336h6.435l-1.995 2.347 0.001 0.001c-0.269 0.244-0.441 0.593-0.441 0.985 0 0.737 0.597 1.333 1.333 1.333 0.345 0 0.655-0.134 0.891-0.348l0.001 0.002 0.010-0.011c0.079-0.073 0.15-0.153 0.209-0.242l3.833-4.435-0.013-0.013c0.247-0.242 0.401-0.579 0.401-0.952 0-0.369-0.151-0.703-0.394-0.945l-3.97-4.632c-0.243-0.259-0.586-0.423-0.969-0.423-0.736 0-1.333 0.598-1.333 1.333 0 0.369 0.15 0.703 0.392 0.945l2.049 2.389h-6.441c-0.736 0-1.333 0.598-1.333 1.333 0 0.737 0.597 1.333 1.333 1.333z"></path>
</svg>
