<?xml version="1.0" encoding="utf-8"?>
<!-- Generated by IcoMoon.io -->
<!DOCTYPE svg PUBLIC "-//W3C//DTD SVG 1.1//EN" "http://www.w3.org/Graphics/SVG/1.1/DTD/svg11.dtd">
<svg version="1.1" xmlns="http://www.w3.org/2000/svg" xmlns:xlink="http://www.w3.org/1999/xlink" width="32" height="32" viewBox="0 0 32 32">
<path fill="#333333" d="M3.998 6.003h24c0.736 0 1.333-0.596 1.333-1.333 0-0.735-0.597-1.333-1.333-1.333h-24c-0.736 0-1.333 0.598-1.333 1.333 0 0.737 0.597 1.333 1.333 1.333z"></path>
<path fill="#333333" d="M27.998 10.669h-12c-0.736 0-1.333 0.598-1.333 1.333 0 0.737 0.597 1.333 1.333 1.333h12c0.736 0 1.333-0.596 1.333-1.333 0-0.735-0.597-1.333-1.333-1.333z"></path>
<path fill="#333333" d="M27.998 18.669h-12c-0.736 0-1.333 0.598-1.333 1.333 0 0.737 0.597 1.333 1.333 1.333h12c0.736 0 1.333-0.596 1.333-1.333 0-0.735-0.597-1.333-1.333-1.333z"></path>
<path fill="#333333" d="M27.998 26.003h-24c-0.736 0-1.333 0.598-1.333 1.333 0 0.737 0.597 1.333 1.333 1.333h24c0.736 0 1.333-0.596 1.333-1.333 0-0.735-0.597-1.333-1.333-1.333z"></path>
<path fill="#333333" d="M2.665 20.669c0 0.737 0.597 1.333 1.333 1.333 0.243 0 0.468-0.070 0.664-0.183l0.003 0.004 0.034-0.023c0.035-0.022 0.068-0.046 0.101-0.071l6.574-4.6c0.029-0.018 0.055-0.038 0.083-0.058l0.044-0.031-0.003-0.003c0.303-0.245 0.5-0.613 0.5-1.033 0-0.418-0.197-0.787-0.499-1.032l0.001-0.001-0.023-0.016c-0.039-0.030-0.079-0.059-0.121-0.085l-6.523-4.564c-0.229-0.185-0.517-0.301-0.835-0.301-0.736 0-1.333 0.598-1.333 1.333 0 0.377 0.157 0.716 0.409 0.959l-0.001 0.001 0.013 0.009c0.088 0.083 0.189 0.151 0.297 0.209l4.975 3.485-5.095 3.561c-0.359 0.237-0.597 0.645-0.597 1.108z"></path>
</svg>
