<?xml version="1.0" encoding="utf-8"?>
<!-- Generated by IcoMoon.io -->
<!DOCTYPE svg PUBLIC "-//W3C//DTD SVG 1.1//EN" "http://www.w3.org/Graphics/SVG/1.1/DTD/svg11.dtd">
<svg version="1.1" xmlns="http://www.w3.org/2000/svg" xmlns:xlink="http://www.w3.org/1999/xlink" width="32" height="32" viewBox="0 0 32 32">
<path fill="#333333" d="M14.66 13.341v6.667c0 0.736 0.597 1.333 1.333 1.333s1.333-0.597 1.333-1.333v-6.667c0-0.737-0.597-1.333-1.333-1.333s-1.333 0.596-1.333 1.333z"></path>
<path fill="#333333" d="M17.427 24.008c0 0.792-0.642 1.433-1.433 1.433s-1.433-0.642-1.433-1.433c0-0.792 0.642-1.433 1.433-1.433s1.433 0.642 1.433 1.433z"></path>
<path fill="#333333" d="M31.813 27.326l-14.673-24.667c-0.24-0.404-0.676-0.652-1.146-0.652s-0.905 0.248-1.146 0.653l-14.66 24.667c-0.245 0.412-0.25 0.924-0.013 1.341s0.679 0.674 1.159 0.674h29.333c0.479 0 0.922-0.257 1.159-0.675s0.231-0.929-0.013-1.341zM3.677 26.675l12.317-20.725 12.328 20.725h-24.645z"></path>
</svg>
