<?xml version="1.0" encoding="utf-8"?>
<!-- Generated by IcoMoon.io -->
<!DOCTYPE svg PUBLIC "-//W3C//DTD SVG 1.1//EN" "http://www.w3.org/Graphics/SVG/1.1/DTD/svg11.dtd">
<svg version="1.1" xmlns="http://www.w3.org/2000/svg" xmlns:xlink="http://www.w3.org/1999/xlink" width="32" height="32" viewBox="0 0 32 32">
<path fill="#333333" d="M16 1.333c-8.1 0-14.667 6.567-14.667 14.667s6.567 14.667 14.667 14.667 14.667-6.567 14.667-14.667-6.567-14.667-14.667-14.667zM16 28c-6.627 0-11.999-5.373-11.999-12s5.373-12 11.999-12c6.627 0 12 5.373 12 12s-5.373 12-12 12z"></path>
<path fill="#333333" d="M17.533 9.533c0 0.847-0.686 1.533-1.533 1.533s-1.533-0.687-1.533-1.533c0-0.847 0.687-1.533 1.533-1.533s1.533 0.687 1.533 1.533z"></path>
<path fill="#333333" d="M16 13.333c-0.736 0-1.333 0.597-1.333 1.333v8c0 0.736 0.597 1.333 1.333 1.333s1.333-0.597 1.333-1.333v-8c0-0.736-0.597-1.333-1.333-1.333z"></path>
</svg>
