<?xml version="1.0" encoding="utf-8"?>
<!-- Generated by IcoMoon.io -->
<!DOCTYPE svg PUBLIC "-//W3C//DTD SVG 1.1//EN" "http://www.w3.org/Graphics/SVG/1.1/DTD/svg11.dtd">
<svg version="1.1" xmlns="http://www.w3.org/2000/svg" xmlns:xlink="http://www.w3.org/1999/xlink" width="32" height="32" viewBox="0 0 32 32">
<path fill="#333333" d="M25.283 4.186h-18.566c-1.405 0-2.542 1.139-2.542 2.543v18.566c0 1.404 1.137 2.543 2.542 2.543h18.566c1.405 0 2.545-1.139 2.545-2.543v-18.567c0-1.402-1.139-2.542-2.545-2.542zM11.706 13.738c0.099-0.192 0.21-0.376 0.335-0.551 0.004-0.003 0.006-0.007 0.008-0.013 0.090-0.125 0.185-0.246 0.285-0.363 0.008-0.008 0.014-0.017 0.019-0.024 0.097-0.111 0.2-0.218 0.306-0.32 0.011-0.010 0.022-0.019 0.033-0.031 0.031-0.031 0.065-0.061 0.1-0.089 0.011-0.013 0.025-0.024 0.039-0.035 0.058-0.053 0.118-0.102 0.181-0.149 0.014-0.014 0.032-0.026 0.050-0.040 0.031-0.024 0.061-0.047 0.095-0.071 0.022-0.017 0.044-0.032 0.068-0.047 0.040-0.028 0.079-0.056 0.12-0.083 0.038-0.025 0.077-0.049 0.115-0.072 0.028-0.019 0.058-0.036 0.088-0.053s0.058-0.035 0.089-0.052c0.028-0.017 0.054-0.031 0.085-0.049 0.053-0.028 0.107-0.056 0.16-0.082 0.025-0.011 0.044-0.022 0.070-0.032 0.040-0.018 0.081-0.036 0.122-0.054 0.026-0.011 0.050-0.021 0.075-0.032 0.052-0.021 0.1-0.039 0.149-0.058 0.022-0.008 0.040-0.015 0.061-0.024 0.056-0.021 0.114-0.040 0.168-0.057 0.024-0.008 0.046-0.014 0.068-0.022 0.052-0.015 0.103-0.029 0.153-0.044 0.018-0.003 0.035-0.008 0.052-0.014 0.067-0.017 0.135-0.032 0.203-0.046 0.019-0.003 0.039-0.007 0.058-0.011 0.054-0.011 0.107-0.021 0.164-0.029 0.018-0.003 0.035-0.006 0.054-0.008 0.071-0.010 0.143-0.019 0.213-0.028 0.014-0.001 0.025-0.003 0.039-0.003 0.060-0.006 0.122-0.011 0.182-0.014 0.022-0.001 0.039-0.001 0.060-0.003 0.075-0.004 0.149-0.004 0.225-0.004 0.074 0 0.146 0 0.223 0.006 0.018 0.001 0.038 0.001 0.058 0.003 0.061 0.003 0.122 0.008 0.184 0.014 0.014 0 0.025 0.001 0.040 0.003 0.070 0.007 0.14 0.017 0.21 0.028 0.019 0.003 0.038 0.006 0.057 0.008 0.054 0.008 0.107 0.018 0.163 0.029 0.019 0.004 0.038 0.008 0.058 0.011 0.067 0.014 0.135 0.029 0.203 0.046 0.017 0.004 0.032 0.010 0.049 0.014 0.054 0.014 0.102 0.029 0.153 0.044 0.024 0.007 0.047 0.013 0.070 0.022 0.056 0.017 0.111 0.036 0.168 0.057 0.021 0.007 0.042 0.015 0.060 0.024 0.052 0.019 0.102 0.038 0.15 0.058 0.025 0.011 0.052 0.022 0.077 0.032 0.039 0.017 0.081 0.036 0.122 0.053 0.021 0.011 0.046 0.022 0.067 0.033 0.056 0.028 0.107 0.054 0.164 0.082 0.028 0.017 0.054 0.031 0.082 0.049 0.031 0.015 0.063 0.035 0.090 0.052 0.031 0.017 0.060 0.033 0.089 0.053 0.035 0.024 0.077 0.049 0.113 0.072 0.040 0.028 0.082 0.056 0.121 0.083 0.024 0.015 0.044 0.031 0.067 0.047 0.032 0.024 0.064 0.047 0.095 0.072 0.018 0.013 0.033 0.026 0.050 0.039 0.063 0.047 0.124 0.097 0.181 0.149 0.015 0.011 0.028 0.022 0.040 0.033 0.032 0.029 0.067 0.058 0.099 0.089 0.011 0.011 0.021 0.021 0.032 0.031 0.106 0.103 0.209 0.21 0.306 0.32 0.008 0.007 0.013 0.015 0.022 0.024 0.099 0.115 0.195 0.236 0.284 0.363 0.003 0.006 0.006 0.010 0.008 0.013 0.124 0.175 0.236 0.359 0.335 0.551 0.348 0.668 0.545 1.427 0.545 2.232 0 2.673-2.168 4.839-4.839 4.839-2.674 0-4.84-2.166-4.84-4.839 0.001-0.804 0.199-1.564 0.548-2.232zM25.092 23.587c0 0.838-0.68 1.515-1.517 1.515h-15.151c-0.835 0-1.515-0.679-1.515-1.515v-9.848h2.070c-0.224 0.704-0.345 1.453-0.345 2.232 0 4.067 3.299 7.364 7.367 7.364 4.067 0 7.364-3.299 7.364-7.364 0-0.779-0.12-1.528-0.344-2.232h2.070v9.848zM25.131 9.939c0 0.658-0.533 1.191-1.188 1.191h-1.912c-0.658 0-1.191-0.533-1.191-1.191v-1.912c0-0.657 0.534-1.19 1.191-1.19h1.912c0.657 0 1.188 0.533 1.188 1.19v1.912z"></path>
</svg>
