<?xml version="1.0" encoding="utf-8"?>
<!-- Generated by IcoMoon.io -->
<!DOCTYPE svg PUBLIC "-//W3C//DTD SVG 1.1//EN" "http://www.w3.org/Graphics/SVG/1.1/DTD/svg11.dtd">
<svg version="1.1" xmlns="http://www.w3.org/2000/svg" xmlns:xlink="http://www.w3.org/1999/xlink" width="32" height="32" viewBox="0 0 32 32">
<path fill="#333333" d="M11.44 13.488l5.401-5.268c0 0 1.904-1.948 4.604-0.797 0 0 0.176-2.524 2.92-2.745 0 0 2.967 0.044 2.967 3.011 0 0 0.133 2.479-2.612 2.967 0 0 0.797 3.188-1.417 5.091l-2.080-2.081c0 0 1.504-1.284 0.088-2.877 0 0-1.372-1.195-2.877 0.221l-4.737 4.781-2.256-2.301z"></path>
<path fill="#333333" d="M18.537 11.444l5.261 5.407c0 0 1.947 1.907 0.792 4.605 0 0 2.524 0.18 2.741 2.925 0 0-0.047 2.967-3.015 2.963 0 0-2.479 0.131-2.963-2.615 0 0-3.189 0.795-5.088-1.421l2.083-2.079c0 0 1.283 1.507 2.877 0.091 0 0 1.197-1.371-0.217-2.877l-4.776-4.743 2.304-2.256z"></path>
<path fill="#333333" d="M20.568 18.549l-5.408 5.261c0 0-1.907 1.945-4.605 0.792 0 0-0.18 2.524-2.924 2.741 0 0-2.967-0.048-2.963-3.013 0 0-0.131-2.479 2.616-2.964 0 0-0.795-3.188 1.421-5.089l2.079 2.084c0 0-1.508 1.281-0.091 2.877 0 0 1.369 1.196 2.877-0.219l4.743-4.776 2.255 2.305z"></path>
<path fill="#333333" d="M13.444 20.587l-5.253-5.415c0 0-1.944-1.909-0.787-4.607 0 0-2.524-0.183-2.737-2.928 0 0 0.052-2.967 3.019-2.959 0 0 2.479-0.128 2.959 2.617 0 0 3.191-0.788 5.087 1.431l-2.084 2.076c0 0-1.281-1.508-2.877-0.096 0 0-1.199 1.369 0.213 2.877l4.769 4.749-2.308 2.253z"></path>
</svg>
