<?xml version="1.0" encoding="utf-8"?>
<!-- Generated by IcoMoon.io -->
<!DOCTYPE svg PUBLIC "-//W3C//DTD SVG 1.1//EN" "http://www.w3.org/Graphics/SVG/1.1/DTD/svg11.dtd">
<svg version="1.1" xmlns="http://www.w3.org/2000/svg" xmlns:xlink="http://www.w3.org/1999/xlink" width="32" height="32" viewBox="0 0 32 32">
<path fill="#333333" d="M12.387 15.723h1.583l-0.791-1.733z"></path>
<path fill="#333333" d="M15.999 4.313c-6.996 0-12.665 4.517-12.665 10.088 0 3.541 2.292 6.655 5.759 8.455l-0.957 4.96 5.477-3.508c0.772 0.117 1.571 0.181 2.385 0.181 6.995 0 12.667-4.517 12.667-10.088 0.001-5.571-5.671-10.088-12.665-10.088zM9.579 17.387c0 0.14-0.057 0.279-0.156 0.377-0.1 0.1-0.237 0.157-0.379 0.157h-0.12c-0.139 0-0.277-0.057-0.377-0.159-0.099-0.097-0.155-0.236-0.155-0.376v-4.411h-1.299c-0.108 0-0.211-0.029-0.3-0.084-0.085-0.053-0.151-0.128-0.192-0.216-0.027-0.059-0.043-0.124-0.043-0.189 0-0.064 0.017-0.131 0.044-0.191 0.027-0.057 0.065-0.111 0.113-0.155 0.101-0.093 0.236-0.144 0.377-0.144h3.768c0.105 0 0.209 0.028 0.297 0.084 0.085 0.055 0.156 0.129 0.196 0.216 0.025 0.060 0.039 0.125 0.039 0.189s-0.013 0.131-0.037 0.189c-0.031 0.059-0.068 0.112-0.116 0.156-0.101 0.093-0.235 0.144-0.377 0.144h-1.284v4.411zM15.892 17.66c-0.056 0.088-0.135 0.159-0.229 0.201l-0.112 0.049c-0.16 0.072-0.353 0.060-0.504-0.035-0.088-0.056-0.157-0.135-0.2-0.229l-0.437-0.96h-2.464l-0.433 0.953c-0.044 0.095-0.112 0.173-0.2 0.229-0.152 0.096-0.347 0.109-0.507 0.035l-0.109-0.049c-0.093-0.043-0.176-0.112-0.229-0.201-0.053-0.084-0.083-0.184-0.083-0.285 0-0.076 0.016-0.151 0.047-0.22l2.141-4.695 0.017-0.044c0.015-0.055 0.036-0.105 0.067-0.153 0.008-0.015 0.019-0.027 0.041-0.057 0.043-0.065 0.097-0.121 0.163-0.163 0.087-0.053 0.187-0.083 0.287-0.083 0.023 0 0.041 0.001 0.087 0.005 0.095 0.004 0.187 0.032 0.264 0.083 0.047 0.028 0.087 0.064 0.137 0.12 0.027 0.029 0.049 0.059 0.072 0.091 0.031 0.052 0.053 0.109 0.068 0.169l2.271 4.993-0.153 0.245zM20.433 17.648c-0.027 0.048-0.059 0.092-0.101 0.129-0.1 0.092-0.235 0.143-0.376 0.143h-3.109c-0.019 0-0.037-0.003-0.056-0.003-0.087-0.009-0.172-0.037-0.241-0.081-0.079-0.047-0.139-0.111-0.183-0.185l-0.052-0.087v-5.033c0-0.139 0.057-0.277 0.156-0.377 0.099-0.099 0.235-0.156 0.376-0.156h0.121c0.139 0 0.277 0.056 0.375 0.157 0.1 0.099 0.156 0.236 0.156 0.376v4.424h2.456c0.105 0 0.208 0.028 0.297 0.083 0.043 0.028 0.083 0.060 0.116 0.096l0.213 0.239-0.148 0.276zM25.412 17.555c-0.037 0.077-0.093 0.143-0.161 0.195l-0.097 0.071c-0.156 0.115-0.379 0.132-0.553 0.047-0.076-0.037-0.143-0.093-0.193-0.163l-1.675-2.288-0.704 0.735v1.236c0 0.14-0.057 0.279-0.157 0.377-0.099 0.1-0.236 0.157-0.376 0.157h-0.12c-0.139 0-0.279-0.057-0.377-0.157-0.035-0.035-0.065-0.075-0.089-0.119l-0.065-0.121v-4.993c0-0.139 0.056-0.277 0.155-0.377 0.099-0.099 0.237-0.156 0.377-0.156h0.123c0.139 0 0.275 0.056 0.375 0.157 0.099 0.099 0.156 0.236 0.156 0.376v1.903l2.181-2.275c0.051-0.053 0.112-0.095 0.18-0.121 0.188-0.079 0.423-0.039 0.575 0.105l0.087 0.084c0.055 0.052 0.093 0.111 0.123 0.177 0.027 0.065 0.040 0.136 0.040 0.208 0 0.137-0.052 0.268-0.147 0.368l-1.5 1.564 1.8 2.457c0.067 0.089 0.103 0.201 0.103 0.313-0.001 0.084-0.023 0.165-0.057 0.24z"></path>
</svg>
