<?xml version="1.0" encoding="utf-8"?>
<!-- Generated by IcoMoon.io -->
<!DOCTYPE svg PUBLIC "-//W3C//DTD SVG 1.1//EN" "http://www.w3.org/Graphics/SVG/1.1/DTD/svg11.dtd">
<svg version="1.1" xmlns="http://www.w3.org/2000/svg" xmlns:xlink="http://www.w3.org/1999/xlink" width="32" height="32" viewBox="0 0 32 32">
<path fill="#333333" d="M21.632 4.48h-11.263c-0.756 0-1.369 0.584-1.369 1.303v11.423c0 0.719 0.613 1.303 1.369 1.303h5.192c-0.036 1.271-0.576 2.664-1.395 3.883-0.791 1.173-2.089 2.329-2.796 2.883-0.019 0.015-0.035 0.028-0.052 0.043-0.152 0.139-0.263 0.3-0.265 0.523-0.003 0.169 0.089 0.301 0.193 0.44l0.027 0.028 3.595 3.857c0 0 0.176 0.176 0.321 0.211 0.164 0.037 0.349 0.043 0.477-0.053 6.269-4.613 7.173-10.399 7.332-13.531 0-0.017 0.001-11.007 0.001-11.007 0-0.72-0.613-1.304-1.368-1.304z"></path>
</svg>
