<?xml version="1.0" encoding="utf-8"?>
<!-- Generated by IcoMoon.io -->
<!DOCTYPE svg PUBLIC "-//W3C//DTD SVG 1.1//EN" "http://www.w3.org/Graphics/SVG/1.1/DTD/svg11.dtd">
<svg version="1.1" xmlns="http://www.w3.org/2000/svg" xmlns:xlink="http://www.w3.org/1999/xlink" width="32" height="32" viewBox="0 0 32 32">
<path fill="#333333" d="M26.855 2.559c-1.243-1.070-2.83-1.659-4.47-1.659-2 0-3.895 0.868-5.198 2.383-1.195 1.389-1.777 3.158-1.641 4.984 0.102 1.354 0.592 2.618 1.404 3.667l-14.151 16.442c-0.502 0.583-0.436 1.461 0.147 1.962 0.263 0.226 0.586 0.337 0.908 0.337 0.392 0 0.78-0.164 1.055-0.484l1.542-1.792 1.599 1.377c0.543 0.467 1.213 0.697 1.879 0.697 0.811 0 1.618-0.34 2.189-1.001l4.138-4.81c0.503-0.584 0.747-1.328 0.69-2.097s-0.411-1.469-0.995-1.97l-1.599-1.376 4.71-5.473c1.009 0.56 2.15 0.864 3.318 0.864 2 0 3.895-0.868 5.199-2.383 2.466-2.865 2.142-7.202-0.724-9.668zM14.136 22.704c0.036 0.031 0.042 0.107 0.010 0.143l-4.138 4.809c-0.037 0.042-0.102 0.047-0.143 0.011l-1.599-1.376 4.272-4.964 1.599 1.377zM25.471 10.412c-0.774 0.9-1.901 1.416-3.089 1.416-0.973 0-1.916-0.349-2.654-0.985-0.825-0.71-1.323-1.698-1.405-2.783-0.081-1.086 0.265-2.137 0.975-2.962 0.774-0.899 1.9-1.415 3.089-1.415 0.973 0 1.916 0.35 2.654 0.985 1.703 1.465 1.896 4.042 0.431 5.744z"></path>
</svg>
