<?xml version="1.0" encoding="utf-8"?>
<!-- Generated by IcoMoon.io -->
<!DOCTYPE svg PUBLIC "-//W3C//DTD SVG 1.1//EN" "http://www.w3.org/Graphics/SVG/1.1/DTD/svg11.dtd">
<svg version="1.1" xmlns="http://www.w3.org/2000/svg" xmlns:xlink="http://www.w3.org/1999/xlink" width="32" height="32" viewBox="0 0 32 32">
<path fill="#333333" d="M5.333 10h2.667v2.667h-2.667v-2.667z"></path>
<path fill="#333333" d="M10 10h2.667v2.667h-2.667v-2.667z"></path>
<path fill="#333333" d="M14.667 10h2.667v2.667h-2.667v-2.667z"></path>
<path fill="#333333" d="M19.333 10h2.667v2.667h-2.667v-2.667z"></path>
<path fill="#333333" d="M24 10h2.667v2.667h-2.667v-2.667z"></path>
<path fill="#333333" d="M5.333 14.667h2.667v2.667h-2.667v-2.667z"></path>
<path fill="#333333" d="M10 14.667h2.667v2.667h-2.667v-2.667z"></path>
<path fill="#333333" d="M14.667 14.667h2.667v2.667h-2.667v-2.667z"></path>
<path fill="#333333" d="M19.333 14.667h2.667v2.667h-2.667v-2.667z"></path>
<path fill="#333333" d="M24 14.667h2.667v2.667h-2.667v-2.667z"></path>
<path fill="#333333" d="M5.333 19.333h2.667v2.667h-2.667v-2.667z"></path>
<path fill="#333333" d="M24 19.333h2.667v2.667h-2.667v-2.667z"></path>
<path fill="#333333" d="M10 19.333h12v2.667h-12v-2.667z"></path>
<path fill="#333333" d="M28 5.333h-24c-2.206 0-4 1.794-4 4v13.333c0 2.206 1.794 4 4 4h24c2.206 0 4-1.794 4-4v-13.333c0-2.206-1.794-4-4-4zM29.333 22.667c0 0.735-0.598 1.333-1.333 1.333h-24c-0.735 0-1.333-0.598-1.333-1.333v-13.333c0-0.735 0.598-1.333 1.333-1.333h24c0.735 0 1.333 0.598 1.333 1.333v13.333z"></path>
</svg>
