<?xml version="1.0" encoding="utf-8"?>
<!-- Generated by IcoMoon.io -->
<!DOCTYPE svg PUBLIC "-//W3C//DTD SVG 1.1//EN" "http://www.w3.org/Graphics/SVG/1.1/DTD/svg11.dtd">
<svg version="1.1" xmlns="http://www.w3.org/2000/svg" xmlns:xlink="http://www.w3.org/1999/xlink" width="32" height="32" viewBox="0 0 32 32">
<path fill="#333333" d="M7.257 8.573c0 0-0.029-2.409 1.719-3.6 1.748-1.19 4.473-0.555 5.479 1.455 0 0 0.372 0.557 0.321 1.854v3.944l4.287-6.167c0 0 1.032-1.596 3.044-1.684 2.011-0.090 3.971 1.896 3.865 3.75-0.106 1.853-0.929 2.487-0.929 2.487l-3.519 5.083 4.763 6.089c0 0 0.954 1.005 0.556 2.725-0.396 1.72-1.719 3.123-4.023 3.072 0 0-1.244 0.105-2.25-1.112l-5.771-7.199-0.025 4.367c0 0 0.025 2.33-1.565 3.31-1.587 0.979-4.287 1.189-5.637-1.722 0 0-0.292-1.006-0.316-1.642v-15.009z"></path>
</svg>
