<?xml version="1.0" encoding="utf-8"?>
<!-- Generated by IcoMoon.io -->
<!DOCTYPE svg PUBLIC "-//W3C//DTD SVG 1.1//EN" "http://www.w3.org/Graphics/SVG/1.1/DTD/svg11.dtd">
<svg version="1.1" xmlns="http://www.w3.org/2000/svg" xmlns:xlink="http://www.w3.org/1999/xlink" width="32" height="32" viewBox="0 0 32 32">
<path fill="#333333" d="M31.761 25.977l-2.421-6.566v-14.695c0-1.865-1.524-3.382-3.397-3.382h-19.873c-1.873 0-3.397 1.517-3.397 3.382v14.696l-2.367 6.435c-0.473 1.118-0.383 2.308 0.247 3.271 0.635 0.97 1.71 1.549 2.873 1.549h25.147c1.143 0 2.209-0.567 2.852-1.516 0.641-0.947 0.759-2.116 0.335-3.174zM5.34 4.715c0-0.395 0.327-0.715 0.73-0.715h19.872c0.403 0 0.731 0.321 0.731 0.715v13.6h-21.333v-13.6zM29.217 27.655c-0.144 0.213-0.391 0.345-0.644 0.345h-25.147c-0.257 0-0.503-0.132-0.643-0.344-0.143-0.217-0.148-0.481-0.016-0.784 0.010-0.024 0.020-0.047 0.029-0.072l2.14-5.818h22.141l2.195 5.951c0.107 0.268 0.089 0.511-0.055 0.722z"></path>
</svg>
