<?xml version="1.0" encoding="utf-8"?>
<!-- Generated by IcoMoon.io -->
<!DOCTYPE svg PUBLIC "-//W3C//DTD SVG 1.1//EN" "http://www.w3.org/Graphics/SVG/1.1/DTD/svg11.dtd">
<svg version="1.1" xmlns="http://www.w3.org/2000/svg" xmlns:xlink="http://www.w3.org/1999/xlink" width="32" height="32" viewBox="0 0 32 32">
<path fill="#333333" d="M26 2h-20c-2.209 0-4 1.791-4 4v20.007c0 2.209 1.791 4 4 4h20c2.209 0 4-1.791 4-4v-20.007c0-2.209-1.791-4-4-4zM6 4.667h20c0.736 0 1.333 0.597 1.333 1.333v4.007h-22.667v-4.007c0-0.736 0.597-1.333 1.333-1.333zM4.667 26.007v-13.334h14.667v14.667h-13.333c-0.736 0-1.333-0.597-1.333-1.333zM26 27.341h-4v-14.667h5.333v13.334c0 0.736-0.597 1.333-1.333 1.333z"></path>
</svg>
