<?xml version="1.0" encoding="utf-8"?>
<!-- Generated by IcoMoon.io -->
<!DOCTYPE svg PUBLIC "-//W3C//DTD SVG 1.1//EN" "http://www.w3.org/Graphics/SVG/1.1/DTD/svg11.dtd">
<svg version="1.1" xmlns="http://www.w3.org/2000/svg" xmlns:xlink="http://www.w3.org/1999/xlink" width="32" height="32" viewBox="0 0 32 32">
<path fill="#333333" d="M26 2h-20c-2.209 0-4 1.791-4 4v20c0 2.209 1.791 4 4 4h20c2.209 0 4-1.791 4-4v-20c0-2.209-1.791-4-4-4zM6 4.667h20c0.736 0 1.333 0.597 1.333 1.333v4h-22.667v-4c0-0.736 0.597-1.333 1.333-1.333zM12.667 12.667h14.667v6.007h-14.667v-6.007zM4.667 26.001v-13.334h5.333v14.667h-4c-0.736 0-1.333-0.598-1.333-1.333zM26 27.334h-13.333v-5.995h14.667v4.661c0 0.735-0.597 1.333-1.333 1.333z"></path>
</svg>
