<?xml version="1.0" encoding="utf-8"?>
<!-- Generated by IcoMoon.io -->
<!DOCTYPE svg PUBLIC "-//W3C//DTD SVG 1.1//EN" "http://www.w3.org/Graphics/SVG/1.1/DTD/svg11.dtd">
<svg version="1.1" xmlns="http://www.w3.org/2000/svg" xmlns:xlink="http://www.w3.org/1999/xlink" width="32" height="32" viewBox="0 0 32 32">
<path fill="#333333" d="M26 1.999h-20c-2.209 0-4 1.791-4 4v20c0 2.209 1.791 4 4 4h20c2.209 0 4-1.791 4-4v-20c0-2.209-1.791-4-4-4zM6 4.666h20c0.736 0 1.333 0.597 1.333 1.333v4.007h-22.667v-4.007c0-0.737 0.597-1.333 1.333-1.333zM4.667 25.999v-13.326h5.333v14.659h-4c-0.736 0-1.333-0.597-1.333-1.333zM26 27.333h-13.333v-14.659h14.667v13.326c0 0.737-0.597 1.333-1.333 1.333z"></path>
</svg>
