<?xml version="1.0" encoding="utf-8"?>
<!-- Generated by IcoMoon.io -->
<!DOCTYPE svg PUBLIC "-//W3C//DTD SVG 1.1//EN" "http://www.w3.org/Graphics/SVG/1.1/DTD/svg11.dtd">
<svg version="1.1" xmlns="http://www.w3.org/2000/svg" xmlns:xlink="http://www.w3.org/1999/xlink" width="32" height="32" viewBox="0 0 32 32">
<path fill="#333333" d="M30.663 2.626c-0.023-0.702-0.587-1.266-1.289-1.289-0.559-0.017-13.797-0.369-20.561 6.391-0.001 0.001-0.002 0.001-0.003 0.002-2.032 2.032-3.541 5.163-4.037 8.377-0.477 3.094 0.037 5.805 1.432 7.803l-4.483 4.484c-0.521 0.521-0.521 1.365 0 1.885 0.26 0.261 0.601 0.391 0.943 0.391s0.683-0.13 0.943-0.391l4.482-4.483c1.506 1.052 3.415 1.606 5.593 1.606 0.711 0 1.449-0.058 2.211-0.175 3.214-0.496 6.345-2.005 8.377-4.037 0.001-0.001 0.001-0.002 0.002-0.003 6.761-6.763 6.409-20 6.391-20.561zM15.486 24.591c-2.145 0.331-4.057 0.061-5.463-0.729l8.139-8.139c0.521-0.521 0.521-1.365 0-1.885s-1.365-0.521-1.885 0l-8.139 8.139c-0.79-1.405-1.060-3.318-0.729-5.463 0.406-2.634 1.666-5.277 3.287-6.898 0.001 0 0.001-0.001 0.001-0.001 4.806-4.805 13.918-5.511 17.293-5.604-0.093 3.375-0.799 12.487-5.604 17.293-0.001 0-0.001 0.001-0.001 0.001-1.621 1.622-4.265 2.882-6.899 3.288z"></path>
</svg>
