<?xml version="1.0" encoding="utf-8"?>
<!-- Generated by IcoMoon.io -->
<!DOCTYPE svg PUBLIC "-//W3C//DTD SVG 1.1//EN" "http://www.w3.org/Graphics/SVG/1.1/DTD/svg11.dtd">
<svg version="1.1" xmlns="http://www.w3.org/2000/svg" xmlns:xlink="http://www.w3.org/1999/xlink" width="32" height="32" viewBox="0 0 32 32">
<path fill="#333333" d="M28 6.667c0-2.573-2.093-4.667-4.667-4.667s-4.667 2.093-4.667 4.667 2.093 4.667 4.667 4.667 4.667-2.093 4.667-4.667zM23.333 8.667c-1.103 0-2-0.897-2-2s0.897-2 2-2 2 0.897 2 2-0.897 2-2 2z"></path>
<path fill="#333333" d="M28.333 12c-2.159 0-3.667 1.645-3.667 4v13.333c0 0.736 0.597 1.333 1.333 1.333s1.333-0.597 1.333-1.333v-13.333c0-0.885 0.337-1.333 1-1.333s1 0.449 1 1.333v4.667c0 0.736 0.597 1.333 1.333 1.333s1.333-0.597 1.333-1.333v-4.667c0-2.355-1.508-4-3.667-4z"></path>
<path fill="#333333" d="M18 12h-6.667c-0.736 0-1.333 0.597-1.333 1.333s0.597 1.333 1.333 1.333h6.667c0.598 0 1.333 0.735 1.333 1.333v13.333c0 0.736 0.597 1.333 1.333 1.333s1.333-0.597 1.333-1.333v-13.333c0-2.056-1.944-4-4-4z"></path>
<path fill="#333333" d="M16 18.667h-13.333v-14h13.333c0.736 0 1.333-0.597 1.333-1.333s-0.597-1.333-1.333-1.333h-14.667c-0.737 0-1.333 0.597-1.333 1.333v16.667c0 0.736 0.597 1.333 1.333 1.333h14.667c0.736 0 1.333-0.597 1.333-1.333s-0.597-1.333-1.333-1.333z"></path>
</svg>
