<?xml version="1.0" encoding="utf-8"?>
<!-- Generated by IcoMoon.io -->
<!DOCTYPE svg PUBLIC "-//W3C//DTD SVG 1.1//EN" "http://www.w3.org/Graphics/SVG/1.1/DTD/svg11.dtd">
<svg version="1.1" xmlns="http://www.w3.org/2000/svg" xmlns:xlink="http://www.w3.org/1999/xlink" width="32" height="32" viewBox="0 0 32 32">
<path fill="#333333" d="M26.667 4.667h-21.333c-2.209 0-4 1.792-4 4v14.667c0 2.209 1.791 4 4 4h21.333c2.209 0 4-1.791 4-4v-14.667c0-2.208-1.791-4-4-4zM21.562 15.055l6.438-5.421v12.355l-6.438-6.933zM4 21.989v-12.355l6.438 5.422-6.438 6.933zM5.389 7.333h21.222l-10.611 9.011-10.611-9.011zM5.333 24.667c-0.056 0-0.11-0.010-0.165-0.017l7.312-7.874 2.728 2.297c0.235 0.173 0.513 0.261 0.791 0.261s0.556-0.087 0.791-0.261l2.728-2.297 7.312 7.875c-0.055 0.007-0.109 0.017-0.165 0.017h-21.333z"></path>
</svg>
