<?xml version="1.0" encoding="utf-8"?>
<!-- Generated by IcoMoon.io -->
<!DOCTYPE svg PUBLIC "-//W3C//DTD SVG 1.1//EN" "http://www.w3.org/Graphics/SVG/1.1/DTD/svg11.dtd">
<svg version="1.1" xmlns="http://www.w3.org/2000/svg" xmlns:xlink="http://www.w3.org/1999/xlink" width="32" height="32" viewBox="0 0 32 32">
<path fill="#333333" d="M26.884 9.331c-0.228-0.445-0.686-0.725-1.186-0.725h-5.995l3.466-5.2c0.273-0.409 0.298-0.935 0.067-1.369-0.233-0.434-0.685-0.705-1.176-0.705h-9.695c-0.505 0-0.967 0.285-1.193 0.737l-6.063 12.122c-0.207 0.413-0.184 0.904 0.059 1.297s0.672 0.633 1.134 0.633h6.847l-2.696 12.94c-0.128 0.617 0.192 1.239 0.769 1.492 0.173 0.076 0.355 0.113 0.536 0.113 0.419 0 0.826-0.197 1.083-0.555l13.94-19.393c0.291-0.406 0.332-0.941 0.103-1.387zM14.346 23.448l1.748-8.389c0.082-0.393-0.017-0.802-0.271-1.113s-0.633-0.492-1.035-0.492h-6.329l4.729-9.455h6.38l-3.466 5.2c-0.273 0.409-0.298 0.935-0.067 1.369 0.233 0.433 0.684 0.704 1.176 0.704h5.885l-8.751 12.175z"></path>
</svg>
