<?xml version="1.0" encoding="utf-8"?>
<!-- Generated by IcoMoon.io -->
<!DOCTYPE svg PUBLIC "-//W3C//DTD SVG 1.1//EN" "http://www.w3.org/Graphics/SVG/1.1/DTD/svg11.dtd">
<svg version="1.1" xmlns="http://www.w3.org/2000/svg" xmlns:xlink="http://www.w3.org/1999/xlink" width="32" height="32" viewBox="0 0 32 32">
<path fill="#333333" d="M13.724 21.723l-4.391 4.391v-23.447c0-0.736-0.597-1.333-1.333-1.333s-1.333 0.597-1.333 1.333v23.447l-4.391-4.391c-0.52-0.52-1.365-0.52-1.885 0s-0.521 1.365 0 1.886l6.667 6.667c0.007 0.007 0.014 0.011 0.021 0.017 0.057 0.055 0.117 0.105 0.182 0.149 0.035 0.023 0.072 0.040 0.109 0.059 0.040 0.022 0.079 0.046 0.121 0.064 0.045 0.018 0.091 0.029 0.137 0.042 0.037 0.011 0.073 0.025 0.112 0.033 0.087 0.017 0.174 0.027 0.261 0.027s0.175-0.009 0.261-0.027c0.039-0.008 0.075-0.022 0.112-0.033 0.046-0.013 0.092-0.024 0.137-0.042 0.043-0.017 0.081-0.042 0.121-0.064 0.037-0.019 0.074-0.036 0.109-0.059 0.065-0.043 0.125-0.094 0.182-0.149 0.007-0.006 0.014-0.011 0.021-0.017l6.667-6.667c0.521-0.521 0.521-1.365 0-1.886-0.52-0.519-1.365-0.519-1.885 0z"></path>
<path fill="#333333" d="M14.667 5.333h15.333c0.736 0 1.333-0.597 1.333-1.333s-0.597-1.333-1.333-1.333h-15.333c-0.736 0-1.333 0.597-1.333 1.333s0.597 1.333 1.333 1.333z"></path>
<path fill="#333333" d="M30 10.667h-15.333c-0.736 0-1.333 0.597-1.333 1.333s0.597 1.333 1.333 1.333h15.333c0.736 0 1.333-0.597 1.333-1.333s-0.597-1.333-1.333-1.333z"></path>
<path fill="#333333" d="M30 18.667h-9.333c-0.736 0-1.333 0.597-1.333 1.333s0.597 1.333 1.333 1.333h9.333c0.736 0 1.333-0.597 1.333-1.333s-0.597-1.333-1.333-1.333z"></path>
<path fill="#333333" d="M30 26.667h-12c-0.736 0-1.333 0.597-1.333 1.333s0.597 1.333 1.333 1.333h12c0.736 0 1.333-0.597 1.333-1.333s-0.597-1.333-1.333-1.333z"></path>
</svg>
