<?xml version="1.0" encoding="utf-8"?>
<!-- Generated by IcoMoon.io -->
<!DOCTYPE svg PUBLIC "-//W3C//DTD SVG 1.1//EN" "http://www.w3.org/Graphics/SVG/1.1/DTD/svg11.dtd">
<svg version="1.1" xmlns="http://www.w3.org/2000/svg" xmlns:xlink="http://www.w3.org/1999/xlink" width="32" height="32" viewBox="0 0 32 32">
<path fill="#333333" d="M13.724 10.277c0.26 0.26 0.601 0.39 0.943 0.39s0.683-0.13 0.943-0.39c0.521-0.521 0.521-1.365 0-1.886l-6.667-6.667c-0.006-0.006-0.014-0.010-0.020-0.016-0.057-0.055-0.117-0.105-0.183-0.149-0.032-0.021-0.067-0.036-0.1-0.055-0.043-0.024-0.084-0.049-0.13-0.069-0.038-0.015-0.077-0.025-0.116-0.037-0.045-0.014-0.087-0.030-0.133-0.039-0.059-0.012-0.12-0.015-0.181-0.018-0.027-0.002-0.052-0.008-0.079-0.008s-0.052 0.006-0.079 0.008c-0.061 0.003-0.121 0.007-0.181 0.018-0.046 0.009-0.089 0.026-0.134 0.040-0.039 0.012-0.078 0.021-0.116 0.036-0.046 0.019-0.087 0.045-0.131 0.069-0.033 0.018-0.068 0.033-0.099 0.054-0.066 0.044-0.126 0.095-0.183 0.149-0.006 0.006-0.014 0.010-0.020 0.016l-6.667 6.667c-0.521 0.521-0.521 1.365 0 1.886s1.365 0.521 1.885 0l4.391-4.39v23.447c0 0.736 0.597 1.333 1.333 1.333s1.333-0.597 1.333-1.333v-23.447l4.391 4.391z"></path>
<path fill="#333333" d="M30 26.667h-15.333c-0.736 0-1.333 0.597-1.333 1.333s0.597 1.333 1.333 1.333h15.333c0.736 0 1.333-0.597 1.333-1.333s-0.597-1.333-1.333-1.333z"></path>
<path fill="#333333" d="M30 18.667h-15.333c-0.736 0-1.333 0.597-1.333 1.333s0.597 1.333 1.333 1.333h15.333c0.736 0 1.333-0.597 1.333-1.333s-0.597-1.333-1.333-1.333z"></path>
<path fill="#333333" d="M30 10.667h-9.333c-0.736 0-1.333 0.597-1.333 1.333s0.597 1.333 1.333 1.333h9.333c0.736 0 1.333-0.597 1.333-1.333s-0.597-1.333-1.333-1.333z"></path>
<path fill="#333333" d="M18 5.333h12c0.736 0 1.333-0.597 1.333-1.333s-0.597-1.333-1.333-1.333h-12c-0.736 0-1.333 0.597-1.333 1.333s0.597 1.333 1.333 1.333z"></path>
</svg>
