<?xml version="1.0" encoding="utf-8"?>
<!-- Generated by IcoMoon.io -->
<!DOCTYPE svg PUBLIC "-//W3C//DTD SVG 1.1//EN" "http://www.w3.org/Graphics/SVG/1.1/DTD/svg11.dtd">
<svg version="1.1" xmlns="http://www.w3.org/2000/svg" xmlns:xlink="http://www.w3.org/1999/xlink" width="32" height="32" viewBox="0 0 32 32">
<path fill="#333333" d="M15.553 4.083c-0.12 0.043-0.231 0.1-0.333 0.173-0.007 0.005-0.015 0.006-0.021 0.011l-5.333 4c-0.589 0.442-0.709 1.278-0.267 1.867s1.278 0.709 1.867 0.267l3.2-2.4v16l-3.2-2.4c-0.589-0.441-1.425-0.322-1.867 0.267s-0.322 1.425 0.267 1.867l5.333 4c0.007 0.005 0.014 0.006 0.021 0.011 0.101 0.073 0.213 0.131 0.333 0.173 0.024 0.009 0.048 0.015 0.073 0.023 0.119 0.035 0.243 0.060 0.374 0.060s0.255-0.025 0.374-0.060c0.025-0.007 0.049-0.014 0.073-0.023 0.12-0.043 0.231-0.1 0.333-0.173 0.007-0.005 0.014-0.006 0.021-0.011l5.333-4c0.589-0.442 0.709-1.278 0.267-1.867s-1.277-0.709-1.867-0.267l-3.2 2.4v-16l3.2 2.4c0.24 0.18 0.521 0.267 0.799 0.267 0.405 0 0.805-0.184 1.068-0.533 0.442-0.589 0.322-1.425-0.267-1.867l-5.333-4c-0.007-0.005-0.014-0.006-0.021-0.011-0.101-0.073-0.213-0.131-0.333-0.173-0.024-0.009-0.048-0.015-0.073-0.023-0.12-0.035-0.244-0.060-0.375-0.060s-0.255 0.025-0.375 0.060c-0.024 0.007-0.048 0.014-0.072 0.023z"></path>
<path fill="#333333" d="M4 4h24c0.736 0 1.333-0.597 1.333-1.333s-0.597-1.333-1.333-1.333h-24c-0.737 0-1.333 0.597-1.333 1.333s0.597 1.333 1.333 1.333z"></path>
<path fill="#333333" d="M28 28.007h-24c-0.736 0-1.333 0.597-1.333 1.333s0.597 1.333 1.333 1.333h24c0.736 0 1.333-0.597 1.333-1.333s-0.597-1.333-1.333-1.333z"></path>
</svg>
