<?xml version="1.0" encoding="utf-8"?>
<!-- Generated by IcoMoon.io -->
<!DOCTYPE svg PUBLIC "-//W3C//DTD SVG 1.1//EN" "http://www.w3.org/Graphics/SVG/1.1/DTD/svg11.dtd">
<svg version="1.1" xmlns="http://www.w3.org/2000/svg" xmlns:xlink="http://www.w3.org/1999/xlink" width="32" height="32" viewBox="0 0 32 32">
<path fill="#333333" d="M28 18.707h-10.667v-5.374c0-0.736-0.597-1.333-1.333-1.333s-1.333 0.597-1.333 1.333v5.374h-10.667c-1.838 0-3.333 1.495-3.333 3.333v5.293c0 1.838 1.495 3.333 3.333 3.333h24c1.838 0 3.333-1.495 3.333-3.333v-5.293c0-1.838-1.495-3.333-3.333-3.333zM28.667 27.333c0 0.361-0.305 0.667-0.667 0.667h-24c-0.361 0-0.667-0.305-0.667-0.667v-5.293c0-0.361 0.305-0.667 0.667-0.667h24c0.361 0 0.667 0.305 0.667 0.667v5.293z"></path>
<path fill="#333333" d="M26.667 24.667c0 0.736-0.597 1.333-1.333 1.333s-1.333-0.597-1.333-1.333c0-0.736 0.597-1.333 1.333-1.333s1.333 0.597 1.333 1.333z"></path>
<path fill="#333333" d="M22.667 24.667c0 0.736-0.597 1.333-1.333 1.333s-1.333-0.597-1.333-1.333c0-0.736 0.597-1.333 1.333-1.333s1.333 0.597 1.333 1.333z"></path>
<path fill="#333333" d="M16 6.667c-2.847 0-5.502 1.532-6.929 3.999-0.369 0.637-0.151 1.453 0.487 1.822s1.453 0.151 1.822-0.487c0.951-1.646 2.722-2.668 4.62-2.668s3.669 1.022 4.62 2.667c0.247 0.427 0.695 0.667 1.155 0.667 0.227 0 0.456-0.058 0.666-0.179 0.638-0.369 0.855-1.184 0.487-1.821-1.426-2.467-4.081-4-6.928-4z"></path>
<path fill="#333333" d="M8.049 7.556c2.023-2.26 4.921-3.556 7.951-3.556s5.929 1.296 7.951 3.556c0.263 0.294 0.628 0.444 0.993 0.444 0.317 0 0.635-0.112 0.889-0.34 0.549-0.491 0.595-1.334 0.104-1.883-2.527-2.824-6.149-4.444-9.937-4.444s-7.41 1.62-9.937 4.444c-0.491 0.549-0.445 1.391 0.104 1.883s1.391 0.445 1.883-0.104z"></path>
</svg>
