<?xml version="1.0" encoding="utf-8"?>
<!-- Generated by IcoMoon.io -->
<!DOCTYPE svg PUBLIC "-//W3C//DTD SVG 1.1//EN" "http://www.w3.org/Graphics/SVG/1.1/DTD/svg11.dtd">
<svg version="1.1" xmlns="http://www.w3.org/2000/svg" xmlns:xlink="http://www.w3.org/1999/xlink" width="32" height="32" viewBox="0 0 32 32">
<path fill="#333333" d="M16 2.418c-8.068 0-14.632 5.326-14.632 11.874 0 5.87 5.206 10.786 12.237 11.717 0.474 0.102 1.123 0.314 1.289 0.721 0.148 0.37 0.097 0.949 0.048 1.323 0 0-0.171 1.032-0.211 1.252-0.062 0.37-0.293 1.446 1.268 0.789 1.562-0.658 8.427-4.963 11.496-8.496 2.119-2.324 3.136-4.685 3.136-7.305 0.002-6.548-6.563-11.874-14.631-11.874zM10.269 18.187h-2.903c-0.422 0-0.767-0.345-0.767-0.769v-5.813c0-0.424 0.345-0.769 0.767-0.769 0.424 0 0.767 0.343 0.767 0.769v5.047h2.138c0.427 0 0.77 0.343 0.77 0.765-0.002 0.424-0.343 0.769-0.772 0.769zM13.278 17.419c0 0.424-0.345 0.769-0.767 0.769-0.421 0-0.767-0.345-0.767-0.769v-5.813c0-0.424 0.347-0.769 0.767-0.769 0.422 0 0.767 0.343 0.767 0.769v5.813zM20.277 17.419c0 0.333-0.211 0.624-0.524 0.729-0.080 0.028-0.162 0.040-0.245 0.040-0.237 0-0.467-0.116-0.611-0.307l-2.979-4.059v3.596c0 0.424-0.347 0.769-0.77 0.769-0.421 0-0.767-0.345-0.767-0.769v-5.813c0-0.331 0.213-0.624 0.527-0.729 0.079-0.026 0.16-0.039 0.242-0.039 0.237 0 0.468 0.114 0.611 0.307l2.982 4.059v-3.598c0-0.424 0.347-0.769 0.765-0.769 0.424 0 0.769 0.343 0.769 0.769v5.813zM24.983 13.745c0.422 0 0.767 0.343 0.767 0.767 0 0.422-0.345 0.767-0.767 0.767h-2.139v1.374h2.139c0.421 0 0.767 0.343 0.767 0.765 0 0.424-0.347 0.769-0.767 0.769h-2.91c-0.421 0-0.767-0.345-0.767-0.769v-2.903c0-0.002 0-0.002 0-0.002s0 0 0-0.002v-2.905c0-0.002 0-0.002 0-0.002 0-0.424 0.345-0.769 0.767-0.769h2.91c0.422 0 0.767 0.343 0.767 0.769 0 0.422-0.345 0.767-0.767 0.767h-2.139v1.374h2.139z"></path>
</svg>
