<?xml version="1.0" encoding="utf-8"?>
<!-- Generated by IcoMoon.io -->
<!DOCTYPE svg PUBLIC "-//W3C//DTD SVG 1.1//EN" "http://www.w3.org/Graphics/SVG/1.1/DTD/svg11.dtd">
<svg version="1.1" xmlns="http://www.w3.org/2000/svg" xmlns:xlink="http://www.w3.org/1999/xlink" width="32" height="32" viewBox="0 0 32 32">
<path fill="#333333" d="M22.667 1.34c-2.148 0-4.094 0.851-5.531 2.229l-0.005-0.003-0.090 0.090-0.060 0.059-4.326 4.326c0.014-0.001 0.028-0.001 0.042-0.002 0.212-0.013 0.422-0.032 0.637-0.032 0.958 0 1.881 0.138 2.764 0.375l2.959-2.958c0.023-0.021 0.048-0.040 0.071-0.061 0.943-0.839 2.179-1.356 3.539-1.356 2.944 0 5.333 2.388 5.333 5.333 0 1.361-0.517 2.597-1.357 3.54-0.053 0.059-0.102 0.122-0.157 0.178l-0.101 0.102-3.986 3.988c-0.327 0.321-0.699 0.596-1.099 0.825-0.777 0.443-1.673 0.701-2.631 0.701-1.716 0-3.239-0.815-4.215-2.074-0.004-0.005-0.008-0.011-0.012-0.015-0.241-0.347-0.641-0.577-1.097-0.577-0.736 0-1.333 0.597-1.333 1.333 0 0.25 0.073 0.482 0.193 0.682 0.067 0.092 0.138 0.181 0.209 0.27 1.326 1.674 3.307 2.805 5.564 3 0.085 0.007 0.167 0.021 0.252 0.025 0.147 0.008 0.291 0.022 0.439 0.022 0.808 0 1.587-0.123 2.321-0.345 1.12-0.339 2.127-0.913 2.979-1.669l0.36-0.333 3.985-3.985c1.453-1.449 2.353-3.453 2.353-5.668 0-4.418-3.582-8-8-8z"></path>
<path fill="#333333" d="M15.912 23.634l-2.801 2.803c-0.004 0.003-0.007 0.007-0.011 0.010-0.071 0.071-0.149 0.137-0.224 0.203-0.943 0.841-2.181 1.357-3.543 1.357-0.534 0-1.048-0.081-1.534-0.226-1.711-0.513-3.059-1.862-3.573-3.573-0.146-0.486-0.227-1.001-0.227-1.534 0-1.362 0.515-2.6 1.357-3.542 0.081-0.091 0.161-0.183 0.249-0.269l0.006 0.006 0.115-0.115 4.001-4c0.3-0.277 0.631-0.52 0.988-0.722 0.774-0.439 1.667-0.691 2.619-0.691 1.716 0 3.239 0.815 4.215 2.075 0.003 0.004 0.006 0.008 0.009 0.012 0.24 0.35 0.643 0.579 1.098 0.579 0.736 0 1.333-0.597 1.333-1.333 0-0.276-0.084-0.533-0.228-0.745 0 0 0-0.001-0.001-0.001-1.325-1.792-3.375-3.013-5.723-3.219-0.084-0.006-0.169-0.008-0.255-0.013-0.15-0.008-0.298-0.022-0.45-0.022-0.808 0-1.587 0.123-2.322 0.345-1.12 0.34-2.126 0.927-2.979 1.685-0.109 0.097-0.224 0.185-0.327 0.288l-3.984 3.985c-0.385 0.379-0.729 0.798-1.031 1.248-0.855 1.272-1.357 2.8-1.357 4.448 0 4.418 3.581 8 8 8 1.65 0 3.182-0.5 4.455-1.357 0.431-0.289 0.831-0.619 1.197-0.983h0.001l0.008-0.007 4.353-4.354c-0.226 0.015-0.451 0.035-0.681 0.035-0.955 0-1.875-0.137-2.755-0.373z"></path>
</svg>
