<?xml version="1.0" encoding="utf-8"?>
<!-- Generated by IcoMoon.io -->
<!DOCTYPE svg PUBLIC "-//W3C//DTD SVG 1.1//EN" "http://www.w3.org/Graphics/SVG/1.1/DTD/svg11.dtd">
<svg version="1.1" xmlns="http://www.w3.org/2000/svg" xmlns:xlink="http://www.w3.org/1999/xlink" width="32" height="32" viewBox="0 0 32 32">
<path fill="#333333" d="M10.319 7.749c0 1.45-1.176 2.626-2.626 2.626s-2.626-1.176-2.626-2.626c0-1.45 1.176-2.626 2.626-2.626s2.626 1.176 2.626 2.626z"></path>
<path fill="#333333" d="M5.406 12.355h4.537v14.547h-4.537v-14.547z"></path>
<path fill="#333333" d="M12.786 26.902h4.515v-7.504c0 0-0.168-3.394 2.548-3.394 2.71 0 2.523 2.565 2.523 3.413v7.485h4.559v-7.888c0 0 0.273-5.727-3.076-6.659-3.351-0.934-5.555 0.15-6.722 2.057v-2.057h-4.347v14.547z"></path>
</svg>
