<?xml version="1.0" encoding="utf-8"?>
<!-- Generated by IcoMoon.io -->
<!DOCTYPE svg PUBLIC "-//W3C//DTD SVG 1.1//EN" "http://www.w3.org/Graphics/SVG/1.1/DTD/svg11.dtd">
<svg version="1.1" xmlns="http://www.w3.org/2000/svg" xmlns:xlink="http://www.w3.org/1999/xlink" width="32" height="32" viewBox="0 0 32 32">
<path fill="#333333" d="M22.667 1.34c-2.155 0-4.106 0.855-5.544 2.24l-0.005-0.003-0.082 0.083-0.050 0.049-4.703 4.703c-0.233 0.242-0.378 0.569-0.378 0.932 0 0.354 0.14 0.675 0.364 0.915l0.065 0.065c0.24 0.225 0.56 0.363 0.915 0.363 0.34 0 0.647-0.13 0.883-0.338l0.559-0.559 4.413-4.408c0.945-0.853 2.191-1.375 3.563-1.375 2.945 0 5.333 2.388 5.333 5.333 0 1.457-0.585 2.775-1.532 3.738l-4.777 4.777c-0.225 0.239-0.365 0.559-0.365 0.913 0 0.352 0.139 0.67 0.36 0.909l0.071 0.071c0.239 0.221 0.556 0.359 0.908 0.359 0.333 0 0.634-0.125 0.869-0.327l0.144-0.143 4.649-4.646c0.001-0.001 0.001-0.001 0.003-0.003 1.444-1.447 2.337-3.443 2.337-5.649 0-4.419-3.581-8-8-8z"></path>
<path fill="#333333" d="M19.673 21.707c-0.239-0.226-0.561-0.367-0.917-0.367-0.359 0-0.683 0.143-0.924 0.373l-4.796 4.794c-0.959 0.927-2.263 1.5-3.703 1.5-2.945 0-5.333-2.388-5.333-5.333 0-1.37 0.521-2.614 1.37-3.559l4.959-4.96c0.214-0.239 0.348-0.55 0.348-0.896 0-0.344-0.133-0.654-0.345-0.891l-0.107-0.107c-0.237-0.211-0.547-0.344-0.891-0.344-0.364 0-0.693 0.145-0.935 0.381l-0.027 0.027-4.717 4.717c-1.434 1.447-2.321 3.435-2.321 5.634 0 4.419 3.581 8 8 8 2.087 0 3.981-0.805 5.405-2.114l0.006 0.007 0.135-0.135 0.21-0.209 4.689-4.686c0.195-0.233 0.317-0.529 0.317-0.855 0-0.355-0.141-0.677-0.367-0.917l-0.055-0.057z"></path>
<path fill="#333333" d="M21.333 9.34c-0.374 0-0.709 0.154-0.952 0.401l-0.001-0.001-10.635 10.639c-0.25 0.242-0.407 0.58-0.407 0.956 0 0.737 0.597 1.333 1.333 1.333 0.375 0 0.714-0.156 0.957-0.407l0.001 0.001 10.635-10.638c0.248-0.242 0.401-0.579 0.401-0.951 0-0.737-0.597-1.333-1.333-1.333z"></path>
</svg>
