<?xml version="1.0" encoding="utf-8"?>
<!-- Generated by IcoMoon.io -->
<!DOCTYPE svg PUBLIC "-//W3C//DTD SVG 1.1//EN" "http://www.w3.org/Graphics/SVG/1.1/DTD/svg11.dtd">
<svg version="1.1" xmlns="http://www.w3.org/2000/svg" xmlns:xlink="http://www.w3.org/1999/xlink" width="32" height="32" viewBox="0 0 32 32">
<path fill="#333333" d="M22 15.35v-3.35c0-0.983-0.54-1.833-1.333-2.296v-8.371c0-0.513-0.293-0.98-0.756-1.202-0.461-0.222-1.010-0.16-1.41 0.161l-6.667 5.333c-0.317 0.253-0.501 0.637-0.501 1.041v3.037c-0.793 0.463-1.334 1.313-1.334 2.296v3.351c-0.804 0.609-1.333 1.565-1.333 2.649v12.667c0 0.736 0.597 1.333 1.333 1.333h12c0.736 0 1.333-0.597 1.333-1.333v-12.667c0-1.085-0.529-2.041-1.333-2.65zM19.333 12v2.667h-6.667v-2.667h6.667zM11.333 18c0-0.367 0.299-0.667 0.667-0.667h8c0.368 0 0.667 0.299 0.667 0.667v6.667h-9.333v-6.667zM18 4.107v5.226h-4v-2.025l4-3.201zM11.333 29.333v-2h9.333v2h-9.333z"></path>
</svg>
