<?xml version="1.0" encoding="utf-8"?>
<!-- Generated by IcoMoon.io -->
<!DOCTYPE svg PUBLIC "-//W3C//DTD SVG 1.1//EN" "http://www.w3.org/Graphics/SVG/1.1/DTD/svg11.dtd">
<svg version="1.1" xmlns="http://www.w3.org/2000/svg" xmlns:xlink="http://www.w3.org/1999/xlink" width="32" height="32" viewBox="0 0 32 32">
<path fill="#333333" d="M22 10.667c-0.736 0-1.333 0.597-1.333 1.333v1.333c0 0.736 0.597 1.333 1.333 1.333s1.333-0.597 1.333-1.333v-1.333c0-0.736-0.597-1.333-1.333-1.333z"></path>
<path fill="#333333" d="M10 10.667c-0.736 0-1.333 0.597-1.333 1.333v1.333c0 0.736 0.597 1.333 1.333 1.333s1.333-0.597 1.333-1.333v-1.333c0-0.736-0.597-1.333-1.333-1.333z"></path>
<path fill="#333333" d="M16 1.333c-8.087 0-14.667 6.579-14.667 14.667s6.579 14.667 14.667 14.667 14.667-6.579 14.667-14.667-6.579-14.667-14.667-14.667zM16 28c-6.617 0-12-5.383-12-12s5.383-12 12-12 12 5.383 12 12-5.383 12-12 12z"></path>
<path fill="#333333" d="M20.375 17.167c-0.46-0.575-1.299-0.668-1.874-0.208l-2.5 2-2.5-2c-0.575-0.46-1.414-0.367-1.874 0.208s-0.367 1.414 0.208 1.874l2.031 1.626-2.032 1.625c-0.575 0.46-0.668 1.299-0.208 1.874 0.263 0.329 0.651 0.5 1.042 0.5 0.292 0 0.586-0.095 0.832-0.292l2.5-2 2.5 2c0.247 0.197 0.541 0.293 0.833 0.293 0.391 0 0.779-0.171 1.042-0.5 0.46-0.575 0.367-1.414-0.208-1.874l-2.032-1.626 2.032-1.625c0.575-0.46 0.668-1.299 0.208-1.875z"></path>
</svg>
