<?xml version="1.0" encoding="utf-8"?>
<!-- Generated by IcoMoon.io -->
<!DOCTYPE svg PUBLIC "-//W3C//DTD SVG 1.1//EN" "http://www.w3.org/Graphics/SVG/1.1/DTD/svg11.dtd">
<svg version="1.1" xmlns="http://www.w3.org/2000/svg" xmlns:xlink="http://www.w3.org/1999/xlink" width="32" height="32" viewBox="0 0 32 32">
<path fill="#333333" d="M12.055 6.673h16c0.736 0 1.333-0.597 1.333-1.333 0-0.735-0.597-1.333-1.333-1.333h-16c-0.736 0-1.333 0.598-1.333 1.333 0 0.737 0.597 1.333 1.333 1.333z"></path>
<path fill="#333333" d="M28.055 14.673h-15.999c0 0-0.001 0-0.001 0-0.736 0-1.333 0.598-1.333 1.333 0 0.737 0.597 1.333 1.333 1.333 0 0 0.001 0 0.001 0v0h15.999c0.736 0 1.333-0.597 1.333-1.333 0-0.735-0.597-1.333-1.333-1.333z"></path>
<path fill="#333333" d="M28.055 25.34h-15.999c0 0-0.001 0-0.001 0-0.736 0-1.333 0.598-1.333 1.333 0 0.737 0.597 1.333 1.333 1.333 0 0 0.001 0 0.001 0v0h15.999c0.736 0 1.333-0.597 1.333-1.333 0-0.735-0.597-1.333-1.333-1.333z"></path>
<path fill="#333333" d="M7.261 26.077c0.291-0.13 0.512-0.313 0.663-0.549s0.227-0.517 0.227-0.843c0-0.627-0.233-1.12-0.699-1.477s-1.113-0.535-1.941-0.535c-0.731 0-1.332 0.165-1.802 0.497s-0.706 0.739-0.706 1.227c0 0.254 0.070 0.455 0.211 0.6 0.141 0.147 0.333 0.221 0.577 0.221 0.275 0 0.511-0.135 0.708-0.405 0.050-0.069 0.091-0.123 0.122-0.161 0.131-0.159 0.261-0.272 0.389-0.337s0.277-0.098 0.445-0.098c0.243 0 0.437 0.063 0.581 0.188s0.215 0.292 0.215 0.501c0 0.374-0.297 0.621-0.891 0.742-0.066 0.013-0.116 0.022-0.151 0.029-0.119 0.026-0.212 0.093-0.281 0.2-0.069 0.108-0.103 0.245-0.103 0.41 0 0.303 0.223 0.49 0.671 0.562 0.015 0.003 0.029 0.007 0.042 0.010 0.272 0.039 0.47 0.118 0.593 0.239 0.124 0.12 0.185 0.289 0.185 0.508 0 0.263-0.086 0.47-0.258 0.617-0.172 0.149-0.413 0.223-0.722 0.223-0.153 0-0.281-0.017-0.385-0.054s-0.192-0.095-0.267-0.176c-0.081-0.081-0.145-0.193-0.192-0.335-0.047-0.141-0.073-0.217-0.080-0.227-0.075-0.15-0.171-0.261-0.288-0.332s-0.267-0.107-0.448-0.107c-0.265 0-0.477 0.085-0.633 0.258s-0.235 0.407-0.235 0.703c0 0.563 0.236 1.020 0.708 1.372s1.097 0.527 1.875 0.527c0.901 0 1.607-0.213 2.121-0.639s0.771-1.011 0.771-1.753c0-0.414-0.086-0.755-0.258-1.023-0.172-0.269-0.429-0.464-0.769-0.585z"></path>
<path fill="#333333" d="M3.389 4.624v0.001h1.408v3.164l0.002 0.011c0 0.007-0.002 0.013-0.002 0.021 0 0.535 0.423 0.969 0.952 0.995 0.008 0 0.013 0.005 0.021 0.005 0.003 0 0.006-0.002 0.009-0.002 0.006 0 0.012 0.002 0.017 0.002 0.552 0 1-0.447 1-1 0-0.013-0.003-0.025-0.004-0.037 0.001-0.010 0.004-0.017 0.004-0.027v-5.437c0-0.46-0.374-0.833-0.833-0.833-0.111 0-0.217 0.023-0.315 0.064-0.093 0.038-0.177 0.096-0.251 0.164-0.003 0.003-0.005 0.003-0.007 0.005l-0.002-0.002c0 0-0.005 0.006-0.007 0.008-0.009 0.009-0.015 0.019-0.023 0.028-0.103 0.125-0.485 0.573-0.981 0.973-0.462 0.372-0.865 0.397-1.235 0.609-0.181 0.072-0.317 0.223-0.379 0.409-0.023 0.063-0.039 0.129-0.040 0.2-0.001 0.003-0.002 0.005-0.002 0.005l0.001 0.005c0 0.002-0.001 0.002-0.001 0.002 0 0.37 0.299 0.668 0.667 0.668z"></path>
<path fill="#333333" d="M7.455 17.552h-2.087l2.123-1.712c0.032-0.029 0.055-0.056 0.085-0.084 0.168-0.175 0.31-0.374 0.411-0.594 0.026-0.056 0.043-0.119 0.065-0.178 0.027-0.076 0.057-0.152 0.075-0.232 0.033-0.149 0.053-0.301 0.053-0.46l-0.001-0.007 0.001-0.007c0-0.683-0.242-1.233-0.727-1.648s-1.131-0.623-1.941-0.623c-0.797 0-1.454 0.206-1.971 0.616s-0.776 0.913-0.776 1.509c0 0.257 0.077 0.463 0.23 0.618 0.038 0.039 0.089 0.057 0.133 0.085 0.139 0.101 0.299 0.173 0.483 0.173 0.251 0 0.468-0.116 0.621-0.29 0.008-0.009 0.018-0.011 0.025-0.019 0.078-0.091 0.153-0.219 0.223-0.381s0.113-0.259 0.129-0.287c0.081-0.15 0.189-0.265 0.325-0.343s0.293-0.117 0.471-0.117c0.243 0 0.439 0.073 0.586 0.22s0.22 0.34 0.22 0.581c0 0.243-0.136 0.507-0.399 0.793l-2.921 2.355 0.006 0.007c-0.175 0.181-0.285 0.423-0.285 0.693 0 0.025 0.006 0.048 0.007 0.073 0.039 0.517 0.466 0.927 0.993 0.927h3.844c0.46 0 0.833-0.373 0.833-0.833s-0.373-0.833-0.834-0.833z"></path>
</svg>
