<?xml version="1.0" encoding="utf-8"?>
<!-- Generated by IcoMoon.io -->
<!DOCTYPE svg PUBLIC "-//W3C//DTD SVG 1.1//EN" "http://www.w3.org/Graphics/SVG/1.1/DTD/svg11.dtd">
<svg version="1.1" xmlns="http://www.w3.org/2000/svg" xmlns:xlink="http://www.w3.org/1999/xlink" width="32" height="32" viewBox="0 0 32 32">
<path fill="#333333" d="M12 6.673h16c0.736 0 1.333-0.597 1.333-1.333 0-0.735-0.597-1.333-1.333-1.333h-16c-0.736 0-1.333 0.598-1.333 1.333 0 0.737 0.597 1.333 1.333 1.333z"></path>
<path fill="#333333" d="M28 14.673h-15.999c0 0-0.001 0-0.001 0-0.737 0-1.333 0.598-1.333 1.333 0 0.737 0.597 1.333 1.333 1.333 0 0 0.001 0 0.001 0h15.998c0.736 0 1.333-0.597 1.333-1.333 0-0.735-0.597-1.333-1.333-1.333z"></path>
<path fill="#333333" d="M28 25.34h-15.999c0 0-0.001 0-0.001 0-0.737 0-1.333 0.598-1.333 1.333 0 0.737 0.597 1.333 1.333 1.333 0 0 0.001 0 0.001 0h15.998c0.736 0 1.333-0.597 1.333-1.333 0-0.735-0.597-1.333-1.333-1.333z"></path>
<path fill="#333333" d="M2.674 2.681h5.319v5.319h-5.319v-5.319z"></path>
<path fill="#333333" d="M2.674 13.347h5.319v5.319h-5.319v-5.319z"></path>
<path fill="#333333" d="M2.674 24.014h5.319v5.319h-5.319v-5.319z"></path>
</svg>
