<?xml version="1.0" encoding="utf-8"?>
<!-- Generated by IcoMoon.io -->
<!DOCTYPE svg PUBLIC "-//W3C//DTD SVG 1.1//EN" "http://www.w3.org/Graphics/SVG/1.1/DTD/svg11.dtd">
<svg version="1.1" xmlns="http://www.w3.org/2000/svg" xmlns:xlink="http://www.w3.org/1999/xlink" width="32" height="32" viewBox="0 0 32 32">
<path fill="#333333" d="M12 6.673h16c0.736 0 1.333-0.597 1.333-1.333 0-0.735-0.597-1.333-1.333-1.333h-16c-0.736 0-1.333 0.598-1.333 1.333 0 0.737 0.597 1.333 1.333 1.333z"></path>
<path fill="#333333" d="M8 5.34c0 1.473-1.194 2.667-2.667 2.667s-2.667-1.194-2.667-2.667c0-1.473 1.194-2.667 2.667-2.667s2.667 1.194 2.667 2.667z"></path>
<path fill="#333333" d="M8 16.007c0 1.473-1.194 2.667-2.667 2.667s-2.667-1.194-2.667-2.667c0-1.473 1.194-2.667 2.667-2.667s2.667 1.194 2.667 2.667z"></path>
<path fill="#333333" d="M8 26.673c0 1.473-1.194 2.667-2.667 2.667s-2.667-1.194-2.667-2.667c0-1.473 1.194-2.667 2.667-2.667s2.667 1.194 2.667 2.667z"></path>
<path fill="#333333" d="M28 14.673h-15.999c0 0-0.001 0-0.001 0-0.736 0-1.333 0.598-1.333 1.333 0 0.737 0.597 1.333 1.333 1.333 0 0 0.001 0 0.001 0v0h15.999c0.736 0 1.333-0.597 1.333-1.333 0-0.735-0.597-1.333-1.333-1.333z"></path>
<path fill="#333333" d="M28 25.34h-15.999c0 0-0.001 0-0.001 0-0.736 0-1.333 0.598-1.333 1.333 0 0.737 0.597 1.333 1.333 1.333 0 0 0.001 0 0.001 0v0h15.999c0.736 0 1.333-0.597 1.333-1.333 0-0.735-0.597-1.333-1.333-1.333z"></path>
</svg>
