<?xml version="1.0" encoding="utf-8"?>
<!-- Generated by IcoMoon.io -->
<!DOCTYPE svg PUBLIC "-//W3C//DTD SVG 1.1//EN" "http://www.w3.org/Graphics/SVG/1.1/DTD/svg11.dtd">
<svg version="1.1" xmlns="http://www.w3.org/2000/svg" xmlns:xlink="http://www.w3.org/1999/xlink" width="32" height="32" viewBox="0 0 32 32">
<path fill="#333333" d="M28.764 0.236c-0.453-0.315-1.055-0.319-1.513-0.008l-24.764 16.868c-0.491 0.335-0.701 0.952-0.517 1.516s0.728 0.958 1.313 0.918l12.326-0.427 3.861 11.713c0.181 0.548 0.693 0.915 1.266 0.915 0.017 0 0.033 0 0.049 0 0.593-0.022 1.101-0.433 1.245-1.010l7.265-29.068c0.134-0.537-0.078-1.101-0.531-1.418zM20.56 25.605l-2.731-8.287c-0.18-0.548-0.692-0.915-1.265-0.915-0.015 0-0.031 0-0.047 0l-8.72 0.302 18.063-12.302-5.299 21.203z"></path>
</svg>
