<?xml version="1.0" encoding="utf-8"?>
<!-- Generated by IcoMoon.io -->
<!DOCTYPE svg PUBLIC "-//W3C//DTD SVG 1.1//EN" "http://www.w3.org/Graphics/SVG/1.1/DTD/svg11.dtd">
<svg version="1.1" xmlns="http://www.w3.org/2000/svg" xmlns:xlink="http://www.w3.org/1999/xlink" width="32" height="32" viewBox="0 0 32 32">
<path fill="#333333" d="M10.666 16c0.42 0 0.815-0.197 1.067-0.533l2.001-2.667c0.442-0.589 0.323-1.425-0.266-1.867s-1.425-0.322-1.867 0.267l-0.934 1.245-0.933-1.245c-0.442-0.589-1.276-0.709-1.867-0.267-0.589 0.442-0.709 1.277-0.267 1.867l1.999 2.667c0.251 0.335 0.647 0.533 1.067 0.533z"></path>
<path fill="#333333" d="M24.133 10.933c-0.591-0.442-1.425-0.322-1.867 0.267l-0.933 1.245-0.933-1.245c-0.441-0.589-1.275-0.709-1.867-0.267-0.589 0.442-0.709 1.278-0.266 1.867l2 2.667c0.251 0.336 0.647 0.533 1.067 0.533s0.815-0.197 1.067-0.533l2-2.667c0.441-0.589 0.322-1.425-0.267-1.867z"></path>
<path fill="#333333" d="M22.121 18.93c-0.59-0.435-1.424-0.308-1.862 0.28-0.065 0.087-1.614 2.123-4.261 2.123-2.581 0-4.234-2.091-4.27-2.138-0.442-0.584-1.273-0.702-1.863-0.261-0.589 0.442-0.709 1.277-0.266 1.867 0.097 0.131 2.444 3.199 6.399 3.199 4.032 0 6.319-3.085 6.413-3.217 0.431-0.593 0.299-1.419-0.291-1.853z"></path>
<path fill="#333333" d="M16 1.333c-8.088 0-14.667 6.579-14.667 14.667s6.579 14.667 14.667 14.667c8.087 0 14.667-6.579 14.667-14.667s-6.579-14.667-14.667-14.667zM16 28c-6.617 0-12.001-5.383-12.001-12s5.383-12 12.001-12c6.617 0 12 5.383 12 12s-5.383 12-12 12z"></path>
</svg>
