<?xml version="1.0" encoding="utf-8"?>
<!-- Generated by IcoMoon.io -->
<!DOCTYPE svg PUBLIC "-//W3C//DTD SVG 1.1//EN" "http://www.w3.org/Graphics/SVG/1.1/DTD/svg11.dtd">
<svg version="1.1" xmlns="http://www.w3.org/2000/svg" xmlns:xlink="http://www.w3.org/1999/xlink" width="32" height="32" viewBox="0 0 32 32">
<path fill="#333333" d="M28.593 9.176c-0.001-0.899-0.351-1.743-0.987-2.378l-2.435-2.431c-0.635-0.634-1.479-0.983-2.377-0.983-0.899 0-1.744 0.35-2.379 0.987l-18.688 18.716c-1.311 1.313-1.309 3.446 0.003 4.757l2.435 2.431c0.636 0.634 1.48 0.983 2.377 0.983 0.899 0 1.744-0.35 2.379-0.987l18.687-18.715c0.635-0.637 0.985-1.482 0.985-2.379zM7.035 28.386c-0.136 0.137-0.315 0.205-0.493 0.205s-0.357-0.068-0.493-0.203l-2.435-2.431c-0.272-0.272-0.273-0.713-0.001-0.986l12.839-12.859 3.419 3.419-12.837 12.856zM25.723 9.671l-3.967 3.973-3.419-3.419 3.964-3.97c0.136-0.137 0.315-0.205 0.493-0.205s0.356 0.068 0.492 0.204l2.435 2.431c0.273 0.272 0.273 0.713 0.001 0.985z"></path>
<path fill="#333333" d="M8.835 4.59c2.033 0.995 2.351 2.749 2.365 2.83 0.051 0.324 0.33 0.563 0.658 0.563 0.329 0 0.609-0.241 0.659-0.567 0.003-0.017 0.299-1.816 2.365-2.826 0.229-0.112 0.374-0.345 0.374-0.599s-0.145-0.487-0.374-0.599c-2.038-0.996-2.353-2.756-2.365-2.825-0.049-0.327-0.329-0.567-0.659-0.567s-0.609 0.241-0.659 0.567c-0.003 0.017-0.299 1.816-2.365 2.825-0.229 0.112-0.374 0.345-0.374 0.599s0.145 0.487 0.374 0.599z"></path>
<path fill="#333333" d="M23.853 21.991c-1.463-0.716-1.685-1.984-1.694-2.036-0.025-0.163-0.165-0.283-0.329-0.283s-0.305 0.121-0.329 0.283c-0.002 0.013-0.216 1.313-1.694 2.036-0.115 0.056-0.187 0.173-0.187 0.299s0.072 0.243 0.187 0.299c1.461 0.714 1.685 1.979 1.694 2.037 0.025 0.162 0.165 0.282 0.329 0.282s0.305-0.121 0.329-0.283c0.002-0.013 0.216-1.313 1.694-2.036 0.115-0.056 0.187-0.172 0.187-0.299s-0.072-0.243-0.187-0.299z"></path>
<path fill="#333333" d="M31.068 18.658c-2.023-0.989-2.325-2.745-2.337-2.819-0.026-0.161-0.165-0.281-0.329-0.281s-0.303 0.119-0.329 0.281c-0.012 0.074-0.315 1.83-2.337 2.819-0.115 0.056-0.187 0.172-0.187 0.299s0.072 0.243 0.187 0.299c2.022 0.989 2.325 2.745 2.337 2.819 0.026 0.161 0.166 0.281 0.329 0.281s0.303-0.119 0.329-0.281c0.012-0.074 0.314-1.83 2.337-2.819 0.115-0.056 0.187-0.172 0.187-0.299s-0.073-0.243-0.187-0.299z"></path>
</svg>
