<?xml version="1.0" encoding="utf-8"?>
<!-- Generated by IcoMoon.io -->
<!DOCTYPE svg PUBLIC "-//W3C//DTD SVG 1.1//EN" "http://www.w3.org/Graphics/SVG/1.1/DTD/svg11.dtd">
<svg version="1.1" xmlns="http://www.w3.org/2000/svg" xmlns:xlink="http://www.w3.org/1999/xlink" width="32" height="32" viewBox="0 0 32 32">
<path fill="#333333" d="M16 1.334c-7.848 0-13.997 6.292-13.997 14.324v10.589c0 2.635 1.967 4.406 4.895 4.406s4.893-1.771 4.893-4.406v-10.588c0-2.885 2.115-4.177 4.209-4.177s4.209 1.292 4.209 4.177v10.589c0 2.635 1.966 4.406 4.893 4.406s4.895-1.771 4.895-4.406v-10.589c0-8.033-6.149-14.325-13.997-14.325zM6.898 27.986c-0.832 0-2.228-0.226-2.228-1.739v-2.216h4.455v2.216c0 1.514-1.395 1.739-2.227 1.739zM16 8.815c-3.984 0-6.875 2.877-6.875 6.844v5.706h-4.455v-5.706c0-6.645 4.871-11.658 11.33-11.658s11.33 5.012 11.33 11.657v5.706h-4.455v-5.706c0-3.965-2.891-6.843-6.875-6.843zM25.102 27.986c-0.831 0-2.227-0.226-2.227-1.739v-2.216h4.455v2.216c0 1.514-1.396 1.739-2.228 1.739z"></path>
</svg>
