<?xml version="1.0" encoding="utf-8"?>
<!-- Generated by IcoMoon.io -->
<!DOCTYPE svg PUBLIC "-//W3C//DTD SVG 1.1//EN" "http://www.w3.org/Graphics/SVG/1.1/DTD/svg11.dtd">
<svg version="1.1" xmlns="http://www.w3.org/2000/svg" xmlns:xlink="http://www.w3.org/1999/xlink" width="32" height="32" viewBox="0 0 32 32">
<path fill="#333333" d="M21.333 14c0-0.736-0.597-1.333-1.333-1.333h-4.667v-4.667c0-0.736-0.597-1.333-1.333-1.333s-1.333 0.597-1.333 1.333v4.667h-4.667c-0.736 0-1.333 0.597-1.333 1.333s0.597 1.333 1.333 1.333h4.667v4.667c0 0.736 0.597 1.333 1.333 1.333s1.333-0.597 1.333-1.333v-4.667h4.667c0.736 0 1.333-0.597 1.333-1.333z"></path>
<path fill="#333333" d="M30.276 28.39l-6.434-6.433c1.763-2.177 2.825-4.944 2.825-7.957 0-6.985-5.682-12.667-12.667-12.667s-12.667 5.682-12.667 12.667 5.682 12.667 12.667 12.667c3.013 0 5.78-1.061 7.957-2.825l6.434 6.434c0.261 0.26 0.601 0.391 0.943 0.391s0.683-0.13 0.943-0.391c0.521-0.521 0.521-1.365 0-1.886zM4 14c0-5.514 4.486-10 10-10s10 4.486 10 10c0 2.721-1.095 5.188-2.864 6.993-0.026 0.022-0.054 0.040-0.079 0.065s-0.042 0.053-0.065 0.079c-1.805 1.769-4.272 2.864-6.993 2.864-5.514 0-10-4.486-10-10z"></path>
</svg>
