<?xml version="1.0" encoding="utf-8"?>
<!-- Generated by IcoMoon.io -->
<!DOCTYPE svg PUBLIC "-//W3C//DTD SVG 1.1//EN" "http://www.w3.org/Graphics/SVG/1.1/DTD/svg11.dtd">
<svg version="1.1" xmlns="http://www.w3.org/2000/svg" xmlns:xlink="http://www.w3.org/1999/xlink" width="32" height="32" viewBox="0 0 32 32">
<path fill="#333333" d="M27.341 4h-6.667c-0.736 0-1.333 0.597-1.333 1.333s0.597 1.333 1.333 1.333h3.444l-5.199 5.199c-1.604-1.205-3.54-1.865-5.582-1.865-2.493 0-4.837 0.971-6.6 2.734-3.639 3.639-3.639 9.56 0 13.199 1.763 1.763 4.107 2.733 6.599 2.733s4.837-0.971 6.599-2.734c1.763-1.763 2.734-4.106 2.734-6.599 0-2.042-0.661-3.979-1.865-5.583l5.203-5.203v3.451c0 0.736 0.597 1.333 1.333 1.333s1.333-0.597 1.333-1.333v-6.667c0-0.736-0.597-1.333-1.333-1.333zM18.051 24.047c-1.259 1.259-2.934 1.953-4.715 1.953s-3.455-0.693-4.714-1.952c-2.599-2.599-2.599-6.829 0-9.429 1.259-1.259 2.933-1.953 4.715-1.953 1.766 0 3.426 0.683 4.681 1.924 0.010 0.011 0.017 0.023 0.027 0.033s0.023 0.017 0.033 0.027c1.24 1.256 1.923 2.915 1.923 4.682 0.001 1.781-0.693 3.455-1.951 4.714z"></path>
</svg>
