<?xml version="1.0" encoding="utf-8"?>
<!-- Generated by IcoMoon.io -->
<!DOCTYPE svg PUBLIC "-//W3C//DTD SVG 1.1//EN" "http://www.w3.org/Graphics/SVG/1.1/DTD/svg11.dtd">
<svg version="1.1" xmlns="http://www.w3.org/2000/svg" xmlns:xlink="http://www.w3.org/1999/xlink" width="32" height="32" viewBox="0 0 32 32">
<path fill="#333333" d="M16 10.667c2.573 0 4.667-2.093 4.667-4.667s-2.094-4.667-4.667-4.667-4.667 2.093-4.667 4.667 2.094 4.667 4.667 4.667zM16 4c1.103 0 2 0.897 2 2s-0.897 2-2 2-2-0.897-2-2 0.897-2 2-2z"></path>
<path fill="#333333" d="M24.467 12.632c-0.243-0.393-0.672-0.632-1.134-0.632h-14.667c-0.462 0-0.891 0.239-1.134 0.632s-0.265 0.884-0.059 1.297l4.526 9.052v6.352c0 0.736 0.597 1.333 1.333 1.333s1.333-0.597 1.333-1.333v-6.667c0-0.207-0.048-0.411-0.141-0.597l-3.702-7.403h10.351l-3.702 7.403c-0.092 0.185-0.14 0.389-0.14 0.597v6.667c0 0.736 0.597 1.333 1.333 1.333s1.333-0.597 1.333-1.333v-6.352l4.526-9.052c0.207-0.413 0.184-0.904-0.059-1.297z"></path>
</svg>
