<?xml version="1.0" encoding="utf-8"?>
<!-- Generated by IcoMoon.io -->
<!DOCTYPE svg PUBLIC "-//W3C//DTD SVG 1.1//EN" "http://www.w3.org/Graphics/SVG/1.1/DTD/svg11.dtd">
<svg version="1.1" xmlns="http://www.w3.org/2000/svg" xmlns:xlink="http://www.w3.org/1999/xlink" width="32" height="32" viewBox="0 0 32 32">
<path fill="#333333" d="M19.999 10.667c0-2.206-1.794-4-4-4s-4 1.794-4 4 1.795 4 4 4c2.206 0 4-1.794 4-4zM14.666 10.667c0-0.735 0.598-1.333 1.333-1.333s1.333 0.598 1.333 1.333-0.598 1.333-1.333 1.333c-0.735 0-1.333-0.598-1.333-1.333z"></path>
<path fill="#333333" d="M31.888 28.799l-4.667-10.667c-0.295-0.675-1.081-0.981-1.756-0.687-0.675 0.295-0.982 1.081-0.687 1.756l3.85 8.799h-25.256l3.849-8.799c0.295-0.675-0.013-1.461-0.687-1.756-0.675-0.294-1.461 0.013-1.756 0.687l-4.667 10.667c-0.181 0.413-0.141 0.888 0.106 1.264s0.666 0.603 1.116 0.603h29.333c0.45 0 0.869-0.227 1.116-0.603s0.286-0.852 0.105-1.265z"></path>
<path fill="#333333" d="M15.114 24.997c0.253 0.225 0.569 0.337 0.886 0.337s0.633-0.112 0.886-0.337c0.345-0.307 8.447-7.589 8.447-14.508 0-5.048-4.187-9.155-9.333-9.155s-9.333 4.107-9.333 9.155c0 6.919 8.103 14.201 8.447 14.508zM16 4c3.613 0 6.667 2.972 6.667 6.489 0 4.521-4.671 9.671-6.667 11.665-1.996-1.994-6.667-7.144-6.667-11.665 0-3.517 3.053-6.489 6.667-6.489z"></path>
</svg>
