<?xml version="1.0" encoding="utf-8"?>
<!-- Generated by IcoMoon.io -->
<!DOCTYPE svg PUBLIC "-//W3C//DTD SVG 1.1//EN" "http://www.w3.org/Graphics/SVG/1.1/DTD/svg11.dtd">
<svg version="1.1" xmlns="http://www.w3.org/2000/svg" xmlns:xlink="http://www.w3.org/1999/xlink" width="32" height="32" viewBox="0 0 32 32">
<path fill="#333333" d="M29.838 5.239l-9.325-3.806c-0.023-0.011-0.046-0.018-0.069-0.027-0.284-0.099-0.581-0.097-0.848-0.012h-0.001c-0.057 0.018-0.113 0.041-0.167 0.067l-7.469 3.556-8.788-3.587c-0.41-0.168-0.879-0.12-1.247 0.127-0.369 0.249-0.59 0.663-0.59 1.107v22.857c0 0.542 0.328 1.030 0.829 1.235l9.333 3.809c0.031 0.013 0.063 0.018 0.095 0.029 0.027 0.009 0.054 0.017 0.081 0.025 0.108 0.028 0.217 0.047 0.327 0.047 0.005 0 0.010-0.002 0.015-0.002 0.111-0.001 0.221-0.020 0.331-0.049 0.035-0.009 0.067-0.023 0.101-0.035 0.042-0.015 0.085-0.024 0.126-0.043l7.468-3.557 8.789 3.587c0.162 0.067 0.333 0.099 0.504 0.099 0.261 0 0.521-0.077 0.743-0.227 0.369-0.247 0.59-0.662 0.59-1.106v-22.859c-0.001-0.541-0.329-1.029-0.83-1.234zM18.667 24.679l-5.333 2.54v-19.905l5.333-2.539v19.904zM10.667 27.346l-6.667-2.72v-19.978l6.667 2.721v19.977zM28.001 27.346l-6.667-2.72v-19.978l6.667 2.721v19.977z"></path>
</svg>
