<?xml version="1.0" encoding="utf-8"?>
<!-- Generated by IcoMoon.io -->
<!DOCTYPE svg PUBLIC "-//W3C//DTD SVG 1.1//EN" "http://www.w3.org/Graphics/SVG/1.1/DTD/svg11.dtd">
<svg version="1.1" xmlns="http://www.w3.org/2000/svg" xmlns:xlink="http://www.w3.org/1999/xlink" width="32" height="32" viewBox="0 0 32 32">
<path fill="#333333" d="M15.089 31.639c0.257 0.239 0.583 0.359 0.909 0.359s0.653-0.12 0.909-0.359c7.359-6.867 11.091-13.026 11.091-18.307 0-7.477-5.271-13.333-12-13.333s-12 5.857-12 13.333c0 5.281 3.731 11.44 11.091 18.307zM15.999 2.665c5.843 0 9.333 5.423 9.333 10.667 0 4.242-3.222 9.585-9.333 15.495-6.111-5.91-9.333-11.253-9.333-15.495 0-5.243 3.49-10.667 9.333-10.667z"></path>
<path fill="#333333" d="M18.827 16.711l1.885-1.885-2.829-2.829 2.829-2.829-1.886-1.885-2.828 2.828-2.829-2.829-1.885 1.887 2.828 2.828-2.827 2.828 1.885 1.885 2.829-2.828z"></path>
</svg>
