<?xml version="1.0" encoding="utf-8"?>
<!-- Generated by IcoMoon.io -->
<!DOCTYPE svg PUBLIC "-//W3C//DTD SVG 1.1//EN" "http://www.w3.org/Graphics/SVG/1.1/DTD/svg11.dtd">
<svg version="1.1" xmlns="http://www.w3.org/2000/svg" xmlns:xlink="http://www.w3.org/1999/xlink" width="32" height="32" viewBox="0 0 32 32">
<path fill="#333333" d="M29.047 11.841c-0.253-0.321-0.639-0.508-1.047-0.508h-2.736c-0.399-4.057-2.653-10-9.264-10s-8.865 5.943-9.264 10h-2.736c-0.408 0-0.794 0.187-1.047 0.508s-0.345 0.739-0.249 1.137l4 16.667c0.144 0.599 0.679 1.022 1.296 1.022h16c0.617 0 1.153-0.423 1.296-1.022l4-16.667c0.096-0.397 0.004-0.816-0.249-1.137zM16 4c5.035 0 6.267 4.897 6.568 7.333h-13.136c0.302-2.437 1.533-7.333 6.568-7.333zM22.949 28h-13.897l-3.36-14h20.617l-3.36 14z"></path>
</svg>
