<?xml version="1.0" encoding="utf-8"?>
<!-- Generated by IcoMoon.io -->
<!DOCTYPE svg PUBLIC "-//W3C//DTD SVG 1.1//EN" "http://www.w3.org/Graphics/SVG/1.1/DTD/svg11.dtd">
<svg version="1.1" xmlns="http://www.w3.org/2000/svg" xmlns:xlink="http://www.w3.org/1999/xlink" width="32" height="32" viewBox="0 0 32 32">
<path fill="#333333" d="M15.144 31.639c0.256 0.239 0.583 0.359 0.909 0.359s0.653-0.12 0.909-0.359c7.359-6.867 11.091-13.026 11.091-18.307 0-7.477-5.271-13.333-12-13.333s-12 5.857-12 13.333c0.001 5.281 3.731 11.44 11.091 18.307zM16.054 2.665c5.843 0 9.333 5.423 9.333 10.667 0 4.242-3.222 9.585-9.333 15.495-6.111-5.91-9.333-11.253-9.333-15.495 0-5.243 3.49-10.667 9.333-10.667z"></path>
<path fill="#333333" d="M21.444 11.998c0-2.973-2.418-5.391-5.39-5.391s-5.39 2.418-5.39 5.391c0 2.971 2.418 5.389 5.39 5.389s5.39-2.418 5.39-5.389zM13.331 11.998c0-1.503 1.221-2.724 2.723-2.724s2.723 1.221 2.723 2.724c0 1.501-1.221 2.723-2.723 2.723s-2.723-1.221-2.723-2.723z"></path>
</svg>
