<?xml version="1.0" encoding="utf-8"?>
<!-- Generated by IcoMoon.io -->
<!DOCTYPE svg PUBLIC "-//W3C//DTD SVG 1.1//EN" "http://www.w3.org/Graphics/SVG/1.1/DTD/svg11.dtd">
<svg version="1.1" xmlns="http://www.w3.org/2000/svg" xmlns:xlink="http://www.w3.org/1999/xlink" width="32" height="32" viewBox="0 0 32 32">
<path fill="#333333" d="M2.667 9.334c0.737 0 1.333-0.596 1.333-1.333v-2.667c0-0.737 0.597-1.333 1.333-1.333h2.667c0.737 0 1.333-0.596 1.333-1.333s-0.597-1.333-1.333-1.333h-2.667c-2.21 0-4 1.791-4 4v2.667c0 0.737 0.597 1.333 1.333 1.333z"></path>
<path fill="#333333" d="M8 28.001h-2.667c-0.737 0-1.333-0.596-1.333-1.333v-2.667c0-0.737-0.597-1.333-1.333-1.333s-1.333 0.597-1.333 1.333v2.667c0 2.209 1.79 4 4 4h2.667c0.737 0 1.333-0.596 1.333-1.333s-0.597-1.333-1.333-1.333z"></path>
<path fill="#333333" d="M2.667 20.001c0.737 0 1.333-0.596 1.333-1.333v-5.333c0-0.737-0.597-1.333-1.333-1.333s-1.333 0.597-1.333 1.333v5.333c0 0.737 0.597 1.333 1.333 1.333z"></path>
<path fill="#333333" d="M13.333 4.001h5.333c0.737 0 1.333-0.596 1.333-1.333s-0.597-1.333-1.333-1.333h-5.333c-0.737 0-1.333 0.597-1.333 1.333s0.597 1.333 1.333 1.333z"></path>
<path fill="#333333" d="M26.667 1.334h-2.667c-0.737 0-1.333 0.597-1.333 1.333s0.597 1.333 1.333 1.333h2.667c0.737 0 1.333 0.597 1.333 1.333v2.667c0 0.737 0.597 1.333 1.333 1.333s1.333-0.596 1.333-1.333v-2.667c0-2.209-1.79-4-4-4z"></path>
<path fill="#333333" d="M29.333 22.667c-0.737 0-1.333 0.597-1.333 1.333v2.667c0 0.737-0.597 1.333-1.333 1.333h-2.667c-0.737 0-1.333 0.597-1.333 1.333s0.597 1.333 1.333 1.333h2.667c2.21 0 4-1.791 4-4v-2.667c0-0.737-0.597-1.333-1.333-1.333z"></path>
<path fill="#333333" d="M29.333 12.001c-0.737 0-1.333 0.597-1.333 1.333v5.333c0 0.737 0.597 1.333 1.333 1.333s1.333-0.596 1.333-1.333v-5.333c0-0.737-0.597-1.333-1.333-1.333z"></path>
<path fill="#333333" d="M21.333 14.667h-4v-4c0-0.737-0.597-1.333-1.333-1.333s-1.333 0.597-1.333 1.333v4h-4c-0.736 0-1.333 0.597-1.333 1.333 0 0.737 0.597 1.333 1.333 1.333h4v4c0 0.737 0.597 1.333 1.333 1.333s1.333-0.596 1.333-1.333v-4h4c0.736 0 1.333-0.596 1.333-1.333 0-0.736-0.597-1.333-1.333-1.333z"></path>
<path fill="#333333" d="M18.667 28.001h-5.333c-0.737 0-1.333 0.597-1.333 1.333s0.597 1.333 1.333 1.333h5.333c0.737 0 1.333-0.596 1.333-1.333s-0.597-1.333-1.333-1.333z"></path>
</svg>
