<?xml version="1.0" encoding="utf-8"?>
<!-- Generated by IcoMoon.io -->
<!DOCTYPE svg PUBLIC "-//W3C//DTD SVG 1.1//EN" "http://www.w3.org/Graphics/SVG/1.1/DTD/svg11.dtd">
<svg version="1.1" xmlns="http://www.w3.org/2000/svg" xmlns:xlink="http://www.w3.org/1999/xlink" width="32" height="32" viewBox="0 0 32 32">
<path fill="#333333" d="M29.361 8.812c0.731 0 1.324-0.597 1.324-1.333v-4.812c0-0.736-0.593-1.333-1.324-1.333h-4.777c-0.731 0-1.323 0.597-1.323 1.333v1.072h-14.483v-1.072c0-0.736-0.593-1.333-1.323-1.333h-4.778c-0.731 0-1.324 0.597-1.324 1.333v4.812c0 0.736 0.593 1.333 1.324 1.333h0.873v14.376h-0.873c-0.731 0-1.324 0.597-1.324 1.333v4.812c0 0.736 0.593 1.333 1.324 1.333h4.778c0.731 0 1.323-0.597 1.323-1.333v-1.073h14.484v1.073c0 0.736 0.593 1.333 1.323 1.333h4.777c0.731 0 1.324-0.597 1.324-1.333v-4.812c0-0.736-0.593-1.333-1.324-1.333h-0.662v-14.376h0.661zM25.909 4h2.129v2.145h-2.129v-2.145zM4 4h2.13v2.145h-2.13v-2.145zM6.13 28h-2.13v-2.145h2.13v2.145zM28.038 28h-2.129v-2.145h2.129v2.145zM26.053 23.188h-1.468c-0.731 0-1.323 0.597-1.323 1.333v1.072h-14.484v-1.072c0-0.736-0.593-1.333-1.323-1.333h-1.257v-14.376h1.257c0.731 0 1.323-0.597 1.323-1.333v-1.073h14.484v1.073c0 0.736 0.593 1.333 1.323 1.333h1.468v14.377z"></path>
</svg>
