<?xml version="1.0" encoding="utf-8"?>
<!-- Generated by IcoMoon.io -->
<!DOCTYPE svg PUBLIC "-//W3C//DTD SVG 1.1//EN" "http://www.w3.org/Graphics/SVG/1.1/DTD/svg11.dtd">
<svg version="1.1" xmlns="http://www.w3.org/2000/svg" xmlns:xlink="http://www.w3.org/1999/xlink" width="32" height="32" viewBox="0 0 32 32">
<path fill="#333333" d="M19.333 5.333c0-2.573-2.094-4.667-4.667-4.667s-4.667 2.093-4.667 4.667 2.094 4.667 4.667 4.667 4.667-2.093 4.667-4.667zM12.667 5.333c0-1.103 0.897-2 2-2s2 0.897 2 2-0.897 2-2 2-2-0.897-2-2z"></path>
<path fill="#333333" d="M16 14v-1.333c0-0.736-0.597-1.333-1.333-1.333s-1.333 0.597-1.333 1.333v2.667c0 0.736 0.597 1.333 1.333 1.333h1.333c2.206 0 4 1.795 4 4s-1.794 4-4 4h-1.333c-0.736 0-1.333 0.597-1.333 1.333v4c0 0.736 0.597 1.333 1.333 1.333s1.333-0.597 1.333-1.333v-2.667c3.676 0 6.667-2.991 6.667-6.667s-2.991-6.667-6.667-6.667z"></path>
</svg>
