<?xml version="1.0" encoding="utf-8"?>
<!-- Generated by IcoMoon.io -->
<!DOCTYPE svg PUBLIC "-//W3C//DTD SVG 1.1//EN" "http://www.w3.org/Graphics/SVG/1.1/DTD/svg11.dtd">
<svg version="1.1" xmlns="http://www.w3.org/2000/svg" xmlns:xlink="http://www.w3.org/1999/xlink" width="32" height="32" viewBox="0 0 32 32">
<path fill="#333333" d="M26.916 6.263c0.628-1.727-0.265-3.644-1.992-4.272l-1.253-0.456c-0.837-0.305-1.742-0.265-2.549 0.111s-1.419 1.044-1.723 1.881l-3.328 9.144c-0.028 0-0.055-0.004-0.084-0.004-0.019 0-0.038 0.003-0.057 0.003l-3.328-9.143c-0.305-0.837-0.917-1.505-1.723-1.881s-1.711-0.416-2.549-0.111l-1.253 0.456c-1.727 0.629-2.621 2.545-1.992 4.273l3.649 10.023c0.006 0.016 0.018 0.028 0.024 0.043-1.107 1.495-1.769 3.337-1.769 5.337 0 4.963 4.037 9 9 9s9-4.037 9-9c0-1.989-0.657-3.824-1.754-5.316 0.010-0.023 0.027-0.041 0.035-0.064l3.647-10.023zM21.905 4.439c0.082-0.225 0.251-0.333 0.345-0.376s0.284-0.104 0.51-0.022l1.253 0.456c0.345 0.125 0.524 0.509 0.399 0.855l-3.26 8.956c-0.729-0.513-1.535-0.922-2.4-1.202l3.153-8.667zM7.589 5.351c-0.125-0.345 0.053-0.729 0.399-0.855l1.253-0.456c0.226-0.082 0.416-0.021 0.51 0.022s0.263 0.151 0.345 0.376l3.151 8.657c-0.866 0.277-1.673 0.684-2.403 1.195l-3.255-8.939zM15.987 28c-3.492 0-6.333-2.841-6.333-6.333s2.841-6.333 6.333-6.333 6.333 2.841 6.333 6.333-2.841 6.333-6.333 6.333z"></path>
</svg>
