<?xml version="1.0" encoding="utf-8"?>
<!-- Generated by IcoMoon.io -->
<!DOCTYPE svg PUBLIC "-//W3C//DTD SVG 1.1//EN" "http://www.w3.org/Graphics/SVG/1.1/DTD/svg11.dtd">
<svg version="1.1" xmlns="http://www.w3.org/2000/svg" xmlns:xlink="http://www.w3.org/1999/xlink" width="32" height="32" viewBox="0 0 32 32">
<path fill="#333333" d="M10.667 6c0-2.573-2.093-4.667-4.667-4.667s-4.667 2.093-4.667 4.667 2.093 4.667 4.667 4.667 4.667-2.093 4.667-4.667zM4 6c0-1.103 0.897-2 2-2s2 0.897 2 2-0.897 2-2 2-2-0.897-2-2z"></path>
<path fill="#333333" d="M26 1.333c-2.573 0-4.667 2.093-4.667 4.667s2.093 4.667 4.667 4.667 4.667-2.093 4.667-4.667-2.093-4.667-4.667-4.667zM26 8c-1.103 0-2-0.897-2-2s0.897-2 2-2 2 0.897 2 2-0.897 2-2 2z"></path>
<path fill="#333333" d="M8.667 21.333h-1.333c-0.598 0-1.333-0.735-1.333-1.333v-6.667c0-0.736-0.597-1.333-1.333-1.333s-1.333 0.597-1.333 1.333v6.667c0 2.056 1.944 4 4 4h1.333c0.598 0 1.333 0.735 1.333 1.333v4c0 0.736 0.597 1.333 1.333 1.333s1.333-0.597 1.333-1.333v-4c0-2.056-1.944-4-4-4z"></path>
<path fill="#333333" d="M27.333 12c-0.736 0-1.333 0.597-1.333 1.333v6.667c0 0.598-0.735 1.333-1.333 1.333h-1.333c-2.056 0-4 1.944-4 4v4c0 0.736 0.597 1.333 1.333 1.333s1.333-0.597 1.333-1.333v-4c0-0.598 0.735-1.333 1.333-1.333h1.333c2.056 0 4-1.944 4-4v-6.667c0-0.737-0.597-1.333-1.333-1.333z"></path>
<path fill="#333333" d="M8.667 17.333c0 0.736 0.597 1.333 1.333 1.333h12c0.736 0 1.333-0.597 1.333-1.333s-0.597-1.333-1.333-1.333h-12c-0.737 0-1.333 0.597-1.333 1.333z"></path>
</svg>
