<?xml version="1.0" encoding="utf-8"?>
<!-- Generated by IcoMoon.io -->
<!DOCTYPE svg PUBLIC "-//W3C//DTD SVG 1.1//EN" "http://www.w3.org/Graphics/SVG/1.1/DTD/svg11.dtd">
<svg version="1.1" xmlns="http://www.w3.org/2000/svg" xmlns:xlink="http://www.w3.org/1999/xlink" width="32" height="32" viewBox="0 0 32 32">
<path fill="#333333" d="M27.333 1.333h-21.333c-0.736 0-1.333 0.597-1.333 1.333v26.667c0 0.736 0.597 1.333 1.333 1.333s1.333-0.597 1.333-1.333v-25.333h18.667v20.061l-2.667 2.333v-2.395c0-0.736-0.597-1.333-1.333-1.333s-1.333 0.597-1.333 1.333v5.333c0 0.027 0.006 0.051 0.008 0.077 0.003 0.047 0.007 0.095 0.014 0.141 0.007 0.042 0.017 0.083 0.028 0.124s0.023 0.083 0.039 0.125c0.016 0.042 0.035 0.083 0.055 0.123 0.018 0.037 0.037 0.073 0.059 0.109 0.026 0.042 0.055 0.080 0.084 0.119 0.015 0.020 0.027 0.042 0.044 0.061 0.009 0.010 0.020 0.017 0.029 0.027 0.041 0.044 0.085 0.083 0.131 0.121 0.026 0.021 0.050 0.045 0.077 0.063 0.050 0.035 0.104 0.064 0.159 0.092 0.026 0.013 0.050 0.030 0.077 0.041 0.069 0.030 0.142 0.052 0.216 0.070 0.014 0.003 0.027 0.010 0.041 0.013 0.088 0.018 0.179 0.028 0.273 0.028 0 0 0 0 0 0s0 0 0 0c0.084 0 0.168-0.009 0.251-0.025 0.031-0.006 0.059-0.016 0.089-0.024 0.051-0.013 0.101-0.027 0.151-0.047 0.033-0.013 0.065-0.030 0.097-0.046 0.043-0.021 0.085-0.042 0.125-0.068 0.032-0.021 0.061-0.043 0.092-0.066 0.025-0.019 0.051-0.033 0.074-0.054l5.333-4.667c0.289-0.253 0.455-0.619 0.455-1.003v-22c0-0.736-0.597-1.333-1.333-1.333z"></path>
<path fill="#333333" d="M22.667 15.333c0.736 0 1.333-0.597 1.333-1.333v-6.667c0-0.736-0.597-1.333-1.333-1.333h-12c-0.736 0-1.333 0.597-1.333 1.333v6.667c0 0.736 0.597 1.333 1.333 1.333h12zM12 8.667h9.333v4h-9.333v-4z"></path>
<path fill="#333333" d="M11.333 22.667c-0.736 0-1.333 0.597-1.333 1.333v5.333c0 0.736 0.597 1.333 1.333 1.333s1.333-0.597 1.333-1.333v-5.333c0-0.736-0.597-1.333-1.333-1.333z"></path>
<path fill="#333333" d="M16.667 22.667c-0.736 0-1.333 0.597-1.333 1.333v5.333c0 0.736 0.597 1.333 1.333 1.333s1.333-0.597 1.333-1.333v-5.333c0-0.736-0.597-1.333-1.333-1.333z"></path>
</svg>
