<?xml version="1.0" encoding="utf-8"?>
<!-- Generated by IcoMoon.io -->
<!DOCTYPE svg PUBLIC "-//W3C//DTD SVG 1.1//EN" "http://www.w3.org/Graphics/SVG/1.1/DTD/svg11.dtd">
<svg version="1.1" xmlns="http://www.w3.org/2000/svg" xmlns:xlink="http://www.w3.org/1999/xlink" width="32" height="32" viewBox="0 0 32 32">
<path fill="#333333" d="M15.333 0c-8.527 0-15.333 6.618-15.333 14.233 0 5.103 2.992 9.74 7.939 12.141l-1.798 3.711c-0.215 0.443-0.167 0.969 0.123 1.368 0.253 0.347 0.655 0.547 1.077 0.547 0.063 0 0.126-0.005 0.189-0.015 12.061-1.723 17.995-7.275 18.588-7.855 3.019-2.624 4.549-6.14 4.549-9.896 0-7.615-6.805-14.234-15.333-14.234zM24.339 22.142c-0.025 0.022-0.051 0.047-0.074 0.069-0.050 0.051-4.791 4.695-14.591 6.698l1.272-2.625c0.163-0.337 0.177-0.725 0.039-1.073s-0.415-0.621-0.765-0.754c-4.669-1.777-7.554-5.793-7.554-10.223 0-6.145 5.61-11.567 12.667-11.567s12.667 5.423 12.667 11.567c0 2.984-1.215 5.796-3.661 7.909z"></path>
<path fill="#333333" d="M10.667 14c0 1.105-0.895 2-2 2s-2-0.895-2-2c0-1.105 0.895-2 2-2s2 0.895 2 2z"></path>
<path fill="#333333" d="M17.333 14c0 1.105-0.895 2-2 2s-2-0.895-2-2c0-1.105 0.895-2 2-2s2 0.895 2 2z"></path>
<path fill="#333333" d="M24 14c0 1.105-0.895 2-2 2s-2-0.895-2-2c0-1.105 0.895-2 2-2s2 0.895 2 2z"></path>
</svg>
