<?xml version="1.0" encoding="utf-8"?>
<!-- Generated by IcoMoon.io -->
<!DOCTYPE svg PUBLIC "-//W3C//DTD SVG 1.1//EN" "http://www.w3.org/Graphics/SVG/1.1/DTD/svg11.dtd">
<svg version="1.1" xmlns="http://www.w3.org/2000/svg" xmlns:xlink="http://www.w3.org/1999/xlink" width="32" height="32" viewBox="0 0 32 32">
<path fill="#333333" d="M16-0.016c-8.225 0-14.667 6.149-14.667 14 0 6.641 4.306 12.265 10.523 13.861l3.090 3.679c0.252 0.3 0.623 0.474 1.015 0.476 0.003 0 0.005 0 0.007 0 0.389 0 0.76-0.17 1.013-0.466l3.153-3.682c6.221-1.591 10.533-7.216 10.533-13.852 0-7.859-6.442-14.016-14.667-14.016zM19.12 25.365c-0.005 0.001-0.009 0.004-0.013 0.004-0.293 0-0.533 0.201-0.729 0.431l-2.402 2.805-2.348-2.796c-0.010-0.012-0.022-0.020-0.033-0.031-0.028-0.032-0.060-0.060-0.091-0.089-0.034-0.031-0.067-0.063-0.103-0.089-0.031-0.023-0.065-0.042-0.097-0.063-0.043-0.026-0.084-0.052-0.127-0.073-0.033-0.015-0.067-0.027-0.1-0.039-0.049-0.019-0.098-0.037-0.149-0.049-0.013-0.003-0.023-0.009-0.035-0.011-5.237-1.156-8.894-5.835-8.894-11.381 0-6.461 5.159-11.333 12-11.333s12 4.879 12 11.349c0 5.532-3.652 10.205-8.88 11.365z"></path>
<path fill="#333333" d="M20.667 8h-9.333c-0.736 0-1.333 0.597-1.333 1.333s0.597 1.333 1.333 1.333h9.333c0.736 0 1.333-0.597 1.333-1.333s-0.597-1.333-1.333-1.333z"></path>
<path fill="#333333" d="M20.667 12.651h-9.333c-0.736 0-1.333 0.597-1.333 1.333s0.597 1.333 1.333 1.333h9.333c0.736 0 1.333-0.597 1.333-1.333s-0.597-1.333-1.333-1.333z"></path>
<path fill="#333333" d="M20.667 17.333h-9.333c-0.736 0-1.333 0.597-1.333 1.333s0.597 1.333 1.333 1.333h9.333c0.736 0 1.333-0.597 1.333-1.333s-0.597-1.333-1.333-1.333z"></path>
</svg>
