<?xml version="1.0" encoding="utf-8"?>
<!-- Generated by IcoMoon.io -->
<!DOCTYPE svg PUBLIC "-//W3C//DTD SVG 1.1//EN" "http://www.w3.org/Graphics/SVG/1.1/DTD/svg11.dtd">
<svg version="1.1" xmlns="http://www.w3.org/2000/svg" xmlns:xlink="http://www.w3.org/1999/xlink" width="32" height="32" viewBox="0 0 32 32">
<path fill="#333333" d="M12.015 15.283c-0.001-0.025-0.003-0.049-0.003-0.074v-6.473c0-2.319 1.239-4.652 3.993-4.74 2.233 0.071 3.469 1.619 3.858 3.437l2.11-2.111c-1.001-2.261-3.015-3.768-5.535-3.973-0.089-0.019-0.181-0.029-0.275-0.029-0.053 0-0.105 0.007-0.157 0.008-0.053-0.001-0.104-0.008-0.157-0.008-0.095 0-0.187 0.011-0.275 0.029-3.641 0.296-6.227 3.307-6.227 7.385v6.473c0 0.858 0.118 1.665 0.329 2.414l2.341-2.339z"></path>
<path fill="#333333" d="M15.572 22.663c0.089 0.019 0.182 0.029 0.277 0.029 0.053 0 0.105-0.007 0.157-0.008 0.053 0.001 0.104 0.008 0.157 0.008 0.095 0 0.187-0.011 0.277-0.029 3.641-0.299 6.227-3.338 6.227-7.454v-3.99l6.276-6.276c0.521-0.521 0.521-1.365 0-1.886s-1.365-0.521-1.885 0l-25.333 25.333c-0.521 0.521-0.521 1.365 0 1.886 0.261 0.261 0.601 0.391 0.943 0.391s0.682-0.13 0.943-0.391l5.068-5.068c1.631 1.492 3.725 2.468 5.993 2.745v2.713c0 0.736 0.597 1.333 1.333 1.333s1.333-0.597 1.333-1.333v-2.717c3.671-0.449 6.888-2.725 8.417-6.060 0.307-0.669 0.013-1.461-0.657-1.767-0.669-0.307-1.46-0.013-1.767 0.657-1.278 2.789-4.154 4.591-7.325 4.591-2.055 0-3.973-0.77-5.427-2.061l1.794-1.794c0.916 0.639 1.997 1.049 3.201 1.147zM20 15.209c0 2.276-1.254 4.716-3.993 4.808-0.652-0.022-1.219-0.178-1.705-0.433l5.699-5.699v1.323z"></path>
</svg>
