<?xml version="1.0" encoding="utf-8"?>
<!-- Generated by IcoMoon.io -->
<!DOCTYPE svg PUBLIC "-//W3C//DTD SVG 1.1//EN" "http://www.w3.org/Graphics/SVG/1.1/DTD/svg11.dtd">
<svg version="1.1" xmlns="http://www.w3.org/2000/svg" xmlns:xlink="http://www.w3.org/1999/xlink" width="32" height="32" viewBox="0 0 32 32">
<path fill="#333333" d="M15.572 22.663c0.089 0.019 0.182 0.029 0.277 0.029 0.053 0 0.105-0.007 0.157-0.008 0.053 0.001 0.104 0.008 0.157 0.008 0.095 0 0.187-0.011 0.277-0.029 3.641-0.299 6.227-3.338 6.227-7.454v-6.473c0-4.078-2.585-7.090-6.227-7.385-0.089-0.019-0.181-0.029-0.276-0.029-0.053 0-0.105 0.007-0.157 0.008-0.053-0.001-0.104-0.008-0.157-0.008-0.095 0-0.187 0.011-0.276 0.029-3.641 0.296-6.227 3.307-6.227 7.385v6.473c0 4.116 2.585 7.155 6.225 7.454zM12.013 8.736c0-2.319 1.239-4.652 3.993-4.74 2.754 0.088 3.993 2.421 3.993 4.74v6.473c0 2.276-1.253 4.716-3.993 4.809-2.74-0.093-3.993-2.533-3.993-4.809v-6.473z"></path>
<path fill="#333333" d="M25.097 20.122c-0.668-0.307-1.46-0.013-1.767 0.657-1.278 2.789-4.153 4.591-7.325 4.591-3.174 0-6.051-1.803-7.332-4.593-0.307-0.669-1.098-0.963-1.767-0.656s-0.963 1.099-0.655 1.768c1.53 3.335 4.75 5.611 8.422 6.060v2.717c0 0.736 0.597 1.333 1.333 1.333s1.333-0.597 1.333-1.333v-2.717c3.671-0.449 6.888-2.725 8.417-6.060 0.305-0.669 0.011-1.461-0.658-1.767z"></path>
</svg>
