<?xml version="1.0" encoding="utf-8"?>
<!-- Generated by IcoMoon.io -->
<!DOCTYPE svg PUBLIC "-//W3C//DTD SVG 1.1//EN" "http://www.w3.org/Graphics/SVG/1.1/DTD/svg11.dtd">
<svg version="1.1" xmlns="http://www.w3.org/2000/svg" xmlns:xlink="http://www.w3.org/1999/xlink" width="32" height="32" viewBox="0 0 32 32">
<path fill="#333333" d="M26.989 23.245c-0.249-0.362-0.66-0.578-1.099-0.578h-8.557c-0.736 0-1.333 0.597-1.333 1.333s0.597 1.333 1.333 1.333h6.29c-1.211 1.708-3.589 4-7.623 4-5.234 0-9.333-4.099-9.333-9.333 0-6.519 5.601-8.608 6.783-8.976l2.633 7.235 2.451-0.892 0.742 2.038 2.506-0.913-0.742-2.038 2.56-0.931-5.016-13.783-2.522 0.918-0.487-1.338c-0.251-0.693-1.018-1.047-1.708-0.797-0.692 0.252-1.049 1.017-0.797 1.709l0.487 1.338-2.491 0.907 1.469 4.037c-3.201 0.995-8.536 4.448-8.536 11.485 0 6.729 5.271 12 12 12 8.156 0 11.017-7.215 11.135-7.523 0.157-0.409 0.103-0.871-0.146-1.233zM20.182 13.93l-2.506 0.912-3.191-8.771 2.506-0.912 3.191 8.771z"></path>
</svg>
