<?xml version="1.0" encoding="utf-8"?>
<!-- Generated by IcoMoon.io -->
<!DOCTYPE svg PUBLIC "-//W3C//DTD SVG 1.1//EN" "http://www.w3.org/Graphics/SVG/1.1/DTD/svg11.dtd">
<svg version="1.1" xmlns="http://www.w3.org/2000/svg" xmlns:xlink="http://www.w3.org/1999/xlink" width="32" height="32" viewBox="0 0 32 32">
<path fill="#333333" d="M27.609 4.391c-0.521-0.521-1.365-0.521-1.885 0l-24 24c-0.521 0.521-0.521 1.365 0 1.885 0.261 0.261 0.601 0.391 0.943 0.391s0.682-0.13 0.943-0.391l6.669-6.668 2.308 2.307c1.465 1.461 3.103 2.567 4.791 3.271 1.244 0.51 2.523 0.812 3.796 0.814 0.442 0 0.882-0.037 1.317-0.116 1.133-0.203 2.243-0.715 3.115-1.595l0.055-0.055 1.273-1.667c0.275-0.353 0.401-0.782 0.4-1.179 0.001-0.557-0.24-1.117-0.711-1.499l-4.424-3.603c-0.367-0.304-0.808-0.436-1.22-0.435-0.535-0.001-1.076 0.221-1.464 0.663l-0.035 0.041-1.293 1.463c-0.061 0.055-0.133 0.080-0.215 0.081-0.089-0.001-0.169-0.031-0.235-0.095l-2.929-2.929 12.801-12.8c0.521-0.521 0.521-1.365 0-1.885zM16.077 23.667c0.521 0.519 1.213 0.783 1.895 0.782 0.683 0.001 1.375-0.265 1.895-0.787l0.026-0.028 1.128-1.275 3.807 3.097-0.935 1.227c-0.483 0.465-1.111 0.763-1.819 0.891-0.289 0.054-0.587 0.079-0.901 0.079-0.892 0.001-1.883-0.218-2.901-0.635-1.367-0.571-2.765-1.503-4.025-2.762l-2.308-2.308 1.21-1.21 2.929 2.929z"></path>
<path fill="#333333" d="M6.085 19.415l0.426 0.425 1.661-1.66-0.425-0.425c-1.263-1.262-2.193-2.659-2.76-4.024-0.421-1.020-0.639-2.009-0.639-2.905 0-0.311 0.027-0.614 0.077-0.907 0.13-0.702 0.428-1.329 0.891-1.813l1.225-0.935 3.1 3.807-1.279 1.13-0.026 0.026c-0.523 0.521-0.786 1.215-0.784 1.895-0.001 0.685 0.264 1.371 0.783 1.894l1.047 1.047 1.659-1.659-1.041-1.040c-0.072-0.073-0.099-0.155-0.101-0.241 0.001-0.081 0.024-0.15 0.076-0.213l1.351-1.197 0.156-0.135c0.443-0.385 0.667-0.931 0.665-1.463 0-0.419-0.137-0.854-0.431-1.213l-3.601-4.425c-0.387-0.482-0.955-0.718-1.507-0.718-0.401 0-0.819 0.125-1.171 0.395l-1.675 1.281-0.055 0.053c-0.875 0.875-1.389 1.982-1.594 3.113l-0.002 0.008c-0.073 0.429-0.112 0.868-0.112 1.311 0.001 1.273 0.304 2.554 0.816 3.802 0.699 1.681 1.807 3.32 3.269 4.787z"></path>
</svg>
