<?xml version="1.0" encoding="utf-8"?>
<!-- Generated by IcoMoon.io -->
<!DOCTYPE svg PUBLIC "-//W3C//DTD SVG 1.1//EN" "http://www.w3.org/Graphics/SVG/1.1/DTD/svg11.dtd">
<svg version="1.1" xmlns="http://www.w3.org/2000/svg" xmlns:xlink="http://www.w3.org/1999/xlink" width="32" height="32" viewBox="0 0 32 32">
<path fill="#333333" d="M29.333 4h-22.667c-1.47 0-2.667 1.196-2.667 2.667h25.333v16c1.469 0 2.667-1.196 2.667-2.667v-13.333c0-1.471-1.197-2.667-2.667-2.667z"></path>
<path fill="#333333" d="M24.667 8h-21.334c-1.838 0-3.333 1.495-3.333 3.333v13.333c0 1.838 1.495 3.333 3.333 3.333h21.333c1.838 0 3.333-1.495 3.333-3.333v-13.333c0.001-1.838-1.495-3.333-3.333-3.333zM25.334 24.667c0 0.367-0.299 0.667-0.667 0.667h-21.334c-0.367 0-0.667-0.299-0.667-0.667v-13.333c0-0.367 0.299-0.667 0.667-0.667h21.333c0.367 0 0.667 0.299 0.667 0.667v13.333z"></path>
<path fill="#333333" d="M16.001 12.667h-4c-2.941 0-5.333 2.393-5.333 5.333s2.393 5.333 5.333 5.333h4c2.941 0 5.333-2.393 5.333-5.333s-2.393-5.333-5.333-5.333zM16.001 20.667h-4c-1.471 0-2.667-1.196-2.667-2.667s1.196-2.667 2.667-2.667h4c1.471 0 2.667 1.196 2.667 2.667s-1.197 2.667-2.667 2.667z"></path>
</svg>
