<?xml version="1.0" encoding="utf-8"?>
<!-- Generated by IcoMoon.io -->
<!DOCTYPE svg PUBLIC "-//W3C//DTD SVG 1.1//EN" "http://www.w3.org/Graphics/SVG/1.1/DTD/svg11.dtd">
<svg version="1.1" xmlns="http://www.w3.org/2000/svg" xmlns:xlink="http://www.w3.org/1999/xlink" width="32" height="32" viewBox="0 0 32 32">
<path fill="#333333" d="M26.667 1.333h-21.333c-2.206 0-4 1.794-4 4v16c0 2.206 1.794 4 4 4h9.333v2.667h-6.667c-0.736 0-1.333 0.597-1.333 1.333s0.597 1.333 1.333 1.333h16c0.736 0 1.333-0.597 1.333-1.333s-0.597-1.333-1.333-1.333h-6.667v-2.667h9.333c2.206 0 4-1.794 4-4v-16c0-2.206-1.794-4-4-4zM5.333 4h21.333c0.735 0 1.333 0.598 1.333 1.333v10.667h-24v-10.667c0-0.735 0.598-1.333 1.333-1.333zM26.667 22.667h-21.333c-0.735 0-1.333-0.598-1.333-1.333v-2.667h24v2.667c0 0.735-0.598 1.333-1.333 1.333z"></path>
</svg>
