<?xml version="1.0" encoding="utf-8"?>
<!-- Generated by IcoMoon.io -->
<!DOCTYPE svg PUBLIC "-//W3C//DTD SVG 1.1//EN" "http://www.w3.org/Graphics/SVG/1.1/DTD/svg11.dtd">
<svg version="1.1" xmlns="http://www.w3.org/2000/svg" xmlns:xlink="http://www.w3.org/1999/xlink" width="32" height="32" viewBox="0 0 32 32">
<path fill="#333333" d="M4.999 18.667c-2.757 0-5 2.243-5 5s2.243 5 5 5 5-2.243 5-5-2.243-5-5-5zM4.999 26c-1.287 0-2.333-1.047-2.333-2.333s1.047-2.333 2.333-2.333 2.333 1.047 2.333 2.333-1.047 2.333-2.333 2.333z"></path>
<path fill="#333333" d="M27 18.667c-2.757 0-5 2.243-5 5s2.243 5 5 5 5-2.243 5-5-2.243-5-5-5zM27 26c-1.287 0-2.333-1.047-2.333-2.333s1.047-2.333 2.333-2.333 2.333 1.047 2.333 2.333-1.047 2.333-2.333 2.333z"></path>
<path fill="#333333" d="M22.4 19.712c1.461-1.578 3.794-2.379 6.933-2.379h1.333c0.736 0 1.333-0.597 1.333-1.333s-0.597-1.333-1.333-1.333h-1.333c-1.050 0-2.028 0.085-2.943 0.241l-2.471-7.939c-0.337-1.281-1.715-3.635-4.616-3.635h-1.637c-0.736 0-1.333 0.597-1.333 1.333s0.597 1.333 1.333 1.333h1.637c1.544 0 1.997 1.499 2.040 1.657 0.006 0.025 0.013 0.049 0.021 0.073l0.291 0.937h-2.988c-0.505 0-0.98 0.314-1.206 0.765-0.025 0.050-2.667 4.995-15.889 2.59-0.697-0.127-1.371 0.313-1.535 1.003s0.239 1.387 0.919 1.587c0.103 0.031 10.377 3.155 10.377 10.055 0 0.736 0.597 1.333 1.333 1.333h6.667c0.371 0 0.726-0.155 0.978-0.427s0.379-0.638 0.351-1.008c-0.002-0.028-0.159-2.805 1.737-4.853zM18.052 23.333h-4.143c-0.493-3.569-2.923-6.185-5.487-7.993 7.003-0.068 9.917-2.657 10.962-4.007h3.101l1.336 4.293c-1.329 0.536-2.464 1.288-3.377 2.274-1.708 1.845-2.237 4.030-2.391 5.433z"></path>
</svg>
