<?xml version="1.0" encoding="utf-8"?>
<!-- Generated by IcoMoon.io -->
<!DOCTYPE svg PUBLIC "-//W3C//DTD SVG 1.1//EN" "http://www.w3.org/Graphics/SVG/1.1/DTD/svg11.dtd">
<svg version="1.1" xmlns="http://www.w3.org/2000/svg" xmlns:xlink="http://www.w3.org/1999/xlink" width="32" height="32" viewBox="0 0 32 32">
<path fill="#333333" d="M16 32c5.881 0 10.667-4.785 10.667-10.667v-10.667c0-5.881-4.786-10.667-10.667-10.667s-10.667 4.786-10.667 10.667v10.667c0 5.881 4.785 10.667 10.667 10.667zM8 10.667c0-4.411 3.589-8 8-8s8 3.589 8 8v10.667c0 4.411-3.589 8-8 8s-8-3.589-8-8v-10.667z"></path>
<path fill="#333333" d="M16 13.25c0.733 0 1.333-0.599 1.333-1.333v-3.917c0-0.733-0.6-1.333-1.333-1.333s-1.333 0.6-1.333 1.333v3.917c0 0.734 0.599 1.333 1.333 1.333z"></path>
</svg>
