<?xml version="1.0" encoding="utf-8"?>
<!-- Generated by IcoMoon.io -->
<!DOCTYPE svg PUBLIC "-//W3C//DTD SVG 1.1//EN" "http://www.w3.org/Graphics/SVG/1.1/DTD/svg11.dtd">
<svg version="1.1" xmlns="http://www.w3.org/2000/svg" xmlns:xlink="http://www.w3.org/1999/xlink" width="32" height="32" viewBox="0 0 32 32">
<path fill="#333333" d="M27.333 3.333h-22.667c-1.838 0-3.333 1.495-3.333 3.333v18.667c0 1.838 1.495 3.333 3.333 3.333h22.667c1.838 0 3.333-1.495 3.333-3.333v-18.667c0-1.838-1.495-3.333-3.333-3.333zM28 6.667v4.667h-1.518c-0.057-0.098-0.122-0.192-0.206-0.276l-2.391-2.391 2.391-2.391c0.084-0.084 0.149-0.178 0.206-0.276h0.851c0.368 0 0.667 0.299 0.667 0.667zM11.815 11.333c-0.057-0.098-0.122-0.192-0.206-0.276l-2.391-2.391 2.391-2.391c0.084-0.084 0.149-0.178 0.206-0.276h3.632l-1.724 1.724c-0.521 0.521-0.521 1.365 0 1.886l1.725 1.723h-3.633zM19.149 11.333c-0.057-0.098-0.122-0.192-0.206-0.276l-2.391-2.391 2.391-2.391c0.084-0.084 0.149-0.178 0.206-0.276h3.632l-1.724 1.724c-0.521 0.521-0.521 1.365 0 1.886l1.725 1.723h-3.633zM4.667 6h3.448l-1.724 1.724c-0.521 0.521-0.521 1.365 0 1.886l1.724 1.723h-4.115v-4.667c0-0.368 0.299-0.667 0.667-0.667zM27.333 26h-22.667c-0.368 0-0.667-0.299-0.667-0.667v-11.333h24v11.333c0 0.367-0.299 0.667-0.667 0.667z"></path>
</svg>
