<?xml version="1.0" encoding="utf-8"?>
<!-- Generated by IcoMoon.io -->
<!DOCTYPE svg PUBLIC "-//W3C//DTD SVG 1.1//EN" "http://www.w3.org/Graphics/SVG/1.1/DTD/svg11.dtd">
<svg version="1.1" xmlns="http://www.w3.org/2000/svg" xmlns:xlink="http://www.w3.org/1999/xlink" width="32" height="32" viewBox="0 0 32 32">
<path fill="#333333" d="M30.655 2.547c-0.003-0.026 0-0.051-0.004-0.077-0.001-0.008-0.005-0.015-0.006-0.024-0.012-0.073-0.031-0.144-0.055-0.213-0.004-0.011-0.006-0.022-0.010-0.033-0.189-0.508-0.673-0.872-1.247-0.872-0.113 0-0.221 0.019-0.327 0.045l-17.104 2.631c-0.572 0.042-1.041 0.441-1.185 0.979-0.003 0.013-0.009 0.025-0.012 0.039-0.013 0.053-0.019 0.109-0.025 0.165-0.005 0.037-0.010 0.075-0.011 0.113 0 0.009-0.003 0.019-0.003 0.029v13.349h-3.333c-3.314 0-6 2.686-6 6s2.686 6 6 6c1.252 0 2.413-0.384 3.375-1.040 1.584-1.080 2.625-2.898 2.625-4.96v-12.867l14.667-2.257v6.457h-3.333c-3.314 0-6 2.686-6 6s2.686 6 6 6c1.252 0 2.413-0.384 3.375-1.040 1.584-1.080 2.625-2.898 2.625-4.96v-19.349c0-0.039-0.008-0.076-0.011-0.115zM10.667 24.677c0 1.84-1.493 3.333-3.333 3.333s-3.333-1.493-3.333-3.333 1.493-3.333 3.333-3.333h3.333v3.333zM28 22.011c0 1.84-1.493 3.333-3.333 3.333s-3.333-1.493-3.333-3.333 1.493-3.333 3.333-3.333h3.333v3.333zM13.333 9.113v-2.63l14.667-2.257v2.63l-14.667 2.257z"></path>
</svg>
