<?xml version="1.0" encoding="utf-8"?>
<!-- Generated by IcoMoon.io -->
<!DOCTYPE svg PUBLIC "-//W3C//DTD SVG 1.1//EN" "http://www.w3.org/Graphics/SVG/1.1/DTD/svg11.dtd">
<svg version="1.1" xmlns="http://www.w3.org/2000/svg" xmlns:xlink="http://www.w3.org/1999/xlink" width="32" height="32" viewBox="0 0 32 32">
<path fill="#333333" d="M31.335 13.905c-0.279-2.822-1.926-5.321-4.638-7.037-2.556-1.617-2.712-2.904-2.713-2.917 0.005 0.051 0.001 0.078 0.001 0.078v-0.033c0-0.736-0.597-1.333-1.333-1.333-0.725 0-1.312 0.579-1.33 1.299h-0.003c0 0.009 0 0.022 0 0.032 0 0.001 0 0.001 0 0.001v13.355h-3.333c-3.314 0-6 2.686-6 6s2.686 6 6 6c1.251 0 2.413-0.384 3.375-1.040 1.583-1.080 2.625-2.898 2.625-4.96v-15.14c0.375 0.3 0.8 0.605 1.287 0.913 2.003 1.266 3.213 3.058 3.41 5.045 0.195 1.979-0.616 3.943-2.283 5.529-0.534 0.508-0.555 1.351-0.047 1.885 0.262 0.275 0.613 0.414 0.966 0.414 0.331 0 0.661-0.122 0.919-0.367 2.241-2.134 3.37-4.948 3.097-7.723zM21.319 23.349c0 1.84-1.493 3.333-3.333 3.333s-3.333-1.493-3.333-3.333 1.493-3.333 3.333-3.333h3.333v3.333z"></path>
<path fill="#333333" d="M2.652 6.661h13.333c0.736 0 1.333-0.597 1.333-1.333s-0.597-1.333-1.333-1.333h-13.333c-0.737 0-1.333 0.597-1.333 1.333s0.596 1.333 1.333 1.333z"></path>
<path fill="#333333" d="M2.652 11.995h13.333c0.736 0 1.333-0.597 1.333-1.333s-0.597-1.333-1.333-1.333h-13.333c-0.737 0-1.333 0.597-1.333 1.333s0.596 1.333 1.333 1.333z"></path>
<path fill="#333333" d="M10.652 14.661h-8c-0.737 0-1.333 0.597-1.333 1.333s0.597 1.333 1.333 1.333h8c0.736 0 1.333-0.597 1.333-1.333s-0.598-1.333-1.333-1.333z"></path>
<path fill="#333333" d="M8.652 19.995h-6c-0.737 0-1.333 0.597-1.333 1.333s0.597 1.333 1.333 1.333h6c0.736 0 1.333-0.597 1.333-1.333s-0.598-1.333-1.333-1.333z"></path>
</svg>
