<?xml version="1.0" encoding="utf-8"?>
<!-- Generated by IcoMoon.io -->
<!DOCTYPE svg PUBLIC "-//W3C//DTD SVG 1.1//EN" "http://www.w3.org/Graphics/SVG/1.1/DTD/svg11.dtd">
<svg version="1.1" xmlns="http://www.w3.org/2000/svg" xmlns:xlink="http://www.w3.org/1999/xlink" width="32" height="32" viewBox="0 0 32 32">
<path fill="#333333" d="M9.886 14.446c0 1.804-1.462 3.266-3.266 3.266s-3.266-1.462-3.266-3.266c0-1.804 1.462-3.266 3.266-3.266s3.266 1.462 3.266 3.266z"></path>
<path fill="#333333" d="M18.768 13.428c0 1.998-1.62 3.618-3.618 3.618s-3.618-1.62-3.618-3.618c0-1.998 1.62-3.618 3.618-3.618s3.618 1.62 3.618 3.618z"></path>
<path fill="#333333" d="M28.601 12.252c0 2.239-1.815 4.054-4.054 4.054s-4.054-1.815-4.054-4.054c0-2.239 1.815-4.054 4.054-4.054s4.054 1.815 4.054 4.054z"></path>
<path fill="#333333" d="M24.571 17.238c0 0 1.635-0.118 3.062 1.307 1.424 1.426 1.366 3.036 1.366 3.036v1.875c0 0-0.071 0.37-0.444 0.37h-8.056c0 0-0.409-0.098-0.409-0.407v-1.741c0 0.002 0.224-4.255 4.481-4.44z"></path>
<path fill="#333333" d="M15.173 17.895c0 0 1.472-0.106 2.754 1.177 1.283 1.283 1.232 2.733 1.232 2.733v1.689c0 0-0.067 0.332-0.401 0.332h-7.25c0 0-0.364-0.089-0.364-0.367v-1.566c0 0.002 0.198-3.831 4.030-3.998z"></path>
<path fill="#333333" d="M6.639 18.475c0 0 1.329-0.094 2.486 1.063s1.112 2.465 1.112 2.465v1.524c0 0-0.061 0.3-0.361 0.3h-6.544c0 0-0.33-0.080-0.33-0.332v-1.412c0 0 0.179-3.457 3.637-3.609z"></path>
</svg>
