<?xml version="1.0" encoding="utf-8"?>
<!-- Generated by IcoMoon.io -->
<!DOCTYPE svg PUBLIC "-//W3C//DTD SVG 1.1//EN" "http://www.w3.org/Graphics/SVG/1.1/DTD/svg11.dtd">
<svg version="1.1" xmlns="http://www.w3.org/2000/svg" xmlns:xlink="http://www.w3.org/1999/xlink" width="32" height="32" viewBox="0 0 32 32">
<path fill="#333333" d="M12.537 26.015c0.037-3.308-0.047-6.619 0.044-9.927 0.82 1.145 1.568 2.34 2.404 3.473 1.4 2.172 2.981 4.225 4.328 6.431 2.516 0.067 5.031-0.001 7.549 0.039 0.027-0.313 0.052-0.625 0.052-0.94-0.036-6.367 0.031-12.736-0.033-19.103-2.489-0.019-4.976 0.005-7.464-0.009-0.019 3.327 0.020 6.655-0.021 9.977-2.312-3.289-4.496-6.675-6.861-9.923-2.495-0.113-5.003-0.033-7.5-0.036 0.015 6.671 0.004 13.344 0.004 20.016 2.499 0.013 5.001 0.009 7.499 0.001z"></path>
</svg>
