<?xml version="1.0" encoding="utf-8"?>
<!-- Generated by IcoMoon.io -->
<!DOCTYPE svg PUBLIC "-//W3C//DTD SVG 1.1//EN" "http://www.w3.org/Graphics/SVG/1.1/DTD/svg11.dtd">
<svg version="1.1" xmlns="http://www.w3.org/2000/svg" xmlns:xlink="http://www.w3.org/1999/xlink" width="32" height="32" viewBox="0 0 32 32">
<path fill="#333333" d="M25.461 6.533c-2.581-2.579-5.74-3.867-9.479-3.867-3.693 0-6.819 1.288-9.377 3.867-2.627 2.667-3.939 5.821-3.939 9.467 0 3.644 1.312 6.777 3.939 9.399 2.625 2.624 5.752 3.935 9.377 3.935 3.671 0 6.853-1.323 9.545-3.967 2.537-2.511 3.805-5.633 3.805-9.367s-1.291-6.889-3.872-9.467zM23.793 23.633c-2.203 2.177-4.796 3.265-7.776 3.265-2.981 0-5.552-1.077-7.709-3.233-2.16-2.156-3.237-4.711-3.237-7.665 0-1.251 0.196-2.432 0.587-3.545l3.532 1.564h-0.253v1.584h1.251c0 0.224-0.023 0.447-0.023 0.669v0.38h-1.228v1.585h1.451c0.2 1.183 0.647 2.141 1.251 2.901 1.251 1.652 3.259 2.544 5.447 2.544 1.428 0 2.723-0.424 3.481-0.848l-0.536-2.477c-0.469 0.245-1.517 0.58-2.544 0.58-1.116 0-2.164-0.335-2.879-1.139-0.335-0.38-0.581-0.893-0.736-1.563h4.852l6.896 3.052c-0.48 0.847-1.087 1.629-1.825 2.345zM15.121 16.652l-0.029-0.023 0.051 0.023h-0.021zM19.272 15.603h0.199v-1.584h-3.777l-1.536-0.68c0.133-0.297 0.289-0.563 0.472-0.771 0.693-0.849 1.675-1.205 2.747-1.205 0.981 0 1.897 0.289 2.476 0.535l0.625-2.545c-0.804-0.356-1.985-0.668-3.348-0.668-2.097 0-3.884 0.848-5.156 2.276-0.283 0.327-0.528 0.693-0.749 1.080l-4.387-1.941c0.424-0.637 0.924-1.248 1.504-1.832 2.091-2.133 4.649-3.2 7.676-3.2s5.595 1.067 7.709 3.2c2.136 2.111 3.203 4.688 3.203 7.733 0 1.003-0.115 1.949-0.339 2.841l-7.319-3.239z"></path>
</svg>
