<?xml version="1.0" encoding="utf-8"?>
<!-- Generated by IcoMoon.io -->
<!DOCTYPE svg PUBLIC "-//W3C//DTD SVG 1.1//EN" "http://www.w3.org/Graphics/SVG/1.1/DTD/svg11.dtd">
<svg version="1.1" xmlns="http://www.w3.org/2000/svg" xmlns:xlink="http://www.w3.org/1999/xlink" width="32" height="32" viewBox="0 0 32 32">
<path fill="#333333" d="M25.463 6.532c-2.583-2.577-5.741-3.865-9.48-3.865-3.693 0-6.82 1.288-9.377 3.865-2.627 2.668-3.939 5.824-3.939 9.468s1.312 6.777 3.939 9.4c2.625 2.623 5.752 3.933 9.377 3.933 3.671 0 6.853-1.323 9.545-3.967 2.537-2.511 3.805-5.633 3.805-9.367s-1.291-6.889-3.871-9.468zM23.792 23.633c-2.203 2.177-4.795 3.267-7.775 3.267-2.981 0-5.552-1.079-7.709-3.233-2.16-2.156-3.237-4.712-3.237-7.667 0-1.137 0.163-2.216 0.484-3.24l6.827 3.040h-1.503v2.075h3.124l0.305 0.633v1.007h-3.429v2.075h3.429v3.015h3.317v-3.015h3.451v-1.917l4.353 1.939c-0.447 0.723-0.991 1.399-1.637 2.023zM20.724 19.515h-3.097v-1.007l0.156-0.303 2.941 1.309zM21.077 16.753v-0.953h-2.075l3.385-6.237h-3.539l-2.331 5.163-1.237-0.551-2.131-4.613h-3.539l1.469 2.741-4.403-1.96c0.457-0.725 1.011-1.419 1.661-2.076 2.092-2.133 4.649-3.2 7.677-3.2 3.025 0 5.595 1.067 7.708 3.2 2.137 2.111 3.204 4.689 3.204 7.733 0 1.128-0.143 2.184-0.425 3.169l-5.427-2.416z"></path>
</svg>
