<?xml version="1.0" encoding="utf-8"?>
<!-- Generated by IcoMoon.io -->
<!DOCTYPE svg PUBLIC "-//W3C//DTD SVG 1.1//EN" "http://www.w3.org/Graphics/SVG/1.1/DTD/svg11.dtd">
<svg version="1.1" xmlns="http://www.w3.org/2000/svg" xmlns:xlink="http://www.w3.org/1999/xlink" width="32" height="32" viewBox="0 0 32 32">
<path fill="#333333" d="M15.976 2.667c3.747 0 6.905 1.285 9.476 3.857 2.587 2.571 3.881 5.729 3.881 9.476s-1.269 6.865-3.808 9.357c-2.7 2.651-5.883 3.976-9.549 3.976-3.619 0-6.747-1.317-9.381-3.953-2.62-2.619-3.928-5.745-3.928-9.38 0-3.651 1.308-6.809 3.928-9.476 2.572-2.572 5.7-3.857 9.381-3.857zM5.668 12.404c-0.399 1.096-0.596 2.295-0.596 3.596 0 2.953 1.079 5.508 3.239 7.667 2.175 2.143 4.745 3.215 7.713 3.215 3.001 0 5.587-1.087 7.763-3.261 0.777-0.747 1.388-1.524 1.833-2.333l-5.025-2.237c-0.175 0.841-0.599 1.528-1.273 2.059s-1.472 0.837-2.392 0.917v2.048h-1.548v-2.048c-1.476-0.016-2.825-0.548-4.048-1.595l1.835-1.857c0.872 0.809 1.863 1.215 2.975 1.215 0.46 0 0.853-0.104 1.179-0.309s0.488-0.548 0.488-1.024c0-0.333-0.119-0.603-0.359-0.809l-1.285-0.548-1.572-0.715-2.119-0.929-6.807-3.049zM16.024 5.047c-3.031 0-5.593 1.072-7.691 3.215-0.524 0.524-1.016 1.12-1.475 1.785l5.095 2.287c0.223-0.697 0.641-1.257 1.261-1.679 0.619-0.42 1.341-0.655 2.167-0.701v-2.049h1.548v2.048c1.221 0.063 2.332 0.476 3.333 1.237l-1.74 1.785c-0.747-0.524-1.507-0.785-2.285-0.785-0.415 0-0.781 0.080-1.107 0.239s-0.488 0.428-0.488 0.809c0 0.111 0.039 0.223 0.119 0.333l2.859 1.285 2.141 0.952 6.833 3.048c0.223-0.936 0.335-1.889 0.335-2.857 0-3.063-1.065-5.643-3.192-7.737-2.109-2.143-4.681-3.215-7.713-3.215z"></path>
</svg>
