<?xml version="1.0" encoding="utf-8"?>
<!-- Generated by IcoMoon.io -->
<!DOCTYPE svg PUBLIC "-//W3C//DTD SVG 1.1//EN" "http://www.w3.org/Graphics/SVG/1.1/DTD/svg11.dtd">
<svg version="1.1" xmlns="http://www.w3.org/2000/svg" xmlns:xlink="http://www.w3.org/1999/xlink" width="32" height="32" viewBox="0 0 32 32">
<path fill="#333333" d="M15.976 2.667c3.729 0 6.888 1.293 9.476 3.881 2.587 2.571 3.881 5.723 3.881 9.452 0 3.731-1.269 6.857-3.809 9.381-2.683 2.635-5.865 3.952-9.548 3.952-3.604 0-6.731-1.309-9.381-3.928-2.619-2.62-3.928-5.755-3.928-9.405 0-3.635 1.309-6.785 3.928-9.452 2.588-2.588 5.715-3.881 9.381-3.881zM16.024 5.072c-3.031 0-5.595 1.071-7.691 3.215-2.175 2.205-3.261 4.777-3.261 7.713 0 2.969 1.080 5.524 3.239 7.667 2.159 2.159 4.731 3.239 7.713 3.239 2.969 0 5.556-1.087 7.763-3.263 2.095-2.031 3.141-4.579 3.141-7.643 0-3.048-1.064-5.619-3.191-7.715-2.109-2.143-4.681-3.213-7.713-3.213zM21.048 12.857v2.287h-9.691v-2.287h9.691zM21.048 17.143v2.285h-9.691v-2.285h9.691z"></path>
</svg>
