<?xml version="1.0" encoding="utf-8"?>
<!-- Generated by IcoMoon.io -->
<!DOCTYPE svg PUBLIC "-//W3C//DTD SVG 1.1//EN" "http://www.w3.org/Graphics/SVG/1.1/DTD/svg11.dtd">
<svg version="1.1" xmlns="http://www.w3.org/2000/svg" xmlns:xlink="http://www.w3.org/1999/xlink" width="32" height="32" viewBox="0 0 32 32">
<path fill="#333333" d="M24.667 2.667h-17.333c-2.573 0-4.667 2.093-4.667 4.667v17.333c0 2.573 2.094 4.667 4.667 4.667h17.333c2.573 0 4.667-2.093 4.667-4.667v-17.333c0-2.573-2.094-4.667-4.667-4.667zM26.667 24.667c0 1.103-0.897 2-2 2h-17.333c-1.103 0-2-0.897-2-2v-17.333c0-1.103 0.897-2 2-2h17.333c1.103 0 2 0.897 2 2v17.333z"></path>
<path fill="#333333" d="M22 8.667c-0.736 0-1.333 0.597-1.333 1.333v10.619l-7.291-11.015c-0.069-0.104-0.152-0.198-0.247-0.279-0.539-0.459-1.787-1.053-3.050-0.368-1.185 0.644-1.445 1.797-1.413 2.44v10.603c0 0.736 0.597 1.333 1.333 1.333s1.333-0.597 1.333-1.333v-10.647c0-0.001 0-0.003 0-0.005l7.278 10.996c0.045 0.069 0.097 0.134 0.155 0.193 0.353 0.363 1.055 0.813 1.911 0.813 0.363 0 0.753-0.081 1.155-0.283 1.25-0.628 1.531-1.801 1.501-2.455v-10.613c0.001-0.736-0.597-1.333-1.333-1.333z"></path>
</svg>
