<?xml version="1.0" encoding="utf-8"?>
<!-- Generated by IcoMoon.io -->
<!DOCTYPE svg PUBLIC "-//W3C//DTD SVG 1.1//EN" "http://www.w3.org/Graphics/SVG/1.1/DTD/svg11.dtd">
<svg version="1.1" xmlns="http://www.w3.org/2000/svg" xmlns:xlink="http://www.w3.org/1999/xlink" width="32" height="32" viewBox="0 0 32 32">
<path fill="#333333" d="M30.181 18.302c-0.429-0.357-1.037-0.408-1.521-0.129-0.025 0.014-2.486 1.412-5.648 1.412 0 0-0.001 0-0.001 0-2.792 0-5.282-1.075-7.403-3.195-5.835-5.835-1.947-12.761-1.781-13.049 0.283-0.483 0.233-1.091-0.124-1.523s-0.945-0.595-1.472-0.407c-2.025 0.717-3.828 1.856-5.357 3.386-2.715 2.715-4.21 6.325-4.21 10.164s1.495 7.449 4.211 10.164c2.715 2.715 6.323 4.209 10.162 4.209 0 0 0.001 0 0.001 0 3.84 0 7.45-1.495 10.165-4.21 1.527-1.527 2.666-3.328 3.384-5.352 0.187-0.526 0.024-1.112-0.405-1.469zM25.317 23.238c-2.211 2.211-5.152 3.429-8.279 3.429 0 0 0 0-0.001 0-3.126 0-6.066-1.217-8.277-3.428s-3.43-5.151-3.43-8.278c0-3.127 1.218-6.067 3.429-8.279 0.459-0.459 0.949-0.875 1.466-1.247-0.815 3.275-0.988 8.354 3.498 12.84 2.638 2.639 5.763 3.976 9.287 3.976 0.001 0 0 0 0.001 0 1.305 0 2.504-0.189 3.527-0.445-0.365 0.504-0.773 0.982-1.221 1.431z"></path>
<path fill="#333333" d="M20.667 7.333h2.364l-3.361 3.781c-0.349 0.392-0.435 0.953-0.22 1.432s0.691 0.787 1.217 0.787h5.333c0.736 0 1.333-0.597 1.333-1.333s-0.597-1.333-1.333-1.333h-2.364l3.361-3.781c0.349-0.392 0.435-0.953 0.22-1.432-0.216-0.479-0.692-0.787-1.217-0.787h-5.333c-0.736 0-1.333 0.597-1.333 1.333s0.597 1.333 1.333 1.333z"></path>
</svg>
