<?xml version="1.0" encoding="utf-8"?>
<!-- Generated by IcoMoon.io -->
<!DOCTYPE svg PUBLIC "-//W3C//DTD SVG 1.1//EN" "http://www.w3.org/Graphics/SVG/1.1/DTD/svg11.dtd">
<svg version="1.1" xmlns="http://www.w3.org/2000/svg" xmlns:xlink="http://www.w3.org/1999/xlink" width="32" height="32" viewBox="0 0 32 32">
<path fill="#333333" d="M31.334 6.021l-6.001-0.001v-4.687h-14.019v5.467l-9.982 9.981c-1.039 1.039-1.039 2.731 0.001 3.771l9.428 9.427c0.503 0.504 1.173 0.781 1.886 0.781s1.383-0.277 1.885-0.781l9.981-9.981h6.82l0.001-13.979zM22.667 4v2.020h-8.685v-2.020h8.685zM11.314 10.571v6.762h-6.762l6.762-6.762zM4.552 20h6.762v6.761l-6.762-6.761zM13.981 26.761v-6.761h6.761l-6.761 6.761zM28.667 17.333h-4.485c-0.134-0.021-0.269-0.021-0.403 0h-9.798v-8.647l14.686 0.001v8.646z"></path>
</svg>
