<?xml version="1.0" encoding="utf-8"?>
<!-- Generated by IcoMoon.io -->
<!DOCTYPE svg PUBLIC "-//W3C//DTD SVG 1.1//EN" "http://www.w3.org/Graphics/SVG/1.1/DTD/svg11.dtd">
<svg version="1.1" xmlns="http://www.w3.org/2000/svg" xmlns:xlink="http://www.w3.org/1999/xlink" width="32" height="32" viewBox="0 0 32 32">
<path fill="#333333" d="M29.35 1.334c-0.736 0-1.333 0.597-1.333 1.333v0.776l-24.023 6.992c-0.11-0.625-0.653-1.101-1.31-1.101-0.736 0-1.333 0.597-1.333 1.333v9.334c0 0.737 0.597 1.333 1.333 1.333 0.697 0 1.263-0.536 1.321-1.219l2.679 0.659v3.227c0 3.309 2.692 6 6 6s6-2.691 6-6v-0.276l9.333 2.295v0.655c0 0.736 0.597 1.333 1.333 1.333s1.333-0.597 1.333-1.333v-24.008c0-0.737-0.597-1.333-1.333-1.333zM16.017 24.001c0 1.837-1.495 3.333-3.333 3.333s-3.333-1.496-3.333-3.333v-2.571l6.667 1.639v0.931zM4.017 17.334v-4l24-7.325v17.325l-24-6z"></path>
</svg>
