<?xml version="1.0" encoding="utf-8"?>
<!-- Generated by IcoMoon.io -->
<!DOCTYPE svg PUBLIC "-//W3C//DTD SVG 1.1//EN" "http://www.w3.org/Graphics/SVG/1.1/DTD/svg11.dtd">
<svg version="1.1" xmlns="http://www.w3.org/2000/svg" xmlns:xlink="http://www.w3.org/1999/xlink" width="32" height="32" viewBox="0 0 32 32">
<path fill="#333333" d="M18.015 28.449c-0.803-0.142-1.571-0.276-2.339-0.415-4.035-0.732-8.071-1.465-12.105-2.197-0.627-0.113-0.627-0.109-0.627-0.739 0-6.177 0.003-12.355-0.010-18.532-0.001-0.398 0.091-0.557 0.505-0.632 4.765-0.851 9.528-1.722 14.293-2.586 0.083-0.016 0.17-0.001 0.283-0.001 0 8.354 0 16.7 0 25.102zM8.584 14.48c0.030-0.010 0.062-0.020 0.093-0.030 0.086 0.118 0.173 0.232 0.254 0.351 1.019 1.491 2.037 2.986 3.060 4.476 0.089 0.125 0.215 0.296 0.34 0.311 0.568 0.068 1.141 0.090 1.729 0.128 0-2.606 0-5.154 0-7.718-0.446 0.023-0.845 0.064-1.244 0.057-0.343-0.009-0.462 0.113-0.456 0.463 0.023 0.889 0.009 1.778 0.009 2.667 0 0.645 0 1.289 0 2.049-0.145-0.173-0.221-0.251-0.283-0.34-1-1.433-1.999-2.869-3.005-4.297-0.089-0.125-0.228-0.298-0.346-0.301-0.512-0.006-1.028 0.042-1.558 0.073 0 2.319 0 4.593 0 6.909 0.473 0.028 0.925 0.054 1.407 0.081 0-1.664 0-3.271 0-4.878z"></path>
<path fill="#333333" d="M25.155 15.037c0-0.325 0-0.586 0-0.906-0.155-0.007-0.312-0.022-0.467-0.022-1.838-0.001-3.674-0.017-5.511 0.012-0.467 0.007-0.611-0.141-0.555-0.578 0.029-0.219 0.029-0.447 0-0.665-0.051-0.408 0.131-0.494 0.508-0.489 1.838 0.017 3.674 0.007 5.511 0.007 0.16 0 0.319 0 0.507 0 0-0.33 0-0.617 0-0.952-0.18 0-0.338 0-0.498 0-1.851 0-3.705-0.010-5.556 0.007-0.373 0.003-0.476-0.115-0.473-0.479 0.009-1.209-0.004-1.209 1.202-1.209 1.587 0 3.172 0 4.758 0 0.176 0 0.351 0 0.562 0 0-0.311 0-0.581 0-0.916-0.18 0-0.351 0-0.524 0-1.838 0-3.674-0.009-5.511 0.007-0.357 0.003-0.507-0.087-0.486-0.469 0.030-0.576 0.019-1.156 0.006-1.733-0.009-0.271 0.096-0.362 0.36-0.362 2.668 0.006 5.334 0.006 8.002 0 0.263 0 0.383 0.083 0.363 0.359-0.017 0.234-0.004 0.469-0.004 0.767 0.431 0 0.825 0.010 1.22-0.003 0.36-0.012 0.504 0.142 0.501 0.504-0.015 1.378-0.017 2.756-0.001 4.133 0.004 0.399-0.17 0.524-0.536 0.511-0.379-0.012-0.761-0.001-1.185-0.001 0 0.24 0 0.414 0 0.586 0 3.942-0.007 7.883 0.009 11.823 0 0.409-0.113 0.523-0.521 0.52-2.577-0.019-5.155-0.016-7.732-0.001-0.364 0.001-0.502-0.093-0.481-0.472 0.029-0.531 0.026-1.066 0.001-1.6-0.017-0.348 0.093-0.459 0.45-0.456 1.882 0.016 3.765 0.007 5.645 0.007 0.131 0 0.263 0 0.428 0 0-0.308 0-0.581 0-0.91-0.148-0.007-0.303-0.020-0.459-0.020-1.867-0.001-3.734-0.007-5.6 0.006-0.334 0.001-0.499-0.073-0.462-0.441 0.029-0.264 0.028-0.536 0-0.8-0.036-0.367 0.131-0.443 0.463-0.44 1.851 0.012 3.705 0.006 5.556 0.006 0.158 0 0.321 0 0.505 0 0-0.325 0-0.6 0-0.926-0.17-0.010-0.34-0.028-0.511-0.028-1.838-0.001-3.674-0.010-5.511 0.006-0.383 0.003-0.512-0.096-0.508-0.497 0.016-1.265-0.001-1.265 1.243-1.265 1.584 0 3.171 0 4.755 0 0.161 0 0.324 0 0.521 0 0-0.315 0-0.601 0-0.932-0.155-0.007-0.315-0.020-0.473-0.020-1.838-0.001-3.674-0.015-5.51 0.009-0.443 0.006-0.546-0.136-0.537-0.553 0.025-1.125 0.006-1.125 1.111-1.125 1.629 0 3.258 0 4.888 0 0.161 0.001 0.322 0.001 0.539 0.001z"></path>
<path fill="#333333" d="M27.842 24.081c0-0.231 0-0.434 0-0.637 0-1.376 0.015-2.753-0.009-4.129-0.006-0.377 0.118-0.505 0.481-0.466 0.218 0.023 0.441 0.003 0.704 0.003 0 1.749 0 3.471 0 5.228-0.373 0.001-0.748 0.001-1.176 0.001z"></path>
<path fill="#333333" d="M29.031 18.387c-0.405 0-0.756 0-1.161 0-0.010-0.155-0.026-0.298-0.026-0.438-0.001-1.433 0.010-2.867-0.010-4.299-0.003-0.367 0.1-0.512 0.473-0.47 0.229 0.026 0.465 0.004 0.723 0.004 0.001 1.755 0.001 3.458 0.001 5.203z"></path>
</svg>
