<?xml version="1.0" encoding="utf-8"?>
<!-- Generated by IcoMoon.io -->
<!DOCTYPE svg PUBLIC "-//W3C//DTD SVG 1.1//EN" "http://www.w3.org/Graphics/SVG/1.1/DTD/svg11.dtd">
<svg version="1.1" xmlns="http://www.w3.org/2000/svg" xmlns:xlink="http://www.w3.org/1999/xlink" width="32" height="32" viewBox="0 0 32 32">
<path fill="#333333" d="M7.456 24.024c0 1.092 0.888 1.981 1.985 1.981 1.092 0 1.98-0.889 1.98-1.981 0-1.098-0.888-1.985-1.98-1.985-1.098 0-1.985 0.888-1.985 1.985z"></path>
<path fill="#333333" d="M16.49 24.024c0 1.092 0.889 1.981 1.985 1.981 1.094 0 1.981-0.889 1.981-1.981 0-1.098-0.888-1.985-1.981-1.985-1.098 0-1.985 0.888-1.985 1.985z"></path>
<path fill="#333333" d="M21.344 20.468c0 0 0.359-0.634 0.957-1.362 0 0 0.57-0.666 0.693-0.794 0 0 1.583-1.664 1.923-2.024 0 0 1.529-1.421 1.426-2.465 0 0-0.028-0.828-1.848-1.188 0 0-1.487-0.313-3.347-0.339 0 0-1.61-0.047-1.76-0.028 0 0-4.857 0.057-6.088-0.142 0 0-3.368-0.255-5.407-0.988 0 0-2.375-0.751-3.857-2.264 0 0-0.653-0.723-1.060-1.376 0 0-0.562-0.942-0.889-1.478 0 0 0.915 0.906 0.959 0.934 0 0 1.223 1.105 2.581 1.702 0 0 1.223 0.689 4.095 1.133 0 0 2.29 0.353 4.835 0.416 0 0 4.493 0.154 5.235 0.109 0 0 3.85-0.008 4.845 0.054 0 0 2.432 0.079 3.75 0.447 0 0 1.521 0.36 1.521 1.166 0 0 0.174 0.87-1.557 2.355 0 0-1.557 1.466-2.246 2.029 0 0-1.974 1.683-2.083 1.784 0.001 0-2.474 2.116-2.677 2.322z"></path>
</svg>
