<?xml version="1.0" encoding="utf-8"?>
<!-- Generated by IcoMoon.io -->
<!DOCTYPE svg PUBLIC "-//W3C//DTD SVG 1.1//EN" "http://www.w3.org/Graphics/SVG/1.1/DTD/svg11.dtd">
<svg version="1.1" xmlns="http://www.w3.org/2000/svg" xmlns:xlink="http://www.w3.org/1999/xlink" width="32" height="32" viewBox="0 0 32 32">
<path fill="#333333" d="M22.584 20.249c0 4.876-3.953 8.828-8.828 8.828s-8.828-3.953-8.828-8.828c0-4.876 3.953-8.828 8.828-8.828s8.828 3.953 8.828 8.828z"></path>
<path fill="#333333" d="M13.814 10.811c0 0 2.246-5.523 8.558-3.889 0 0 5.155 1.549 4.903 7.334 0 0-0.208 3.853-4.010 5.742 0 0 0.224-3.82-2.774-6.699 0 0-2.596-2.625-6.677-2.488z"></path>
<path fill="#333333" d="M10.713 11.321c-1.76-2.374-0.197-5.418-0.454-4.788 0 0 1.259-3.606 5.093-3.584 0 0 3.236-0.163 4.996 3.027 0 0-2.629-0.165-4.861 1.672 0 0-1.291 0.981-2.336 3.114 0-0.001-1.389 0.126-2.438 0.559z"></path>
</svg>
