<?xml version="1.0" encoding="utf-8"?>
<!-- Generated by IcoMoon.io -->
<!DOCTYPE svg PUBLIC "-//W3C//DTD SVG 1.1//EN" "http://www.w3.org/Graphics/SVG/1.1/DTD/svg11.dtd">
<svg version="1.1" xmlns="http://www.w3.org/2000/svg" xmlns:xlink="http://www.w3.org/1999/xlink" width="32" height="32" viewBox="0 0 32 32">
<path fill="#333333" d="M26.244 18.023c-1.877-0.349-5.991-2.183-5.991-5.356 0-1.157 0.24-2.045 0.494-2.986 0.275-1.017 0.586-2.171 0.586-3.681 0-2.661-2.006-4.667-4.667-4.667-2.748 0-4.667 1.919-4.667 4.667 0 1.511 0.313 2.665 0.59 3.683 0.255 0.94 0.497 1.828 0.497 2.984 0 3.122-4.129 4.935-6.013 5.283-1.394 0.258-2.407 1.37-2.407 2.645v3.405c0 2.843-1.103 4.585-1.109 4.594-0.273 0.409-0.298 0.935-0.066 1.369s0.683 0.704 1.175 0.704h21.333c0.446 0 0.862-0.223 1.109-0.594 0.063-0.095 1.557-2.378 1.557-6.073v-3.333c0-1.271-1.019-2.383-2.423-2.644zM7.558 20.573c3.169-0.585 8.195-3.249 8.195-7.906 0-1.511-0.313-2.665-0.59-3.683-0.255-0.941-0.497-1.829-0.497-2.984 0-1.271 0.729-2 2-2 1.215 0 2 0.785 2 2 0 1.157-0.24 2.045-0.494 2.986-0.275 1.017-0.586 2.171-0.586 3.681 0 4.879 5.504 7.482 8.169 7.977 0.129 0.024 0.207 0.074 0.243 0.107v1.443h-18.666v-1.52c0.033-0.031 0.105-0.079 0.225-0.101zM6.712 28c0.269-0.827 0.504-1.893 0.584-3.139h18.666c-0.115 1.434-0.491 2.518-0.768 3.139h-18.482z"></path>
</svg>
