<?xml version="1.0" encoding="utf-8"?>
<!-- Generated by IcoMoon.io -->
<!DOCTYPE svg PUBLIC "-//W3C//DTD SVG 1.1//EN" "http://www.w3.org/Graphics/SVG/1.1/DTD/svg11.dtd">
<svg version="1.1" xmlns="http://www.w3.org/2000/svg" xmlns:xlink="http://www.w3.org/1999/xlink" width="32" height="32" viewBox="0 0 32 32">
<path fill="#333333" d="M31.449 17.419c-0.355-0.565-2.303-3.683-4.251-6.801-1.949-3.12-3.899-6.24-4.253-6.805-1.093-1.741-3.773-2.355-5.514-1.263-0.217 0.136-0.852 0.548-1.743 1.127-2.572 1.669-7.359 4.775-10.22 6.516-1.795 1.092-2.726 2.558-2.789 4.352-0.003 0.041-0.012 0.080-0.012 0.121v5.782c-1.232 0.985-2 2.61-2 4.369 0 2.941 2.093 5.333 4.667 5.333s4.667-2.393 4.667-5.333c0-0.912-0.203-1.812-0.589-2.603-0.323-0.662-1.121-0.936-1.783-0.613s-0.936 1.121-0.613 1.783c0.209 0.428 0.319 0.923 0.319 1.432 0 1.445-0.916 2.667-2 2.667s-2-1.221-2-2.667c0-1.084 0.517-2.083 1.286-2.487 0.019-0.010 0.033-0.023 0.051-0.034 0.045-0.026 0.088-0.054 0.129-0.085 0.031-0.023 0.060-0.047 0.089-0.073 0.035-0.031 0.068-0.064 0.099-0.099 0.027-0.030 0.052-0.060 0.076-0.092 0.028-0.037 0.053-0.075 0.077-0.115 0.020-0.033 0.039-0.067 0.055-0.102 0.021-0.042 0.039-0.085 0.055-0.13 0.013-0.037 0.025-0.075 0.035-0.113 0.011-0.043 0.021-0.087 0.028-0.133 0.007-0.044 0.011-0.089 0.013-0.133 0.001-0.023 0.007-0.047 0.007-0.071v-6.415c0-0.662 0.181-1.449 1.521-2.264 2.893-1.761 7.702-4.881 10.285-6.557 0.874-0.567 1.497-0.971 1.709-1.105 0.507-0.317 1.52-0.086 1.838 0.421 0.291 0.463 1.652 2.641 3.206 5.129-1.871 0.169-3.454 1.028-4.316 2.381-1.284 2.016-3.904 0.909-4.216 0.768-3.391-1.494-6.33 0.395-7.409 1.602l0.005 0.004c-0.383 0.429-0.463 1.071-0.146 1.585 0.261 0.423 6.398 10.365 7.101 11.486 0.525 0.835 1.44 1.456 2.513 1.701 0.33 0.076 0.662 0.113 0.987 0.113 0.734 0 1.437-0.188 2.015-0.551 0.583-0.366 2.691-1.784 4.923-3.285 2.11-1.419 4.292-2.887 4.838-3.229 0.835-0.524 1.456-1.44 1.701-2.512 0.246-1.073 0.086-2.167-0.439-3.003zM29.288 19.827c-0.086 0.377-0.285 0.701-0.519 0.849-0.582 0.365-2.684 1.779-4.909 3.275-2.117 1.423-4.305 2.895-4.852 3.239-0.235 0.147-0.615 0.184-0.99 0.098-0.377-0.086-0.702-0.285-0.848-0.519-0.569-0.906-4.873-7.877-6.484-10.487 0.766-0.498 2.053-1.014 3.577-0.343 1.719 0.797 5.513 1.453 7.563-1.765 0.868-1.361 3.146-1.286 3.797-1.046 1.701 2.722 3.256 5.211 3.569 5.709 0.146 0.234 0.184 0.613 0.097 0.99z"></path>
</svg>
