<?xml version="1.0" encoding="utf-8"?>
<!-- Generated by IcoMoon.io -->
<!DOCTYPE svg PUBLIC "-//W3C//DTD SVG 1.1//EN" "http://www.w3.org/Graphics/SVG/1.1/DTD/svg11.dtd">
<svg version="1.1" xmlns="http://www.w3.org/2000/svg" xmlns:xlink="http://www.w3.org/1999/xlink" width="32" height="32" viewBox="0 0 32 32">
<path fill="#333333" d="M31.361 3.194c-0.34-0.367-0.857-0.512-1.337-0.377l-28.768 8.055c-0.473 0.133-0.834 0.513-0.941 0.992s0.056 0.977 0.427 1.298l7.709 6.698v8.141c0 0.516 0.298 0.986 0.765 1.207 0.181 0.086 0.375 0.127 0.568 0.127 0.304 0 0.605-0.103 0.849-0.305l4.293-3.543 5.471 4.754c0.245 0.213 0.557 0.327 0.875 0.327 0.111 0 0.224-0.014 0.335-0.043 0.425-0.109 0.769-0.422 0.919-0.836l9.111-25.133c0.171-0.47 0.064-0.995-0.276-1.361zM24.534 7.124l-14.707 10.399-5.468-4.751 20.175-5.648zM11.118 25.172v-2.995l1.769 1.537-1.769 1.459zM20.681 26.953l-8.781-7.63 15.529-10.981-6.747 18.611z"></path>
</svg>
