<?xml version="1.0" encoding="utf-8"?>
<!-- Generated by IcoMoon.io -->
<!DOCTYPE svg PUBLIC "-//W3C//DTD SVG 1.1//EN" "http://www.w3.org/Graphics/SVG/1.1/DTD/svg11.dtd">
<svg version="1.1" xmlns="http://www.w3.org/2000/svg" xmlns:xlink="http://www.w3.org/1999/xlink" width="32" height="32" viewBox="0 0 32 32">
<path fill="#333333" d="M21.335 22.667h-10.667c-0.736 0-1.333 0.597-1.333 1.333s0.597 1.333 1.333 1.333h10.667c0.737 0 1.333-0.597 1.333-1.333s-0.597-1.333-1.333-1.333z"></path>
<path fill="#333333" d="M10.669 9.333h5.333c0.736 0 1.333-0.596 1.333-1.333 0-0.738-0.597-1.333-1.333-1.333h-5.333c-0.736 0-1.333 0.595-1.333 1.333 0 0.736 0.597 1.333 1.333 1.333z"></path>
<path fill="#333333" d="M21.335 12h-10.667c-0.736 0-1.333 0.595-1.333 1.333 0 0.736 0.597 1.333 1.333 1.333h10.667c0.737 0 1.333-0.597 1.333-1.333 0-0.738-0.597-1.333-1.333-1.333z"></path>
<path fill="#333333" d="M21.335 17.333h-10.667c-0.736 0-1.333 0.597-1.333 1.334s0.597 1.333 1.333 1.333h10.667c0.737 0 1.333-0.597 1.333-1.333 0-0.737-0.597-1.334-1.333-1.334z"></path>
<path fill="#333333" d="M25.335 0h-18.667c-2.21 0-4 1.789-4 4v23.999c0 2.211 1.79 4 4 4h18.667c2.21 0 4-1.789 4-4v-23.999c0-2.211-1.79-4-4-4zM26.668 27.999c0 0.737-0.596 1.333-1.333 1.333h-18.667c-0.737 0-1.333-0.596-1.333-1.333v-23.999c0-0.737 0.596-1.333 1.333-1.333h18.667c0.737 0 1.333 0.597 1.333 1.333v23.999z"></path>
</svg>
