<?xml version="1.0" encoding="utf-8"?>
<!-- Generated by IcoMoon.io -->
<!DOCTYPE svg PUBLIC "-//W3C//DTD SVG 1.1//EN" "http://www.w3.org/Graphics/SVG/1.1/DTD/svg11.dtd">
<svg version="1.1" xmlns="http://www.w3.org/2000/svg" xmlns:xlink="http://www.w3.org/1999/xlink" width="32" height="32" viewBox="0 0 32 32">
<path fill="#333333" d="M28.667 1.34l-18.687 0.001c-4.409 0.012-7.979 3.588-7.979 7.999 0 4.419 3.582 8 8 8h4.666v11.999h0.011c-0.003 0.037-0.011 0.071-0.011 0.109 0 0.737 0.597 1.333 1.333 1.333s1.333-0.597 1.333-1.333c0-0.037-0.008-0.072-0.011-0.109h0.011v-25.333h5.333v25.333h0.011c-0.003 0.037-0.011 0.071-0.011 0.109 0 0.737 0.597 1.333 1.333 1.333s1.333-0.597 1.333-1.333c0-0.037-0.008-0.072-0.011-0.109h0.011v-25.333h3.334c0.736 0 1.333-0.597 1.333-1.333s-0.597-1.333-1.333-1.333zM14.666 9.34v5.333h-4.666c-0.007 0-0.014-0.001-0.021-0.001-2.936-0.011-5.313-2.395-5.313-5.333s2.377-5.321 5.313-5.333c0.007 0 0.014-0.001 0.021-0.001h4.666v5.333z"></path>
</svg>
