<?xml version="1.0" encoding="utf-8"?>
<!-- Generated by IcoMoon.io -->
<!DOCTYPE svg PUBLIC "-//W3C//DTD SVG 1.1//EN" "http://www.w3.org/Graphics/SVG/1.1/DTD/svg11.dtd">
<svg version="1.1" xmlns="http://www.w3.org/2000/svg" xmlns:xlink="http://www.w3.org/1999/xlink" width="32" height="32" viewBox="0 0 32 32">
<path fill="#333333" d="M22 2h-12c-4.411 0-8 3.589-8 8v12c0 4.411 3.589 8 8 8h12c4.411 0 8-3.589 8-8v-12c0-4.411-3.589-8-8-8zM27.333 22c0 2.941-2.393 5.333-5.333 5.333h-12c-2.941 0-5.333-2.393-5.333-5.333v-12c0-2.941 2.393-5.333 5.333-5.333h12c2.941 0 5.333 2.393 5.333 5.333v12z"></path>
<path fill="#333333" d="M17.333 8h-7.333c-0.736 0-1.333 0.597-1.333 1.333v14.667c0 0.736 0.597 1.333 1.333 1.333s1.333-0.597 1.333-1.333v-3.333h6c4.237 0 6.667-2.319 6.667-6.361 0-4.007-2.43-6.305-6.667-6.305zM17.333 18h-6v-7.333h6c2.804 0 4 1.088 4 3.639 0 1.72-0.455 3.695-4 3.695z"></path>
</svg>
