<?xml version="1.0" encoding="utf-8"?>
<!-- Generated by IcoMoon.io -->
<!DOCTYPE svg PUBLIC "-//W3C//DTD SVG 1.1//EN" "http://www.w3.org/Graphics/SVG/1.1/DTD/svg11.dtd">
<svg version="1.1" xmlns="http://www.w3.org/2000/svg" xmlns:xlink="http://www.w3.org/1999/xlink" width="32" height="32" viewBox="0 0 32 32">
<path fill="#333333" d="M12 4.819c0.736 0 1.333-0.597 1.333-1.333v-2.152c0-0.736-0.597-1.333-1.333-1.333s-1.333 0.597-1.333 1.333v2.152c0 0.736 0.597 1.333 1.333 1.333z"></path>
<path fill="#333333" d="M1.084 8.405l1.864 1.076c0.21 0.121 0.439 0.179 0.665 0.179 0.461 0 0.909-0.239 1.156-0.667 0.368-0.638 0.15-1.453-0.488-1.821l-1.864-1.077c-0.637-0.368-1.453-0.15-1.821 0.488s-0.15 1.453 0.488 1.821z"></path>
<path fill="#333333" d="M2.948 16.855l-1.864 1.076c-0.638 0.368-0.856 1.183-0.488 1.821 0.247 0.428 0.695 0.667 1.156 0.667 0.226 0 0.455-0.057 0.665-0.179l1.864-1.076c0.638-0.368 0.856-1.183 0.488-1.821s-1.184-0.857-1.821-0.487z"></path>
<path fill="#333333" d="M27.756 13.023c-0.896-3.681-4.227-6.356-8.089-6.356-0.943 0-1.864 0.159-2.749 0.472-1.386-1.137-3.099-1.759-4.917-1.759-4.295 0-7.789 3.494-7.789 7.789 0 2.537 1.218 4.864 3.24 6.315-0.075 0.335-0.118 0.674-0.118 1.017 0 2.665 2.168 4.833 4.833 4.833h13.5c3.492 0 6.333-2.841 6.333-6.333 0-2.722-1.737-5.104-4.244-5.977zM12 8.046c0.827 0 1.621 0.195 2.335 0.563-0.023 0.020-0.044 0.043-0.067 0.063-0.204 0.175-0.402 0.357-0.588 0.549-0.015 0.015-0.028 0.032-0.043 0.047-0.173 0.183-0.336 0.375-0.492 0.571-0.037 0.047-0.074 0.093-0.11 0.14-0.159 0.21-0.309 0.426-0.448 0.65-0.024 0.039-0.045 0.079-0.069 0.117-0.121 0.202-0.233 0.409-0.336 0.621-0.023 0.047-0.047 0.093-0.069 0.14-0.111 0.238-0.21 0.482-0.299 0.73-0.019 0.053-0.036 0.108-0.054 0.162-0.076 0.229-0.143 0.461-0.2 0.696-0.009 0.035-0.019 0.069-0.027 0.105-0.059 0.26-0.101 0.524-0.135 0.79-0.008 0.062-0.014 0.124-0.020 0.186-0.026 0.272-0.045 0.546-0.045 0.823 0 0.229 0.011 0.457 0.030 0.684 0.001 0.016 0.001 0.033 0.002 0.049-1.005 0.169-1.922 0.653-2.63 1.377-1.166-0.961-1.857-2.393-1.857-3.943 0-2.824 2.298-5.122 5.122-5.122zM25.667 22.667h-13.5c-1.195 0-2.167-0.972-2.167-2.167 0-0.326 0.084-0.655 0.251-0.98 0.359-0.696 1.017-1.143 1.789-1.179 0.273 0.542 0.738 1.22 1.545 1.859v0c0.001 0 0.001 0.001 0.002 0.001l0.061 0.049c0.081 0.067 0.162 0.131 0.256 0.197 0.233 0.163 0.499 0.24 0.763 0.24 0.421 0 0.835-0.199 1.095-0.569 0.162-0.233 0.24-0.499 0.24-0.762 0-0.421-0.198-0.835-0.569-1.095-0.034-0.024-0.063-0.049-0.091-0.072l-0.1-0.081c-0.521-0.413-0.758-0.813-0.861-1.037l-0.117-0.371c-0.175-0.547-0.262-1.119-0.262-1.699 0-2.195 1.235-4.151 3.223-5.105 0.776-0.373 1.598-0.561 2.444-0.561 2.834 0 5.247 2.119 5.612 4.929 0.075 0.572 0.508 1.031 1.075 1.139 1.727 0.325 2.98 1.839 2.98 3.599 0 2.022-1.645 3.667-3.667 3.667z"></path>
</svg>
