<?xml version="1.0" encoding="utf-8"?>
<!-- Generated by IcoMoon.io -->
<!DOCTYPE svg PUBLIC "-//W3C//DTD SVG 1.1//EN" "http://www.w3.org/Graphics/SVG/1.1/DTD/svg11.dtd">
<svg version="1.1" xmlns="http://www.w3.org/2000/svg" xmlns:xlink="http://www.w3.org/1999/xlink" width="32" height="32" viewBox="0 0 32 32">
<path fill="#333333" d="M5.85 19.383l3.545-2.647c0 0-1.221-1.191-1.221-3.312 0-2.122 2.877-5.725 7.556-5.725 4.678 0 7.932 2.848 7.932 5.958 0 3.109-2.5 4.33-3.865 4.446-1.366 0.117-2.21 0-3.343-0.465v-6.887c0 0-1.918-0.553-4.561-0.059v11.451c0 0 0.059 2.934-2.035 1.859l-1.191-0.494c0 0-0.086 1.133-0.086 1.889s-0.553 2.616 3.428 2.731c3.983 0.115 5.261-4.795 4.737-6.829 0 0 3.692 0.959 6.17-0.436 2.478-1.394 5.192-3.293 5.192-7.865 0-4.574-4.611-9.106-12.669-9.106s-11.448 4.884-11.545 9.649c-0.079 3.721 1.956 5.842 1.956 5.842z"></path>
</svg>
