<?xml version="1.0" encoding="utf-8"?>
<!-- Generated by IcoMoon.io -->
<!DOCTYPE svg PUBLIC "-//W3C//DTD SVG 1.1//EN" "http://www.w3.org/Graphics/SVG/1.1/DTD/svg11.dtd">
<svg version="1.1" xmlns="http://www.w3.org/2000/svg" xmlns:xlink="http://www.w3.org/1999/xlink" width="32" height="32" viewBox="0 0 32 32">
<path fill="#333333" d="M10.651 3.995c-2.209 0-4 1.791-4 4v16c0 2.209 1.792 4 4 4 2.209 0 4-1.791 4-4v-16c0-2.209-1.791-4-4-4zM11.985 11.762v12.232c0 0.736-0.597 1.333-1.333 1.333s-1.333-0.597-1.333-1.333v-15.999c0-0.736 0.597-1.333 1.333-1.333s1.333 0.597 1.333 1.333v3.767z"></path>
<path fill="#333333" d="M21.318 3.995c-2.209 0-4 1.791-4 4v16c0 2.209 1.792 4 4 4 2.209 0 4-1.791 4-4v-16c0-2.209-1.791-4-4-4zM22.651 11.762v12.232c0 0.736-0.597 1.333-1.333 1.333s-1.333-0.597-1.333-1.333v-15.999c0-0.736 0.597-1.333 1.333-1.333s1.333 0.597 1.333 1.333v3.767z"></path>
</svg>
