<?xml version="1.0" encoding="utf-8"?>
<!-- Generated by IcoMoon.io -->
<!DOCTYPE svg PUBLIC "-//W3C//DTD SVG 1.1//EN" "http://www.w3.org/Graphics/SVG/1.1/DTD/svg11.dtd">
<svg version="1.1" xmlns="http://www.w3.org/2000/svg" xmlns:xlink="http://www.w3.org/1999/xlink" width="32" height="32" viewBox="0 0 32 32">
<path fill="#333333" d="M28.667 0h-14.667c-1.838 0-3.333 1.495-3.333 3.333v4.781l-10.276 10.276c-0.25 0.25-0.391 0.589-0.391 0.943v12.667h2.667v-12.114l8-8v6.848l-2.959 2.959c-0.521 0.521-0.521 1.365 0 1.885s1.365 0.521 1.885 0l3.349-3.348c0.001-0.001 0.001-0.001 0.002-0.002l2.665-2.665c0.779-0.781 2.049-0.781 2.829-0.001 0.377 0.378 0.585 0.88 0.585 1.415s-0.208 1.037-0.585 1.415l-11.609 11.609h3.771l2.427-2.427c0.244 0.261 0.588 0.427 0.973 0.427h14.667c1.838 0 3.333-1.495 3.333-3.333v-23.333c0-1.838-1.495-3.333-3.333-3.333zM20.323 22.277c0.881-0.881 1.367-2.053 1.367-3.3s-0.485-2.419-1.367-3.3c-1.819-1.819-4.779-1.819-6.599 0l-0.391 0.391v-12.734c0-0.367 0.299-0.667 0.667-0.667h9.333v24.667h-8.067l5.057-5.057zM29.333 26.667c0 0.367-0.299 0.667-0.667 0.667h-2.667v-24.667h2.667c0.367 0 0.667 0.299 0.667 0.667v23.333z"></path>
</svg>
