<?xml version="1.0" encoding="utf-8"?>
<!-- Generated by IcoMoon.io -->
<!DOCTYPE svg PUBLIC "-//W3C//DTD SVG 1.1//EN" "http://www.w3.org/Graphics/SVG/1.1/DTD/svg11.dtd">
<svg version="1.1" xmlns="http://www.w3.org/2000/svg" xmlns:xlink="http://www.w3.org/1999/xlink" width="32" height="32" viewBox="0 0 32 32">
<path fill="#333333" d="M24.001 22.667v-10c0-2.206-1.794-4-4-4h-16c-2.206 0-4 1.794-4 4v10c0 2.206 1.794 4 4 4h16c2.205 0 4-1.794 4-4zM2.667 22.667v-10c0-0.735 0.598-1.333 1.333-1.333h16c0.735 0 1.333 0.598 1.333 1.333v10c0 0.735-0.598 1.333-1.333 1.333h-16c-0.735 0-1.333-0.598-1.333-1.333z"></path>
<path fill="#333333" d="M15.334 28h-6.667c-0.736 0-1.333 0.597-1.333 1.333s0.597 1.333 1.333 1.333h6.667c0.736 0 1.333-0.597 1.333-1.333s-0.597-1.333-1.333-1.333z"></path>
<path fill="#333333" d="M28.001 0.667h-6.667c-2.206 0-4 1.794-4 4v2h2.667v-2c0-0.735 0.598-1.333 1.333-1.333h6.667c0.735 0 1.333 0.598 1.333 1.333v22c0 0.735-0.598 1.333-1.333 1.333h-9.333c0 1.473 1.194 2.667 2.667 2.667v0 0h6.667c2.206 0 4-1.794 4-4v-22c0-2.206-1.795-4-4-4z"></path>
<path fill="#333333" d="M26.667 7.695c0.736 0 1.333-0.597 1.333-1.333s-0.597-1.333-1.333-1.333h-4c-0.736 0-1.333 0.597-1.333 1.333s0.597 1.333 1.333 1.333h4z"></path>
</svg>
