<?xml version="1.0" encoding="utf-8"?>
<!-- Generated by IcoMoon.io -->
<!DOCTYPE svg PUBLIC "-//W3C//DTD SVG 1.1//EN" "http://www.w3.org/Graphics/SVG/1.1/DTD/svg11.dtd">
<svg version="1.1" xmlns="http://www.w3.org/2000/svg" xmlns:xlink="http://www.w3.org/1999/xlink" width="32" height="32" viewBox="0 0 32 32">
<path fill="#333333" d="M15.976 2.667c3.747 0 6.909 1.289 9.488 3.869s3.869 5.733 3.869 9.464c0 3.729-1.269 6.849-3.809 9.357-2.683 2.651-5.865 3.976-9.548 3.976-3.62 0-6.743-1.309-9.368-3.929-2.628-2.619-3.941-5.753-3.941-9.404s1.309-6.809 3.928-9.476c2.572-2.572 5.7-3.857 9.381-3.857zM16.013 5.071c-3.025 0-5.584 1.064-7.68 3.191-2.175 2.207-3.261 4.787-3.261 7.739s1.080 5.508 3.239 7.667 4.731 3.237 7.713 3.237c2.984 0 5.572-1.087 7.763-3.261 2.095-2.031 3.141-4.58 3.141-7.643 0-3.048-1.064-5.627-3.191-7.739-2.127-2.127-4.701-3.191-7.724-3.191zM9.739 19.619v-7.381h3.667c1.809 0 2.715 0.833 2.715 2.5 0 0.285-0.044 0.56-0.132 0.821s-0.239 0.524-0.453 0.785c-0.213 0.261-0.535 0.476-0.964 0.643s-0.936 0.251-1.524 0.251h-1.451v2.381h-1.857zM11.572 13.619v2.239h1.572c0.38 0 0.667-0.107 0.857-0.321 0.192-0.215 0.287-0.48 0.287-0.797 0-0.745-0.397-1.119-1.192-1.119h-1.524zM16.619 19.619v-7.381h2.859c1.175 0 2.095 0.303 2.761 0.905 0.667 0.604 1 1.532 1 2.785s-0.333 2.183-1 2.785-1.587 0.904-2.761 0.904h-2.859zM18.453 13.785v4.285h1.072c0.649 0 1.123-0.195 1.416-0.584 0.295-0.389 0.441-0.908 0.441-1.559s-0.147-1.171-0.441-1.559c-0.293-0.389-0.773-0.584-1.44-0.584h-1.048z"></path>
</svg>
