<?xml version="1.0" encoding="utf-8"?>
<!-- Generated by IcoMoon.io -->
<!DOCTYPE svg PUBLIC "-//W3C//DTD SVG 1.1//EN" "http://www.w3.org/Graphics/SVG/1.1/DTD/svg11.dtd">
<svg version="1.1" xmlns="http://www.w3.org/2000/svg" xmlns:xlink="http://www.w3.org/1999/xlink" width="32" height="32" viewBox="0 0 32 32">
<path fill="#333333" d="M31.794 13.779c-0.381-0.63-1.201-0.833-1.831-0.451l-3.814 2.305-9.873-9.809 2.28-3.829c0.377-0.633 0.17-1.451-0.463-1.828-0.633-0.375-1.451-0.169-1.827 0.464l-2.814 4.723c-0.313 0.525-0.228 1.196 0.206 1.628l0.878 0.871-9.633 4.873c-0.451 0.228-0.733 0.691-0.732 1.197 0.001 0.077-0.011 7.828-3.531 12.29-0.013 0.017-0.021 0.034-0.033 0.051-0.027 0.038-0.051 0.076-0.073 0.114s-0.042 0.077-0.060 0.115c-0.018 0.041-0.033 0.081-0.047 0.121-0.014 0.042-0.027 0.083-0.037 0.126-0.009 0.041-0.015 0.082-0.021 0.123-0.006 0.043-0.011 0.085-0.012 0.129s0 0.085 0.003 0.129c0.003 0.042 0.006 0.083 0.013 0.124 0.007 0.043 0.017 0.086 0.028 0.129 0.011 0.039 0.021 0.078 0.035 0.117 0.015 0.042 0.033 0.083 0.053 0.123 0.018 0.038 0.038 0.076 0.060 0.112 0.022 0.038 0.048 0.073 0.074 0.109 0.027 0.035 0.055 0.069 0.085 0.103 0.014 0.015 0.024 0.033 0.039 0.047l3.344 3.321c0.022 0.022 0.048 0.038 0.071 0.057 0.029 0.025 0.058 0.050 0.089 0.073 0.049 0.035 0.099 0.065 0.152 0.093 0.030 0.016 0.059 0.034 0.091 0.048 0.061 0.027 0.124 0.047 0.187 0.063 0.025 0.008 0.049 0.017 0.075 0.022 0.091 0.020 0.183 0.031 0.275 0.031 0.003 0 0.005-0.001 0.009-0.001 0.077-0.001 0.153-0.008 0.23-0.022 0.026-0.005 0.051-0.013 0.077-0.019 0.052-0.014 0.104-0.028 0.155-0.047 0.030-0.011 0.058-0.025 0.087-0.038 0.045-0.021 0.089-0.044 0.133-0.071 0.029-0.017 0.057-0.036 0.085-0.057 0.018-0.014 0.038-0.024 0.055-0.038 4.439-3.549 12.189-3.611 12.267-3.611 0.505-0.002 0.966-0.289 1.191-0.74l4.81-9.665 0.878 0.873c0.257 0.255 0.597 0.388 0.94 0.388 0.237 0 0.476-0.064 0.689-0.193l4.705-2.844c0.63-0.379 0.833-1.199 0.451-1.829zM17.288 25.15c-2.071 0.103-7.524 0.627-11.719 3.217l5.99-6.029c0.837 0.195 1.753-0.029 2.403-0.684 1.001-1.006 0.995-2.634-0.012-3.634s-2.633-0.995-3.634 0.012c-0.658 0.663-0.872 1.593-0.659 2.438l-5.98 6.019c2.563-4.213 3.051-9.667 3.141-11.741l9.711-4.913 5.609 5.572-4.849 9.743z"></path>
</svg>
