<?xml version="1.0" encoding="utf-8"?>
<!-- Generated by IcoMoon.io -->
<!DOCTYPE svg PUBLIC "-//W3C//DTD SVG 1.1//EN" "http://www.w3.org/Graphics/SVG/1.1/DTD/svg11.dtd">
<svg version="1.1" xmlns="http://www.w3.org/2000/svg" xmlns:xlink="http://www.w3.org/1999/xlink" width="32" height="32" viewBox="0 0 32 32">
<path fill="#333333" d="M30.376 8.221l-6.601-6.601c-0.5-0.501-1.385-0.5-1.885 0l-17.911 17.916c-0.167 0.167-0.287 0.375-0.347 0.603l-2.355 8.959c-0.121 0.459 0.012 0.947 0.347 1.282 0.253 0.253 0.594 0.391 0.943 0.391 0.113 0 0.227-0.014 0.339-0.043l8.957-2.357c0.229-0.061 0.437-0.181 0.603-0.347l0.941-0.941c0-0.001 0.001-0.001 0.001-0.001s0.001-0.001 0.001-0.001l16.967-16.972c0.521-0.521 0.521-1.365-0.001-1.885zM12.465 24.251l-4.715-4.715 10.369-10.373 4.715 4.715-10.37 10.372zM6.014 21.571l4.417 4.417-5.994 1.578 1.577-5.995zM24.72 11.993l-4.715-4.715 2.828-2.829 4.715 4.715-2.828 2.829z"></path>
</svg>
