<?xml version="1.0" encoding="utf-8"?>
<!-- Generated by IcoMoon.io -->
<!DOCTYPE svg PUBLIC "-//W3C//DTD SVG 1.1//EN" "http://www.w3.org/Graphics/SVG/1.1/DTD/svg11.dtd">
<svg version="1.1" xmlns="http://www.w3.org/2000/svg" xmlns:xlink="http://www.w3.org/1999/xlink" width="32" height="32" viewBox="0 0 32 32">
<path fill="#333333" d="M31.093 13.317c-0.518-0.523-1.363-0.527-1.885-0.009l-9.213 9.128c-0.867-1.866-3.689-6.865-10.057-9.673l9.239-9.149c0.523-0.519 0.527-1.363 0.009-1.885-0.519-0.524-1.363-0.527-1.886-0.009l-11.162 11.053c-0.209 0.17-0.37 0.403-0.445 0.682l-4.332 15.99c-0.124 0.459 0.005 0.949 0.34 1.287 0.254 0.257 0.597 0.395 0.947 0.395 0.112 0 0.225-0.014 0.337-0.043l16.031-4.177c0.227-0.059 0.435-0.177 0.602-0.343l11.466-11.361c0.523-0.518 0.527-1.363 0.009-1.885zM17.793 24.066c0.047 0.131 0.115 0.248 0.195 0.353l-8.175 2.13c-0.013-0.091-0.035-0.182-0.067-0.271-0.038-0.107-0.959-2.545-3.783-3.625l2.107-7.777c7.302 2.838 9.701 9.129 9.723 9.19zM5.259 25.255c1.457 0.667 1.963 1.889 1.981 1.931 0.004 0.011 0.012 0.018 0.015 0.029l-2.719 0.709 0.723-2.669z"></path>
</svg>
