<?xml version="1.0" encoding="utf-8"?>
<!-- Generated by IcoMoon.io -->
<!DOCTYPE svg PUBLIC "-//W3C//DTD SVG 1.1//EN" "http://www.w3.org/Graphics/SVG/1.1/DTD/svg11.dtd">
<svg version="1.1" xmlns="http://www.w3.org/2000/svg" xmlns:xlink="http://www.w3.org/1999/xlink" width="32" height="32" viewBox="0 0 32 32">
<path fill="#333333" d="M8.333 15.333c3.86 0 7-3.14 7-7s-3.14-7-7-7-7 3.14-7 7 3.14 7 7 7zM8.333 4c2.389 0 4.333 1.944 4.333 4.333s-1.944 4.333-4.333 4.333-4.333-1.944-4.333-4.333 1.944-4.333 4.333-4.333z"></path>
<path fill="#333333" d="M23.667 16.667c-3.86 0-7 3.14-7 7s3.14 7 7 7 7-3.14 7-7-3.14-7-7-7zM23.667 28c-2.389 0-4.333-1.944-4.333-4.333s1.944-4.333 4.333-4.333 4.333 1.944 4.333 4.333-1.944 4.333-4.333 4.333z"></path>
<path fill="#333333" d="M29.333 1.333h-10.667c-0.736 0-1.333 0.597-1.333 1.333s0.597 1.333 1.333 1.333h7.448l-23.724 23.724c-0.521 0.521-0.521 1.365 0 1.885 0.261 0.261 0.601 0.391 0.943 0.391s0.682-0.13 0.943-0.391l23.724-23.724v7.448c0 0.736 0.597 1.333 1.333 1.333s1.333-0.597 1.333-1.333v-10.667c0-0.736-0.597-1.333-1.333-1.333z"></path>
</svg>
