<?xml version="1.0" encoding="utf-8"?>
<!-- Generated by IcoMoon.io -->
<!DOCTYPE svg PUBLIC "-//W3C//DTD SVG 1.1//EN" "http://www.w3.org/Graphics/SVG/1.1/DTD/svg11.dtd">
<svg version="1.1" xmlns="http://www.w3.org/2000/svg" xmlns:xlink="http://www.w3.org/1999/xlink" width="32" height="32" viewBox="0 0 32 32">
<path fill="#333333" d="M28.667 12h-3.44c0.063-0.437 0.107-0.879 0.107-1.333s-0.043-0.897-0.107-1.333h3.44c0.736 0 1.333-0.597 1.333-1.333s-0.597-1.333-1.333-1.333h-4.247c-1.502-3.148-4.706-5.333-8.42-5.333h-8c-0.736 0-1.333 0.597-1.333 1.333v4h-4c-0.736 0-1.333 0.597-1.333 1.333s0.597 1.333 1.333 1.333h4v2.667h-4c-0.736 0-1.333 0.597-1.333 1.333s0.597 1.333 1.333 1.333h4v14.667c0 0.736 0.597 1.333 1.333 1.333s1.333-0.597 1.333-1.333v-9.333h6.667c3.714 0 6.918-2.185 8.42-5.333h4.247c0.736 0 1.333-0.597 1.333-1.333s-0.597-1.333-1.333-1.333zM9.333 4h6.667c2.175 0 4.103 1.051 5.321 2.667h-11.987v-2.667zM9.333 9.333h13.199c0.088 0.431 0.135 0.877 0.135 1.333s-0.047 0.903-0.135 1.333h-13.199v-2.667zM16 17.333h-6.667v-2.667h11.987c-1.218 1.615-3.146 2.667-5.321 2.667z"></path>
</svg>
