<?xml version="1.0" encoding="utf-8"?>
<!-- Generated by IcoMoon.io -->
<!DOCTYPE svg PUBLIC "-//W3C//DTD SVG 1.1//EN" "http://www.w3.org/Graphics/SVG/1.1/DTD/svg11.dtd">
<svg version="1.1" xmlns="http://www.w3.org/2000/svg" xmlns:xlink="http://www.w3.org/1999/xlink" width="32" height="32" viewBox="0 0 32 32">
<path fill="#333333" d="M26.623 23.891l-4.424-3.603c-0.367-0.304-0.808-0.436-1.22-0.435-0.535-0.001-1.076 0.221-1.464 0.663l-0.035 0.041-1.293 1.463c-0.061 0.055-0.133 0.080-0.215 0.081-0.089-0.001-0.169-0.031-0.235-0.095l-7.736-7.734c-0.072-0.073-0.099-0.155-0.101-0.241 0.001-0.081 0.024-0.15 0.076-0.213l1.351-1.197 0.156-0.134c0.443-0.386 0.667-0.931 0.665-1.463 0-0.419-0.137-0.854-0.431-1.213l-3.601-4.425c-0.388-0.481-0.955-0.718-1.507-0.718-0.401 0-0.819 0.126-1.171 0.395l-1.674 1.281-0.055 0.053c-0.876 0.875-1.389 1.982-1.594 3.113l-0.002 0.008c-0.074 0.428-0.113 0.868-0.113 1.311 0.001 1.273 0.304 2.554 0.816 3.802 0.7 1.681 1.807 3.32 3.269 4.787l6.501 6.5c1.465 1.461 3.103 2.567 4.791 3.271 1.244 0.51 2.523 0.812 3.796 0.814 0.442 0 0.882-0.037 1.317-0.116 1.133-0.203 2.243-0.715 3.115-1.595l0.055-0.055 1.273-1.667c0.275-0.353 0.402-0.782 0.401-1.179 0.001-0.557-0.241-1.117-0.711-1.499zM23.892 26.682c-0.483 0.465-1.111 0.763-1.819 0.891-0.289 0.054-0.587 0.079-0.901 0.079-0.892 0.001-1.883-0.218-2.901-0.635-1.367-0.571-2.765-1.502-4.025-2.762l-6.5-6.499c-1.263-1.262-2.193-2.659-2.76-4.024-0.421-1.020-0.639-2.009-0.639-2.905 0-0.311 0.027-0.614 0.077-0.907 0.13-0.702 0.428-1.329 0.891-1.813l1.225-0.935 3.099 3.807-1.279 1.13-0.026 0.026c-0.523 0.521-0.786 1.215-0.784 1.895-0.001 0.685 0.265 1.371 0.783 1.894l7.742 7.743c0.521 0.519 1.213 0.783 1.895 0.782 0.683 0.001 1.375-0.265 1.895-0.787l0.026-0.028 1.128-1.275 3.807 3.097-0.933 1.226z"></path>
</svg>
