<?xml version="1.0" encoding="utf-8"?>
<!-- Generated by IcoMoon.io -->
<!DOCTYPE svg PUBLIC "-//W3C//DTD SVG 1.1//EN" "http://www.w3.org/Graphics/SVG/1.1/DTD/svg11.dtd">
<svg version="1.1" xmlns="http://www.w3.org/2000/svg" xmlns:xlink="http://www.w3.org/1999/xlink" width="32" height="32" viewBox="0 0 32 32">
<path fill="#333333" d="M30.667 16h-1.413c-0.496-4.612-3.544-8.213-8.009-9.791 0.047-0.286 0.089-0.576 0.089-0.876 0-2.941-2.392-5.333-5.333-5.333s-5.333 2.393-5.333 5.333c0 0.275 0.042 0.539 0.081 0.803-0.449 0.141-0.888 0.301-1.315 0.476-0.703-1.294-1.935-2.251-3.427-2.576-0.713-0.157-1.429 0.299-1.586 1.019s0.298 1.43 1.018 1.587c0.698 0.153 1.271 0.598 1.615 1.195-1.734 1.093-3.184 2.497-4.191 4.163h-1.527c-0.737 0-1.333 0.597-1.333 1.333v8c0 0.736 0.597 1.333 1.333 1.333 0.34 0 1.163 0.771 1.823 1.391 1.031 0.968 2.409 2.256 4.393 3.317l-0.72 1.319c-0.353 0.647-0.116 1.457 0.533 1.809 0.202 0.111 0.419 0.163 0.637 0.163 0.473 0 0.929-0.251 1.172-0.695l0.843-1.545c1.653 0.547 3.617 0.906 5.987 0.906 2.149 0 4.125-0.403 5.873-1.117l0.957 1.755c0.24 0.443 0.699 0.695 1.173 0.695 0.215 0 0.433-0.052 0.635-0.163 0.647-0.353 0.885-1.163 0.533-1.809l-0.944-1.73c2.811-1.895 4.66-4.805 5.034-8.298h1.406c0.737 0 1.333-0.597 1.333-1.333s-0.597-1.333-1.333-1.333zM16 2.667c1.469 0 2.667 1.196 2.667 2.667s-1.198 2.667-2.667 2.667c-1.47 0-2.667-1.196-2.667-2.667s1.197-2.667 2.667-2.667zM16 26.667c-6.167 0-8.971-2.631-11.018-4.553-0.795-0.745-1.519-1.424-2.315-1.801v-5.646h0.978c0.503 0 0.962-0.283 1.191-0.731 1.285-2.541 3.853-4.427 6.987-5.326 0.977 1.243 2.477 2.057 4.177 2.057 1.679 0 3.159-0.794 4.138-2.010 3.977 1.303 6.529 4.498 6.529 8.677 0 5.495-4.387 9.333-10.667 9.333z"></path>
<path fill="#333333" d="M11.333 13.667c0 0.92-0.746 1.667-1.667 1.667s-1.667-0.746-1.667-1.667c0-0.92 0.746-1.667 1.667-1.667s1.667 0.746 1.667 1.667z"></path>
</svg>
