<?xml version="1.0" encoding="utf-8"?>
<!-- Generated by IcoMoon.io -->
<!DOCTYPE svg PUBLIC "-//W3C//DTD SVG 1.1//EN" "http://www.w3.org/Graphics/SVG/1.1/DTD/svg11.dtd">
<svg version="1.1" xmlns="http://www.w3.org/2000/svg" xmlns:xlink="http://www.w3.org/1999/xlink" width="32" height="32" viewBox="0 0 32 32">
<path fill="#333333" d="M9.735 17.092l1.929 1.928 3.762-3.761 3.727 3.727 1.887-1.885-3.728-3.727 3.771-3.771-1.93-1.929-3.771 3.771-3.771-3.771-1.885 1.885 3.771 3.771z"></path>
<path fill="#333333" d="M10.488 25.719l3.789 5.684c0.247 0.372 0.663 0.595 1.109 0.595s0.862-0.223 1.109-0.595l3.789-5.684c5.064-2.001 8.435-6.923 8.435-12.388 0-7.352-5.982-13.333-13.333-13.333s-13.333 5.981-13.333 13.333c0 5.465 3.371 10.387 8.435 12.388zM15.387 2.665c5.881 0 10.667 4.785 10.667 10.667 0 4.491-2.848 8.523-7.087 10.037-0.27 0.097-0.503 0.277-0.661 0.515l-2.918 4.377-2.918-4.377c-0.159-0.238-0.391-0.419-0.661-0.515-4.239-1.513-7.087-5.546-7.087-10.037 0-5.881 4.785-10.667 10.667-10.667z"></path>
</svg>
