<?xml version="1.0" encoding="utf-8"?>
<!-- Generated by IcoMoon.io -->
<!DOCTYPE svg PUBLIC "-//W3C//DTD SVG 1.1//EN" "http://www.w3.org/Graphics/SVG/1.1/DTD/svg11.dtd">
<svg version="1.1" xmlns="http://www.w3.org/2000/svg" xmlns:xlink="http://www.w3.org/1999/xlink" width="32" height="32" viewBox="0 0 32 32">
<path fill="#333333" d="M16 20.054c3.707 0 6.723-3.015 6.723-6.723s-3.016-6.724-6.723-6.724c-3.708 0-6.723 3.016-6.723 6.724s3.015 6.723 6.723 6.723zM16 9.274c2.236 0 4.057 1.819 4.057 4.057 0 2.236-1.82 4.056-4.057 4.056s-4.057-1.819-4.057-4.056c0-2.237 1.82-4.057 4.057-4.057z"></path>
<path fill="#333333" d="M11.101 25.719l3.789 5.684c0.247 0.372 0.663 0.595 1.109 0.595s0.862-0.223 1.109-0.595l3.789-5.684c5.063-2.001 8.435-6.923 8.435-12.388 0-7.352-5.981-13.333-13.333-13.333s-13.333 5.981-13.333 13.333c0 5.465 3.371 10.387 8.435 12.388zM16 2.665c5.881 0 10.667 4.785 10.667 10.667 0 4.491-2.848 8.523-7.087 10.037-0.27 0.097-0.503 0.277-0.661 0.515l-2.918 4.378-2.918-4.377c-0.159-0.238-0.391-0.419-0.661-0.515-4.239-1.514-7.087-5.547-7.087-10.037 0-5.881 4.785-10.667 10.667-10.667z"></path>
</svg>
