<?xml version="1.0" encoding="utf-8"?>
<!-- Generated by IcoMoon.io -->
<!DOCTYPE svg PUBLIC "-//W3C//DTD SVG 1.1//EN" "http://www.w3.org/Graphics/SVG/1.1/DTD/svg11.dtd">
<svg version="1.1" xmlns="http://www.w3.org/2000/svg" xmlns:xlink="http://www.w3.org/1999/xlink" width="32" height="32" viewBox="0 0 32 32">
<path fill="#333333" d="M30.060 10.52l-10.748-9.536c-0.746-0.661-1.69-1.015-2.657-1.007-1.015 0.013-1.935 0.425-2.589 1.162-1.316 1.484-1.105 3.829 0.471 5.227l0.131 0.117-6.717 6.155c-2.815-0.832-5.555-0.179-7.299 1.789-0.488 0.55-0.439 1.393 0.112 1.881l5.905 5.239-5.242 8.441c-0.343 0.55-0.238 1.269 0.248 1.7 0.252 0.223 0.569 0.336 0.885 0.336 0.294 0 0.589-0.097 0.833-0.293l7.75-6.205 5.905 5.24c0.254 0.225 0.57 0.335 0.885 0.335 0.368 0 0.734-0.151 0.998-0.447 1.785-2.014 2.082-4.899 0.822-7.652l5.255-7.347 0.277 0.247c0.758 0.672 1.694 1.005 2.609 1.005 0.989 0 1.953-0.389 2.637-1.16 1.317-1.481 1.106-3.827-0.47-5.225zM7.792 24.791l0.897-1.443 0.431 0.381-1.327 1.061zM28.536 13.977c-0.335 0.377-1.013 0.345-1.481-0.070l-1.093-0.969c-0.135-0.121-0.289-0.206-0.449-0.263-0.003-0.002-0.005-0.005-0.009-0.008-0.598-0.429-1.431-0.29-1.86 0.309l-6.523 9.121c-0.279 0.392-0.327 0.903-0.125 1.339l0.090 0.193c0.011 0.023 0.023 0.049 0.036 0.071 0.618 1.143 0.983 2.669 0.505 4.015l-6.561-5.821c-0.029-0.032-0.061-0.063-0.094-0.092l-7.249-6.432c1.279-0.634 2.838-0.453 4.046 0.023 0.439 0.175 0.936 0.103 1.309-0.187l0.063-0.049c0.029-0.022 0.056-0.045 0.083-0.069l7.45-6.826 1.44 1.278c0.551 0.489 1.393 0.439 1.881-0.113s0.439-1.393-0.112-1.882l-3.577-3.173c-0.468-0.415-0.581-1.085-0.246-1.463 0.202-0.227 0.479-0.263 0.627-0.265 0.292-0.009 0.606 0.115 0.854 0.336l10.748 9.536c0.469 0.415 0.581 1.084 0.247 1.461z"></path>
</svg>
