<?xml version="1.0" encoding="utf-8"?>
<!-- Generated by IcoMoon.io -->
<!DOCTYPE svg PUBLIC "-//W3C//DTD SVG 1.1//EN" "http://www.w3.org/Graphics/SVG/1.1/DTD/svg11.dtd">
<svg version="1.1" xmlns="http://www.w3.org/2000/svg" xmlns:xlink="http://www.w3.org/1999/xlink" width="32" height="32" viewBox="0 0 32 32">
<path fill="#333333" d="M9.362 17.951l0.354-1.257c0 0 0.165-0.594-0.176-0.997 0 0-1.056-1.353-1.056-3.227s1.28-7.4 7.873-7.4c0 0 6.358-0.238 6.358 6.24 0 0 0.027 5.834-3.272 7.614-3.298 1.779-4.674-1.518-4.033-3.18 0.641-1.66 1.354-4.151 1.257-5.123-0.095-0.973-0.523-2.228-2.159-2.181s-3.156 1.898-3.036 4.081c0 0 0.118 1.471 0.547 2.348l-1.9 8.279c0 0-0.356 1.518-0.379 2.466-0.026 0.948 0.164 3.559 0.164 3.559s0 0.45 0.167 0.474c0.165 0.024 0.544-0.356 0.832-0.806 0.285-0.451 1.753-2.207 2.465-5.172l0.879-3.44c0 0 1.473 1.945 3.868 1.898s5.492-1.115 7.129-4.767c1.636-3.654 1.315-5.966 1.315-5.966s-0.356-9.394-10.533-9.002c-10.22 0.391-10.598 9.535-10.598 9.535s-0.358 4.413 3.092 6.193c0-0.002 0.712 0.288 0.842-0.168z"></path>
</svg>
