<?xml version="1.0" encoding="utf-8"?>
<!-- Generated by IcoMoon.io -->
<!DOCTYPE svg PUBLIC "-//W3C//DTD SVG 1.1//EN" "http://www.w3.org/Graphics/SVG/1.1/DTD/svg11.dtd">
<svg version="1.1" xmlns="http://www.w3.org/2000/svg" xmlns:xlink="http://www.w3.org/1999/xlink" width="32" height="32" viewBox="0 0 32 32">
<path fill="#333333" d="M26.683 7.335h-3.199v-3.997c0-0.736-0.597-1.333-1.333-1.333s-1.333 0.597-1.333 1.333v3.997h-9.402v-3.997c0-0.736-0.597-1.333-1.333-1.333s-1.333 0.597-1.333 1.333v3.997h-3.36c-0.691 0-1.268 0.529-1.328 1.217-0.025 0.284-0.737 7.353 3.209 11.801 0.856 0.965 1.859 1.737 2.987 2.332v4.651c0 0.736 0.597 1.333 1.333 1.333h9.051c0.737 0 1.333-0.597 1.333-1.333v-4.731c1.065-0.585 2.011-1.333 2.827-2.253 3.947-4.448 3.235-11.517 3.209-11.801-0.059-0.689-0.636-1.217-1.329-1.217zM19.308 26.003h-6.385v-2.318c0.959 0.236 1.977 0.384 3.069 0.422 0.007 0 0.014 0.003 0.022 0.003s0.014 0 0.021-0.001c0.008 0.001 0.015 0.001 0.021 0.001 0.009 0 0.015-0.003 0.023-0.003 1.153-0.039 2.225-0.203 3.229-0.463v2.359zM22.799 18.594c-1.586 1.781-3.863 2.737-6.763 2.844-2.9-0.107-5.176-1.063-6.762-2.844-2.297-2.581-2.528-6.685-2.575-8.593h18.676c-0.048 1.907-0.279 6.012-2.575 8.593z"></path>
</svg>
