<?xml version="1.0" encoding="utf-8"?>
<!-- Generated by IcoMoon.io -->
<!DOCTYPE svg PUBLIC "-//W3C//DTD SVG 1.1//EN" "http://www.w3.org/Graphics/SVG/1.1/DTD/svg11.dtd">
<svg version="1.1" xmlns="http://www.w3.org/2000/svg" xmlns:xlink="http://www.w3.org/1999/xlink" width="32" height="32" viewBox="0 0 32 32">
<path fill="#333333" d="M27.488 9.667c0-1.679-1.352-3.039-3.016-3.039h-16.944c-1.664 0-3.016 1.361-3.016 3.039v8.417c0 0.156 0.012 0.311 0.035 0.46-0.024 0.224-0.035 0.451-0.035 0.68 0 4.825 5.143 8.737 11.488 8.737s11.488-3.912 11.488-8.737c0-0.229-0.013-0.455-0.035-0.68 0.023-0.149 0.035-0.304 0.035-0.46v-8.417zM23.045 15.091l-5.932 5.932c-0.303 0.301-0.699 0.449-1.093 0.445-0.407 0.015-0.82-0.135-1.133-0.445l-5.932-5.932c-0.595-0.596-0.592-1.563 0-2.157 0.596-0.597 1.561-0.597 2.159 0l4.887 4.888 4.887-4.888c0.596-0.597 1.563-0.595 2.156 0 0.596 0.596 0.597 1.56 0.003 2.157z"></path>
</svg>
