<?xml version="1.0" encoding="utf-8"?>
<!-- Generated by IcoMoon.io -->
<!DOCTYPE svg PUBLIC "-//W3C//DTD SVG 1.1//EN" "http://www.w3.org/Graphics/SVG/1.1/DTD/svg11.dtd">
<svg version="1.1" xmlns="http://www.w3.org/2000/svg" xmlns:xlink="http://www.w3.org/1999/xlink" width="32" height="32" viewBox="0 0 32 32">
<path fill="#333333" d="M24 2.667h-15.333c-0.085 0-0.167 0.010-0.248 0.025-0.139-0.011-0.278-0.025-0.419-0.025-3.551 0-6.667 3.427-6.667 7.333v8.667c0 0.736 0.597 1.333 1.333 1.333h12v7.333h-5.333c-0.736 0-1.333 0.597-1.333 1.333s0.597 1.333 1.333 1.333h13.333c0.736 0 1.333-0.597 1.333-1.333s-0.597-1.333-1.333-1.333h-5.333v-7.333h12c0.736 0 1.333-0.597 1.333-1.333v-8.667c0-3.907-3.115-7.333-6.667-7.333zM4 17.333v-7.333c0-2.628 2.151-4.667 4-4.667 1.889 0 4 1.996 4 4.667v7.333h-8zM28 17.333h-13.333v-7.333c0-1.738-0.619-3.378-1.615-4.667h10.949c1.849 0 4 2.039 4 4.667v7.333z"></path>
<path fill="#333333" d="M8.667 9.333h-1.333c-0.736 0-1.333 0.597-1.333 1.333s0.597 1.333 1.333 1.333h1.333c0.736 0 1.333-0.597 1.333-1.333s-0.597-1.333-1.333-1.333z"></path>
</svg>
