<?xml version="1.0" encoding="utf-8"?>
<!-- Generated by IcoMoon.io -->
<!DOCTYPE svg PUBLIC "-//W3C//DTD SVG 1.1//EN" "http://www.w3.org/Graphics/SVG/1.1/DTD/svg11.dtd">
<svg version="1.1" xmlns="http://www.w3.org/2000/svg" xmlns:xlink="http://www.w3.org/1999/xlink" width="32" height="32" viewBox="0 0 32 32">
<path fill="#333333" d="M26.667 4.667h-21.333c-2.208 0-4 1.792-4 4v14.667c0 2.209 1.792 4 4 4h21.333c2.209 0 4-1.792 4-4v-14.667c0-2.208-1.791-4-4-4zM28 23.333c0 0.736-0.597 1.333-1.333 1.333h-21.333c-0.735 0-1.333-0.597-1.333-1.333v-14.667c0-0.736 0.598-1.333 1.333-1.333h21.333c0.736 0 1.333 0.597 1.333 1.333v14.667z"></path>
<path fill="#333333" d="M14.667 20h-8c-0.735 0-1.333 0.597-1.333 1.333s0.598 1.333 1.333 1.333h8c0.736 0 1.333-0.597 1.333-1.333s-0.597-1.333-1.333-1.333z"></path>
<path fill="#333333" d="M6.667 18.667h5.333c0.736 0 1.333-0.597 1.333-1.333s-0.597-1.333-1.333-1.333h-5.333c-0.735 0-1.333 0.597-1.333 1.333s0.598 1.333 1.333 1.333z"></path>
<path fill="#333333" d="M24.667 9.333h-5.333c-0.735 0-1.333 0.596-1.333 1.333v5.333c0 0.736 0.598 1.333 1.333 1.333h5.333c0.736 0 1.333-0.597 1.333-1.333v-5.333c0-0.737-0.597-1.333-1.333-1.333zM23.333 14.667h-2.667v-2.667h2.667v2.667z"></path>
</svg>
