<?xml version="1.0" encoding="utf-8"?>
<!-- Generated by IcoMoon.io -->
<!DOCTYPE svg PUBLIC "-//W3C//DTD SVG 1.1//EN" "http://www.w3.org/Graphics/SVG/1.1/DTD/svg11.dtd">
<svg version="1.1" xmlns="http://www.w3.org/2000/svg" xmlns:xlink="http://www.w3.org/1999/xlink" width="32" height="32" viewBox="0 0 32 32">
<path fill="#333333" d="M26 28.667h-15.68c0.965-1.152 1.68-2.692 1.68-4.667v-6.667h8c0.736 0 1.333-0.597 1.333-1.333s-0.597-1.333-1.333-1.333h-8v-6.667c0-2.617 2.050-4.667 4.667-4.667 5.322 0 8.267 2.822 8.395 2.947 0.522 0.517 1.362 0.515 1.881-0.004 0.521-0.521 0.521-1.365 0-1.885-0.151-0.152-3.798-3.724-10.276-3.724-4.043 0-7.333 3.29-7.333 7.333v6.667h-3.333c-0.736 0-1.333 0.597-1.333 1.333s0.597 1.333 1.333 1.333h3.333v6.667c0 3.577-3.555 4.675-3.7 4.718-0.639 0.183-1.046 0.808-0.954 1.467s0.656 1.149 1.321 1.149h20c0.736 0 1.333-0.597 1.333-1.333s-0.597-1.333-1.333-1.333z"></path>
</svg>
