<?xml version="1.0" encoding="utf-8"?>
<!-- Generated by IcoMoon.io -->
<!DOCTYPE svg PUBLIC "-//W3C//DTD SVG 1.1//EN" "http://www.w3.org/Graphics/SVG/1.1/DTD/svg11.dtd">
<svg version="1.1" xmlns="http://www.w3.org/2000/svg" xmlns:xlink="http://www.w3.org/1999/xlink" width="32" height="32" viewBox="0 0 32 32">
<path fill="#333333" d="M16 17.337c0.737 0 1.333-0.597 1.333-1.333v-13.333c0-0.735-0.597-1.333-1.333-1.333s-1.333 0.598-1.333 1.333v13.333c0 0.737 0.597 1.333 1.333 1.333z"></path>
<path fill="#333333" d="M28.285 12.147c-0.335-0.791-0.749-1.552-1.231-2.265-0.476-0.706-1.023-1.37-1.626-1.973-0.521-0.521-1.365-0.521-1.885 0s-0.521 1.365 0 1.885c0.979 0.981 1.749 2.121 2.287 3.391 0.555 1.314 0.837 2.711 0.837 4.152s-0.281 2.837-0.837 4.152c-0.537 1.269-1.307 2.41-2.287 3.391-0.98 0.979-2.121 1.749-3.39 2.287-1.315 0.555-2.712 0.838-4.153 0.838s-2.837-0.283-4.153-0.838c-1.269-0.537-2.41-1.307-3.389-2.287-0.981-0.981-1.75-2.121-2.287-3.391-0.556-1.315-0.837-2.712-0.837-4.152s0.281-2.838 0.837-4.152c0.537-1.27 1.307-2.41 2.287-3.389 0.52-0.522 0.52-1.366 0-1.887-0.522-0.521-1.366-0.521-1.887 0-0.603 0.603-1.151 1.267-1.626 1.973-0.482 0.713-0.896 1.475-1.231 2.265-0.695 1.645-1.048 3.391-1.048 5.191s0.353 3.545 1.048 5.191c0.335 0.789 0.749 1.551 1.231 2.265 0.475 0.705 1.023 1.369 1.626 1.972s1.267 1.151 1.972 1.627c0.713 0.481 1.475 0.895 2.265 1.231 1.645 0.695 3.391 1.047 5.19 1.047s3.546-0.353 5.191-1.047c0.791-0.335 1.552-0.749 2.265-1.231 0.705-0.475 1.37-1.023 1.972-1.627 0.603-0.603 1.15-1.267 1.626-1.972 0.482-0.714 0.896-1.476 1.231-2.265 0.697-1.646 1.050-3.391 1.050-5.191s-0.353-3.545-1.048-5.19z"></path>
</svg>
