<?xml version="1.0" encoding="utf-8"?>
<!-- Generated by IcoMoon.io -->
<!DOCTYPE svg PUBLIC "-//W3C//DTD SVG 1.1//EN" "http://www.w3.org/Graphics/SVG/1.1/DTD/svg11.dtd">
<svg version="1.1" xmlns="http://www.w3.org/2000/svg" xmlns:xlink="http://www.w3.org/1999/xlink" width="32" height="32" viewBox="0 0 32 32">
<path fill="#333333" d="M27.856 7.534h-6.157c0.857-0.745 1.486-1.679 1.769-2.633 0.344-1.153 0.155-2.263-0.517-3.042-0.557-0.647-1.391-1.003-2.347-1.003-1.159 0-2.426 0.518-3.475 1.423-0.426 0.367-0.794 0.783-1.095 1.223-0.3-0.44-0.668-0.855-1.095-1.223-1.049-0.905-2.316-1.423-3.475-1.423-0.957 0-1.791 0.355-2.347 1.001-0.672 0.78-0.86 1.889-0.517 3.043 0.284 0.955 0.913 1.888 1.769 2.633h-6.227c-1.923 0-3.486 1.728-3.486 3.85v0.755c0 1.702 1.006 3.147 2.395 3.655v11.625c-0.001 1.791 1.457 3.248 3.247 3.248h19.4c1.791 0 3.248-1.457 3.248-3.247v-11.625c1.389-0.508 2.395-1.953 2.395-3.655v-0.755c0-2.122-1.564-3.85-3.487-3.85zM11.138 3.6c0.033-0.038 0.149-0.077 0.328-0.077 0.403 0 1.069 0.205 1.733 0.776 0.481 0.414 0.836 0.922 0.977 1.395 0.094 0.317 0.053 0.501 0.019 0.542-0.033 0.037-0.149 0.075-0.327 0.075-0.403 0-1.069-0.203-1.734-0.776-0.481-0.414-0.836-0.922-0.977-1.395-0.093-0.317-0.053-0.501-0.019-0.541zM14.667 28h-8.367c-0.321 0-0.581-0.259-0.581-0.581v-11.43h8.948v12.011zM14.667 13.323h-10.523c-0.387 0-0.819-0.486-0.819-1.183v-0.755c0-0.697 0.432-1.183 0.819-1.183h10.523v3.122zM17.895 5.694c0.141-0.473 0.497-0.981 0.977-1.395 0.664-0.571 1.331-0.776 1.734-0.776 0.18 0 0.295 0.039 0.327 0.077 0.035 0.039 0.075 0.224-0.019 0.541-0.141 0.473-0.496 0.981-0.977 1.395-0.663 0.573-1.331 0.776-1.733 0.776-0.18 0-0.295-0.039-0.327-0.077-0.035-0.039-0.075-0.224 0.019-0.541zM26.281 27.419c0 0.321-0.261 0.581-0.581 0.581h-8.367v-12.011h8.948v11.43zM28.676 12.139c0 0.698-0.432 1.183-0.819 1.183h-10.523v-3.123h10.523c0.387 0 0.819 0.487 0.819 1.183v0.756z"></path>
</svg>
