<?xml version="1.0" encoding="utf-8"?>
<!-- Generated by IcoMoon.io -->
<!DOCTYPE svg PUBLIC "-//W3C//DTD SVG 1.1//EN" "http://www.w3.org/Graphics/SVG/1.1/DTD/svg11.dtd">
<svg version="1.1" xmlns="http://www.w3.org/2000/svg" xmlns:xlink="http://www.w3.org/1999/xlink" width="32" height="32" viewBox="0 0 32 32">
<path fill="#333333" d="M26.667 20.667h-21.333v-16h-2.667v16.559c0 1.162 0.94 2.107 2.095 2.107h22.477c1.155 0 2.095-0.945 2.095-2.107v-16.559h-2.667v16z"></path>
<path fill="#333333" d="M30 0.667h-28c-0.736 0-1.333 0.597-1.333 1.333s0.597 1.333 1.333 1.333h28c0.736 0 1.333-0.597 1.333-1.333s-0.597-1.333-1.333-1.333z"></path>
<path fill="#333333" d="M12 17.333v-4c0-0.736-0.597-1.333-1.333-1.333s-1.333 0.597-1.333 1.333v4c0 0.736 0.597 1.333 1.333 1.333s1.333-0.597 1.333-1.333z"></path>
<path fill="#333333" d="M17.333 17.333v-10.667c0-0.736-0.597-1.333-1.333-1.333s-1.333 0.597-1.333 1.333v10.667c0 0.736 0.597 1.333 1.333 1.333s1.333-0.597 1.333-1.333z"></path>
<path fill="#333333" d="M22.667 17.333v-6c0-0.736-0.597-1.333-1.333-1.333s-1.333 0.597-1.333 1.333v6c0 0.736 0.597 1.333 1.333 1.333s1.333-0.597 1.333-1.333z"></path>
<path fill="#333333" d="M17.333 25.387v-1.387h-2.667v1.387l-4.201 3.601c-0.559 0.479-0.624 1.321-0.145 1.88s1.321 0.624 1.88 0.145l3.799-3.256 3.799 3.256c0.252 0.216 0.561 0.321 0.867 0.321 0.375 0 0.749-0.158 1.013-0.465 0.479-0.559 0.415-1.401-0.145-1.88l-4.201-3.601z"></path>
</svg>
