<?xml version="1.0" encoding="utf-8"?>
<!-- Generated by IcoMoon.io -->
<!DOCTYPE svg PUBLIC "-//W3C//DTD SVG 1.1//EN" "http://www.w3.org/Graphics/SVG/1.1/DTD/svg11.dtd">
<svg version="1.1" xmlns="http://www.w3.org/2000/svg" xmlns:xlink="http://www.w3.org/1999/xlink" width="32" height="32" viewBox="0 0 32 32">
<path fill="#333333" d="M14.518 24.020l-1.508-1.28c0 0-0.71-0.436-1.256 0.319l-0.071 0.16c0 0 1.79 1.735 3.28 3.492 1.286 1.52 2.301 3.094 2.301 3.094l5.1-0.732c0 0-0.044-1.577 0.341-3.361 0.152-0.691 0.18-1.507 0.125-2.265-0.097-1.198-0.466-2.384-0.902-2.538-0.71-0.251-0.915 0.045-0.799 0.618l0.044 0.687h-0.639c0 0-0.046-1.806-0.963-1.784-0.915 0.022-0.592 1.6-0.592 1.6h-0.571c0 0 0.089-1.691-0.849-1.691s-0.732 1.944-0.732 1.944h-0.547l-0.769-4.832c0 0-0.044-0.543-0.681-0.475-0.636 0.070-0.569 1.042-0.569 1.042l1.069 7.143-0.748-0.023-0.064-1.118z"></path>
<path fill="#333333" d="M23.525 5.71l-4.199 0.427c0 0-0.382-4.48-5.241-3.856-4.013 0.511-4.064 4.813-4.064 4.813l-3.471 0.343 1.813 17.677 3.91-0.396c-0.376-0.376-0.751-0.723-1.109-1.015 0 0-0.553-0.624 0.372-1.4 0.922-0.774 1.858-0.119 1.858-0.119l0.877 0.729-0.662-4.637c0 0-0.392-1.681 1.135-1.999 0 0 1.25-0.177 1.43 1.042l0.46 2.722c0 0 0.981-0.893 1.964 0.103 0 0 1.086-1.026 2.125 0.211 0 0 1.325-1.087 2.265 0.817 0.351 0.707 0.481 1.582 0.512 2.4l1.947-0.197-1.924-17.664zM10.305 6.979c0 0 0.293-3.333 2.544-4.143 0 0-1.87 1.688-1.735 4.052l-0.809 0.091zM11.361 6.843c0 0 0.206-3.907 2.793-4.212 2.501-0.292 3.782 3.108 3.782 3.603l-6.575 0.608zM18.32 6.122c-0.903-3.197-3.058-3.715-3.058-3.715 3.058 0.023 3.756 3.647 3.756 3.647l-0.698 0.068z"></path>
</svg>
