<?xml version="1.0" encoding="utf-8"?>
<!-- Generated by IcoMoon.io -->
<!DOCTYPE svg PUBLIC "-//W3C//DTD SVG 1.1//EN" "http://www.w3.org/Graphics/SVG/1.1/DTD/svg11.dtd">
<svg version="1.1" xmlns="http://www.w3.org/2000/svg" xmlns:xlink="http://www.w3.org/1999/xlink" width="32" height="32" viewBox="0 0 32 32">
<path fill="#333333" d="M27.333 9.333h-1.334v-5.333c0-1.838-1.495-3.333-3.333-3.333h-13.333c-1.838 0-3.333 1.495-3.333 3.333v5.333h-1.333c-1.838 0-3.333 1.495-3.333 3.333v9.35c0 1.838 1.495 3.333 3.333 3.333h1.333v2.65c0 1.838 1.497 3.333 3.339 3.333h13.323c1.841 0 3.338-1.495 3.338-3.333v-2.65h1.334c1.838 0 3.333-1.495 3.333-3.333v-9.35c0-1.838-1.495-3.333-3.333-3.333zM8.667 4c0-0.367 0.299-0.667 0.667-0.667h13.333c0.368 0 0.667 0.299 0.667 0.667v5.333h-14.666v-5.333zM23.333 28c0 0.367-0.301 0.667-0.671 0.667h-13.323c-0.371 0-0.672-0.299-0.672-0.667v-5.333h14.667v5.333zM28 22.017c0 0.361-0.305 0.667-0.667 0.667h-1.334v-2.683h-20v2.683h-1.333c-0.361 0-0.667-0.305-0.667-0.667v-9.35c0-0.361 0.305-0.667 0.667-0.667h22.667c0.361 0 0.667 0.305 0.667 0.667v9.35z"></path>
<path fill="#333333" d="M26 14.667c0 0.736-0.597 1.333-1.333 1.333s-1.333-0.597-1.333-1.333c0-0.736 0.597-1.333 1.333-1.333s1.333 0.597 1.333 1.333z"></path>
</svg>
