<?xml version="1.0" encoding="utf-8"?>
<!-- Generated by IcoMoon.io -->
<!DOCTYPE svg PUBLIC "-//W3C//DTD SVG 1.1//EN" "http://www.w3.org/Graphics/SVG/1.1/DTD/svg11.dtd">
<svg version="1.1" xmlns="http://www.w3.org/2000/svg" xmlns:xlink="http://www.w3.org/1999/xlink" width="32" height="32" viewBox="0 0 32 32">
<path fill="#333333" d="M32.001 12c0-4.779-3.888-8.667-8.667-8.667-1.69 0-3.263 0.493-4.598 1.333h-15.403c-1.838 0-3.333 1.495-3.333 3.333v13.333c0 1.838 1.495 3.333 3.333 3.333h25.333c1.838 0 3.333-1.495 3.333-3.333v-9.285c0-0.005-0.001-0.011-0.001-0.016 0-0.011 0.002-0.022 0.002-0.033zM29.334 12c0 3.308-2.692 6-6 6s-6-2.692-6-6c0-1.937 0.926-3.657 2.355-4.755 0.205-0.077 0.383-0.201 0.527-0.361 0.91-0.557 1.975-0.884 3.119-0.884 3.308 0 6 2.692 6 6zM28.667 22h-25.334c-0.367 0-0.667-0.299-0.667-0.667v-13.333c0-0.367 0.299-0.667 0.667-0.667h12.709c-0.866 1.349-1.375 2.948-1.375 4.667 0 4.779 3.888 8.667 8.667 8.667 2.329 0 4.441-0.928 6-2.427v3.094c0.001 0.367-0.299 0.667-0.666 0.667z"></path>
<path fill="#333333" d="M11.334 12h-5.334c-0.736 0-1.333 0.597-1.333 1.333s0.597 1.333 1.333 1.333h5.333c0.736 0 1.333-0.597 1.333-1.333s-0.597-1.333-1.333-1.333z"></path>
<path fill="#333333" d="M11.334 16.667h-5.334c-0.736 0-1.333 0.597-1.333 1.333s0.597 1.333 1.333 1.333h5.333c0.736 0 1.333-0.597 1.333-1.333s-0.597-1.333-1.333-1.333z"></path>
<path fill="#333333" d="M7.333 25.333h-3.333c-0.736 0-1.333 0.597-1.333 1.333s0.597 1.333 1.333 1.333h3.333c0.736 0 1.333-0.597 1.333-1.333s-0.597-1.333-1.333-1.333z"></path>
<path fill="#333333" d="M28.001 25.333h-3.333c-0.736 0-1.333 0.597-1.333 1.333s0.597 1.333 1.333 1.333h3.333c0.736 0 1.333-0.597 1.333-1.333s-0.597-1.333-1.333-1.333z"></path>
<path fill="#333333" d="M23.334 10.333c0.919 0 1.667 0.748 1.667 1.667 0 0.736 0.597 1.333 1.333 1.333s1.333-0.597 1.333-1.333c0-2.389-1.944-4.333-4.333-4.333-0.736 0-1.333 0.597-1.333 1.333s0.597 1.333 1.333 1.333z"></path>
</svg>
