<?xml version="1.0" encoding="utf-8"?>
<!-- Generated by IcoMoon.io -->
<!DOCTYPE svg PUBLIC "-//W3C//DTD SVG 1.1//EN" "http://www.w3.org/Graphics/SVG/1.1/DTD/svg11.dtd">
<svg version="1.1" xmlns="http://www.w3.org/2000/svg" xmlns:xlink="http://www.w3.org/1999/xlink" width="32" height="32" viewBox="0 0 32 32">
<path fill="#333333" d="M26 13.333h-4.667c-0.736 0-1.333 0.597-1.333 1.333s0.597 1.333 1.333 1.333h4.667c0.736 0 1.333-0.597 1.333-1.333s-0.597-1.333-1.333-1.333z"></path>
<path fill="#333333" d="M26 18.667h-4.667c-0.736 0-1.333 0.597-1.333 1.333s0.597 1.333 1.333 1.333h4.667c0.736 0 1.333-0.597 1.333-1.333s-0.597-1.333-1.333-1.333z"></path>
<path fill="#333333" d="M28.667 6.667h-19.333v-4c0-0.736-0.597-1.333-1.333-1.333s-1.333 0.597-1.333 1.333v4h-3.333c-1.838 0-3.333 1.495-3.333 3.333v14.667c0 1.838 1.495 3.333 3.333 3.333h25.333c1.838 0 3.333-1.495 3.333-3.333v-14.667c0-1.838-1.495-3.333-3.333-3.333zM29.333 24.667c0 0.367-0.299 0.667-0.667 0.667h-25.333c-0.367 0-0.667-0.299-0.667-0.667v-14.667c0-0.367 0.299-0.667 0.667-0.667h25.333c0.367 0 0.667 0.299 0.667 0.667v14.667z"></path>
<path fill="#333333" d="M11.333 10.667c-3.676 0-6.667 2.991-6.667 6.667s2.991 6.667 6.667 6.667 6.667-2.991 6.667-6.667-2.991-6.667-6.667-6.667zM11.333 21.333c-2.206 0-4-1.794-4-4s1.794-4 4-4 4 1.794 4 4-1.794 4-4 4z"></path>
</svg>
