<?xml version="1.0" encoding="utf-8"?>
<!-- Generated by IcoMoon.io -->
<!DOCTYPE svg PUBLIC "-//W3C//DTD SVG 1.1//EN" "http://www.w3.org/Graphics/SVG/1.1/DTD/svg11.dtd">
<svg version="1.1" xmlns="http://www.w3.org/2000/svg" xmlns:xlink="http://www.w3.org/1999/xlink" width="32" height="32" viewBox="0 0 32 32">
<path fill="#333333" d="M30.671 16.6c-0.034-0.71-0.621-1.269-1.332-1.269h-8.72c-0.125-0.869-0.486-1.663-1.023-2.309l4.047-7.142c0.353-0.625 0.15-1.417-0.461-1.793-2.251-1.385-4.684-2.088-7.233-2.088-4.187 0-7.209 1.914-7.336 1.995-0.598 0.385-0.789 1.172-0.433 1.788l4.204 7.281c-0.518 0.638-0.867 1.416-0.99 2.267h-8.719c-0.711 0-1.297 0.559-1.332 1.269-0.017 0.343-0.315 8.421 7.365 12.571 0.201 0.109 0.418 0.16 0.633 0.16 0.458 0 0.903-0.236 1.15-0.657l4.75-8.075c0.25 0.041 0.505 0.068 0.766 0.068s0.517-0.027 0.767-0.069l4.75 8.075c0.248 0.421 0.693 0.657 1.15 0.657 0.215 0 0.431-0.051 0.633-0.16 7.681-4.149 7.382-12.228 7.365-12.571zM15.948 4.667c1.632 0 3.21 0.362 4.707 1.077l-3.283 5.795c-0.433-0.133-0.891-0.205-1.367-0.205-0.493 0-0.969 0.078-1.416 0.221l-3.401-5.89c1.044-0.449 2.733-0.997 4.759-0.997zM8.877 26.156c-3.675-2.519-4.586-6.226-4.806-8.158h7.724c0.257 0.539 0.612 1.019 1.045 1.421l-3.963 6.737zM14.005 16c0-1.103 0.897-2 2-2s2 0.897 2 2-0.897 2-2 2-2-0.897-2-2zM23.135 26.155l-3.963-6.737c0.432-0.401 0.788-0.881 1.044-1.42h7.719c-0.229 1.932-1.154 5.65-4.8 8.157z"></path>
</svg>
