<?xml version="1.0" encoding="utf-8"?>
<!-- Generated by IcoMoon.io -->
<!DOCTYPE svg PUBLIC "-//W3C//DTD SVG 1.1//EN" "http://www.w3.org/Graphics/SVG/1.1/DTD/svg11.dtd">
<svg version="1.1" xmlns="http://www.w3.org/2000/svg" xmlns:xlink="http://www.w3.org/1999/xlink" width="32" height="32" viewBox="0 0 32 32">
<path fill="#333333" d="M13.667 26.667c-0.736 0-1.333 0.597-1.333 1.333v2.667c0 0.736 0.597 1.333 1.333 1.333s1.333-0.597 1.333-1.333v-2.667c0-0.736-0.597-1.333-1.333-1.333z"></path>
<path fill="#333333" d="M8.333 26.667c-0.736 0-1.333 0.597-1.333 1.333v2.667c0 0.736 0.597 1.333 1.333 1.333s1.333-0.597 1.333-1.333v-2.667c0-0.736-0.597-1.333-1.333-1.333z"></path>
<path fill="#333333" d="M19 26.667c-0.736 0-1.333 0.597-1.333 1.333v2.667c0 0.736 0.597 1.333 1.333 1.333s1.333-0.597 1.333-1.333v-2.667c0-0.736-0.597-1.333-1.333-1.333z"></path>
<path fill="#333333" d="M24.333 26.667c-0.736 0-1.333 0.597-1.333 1.333v2.667c0 0.736 0.597 1.333 1.333 1.333s1.333-0.597 1.333-1.333v-2.667c0-0.736-0.597-1.333-1.333-1.333z"></path>
<path fill="#333333" d="M24.089 13.023c-0.896-3.681-4.227-6.356-8.089-6.356-4.595 0-8.333 3.738-8.333 8.333 0 0.245 0.011 0.49 0.032 0.733-2.285 0.383-4.032 2.375-4.032 4.767 0 2.665 2.168 4.833 4.833 4.833h13.5c3.492 0 6.333-2.841 6.333-6.333 0-2.722-1.737-5.104-4.244-5.977zM22 22.667h-13.5c-1.195 0-2.167-0.972-2.167-2.167 0-1.149 0.901-2.082 2.031-2.153 0.307 0.614 0.863 1.4 1.875 2.102 0.232 0.161 0.497 0.238 0.759 0.238 0.422 0 0.837-0.2 1.097-0.573 0.42-0.605 0.27-1.435-0.335-1.855-0.928-0.645-1.109-1.318-1.125-1.389-0.007-0.040-0.021-0.076-0.032-0.114-0.005-0.018-0.004-0.037-0.009-0.055-0.173-0.55-0.261-1.123-0.261-1.701 0-3.125 2.542-5.667 5.667-5.667 2.834 0 5.247 2.119 5.612 4.929 0.075 0.572 0.508 1.031 1.075 1.139 1.727 0.326 2.98 1.84 2.98 3.599 0 2.021-1.645 3.666-3.667 3.666z"></path>
</svg>
