<?xml version="1.0" encoding="utf-8"?>
<!-- Generated by IcoMoon.io -->
<!DOCTYPE svg PUBLIC "-//W3C//DTD SVG 1.1//EN" "http://www.w3.org/Graphics/SVG/1.1/DTD/svg11.dtd">
<svg version="1.1" xmlns="http://www.w3.org/2000/svg" xmlns:xlink="http://www.w3.org/1999/xlink" width="32" height="32" viewBox="0 0 32 32">
<path fill="#333333" d="M16.001 1.333c-8.087 0-14.667 6.579-14.667 14.667s6.579 14.667 14.667 14.667 14.667-6.579 14.667-14.667-6.58-14.667-14.667-14.667zM16.001 28c-6.617 0-12-5.383-12-12s5.383-12 12-12 12 5.383 12 12-5.383 12-12 12z"></path>
<path fill="#333333" d="M16.001 10.667c-2.941 0-5.333 2.393-5.333 5.333s2.393 5.333 5.333 5.333 5.333-2.393 5.333-5.333-2.393-5.333-5.333-5.333zM16.001 18.667c-1.471 0-2.667-1.196-2.667-2.667s1.196-2.667 2.667-2.667 2.667 1.196 2.667 2.667-1.197 2.667-2.667 2.667z"></path>
<path fill="#333333" d="M25.009 12.896c-0.045-0.432-0.133-0.861-0.259-1.273-0.556-1.821-1.86-3.34-3.577-4.167-0.391-0.188-0.8-0.339-1.215-0.448-0.71-0.187-1.441 0.237-1.629 0.949s0.237 1.441 0.949 1.629c0.252 0.067 0.501 0.158 0.739 0.273 1.047 0.504 1.843 1.431 2.183 2.543 0.077 0.25 0.129 0.51 0.157 0.773 0.072 0.685 0.651 1.193 1.324 1.193 0.047 0 0.094-0.002 0.141-0.007 0.734-0.077 1.265-0.733 1.187-1.465z"></path>
<path fill="#333333" d="M14.917 22.667c-3.446 0-6.25-2.804-6.25-6.25 0-0.736-0.597-1.333-1.333-1.333s-1.333 0.597-1.333 1.333c0 4.917 4 8.917 8.917 8.917 0.736 0 1.333-0.597 1.333-1.333s-0.597-1.333-1.333-1.333z"></path>
</svg>
