<?xml version="1.0" encoding="utf-8"?>
<!-- Generated by IcoMoon.io -->
<!DOCTYPE svg PUBLIC "-//W3C//DTD SVG 1.1//EN" "http://www.w3.org/Graphics/SVG/1.1/DTD/svg11.dtd">
<svg version="1.1" xmlns="http://www.w3.org/2000/svg" xmlns:xlink="http://www.w3.org/1999/xlink" width="32" height="32" viewBox="0 0 32 32">
<path fill="#333333" d="M30.157 15.675c0-1.496-0.99-3.139-3.164-3.206-0.058-0.002-1.33-0.021-2.226 0.832-2.215-1.426-5.083-2.254-8.149-2.36l1.873-5.268 4.681 1.161c0.063 1.385 1.207 2.491 2.609 2.491 1.44 0 2.612-1.173 2.612-2.613s-1.172-2.613-2.612-2.613c-1.127 0-2.083 0.718-2.451 1.715l-5.491-1.364-2.306 6.486c-3.136 0.067-6.072 0.886-8.336 2.327-0.893-0.816-2.129-0.798-2.193-0.795-2.172 0.067-3.159 1.709-3.159 3.206 0 1.44 1.023 2.482 1.475 2.875-0.042 0.289-0.063 0.581-0.063 0.875 0 2.311 1.346 4.468 3.801 6.073 2.382 1.562 5.542 2.424 8.895 2.424 3.352 0 6.511-0.862 8.896-2.424 2.451-1.604 3.801-3.761 3.801-6.073 0-0.271-0.022-0.539-0.055-0.804 0.392-0.322 1.562-1.406 1.562-2.947zM25.779 5.126c0.874 0 1.586 0.713 1.586 1.587 0 0.875-0.713 1.587-1.586 1.587-0.875 0-1.586-0.712-1.586-1.587 0-0.874 0.71-1.587 1.586-1.587zM2.871 15.675c0-0.088 0.027-2.114 2.162-2.181 0.007 0 0.718-0.003 1.286 0.38-1.318 1.023-2.238 2.226-2.705 3.523-0.345-0.393-0.743-1.001-0.743-1.721zM15.952 26.897c-6.435 0-11.672-3.352-11.672-7.47 0-4.12 5.236-7.471 11.672-7.471s11.672 3.35 11.672 7.471c0 4.118-5.236 7.47-11.672 7.47zM25.632 13.916c0.575-0.423 1.331-0.42 1.333-0.42 2.14 0.066 2.163 2.093 2.163 2.181 0 0.768-0.45 1.409-0.81 1.8-0.456-1.315-1.368-2.53-2.686-3.562z"></path>
<path fill="#333333" d="M13.899 17.953c0 1.098-0.89 1.988-1.988 1.988s-1.988-0.89-1.988-1.988c0-1.098 0.89-1.988 1.988-1.988s1.988 0.89 1.988 1.988z"></path>
<path fill="#333333" d="M22.236 17.953c0 1.098-0.89 1.988-1.988 1.988s-1.988-0.89-1.988-1.988c0-1.098 0.89-1.988 1.988-1.988s1.988 0.89 1.988 1.988z"></path>
<path fill="#333333" d="M16.045 24.972c-2.76 0-4.66-1.437-4.741-1.498-0.255-0.192-0.302-0.555-0.107-0.807s0.555-0.302 0.807-0.109c0.030 0.022 1.697 1.26 4.041 1.26 2.332 0 3.87-1.318 3.886-1.331 0.237-0.21 0.602-0.186 0.813 0.054 0.21 0.238 0.188 0.602-0.051 0.811-0.073 0.069-1.86 1.62-4.648 1.62z"></path>
</svg>
