<?xml version="1.0" encoding="utf-8"?>
<!-- Generated by IcoMoon.io -->
<!DOCTYPE svg PUBLIC "-//W3C//DTD SVG 1.1//EN" "http://www.w3.org/Graphics/SVG/1.1/DTD/svg11.dtd">
<svg version="1.1" xmlns="http://www.w3.org/2000/svg" xmlns:xlink="http://www.w3.org/1999/xlink" width="32" height="32" viewBox="0 0 32 32">
<path fill="#333333" d="M29.716 2.257c-0.081-0.732-0.744-1.26-1.472-1.178-0.732 0.081-1.259 0.741-1.178 1.473l0.521 4.688c-2.756-3.539-7.004-5.665-11.576-5.665-8.093 0.001-14.677 6.585-14.677 14.677s6.584 14.677 14.677 14.677c4.661 0 8.941-2.139 11.742-5.87 0.443-0.589 0.323-1.425-0.265-1.867s-1.425-0.323-1.867 0.265c-2.293 3.053-5.796 4.805-9.61 4.805-6.623 0-12.011-5.388-12.011-12.011s5.388-12.011 12.011-12.011c3.857 0 7.436 1.844 9.683 4.901l-4.698-0.522c-0.729-0.081-1.391 0.446-1.472 1.178s0.446 1.391 1.178 1.473l8.485 0.943c0.049 0.005 0.098 0.008 0.147 0.008 0.351 0 0.691-0.139 0.943-0.391 0.287-0.287 0.427-0.687 0.383-1.090l-0.943-8.485z"></path>
</svg>
