<?xml version="1.0" encoding="utf-8"?>
<!-- Generated by IcoMoon.io -->
<!DOCTYPE svg PUBLIC "-//W3C//DTD SVG 1.1//EN" "http://www.w3.org/Graphics/SVG/1.1/DTD/svg11.dtd">
<svg version="1.1" xmlns="http://www.w3.org/2000/svg" xmlns:xlink="http://www.w3.org/1999/xlink" width="32" height="32" viewBox="0 0 32 32">
<path fill="#333333" d="M2.068 14.672c0.001-0.008 0.001-0.018 0.001-0.028 0 0.008-0.002 0.015-0.002 0.023 0 0.003 0.001 0.005 0.001 0.005z"></path>
<path fill="#333333" d="M29.334 2.667c-0.736 0-1.333 0.597-1.333 1.333v4.829c-2.449-4.081-6.903-6.829-12-6.829-7.165 0-13.081 5.413-13.895 12.362-0.005 0.047-0.016 0.092-0.021 0.139s-0.013 0.095-0.014 0.143c-0.001 0.010-0.001 0.020-0.001 0.031 0.004 0.736 0.602 1.332 1.339 1.332 0.659 0 1.204-0.477 1.316-1.103 0.007-0.040 0.008-0.079 0.012-0.119 0.607-5.679 5.426-10.117 11.265-10.117 4.322 0 8.083 2.433 9.995 6h-4.661c-0.736 0-1.333 0.597-1.333 1.333s0.597 1.333 1.333 1.333h8c0.736 0 1.333-0.597 1.333-1.333v-8c0-0.737-0.597-1.333-1.333-1.333z"></path>
<path fill="#333333" d="M28.595 15.99c-0.647 0-1.187 0.458-1.315 1.068-0.014 0.069-0.019 0.14-0.023 0.213-0.635 5.653-5.439 10.062-11.257 10.062-4.322 0-8.083-2.433-9.995-6h4.661c0.736 0 1.333-0.597 1.333-1.333s-0.597-1.333-1.333-1.333h-8c-0.736 0-1.333 0.597-1.333 1.333v8.005c0.003 0.734 0.598 1.329 1.333 1.329s1.331-0.595 1.333-1.329v0-4.832c2.449 4.081 6.903 6.827 12 6.827 7.155 0 13.064-5.398 13.891-12.333 0.027-0.108 0.047-0.218 0.047-0.333 0-0.012-0.003-0.024-0.003-0.035-0.019-0.726-0.611-1.308-1.34-1.308z"></path>
</svg>
