<?xml version="1.0" encoding="utf-8"?>
<!-- Generated by IcoMoon.io -->
<!DOCTYPE svg PUBLIC "-//W3C//DTD SVG 1.1//EN" "http://www.w3.org/Graphics/SVG/1.1/DTD/svg11.dtd">
<svg version="1.1" xmlns="http://www.w3.org/2000/svg" xmlns:xlink="http://www.w3.org/1999/xlink" width="32" height="32" viewBox="0 0 32 32">
<path fill="#333333" d="M10.499 23.111v-14.221h6.044c1.52 0 2.624 0.128 3.312 0.384 0.689 0.256 1.241 0.709 1.655 1.363s0.62 1.4 0.62 2.241c0 1.067-0.313 1.948-0.941 2.644-0.627 0.695-1.564 1.133-2.812 1.313 0.621 0.363 1.133 0.76 1.536 1.195 0.405 0.433 0.951 1.203 1.637 2.308l1.736 2.775h-3.435l-2.076-3.095c-0.739-1.107-1.243-1.803-1.513-2.091-0.272-0.288-0.56-0.484-0.864-0.591-0.303-0.107-0.784-0.16-1.445-0.16h-0.581v5.937h-2.872zM13.371 14.904h2.124c1.377 0 2.239-0.059 2.581-0.175s0.612-0.317 0.805-0.601 0.291-0.64 0.291-1.067c0-0.479-0.128-0.865-0.383-1.159-0.256-0.295-0.617-0.481-1.083-0.559-0.233-0.032-0.932-0.048-2.095-0.048h-2.241v3.608z"></path>
<path fill="#333333" d="M16.001 29.333c-7.352 0-13.335-5.981-13.335-13.333s5.983-13.333 13.335-13.333 13.332 5.981 13.332 13.333-5.98 13.333-13.332 13.333zM16.001 5.044c-6.041 0-10.957 4.915-10.957 10.956s4.916 10.956 10.957 10.956c6.040 0 10.956-4.916 10.956-10.956s-4.916-10.956-10.956-10.956z"></path>
</svg>
