<?xml version="1.0" encoding="utf-8"?>
<!-- Generated by IcoMoon.io -->
<!DOCTYPE svg PUBLIC "-//W3C//DTD SVG 1.1//EN" "http://www.w3.org/Graphics/SVG/1.1/DTD/svg11.dtd">
<svg version="1.1" xmlns="http://www.w3.org/2000/svg" xmlns:xlink="http://www.w3.org/1999/xlink" width="32" height="32" viewBox="0 0 32 32">
<path fill="#333333" d="M15.976 2.667c3.729 0 6.888 1.293 9.476 3.881 2.587 2.571 3.881 5.723 3.881 9.452 0 3.731-1.269 6.857-3.809 9.381-2.683 2.635-5.865 3.952-9.548 3.952-3.604 0-6.731-1.309-9.381-3.928-2.619-2.62-3.928-5.755-3.928-9.405 0-3.635 1.309-6.785 3.928-9.452 2.588-2.588 5.715-3.881 9.381-3.881zM16.024 5.072c-3.031 0-5.595 1.071-7.691 3.215-2.175 2.205-3.261 4.777-3.261 7.713 0 2.969 1.080 5.524 3.239 7.667 2.159 2.159 4.731 3.239 7.713 3.239 2.969 0 5.556-1.087 7.763-3.263 2.095-2.031 3.141-4.579 3.141-7.643 0-3.048-1.064-5.619-3.191-7.715-2.109-2.143-4.681-3.213-7.713-3.213zM24.715 16.239l0.261 0.119v3.763l-0.239 0.119-3.239 1.381-0.143 0.048-0.165-0.048-7.215-2.976-3.453 1.428-3.403-1.477v-3.428l3.191-1.333-0.024-0.024v-3.761l3.619-1.595 8.167 3.381v3.309l2.643 1.095zM20.928 20.619v-2.357h-0.024v-0.095l-6.117-2.5v2.428l6.119 2.524v-0.024l0.023 0.024zM21.333 17.524l2.143-0.881-1.976-0.833-2.095 0.881 1.928 0.833zM24.143 19.572v-2.309l-2.381 1v2.333l2.381-1.024z"></path>
</svg>
