<?xml version="1.0" encoding="utf-8"?>
<!-- Generated by IcoMoon.io -->
<!DOCTYPE svg PUBLIC "-//W3C//DTD SVG 1.1//EN" "http://www.w3.org/Graphics/SVG/1.1/DTD/svg11.dtd">
<svg version="1.1" xmlns="http://www.w3.org/2000/svg" xmlns:xlink="http://www.w3.org/1999/xlink" width="32" height="32" viewBox="0 0 32 32">
<path fill="#333333" d="M26.153 6.689c-0.099-0.061-0.196-0.125-0.299-0.181-0.16-0.068-0.336-0.105-0.521-0.105-0.74 0-1.34 0.599-1.34 1.339 0 0.46 0.232 0.865 0.585 1.106 0.009 0.006 0.018 0.011 0.027 0.016 2.024 1.146 3.395 3.316 3.395 5.803v2.667c0 3.676-2.991 6.667-6.667 6.667h-6.116l3.059-3.057c0.521-0.522 0.521-1.365 0-1.886-0.52-0.52-1.365-0.521-1.886 0l-5.335 5.335c-0.521 0.521-0.521 1.364 0 1.885l0.39 0.391 4.943 4.944c0.521 0.521 1.365 0.519 1.886 0 0.521-0.521 0.521-1.366 0.001-1.887-0.002-0.002-0.005-0.003-0.007-0.006l-3.051-3.051h6.118c5.147 0 9.333-4.187 9.333-9.333v-2.667c0-3.382-1.814-6.341-4.515-7.978z"></path>
<path fill="#333333" d="M7.417 23.149l-0.001-0.001c-2.035-1.143-3.415-3.319-3.415-5.815v-2.667c0-3.675 2.991-6.667 6.667-6.667h6.118l-3.059 3.057c-0.521 0.521-0.521 1.365 0 1.887 0.52 0.519 1.365 0.521 1.886 0l5.335-5.335c0.521-0.521 0.521-1.364 0-1.885l-0.39-0.391-4.943-4.943c-0.52-0.521-1.365-0.52-1.885 0-0.521 0.521-0.521 1.365-0.001 1.886 0.002 0.002 0.005 0.003 0.007 0.006l3.051 3.051h-6.12c-5.147 0-9.333 4.187-9.333 9.333v2.667c0 3.379 1.811 6.336 4.508 7.974 0.103 0.063 0.203 0.129 0.309 0.188 0.159 0.067 0.333 0.103 0.516 0.103 0.74 0 1.34-0.599 1.34-1.339 0.001-0.463-0.234-0.871-0.59-1.111z"></path>
</svg>
