<?xml version="1.0" encoding="utf-8"?>
<!-- Generated by IcoMoon.io -->
<!DOCTYPE svg PUBLIC "-//W3C//DTD SVG 1.1//EN" "http://www.w3.org/Graphics/SVG/1.1/DTD/svg11.dtd">
<svg version="1.1" xmlns="http://www.w3.org/2000/svg" xmlns:xlink="http://www.w3.org/1999/xlink" width="32" height="32" viewBox="0 0 32 32">
<path fill="#333333" d="M21.333 9.516v-5.544c0-0.532-0.317-1.013-0.805-1.224-0.487-0.211-1.056-0.111-1.443 0.253l-12 11.301c-0.267 0.251-0.419 0.602-0.419 0.969s0.151 0.718 0.417 0.97l12 11.365c0.253 0.239 0.582 0.365 0.917 0.365 0.178 0 0.357-0.035 0.527-0.109 0.489-0.21 0.807-0.691 0.807-1.225v-5.55c0.089-0.005 0.184-0.009 0.287-0.009 1.437 0 4.386 0.661 7.979 5.093 0.356 0.439 0.949 0.605 1.48 0.417 0.532-0.188 0.888-0.69 0.889-1.254 0.011-4.803-2.233-13.995-10.635-15.82zM21.62 18.413c-1.244 0-2.011 0.306-2.152 0.368-0.487 0.212-0.801 0.692-0.801 1.223v3.536l-8.725-8.263 8.725-8.217v3.579c0 0.671 0.499 1.237 1.165 1.323 6.037 0.77 8.225 5.903 9.019 9.583-2.911-2.517-5.449-3.131-7.23-3.131z"></path>
<path fill="#333333" d="M3.274 15.335l10.975-10.365c0.536-0.506 0.56-1.349 0.054-1.885s-1.349-0.559-1.885-0.054l-12 11.333c-0.267 0.252-0.418 0.602-0.418 0.969s0.151 0.717 0.417 0.969l12 11.361c0.258 0.244 0.587 0.365 0.917 0.365 0.353 0 0.706-0.139 0.968-0.417 0.507-0.535 0.483-1.379-0.051-1.885l-10.976-10.393z"></path>
</svg>
