<?xml version="1.0" encoding="utf-8"?>
<!-- Generated by IcoMoon.io -->
<!DOCTYPE svg PUBLIC "-//W3C//DTD SVG 1.1//EN" "http://www.w3.org/Graphics/SVG/1.1/DTD/svg11.dtd">
<svg version="1.1" xmlns="http://www.w3.org/2000/svg" xmlns:xlink="http://www.w3.org/1999/xlink" width="32" height="32" viewBox="0 0 32 32">
<path fill="#333333" d="M16.667 9.559v-5.587c0-0.519-0.301-0.991-0.773-1.21s-1.027-0.143-1.423 0.193l-13.333 11.301c-0.299 0.253-0.471 0.625-0.471 1.016s0.171 0.763 0.468 1.017l13.333 11.365c0.395 0.337 0.952 0.413 1.424 0.196 0.473-0.219 0.775-0.691 0.775-1.211v-5.29c2.709 0.123 9.627 0.95 12.839 6.055 0.248 0.393 0.677 0.623 1.129 0.623 0.099 0 0.199-0.011 0.298-0.034 0.553-0.127 0.965-0.589 1.027-1.153 0.015-0.137 1.293-13.481-15.293-17.282zM15.828 18.662c-0.36 0-0.561 0.011-0.561 0.011-0.709 0.036-1.267 0.621-1.267 1.331v3.747l-9.941-8.474 9.941-8.427v3.789c0 0.638 0.452 1.187 1.078 1.309 9.765 1.906 12.879 7.167 13.843 10.829-4.597-3.766-10.935-4.114-13.093-4.114z"></path>
</svg>
