<?xml version="1.0" encoding="utf-8"?>
<!-- Generated by IcoMoon.io -->
<!DOCTYPE svg PUBLIC "-//W3C//DTD SVG 1.1//EN" "http://www.w3.org/Graphics/SVG/1.1/DTD/svg11.dtd">
<svg version="1.1" xmlns="http://www.w3.org/2000/svg" xmlns:xlink="http://www.w3.org/1999/xlink" width="32" height="32" viewBox="0 0 32 32">
<path fill="#333333" d="M4.552 14.667l7.057-7.057c0.521-0.521 0.521-1.365 0-1.886s-1.365-0.521-1.885 0l-8 8c-0.521 0.521-0.521 1.365 0 1.886l8 8c0.261 0.261 0.601 0.391 0.943 0.391s0.682-0.13 0.943-0.391c0.521-0.521 0.521-1.365 0-1.886l-7.057-7.057z"></path>
<path fill="#333333" d="M18.667 13.333h-6.115l5.724-5.724c0.521-0.521 0.521-1.365 0-1.886s-1.365-0.521-1.885 0l-8 8c-0.062 0.062-0.117 0.13-0.166 0.203-0.022 0.033-0.037 0.069-0.057 0.104-0.023 0.041-0.048 0.081-0.066 0.125s-0.029 0.090-0.042 0.135c-0.011 0.038-0.026 0.075-0.034 0.114-0.034 0.173-0.034 0.35 0 0.522 0.008 0.039 0.023 0.076 0.034 0.114 0.013 0.045 0.024 0.091 0.042 0.135s0.043 0.084 0.066 0.125c0.019 0.035 0.034 0.071 0.057 0.104 0.049 0.073 0.104 0.141 0.166 0.203v0l8 8c0.261 0.261 0.601 0.391 0.943 0.391s0.682-0.13 0.943-0.391c0.521-0.521 0.521-1.365 0-1.886l-5.724-5.723h6.115c5.757 0 9.333 3.577 9.333 9.333v1.333c0 0.736 0.597 1.333 1.333 1.333s1.333-0.597 1.333-1.333v-1.333c0-7.177-4.822-12-12-12z"></path>
</svg>
