<?xml version="1.0" encoding="utf-8"?>
<!-- Generated by IcoMoon.io -->
<!DOCTYPE svg PUBLIC "-//W3C//DTD SVG 1.1//EN" "http://www.w3.org/Graphics/SVG/1.1/DTD/svg11.dtd">
<svg version="1.1" xmlns="http://www.w3.org/2000/svg" xmlns:xlink="http://www.w3.org/1999/xlink" width="32" height="32" viewBox="0 0 32 32">
<path fill="#333333" d="M8.667 1.333c-3.309 0-6 2.692-6 6v2.667c0 2.807 1.94 5.163 4.548 5.815v13.518c0 0.736 0.597 1.333 1.333 1.333s1.333-0.597 1.333-1.333v-13.457c2.728-0.563 4.786-2.984 4.786-5.877v-2.666c-0.001-3.308-2.693-6-6.001-6zM12.001 10c0 1.838-1.495 3.333-3.333 3.333s-3.333-1.495-3.333-3.333v-2.667c0-1.838 1.495-3.333 3.333-3.333s3.333 1.495 3.333 3.333v2.667z"></path>
<path fill="#333333" d="M28.001 1.333c-0.736 0-1.333 0.597-1.333 1.333v6.667c0 2.449-1.033 3.413-2 3.783v-10.449c0-0.736-0.597-1.333-1.333-1.333s-1.333 0.597-1.333 1.333v10.377c-0.971-0.412-2-1.395-2-3.711v-6.667c0-0.736-0.597-1.333-1.333-1.333s-1.333 0.597-1.333 1.333v6.667c0 3.867 2.169 5.934 4.667 6.499v13.501c0 0.736 0.597 1.333 1.333 1.333s1.333-0.597 1.333-1.333v-13.456c2.361-0.464 4.667-2.346 4.667-6.544v-6.667c0-0.736-0.597-1.333-1.333-1.333z"></path>
</svg>
