<?xml version="1.0" encoding="utf-8"?>
<!-- Generated by IcoMoon.io -->
<!DOCTYPE svg PUBLIC "-//W3C//DTD SVG 1.1//EN" "http://www.w3.org/Graphics/SVG/1.1/DTD/svg11.dtd">
<svg version="1.1" xmlns="http://www.w3.org/2000/svg" xmlns:xlink="http://www.w3.org/1999/xlink" width="32" height="32" viewBox="0 0 32 32">
<path fill="#333333" d="M26.637 11.092c-0.301-5.614-4.95-10.092-10.637-10.092s-10.337 4.478-10.637 10.092c-3.199 1.844-5.363 5.291-5.363 9.241 0 5.882 4.785 10.667 10.667 10.667 1.944 0 3.762-0.531 5.333-1.443 1.571 0.912 3.389 1.443 5.333 1.443 5.881 0 10.667-4.785 10.667-10.667 0-3.95-2.163-7.397-5.363-9.241zM21.036 17.875c-0.449-1.895-1.4-3.595-2.711-4.949 0.93-0.379 1.944-0.592 3.009-0.592 0.904 0 1.771 0.158 2.581 0.435-0.285 2.052-1.343 3.858-2.879 5.106zM16 26.279c-1.229-1.104-2.119-2.577-2.481-4.249 0.797 0.191 1.626 0.303 2.481 0.303s1.684-0.112 2.481-0.303c-0.363 1.672-1.252 3.145-2.481 4.249zM8.085 12.769c0.811-0.277 1.677-0.435 2.581-0.435 1.065 0 2.079 0.213 3.009 0.592-1.311 1.355-2.262 3.055-2.711 4.949-1.536-1.248-2.594-3.054-2.879-5.106zM16 19.667c-0.904 0-1.771-0.158-2.581-0.435 0.265-1.915 1.209-3.611 2.581-4.844 1.373 1.233 2.316 2.929 2.581 4.844-0.811 0.277-1.677 0.435-2.581 0.435zM16 3.667c3.829 0 7.034 2.705 7.815 6.303-0.797-0.191-1.626-0.303-2.481-0.303-1.944 0-3.762 0.531-5.333 1.443-1.571-0.912-3.389-1.443-5.333-1.443-0.855 0-1.684 0.112-2.481 0.303 0.781-3.598 3.986-6.303 7.815-6.303zM2.667 20.333c0-2.503 1.158-4.74 2.964-6.208 0.687 2.896 2.552 5.335 5.065 6.783 0.142 2.649 1.247 5.042 2.979 6.833-0.93 0.379-1.944 0.592-3.009 0.592-4.411 0-8-3.589-8-8zM21.333 28.333c-1.065 0-2.079-0.213-3.009-0.592 1.733-1.791 2.837-4.185 2.979-6.833 2.513-1.448 4.378-3.887 5.065-6.783 1.806 1.468 2.964 3.705 2.964 6.208 0 4.411-3.589 8-8 8z"></path>
</svg>
