<?xml version="1.0" encoding="utf-8"?>
<!-- Generated by IcoMoon.io -->
<!DOCTYPE svg PUBLIC "-//W3C//DTD SVG 1.1//EN" "http://www.w3.org/Graphics/SVG/1.1/DTD/svg11.dtd">
<svg version="1.1" xmlns="http://www.w3.org/2000/svg" xmlns:xlink="http://www.w3.org/1999/xlink" width="32" height="32" viewBox="0 0 32 32">
<path fill="#333333" d="M13.334 1.333c-0.736 0-1.333 0.597-1.333 1.333v18.667c0 3.306-2.175 4-4 4s-4-0.694-4-4v-2.667c0-0.736-0.597-1.333-1.333-1.333s-1.333 0.597-1.333 1.333v2.667c0 4.915 3.444 6.667 6.667 6.667s6.667-1.751 6.667-6.667v-18.667c0-0.736-0.597-1.333-1.333-1.333z"></path>
<path fill="#333333" d="M22.001 20c2.791 0 4.667-2.413 4.667-4.667v-2c0-0.736-0.597-1.333-1.333-1.333s-1.333 0.597-1.333 1.333v2c0 0.817-0.712 2-2 2-1.526 0-2-1.466-2-2v-12.667c0-0.736-0.597-1.333-1.333-1.333s-1.333 0.597-1.333 1.333v12.667c0 2.245 1.784 4.667 4.667 4.667z"></path>
<path fill="#333333" d="M20.667 24c0 0.92-0.746 1.667-1.667 1.667s-1.667-0.746-1.667-1.667c0-0.92 0.746-1.667 1.667-1.667s1.667 0.746 1.667 1.667z"></path>
<path fill="#333333" d="M26 24c0 0.92-0.746 1.667-1.667 1.667s-1.667-0.746-1.667-1.667c0-0.92 0.746-1.667 1.667-1.667s1.667 0.746 1.667 1.667z"></path>
<path fill="#333333" d="M29.334 16c-0.736 0-1.333 0.597-1.333 1.333v7.333c0 1.838-1.495 3.333-3.333 3.333h-2.667c-0.736 0-1.333 0.597-1.333 1.333s0.597 1.333 1.333 1.333h2.667c3.308 0 6-2.692 6-6v-7.333c0-0.736-0.597-1.333-1.333-1.333z"></path>
</svg>
