<?xml version="1.0" encoding="utf-8"?>
<!-- Generated by IcoMoon.io -->
<!DOCTYPE svg PUBLIC "-//W3C//DTD SVG 1.1//EN" "http://www.w3.org/Graphics/SVG/1.1/DTD/svg11.dtd">
<svg version="1.1" xmlns="http://www.w3.org/2000/svg" xmlns:xlink="http://www.w3.org/1999/xlink" width="32" height="32" viewBox="0 0 32 32">
<path fill="#333333" d="M15.998 1.337c-8.1 0-14.667 6.567-14.667 14.667s6.567 14.667 14.667 14.667 14.667-6.567 14.667-14.667-6.567-14.667-14.667-14.667zM15.998 28.003c-6.627 0-12-5.373-12-12s5.373-11.999 12-11.999 11.999 5.372 11.999 11.999c0 6.627-5.372 12-11.999 12z"></path>
<path fill="#333333" d="M14.941 9.727c-0.52-0.521-1.365-0.521-1.885 0s-0.521 1.365 0 1.885l4.39 4.391-4.39 4.391c-0.521 0.521-0.521 1.365 0 1.885 0.26 0.261 0.601 0.391 0.943 0.391s0.683-0.13 0.943-0.391l5.333-5.333c0.521-0.521 0.521-1.365 0-1.885l-5.333-5.333z"></path>
</svg>
