<?xml version="1.0" encoding="utf-8"?>
<!-- Generated by IcoMoon.io -->
<!DOCTYPE svg PUBLIC "-//W3C//DTD SVG 1.1//EN" "http://www.w3.org/Graphics/SVG/1.1/DTD/svg11.dtd">
<svg version="1.1" xmlns="http://www.w3.org/2000/svg" xmlns:xlink="http://www.w3.org/1999/xlink" width="32" height="32" viewBox="0 0 32 32">
<path fill="#333333" d="M25.792 6.833l-5.125-6.833h-9.333l-5.125 6.833 9.792 8.975 9.791-8.975zM11.428 8h9.145l-4.572 4.191-4.573-4.191zM12.667 2.667h6.667l2 2.667h-10.667l2.001-2.667z"></path>
<path fill="#333333" d="M24.469 11.499l-0.945-0.941-1.883 1.889 0.945 0.941c1.771 1.765 2.747 4.113 2.747 6.612 0 5.147-4.187 9.333-9.333 9.333s-9.333-4.187-9.333-9.333c0-2.493 0.971-4.837 2.734-6.599l0.943-0.943-1.886-1.886-0.943 0.943c-2.267 2.266-3.515 5.28-3.515 8.486 0 6.617 5.383 12 12 12s12-5.383 12-12c0-3.213-1.254-6.232-3.531-8.501z"></path>
</svg>
