<?xml version="1.0" encoding="utf-8"?>
<!-- Generated by IcoMoon.io -->
<!DOCTYPE svg PUBLIC "-//W3C//DTD SVG 1.1//EN" "http://www.w3.org/Graphics/SVG/1.1/DTD/svg11.dtd">
<svg version="1.1" xmlns="http://www.w3.org/2000/svg" xmlns:xlink="http://www.w3.org/1999/xlink" width="32" height="32" viewBox="0 0 32 32">
<path fill="#333333" d="M8 1.333h-4.667c-0.736 0-1.333 0.597-1.333 1.333s0.597 1.333 1.333 1.333h1.448l-3.724 3.724c-0.521 0.521-0.521 1.365 0 1.885 0.26 0.261 0.601 0.391 0.943 0.391s0.683-0.13 0.943-0.391l3.724-3.724v1.448c0 0.736 0.597 1.333 1.333 1.333s1.333-0.597 1.333-1.333v-4.667c0-0.737-0.597-1.333-1.333-1.333z"></path>
<path fill="#333333" d="M6 18.667h-2c-1.838 0-3.333 1.495-3.333 3.333v7.333c0 0.736 0.597 1.333 1.333 1.333s1.333-0.597 1.333-1.333v-7.333c0-0.367 0.299-0.667 0.667-0.667h2c0.367 0 0.667 0.299 0.667 0.667v7.333c0 0.736 0.597 1.333 1.333 1.333s1.333-0.597 1.333-1.333v-7.333c0-1.838-1.495-3.333-3.333-3.333z"></path>
<path fill="#333333" d="M16.667 10h-2c-1.838 0-3.333 1.495-3.333 3.333v16c0 0.736 0.597 1.333 1.333 1.333s1.333-0.597 1.333-1.333v-16c0-0.367 0.299-0.667 0.667-0.667h2c0.367 0 0.667 0.299 0.667 0.667v16c0 0.736 0.597 1.333 1.333 1.333s1.333-0.597 1.333-1.333v-16c0-1.838-1.495-3.333-3.333-3.333z"></path>
<path fill="#333333" d="M28 1.333h-2c-1.838 0-3.333 1.495-3.333 3.333v24.667c0 0.736 0.597 1.333 1.333 1.333s1.333-0.597 1.333-1.333v-24.667c0-0.367 0.299-0.667 0.667-0.667h2c0.367 0 0.667 0.299 0.667 0.667v24.667c0 0.736 0.597 1.333 1.333 1.333s1.333-0.597 1.333-1.333v-24.667c0-1.838-1.495-3.333-3.333-3.333z"></path>
</svg>
