<?xml version="1.0" encoding="utf-8"?>
<!-- Generated by IcoMoon.io -->
<!DOCTYPE svg PUBLIC "-//W3C//DTD SVG 1.1//EN" "http://www.w3.org/Graphics/SVG/1.1/DTD/svg11.dtd">
<svg version="1.1" xmlns="http://www.w3.org/2000/svg" xmlns:xlink="http://www.w3.org/1999/xlink" width="32" height="32" viewBox="0 0 32 32">
<path fill="#333333" d="M6.667 14.667h18.667c0.736 0 1.333-0.597 1.333-1.333v-2c0-4.779-3.888-8.667-8.667-8.667h-0.667v-1.333c0-0.736-0.597-1.333-1.333-1.333s-1.333 0.597-1.333 1.333v1.333h-0.667c-4.779 0-8.667 3.888-8.667 8.667v2c0 0.736 0.597 1.333 1.333 1.333zM8 11.333c0-3.308 2.692-6 6-6h4c3.308 0 6 2.692 6 6v0.667h-16v-0.667z"></path>
<path fill="#333333" d="M14 9.333c0 0.736-0.597 1.333-1.333 1.333s-1.333-0.597-1.333-1.333c0-0.736 0.597-1.333 1.333-1.333s1.333 0.597 1.333 1.333z"></path>
<path fill="#333333" d="M20.667 9.333c0 0.736-0.597 1.333-1.333 1.333s-1.333-0.597-1.333-1.333c0-0.736 0.597-1.333 1.333-1.333s1.333 0.597 1.333 1.333z"></path>
<path fill="#333333" d="M21.333 16h-10.667c-4.411 0-8 3.589-8 8v4.444c0 0.736 0.597 1.333 1.333 1.333s1.333-0.597 1.333-1.333v-4.444c0-1.68 0.783-3.179 2-4.157v4.157c0 4.411 3.589 8 8 8h1.333c4.411 0 8-3.589 8-8v-4.156c1.217 0.978 2 2.477 2 4.157v4.444c0 0.736 0.597 1.333 1.333 1.333s1.333-0.597 1.333-1.333v-4.445c0-4.411-3.589-8-8-8zM22 24c0 2.941-2.393 5.333-5.333 5.333h-1.333c-2.941 0-5.333-2.393-5.333-5.333v-5.287c0.219-0.027 0.441-0.047 0.667-0.047h10.667c0.226 0 0.448 0.019 0.667 0.046v5.287z"></path>
</svg>
