<?xml version="1.0" encoding="utf-8"?>
<!-- Generated by IcoMoon.io -->
<!DOCTYPE svg PUBLIC "-//W3C//DTD SVG 1.1//EN" "http://www.w3.org/Graphics/SVG/1.1/DTD/svg11.dtd">
<svg version="1.1" xmlns="http://www.w3.org/2000/svg" xmlns:xlink="http://www.w3.org/1999/xlink" width="32" height="32" viewBox="0 0 32 32">
<path fill="#333333" d="M27.301 17.118c-1.317 2.023-3.161 3.703-5.222 5.059-0.199 3.281-1.861 6.334-4.563 8.262-0.227 0.16-0.494 0.243-0.764 0.243-0.17 0-0.341-0.033-0.502-0.099-0.418-0.173-0.719-0.549-0.793-0.996-0.201-1.181-0.73-2.488-1.511-3.812-0.875 0.24-1.725 0.435-2.52 0.571-0.075 0.014-0.151 0.019-0.225 0.019-0.345 0-0.68-0.135-0.929-0.385l-3.565-3.564c-0.303-0.301-0.44-0.735-0.366-1.155 0.138-0.795 0.333-1.645 0.571-2.519-1.321-0.78-2.629-1.309-3.811-1.508-0.447-0.077-0.823-0.375-0.995-0.795-0.173-0.417-0.119-0.896 0.145-1.264 1.928-2.704 4.981-4.366 8.261-4.567 1.356-2.061 3.035-3.904 5.057-5.221 3.837-2.496 8.396-2.705 13.123-2.705 0.726 0 1.315 0.589 1.315 1.314 0 4.538-0.209 9.289-2.705 13.121zM17.27 27.798c1.189-1.157 2.019-2.63 2.404-4.232-1.183 0.605-2.392 1.115-3.585 1.538 0.501 0.908 0.903 1.811 1.181 2.694zM4.89 15.421c0.881 0.276 1.786 0.679 2.693 1.179 0.422-1.191 0.932-2.403 1.537-3.584-1.601 0.385-3.073 1.215-4.231 2.405zM17.003 7.589c-4.183 2.724-6.957 8.6-7.947 13.46l2.583 2.582c4.859-0.991 10.734-3.763 13.459-7.947 1.889-2.901 2.223-6.533 2.271-10.366-3.833 0.050-7.465 0.383-10.366 2.271zM20.805 14.075c-1.21 0-2.191-0.982-2.191-2.192s0.981-2.191 2.191-2.191 2.191 0.981 2.191 2.191-0.981 2.192-2.191 2.192zM3.811 26.143c0.273-0.9 1.108-1.553 2.097-1.553 1.21 0 2.191 0.981 2.191 2.19 0 0.989-0.654 1.824-1.554 2.097l-3.138 0.951c-0.041 0.012-0.083 0.019-0.128 0.019-0.241 0-0.438-0.195-0.438-0.438 0-0.044 0.006-0.087 0.019-0.126l0.952-3.139z"></path>
</svg>
