<?xml version="1.0" encoding="utf-8"?>
<!-- Generated by IcoMoon.io -->
<!DOCTYPE svg PUBLIC "-//W3C//DTD SVG 1.1//EN" "http://www.w3.org/Graphics/SVG/1.1/DTD/svg11.dtd">
<svg version="1.1" xmlns="http://www.w3.org/2000/svg" xmlns:xlink="http://www.w3.org/1999/xlink" width="32" height="32" viewBox="0 0 32 32">
<path fill="#333333" d="M21.343 8.676h-14.117l3.719-3.719c0.002-0.003 0.005-0.004 0.007-0.006 0.521-0.521 0.521-1.365-0.001-1.886-0.521-0.519-1.365-0.521-1.885 0l-0.001-0.001-6.001 6.002c-0.521 0.521-0.521 1.364 0 1.885l6.003 6.001c0.521 0.521 1.365 0.52 1.886 0s0.521-1.365 0-1.886l-3.725-3.723h14.115c3.308 0 6 2.691 6 6s-2.692 6-6 6h-14.667c-0.736 0-1.333 0.597-1.333 1.333s0.597 1.333 1.333 1.333h14.667c4.779 0 8.667-3.888 8.667-8.667s-3.887-8.667-8.667-8.667z"></path>
</svg>
