<?xml version="1.0" encoding="utf-8"?>
<!-- Generated by IcoMoon.io -->
<!DOCTYPE svg PUBLIC "-//W3C//DTD SVG 1.1//EN" "http://www.w3.org/Graphics/SVG/1.1/DTD/svg11.dtd">
<svg version="1.1" xmlns="http://www.w3.org/2000/svg" xmlns:xlink="http://www.w3.org/1999/xlink" width="32" height="32" viewBox="0 0 32 32">
<path fill="#333333" d="M16.009 1.341c-8.087 0-14.666 6.579-14.666 14.667s6.579 14.667 14.666 14.667c8.087 0 14.667-6.579 14.667-14.667s-6.579-14.667-14.667-14.667zM16.009 28.008c-6.617 0-11.999-5.383-11.999-12s5.383-12 11.999-12c6.617 0 12.001 5.383 12.001 12s-5.383 12-12.001 12z"></path>
<path fill="#333333" d="M24.714 14.010c-1.071-1.597-2.888-2.653-4.948-2.667-0.013 0-0.025-0.002-0.039-0.002s-0.025 0.002-0.039 0.002h-8.115l2.156-2.157c0.002-0.003 0.005-0.004 0.007-0.006 0.521-0.521 0.521-1.365-0.001-1.886s-1.365-0.521-1.885 0h-0.001l-4.438 4.439c-0.521 0.521-0.521 1.364 0 1.885l4.277 4.275c0.521 0.521 1.365 0.52 1.886 0s0.521-1.365 0-1.886l-1.999-1.997h8.171c1.829 0.011 3.314 1.5 3.314 3.331 0 1.838-1.495 3.333-3.333 3.333h-9.372c-0.736 0-1.333 0.597-1.333 1.333s0.597 1.333 1.333 1.333h9.372c2.075 0 3.908-1.060 4.985-2.667 0.64-0.955 1.015-2.1 1.015-3.333 0-1.232-0.374-2.378-1.013-3.331z"></path>
</svg>
