<?xml version="1.0" encoding="utf-8"?>
<!-- Generated by IcoMoon.io -->
<!DOCTYPE svg PUBLIC "-//W3C//DTD SVG 1.1//EN" "http://www.w3.org/Graphics/SVG/1.1/DTD/svg11.dtd">
<svg version="1.1" xmlns="http://www.w3.org/2000/svg" xmlns:xlink="http://www.w3.org/1999/xlink" width="32" height="32" viewBox="0 0 32 32">
<path fill="#333333" d="M17.333 2.667c-5.981 0-9.391 3.181-13.333 7.381v-4.714c0-0.736-0.597-1.333-1.333-1.333s-1.333 0.597-1.333 1.333v8c0 0.736 0.597 1.333 1.333 1.333h8c0.736 0 1.333-0.597 1.333-1.333s-0.597-1.333-1.333-1.333h-4.843c3.79-4.049 6.563-6.667 11.509-6.667 5.13 0 10.667 4.079 10.667 10.667 0 6.598-4.833 10.957-4.882 11-0.551 0.486-0.605 1.327-0.121 1.879 0.264 0.301 0.633 0.454 1.003 0.454 0.312 0 0.625-0.109 0.879-0.331 0.236-0.207 5.787-5.168 5.787-13.002 0-8.236-6.921-13.333-13.333-13.333z"></path>
</svg>
