<?xml version="1.0" encoding="utf-8"?>
<!-- Generated by IcoMoon.io -->
<!DOCTYPE svg PUBLIC "-//W3C//DTD SVG 1.1//EN" "http://www.w3.org/Graphics/SVG/1.1/DTD/svg11.dtd">
<svg version="1.1" xmlns="http://www.w3.org/2000/svg" xmlns:xlink="http://www.w3.org/1999/xlink" width="32" height="32" viewBox="0 0 32 32">
<path fill="#333333" d="M29.335 4c-0.736 0-1.333 0.597-1.333 1.333v4.714c-3.943-4.2-7.353-7.381-13.333-7.381-6.413 0-13.333 5.097-13.333 13.333 0 7.834 5.551 12.795 5.787 13.002 0.253 0.223 0.567 0.331 0.879 0.331 0.371 0 0.739-0.153 1.003-0.454 0.486-0.553 0.431-1.396-0.123-1.881-0.048-0.043-4.879-4.359-4.879-10.998 0-6.588 5.537-10.667 10.667-10.667 4.946 0 7.719 2.618 11.509 6.667h-4.843c-0.736 0-1.333 0.597-1.333 1.333s0.597 1.333 1.333 1.333h8c0.736 0 1.333-0.597 1.333-1.333v-8c0-0.736-0.597-1.333-1.333-1.333z"></path>
</svg>
