<?xml version="1.0" encoding="utf-8"?>
<!-- Generated by IcoMoon.io -->
<!DOCTYPE svg PUBLIC "-//W3C//DTD SVG 1.1//EN" "http://www.w3.org/Graphics/SVG/1.1/DTD/svg11.dtd">
<svg version="1.1" xmlns="http://www.w3.org/2000/svg" xmlns:xlink="http://www.w3.org/1999/xlink" width="32" height="32" viewBox="0 0 32 32">
<path fill="#333333" d="M10.667 17.334c-2.206 0-4 1.794-4 4s1.794 4 4 4 4-1.794 4-4-1.794-4-4-4zM10.667 22.667c-0.735 0-1.333-0.598-1.333-1.333s0.598-1.333 1.333-1.333 1.333 0.598 1.333 1.333c0 0.735-0.598 1.333-1.333 1.333z"></path>
<path fill="#333333" d="M26.686 1.334h-21.333c-2.209 0-4 1.792-4 4v21.333c0 2.209 1.791 4 4 4h21.333c2.209 0 4-1.791 4-4v-21.333c0-2.209-1.791-4-4-4zM28.019 26.668c0 0.736-0.597 1.333-1.333 1.333h-21.333c-0.736 0-1.333-0.597-1.333-1.333v-21.334c0-0.735 0.597-1.333 1.333-1.333h21.333c0.736 0 1.333 0.598 1.333 1.333v21.334z"></path>
<path fill="#333333" d="M9.334 11.667h-1.333c-0.736 0-1.333 0.597-1.333 1.333s0.597 1.333 1.333 1.333h1.333c4.595 0 8.333 3.738 8.333 8.333v1.333c0 0.737 0.597 1.333 1.333 1.333s1.333-0.597 1.333-1.333v-1.333c0-6.065-4.935-11-11-11z"></path>
<path fill="#333333" d="M9.334 6.001h-1.333c-0.736 0-1.333 0.597-1.333 1.333s0.597 1.333 1.333 1.333h1.333c7.72 0 14 6.281 14 14v1.333c0 0.737 0.597 1.333 1.333 1.333s1.333-0.597 1.333-1.333v-1.333c0-9.191-7.477-16.667-16.667-16.667z"></path>
</svg>
