<?xml version="1.0" encoding="utf-8"?>
<!-- Generated by IcoMoon.io -->
<!DOCTYPE svg PUBLIC "-//W3C//DTD SVG 1.1//EN" "http://www.w3.org/Graphics/SVG/1.1/DTD/svg11.dtd">
<svg version="1.1" xmlns="http://www.w3.org/2000/svg" xmlns:xlink="http://www.w3.org/1999/xlink" width="32" height="32" viewBox="0 0 32 32">
<path fill="#333333" d="M30.277 28.391l-25.333-25.37c-0.381-0.382-0.957-0.496-1.453-0.29-0.499 0.207-0.823 0.693-0.823 1.232v25.37c0 0.736 0.597 1.333 1.333 1.333h25.333c0.539 0 1.025-0.325 1.232-0.823s0.092-1.071-0.289-1.453zM5.333 28v-20.814l4.794 4.801-1.737 1.737c-0.521 0.521-0.521 1.365 0 1.886 0.261 0.259 0.601 0.39 0.943 0.39s0.682-0.13 0.943-0.391l1.736-1.736 2.779 2.783-3.067 3.067c-0.521 0.521-0.521 1.365 0 1.886 0.26 0.261 0.601 0.391 0.942 0.391s0.682-0.13 0.943-0.391l3.066-3.066 2.833 2.837-1.731 1.731c-0.521 0.521-0.521 1.365 0 1.886 0.261 0.26 0.601 0.391 0.943 0.391s0.682-0.13 0.943-0.391l1.729-1.729 4.725 4.732h-20.785z"></path>
</svg>
