<?xml version="1.0" encoding="utf-8"?>
<!-- Generated by IcoMoon.io -->
<!DOCTYPE svg PUBLIC "-//W3C//DTD SVG 1.1//EN" "http://www.w3.org/Graphics/SVG/1.1/DTD/svg11.dtd">
<svg version="1.1" xmlns="http://www.w3.org/2000/svg" xmlns:xlink="http://www.w3.org/1999/xlink" width="32" height="32" viewBox="0 0 32 32">
<path fill="#333333" d="M30.099 19.486l-17.163-17.671c-0.709-0.73-1.699-1.149-2.716-1.149-0.991 0-1.927 0.38-2.638 1.070l-5.6 5.42c-1.501 1.458-1.536 3.86-0.081 5.357l17.163 17.671c0.709 0.73 1.699 1.148 2.716 1.148 0.99 0 1.928-0.38 2.638-1.070l5.599-5.42c0.729-0.708 1.137-1.653 1.151-2.664 0.016-1.011-0.364-1.969-1.069-2.693zM28.163 22.927l-5.603 5.423c-0.218 0.211-0.5 0.316-0.781 0.316-0.292 0-0.584-0.113-0.803-0.339l-17.163-17.671c-0.431-0.443-0.421-1.153 0.023-1.583l5.603-5.423c0.218-0.211 0.499-0.316 0.781-0.316 0.292 0 0.583 0.113 0.803 0.34l0.631 0.65-2.279 2.213c-0.529 0.513-0.541 1.357-0.027 1.885 0.261 0.269 0.609 0.403 0.956 0.403 0.335 0 0.671-0.125 0.93-0.376l2.279-2.213 1.723 1.774c-0.157 0.063-0.305 0.155-0.433 0.281l-2.694 2.617c-0.529 0.513-0.541 1.357-0.027 1.885 0.262 0.269 0.609 0.404 0.957 0.404 0.335 0 0.67-0.125 0.929-0.377l2.694-2.617c0.129-0.125 0.226-0.27 0.293-0.425l1.723 1.774-2.279 2.213c-0.528 0.513-0.541 1.357-0.027 1.885 0.262 0.269 0.609 0.404 0.957 0.404 0.335 0 0.669-0.125 0.929-0.377l2.279-2.213 1.723 1.773c-0.157 0.063-0.305 0.155-0.433 0.281l-2.695 2.617c-0.528 0.513-0.541 1.357-0.027 1.885 0.261 0.269 0.609 0.405 0.957 0.405 0.335 0 0.67-0.125 0.929-0.377l2.695-2.617c0.128-0.125 0.225-0.27 0.292-0.425l1.723 1.774-2.279 2.212c-0.529 0.513-0.541 1.357-0.027 1.885 0.261 0.269 0.608 0.405 0.956 0.405 0.335 0 0.671-0.125 0.93-0.377l2.279-2.212 0.631 0.65c0.428 0.444 0.418 1.153-0.025 1.584z"></path>
</svg>
