<?xml version="1.0" encoding="utf-8"?>
<!-- Generated by IcoMoon.io -->
<!DOCTYPE svg PUBLIC "-//W3C//DTD SVG 1.1//EN" "http://www.w3.org/Graphics/SVG/1.1/DTD/svg11.dtd">
<svg version="1.1" xmlns="http://www.w3.org/2000/svg" xmlns:xlink="http://www.w3.org/1999/xlink" width="32" height="32" viewBox="0 0 32 32">
<path fill="#333333" d="M25.333 6.667h-4.214c-0.344-1.529-1.099-2.901-2.144-4h6.358c0.736 0 1.333-0.597 1.333-1.333s-0.597-1.333-1.333-1.333h-18.667c-0.736 0-1.333 0.597-1.333 1.333s0.597 1.333 1.333 1.333h1.856c0.109 0.018 0.22 0.028 0.335 0.017l3.934-0.017c2.584 0 4.779 1.679 5.563 4h-11.688c-0.736 0-1.333 0.597-1.333 1.333s0.597 1.333 1.333 1.333h11.943c-0.387 2.961-2.891 5.333-5.818 5.333h-6.125c-0.539 0-1.025 0.325-1.232 0.823s-0.093 1.071 0.289 1.453l14.667 14.667c0.26 0.261 0.601 0.391 0.943 0.391s0.683-0.13 0.943-0.391c0.521-0.521 0.521-1.365 0-1.885l-12.39-12.391h2.905c4.371 0 8.098-3.589 8.502-8h4.040c0.736 0 1.333-0.597 1.333-1.333s-0.597-1.333-1.333-1.333z"></path>
</svg>
