<?xml version="1.0" encoding="utf-8"?>
<!-- Generated by IcoMoon.io -->
<!DOCTYPE svg PUBLIC "-//W3C//DTD SVG 1.1//EN" "http://www.w3.org/Graphics/SVG/1.1/DTD/svg11.dtd">
<svg version="1.1" xmlns="http://www.w3.org/2000/svg" xmlns:xlink="http://www.w3.org/1999/xlink" width="32" height="32" viewBox="0 0 32 32">
<path fill="#333333" d="M15.976 2.667c3.729 0 6.888 1.293 9.476 3.881 2.587 2.571 3.881 5.723 3.881 9.452 0 3.731-1.269 6.857-3.809 9.381-2.683 2.635-5.865 3.952-9.548 3.952-3.604 0-6.731-1.309-9.381-3.928-2.619-2.62-3.928-5.755-3.928-9.405 0-3.635 1.309-6.785 3.928-9.452 2.588-2.588 5.715-3.881 9.381-3.881zM16.024 5.072c-3.031 0-5.595 1.071-7.691 3.215-2.175 2.205-3.261 4.777-3.261 7.713 0 2.969 1.080 5.524 3.239 7.667 2.159 2.159 4.731 3.239 7.713 3.239 2.969 0 5.556-1.087 7.763-3.263 2.095-2.031 3.141-4.579 3.141-7.643 0-3.048-1.064-5.619-3.191-7.715-2.109-2.143-4.681-3.213-7.713-3.213zM10.072 14.119c0.253-1.635 0.913-2.901 1.976-3.797s2.357-1.345 3.881-1.345c2.093 0 3.761 0.675 4.999 2.024 1.239 1.349 1.859 3.080 1.859 5.191 0 2.048-0.643 3.751-1.928 5.107-1.287 1.357-2.953 2.036-5.001 2.036-1.508 0-2.808-0.452-3.904-1.357-1.095-0.904-1.753-2.191-1.976-3.857h3.356c0.080 1.619 1.056 2.428 2.928 2.428 0.936 0 1.692-0.405 2.263-1.215 0.572-0.809 0.857-1.889 0.857-3.239 0-1.412-0.261-2.488-0.787-3.225-0.524-0.739-1.277-1.108-2.261-1.108-1.777 0-2.777 0.785-3 2.357h0.976l-2.643 2.644-2.641-2.643h1.047z"></path>
</svg>
