<?xml version="1.0" encoding="utf-8"?>
<!-- Generated by IcoMoon.io -->
<!DOCTYPE svg PUBLIC "-//W3C//DTD SVG 1.1//EN" "http://www.w3.org/Graphics/SVG/1.1/DTD/svg11.dtd">
<svg version="1.1" xmlns="http://www.w3.org/2000/svg" xmlns:xlink="http://www.w3.org/1999/xlink" width="32" height="32" viewBox="0 0 32 32">
<path fill="#333333" d="M15.991 19.609c-4.001 0-5.705 2.488-5.776 2.594-0.409 0.613-0.243 1.441 0.37 1.849s1.441 0.243 1.849-0.37c0.009-0.014 1.009-1.406 3.557-1.406 2.555 0 3.515 1.345 3.541 1.381 0.254 0.4 0.686 0.619 1.127 0.619 0.244 0 0.491-0.067 0.713-0.207 0.622-0.395 0.806-1.218 0.412-1.84-0.067-0.107-1.708-2.619-5.793-2.619z"></path>
<path fill="#333333" d="M21.991 10.667c-0.736 0-1.333 0.597-1.333 1.333v1.333c0 0.736 0.597 1.333 1.333 1.333s1.333-0.597 1.333-1.333v-1.333c0-0.736-0.597-1.333-1.333-1.333z"></path>
<path fill="#333333" d="M11.324 13.333v-1.333c0-0.736-0.597-1.333-1.333-1.333s-1.333 0.597-1.333 1.333v1.333c0 0.736 0.597 1.333 1.333 1.333s1.333-0.597 1.333-1.333z"></path>
<path fill="#333333" d="M15.991 1.333c-8.087 0-14.667 6.579-14.667 14.667s6.579 14.667 14.667 14.667 14.667-6.579 14.667-14.667-6.579-14.667-14.667-14.667zM15.991 28c-6.617 0-12-5.383-12-12s5.383-12 12-12 12 5.383 12 12-5.383 12-12 12z"></path>
</svg>
