<?xml version="1.0" encoding="utf-8"?>
<!-- Generated by IcoMoon.io -->
<!DOCTYPE svg PUBLIC "-//W3C//DTD SVG 1.1//EN" "http://www.w3.org/Graphics/SVG/1.1/DTD/svg11.dtd">
<svg version="1.1" xmlns="http://www.w3.org/2000/svg" xmlns:xlink="http://www.w3.org/1999/xlink" width="32" height="32" viewBox="0 0 32 32">
<path fill="#333333" d="M15.976 2.667c3.747 0 6.909 1.289 9.488 3.869s3.869 5.733 3.869 9.464c0 3.729-1.269 6.849-3.809 9.357-2.683 2.651-5.865 3.976-9.548 3.976-3.62 0-6.743-1.309-9.368-3.929-2.628-2.619-3.941-5.753-3.941-9.404s1.309-6.809 3.928-9.476c2.572-2.572 5.7-3.857 9.381-3.857zM16.013 5.071c-3.025 0-5.584 1.064-7.68 3.191-2.175 2.207-3.261 4.787-3.261 7.739s1.080 5.508 3.239 7.667 4.731 3.237 7.713 3.237c2.984 0 5.572-1.087 7.763-3.261 2.095-2.031 3.141-4.58 3.141-7.643 0-3.048-1.064-5.627-3.191-7.739-2.127-2.127-4.701-3.191-7.724-3.191zM16.215 7.928c0.157-0.016 0.297 0.028 0.417 0.131 0.119 0.104 0.187 0.235 0.201 0.393v0.095l0.357 5.761 0.263-3.191c0-0.159 0.055-0.293 0.165-0.405 0.112-0.111 0.248-0.167 0.405-0.167 0.159 0 0.295 0.056 0.405 0.167s0.167 0.247 0.167 0.405v0.095l0.309 4.285 0.309-3.452c0.016-0.143 0.076-0.263 0.179-0.357s0.227-0.143 0.368-0.143c0.143 0 0.271 0.044 0.381 0.131s0.175 0.203 0.191 0.345l0.62 5.191 0.285-0.691c0.095-0.239 0.277-0.357 0.548-0.357h3.119v1.143h-2.739l-0.975 2.381c-0.112 0.285-0.319 0.405-0.62 0.357-0.143-0.016-0.257-0.072-0.345-0.167-0.087-0.096-0.139-0.215-0.155-0.357l-0.213-1.715-0.405 4.976c-0.016 0.143-0.076 0.263-0.18 0.357-0.103 0.095-0.225 0.143-0.368 0.143s-0.269-0.048-0.38-0.143c-0.112-0.095-0.176-0.215-0.192-0.357v-0.071l-0.333-4.119-0.285 3.881c-0.032 0.143-0.099 0.261-0.203 0.357-0.103 0.096-0.225 0.143-0.368 0.143s-0.269-0.048-0.381-0.143c-0.111-0.095-0.175-0.215-0.191-0.357v-0.072l-0.309-4.643-0.308 5.095v0.072c0 0.159-0.056 0.297-0.167 0.417-0.112 0.119-0.248 0.179-0.405 0.179-0.159 0-0.295-0.059-0.405-0.179-0.112-0.119-0.167-0.257-0.167-0.417v-0.048l-0.309-4.715-0.285 4.548v0.071c-0.032 0.143-0.1 0.263-0.203 0.357s-0.225 0.143-0.368 0.143-0.271-0.048-0.381-0.143-0.175-0.215-0.191-0.357v-0.071h-0.025v-0.072l-0.333-4.761-0.261 3.049c-0.017 0.143-0.081 0.261-0.192 0.357s-0.237 0.143-0.38 0.143-0.267-0.044-0.369-0.131-0.171-0.203-0.201-0.345l-0.595-4.095-0.073 0.143c-0.095 0.207-0.269 0.309-0.525 0.309h-2.76v-1.143h2.405l0.737-1.5c0.111-0.253 0.305-0.361 0.584-0.321s0.441 0.195 0.488 0.464l0.167 1.095 0.453-5.261c0-0.159 0.055-0.293 0.165-0.405 0.112-0.111 0.247-0.167 0.407-0.167 0.157 0 0.293 0.056 0.404 0.167 0.111 0.112 0.165 0.247 0.165 0.405v0.095l0.261 3.715 0.359-4.976v-0.072c0.016-0.143 0.075-0.261 0.179-0.357 0.103-0.095 0.227-0.143 0.368-0.143 0.143 0 0.269 0.048 0.381 0.143 0.111 0.095 0.175 0.215 0.191 0.357v0.072l0.287 4.333 0.332-5.261v-0.096c0-0.143 0.052-0.263 0.156-0.357 0.101-0.095 0.225-0.151 0.368-0.167z"></path>
</svg>
