<?xml version="1.0" encoding="utf-8"?>
<!-- Generated by IcoMoon.io -->
<!DOCTYPE svg PUBLIC "-//W3C//DTD SVG 1.1//EN" "http://www.w3.org/Graphics/SVG/1.1/DTD/svg11.dtd">
<svg version="1.1" xmlns="http://www.w3.org/2000/svg" xmlns:xlink="http://www.w3.org/1999/xlink" width="32" height="32" viewBox="0 0 32 32">
<path fill="#333333" d="M28 28h-0.702c-0.351-6.821-3.361-10.353-5.453-12 2.093-1.647 5.103-5.179 5.453-12h0.702c0.736 0 1.333-0.597 1.333-1.333s-0.597-1.333-1.333-1.333h-24c-0.736 0-1.333 0.597-1.333 1.333s0.597 1.333 1.333 1.333h0.702c0.351 6.821 3.361 10.353 5.453 12-2.093 1.647-5.103 5.179-5.453 12h-0.702c-0.736 0-1.333 0.597-1.333 1.333s0.597 1.333 1.333 1.333h24c0.736 0 1.333-0.597 1.333-1.333s-0.597-1.333-1.333-1.333zM13.162 17.238c0.503-0.201 0.829-0.688 0.833-1.229s-0.324-1.033-0.823-1.243c-0.227-0.095-5.304-2.325-5.796-10.766h17.249c-0.492 8.441-5.569 10.671-5.787 10.762-0.503 0.201-0.829 0.688-0.833 1.229s0.324 1.033 0.823 1.243c0.227 0.095 5.304 2.325 5.796 10.766h-17.249c0.492-8.441 5.569-10.671 5.787-10.762z"></path>
<path fill="#333333" d="M20.667 23.333h-9.333c-0.736 0-1.333 0.597-1.333 1.333s0.597 1.333 1.333 1.333h9.333c0.736 0 1.333-0.597 1.333-1.333s-0.597-1.333-1.333-1.333z"></path>
<path fill="#333333" d="M13.333 22h5.333c0.736 0 1.333-0.597 1.333-1.333s-0.597-1.333-1.333-1.333h-5.333c-0.736 0-1.333 0.597-1.333 1.333s0.597 1.333 1.333 1.333z"></path>
</svg>
