<?xml version="1.0" encoding="utf-8"?>
<!-- Generated by IcoMoon.io -->
<!DOCTYPE svg PUBLIC "-//W3C//DTD SVG 1.1//EN" "http://www.w3.org/Graphics/SVG/1.1/DTD/svg11.dtd">
<svg version="1.1" xmlns="http://www.w3.org/2000/svg" xmlns:xlink="http://www.w3.org/1999/xlink" width="32" height="32" viewBox="0 0 32 32">
<path fill="#333333" d="M26.657 9.343c0-1.069-0.416-2.073-1.172-2.829s-1.761-1.171-2.829-1.171-2.072 0.416-2.828 1.171l-10.656 10.657c-0.756 0.755-1.172 1.759-1.172 2.829 0 0.607 0.139 1.191 0.393 1.722l-1.335 1.335c-0.521 0.521-0.521 1.365 0 1.885 0.261 0.261 0.601 0.391 0.943 0.391s0.682-0.13 0.943-0.391l1.335-1.335c0.531 0.254 1.115 0.393 1.722 0.393 1.069 0 2.073-0.416 2.828-1.171l10.657-10.657c0.756-0.755 1.172-1.76 1.172-2.829zM23.599 10.286l-10.657 10.657c-0.504 0.503-1.381 0.503-1.885 0-0.252-0.252-0.391-0.587-0.391-0.943s0.139-0.691 0.391-0.943l10.656-10.657c0.252-0.252 0.587-0.391 0.943-0.391s0.691 0.139 0.943 0.39c0.252 0.252 0.391 0.587 0.391 0.943s-0.139 0.691-0.391 0.943z"></path>
<path fill="#333333" d="M9.885 13.333l-6-6 3.448-3.447 6 6 1.885-1.886-7.885-7.886-7.219 7.219 7.885 7.886z"></path>
<path fill="#333333" d="M24 16.781l-1.885 1.886 6 6-3.448 3.447-6-6-1.885 1.886 7.885 7.886 7.219-7.219z"></path>
<path fill="#333333" d="M10.667 29.333c-4.411 0-8-3.589-8-8 0-0.736-0.597-1.333-1.333-1.333s-1.333 0.597-1.333 1.333c0 5.882 4.785 10.667 10.667 10.667 0.736 0 1.333-0.597 1.333-1.333s-0.597-1.333-1.333-1.333z"></path>
</svg>
