<?xml version="1.0" encoding="utf-8"?>
<!-- Generated by IcoMoon.io -->
<!DOCTYPE svg PUBLIC "-//W3C//DTD SVG 1.1//EN" "http://www.w3.org/Graphics/SVG/1.1/DTD/svg11.dtd">
<svg version="1.1" xmlns="http://www.w3.org/2000/svg" xmlns:xlink="http://www.w3.org/1999/xlink" width="32" height="32" viewBox="0 0 32 32">
<path fill="#333333" d="M4.057 21.126c0.506 1.174 1.181 2.258 1.993 3.224 0.508 0.605 1.071 1.163 1.679 1.666 0.692-0.057 1.496-0.237 2.367-0.543 0.329-0.115 0.665-0.251 1.003-0.397-2.338-1.267-4.137-3.403-4.948-5.981-0.005-0.015-0.008-0.031-0.013-0.045-0.073-0.241-0.141-0.485-0.197-0.733-0.035-0.157-0.061-0.317-0.090-0.476-0.019-0.109-0.043-0.216-0.059-0.327-0.022-0.153-0.033-0.308-0.049-0.462-0.028-0.269-0.059-0.537-0.068-0.811-0.001-0.081-0.009-0.159-0.009-0.241 0-1.635 0.392-3.177 1.071-4.553 1.013-2.054 2.685-3.719 4.743-4.726 1.367-0.669 2.897-1.055 4.519-1.055 0.101 0 0.199 0.009 0.299 0.013 0.267 0.010 0.529 0.041 0.791 0.069 0.144 0.015 0.289 0.025 0.431 0.046 0.137 0.020 0.272 0.049 0.407 0.075 0.131 0.025 0.264 0.045 0.393 0.075 2.912 0.672 5.347 2.578 6.741 5.134 0.131-0.306 0.253-0.609 0.357-0.905l0.039-0.117c0.346-1.005 0.485-1.78 0.522-2.369-0.491-0.588-1.032-1.132-1.618-1.625-0.969-0.815-2.056-1.496-3.235-2.004-1.325-0.571-2.765-0.916-4.273-1.015-0.283-0.019-0.565-0.043-0.854-0.043-2.665 0-5.142 0.808-7.207 2.189-1.418 0.948-2.64 2.167-3.591 3.583-1.389 2.068-2.202 4.555-2.202 7.229 0 0.279 0.025 0.553 0.042 0.828 0.096 1.517 0.441 2.965 1.015 4.298z"></path>
<path fill="#333333" d="M30.475 11.873c1.409-4.040 1.079-7.37-0.929-9.377-1.169-1.169-2.841-1.787-4.835-1.787-1.42 0-2.979 0.311-4.606 0.885 0.617 0.174 1.225 0.375 1.813 0.627 0.764 0.329 1.497 0.731 2.199 1.186 0.201-0.015 0.402-0.032 0.594-0.032 1.289 0 2.281 0.338 2.949 1.005 1.219 1.219 1.331 3.609 0.313 6.559-0.007 0.019-0.011 0.036-0.017 0.055-0.418 1.197-1.002 2.431-1.721 3.669-0.15 0.258-0.307 0.515-0.468 0.774-0.927-0.489-1.981-0.77-3.101-0.77-3.676 0-6.667 2.991-6.667 6.667 0 1.251 0.353 2.419 0.955 3.421-0.757 0.544-1.516 1.043-2.271 1.486-1.266 0.743-2.515 1.332-3.705 1.75-1.323 0.464-2.576 0.719-3.692 0.719-1.289 0-2.281-0.339-2.949-1.006-0.761-0.761-1.073-2.021-0.941-3.598-0.451-0.698-0.849-1.427-1.177-2.187-0.255-0.591-0.457-1.205-0.631-1.827-1.39 3.94-1.208 7.425 0.865 9.498 1.169 1.169 2.841 1.787 4.835 1.787 2.385 0 5.161-0.867 7.997-2.412 1.158-0.631 2.324-1.389 3.479-2.237 1.098 0.797 2.444 1.273 3.903 1.273 3.676 0 6.667-2.991 6.667-6.667 0-1.594-0.563-3.057-1.499-4.205 0.403-0.629 0.787-1.259 1.127-1.889 0.611-1.132 1.129-2.261 1.514-3.366zM26.667 21.333c0 2.206-1.794 4-4 4-0.6 0-1.167-0.137-1.679-0.375-0.831-0.387-1.506-1.049-1.91-1.87-0.26-0.531-0.411-1.125-0.411-1.755 0-2.206 1.794-4 4-4 0.555 0 1.084 0.114 1.565 0.319 0.844 0.36 1.539 1.002 1.967 1.807 0.298 0.559 0.468 1.197 0.468 1.874z"></path>
</svg>
