<?xml version="1.0" encoding="utf-8"?>
<!-- Generated by IcoMoon.io -->
<!DOCTYPE svg PUBLIC "-//W3C//DTD SVG 1.1//EN" "http://www.w3.org/Graphics/SVG/1.1/DTD/svg11.dtd">
<svg version="1.1" xmlns="http://www.w3.org/2000/svg" xmlns:xlink="http://www.w3.org/1999/xlink" width="32" height="32" viewBox="0 0 32 32">
<path fill="#333333" d="M27.873 6.097c-0.007-0.014-0.018-0.025-0.025-0.039-0.044-0.085-0.096-0.163-0.156-0.236-0.017-0.021-0.033-0.042-0.051-0.061-0.075-0.080-0.157-0.152-0.249-0.211-0.016-0.011-0.033-0.017-0.050-0.027-0.080-0.047-0.165-0.085-0.255-0.115-0.027-0.009-0.055-0.018-0.083-0.026-0.108-0.027-0.22-0.047-0.337-0.047h-21.334c-0.117 0-0.229 0.020-0.337 0.048-0.029 0.007-0.055 0.017-0.083 0.026-0.090 0.030-0.175 0.068-0.255 0.115-0.017 0.010-0.034 0.017-0.050 0.027-0.092 0.060-0.175 0.131-0.249 0.211-0.018 0.019-0.033 0.041-0.051 0.061-0.060 0.073-0.112 0.151-0.156 0.235-0.007 0.014-0.019 0.025-0.025 0.039-0.689 1.457-4.128 8.849-4.128 11.237 0 2.941 2.393 5.333 5.333 5.333s5.333-2.393 5.333-5.333c0-1.82-1.997-6.543-3.252-9.333h7.252v17.333h-4c-0.736 0-1.333 0.597-1.333 1.333s0.597 1.333 1.333 1.333h10.667c0.736 0 1.333-0.597 1.333-1.333s-0.597-1.333-1.333-1.333h-4v-17.333h7.252c-1.255 2.791-3.252 7.513-3.252 9.333 0 2.941 2.393 5.333 5.333 5.333s5.333-2.393 5.333-5.333c0.001-2.387-3.439-9.779-4.127-11.237zM5.333 20c-1.471 0-2.667-1.196-2.667-2.667 0-1.007 1.324-4.391 2.667-7.447 1.343 3.057 2.667 6.441 2.667 7.447 0 1.471-1.196 2.667-2.667 2.667zM26.667 20c-1.471 0-2.667-1.196-2.667-2.667 0-1.007 1.324-4.391 2.667-7.447 1.343 3.057 2.667 6.441 2.667 7.447 0 1.471-1.197 2.667-2.667 2.667z"></path>
<path fill="#333333" d="M17.667 1.667c0 0.92-0.746 1.667-1.667 1.667s-1.667-0.746-1.667-1.667c0-0.92 0.746-1.667 1.667-1.667s1.667 0.746 1.667 1.667z"></path>
<path fill="#333333" d="M25.334 29.333h-18.667c-0.736 0-1.333 0.597-1.333 1.333s0.597 1.333 1.333 1.333h18.667c0.736 0 1.333-0.597 1.333-1.333s-0.597-1.333-1.333-1.333z"></path>
</svg>
