<?xml version="1.0" encoding="utf-8"?>
<!-- Generated by IcoMoon.io -->
<!DOCTYPE svg PUBLIC "-//W3C//DTD SVG 1.1//EN" "http://www.w3.org/Graphics/SVG/1.1/DTD/svg11.dtd">
<svg version="1.1" xmlns="http://www.w3.org/2000/svg" xmlns:xlink="http://www.w3.org/1999/xlink" width="32" height="32" viewBox="0 0 32 32">
<path fill="#333333" d="M18.544 9.537l4.697-4.72c0.293 0.912 0.304 2.181-0.99 3.445l-2.639 2.628c-0.516 0.514-0.519 1.351-0.006 1.869 0.258 0.261 0.597 0.391 0.935 0.391 0.336 0 0.672-0.128 0.929-0.384l2.627-2.619c3.259-3.179 1.709-6.851 0.433-8.348-0.239-0.281-0.584-0.449-0.951-0.463-0.372-0.016-0.725 0.125-0.985 0.387l-5.918 5.948c-0.514 0.516-0.514 1.353 0.002 1.869 0.515 0.514 1.349 0.513 1.865-0.003z"></path>
<path fill="#333333" d="M7.918 18.148c-3.269 0-5.928 2.667-5.928 5.945s2.659 5.945 5.928 5.945c3.269 0 5.928-2.667 5.928-5.945s-2.659-5.945-5.928-5.945zM7.918 27.395c-1.815 0-3.292-1.481-3.292-3.301s1.476-3.301 3.292-3.301c1.816 0 3.292 1.481 3.292 3.301s-1.476 3.301-3.292 3.301z"></path>
<path fill="#333333" d="M24.062 18.775c-0.293 0-0.581 0.029-0.863 0.071l-17.047-17.125c-0.26-0.261-0.621-0.4-0.984-0.387-0.367 0.015-0.712 0.182-0.951 0.463-1.275 1.497-2.826 5.169 0.422 8.338l13.588 13.565c-0.057 0.333-0.093 0.672-0.093 1.021 0 3.278 2.659 5.945 5.928 5.945s5.929-2.667 5.929-5.945c0-3.279-2.659-5.946-5.928-5.946zM6.487 8.251c-1.286-1.254-1.277-2.518-0.979-3.434l15.051 15.119c-0.451 0.333-0.851 0.726-1.193 1.171l-12.879-12.856zM24.062 28.023c-1.815 0-3.292-1.481-3.292-3.301s1.477-3.302 3.292-3.302c1.815 0 3.292 1.481 3.292 3.302s-1.477 3.301-3.292 3.301z"></path>
</svg>
