<?xml version="1.0" encoding="utf-8"?>
<!-- Generated by IcoMoon.io -->
<!DOCTYPE svg PUBLIC "-//W3C//DTD SVG 1.1//EN" "http://www.w3.org/Graphics/SVG/1.1/DTD/svg11.dtd">
<svg version="1.1" xmlns="http://www.w3.org/2000/svg" xmlns:xlink="http://www.w3.org/1999/xlink" width="32" height="32" viewBox="0 0 32 32">
<path fill="#333333" d="M25.333 3.333c-2.057 0-3.525 0.469-4.54 1.011-0.865-1.779-2.686-3.011-4.793-3.011s-3.928 1.232-4.793 3.011c-1.015-0.541-2.483-1.011-4.54-1.011-0.736 0-1.333 0.597-1.333 1.333s0.597 1.333 1.333 1.333c2.413 0 3.593 0.809 4.032 1.212 0.045 0.429 0.141 0.842 0.281 1.235-1.815 1.468-2.979 3.709-2.979 6.219v9.333c0 2.206 1.794 4 4 4 0 2.206 1.794 4 4 4s4-1.794 4-4c2.206 0 4-1.794 4-4v-9.333c0-2.511-1.164-4.751-2.979-6.219 0.14-0.393 0.235-0.807 0.281-1.235 0.439-0.403 1.62-1.212 4.032-1.212 0.736 0 1.333-0.597 1.333-1.333s-0.597-1.333-1.333-1.333zM16 4c1.468 0 2.661 1.191 2.666 2.658 0 0.009-0.001 0.019-0.001 0.029-0.002 0.147-0.019 0.29-0.043 0.43-0.216 1.256-1.305 2.217-2.621 2.217s-2.405-0.961-2.621-2.217c-0.025-0.147-0.045-0.296-0.045-0.45 0-1.471 1.196-2.667 2.667-2.667zM11.668 7.955v0c0 0 0 0 0 0s0 0 0 0zM17.333 25.333v2.667c0 0.735-0.598 1.333-1.333 1.333s-1.333-0.598-1.333-1.333v-5.333c0-0.735 0.599-1.333 1.333-1.333s1.333 0.598 1.333 1.333v2.667zM21.333 14.667v9.333c0 0.735-0.598 1.333-1.333 1.333v-2.667c0-2.206-1.794-4-4-4s-4 1.794-4 4v2.667c-0.735 0-1.333-0.598-1.333-1.333v-9.333c0-1.593 0.707-3.022 1.818-4 0.939 0.827 2.168 1.333 3.515 1.333s2.576-0.506 3.515-1.333c1.111 0.978 1.818 2.407 1.818 4z"></path>
</svg>
