<?xml version="1.0" encoding="utf-8"?>
<!-- Generated by IcoMoon.io -->
<!DOCTYPE svg PUBLIC "-//W3C//DTD SVG 1.1//EN" "http://www.w3.org/Graphics/SVG/1.1/DTD/svg11.dtd">
<svg version="1.1" xmlns="http://www.w3.org/2000/svg" xmlns:xlink="http://www.w3.org/1999/xlink" width="32" height="32" viewBox="0 0 32 32">
<path fill="#333333" d="M24.725 30.62c-2.983-2.57-5.859-5.049-8.821-7.603-2.854 2.513-5.693 5.014-8.627 7.599 0-9.34 0-18.561 0-27.822 5.807 0 11.598 0 17.448 0 0 9.227 0 18.456 0 27.826zM15.149 12.17c-1.489-1.102-3.071-1.411-4.786-1.046-1.376 0.291-2.286 1.244-2.344 2.389-0.063 1.267 0.582 2.066 2.104 2.532 0.783 0.238 1.59 0.397 2.375 0.623 0.472 0.136 1.014 0.27 0.964 0.925-0.049 0.675-0.565 0.889-1.138 0.968-0.348 0.047-0.732 0.111-1.055 0.017-0.872-0.256-1.721-0.593-2.685-0.936-0.214 0.292-0.527 0.716-0.833 1.133 1.318 1.223 3.392 1.696 5.276 1.241 1.486-0.359 2.321-1.248 2.381-2.542 0.057-1.199-0.65-2.065-2.138-2.536-0.781-0.248-1.589-0.402-2.375-0.63-0.463-0.135-1.025-0.25-0.938-0.925 0.086-0.647 0.622-0.872 1.151-0.804 1.028 0.132 2.040 0.39 3.057 0.594 0 0.079 0 0.159 0.001 0.238 0.302-0.38 0.605-0.761 0.985-1.24zM24.257 13.081c-1.283-1.923-3.336-2.561-5.618-1.818-2.105 0.686-3.306 2.404-3.211 4.597 0.086 2.003 1.505 3.644 3.592 4.147 2.25 0.54 4.22-0.188 5.203-1.963-0.494-0.225-0.984-0.449-1.459-0.666-1.507 1.519-3.2 1.667-4.513 0.428-1.131-1.069-1.229-3.068-0.184-4.252 1-1.131 3.047-1.661 4.746 0.207 0.461-0.217 0.925-0.435 1.444-0.68z"></path>
</svg>
