<?xml version="1.0" encoding="utf-8"?>
<!-- Generated by IcoMoon.io -->
<!DOCTYPE svg PUBLIC "-//W3C//DTD SVG 1.1//EN" "http://www.w3.org/Graphics/SVG/1.1/DTD/svg11.dtd">
<svg version="1.1" xmlns="http://www.w3.org/2000/svg" xmlns:xlink="http://www.w3.org/1999/xlink" width="32" height="32" viewBox="0 0 32 32">
<path fill="#333333" d="M29.333 27.333h-12v-3.333h8.667c2.206 0 4-1.794 4-4v-10.667c0-2.206-1.794-4-4-4h-9.448l-2.943-2.943c-0.25-0.25-0.589-0.391-0.943-0.391h-6.667c-2.206 0-4 1.794-4 4v14c0 2.206 1.794 4 4 4h8.667v3.333h-12c-0.736 0-1.333 0.597-1.333 1.333s0.597 1.333 1.333 1.333h26.667c0.736 0 1.333-0.597 1.333-1.333s-0.597-1.333-1.333-1.333zM6 21.333c-0.735 0-1.333-0.598-1.333-1.333v-14c0-0.735 0.598-1.333 1.333-1.333h6.115l2.943 2.943c0.25 0.25 0.589 0.391 0.943 0.391h10c0.735 0 1.333 0.598 1.333 1.333v10.667c0 0.735-0.598 1.333-1.333 1.333h-20z"></path>
</svg>
