<?xml version="1.0" encoding="utf-8"?>
<!-- Generated by IcoMoon.io -->
<!DOCTYPE svg PUBLIC "-//W3C//DTD SVG 1.1//EN" "http://www.w3.org/Graphics/SVG/1.1/DTD/svg11.dtd">
<svg version="1.1" xmlns="http://www.w3.org/2000/svg" xmlns:xlink="http://www.w3.org/1999/xlink" width="32" height="32" viewBox="0 0 32 32">
<path fill="#333333" d="M29.333 28h-12v-2.667h8.667c1.471 0 2.667-1.196 2.667-2.667v-2c0-1.471-1.196-2.667-2.667-2.667h-20c-1.471 0-2.667 1.196-2.667 2.667v2c0 1.471 1.196 2.667 2.667 2.667h8.667v2.667h-12c-0.736 0-1.333 0.597-1.333 1.333s0.597 1.333 1.333 1.333h26.667c0.736 0 1.333-0.597 1.333-1.333s-0.597-1.333-1.333-1.333zM6 22.667v-2h20l0.002 2h-20.002z"></path>
<path fill="#333333" d="M6 8h20c1.471 0 2.667-1.196 2.667-2.667v-2c0-1.471-1.196-2.667-2.667-2.667h-20c-1.471 0-2.667 1.196-2.667 2.667v2c0 1.471 1.196 2.667 2.667 2.667zM6 3.333h20l0.002 2h-20.002v-2z"></path>
<path fill="#333333" d="M6 16.667h20c1.471 0 2.667-1.196 2.667-2.667v-2c0-1.471-1.196-2.667-2.667-2.667h-20c-1.471 0-2.667 1.196-2.667 2.667v2c0 1.471 1.196 2.667 2.667 2.667zM6 12h20l0.002 2h-20.002v-2z"></path>
</svg>
