<?xml version="1.0" encoding="utf-8"?>
<!-- Generated by IcoMoon.io -->
<!DOCTYPE svg PUBLIC "-//W3C//DTD SVG 1.1//EN" "http://www.w3.org/Graphics/SVG/1.1/DTD/svg11.dtd">
<svg version="1.1" xmlns="http://www.w3.org/2000/svg" xmlns:xlink="http://www.w3.org/1999/xlink" width="32" height="32" viewBox="0 0 32 32">
<path fill="#333333" d="M29.109 14.072c0.021-0.031 0.035-0.066 0.054-0.099 0.024-0.043 0.050-0.085 0.069-0.13 0.018-0.043 0.028-0.089 0.041-0.133 0.011-0.039 0.027-0.075 0.034-0.115 0.034-0.173 0.034-0.349 0-0.522-0.008-0.040-0.023-0.077-0.034-0.115-0.013-0.045-0.023-0.090-0.041-0.133-0.019-0.045-0.045-0.087-0.069-0.13-0.018-0.033-0.033-0.067-0.054-0.099-0.049-0.073-0.105-0.143-0.167-0.205l-7.999-8c-0.52-0.521-1.365-0.521-1.885 0s-0.521 1.364 0 1.885l5.723 5.724h-11.447c-7.178 0-12 4.822-12 12v1.333c0 0.736 0.597 1.333 1.333 1.333s1.333-0.597 1.333-1.333v-1.333c0-5.757 3.576-9.333 9.333-9.333h11.447l-5.723 5.724c-0.521 0.521-0.521 1.364 0 1.885 0.26 0.261 0.601 0.391 0.943 0.391s0.683-0.13 0.943-0.391l7.999-7.999c0.062-0.062 0.118-0.131 0.167-0.205z"></path>
</svg>
