<?xml version="1.0" encoding="utf-8"?>
<!-- Generated by IcoMoon.io -->
<!DOCTYPE svg PUBLIC "-//W3C//DTD SVG 1.1//EN" "http://www.w3.org/Graphics/SVG/1.1/DTD/svg11.dtd">
<svg version="1.1" xmlns="http://www.w3.org/2000/svg" xmlns:xlink="http://www.w3.org/1999/xlink" width="32" height="32" viewBox="0 0 32 32">
<path fill="#333333" d="M30.862 14.285l-13.333-11.301c-0.395-0.336-0.951-0.411-1.423-0.193s-0.773 0.69-0.773 1.209v5.587c-16.585 3.801-15.307 17.145-15.292 17.283 0.063 0.563 0.475 1.025 1.027 1.152 0.099 0.023 0.199 0.034 0.298 0.034 0.451 0 0.881-0.23 1.129-0.623 3.211-5.105 10.129-5.932 12.838-6.055v5.29c0 0.52 0.303 0.993 0.775 1.211s1.028 0.141 1.424-0.195l13.333-11.365c0.298-0.254 0.469-0.625 0.469-1.017s-0.173-0.763-0.472-1.015zM18 23.779v-3.747c0-0.709-0.559-1.295-1.267-1.332 0 0-0.201-0.011-0.561-0.011-2.157 0-8.497 0.348-13.093 4.114 0.964-3.661 4.077-8.922 13.843-10.829 0.625-0.121 1.077-0.669 1.077-1.307v-3.789l9.941 8.426-9.941 8.474z"></path>
</svg>
