<?xml version="1.0" encoding="utf-8"?>
<!-- Generated by IcoMoon.io -->
<!DOCTYPE svg PUBLIC "-//W3C//DTD SVG 1.1//EN" "http://www.w3.org/Graphics/SVG/1.1/DTD/svg11.dtd">
<svg version="1.1" xmlns="http://www.w3.org/2000/svg" xmlns:xlink="http://www.w3.org/1999/xlink" width="32" height="32" viewBox="0 0 32 32">
<path fill="#333333" d="M24.001 20.001c-1.479 0-2.819 0.606-3.785 1.582l-7.086-4.135c0.131-0.461 0.205-0.945 0.205-1.447s-0.075-0.987-0.205-1.448l7.086-4.134c0.967 0.976 2.306 1.582 3.785 1.582 2.941 0 5.333-2.393 5.333-5.333s-2.393-5.333-5.333-5.333-5.333 2.392-5.333 5.333c0 0.502 0.075 0.987 0.205 1.447l-7.086 4.135c-0.967-0.976-2.307-1.582-3.785-1.582-2.941 0-5.333 2.392-5.333 5.333s2.393 5.333 5.333 5.333c1.479 0 2.819-0.606 3.785-1.582l7.086 4.134c-0.131 0.461-0.205 0.945-0.205 1.448 0 2.941 2.393 5.333 5.333 5.333s5.333-2.393 5.333-5.333c0-2.941-2.393-5.333-5.333-5.333zM24.001 4.001c1.471 0 2.667 1.195 2.667 2.667s-1.196 2.667-2.667 2.667c-0.888 0-1.67-0.441-2.155-1.109l-0.279-0.477c-0.147-0.331-0.233-0.695-0.233-1.080 0-1.471 1.196-2.667 2.667-2.667zM8.001 18.668c-1.471 0-2.667-1.196-2.667-2.667s1.196-2.667 2.667-2.667c0.888 0 1.671 0.441 2.155 1.11l0.275 0.472c0.149 0.332 0.236 0.698 0.236 1.085 0.001 1.47-1.195 2.666-2.666 2.666zM24.001 28.001c-1.471 0-2.667-1.196-2.667-2.667s1.196-2.667 2.667-2.667 2.667 1.195 2.667 2.667c0 1.471-1.196 2.667-2.667 2.667z"></path>
</svg>
