<?xml version="1.0" encoding="utf-8"?>
<!-- Generated by IcoMoon.io -->
<!DOCTYPE svg PUBLIC "-//W3C//DTD SVG 1.1//EN" "http://www.w3.org/Graphics/SVG/1.1/DTD/svg11.dtd">
<svg version="1.1" xmlns="http://www.w3.org/2000/svg" xmlns:xlink="http://www.w3.org/1999/xlink" width="32" height="32" viewBox="0 0 32 32">
<path fill="#333333" d="M28.109 4.915c-0.205-0.147-5.095-3.582-12.109-3.582s-11.903 3.435-12.109 3.582c-0.327 0.234-0.531 0.603-0.556 1.005s0.135 0.793 0.432 1.065l15.333 14c0.544 0.496 1.387 0.458 1.884-0.085s0.458-1.387-0.085-1.884l-13.999-12.781c1.775-0.913 5.043-2.234 9.099-2.234 4.862 0 8.631 1.925 10 2.734v9.266c0 6.091-7.803 10.669-10 11.837-2.197-1.168-10-5.746-10-11.837v-4.527c0-0.736-0.597-1.333-1.333-1.333s-1.333 0.597-1.333 1.333v4.527c0 8.745 11.605 14.307 12.099 14.54 0.18 0.085 0.374 0.127 0.568 0.127s0.388-0.042 0.568-0.127c0.494-0.233 12.099-5.795 12.099-14.54v-10c0-0.431-0.208-0.835-0.558-1.085z"></path>
</svg>
