<?xml version="1.0" encoding="utf-8"?>
<!-- Generated by IcoMoon.io -->
<!DOCTYPE svg PUBLIC "-//W3C//DTD SVG 1.1//EN" "http://www.w3.org/Graphics/SVG/1.1/DTD/svg11.dtd">
<svg version="1.1" xmlns="http://www.w3.org/2000/svg" xmlns:xlink="http://www.w3.org/1999/xlink" width="32" height="32" viewBox="0 0 32 32">
<path fill="#333333" d="M30.228 28.682c-0.547-0.493-1.182-0.846-1.853-1.069l1.569-5.23c0.167-0.558-0.047-1.16-0.529-1.487l-3.477-2.356-1.273-9.967c-0.049-2.163-1.824-3.907-3.999-3.907h-0.667v-2c0-1.471-1.196-2.667-2.667-2.667h-2.667c-1.471 0-2.667 1.196-2.667 2.667v2h-0.667c-2.175 0-3.949 1.744-3.999 3.907l-1.274 9.975-3.473 2.341c-0.484 0.326-0.699 0.929-0.532 1.488l1.569 5.236c-0.671 0.223-1.305 0.576-1.853 1.069-0.546 0.492-0.588 1.331-0.095 1.875s1.337 0.585 1.883 0.094c0.96-0.866 2.584-0.866 3.544 0 1.997 1.799 5.125 1.799 7.123 0 0.96-0.866 2.584-0.866 3.544 0 0.999 0.899 2.281 1.348 3.562 1.348s2.563-0.449 3.561-1.349c0.96-0.866 2.584-0.866 3.544 0 0.546 0.492 1.389 0.449 1.883-0.094s0.452-1.383-0.094-1.875zM14.667 2.667h2.667v2h-2.667v-2zM9.989 8.835c0.007-0.056 0.011-0.113 0.011-0.169 0-0.735 0.598-1.333 1.333-1.333h9.333c0.735 0 1.333 0.598 1.333 1.333 0 0.056 0.004 0.113 0.011 0.169l0.984 7.709-4.397-2.98c-0.115-0.079-1.167-0.767-2.597-0.767-1.453 0-2.477 0.715-2.549 0.769l-4.448 2.998 0.986-7.729zM23.105 28.682c-0.96 0.865-2.584 0.865-3.544 0-1.997-1.799-5.126-1.799-7.123 0-0.96 0.865-2.584 0.865-3.544 0-0.731-0.659-1.615-1.074-2.539-1.25l-1.463-4.881 9.774-6.589v6.705c0 0.736 0.597 1.333 1.333 1.333s1.333-0.597 1.333-1.333v-6.737l9.775 6.625-1.463 4.878c-0.924 0.176-1.808 0.591-2.539 1.249z"></path>
</svg>
