<?xml version="1.0" encoding="utf-8"?>
<!-- Generated by IcoMoon.io -->
<!DOCTYPE svg PUBLIC "-//W3C//DTD SVG 1.1//EN" "http://www.w3.org/Graphics/SVG/1.1/DTD/svg11.dtd">
<svg version="1.1" xmlns="http://www.w3.org/2000/svg" xmlns:xlink="http://www.w3.org/1999/xlink" width="32" height="32" viewBox="0 0 32 32">
<path fill="#333333" d="M24.667 4h-20c-0.736 0-1.333 0.597-1.333 1.333s0.597 1.333 1.333 1.333h20c1.774 0 4.667 8.766 4.667 12v3.985c-0.015 0.615-0.26 1.349-1.333 1.349h-1.001c-0.655-1.564-2.2-2.667-3.999-2.667s-3.345 1.103-3.999 2.667h-7.001c-0.111 0-0.216 0.017-0.319 0.043-0.644-1.587-2.2-2.709-4.015-2.709-2.389 0-4.333 1.944-4.333 4.333s1.944 4.333 4.333 4.333c2.049 0 3.767-1.431 4.215-3.345 0.039 0.003 0.077 0.012 0.118 0.012h6.788c0.453 1.908 2.167 3.333 4.212 3.333s3.759-1.425 4.212-3.333h0.788c2.935 0 4-2.392 4-4v-4c0-2.387-2.552-14.667-7.333-14.667zM7.667 27.333c-0.919 0-1.667-0.748-1.667-1.667s0.747-1.667 1.667-1.667 1.667 0.748 1.667 1.667-0.747 1.667-1.667 1.667zM23 27.333c-0.919 0-1.667-0.748-1.667-1.667s0.747-1.667 1.667-1.667 1.667 0.748 1.667 1.667-0.747 1.667-1.667 1.667z"></path>
<path fill="#333333" d="M1.333 11.333h10.667c0.736 0 1.333-0.597 1.333-1.333s-0.597-1.333-1.333-1.333h-10.667c-0.736 0-1.333 0.597-1.333 1.333s0.597 1.333 1.333 1.333z"></path>
<path fill="#333333" d="M2.667 14.667c0 0.736 0.597 1.333 1.333 1.333h10.667c0.736 0 1.333-0.597 1.333-1.333s-0.597-1.333-1.333-1.333h-10.667c-0.736 0-1.333 0.597-1.333 1.333z"></path>
<path fill="#333333" d="M13.333 19.125c0-0.736-0.597-1.333-1.333-1.333h-10.667c-0.736 0-1.333 0.597-1.333 1.333s0.597 1.333 1.333 1.333h10.667c0.737 0 1.333-0.597 1.333-1.333z"></path>
</svg>
