<?xml version="1.0" encoding="utf-8"?>
<!-- Generated by IcoMoon.io -->
<!DOCTYPE svg PUBLIC "-//W3C//DTD SVG 1.1//EN" "http://www.w3.org/Graphics/SVG/1.1/DTD/svg11.dtd">
<svg version="1.1" xmlns="http://www.w3.org/2000/svg" xmlns:xlink="http://www.w3.org/1999/xlink" width="32" height="32" viewBox="0 0 32 32">
<path fill="#333333" d="M25.333 5.333h-1.195l-0.839-3.633c-0.003-0.013-0.011-0.023-0.014-0.035-0.026-0.099-0.064-0.193-0.109-0.281-0.013-0.025-0.026-0.049-0.039-0.072-0.059-0.096-0.126-0.185-0.206-0.264-0.011-0.010-0.022-0.017-0.033-0.027-0.074-0.068-0.156-0.125-0.243-0.175-0.025-0.014-0.048-0.027-0.073-0.039-0.101-0.051-0.21-0.091-0.324-0.113-0.003-0.001-0.004-0.002-0.007-0.002-0.009-0.002-0.018 0-0.027-0.001-0.073-0.013-0.147-0.023-0.224-0.023h-12c-0.077 0-0.151 0.010-0.224 0.023-0.009 0.001-0.018-0.001-0.027 0.001-0.003 0-0.004 0.001-0.007 0.002-0.115 0.023-0.223 0.063-0.324 0.113-0.025 0.012-0.049 0.025-0.073 0.039-0.087 0.049-0.171 0.107-0.243 0.175-0.011 0.010-0.023 0.017-0.033 0.027-0.079 0.078-0.147 0.168-0.206 0.264-0.015 0.024-0.026 0.047-0.039 0.072-0.047 0.089-0.083 0.182-0.109 0.281-0.004 0.013-0.012 0.023-0.015 0.035l-0.838 3.633h-1.195c-2.206 0-4 1.794-4 4v18c0 2.206 1.794 4 4 4h18.667c2.206 0 4-1.794 4-4v-18c0-2.206-1.794-4-4-4zM21.314 5.333l0.065-0.095 0.022 0.095 0.615 2.667 0.577 2.499-1.625 2.834-3.238-2.822 3.585-5.178zM19.455 3.333l-3.455 4.991-0.225-0.324-3.231-4.667h6.911zM9.983 8l0.638-2.761 0.065 0.095 3.583 5.178-3.238 2.822-1.625-2.834 0.577-2.499zM26.667 27.333c0 0.735-0.599 1.333-1.333 1.333h-18.667c-0.736 0-1.333-0.598-1.333-1.333v-18c0-0.735 0.597-1.333 1.333-1.333h0.579l-0.545 2.367c-0.070 0.302-0.033 0.619 0.107 0.897l2.667 4.917c0.191 0.383 0.556 0.651 0.979 0.719 0.071 0.012 0.142 0.018 0.213 0.018 0.35 0 0.69-0.139 0.943-0.391l4.391-3.975 4.391 3.975c0.251 0.252 0.591 0.391 0.943 0.391 0.071 0 0.142-0.006 0.213-0.018 0.423-0.069 0.787-0.336 0.979-0.719l2.667-4.917c0.138-0.277 0.176-0.595 0.107-0.897l-0.547-2.366h0.581c0.735 0 1.333 0.598 1.333 1.333v18z"></path>
<path fill="#333333" d="M17.354 16.667c0 0.736-0.597 1.333-1.333 1.333s-1.333-0.597-1.333-1.333c0-0.736 0.597-1.333 1.333-1.333s1.333 0.597 1.333 1.333z"></path>
<path fill="#333333" d="M17.333 21.333c0 0.736-0.597 1.333-1.333 1.333s-1.333-0.597-1.333-1.333c0-0.736 0.597-1.333 1.333-1.333s1.333 0.597 1.333 1.333z"></path>
<path fill="#333333" d="M17.333 26c0 0.736-0.597 1.333-1.333 1.333s-1.333-0.597-1.333-1.333c0-0.736 0.597-1.333 1.333-1.333s1.333 0.597 1.333 1.333z"></path>
</svg>
