<?xml version="1.0" encoding="utf-8"?>
<!-- Generated by IcoMoon.io -->
<!DOCTYPE svg PUBLIC "-//W3C//DTD SVG 1.1//EN" "http://www.w3.org/Graphics/SVG/1.1/DTD/svg11.dtd">
<svg version="1.1" xmlns="http://www.w3.org/2000/svg" xmlns:xlink="http://www.w3.org/1999/xlink" width="32" height="32" viewBox="0 0 32 32">
<path fill="#333333" d="M27.437 2.931c-0.331-0.247-0.757-0.326-1.153-0.216-0.397 0.11-0.721 0.397-0.877 0.779-2.259 5.503-9.177 12.929-11.169 15-0.659-0.352-1.759-1.209-2.651-2.094-0.309-0.306-0.749-0.444-1.175-0.367-0.349 0.063-0.655 0.261-0.855 0.545-0.511 0.526-3.595 2.943-6.359 5.037-0.927 0.628-3.599 2.467-3.148 4.757 0.419 2.123 3.115 2.791 3.651 2.903 0.089 0.019 0.181 0.028 0.273 0.028h10.667c2.427 0 5.686-3.525 8.004-6.5l-0.004 5.166c0 0.005 0 0.011 0 0.015s0 0.010 0 0.015c0 0.737 0.597 1.333 1.333 1.333h4.027c0.665 0 1.229-0.491 1.321-1.151l1.29-9.307c0.24-0.749 1.429-4.639 1.389-8.211-0.049-4.317-4.38-7.595-4.564-7.732zM28.043 18.152c-0.026 0.078-0.045 0.159-0.057 0.24l-1.147 8.275h-1.532l0.006-7.987c0.001-0.587-0.383-1.106-0.945-1.277-0.559-0.17-1.169 0.046-1.496 0.534-2.813 4.202-6.791 8.7-8.232 8.7h-10.515c-0.644-0.163-1.392-0.557-1.459-0.779-0.001-0.006 0.035-0.685 2.056-2.055 0.019-0.013 0.039-0.027 0.057-0.041 3.205-2.426 4.926-3.792 5.868-4.595 1.117 0.978 2.727 2.157 3.994 2.157 0.354 0 0.693-0.141 0.943-0.391 0.354-0.354 8.056-8.107 11.497-14.731 0.996 1.045 2.233 2.699 2.253 4.491 0.038 3.432-1.279 7.419-1.292 7.459z"></path>
</svg>
