<?xml version="1.0" encoding="utf-8"?>
<!-- Generated by IcoMoon.io -->
<!DOCTYPE svg PUBLIC "-//W3C//DTD SVG 1.1//EN" "http://www.w3.org/Graphics/SVG/1.1/DTD/svg11.dtd">
<svg version="1.1" xmlns="http://www.w3.org/2000/svg" xmlns:xlink="http://www.w3.org/1999/xlink" width="32" height="32" viewBox="0 0 32 32">
<path fill="#333333" d="M30.627 28.959l-2.64-18.481c-0.094-0.657-0.657-1.145-1.32-1.145h-4v-2.667c0-3.676-2.991-6.667-6.667-6.667s-6.667 2.991-6.667 6.667v2.667h-4c-0.663 0-1.226 0.488-1.32 1.145l-2.667 18.667c-0.055 0.383 0.059 0.77 0.313 1.062s0.621 0.46 1.007 0.46h26.667c0.005 0 0.009 0 0.013 0 0.736 0 1.333-0.597 1.333-1.333 0-0.13-0.019-0.255-0.053-0.375zM12 6.667c0-2.206 1.794-4 4-4s4 1.794 4 4v2.667h-8v-2.667zM4.204 28l2.285-16h14.718c0.042 0.004 0.083 0.013 0.126 0.013s0.084-0.009 0.126-0.013h4.051l2.285 16h-23.592z"></path>
<path fill="#333333" d="M12.333 15.333c0 0.92-0.746 1.667-1.667 1.667s-1.667-0.746-1.667-1.667c0-0.92 0.746-1.667 1.667-1.667s1.667 0.746 1.667 1.667z"></path>
<path fill="#333333" d="M23 15.333c0 0.92-0.746 1.667-1.667 1.667s-1.667-0.746-1.667-1.667c0-0.92 0.746-1.667 1.667-1.667s1.667 0.746 1.667 1.667z"></path>
</svg>
