<?xml version="1.0" encoding="utf-8"?>
<!-- Generated by IcoMoon.io -->
<!DOCTYPE svg PUBLIC "-//W3C//DTD SVG 1.1//EN" "http://www.w3.org/Graphics/SVG/1.1/DTD/svg11.dtd">
<svg version="1.1" xmlns="http://www.w3.org/2000/svg" xmlns:xlink="http://www.w3.org/1999/xlink" width="32" height="32" viewBox="0 0 32 32">
<path fill="#333333" d="M31.195 10.043c-1.065-2.157-2.233-4.478-3.033-6.060 0.659-0.081 1.171-0.636 1.171-1.317 0-0.736-0.597-1.333-1.333-1.333h-24c-0.737 0-1.333 0.597-1.333 1.333 0 0.681 0.512 1.236 1.171 1.317-0.799 1.582-1.968 3.903-3.033 6.060-0.8 1.619-0.758 3.354 0.115 4.759 0.429 0.69 1.030 1.243 1.747 1.659v10.871c0 1.838 1.495 3.333 3.333 3.333h20c1.838 0 3.333-1.495 3.333-3.333v-10.871c0.717-0.415 1.318-0.969 1.747-1.659 0.873-1.405 0.915-3.14 0.115-4.76zM28.815 13.395c-0.482 0.776-1.535 1.239-2.815 1.239-3.351 0-3.747-3.079-3.781-3.43-0.11-1.134-0.515-5.040-0.74-7.204h3.703c0.694 1.369 2.247 4.439 3.623 7.225 0.389 0.786 0.392 1.557 0.011 2.171zM13.202 4h5.597c0.203 1.957 0.599 5.771 0.742 7.209-0.004 0.042-0.013 0.082-0.013 0.125 0 1.838-1.583 3.333-3.528 3.333s-3.528-1.495-3.528-3.333c0-0.043-0.009-0.083-0.013-0.125 0.143-1.437 0.539-5.251 0.743-7.209zM3.195 11.225c1.376-2.785 2.929-5.856 3.623-7.225h3.703c-0.225 2.164-0.63 6.070-0.74 7.205-0.034 0.351-0.43 3.429-3.781 3.429-1.281 0-2.333-0.463-2.815-1.239-0.381-0.613-0.378-1.385 0.011-2.171zM10.667 28v-6h3.333v6h-3.333zM26.667 27.333c0 0.367-0.299 0.667-0.667 0.667h-9.333v-7.333c0-0.736-0.597-1.333-1.333-1.333h-6c-0.736 0-1.333 0.597-1.333 1.333v7.333h-2c-0.367 0-0.667-0.299-0.667-0.667v-10.067c0.219 0.019 0.439 0.034 0.667 0.034 2.306 0 3.987-0.992 5.057-2.366 1.131 1.453 2.923 2.399 4.943 2.399s3.811-0.945 4.943-2.399c1.070 1.374 2.751 2.366 5.057 2.366 0.227 0 0.448-0.015 0.667-0.034v10.067z"></path>
</svg>
