<?xml version="1.0" encoding="utf-8"?>
<!-- Generated by IcoMoon.io -->
<!DOCTYPE svg PUBLIC "-//W3C//DTD SVG 1.1//EN" "http://www.w3.org/Graphics/SVG/1.1/DTD/svg11.dtd">
<svg version="1.1" xmlns="http://www.w3.org/2000/svg" xmlns:xlink="http://www.w3.org/1999/xlink" width="32" height="32" viewBox="0 0 32 32">
<path fill="#333333" d="M24.214 18.807l-0.001 0.001c-0.478-0.478-1.253-0.478-1.732 0s-0.478 1.253 0 1.731v0 0 0 0l2.808 2.808h-3.167c-2.342 0-4.427-1.105-5.774-2.818-0.326 0.819-0.73 1.598-1.217 2.319 1.779 1.817 4.254 2.947 6.991 2.947h3.167l-2.808 2.808c-0.478 0.478-0.478 1.253 0 1.733 0.478 0.477 1.253 0.477 1.732 0l4.899-4.899c0.478-0.478 0.478-1.253 0-1.732l-4.898-4.899z"></path>
<path fill="#333333" d="M2.531 8.653h2.449c2.342 0 4.427 1.106 5.773 2.818 0.326-0.819 0.73-1.598 1.217-2.319l0.001-0.002c-0.005-0.005-0.012-0.010-0.017-0.015-0.161-0.164-0.332-0.316-0.505-0.468-0.067-0.059-0.13-0.123-0.199-0.18-0.143-0.12-0.296-0.229-0.446-0.34-0.108-0.080-0.212-0.166-0.324-0.242-0.096-0.066-0.199-0.122-0.298-0.184-0.175-0.11-0.348-0.223-0.531-0.323-0.013-0.007-0.027-0.012-0.040-0.020-1.379-0.746-2.955-1.174-4.631-1.174h-2.449c-0.479 0-0.89 0.278-1.091 0.68-0.083 0.165-0.133 0.348-0.133 0.545 0 0.676 0.548 1.225 1.225 1.225z"></path>
<path fill="#333333" d="M16.35 11.471c1.347-1.713 3.432-2.818 5.774-2.818h3.167l-2.808 2.808c-0.478 0.478-0.478 1.253 0 1.733 0.478 0.477 1.253 0.477 1.732 0l4.899-4.899c0.478-0.478 0.478-1.253 0-1.732l-4.899-4.898c-0.478-0.478-1.253-0.478-1.732 0s-0.478 1.253 0 1.731v0 0 0 0l2.808 2.809h-3.167c-2.737 0-5.211 1.133-6.989 2.95-0.571 0.584-1.071 1.237-1.484 1.948-0.032 0.056-0.068 0.11-0.099 0.167 0 0-0.001 0.001-0.001 0.001-0.778 1.403-1.224 3.015-1.224 4.73 0 1.709-0.591 3.279-1.574 4.53-1.346 1.712-3.431 2.818-5.773 2.818h-2.449c-0.676 0-1.225 0.549-1.225 1.225 0 0.206 0.056 0.398 0.146 0.569 0.205 0.389 0.609 0.656 1.078 0.656h2.259c0.064 0.001 0.125 0.010 0.19 0.010 3.694 0 6.908-2.046 8.577-5.065 0.776-1.403 1.22-3.014 1.22-4.731 0-0.003-0.001-0.007-0.001-0.010h0.001c0-1.709 0.591-3.279 1.574-4.529z"></path>
</svg>
