<?xml version="1.0" encoding="utf-8"?>
<!-- Generated by IcoMoon.io -->
<!DOCTYPE svg PUBLIC "-//W3C//DTD SVG 1.1//EN" "http://www.w3.org/Graphics/SVG/1.1/DTD/svg11.dtd">
<svg version="1.1" xmlns="http://www.w3.org/2000/svg" xmlns:xlink="http://www.w3.org/1999/xlink" width="32" height="32" viewBox="0 0 32 32">
<path fill="#333333" d="M16 1.333c-8.087 0-14.667 6.579-14.667 14.667s6.579 14.667 14.667 14.667 14.667-6.579 14.667-14.667-6.579-14.667-14.667-14.667zM26.806 10.816l-5.511 4.393c-0.062-0.416-0.169-0.817-0.321-1.197l0.003-0.001-0.019-0.043c-0.016-0.039-0.033-0.078-0.051-0.117l-4.229-9.817c4.468 0.252 8.281 2.951 10.127 6.782zM16 13.307c1.101 0 2.048 0.666 2.465 1.615l0.025 0.059c0.129 0.315 0.203 0.658 0.203 1.019 0 1.485-1.208 2.693-2.693 2.693s-2.693-1.208-2.693-2.693 1.209-2.693 2.693-2.693zM13.849 4.204l2.79 6.478c-0.21-0.025-0.422-0.042-0.639-0.042-0.149 0-0.296 0.011-0.442 0.023-0.097-0.017-0.197-0.026-0.301-0.020l-10.26 0.582c1.573-3.611 4.873-6.297 8.851-7.021zM4 16c0-0.703 0.073-1.389 0.189-2.059l7.053-0.4c-0.206 0.397-0.363 0.823-0.465 1.271l-0.003-0.001-2.645 10.226c-2.524-2.202-4.129-5.433-4.129-9.037zM10.469 26.639l1.767-6.829c0.254 0.251 0.533 0.475 0.833 0.672l-0.003 0.003 9.061 5.813c-1.796 1.073-3.887 1.701-6.127 1.701-1.995 0-3.873-0.497-5.531-1.361zM24.379 24.575l-5.937-3.809c0.41-0.211 0.788-0.474 1.129-0.779l0.003 0.004 8.157-6.501c0.173 0.811 0.269 1.65 0.269 2.511 0 3.358-1.391 6.395-3.621 8.575z"></path>
</svg>
