<?xml version="1.0" encoding="utf-8"?>
<!-- Generated by IcoMoon.io -->
<!DOCTYPE svg PUBLIC "-//W3C//DTD SVG 1.1//EN" "http://www.w3.org/Graphics/SVG/1.1/DTD/svg11.dtd">
<svg version="1.1" xmlns="http://www.w3.org/2000/svg" xmlns:xlink="http://www.w3.org/1999/xlink" width="32" height="32" viewBox="0 0 32 32">
<path fill="#333333" d="M21.333 13.401c0-2.941-2.393-5.333-5.333-5.333s-5.333 2.393-5.333 5.333c0 2.486 1.712 4.574 4.017 5.162-0.007 0.057-0.017 0.113-0.017 0.171v10.667c0 0.736 0.597 1.333 1.333 1.333s1.333-0.597 1.333-1.333v-10.667c0-0.059-0.010-0.115-0.017-0.171 2.305-0.589 4.017-2.677 4.017-5.162zM15.999 16.067c-1.471 0-2.667-1.196-2.667-2.667s1.196-2.667 2.667-2.667 2.667 1.196 2.667 2.667-1.196 2.667-2.667 2.667z"></path>
<path fill="#333333" d="M10.345 19.055c-1.449-1.448-2.346-3.448-2.346-5.655s0.897-4.206 2.346-5.654l-0.003-0.003c0.203-0.235 0.331-0.537 0.331-0.873 0-0.74-0.6-1.34-1.34-1.34-0.466 0-0.875 0.238-1.115 0.599-1.783 1.907-2.885 4.46-2.885 7.271 0 2.808 1.099 5.359 2.878 7.265 0.239 0.366 0.651 0.61 1.122 0.61 0.74 0 1.34-0.599 1.34-1.34 0-0.336-0.128-0.64-0.333-0.876l0.006-0.004z"></path>
<path fill="#333333" d="M23.771 6.117c-0.077-0.081-0.147-0.169-0.226-0.249-0.002-0.003-0.004-0.005-0.007-0.007l-0.001 0.001c-0.235-0.205-0.539-0.333-0.875-0.333-0.74 0-1.34 0.599-1.34 1.34 0 0.336 0.128 0.639 0.333 0.875l-0.001 0.002c0.011 0.011 0.021 0.025 0.032 0.035 0.014 0.015 0.027 0.031 0.041 0.047 1.403 1.441 2.272 3.405 2.272 5.572 0 2.207-0.897 4.207-2.346 5.655l0.003 0.003c-0.205 0.235-0.334 0.54-0.334 0.877 0 0.741 0.6 1.34 1.34 1.34 0.467 0 0.877-0.239 1.117-0.601 1.785-1.907 2.887-4.461 2.887-7.273-0.001-2.816-1.106-5.374-2.895-7.283z"></path>
<path fill="#333333" d="M27.683 2.485c-0.029-0.032-0.060-0.064-0.091-0.095-0.103-0.095-0.22-0.174-0.349-0.235-0.171-0.079-0.36-0.126-0.561-0.126-0.74 0-1.34 0.599-1.34 1.34 0 0.201 0.047 0.39 0.127 0.561 0.055 0.119 0.129 0.227 0.214 0.324l0.018 0.028c0.193 0.193 0.101 0.085 0.281 0.29 2.083 2.353 3.349 5.446 3.349 8.828 0 3.306-1.413 6.537-3.412 8.871-0.042 0.049-0.079 0.092-0.114 0.132-0.138 0.134-0.249 0.293-0.327 0.459-0.002 0.003-0.005 0.007-0.007 0.011-0.005 0.010-0.007 0.021-0.011 0.031-0.012 0.027-0.027 0.055-0.037 0.083l0.005 0.005c-0.053 0.141-0.089 0.29-0.089 0.45 0 0.74 0.6 1.339 1.34 1.339 0.205 0 0.397-0.049 0.57-0.131 0.11-0.052 0.211-0.12 0.302-0.198 0.059-0.063 0.12-0.125 0.179-0.187 2.647-2.855 4.269-6.674 4.269-10.865 0.001-4.217-1.641-8.055-4.316-10.916z"></path>
<path fill="#333333" d="M6.333 22.558c-0.027-0.028-0.051-0.057-0.077-0.085-2.219-2.383-3.59-5.567-3.59-9.072 0-3.513 1.376-6.705 3.605-9.089 0.016-0.017 0.031-0.035 0.047-0.053 0.088-0.095 0.161-0.203 0.219-0.321 0.088-0.178 0.142-0.378 0.142-0.591 0-0.744-0.603-1.346-1.347-1.346-0.213 0-0.411 0.054-0.591 0.142-0.095 0.046-0.183 0.104-0.263 0.171-0.079 0.081-0.157 0.162-0.233 0.245-2.634 2.853-4.246 6.661-4.246 10.841 0 4.186 1.617 7.999 4.257 10.854 0.067 0.071 0.135 0.141 0.202 0.211 0.087 0.074 0.183 0.139 0.287 0.189 0.176 0.084 0.371 0.136 0.58 0.136 0.743 0 1.347-0.602 1.347-1.347 0-0.209-0.051-0.403-0.137-0.58-0.053-0.111-0.122-0.213-0.203-0.305z"></path>
</svg>
