<?xml version="1.0" encoding="utf-8"?>
<!-- Generated by IcoMoon.io -->
<!DOCTYPE svg PUBLIC "-//W3C//DTD SVG 1.1//EN" "http://www.w3.org/Graphics/SVG/1.1/DTD/svg11.dtd">
<svg version="1.1" xmlns="http://www.w3.org/2000/svg" xmlns:xlink="http://www.w3.org/1999/xlink" width="32" height="32" viewBox="0 0 32 32">
<path fill="#333333" d="M28.829 16.012c0-7.075-5.756-12.829-12.829-12.829-2.14 0-4.155 0.531-5.931 1.46 1.35 0.562 2.301 1.884 2.324 3.429 1.1-0.502 2.317-0.797 3.606-0.797 4.817 0 8.737 3.921 8.737 8.738 0 1.192-0.24 2.33-0.677 3.367-0.029 0.071-0.068 0.135-0.099 0.203 1.545 0.048 2.856 1.026 3.389 2.398 0.434-0.82 0.782-1.691 1.029-2.602 0.292-1.076 0.45-2.204 0.45-3.368z"></path>
<path fill="#333333" d="M20.106 23.699c-1.228 0.658-2.619 1.048-4.106 1.048-3.625 0-6.741-2.217-8.062-5.369-0.436-1.037-0.677-2.175-0.677-3.367 0-1.5 0.386-2.908 1.055-4.143-1.526-0.126-2.785-1.154-3.252-2.554-1.199 1.951-1.893 4.244-1.893 6.697 0 1.164 0.157 2.292 0.45 3.367 1.482 5.446 6.471 9.461 12.378 9.461 2.467 0 4.771-0.7 6.728-1.912-1.424-0.444-2.475-1.7-2.622-3.229z"></path>
<path fill="#333333" d="M25.845 23.342c0 1.107-0.897 2.003-2.003 2.003s-2.003-0.897-2.003-2.003c0-1.107 0.897-2.003 2.003-2.003s2.003 0.897 2.003 2.003z"></path>
<path fill="#333333" d="M10.63 8.125c0 1.107-0.897 2.003-2.003 2.003s-2.003-0.897-2.003-2.003c0-1.107 0.897-2.003 2.003-2.003s2.003 0.897 2.003 2.003z"></path>
</svg>
