<?xml version="1.0" encoding="utf-8"?>
<!-- Generated by IcoMoon.io -->
<!DOCTYPE svg PUBLIC "-//W3C//DTD SVG 1.1//EN" "http://www.w3.org/Graphics/SVG/1.1/DTD/svg11.dtd">
<svg version="1.1" xmlns="http://www.w3.org/2000/svg" xmlns:xlink="http://www.w3.org/1999/xlink" width="32" height="32" viewBox="0 0 32 32">
<path fill="#333333" d="M16 1.333c-7.364 0-13.333 5.969-13.333 13.332 0 3.945 1.722 7.699 4.445 10.14v3.416c0 0.982 0.796 1.777 1.778 1.777h14.222c0.982 0 1.778-0.795 1.778-1.777v-3.416c2.722-2.441 4.444-6.195 4.444-10.14 0-7.363-5.969-13.332-13.333-13.332zM23.109 22.821l-0.886 0.793v3.717h-2.222v-2.665c0-0.736-0.597-1.333-1.333-1.333s-1.333 0.597-1.333 1.333v2.665h-2.667v-2.665c0-0.736-0.597-1.333-1.333-1.333s-1.333 0.597-1.333 1.333v2.665h-2.223v-3.717l-0.886-0.793c-2.261-2.029-3.559-5.142-3.559-8.157 0-5.88 4.785-10.667 10.667-10.667s10.667 4.787 10.667 10.667c0 3.015-1.297 6.127-3.558 8.156z"></path>
<path fill="#333333" d="M13.333 14.667c0 1.105-0.895 2-2 2s-2-0.895-2-2c0-1.105 0.895-2 2-2s2 0.895 2 2z"></path>
<path fill="#333333" d="M22.667 14.667c0 1.105-0.895 2-2 2s-2-0.895-2-2c0-1.105 0.895-2 2-2s2 0.895 2 2z"></path>
<path fill="#333333" d="M16.001 16c-0.736 0-1.333 0.597-1.333 1.333v2.667c0 0.736 0.597 1.333 1.333 1.333s1.333-0.597 1.333-1.333v-2.667c0-0.736-0.597-1.333-1.333-1.333z"></path>
</svg>
