<?xml version="1.0" encoding="utf-8"?>
<!-- Generated by IcoMoon.io -->
<!DOCTYPE svg PUBLIC "-//W3C//DTD SVG 1.1//EN" "http://www.w3.org/Graphics/SVG/1.1/DTD/svg11.dtd">
<svg version="1.1" xmlns="http://www.w3.org/2000/svg" xmlns:xlink="http://www.w3.org/1999/xlink" width="32" height="32" viewBox="0 0 32 32">
<path fill="#333333" d="M28.153 18.731c0.184-0.839 0.277-1.706 0.277-2.597 0-6.791-5.499-12.295-12.288-12.295-0.733 0-1.458 0.067-2.156 0.19-1.102-0.684-2.407-1.083-3.804-1.083-3.943 0-7.14 3.147-7.14 7.031 0 1.35 0.389 2.615 1.060 3.685-0.166 0.8-0.248 1.626-0.248 2.472 0 6.789 5.504 12.294 12.288 12.294 0.751 0 1.478-0.068 2.191-0.196 1.016 0.54 2.181 0.848 3.416 0.848 3.979 0 7.208-3.177 7.208-7.098 0-1.173-0.287-2.276-0.804-3.251zM16.579 24.545c-3.043 0.195-6.199-0.965-7.314-3.374-1.119-2.411 0.722-3.2 1.421-3.113 0.706 0.089 1.077 0.11 1.95 1.863 0.878 1.754 1.97 1.95 3.573 1.95 1.597 0 3.219-0.854 3.219-2.146s-1.14-1.796-1.752-1.995c-0.613-0.197-2.276-0.569-4.425-1.115-2.144-0.549-4.032-2.214-4.032-4.294 0-2.079 1.558-4.556 6.246-4.776 4.688-0.218 6.768 2.214 6.966 3.595s-0.703 1.883-0.703 1.883c-1.135 0.546-1.967 0.457-2.866-1.206-0.903-1.664-2.192-1.639-3.309-1.639s-2.671 0.566-2.671 1.815c0 1.25 2.233 1.688 2.233 1.688 3.243 0.874 8.105 1.291 8.105 5.409-0.001 4.12-3.596 5.257-6.64 5.456z"></path>
</svg>
