<?xml version="1.0" encoding="utf-8"?>
<!-- Generated by IcoMoon.io -->
<!DOCTYPE svg PUBLIC "-//W3C//DTD SVG 1.1//EN" "http://www.w3.org/Graphics/SVG/1.1/DTD/svg11.dtd">
<svg version="1.1" xmlns="http://www.w3.org/2000/svg" xmlns:xlink="http://www.w3.org/1999/xlink" width="32" height="32" viewBox="0 0 32 32">
<path fill="#333333" d="M16 0.667c-8.455 0-15.333 6.879-15.333 15.333 0 8.455 6.878 15.333 15.333 15.333s15.333-6.878 15.333-15.333c0-8.454-6.878-15.333-15.333-15.333zM3.333 16c0-6.985 5.682-12.667 12.667-12.667 3.013 0 5.78 1.061 7.957 2.824l-17.799 17.8c-1.763-2.177-2.824-4.944-2.824-7.957zM16 28.667c-3.013 0-5.78-1.061-7.957-2.824l17.799-17.799c1.764 2.177 2.825 4.944 2.825 7.957 0 6.985-5.682 12.667-12.667 12.667z"></path>
</svg>
