<?xml version="1.0" encoding="utf-8"?>
<!-- Generated by IcoMoon.io -->
<!DOCTYPE svg PUBLIC "-//W3C//DTD SVG 1.1//EN" "http://www.w3.org/Graphics/SVG/1.1/DTD/svg11.dtd">
<svg version="1.1" xmlns="http://www.w3.org/2000/svg" xmlns:xlink="http://www.w3.org/1999/xlink" width="32" height="32" viewBox="0 0 32 32">
<path fill="#333333" d="M28.481 15.353c-0.106 0.076-0.214 0.149-0.319 0.219v-10.673c0-1.484-1.116-2.681-2.487-2.681h-19.339c-1.371 0-2.486 1.197-2.486 2.681v10.683c-0.11-0.074-0.221-0.149-0.334-0.23-0.823-0.575-1.36 0.21-0.855 0.957 0.982 1.204 2.851 2.701 5.716 3.877-3.032 10.331 7.403 11.974 7.243 6.674 0 0.098 0.007-3.006 0.011-5.21 0.274 0.065 0.513 0.128 0.735 0.183 0.006 2.188 0.011 5.121 0.011 5.026-0.16 5.298 10.281 3.655 7.24-6.674 2.868-1.177 4.741-2.673 5.721-3.877 0.503-0.746-0.035-1.531-0.858-0.956zM26.837 16.381c-3.714 2.008-6.917 1.659-8.655 1.606-1.273-0.065-1.748 0.483-1.811 1.33-0.308-0.218-0.622-0.479-0.943-0.777-0.054-0.051-0.103-0.092-0.155-0.137-0.28-0.295-0.741-0.455-1.461-0.417-1.712 0.052-4.841 0.392-8.487-1.52v-10.357c0-1.874 0.477-2.463 2.194-2.463h17.114c1.63 0 2.204 0.699 2.204 2.463v10.272z"></path>
<path fill="#333333" d="M20.054 10.499c-1.837 0-3.325 1.393-3.325 3.109 0 1.719 1.488 3.11 3.325 3.11 1.832 0 3.321-1.392 3.321-3.11 0.001-1.716-1.488-3.109-3.321-3.109z"></path>
<path fill="#333333" d="M15.639 13.608c0 1.718-1.487 3.11-3.321 3.11s-3.321-1.393-3.321-3.11c0-1.718 1.487-3.11 3.321-3.11s3.321 1.393 3.321 3.11z"></path>
</svg>
