<?xml version="1.0" encoding="utf-8"?>
<!-- Generated by IcoMoon.io -->
<!DOCTYPE svg PUBLIC "-//W3C//DTD SVG 1.1//EN" "http://www.w3.org/Graphics/SVG/1.1/DTD/svg11.dtd">
<svg version="1.1" xmlns="http://www.w3.org/2000/svg" xmlns:xlink="http://www.w3.org/1999/xlink" width="32" height="32" viewBox="0 0 32 32">
<path fill="#333333" d="M30.595 26.262v-12.183c0-0.736-0.597-1.333-1.333-1.333h-7.68l-0.219-0.967c1.605-0.94 3.129-2.344 3.129-4.753 0-3.677-3.467-6.245-8.432-6.245h-0.191c-4.963 0-8.431 2.569-8.431 6.245 0 2.409 1.522 3.813 3.129 4.754l-0.219 0.967h-7.671c-0.737 0-1.333 0.597-1.333 1.333v12.182c-0.432 0.299-0.717 0.809-0.717 1.385v1.324c0 0.917 0.72 1.665 1.605 1.665h4.539c0.417 0 0.789-0.192 1.034-0.492 0.245 0.3 0.617 0.492 1.034 0.492h14.107c0.418 0 0.791-0.192 1.035-0.492 0.243 0.3 0.616 0.492 1.034 0.492h4.691c0.885 0 1.605-0.747 1.605-1.665v-1.324c0-0.577-0.285-1.086-0.717-1.385zM12.681 9.888c-2.146-1.060-2.577-1.881-2.577-2.863 0-2.459 2.988-3.578 5.764-3.578h0.191c2.777 0 5.765 1.12 5.765 3.578 0 0.981-0.431 1.803-2.577 2.863-0.552 0.273-0.845 0.888-0.709 1.489l0.309 1.369h-5.765l0.309-1.369c0.135-0.601-0.157-1.216-0.71-1.489zM5.867 27.969h-2.027c0.108-0.193 0.171-0.416 0.171-0.653v-11.904h5.736l-2.675 11.84c-0.485 0.089-0.911 0.345-1.205 0.717zM9.663 27.888l2.817-12.475h6.971l2.746 12.161c-0.074 0.121-0.124 0.255-0.156 0.395h-12.299c-0.023-0.030-0.055-0.052-0.079-0.081zM25.918 27.969c-0.263-0.333-0.633-0.575-1.053-0.687l-2.681-11.87h5.745v11.903c0 0.237 0.063 0.459 0.171 0.653h-2.181z"></path>
</svg>
