<?xml version="1.0" encoding="utf-8"?>
<!-- Generated by IcoMoon.io -->
<!DOCTYPE svg PUBLIC "-//W3C//DTD SVG 1.1//EN" "http://www.w3.org/Graphics/SVG/1.1/DTD/svg11.dtd">
<svg version="1.1" xmlns="http://www.w3.org/2000/svg" xmlns:xlink="http://www.w3.org/1999/xlink" width="32" height="32" viewBox="0 0 32 32">
<path fill="#333333" d="M22 10.667c-0.736 0-1.333 0.597-1.333 1.333v1.333c0 0.736 0.597 1.333 1.333 1.333s1.333-0.597 1.333-1.333v-1.333c0-0.736-0.597-1.333-1.333-1.333z"></path>
<path fill="#333333" d="M11.333 13.333v-1.333c0-0.736-0.597-1.333-1.333-1.333s-1.333 0.597-1.333 1.333v1.333c0 0.736 0.597 1.333 1.333 1.333s1.333-0.597 1.333-1.333z"></path>
<path fill="#333333" d="M21.395 19.901c-0.605-0.401-1.428-0.233-1.841 0.364-0.040 0.057-1 1.402-3.555 1.402-2.487 0-3.505-1.336-3.569-1.423-0.411-0.599-1.23-0.759-1.838-0.354-0.613 0.409-0.778 1.236-0.37 1.849 0.071 0.106 1.775 2.594 5.776 2.594 4.084 0 5.725-2.512 5.793-2.619 0.389-0.612 0.209-1.412-0.397-1.813z"></path>
<path fill="#333333" d="M16 1.333c-8.087 0-14.667 6.579-14.667 14.667s6.579 14.667 14.667 14.667 14.667-6.579 14.667-14.667-6.579-14.667-14.667-14.667zM16 28c-6.617 0-12-5.383-12-12s5.383-12 12-12 12 5.383 12 12-5.383 12-12 12z"></path>
</svg>
