<?xml version="1.0" encoding="utf-8"?>
<!-- Generated by IcoMoon.io -->
<!DOCTYPE svg PUBLIC "-//W3C//DTD SVG 1.1//EN" "http://www.w3.org/Graphics/SVG/1.1/DTD/svg11.dtd">
<svg version="1.1" xmlns="http://www.w3.org/2000/svg" xmlns:xlink="http://www.w3.org/1999/xlink" width="32" height="32" viewBox="0 0 32 32">
<path fill="#333333" d="M29.369 22.179l-2.474-1.429 2.083-1.016c0.662-0.323 0.937-1.121 0.614-1.783s-1.121-0.937-1.783-0.613l-3.699 1.805-5.443-3.143 5.447-3.145 3.693 1.806c0.189 0.093 0.388 0.136 0.585 0.136 0.493 0 0.967-0.275 1.199-0.748 0.323-0.661 0.049-1.46-0.612-1.783l-2.082-1.018 2.472-1.427c0.638-0.368 0.856-1.183 0.488-1.821-0.369-0.637-1.184-0.857-1.821-0.488l-2.474 1.428 0.161-2.311c0.051-0.735-0.503-1.372-1.237-1.423-0.727-0.053-1.372 0.503-1.423 1.237l-0.286 4.105-5.443 3.143v-6.289l3.411-2.295c0.611-0.411 0.773-1.239 0.362-1.851s-1.24-0.773-1.85-0.361l-1.923 1.293v-2.854c0-0.736-0.597-1.333-1.333-1.333s-1.333 0.597-1.333 1.333v2.857l-1.921-1.295c-0.61-0.412-1.439-0.25-1.851 0.36s-0.251 1.439 0.36 1.851l3.412 2.301v6.285l-5.446-3.145-0.282-4.102c-0.050-0.735-0.677-1.293-1.422-1.239-0.735 0.051-1.289 0.687-1.238 1.421l0.159 2.312-2.472-1.427c-0.641-0.369-1.454-0.149-1.823 0.489s-0.15 1.453 0.488 1.821l2.475 1.429-2.083 1.016c-0.662 0.323-0.937 1.121-0.614 1.783 0.231 0.473 0.706 0.749 1.2 0.749 0.196 0 0.395-0.043 0.583-0.135l3.699-1.805 5.442 3.142-5.447 3.145-3.693-1.806c-0.662-0.324-1.459-0.049-1.784 0.611-0.323 0.661-0.049 1.46 0.612 1.783l2.081 1.018-2.472 1.427c-0.638 0.368-0.856 1.183-0.488 1.821 0.247 0.428 0.695 0.667 1.156 0.667 0.226 0 0.456-0.057 0.665-0.179l2.475-1.429-0.161 2.312c-0.051 0.735 0.503 1.372 1.237 1.423 0.031 0.002 0.063 0.003 0.094 0.003 0.694 0 1.28-0.537 1.329-1.241l0.286-4.105 5.443-3.141v6.289l-3.411 2.295c-0.611 0.411-0.773 1.239-0.362 1.851 0.257 0.382 0.678 0.589 1.107 0.589 0.256 0 0.515-0.073 0.743-0.227l1.923-1.293v2.854c0 0.736 0.597 1.333 1.333 1.333s1.333-0.597 1.333-1.333v-2.857l1.921 1.295c0.611 0.412 1.439 0.251 1.851-0.36s0.251-1.439-0.36-1.851l-3.412-2.301v-6.285l5.447 3.145 0.282 4.101c0.048 0.703 0.634 1.242 1.329 1.242 0.031 0 0.062-0.001 0.093-0.003 0.735-0.051 1.289-0.687 1.238-1.421l-0.159-2.311 2.471 1.427c0.211 0.121 0.44 0.179 0.666 0.179 0.461 0 0.909-0.239 1.156-0.667 0.368-0.638 0.15-1.453-0.488-1.821z"></path>
</svg>
