<?xml version="1.0" encoding="utf-8"?>
<!-- Generated by IcoMoon.io -->
<!DOCTYPE svg PUBLIC "-//W3C//DTD SVG 1.1//EN" "http://www.w3.org/Graphics/SVG/1.1/DTD/svg11.dtd">
<svg version="1.1" xmlns="http://www.w3.org/2000/svg" xmlns:xlink="http://www.w3.org/1999/xlink" width="32" height="32" viewBox="0 0 32 32">
<path fill="#333333" d="M17.335 20c0 0.736-0.597 1.333-1.333 1.333s-1.333-0.597-1.333-1.333c0-0.736 0.597-1.333 1.333-1.333s1.333 0.597 1.333 1.333z"></path>
<path fill="#333333" d="M17.335 25.333c0 0.736-0.597 1.333-1.333 1.333s-1.333-0.597-1.333-1.333c0-0.736 0.597-1.333 1.333-1.333s1.333 0.597 1.333 1.333z"></path>
<path fill="#333333" d="M30.367 12.49c-0.465-0.57-1.305-0.655-1.876-0.19l-3.689 3.010c-0.653-0.953-1.465-1.8-2.41-2.507 1.035-1.374 1.609-3.055 1.609-4.804 0-4.411-3.589-8-8-8s-8 3.589-8 8c0 1.75 0.573 3.43 1.609 4.804-0.945 0.707-1.757 1.553-2.41 2.507l-3.691-3.010c-0.569-0.465-1.409-0.38-1.876 0.191-0.465 0.57-0.38 1.411 0.191 1.876l4.133 3.372c-0.405 1.134-0.622 2.347-0.622 3.595 0 5.881 4.785 10.667 10.667 10.667s10.667-4.785 10.667-10.667c0-1.249-0.217-2.461-0.622-3.595l4.132-3.372c0.57-0.465 0.655-1.305 0.189-1.876zM16.001 2.667c2.941 0 5.333 2.393 5.333 5.333 0 1.558-0.683 3.036-1.874 4.053-0.966 0.825-2.195 1.28-3.459 1.28s-2.493-0.455-3.459-1.28c-1.191-1.017-1.874-2.495-1.874-4.053 0-2.941 2.393-5.333 5.333-5.333zM16.001 29.333c-4.411 0-8-3.589-8-8 0-2.706 1.355-5.192 3.585-6.667 0.082 0.055 0.168 0.103 0.251 0.154 0.060 0.037 0.119 0.075 0.181 0.111 0.168 0.097 0.339 0.187 0.513 0.271 0.022 0.011 0.043 0.023 0.065 0.033 0.196 0.093 0.396 0.176 0.599 0.252 0.061 0.023 0.124 0.042 0.187 0.064 0.143 0.050 0.287 0.097 0.434 0.139 0.077 0.022 0.153 0.041 0.23 0.061 0.137 0.035 0.275 0.066 0.413 0.093 0.079 0.015 0.157 0.031 0.236 0.044 0.147 0.025 0.295 0.043 0.443 0.059 0.069 0.007 0.139 0.017 0.208 0.023 0.217 0.018 0.436 0.029 0.655 0.029s0.438-0.011 0.655-0.029c0.070-0.006 0.139-0.015 0.208-0.023 0.149-0.016 0.297-0.035 0.443-0.059 0.079-0.013 0.157-0.029 0.236-0.044 0.139-0.027 0.277-0.059 0.413-0.093 0.077-0.019 0.154-0.039 0.23-0.061 0.146-0.042 0.29-0.089 0.434-0.139 0.062-0.021 0.125-0.041 0.187-0.064 0.203-0.076 0.403-0.159 0.599-0.252 0.022-0.011 0.043-0.023 0.065-0.033 0.174-0.084 0.345-0.174 0.513-0.271 0.061-0.035 0.12-0.073 0.181-0.111 0.084-0.051 0.169-0.099 0.251-0.154 2.23 1.475 3.585 3.961 3.585 6.667 0 4.411-3.589 8-8 8z"></path>
</svg>
