<?xml version="1.0" encoding="utf-8"?>
<!-- Generated by IcoMoon.io -->
<!DOCTYPE svg PUBLIC "-//W3C//DTD SVG 1.1//EN" "http://www.w3.org/Graphics/SVG/1.1/DTD/svg11.dtd">
<svg version="1.1" xmlns="http://www.w3.org/2000/svg" xmlns:xlink="http://www.w3.org/1999/xlink" width="32" height="32" viewBox="0 0 32 32">
<path fill="#333333" d="M11.549 23.837c0 1.845-1.496 3.341-3.341 3.341s-3.341-1.496-3.341-3.341c0-1.845 1.496-3.341 3.341-3.341s3.341 1.496 3.341 3.341z"></path>
<path fill="#333333" d="M19.788 27.179h-3.567c0-6.151-5.199-11.352-11.352-11.352v-3.567c3.972 0 7.722 1.569 10.557 4.424 2.81 2.834 4.362 6.561 4.362 10.495z"></path>
<path fill="#333333" d="M27.129 27.179h-3.57c0-10.173-8.557-18.767-18.691-18.767v-3.57c3.002 0 5.92 0.602 8.678 1.791 2.642 1.141 5.021 2.769 7.069 4.838 2.038 2.060 3.641 4.451 4.767 7.103 1.158 2.745 1.747 5.64 1.747 8.607z"></path>
</svg>
