<?xml version="1.0" encoding="utf-8"?>
<!-- Generated by IcoMoon.io -->
<!DOCTYPE svg PUBLIC "-//W3C//DTD SVG 1.1//EN" "http://www.w3.org/Graphics/SVG/1.1/DTD/svg11.dtd">
<svg version="1.1" xmlns="http://www.w3.org/2000/svg" xmlns:xlink="http://www.w3.org/1999/xlink" width="32" height="32" viewBox="0 0 32 32">
<path fill="#333333" d="M9.953 22.813v4.531h12.093v-7.556h-12.093v3.025zM11.467 21.301h9.067v1.512h-9.067v-1.512zM11.467 24.319h9.067v1.513h-9.067v-1.513z"></path>
<path fill="#333333" d="M22.047 9.208v-4.531h-12.093v7.556h12.093v-3.025z"></path>
<path fill="#333333" d="M25.064 9.208h-1.512v4.539h-15.112v-4.539h-1.504c-1.513 0-3.027 1.513-3.027 3.025v7.556c0 1.512 1.513 3.025 3.027 3.025h1.504v-4.539h15.112v4.539h1.512c1.513 0 3.027-1.512 3.027-3.025v-7.556c-0.001-1.512-1.513-3.025-3.027-3.025v0z"></path>
</svg>
