<?xml version="1.0" encoding="utf-8"?>
<!-- Generated by IcoMoon.io -->
<!DOCTYPE svg PUBLIC "-//W3C//DTD SVG 1.1//EN" "http://www.w3.org/Graphics/SVG/1.1/DTD/svg11.dtd">
<svg version="1.1" xmlns="http://www.w3.org/2000/svg" xmlns:xlink="http://www.w3.org/1999/xlink" width="32" height="32" viewBox="0 0 32 32">
<path fill="#333333" d="M29.333 10h-0.667v-5.333c0-0.736-0.597-1.333-1.333-1.333h-22.667c-0.737 0-1.333 0.597-1.333 1.333v5.333h-0.667c-1.471 0-2.667 1.196-2.667 2.667v10.667c0 1.417 1.114 2.568 2.51 2.651l-0.484 2.421c-0.145 0.722 0.323 1.425 1.046 1.569 0.088 0.018 0.176 0.026 0.263 0.026 0.623 0 1.179-0.439 1.306-1.072l0.585-2.928h21.547l0.585 2.928c0.127 0.634 0.684 1.072 1.307 1.072 0.087 0 0.175-0.009 0.263-0.027 0.722-0.144 1.191-0.847 1.046-1.569l-0.484-2.421c1.396-0.082 2.51-1.233 2.51-2.65v-10.667c0-1.471-1.196-2.667-2.667-2.667zM6 6h20v4h-0.667c-1.471 0-2.667 1.196-2.667 2.667v4h-13.333v-4c0-1.471-1.196-2.667-2.667-2.667h-0.667v-4zM2.667 12.667h4v5.333c0 0.736 0.597 1.333 1.333 1.333h16c0.736 0 1.333-0.597 1.333-1.333v-5.333h4l0.001 10.667h-26.668v-10.667z"></path>
</svg>
