<?xml version="1.0" encoding="utf-8"?>
<!-- Generated by IcoMoon.io -->
<!DOCTYPE svg PUBLIC "-//W3C//DTD SVG 1.1//EN" "http://www.w3.org/Graphics/SVG/1.1/DTD/svg11.dtd">
<svg version="1.1" xmlns="http://www.w3.org/2000/svg" xmlns:xlink="http://www.w3.org/1999/xlink" width="32" height="32" viewBox="0 0 32 32">
<path fill="#333333" d="M3.937 16.029c0 0-0.216 2.414-0.216 2.831 0 0.416 0.216 2.596 0.234 2.746 0.015 0.15 0.049 0.483 0.149 0.483s0.2-0.317 0.216-0.55c0 0 0.232-1.898 0.232-2.748s-0.249-2.797-0.249-2.797-0.033-0.299-0.166-0.299c-0.134 0-0.167 0.2-0.2 0.332z"></path>
<path fill="#333333" d="M2.788 16.463c0 0-0.214 1.978-0.214 2.397 0 0.416 0.214 2.148 0.232 2.297 0.017 0.15 0.050 0.483 0.149 0.483 0.1 0 0.2-0.316 0.217-0.55 0 0 0.232-1.448 0.232-2.298s-0.25-2.364-0.25-2.364-0.032-0.299-0.164-0.299c-0.134 0-0.168 0.199-0.202 0.334z"></path>
<path fill="#333333" d="M1.806 17.373c0 0-0.147 1.075-0.147 1.363 0 0.285 0.147 1.475 0.16 1.576 0.010 0.103 0.032 0.331 0.102 0.331 0.068 0 0.138-0.216 0.149-0.377 0 0 0.16-0.995 0.16-1.578 0-0.582-0.173-1.338-0.173-1.338s-0.024-0.203-0.114-0.203c-0.092-0.001-0.115 0.135-0.136 0.225z"></path>
<path fill="#333333" d="M5.070 15.914c0 0-0.214 2.529-0.214 2.947 0 0.416 0.214 2.73 0.231 2.88 0.017 0.149 0.051 0.483 0.15 0.483s0.2-0.316 0.216-0.55c0 0 0.234-2.031 0.234-2.881s-0.25-2.913-0.25-2.913-0.032-0.299-0.166-0.299-0.166 0.202-0.2 0.334z"></path>
<path fill="#333333" d="M6.234 16.097c0 0-0.216 2.346-0.216 2.763 0 0.416 0.216 2.73 0.234 2.88 0.015 0.149 0.049 0.483 0.149 0.483 0.099 0 0.2-0.316 0.216-0.55 0 0 0.234-2.031 0.234-2.881s-0.25-2.73-0.25-2.73-0.031-0.299-0.164-0.299c-0.135 0-0.168 0.2-0.202 0.334z"></path>
<path fill="#333333" d="M7.4 14.215c0 0-0.214 3.729-0.214 4.146 0 0.416 0.214 3.229 0.231 3.379 0.018 0.149 0.051 0.483 0.15 0.483s0.2-0.316 0.216-0.55c0 0 0.232-2.531 0.232-3.379 0-0.851-0.249-4.114-0.249-4.114s-0.032-0.299-0.167-0.299c-0.131 0.001-0.164 0.2-0.199 0.334z"></path>
<path fill="#333333" d="M8.284 17.761c0 0 0.166-3.53 0.199-3.946 0.033-0.417 0.052-0.966 0.234-0.966 0.185 0 0.299 0.366 0.299 0.949s0.135 3.213 0.135 3.88c0 0.665-0.032 3.179-0.085 3.797-0.050 0.615-0.132 0.765-0.299 0.765s-0.266-0.65-0.284-0.899c-0.017-0.25-0.166-2.698-0.199-3.581z"></path>
<path fill="#333333" d="M9.432 17.628c0 0 0.166-3.944 0.2-4.362 0.032-0.416 0.050-0.966 0.234-0.966s0.299 0.366 0.299 0.947c0 0.583 0.135 3.63 0.135 4.295 0 0.666-0.033 3.364-0.085 3.979-0.050 0.616-0.132 0.685-0.301 0.685-0.166 0-0.266-0.566-0.282-0.817-0.017-0.249-0.166-2.88-0.2-3.762z"></path>
<path fill="#333333" d="M10.681 17.628c0 0 0.085-3.944 0.117-4.362s0.134-1.116 0.317-1.116 0.316 0.533 0.316 1.116c0 0.582 0.118 3.613 0.118 4.278 0 0.666-0.033 3.215-0.085 3.832-0.050 0.615-0.167 0.831-0.334 0.831s-0.282-0.616-0.301-0.865c-0.017-0.249-0.117-2.831-0.149-3.713z"></path>
<path fill="#333333" d="M12.313 12.235c0.266 0 0.332 0.381 0.332 0.565 0 0.182 0.099 3.448 0.099 4.145 0 0.701 0.050 3.63-0.149 4.879 0 0-0.017 0.433-0.282 0.433s-0.332-0.301-0.351-0.449c-0.015-0.149-0.115-4.612-0.115-5.011 0-0.401 0.134-3.548 0.134-3.812-0.001-0.267 0.049-0.749 0.332-0.749z"></path>
<path fill="#333333" d="M13.045 16.796c0 0 0.117-3.014 0.134-3.779 0 0 0.017-0.583 0.301-0.583 0.282 0 0.383 0.367 0.383 0.583 0 0 0.115 2.813 0.115 4.346 0 1.532-0.082 3.962-0.149 4.362s-0.185 0.516-0.349 0.516c-0.166 0-0.349-0.367-0.349-0.685 0-0.316-0.102-3.878-0.085-4.761z"></path>
<path fill="#333333" d="M14.744 11.27c0.25 0 0.351 0.316 0.351 0.548s0.097 3.446 0.097 4.629-0.032 4.746-0.132 5.279c-0.099 0.533-0.2 0.533-0.317 0.533s-0.416-0.184-0.416-0.65-0.085-4.196-0.085-5.345c0-1.149 0.1-4.145 0.1-4.345 0.003-0.2 0.12-0.648 0.402-0.648z"></path>
<path fill="#333333" d="M16.426 17.045c0 0-0.065-4.861-0.065-5.21s0.014-1.216-0.419-1.216c-0.434 0-0.448 0.966-0.448 1.298s-0.117 4.363-0.117 5.626c0 1.266 0.149 3.88 0.149 4.147 0 0.264 0.117 0.532 0.399 0.532 0.284 0 0.416-0.232 0.416-0.616 0-0.383 0.117-3.677 0.085-4.561z"></path>
<path fill="#333333" d="M16.643 10.535v11.272c0 0 0.015 0.483 0.481 0.483s10.006 0 10.006 0 3.212-0.416 3.212-3.695c0-3.279-3.578-3.847-4.927-3.165 0 0 0.015-3.112-3.080-4.861-3.098-1.747-5.678-0.249-5.693-0.033z"></path>
</svg>
