<?xml version="1.0" encoding="utf-8"?>
<!-- Generated by IcoMoon.io -->
<!DOCTYPE svg PUBLIC "-//W3C//DTD SVG 1.1//EN" "http://www.w3.org/Graphics/SVG/1.1/DTD/svg11.dtd">
<svg version="1.1" xmlns="http://www.w3.org/2000/svg" xmlns:xlink="http://www.w3.org/1999/xlink" width="32" height="32" viewBox="0 0 32 32">
<path fill="#333333" d="M24 0h-16c-2.209 0-4 1.791-4 4v24c0 2.209 1.792 4 4 4h16c2.209 0 4-1.791 4-3.999v-24.001c0-2.209-1.791-4-4-4zM25.333 28c0 0.736-0.597 1.333-1.333 1.333h-16c-0.736 0-1.333-0.597-1.333-1.333v-24.001c0-0.736 0.597-1.333 1.333-1.333h16c0.737 0 1.333 0.597 1.333 1.333v24z"></path>
<path fill="#333333" d="M16 13.333c2.389 0 4.333-1.944 4.333-4.333s-1.944-4.333-4.333-4.333-4.333 1.944-4.333 4.333 1.944 4.333 4.333 4.333zM16 7.333c0.919 0 1.667 0.748 1.667 1.667s-0.748 1.667-1.667 1.667-1.667-0.748-1.667-1.667 0.748-1.667 1.667-1.667z"></path>
<path fill="#333333" d="M15.973 15.333c-3.308 0-6 2.691-6 5.999s2.692 6 6 6 6-2.692 6-6c0-3.307-2.692-5.999-6-5.999zM15.973 24.667c-1.838 0-3.333-1.495-3.333-3.333s1.495-3.333 3.333-3.333 3.333 1.495 3.333 3.333c0 1.837-1.495 3.333-3.333 3.333z"></path>
</svg>
