<?xml version="1.0" encoding="utf-8"?>
<!-- Generated by IcoMoon.io -->
<!DOCTYPE svg PUBLIC "-//W3C//DTD SVG 1.1//EN" "http://www.w3.org/Graphics/SVG/1.1/DTD/svg11.dtd">
<svg version="1.1" xmlns="http://www.w3.org/2000/svg" xmlns:xlink="http://www.w3.org/1999/xlink" width="32" height="32" viewBox="0 0 32 32">
<path fill="#333333" d="M16 9.333c-0.733 0-1.333-0.6-1.333-1.333v-5.333c0-0.733 0.6-1.333 1.333-1.333s1.333 0.6 1.333 1.333v5.333c0 0.733-0.6 1.333-1.333 1.333z"></path>
<path fill="#333333" d="M16 30.667c-0.4 0-0.667-0.267-0.667-0.667v-6.667c0-0.4 0.267-0.667 0.667-0.667s0.667 0.267 0.667 0.667v6.667c0 0.4-0.267 0.667-0.667 0.667z"></path>
<path fill="#333333" d="M21.8 11.733c-0.4 0-0.8-0.133-1.067-0.467-0.6-0.6-0.6-1.533 0-2.133l3.533-3.533c0.6-0.6 1.533-0.6 2.133 0s0.6 1.533 0 2.133l-3.533 3.533c-0.333 0.333-0.733 0.467-1.067 0.467z"></path>
<path fill="#333333" d="M6.2 26.6c-0.2 0-0.4-0.067-0.6-0.267-0.333-0.333-0.333-0.867 0-1.2l4.467-4.467c0.333-0.333 0.867-0.333 1.2 0s0.333 0.867 0 1.2l-4.467 4.467c-0.133 0.2-0.333 0.267-0.6 0.267z"></path>
<path fill="#333333" d="M8.333 17h-6c-0.533 0-1-0.467-1-1s0.467-1 1-1h6c0.533 0 1 0.467 1 1s-0.467 1-1 1z"></path>
<path fill="#333333" d="M30.333 16.333h-7.333c-0.2 0-0.333-0.133-0.333-0.333s0.133-0.333 0.333-0.333h7.333c0.2 0 0.333 0.133 0.333 0.333s-0.133 0.333-0.333 0.333z"></path>
<path fill="#333333" d="M10.467 11.6c-0.267 0-0.6-0.133-0.8-0.333l-4-4c-0.467-0.467-0.467-1.2 0-1.667s1.2-0.467 1.667 0l4 4c0.467 0.467 0.467 1.2 0 1.667-0.267 0.267-0.6 0.333-0.867 0.333z"></path>
<path fill="#333333" d="M26 26.533c-0.133 0-0.267-0.067-0.333-0.133l-4.933-4.933c-0.2-0.2-0.2-0.533 0-0.733s0.533-0.2 0.733 0l4.933 4.933c0.2 0.2 0.2 0.533 0 0.733-0.133 0.067-0.267 0.133-0.4 0.133z"></path>
</svg>
