<?xml version="1.0" encoding="utf-8"?>
<!-- Generated by IcoMoon.io -->
<!DOCTYPE svg PUBLIC "-//W3C//DTD SVG 1.1//EN" "http://www.w3.org/Graphics/SVG/1.1/DTD/svg11.dtd">
<svg version="1.1" xmlns="http://www.w3.org/2000/svg" xmlns:xlink="http://www.w3.org/1999/xlink" width="32" height="32" viewBox="0 0 32 32">
<path fill="#333333" d="M16 8c-0.733 0-1.333-0.6-1.333-1.333v-4c0-0.733 0.6-1.333 1.333-1.333s1.333 0.6 1.333 1.333v4c0 0.733-0.6 1.333-1.333 1.333z"></path>
<path fill="#333333" d="M20.667 9.267c-0.2 0-0.467-0.067-0.667-0.2-0.667-0.4-0.867-1.2-0.467-1.8l2-3.467c0.4-0.667 1.2-0.867 1.8-0.467 0.667 0.4 0.867 1.2 0.467 1.8l-2 3.467c-0.2 0.4-0.667 0.667-1.133 0.667z"></path>
<path fill="#333333" d="M24.067 12.667c-0.467 0-0.933-0.267-1.133-0.667-0.4-0.667-0.133-1.467 0.467-1.8l3.467-2c0.667-0.4 1.467-0.133 1.8 0.467 0.4 0.667 0.133 1.467-0.467 1.8l-3.467 2c-0.2 0.133-0.4 0.2-0.667 0.2z"></path>
<path fill="#333333" d="M11.333 9.267c-0.467 0-0.933-0.267-1.133-0.667l-2-3.467c-0.4-0.667-0.2-1.467 0.467-1.8 0.667-0.4 1.467-0.133 1.8 0.467l2 3.467c0.4 0.667 0.133 1.467-0.467 1.8-0.2 0.133-0.467 0.2-0.667 0.2z"></path>
<path fill="#333333" d="M7.933 12.667c-0.2 0-0.467-0.067-0.667-0.2l-3.467-2c-0.667-0.333-0.867-1.133-0.467-1.8s1.2-0.867 1.8-0.467l3.467 2c0.667 0.4 0.867 1.2 0.467 1.8-0.2 0.4-0.667 0.667-1.133 0.667z"></path>
<path fill="#333333" d="M16 30.667c-0.733 0-1.333-0.6-1.333-1.333v-4c0-0.733 0.6-1.333 1.333-1.333s1.333 0.6 1.333 1.333v4c0 0.733-0.6 1.333-1.333 1.333z"></path>
<path fill="#333333" d="M22.667 28.867c-0.467 0-0.933-0.267-1.133-0.667l-2-3.467c-0.4-0.667-0.133-1.467 0.467-1.8 0.667-0.4 1.467-0.133 1.8 0.467l2 3.467c0.4 0.667 0.133 1.467-0.467 1.8-0.2 0.133-0.467 0.2-0.667 0.2z"></path>
<path fill="#333333" d="M27.533 24c-0.2 0-0.467-0.067-0.667-0.2l-3.467-2c-0.667-0.4-0.867-1.2-0.467-1.8 0.4-0.667 1.2-0.867 1.8-0.467l3.467 2c0.667 0.4 0.867 1.2 0.467 1.8-0.2 0.4-0.667 0.667-1.133 0.667z"></path>
<path fill="#333333" d="M9.333 28.867c-0.2 0-0.467-0.067-0.667-0.2-0.667-0.4-0.867-1.2-0.467-1.8l2-3.467c0.4-0.667 1.2-0.867 1.8-0.467 0.667 0.4 0.867 1.2 0.467 1.8l-2 3.467c-0.2 0.467-0.667 0.667-1.133 0.667z"></path>
<path fill="#333333" d="M4.467 24c-0.467 0-0.933-0.267-1.133-0.667-0.4-0.667-0.133-1.467 0.467-1.8l3.467-2c0.667-0.4 1.467-0.133 1.8 0.467 0.4 0.667 0.133 1.467-0.467 1.8l-3.467 2c-0.2 0.133-0.467 0.2-0.667 0.2z"></path>
<path fill="#333333" d="M6.667 17.333h-4c-0.733 0-1.333-0.6-1.333-1.333s0.6-1.333 1.333-1.333h4c0.733 0 1.333 0.6 1.333 1.333s-0.6 1.333-1.333 1.333z"></path>
<path fill="#333333" d="M29.333 17.333h-4c-0.733 0-1.333-0.6-1.333-1.333s0.6-1.333 1.333-1.333h4c0.733 0 1.333 0.6 1.333 1.333s-0.6 1.333-1.333 1.333z"></path>
</svg>
