<?xml version="1.0" encoding="utf-8"?>
<!-- Generated by IcoMoon.io -->
<!DOCTYPE svg PUBLIC "-//W3C//DTD SVG 1.1//EN" "http://www.w3.org/Graphics/SVG/1.1/DTD/svg11.dtd">
<svg version="1.1" xmlns="http://www.w3.org/2000/svg" xmlns:xlink="http://www.w3.org/1999/xlink" width="32" height="32" viewBox="0 0 32 32">
<path fill="#333333" d="M16 30.667c-8.067 0-14.667-6.6-14.667-14.667s6.6-14.667 14.667-14.667 14.667 6.6 14.667 14.667-6.6 14.667-14.667 14.667zM16 4c-6.6 0-12 5.4-12 12s5.4 12 12 12 12-5.4 12-12-5.4-12-12-12z"></path>
<path fill="#333333" d="M16 17.333c-0.333 0-0.667-0.133-0.933-0.4-0.533-0.533-0.533-1.333 0-1.867l6.667-6.667c0.533-0.533 1.333-0.533 1.867 0s0.533 1.333 0 1.867l-6.667 6.667c-0.267 0.267-0.6 0.4-0.933 0.4z"></path>
</svg>
