<?xml version="1.0" encoding="utf-8"?>
<!-- Generated by IcoMoon.io -->
<!DOCTYPE svg PUBLIC "-//W3C//DTD SVG 1.1//EN" "http://www.w3.org/Graphics/SVG/1.1/DTD/svg11.dtd">
<svg version="1.1" xmlns="http://www.w3.org/2000/svg" xmlns:xlink="http://www.w3.org/1999/xlink" width="32" height="32" viewBox="0 0 32 32">
<path fill="#333333" d="M18.667 29.333h-12c-0.737 0-1.333-0.597-1.333-1.333v-22.435c-1.553 0.551-2.667 2.027-2.667 3.769v18.667c0 2.209 1.791 4 4 4h13.333c1.741 0 3.217-1.115 3.768-2.667h-5.101z"></path>
<path fill="#333333" d="M25.333 0h-13.333c-2.209 0-4 1.791-4 4v18.667c0 2.209 1.791 4 4 4h13.333c2.209 0 4-1.791 4-4v-18.667c0-2.209-1.791-4-4-4zM26.667 22.667c0 0.737-0.597 1.333-1.333 1.333h-13.333c-0.737 0-1.333-0.597-1.333-1.333v-18.667c0-0.737 0.597-1.333 1.333-1.333h13.333c0.737 0 1.333 0.596 1.333 1.333v18.667z"></path>
</svg>
