<?xml version="1.0" encoding="utf-8"?>
<!-- Generated by IcoMoon.io -->
<!DOCTYPE svg PUBLIC "-//W3C//DTD SVG 1.1//EN" "http://www.w3.org/Graphics/SVG/1.1/DTD/svg11.dtd">
<svg version="1.1" xmlns="http://www.w3.org/2000/svg" xmlns:xlink="http://www.w3.org/1999/xlink" width="32" height="32" viewBox="0 0 32 32">
<path fill="#333333" d="M19.333 1.333h-6.667c-2.48 0-4.563 1.703-5.157 4h2.862c0.462-0.793 1.313-1.333 2.295-1.333h6.667c1.471 0 2.667 1.196 2.667 2.667v13.333c0 1.471-1.196 2.667-2.667 2.667h-6.667c-1.239 0-2.274-0.853-2.572-2h7.239c0.736 0 1.333-0.597 1.333-1.333s-0.597-1.333-1.333-1.333h-8.667c-0.736 0-1.333 0.597-1.333 1.333v0.667c0 2.941 2.393 5.333 5.333 5.333h2v2.667h-2c-1.202 0-2.207 0.801-2.539 1.894-0.075 0.246-0.127 0.502-0.127 0.773h12c0-0.271-0.052-0.527-0.127-0.773-0.334-1.093-1.338-1.894-2.54-1.894h-2v-2.667h2c2.941 0 5.333-2.393 5.333-5.333v-13.333c0-2.941-2.393-5.333-5.333-5.333z"></path>
<path fill="#333333" d="M8.667 10h8.667c0.736 0 1.333-0.597 1.333-1.333s-0.597-1.333-1.333-1.333h-8.667c-0.736 0-1.333 0.597-1.333 1.333s0.597 1.333 1.333 1.333z"></path>
<path fill="#333333" d="M8.667 15.333h8.667c0.736 0 1.333-0.597 1.333-1.333s-0.597-1.333-1.333-1.333h-8.667c-0.736 0-1.333 0.597-1.333 1.333s0.597 1.333 1.333 1.333z"></path>
</svg>
