<?xml version="1.0" encoding="utf-8"?>
<!-- Generated by IcoMoon.io -->
<!DOCTYPE svg PUBLIC "-//W3C//DTD SVG 1.1//EN" "http://www.w3.org/Graphics/SVG/1.1/DTD/svg11.dtd">
<svg version="1.1" xmlns="http://www.w3.org/2000/svg" xmlns:xlink="http://www.w3.org/1999/xlink" width="32" height="32" viewBox="0 0 32 32">
<path fill="#333333" d="M31.279 12.485c-0.146-0.497-0.567-0.864-1.078-0.942l-9.291-1.419-3.699-8.016c-0.218-0.472-0.691-0.775-1.211-0.775s-0.993 0.303-1.211 0.775l-3.699 8.015-9.291 1.419c-0.512 0.078-0.932 0.445-1.078 0.942s0.009 1.033 0.397 1.375l6.757 5.964-1.849 9.247c-0.104 0.52 0.11 1.053 0.545 1.356s1.010 0.319 1.46 0.041l7.968-4.903 7.968 4.903c0.214 0.133 0.457 0.198 0.699 0.198 0.267 0 0.533-0.080 0.762-0.239 0.435-0.303 0.65-0.835 0.545-1.356l-1.849-9.247 6.757-5.964c0.387-0.343 0.543-0.879 0.397-1.375zM21.785 18.333c-0.357 0.315-0.518 0.795-0.425 1.261l1.4 6.999-6.061-3.729c-0.214-0.131-0.457-0.197-0.699-0.197s-0.485 0.066-0.699 0.198l-6.061 3.729 1.4-6.999c0.093-0.466-0.069-0.947-0.425-1.261l-5.195-4.585 7.181-1.097c0.443-0.067 0.821-0.353 1.010-0.759l2.789-6.043 2.789 6.043c0.188 0.407 0.567 0.692 1.010 0.759l7.181 1.097-5.195 4.585z"></path>
</svg>
