<?xml version="1.0" encoding="utf-8"?>
<!-- Generated by IcoMoon.io -->
<!DOCTYPE svg PUBLIC "-//W3C//DTD SVG 1.1//EN" "http://www.w3.org/Graphics/SVG/1.1/DTD/svg11.dtd">
<svg version="1.1" xmlns="http://www.w3.org/2000/svg" xmlns:xlink="http://www.w3.org/1999/xlink" width="32" height="32" viewBox="0 0 32 32">
<path fill="#333333" d="M7.985 5.327c-0.736 0-1.333 0.597-1.333 1.333v18.667c0 0.736 0.597 1.333 1.333 1.333s1.333-0.597 1.333-1.333v-18.667c0-0.737-0.597-1.333-1.333-1.333z"></path>
<path fill="#333333" d="M25.318 6.66c0-0.736-0.597-1.333-1.333-1.333-0.331 0-0.629 0.125-0.862 0.324l-0.001-0.001-0.042 0.036c-0.014 0.013-0.030 0.025-0.044 0.039l-10.588 9.266c-0.281 0.245-0.463 0.601-0.463 1.003 0 0.366 0.148 0.697 0.387 0.939v0l0.001 0.001c0.005 0.005 0.010 0.008 0.015 0.013l10.668 9.335c0.24 0.234 0.567 0.379 0.929 0.379 0.736 0 1.333-0.597 1.333-1.333 0-0.363-0.147-0.693-0.383-0.933v-0.001l-0.003-0.003c-0.013-0.013-0.029-0.024-0.042-0.037l-9.553-8.36 9.586-8.387c0.243-0.242 0.394-0.577 0.394-0.946z"></path>
</svg>
