<?xml version="1.0" encoding="utf-8"?>
<!-- Generated by IcoMoon.io -->
<!DOCTYPE svg PUBLIC "-//W3C//DTD SVG 1.1//EN" "http://www.w3.org/Graphics/SVG/1.1/DTD/svg11.dtd">
<svg version="1.1" xmlns="http://www.w3.org/2000/svg" xmlns:xlink="http://www.w3.org/1999/xlink" width="32" height="32" viewBox="0 0 32 32">
<path fill="#333333" d="M25.985 3.995c-0.372 0-0.707 0.153-0.949 0.397h-0.001l-10.639 10.642c-0.253 0.243-0.411 0.582-0.411 0.96s0.159 0.717 0.411 0.96l-0.001 0.001 10.642 10.642c0.004 0.003 0.007 0.007 0.011 0.011l0.010 0.010 0.001-0.001c0.24 0.232 0.566 0.377 0.927 0.377 0.736 0 1.333-0.597 1.333-1.333v-21.333c-0.001-0.737-0.599-1.333-1.334-1.333zM24.652 23.445l-7.45-7.449 7.45-7.451v14.899z"></path>
<path fill="#333333" d="M7.985 3.995c-2.209 0-4 1.791-4 4v16c0 2.209 1.791 4 4 4s4-1.791 4-4v-16c0-2.209-1.792-4-4-4zM9.319 11.762v12.232c0 0.736-0.597 1.333-1.333 1.333s-1.333-0.597-1.333-1.333v-15.999c0-0.736 0.597-1.333 1.333-1.333s1.333 0.597 1.333 1.333v3.767z"></path>
</svg>
