<?xml version="1.0" encoding="utf-8"?>
<!-- Generated by IcoMoon.io -->
<!DOCTYPE svg PUBLIC "-//W3C//DTD SVG 1.1//EN" "http://www.w3.org/Graphics/SVG/1.1/DTD/svg11.dtd">
<svg version="1.1" xmlns="http://www.w3.org/2000/svg" xmlns:xlink="http://www.w3.org/1999/xlink" width="32" height="32" viewBox="0 0 32 32">
<path fill="#333333" d="M17.573 15.035l0.001-0.001-10.641-10.643c-0.241-0.245-0.577-0.397-0.948-0.397-0.736 0-1.333 0.597-1.333 1.333v21.333c0 0.736 0.597 1.333 1.333 1.333 0.361 0 0.686-0.145 0.927-0.377l0.001 0.001 0.010-0.010c0.004-0.004 0.007-0.007 0.011-0.011l10.641-10.643c0.253-0.243 0.411-0.583 0.411-0.96s-0.16-0.717-0.413-0.959zM7.318 8.545l7.45 7.451-7.45 7.449v-14.9z"></path>
<path fill="#333333" d="M23.985 3.995c-2.209 0-4 1.791-4 4v16c0 2.209 1.792 4 4 4 2.209 0 4-1.791 4-4v-16c0-2.209-1.791-4-4-4zM25.318 11.762v12.232c0 0.736-0.597 1.333-1.333 1.333s-1.333-0.597-1.333-1.333v-15.999c0-0.736 0.597-1.333 1.333-1.333s1.333 0.597 1.333 1.333v3.767z"></path>
</svg>
