<?xml version="1.0" encoding="utf-8"?>
<!-- Generated by IcoMoon.io -->
<!DOCTYPE svg PUBLIC "-//W3C//DTD SVG 1.1//EN" "http://www.w3.org/Graphics/SVG/1.1/DTD/svg11.dtd">
<svg version="1.1" xmlns="http://www.w3.org/2000/svg" xmlns:xlink="http://www.w3.org/1999/xlink" width="32" height="32" viewBox="0 0 32 32">
<path fill="#333333" d="M23.985 5.327c-0.736 0-1.333 0.597-1.333 1.333v18.667c0 0.736 0.597 1.333 1.333 1.333s1.333-0.597 1.333-1.333v-18.667c0-0.737-0.597-1.333-1.333-1.333z"></path>
<path fill="#333333" d="M19.521 14.99l0.003-0.003-10.59-9.263c-0.015-0.015-0.033-0.028-0.049-0.043l-0.037-0.032-0.001 0.001c-0.233-0.199-0.532-0.324-0.863-0.324-0.736 0-1.333 0.597-1.333 1.333 0 0.37 0.151 0.705 0.395 0.946v0l9.585 8.387-9.545 8.355c-0.017 0.015-0.035 0.028-0.051 0.044l-0.001 0.001c-0.236 0.241-0.383 0.569-0.383 0.933 0 0.736 0.597 1.333 1.333 1.333 0.362 0 0.689-0.145 0.929-0.379l0.001 0.001 10.663-9.331c0.007-0.006 0.014-0.011 0.019-0.017l0.001-0.001c0.239-0.241 0.387-0.573 0.387-0.939 0-0.403-0.182-0.759-0.464-1.003z"></path>
</svg>
