<?xml version="1.0" encoding="utf-8"?>
<!-- Generated by IcoMoon.io -->
<!DOCTYPE svg PUBLIC "-//W3C//DTD SVG 1.1//EN" "http://www.w3.org/Graphics/SVG/1.1/DTD/svg11.dtd">
<svg version="1.1" xmlns="http://www.w3.org/2000/svg" xmlns:xlink="http://www.w3.org/1999/xlink" width="32" height="32" viewBox="0 0 32 32">
<path fill="#333333" d="M31.464 14.951l-3.165-2.256 1.613-3.537c0.171-0.375 0.15-0.811-0.057-1.169s-0.575-0.593-0.984-0.631l-3.868-0.371-0.371-3.87c-0.040-0.41-0.276-0.777-0.632-0.983-0.355-0.205-0.796-0.225-1.169-0.056l-3.537 1.613-2.255-3.164c-0.229-0.323-0.618-0.517-1.039-0.517s-0.811 0.193-1.040 0.516l-2.256 3.165-3.537-1.613c-0.37-0.169-0.817-0.147-1.166 0.056-0.357 0.205-0.595 0.573-0.633 0.985l-0.373 3.869-3.867 0.371c-0.411 0.039-0.778 0.275-0.985 0.632-0.207 0.358-0.228 0.795-0.057 1.168l1.613 3.536-3.165 2.255c-0.334 0.239-0.535 0.628-0.535 1.040s0.201 0.801 0.536 1.039l3.165 2.256-1.613 3.537c-0.171 0.375-0.15 0.812 0.057 1.167 0.206 0.357 0.573 0.594 0.984 0.633l3.868 0.371 0.373 3.868c0.039 0.41 0.275 0.778 0.633 0.985 0.353 0.203 0.795 0.225 1.167 0.055l3.537-1.612 2.256 3.164c0.239 0.335 0.627 0.536 1.040 0.536 0.411 0 0.799-0.2 1.039-0.536l2.256-3.165 3.539 1.612c0.37 0.168 0.811 0.148 1.167-0.057 0.357-0.206 0.593-0.573 0.633-0.983l0.371-3.869 3.867-0.371c0.411-0.039 0.778-0.275 0.985-0.633 0.205-0.355 0.227-0.792 0.056-1.168l-1.613-3.537 3.165-2.256c0.333-0.238 0.533-0.626 0.533-1.038s-0.201-0.8-0.536-1.039zM6.461 19.387c0.253-0.554 0.076-1.215-0.421-1.57l-2.564-1.826 2.564-1.828c0.497-0.354 0.674-1.014 0.421-1.569l-1.307-2.864 3.135-0.301c0.606-0.059 1.090-0.542 1.149-1.149l0.301-3.135 2.866 1.307c0.544 0.248 1.221 0.063 1.569-0.421l1.827-2.565 1.827 2.564c0.347 0.485 1.023 0.669 1.571 0.421l2.863-1.307 0.301 3.134c0.058 0.607 0.541 1.089 1.148 1.149l3.135 0.301-1.306 2.864c-0.254 0.555-0.077 1.216 0.421 1.569l2.563 1.828-2.563 1.827c-0.497 0.355-0.675 1.015-0.421 1.569l1.306 2.865-3.135 0.301c-0.606 0.059-1.090 0.542-1.149 1.149l-0.301 3.134-2.863-1.305c-0.545-0.25-1.223-0.066-1.571 0.419l-1.828 2.564-1.827-2.563c-0.239-0.335-0.627-0.536-1.041-0.536-0.185 0-0.363 0.039-0.529 0.115l-2.865 1.306-0.301-3.135c-0.058-0.607-0.541-1.090-1.149-1.149l-3.133-0.301 1.307-2.865z"></path>
</svg>
