<?xml version="1.0" encoding="utf-8"?>
<!-- Generated by IcoMoon.io -->
<!DOCTYPE svg PUBLIC "-//W3C//DTD SVG 1.1//EN" "http://www.w3.org/Graphics/SVG/1.1/DTD/svg11.dtd">
<svg version="1.1" xmlns="http://www.w3.org/2000/svg" xmlns:xlink="http://www.w3.org/1999/xlink" width="32" height="32" viewBox="0 0 32 32">
<path fill="#333333" d="M23.318 4.66h-14.667c-2.209 0-4 1.791-4 4v14.667c0 2.209 1.792 4 4 4h14.667c2.209 0 4-1.791 4-4v-14.667c0-2.209-1.791-4-4-4zM24.651 23.327c0 0.736-0.597 1.333-1.333 1.333h-14.667c-0.736 0-1.333-0.597-1.333-1.333v-14.667c0-0.736 0.597-1.333 1.333-1.333h14.667c0.737 0 1.333 0.597 1.333 1.333v14.667z"></path>
</svg>
