<?xml version="1.0" encoding="utf-8"?>
<!-- Generated by IcoMoon.io -->
<!DOCTYPE svg PUBLIC "-//W3C//DTD SVG 1.1//EN" "http://www.w3.org/Graphics/SVG/1.1/DTD/svg11.dtd">
<svg version="1.1" xmlns="http://www.w3.org/2000/svg" xmlns:xlink="http://www.w3.org/1999/xlink" width="32" height="32" viewBox="0 0 32 32">
<path fill="#333333" d="M28 14.674v-0.001h-11.111c-1.405-1.122-2.695-2.161-3.277-2.666-2.055-1.786-2.946-2.403-2.946-4 0-1.333 1.333-4 5.333-4s5.333 2.618 5.333 4c0 1.382 0 1.333 0 1.333 0 0.736 0.597 1.333 1.333 1.333s1.333-0.597 1.333-1.333c0-0.327 0-0.76 0-1.333 0-4-4-6.667-8-6.667s-8 2.667-8 6.667c0 1.455 0.563 3.014 2 4.466 0.409 0.413 1.375 1.232 2.555 2.2l-8.555 0.001c-0.736 0-1.333 0.597-1.333 1.333s0.597 1.333 1.333 1.333c0.005 0 0.009-0.001 0.013-0.001h11.843c1.847 1.478 3.549 2.829 4.143 3.334 1.111 0.945 1.333 2.111 1.333 3.333 0 2.159-2.459 4-5.333 4s-5.333-1.826-5.333-4c0-0.759 0-1.145 0-1.333 0-0.736-0.597-1.333-1.333-1.333s-1.333 0.597-1.333 1.333c0 0.25 0 0.667 0 1.333 0 2.667 2.542 6.667 8 6.667s8-3.785 8-6.667c0-2.882-0.755-4.239-2.667-5.787-0.305-0.247-0.681-0.549-1.097-0.88h7.75c0.005 0 0.009 0.001 0.013 0.001 0.736 0 1.333-0.597 1.333-1.333s-0.597-1.333-1.333-1.333z"></path>
</svg>
