<?xml version="1.0" encoding="utf-8"?>
<!-- Generated by IcoMoon.io -->
<!DOCTYPE svg PUBLIC "-//W3C//DTD SVG 1.1//EN" "http://www.w3.org/Graphics/SVG/1.1/DTD/svg11.dtd">
<svg version="1.1" xmlns="http://www.w3.org/2000/svg" xmlns:xlink="http://www.w3.org/1999/xlink" width="32" height="32" viewBox="0 0 32 32">
<path fill="#333333" d="M28 2.667h-24c-1.838 0-3.333 1.495-3.333 3.333v18.667c0 1.838 1.495 3.333 3.333 3.333h24c1.838 0 3.333-1.495 3.333-3.333v-18.667c0-1.838-1.495-3.333-3.333-3.333zM28.667 24.667c0 0.367-0.299 0.667-0.667 0.667h-24c-0.368 0-0.667-0.299-0.667-0.667v-18.667c0-0.367 0.299-0.667 0.667-0.667h24c0.368 0 0.667 0.299 0.667 0.667v18.667z"></path>
<path fill="#333333" d="M8.667 28.667h-3.333c-0.736 0-1.333 0.597-1.333 1.333s0.597 1.333 1.333 1.333h3.333c0.736 0 1.333-0.597 1.333-1.333s-0.597-1.333-1.333-1.333z"></path>
<path fill="#333333" d="M26.667 28.667h-3.333c-0.736 0-1.333 0.597-1.333 1.333s0.597 1.333 1.333 1.333h3.333c0.736 0 1.333-0.597 1.333-1.333s-0.597-1.333-1.333-1.333z"></path>
<path fill="#333333" d="M12 8.667c-3.676 0-6.667 2.991-6.667 6.667s2.991 6.667 6.667 6.667 6.667-2.991 6.667-6.667-2.991-6.667-6.667-6.667zM12 19.333c-2.206 0-4-1.794-4-4s1.794-4 4-4c1.738 0 3.216 1.115 3.767 2.667h-3.767c-0.736 0-1.333 0.597-1.333 1.333s0.597 1.333 1.333 1.333h3.767c-0.551 1.551-2.029 2.667-3.767 2.667z"></path>
<path fill="#333333" d="M25.333 8c-0.736 0-1.333 0.597-1.333 1.333v12c0 0.736 0.597 1.333 1.333 1.333s1.333-0.597 1.333-1.333v-12c0-0.736-0.597-1.333-1.333-1.333z"></path>
</svg>
