<?xml version="1.0" encoding="utf-8"?>
<!-- Generated by IcoMoon.io -->
<!DOCTYPE svg PUBLIC "-//W3C//DTD SVG 1.1//EN" "http://www.w3.org/Graphics/SVG/1.1/DTD/svg11.dtd">
<svg version="1.1" xmlns="http://www.w3.org/2000/svg" xmlns:xlink="http://www.w3.org/1999/xlink" width="32" height="32" viewBox="0 0 32 32">
<path fill="#333333" d="M2.14 16.461h4.751v3.996c0 0 0.291 1.34 1.37 1.34s1.516-0.962 1.516-1.194v-9.008c0 0-0.291-2.391 2.244-4.751 2.537-2.36 7.172-1.864 9.068 1.196 0 0 1.11 1.312 1.11 3.441v1.836l-2.887 0.874-1.835-0.905v-1.603c0 0-0.031-1.575-1.606-1.575 0 0-1.34 0.322-1.34 1.545v9.181c0 0-0.32 5.305-5.975 5.684 0 0-4.024 0.438-6.005-3.876 0 0-0.437-1.253-0.437-2.244l0.027-3.937z"></path>
<path fill="#333333" d="M17.503 16.551l1.838 0.843 2.912-0.816v3.935c0 0 0.090 1.399 1.43 1.399s1.398-1.255 1.398-1.255v-4.022h4.812v4.139c0 0-0.292 5.686-6.328 5.89 0 0-3.147 0.233-5.1-2.887 0 0-0.961-1.399-0.961-3.175v-4.050z"></path>
</svg>
