<?xml version="1.0" encoding="utf-8"?>
<!-- Generated by IcoMoon.io -->
<!DOCTYPE svg PUBLIC "-//W3C//DTD SVG 1.1//EN" "http://www.w3.org/Graphics/SVG/1.1/DTD/svg11.dtd">
<svg version="1.1" xmlns="http://www.w3.org/2000/svg" xmlns:xlink="http://www.w3.org/1999/xlink" width="32" height="32" viewBox="0 0 32 32">
<path fill="#333333" d="M10.667 21.667c0 0.92-0.746 1.667-1.667 1.667s-1.667-0.746-1.667-1.667c0-0.92 0.746-1.667 1.667-1.667s1.667 0.746 1.667 1.667z"></path>
<path fill="#333333" d="M24.667 21.667c0 0.92-0.746 1.667-1.667 1.667s-1.667-0.746-1.667-1.667c0-0.92 0.746-1.667 1.667-1.667s1.667 0.746 1.667 1.667z"></path>
<path fill="#333333" d="M26.523 27.612c1.651-0.719 2.81-2.365 2.81-4.279 0-0.051-0.003-0.102-0.009-0.153l-2-17.333c-0.005-0.044-0.013-0.087-0.022-0.131-0.607-2.786-2.296-4.383-4.636-4.383h-13.333c-2.427 0-4.253 1.756-4.658 4.513l-2 17.333c-0.006 0.051-0.009 0.102-0.009 0.153 0 1.913 1.158 3.559 2.809 4.279l-1.834 2.201c-0.471 0.566-0.395 1.406 0.171 1.878 0.25 0.207 0.552 0.309 0.853 0.309 0.382 0 0.761-0.163 1.025-0.48l2.933-3.52h14.751l2.933 3.52c0.264 0.317 0.643 0.48 1.025 0.48 0.301 0 0.603-0.101 0.853-0.309 0.566-0.472 0.642-1.312 0.171-1.878l-1.834-2.201zM9.333 4h13.333c0.415 0 1.513 0 2.017 2.222l1.051 9.111h-19.47l1.055-9.14c0.12-0.819 0.541-2.193 2.014-2.193zM5.957 18h20.085l0.623 5.401c-0.036 1.071-0.919 1.933-1.999 1.933h-17.333c-1.081 0-1.963-0.861-1.999-1.933l0.623-5.401z"></path>
</svg>
