<?xml version="1.0" encoding="utf-8"?>
<!-- Generated by IcoMoon.io -->
<!DOCTYPE svg PUBLIC "-//W3C//DTD SVG 1.1//EN" "http://www.w3.org/Graphics/SVG/1.1/DTD/svg11.dtd">
<svg version="1.1" xmlns="http://www.w3.org/2000/svg" xmlns:xlink="http://www.w3.org/1999/xlink" width="32" height="32" viewBox="0 0 32 32">
<path fill="#333333" d="M24.599 12.367c-1.464-3.463-4.84-5.701-8.599-5.701-5.147 0-9.333 4.187-9.333 9.333s4.187 9.333 9.333 9.333 9.333-4.187 9.333-9.333c0-1.259-0.247-2.482-0.734-3.633zM16 22.667c-3.676 0-6.667-2.991-6.667-6.667s2.991-6.667 6.667-6.667c2.686 0 5.097 1.599 6.143 4.072 0.347 0.821 0.523 1.694 0.523 2.595 0 3.676-2.991 6.667-6.667 6.667z"></path>
<path fill="#333333" d="M16 5.333c0.736 0 1.333-0.597 1.333-1.333v-2.667c0-0.736-0.597-1.333-1.333-1.333s-1.333 0.597-1.333 1.333v2.667c0 0.736 0.597 1.333 1.333 1.333z"></path>
<path fill="#333333" d="M2.632 9.821l2.309 1.333c0.21 0.121 0.439 0.179 0.665 0.179 0.461 0 0.909-0.239 1.156-0.667 0.368-0.638 0.15-1.453-0.488-1.821l-2.309-1.333c-0.638-0.369-1.453-0.15-1.821 0.488s-0.15 1.453 0.488 1.821z"></path>
<path fill="#333333" d="M4.941 20.845l-2.309 1.333c-0.638 0.368-0.856 1.183-0.488 1.821 0.247 0.428 0.695 0.667 1.156 0.667 0.226 0 0.455-0.057 0.665-0.179l2.309-1.333c0.638-0.368 0.856-1.183 0.488-1.821-0.369-0.637-1.184-0.856-1.821-0.487z"></path>
<path fill="#333333" d="M16 26.667c-0.736 0-1.333 0.597-1.333 1.333v2.667c0 0.736 0.597 1.333 1.333 1.333s1.333-0.597 1.333-1.333v-2.667c0-0.736-0.597-1.333-1.333-1.333z"></path>
<path fill="#333333" d="M29.368 22.179l-2.309-1.333c-0.638-0.369-1.453-0.149-1.821 0.488s-0.15 1.453 0.488 1.821l2.309 1.333c0.21 0.121 0.439 0.179 0.665 0.179 0.461 0 0.909-0.239 1.156-0.667 0.368-0.638 0.15-1.453-0.488-1.821z"></path>
<path fill="#333333" d="M26.393 11.333c0.226 0 0.455-0.057 0.665-0.179l2.309-1.333c0.638-0.368 0.856-1.183 0.488-1.821s-1.183-0.857-1.821-0.488l-2.309 1.333c-0.638 0.368-0.856 1.183-0.488 1.821 0.247 0.429 0.695 0.667 1.156 0.667z"></path>
</svg>
