<?xml version="1.0" encoding="utf-8"?>
<!-- Generated by IcoMoon.io -->
<!DOCTYPE svg PUBLIC "-//W3C//DTD SVG 1.1//EN" "http://www.w3.org/Graphics/SVG/1.1/DTD/svg11.dtd">
<svg version="1.1" xmlns="http://www.w3.org/2000/svg" xmlns:xlink="http://www.w3.org/1999/xlink" width="32" height="32" viewBox="0 0 32 32">
<path fill="#333333" d="M16.001 5.333c0.736 0 1.333-0.597 1.333-1.333v-2.667c0-0.736-0.597-1.333-1.333-1.333s-1.333 0.597-1.333 1.333v2.667c0 0.736 0.597 1.333 1.333 1.333z"></path>
<path fill="#333333" d="M30.667 14.667h-5.44c-0.651-4.515-4.534-8-9.227-8s-8.577 3.485-9.227 8h-5.44c-0.736 0-1.333 0.597-1.333 1.333s0.597 1.333 1.333 1.333h29.333c0.736 0 1.333-0.597 1.333-1.333s-0.597-1.333-1.333-1.333zM16.001 9.333c3.219 0 5.913 2.294 6.532 5.333h-13.065c0.619-3.039 3.313-5.333 6.533-5.333z"></path>
<path fill="#333333" d="M6.572 8.458c0.261 0.261 0.602 0.391 0.943 0.391s0.682-0.13 0.943-0.39c0.521-0.521 0.521-1.365 0-1.886l-1.886-1.887c-0.521-0.521-1.365-0.521-1.886 0s-0.521 1.365 0 1.886l1.886 1.886z"></path>
<path fill="#333333" d="M24.486 8.849c0.341 0 0.683-0.13 0.943-0.391l1.885-1.887c0.521-0.521 0.521-1.365 0-1.886s-1.365-0.521-1.886 0l-1.885 1.887c-0.521 0.521-0.521 1.365 0 1.886 0.261 0.261 0.601 0.391 0.943 0.391z"></path>
<path fill="#333333" d="M25.334 19.333h-18.667c-0.736 0-1.333 0.597-1.333 1.333s0.597 1.333 1.333 1.333h18.667c0.736 0 1.333-0.597 1.333-1.333s-0.597-1.333-1.333-1.333z"></path>
<path fill="#333333" d="M22.667 24h-13.333c-0.736 0-1.333 0.597-1.333 1.333s0.597 1.333 1.333 1.333h13.333c0.736 0 1.333-0.597 1.333-1.333s-0.597-1.333-1.333-1.333z"></path>
<path fill="#333333" d="M20.001 28.667h-8c-0.736 0-1.333 0.597-1.333 1.333s0.597 1.333 1.333 1.333h8c0.736 0 1.333-0.597 1.333-1.333s-0.597-1.333-1.333-1.333z"></path>
</svg>
