<?xml version="1.0" encoding="utf-8"?>
<!-- Generated by IcoMoon.io -->
<!DOCTYPE svg PUBLIC "-//W3C//DTD SVG 1.1//EN" "http://www.w3.org/Graphics/SVG/1.1/DTD/svg11.dtd">
<svg version="1.1" xmlns="http://www.w3.org/2000/svg" xmlns:xlink="http://www.w3.org/1999/xlink" width="32" height="32" viewBox="0 0 32 32">
<path fill="#333333" d="M17.333 26c0 0.736-0.597 1.333-1.333 1.333s-1.333-0.597-1.333-1.333c0-0.736 0.597-1.333 1.333-1.333s1.333 0.597 1.333 1.333z"></path>
<path fill="#333333" d="M24 0.667h-16c-2.207 0-4 1.794-4 4v22.667c0 2.206 1.793 4 4 4h16c2.206 0 4-1.794 4-4v-22.667c0-2.206-1.794-4-4-4zM8 3.333h16c0.735 0 1.333 0.599 1.333 1.333v16h-18.667v-16c0-0.735 0.598-1.333 1.333-1.333zM24 28.667h-16c-0.736 0-1.333-0.597-1.333-1.333v-4h18.667v4c0 0.736-0.599 1.333-1.333 1.333z"></path>
</svg>
