<?xml version="1.0" encoding="utf-8"?>
<!-- Generated by IcoMoon.io -->
<!DOCTYPE svg PUBLIC "-//W3C//DTD SVG 1.1//EN" "http://www.w3.org/Graphics/SVG/1.1/DTD/svg11.dtd">
<svg version="1.1" xmlns="http://www.w3.org/2000/svg" xmlns:xlink="http://www.w3.org/1999/xlink" width="32" height="32" viewBox="0 0 32 32">
<path fill="#333333" d="M25.741 4.388c0.247-0.249 0.59-0.39 0.941-0.39 0.355 0.001 0.687 0.139 0.939 0.391 0.522 0.519 0.522 1.366 0.001 1.885l-5.966 5.965 1.885 1.885 5.967-5.965c0.78-0.779 1.16-1.803 1.157-2.827 0-1.023-0.38-2.048-1.159-2.827-0.755-0.755-1.759-1.172-2.825-1.171-1.051-0.001-2.082 0.425-2.828 1.17l-5.97 5.967 1.885 1.884 5.971-5.967z"></path>
<path fill="#333333" d="M29.333 28h-19.677l12.389-12.381-5.656-5.654-13.887 13.879c-0.773 0.775-1.164 1.79-1.169 2.807-0.005 1.030 0.384 2.061 1.169 2.845 0.751 0.755 1.757 1.171 2.827 1.171 0.001 0 0.002 0 0.003 0s0.001 0 0.001 0h24c0.736 0 1.333-0.597 1.333-1.333s-0.597-1.333-1.333-1.333zM4.391 25.729l12.002-11.995 1.883 1.885-12.001 11.993c-0.245 0.243-0.584 0.385-0.931 0.387h-0.011c-0.003 0-0.005 0.001-0.008 0.001-0.356-0.001-0.687-0.137-0.935-0.388-0.522-0.519-0.522-1.365 0-1.883z"></path>
</svg>
