<?xml version="1.0" encoding="utf-8"?>
<!-- Generated by IcoMoon.io -->
<!DOCTYPE svg PUBLIC "-//W3C//DTD SVG 1.1//EN" "http://www.w3.org/Graphics/SVG/1.1/DTD/svg11.dtd">
<svg version="1.1" xmlns="http://www.w3.org/2000/svg" xmlns:xlink="http://www.w3.org/1999/xlink" width="32" height="32" viewBox="0 0 32 32">
<path fill="#333333" d="M16 16.667c-2.206 0-4-1.795-4-4s1.794-4 4-4 4 1.795 4 4-1.794 4-4 4zM16 11.333c-0.735 0-1.333 0.598-1.333 1.333s0.598 1.333 1.333 1.333 1.333-0.598 1.333-1.333-0.598-1.333-1.333-1.333z"></path>
<path fill="#333333" d="M25.319 8.681l-5.999-5.999c-0.871-0.869-2.027-1.349-3.257-1.349-0.022 0-0.042 0.003-0.063 0.003s-0.042-0.003-0.063-0.003c-1.23 0-2.387 0.479-3.257 1.349l-5.999 5.999c-0.869 0.869-1.349 2.026-1.349 3.256v13.458c0 2.539 2.067 4.605 4.605 4.605h12.123c2.539 0 4.605-2.067 4.605-4.605v-13.458c0-1.23-0.478-2.387-1.348-3.256zM24 25.395c0 1.070-0.867 1.938-1.939 1.938h-12.123c-1.070 0-1.939-0.868-1.939-1.938v-13.459c0-0.514 0.205-1.007 0.569-1.371l5.999-5.999c0.363-0.362 0.856-0.567 1.37-0.567 0.021 0 0.042 0.005 0.063 0.006 0.021-0.001 0.041-0.006 0.063-0.006 0.515 0 1.007 0.205 1.371 0.567l5.999 5.999c0.363 0.364 0.567 0.857 0.567 1.371v13.459z"></path>
</svg>
