<?xml version="1.0" encoding="utf-8"?>
<!-- Generated by IcoMoon.io -->
<!DOCTYPE svg PUBLIC "-//W3C//DTD SVG 1.1//EN" "http://www.w3.org/Graphics/SVG/1.1/DTD/svg11.dtd">
<svg version="1.1" xmlns="http://www.w3.org/2000/svg" xmlns:xlink="http://www.w3.org/1999/xlink" width="32" height="32" viewBox="0 0 32 32">
<path fill="#333333" d="M8.001 24.555h18.667c0.736 0 1.333-0.597 1.333-1.333v-20c0-0.736-0.597-1.333-1.333-1.333h-18.667c-2.206 0-4 1.795-4 4v19.445c0 0.063 0.010 0.125 0.019 0.186-0.011 0.122-0.019 0.245-0.019 0.37 0 2.205 1.794 4 4 4h18.667c0.736 0 1.333-0.597 1.333-1.333s-0.597-1.333-1.333-1.333h-18.667c-0.735 0-1.333-0.598-1.333-1.333s0.598-1.334 1.333-1.334zM14.001 4.555h4v6.003l-1.167-0.934c-0.487-0.389-1.179-0.389-1.666 0l-1.167 0.934v-6.003zM6.667 5.889c0-0.735 0.598-1.333 1.333-1.333h3.333v8.778c0 0.513 0.294 0.979 0.756 1.201s1.011 0.159 1.411-0.161l2.5-2 2.5 2c0.241 0.193 0.536 0.293 0.833 0.293 0.196 0 0.393-0.043 0.577-0.132 0.462-0.222 0.756-0.689 0.756-1.201v-8.778h4.667v17.333h-17.333c-0.468 0-0.915 0.085-1.333 0.233v-16.233z"></path>
</svg>
