<?xml version="1.0" encoding="utf-8"?>
<!-- Generated by IcoMoon.io -->
<!DOCTYPE svg PUBLIC "-//W3C//DTD SVG 1.1//EN" "http://www.w3.org/Graphics/SVG/1.1/DTD/svg11.dtd">
<svg version="1.1" xmlns="http://www.w3.org/2000/svg" xmlns:xlink="http://www.w3.org/1999/xlink" width="32" height="32" viewBox="0 0 32 32">
<path fill="#333333" d="M8.897 8.897c-1.069 0-2.073 0.416-2.829 1.172-1.559 1.559-1.559 4.097 0 5.657 0.756 0.755 1.761 1.171 2.829 1.171s2.073-0.416 2.828-1.171c0.756-0.755 1.172-1.76 1.172-2.829s-0.416-2.073-1.172-2.829c-0.755-0.755-1.76-1.171-2.828-1.171zM9.84 13.841c-0.504 0.503-1.382 0.503-1.886 0-0.519-0.52-0.519-1.366 0-1.885 0.252-0.252 0.587-0.391 0.943-0.391s0.691 0.139 0.943 0.391c0.252 0.252 0.391 0.587 0.391 0.943s-0.139 0.691-0.391 0.943z"></path>
<path fill="#333333" d="M24.025 21.339c1.795-1.796 1.795-4.718 0-6.513l-9.516-9.515c-0.87-0.87-2.025-1.35-3.256-1.349h-6.598c-1.23 0.001-2.387 0.479-3.256 1.349-0.015 0.015-0.027 0.031-0.043 0.047s-0.032 0.027-0.046 0.042c-0.87 0.869-1.349 2.027-1.349 3.256v6.598c0 1.23 0.479 2.387 1.349 3.257l9.515 9.516c1.795 1.795 4.718 1.795 6.514 0l6.686-6.687zM15.453 26.14c-0.757 0.757-1.985 0.757-2.741 0.001l-9.517-9.517c-0.363-0.363-0.568-0.857-0.568-1.371v-6.597c0.001-0.513 0.205-1.007 0.568-1.37 0.015-0.015 0.033-0.026 0.048-0.040 0.015-0.015 0.025-0.033 0.040-0.049 0.365-0.364 0.857-0.567 1.371-0.568h6.597c0.515 0 1.008 0.205 1.371 0.568l9.517 9.516c0.757 0.757 0.757 1.984-0.001 2.741l-6.686 6.686z"></path>
<path fill="#333333" d="M31.72 16.511c-0.223-0.615-0.575-1.192-1.067-1.684l-9.516-9.516c-0.87-0.87-2.025-1.35-3.256-1.349h-1.871l12.784 12.783c0.728 0.759 0.721 1.962-0.027 2.709l-0.517 0.517 0.005 0.005-9.117 9.116c1.629 0.589 3.526 0.237 4.829-1.066l6.686-6.687c0.489-0.489 0.84-1.063 1.063-1.673 0.371-1.017 0.372-2.137 0.004-3.155z"></path>
</svg>
