<?xml version="1.0" encoding="utf-8"?>
<!-- Generated by IcoMoon.io -->
<!DOCTYPE svg PUBLIC "-//W3C//DTD SVG 1.1//EN" "http://www.w3.org/Graphics/SVG/1.1/DTD/svg11.dtd">
<svg version="1.1" xmlns="http://www.w3.org/2000/svg" xmlns:xlink="http://www.w3.org/1999/xlink" width="32" height="32" viewBox="0 0 32 32">
<path fill="#333333" d="M30.66 14.674h-1.426c-0.648-6.255-5.645-11.237-11.907-11.863v-1.471c0-0.736-0.597-1.333-1.333-1.333s-1.333 0.597-1.333 1.333v1.471c-6.261 0.625-11.259 5.607-11.907 11.863h-1.426c-0.736 0-1.333 0.597-1.333 1.333s0.597 1.333 1.333 1.333h1.419c0.606 6.301 5.621 11.332 11.915 11.961v1.373c0 0.737 0.597 1.333 1.333 1.333s1.333-0.597 1.333-1.333v-1.373c6.294-0.629 11.308-5.659 11.914-11.961h1.419c0.736 0 1.333-0.597 1.333-1.333s-0.597-1.333-1.333-1.333zM17.327 26.61v-1.269c0-0.736-0.597-1.333-1.333-1.333s-1.333 0.597-1.333 1.333v1.269c-4.82-0.607-8.643-4.442-9.228-9.269h1.228c0.736 0 1.333-0.597 1.333-1.333s-0.597-1.333-1.333-1.333h-1.213c0.624-4.781 4.425-8.569 9.213-9.171v1.171c0 0.737 0.597 1.333 1.333 1.333s1.333-0.597 1.333-1.333v-1.171c4.788 0.601 8.589 4.39 9.212 9.171h-1.212c-0.736 0-1.333 0.597-1.333 1.333s0.597 1.333 1.333 1.333h1.228c-0.585 4.827-4.407 8.663-9.228 9.269z"></path>
</svg>
