<?xml version="1.0" encoding="utf-8"?>
<!-- Generated by IcoMoon.io -->
<!DOCTYPE svg PUBLIC "-//W3C//DTD SVG 1.1//EN" "http://www.w3.org/Graphics/SVG/1.1/DTD/svg11.dtd">
<svg version="1.1" xmlns="http://www.w3.org/2000/svg" xmlns:xlink="http://www.w3.org/1999/xlink" width="32" height="32" viewBox="0 0 32 32">
<path fill="#333333" d="M8 20.667c0 0.92-0.746 1.667-1.667 1.667s-1.667-0.746-1.667-1.667c0-0.92 0.746-1.667 1.667-1.667s1.667 0.746 1.667 1.667z"></path>
<path fill="#333333" d="M27.333 20.667c0 0.92-0.746 1.667-1.667 1.667s-1.667-0.746-1.667-1.667c0-0.92 0.746-1.667 1.667-1.667s1.667 0.746 1.667 1.667z"></path>
<path fill="#333333" d="M28.555 15.019l-0.692-5.798c-0.042-2.477-2.109-4.479-4.644-4.479h-2.554l-0.201-1.879c-0.039-1.636-1.297-2.861-2.958-2.861h-2.855c-1.689 0-3.069 1.275-3.116 2.858l-0.201 1.881h-2.549c-2.535 0-4.602 2.002-4.644 4.479l-0.704 5.801c-2.006 0.767-3.437 2.707-3.437 4.979v1.333c0 2.233 1.381 4.147 3.333 4.941v1.726c0 1.838 1.495 3.333 3.333 3.333h1.333c1.838 0 3.333-1.495 3.333-3.333v-1.333h9.333v1.333c0 1.838 1.495 3.333 3.333 3.333h1.333c1.838 0 3.333-1.495 3.333-3.333v-1.726c1.952-0.793 3.333-2.707 3.333-4.941v-1.333c0.001-2.275-1.435-4.217-3.445-4.981zM14.212 3.083c0.004-0.047 0.007-0.094 0.007-0.141 0-0.141 0.211-0.273 0.433-0.273h2.855c0.195 0 0.275 0.079 0.275 0.273 0 0.047 0.003 0.094 0.007 0.139l0.177 1.66h-3.932l0.177-1.659zM6.825 9.297c0-1.042 0.879-1.889 1.961-1.889h14.433c1.081 0 1.96 0.847 1.96 1.889 0 0.046 0.003 0.093 0.008 0.14l0.623 5.229h-19.627l0.634-5.229c0.003-0.047 0.007-0.093 0.007-0.14zM8.667 28c0 0.367-0.299 0.667-0.667 0.667h-1.333c-0.367 0-0.667-0.299-0.667-0.667v-1.333h2.667v1.333zM25.334 28.667h-1.333c-0.367 0-0.667-0.299-0.667-0.667v-1.333h2.667v1.333c0 0.367-0.299 0.667-0.667 0.667zM29.334 21.333c0 1.471-1.196 2.667-2.667 2.667h-21.333c-1.471 0-2.667-1.196-2.667-2.667v-1.333c0-1.471 1.196-2.667 2.667-2.667h21.333c0.151 0 0.295 0.021 0.439 0.045 0.041 0.007 0.082 0.015 0.124 0.018 1.201 0.259 2.103 1.327 2.103 2.604v1.333z"></path>
</svg>
