<?xml version="1.0" encoding="utf-8"?>
<!-- Generated by IcoMoon.io -->
<!DOCTYPE svg PUBLIC "-//W3C//DTD SVG 1.1//EN" "http://www.w3.org/Graphics/SVG/1.1/DTD/svg11.dtd">
<svg version="1.1" xmlns="http://www.w3.org/2000/svg" xmlns:xlink="http://www.w3.org/1999/xlink" width="32" height="32" viewBox="0 0 32 32">
<path fill="#333333" d="M21.675 3.269c-4.649 0-9.608 3.315-12.699 6.417-5.431 5.45-9.015 13.586-4.048 18.571 0.141 0.141 1.433 1.384 3.367 1.384 0.318 0 0.636-0.035 0.947-0.102 1.713-0.375 4.824-2.724 5.607-5.409 0.47-1.612 0.055-3.168-1.167-4.383-0.039-0.039-0.073-0.071-0.111-0.108-0.004-0.004-0.006-0.008-0.009-0.011-0.004-0.005-0.009-0.007-0.014-0.011-1.036-1.017-1.613-1.443-2.046-1.699 0.225-0.501 0.895-1.546 2.523-3.181 1.561-1.567 2.591-2.231 3.107-2.466 0.245 0.512 0.697 1.19 1.796 2.284 0.889 0.883 1.965 1.349 3.113 1.349 3.449 0 6.43-4.080 6.82-5.875 0.429-1.969-0.655-3.697-1.363-4.407-1.555-1.561-3.514-2.353-5.823-2.353zM12.349 22.725c0.017 0.209 0.007 0.423-0.061 0.659-0.487 1.671-2.818 3.375-3.618 3.55-0.125 0.027-0.251 0.041-0.376 0.041-0.062 0-0.12-0.009-0.179-0.015l4.235-4.235zM19.463 10.939c-0.071-0.193-0.179-0.486-0.45-0.785-0.385-0.425-0.934-0.659-1.546-0.659-1.315 0-3.109 1.131-5.33 3.361-3.443 3.455-3.408 4.919-3.397 5.401 0.013 0.577 0.243 1.097 0.645 1.464 0.235 0.214 0.449 0.327 0.605 0.409 0.127 0.067 0.324 0.173 0.701 0.484l-4.697 4.697c-2.392-4.051 1.411-10.269 4.871-13.74 3.461-3.475 7.603-5.633 10.81-5.633 1.1 0 2.075 0.264 2.918 0.774l-4.807 4.807c-0.215-0.297-0.281-0.465-0.323-0.579zM26.255 9.463c-0.195 0.898-2.386 3.775-4.214 3.775-0.064 0-0.124-0.013-0.185-0.020l4.407-4.406c0.035 0.209 0.040 0.43-0.008 0.651z"></path>
</svg>
