<?xml version="1.0" encoding="utf-8"?>
<!-- Generated by IcoMoon.io -->
<!DOCTYPE svg PUBLIC "-//W3C//DTD SVG 1.1//EN" "http://www.w3.org/Graphics/SVG/1.1/DTD/svg11.dtd">
<svg version="1.1" xmlns="http://www.w3.org/2000/svg" xmlns:xlink="http://www.w3.org/1999/xlink" width="32" height="32" viewBox="0 0 32 32">
<path fill="#333333" d="M16.121 22.020c-0.966 0.94-1.925 1.868-2.878 2.803-0.332 0.327-0.705 0.508-1.182 0.484-0.327-0.015-0.508-0.157-0.609-0.467-0.729-2.258-1.467-4.516-2.193-6.776-0.070-0.216-0.171-0.327-0.393-0.395-1.717-0.526-3.427-1.064-5.14-1.603-0.224-0.072-0.45-0.154-0.652-0.271-0.478-0.285-0.538-0.732-0.107-1.077 0.306-0.244 0.666-0.44 1.028-0.585 2.161-0.85 4.328-1.679 6.494-2.513 5.242-2.022 10.486-4.044 15.728-6.068 1.018-0.394 1.796 0.157 1.693 1.257-0.066 0.703-0.248 1.395-0.395 2.090-1.16 5.478-2.322 10.954-3.486 16.432-0.003 0.021-0.004 0.044-0.010 0.063-0.289 1.228-1.198 1.565-2.224 0.809-1.801-1.325-3.598-2.659-5.401-3.988-0.086-0.064-0.172-0.125-0.273-0.194zM12.099 23.684c0.020-0.004 0.038-0.011 0.059-0.015 0.011-0.051 0.029-0.1 0.032-0.151 0.112-1.23 0.237-2.461 0.332-3.694 0.025-0.299 0.125-0.512 0.352-0.715 3.2-2.876 6.393-5.76 9.589-8.641 0.304-0.274 0.613-0.541 0.903-0.829 0.072-0.070 0.083-0.202 0.121-0.304-0.108-0.034-0.226-0.115-0.321-0.094-0.206 0.046-0.415 0.119-0.597 0.224-0.426 0.248-0.841 0.523-1.258 0.787-3.664 2.311-7.327 4.624-10.995 6.928-0.226 0.14-0.272 0.262-0.182 0.512 0.255 0.729 0.481 1.468 0.724 2.203 0.411 1.264 0.825 2.527 1.241 3.791z"></path>
</svg>
