<?xml version="1.0" encoding="utf-8"?>
<!-- Generated by IcoMoon.io -->
<!DOCTYPE svg PUBLIC "-//W3C//DTD SVG 1.1//EN" "http://www.w3.org/Graphics/SVG/1.1/DTD/svg11.dtd">
<svg version="1.1" xmlns="http://www.w3.org/2000/svg" xmlns:xlink="http://www.w3.org/1999/xlink" width="32" height="32" viewBox="0 0 32 32">
<path fill="#333333" d="M30.667 28h-1.869l-11.285-21.030 2.328-4.339c0.347-0.649 0.104-1.457-0.545-1.805s-1.457-0.105-1.805 0.544l-1.491 2.78-1.491-2.779c-0.348-0.649-1.156-0.893-1.805-0.544s-0.893 1.156-0.545 1.805l2.328 4.339-11.285 21.029h-1.869c-0.736 0-1.333 0.597-1.333 1.333s0.597 1.333 1.333 1.333h2.663c0.001 0 0.002 0 0.003 0s0.001 0 0.003 0h16.665c0.001 0 0.001 0 0.003 0s0.002 0 0.003 0h7.328c0.001 0 0.001 0 0.003 0s0.002 0 0.003 0h2.662c0.736 0 1.333-0.597 1.333-1.333s-0.597-1.333-1.333-1.333zM13.565 28l2.435-4.521 2.435 4.521h-4.869zM21.463 28l-4.289-7.965c-0.232-0.432-0.683-0.701-1.173-0.701s-0.941 0.269-1.174 0.701l-4.289 7.965h-4.309l9.771-18.209 9.771 18.209h-4.309z"></path>
</svg>
