<?xml version="1.0" encoding="utf-8"?>
<!-- Generated by IcoMoon.io -->
<!DOCTYPE svg PUBLIC "-//W3C//DTD SVG 1.1//EN" "http://www.w3.org/Graphics/SVG/1.1/DTD/svg11.dtd">
<svg version="1.1" xmlns="http://www.w3.org/2000/svg" xmlns:xlink="http://www.w3.org/1999/xlink" width="32" height="32" viewBox="0 0 32 32">
<path fill="#333333" d="M17.333 32c-1.966 0-4-1.808-4-4.833 0-1.714 0.765-4.154 1.377-5.833h-8.044v-2.667h12.021l-0.795 1.858c-0.527 1.23-1.893 4.82-1.893 6.642 0 1.267 0.623 2.004 1.154 2.143 0.245-0.341 0.587-1.221 0.824-1.827 0.346-0.886 0.737-1.891 1.278-2.82 0.937-1.611 2.278-3.301 3.46-4.791 0.571-0.72 1.111-1.401 1.539-1.989 0.829-1.139 1.079-1.483 1.079-3.883v-6c0-3.24-2.093-5.333-5.333-5.333h-10.667v-2.667h10.667c4.71 0 8 3.29 8 8v6c0 2.986-0.435 3.866-1.589 5.451-0.461 0.633-1.017 1.335-1.606 2.077-1.127 1.421-2.404 3.030-3.245 4.475-0.436 0.75-0.773 1.613-1.098 2.447-0.681 1.745-1.384 3.549-3.129 3.549z"></path>
<path fill="#333333" d="M8.667 21.333h-2.667c-1.838 0-3.333-1.495-3.333-3.333v-0.667c0-1.838 1.495-3.333 3.333-3.333h2.637v2.667h-2.637c-0.367 0-0.667 0.299-0.667 0.667v0.667c0 0.368 0.299 0.667 0.667 0.667h2.667v2.667z"></path>
<path fill="#333333" d="M8.696 16.667h-2.029c-1.838 0-3.333-1.495-3.333-3.333v-0.667c0-1.838 1.495-3.333 3.333-3.333h2.667v2.667h-2.667c-0.367 0-0.667 0.299-0.667 0.667v0.667c0 0.368 0.299 0.667 0.667 0.667h2.029v2.667z"></path>
<path fill="#333333" d="M9.333 12h-2c-1.838 0-3.333-1.495-3.333-3.333v-0.667c0-1.838 1.495-3.333 3.333-3.333h2.667v2.667h-2.667c-0.367 0-0.667 0.299-0.667 0.667v0.667c0 0.368 0.299 0.667 0.667 0.667h2v2.667z"></path>
<path fill="#333333" d="M10 7.333h-2c-1.838 0-3.333-1.495-3.333-3.333v-0.667c0-1.838 1.495-3.333 3.333-3.333h2.667v2.667h-2.667c-0.367 0-0.667 0.299-0.667 0.667v0.667c0 0.368 0.299 0.667 0.667 0.667h2v2.667z"></path>
</svg>
