<?xml version="1.0" encoding="utf-8"?>
<!-- Generated by IcoMoon.io -->
<!DOCTYPE svg PUBLIC "-//W3C//DTD SVG 1.1//EN" "http://www.w3.org/Graphics/SVG/1.1/DTD/svg11.dtd">
<svg version="1.1" xmlns="http://www.w3.org/2000/svg" xmlns:xlink="http://www.w3.org/1999/xlink" width="32" height="32" viewBox="0 0 32 32">
<path fill="#333333" d="M31.296 14.979c-0.273-3.737-1.985-7.145-4.821-9.595s-6.463-3.647-10.195-3.375c-7.011 0.512-12.439 6.121-12.955 12.927l-0.893-1.295c-0.419-0.606-1.249-0.759-1.855-0.341s-0.759 1.249-0.341 1.855l3.299 4.783c0.238 0.345 0.625 0.559 1.045 0.575 0.018 0.001 0.035 0.001 0.053 0.001 0.4 0 0.78-0.18 1.034-0.491l3.669-4.507c0.465-0.571 0.379-1.411-0.193-1.876s-1.411-0.378-1.876 0.193l-1.311 1.611c0.275-5.649 4.734-10.353 10.518-10.775 3.028-0.219 5.961 0.75 8.258 2.735s3.683 4.743 3.904 7.77c0.455 6.249-4.259 11.703-10.51 12.159-3.148 0.228-6.163-0.815-8.493-2.943-0.544-0.497-1.388-0.459-1.884 0.085s-0.458 1.387 0.085 1.884c2.616 2.388 5.931 3.671 9.431 3.671 0.349 0 0.701-0.013 1.054-0.039 7.719-0.563 13.539-7.297 12.977-15.012z"></path>
<path fill="#333333" d="M17.286 6.812c-0.736 0-1.333 0.597-1.333 1.333v7.732c-0.089 0.435 0.037 0.905 0.383 1.234l4.667 4.444c0.258 0.246 0.589 0.368 0.919 0.368 0.352 0 0.704-0.139 0.966-0.414 0.508-0.533 0.487-1.377-0.046-1.885l-4.222-4.021v-7.458c0-0.736-0.597-1.333-1.333-1.333z"></path>
</svg>
