<?xml version="1.0" encoding="utf-8"?>
<!-- Generated by IcoMoon.io -->
<!DOCTYPE svg PUBLIC "-//W3C//DTD SVG 1.1//EN" "http://www.w3.org/Graphics/SVG/1.1/DTD/svg11.dtd">
<svg version="1.1" xmlns="http://www.w3.org/2000/svg" xmlns:xlink="http://www.w3.org/1999/xlink" width="32" height="32" viewBox="0 0 32 32">
<path fill="#333333" d="M15.081 18.276c0.274 0.274 0.638 0.4 0.997 0.385h7.289c0.737 0 1.334-0.597 1.334-1.333s-0.597-1.333-1.333-1.333h-6.011v-7.995c0-0.736-0.597-1.333-1.333-1.333s-1.333 0.597-1.333 1.333v9.323h0.001c-0.003 0.345 0.127 0.691 0.389 0.953z"></path>
<path fill="#333333" d="M16.025 30.667c8.1 0 14.667-6.567 14.667-14.667s-6.567-14.667-14.667-14.667-14.667 6.567-14.667 14.667 6.567 14.667 14.667 14.667zM16.025 4c6.627 0 12 5.373 12 12s-5.373 12-12 12-11.999-5.373-11.999-12 5.373-12 11.999-12z"></path>
</svg>
