<?xml version="1.0" encoding="utf-8"?>
<!-- Generated by IcoMoon.io -->
<!DOCTYPE svg PUBLIC "-//W3C//DTD SVG 1.1//EN" "http://www.w3.org/Graphics/SVG/1.1/DTD/svg11.dtd">
<svg version="1.1" xmlns="http://www.w3.org/2000/svg" xmlns:xlink="http://www.w3.org/1999/xlink" width="32" height="32" viewBox="0 0 32 32">
<path fill="#333333" d="M26.318 10.235l1.292-1.292c0.521-0.521 0.521-1.365 0-1.885s-1.365-0.521-1.885 0l-1.292 1.292c-2.3-1.883-5.236-3.016-8.433-3.016-7.352 0-13.333 5.981-13.333 13.333s5.981 13.333 13.333 13.333 13.333-5.981 13.333-13.333c0-3.197-1.133-6.133-3.015-8.432zM16 29.333c-5.881 0-10.667-4.785-10.667-10.667s4.785-10.667 10.667-10.667 10.667 4.785 10.667 10.667-4.785 10.667-10.667 10.667z"></path>
<path fill="#333333" d="M16 10c-0.736 0-1.333 0.597-1.333 1.333v7.333c0 0.736 0.597 1.333 1.333 1.333s1.333-0.597 1.333-1.333v-7.333c0-0.736-0.597-1.333-1.333-1.333z"></path>
<path fill="#333333" d="M12.667 4h6.667c0.736 0 1.333-0.597 1.333-1.333s-0.597-1.333-1.333-1.333h-6.667c-0.736 0-1.333 0.597-1.333 1.333s0.597 1.333 1.333 1.333z"></path>
</svg>
