<?xml version="1.0" encoding="utf-8"?>
<!-- Generated by IcoMoon.io -->
<!DOCTYPE svg PUBLIC "-//W3C//DTD SVG 1.1//EN" "http://www.w3.org/Graphics/SVG/1.1/DTD/svg11.dtd">
<svg version="1.1" xmlns="http://www.w3.org/2000/svg" xmlns:xlink="http://www.w3.org/1999/xlink" width="32" height="32" viewBox="0 0 32 32">
<path fill="#333333" d="M31.424 13.3c-0.607-0.418-1.437-0.266-1.855 0.341l-0.893 1.295c-0.517-6.805-5.945-12.415-12.955-12.927-3.736-0.271-7.359 0.925-10.195 3.375s-4.548 5.857-4.821 9.595c-0.563 7.715 5.258 14.449 12.975 15.011 0.353 0.026 0.704 0.039 1.054 0.039 3.5 0 6.815-1.283 9.431-3.671 0.543-0.497 0.582-1.34 0.085-1.884s-1.339-0.582-1.884-0.085c-2.331 2.128-5.346 3.173-8.493 2.943-6.25-0.456-10.965-5.91-10.509-12.159 0.221-3.027 1.607-5.786 3.904-7.77s5.231-2.953 8.258-2.735c5.783 0.422 10.243 5.125 10.518 10.775l-1.311-1.611c-0.465-0.571-1.305-0.657-1.876-0.193s-0.657 1.305-0.193 1.876l3.669 4.507c0.254 0.311 0.634 0.491 1.034 0.491 0.017 0 0.035 0 0.053-0.001 0.419-0.017 0.806-0.23 1.045-0.575l3.299-4.783c0.418-0.605 0.266-1.436-0.34-1.854z"></path>
<path fill="#333333" d="M14.715 6.812c-0.736 0-1.333 0.597-1.333 1.333v7.458l-4.222 4.021c-0.533 0.508-0.554 1.351-0.046 1.885 0.262 0.275 0.613 0.414 0.966 0.414 0.33 0 0.661-0.122 0.919-0.368l4.667-4.444c0.345-0.329 0.472-0.799 0.383-1.234v-7.732c0-0.736-0.597-1.333-1.333-1.333z"></path>
</svg>
