<?xml version="1.0" encoding="utf-8"?>
<!-- Generated by IcoMoon.io -->
<!DOCTYPE svg PUBLIC "-//W3C//DTD SVG 1.1//EN" "http://www.w3.org/Graphics/SVG/1.1/DTD/svg11.dtd">
<svg version="1.1" xmlns="http://www.w3.org/2000/svg" xmlns:xlink="http://www.w3.org/1999/xlink" width="32" height="32" viewBox="0 0 32 32">
<path fill="#333333" d="M0 16.004c0 5.889 4.777 10.667 10.667 10.667h10.667c5.89 0 10.667-4.777 10.667-10.667 0-5.891-4.777-10.667-10.667-10.667h-10.667c-5.89 0-10.667 4.776-10.667 10.667zM2.667 16.004c0-4.419 3.583-8 8-8h10.667c4.417 0 8 3.581 8 8 0 4.417-3.582 8-8 8h-10.667c-4.417 0-8-3.583-8-8zM16 16.004c0 2.945 2.389 5.333 5.333 5.333s5.333-2.389 5.333-5.333c0-2.946-2.388-5.333-5.333-5.333s-5.333 2.387-5.333 5.333zM18.667 16.004c0-1.472 1.195-2.667 2.667-2.667s2.667 1.195 2.667 2.667-1.194 2.667-2.667 2.667-2.667-1.195-2.667-2.667z"></path>
</svg>
