<?xml version="1.0" encoding="utf-8"?>
<!-- Generated by IcoMoon.io -->
<!DOCTYPE svg PUBLIC "-//W3C//DTD SVG 1.1//EN" "http://www.w3.org/Graphics/SVG/1.1/DTD/svg11.dtd">
<svg version="1.1" xmlns="http://www.w3.org/2000/svg" xmlns:xlink="http://www.w3.org/1999/xlink" width="32" height="32" viewBox="0 0 32 32">
<path fill="#333333" d="M24.25 17.836h-16.5c-3.544 0-6.417 2.873-6.417 6.417s2.873 6.417 6.417 6.417h16.5c3.544 0 6.417-2.873 6.417-6.417s-2.873-6.417-6.417-6.417zM18.988 27.919h-11.238c-2.022 0-3.667-1.644-3.667-3.667s1.645-3.667 3.667-3.667h11.238c-0.726 1.040-1.155 2.303-1.155 3.667s0.429 2.627 1.155 3.667zM24.25 27.919c-2.022 0-3.667-1.644-3.667-3.667s1.645-3.667 3.667-3.667 3.667 1.644 3.667 3.667c0 2.023-1.645 3.667-3.667 3.667z"></path>
<path fill="#333333" d="M7.75 14.169h16.5c3.544 0 6.417-2.873 6.417-6.416 0-3.545-2.873-6.417-6.417-6.417h-16.5c-3.544 0-6.417 2.873-6.417 6.417 0 3.543 2.873 6.416 6.417 6.416zM13.012 4.087h11.238c2.022 0 3.667 1.643 3.667 3.667 0 2.021-1.645 3.667-3.667 3.667h-11.238c0.726-1.041 1.155-2.303 1.155-3.667s-0.429-2.627-1.155-3.667zM7.75 4.087c2.022 0 3.667 1.643 3.667 3.667 0 2.021-1.645 3.667-3.667 3.667s-3.667-1.645-3.667-3.667c0-2.023 1.645-3.667 3.667-3.667z"></path>
</svg>
