<?xml version="1.0" encoding="utf-8"?>
<!-- Generated by IcoMoon.io -->
<!DOCTYPE svg PUBLIC "-//W3C//DTD SVG 1.1//EN" "http://www.w3.org/Graphics/SVG/1.1/DTD/svg11.dtd">
<svg version="1.1" xmlns="http://www.w3.org/2000/svg" xmlns:xlink="http://www.w3.org/1999/xlink" width="32" height="32" viewBox="0 0 32 32">
<path fill="#333333" d="M15.333 6c0-2.573-2.093-4.667-4.667-4.667s-4.667 2.093-4.667 4.667 2.093 4.667 4.667 4.667 4.667-2.093 4.667-4.667zM10.667 8c-1.103 0-2-0.897-2-2s0.897-2 2-2 2 0.897 2 2-0.897 2-2 2z"></path>
<path fill="#333333" d="M26.667 6c0-2.573-2.093-4.667-4.667-4.667s-4.667 2.093-4.667 4.667 2.093 4.667 4.667 4.667 4.667-2.093 4.667-4.667zM22 8c-1.103 0-2-0.897-2-2s0.897-2 2-2c1.103 0 2 0.897 2 2s-0.897 2-2 2z"></path>
<path fill="#333333" d="M8 21.333h-3.843l3.702-7.403c0.329-0.659 0.062-1.459-0.597-1.789s-1.459-0.063-1.789 0.596l-4.667 9.333c-0.207 0.413-0.185 0.904 0.059 1.297s0.673 0.632 1.135 0.632h4.667v5.333c0 0.736 0.597 1.333 1.333 1.333s1.333-0.597 1.333-1.333v-6.667c0-0.736-0.597-1.333-1.333-1.333z"></path>
<path fill="#333333" d="M13.333 21.333c-0.736 0-1.333 0.597-1.333 1.333v6.667c0 0.736 0.597 1.333 1.333 1.333s1.333-0.597 1.333-1.333v-6.667c0-0.736-0.597-1.333-1.333-1.333z"></path>
<path fill="#333333" d="M15.859 12.737c-0.33-0.659-1.131-0.925-1.789-0.596s-0.925 1.13-0.597 1.789l4.527 9.052v6.352c0 0.736 0.597 1.333 1.333 1.333s1.333-0.597 1.333-1.333v-6.667c0-0.207-0.048-0.411-0.141-0.597l-4.667-9.333z"></path>
<path fill="#333333" d="M29.93 12.141c-0.658-0.329-1.459-0.063-1.789 0.596l-4.667 9.333c-0.093 0.185-0.141 0.389-0.141 0.597v6.667c0 0.736 0.597 1.333 1.333 1.333s1.333-0.597 1.333-1.333v-6.352l4.526-9.052c0.329-0.659 0.062-1.459-0.596-1.789z"></path>
</svg>
