<?xml version="1.0" encoding="utf-8"?>
<!-- Generated by IcoMoon.io -->
<!DOCTYPE svg PUBLIC "-//W3C//DTD SVG 1.1//EN" "http://www.w3.org/Graphics/SVG/1.1/DTD/svg11.dtd">
<svg version="1.1" xmlns="http://www.w3.org/2000/svg" xmlns:xlink="http://www.w3.org/1999/xlink" width="32" height="32" viewBox="0 0 32 32">
<path fill="#333333" d="M30.667 1.333l-20.001 0.017c-6.124 0.172-10.666 2.682-10.666 5.983v17.333c0 3.738 4.979 6.667 11.333 6.667s11.333-2.929 11.333-6.667v-17.333c0-1.253-0.659-2.391-1.806-3.333h8.473v18.667h-5.333v2.667h6.667c0.736 0 1.333-0.597 1.333-1.333v-21.333c0-0.736-0.597-1.333-1.333-1.333zM11.333 28.667c-5.107 0-8.667-2.108-8.667-4v-13.388c2.046 1.271 5.113 2.055 8.666 2.055s6.621-0.783 8.667-2.055v13.389c0 1.892-3.559 4-8.667 4zM20 7.333c0 1.359-3.376 3.333-8.667 3.333-5.29 0-8.666-1.974-8.666-3.333s3.375-3.333 8.666-3.333c5.291 0 8.667 1.974 8.667 3.333z"></path>
<path fill="#333333" d="M12.333 14.667h2v2.667h-2v-2.667z"></path>
<path fill="#333333" d="M12.348 19.333h2v2.667h-2v-2.667z"></path>
<path fill="#333333" d="M12.348 24h2v2.667h-2v-2.667z"></path>
<path fill="#333333" d="M14.667 7.333c0 0.736-1.492 1.333-3.333 1.333s-3.333-0.597-3.333-1.333c0-0.736 1.492-1.333 3.333-1.333s3.333 0.597 3.333 1.333z"></path>
</svg>
