<?xml version="1.0" encoding="utf-8"?>
<!-- Generated by IcoMoon.io -->
<!DOCTYPE svg PUBLIC "-//W3C//DTD SVG 1.1//EN" "http://www.w3.org/Graphics/SVG/1.1/DTD/svg11.dtd">
<svg version="1.1" xmlns="http://www.w3.org/2000/svg" xmlns:xlink="http://www.w3.org/1999/xlink" width="32" height="32" viewBox="0 0 32 32">
<path fill="#333333" d="M5.333 4h21.333c0.736 0 1.333-0.597 1.333-1.333s-0.597-1.333-1.333-1.333h-21.333c-0.736 0-1.333 0.597-1.333 1.333s0.597 1.333 1.333 1.333z"></path>
<path fill="#333333" d="M25.333 8c0-0.736-0.597-1.333-1.333-1.333h-18.667c-0.736 0-1.333 0.597-1.333 1.333s0.597 1.333 1.333 1.333h18.667c0.737 0 1.333-0.597 1.333-1.333z"></path>
<path fill="#333333" d="M26.667 12h-17.307c-0.736 0-1.333 0.597-1.333 1.333s0.597 1.333 1.333 1.333h17.307c0.736 0 1.333-0.597 1.333-1.333s-0.597-1.333-1.333-1.333z"></path>
<path fill="#333333" d="M22.693 22.667h-9.359c-0.736 0-1.333 0.597-1.333 1.333s0.597 1.333 1.333 1.333h9.359c0.736 0 1.333-0.597 1.333-1.333s-0.597-1.333-1.333-1.333z"></path>
<path fill="#333333" d="M20.026 28h-9.359c-0.736 0-1.333 0.597-1.333 1.333s0.597 1.333 1.333 1.333h9.359c0.736 0 1.333-0.597 1.333-1.333s-0.597-1.333-1.333-1.333z"></path>
<path fill="#333333" d="M26.667 17.333h-13.307c-0.736 0-1.333 0.597-1.333 1.333s0.597 1.333 1.333 1.333h13.307c0.736 0 1.333-0.597 1.333-1.333s-0.597-1.333-1.333-1.333z"></path>
</svg>
