<?xml version="1.0" encoding="utf-8"?>
<!-- Generated by IcoMoon.io -->
<!DOCTYPE svg PUBLIC "-//W3C//DTD SVG 1.1//EN" "http://www.w3.org/Graphics/SVG/1.1/DTD/svg11.dtd">
<svg version="1.1" xmlns="http://www.w3.org/2000/svg" xmlns:xlink="http://www.w3.org/1999/xlink" width="32" height="32" viewBox="0 0 32 32">
<path fill="#333333" d="M18.667 5.333h-18.667v18.667h24c7.221 0 8-3.73 8-5.333 0-4.635-7.063-13.333-13.333-13.333zM24 21.333h-21.333v-6.687h9.333c0.736 0 1.333-0.597 1.333-1.333s-0.597-1.333-1.333-1.333h-9.333v-3.979h16c2.073 0 4.453 1.501 6.44 3.453-0.507 0.25-1.313 0.526-2.44 0.526h-5.333c-0.736 0-1.333 0.597-1.333 1.333s0.597 1.333 1.333 1.333h5.333c2.077 0 3.481-0.661 4.249-1.155 1.451 1.88 2.418 3.843 2.418 5.176 0 2.204-2.901 2.667-5.333 2.667z"></path>
<path fill="#333333" d="M4 25.333h-2.667c-0.736 0-1.333 0.597-1.333 1.333s0.597 1.333 1.333 1.333h2.667c0.736 0 1.333-0.597 1.333-1.333s-0.597-1.333-1.333-1.333z"></path>
<path fill="#333333" d="M12 25.333h-2.667c-0.736 0-1.333 0.597-1.333 1.333s0.597 1.333 1.333 1.333h2.667c0.736 0 1.333-0.597 1.333-1.333s-0.597-1.333-1.333-1.333z"></path>
<path fill="#333333" d="M20 25.333h-2.667c-0.736 0-1.333 0.597-1.333 1.333s0.597 1.333 1.333 1.333h2.667c0.736 0 1.333-0.597 1.333-1.333s-0.597-1.333-1.333-1.333z"></path>
<path fill="#333333" d="M28 25.333h-2.667c-0.736 0-1.333 0.597-1.333 1.333s0.597 1.333 1.333 1.333h2.667c0.736 0 1.333-0.597 1.333-1.333s-0.597-1.333-1.333-1.333z"></path>
</svg>
