<?xml version="1.0" encoding="utf-8"?>
<!-- Generated by IcoMoon.io -->
<!DOCTYPE svg PUBLIC "-//W3C//DTD SVG 1.1//EN" "http://www.w3.org/Graphics/SVG/1.1/DTD/svg11.dtd">
<svg version="1.1" xmlns="http://www.w3.org/2000/svg" xmlns:xlink="http://www.w3.org/1999/xlink" width="32" height="32" viewBox="0 0 32 32">
<path fill="#333333" d="M27.333 4.667h-10.013c0.005-0.043 0.013-0.085 0.013-0.129v-1.819c0-0.736-0.597-1.333-1.333-1.333s-1.333 0.597-1.333 1.333v1.819c0 0.044 0.009 0.086 0.013 0.129h-10.013c-0.736 0-1.333 0.597-1.333 1.333s0.597 1.333 1.333 1.333h22.667c0.736 0 1.333-0.597 1.333-1.333s-0.597-1.333-1.333-1.333z"></path>
<path fill="#333333" d="M26 9.333c-0.736 0-1.333 0.597-1.333 1.333v15.333c0 1.271-0.729 2-2 2h-2v-17.333c0-0.736-0.597-1.333-1.333-1.333s-1.333 0.597-1.333 1.333v17.333h-4v-17.333c0-0.736-0.597-1.333-1.333-1.333s-1.333 0.597-1.333 1.333v17.333h-2c-1.253 0-2-0.729-2-1.949v-15.385c0-0.736-0.597-1.333-1.333-1.333s-1.333 0.597-1.333 1.333v15.385c0 2.674 1.963 4.615 4.667 4.615h13.333c2.747 0 4.667-1.919 4.667-4.667v-15.333c0-0.736-0.597-1.333-1.333-1.333z"></path>
</svg>
