<?xml version="1.0" encoding="utf-8"?>
<!-- Generated by IcoMoon.io -->
<!DOCTYPE svg PUBLIC "-//W3C//DTD SVG 1.1//EN" "http://www.w3.org/Graphics/SVG/1.1/DTD/svg11.dtd">
<svg version="1.1" xmlns="http://www.w3.org/2000/svg" xmlns:xlink="http://www.w3.org/1999/xlink" width="32" height="32" viewBox="0 0 32 32">
<path fill="#333333" d="M23.327 7.651c-0.564-3.854-3.979-6.743-7.948-6.579-4.245 0.179-7.552 3.778-7.373 8.022 0.004 0.113 0.023 0.227 0.033 0.34-3.264 0.721-5.702 3.698-5.702 7.183 0 2.733 1.586 5.261 4.242 6.763 0.023 0.013 0.048 0.017 0.070 0.028 0.065 0.057 0.135 0.108 0.212 0.153 2.105 1.213 4.893 1.977 7.805 2.163v3.879c0 0.736 0.598 1.333 1.333 1.333 0.737 0 1.333-0.597 1.333-1.333v-3.879c4.052-0.258 7.654-1.709 9.874-3.969 0.019-0.017 0.042-0.030 0.060-0.049 0.067-0.068 0.124-0.142 0.186-0.211 0.073-0.079 0.143-0.158 0.212-0.238 0.094-0.112 0.185-0.224 0.273-0.34 0.031-0.041 0.067-0.079 0.097-0.121 0.017-0.023 0.027-0.047 0.043-0.071 1.025-1.425 1.586-3.125 1.586-4.911 0.001-3.891-2.658-7.221-6.335-8.163zM25.831 19.281c-0.073 0.097-0.151 0.193-0.232 0.287-0.048 0.056-0.096 0.111-0.147 0.165-1.701 1.861-4.68 3.073-8.12 3.319v-3.379c0.033-0.014 0.067-0.020 0.098-0.037l5.251-2.713c0.655-0.339 0.911-1.143 0.573-1.797s-1.141-0.911-1.797-0.572l-4.125 2.13v-5.613c0-0.736-0.596-1.333-1.333-1.333-0.735 0-1.333 0.597-1.333 1.333v5.654l-4.203-2.172c-0.656-0.341-1.459-0.081-1.795 0.572-0.339 0.654-0.082 1.459 0.571 1.796l5.251 2.713c0.057 0.029 0.117 0.045 0.176 0.066v3.345c-2.445-0.175-4.751-0.805-6.473-1.797-0.027-0.015-0.055-0.023-0.082-0.037-0.067-0.059-0.139-0.111-0.22-0.155-1.809-1.023-2.888-2.683-2.888-4.441 0-2.441 1.853-4.495 4.215-4.677 0.115-0.009 0.232-0.013 0.349-0.013 0.736 0 1.333-0.597 1.333-1.333 0-0.070-0.011-0.137-0.021-0.205-0.003-0.101-0.014-0.205-0.042-0.307-0.096-0.357-0.153-0.727-0.168-1.099-0.117-2.775 2.047-5.129 4.821-5.246 2.783-0.104 5.129 2.047 5.246 4.822 0.004 0.073 0.017 0.144 0.031 0.214 0.003 0.662 0.492 1.236 1.167 1.317 2.885 0.351 5.061 2.812 5.061 5.724 0.001 1.267-0.41 2.473-1.164 3.468z"></path>
</svg>
