<?xml version="1.0" encoding="utf-8"?>
<!-- Generated by IcoMoon.io -->
<!DOCTYPE svg PUBLIC "-//W3C//DTD SVG 1.1//EN" "http://www.w3.org/Graphics/SVG/1.1/DTD/svg11.dtd">
<svg version="1.1" xmlns="http://www.w3.org/2000/svg" xmlns:xlink="http://www.w3.org/1999/xlink" width="32" height="32" viewBox="0 0 32 32">
<path fill="#333333" d="M26.81 4.287h-21.617c-0.508 0-0.917 0.41-0.917 0.916v21.615c0 0.508 0.41 0.917 0.917 0.917h21.617c0.505 0 0.914-0.41 0.914-0.917v-21.615c0-0.506-0.41-0.916-0.914-0.916zM15.034 22.463c0 0.505-0.411 0.916-0.917 0.916h-7.008c-0.508 0-0.917-0.411-0.917-0.916v-15.395c0-0.506 0.41-0.916 0.917-0.916h7.008c0.506 0 0.917 0.41 0.917 0.916v15.395zM25.808 15.519c0 0.508-0.41 0.919-0.917 0.919h-7.008c-0.506 0-0.917-0.411-0.917-0.919v-8.45c0-0.506 0.411-0.916 0.917-0.916h7.008c0.508 0 0.917 0.41 0.917 0.916v8.45z"></path>
</svg>
