<?xml version="1.0" encoding="utf-8"?>
<!-- Generated by IcoMoon.io -->
<!DOCTYPE svg PUBLIC "-//W3C//DTD SVG 1.1//EN" "http://www.w3.org/Graphics/SVG/1.1/DTD/svg11.dtd">
<svg version="1.1" xmlns="http://www.w3.org/2000/svg" xmlns:xlink="http://www.w3.org/1999/xlink" width="32" height="32" viewBox="0 0 32 32">
<path fill="#333333" d="M5.441 11.089c0.628 0 1.258 0 1.902 0 0-1.565 0-3.122 0-4.685 1.433 0 2.85 0 4.283 0 0 1.555 0 3.11 0 4.676 1.384 0 2.753 0 4.133 0 0 1.057 0 2.103 0 3.158-1.372 0-2.741 0-4.125 0-0.004 0.047-0.008 0.083-0.008 0.121-0.001 1.696-0.006 3.393 0.001 5.088 0.002 0.481 0.073 0.958 0.241 1.414 0.305 0.821 0.909 1.303 1.743 1.52 0.468 0.122 0.948 0.164 1.431 0.157 0.237-0.002 0.473 0 0.723 0 0 0.062 0 0.113 0 0.163-0.001 0.919-0.001 1.839-0.001 2.758 0 0.052 0.005 0.103 0.007 0.155-1.442 0-2.882 0-4.324 0-0.019-0.009-0.035-0.025-0.054-0.028-0.384-0.088-0.771-0.154-1.148-0.268-0.748-0.225-1.394-0.627-1.899-1.231-0.684-0.818-0.963-1.792-0.979-2.829-0.029-2.062-0.014-4.125-0.016-6.186-0.001-0.271-0.001-0.542-0.001-0.825-0.648 0-1.279 0-1.912 0 0.004-1.053 0.004-2.106 0.004-3.159z"></path>
<path fill="#333333" d="M17.144 25.615c0.004-0.556 0.008-1.113 0.007-1.67 0-2.471-0.014-4.944 0.001-7.418 0.006-0.865 0.13-1.719 0.453-2.534 0.453-1.148 1.266-1.928 2.397-2.39 0.664-0.271 1.361-0.408 2.072-0.491 1.053-0.122 2.111-0.068 3.165-0.080 0.393-0.004 0.786 0 1.178 0 0.046 0 0.093 0 0.147 0 0 1.055 0 2.098 0 3.163-0.043 0-0.089 0-0.135 0-0.634 0-1.269-0.012-1.902 0.002-0.559 0.014-1.098 0.123-1.596 0.388-0.721 0.381-1.104 1.012-1.306 1.772-0.12 0.449-0.181 0.911-0.182 1.374-0.004 2.59-0.004 5.179-0.005 7.769 0 0.038 0.004 0.076 0.006 0.115-1.435-0.001-2.868-0.001-4.301-0.001z"></path>
</svg>
