<?xml version="1.0" encoding="utf-8"?>
<!-- Generated by IcoMoon.io -->
<!DOCTYPE svg PUBLIC "-//W3C//DTD SVG 1.1//EN" "http://www.w3.org/Graphics/SVG/1.1/DTD/svg11.dtd">
<svg version="1.1" xmlns="http://www.w3.org/2000/svg" xmlns:xlink="http://www.w3.org/1999/xlink" width="32" height="32" viewBox="0 0 32 32">
<path fill="#333333" d="M24 5.333h-3.401c-0.31-1.519-1.657-2.667-3.266-2.667h-14c-1.838 0-3.333 1.495-3.333 3.333v16.667c0 2.935 2.392 4 4 4h1.335c0.655 1.564 2.2 2.667 3.999 2.667s3.345-1.103 3.999-2.667h4.669c0.655 1.564 2.2 2.667 3.999 2.667s3.345-1.103 3.999-2.667h2.001c2.935 0 4-2.392 4-4v-4c0-2.546-2.667-13.333-8-13.333zM2.667 6c0-0.367 0.299-0.667 0.667-0.667h14c0.368 0 0.667 0.299 0.667 0.667v10.667h-15.333v-10.667zM9.333 26.667c-0.919 0-1.667-0.748-1.667-1.667s0.747-1.667 1.667-1.667 1.667 0.748 1.667 1.667-0.747 1.667-1.667 1.667zM22 26.667c-0.919 0-1.667-0.748-1.667-1.667s0.747-1.667 1.667-1.667 1.667 0.748 1.667 1.667-0.747 1.667-1.667 1.667zM29.333 22.651c-0.015 0.615-0.26 1.349-1.333 1.349h-1.788c-0.453-1.908-2.167-3.333-4.212-3.333s-3.759 1.425-4.212 3.333h-4.242c-0.453-1.908-2.167-3.333-4.212-3.333s-3.759 1.425-4.212 3.333h-1.107c-0.615-0.015-1.349-0.259-1.349-1.333v-3.333h16.667c0.736 0 1.333-0.597 1.333-1.333v-10h3.333c2.621 0 5.333 7.921 5.333 10.667v3.985z"></path>
</svg>
