<?xml version="1.0" encoding="utf-8"?>
<!-- Generated by IcoMoon.io -->
<!DOCTYPE svg PUBLIC "-//W3C//DTD SVG 1.1//EN" "http://www.w3.org/Graphics/SVG/1.1/DTD/svg11.dtd">
<svg version="1.1" xmlns="http://www.w3.org/2000/svg" xmlns:xlink="http://www.w3.org/1999/xlink" width="32" height="32" viewBox="0 0 32 32">
<path fill="#333333" d="M26.667 8.667h-5.614l4.083-6.635c0.386-0.627 0.191-1.449-0.437-1.834-0.626-0.387-1.448-0.191-1.834 0.437l-5.333 8.667c-0.253 0.411-0.264 0.928-0.029 1.349s0.681 0.683 1.164 0.683h8c0.368 0 0.667 0.299 0.667 0.667v12.667c0 0.367-0.299 0.667-0.667 0.667h-21.333c-0.368 0-0.667-0.299-0.667-0.667v-12.667c0-0.367 0.299-0.667 0.667-0.667h8c0.462 0 0.891-0.239 1.134-0.633s0.265-0.884 0.059-1.297l-2.667-5.333c-0.329-0.658-1.129-0.927-1.789-0.597-0.659 0.329-0.926 1.13-0.597 1.789l1.703 3.404h-5.843c-1.838 0-3.333 1.495-3.333 3.333v12.667c0 1.838 1.495 3.333 3.333 3.333h21.333c1.838 0 3.333-1.495 3.333-3.333v-12.667c0-1.838-1.495-3.333-3.333-3.333z"></path>
<path fill="#333333" d="M22.667 29.333h-13.333c-0.736 0-1.333 0.597-1.333 1.333s0.597 1.333 1.333 1.333h13.333c0.736 0 1.333-0.597 1.333-1.333s-0.597-1.333-1.333-1.333z"></path>
</svg>
