<?xml version="1.0" encoding="utf-8"?>
<!-- Generated by IcoMoon.io -->
<!DOCTYPE svg PUBLIC "-//W3C//DTD SVG 1.1//EN" "http://www.w3.org/Graphics/SVG/1.1/DTD/svg11.dtd">
<svg version="1.1" xmlns="http://www.w3.org/2000/svg" xmlns:xlink="http://www.w3.org/1999/xlink" width="32" height="32" viewBox="0 0 32 32">
<path fill="#333333" d="M4.753 6.36c0 0 4.014 5.316 10.983 5.684 0 0-0.942-3.14 1.95-5.542 2.896-2.406 6.476-0.369 7.163 0.539 0 0 2.035-0.319 3.46-1.275 0 0-0.466 1.835-2.183 2.941 0 0 2.011-0.267 2.941-0.807 0 0-0.981 1.569-2.673 2.771 0 0 0.711 6.635-4.991 12.117-5.701 5.481-15.084 4.341-18.468 1.471 0 0 4.598 0.515 7.835-2.244 0 0-3.825-0.073-4.93-3.643 0 0 1.912 0.148 2.244-0.221 0 0-4.122-0.993-4.157-5.298 0 0 1.249 0.626 2.39 0.663 0.001-0.001-3.971-2.872-1.564-7.157z"></path>
</svg>
