<?xml version="1.0" encoding="utf-8"?>
<!-- Generated by IcoMoon.io -->
<!DOCTYPE svg PUBLIC "-//W3C//DTD SVG 1.1//EN" "http://www.w3.org/Graphics/SVG/1.1/DTD/svg11.dtd">
<svg version="1.1" xmlns="http://www.w3.org/2000/svg" xmlns:xlink="http://www.w3.org/1999/xlink" width="32" height="32" viewBox="0 0 32 32">
<path fill="#333333" d="M11.249 4.865c-0.005-0.014-0.013-0.025-0.019-0.039-0.019-0.045-0.041-0.087-0.064-0.129-0.019-0.035-0.038-0.071-0.060-0.105-0.025-0.037-0.053-0.071-0.081-0.105-0.027-0.033-0.053-0.066-0.083-0.095s-0.063-0.057-0.097-0.084c-0.034-0.028-0.067-0.056-0.104-0.081-0.033-0.022-0.069-0.041-0.104-0.060-0.043-0.023-0.086-0.046-0.131-0.065-0.013-0.005-0.024-0.013-0.037-0.019-0.023-0.009-0.047-0.011-0.071-0.019-0.047-0.015-0.095-0.029-0.144-0.038-0.040-0.008-0.080-0.013-0.12-0.017-0.045-0.005-0.089-0.008-0.134-0.008s-0.089 0.003-0.134 0.008c-0.040 0.004-0.079 0.009-0.119 0.017-0.051 0.010-0.1 0.024-0.149 0.040-0.021 0.007-0.043 0.009-0.065 0.017-0.012 0.005-0.022 0.012-0.034 0.017-0.049 0.020-0.096 0.045-0.143 0.071-0.031 0.017-0.063 0.034-0.093 0.053-0.041 0.027-0.077 0.058-0.115 0.089-0.029 0.025-0.060 0.049-0.087 0.075-0.032 0.032-0.060 0.067-0.089 0.103-0.027 0.033-0.053 0.064-0.076 0.099s-0.042 0.071-0.062 0.108c-0.023 0.042-0.045 0.083-0.063 0.127-0.005 0.013-0.014 0.025-0.019 0.039l-8 21.333c-0.259 0.689 0.091 1.458 0.78 1.717 0.153 0.057 0.312 0.084 0.467 0.084 0.54 0 1.048-0.33 1.249-0.865l2.676-7.135h7.829c0.107 0 0.209-0.016 0.308-0.039l2.69 7.174c0.201 0.535 0.709 0.865 1.249 0.865 0.155 0 0.314-0.027 0.468-0.085 0.689-0.259 1.039-1.027 0.78-1.717l-7.999-21.333zM6.924 17.333l3.076-8.203 3.076 8.203h-6.152z"></path>
<path fill="#333333" d="M31.197 26.079c-0.005-0.011-0.53-1.119-0.53-2.745v-5c0-2.389-1.944-4.333-4.333-4.333-0.057 0-0.111 0.010-0.167 0.017-0.055-0.007-0.109-0.017-0.167-0.017h-4c-0.736 0-1.333 0.597-1.333 1.333s0.597 1.333 1.333 1.333h4c0.057 0 0.111-0.010 0.167-0.017 0.055 0.007 0.109 0.017 0.167 0.017 0.919 0 1.667 0.748 1.667 1.667v0.79c-0.607-0.29-1.283-0.457-2-0.457h-2c-2.573 0-4.667 2.093-4.667 4.667s2.093 4.667 4.667 4.667h2c1.022 0 1.965-0.334 2.735-0.894 0.033 0.076 0.061 0.133 0.072 0.157 0.233 0.466 0.701 0.734 1.189 0.734 0.198 0 0.4-0.044 0.59-0.138 0.657-0.323 0.929-1.12 0.611-1.78zM26 25.333h-2c-1.103 0-2-0.897-2-2s0.897-2 2-2h2c1.103 0 2 0.897 2 2s-0.897 2-2 2z"></path>
</svg>
