<?xml version="1.0" encoding="utf-8"?>
<!-- Generated by IcoMoon.io -->
<!DOCTYPE svg PUBLIC "-//W3C//DTD SVG 1.1//EN" "http://www.w3.org/Graphics/SVG/1.1/DTD/svg11.dtd">
<svg version="1.1" xmlns="http://www.w3.org/2000/svg" xmlns:xlink="http://www.w3.org/1999/xlink" width="32" height="32" viewBox="0 0 32 32">
<path fill="#333333" d="M21.793 5.439c-10.199-2.315-15.267 1.813-15.267 1.813-4.067 2.879-2.003 7.635-2.003 7.635 2.189 6.444 6.195 10.073 6.195 10.073 5.195 4.756 9.76 0.752 9.76 0.752 5.819-4.881 7.195-11.889 7.195-11.889 2.004-6.32-5.88-8.384-5.88-8.384zM16.851 7.753h1.375v2.033h-1.375v-2.033zM13.847 7.753h1.376v2.033h-1.376v-2.033zM13.345 22.021h-1c0 0-0.593 0.031-0.657-0.472v-1.312c0 0-0.061-0.517 0.609-0.501h1.205c0 0 0.469-0.063 0.532 0.408l0.015 1.455c0-0.001 0 0.468-0.704 0.423zM19.728 22.021h-1.001c0 0-0.595 0.031-0.656-0.472v-1.312c0 0-0.064-0.517 0.609-0.501h1.205c0 0 0.468-0.063 0.531 0.408l0.016 1.455c0-0.001 0 0.468-0.704 0.423zM19.979 19.079h-7.948c0 0-0.592-0.093-0.657-0.752v-7.351h1.785v7.163h5.756l0.029-7.163h1.752v7.351c0.001 0 0.033 0.659-0.717 0.752zM23.944 12.533h-2.527v-1.144h2.527v1.144z"></path>
</svg>
