<?xml version="1.0" encoding="utf-8"?>
<!-- Generated by IcoMoon.io -->
<!DOCTYPE svg PUBLIC "-//W3C//DTD SVG 1.1//EN" "http://www.w3.org/Graphics/SVG/1.1/DTD/svg11.dtd">
<svg version="1.1" xmlns="http://www.w3.org/2000/svg" xmlns:xlink="http://www.w3.org/1999/xlink" width="32" height="32" viewBox="0 0 32 32">
<path fill="#333333" d="M17.333 3.395v-1.395c0-0.736-0.597-1.333-1.333-1.333s-1.333 0.597-1.333 1.333v1.395c-7.004 0.618-12.627 6.058-13.327 13.14-0.037 0.375 0.086 0.747 0.339 1.027s0.612 0.438 0.988 0.438h12.005v9.369c0 0.006-0.033 0.642-0.385 0.996-0.075 0.075-0.301 0.302-0.944 0.302-1.068 0-1.312-0.709-1.329-1.305-0.008-0.73-0.601-1.319-1.333-1.319-0.736 0-1.333 0.597-1.333 1.333 0 1.591 1.064 3.958 3.995 3.958 1.447 0 2.339-0.591 2.833-1.086 1.137-1.14 1.165-2.711 1.164-2.883v-9.365h11.995c0.376 0 0.735-0.159 0.988-0.438s0.376-0.652 0.339-1.027c-0.7-7.082-6.323-12.522-13.327-13.14zM4.229 15.333c1.216-5.413 6.040-9.333 11.771-9.333s10.555 3.92 11.771 9.333h-23.541z"></path>
</svg>
