<?xml version="1.0" encoding="utf-8"?>
<!-- Generated by IcoMoon.io -->
<!DOCTYPE svg PUBLIC "-//W3C//DTD SVG 1.1//EN" "http://www.w3.org/Graphics/SVG/1.1/DTD/svg11.dtd">
<svg version="1.1" xmlns="http://www.w3.org/2000/svg" xmlns:xlink="http://www.w3.org/1999/xlink" width="32" height="32" viewBox="0 0 32 32">
<path fill="#333333" d="M28 0c-0.736 0-1.333 0.597-1.333 1.333v4.057c-3.719 0.304-6.426 1.91-7.939 4.61h-5.455c-1.513-2.7-4.221-4.306-7.939-4.61v-4.057c0-0.736-0.597-1.333-1.333-1.333s-1.333 0.597-1.333 1.333v10.667c0 3.501 2.683 5.333 5.333 5.333h16c2.651 0 5.333-1.832 5.333-5.333v-10.667c0-0.736-0.597-1.333-1.333-1.333zM17.703 12.667c-0.149 0.631-0.255 1.296-0.313 2h-2.779c-0.057-0.704-0.164-1.369-0.313-2h3.405zM5.333 12v-3.93c3.994 0.39 6.207 2.603 6.597 6.597h-3.93c-1.231 0-2.667-0.698-2.667-2.667zM24 14.667h-3.93c0.39-3.994 2.603-6.207 6.597-6.597v3.93c0 2.538-2.221 2.667-2.667 2.667z"></path>
<path fill="#333333" d="M27.333 18.667h-22.667c-0.736 0-1.333 0.597-1.333 1.333v4c0 0.736 0.597 1.333 1.333 1.333 5.658 0 8 5.594 8.095 5.829 0.202 0.506 0.693 0.838 1.238 0.838h4c0.545 0 1.036-0.332 1.238-0.838 0.023-0.059 2.397-5.829 8.095-5.829 0.736 0 1.333-0.597 1.333-1.333v-4c0-0.736-0.597-1.333-1.333-1.333zM26 22.745c-5.175 0.623-7.889 4.772-8.842 6.588h-2.317c-0.953-1.816-3.667-5.965-8.842-6.588v-1.412h20v1.412z"></path>
</svg>
