<?xml version="1.0" encoding="utf-8"?>
<!-- Generated by IcoMoon.io -->
<!DOCTYPE svg PUBLIC "-//W3C//DTD SVG 1.1//EN" "http://www.w3.org/Graphics/SVG/1.1/DTD/svg11.dtd">
<svg version="1.1" xmlns="http://www.w3.org/2000/svg" xmlns:xlink="http://www.w3.org/1999/xlink" width="32" height="32" viewBox="0 0 32 32">
<path fill="#333333" d="M15.989 1.575c-4.572 0-8.82 2.126-11.576 5.665l0.521-4.688c0.081-0.732-0.446-1.391-1.178-1.473-0.728-0.083-1.391 0.446-1.472 1.177l-0.943 8.485c-0.045 0.403 0.096 0.804 0.383 1.090 0.251 0.252 0.591 0.391 0.943 0.391 0.049 0 0.098-0.003 0.147-0.008l8.485-0.943c0.732-0.081 1.259-0.741 1.178-1.473s-0.743-1.259-1.472-1.178l-4.699 0.523c2.247-3.058 5.827-4.901 9.683-4.901 6.623 0 12.011 5.388 12.011 12.010s-5.388 12.011-12.011 12.011c-3.814 0-7.317-1.751-9.61-4.805-0.442-0.589-1.278-0.708-1.867-0.265s-0.707 1.278-0.265 1.867c2.801 3.731 7.081 5.87 11.742 5.87 8.093 0 14.677-6.584 14.677-14.677s-6.584-14.677-14.677-14.677z"></path>
</svg>
