<?xml version="1.0" encoding="utf-8"?>
<!-- Generated by IcoMoon.io -->
<!DOCTYPE svg PUBLIC "-//W3C//DTD SVG 1.1//EN" "http://www.w3.org/Graphics/SVG/1.1/DTD/svg11.dtd">
<svg version="1.1" xmlns="http://www.w3.org/2000/svg" xmlns:xlink="http://www.w3.org/1999/xlink" width="32" height="32" viewBox="0 0 32 32">
<path fill="#333333" d="M26 2h-20c-2.209 0-4 1.791-4 4v20c0 2.209 1.791 4 4 4h20c2.209 0 4-1.792 4-4v-20c0-2.209-1.791-4-4-4zM27.333 26c0 0.736-0.597 1.333-1.333 1.333h-20c-0.736 0-1.333-0.597-1.333-1.333v-20c0-0.737 0.597-1.333 1.333-1.333h20c0.736 0 1.333 0.597 1.333 1.333v20z"></path>
<path fill="#333333" d="M16.197 7c-1.575 0-2.871 0.425-3.891 1.273s-1.515 1.977-1.489 3.385l0.039 0.079h2.467c0-0.84 0.28-1.476 0.839-1.909s1.238-0.649 2.034-0.649c0.918 0 1.625 0.249 2.119 0.748s0.741 1.211 0.741 2.139c0 0.779-0.184 1.443-0.551 1.994s-0.985 1.339-1.85 2.362c-0.892 0.805-1.443 1.452-1.653 1.942s-0.319 1.369-0.328 2.637h2.585c0-0.796 0.050-1.382 0.151-1.758s0.387-0.8 0.86-1.273c1.015-0.98 1.831-1.937 2.447-2.873s0.925-1.969 0.925-3.097c0-1.575-0.477-2.801-1.43-3.681s-2.293-1.319-4.016-1.319z"></path>
<path fill="#333333" d="M14.667 22.333h2.667v2.667h-2.667v-2.667z"></path>
</svg>
