<?xml version="1.0" encoding="utf-8"?>
<!-- Generated by IcoMoon.io -->
<!DOCTYPE svg PUBLIC "-//W3C//DTD SVG 1.1//EN" "http://www.w3.org/Graphics/SVG/1.1/DTD/svg11.dtd">
<svg version="1.1" xmlns="http://www.w3.org/2000/svg" xmlns:xlink="http://www.w3.org/1999/xlink" width="32" height="32" viewBox="0 0 32 32">
<path fill="#333333" d="M12.333 10.323c0.24 0.225 0.56 0.363 0.915 0.363 0.34 0 0.647-0.13 0.883-0.338l0.559-0.559 4.413-4.408c0.945-0.853 2.192-1.375 3.564-1.375 2.945 0 5.333 2.388 5.333 5.333 0 1.457-0.585 2.775-1.532 3.738l-4.777 4.777c-0.225 0.239-0.365 0.559-0.365 0.913 0 0.352 0.139 0.67 0.36 0.909l0.071 0.071c0.239 0.221 0.556 0.359 0.908 0.359 0.333 0 0.634-0.125 0.869-0.327l0.144-0.143 4.649-4.646c0.001-0.001 0.001-0.001 0.003-0.003 1.444-1.447 2.337-3.443 2.337-5.649 0-4.419-3.581-8-8-8-2.155 0-4.106 0.855-5.544 2.24l-0.005-0.003-0.082 0.083-0.050 0.049-4.703 4.703c-0.233 0.242-0.378 0.569-0.378 0.932 0 0.354 0.14 0.675 0.364 0.915l0.064 0.064z"></path>
<path fill="#333333" d="M19.673 21.707c-0.239-0.226-0.561-0.367-0.917-0.367-0.359 0-0.683 0.143-0.924 0.373l-4.796 4.794c-0.959 0.927-2.263 1.5-3.703 1.5-2.945 0-5.333-2.388-5.333-5.333 0-1.37 0.521-2.614 1.37-3.559l4.959-4.96c0.214-0.239 0.348-0.55 0.348-0.896 0-0.344-0.133-0.654-0.345-0.891l-0.107-0.107c-0.237-0.211-0.547-0.344-0.891-0.344-0.364 0-0.693 0.145-0.935 0.381l-0.027 0.027-4.717 4.717c-1.434 1.447-2.321 3.435-2.321 5.634 0 4.419 3.581 8 8 8 2.087 0 3.981-0.805 5.405-2.114l0.006 0.007 0.135-0.135 0.21-0.209 4.689-4.686c0.195-0.233 0.317-0.529 0.317-0.855 0-0.355-0.141-0.677-0.367-0.917l-0.055-0.057z"></path>
<path fill="#333333" d="M8.735 7.088c0.186 0.559 0.706 0.912 1.265 0.912 0.14 0 0.282-0.023 0.422-0.069 0.699-0.233 1.076-0.988 0.843-1.687l-1.333-4c-0.233-0.699-0.99-1.075-1.687-0.843-0.699 0.233-1.076 0.988-0.843 1.687l1.333 4.001z"></path>
<path fill="#333333" d="M2.243 9.927l4 1.34c0.141 0.047 0.283 0.069 0.424 0.069 0.557 0 1.077-0.353 1.264-0.91 0.234-0.699-0.143-1.454-0.841-1.688l-4-1.341c-0.697-0.233-1.454 0.143-1.688 0.841s0.143 1.455 0.841 1.689z"></path>
<path fill="#333333" d="M23.265 24.915c-0.233-0.698-0.99-1.075-1.687-0.843-0.699 0.233-1.076 0.987-0.843 1.687l1.333 4c0.186 0.559 0.707 0.912 1.265 0.912 0.14 0 0.282-0.022 0.422-0.069 0.699-0.233 1.076-0.988 0.843-1.687l-1.333-4.001z"></path>
<path fill="#333333" d="M29.757 22.075l-4-1.341c-0.697-0.234-1.454 0.143-1.688 0.841s0.143 1.454 0.841 1.689l4 1.34c0.141 0.047 0.283 0.069 0.424 0.069 0.557 0 1.077-0.353 1.264-0.91 0.234-0.698-0.143-1.454-0.841-1.688z"></path>
</svg>
