<?xml version="1.0" encoding="utf-8"?>
<!-- Generated by IcoMoon.io -->
<!DOCTYPE svg PUBLIC "-//W3C//DTD SVG 1.1//EN" "http://www.w3.org/Graphics/SVG/1.1/DTD/svg11.dtd">
<svg version="1.1" xmlns="http://www.w3.org/2000/svg" xmlns:xlink="http://www.w3.org/1999/xlink" width="32" height="32" viewBox="0 0 32 32">
<path fill="#333333" d="M16 16.667c-0.736 0-1.333 0.597-1.333 1.333v4c0 0.736 0.597 1.333 1.333 1.333s1.333-0.597 1.333-1.333v-4c0-0.736-0.597-1.333-1.333-1.333z"></path>
<path fill="#333333" d="M24.667 10.060v-4.060c0-2.205-1.794-4-4-4h-11.333c-0.736 0-1.333 0.597-1.333 1.333s0.597 1.333 1.333 1.333h11.333c0.735 0 1.333 0.598 1.333 1.333v4h-14c-2.206 0-4 1.795-4 4v12c0 2.205 1.794 4 4 4h16c2.206 0 4-1.795 4-4v-12c0-1.978-1.445-3.621-3.333-3.94zM25.333 26c0 0.735-0.598 1.333-1.333 1.333h-16c-0.735 0-1.333-0.598-1.333-1.333v-12c0-0.735 0.598-1.333 1.333-1.333h16c0.735 0 1.333 0.598 1.333 1.333v12z"></path>
</svg>
