<?xml version="1.0" encoding="utf-8"?>
<!-- Generated by IcoMoon.io -->
<!DOCTYPE svg PUBLIC "-//W3C//DTD SVG 1.1//EN" "http://www.w3.org/Graphics/SVG/1.1/DTD/svg11.dtd">
<svg version="1.1" xmlns="http://www.w3.org/2000/svg" xmlns:xlink="http://www.w3.org/1999/xlink" width="32" height="32" viewBox="0 0 32 32">
<path fill="#333333" d="M27.333 2.667h-22.667c-2.573 0-4.667 2.093-4.667 4.667v17.333c0 2.573 2.094 4.667 4.667 4.667h22.667c2.573 0 4.667-2.093 4.667-4.667v-17.333c0-2.573-2.094-4.667-4.667-4.667zM29.333 24.667c0 1.103-0.897 2-2 2h-22.667c-1.103 0-2-0.897-2-2v-17.333c0-1.103 0.897-2 2-2h22.667c1.103 0 2 0.897 2 2v17.333z"></path>
<path fill="#333333" d="M14.377 9.333c-0.736 0-1.333 0.597-1.333 1.333v8c0 1.471-1.196 2.667-2.667 2.667s-2.667-1.196-2.667-2.667v-8c0-0.736-0.597-1.333-1.333-1.333s-1.333 0.597-1.333 1.333v8c0 2.941 2.393 5.333 5.333 5.333s5.333-2.393 5.333-5.333v-8c0-0.736-0.597-1.333-1.333-1.333z"></path>
<path fill="#333333" d="M22 9.333h-3.333c-0.736 0-1.333 0.597-1.333 1.333v12c0 0.736 0.597 1.333 1.333 1.333s1.333-0.597 1.333-1.333v-2.667h2c2.941 0 5.333-2.393 5.333-5.333s-2.393-5.333-5.333-5.333zM22 17.333h-2v-5.333h2c1.471 0 2.667 1.196 2.667 2.667s-1.196 2.667-2.667 2.667z"></path>
</svg>
