<?xml version="1.0" encoding="utf-8"?>
<!-- Generated by IcoMoon.io -->
<!DOCTYPE svg PUBLIC "-//W3C//DTD SVG 1.1//EN" "http://www.w3.org/Graphics/SVG/1.1/DTD/svg11.dtd">
<svg version="1.1" xmlns="http://www.w3.org/2000/svg" xmlns:xlink="http://www.w3.org/1999/xlink" width="32" height="32" viewBox="0 0 32 32">
<path fill="#333333" d="M17.329 12.552l3.061 3.059c0.521 0.521 1.365 0.521 1.886 0s0.52-1.365 0-1.885c-0.002-0.002-0.005-0.003-0.007-0.006l-5.299-5.298c-0.009-0.010-0.015-0.021-0.025-0.031-0.521-0.521-1.365-0.521-1.886 0v0 0l-5.328 5.327c-0.003 0.003-0.006 0.004-0.009 0.007-0.52 0.521-0.52 1.365 0 1.885s1.365 0.521 1.886 0v0l0.001 0.001 3.057-3.056v16.751c-0.007 0.35 0.121 0.703 0.388 0.97 0.52 0.521 1.365 0.521 1.885 0 0.267-0.267 0.395-0.62 0.388-0.97v-16.755z"></path>
<path fill="#333333" d="M25.334 1.335h-18.667c-2.209 0-4 1.791-4 4v17.333c0 2.209 1.791 4 4 4h4c0.737 0 1.333-0.597 1.333-1.333s-0.597-1.333-1.333-1.333h-4c-0.736 0-1.333-0.597-1.333-1.333v-17.333c0-0.737 0.597-1.333 1.333-1.333h18.667c0.736 0 1.333 0.597 1.333 1.333v17.333c0 0.736-0.597 1.333-1.333 1.333h-4c-0.736 0-1.333 0.597-1.333 1.333s0.597 1.333 1.333 1.333h4c2.209 0 4-1.791 4-4v-17.333c0-2.209-1.791-4-4-4z"></path>
</svg>
