<?xml version="1.0" encoding="utf-8"?>
<!-- Generated by IcoMoon.io -->
<!DOCTYPE svg PUBLIC "-//W3C//DTD SVG 1.1//EN" "http://www.w3.org/Graphics/SVG/1.1/DTD/svg11.dtd">
<svg version="1.1" xmlns="http://www.w3.org/2000/svg" xmlns:xlink="http://www.w3.org/1999/xlink" width="32" height="32" viewBox="0 0 32 32">
<path fill="#333333" d="M9.331 10.667c0.377 0 0.716-0.158 0.959-0.409l0.001 0.001 4.373-4.375v16.783c0 0.737 0.597 1.333 1.333 1.333s1.333-0.597 1.333-1.333v-16.78l4.375 4.372c0.243 0.251 0.582 0.409 0.959 0.409 0.736 0 1.333-0.597 1.333-1.333 0-0.386-0.167-0.73-0.429-0.973l-6.622-6.628c-0.242-0.246-0.577-0.399-0.949-0.399-0.366 0-0.697 0.149-0.939 0.387v0l-0.003 0.003c0 0-0.001 0.001-0.001 0.001l-6.657 6.658c-0.006 0.006-0.012 0.012-0.018 0.018l-0.019 0.019 0.002 0.001c-0.225 0.239-0.365 0.559-0.365 0.913-0.001 0.736 0.596 1.333 1.333 1.333z"></path>
<path fill="#333333" d="M29.331 22.667c0-0.736-0.597-1.333-1.333-1.333s-1.333 0.597-1.333 1.333v0 4.667c0 0.369-0.299 0.667-0.667 0.667h-20c-0.368 0-0.667-0.298-0.667-0.667v-4.667c0-0.736-0.597-1.333-1.333-1.333s-1.333 0.597-1.333 1.333v0 5.333c0 1.473 1.194 2.667 2.667 2.667h21.333c0.488 0 0.94-0.141 1.333-0.369 0.793-0.463 1.333-1.313 1.333-2.297v-5.333z"></path>
</svg>
