<?xml version="1.0" encoding="utf-8"?>
<!-- Generated by IcoMoon.io -->
<!DOCTYPE svg PUBLIC "-//W3C//DTD SVG 1.1//EN" "http://www.w3.org/Graphics/SVG/1.1/DTD/svg11.dtd">
<svg version="1.1" xmlns="http://www.w3.org/2000/svg" xmlns:xlink="http://www.w3.org/1999/xlink" width="32" height="32" viewBox="0 0 32 32">
<path fill="#333333" d="M24 6.667h-2v-3.333c0-1.838-1.495-3.333-3.333-3.333h-5.333c-1.838 0-3.333 1.495-3.333 3.333v3.333h-2c-0.736 0-1.333 0.597-1.333 1.333v17.333c0 3.676 2.991 6.667 6.667 6.667h5.333c3.676 0 6.667-2.991 6.667-6.667v-17.333c0-0.736-0.597-1.333-1.333-1.333zM12.667 3.333c0-0.367 0.299-0.667 0.667-0.667h5.333c0.368 0 0.667 0.299 0.667 0.667v3.333h-6.667v-3.333zM22.667 25.333c0 2.206-1.794 4-4 4h-5.333c-2.206 0-4-1.794-4-4v-16h13.333v16z"></path>
<path fill="#333333" d="M12.667 14.667h6.667c0.736 0 1.333-0.597 1.333-1.333s-0.597-1.333-1.333-1.333h-6.667c-0.736 0-1.333 0.597-1.333 1.333s0.597 1.333 1.333 1.333z"></path>
</svg>
