<?xml version="1.0" encoding="utf-8"?>
<!-- Generated by IcoMoon.io -->
<!DOCTYPE svg PUBLIC "-//W3C//DTD SVG 1.1//EN" "http://www.w3.org/Graphics/SVG/1.1/DTD/svg11.dtd">
<svg version="1.1" xmlns="http://www.w3.org/2000/svg" xmlns:xlink="http://www.w3.org/1999/xlink" width="32" height="32" viewBox="0 0 32 32">
<path fill="#333333" d="M4.673 3.333c-0.013 0-0.025 0.004-0.039 0.004h0.078c-0.013 0-0.025-0.004-0.039-0.004z"></path>
<path fill="#333333" d="M4.007 6.667l0.001 0.003v-0.003z"></path>
<path fill="#333333" d="M27.273 5.989l-12.625-0.003-2.266-2.166c-0.253-0.317-0.636-0.482-1.041-0.482h-6.706c-1.823 0.021-3.294 1.5-3.294 3.329v19.093c0 1.97 1.525 3.573 3.4 3.573h22.532c1.875 0 3.401-1.603 3.401-3.573v-16.198c0-1.97-1.526-3.573-3.401-3.573zM28.007 25.761c0 0.492-0.336 0.906-0.735 0.906h-22.532c-0.397 0-0.733-0.414-0.733-0.906v-19.091l-0.001-0.003 0.001-0.003c0.002-0.367 0.299-0.663 0.666-0.663h6.027l2.266 2.151c0.253 0.317 0.636 0.501 1.041 0.501h0.867l0.001 0.004h12.397c0.399 0 0.735 0.414 0.735 0.906v16.199z"></path>
<path fill="#333333" d="M4.007 6.663l-0.001 0.003h0.001z"></path>
<path fill="#333333" d="M13.463 13.585v1.524c0 0.129 0.015 0.27 0.033 0.417 0.071 0.495 0.219 1.034 0.48 1.455 0.213 0.333 0.472 0.681 0.543 1.081 0.017 0.111 0.033 0.218 0.030 0.329 0.003 0.183-0.036 0.369-0.131 0.568-0.165 0.264-0.398 0.45-0.788 0.741l-2.255 1.603c-0.486 0.347-0.876 1.109-0.876 1.705v1.659h10.974l0.003-1.656c0-0.598-0.392-1.361-0.877-1.706l-2.265-1.613c-0.381-0.283-0.618-0.47-0.792-0.767-0.083-0.168-0.118-0.349-0.118-0.536 0-0.108 0.009-0.215 0.029-0.306 0.069-0.421 0.335-0.738 0.534-1.081 0.268-0.419 0.42-0.971 0.488-1.475 0.022-0.147 0.035-0.288 0.035-0.417v-1.524c0-0.357-0.103-0.761-0.321-1.133-0.094-0.16-0.227-0.309-0.381-0.453l-0.15-0.138 0.342-0.528h-2.019c-0.703 0-1.234 0.196-1.623 0.488-0.241 0.181-0.433 0.399-0.575 0.633-0.164 0.275-0.262 0.573-0.299 0.854-0.013 0.093-0.020 0.187-0.020 0.277z"></path>
</svg>
