<?xml version="1.0" encoding="utf-8"?>
<!-- Generated by IcoMoon.io -->
<!DOCTYPE svg PUBLIC "-//W3C//DTD SVG 1.1//EN" "http://www.w3.org/Graphics/SVG/1.1/DTD/svg11.dtd">
<svg version="1.1" xmlns="http://www.w3.org/2000/svg" xmlns:xlink="http://www.w3.org/1999/xlink" width="32" height="32" viewBox="0 0 32 32">
<path fill="#333333" d="M16 0c-8.8 0-16 7.2-16 16 0 4.4 1.8 8.467 4.733 11.333 0.8 0.8 1.667 1.467 2.6 2.067 2.467 1.6 5.467 2.533 8.667 2.533v0c3.2 0 6.133-0.933 8.667-2.533 0.933-0.6 1.8-1.333 2.6-2.067 2.933-2.933 4.733-6.933 4.733-11.333 0-8.8-7.2-16-16-16zM16 29.333c-3.067 0-5.867-1.067-8.067-2.733 0.133-0.2 0.333-0.4 0.467-0.533l4.133-2.933c0.733-0.533 1.267-1 1.733-1.733v-0.133c0.267-0.533 0.333-1.067 0.333-1.533 0-0.267 0-0.533-0.067-0.8-0.2-1.133-0.867-1.933-1.2-2.467s-0.6-1.333-0.667-2.133c0-0.2-0.067-0.4-0.067-0.6v-3c0-0.067 0-0.2 0-0.333 0.067-0.333 0.2-0.733 0.4-1.067 0.2-0.267 0.4-0.533 0.667-0.8 0.467-0.333 1.2-0.6 2.267-0.6h3.133l-0.733 0.8c0.2 0.2 0.4 0.4 0.467 0.6 0.267 0.467 0.467 1 0.467 1.4v3c0 0.133 0 0.333-0.067 0.6-0.133 0.8-0.333 1.667-0.733 2.133v0 0c-0.267 0.467-0.867 1.133-1.133 2.267v0c0 0.4 0 0.667 0 1 0 0.533 0.133 1.067 0.333 1.6v0.133c0.467 0.8 1.067 1.2 1.733 1.733l4.133 2.933c0.133 0.067 0.333 0.267 0.467 0.467-2.133 1.667-4.933 2.733-8 2.733zM26.133 24.667c-0.267-0.333-0.533-0.6-0.867-0.867l-4.133-2.933c-0.6-0.467-0.933-0.667-1.067-0.867-0.067-0.067-0.067-0.133-0.067-0.267 0-0.067 0-0.2 0-0.267v-0.067c0-0.2 0.4-0.733 0.8-1.4v0c0.667-1 0.933-2.2 1.067-3.2 0.067-0.333 0.067-0.667 0.067-0.933v-2.933c0-0.933-0.267-1.867-0.8-2.8-0.133-0.2-0.2-0.333-0.333-0.533v-2.267h-4.8c-1.533 0-2.867 0.467-3.8 1.2-0.6 0.467-1.067 1-1.4 1.533-0.4 0.667-0.667 1.4-0.733 2.133 0 0.267-0.067 0.467-0.067 0.667v2.933c0 0.333 0 0.667 0.067 0.933 0.133 1.067 0.467 2.2 1.067 3.2 0.467 0.667 0.8 1.267 0.867 1.533v0.067c0 0.133 0 0.2 0 0.333s0 0.2-0.067 0.333c-0.133 0.2-0.467 0.333-1.067 0.8l-4.067 2.867c-0.333 0.267-0.667 0.533-0.867 0.867-2.067-2.4-3.267-5.4-3.267-8.733 0-7.333 6-13.333 13.333-13.333s13.333 6 13.333 13.333c0 3.333-1.2 6.333-3.2 8.667z"></path>
</svg>
