<?xml version="1.0" encoding="utf-8"?>
<!-- Generated by IcoMoon.io -->
<!DOCTYPE svg PUBLIC "-//W3C//DTD SVG 1.1//EN" "http://www.w3.org/Graphics/SVG/1.1/DTD/svg11.dtd">
<svg version="1.1" xmlns="http://www.w3.org/2000/svg" xmlns:xlink="http://www.w3.org/1999/xlink" width="32" height="32" viewBox="0 0 32 32">
<path fill="#333333" d="M13.52 20.975c-0.567-0.472-1.407-0.395-1.877 0.171l-5.667 6.801-3.639-4.158c-0.486-0.555-1.326-0.611-1.881-0.125-0.554 0.485-0.61 1.327-0.125 1.881l4.667 5.333c0.253 0.289 0.619 0.455 1.003 0.455 0.005 0 0.011 0 0.016 0 0.39-0.005 0.759-0.18 1.008-0.479l6.667-8c0.471-0.566 0.395-1.407-0.171-1.878z"></path>
<path fill="#333333" d="M28.544 19.82l-4.105-2.917c-0.617-0.457-0.923-0.687-1.048-0.877-0.039-0.095-0.057-0.185-0.058-0.309 0.002-0.092 0.009-0.181 0.029-0.267l0.010-0.043 0.005-0.030c0.012-0.224 0.383-0.705 0.831-1.428l-0.001-0.001c0.642-1.033 0.944-2.184 1.091-3.219 0.045-0.318 0.071-0.637 0.071-0.956v-2.902c-0.003-0.916-0.254-1.891-0.792-2.797-0.109-0.18-0.227-0.347-0.351-0.504v-2.237h-4.891c-1.542-0.003-2.85 0.445-3.819 1.171-0.601 0.445-1.074 0.989-1.421 1.564-0.407 0.683-0.646 1.405-0.739 2.106-0.032 0.238-0.048 0.467-0.048 0.697v2.902c0 0.325 0.027 0.641 0.069 0.95 0.151 1.047 0.449 2.191 1.079 3.219 0.439 0.654 0.827 1.256 0.847 1.507l0.009 0.038c0.021 0.115 0.032 0.215 0.032 0.305 0 0.127-0.018 0.219-0.059 0.317-0.123 0.183-0.45 0.347-1.083 0.813l-0.423 0.301c-0.303 0.255-0.501 0.632-0.501 1.059 0 0.767 0.621 1.388 1.389 1.388 0.286 0 0.551-0.087 0.771-0.235l0.011-0.007 0.382-0.27c0.711-0.536 1.287-0.981 1.761-1.767l0.024-0.043 0.029-0.059c0.253-0.514 0.357-1.061 0.355-1.565 0-0.277-0.028-0.542-0.075-0.796-0.214-1.162-0.867-1.91-1.201-2.459-0.325-0.514-0.575-1.347-0.678-2.119-0.030-0.221-0.047-0.421-0.047-0.573v-3.001c0-0.098 0.010-0.213 0.023-0.331 0.045-0.333 0.167-0.709 0.372-1.048 0.172-0.286 0.398-0.545 0.698-0.767 0.481-0.352 1.21-0.623 2.242-0.627h3.119l-0.747 0.819c0.229 0.207 0.398 0.408 0.495 0.575 0.272 0.447 0.466 0.971 0.464 1.377v3.001c0 0.159-0.015 0.353-0.046 0.572-0.105 0.788-0.362 1.639-0.705 2.163l-0.015 0.023-0.016 0.026c-0.25 0.476-0.891 1.154-1.123 2.297h-0.002c-0.063 0.29-0.095 0.579-0.093 0.865-0.002 0.513 0.106 1.064 0.365 1.582l0.030 0.057 0.021 0.037c0.471 0.779 1.040 1.227 1.73 1.744l4.147 2.937c0.446 0.242 1.096 1.503 1.037 2.021v3.905h-15.329c-0.737-0.002-1.335 0.595-1.335 1.333 0 0.729 0.586 1.32 1.312 1.332 0.008 0 0.015 0.002 0.023 0.002s0.015-0.002 0.023-0.002h16.131c1.014 0 1.845-0.829 1.845-1.844v-4.823c-0.059-1.681-0.792-3.156-2.123-4.178z"></path>
</svg>
