<?xml version="1.0" encoding="utf-8"?>
<!-- Generated by IcoMoon.io -->
<!DOCTYPE svg PUBLIC "-//W3C//DTD SVG 1.1//EN" "http://www.w3.org/Graphics/SVG/1.1/DTD/svg11.dtd">
<svg version="1.1" xmlns="http://www.w3.org/2000/svg" xmlns:xlink="http://www.w3.org/1999/xlink" width="32" height="32" viewBox="0 0 32 32">
<path fill="#333333" d="M20.544 19.821l-4.105-2.917c-0.617-0.457-0.924-0.687-1.048-0.877-0.040-0.095-0.057-0.185-0.058-0.309 0.001-0.092 0.009-0.181 0.029-0.267l0.010-0.043 0.005-0.030c0.012-0.224 0.383-0.705 0.831-1.428l-0.001-0.001c0.642-1.033 0.944-2.184 1.091-3.219 0.045-0.318 0.071-0.637 0.071-0.956v-2.902c-0.003-0.916-0.254-1.891-0.791-2.797-0.109-0.18-0.227-0.347-0.351-0.504v-2.237h-4.891c-1.542-0.003-2.851 0.445-3.819 1.171-0.601 0.445-1.074 0.989-1.421 1.564-0.407 0.683-0.645 1.404-0.739 2.105-0.031 0.238-0.048 0.467-0.048 0.697v2.902c0 0.325 0.028 0.641 0.069 0.95 0.151 1.047 0.448 2.191 1.079 3.219 0.439 0.654 0.827 1.256 0.847 1.507l0.008 0.038c0.022 0.115 0.031 0.215 0.031 0.305 0 0.127-0.018 0.219-0.058 0.317-0.123 0.183-0.45 0.347-1.083 0.813l-4.075 2.9c-1.331 1.023-2.067 2.497-2.127 4.179v4.823c0 1.014 0.83 1.843 1.844 1.843h18.979c1.014 0 1.844-0.829 1.844-1.844v-4.823c-0.059-1.682-0.793-3.157-2.123-4.179zM19.996 28h-17.327l0.001-3.905c-0.059-0.516 0.593-1.778 1.037-2.022l4.124-2.916c0.711-0.536 1.287-0.981 1.761-1.767l0.024-0.043 0.029-0.059c0.253-0.514 0.357-1.061 0.355-1.565 0-0.277-0.028-0.542-0.075-0.796-0.215-1.163-0.867-1.91-1.201-2.46-0.325-0.514-0.575-1.347-0.678-2.119-0.029-0.221-0.046-0.422-0.046-0.574v-3.001c0-0.098 0.010-0.213 0.023-0.331 0.045-0.333 0.167-0.709 0.372-1.048 0.172-0.286 0.398-0.545 0.698-0.767 0.48-0.352 1.21-0.623 2.242-0.627h3.119l-0.747 0.819c0.229 0.207 0.398 0.408 0.496 0.575 0.272 0.447 0.466 0.971 0.464 1.377v3.001c0 0.159-0.015 0.353-0.047 0.572-0.105 0.788-0.361 1.639-0.705 2.163l-0.015 0.023-0.017 0.026c-0.25 0.476-0.891 1.154-1.124 2.297h-0.001c-0.063 0.29-0.095 0.579-0.093 0.865-0.002 0.513 0.107 1.064 0.365 1.582l0.030 0.057 0.021 0.037c0.471 0.779 1.040 1.227 1.73 1.744l4.147 2.937c0.446 0.242 1.096 1.503 1.037 2.021v3.905z"></path>
<path fill="#333333" d="M30.667 23.333h-4.667c-0.736 0-1.333 0.597-1.333 1.333s0.597 1.333 1.333 1.333h4.667c0.736 0 1.333-0.597 1.333-1.333s-0.597-1.333-1.333-1.333z"></path>
<path fill="#333333" d="M30.667 12.667h-10c-0.736 0-1.333 0.597-1.333 1.333s0.597 1.333 1.333 1.333h10c0.736 0 1.333-0.597 1.333-1.333s-0.597-1.333-1.333-1.333z"></path>
<path fill="#333333" d="M20.667 10h10c0.736 0 1.333-0.597 1.333-1.333s-0.597-1.333-1.333-1.333h-10c-0.736 0-1.333 0.597-1.333 1.333s0.597 1.333 1.333 1.333z"></path>
<path fill="#333333" d="M30.667 18h-8.231c-0.369 0-0.667 0.298-0.667 0.667 0 0.183 0.074 0.349 0.193 0.469l0.021 0.015 1.793 1.349c0.155 0.104 0.343 0.165 0.543 0.167 0.005 0 0.009 0.001 0.013 0.001s0.009-0.001 0.013-0.001h6.321c0.736 0 1.333-0.597 1.333-1.333s-0.597-1.333-1.333-1.333z"></path>
</svg>
