<?xml version="1.0" encoding="utf-8"?>
<!-- Generated by IcoMoon.io -->
<!DOCTYPE svg PUBLIC "-//W3C//DTD SVG 1.1//EN" "http://www.w3.org/Graphics/SVG/1.1/DTD/svg11.dtd">
<svg version="1.1" xmlns="http://www.w3.org/2000/svg" xmlns:xlink="http://www.w3.org/1999/xlink" width="32" height="32" viewBox="0 0 32 32">
<path fill="#333333" d="M20.947 17.843c0-0.538-0.353-1.225-0.789-1.535l-2.039-1.452c-0.343-0.255-0.556-0.423-0.713-0.691-0.075-0.151-0.106-0.315-0.106-0.483 0-0.097 0.008-0.194 0.026-0.275 0.063-0.378 0.301-0.664 0.481-0.973 0.241-0.376 0.378-0.874 0.439-1.327 0.020-0.132 0.032-0.259 0.032-0.375v-1.373c0-0.32-0.093-0.685-0.29-1.019-0.084-0.144-0.204-0.277-0.343-0.407l-0.135-0.124 0.309-0.475h-1.817c-0.632 0-1.11 0.177-1.461 0.44-0.217 0.163-0.39 0.358-0.517 0.569-0.148 0.247-0.236 0.515-0.269 0.769-0.013 0.083-0.018 0.167-0.018 0.248v1.373c0 0.116 0.013 0.243 0.029 0.375 0.064 0.445 0.197 0.931 0.431 1.309 0.192 0.3 0.425 0.613 0.488 0.973 0.016 0.1 0.030 0.197 0.027 0.295 0.003 0.165-0.032 0.331-0.118 0.511-0.148 0.237-0.358 0.404-0.709 0.666l-2.029 1.443c-0.437 0.311-0.789 0.998-0.789 1.535v1.493h9.876l0.003-1.491z"></path>
<path fill="#333333" d="M26.674 2h-18.667c-2.209 0-4 1.791-4 4v20c0 2.209 1.791 4 4 4h18.667c0.736 0 1.333-0.597 1.333-1.333v-25.333c0-0.736-0.597-1.333-1.333-1.333zM11.775 27.333h-3.101c-1.104 0-2-0.897-2-2v-18.667c0-1.104 0.895-2 2-2h16.667v18h-16.667v1.333c0 0.736 0.597 1.333 1.333 1.333h15.333v2h-13.566z"></path>
</svg>
