<?xml version="1.0" encoding="utf-8"?>
<!-- Generated by IcoMoon.io -->
<!DOCTYPE svg PUBLIC "-//W3C//DTD SVG 1.1//EN" "http://www.w3.org/Graphics/SVG/1.1/DTD/svg11.dtd">
<svg version="1.1" xmlns="http://www.w3.org/2000/svg" xmlns:xlink="http://www.w3.org/1999/xlink" width="32" height="32" viewBox="0 0 32 32">
<path fill="#333333" d="M32.007 22.65c0-0.925-0.379-1.762-0.989-2.366-0.013-0.013-0.027-0.021-0.041-0.033l-4.791-3.815c0 0-0.259-0.23-0.139-0.675 0.121-0.447 1.293-2.181 1.293-4.355h0.001v-3.422c0-1.347-0.507-2.576-1.333-3.515v-1.817h-4c-1.347 0-2.576 0.507-3.515 1.333-1.111 0.978-1.818 2.406-1.818 4v3.422c0 2.175 1.173 3.909 1.293 4.355 0.121 0.445-0.139 0.675-0.139 0.675l-4.831 3.849c-0.61 0.604-0.989 1.441-0.989 2.366v4.701c0 1.104 0.895 2 2 2h16c1.104 0 2-0.896 2-2v-0.667l-0.001-4.035zM29.341 25.473v0.545c0 0.369-0.298 0.667-0.667 0.667h-13.333c-0.369 0-0.667-0.298-0.667-0.667v-3.043c0-0.367 0.149-0.699 0.387-0.939 0.072-0.073 0.154-0.134 0.241-0.189 0.194-0.153 0.435-0.342 0.705-0.554 0.445-0.351 0.965-0.763 1.48-1.171 0.874-0.693 1.721-1.37 2.123-1.699 0.936-0.767 1.5-2.567 0.635-4.071s-0.904-2.945-0.904-2.945v-3.422c0-1.471 1.196-2.667 2.667-2.667h2.667l-0.782 0.782c0.483 0.483 0.782 1.149 0.782 1.885v3.421l-0.001 0.001c0 0-0.039 1.44-0.904 2.945s-0.301 3.305 0.635 4.071c0.402 0.329 1.249 1.007 2.123 1.699 0.515 0.409 1.035 0.82 1.481 1.172 0.268 0.211 0.509 0.401 0.703 0.552 0.088 0.055 0.171 0.117 0.244 0.191 0.237 0.239 0.384 0.568 0.386 0.931v2.315h0.001v0.19z"></path>
<path fill="#333333" d="M8.007 26.683h-4.667c-0.369 0-0.667-0.298-0.667-0.667v-3.043c0-0.367 0.149-0.699 0.387-0.939 0.072-0.073 0.154-0.134 0.241-0.189 0.194-0.153 0.435-0.342 0.705-0.554 0.445-0.351 0.965-0.763 1.48-1.171 0.874-0.693 1.721-1.37 2.123-1.699 0.936-0.767 1.5-2.567 0.635-4.071s-0.904-2.945-0.904-2.945v-3.422c0-1.471 1.196-2.667 2.667-2.667h2.667l-0.782 0.782c0.483 0.483 0.782 1.149 0.782 1.885v3.421l-0.001 0.001c0 0-0.039 1.44-0.904 2.945-0.828 1.441-0.343 3.141 0.521 3.957l2.11-1.701-0.214-0.171c0 0-0.259-0.23-0.139-0.675 0.121-0.447 1.293-2.181 1.293-4.355h0.001v-3.422c0-1.347-0.507-2.576-1.333-3.515v-1.817h-4c-1.347 0-2.576 0.507-3.515 1.333-1.111 0.978-1.818 2.406-1.818 4v3.422c0 2.175 1.173 3.909 1.293 4.355 0.121 0.445-0.139 0.675-0.139 0.675l-4.831 3.849c-0.61 0.604-0.989 1.441-0.989 2.366v4.701c0 1.104 0.895 2 2 2h7.999v-2.667h-2z"></path>
</svg>
