<?xml version="1.0" encoding="utf-8"?>
<!-- Generated by IcoMoon.io -->
<!DOCTYPE svg PUBLIC "-//W3C//DTD SVG 1.1//EN" "http://www.w3.org/Graphics/SVG/1.1/DTD/svg11.dtd">
<svg version="1.1" xmlns="http://www.w3.org/2000/svg" xmlns:xlink="http://www.w3.org/1999/xlink" width="32" height="32" viewBox="0 0 32 32">
<path fill="#333333" d="M24.396 11.097v-4.675c0-3.542-2.898-6.422-6.461-6.422h-2.523c-3.563 0-6.461 2.88-6.461 6.422v4.675c-2.671 0.253-4.765 2.493-4.765 5.211v10.435c0 2.888 2.364 5.238 5.27 5.238h14.437c2.906 0 5.27-2.35 5.27-5.238v-10.435c0-2.719-2.096-4.959-4.767-5.211zM15.412 2.651h2.523c2.093 0 3.794 1.691 3.794 3.771v4.649h-10.112v-4.649c0-2.080 1.702-3.771 3.795-3.771zM26.496 26.743c0 1.427-1.168 2.588-2.603 2.588h-14.437c-1.435 0-2.603-1.161-2.603-2.588v-10.435c0-1.427 1.168-2.587 2.603-2.587h14.437c1.435 0 2.603 1.16 2.603 2.587v10.435z"></path>
<path fill="#333333" d="M14.402 17.332v1.373c0 0.116 0.013 0.243 0.029 0.375 0.064 0.445 0.197 0.931 0.431 1.309 0.192 0.3 0.425 0.613 0.488 0.973 0.016 0.1 0.030 0.197 0.027 0.295 0.003 0.165-0.032 0.332-0.118 0.511-0.148 0.237-0.358 0.404-0.709 0.666l-2.029 1.443c-0.437 0.311-0.789 0.998-0.789 1.535v1.493h9.876l0.003-1.491c0-0.538-0.353-1.224-0.789-1.535l-2.039-1.452c-0.343-0.255-0.556-0.423-0.713-0.691-0.075-0.151-0.106-0.315-0.106-0.483 0-0.097 0.008-0.194 0.026-0.275 0.063-0.379 0.301-0.665 0.481-0.974 0.241-0.376 0.378-0.873 0.439-1.327 0.020-0.132 0.032-0.259 0.032-0.375v-1.373c0-0.32-0.093-0.685-0.29-1.019-0.084-0.144-0.204-0.277-0.343-0.407l-0.135-0.124 0.309-0.475h-1.817c-0.632 0-1.11 0.177-1.461 0.44-0.217 0.163-0.39 0.358-0.517 0.569-0.148 0.247-0.236 0.515-0.269 0.769-0.011 0.083-0.017 0.167-0.017 0.248z"></path>
</svg>
