<?xml version="1.0" encoding="utf-8"?>
<!-- Generated by IcoMoon.io -->
<!DOCTYPE svg PUBLIC "-//W3C//DTD SVG 1.1//EN" "http://www.w3.org/Graphics/SVG/1.1/DTD/svg11.dtd">
<svg version="1.1" xmlns="http://www.w3.org/2000/svg" xmlns:xlink="http://www.w3.org/1999/xlink" width="32" height="32" viewBox="0 0 32 32">
<path fill="#333333" d="M14.667 26c0.736 0 1.333-0.597 1.333-1.333s-0.597-1.333-1.333-1.333h-5.334v-5.333c0-0.736-0.597-1.333-1.333-1.333s-1.333 0.597-1.333 1.333v5.333h-5.333c-0.736 0-1.333 0.597-1.333 1.333s0.597 1.333 1.333 1.333h5.333v4.668c0 0.736 0.597 1.333 1.333 1.333s1.333-0.597 1.333-1.333v-4.668h5.334z"></path>
<path fill="#333333" d="M28.544 19.821l-4.105-2.917c-0.617-0.457-0.923-0.687-1.048-0.877-0.039-0.095-0.057-0.185-0.058-0.309 0.002-0.092 0.009-0.181 0.029-0.267l0.010-0.043 0.005-0.030c0.012-0.224 0.383-0.705 0.831-1.428l-0.001-0.001c0.642-1.033 0.944-2.184 1.091-3.219 0.045-0.318 0.071-0.637 0.071-0.956v-2.903c-0.003-0.916-0.254-1.891-0.792-2.797-0.109-0.18-0.227-0.347-0.351-0.504v-2.235h-4.891c-1.542-0.003-2.85 0.445-3.819 1.171-0.601 0.445-1.074 0.989-1.421 1.564-0.407 0.683-0.646 1.405-0.739 2.106-0.032 0.238-0.048 0.467-0.048 0.697v2.903c0 0.325 0.027 0.641 0.069 0.95 0.151 1.047 0.449 2.191 1.079 3.219 0.439 0.654 0.827 1.257 0.847 1.507l0.009 0.038c0.021 0.115 0.032 0.214 0.032 0.305 0 0.127-0.018 0.219-0.059 0.317-0.123 0.183-0.45 0.347-1.083 0.813l-2.273 1.618c-0.359 0.249-0.596 0.662-0.596 1.132 0 0.762 0.619 1.379 1.381 1.379 0.285 0 0.55-0.087 0.769-0.235l0.003-0.002 2.345-1.657c0.711-0.536 1.287-0.981 1.761-1.767l0.024-0.043 0.029-0.059c0.253-0.514 0.357-1.061 0.355-1.565 0-0.277-0.028-0.542-0.075-0.796-0.214-1.162-0.867-1.91-1.201-2.46-0.325-0.514-0.575-1.347-0.678-2.119-0.030-0.221-0.047-0.421-0.047-0.574v-3.001c0-0.098 0.010-0.213 0.023-0.331 0.045-0.333 0.167-0.709 0.372-1.048 0.172-0.286 0.398-0.545 0.698-0.767 0.48-0.352 1.209-0.623 2.242-0.627h3.119l-0.747 0.819c0.229 0.207 0.398 0.408 0.495 0.575 0.272 0.447 0.466 0.971 0.464 1.377v3.001c0 0.159-0.015 0.353-0.046 0.572-0.105 0.788-0.362 1.639-0.705 2.163l-0.015 0.023-0.016 0.026c-0.25 0.476-0.891 1.154-1.124 2.297h-0.001c-0.063 0.29-0.095 0.579-0.093 0.865-0.002 0.513 0.106 1.064 0.365 1.582l0.030 0.057 0.021 0.037c0.471 0.779 1.041 1.227 1.73 1.744l4.147 2.937c0.446 0.242 1.096 1.503 1.037 2.021v3.905h-15.311c-0.006 0-0.012-0.002-0.017-0.002s-0.012 0.002-0.017 0.002c-0.727 0.009-1.314 0.599-1.317 1.327 0 0.002-0.001 0.005-0.001 0.007s0.001 0.004 0.001 0.007c0.003 0.73 0.594 1.321 1.323 1.327 0.004 0 0.007 0.001 0.011 0.001s0.007-0.001 0.011-0.001h16.143c1.014-0.001 1.844-0.829 1.844-1.844v-4.823c-0.059-1.682-0.793-3.157-2.123-4.179z"></path>
</svg>
