<?xml version="1.0" encoding="utf-8"?>
<!-- Generated by IcoMoon.io -->
<!DOCTYPE svg PUBLIC "-//W3C//DTD SVG 1.1//EN" "http://www.w3.org/Graphics/SVG/1.1/DTD/svg11.dtd">
<svg version="1.1" xmlns="http://www.w3.org/2000/svg" xmlns:xlink="http://www.w3.org/1999/xlink" width="32" height="32" viewBox="0 0 32 32">
<path fill="#333333" d="M31.998 9.671c0-1.256-0.429-2.412-1.086-3.364l-0.001-0.003c-0.995-1.424-2.465-2.445-4.135-3.141-1.689-0.695-3.627-1.071-5.691-1.073h-9.077c-2.067 0.002-4.003 0.379-5.688 1.071-1.676 0.699-3.145 1.717-4.14 3.144-0.647 0.934-1.072 2.061-1.091 3.285-0.014 0.035-0.009 0.143 0.014 0.274l-0.003 0.001 0.266 1.989c0.157 1.053 1.024 1.789 2.061 1.799 0.073 0 0.124-0.005 0.159-0.006l5.671-0.58c1.081-0.129 1.842-1.004 1.854-2.065 0-0.053 0-0.053 0-0.053 0-0.047-0.003-0.095-0.007-0.142l-0.117-1.917c0.011-0.077 0.073-0.134 0.157-0.136h10.808c0.081 0.002 0.143 0.061 0.152 0.134 0 0.009 0 0.020 0 0.029l-0.119 1.941c-0.002 0.031-0.005 0.078-0.005 0.143 0.012 1.063 0.78 1.932 1.849 2.065l0.028 0.002 5.598 0.574c0.073 0.006 0.137 0.011 0.209 0.011 1.039-0.011 1.901-0.745 2.061-1.79l0.267-1.999 0.010-0.176-0.002-0.016zM29.166 10.941l-4.497-0.46 0.090-1.465c0.007-0.063 0.007-0.128 0-0.193 0-0.009 0-0.017-0.002-0.025-0.055-1.503-1.292-2.699-2.807-2.699h-10.812c-1.553 0.001-2.813 1.258-2.813 2.813l0.001 0.082 0.091 1.487-4.497 0.46-0.178-1.345c0.017-0.617 0.235-1.225 0.619-1.778 0.612-0.885 1.637-1.649 2.971-2.204 1.33-0.545 2.931-0.867 4.673-0.869l9.077 0.001c1.738 0 3.343 0.323 4.677 0.869 1.328 0.553 2.353 1.317 2.967 2.204 0.382 0.557 0.6 1.169 0.614 1.786l-0.175 1.335z"></path>
<path fill="#333333" d="M26.305 14.201h-19.522c-0.974 0-1.771 0.752-1.771 1.671v1.671l-3.376-1.397c-0.899-0.373-1.636 0.119-1.636 1.093v9.633c0 0.974 0.735 1.465 1.636 1.093l3.377-1.4v1.673c0 0.919 0.797 1.672 1.771 1.672h19.521c0.973 0 1.771-0.797 1.771-1.771v-12.169c0-0.973-0.797-1.771-1.771-1.771zM25.419 27.253h-17.751v-3.124c0.001-0.017 0.005-0.034 0.005-0.052s-0.004-0.034-0.005-0.052c-0.027-0.528-0.46-0.948-0.995-0.948-0.116 0-0.226 0.023-0.33 0.060l-0.108 0.045-3.581 1.485v-5.225l3.503 1.454c0.087 0.053 0.181 0.093 0.281 0.117 0.075 0.018 0.154 0.031 0.235 0.031 0.535 0 0.967-0.421 0.995-0.948 0.001-0.017 0.005-0.034 0.005-0.052s-0.004-0.034-0.005-0.052v-3.133h17.752v10.395z"></path>
</svg>
