<?xml version="1.0" encoding="utf-8"?>
<!-- Generated by IcoMoon.io -->
<!DOCTYPE svg PUBLIC "-//W3C//DTD SVG 1.1//EN" "http://www.w3.org/Graphics/SVG/1.1/DTD/svg11.dtd">
<svg version="1.1" xmlns="http://www.w3.org/2000/svg" xmlns:xlink="http://www.w3.org/1999/xlink" width="32" height="32" viewBox="0 0 32 32">
<path fill="#333333" d="M31.318 7.994c-0.085 0-0.164 0.019-0.238 0.048l-0.104 0.061-8.324 4.811v-2.253c0-2.209-1.791-4-4-4h-14.667c-2.209 0-4 1.791-4 4v10.667c0 2.209 1.792 4 4 4h14.667c2.209 0 4-1.791 4-4v-2.255l8.435 4.875c0.073 0.027 0.15 0.047 0.232 0.047 0.369 0 0.667-0.298 0.667-0.667v-14.665c-0.001-0.369-0.299-0.667-0.667-0.667zM19.985 21.327c0 0.736-0.597 1.333-1.333 1.333h-14.667c-0.736 0-1.333-0.597-1.333-1.333v-10.667c0-0.736 0.597-1.333 1.333-1.333h14.667c0.737 0 1.333 0.597 1.333 1.333v10.667zM29.318 15.969v3.849l-6.667-3.849 6.667-3.849v3.849z"></path>
</svg>
