<?xml version="1.0" encoding="utf-8"?>
<!-- Generated by IcoMoon.io -->
<!DOCTYPE svg PUBLIC "-//W3C//DTD SVG 1.1//EN" "http://www.w3.org/Graphics/SVG/1.1/DTD/svg11.dtd">
<svg version="1.1" xmlns="http://www.w3.org/2000/svg" xmlns:xlink="http://www.w3.org/1999/xlink" width="32" height="32" viewBox="0 0 32 32">
<path fill="#333333" d="M4.659 12.545l-1.181-1.487c0 0 2.079-1.913 3.417-3.114 1.334-1.201 2.975-2.57 4.395-2.435 1.423 0.135 2.586 0.861 3.114 3.755 0.524 2.894 0.945 6.429 1.793 8.459 0 0 0.54 1.421 1.116 1.354 0.576-0.068 1.625-1.286 2.675-2.979 1.048-1.69 1.625-3.112 1.286-4.466-0.34-1.352-2.506-1.014-3.417-0.643 0 0 1.594-6.343 7.168-5.785 0 0 3.69 0 3.488 4.398s-3.179 8.221-6.020 11.673c-2.845 3.452-5.686 5.887-8.088 5.549-2.403-0.34-3.316-3.892-4.093-6.867-0.779-2.979-1.793-6.904-2.874-8.224 0 0-0.509-0.675-1.254-0.235l-1.525 1.048z"></path>
</svg>
