<?xml version="1.0" encoding="utf-8"?>
<!-- Generated by IcoMoon.io -->
<!DOCTYPE svg PUBLIC "-//W3C//DTD SVG 1.1//EN" "http://www.w3.org/Graphics/SVG/1.1/DTD/svg11.dtd">
<svg version="1.1" xmlns="http://www.w3.org/2000/svg" xmlns:xlink="http://www.w3.org/1999/xlink" width="32" height="32" viewBox="0 0 32 32">
<path fill="#333333" d="M25.579 6.911l-0.053 0.040c0 0-0.594 0.568-1.032 1.678 0 0-0.516 1.523-0.724 5.034 0 0-0.052 3.615-1.11 5.809 0 0 0.826 0.31 0.619 1.6 0 0-0.129 1.446-1.213 1.291 0 0-0.568-0.129-0.671-1.213l-2.685 1.781c0 0 0.619 1.523-0.568 2.504 0 0-0.956 0.8-1.575-0.516 0 0-0.543-1.368 0.646-2.323l-0.594 0.129c0 0-0.491 0.524-0.594 1.162 0 0-0.018 0.37-0.103 0.543 0 0-0.181 0.154-1.884 0.154 0 0-2.305-0.052-3.15-0.275 0 0-0.327 0.981-1.032 0.929 0 0-0.981-0.035-0.843-1.791 0 0-0.447-0.413 0.139-1.153 0 0 0.679-0.81 2.77-1.721 0 0 1.256-0.534 1.532-0.724 0 0 0.551-0.224 0.758-1.032 0 0-1.859 0.206-2.702-0.086 0 0-0.896-0.189-1.583-0.689 0 0-0.483-0.154-1.153-2.753 0 0-0.689-2.443-0.378-3.321 0 0 0.671-2.426 6.678-3.752 0 0 0.328-2.045 2.471-2.595 0 0 0.747-0.021 0.85 0.047 0 0 0.047 0.075 0.052 0.224l6.148 0.081c-2.312-1.978-5.312-3.178-8.594-3.178-7.299 0-13.217 5.917-13.217 13.217s5.919 13.217 13.217 13.217 13.217-5.917 13.217-13.217c0-3.527-1.386-6.731-3.638-9.101z"></path>
<path fill="#333333" d="M17.756 5.995c0 0-1.721 0.654-1.686 2.581 0 0 5.13 0 5.575 0.483 0 0-5.12-0.154-5.713 0 0 0-0.413 1.832-0.516 2.169 0 0 0.035 0.619-0.068-1.859 0 0 0.052-0.362-0.689-0.206 0 0-3.098 0.559-4.75 2.34 0 0-0.956 1.016 0.413 1.274 0 0 1.265 0.249 2.634 0.224l1.135 4.302-0.568-4.25 0.447-0.035 0.896 4.028-0.413-4.061 0.498-0.070 0.74 3.923-0.292-4.028 0.413-0.052 0.679 3.769-0.113-3.872 0.433-0.103 0.558 3.796 0.026-3.898 0.516-0.12 0.335 3.837 0.216-3.923 0.516-0.154 0.145 4.104 0.319-4.225 0.55-0.224 0.010 4.191 0.491-4.345 0.568-0.224-0.129 4.285 0.662-4.474 0.536-0.362-0.217 4.627 1.059-5.352c0 0 0.73-3.253 2.342-3.425 0 0-1.386 0.886-1.696 3.175 0 0-0.438 2.659-0.543 5.009 0 0-0.232 2.813-0.749 3.898 0 0-0.956 0.438-1.247 2.030l-2.616 1.739c0 0 0.032-0.259-0.536-0.31 0 0 1.945-1.144 2.874-1.997 0 0 0.604-0.671 0.687-1.773 0 0 0.122-0.998 0.277-1.222 0 0-2.574 0.938-6.265 1.067 0 0 0.181 1.386-0.929 1.928 0 0-3.331 1.678-3.666 2.013 0 0-0.465 0.344-0.431 0.498 0 0 0.026 0.619 2.169 0.8 0 0 2.013 0.154 3.15-0.259 0 0-0.154 0.103-0.232 0.671 0 0-2.272 0.216-4.234-0.129 0 0-1.549-0.181-1.781-0.724 0 0-0.206-0.465 1.213-1.291 0 0 0.438-0.37 2.659-1.429 0 0 0.835-0.362 1.119-1.084 0 0 0.191-0.895 0.31-1.084 0 0-3.235 0.644-4.423-0.672 0 0-0.619-0.662-1.24-3.993 0 0-0.344-1.411 0.241-1.962 0 0 1.24-1.91 6.232-2.856 0 0.004 0.241-2.543 2.099-2.716z"></path>
<path fill="#333333" d="M17.91 6.289c0 0 6.823 0.103 7.057 0.103 0 0-0.732 0.173-1.377 0.74 0 0-5.562-0.271-6.058-0.224 0 0-0.462-0.008-0.203-0.255 0 0 0.298-0.288 0.582-0.365z"></path>
<path fill="#333333" d="M16.981 7.183c0 0-0.103 0.129 1.032 0.129l5.421 0.232c0 0-0.646 1.135-0.956 2.426h-0.284c0 0-1.729 1.032-3.356 1.421 0 0-3.15 1.084-6.763 1.032 0 0-2.659 0.026-1.678-0.697 0 0 1.523-1.6 4.415-2.116l0.413 2.504 0.232-0.078 0.886-2.513c0 0 2.813-0.189 5.835 0.068 0 0 0.241-0.981-1.016-1.197 0 0-1.454-0.37-4.474-0.266 0-0.001 0.060-0.639 0.292-0.947z"></path>
<path fill="#333333" d="M16.052 18.748c0 0 2.866 0.103 4.931-0.697 0 0 0.078 1.188-1.084 2.143 0 0-0.878 0.929-3.253 2.143 0 0-0.8 0.499-1.962 0.646 0 0-2.297 0.232-3.382-0.335 0 0-0.319-0.138 2.891-1.6 0 0 0.181 0.8 0.723 0.724 0 0 0.8-0.181 0.594-1.653-0.001-0.001 0.49-0.285 0.541-1.369z"></path>
<path fill="#333333" d="M18.261 23.179c-0.373-0.49-0.861-0.117-0.861-0.117-0.548 0.391-0.548 1.174-0.548 1.174 0.078 0.607 0.371 0.803 0.371 0.803 0.55 0.371 0.979-0.274 0.979-0.274 0.566-0.979 0.058-1.586 0.058-1.586zM17.777 24.694c0 0-0.348 0.064-0.387-0.284 0 0 0.335 0.039 0.349-0.413 0 0 0.038-0.348-0.285-0.401 0 0 0.724-0.607 0.826 0.259 0 0 0.052 0.813-0.504 0.839z"></path>
<path fill="#333333" d="M22.744 20.036c-0.491-0.509-0.878 0.306-0.878 0.306-0.307 0.96 0.081 1.409 0.081 1.409 0.41 0.491 0.797-0.102 0.797-0.102 0.572-0.981 0-1.614 0-1.614zM22.609 21.497c0 0-0.323 0.181-0.451-0.142 0 0 0.122-0.033 0.167-0.323 0 0 0.052-0.323-0.232-0.387 0 0 0.348-0.685 0.685-0.154 0 0 0.334 0.619-0.168 1.006z"></path>
</svg>
