<?xml version="1.0" encoding="utf-8"?>
<!-- Generated by IcoMoon.io -->
<!DOCTYPE svg PUBLIC "-//W3C//DTD SVG 1.1//EN" "http://www.w3.org/Graphics/SVG/1.1/DTD/svg11.dtd">
<svg version="1.1" xmlns="http://www.w3.org/2000/svg" xmlns:xlink="http://www.w3.org/1999/xlink" width="32" height="32" viewBox="0 0 32 32">
<path fill="#333333" d="M28.297 25.905l-4.755-7.924c-0.241-0.401-0.675-0.647-1.143-0.647h-6.395c-0.001 0-0.003 0-0.005 0v0h-1.333l-1.622 2.667h2.955c0.001 0 0.003 0 0.005 0h5.64l4.391 7.318c0.021 0.036 0.023 0.040 0.047 0.073 0.055 0.085 0.311 0.544-0.006 1.215-0.329 0.698-0.993 0.738-1.188 0.727h-17.817c-0.008 0-0.776-0.031-1.14-0.719-0.347-0.657-0.004-1.233 0.021-1.275 0.018-0.025 0.035-0.052 0.051-0.079l7.139-11.909c0.124-0.207 0.19-0.444 0.19-0.685v-9.333c0-0.736-0.597-1.333-1.333-1.333h-2c-0.736 0-1.333 0.597-1.333 1.333s0.597 1.333 1.333 1.333h0.667v7.631l-6.93 11.56c-0.487 0.73-1.041 2.345-0.161 4.005 0.893 1.688 2.619 2.138 3.497 2.138l17.753-0.001c0.043 0.002 0.089 0.003 0.137 0.003 0.975 0 2.682-0.468 3.527-2.257 0.788-1.669 0.27-3.167-0.191-3.84z"></path>
<path fill="#333333" d="M21.333 6.667h0.667c0.736 0 1.333-0.597 1.333-1.333s-0.597-1.333-1.333-1.333h-2c-0.736 0-1.333 0.597-1.333 1.333v10h2.667v-8.667z"></path>
<path fill="#333333" d="M17.333 1.333c0 0.736-0.597 1.333-1.333 1.333s-1.333-0.597-1.333-1.333c0-0.736 0.597-1.333 1.333-1.333s1.333 0.597 1.333 1.333z"></path>
<path fill="#333333" d="M14.667 23.333c0 0.736-0.597 1.333-1.333 1.333s-1.333-0.597-1.333-1.333c0-0.736 0.597-1.333 1.333-1.333s1.333 0.597 1.333 1.333z"></path>
<path fill="#333333" d="M20 26c0 0.736-0.597 1.333-1.333 1.333s-1.333-0.597-1.333-1.333c0-0.736 0.597-1.333 1.333-1.333s1.333 0.597 1.333 1.333z"></path>
</svg>
