<?xml version="1.0" encoding="utf-8"?>
<!-- Generated by IcoMoon.io -->
<!DOCTYPE svg PUBLIC "-//W3C//DTD SVG 1.1//EN" "http://www.w3.org/Graphics/SVG/1.1/DTD/svg11.dtd">
<svg version="1.1" xmlns="http://www.w3.org/2000/svg" xmlns:xlink="http://www.w3.org/1999/xlink" width="32" height="32" viewBox="0 0 32 32">
<path fill="#333333" d="M30.391 9.233c-0.215-0.589-1.527-0.437-1.527-0.437l-4.354 0.030c0 0-0.326-0.047-0.563 0.096-0.23 0.144-0.381 0.47-0.381 0.47s-0.691 1.835-1.605 3.393c-1.937 3.297-2.715 3.465-3.034 3.267-0.731-0.478-0.548-1.915-0.548-2.941 0-3.187 0.484-4.522-0.948-4.863-0.469-0.111-0.817-0.191-2.027-0.198-1.556-0.015-2.866 0-3.612 0.365-0.502 0.246-0.885 0.787-0.641 0.819 0.282 0.032 0.936 0.174 1.277 0.644 0.452 0.604 0.436 1.97 0.436 1.97s0.255 3.75-0.602 4.22c-0.589 0.317-1.391-0.335-3.116-3.322-0.888-1.527-1.556-3.22-1.556-3.22s-0.126-0.315-0.357-0.491c-0.278-0.198-0.665-0.27-0.665-0.27l-4.138 0.017c0 0-0.623-0.008-0.853 0.261-0.198 0.246-0.015 0.7-0.015 0.7s3.241 7.5 6.903 11.315c3.363 3.504 7.185 3.104 7.185 3.104h1.73c0 0 0.517 0.114 0.785-0.173 0.246-0.261 0.237-0.595 0.237-0.595s-0.032-2.32 1.042-2.661c1.063-0.341 2.43 2.241 3.876 3.233 1.090 0.746 1.922 0.589 1.922 0.589l3.869-0.057c0 0 2.018-0.126 1.057-1.717-0.072-0.137-0.557-1.176-2.876-3.328-2.422-2.248-2.098-1.885 0.826-5.785 1.783-2.37 2.496-3.815 2.275-4.435z"></path>
</svg>
