<?xml version="1.0" encoding="utf-8"?>
<!-- Generated by IcoMoon.io -->
<!DOCTYPE svg PUBLIC "-//W3C//DTD SVG 1.1//EN" "http://www.w3.org/Graphics/SVG/1.1/DTD/svg11.dtd">
<svg version="1.1" xmlns="http://www.w3.org/2000/svg" xmlns:xlink="http://www.w3.org/1999/xlink" width="32" height="32" viewBox="0 0 32 32">
<path fill="#333333" d="M27.843 4.653c-0.521-0.521-1.366-0.521-1.885 0l-20.743 20.742c-0.521 0.52-0.521 1.365 0 1.885s1.365 0.521 1.885 0l20.743-20.742c0.521-0.521 0.521-1.365 0-1.885z"></path>
<path fill="#333333" d="M18.651 18.633v5.213c-1.594-0.268-3.022-1.012-4.146-2.075l-1.888 1.889c1.255 1.203 2.803 2.103 4.53 2.579 0.488 0.134 0.989 0.237 1.504 0.301 0.437 0.055 0.881 0.092 1.333 0.092 0.737 0 1.333-0.597 1.333-1.333v-10.341l-2.667 2.667v1.007z"></path>
<path fill="#333333" d="M6.494 20.133c0.357 0.354 0.779 0.641 1.247 0.843l2.343-2.343h-0.767c-0.365 0-0.695-0.148-0.936-0.385-0.245-0.241-0.397-0.577-0.397-0.948v-2.667c0-0.367 0.149-0.699 0.388-0.94 0.242-0.243 0.575-0.393 0.945-0.393h2.253c0.547 0 1.014-0.329 1.22-0.799 0.005-0.009 0.008-0.019 0.013-0.029 1.112-2.277 3.264-3.951 5.847-4.385v1.981l2.667-2.667v-0.767c0-0.736-0.597-1.333-1.333-1.333-0.452 0-0.896 0.037-1.333 0.092-0.507 0.064-1 0.164-1.482 0.296-2.733 0.747-5.025 2.548-6.413 4.945h-1.439c-1.105 0-2.107 0.449-2.831 1.175-0.676 0.677-1.104 1.595-1.159 2.613-0.003 0.071-0.011 0.141-0.011 0.212v2.667c0 0.077 0.008 0.152 0.012 0.227 0.057 1.015 0.489 1.931 1.165 2.605z"></path>
</svg>
