<?xml version="1.0" encoding="utf-8"?>
<!-- Generated by IcoMoon.io -->
<!DOCTYPE svg PUBLIC "-//W3C//DTD SVG 1.1//EN" "http://www.w3.org/Graphics/SVG/1.1/DTD/svg11.dtd">
<svg version="1.1" xmlns="http://www.w3.org/2000/svg" xmlns:xlink="http://www.w3.org/1999/xlink" width="32" height="32" viewBox="0 0 32 32">
<path fill="#333333" d="M4.667 20c-0.736 0-1.333 0.597-1.333 1.333v8c0 0.736 0.597 1.333 1.333 1.333s1.333-0.597 1.333-1.333v-8c0-0.736-0.597-1.333-1.333-1.333z"></path>
<path fill="#333333" d="M9.333 6.667c-0.736 0-1.333 0.597-1.333 1.333v21.333c0 0.736 0.597 1.333 1.333 1.333s1.333-0.597 1.333-1.333v-21.333c0-0.736-0.597-1.333-1.333-1.333z"></path>
<path fill="#333333" d="M14 12c-0.736 0-1.333 0.597-1.333 1.333v16c0 0.736 0.597 1.333 1.333 1.333s1.333-0.597 1.333-1.333v-16c0-0.736-0.597-1.333-1.333-1.333z"></path>
<path fill="#333333" d="M18.667 1.333c-0.736 0-1.333 0.597-1.333 1.333v26.667c0 0.736 0.597 1.333 1.333 1.333s1.333-0.597 1.333-1.333v-26.667c0-0.736-0.597-1.333-1.333-1.333z"></path>
<path fill="#333333" d="M23.333 16c-0.736 0-1.333 0.597-1.333 1.333v12c0 0.736 0.597 1.333 1.333 1.333s1.333-0.597 1.333-1.333v-12c0-0.736-0.597-1.333-1.333-1.333z"></path>
<path fill="#333333" d="M28 24c-0.736 0-1.333 0.597-1.333 1.333v4c0 0.736 0.597 1.333 1.333 1.333s1.333-0.597 1.333-1.333v-4c0-0.736-0.597-1.333-1.333-1.333z"></path>
</svg>
