<?xml version="1.0" encoding="utf-8"?>
<!-- Generated by IcoMoon.io -->
<!DOCTYPE svg PUBLIC "-//W3C//DTD SVG 1.1//EN" "http://www.w3.org/Graphics/SVG/1.1/DTD/svg11.dtd">
<svg version="1.1" xmlns="http://www.w3.org/2000/svg" xmlns:xlink="http://www.w3.org/1999/xlink" width="32" height="32" viewBox="0 0 32 32">
<path fill="#333333" d="M15.985 1.329c-8.1 0-14.667 6.567-14.667 14.667s6.567 14.667 14.667 14.667 14.667-6.567 14.667-14.667-6.567-14.667-14.667-14.667zM15.985 27.995c-6.627 0-12-7.15-12-11.999 0-6.627 5.373-11.999 12-11.999s11.999 5.373 11.999 11.999-5.373 11.999-11.999 11.999z"></path>
<path fill="#333333" d="M20.651 6.663c-2.536 0-4.83 1.017-6.51 2.66-0.607 0.594-1.137 1.267-1.565 2.007h-1.259c-1.106 0-2.107 0.449-2.831 1.175-0.676 0.677-1.105 1.595-1.159 2.613-0.003 0.071-0.011 0.141-0.011 0.212v1.333c0 0.077 0.007 0.152 0.012 0.227 0.057 1.016 0.489 1.932 1.165 2.606 0.724 0.721 1.721 1.167 2.823 1.167h1.259c0.429 0.739 0.957 1.412 1.563 2.005 1.681 1.644 3.975 2.661 6.512 2.661 0.736 0 1.333-0.597 1.333-1.333v-16c0-0.736-0.597-1.333-1.333-1.333zM19.318 22.529c-1.257-0.255-2.381-0.87-3.271-1.725-0.264-0.253-0.509-0.525-0.729-0.818-0.357-0.477-0.64-1.007-0.86-1.57-0.004-0.010-0.009-0.019-0.013-0.029-0.103-0.226-0.327-0.383-0.591-0.39-0.006 0-0.011-0.003-0.016-0.003s-0.011 0.003-0.016 0.003h-2.503c-0.365 0-0.696-0.148-0.937-0.385-0.244-0.241-0.397-0.577-0.397-0.948v-1.333c0-0.367 0.149-0.699 0.388-0.94 0.241-0.243 0.575-0.393 0.945-0.393h2.503c0.006 0 0.011 0.003 0.016 0.003s0.011-0.003 0.016-0.003c0.263-0.007 0.487-0.164 0.591-0.39 0.004-0.011 0.009-0.019 0.013-0.029 0.22-0.563 0.503-1.094 0.86-1.57 0.219-0.293 0.465-0.565 0.729-0.818 0.891-0.855 2.014-1.47 3.271-1.725v13.065z"></path>
</svg>
