<?xml version="1.0" encoding="utf-8"?>
<!-- Generated by IcoMoon.io -->
<!DOCTYPE svg PUBLIC "-//W3C//DTD SVG 1.1//EN" "http://www.w3.org/Graphics/SVG/1.1/DTD/svg11.dtd">
<svg version="1.1" xmlns="http://www.w3.org/2000/svg" xmlns:xlink="http://www.w3.org/1999/xlink" width="32" height="32" viewBox="0 0 32 32">
<path fill="#333333" d="M22 5.333c-0.453 0-0.896 0.037-1.333 0.092-0.507 0.064-1.001 0.164-1.483 0.296-2.733 0.747-5.024 2.548-6.412 4.945h-1.439c-1.106 0-2.107 0.449-2.831 1.175-0.676 0.677-1.105 1.595-1.159 2.613-0.003 0.071-0.011 0.141-0.011 0.212v2.667c0 0.077 0.007 0.152 0.012 0.227 0.057 1.016 0.489 1.932 1.165 2.606 0.724 0.721 1.721 1.167 2.823 1.167h1.439c1.385 2.391 3.667 4.189 6.391 4.94 0.488 0.134 0.989 0.237 1.504 0.301 0.438 0.055 0.881 0.092 1.333 0.092 0.736 0 1.333-0.597 1.333-1.333v-18.667c0-0.737-0.597-1.333-1.333-1.333zM20.667 10.667v13.213c-2.583-0.435-4.735-2.109-5.846-4.385-0.005-0.010-0.009-0.019-0.013-0.029-0.205-0.47-0.673-0.799-1.22-0.799h-2.254c-0.365 0-0.696-0.148-0.937-0.385-0.244-0.241-0.397-0.577-0.397-0.948v-2.667c0-0.367 0.149-0.699 0.388-0.94 0.242-0.243 0.576-0.393 0.945-0.393h2.253c0.546 0 1.014-0.329 1.22-0.799 0.005-0.009 0.008-0.019 0.013-0.029 1.112-2.277 3.264-3.951 5.846-4.385v2.547z"></path>
</svg>
