<?xml version="1.0" encoding="utf-8"?>
<!-- Generated by IcoMoon.io -->
<!DOCTYPE svg PUBLIC "-//W3C//DTD SVG 1.1//EN" "http://www.w3.org/Graphics/SVG/1.1/DTD/svg11.dtd">
<svg version="1.1" xmlns="http://www.w3.org/2000/svg" xmlns:xlink="http://www.w3.org/1999/xlink" width="32" height="32" viewBox="0 0 32 32">
<path fill="#333333" d="M14.649 5.299c-0.452 0-0.896 0.037-1.333 0.092-0.507 0.064-1 0.164-1.482 0.296-2.733 0.747-5.025 2.548-6.413 4.945h-1.439c-1.105 0-2.107 0.449-2.831 1.175-0.676 0.677-1.104 1.595-1.159 2.613-0.003 0.071-0.011 0.141-0.011 0.212v2.667c0 0.077 0.008 0.152 0.012 0.227 0.057 1.016 0.489 1.932 1.165 2.606 0.724 0.721 1.721 1.167 2.823 1.167h1.439c1.385 2.391 3.668 4.189 6.391 4.94 0.488 0.134 0.989 0.237 1.504 0.301 0.437 0.055 0.881 0.092 1.333 0.092 0.737 0 1.333-0.597 1.333-1.333v-18.667c0-0.736-0.597-1.333-1.333-1.333zM13.315 10.633v13.213c-2.582-0.435-4.735-2.109-5.847-4.385-0.004-0.010-0.008-0.019-0.013-0.029-0.206-0.47-0.673-0.799-1.22-0.799h-2.253c-0.365 0-0.695-0.148-0.936-0.385-0.245-0.241-0.397-0.577-0.397-0.948v-2.667c0-0.367 0.149-0.699 0.388-0.94 0.242-0.243 0.575-0.393 0.945-0.393h2.253c0.547 0 1.014-0.329 1.22-0.799 0.005-0.009 0.008-0.019 0.013-0.029 1.112-2.277 3.264-3.951 5.847-4.385v2.547z"></path>
<path fill="#333333" d="M29.315 14.663h-10.667c-0.736 0-1.333 0.597-1.333 1.333s0.597 1.333 1.333 1.333h10.667c0.737 0 1.333-0.597 1.333-1.333s-0.597-1.333-1.333-1.333z"></path>
</svg>
