<?xml version="1.0" encoding="utf-8"?>
<!-- Generated by IcoMoon.io -->
<!DOCTYPE svg PUBLIC "-//W3C//DTD SVG 1.1//EN" "http://www.w3.org/Graphics/SVG/1.1/DTD/svg11.dtd">
<svg version="1.1" xmlns="http://www.w3.org/2000/svg" xmlns:xlink="http://www.w3.org/1999/xlink" width="32" height="32" viewBox="0 0 32 32">
<path fill="#333333" d="M23.494 4.534l-1.24 1.24c1.535 0.941 2.843 2.212 3.82 3.722z"></path>
<path fill="#333333" d="M14.46 13.61c0.004-0.011 0.009-0.019 0.013-0.029 0.007-0.016 0.015-0.031 0.022-0.048l-0.433 0.433c0.177-0.058 0.321-0.188 0.398-0.356z"></path>
<path fill="#333333" d="M14.062 13.966c0.177-0.058 0.321-0.188 0.398-0.356 0.004-0.011 0.009-0.019 0.013-0.029 0.007-0.016 0.015-0.031 0.022-0.048z"></path>
<path fill="#333333" d="M16 1.333c-8.1 0-14.667 6.567-14.667 14.667s6.567 14.667 14.667 14.667c8.1 0 14.667-6.567 14.667-14.667s-6.567-14.667-14.667-14.667zM16 4.001c2.295 0 4.431 0.655 6.254 1.773 0.369 0.226 0.723 0.473 1.065 0.737l-16.491 16.491c-0.269-0.341-0.522-0.689-0.757-1.044-1.307-1.976-2.071-4.13-2.071-5.958 0-6.627 5.373-11.999 12-11.999zM16 27.999c-2.291 0-4.433-0.855-6.254-2.175-0.378-0.274-0.741-0.569-1.090-0.88l16.582-16.582c0.299 0.361 0.581 0.738 0.837 1.134 1.213 1.875 1.925 4.105 1.925 6.503 0 6.627-5.373 11.999-11.999 11.999z"></path>
<path fill="#333333" d="M19.333 22.533c-1.257-0.255-2.381-0.87-3.271-1.725-0.221-0.213-0.426-0.441-0.617-0.682l-1.883 1.883c0.192 0.227 0.381 0.456 0.593 0.663 1.68 1.644 3.974 2.661 6.511 2.661 0.736 0 1.333-0.597 1.333-1.333v-10.429l-2.667 2.667c0 3.143 0 6.295 0 6.295z"></path>
<path fill="#333333" d="M8.51 19.5c0.003 0.003 0.007 0.006 0.009 0.009l1.887-1.887c-0.003-0.003-0.006-0.005-0.009-0.007-0.244-0.241-0.397-0.577-0.397-0.948v-1.333c0-0.367 0.149-0.699 0.388-0.94 0.241-0.243 0.575-0.393 0.945-0.393h2.503c0.006 0 0.011 0.003 0.016 0.003s0.011-0.003 0.016-0.003c0.067-0.001 0.132-0.014 0.193-0.034l0.433-0.433c0.217-0.545 0.491-1.060 0.838-1.522 0.219-0.293 0.465-0.565 0.729-0.818 0.615-0.591 1.347-1.055 2.151-1.377l3.018-3.018c-0.172-0.082-0.362-0.131-0.565-0.131-2.536 0-4.83 1.017-6.51 2.66-0.607 0.594-1.137 1.267-1.565 2.007h-1.259c-1.106 0-2.107 0.449-2.831 1.175-0.676 0.677-1.105 1.595-1.159 2.613-0.003 0.071-0.011 0.141-0.011 0.212v1.333c0 0.077 0.007 0.153 0.012 0.227 0.057 1.016 0.489 1.932 1.165 2.606z"></path>
</svg>
