<?xml version="1.0" encoding="utf-8"?>
<!-- Generated by IcoMoon.io -->
<!DOCTYPE svg PUBLIC "-//W3C//DTD SVG 1.1//EN" "http://www.w3.org/Graphics/SVG/1.1/DTD/svg11.dtd">
<svg version="1.1" xmlns="http://www.w3.org/2000/svg" xmlns:xlink="http://www.w3.org/1999/xlink" width="32" height="32" viewBox="0 0 32 32">
<path fill="#333333" d="M19.291 8.667c2.206 0 4-1.794 4-4s-1.794-4-4-4-4 1.794-4 4 1.794 4 4 4zM19.291 3.333c0.735 0 1.333 0.598 1.333 1.333s-0.598 1.333-1.333 1.333-1.333-0.598-1.333-1.333 0.598-1.333 1.333-1.333z"></path>
<path fill="#333333" d="M23.458 16.677c-4.261-0.537-5.513-6.21-5.528-6.283-0.005-0.023-0.015-0.044-0.021-0.067-0.011-0.042-0.024-0.083-0.039-0.124-0.017-0.046-0.037-0.090-0.059-0.134-0.009-0.019-0.015-0.039-0.025-0.058-0.009-0.016-0.022-0.029-0.031-0.044-0.027-0.043-0.056-0.084-0.087-0.123-0.024-0.030-0.047-0.059-0.074-0.087-0.034-0.036-0.071-0.069-0.108-0.101-0.029-0.025-0.058-0.049-0.089-0.072-0.041-0.029-0.083-0.054-0.127-0.078-0.033-0.018-0.065-0.037-0.099-0.052-0.048-0.021-0.097-0.037-0.148-0.053-0.025-0.008-0.048-0.020-0.074-0.027-0.009-0.002-0.029-0.007-0.061-0.014-0.002 0-0.004-0.001-0.006-0.001-0.487-0.105-3.457-0.624-6.39 1.575-3.039 2.279-3.809 5.982-3.841 6.139-0.145 0.722 0.323 1.425 1.046 1.569 0.722 0.147 1.425-0.324 1.569-1.046 0.006-0.028 0.628-2.88 2.826-4.528 0.996-0.747 1.982-1.037 2.749-1.135l-2.157 7.009c-0.144 0.469-0.020 0.977 0.323 1.327l4.388 4.464 1.255 6.277c0.127 0.634 0.683 1.072 1.306 1.072 0.087 0 0.175-0.009 0.263-0.027 0.722-0.144 1.191-0.847 1.046-1.569l-1.333-6.667c-0.051-0.255-0.175-0.488-0.357-0.673l-4.109-4.181 1.315-4.275c1.155 2.040 3.121 4.226 6.343 4.632 0.057 0.007 0.113 0.011 0.169 0.011 0.662 0 1.236-0.493 1.321-1.167 0.092-0.731-0.426-1.397-1.156-1.489z"></path>
<path fill="#333333" d="M12.649 22c-0.74-0.030-1.344 0.572-1.357 1.309-0.001 0.033-0.171 3.368-4.125 6.285-0.593 0.437-0.719 1.272-0.281 1.864 0.261 0.355 0.665 0.543 1.074 0.543 0.275 0 0.553-0.085 0.791-0.261 5.065-3.736 5.205-8.194 5.209-8.382 0.013-0.735-0.573-1.343-1.309-1.357z"></path>
</svg>
