<?xml version="1.0" encoding="utf-8"?>
<!-- Generated by IcoMoon.io -->
<!DOCTYPE svg PUBLIC "-//W3C//DTD SVG 1.1//EN" "http://www.w3.org/Graphics/SVG/1.1/DTD/svg11.dtd">
<svg version="1.1" xmlns="http://www.w3.org/2000/svg" xmlns:xlink="http://www.w3.org/1999/xlink" width="32" height="32" viewBox="0 0 32 32">
<path fill="#333333" d="M30.667 9.333v-2.667c0-2.206-1.794-4-4-4h-21.333c-2.206 0-4 1.794-4 4v18.667c0 2.206 1.794 4 4 4h21.333c2.206 0 4-1.794 4-4v-2.667c0.736 0 1.333-0.597 1.333-1.333v-10.667c0-0.736-0.597-1.333-1.333-1.333zM28 25.333c0 0.735-0.598 1.333-1.333 1.333h-21.333c-0.735 0-1.333-0.598-1.333-1.333v-18.667c0-0.735 0.598-1.333 1.333-1.333h21.333c0.735 0 1.333 0.598 1.333 1.333v2.667h-6.667c-3.676 0-6.667 2.991-6.667 6.667s2.991 6.667 6.667 6.667h6.667v2.667zM29.333 12v8h-8c-2.206 0-4-1.794-4-4s1.794-4 4-4h8z"></path>
<path fill="#333333" d="M23.333 16c0 0.92-0.746 1.667-1.667 1.667s-1.667-0.746-1.667-1.667c0-0.92 0.746-1.667 1.667-1.667s1.667 0.746 1.667 1.667z"></path>
</svg>
