<?xml version="1.0" encoding="utf-8"?>
<!-- Generated by IcoMoon.io -->
<!DOCTYPE svg PUBLIC "-//W3C//DTD SVG 1.1//EN" "http://www.w3.org/Graphics/SVG/1.1/DTD/svg11.dtd">
<svg version="1.1" xmlns="http://www.w3.org/2000/svg" xmlns:xlink="http://www.w3.org/1999/xlink" width="32" height="32" viewBox="0 0 32 32">
<path fill="#333333" d="M26.667 16c0-3.663-1.857-6.9-4.679-8.821l-0.663-5.992c-0.075-0.675-0.645-1.187-1.325-1.187h-8c-0.68 0-1.251 0.511-1.325 1.187l-0.663 5.992c-2.821 1.921-4.679 5.158-4.679 8.821s1.857 6.898 4.677 8.82l0.665 6.007c0.075 0.676 0.646 1.187 1.325 1.187h8c0.68 0 1.251-0.511 1.325-1.187l0.665-6.007c2.82-1.922 4.677-5.157 4.677-8.82zM13.194 2.667h5.612l0.347 3.143c-0.997-0.309-2.056-0.477-3.153-0.477s-2.156 0.167-3.153 0.477l0.347-3.143zM8 16c0-4.411 3.589-8 8-8s8 3.589 8 8-3.589 8-8 8-8-3.589-8-8zM18.806 29.347h-5.612l-0.349-3.158c0.998 0.31 2.057 0.477 3.155 0.477s2.157-0.167 3.155-0.477l-0.349 3.157z"></path>
<path fill="#333333" d="M18.391 20.276c0.261 0.261 0.601 0.391 0.943 0.391s0.682-0.13 0.943-0.391c0.521-0.521 0.521-1.365 0-1.885l-2.943-2.943v-3.447c0-0.736-0.597-1.333-1.333-1.333s-1.333 0.597-1.333 1.333v4c0 0.353 0.141 0.693 0.391 0.943l3.333 3.333z"></path>
</svg>
