<?xml version="1.0" encoding="utf-8"?>
<!-- Generated by IcoMoon.io -->
<!DOCTYPE svg PUBLIC "-//W3C//DTD SVG 1.1//EN" "http://www.w3.org/Graphics/SVG/1.1/DTD/svg11.dtd">
<svg version="1.1" xmlns="http://www.w3.org/2000/svg" xmlns:xlink="http://www.w3.org/1999/xlink" width="32" height="32" viewBox="0 0 32 32">
<path fill="#333333" d="M18 20.243c3.074 0 5.575-2.501 5.575-5.576s-2.501-5.576-5.575-5.576-5.575 2.501-5.575 5.576c0 3.075 2.501 5.576 5.575 5.576zM18 11.757c1.604 0 2.909 1.305 2.909 2.909s-1.305 2.909-2.909 2.909-2.909-1.305-2.909-2.909 1.305-2.909 2.909-2.909z"></path>
<path fill="#333333" d="M19.515 14.667c0 0.837-0.678 1.515-1.515 1.515s-1.515-0.678-1.515-1.515c0-0.837 0.678-1.515 1.515-1.515s1.515 0.678 1.515 1.515z"></path>
<path fill="#333333" d="M24.901 21.954c2.065-2.193 3.341-5.136 3.341-8.379 0-6.75-5.491-12.242-12.242-12.242s-12.242 5.492-12.242 12.242c0 3.243 1.276 6.186 3.341 8.379-1.14 0.971-1.765 2.147-1.765 3.379 0 3.421 4.586 6 10.667 6s10.667-2.579 10.667-6c0-1.232-0.625-2.407-1.765-3.379zM16 4c5.28 0 9.575 4.295 9.575 9.575s-4.295 9.576-9.575 9.576-9.575-4.296-9.575-9.576 4.295-9.575 9.575-9.575zM16 28.667c-4.957 0-8-1.941-8-3.333 0-0.68 0.68-1.275 1.158-1.611 1.955 1.322 4.31 2.095 6.842 2.095s4.887-0.773 6.842-2.095c0.479 0.336 1.158 0.931 1.158 1.611 0 1.392-3.043 3.333-8 3.333z"></path>
</svg>
