<?xml version="1.0" encoding="utf-8"?>
<!-- Generated by IcoMoon.io -->
<!DOCTYPE svg PUBLIC "-//W3C//DTD SVG 1.1//EN" "http://www.w3.org/Graphics/SVG/1.1/DTD/svg11.dtd">
<svg version="1.1" xmlns="http://www.w3.org/2000/svg" xmlns:xlink="http://www.w3.org/1999/xlink" width="32" height="32" viewBox="0 0 32 32">
<path fill="#333333" d="M22.135 12.306c-0.077 0-0.14 0.003-0.206 0-2.421-0.077-4.639 0.548-6.588 2.012-1.537 1.152-2.6 2.643-3.070 4.525-0.303 1.204-0.28 2.41 0.025 3.613 0.011 0.046 0.020 0.092 0.031 0.148-0.431 0-0.849 0.022-1.261-0.003-0.966-0.065-1.907-0.246-2.826-0.548-0.071-0.025-0.177 0.011-0.248 0.054-1.023 0.607-2.041 1.218-3.056 1.83-0.119 0.071-0.234 0.148-0.367 0.038-0.125-0.102-0.089-0.234-0.049-0.365 0.274-0.939 0.551-1.879 0.835-2.817 0.040-0.128 0.012-0.189-0.092-0.268-1.529-1.123-2.689-2.538-3.285-4.356-0.918-2.8-0.407-5.377 1.394-7.68 1.493-1.919 3.504-3.051 5.85-3.62 1.127-0.274 2.277-0.365 3.427-0.28 2.947 0.214 5.496 1.305 7.489 3.536 1.038 1.161 1.711 2.514 1.99 4.054 0.008 0.035 0.006 0.069 0.009 0.126zM14.722 10.668c-0.003 0.73 0.568 1.301 1.295 1.305 0.721 0 1.306-0.57 1.309-1.275 0.003-0.749-0.558-1.328-1.289-1.329-0.747-0.003-1.312 0.559-1.315 1.3zM9.217 10.686c0.002-0.742-0.556-1.318-1.283-1.32-0.736-0.002-1.32 0.567-1.323 1.285-0.006 0.73 0.567 1.315 1.286 1.322 0.741 0.003 1.315-0.559 1.32-1.286z"></path>
<path fill="#333333" d="M13 20.815c0.042-2.147 0.886-3.861 2.398-5.258 1.394-1.291 3.059-2.035 4.92-2.31 2.574-0.38 4.986 0.089 7.153 1.568 1.505 1.026 2.592 2.394 3.071 4.171 0.602 2.233 0.109 4.253-1.297 6.067-0.399 0.516-0.866 0.964-1.383 1.362-0.106 0.080-0.122 0.148-0.080 0.271 0.24 0.692 0.474 1.386 0.709 2.078 0.015 0.040 0.046 0.083 0.038 0.122-0.014 0.1-0.015 0.236-0.080 0.287-0.062 0.046-0.216 0.037-0.291-0.006-0.689-0.394-1.382-0.782-2.047-1.212-0.327-0.211-0.601-0.226-0.966-0.099-1.42 0.501-2.89 0.644-4.388 0.473-1.992-0.226-3.771-0.95-5.278-2.29-1.24-1.104-2.058-2.463-2.37-4.108-0.018-0.103-0.037-0.203-0.045-0.307-0.026-0.293-0.045-0.582-0.063-0.807zM26.275 17.827c0-0.656-0.504-1.161-1.158-1.164-0.662-0.005-1.172 0.508-1.172 1.172 0 0.644 0.514 1.155 1.169 1.154s1.161-0.511 1.161-1.161zM19.844 17.814c-0.015-0.672-0.53-1.168-1.194-1.154-0.659 0.015-1.143 0.533-1.131 1.212 0.009 0.635 0.542 1.127 1.209 1.114 0.624-0.012 1.124-0.539 1.115-1.172z"></path>
</svg>
