<?xml version="1.0" encoding="utf-8"?>
<!-- Generated by IcoMoon.io -->
<!DOCTYPE svg PUBLIC "-//W3C//DTD SVG 1.1//EN" "http://www.w3.org/Graphics/SVG/1.1/DTD/svg11.dtd">
<svg version="1.1" xmlns="http://www.w3.org/2000/svg" xmlns:xlink="http://www.w3.org/1999/xlink" width="32" height="32" viewBox="0 0 32 32">
<path fill="#333333" d="M13.146 10.214c0 0 0.986 2.281 1.073 2.489 0.088 0.209 0.123 0.453-0.052 0.747-0.171 0.294-0.71 0.865-0.795 1.003-0.086 0.136-0.224 0.241 0.018 0.604s1.313 2.422 4.272 3.651c0 0 0.311 0.139 0.553-0.105 0.242-0.241 0.882-1.073 0.971-1.176 0.086-0.105 0.329-0.379 0.726-0.208 0.397 0.173 2.507 1.176 2.507 1.176s0.292 0.106 0.276 0.553c-0.017 0.451-0.017 1.386-0.95 1.974-0.935 0.586-1.763 0.862-2.716 0.674-0.95-0.191-3.269-0.78-5.64-2.977 0 0-2.11-1.989-2.975-4.065s-0.088-3.53 0.673-4.255c0 0 0.503-0.468 0.882-0.451 0.382 0.018 0.764-0.015 0.918 0.071 0.158 0.085 0.192 0.206 0.261 0.294z"></path>
<path fill="#333333" d="M2.904 29.199l2.316-6.826c-1.223-2.009-1.863-4.305-1.863-6.678 0-7.096 5.772-12.869 12.869-12.869s12.869 5.775 12.869 12.869c0 7.099-5.773 12.871-12.869 12.871-2.204 0-4.364-0.564-6.273-1.629l-7.049 2.262zM10.212 24.673l0.406 0.25c1.683 1.026 3.625 1.571 5.61 1.571 5.951 0 10.794-4.843 10.794-10.797 0-5.952-4.843-10.794-10.794-10.794-5.952 0-10.795 4.84-10.795 10.794 0 2.135 0.621 4.198 1.798 5.967l0.285 0.424-1.318 3.877 4.015-1.292z"></path>
</svg>
