<?xml version="1.0" encoding="utf-8"?>
<!-- Generated by IcoMoon.io -->
<!DOCTYPE svg PUBLIC "-//W3C//DTD SVG 1.1//EN" "http://www.w3.org/Graphics/SVG/1.1/DTD/svg11.dtd">
<svg version="1.1" xmlns="http://www.w3.org/2000/svg" xmlns:xlink="http://www.w3.org/1999/xlink" width="32" height="32" viewBox="0 0 32 32">
<path fill="#333333" d="M15.333 11.333c2.573 0 4.667-2.093 4.667-4.667s-2.094-4.667-4.667-4.667-4.667 2.093-4.667 4.667 2.094 4.667 4.667 4.667zM15.333 4.667c1.103 0 2 0.897 2 2s-0.897 2-2 2-2-0.897-2-2 0.897-2 2-2z"></path>
<path fill="#333333" d="M27.333 25.333h-0.33c-0.653-1.967-2.464-6-6.337-6h-5.333v-3.333h5.333c0.736 0 1.333-0.597 1.333-1.333s-0.597-1.333-1.333-1.333h-6.667c-0.736 0-1.333 0.597-1.333 1.333v6c0 0.736 0.597 1.333 1.333 1.333h5.333c0 3.309-2.691 6-6 6s-6-2.691-6-6c0-1.797 0.795-3.484 2.182-4.629 0.568-0.469 0.648-1.309 0.179-1.877s-1.308-0.648-1.877-0.179c-2.003 1.653-3.151 4.090-3.151 6.685 0 4.779 3.888 8.667 8.667 8.667 4.646 0 8.439-3.678 8.647-8.274 1.889 1.159 2.709 4.524 2.719 4.563 0.135 0.61 0.676 1.044 1.301 1.044h1.333c0.736 0 1.333-0.597 1.333-1.333s-0.597-1.333-1.333-1.333z"></path>
</svg>
