<?xml version="1.0" encoding="utf-8"?>
<!-- Generated by IcoMoon.io -->
<!DOCTYPE svg PUBLIC "-//W3C//DTD SVG 1.1//EN" "http://www.w3.org/Graphics/SVG/1.1/DTD/svg11.dtd">
<svg version="1.1" xmlns="http://www.w3.org/2000/svg" xmlns:xlink="http://www.w3.org/1999/xlink" width="32" height="32" viewBox="0 0 32 32">
<path fill="#333333" d="M30.853 10.169c-0.048-0.035-0.095-0.073-0.143-0.107-4.15-2.973-9.227-4.727-14.71-4.727-5.481 0-10.558 1.753-14.707 4.725-0.050 0.036-0.099 0.075-0.149 0.111-0.293 0.247-0.484 0.611-0.484 1.023 0 0.74 0.6 1.34 1.34 1.34 0.263 0 0.507-0.079 0.714-0.21 0.042-0.029 0.082-0.062 0.124-0.091 3.713-2.661 8.257-4.231 13.162-4.231 4.902 0 9.442 1.567 13.153 4.223 0.043 0.036 0.086 0.070 0.134 0.101 0.207 0.131 0.45 0.209 0.713 0.209 0.74 0 1.34-0.599 1.34-1.34 0-0.415-0.192-0.779-0.487-1.025z"></path>
<path fill="#333333" d="M25.943 16.489c-0.042-0.029-0.087-0.055-0.129-0.084-2.793-1.929-6.17-3.070-9.814-3.070-3.615 0-6.967 1.123-9.747 3.025-0.086 0.059-0.177 0.111-0.263 0.171-0.297 0.247-0.491 0.613-0.491 1.029 0 0.74 0.6 1.34 1.34 1.34 0.269 0 0.519-0.082 0.729-0.218 0.011-0.008 0.023-0.014 0.033-0.022 2.381-1.671 5.275-2.657 8.399-2.657 3.095 0 5.962 0.971 8.33 2.614 0.055 0.039 0.113 0.071 0.167 0.109 0.193 0.108 0.411 0.174 0.647 0.174 0.74 0 1.34-0.6 1.34-1.34-0.001-0.439-0.216-0.825-0.542-1.070z"></path>
<path fill="#333333" d="M20.78 22.663c-0.093-0.056-0.189-0.105-0.284-0.157-1.335-0.741-2.865-1.17-4.497-1.17s-3.163 0.43-4.499 1.171c-0.095 0.053-0.191 0.102-0.283 0.157-0.337 0.243-0.558 0.637-0.558 1.084 0 0.74 0.6 1.34 1.34 1.34 0.221 0 0.425-0.059 0.609-0.153 0.046-0.027 0.095-0.050 0.142-0.077 0.962-0.542 2.069-0.855 3.249-0.855 1.198 0 2.319 0.322 3.291 0.879 0.033 0.019 0.067 0.035 0.099 0.054 0.184 0.095 0.389 0.153 0.611 0.153 0.74 0 1.34-0.6 1.34-1.34-0.001-0.447-0.223-0.842-0.56-1.085z"></path>
</svg>
