<?xml version="1.0" encoding="utf-8"?>
<!-- Generated by IcoMoon.io -->
<!DOCTYPE svg PUBLIC "-//W3C//DTD SVG 1.1//EN" "http://www.w3.org/Graphics/SVG/1.1/DTD/svg11.dtd">
<svg version="1.1" xmlns="http://www.w3.org/2000/svg" xmlns:xlink="http://www.w3.org/1999/xlink" width="32" height="32" viewBox="0 0 32 32">
<path fill="#333333" d="M15.999 0.002c-8.821 0-15.999 7.177-15.999 15.999 0 4.073 1.533 7.795 4.049 10.622l0.003-0.004c0.241 0.241 0.574 0.39 0.942 0.39 0.736 0 1.333-0.597 1.333-1.333 0-0.368-0.149-0.701-0.389-0.941l0.006-0.006c-2.035-2.341-3.277-5.389-3.277-8.727 0-7.351 5.981-13.332 13.332-13.332s13.332 5.981 13.332 13.332c0 3.32-1.231 6.351-3.246 8.687-0.261 0.243-0.427 0.588-0.427 0.973 0 0.737 0.597 1.333 1.333 1.333 0.363 0 0.693-0.147 0.933-0.382l0.018 0.017c2.52-2.828 4.055-6.552 4.055-10.629 0-8.822-7.177-15.999-15.999-15.999z"></path>
<path fill="#333333" d="M22.734 22.619c0.339 0 0.645-0.136 0.869-0.356l0.002 0.002c0.002-0.003 0.005-0.006 0.007-0.010 0.069-0.068 0.125-0.146 0.177-0.228 1.339-1.695 2.147-3.824 2.147-6.143 0-5.479-4.457-9.937-9.936-9.937s-9.936 4.457-9.936 9.937c0 2.332 0.817 4.473 2.167 6.17 0.015 0.023 0.033 0.043 0.050 0.065 0.037 0.046 0.069 0.095 0.107 0.139l0.005-0.004c0.224 0.223 0.533 0.361 0.875 0.361 0.686 0 1.242-0.556 1.242-1.243 0-0.341-0.139-0.65-0.361-0.875l0.005-0.006c-1.003-1.269-1.607-2.868-1.607-4.607 0-4.11 3.343-7.453 7.451-7.453s7.451 3.343 7.451 7.453c0 1.742-0.606 3.343-1.612 4.614l0.009 0.009c-0.22 0.225-0.356 0.531-0.356 0.869 0.001 0.685 0.557 1.242 1.243 1.242z"></path>
<path fill="#333333" d="M17.333 18.293v-4.958c0-0.736-0.597-1.333-1.333-1.333s-1.333 0.597-1.333 1.333v4.958l-7.138 11.681c-0.251 0.411-0.261 0.927-0.025 1.347s0.681 0.681 1.163 0.681h14.667c0.483 0 0.927-0.261 1.163-0.681s0.227-0.936-0.025-1.347l-7.137-11.681zM11.043 29.335l4.956-8.111 4.956 8.111h-9.912z"></path>
</svg>
