<?xml version="1.0" encoding="utf-8"?>
<!-- Generated by IcoMoon.io -->
<!DOCTYPE svg PUBLIC "-//W3C//DTD SVG 1.1//EN" "http://www.w3.org/Graphics/SVG/1.1/DTD/svg11.dtd">
<svg version="1.1" xmlns="http://www.w3.org/2000/svg" xmlns:xlink="http://www.w3.org/1999/xlink" width="32" height="32" viewBox="0 0 32 32">
<path fill="#333333" d="M27.667 8c0 0.92-0.746 1.667-1.667 1.667s-1.667-0.746-1.667-1.667c0-0.92 0.746-1.667 1.667-1.667s1.667 0.746 1.667 1.667z"></path>
<path fill="#333333" d="M23 8c0 0.92-0.746 1.667-1.667 1.667s-1.667-0.746-1.667-1.667c0-0.92 0.746-1.667 1.667-1.667s1.667 0.746 1.667 1.667z"></path>
<path fill="#333333" d="M18.333 8c0 0.92-0.746 1.667-1.667 1.667s-1.667-0.746-1.667-1.667c0-0.92 0.746-1.667 1.667-1.667s1.667 0.746 1.667 1.667z"></path>
<path fill="#333333" d="M28.667 2h-25.333c-1.838 0-3.333 1.495-3.333 3.333v21.333c0 1.838 1.495 3.333 3.333 3.333h6c0.736 0 1.333-0.597 1.333-1.333s-0.597-1.333-1.333-1.333h-6c-0.368 0-0.667-0.299-0.667-0.667v-21.333c0-0.367 0.299-0.667 0.667-0.667h25.333c0.368 0 0.667 0.299 0.667 0.667v5.333c0 0.736 0.597 1.333 1.333 1.333s1.333-0.597 1.333-1.333v-5.333c0-1.838-1.495-3.333-3.333-3.333z"></path>
<path fill="#333333" d="M22 12c-5.514 0-10 4.486-10 10s4.486 10 10 10 10-4.486 10-10-4.485-10-10-10zM22 29.333c-4.043 0-7.333-3.29-7.333-7.333s3.29-7.333 7.333-7.333 7.333 3.29 7.333 7.333-3.29 7.333-7.333 7.333z"></path>
<path fill="#333333" d="M26.785 17.588c-0.597-0.433-1.431-0.301-1.863 0.294l-4.245 5.837-2.258-3.161c-0.429-0.599-1.263-0.737-1.86-0.31-0.599 0.428-0.738 1.261-0.311 1.86l3.333 4.667c0.249 0.349 0.651 0.556 1.079 0.558 0.002 0 0.004 0 0.006 0 0.427 0 0.827-0.204 1.078-0.549l5.333-7.333c0.434-0.595 0.301-1.429-0.293-1.862z"></path>
</svg>
