<?xml version="1.0" encoding="utf-8"?>
<!-- Generated by IcoMoon.io -->
<!DOCTYPE svg PUBLIC "-//W3C//DTD SVG 1.1//EN" "http://www.w3.org/Graphics/SVG/1.1/DTD/svg11.dtd">
<svg version="1.1" xmlns="http://www.w3.org/2000/svg" xmlns:xlink="http://www.w3.org/1999/xlink" width="32" height="32" viewBox="0 0 32 32">
<path fill="#333333" d="M27.667 8c0 0.92-0.746 1.667-1.667 1.667s-1.667-0.746-1.667-1.667c0-0.92 0.746-1.667 1.667-1.667s1.667 0.746 1.667 1.667z"></path>
<path fill="#333333" d="M23 8c0 0.92-0.746 1.667-1.667 1.667s-1.667-0.746-1.667-1.667c0-0.92 0.746-1.667 1.667-1.667s1.667 0.746 1.667 1.667z"></path>
<path fill="#333333" d="M18.333 8c0 0.92-0.746 1.667-1.667 1.667s-1.667-0.746-1.667-1.667c0-0.92 0.746-1.667 1.667-1.667s1.667 0.746 1.667 1.667z"></path>
<path fill="#333333" d="M28.667 2h-25.333c-1.838 0-3.333 1.495-3.333 3.333v21.333c0 1.838 1.495 3.333 3.333 3.333h6c0.736 0 1.333-0.597 1.333-1.333s-0.597-1.333-1.333-1.333h-6c-0.367 0-0.667-0.299-0.667-0.667v-21.333c0-0.367 0.299-0.667 0.667-0.667h25.333c0.367 0 0.667 0.299 0.667 0.667v5.333c0 0.736 0.597 1.333 1.333 1.333s1.333-0.597 1.333-1.333v-5.333c0-1.838-1.495-3.333-3.333-3.333z"></path>
<path fill="#333333" d="M24 23.667h-2c-0.736 0-1.333 0.597-1.333 1.333s0.597 1.333 1.333 1.333h2c0.736 0 1.333-0.597 1.333-1.333s-0.597-1.333-1.333-1.333z"></path>
<path fill="#333333" d="M30 18.667h-1.667v-0.667c0-2.941-2.393-5.333-5.333-5.333s-5.333 2.393-5.333 5.333v0.667h-1.667c-0.736 0-1.333 0.597-1.333 1.333v10c0 0.736 0.597 1.333 1.333 1.333h14c0.736 0 1.333-0.597 1.333-1.333v-10c0-0.737-0.597-1.333-1.333-1.333zM20.333 18c0-1.471 1.196-2.667 2.667-2.667s2.667 1.196 2.667 2.667v0.667h-5.333v-0.667zM28.667 28.667h-11.333v-7.333h11.333v7.333z"></path>
</svg>
