<?xml version="1.0" encoding="utf-8"?>
<!-- Generated by IcoMoon.io -->
<!DOCTYPE svg PUBLIC "-//W3C//DTD SVG 1.1//EN" "http://www.w3.org/Graphics/SVG/1.1/DTD/svg11.dtd">
<svg version="1.1" xmlns="http://www.w3.org/2000/svg" xmlns:xlink="http://www.w3.org/1999/xlink" width="32" height="32" viewBox="0 0 32 32">
<path fill="#333333" d="M27.667 8c0 0.92-0.746 1.667-1.667 1.667s-1.667-0.746-1.667-1.667c0-0.92 0.746-1.667 1.667-1.667s1.667 0.746 1.667 1.667z"></path>
<path fill="#333333" d="M23 8c0 0.92-0.746 1.667-1.667 1.667s-1.667-0.746-1.667-1.667c0-0.92 0.746-1.667 1.667-1.667s1.667 0.746 1.667 1.667z"></path>
<path fill="#333333" d="M18.333 8c0 0.92-0.746 1.667-1.667 1.667s-1.667-0.746-1.667-1.667c0-0.92 0.746-1.667 1.667-1.667s1.667 0.746 1.667 1.667z"></path>
<path fill="#333333" d="M22 12c-5.533 0-10 4.467-10 10s4.467 10 10 10 10-4.467 10-10-4.467-10-10-10zM22 14.667c1.533 0 3 0.467 4.133 1.267l-10.2 10.2c-0.8-1.133-1.267-2.6-1.267-4.133 0-4.067 3.267-7.333 7.333-7.333zM22 29.333c-1.533 0-3-0.467-4.133-1.267l10.2-10.2c0.8 1.2 1.267 2.6 1.267 4.133 0 4.067-3.267 7.333-7.333 7.333z"></path>
<path fill="#333333" d="M9.333 30h-6c-1.867 0-3.333-1.467-3.333-3.333v-21.333c0-1.867 1.467-3.333 3.333-3.333h25.333c1.867 0 3.333 1.467 3.333 3.333v5.333c0 0.733-0.6 1.333-1.333 1.333s-1.333-0.6-1.333-1.333v-5.333c0-0.4-0.267-0.667-0.667-0.667h-25.333c-0.4 0-0.667 0.267-0.667 0.667v21.333c0 0.4 0.267 0.667 0.667 0.667h6c0.733 0 1.333 0.6 1.333 1.333s-0.6 1.333-1.333 1.333z"></path>
</svg>
