<?xml version="1.0" encoding="utf-8"?>
<!-- Generated by IcoMoon.io -->
<!DOCTYPE svg PUBLIC "-//W3C//DTD SVG 1.1//EN" "http://www.w3.org/Graphics/SVG/1.1/DTD/svg11.dtd">
<svg version="1.1" xmlns="http://www.w3.org/2000/svg" xmlns:xlink="http://www.w3.org/1999/xlink" width="32" height="32" viewBox="0 0 32 32">
<path fill="#333333" d="M4.647 7.832c0.021-0.011 2.186-1.165 5.353-1.165 1.696 0 3.281 0.847 4.959 1.743 1.981 1.058 4.227 2.257 7.041 2.257 3.901 0 6.537-1.44 6.647-1.501 0.644-0.357 0.875-1.169 0.518-1.813s-1.169-0.877-1.813-0.518c-0.021 0.011-2.187 1.165-5.353 1.165-2.147 0-3.914-0.944-5.785-1.943-1.894-1.011-3.852-2.057-6.215-2.057-3.901 0-6.537 1.44-6.647 1.501-0.644 0.357-0.875 1.169-0.518 1.813s1.169 0.877 1.813 0.518z"></path>
<path fill="#333333" d="M27.353 15.502c-0.021 0.011-2.186 1.165-5.353 1.165-2.147 0-3.914-0.944-5.785-1.943-1.894-1.011-3.852-2.057-6.215-2.057-3.901 0-6.537 1.44-6.647 1.501-0.644 0.357-0.875 1.169-0.518 1.813s1.169 0.877 1.813 0.518c0.021-0.011 2.186-1.165 5.353-1.165 1.696 0 3.281 0.847 4.959 1.743 1.981 1.058 4.227 2.257 7.041 2.257 3.901 0 6.537-1.44 6.647-1.501 0.644-0.357 0.875-1.169 0.518-1.813s-1.169-0.876-1.813-0.518z"></path>
<path fill="#333333" d="M27.353 24.168c-0.021 0.011-2.187 1.165-5.353 1.165-2.147 0-3.914-0.944-5.785-1.943-1.894-1.011-3.852-2.057-6.215-2.057-3.901 0-6.537 1.44-6.647 1.501-0.644 0.357-0.875 1.169-0.518 1.813s1.169 0.877 1.813 0.518c0.021-0.011 2.186-1.165 5.353-1.165 1.696 0 3.281 0.847 4.959 1.743 1.981 1.058 4.227 2.257 7.041 2.257 3.901 0 6.537-1.44 6.647-1.501 0.644-0.357 0.875-1.169 0.518-1.813s-1.169-0.877-1.813-0.518z"></path>
</svg>
