<?xml version="1.0" encoding="utf-8"?>
<!-- Generated by IcoMoon.io -->
<!DOCTYPE svg PUBLIC "-//W3C//DTD SVG 1.1//EN" "http://www.w3.org/Graphics/SVG/1.1/DTD/svg11.dtd">
<svg version="1.1" xmlns="http://www.w3.org/2000/svg" xmlns:xlink="http://www.w3.org/1999/xlink" width="32" height="32" viewBox="0 0 32 32">
<path fill="#333333" d="M28.667 2h-25.333c-1.838 0-3.333 1.495-3.333 3.333v21.333c0 1.838 1.495 3.333 3.333 3.333h8c0.736 0 1.333-0.597 1.333-1.333s-0.597-1.333-1.333-1.333h-8c-0.368 0-0.667-0.299-0.667-0.667v-21.333c0-0.367 0.299-0.667 0.667-0.667h25.333c0.368 0 0.667 0.299 0.667 0.667v7.333c0 0.736 0.597 1.333 1.333 1.333s1.333-0.597 1.333-1.333v-7.333c0-1.838-1.495-3.333-3.333-3.333z"></path>
<path fill="#333333" d="M27.667 8c0 0.92-0.746 1.667-1.667 1.667s-1.667-0.746-1.667-1.667c0-0.92 0.746-1.667 1.667-1.667s1.667 0.746 1.667 1.667z"></path>
<path fill="#333333" d="M23 8c0 0.92-0.746 1.667-1.667 1.667s-1.667-0.746-1.667-1.667c0-0.92 0.746-1.667 1.667-1.667s1.667 0.746 1.667 1.667z"></path>
<path fill="#333333" d="M18.333 8c0 0.92-0.746 1.667-1.667 1.667s-1.667-0.746-1.667-1.667c0-0.92 0.746-1.667 1.667-1.667s1.667 0.746 1.667 1.667z"></path>
<path fill="#333333" d="M27.847 25.961c0.932-1.308 1.487-2.903 1.487-4.628 0-4.411-3.589-8-8-8s-8 3.589-8 8 3.589 8 8 8c1.725 0 3.32-0.555 4.628-1.486l3.763 3.763c0.261 0.26 0.601 0.39 0.943 0.39s0.682-0.13 0.943-0.391c0.521-0.521 0.521-1.365 0-1.885l-3.763-3.763zM16 21.333c0-2.941 2.393-5.333 5.333-5.333s5.333 2.393 5.333 5.333-2.393 5.333-5.333 5.333-5.333-2.393-5.333-5.333z"></path>
</svg>
