<?xml version="1.0" encoding="utf-8"?>
<!-- Generated by IcoMoon.io -->
<!DOCTYPE svg PUBLIC "-//W3C//DTD SVG 1.1//EN" "http://www.w3.org/Graphics/SVG/1.1/DTD/svg11.dtd">
<svg version="1.1" xmlns="http://www.w3.org/2000/svg" xmlns:xlink="http://www.w3.org/1999/xlink" width="32" height="32" viewBox="0 0 32 32">
<path fill="#333333" d="M27.667 8c0 0.92-0.746 1.667-1.667 1.667s-1.667-0.746-1.667-1.667c0-0.92 0.746-1.667 1.667-1.667s1.667 0.746 1.667 1.667z"></path>
<path fill="#333333" d="M23 8c0 0.92-0.746 1.667-1.667 1.667s-1.667-0.746-1.667-1.667c0-0.92 0.746-1.667 1.667-1.667s1.667 0.746 1.667 1.667z"></path>
<path fill="#333333" d="M18.333 8c0 0.92-0.746 1.667-1.667 1.667s-1.667-0.746-1.667-1.667c0-0.92 0.746-1.667 1.667-1.667s1.667 0.746 1.667 1.667z"></path>
<path fill="#333333" d="M28.667 2h-25.333c-1.838 0-3.333 1.495-3.333 3.333v21.333c0 1.838 1.495 3.333 3.333 3.333h7.333c0.736 0 1.333-0.597 1.333-1.333s-0.597-1.333-1.333-1.333h-7.333c-0.368 0-0.667-0.299-0.667-0.667v-21.333c0-0.367 0.299-0.667 0.667-0.667h25.333c0.368 0 0.667 0.299 0.667 0.667v4c0 0.736 0.597 1.333 1.333 1.333s1.333-0.597 1.333-1.333v-4c0-1.838-1.495-3.333-3.333-3.333z"></path>
<path fill="#333333" d="M30.667 14c-0.736 0-1.333 0.597-1.333 1.333v2.472c-1.625-1.952-4.059-3.139-6.667-3.139-4.779 0-8.667 3.888-8.667 8.667s3.888 8.667 8.667 8.667c2.085 0 4.101-0.751 5.675-2.116 0.556-0.483 0.616-1.325 0.133-1.881s-1.323-0.617-1.881-0.134c-1.089 0.944-2.484 1.464-3.928 1.464-3.309 0-6-2.692-6-6s2.691-6 6-6c2.015 0 3.88 1.024 4.983 2.667h-2.316c-0.736 0-1.333 0.597-1.333 1.333s0.597 1.333 1.333 1.333h5.333c0.736 0 1.333-0.597 1.333-1.333v-6c0-0.736-0.597-1.333-1.333-1.333z"></path>
</svg>
