<?xml version="1.0" encoding="utf-8"?>
<!-- Generated by IcoMoon.io -->
<!DOCTYPE svg PUBLIC "-//W3C//DTD SVG 1.1//EN" "http://www.w3.org/Graphics/SVG/1.1/DTD/svg11.dtd">
<svg version="1.1" xmlns="http://www.w3.org/2000/svg" xmlns:xlink="http://www.w3.org/1999/xlink" width="32" height="32" viewBox="0 0 32 32">
<path fill="#333333" d="M16 1.333c-8.087 0-14.667 6.579-14.667 14.667s6.579 14.667 14.667 14.667 14.667-6.579 14.667-14.667-6.579-14.667-14.667-14.667zM16 28c-6.617 0-12-5.383-12-12s5.383-12 12-12 12 5.383 12 12-5.383 12-12 12z"></path>
<path fill="#333333" d="M10.8 15.733l2.667-2.001c0.335-0.252 0.533-0.647 0.533-1.067s-0.198-0.815-0.534-1.067l-2.667-1.999c-0.588-0.441-1.425-0.322-1.867 0.267s-0.322 1.425 0.267 1.867l1.245 0.933-1.244 0.933c-0.589 0.442-0.709 1.278-0.267 1.867 0.262 0.349 0.663 0.533 1.068 0.533 0.278 0 0.559-0.087 0.799-0.267z"></path>
<path fill="#333333" d="M22.121 18.93c-0.591-0.435-1.423-0.307-1.861 0.28-0.065 0.087-1.615 2.123-4.261 2.123-2.582 0-4.234-2.091-4.27-2.138-0.443-0.584-1.276-0.702-1.863-0.261-0.589 0.442-0.709 1.277-0.267 1.867 0.097 0.131 2.445 3.199 6.399 3.199 4.031 0 6.319-3.085 6.413-3.217 0.431-0.593 0.299-1.419-0.291-1.853z"></path>
<path fill="#333333" d="M22.667 12.667c0 1.105-0.895 2-2 2s-2-0.895-2-2c0-1.105 0.895-2 2-2s2 0.895 2 2z"></path>
</svg>
