<?xml version="1.0" encoding="utf-8"?>
<!-- Generated by IcoMoon.io -->
<!DOCTYPE svg PUBLIC "-//W3C//DTD SVG 1.1//EN" "http://www.w3.org/Graphics/SVG/1.1/DTD/svg11.dtd">
<svg version="1.1" xmlns="http://www.w3.org/2000/svg" xmlns:xlink="http://www.w3.org/1999/xlink" width="32" height="32" viewBox="0 0 32 32">
<path fill="#333333" d="M19.566 15.059c0-0.831 0-1.798-0.003-2.893-0.146 0.179-0.359 0.341-0.626 0.49-0.473 0.262-0.824 0.444-1.042 0.554-0.22 0.107-0.362 0.227-0.424 0.362-0.067 0.134-0.103 0.209-0.103 0.217l0.019 8.563c0.377 0 0.639-0.014 0.781-0.035 0.298-0.015 0.59-0.145 0.878-0.391 0.32-0.275 0.493-0.609 0.522-0.993v-5.874z"></path>
<path fill="#333333" d="M25.557 14.226c-0.028-0.040-0.199-0.306-0.527-0.786l-1.571-2.362c-0.288-0.351-0.637-0.594-1.055-0.722l-1.942-0.12 4.065 6.051 0.019 0.021h-0.019l-4.065 6.047h0.995c0.373-0.014 0.685-0.050 0.931-0.115 0.412-0.132 0.768-0.365 1.073-0.696l1.571-2.394c0.328-0.479 0.499-0.733 0.527-0.762 0.077-0.134 0.181-0.232 0.31-0.307 0.035-0.013 0.078-0.026 0.122-0.036 0.025 0.010 0.057 0.024 0.090 0.036 0.129 0.075 0.239 0.174 0.332 0.307 0.022 0.029 0.196 0.285 0.511 0.762l1.592 2.394c0.075 0.099 0.167 0.191 0.269 0.266 0.256 0.198 0.515 0.341 0.799 0.43 0.244 0.065 0.555 0.102 0.931 0.115h0.999l-4.063-6.048v-0.021l4.061-6.051h-0.999c-0.376 0.013-0.687 0.053-0.931 0.12-0.426 0.128-0.779 0.371-1.069 0.722l-1.592 2.362c-0.316 0.48-0.49 0.746-0.511 0.786-0.093 0.115-0.203 0.213-0.332 0.289-0.033 0.011-0.067 0.026-0.090 0.044-0.044-0.018-0.088-0.033-0.122-0.044-0.128-0.075-0.232-0.173-0.309-0.288z"></path>
<path fill="#333333" d="M19.359 11.592c0.245-0.47 0.342-0.935 0.296-1.405-0.474 0.054-0.85 0.134-1.135 0.234-0.225 0.107-0.423 0.249-0.6 0.445-0.149 0.157-0.26 0.335-0.332 0.536-0.063 0.122-0.109 0.257-0.131 0.406-0.075 0.402-0.106 0.807-0.079 1.219 0.287-0.223 0.572-0.385 0.854-0.488 0.284-0.102 0.509-0.221 0.679-0.373 0.16-0.143 0.314-0.335 0.448-0.573z"></path>
<path fill="#333333" d="M15.513 10.354c-0.248 0.049-0.459 0.15-0.647 0.305-0.217 0.223-0.373 0.497-0.461 0.821l-1.772 6.927-1.408-5.306c-0.14-0.444-0.26-0.8-0.366-1.075-0.128-0.314-0.256-0.537-0.385-0.661-0.299-0.309-0.654-0.509-1.074-0.607-0.074-0.008-0.154-0.021-0.248-0.032h-0.39c-0.081 0.011-0.16 0.024-0.23 0.032-0.434 0.081-0.793 0.281-1.091 0.607-0.129 0.124-0.263 0.348-0.395 0.661-0.111 0.275-0.239 0.632-0.373 1.074l-1.391 5.308-1.775-6.905-0.138-0.41c-0.142-0.232-0.301-0.41-0.484-0.524-0.288-0.185-0.679-0.296-1.17-0.332-0.504-0.014-0.776-0.004-0.813 0.022l3.208 12.061c0.287 0.021 0.584 0.015 0.896-0.025 0.235-0.022 0.461-0.106 0.676-0.252 0.118-0.107 0.232-0.206 0.332-0.31 0.093-0.075 0.17-0.17 0.237-0.27 0.075-0.107 0.149-0.231 0.211-0.371 0.196-0.508 0.38-1.012 0.562-1.518l1.575-6.104 0.022-0.029c0.010-0.077 0.043-0.136 0.103-0.191 0.049-0.038 0.097-0.060 0.15-0.074 0.028-0.026 0.053-0.035 0.081-0.035 0.010 0 0.039 0.008 0.075 0.035 0.040 0.013 0.088 0.036 0.14 0.075 0.052 0.054 0.089 0.114 0.12 0.191l0.015 0.028 1.55 6.104c0.188 0.508 0.38 1.010 0.587 1.518 0.052 0.142 0.128 0.264 0.216 0.371 0.061 0.102 0.132 0.195 0.218 0.27 0.114 0.104 0.224 0.203 0.326 0.31 0.217 0.146 0.448 0.231 0.696 0.252 0.302 0.040 0.601 0.044 0.897 0.025l3.149-12.083c-0.474-0.013-0.953 0.026-1.433 0.12z"></path>
</svg>
