<?xml version="1.0" encoding="utf-8"?>
<!-- Generated by IcoMoon.io -->
<!DOCTYPE svg PUBLIC "-//W3C//DTD SVG 1.1//EN" "http://www.w3.org/Graphics/SVG/1.1/DTD/svg11.dtd">
<svg version="1.1" xmlns="http://www.w3.org/2000/svg" xmlns:xlink="http://www.w3.org/1999/xlink" width="32" height="32" viewBox="0 0 32 32">
<path fill="#333333" d="M30.667 14h-3.432l2.065-9.036c0.164-0.718-0.285-1.433-1.003-1.597-0.715-0.163-1.433 0.285-1.597 1.003l-2.201 9.631h-4.445l-2.771-9.699c-0.163-0.573-0.687-0.967-1.282-0.967s-1.119 0.395-1.282 0.967l-2.771 9.699h-4.446l-2.201-9.631c-0.164-0.717-0.878-1.166-1.597-1.003-0.717 0.164-1.167 0.879-1.003 1.597l2.065 9.036h-3.432c-0.736 0-1.333 0.597-1.333 1.333s0.597 1.333 1.333 1.333h4.042l2.659 11.631c0.136 0.593 0.655 1.019 1.264 1.036 0.611 0.016 1.151-0.381 1.318-0.967l3.342-11.7h4.084l3.343 11.699c0.164 0.574 0.688 0.967 1.281 0.967 0.012 0 0.024 0 0.036 0 0.609-0.017 1.128-0.443 1.264-1.036l2.659-11.631h4.042c0.736 0 1.333-0.597 1.333-1.333s-0.597-1.333-1.333-1.333zM9.477 22.644l-1.366-5.977h3.074l-1.708 5.977zM14.72 14l1.28-4.48 1.28 4.48h-2.56zM22.523 22.644l-1.708-5.977h3.074l-1.366 5.977z"></path>
</svg>
