<?xml version="1.0" encoding="utf-8"?>
<!-- Generated by IcoMoon.io -->
<!DOCTYPE svg PUBLIC "-//W3C//DTD SVG 1.1//EN" "http://www.w3.org/Graphics/SVG/1.1/DTD/svg11.dtd">
<svg version="1.1" xmlns="http://www.w3.org/2000/svg" xmlns:xlink="http://www.w3.org/1999/xlink" width="32" height="32" viewBox="0 0 32 32">
<path fill="#333333" d="M15.948 2.794c-7.215 0-13.166 5.895-13.166 13.165 0 7.272 6.106 13.27 13.32 13.27s13.114-6.051 13.114-13.322c0-7.27-6.055-13.113-13.269-13.113zM5 20.138c0 0-1.718-4.406 0.25-9.049l5.626 15.478c-0.001 0-3.833-1.554-5.877-6.429zM12.696 27.235l3.521-10.276 3.655 10.113c0 0-3.494 1.436-7.176 0.163zM17.614 10.349c0 0 0.646-0.019 1.156-0.088 0 0 0.754 0.082 0.6-0.672 0 0-0.061-0.384-0.84-0.262 0 0-2.244 0.203-5.429 0.008 0 0-1.038-0.217-0.966 0.47 0 0-0.189 0.605 1.718 0.543l1.792 5.056-2.581 7.766-4.264-12.786c0 0 1.35-0.054 1.49-0.163 0 0 0.419-0.122 0.23-0.668 0 0-0.013-0.307-1.038-0.217l-3.3 0.072c0 0 3.046-5.255 9.856-5.345 0 0 4.435-0.163 7.937 3.115 0 0-2.471-0.1-2.069 2.699 0 0 0.097 0.704 0.975 1.987 0 0 1.041 1.77 0.968 2.528 0 0 0.359 1.553-0.682 4.299l-1.29 4.334-4.264-12.678zM21.914 26.177l3.818-11.189c1.020-2.383 0.591-4.712 0.591-4.712 2.714 5.119 0.698 9.832 0.698 9.832-1.639 4.227-5.107 6.069-5.107 6.069z"></path>
</svg>
