<?xml version="1.0" encoding="utf-8"?>
<!-- Generated by IcoMoon.io -->
<!DOCTYPE svg PUBLIC "-//W3C//DTD SVG 1.1//EN" "http://www.w3.org/Graphics/SVG/1.1/DTD/svg11.dtd">
<svg version="1.1" xmlns="http://www.w3.org/2000/svg" xmlns:xlink="http://www.w3.org/1999/xlink" width="32" height="32" viewBox="0 0 32 32">
<path fill="#333333" d="M31.029 6.542c-0.035-0.111-0.086-0.213-0.144-0.308-0.065-0.179-0.165-0.349-0.307-0.492-0.521-0.524-1.363-0.521-1.88 0.005l-3.573 3.643-2.711-2.731 3.601-3.673c0.518-0.527 0.515-1.38-0.006-1.905-0.187-0.188-0.417-0.307-0.657-0.359-0.053-0.024-0.104-0.050-0.161-0.069-0.847-0.263-1.715-0.408-2.625-0.395-2.361 0.007-4.58 0.945-6.246 2.642s-2.581 3.951-2.575 6.345c0.001 0.192 0.005 0.376 0.016 0.569l-11.592 11.884c-2.251 2.319-2.223 6.062 0.063 8.345 1.097 1.095 2.544 1.696 4.083 1.696 0.015 0 0.031 0 0.046 0 1.555-0.012 3.012-0.637 4.101-1.758l11.538-11.829c0.193 0.013 0.387 0.035 0.576 0.035 0.012 0 0.023 0 0.035 0 2.361-0.007 4.58-0.945 6.247-2.642s2.581-3.95 2.574-6.343c-0.002-0.907-0.138-1.802-0.403-2.661zM22.603 15.495c-0.244-0.007-0.514-0.015-0.774-0.046-0.167-0.019-0.329-0.004-0.481 0.034-0.315 0.020-0.624 0.147-0.863 0.392l-11.913 12.215c-0.593 0.611-1.384 0.95-2.229 0.957-0.836 0.020-1.642-0.321-2.243-0.921-1.242-1.241-1.258-3.275-0.036-4.533l11.937-12.239c0.125-0.127 0.217-0.275 0.281-0.431 0.149-0.255 0.221-0.559 0.175-0.876-0.039-0.268-0.052-0.471-0.053-0.805-0.005-1.675 0.635-3.25 1.801-4.438 1.096-1.117 2.537-1.757 4.080-1.832l-2.028 2.069c-0.428 0.435-0.663 1.015-0.66 1.63 0.001 0.615 0.239 1.192 0.669 1.626l3.26 3.285c0.429 0.431 0.996 0.668 1.599 0.668 0.003 0 0.005 0 0.008 0 0.608-0.001 1.177-0.243 1.604-0.679l2.023-2.063c-0.069 1.563-0.691 3.025-1.787 4.141-1.165 1.188-2.717 1.845-4.371 1.849z"></path>
<path fill="#333333" d="M8.503 25.311c0 0.942-0.753 1.705-1.682 1.705s-1.682-0.764-1.682-1.705c0-0.942 0.753-1.705 1.682-1.705s1.682 0.764 1.682 1.705z"></path>
</svg>
