<?xml version="1.0" encoding="utf-8"?>
<!-- Generated by IcoMoon.io -->
<!DOCTYPE svg PUBLIC "-//W3C//DTD SVG 1.1//EN" "http://www.w3.org/Graphics/SVG/1.1/DTD/svg11.dtd">
<svg version="1.1" xmlns="http://www.w3.org/2000/svg" xmlns:xlink="http://www.w3.org/1999/xlink" width="32" height="32" viewBox="0 0 32 32">
<path fill="#333333" d="M12.44 14.195l4.296-6.056c0.208-0.313-0.097-0.428-0.252-0.428s-1.952 0-1.952 0c-0.187 0-0.304 0.096-0.417 0.261 0 0-3.092 4.369-3.148 4.443-0.039 0.047-0.125 0.191-0.011 0.356 0.365 0.516 1.015 1.435 1.037 1.468 0.071 0.101 0.281 0.175 0.447-0.044z"></path>
<path fill="#333333" d="M10.125 17.549l4.659 6.553c0.064 0.091 0.185 0.191 0.325 0.191h1.975c0.324 0 0.376-0.2 0.231-0.405l-11.26-15.917c-0.115-0.165-0.235-0.261-0.417-0.261 0 0-1.797 0-1.953 0s-0.464 0.115-0.256 0.429c0 0 5.117 7.195 5.169 7.273 0.079 0.121 0.079 0.143 0 0.265l-5.855 8.207c-0.145 0.2-0.093 0.401 0.232 0.401h1.976c0.139 0 0.26-0.097 0.324-0.189 0 0 4.673-6.501 4.701-6.547 0.032-0.040 0.1-0.061 0.149 0z"></path>
<path fill="#333333" d="M21.139 22.327c-0.127 0-0.22-0.079-0.22-0.221v-5.177c0-0.14 0.093-0.217 0.22-0.217h7.476c0.208 0 0.369-0.191 0.369-0.38v-1.255c0-0.215-0.161-0.379-0.369-0.379h-7.476c-0.127 0-0.22-0.077-0.22-0.22v-4.561c0-0.14 0.093-0.216 0.22-0.216h7.824c0.208-0.001 0.371-0.192 0.371-0.383v-1.231c0-0.215-0.163-0.38-0.371-0.38h-8.996c-0.717 0-1.253 0.444-1.253 1.257v14.068c0 0.809 0.536 1.256 1.253 1.256l8.996 0.007c0.208 0 0.371-0.167 0.371-0.38v-1.208c0-0.215-0.163-0.38-0.371-0.38h-7.824z"></path>
</svg>
