<?xml version="1.0" encoding="utf-8"?>
<!-- Generated by IcoMoon.io -->
<!DOCTYPE svg PUBLIC "-//W3C//DTD SVG 1.1//EN" "http://www.w3.org/Graphics/SVG/1.1/DTD/svg11.dtd">
<svg version="1.1" xmlns="http://www.w3.org/2000/svg" xmlns:xlink="http://www.w3.org/1999/xlink" width="32" height="32" viewBox="0 0 32 32">
<path fill="#333333" d="M18.752 18.534c1.574 2.994 3.221 5.948 4.905 8.99 0.229 0.414 0.613 0.991 0.449 1.35-0.218 0.482-1.307 0.287-2.166 0.287-1.010 0-1.907 0.182-2.572-0.041-0.681-0.227-1.294-1.914-1.636-2.534-1.445-2.627-2.987-5.446-4.414-8.010 2.448-4.468 5.335-9.364 7.887-13.978 0.393-0.706 0.711-1.747 1.635-1.798 0.438-0.025 1.313 0.041 2.209 0.041 0.74 0 1.884-0.108 2.083 0.204 0.342 0.537-0.56 1.576-0.817 2.044-2.497 4.531-5.092 8.957-7.564 13.447z"></path>
<path fill="#333333" d="M5.306 21.271c-0.14 0.016-0.438-0.141-0.489-0.328-0.122-0.426 0.245-0.768 0.408-1.063 1.113-1.979 2.029-3.643 3.147-5.639 0.137-0.246 0.522-0.707 0.53-0.899 0.013-0.287-0.493-0.991-0.653-1.266-0.501-0.867-0.966-1.615-1.43-2.412-0.198-0.341-0.595-0.706-0.49-1.35 0.044-0.201 0.235-0.255 0.451-0.287 1.305 0 2.616 0 3.923 0 0.74 0.011 0.983 0.746 1.307 1.309 0.749 1.306 1.627 2.736 2.287 3.964-1.069 1.914-2.26 4.034-3.433 6.090-0.369 0.65-0.784 1.782-1.593 1.881-1.322 0-2.644 0-3.966 0z"></path>
</svg>
