<?xml version="1.0" encoding="utf-8"?>
<!-- Generated by IcoMoon.io -->
<!DOCTYPE svg PUBLIC "-//W3C//DTD SVG 1.1//EN" "http://www.w3.org/Graphics/SVG/1.1/DTD/svg11.dtd">
<svg version="1.1" xmlns="http://www.w3.org/2000/svg" xmlns:xlink="http://www.w3.org/1999/xlink" width="32" height="32" viewBox="0 0 32 32">
<path fill="#333333" d="M27.016 19.431l-3.308-3.438c0.17-0.145 0.34-0.298 0.509-0.467l2.233-2.294c3.627-3.61 1.311-6.328-0.029-7.677-1.433-1.439-4.096-3.455-7.044-0.519l-3.379 3.243-2.876-2.815c-3.553-3.571-6.273-1.254-7.622 0.085-1.437 1.433-3.45 4.095-0.516 7.046l3.304 3.435c-0.168 0.146-0.338 0.299-0.508 0.467l-2.232 2.294c-3.63 3.61-1.311 6.328 0.031 7.676 1.43 1.439 4.093 3.453 7.044 0.519l3.377-3.243 2.876 2.802c3.566 3.622 6.272 1.27 7.62-0.072 1.441-1.432 3.455-4.092 0.52-7.041zM19.858 5.448c1.016-0.991 2.461-1.625 3.758-0.771 1.813 1.276 1.166 2.961-0.209 4.333 0 0-1.27 1.286-1.341 1.361-0.768 0.764-1.421 1.059-1.994 1.057-0.651 0-1.238-0.403-1.885-1.005l-1.728-1.696 3.399-3.279zM12.145 26.575c-1.014 0.991-2.46 1.625-3.757 0.771-1.813-1.276-1.169-2.961 0.206-4.333 0 0 1.272-1.286 1.344-1.359 0.768-0.764 1.418-1.057 1.994-1.057 0.653 0.001 1.237 0.405 1.884 1.007l1.731 1.692-3.402 3.279zM23.055 23.449l-7.238-7.082c-2.005-2.013-4.508-2.559-7.002-0.749l-3.405-3.516c-0.989-1.020-1.626-2.464-0.775-3.761 1.279-1.814 2.945-1.141 4.319 0.231l7.236 7.078c2.005 2.019 4.497 2.567 6.991 0.757l3.417 3.51c0.991 1.017 1.626 2.46 0.774 3.759-1.277 1.816-2.944 1.144-4.317-0.228z"></path>
</svg>
