<?xml version="1.0" encoding="utf-8"?>
<!-- Generated by IcoMoon.io -->
<!DOCTYPE svg PUBLIC "-//W3C//DTD SVG 1.1//EN" "http://www.w3.org/Graphics/SVG/1.1/DTD/svg11.dtd">
<svg version="1.1" xmlns="http://www.w3.org/2000/svg" xmlns:xlink="http://www.w3.org/1999/xlink" width="32" height="32" viewBox="0 0 32 32">
<path fill="#333333" d="M26.826 0.953c-0.577-0.455-1.416-0.358-1.873 0.221l-8.954 11.341-8.953-11.341c-0.456-0.579-1.294-0.676-1.872-0.221-0.578 0.457-0.677 1.295-0.22 1.873l9.347 11.841h-6.301c-0.736 0-1.333 0.597-1.333 1.333s0.597 1.333 1.333 1.333h6.666v2.667h-6.666c-0.736 0-1.333 0.597-1.333 1.333s0.597 1.333 1.333 1.333h6.666v8c0 0.736 0.597 1.333 1.333 1.333s1.333-0.597 1.333-1.333v-8h6.667c0.736 0 1.333-0.597 1.333-1.333s-0.597-1.333-1.333-1.333h-6.667v-2.667h6.667c0.736 0 1.333-0.597 1.333-1.333s-0.597-1.333-1.333-1.333h-6.302l9.348-11.841c0.457-0.577 0.358-1.416-0.22-1.873z"></path>
</svg>
