<?xml version="1.0" encoding="utf-8"?>
<!-- Generated by IcoMoon.io -->
<!DOCTYPE svg PUBLIC "-//W3C//DTD SVG 1.1//EN" "http://www.w3.org/Graphics/SVG/1.1/DTD/svg11.dtd">
<svg version="1.1" xmlns="http://www.w3.org/2000/svg" xmlns:xlink="http://www.w3.org/1999/xlink" width="32" height="32" viewBox="0 0 32 32">
<path fill="#333333" d="M13.861 11.513c-2.338-2.324-4.575-4.55-6.797-6.763 0.776-0.721 1.509-1.4 2.326-2.159 2.077 2.136 4.291 4.414 6.52 6.707 2.368-2.384 4.587-4.618 6.794-6.839 0.8 0.849 1.486 1.576 2.234 2.37-0.096 0.102-0.316 0.347-0.548 0.579-3.995 3.992-7.986 7.986-11.99 11.973-1.501 1.496-2.060 3.274-1.565 5.34 0.515 2.145 2.348 3.744 4.534 4.010 2.248 0.276 4.404-0.832 5.453-2.802 1.047-1.964 0.841-4.379-0.644-6.013-0.849-0.933-1.861-1.719-2.79-2.562 0.922-0.875 1.643-1.564 2.413-2.295 2.399 2.176 4.844 4.448 4.833 8.243-0.014 4.314-3.165 8.007-7.401 8.566-4.277 0.567-8.351-2.092-9.446-6.245-0.822-3.109-0.076-5.877 2.138-8.207 1.244-1.304 2.562-2.541 3.938-3.9z"></path>
</svg>
