<?xml version="1.0" encoding="utf-8"?>
<!-- Generated by IcoMoon.io -->
<!DOCTYPE svg PUBLIC "-//W3C//DTD SVG 1.1//EN" "http://www.w3.org/Graphics/SVG/1.1/DTD/svg11.dtd">
<svg version="1.1" xmlns="http://www.w3.org/2000/svg" xmlns:xlink="http://www.w3.org/1999/xlink" width="32" height="32" viewBox="0 0 32 32">
<path fill="#333333" d="M28.618 10.611c-0.405-1.527-0.899-2.471-1.482-3.008-0.582-0.54-1.794-0.675-11.135-0.675s-10.553 0.135-11.135 0.675c-0.584 0.537-1.080 1.481-1.481 3.008-0.408 1.526-0.45 5.388-0.45 5.388 0 5.074 0.896 7.589 2.064 8.442s11.002 0.629 11.002 0.629 9.833 0.225 11.002-0.629c1.169-0.854 2.064-3.368 2.064-8.442 0 0-0.044-3.862-0.449-5.388zM13.353 20.804v-9.611l7.361 4.805-7.361 4.805z"></path>
</svg>
