<?xml version="1.0" encoding="utf-8"?>
<!-- Generated by IcoMoon.io -->
<!DOCTYPE svg PUBLIC "-//W3C//DTD SVG 1.1//EN" "http://www.w3.org/Graphics/SVG/1.1/DTD/svg11.dtd">
<svg version="1.1" xmlns="http://www.w3.org/2000/svg" xmlns:xlink="http://www.w3.org/1999/xlink" width="32" height="32" viewBox="0 0 32 32">
<path fill="#333333" d="M6.667 5.333h18.667c0.736 0 1.333-0.597 1.333-1.333s-0.597-1.333-1.333-1.333h-18.667c-0.736 0-1.333 0.597-1.333 1.333s0.597 1.333 1.333 1.333z"></path>
<path fill="#333333" d="M28 22.057c-0.736 0-1.333 0.597-1.333 1.333v1.333c0 1.471-1.196 2.667-2.667 2.667s-2.667-1.196-2.667-2.667v-14.057h6.667c0.736 0 1.333-0.597 1.333-1.333s-0.597-1.333-1.333-1.333h-24c-0.736 0-1.333 0.597-1.333 1.333s0.597 1.333 1.333 1.333h6.667v9.943c0 4.857-1.565 5.463-6.99 6.82-0.714 0.179-1.149 0.903-0.97 1.617 0.152 0.606 0.695 1.011 1.292 1.011 0.107 0 0.216-0.013 0.325-0.040 5.231-1.308 9.010-2.253 9.010-9.407v-9.943h5.333v14.057c0 2.941 2.393 5.333 5.333 5.333s5.333-2.393 5.333-5.333v-1.333c0-0.737-0.597-1.333-1.333-1.333z"></path>
</svg>
