<?xml version="1.0" encoding="utf-8"?>
<!-- Generated by IcoMoon.io -->
<!DOCTYPE svg PUBLIC "-//W3C//DTD SVG 1.1//EN" "http://www.w3.org/Graphics/SVG/1.1/DTD/svg11.dtd">
<svg version="1.1" xmlns="http://www.w3.org/2000/svg" xmlns:xlink="http://www.w3.org/1999/xlink" width="32" height="32" viewBox="0 0 32 32">
<path fill="#333333" d="M5.519 5.379v20.961h20.961v-20.961h-20.961zM8.117 17.685c0 0-0.687 0.86-1.565 0.173 0 0-0.723-0.705-0.12-2.221 0 0 0.653-2.307 3.046-4.010 0 0 2.116-1.429 4.783-1.549 0 0 1.465-0.103 2.617 0.499 0 0 1.291 0.516 0.397 1.119 0 0-1.549 0.551-2.394 0.705 0 0-1.824 0.413-3.475 1.6 0 0-1.343 1.049-1.945 1.962 0 0-0.946 1.515-1.343 1.721zM17.924 12.917c0 0 0.58-0.685 1.69-0.479 0.486 0.089 1.201 0.544 1.408 1.305 0 0 0.683 1.923-1.084 2.568 0 0-1.408 0.438-2.323-0.646-0.001 0-0.945-1.123 0.309-2.749zM13.366 16.48c0 0-0.655 0.757-0.739 2.41 0 0-0.088 1.119 0.326 3.648 0 0 0.259 1.567 0.345 1.807 0 0 0.326 1.17-0.587 0.947 0 0-0.929-0.154-1.685-1.222 0 0-1.671-2.116-1.206-5.387 0 0 0.103-2.65 1.945-4.2 0 0 1.514-1.583 3.837-1.325 0 0 1.326 0.086 0.742 1.032 0 0-0.536 0.465-0.826 0.671 0.001 0-1.653 0.998-2.151 1.618zM23.244 21.539c0 0-0.842 1.549-3.046 1.997 0 0-1.788 0.397-3.786-1.119 0 0-1.636-1.17-1.859-2.805 0 0-0.206-1.791 0.861-3.132 0 0 1.323-1.635 1.565-0.154 0 0 0.088 1.756 0.259 2.272 0 0 0.568 1.6 2.617 1.721 0 0 1.323 0.103 2.478-0.378 0 0 1.014-0.345 1.375-0.017 0-0.001 0.536 0.153-0.465 1.615zM23.693 16.583c0 0-0.377 0.74-1.069 0.964 0 0-0.601 0.292-0.465-0.929 0 0 0.139-2.099-0.516-3.271 0 0-0.653-1.892-2.546-2.959 0 0-1.688-1.205-2.204-1.514 0 0-0.929-0.689-1.24-1.102 0 0-0.723-0.826 0.551-1.376 0 0 0.724-0.448 1.998-0.070 0 0 2.649 0.723 4.783 3.683 0 0 2.497 3.786 0.707 6.574z"></path>
<path fill="#333333" d="M6.706 4.141l0.207-1.498 11.978 1.472z"></path>
<path fill="#333333" d="M27.72 6.592l1.497 0.207-1.476 11.978z"></path>
<path fill="#333333" d="M25.479 27.581l-0.221 1.496-11.787-1.497z"></path>
<path fill="#333333" d="M4.281 25.177l-1.498-0.198 1.497-11.96z"></path>
</svg>
