<?xml version="1.0" encoding="utf-8"?>
<!-- Generated by IcoMoon.io -->
<!DOCTYPE svg PUBLIC "-//W3C//DTD SVG 1.1//EN" "http://www.w3.org/Graphics/SVG/1.1/DTD/svg11.dtd">
<svg version="1.1" xmlns="http://www.w3.org/2000/svg" xmlns:xlink="http://www.w3.org/1999/xlink" width="32" height="32" viewBox="0 0 32 32">
<path fill="#333333" d="M16 8.249c-4.403 0-5.509 4.153-5.509 7.675s1.107 7.676 5.509 7.676 5.509-4.153 5.509-7.675-1.107-7.676-5.509-7.676zM16 11.144c0.18 0 0.341 0.028 0.495 0.065 0.316 0.273 0.472 0.649 0.168 1.176l-2.931 5.388c-0.091-0.681-0.103-1.349-0.103-1.848 0-1.552 0.107-4.781 2.371-4.781zM18.195 13.628c0.155 0.827 0.177 1.691 0.177 2.297 0 1.551-0.108 4.78-2.371 4.78-0.179 0-0.343-0.019-0.495-0.056-0.028-0.008-0.056-0.019-0.084-0.028-0.047-0.015-0.095-0.029-0.139-0.047-0.504-0.215-0.821-0.603-0.364-1.288l3.275-5.659z"></path>
<path fill="#333333" d="M15.972 2.591c-3.697 0-6.815 1.288-9.356 3.875-1.285 1.287-2.268 2.755-2.951 4.389-0.667 1.619-0.999 3.308-0.999 5.069 0 1.777 0.332 3.467 0.999 5.071s1.635 3.047 2.905 4.332c1.285 1.269 2.728 2.251 4.332 2.932 1.619 0.667 3.307 0.999 5.069 0.999s3.476-0.344 5.127-1.028c1.651-0.683 3.124-1.664 4.425-2.949 1.255-1.223 2.204-2.624 2.839-4.212 0.651-1.601 0.971-3.317 0.971-5.144 0-1.809-0.32-3.523-0.972-5.127-0.651-1.619-1.603-3.051-2.857-4.304-2.619-2.603-5.803-3.903-9.532-3.903zM16.028 4.991c3.017 0 5.588 1.069 7.732 3.212 1.031 1.032 1.823 2.213 2.361 3.529 0.54 1.317 0.812 2.716 0.812 4.192 0 3.064-1.048 5.607-3.128 7.637-1.080 1.048-2.293 1.853-3.641 2.409-1.333 0.556-2.707 0.831-4.137 0.831-1.444 0-2.828-0.273-4.144-0.812-1.317-0.556-2.501-1.349-3.549-2.381-1.047-1.048-1.856-2.229-2.427-3.548-0.555-1.333-0.84-2.708-0.84-4.136 0-1.444 0.285-2.828 0.84-4.145 0.572-1.333 1.38-2.531 2.427-3.595 2.080-2.127 4.647-3.193 7.695-3.193z"></path>
</svg>
