<?xml version="1.0" encoding="utf-8"?>
<!-- Generator: Adobe Illustrator 18.1.1, SVG Export Plug-In . SVG Version: 6.00 Build 0)  -->
<svg version="1.1" id="Layer_1" xmlns="http://www.w3.org/2000/svg" xmlns:xlink="http://www.w3.org/1999/xlink" x="0px" y="0px"
	 viewBox="0 0 39.1 39.1" enable-background="new 0 0 39.1 39.1" xml:space="preserve">
<g>
	<g>
		<path d="M0,19.6C0,8.8,8.8,0,19.6,0l0,0c10.8,0,19.5,8.8,19.6,19.6l0,0c0,10.8-8.8,19.6-19.6,19.6l0,0C8.8,39.1,0,30.4,0,19.6
			L0,19.6z M3.6,19.6c0,8.8,7.2,16,16,16l0,0c8.8,0,16-7.2,16-16l0,0c0-8.8-7.2-16-16-16l0,0C10.7,3.6,3.6,10.7,3.6,19.6L3.6,19.6z"
			/>
	</g>
	<path d="M27.9,22.5c-0.3-0.1-0.5-0.2-0.8-0.2c-0.6,0-1.2,0.3-1.5,0.9c-1.1,2.2-3.4,3.7-6,3.7l0,0h-0.1l0,0c-2.6,0-4.8-1.5-5.9-3.7
		c-0.3-0.6-0.9-0.9-1.5-0.9c-0.3,0-0.5,0.1-0.8,0.2c-0.6,0.3-0.9,0.9-0.9,1.5c0,0.3,0.1,0.5,0.2,0.8l0,0c1.7,3.3,5.1,5.6,9.1,5.6
		c4,0,7.4-2.3,9.1-5.6c0.1-0.3,0.2-0.5,0.2-0.8C28.8,23.4,28.5,22.8,27.9,22.5z"/>
	<g>
		<path d="M14.4,13.8c0,1.2-0.9,2.1-2.1,2.1s-2.1-0.9-2.1-2.1c0-1.2,0.9-2.1,2.1-2.1S14.4,12.7,14.4,13.8z"/>
		<path d="M28.9,13.8c0,1.2-0.9,2.1-2.1,2.1c-1.2,0-2.1-0.9-2.1-2.1c0-1.2,0.9-2.1,2.1-2.1C28,11.7,28.9,12.7,28.9,13.8z"/>
	</g>
</g>
<g>
</g>
<g>
</g>
<g>
</g>
<g>
</g>
<g>
</g>
<g>
</g>
<g>
</g>
<g>
</g>
<g>
</g>
<g>
</g>
<g>
</g>
<g>
</g>
<g>
</g>
<g>
</g>
<g>
</g>
</svg>
