<?xml version="1.0" encoding="utf-8"?>
<!-- Generator: Adobe Illustrator 18.1.1, SVG Export Plug-In . SVG Version: 6.00 Build 0)  -->
<svg version="1.1" id="Layer_1" xmlns="http://www.w3.org/2000/svg" xmlns:xlink="http://www.w3.org/1999/xlink" x="0px" y="0px"
	 viewBox="0 0 40.6 40.6" enable-background="new 0 0 40.6 40.6" xml:space="preserve">
<g>
	<path d="M29.5,0H11.1C5,0,0,5,0,11.1v18.4c0,6.2,5,11.1,11.1,11.1h18.4c6.1,0,11.1-5,11.1-11.1V11.1C40.6,5,35.7,0,29.5,0z
		 M36.7,29.5c0,4-3.2,7.2-7.2,7.2H11.1c-4,0-7.2-3.2-7.2-7.2V11.1c0-4,3.2-7.2,7.2-7.2h18.4c4,0,7.2,3.2,7.2,7.2V29.5z"/>
	<path d="M11.2,10.7c-1.2,0-2.2,1-2.2,2.2v2.4c0,1.2,1,2.2,2.2,2.2c1.2,0,2.2-1,2.2-2.2v-2.4C13.4,11.7,12.4,10.7,11.2,10.7z"/>
	<path d="M29.4,10.7c-1.2,0-2.2,1-2.2,2.2v2.4c0,1.2,1,2.2,2.2,2.2c1.2,0,2.2-1,2.2-2.2v-2.4C31.6,11.7,30.6,10.7,29.4,10.7z"/>
	<path d="M25.5,22H15.1c-0.4,0-0.9,0.2-1.2,0.5c-0.3,0.3-0.5,0.7-0.5,1.2v2.5c0,3.8,3.1,6.9,6.9,6.9c3.8,0,6.9-3.1,6.9-6.9v-2.5
		c0-0.4-0.2-0.9-0.5-1.2C26.4,22.2,26,22,25.5,22z M23.8,26.2c0,1.9-1.6,3.5-3.5,3.5c-1.9,0-3.5-1.6-3.5-3.5v-0.8h7V26.2z"/>
</g>
<g>
</g>
<g>
</g>
<g>
</g>
<g>
</g>
<g>
</g>
<g>
</g>
<g>
</g>
<g>
</g>
<g>
</g>
<g>
</g>
<g>
</g>
<g>
</g>
<g>
</g>
<g>
</g>
<g>
</g>
</svg>
