<?xml version="1.0" encoding="utf-8"?>
<!-- Generator: Adobe Illustrator 18.1.1, SVG Export Plug-In . SVG Version: 6.00 Build 0)  -->
<svg version="1.1" id="Layer_1" xmlns="http://www.w3.org/2000/svg" xmlns:xlink="http://www.w3.org/1999/xlink" x="0px" y="0px"
	 viewBox="0 0 40.6 40.6" enable-background="new 0 0 40.6 40.6" xml:space="preserve">
<g>
	<path d="M29.5,0H11.1C5,0,0,5,0,11.1v18.4c0,6.2,5,11.1,11.1,11.1h18.4c6.1,0,11.1-5,11.1-11.1V11.1C40.6,5,35.7,0,29.5,0z
		 M36.8,29.5c0,4-3.2,7.2-7.2,7.2H11.1c-4,0-7.2-3.2-7.2-7.2V11.1c0-4,3.2-7.2,7.2-7.2h18.4c4,0,7.2,3.2,7.2,7.2V29.5z"/>
	<path d="M15.2,16.4c0-1.1-0.9-1.9-1.9-1.9H8.5c-1.1,0-1.9,0.9-1.9,1.9c0,1.1,0.9,1.9,1.9,1.9h4.7C14.3,18.3,15.2,17.4,15.2,16.4z"
		/>
	<path d="M32.1,14.4h-4.7c-1.1,0-1.9,0.9-1.9,1.9c0,1.1,0.9,1.9,1.9,1.9h4.7c1.1,0,1.9-0.9,1.9-1.9C34.1,15.3,33.2,14.4,32.1,14.4z"
		/>
	<path d="M27.2,25.6L27.2,25.6c-1.9-1-4.3-1.5-6.9-1.5c-2.6,0-5,0.5-6.9,1.5c-1,0.5-1.3,1.7-0.9,2.6c0.3,0.7,1,1.1,1.7,1.1
		c0.3,0,0.6-0.1,0.9-0.2c1.3-0.6,3.1-1.1,5.2-1.1c2.1,0,3.9,0.5,5.2,1.1c1,0.5,2.1,0.1,2.6-0.9C28.6,27.3,28.2,26.1,27.2,25.6z"/>
</g>
<g>
</g>
<g>
</g>
<g>
</g>
<g>
</g>
<g>
</g>
<g>
</g>
<g>
</g>
<g>
</g>
<g>
</g>
<g>
</g>
<g>
</g>
<g>
</g>
<g>
</g>
<g>
</g>
<g>
</g>
</svg>
