<?xml version="1.0" encoding="utf-8"?>
<!-- Generator: Adobe Illustrator 18.1.1, SVG Export Plug-In . SVG Version: 6.00 Build 0)  -->
<svg version="1.1" id="Layer_1" xmlns="http://www.w3.org/2000/svg" xmlns:xlink="http://www.w3.org/1999/xlink" x="0px" y="0px"
	 viewBox="0 0 37.2 37.2" enable-background="new 0 0 37.2 37.2" xml:space="preserve">
<g>
	<path d="M27,0H10.2C4.6,0,0,4.6,0,10.2V27c0,5.6,4.6,10.2,10.2,10.2H27c5.6,0,10.2-4.6,10.2-10.2V10.2C37.2,4.6,32.6,0,27,0z
		 M8.4,12.6c0-1.3,1-2.3,2.3-2.3c1.3,0,2.3,1,2.3,2.3v2.1c0,1.3-1,2.3-2.3,2.3c-1.3,0-2.3-1-2.3-2.3V12.6z M28.6,24.4l-0.4-0.1
		L28.6,24.4c-1.6,4-5.4,6.8-10,6.8c-4.5,0-8.4-2.8-10-6.8c-0.1-0.3-0.2-0.5-0.2-0.8c0-0.9,0.5-1.7,1.4-2.1c0.3-0.1,0.5-0.2,0.8-0.2
		c0.9,0,1.7,0.5,2.1,1.4c0.9,2.3,3.2,4,5.8,4c2.7,0,4.9-1.7,5.8-4c0.3-0.9,1.2-1.4,2.1-1.4c0.3,0,0.6,0,0.8,0.2
		c0.9,0.3,1.4,1.2,1.4,2.1C28.7,23.9,28.7,24.2,28.6,24.4z M28.8,14.7c0,1.3-1,2.3-2.3,2.3c-1.3,0-2.3-1-2.3-2.3v-2.1
		c0-1.3,1-2.3,2.3-2.3c1.3,0,2.3,1,2.3,2.3V14.7z"/>
</g>
<g>
</g>
<g>
</g>
<g>
</g>
<g>
</g>
<g>
</g>
<g>
</g>
<g>
</g>
<g>
</g>
<g>
</g>
<g>
</g>
<g>
</g>
<g>
</g>
<g>
</g>
<g>
</g>
<g>
</g>
</svg>
