<?xml version="1.0" encoding="utf-8"?>
<!-- Generator: Adobe Illustrator 18.1.1, SVG Export Plug-In . SVG Version: 6.00 Build 0)  -->
<svg version="1.1" id="Layer_1" xmlns="http://www.w3.org/2000/svg" xmlns:xlink="http://www.w3.org/1999/xlink" x="0px" y="0px"
	 viewBox="0 0 36.3 35.4" enable-background="new 0 0 36.3 35.4" xml:space="preserve">
<g>
	<path d="M0,0v35.4h36.3V0H0z M26.4,9.7c0.8,0,1.5,0.3,2,0.8c0.5,0.5,0.8,1.3,0.8,2c0,0.8-0.3,1.5-0.8,2c-0.5,0.5-1.3,0.8-2,0.8
		c-1.6,0-2.9-1.3-2.9-2.9C23.6,11,24.8,9.7,26.4,9.7z M11.9,10.5c0.5,0.5,0.8,1.3,0.8,2c0,0.8-0.3,1.5-0.8,2c-0.5,0.5-1.3,0.8-2,0.8
		c-1.6,0-2.9-1.3-2.9-2.9C7,11,8.3,9.7,9.9,9.7C10.7,9.7,11.4,10,11.9,10.5z M18.2,28.8c-4.6,0-8.7-2.9-10.2-7.3l3.2-1.1
		c1,3,3.8,5,7,5c3.2,0,5.9-2,7-5l3.2,1.1C26.8,25.8,22.8,28.8,18.2,28.8z"/>
</g>
<g>
</g>
<g>
</g>
<g>
</g>
<g>
</g>
<g>
</g>
<g>
</g>
<g>
</g>
<g>
</g>
<g>
</g>
<g>
</g>
<g>
</g>
<g>
</g>
<g>
</g>
<g>
</g>
<g>
</g>
</svg>
