<?xml version="1.0" encoding="utf-8"?>
<!-- Generator: Adobe Illustrator 18.1.1, SVG Export Plug-In . SVG Version: 6.00 Build 0)  -->
<svg version="1.1" id="Layer_1" xmlns="http://www.w3.org/2000/svg" xmlns:xlink="http://www.w3.org/1999/xlink" x="0px" y="0px"
	 viewBox="0 0 45.8 41.7" enable-background="new 0 0 45.8 41.7" xml:space="preserve">
<g>
	<path d="M33.9,0c-4.9,0-9.2,3-11,7.3C21.1,3,16.9,0,11.9,0C5.3,0,0,5.3,0,11.9c0,12.7,22.9,29.8,22.9,29.8s22.9-17.1,22.9-29.8
		C45.8,5.3,40.5,0,33.9,0z M13.8,16.7V14c0-1.1,0.9-1.9,1.9-1.9s1.9,0.9,1.9,1.9v2.7c0,1.1-0.9,1.9-1.9,1.9S13.8,17.8,13.8,16.7z
		 M31.2,24.1c-1.2,3.5-4.5,5.8-8.3,5.8c-3.8,0-7.1-2.3-8.3-5.8c-0.3-0.8,0.2-1.7,0.9-1.9c0.8-0.3,1.7,0.2,1.9,0.9
		c0.8,2.3,3,3.8,5.4,3.8c2.5,0,4.7-1.5,5.4-3.8c0.3-0.8,1.1-1.2,1.9-0.9C31.1,22.4,31.5,23.3,31.2,24.1z M32,16.7
		c0,1.1-0.9,1.9-1.9,1.9c-1.1,0-1.9-0.9-1.9-1.9V14c0-1.1,0.9-1.9,1.9-1.9c1.1,0,1.9,0.9,1.9,1.9V16.7z"/>
</g>
<g>
</g>
<g>
</g>
<g>
</g>
<g>
</g>
<g>
</g>
<g>
</g>
<g>
</g>
<g>
</g>
<g>
</g>
<g>
</g>
<g>
</g>
<g>
</g>
<g>
</g>
<g>
</g>
<g>
</g>
</svg>
