<?xml version="1.0" encoding="utf-8"?>
<!-- Generator: Adobe Illustrator 18.1.1, SVG Export Plug-In . SVG Version: 6.00 Build 0)  -->
<svg version="1.1" id="Layer_1" xmlns="http://www.w3.org/2000/svg" xmlns:xlink="http://www.w3.org/1999/xlink" x="0px" y="0px"
	 viewBox="0 0 40.6 40.6" enable-background="new 0 0 40.6 40.6" xml:space="preserve">
<g>
	<path d="M29.5,0H11.1C5,0,0,5,0,11.1v18.4c0,6.2,5,11.1,11.1,11.1h18.4c6.1,0,11.1-5,11.1-11.1V11.1C40.6,5,35.7,0,29.5,0z
		 M36.8,29.5c0,4-3.2,7.2-7.2,7.2H11.1c-4,0-7.2-3.2-7.2-7.2V11.1c0-4,3.2-7.2,7.2-7.2h18.4c4,0,7.2,3.2,7.2,7.2V29.5z"/>
	<path d="M13.4,15.3v-2.4c0-1.2-1-2.2-2.2-2.2c-1.2,0-2.2,1-2.2,2.2v2.4c0,1.2,1,2.2,2.2,2.2C12.4,17.5,13.4,16.5,13.4,15.3z"/>
	<path d="M29.4,10.7c-1.2,0-2.2,1-2.2,2.2v2.4c0,1.2,1,2.2,2.2,2.2c1.2,0,2.2-1,2.2-2.2v-2.4C31.6,11.7,30.6,10.7,29.4,10.7z"/>
	<path d="M26.8,26c-1.3,1.2-3.7,2.2-6.5,2.2c-2.8,0-5.2-0.9-6.5-2.2c-0.7-0.6-1.8-0.6-2.4,0.1c-0.6,0.7-0.6,1.8,0.1,2.4
		c2.1,1.9,5.3,3,8.8,3c3.5,0,6.7-1.1,8.8-3c0.7-0.6,0.7-1.7,0.1-2.4C28.6,25.4,27.5,25.4,26.8,26z"/>
</g>
<g>
</g>
<g>
</g>
<g>
</g>
<g>
</g>
<g>
</g>
<g>
</g>
<g>
</g>
<g>
</g>
<g>
</g>
<g>
</g>
<g>
</g>
<g>
</g>
<g>
</g>
<g>
</g>
<g>
</g>
</svg>
