<?xml version="1.0" encoding="utf-8"?>
<!-- Generator: Adobe Illustrator 18.1.1, SVG Export Plug-In . SVG Version: 6.00 Build 0)  -->
<svg version="1.1" id="Layer_1" xmlns="http://www.w3.org/2000/svg" xmlns:xlink="http://www.w3.org/1999/xlink" x="0px" y="0px"
	 viewBox="0 0 38.9 38.9" enable-background="new 0 0 38.9 38.9" xml:space="preserve">
<g>
	<path d="M27.1,0H11.9C5.3,0,0,5.3,0,11.9v15.2c0,6.6,5.3,11.9,11.9,11.9h15.2c6.6,0,11.9-5.3,11.9-11.9V11.9
		C38.9,5.3,33.6,0,27.1,0z M33.7,27.1c0,3.6-3,6.6-6.6,6.6H11.9c-3.6,0-6.6-3-6.6-6.6V11.9c0-3.6,3-6.6,6.6-6.6h15.2
		c3.7,0,6.6,3,6.6,6.6V27.1z"/>
	<path d="M27.8,21.6c-0.3-0.1-0.5-0.2-0.8-0.2c-0.8,0-1.7,0.5-2,1.4c-0.9,2.2-3,3.8-5.6,3.8c-2.5,0-4.7-1.6-5.6-3.8
		c-0.3-0.8-1.1-1.3-2-1.3c-0.3,0-0.5,0.1-0.8,0.2c-0.8,0.3-1.3,1.1-1.3,2c0,0.3,0,0.5,0.1,0.8c1.5,3.8,5.2,6.5,9.6,6.5
		c4.3,0,8-2.7,9.6-6.5l-0.4-0.1l0.4,0.1c0.1-0.2,0.1-0.5,0.1-0.8C29.2,22.7,28.7,21.9,27.8,21.6z"/>
	<path d="M27.4,10.5c-1.3,0-2.4,1.1-2.4,2.4v2.2c0,1.3,1.1,2.4,2.4,2.4c1.3,0,2.4-1.1,2.4-2.4v-2.2C29.7,11.5,28.7,10.5,27.4,10.5z"
		/>
	<path d="M11.6,17.4c1.3,0,2.4-1.1,2.4-2.4v-2.2c0-1.3-1.1-2.4-2.4-2.4c-1.3,0-2.4,1.1-2.4,2.4v2.2C9.2,16.4,10.3,17.4,11.6,17.4z"
		/>
</g>
<g>
</g>
<g>
</g>
<g>
</g>
<g>
</g>
<g>
</g>
<g>
</g>
<g>
</g>
<g>
</g>
<g>
</g>
<g>
</g>
<g>
</g>
<g>
</g>
<g>
</g>
<g>
</g>
<g>
</g>
</svg>
