<?xml version="1.0" encoding="utf-8"?>
<!-- Generator: Adobe Illustrator 18.1.1, SVG Export Plug-In . SVG Version: 6.00 Build 0)  -->
<svg version="1.1" id="Layer_1" xmlns="http://www.w3.org/2000/svg" xmlns:xlink="http://www.w3.org/1999/xlink" x="0px" y="0px"
	 viewBox="0 0 40.6 40.6" enable-background="new 0 0 40.6 40.6" xml:space="preserve">
<g>
	<path d="M14.9,14.1c0-0.1,0-0.1,0-0.2c0-0.1,0-0.1,0-0.2c-0.1-0.5-0.3-0.9-0.7-1.1l-4.1-2.5C9.4,9.7,8.4,9.9,8,10.6
		c-0.4,0.7-0.2,1.6,0.5,2.1l2,1.2l-2,1.2c-0.7,0.4-0.9,1.3-0.5,2.1c0.4,0.7,1.3,0.9,2.1,0.5l4.1-2.5C14.6,15,14.8,14.6,14.9,14.1z"
		/>
	<path d="M32.6,10.6c-0.4-0.7-1.3-0.9-2.1-0.5l-4.1,2.5c-0.4,0.2-0.6,0.7-0.7,1.1c0,0.1,0,0.1,0,0.2c0,0.1,0,0.1,0,0.2
		c0.1,0.5,0.3,0.9,0.7,1.1l4.1,2.5c0.7,0.4,1.6,0.2,2.1-0.5c0.4-0.7,0.2-1.6-0.5-2.1l-2-1.2l2-1.2C32.8,12.3,33,11.3,32.6,10.6z"/>
	<path d="M29.5,0H11.1C5,0,0,5,0,11.1v18.4c0,6.2,5,11.1,11.1,11.1h18.4c6.1,0,11.1-5,11.1-11.1V11.1C40.6,5,35.7,0,29.5,0z
		 M36.7,29.5c0,4-3.2,7.2-7.2,7.2H11.1c-4,0-7.2-3.2-7.2-7.2V11.1c0-4,3.2-7.2,7.2-7.2h18.4c4,0,7.2,3.2,7.2,7.2V29.5z"/>
	<path d="M28.8,21.7H11.9c-0.4,0-0.9,0.2-1.2,0.5c-0.3,0.3-0.5,0.7-0.5,1.2c0,5.6,4.5,10.1,10.1,10.1c5.6,0,10.1-4.5,10.1-10.1
		c0-0.4-0.2-0.9-0.5-1.2C29.6,21.9,29.2,21.7,28.8,21.7z M20.3,30.2c-3.1,0-5.8-2.2-6.5-5.1h13.1C26.1,28,23.5,30.2,20.3,30.2z"/>
</g>
<g>
</g>
<g>
</g>
<g>
</g>
<g>
</g>
<g>
</g>
<g>
</g>
<g>
</g>
<g>
</g>
<g>
</g>
<g>
</g>
<g>
</g>
<g>
</g>
<g>
</g>
<g>
</g>
<g>
</g>
</svg>
