<?xml version="1.0" encoding="utf-8"?>
<!-- Generator: Adobe Illustrator 18.1.1, SVG Export Plug-In . SVG Version: 6.00 Build 0)  -->
<svg version="1.1" id="Layer_1" xmlns="http://www.w3.org/2000/svg" xmlns:xlink="http://www.w3.org/1999/xlink" x="0px" y="0px"
	 viewBox="0 0 40.6 40.6" enable-background="new 0 0 40.6 40.6" xml:space="preserve">
<g>
	<path d="M16,18c0.5-1,0.1-2.3-0.9-2.8l-4.7-3c-1-0.5-2.3-0.1-2.8,0.9c-0.5,1-0.1,2.3,0.9,2.8l4.7,3C14.2,19.4,15.5,19,16,18z"/>
	<path d="M30.3,12.1l-4.7,3c-1,0.5-1.4,1.8-0.9,2.8c0.5,1,1.8,1.4,2.8,0.9l4.7-3c1-0.5,1.4-1.8,0.9-2.8C32.5,12,31.3,11.6,30.3,12.1
		z"/>
	<path d="M29.1,27.8C26.4,26,23.4,25,20.2,25c-3.1,0-6.2,1-8.9,2.8c-0.9,0.6-1.1,1.8-0.5,2.7c0.6,0.9,1.8,1.1,2.7,0.5
		c2-1.4,4.3-2.1,6.7-2.1c2.4,0,4.7,0.7,6.7,2.1c0.9,0.6,2.1,0.4,2.7-0.5C30.2,29.6,30,28.4,29.1,27.8z"/>
	<path d="M29.5,0H11.1C5,0,0,5,0,11.1v18.4c0,6.2,5,11.1,11.1,11.1h18.4c6.1,0,11.1-5,11.1-11.1V11.1C40.6,5,35.7,0,29.5,0z
		 M36.8,29.5c0,4-3.2,7.2-7.2,7.2H11.1c-4,0-7.2-3.2-7.2-7.2V11.1c0-4,3.2-7.2,7.2-7.2h18.4c4,0,7.2,3.2,7.2,7.2V29.5z"/>
</g>
<g>
</g>
<g>
</g>
<g>
</g>
<g>
</g>
<g>
</g>
<g>
</g>
<g>
</g>
<g>
</g>
<g>
</g>
<g>
</g>
<g>
</g>
<g>
</g>
<g>
</g>
<g>
</g>
<g>
</g>
</svg>
