<?xml version="1.0" encoding="utf-8"?>
<!-- Generator: Adobe Illustrator 18.1.1, SVG Export Plug-In . SVG Version: 6.00 Build 0)  -->
<svg version="1.1" id="Layer_1" xmlns="http://www.w3.org/2000/svg" xmlns:xlink="http://www.w3.org/1999/xlink" x="0px" y="0px"
	 viewBox="0 0 609.4 609.4" enable-background="new 0 0 609.4 609.4" xml:space="preserve">
<path d="M418.6,0H190.8C84.8,0,0,84.8,0,190.8v227.8c0,106,84.8,190.8,190.8,190.8h227.8c106,0,190.8-84.8,190.8-190.8V190.8
	C612,84.8,524.6,0,418.6,0z M405.4,177.5c0-10.6,7.9-18.5,18.5-18.5h21.2c10.6,0,18.5,7.9,18.5,18.5v60.9c0,10.6-7.9,18.5-18.5,18.5
	h-21.2c-10.6,0-18.5-7.9-18.5-18.5L405.4,177.5L405.4,177.5z M145.7,177.5c0-10.6,7.9-18.5,18.5-18.5h21.2
	c10.6,0,18.5,7.9,18.5,18.5v60.9c0,10.6-7.9,18.5-18.5,18.5h-21.2c-10.6,0-18.5-7.9-18.5-18.5V177.5z M304.7,529.9
	c-95.4,0-172.2-76.8-172.2-172.2c0-5.3,2.6-7.9,5.3-10.6c2.6-2.6,7.9-5.3,10.6-5.3H461c5.3,0,7.9,2.6,10.6,5.3s5.3,7.9,5.3,10.6
	C479.5,453,400.1,529.9,304.7,529.9z"/>
<g>
</g>
<g>
</g>
<g>
</g>
<g>
</g>
<g>
</g>
<g>
</g>
<g>
</g>
<g>
</g>
<g>
</g>
<g>
</g>
<g>
</g>
<g>
</g>
<g>
</g>
<g>
</g>
<g>
</g>
</svg>
