<?xml version="1.0" encoding="utf-8"?>
<!-- Generator: Adobe Illustrator 18.1.1, SVG Export Plug-In . SVG Version: 6.00 Build 0)  -->
<svg version="1.1" id="Layer_1" xmlns="http://www.w3.org/2000/svg" xmlns:xlink="http://www.w3.org/1999/xlink" x="0px" y="0px"
	 viewBox="0 0 48.9 44.8" enable-background="new 0 0 48.9 44.8" xml:space="preserve">
<g>
	<path d="M19.2,18.2v-2.7c0-1.1-0.9-1.9-1.9-1.9c-1.1,0-1.9,0.9-1.9,1.9v2.7c0,1.1,0.9,1.9,1.9,1.9C18.3,20.2,19.2,19.3,19.2,18.2z
		 M31.6,13.5c-1.1,0-1.9,0.9-1.9,1.9v2.7c0,1.1,0.9,1.9,1.9,1.9c1.1,0,1.9-0.9,1.9-1.9v-2.7C33.6,14.4,32.7,13.5,31.6,13.5z M35.4,0
		c-4.5,0-8.5,2.3-11,5.9C22,2.3,17.9,0,13.4,0C6,0,0,6,0,13.4c0,13.3,22.6,30.3,23.5,31c0.5,0.4,1.3,0.4,1.8,0
		c1-0.7,23.5-17.7,23.5-31C48.9,6,42.8,0,35.4,0z M24.4,41.3C20.3,38.1,3,23.9,3,13.4C3,7.7,7.7,3,13.4,3c4.2,0,8,2.5,9.6,6.4
		c0.2,0.6,0.8,0.9,1.4,0.9c0.6,0,1.2-0.4,1.4-0.9C27.5,5.5,31.2,3,35.4,3c5.7,0,10.4,4.7,10.4,10.4C45.8,23.9,28.6,38.1,24.4,41.3z
		 M31.8,23.6c-0.8-0.3-1.7,0.2-1.9,0.9c-0.8,2.3-3,3.8-5.4,3.8c-2.5,0-4.7-1.5-5.4-3.8c-0.3-0.8-1.1-1.2-1.9-0.9
		c-0.8,0.3-1.2,1.1-0.9,1.9c1.2,3.5,4.5,5.8,8.3,5.8c3.8,0,7.1-2.3,8.3-5.8C33,24.8,32.6,23.9,31.8,23.6z"/>
</g>
<g>
</g>
<g>
</g>
<g>
</g>
<g>
</g>
<g>
</g>
<g>
</g>
<g>
</g>
<g>
</g>
<g>
</g>
<g>
</g>
<g>
</g>
<g>
</g>
<g>
</g>
<g>
</g>
<g>
</g>
</svg>
