<?xml version="1.0" encoding="utf-8"?>
<!-- Generator: Adobe Illustrator 18.1.1, SVG Export Plug-In . SVG Version: 6.00 Build 0)  -->
<svg version="1.1" id="Layer_1" xmlns="http://www.w3.org/2000/svg" xmlns:xlink="http://www.w3.org/1999/xlink" x="0px" y="0px"
	 viewBox="0 0 53.6 37.9" enable-background="new 0 0 53.6 37.9" xml:space="preserve">
<g>
	<path d="M53.5,27.7c0-1.7-0.7-2.6-2.4-3.2c-1.8-0.6-4.9-2.3-6.6-2.9c-1.4-0.6-1.4-1.3-1.4-1.8c0-0.5,0-2.2,0-2.8
		c1.8-2.3,2.4-5.3,2.6-8.1c0.1-2,0.2-4.7-1-6.4C43.6,0.6,40.9,0,38.7,0c0,0,0,0-0.1,0c-0.7,0-1.5,0.1-2.2,0.2
		C37.9,2.7,38,5.1,38.1,7c0,0.7,0,1.4-0.1,2c-0.2,2.9-0.8,6.1-2.6,9.2c0,0,0,0,0,0c2,0.9,4.3,2.1,5.3,2.4c1.3,0.4,2.7,1.2,3.7,2.6
		c1,1.4,1.4,3.1,1.4,4.5c0,1.4,0.1,7.6,0.1,9.2c0,0.1,0,0.5-0.1,1c4.1,0,7.1,0,7.1,0c0.2,0,0.4-0.1,0.6-0.2c0.2-0.2,0.2-0.5,0.2-0.8
		C53.6,35.4,53.5,29.2,53.5,27.7z"/>
	<path d="M27.4,24.5c-1.8-0.6-4.9-2.3-6.6-2.9c-1.4-0.6-1.4-1.3-1.4-1.8c0-0.5,0-2.2,0-2.8c1.8-2.3,2.4-5.3,2.6-8.1
		c0.1-2,0.2-4.7-1-6.4C19.9,0.6,17.2,0,15,0h0c-2.2,0-5,0.6-6.1,2.3c-1.1,1.8-1.1,4.4-1,6.4c0.2,2.9,0.8,5.9,2.6,8.1
		c0,0.6,0,2.3,0,2.8c0,0.5,0,1.3-1.4,1.8c-1.7,0.7-4.8,2.3-6.6,2.9c-1.7,0.6-2.4,1.5-2.4,3.2c0,1.5-0.1,7.7-0.1,9.2
		c0,0.3,0,0.5,0.2,0.8c0.2,0.2,0.3,0.2,0.6,0.2c0,0,28.3,0,28.3,0c0.2,0,0.4-0.1,0.6-0.2c0.2-0.2,0.2-0.5,0.2-0.8
		c0-1.5-0.1-7.7-0.1-9.2C29.8,26,29.1,25.1,27.4,24.5z"/>
	<path d="M39.3,24.5c-1.8-0.6-4.9-2.3-6.6-2.9c-1.4-0.6-1.4-1.3-1.4-1.8c0-0.5,0-2.2,0-2.8c1.8-2.3,2.4-5.3,2.6-8.1
		c0.1-2,0.2-4.7-1-6.4C31.8,0.6,29.1,0,26.8,0c0,0,0,0-0.1,0c-0.7,0-1.5,0.1-2.2,0.2C26,2.7,26.2,5.1,26.2,7c0,0.7,0,1.4-0.1,2
		c-0.2,2.9-0.8,6.1-2.6,9.2c0,0,0,0,0,0c2,0.9,4.3,2.1,5.3,2.4c1.3,0.4,2.7,1.2,3.7,2.6c1.1,1.4,1.4,3.1,1.4,4.5c0,1.4,0,7.7,0,9.2
		c0,0.1,0,0.5-0.1,1c4.1,0,7.1,0,7.1,0c0.2,0,0.4-0.1,0.6-0.2c0.2-0.2,0.2-0.5,0.2-0.8c0-1.5-0.1-7.7-0.1-9.2
		C41.7,26,41,25.1,39.3,24.5z"/>
</g>
<g>
</g>
<g>
</g>
<g>
</g>
<g>
</g>
<g>
</g>
<g>
</g>
<g>
</g>
<g>
</g>
<g>
</g>
<g>
</g>
<g>
</g>
<g>
</g>
<g>
</g>
<g>
</g>
<g>
</g>
</svg>
