<?xml version="1.0" encoding="utf-8"?>
<!-- Generator: Adobe Illustrator 18.1.1, SVG Export Plug-In . SVG Version: 6.00 Build 0)  -->
<svg version="1.1" id="Layer_1" xmlns="http://www.w3.org/2000/svg" xmlns:xlink="http://www.w3.org/1999/xlink" x="0px" y="0px"
	 viewBox="0 0 47.8 48.5" enable-background="new 0 0 47.8 48.5" xml:space="preserve">
<g>
	<path d="M47.8,30.6c0-3.5-2-9.1-5.8-13.4c1.8-1.8,3-4.4,3-7.1C45,4.5,40.4,0,34.9,0c-5.5,0-10.1,4.5-10.1,10.1c0,0.2,0,0.4,0,0.6
		c-0.3,0-0.6-0.1-1-0.1c-0.3,0-0.7,0-1,0.1c0-0.2,0-0.4,0-0.6C23,4.5,18.4,0,12.9,0C7.4,0,2.8,4.5,2.8,10.1c0,2.8,1.1,5.3,3,7.1
		C2,21.5,0,27.1,0,30.6c0,3.8,5,6.8,11.5,7.2c-0.3,1.3-0.5,2.4-0.5,3.4c0,4,5.7,7.2,12.9,7.2c7.2,0,12.9-3.2,12.9-7.2
		c0-1-0.2-2.2-0.5-3.4C42.8,37.4,47.8,34.4,47.8,30.6z M3,30.6c0-3,1.8-7.9,5.3-11.6c0.8-0.8,1.6-1.6,2.5-2.3
		c-1.1-0.3-2-0.9-2.8-1.7c-1.3-1.3-2.1-3-2.1-5c0-3.9,3.1-7,7-7s7,3.1,7,7c0,0.5-0.1,1-0.2,1.5c-3.5,1.6-5.9,5.1-5.9,9.1
		c0,2.8,1.1,5.3,3,7.1c-1.9,2.2-3.4,4.6-4.3,7C6.7,34.7,3,32.3,3,30.6z M23.9,45.4c-6,0-9.9-2.5-9.9-4.2c0-1,0.2-2.2,0.6-3.5
		c0.3-1,0.7-2.1,1.3-3.2c0.9-1.7,2-3.4,3.4-5c0.8-0.8,1.6-1.6,2.5-2.3c-1.1-0.3-2-0.9-2.8-1.7c-1.3-1.3-2.1-3-2.1-5
		c0-0.7,0.1-1.3,0.3-2c0.7-2.4,2.6-4.2,5-4.8c0.6-0.1,1.1-0.2,1.7-0.2c0.6,0,1.2,0.1,1.7,0.2c2.4,0.6,4.3,2.4,5,4.8
		c0.2,0.6,0.3,1.3,0.3,2c0,2-0.8,3.7-2.1,5C28,26.4,27,27,26,27.3c0.9,0.7,1.7,1.4,2.5,2.3c1.4,1.5,2.5,3.3,3.4,5
		c0.5,1.1,1,2.2,1.3,3.2c0.4,1.3,0.6,2.5,0.6,3.5C33.8,42.9,29.9,45.4,23.9,45.4z M35.3,34.8c-1-2.4-2.4-4.8-4.3-7
		c1.8-1.8,3-4.4,3-7.1c0-4.1-2.4-7.6-5.9-9.1c-0.1-0.5-0.2-1-0.2-1.5c0-3.9,3.1-7,7-7c3.9,0,7,3.1,7,7c0,2-0.8,3.7-2.1,5
		C39,15.8,38,16.4,37,16.7c0.9,0.7,1.7,1.4,2.5,2.3c3.4,3.7,5.3,8.7,5.3,11.6C44.8,32.3,41.1,34.7,35.3,34.8z"/>
</g>
<g>
</g>
<g>
</g>
<g>
</g>
<g>
</g>
<g>
</g>
<g>
</g>
<g>
</g>
<g>
</g>
<g>
</g>
<g>
</g>
<g>
</g>
<g>
</g>
<g>
</g>
<g>
</g>
<g>
</g>
</svg>
