<?xml version="1.0" encoding="utf-8"?>
<!-- Generator: Adobe Illustrator 18.1.1, SVG Export Plug-In . SVG Version: 6.00 Build 0)  -->
<svg version="1.1" id="Layer_1" xmlns="http://www.w3.org/2000/svg" xmlns:xlink="http://www.w3.org/1999/xlink" x="0px" y="0px"
	 viewBox="0 0 46.3 45.4" enable-background="new 0 0 46.3 45.4" xml:space="preserve">
<g>
	<path d="M14.7,26.8c-1.9-2.1-3.1-4.7-3.1-7.6c0-5.6,4-10.3,9.3-11.3c-0.4-4.4-4-7.9-8.5-7.9C7.6,0,3.8,3.8,3.8,8.6
		c0,3.8,2.5,6.9,5.8,8.1C3.2,18.3,0,25.4,0,29.3c0,2.2,3.8,4.4,9,5.2C10.1,31.7,12,28.8,14.7,26.8z M36.7,16.6
		c3.4-1.1,5.8-4.3,5.8-8.1C42.5,3.8,38.7,0,34,0c-4.5,0-8.1,3.5-8.5,7.9c5.3,1.1,9.3,5.7,9.3,11.3c0,2.9-1.2,5.5-3.1,7.6
		c2.7,2,4.6,4.9,5.7,7.7c5.2-0.7,9-3,9-5.2C46.3,25.4,43.2,18.3,36.7,16.6z M25.9,27.3c3.4-1.1,5.8-4.3,5.8-8.1
		c0-4.7-3.8-8.6-8.6-8.6s-8.6,3.8-8.6,8.6c0,3.8,2.5,6.9,5.8,8.1c-6.5,1.6-9.6,8.8-9.6,12.7c0,2.6,5.5,5.4,12.4,5.4
		c6.8,0,12.4-2.8,12.4-5.4C35.5,36.1,32.4,28.9,25.9,27.3z"/>
</g>
<g>
</g>
<g>
</g>
<g>
</g>
<g>
</g>
<g>
</g>
<g>
</g>
<g>
</g>
<g>
</g>
<g>
</g>
<g>
</g>
<g>
</g>
<g>
</g>
<g>
</g>
<g>
</g>
<g>
</g>
</svg>
