<?xml version="1.0" encoding="utf-8"?>
<!-- Generator: Adobe Illustrator 18.1.1, SVG Export Plug-In . SVG Version: 6.00 Build 0)  -->
<svg version="1.1" id="Layer_1" xmlns="http://www.w3.org/2000/svg" xmlns:xlink="http://www.w3.org/1999/xlink" x="0px" y="0px"
	 viewBox="0 0 39.4 43.5" enable-background="new 0 0 39.4 43.5" xml:space="preserve">
<g>
	<path d="M7.9,39.6l0-0.2l0-0.2c0-0.5,0-0.9,0-1.2c0.1-5.4,2.3-11.3,6.2-15.5c0,0-0.1,0-0.1-0.1c0.1,0,0.2-0.1,0.3-0.1
		c0.7-0.7,1.3-1.4,2.1-2c-2.7-2.4-4.5-5.9-4.5-9.9c0-1.3,0.2-2.5,0.5-3.7c-0.4,0-0.7-0.1-1.1-0.1c-4.5,0-8.1,3.6-8.1,8.1
		c0,3.6,2.3,6.6,5.5,7.7C3.7,24.3,0,31,0,36.2c0,0.1,0,0.5,0,0.8c0,0,0.6,2.8,8.1,3.4C8,40.1,7.9,39.8,7.9,39.6z"/>
	<path d="M28.4,20.3c4.1-1.4,7.1-5.3,7.1-9.9C35.4,4.7,30.7,0,25,0c-5.8,0-10.5,4.7-10.5,10.5c0,4.6,3,8.4,7.1,9.9
		c-6.3,2.4-11,10.9-11,17.7c0,0.1,0,0.6,0,1c0,0,1,4.5,14.4,4.5S39.3,39,39.3,39c0-0.4,0-0.9,0-1C39.4,31.3,34.7,22.7,28.4,20.3z"/>
</g>
<g>
</g>
<g>
</g>
<g>
</g>
<g>
</g>
<g>
</g>
<g>
</g>
<g>
</g>
<g>
</g>
<g>
</g>
<g>
</g>
<g>
</g>
<g>
</g>
<g>
</g>
<g>
</g>
<g>
</g>
</svg>
