<?xml version="1.0" encoding="utf-8"?>
<!-- Generator: Adobe Illustrator 18.1.1, SVG Export Plug-In . SVG Version: 6.00 Build 0)  -->
<svg version="1.1" id="Layer_1" xmlns="http://www.w3.org/2000/svg" xmlns:xlink="http://www.w3.org/1999/xlink" x="0px" y="0px"
	 viewBox="0 0 65.9 48.4" enable-background="new 0 0 65.9 48.4" xml:space="preserve">
<g>
	<path d="M65.9,48.2c0-1.8-0.2-7.8-1.5-11.2v0c-0.8-1.9-2.8-3.6-4.2-4.1l-3.3-1.3L53,30.1c-2.1-0.8-2.3-2.4-2.4-2.7
		c0,0-0.2-3.1-0.2-3.3c0.1-0.1,1.5-1.7,1.5-1.7c1.4-1.6,2.1-4.2,2.6-9.4l0.1-1.6c0-3.2-1-6-2.8-8C50,1.2,47.4,0.1,44.4,0h-0.2
		c-3,0.1-5.7,1.2-7.5,3.3c-1.8,2-2.8,4.8-2.8,8L34,13c0.5,5.2,1.2,7.9,2.6,9.4c0,0,1.4,1.6,1.5,1.7c0,0.2-0.2,3.3-0.2,3.3
		c0,0.3-0.3,1.8-2.4,2.7c0,0-2.4,1-2.5,1c-0.2-0.1-2.5-1-2.5-1c-2.1-0.8-2.3-2.4-2.4-2.7c0,0-0.2-3.1-0.2-3.3
		c0.1-0.1,1.5-1.7,1.5-1.7c1.4-1.6,2.1-4.2,2.6-9.4l0.1-1.6c0-3.2-1-6-2.8-8c-1.8-2.1-4.5-3.2-7.5-3.3h-0.2c-3,0.1-5.7,1.2-7.5,3.3
		c-1.8,2-2.8,4.8-2.8,8l0.1,1.6c0.5,5.2,1.2,7.9,2.6,9.4c0,0,1.4,1.6,1.5,1.7c0,0.2-0.2,3.3-0.2,3.3c0,0.3-0.3,1.8-2.4,2.7L9,31.6
		L5.7,33c-1.4,0.5-3.5,2.2-4.2,4.1C0.1,40.4,0,46.4,0,48.2v0.2h2.3l0-0.2c0-1.7,0.2-7.4,1.3-10.3c0.5-1.2,1.9-2.5,2.8-2.8l3.4-1.4
		l3.8-1.6c2.6-1,3.7-3.1,3.8-4.6l0.3-4.3l-0.3-0.4l-1.8-2c-1-1.1-1.6-3.6-2-8.1c-0.3-3.3,0.4-6.1,2.1-8c1.4-1.6,3.4-2.5,5.8-2.5
		c2.5,0.1,4.5,0.9,5.9,2.5c1.4,1.6,2.2,3.9,2.2,6.5c0,0.5,0,0.9-0.1,1.4c-0.4,4.6-1,7-2,8.2l-2.1,2.3l0,0.5l0.3,3.8
		c0.1,1.6,1.2,3.6,3.8,4.6c0,0,0.2,0.1,0.4,0.1c-0.6,0.2-1.6,0.6-1.6,0.6c-1.4,0.5-3.5,2.2-4.2,4.1c-1.3,3.3-1.5,9.4-1.5,11.2v0.2
		h2.3l0-0.2c0-1.7,0.2-7.4,1.3-10.3c0.5-1.2,1.9-2.5,2.8-2.8l3.4-1.4l3.8-1.6c2.6-1,3.7-3.1,3.8-4.6l0.3-4.3l-0.3-0.4l-1.8-2
		c-1-1.1-1.6-3.6-2-8.1c-0.3-3.3,0.4-6.1,2.1-8c1.4-1.6,3.4-2.5,5.8-2.5c2.5,0.1,4.5,0.9,5.9,2.5c1.7,1.9,2.4,4.6,2.1,8
		c-0.4,4.6-1,7-2,8.2l-2.1,2.3l0,0.5l0.3,3.8c0.1,1.6,1.2,3.6,3.8,4.6l3.8,1.6l3.4,1.4c0.9,0.3,2.4,1.6,2.8,2.8
		c1.2,2.9,1.3,8.6,1.3,10.3l0,0.2h2.3L65.9,48.2z"/>
</g>
<g>
</g>
<g>
</g>
<g>
</g>
<g>
</g>
<g>
</g>
<g>
</g>
<g>
</g>
<g>
</g>
<g>
</g>
<g>
</g>
<g>
</g>
<g>
</g>
<g>
</g>
<g>
</g>
<g>
</g>
</svg>
