<?xml version="1.0" encoding="utf-8"?>
<!-- Generator: Adobe Illustrator 18.1.1, SVG Export Plug-In . SVG Version: 6.00 Build 0)  -->
<svg version="1.1" id="Layer_1" xmlns="http://www.w3.org/2000/svg" xmlns:xlink="http://www.w3.org/1999/xlink" x="0px" y="0px"
	 viewBox="0 0 613.8 478.9" enable-background="new 0 0 613.8 478.9" xml:space="preserve">
<g>
	<path d="M247.8,277.3L247.8,277.3l29.6-22.2l-3.7-1.8c-11.1-7.4-14.8-11.1-16.6-14.8c0-1.8-1.8-3.7-1.8-5.5c0-1.8,0-3.7,0-5.5l0,0
		l0,0c0-3.7,5.5-11.1,12.9-22.2l0,0c11.1-16.6,16.6-37,18.5-53.6c0-5.5,1.8-11.1,1.8-14.8V90.6c0-14.8-3.7-31.4-12.9-46.2
		c-1.8-3.7-3.7-5.5-5.5-7.4V0h-81.4c-24,0-46.2,7.4-62.9,18.5c-9.2,7.4-18.5,16.6-24,25.9c-5.5,11.1-9.2,24-11.1,35.1
		c0,3.7,0,7.4,0,11.1V135c0,5.5,0,11.1,1.8,14.8c1.8,16.6,7.4,35.1,18.5,51.8c7.4,11.1,12.9,20.3,12.9,24l0,0l0,0c0,1.8,0,3.7,0,5.5
		s0,3.7-1.8,5.5c-1.8,3.7-5.5,7.4-16.6,14.8L37,299.5c-22.2,16.6-35.1,42.5-37,70.3v77.7C0,464.1,12.9,477,31.4,477h168.3v-44.4
		H46.2v-62.9c-1.8-9.2,9.2-29.6,16.6-33.3l68.4-48.1c11.1-9.2,22.2-16.6,29.6-29.6l0,0V257c3.7-9.2,5.5-16.6,5.5-25.9
		c0-5.5,0-9.2-1.8-12.9c-3.7-18.5-12.9-31.4-18.5-38.8c-3.7-7.4-7.4-22.2-9.2-33.3c0-3.7,0-7.4,0-9.2V90.6c0-1.8,0-3.7,0-5.5
		c0-5.5,1.8-11.1,5.5-16.6s7.4-9.2,11.1-12.9c7.4-5.5,18.5-9.2,37-11.1h51.8l-12.9,12.9c3.7,3.7,7.4,7.4,7.4,9.2
		c3.7,7.4,7.4,16.6,7.4,22.2v44.4c0,1.8,0,5.5,0,9.2c-1.8,12.9-5.5,25.9-11.1,35.1l0,0l0,0c-3.7,7.4-14.8,18.5-18.5,38.8
		c-1.8,3.7-1.8,9.2-1.8,14.8c0,7.4,1.8,16.6,5.5,25.9l0,0l0,0c5.5,9.2,12.9,16.6,22.2,22.2C242.2,281,245.9,279.2,247.8,277.3z"/>
	<path d="M575,299.5l-68.4-48.1c-11.1-7.4-14.8-11.1-16.6-14.8c0-1.8-1.8-3.7-1.8-5.5s0-3.7,0-3.7l0,0l0,0c0-3.7,5.5-11.1,12.9-24
		l0,0c11.1-16.6,14.8-35.1,18.5-53.6c0-5.5,1.8-11.1,1.8-14.8V90.6c0-14.8-3.7-31.4-12.9-46.2c-1.8-3.7-3.7-5.5-5.5-7.4V0h-81.4
		c-25.9,0-48.1,7.4-62.9,18.5c-9.2,7.4-18.5,16.6-24,25.9c-7.4,11.1-11.1,22.2-12.9,35.1c0,3.7,0,7.4,0,11.1V135
		c0,5.5,0,11.1,1.8,14.8c1.8,16.6,7.4,35.1,18.5,53.6c7.4,11.1,12.9,20.3,12.9,24l0,0c0,1.8,0,3.7,0,5.5s0,3.7-1.8,5.5
		c-1.8,3.7-5.5,7.4-16.6,14.8l-68.4,48.1c-22.2,16.6-35.1,42.5-37,70.3v77.7c0,16.6,12.9,29.6,31.4,29.6h319.9
		c16.6,0,31.4-12.9,31.4-29.6v-79.5C610.2,342.1,597.2,318,575,299.5z M565.8,432.7H277.3v-62.9c-1.8-9.2,9.2-29.6,16.6-33.3
		l68.4-48.1c11.1-9.2,22.2-16.6,29.6-29.6l0,0V257c3.7-9.2,5.5-16.6,5.5-25.9c0-3.7,0-9.2-1.8-12.9l0,0
		c-3.7-18.5-14.8-31.4-20.3-40.7c-5.5-9.2-9.2-22.2-11.1-35.1c0-3.7,0-7.4,0-9.2V90.6c0-1.8,0-3.7,0-5.5c0-5.5,3.7-11.1,5.5-16.6
		c3.7-5.5,7.4-9.2,11.1-12.9c7.4-5.5,18.5-11.1,37-11.1h51.8l-12.9,12.9c3.7,3.7,7.4,7.4,7.4,9.2c3.7,7.4,7.4,16.6,7.4,22.2v44.4
		c0,1.8,0,5.5,0,9.2c-1.8,12.9-5.5,27.7-11.1,35.1l0,0l0,0c-3.7,7.4-14.8,18.5-18.5,37l0,0c-1.8,5.5-1.8,9.2-1.8,14.8
		c0,9.2,1.8,16.6,5.5,25.9v1.8l0,0c7.4,12.9,18.5,20.3,29.6,27.7l68.4,48.1c7.4,3.7,18.5,24,16.6,33.3v66.6H565.8z"/>
</g>
<g>
</g>
<g>
</g>
<g>
</g>
<g>
</g>
<g>
</g>
<g>
</g>
<g>
</g>
<g>
</g>
<g>
</g>
<g>
</g>
<g>
</g>
<g>
</g>
<g>
</g>
<g>
</g>
<g>
</g>
</svg>
