<?xml version="1.0" encoding="utf-8"?>
<!-- Generator: Adobe Illustrator 18.1.1, SVG Export Plug-In . SVG Version: 6.00 Build 0)  -->
<svg version="1.1" id="Layer_1" xmlns="http://www.w3.org/2000/svg" xmlns:xlink="http://www.w3.org/1999/xlink" x="0px" y="0px"
	 viewBox="0 0 50.4 35.9" enable-background="new 0 0 50.4 35.9" xml:space="preserve">
<g>
	<path d="M36.2,31h14.2c-0.2-2.4-0.6-5.6-1.6-6.1c-1.2-0.6-4.3-2-6.5-3.1c-0.2-0.5-0.7-0.8-0.9-1.4c-0.1-0.3-0.3-0.4-0.6-0.5
		c-0.1-0.7-0.1-1.7-0.1-2.4c0.1-0.1,0.2-0.3,0.4-0.4c0.4-0.5,0.7-1.2,0.9-2.6c0.4-0.2,0.7-1.1,1-1.8c0.3-0.9,0.1-1.7-0.5-1.9
		c0.1-0.7,0.2-1.6,0.2-2.6c0-3.2-2.6-4.5-5.7-4.9c-2.1-0.2-3.1,0.6-3.6,1.7c-0.1,0.1-0.3,0.2-0.4,0.3c-0.9,1-1.5,1.8-1.2,4.2
		c0.1,0.5,0.1,0.9,0.2,1.3c-0.6,0.2-0.8,1-0.6,1.9c0.2,0.8,0.6,1.7,1,1.8c0.2,1.3,0.6,2.1,0.9,2.6c0.1,0.1,0.2,0.3,0.4,0.4
		c0,0.7,0,1.7-0.1,2.4c-0.3,0.1-0.5,0.2-0.6,0.5c-0.2,0.7-0.6,0.9-0.9,1.4c-1.1,0.5-2.3,1.1-3.5,1.7c1.8,0.9,3.5,1.7,4.4,2.1
		C34.5,26.2,35.5,27.5,36.2,31z"/>
	<path d="M32,28.1c-1.6-0.7-5.6-2.6-8.5-4.1c-0.3-0.7-0.9-1-1.1-1.9c-0.1-0.4-0.4-0.6-0.8-0.7c-0.1-1-0.1-2.2-0.1-3.2
		c0.2-0.2,0.3-0.4,0.5-0.5c0.5-0.6,0.9-1.6,1.2-3.3c0.5-0.2,0.9-1.4,1.2-2.4c0.4-1.1,0.1-2.2-0.7-2.4c0.2-0.9,0.3-2,0.3-3.3
		c0-4.1-3.4-5.9-7.4-6.3C16.4,0,16.1,0,15.8,0c-2.1,0-3.2,1-3.8,2.2c-0.2,0.1-0.4,0.3-0.5,0.4C10.4,3.9,9.5,5,10,8
		c0.1,0.6,0.2,1.2,0.3,1.6C9.5,9.9,9.2,11,9.6,12.1c0.3,1,0.7,2.1,1.2,2.4c0.3,1.7,0.7,2.7,1.2,3.3c0.2,0.2,0.3,0.4,0.5,0.6
		c0,0.9,0,2.2-0.1,3.1c-0.4,0.1-0.7,0.3-0.8,0.7c-0.2,0.9-0.8,1.1-1.1,1.9c-2.9,1.4-6.9,3.3-8.5,4.1c-1.2,0.6-1.8,4.8-2.1,7.9h34.1
		C33.8,32.9,33.3,28.6,32,28.1z"/>
</g>
<g>
</g>
<g>
</g>
<g>
</g>
<g>
</g>
<g>
</g>
<g>
</g>
<g>
</g>
<g>
</g>
<g>
</g>
<g>
</g>
<g>
</g>
<g>
</g>
<g>
</g>
<g>
</g>
<g>
</g>
</svg>
