<?xml version="1.0" encoding="utf-8"?>
<!-- Generator: Adobe Illustrator 18.1.1, SVG Export Plug-In . SVG Version: 6.00 Build 0)  -->
<svg version="1.1" id="Layer_1" xmlns="http://www.w3.org/2000/svg" xmlns:xlink="http://www.w3.org/1999/xlink" x="0px" y="0px"
	 viewBox="0 0 54 41.5" enable-background="new 0 0 54 41.5" xml:space="preserve">
<g>
	<path d="M9.7,41.1c0,0,0.7-4.3,1-6.2c0.4-2.7,2.4-5.1,5.4-6.7c1.4-0.8,2.7-1.6,4-2.4c1.2-0.8,2.4-1.5,3.5-2.1
		c0.1-0.1,0.2-0.1,0.3-0.2c0.2-0.3,0.4-0.6,0.7-0.8c0,0,0,0-0.1-0.1c-2.8-2.9-4.2-6.9-4.3-10.8c0-1.9,0.3-3.7,0.9-5.4
		c-1-0.4-2-0.7-3.2-0.7c0,0,0,0,0,0c0,0,0,0,0,0C13,5.8,9.1,10.4,9.1,16c0,2.7,1.1,5.6,3,7.6c0.7,0.7,1.1,1.2,1.3,1.7
		c0.4,1-0.4,1.7-2.5,2.9c-0.9,0.5-1.9,1.1-3,1.8c-1.1,0.7-2.3,1.4-3.5,2.1c-2.3,1.4-3.2,2.5-3.5,4.1C0.6,37.8,0,41.5,0,41.5h9.6
		L9.7,41.1z"/>
	<path d="M52.9,35.4c-0.3-1.9-1.3-3.2-4-4.8c-1.4-0.8-2.8-1.6-4-2.4c-1.2-0.8-2.4-1.5-3.5-2.1c-2.5-1.4-3.4-2.3-2.9-3.4
		c0.2-0.5,0.7-1.2,1.5-2c2.2-2.3,3.5-5.7,3.5-8.8C43.4,5.3,38.8,0,33.2,0c0,0,0,0,0,0c0,0,0,0,0,0c-5.7,0-10.3,5.3-10.3,11.9
		c0,3.2,1.2,6.6,3.5,8.8c0.8,0.8,1.3,1.4,1.5,2c0.4,1.1-0.4,2-2.9,3.4c-1.1,0.6-2.2,1.3-3.5,2.1c-1.3,0.8-2.6,1.6-4,2.4
		c-2.7,1.6-3.7,2.9-4,4.8c-0.3,1.9-1,6.1-1,6.1H54C54,41.5,53.3,37.2,52.9,35.4"/>
</g>
<g>
</g>
<g>
</g>
<g>
</g>
<g>
</g>
<g>
</g>
<g>
</g>
<g>
</g>
<g>
</g>
<g>
</g>
<g>
</g>
<g>
</g>
<g>
</g>
<g>
</g>
<g>
</g>
<g>
</g>
</svg>
