<?xml version="1.0" encoding="utf-8"?>
<!-- Generator: Adobe Illustrator 18.1.1, SVG Export Plug-In . SVG Version: 6.00 Build 0)  -->
<svg version="1.1" id="Layer_1" xmlns="http://www.w3.org/2000/svg" xmlns:xlink="http://www.w3.org/1999/xlink" x="0px" y="0px"
	 viewBox="0 0 53.4 46.7" enable-background="new 0 0 53.4 46.7" xml:space="preserve">
<g>
	<path d="M48.6,37.8c-2.1-1-9.3-3.6-13.2-5.5c-0.4-1-1.2-1.4-1.5-2.5c-0.1-0.5-1-0.8-1.5-0.9c-0.1-1.3-0.1-2-0.1-3.3
		c0.2-0.2,0.9-1.4,1.1-1.7c0.7-0.8,1.2-2.1,1.6-4.4c0.7-0.3,1.7-1.8,2.1-3.2c0.5-1.5-0.3-2.9-1.4-3.3c0.2-1.3,0.4-2.7,0.4-4.5
		c0-5.5-4.6-7.8-9.9-8.5c-4.3-0.5-4.8,0.8-5.7,2.7c-0.3,0.2-1.1,0.6-1.3,0.8c-1.6,1.8-2.7,3.2-2,7.3c0.1,0.9,0.3,1.6,0.4,2.2
		c-1.1,0.3-1.9,1.7-1.4,3.3c0.4,1.3,1.5,2.9,2.1,3.2c0.4,2.3,1,3.6,1.6,4.4c0.2,0.3,0.9,1.5,1.1,1.7c0,1.3,0,2-0.1,3.3
		c-0.5,0.1-1.4,0.4-1.5,0.9c-0.3,1.1-1.1,1.5-1.5,2.5c-3.9,1.9-11,4.5-13.2,5.5C2.1,39,0,46.7,0,46.7h24.5h4.5h24.5
		C53.4,46.7,51.3,39,48.6,37.8z"/>
</g>
<g>
</g>
<g>
</g>
<g>
</g>
<g>
</g>
<g>
</g>
<g>
</g>
<g>
</g>
<g>
</g>
<g>
</g>
<g>
</g>
<g>
</g>
<g>
</g>
<g>
</g>
<g>
</g>
<g>
</g>
</svg>
