<?xml version="1.0" encoding="utf-8"?>
<!-- Generator: Adobe Illustrator 18.1.1, SVG Export Plug-In . SVG Version: 6.00 Build 0)  -->
<svg version="1.1" id="Layer_1" xmlns="http://www.w3.org/2000/svg" xmlns:xlink="http://www.w3.org/1999/xlink" x="0px" y="0px"
	 viewBox="0 0 55.9 48.8" enable-background="new 0 0 55.9 48.8" xml:space="preserve">
<g>
	<path d="M50.5,38C50.5,38,50.5,38,50.5,38C50.5,38,50.5,38,50.5,38C50.5,38,50.5,38,50.5,38z M55.9,48.5c-0.5-2.1-2.5-9-5.4-10.5
		c-0.1,0-0.6-0.3-4.3-1.8c-2.8-1.1-6.3-2.5-8.7-3.6h0c0,0-0.5-0.8-0.5-0.8c0,0-0.6-1.1-0.6-1.1c-0.1-0.4-0.5-0.9-1-1.2
		c0-0.2-0.1-3.3-0.1-3.3c0,0,0.4-0.3,0.4-0.3c0.9-1,1.4-2.5,1.9-4.8c0.6-0.5,1.1-1.5,1.7-3.2l0.3-1.7c0-0.6-0.1-1.2-0.4-1.7
		c0,0-0.5-0.6-0.7-0.8c0.2-1.1,0.4-2.5,0.4-3.9c0-5.4-3.9-8.8-11-9.7c-3.5-0.4-5.9,0.7-7.4,3.3c0.1-0.1-0.6,0.5-0.6,0.5
		c-1.4,1.6-2.5,3.1-2.5,5.9l0.2,2.4c0,0,0.1,0.5,0.1,0.5s0.1,0.8,0.2,0.9c-0.2,0.2-0.7,0.8-0.7,0.8c-0.3,0.5-0.4,1.1-0.4,1.8
		l0.3,1.7c0.5,1.6,1.1,2.7,1.7,3.3c0.4,2.2,0.9,3.7,1.8,4.7c0,0,0.1,0.2,0.1,0.2s0.3,0.3,0.3,0.3c0,0-0.1,0.6-0.1,0.6
		s-0.1,2.3-0.1,2.5c-0.5,0.4-0.9,0.8-1,1.2L19,31.8c0,0-0.6,0.9-0.6,0.9c-2.3,1.1-6,2.5-8.6,3.6L5.5,38c-2.9,1.4-4.9,8.4-5.4,10.5
		L0,48.8h2.3l0-0.2c1-3.7,2.7-7.9,4-8.5c0,0,0.4-0.2,4.1-1.7c3-1.2,6.6-2.6,9.1-3.8l0.2-0.1l0.3-0.4l0.5-0.8c0.3-0.4,0.8-1,1-1.9
		c0,0,0.2-0.1,0.2-0.1l0.8-0.2l0.2-5.6l-0.3-0.3l-0.6-0.7c-0.6-0.7-1.1-2-1.4-3.9L20.6,20l-0.5-0.3c0,0-0.4-0.3-1.1-2.5
		c-0.1-0.3-0.2-0.7-0.2-1c0-0.3,0-0.5,0.1-0.7l0.2-0.2l1-0.3l-0.5-3.2c-0.1-0.8-0.2-1.4-0.2-2c0-2.2,0.8-3.1,1.9-4.4
		c0,0,0.6-0.5,0.6-0.5l0.2-0.3c0.7-1.4,1.9-2.7,5.2-2.3c4.1,0.5,9,2.1,9,7.4c0,1.4-0.1,2.8-0.4,4.3l-0.2,1l1,0.3l0.2,0.2l0.1,0.7
		l-0.2,1c-0.7,2.2-1,2.5-1.1,2.5l-0.3,0.2l-0.3,0.5c-0.4,2-0.8,3.3-1.4,4l-0.8,1l-0.1,0.5l0.2,5.2l0.8,0.1c0,0,0.2,0.1,0.2,0.1
		c0.2,0.9,0.7,1.5,1,1.9l0.7,1l0.3,0.3c2.4,1.2,6.1,2.6,9,3.8l4.3,1.7c1.3,0.6,3.1,4.8,4,8.5l0,0.2h2.3L55.9,48.5z"/>
</g>
<g>
</g>
<g>
</g>
<g>
</g>
<g>
</g>
<g>
</g>
<g>
</g>
<g>
</g>
<g>
</g>
<g>
</g>
<g>
</g>
<g>
</g>
<g>
</g>
<g>
</g>
<g>
</g>
<g>
</g>
</svg>
