<?xml version="1.0" encoding="utf-8"?>
<!-- Generator: Adobe Illustrator 18.1.1, SVG Export Plug-In . SVG Version: 6.00 Build 0)  -->
<svg version="1.1" id="Layer_1" xmlns="http://www.w3.org/2000/svg" xmlns:xlink="http://www.w3.org/1999/xlink" x="0px" y="0px"
	 viewBox="0 0 49.3 49.7" enable-background="new 0 0 49.3 49.7" xml:space="preserve">
<g>
	<path d="M49.3,49.5c0-1-0.3-3.5-1.7-7.1c-0.8-2.1-3.1-4.1-4.7-4.6L39,36.3l-4.4-1.8c-2.5-1-2.8-2.8-2.8-3.2c0,0-0.2-3.7-0.3-3.9
		c0.1-0.1,1.8-2,1.8-2c1.5-1.8,2.4-4.9,2.9-10.7l0.1-1.9c0-3.7-1.1-6.8-3.1-9.1c-2.1-2.3-5.1-3.6-8.5-3.7c0,0-0.2,0-0.2,0
		c-3.4,0.1-6.4,1.4-8.5,3.7c-2,2.3-3.1,5.4-3.1,9.1l0.1,1.9c0.5,6,1.3,9,2.9,10.7c0,0,1.6,1.8,1.8,2c0,0.2-0.3,3.8-0.3,3.8
		c0,0.4-0.3,2.2-2.8,3.2c0,0-0.4,0.2-4.4,1.8l-3.8,1.5c-1.6,0.5-3.9,2.5-4.7,4.6C0.3,45.9,0,48.5,0,49.5l0,0.2h2.3l0-0.2
		c0-0.8,0.3-3.1,1.5-6.3c0.6-1.4,2.3-2.9,3.3-3.3l4-1.6l4.3-1.8c2.9-1.1,4.1-3.4,4.2-5.1l0.3-4.8l-0.3-0.4l-2.1-2.3
		c-1.2-1.3-1.9-4.2-2.3-9.4c-0.3-3.8,0.5-7,2.5-9.2c1.7-1.9,4-2.9,6.8-2.9l0.2,0c2.7,0.1,5.1,1.1,6.7,3c2,2.2,2.8,5.4,2.5,9.2
		c-0.5,5.3-1.2,8.1-2.3,9.4c0,0-2.3,2.6-2.3,2.6l0,0.5l0.3,4.4c0.1,1.7,1.3,4,4.2,5.1l4.3,1.8l4,1.6c1.1,0.4,2.8,1.9,3.4,3.3
		c1.3,3.1,1.5,5.4,1.5,6.3l0,0.2h2.3L49.3,49.5z"/>
</g>
<g>
</g>
<g>
</g>
<g>
</g>
<g>
</g>
<g>
</g>
<g>
</g>
<g>
</g>
<g>
</g>
<g>
</g>
<g>
</g>
<g>
</g>
<g>
</g>
<g>
</g>
<g>
</g>
<g>
</g>
</svg>
