<?xml version="1.0" encoding="utf-8"?>
<!-- Generator: Adobe Illustrator 18.1.1, SVG Export Plug-In . SVG Version: 6.00 Build 0)  -->
<svg version="1.1" id="Layer_1" xmlns="http://www.w3.org/2000/svg" xmlns:xlink="http://www.w3.org/1999/xlink" x="0px" y="0px"
	 viewBox="0 0 46.7 46.6" enable-background="new 0 0 46.7 46.6" xml:space="preserve">
<g>
	<path d="M45.3,33.7c-1-2.2-3.4-3.4-5.6-4.1c-2.2-0.7-5.4-1.6-7.7-2.4c-2.2-0.7-2.7-2-2.7-2.7c0-0.6-0.1-1.4-0.1-2
		c2.3-2.9,3.3-6.8,3.6-10.5c0.2-2.6,0.2-5.9-1.3-8.2c-1.5-2.3-5.3-3.7-7.9-3.8h0c0,0-0.1,0-0.1,0c0,0-0.1,0-0.1,0h0
		c-2.7,0.1-6.4,1.4-7.9,3.8c-1.5,2.3-1.5,5.5-1.3,8.2c0.3,3.7,1.3,7.6,3.6,10.5c0,0.7-0.1,1.5-0.1,2c-0.1,0.7-0.6,2-2.7,2.7
		C12.4,28,9.2,28.9,7,29.6c-2.2,0.7-4.6,1.9-5.6,4.1c-0.4,0.9-0.7,2.2-0.9,3.5c0,0,0.1,0,0.1,0h0.4l10.3,0v-1.4c0-1.5,0.8-3,2.1-3.7
		l0,0l0,0c0.7-0.4,1.4-0.6,2.2-0.6c0.7,0,1.4,0.2,2,0.5L34,40.3l0.1,0l0.1,0.1c0.4,0.2,0.7,0.5,1,0.8h10.5c0.3,0,0.6-0.1,0.7-0.3
		c0.2-0.2,0.3-0.4,0.3-0.7C46.5,38.4,46.1,35.4,45.3,33.7z M32.3,43.8l-16.5-8.3c-0.1,0-0.2-0.1-0.2-0.1c-0.1,0-0.2,0-0.2,0.1
		c-0.1,0.1-0.2,0.2-0.2,0.4v5.3l-14.1,0H0.5c-0.1,0-0.3,0.1-0.3,0.1C0.1,41.4,0,41.5,0,41.7v4.5c0,0.1,0,0.3,0.1,0.3
		c0.1,0.1,0.2,0.1,0.3,0.1H32c0.1,0,0.2,0,0.3-0.1c0.1-0.1,0.1-0.2,0.1-0.3v-2C32.5,44,32.4,43.8,32.3,43.8z"/>
</g>
<g>
</g>
<g>
</g>
<g>
</g>
<g>
</g>
<g>
</g>
<g>
</g>
<g>
</g>
<g>
</g>
<g>
</g>
<g>
</g>
<g>
</g>
<g>
</g>
<g>
</g>
<g>
</g>
<g>
</g>
</svg>
