<?xml version="1.0" encoding="utf-8"?>
<!-- Generator: Adobe Illustrator 18.1.1, SVG Export Plug-In . SVG Version: 6.00 Build 0)  -->
<svg version="1.1" id="Layer_1" xmlns="http://www.w3.org/2000/svg" xmlns:xlink="http://www.w3.org/1999/xlink" x="0px" y="0px"
	 viewBox="0 0 612 601.7" enable-background="new 0 0 612 601.7" xml:space="preserve">
<g>
	<polygon points="191.6,356.5 156.6,393.6 218.4,453.3 0,453.3 0,504.8 218.4,504.8 156.6,564.6 191.6,601.7 317.3,480.1 	"/>
	<path d="M564.6,403.9L471.9,340c-14.4-10.3-20.6-16.5-24.7-20.6c-2.1-2.1-2.1-6.2-2.1-10.3c0-2.1,0-4.1,0-8.2l0,0l0,0
		c0-6.2,8.2-18.5,18.5-33c14.4-22.7,20.6-47.4,24.7-70.1c0-6.2,2.1-14.4,2.1-20.6v-61.8c0-18.5-6.2-39.2-16.5-59.8
		c-2.1-2.1-4.1-4.1-4.1-8.2h2.1V0H360.6c-33,0-61.8,10.3-82.4,24.7c-12.4,10.3-22.7,20.6-30.9,33c-8.2,14.4-14.4,28.8-16.5,45.3
		c0,4.1,0,10.3,0,14.4v61.8c0,6.2,0,14.4,2.1,20.6c4.1,22.7,10.3,47.4,22.7,68c10.3,14.4,16.5,26.8,18.5,33c0,4.1,0,6.2,0,8.2
		c0,4.1,0,6.2-2.1,10.3c-4.1,6.2-10.3,10.3-24.7,20.6l-12.4,10.3l37.1,37.1l8.2-6.2c16.5-12.4,28.8-20.6,39.2-37.1l0,0l0,0
		c6.2-10.3,8.2-22.7,8.2-33c0-6.2,0-12.4-2.1-16.5c-4.1-22.7-18.5-39.2-24.7-51.5c-8.2-12.4-14.4-30.9-16.5-49.5
		c0-4.1-2.1-10.3-2.1-14.4v-61.8c0-2.1,0-6.2,0-8.2c2.1-8.2,4.1-16.5,8.2-24.7c4.1-6.2,10.3-12.4,16.5-18.5
		c12.4-8.2,28.8-14.4,51.5-14.4h76.2l-18.5,18.5c6.2,4.1,10.3,10.3,12.4,14.4c6.2,10.3,10.3,22.7,10.3,33v61.8c0,4.1,0,8.2-2.1,14.4
		c-2.1,18.5-8.2,37.1-16.5,49.5l0,0l0,0c-6.2,10.3-18.5,26.8-24.7,49.5l0,0c-2.1,6.2-2.1,12.4-2.1,18.5c0,10.3,2.1,22.7,8.2,33l0,0
		l0,0c10.3,16.5,22.7,24.7,39.2,37.1l92.7,63.9c12.4,6.2,26.8,35,24.7,49.5v53.6H294.7l-51.5,49.5H577c18.5,0,35-14.4,35-33v-70.1
		C612,459.5,593.5,426.5,564.6,403.9z"/>
</g>
<g>
</g>
<g>
</g>
<g>
</g>
<g>
</g>
<g>
</g>
<g>
</g>
<g>
</g>
<g>
</g>
<g>
</g>
<g>
</g>
<g>
</g>
<g>
</g>
<g>
</g>
<g>
</g>
<g>
</g>
</svg>
