<?xml version="1.0" encoding="utf-8"?>
<!-- Generator: Adobe Illustrator 18.1.1, SVG Export Plug-In . SVG Version: 6.00 Build 0)  -->
<svg version="1.1" id="Layer_1" xmlns="http://www.w3.org/2000/svg" xmlns:xlink="http://www.w3.org/1999/xlink" x="0px" y="0px"
	 viewBox="0 0 43.3 44.3" enable-background="new 0 0 43.3 44.3" xml:space="preserve">
<g>
	<path d="M27,17c0.8,0,1.5-0.7,1.5-1.5v-2.1c0-0.8-0.7-1.5-1.5-1.5s-1.5,0.7-1.5,1.5v2.1C25.6,16.3,26.2,17,27,17z M17.7,15.5v-2.1
		c0-0.8-0.6-1.5-1.5-1.5s-1.5,0.7-1.5,1.5v2.1c0,0.8,0.7,1.5,1.5,1.5S17.7,16.3,17.7,15.5z M21.6,25.4c2.8,0,5.3-1.8,6.2-4.4
		c0.2-0.6-0.1-1.2-0.7-1.4c-0.6-0.2-1.2,0.1-1.4,0.7c-0.6,1.7-2.2,2.8-4.1,2.8c-1.9,0-3.5-1.1-4.1-2.8c-0.2-0.6-0.8-0.9-1.4-0.7
		c-0.6,0.2-0.9,0.9-0.7,1.4C16.3,23.6,18.8,25.4,21.6,25.4z M40.6,38.7c-1.8-2.9-4.7-6.4-9-8.7c4.1-3.1,6.7-8,6.7-13.3
		C38.3,7.5,30.9,0,21.6,0C12.4,0,4.9,7.5,4.9,16.7c0,5.3,2.6,10.2,6.7,13.3c-4.3,2.3-7.2,5.8-9,8.7c-1.1,1.7-2,3.5-2.7,5.5
		c0,0,1.2,0,2.5,0c0.6-1.4,1.2-2.9,2.1-4.3c2.7-4.3,6.8-8.2,12.4-9.6c-5.7-1.9-9.8-7.3-9.8-13.6c0-8,6.5-14.4,14.4-14.4
		c8,0,14.4,6.5,14.4,14.4c0,6.4-4.1,11.7-9.8,13.6c5.6,1.4,9.7,5.3,12.4,9.6c0.9,1.4,1.6,2.9,2.1,4.3c1.3,0,2.5,0,2.5,0
		C42.6,42.3,41.7,40.4,40.6,38.7z"/>
</g>
<g>
</g>
<g>
</g>
<g>
</g>
<g>
</g>
<g>
</g>
<g>
</g>
<g>
</g>
<g>
</g>
<g>
</g>
<g>
</g>
<g>
</g>
<g>
</g>
<g>
</g>
<g>
</g>
<g>
</g>
</svg>
