<?xml version="1.0" encoding="utf-8"?>
<!-- Generator: Adobe Illustrator 18.1.1, SVG Export Plug-In . SVG Version: 6.00 Build 0)  -->
<svg version="1.1" id="Layer_1" xmlns="http://www.w3.org/2000/svg" xmlns:xlink="http://www.w3.org/1999/xlink" x="0px" y="0px"
	 viewBox="0 0 46.4 50.4" enable-background="new 0 0 46.4 50.4" xml:space="preserve">
<g>
	<path d="M15.3,34.3c0-4,1.6-7.8,4.4-10.6c1.5-1.5,3.3-2.6,5.2-3.4c2.3-2.1,3.8-5.2,3.8-8.6C28.7,5.3,23.5,0,17,0
		C10.5,0,5.2,5.3,5.2,11.8c0,5.2,3.4,9.5,8,11.1C4.4,25.1,0,34.9,0,40.2c0,3.6,7.6,7.5,17,7.5c2,0,3.8-0.2,5.6-0.5
		c-1-0.6-2-1.4-2.9-2.2C16.9,42.1,15.3,38.4,15.3,34.3z M45.9,47.2l-5.7-5.7c3.4-4.8,3-11.4-1.3-15.7c-4.8-4.7-12.5-4.7-17.2,0
		c-2.3,2.3-3.6,5.4-3.6,8.6c0,3.3,1.3,6.3,3.6,8.6c2.3,2.3,5.4,3.6,8.6,3.6c2.6,0,5-0.8,7.1-2.3l5.7,5.7c0.6,0.6,1.7,0.6,2.3,0
		l0.5-0.5C46.6,48.9,46.6,47.8,45.9,47.2z M36.1,40.2c-1.5,1.6-3.6,2.4-5.8,2.4c-2.2,0-4.3-0.9-5.8-2.4c-1.6-1.6-2.4-3.6-2.4-5.8
		c0-2.2,0.9-4.3,2.4-5.8c3.2-3.2,8.4-3.2,11.6,0C39.3,31.7,39.3,37,36.1,40.2z"/>
</g>
<g>
</g>
<g>
</g>
<g>
</g>
<g>
</g>
<g>
</g>
<g>
</g>
<g>
</g>
<g>
</g>
<g>
</g>
<g>
</g>
<g>
</g>
<g>
</g>
<g>
</g>
<g>
</g>
<g>
</g>
</svg>
