<?xml version="1.0" encoding="utf-8"?>
<!-- Generator: Adobe Illustrator 18.1.1, SVG Export Plug-In . SVG Version: 6.00 Build 0)  -->
<svg version="1.1" id="Layer_1" xmlns="http://www.w3.org/2000/svg" xmlns:xlink="http://www.w3.org/1999/xlink" x="0px" y="0px"
	 viewBox="0 0 45.7 47.7" enable-background="new 0 0 45.7 47.7" xml:space="preserve">
<g>
	<path d="M12.5,37.6c0-3.4,2.7-6.1,6.1-6.1h12.7c-2.2-3.8-5.7-7.4-10.6-8.6c4.6-1.6,8-5.9,8-11.1C28.7,5.3,23.5,0,17,0
		C10.5,0,5.2,5.3,5.2,11.8c0,5.2,3.4,9.5,8,11.1C4.4,25.1,0,34.9,0,40.2c0,3.6,7.6,7.5,17,7.5c6.3,0,11.8-1.8,14.7-4H18.6
		C15.3,43.7,12.5,40.9,12.5,37.6z M42.5,34.3H18.6c-1.8,0-3.3,1.5-3.3,3.3c0,1.8,1.5,3.3,3.3,3.3h23.8c1.8,0,3.2-1.5,3.2-3.3
		C45.7,35.8,44.2,34.3,42.5,34.3z"/>
</g>
<g>
</g>
<g>
</g>
<g>
</g>
<g>
</g>
<g>
</g>
<g>
</g>
<g>
</g>
<g>
</g>
<g>
</g>
<g>
</g>
<g>
</g>
<g>
</g>
<g>
</g>
<g>
</g>
<g>
</g>
</svg>
