<?xml version="1.0" encoding="utf-8"?>
<!-- Generator: Adobe Illustrator 18.1.1, SVG Export Plug-In . SVG Version: 6.00 Build 0)  -->
<svg version="1.1" id="Layer_1" xmlns="http://www.w3.org/2000/svg" xmlns:xlink="http://www.w3.org/1999/xlink" x="0px" y="0px"
	 viewBox="0 0 43.2 45.7" enable-background="new 0 0 43.2 45.7" xml:space="preserve">
<g>
	<path d="M28.2,42.6H13.5V32.2H3V9.3h18.6c-0.1-0.5-0.1-1-0.1-1.5c0-0.5,0.1-1,0.1-1.5H3.9C1.8,6.2,0,8,0,10.2v22.6
		c0,0.1,0,0.2,0,0.3c0.1,1.5,1,2.2,2.1,3.4l7,7c1.2,1.2,2,2.2,3.7,2.2h14.4c0.3,0,0.6,0,0.9-0.1c1.4-0.3,2.6-1.5,2.9-2.9
		c0.1-0.3,0.1-0.6,0.1-0.9v-7.6c-1,0-2-0.1-3-0.3V42.6z M34.4,15.1c3.1-1,5.3-3.9,5.3-7.3c0-4.3-3.5-7.8-7.8-7.8
		c-4.3,0-7.8,3.5-7.8,7.8c0,3.4,2.2,6.3,5.3,7.3c-5.9,1.5-8.7,8-8.7,11.5c0,2.4,5,4.9,11.2,4.9c6.2,0,11.2-2.6,11.2-4.9
		C43.2,23.1,40.3,16.6,34.4,15.1z"/>
</g>
<g>
</g>
<g>
</g>
<g>
</g>
<g>
</g>
<g>
</g>
<g>
</g>
<g>
</g>
<g>
</g>
<g>
</g>
<g>
</g>
<g>
</g>
<g>
</g>
<g>
</g>
<g>
</g>
<g>
</g>
</svg>
