<?xml version="1.0" encoding="utf-8"?>
<!-- Generator: Adobe Illustrator 18.1.1, SVG Export Plug-In . SVG Version: 6.00 Build 0)  -->
<svg version="1.1" id="Layer_1" xmlns="http://www.w3.org/2000/svg" xmlns:xlink="http://www.w3.org/1999/xlink" x="0px" y="0px"
	 viewBox="0 0 57.2 52.8" enable-background="new 0 0 57.2 52.8" xml:space="preserve">
<g>
	<path d="M42.6,0c-6.6,0-12.2,3.5-14,8.2c1.8,2.4,2.9,5.4,2.9,8.7c0,0.5,0,1-0.1,1.5c0.9,0.9,2,1.6,3.2,2.2V28l5.8-5.6
		c0.7,0.1,1.4,0.1,2.1,0.1c8,0,14.5-5,14.5-11.2S50.6,0,42.6,0z M35.3,13.6c-1.3,0-2.3-1-2.3-2.3c0-1.3,1-2.3,2.3-2.3
		c1.3,0,2.3,1,2.3,2.3C37.7,12.6,36.6,13.6,35.3,13.6z M42.6,13.6c-1.3,0-2.3-1-2.3-2.3c0-1.3,1-2.3,2.3-2.3c1.3,0,2.3,1,2.3,2.3
		C45,12.6,43.9,13.6,42.6,13.6z M49.9,13.6c-1.3,0-2.3-1-2.3-2.3c0-1.3,1-2.3,2.3-2.3c1.3,0,2.3,1,2.3,2.3
		C52.2,12.6,51.2,13.6,49.9,13.6z M20.7,28c4.6-1.6,8-5.9,8-11.1c0-6.5-5.3-11.8-11.7-11.8c-6.5,0-11.8,5.3-11.8,11.8
		c0,5.2,3.4,9.5,8,11.1C4.4,30.2,0,40.1,0,45.4c0,3.6,7.6,7.5,17,7.5s17-3.9,17-7.5C34,40.1,29.6,30.2,20.7,28z"/>
</g>
<g>
</g>
<g>
</g>
<g>
</g>
<g>
</g>
<g>
</g>
<g>
</g>
<g>
</g>
<g>
</g>
<g>
</g>
<g>
</g>
<g>
</g>
<g>
</g>
<g>
</g>
<g>
</g>
<g>
</g>
</svg>
