<?xml version="1.0" encoding="utf-8"?>
<!-- Generator: Adobe Illustrator 18.1.1, SVG Export Plug-In . SVG Version: 6.00 Build 0)  -->
<svg version="1.1" id="Layer_1" xmlns="http://www.w3.org/2000/svg" xmlns:xlink="http://www.w3.org/1999/xlink" x="0px" y="0px"
	 viewBox="0 0 45.7 54.7" enable-background="new 0 0 45.7 54.7" xml:space="preserve">
<g>
	<path d="M12.5,39.5c0-3.4,2.7-6.1,6.1-6.1c0,0,3.3,0,5.8,0c0-2.6,0-5.8,0-5.8c0-1,0.3-2,0.7-2.8c-1.3-0.8-2.8-1.5-4.4-1.9
		c4.6-1.6,8-5.9,8-11.1C28.7,5.3,23.5,0,17,0C10.5,0,5.2,5.3,5.2,11.8c0,5.2,3.4,9.5,8,11.1C4.4,25.1,0,34.9,0,40.2
		c0,3.6,7.6,7.5,17,7.5c2.7,0,5.2-0.3,7.5-0.9v-1.2c-2.6,0-5.8,0-5.8,0C15.2,45.6,12.5,42.8,12.5,39.5z M42.5,36.2h-8.7v-8.7
		c0-1.8-1.5-3.2-3.3-3.2s-3.3,1.5-3.3,3.2v8.7h-8.7c-1.8,0-3.3,1.5-3.3,3.3c0,1.8,1.5,3.3,3.3,3.3h8.7v8.7c0,1.8,1.5,3.3,3.3,3.3
		s3.3-1.5,3.3-3.3v-8.7h8.7c1.8,0,3.2-1.5,3.2-3.3C45.7,37.7,44.2,36.2,42.5,36.2z"/>
</g>
<g>
</g>
<g>
</g>
<g>
</g>
<g>
</g>
<g>
</g>
<g>
</g>
<g>
</g>
<g>
</g>
<g>
</g>
<g>
</g>
<g>
</g>
<g>
</g>
<g>
</g>
<g>
</g>
<g>
</g>
</svg>
