<?xml version="1.0" encoding="utf-8"?>
<!-- Generator: Adobe Illustrator 18.1.1, SVG Export Plug-In . SVG Version: 6.00 Build 0)  -->
<svg version="1.1" id="Layer_1" xmlns="http://www.w3.org/2000/svg" xmlns:xlink="http://www.w3.org/1999/xlink" x="0px" y="0px"
	 viewBox="0 0 611.4 612" enable-background="new 0 0 611.4 612" xml:space="preserve">
<g>
	<path d="M308.3,313c7-4.6,20.9-16.2,30.1-23.2c0,0,0,0,9.3-4.6c9.3-4.6,9.3-4.6,9.3-4.6c11.6-4.6,27.8-11.6,34.8-16.2
		c9.3-2.3,20.9,0,25.5,7c7,7,18.5,23.2,23.2,27.8s9.3,9.3,11.6,9.3c0,0,4.6-2.3,7-7V30.1C459,13.9,445.1,0,428.9,0H30.1
		C13.9,0,0,13.9,0,30.1v442.8C0,489.1,13.9,503,30.1,503H248c0-9.3-2.3-25.5-2.3-39.4H60.3c-9.3,0-16.2-7-13.9-16.2l4.6-34.8
		c0-9.3,9.3-20.9,16.2-25.5l104.3-60.3c7-4.6,13.9-16.2,13.9-25.5v-32.5l0,0c-7-7-16.2-16.2-20.9-20.9
		c-11.6-11.6-18.5-32.5-23.2-83.5c-7-69.5,32.5-109,88.1-111.3l0,0l0,0l0,0l0,0c53.3,0,92.7,41.7,88.1,111.3
		c-4.6,51-11.6,71.9-20.9,83.5c-2.3,4.6-11.6,13.9-20.9,20.9l0,0l0,0v32.5c0,9.3,7,20.9,13.9,25.5l9.3,4.6
		C299,326.9,301.4,317.6,308.3,313z"/>
	<path d="M609.7,435.8c-9.3-2.3-44-7-51-7c-4.6-13.9-11.6-30.1-23.2-41.7c2.3-7,16.2-39.4,18.5-48.7c-13.9-11.6-30.1-20.9-46.4-27.8
		c-7,7-27.8,34.8-32.5,41.7c-16.2-2.3-32.5-2.3-46.4,0c-4.6-4.6-25.5-32.5-32.5-41.7c-16.2,7-32.5,16.2-46.4,27.8
		c2.3,9.3,16.2,41.7,18.5,48.7c-4.6,7-9.3,11.6-13.9,18.5c-4.6,7-7,13.9-9.3,20.9c-7,2.3-41.7,4.6-51,7c-2.3,18.5-2.3,34.8,0,53.3
		c9.3,2.3,44,7,51,7c4.6,13.9,11.6,30.1,23.2,41.7c-2.3,7-16.2,39.4-18.5,48.7c13.9,11.6,30.1,20.9,46.4,27.8
		c7-7,27.8-34.8,32.5-41.7c16.2,2.3,32.5,2.3,46.4,0c4.6,4.6,25.5,32.5,32.5,41.7c16.2-7,32.5-16.2,46.4-27.8
		c-2.3-9.3-16.2-41.7-18.5-48.7c4.6-4.6,9.3-11.6,13.9-18.5c4.6-7,7-13.9,9.3-20.9c7-2.3,41.7-4.6,51-7
		C612,472.9,612,454.4,609.7,435.8z M512.3,498.4c-18.5,32.5-60.3,44-92.7,25.5c-32.5-18.5-44-60.3-25.5-92.7s60.3-44,92.7-25.5
		C519.3,421.9,530.9,463.6,512.3,498.4z"/>
</g>
<g>
</g>
<g>
</g>
<g>
</g>
<g>
</g>
<g>
</g>
<g>
</g>
<g>
</g>
<g>
</g>
<g>
</g>
<g>
</g>
<g>
</g>
<g>
</g>
<g>
</g>
<g>
</g>
<g>
</g>
</svg>
