<?xml version="1.0" encoding="utf-8"?>
<!-- Generator: Adobe Illustrator 18.1.1, SVG Export Plug-In . SVG Version: 6.00 Build 0)  -->
<svg version="1.1" id="Layer_1" xmlns="http://www.w3.org/2000/svg" xmlns:xlink="http://www.w3.org/1999/xlink" x="0px" y="0px"
	 viewBox="0 0 46.7 46.6" enable-background="new 0 0 46.7 46.6" xml:space="preserve">
<g>
	<path d="M45.3,33.7c-1-2.2-3.4-3.4-5.6-4.1c-2.2-0.7-5.4-1.6-7.7-2.4c-2.2-0.7-2.7-2-2.7-2.7c0-0.6-0.1-1.4-0.1-2
		c2.3-2.9,3.3-6.8,3.6-10.5c0.2-2.6,0.2-5.9-1.3-8.2c-1.5-2.3-5.3-3.7-7.9-3.8h0c0,0-0.1,0-0.1,0c0,0-0.1,0-0.1,0h0
		c-2.7,0.1-6.4,1.4-7.9,3.8c-1.5,2.3-1.5,5.5-1.3,8.2c0.2,3.7,1.2,7.6,3.6,10.5c0,0.7-0.1,1.5-0.1,2c-0.1,0.7-0.6,2-2.7,2.7
		C12.4,28,9.2,28.9,7,29.6c-2.2,0.7-4.6,1.9-5.6,4.1c-0.7,1.4-1,3.9-1.2,5.8L15,32c0.6-0.3,1.3-0.5,2-0.5c0.8,0,1.5,0.2,2.2,0.6l0,0
		l0,0c1.3,0.8,2.1,2.2,2.1,3.7v1.4l10.7,0c0.5,0,0.9,0.1,1,0.1c0,0,0,0,0,0c0.8,0.2,1.5,0.6,2.1,1.2c0.7,0.7,1.1,1.6,1.2,2.6h9.3
		c0.3,0,0.6-0.1,0.7-0.3c0.2-0.2,0.3-0.4,0.3-0.7C46.5,38.4,46.1,35.4,45.3,33.7z M32.1,41.2c0,0-0.1,0-0.1,0H17.5v-5.3
		c0-0.2-0.1-0.3-0.2-0.4c-0.1,0-0.2-0.1-0.2-0.1c-0.1,0-0.2,0-0.2,0.1L0.2,43.8C0.1,43.8,0,44,0,44.2v2c0,0.1,0,0.3,0.1,0.3
		c0.1,0.1,0.2,0.1,0.3,0.1H32c0.1,0,0.3,0,0.3-0.1c0.1-0.1,0.1-0.2,0.1-0.3v-4.5c0-0.1,0-0.3-0.1-0.3C32.3,41.2,32.2,41.2,32.1,41.2
		z"/>
</g>
<g>
</g>
<g>
</g>
<g>
</g>
<g>
</g>
<g>
</g>
<g>
</g>
<g>
</g>
<g>
</g>
<g>
</g>
<g>
</g>
<g>
</g>
<g>
</g>
<g>
</g>
<g>
</g>
<g>
</g>
</svg>
