<?xml version="1.0" encoding="utf-8"?>
<!-- Generator: Adobe Illustrator 18.1.1, SVG Export Plug-In . SVG Version: 6.00 Build 0)  -->
<svg version="1.1" id="Layer_1" xmlns="http://www.w3.org/2000/svg" xmlns:xlink="http://www.w3.org/1999/xlink" x="0px" y="0px"
	 viewBox="0 0 49.2 55.9" enable-background="new 0 0 49.2 55.9" xml:space="preserve">
<g>
	<path d="M18.5,15v-1.8c0-0.7-0.6-1.3-1.3-1.3c-0.7,0-1.3,0.6-1.3,1.3V15c0,0.7,0.6,1.3,1.3,1.3C18,16.3,18.5,15.7,18.5,15z
		 M27.5,19.9c0.2-0.5-0.1-1.1-0.6-1.3c-0.5-0.2-1.1,0.1-1.3,0.6c-0.5,1.5-2,2.5-3.6,2.5c-1.6,0-3.1-1-3.6-2.5
		c-0.2-0.5-0.8-0.8-1.3-0.6c-0.5,0.2-0.8,0.8-0.6,1.3c0.8,2.3,3,3.9,5.5,3.9C24.5,23.8,26.7,22.2,27.5,19.9z M26.8,16.3
		c0.7,0,1.3-0.6,1.3-1.3v-1.8c0-0.7-0.6-1.3-1.3-1.3c-0.7,0-1.3,0.6-1.3,1.3V15C25.5,15.7,26.1,16.3,26.8,16.3z M49,37.2L48.8,36
		c0,0-2.5-0.5-3.4-0.7c-0.3-0.7-0.5-1.3-0.8-2c0.5-0.8,2-3,2-3l-2.2-2.6l-2.7-2.3l-1,0.8c0,0-1.2,0.8-1.9,1.3
		c-0.7-0.3-1.3-0.5-2-0.8c-0.1-0.7-0.4-2.3-0.6-3c1.2-2.3,1.9-4.8,1.9-7.6C38.1,7.2,30.9,0,22,0C13.1,0,5.9,7.2,5.9,16.1
		c0,4.5,1.9,8.7,5.1,11.6c-3.1,2.1-5.4,4.8-6.9,7.1c-1,1.6-1.8,3.3-2.5,5.1L0,44.5h20.3c0.1,0.3,0.3,0.7,0.4,1c-0.5,0.8-2,3-2,3
		l2.2,2.6l2.7,2.3l1-0.8c0,0,1.2-0.8,1.9-1.3c0.7,0.3,1.3,0.5,2,0.8c0.2,0.9,0.7,3.4,0.7,3.4l1.2,0.2c1.5,0.2,3,0.2,4.5,0l1.2-0.2
		c0,0,0.5-2.5,0.7-3.4c0.7-0.3,1.3-0.5,2-0.8c0.8,0.5,3,2,3,2l2.6-2.2c0,0,2.3-2.7,2.3-2.7l-0.8-1c0,0-0.8-1.1-1.3-1.9
		c0.3-0.7,0.5-1.3,0.8-2c0.9-0.2,3.4-0.7,3.4-0.7l0.2-1.2c0.1-0.7,0.2-1.5,0.2-2.2C49.2,38.7,49.1,37.9,49,37.2z M16.3,37.2
		c-0.1,0.7-0.2,1.5-0.2,2.2c0,0.6,0.1,1.1,0.1,1.7H4.8c0.5-1.5,1.2-3,2.2-4.5c2.4-3.8,6-7.3,11-8.5c-5-1.7-8.7-6.4-8.7-12
		C9.3,9.1,15,3.4,22,3.4c7,0,12.8,5.7,12.8,12.8c0,2.5-0.8,4.9-2,6.8c-0.8,0-1.5,0-2.3,0.1l-1.2,0.2c0,0-0.5,2.5-0.7,3.4
		c-0.7,0.3-1.3,0.5-2,0.8c-0.8-0.5-3-2-3-2L21,27.7c0,0-2.3,2.7-2.3,2.7l0.8,1c0,0,0.8,1.1,1.3,1.9c-0.3,0.7-0.5,1.3-0.8,2
		C19,35.5,16.5,36,16.5,36L16.3,37.2z M45.8,40c-0.9,0.2-2.8,0.5-2.8,0.5l-2.2,5.3c0,0,1.1,1.6,1.6,2.4c-0.2,0.2-0.4,0.5-0.4,0.5
		s-0.2,0.2-0.5,0.4c-0.8-0.5-2.4-1.6-2.4-1.6l-5.3,2.2c0,0-0.4,1.9-0.5,2.8c-0.4,0-0.8,0-1.2,0c-0.2-0.9-0.5-2.8-0.5-2.8l-5.3-2.2
		c0,0-1.6,1.1-2.4,1.6c-0.2-0.2-0.5-0.4-0.5-0.4s-0.2-0.3-0.4-0.5c0.5-0.8,1.6-2.4,1.6-2.4l-2.2-5.3c0,0-1.9-0.4-2.8-0.5
		c0-0.2,0-0.4,0-0.6c0-0.2,0-0.4,0-0.6c0.9-0.2,2.8-0.5,2.8-0.5l2.2-5.3c0,0-1.1-1.6-1.6-2.4c0.2-0.2,0.4-0.5,0.4-0.5
		s0.2-0.2,0.5-0.4c0.8,0.5,2.4,1.6,2.4,1.6l5.3-2.2c0,0,0.4-1.9,0.5-2.8c0.4,0,0.8,0,1.2,0c0.2,0.9,0.5,2.8,0.5,2.8l5.3,2.2
		c0,0,1.6-1.1,2.4-1.6c0.2,0.2,0.5,0.4,0.5,0.4s0.2,0.3,0.4,0.5c-0.5,0.8-1.6,2.4-1.6,2.4l2.2,5.3c0,0,1.9,0.4,2.8,0.5
		c0,0.2,0,0.4,0,0.6C45.8,39.6,45.8,39.8,45.8,40z M28.3,35.1c-1.2,1.2-1.8,2.7-1.8,4.3c0,1.6,0.6,3.2,1.8,4.3
		c1.2,1.2,2.7,1.8,4.3,1.8c1.6,0,3.2-0.6,4.3-1.8c1.2-1.2,1.8-2.7,1.8-4.3c0-1.6-0.6-3.2-1.8-4.3C34.6,32.7,30.7,32.7,28.3,35.1z
		 M35.5,42.3L35.5,42.3c-0.8,0.8-1.8,1.2-2.9,1.2c-1.1,0-2.1-0.4-2.9-1.2c-0.8-0.8-1.2-1.8-1.2-2.9c0-1.1,0.4-2.1,1.2-2.9
		c1.6-1.6,4.2-1.6,5.8,0c0.8,0.8,1.2,1.8,1.2,2.9C36.7,40.5,36.3,41.5,35.5,42.3z"/>
</g>
<g>
</g>
<g>
</g>
<g>
</g>
<g>
</g>
<g>
</g>
<g>
</g>
<g>
</g>
<g>
</g>
<g>
</g>
<g>
</g>
<g>
</g>
<g>
</g>
<g>
</g>
<g>
</g>
<g>
</g>
</svg>
