<?xml version="1.0" encoding="utf-8"?>
<!-- Generator: Adobe Illustrator 18.1.1, SVG Export Plug-In . SVG Version: 6.00 Build 0)  -->
<svg version="1.1" id="Layer_1" xmlns="http://www.w3.org/2000/svg" xmlns:xlink="http://www.w3.org/1999/xlink" x="0px" y="0px"
	 viewBox="0 0 612 669.2" enable-background="new 0 0 612 669.2" xml:space="preserve">
<path d="M574.8,0H37.2C17.2,0,0,17.2,0,37.2V632c0,20,17.2,37.2,37.2,37.2h537.6c20,0,37.2-17.2,37.2-37.2V37.2
	C612,17.2,594.8,0,574.8,0z M531.9,617.7H80.1c-11.4,0-20-11.4-20-22.9l5.7-45.8c2.9-11.4,11.4-28.6,22.9-34.3l140.1-80.1
	c11.4-5.7,20-20,20-34.3v-42.9l0,0c-11.4-11.4-22.9-22.9-25.7-28.6c-14.3-14.3-22.9-42.9-28.6-111.5
	c-8.6-91.5,42.9-145.9,117.3-145.9l0,0l0,0l0,0l0,0c71.5,2.9,125.8,57.2,117.3,145.9c-5.7,65.8-14.3,94.4-28.6,111.5
	c-5.7,5.7-17.2,17.2-25.7,28.6l0,0l0,0v42.9c0,11.4,8.6,28.6,20,34.3l140.1,80.1c11.4,5.7,20,20,22.9,34.3l5.7,45.8
	C554.8,609.1,546.2,617.7,531.9,617.7z"/>
<g>
</g>
<g>
</g>
<g>
</g>
<g>
</g>
<g>
</g>
<g>
</g>
<g>
</g>
<g>
</g>
<g>
</g>
<g>
</g>
<g>
</g>
<g>
</g>
<g>
</g>
<g>
</g>
<g>
</g>
</svg>
