<?xml version="1.0" encoding="utf-8"?>
<!-- Generator: Adobe Illustrator 18.1.1, SVG Export Plug-In . SVG Version: 6.00 Build 0)  -->
<svg version="1.1" id="Layer_1" xmlns="http://www.w3.org/2000/svg" xmlns:xlink="http://www.w3.org/1999/xlink" x="0px" y="0px"
	 viewBox="0 0 34 47.7" enable-background="new 0 0 34 47.7" xml:space="preserve">
<g>
	<path d="M20.7,22.8c4.6-1.6,8-5.9,8-11.1C28.7,5.3,23.5,0,17,0S5.2,5.3,5.2,11.8c0,5.2,3.4,9.5,8,11.1C4.4,25.1,0,34.9,0,40.2
		c0,3.6,7.6,7.5,17,7.5c9.4,0,17-3.9,17-7.5C34,34.9,29.6,25.1,20.7,22.8z M17,45.5l-4.2-3.7l3.3-12.7l-2.8-4c1.2,0.3,6.1,0.3,7.3,0
		l-2.8,4l3.3,12.7L17,45.5z"/>
</g>
<g>
</g>
<g>
</g>
<g>
</g>
<g>
</g>
<g>
</g>
<g>
</g>
<g>
</g>
<g>
</g>
<g>
</g>
<g>
</g>
<g>
</g>
<g>
</g>
<g>
</g>
<g>
</g>
<g>
</g>
</svg>
