<?xml version="1.0" encoding="utf-8"?>
<!-- Generator: Adobe Illustrator 18.1.1, SVG Export Plug-In . SVG Version: 6.00 Build 0)  -->
<svg version="1.1" id="Layer_1" xmlns="http://www.w3.org/2000/svg" xmlns:xlink="http://www.w3.org/1999/xlink" x="0px" y="0px"
	 viewBox="0 0 43.7 52.7" enable-background="new 0 0 43.7 52.7" xml:space="preserve">
<g>
	<path d="M24.7,25.3c0.2-0.2,0.4-0.3,0.5-0.4c-1.4-0.9-2.9-1.6-4.6-2c4.6-1.6,8-5.9,8-11.1C28.7,5.3,23.5,0,17,0
		C10.5,0,5.2,5.3,5.2,11.8c0,5.2,3.4,9.5,8,11.1C4.4,25.1,0,34.9,0,40.2c0,3.6,7.6,7.5,17,7.5c0.4,0,0.9,0,1.3,0l-8-8L24.7,25.3z
		 M41.2,33H28.5v-5c0-1.4-0.8-1.7-1.8-0.7L14.4,39.7l12.4,12.4c1,1,1.8,0.6,1.8-0.7v-5h12.7c1.4,0,2.5-1.1,2.5-2.5v-8.4
		C43.7,34.1,42.6,33,41.2,33z"/>
</g>
<g>
</g>
<g>
</g>
<g>
</g>
<g>
</g>
<g>
</g>
<g>
</g>
<g>
</g>
<g>
</g>
<g>
</g>
<g>
</g>
<g>
</g>
<g>
</g>
<g>
</g>
<g>
</g>
<g>
</g>
</svg>
