<?xml version="1.0" encoding="utf-8"?>
<!-- Generator: Adobe Illustrator 18.1.1, SVG Export Plug-In . SVG Version: 6.00 Build 0)  -->
<svg version="1.1" id="Layer_1" xmlns="http://www.w3.org/2000/svg" xmlns:xlink="http://www.w3.org/1999/xlink" x="0px" y="0px"
	 viewBox="0 0 45.5 51.7" enable-background="new 0 0 45.5 51.7" xml:space="preserve">
<g>
	<path d="M22.4,30.7c-1.3-1.3-2.3-2.9-2.9-4.6c0,0,0,0,0,0c-3.7,0-6.7-3-6.7-6.7c0-3.7,3-6.7,6.7-6.7c1,0,1.9,0.2,2.7,0.6
		c2.3-2.5,5.6-4.1,9.3-4.1c0.8,0,1.5,0.1,2.3,0.2c0.4-0.6,0.9-1.3,1.2-1.8C33.8,6.3,32.6,5,31.2,4c-1,0.7-3.5,2.3-3.5,2.3l-4.8-2
		c0,0-0.6-2.9-0.8-4.1C21.2,0.1,20.3,0,19.4,0c-0.9,0-1.8,0.1-2.6,0.2C16.6,1.4,16,4.3,16,4.3l-4.8,2c0,0-2.4-1.6-3.5-2.3
		C6.3,5,5,6.3,4,7.7c0.7,1,2.3,3.5,2.3,3.5l-2,4.8c0,0-2.9,0.6-4.1,0.8C0.1,17.7,0,18.5,0,19.4c0,0.9,0.1,1.8,0.2,2.6
		c1.2,0.2,4.1,0.8,4.1,0.8l2,4.8c0,0-1.6,2.4-2.3,3.5c1.1,1.4,2.3,2.7,3.7,3.7c1.1-0.7,3.5-2.3,3.5-2.3l4.8,2c0,0,0.3,1.6,0.6,3
		C17.9,35,19.9,32.5,22.4,30.7z M34.5,31.2c3.8-1.3,6.6-4.9,6.6-9.2c0-5.4-4.3-9.7-9.7-9.7s-9.7,4.3-9.7,9.7c0,4.3,2.8,7.9,6.6,9.2
		C21,33,17.4,41.2,17.4,45.5c0,3,6.3,6.2,14,6.2c7.8,0,14-3.2,14-6.2C45.5,41.2,41.9,33,34.5,31.2z"/>
</g>
<g>
</g>
<g>
</g>
<g>
</g>
<g>
</g>
<g>
</g>
<g>
</g>
<g>
</g>
<g>
</g>
<g>
</g>
<g>
</g>
<g>
</g>
<g>
</g>
<g>
</g>
<g>
</g>
<g>
</g>
</svg>
