<?xml version="1.0" encoding="utf-8"?>
<!-- Generator: Adobe Illustrator 18.1.1, SVG Export Plug-In . SVG Version: 6.00 Build 0)  -->
<svg version="1.1" id="Layer_1" xmlns="http://www.w3.org/2000/svg" xmlns:xlink="http://www.w3.org/1999/xlink" x="0px" y="0px"
	 viewBox="0 0 45.6 52.7" enable-background="new 0 0 45.6 52.7" xml:space="preserve">
<g>
	<path d="M18.7,30.1c0,0,6.4,0,9.8,0c0-1,0-2.1,0-2.1c0-0.1,0-0.2,0-0.3c-2-2.2-4.7-4.1-7.9-4.9c4.6-1.6,8-5.9,8-11.1
		C28.7,5.3,23.5,0,17,0C10.5,0,5.2,5.3,5.2,11.8c0,5.2,3.4,9.5,8,11.1C4.4,25.1,0,34.9,0,40.2c0,3.3,6.5,6.9,14.9,7.4
		c-0.9-1-1.5-2.3-1.5-3.7v-8.4C13.4,32.5,15.8,30.1,18.7,30.1z M33.2,27.3c-1-1-1.8-0.6-1.8,0.7v5H18.7c-1.4,0-2.5,1.1-2.5,2.5v8.4
		c0,1.4,1.1,2.5,2.5,2.5h12.7v5c0,1.4,0.8,1.7,1.8,0.7l12.4-12.4L33.2,27.3z"/>
</g>
<g>
</g>
<g>
</g>
<g>
</g>
<g>
</g>
<g>
</g>
<g>
</g>
<g>
</g>
<g>
</g>
<g>
</g>
<g>
</g>
<g>
</g>
<g>
</g>
<g>
</g>
<g>
</g>
<g>
</g>
</svg>
