<?xml version="1.0" encoding="utf-8"?>
<!-- Generator: Adobe Illustrator 18.1.1, SVG Export Plug-In . SVG Version: 6.00 Build 0)  -->
<svg version="1.1" id="Layer_1" xmlns="http://www.w3.org/2000/svg" xmlns:xlink="http://www.w3.org/1999/xlink" x="0px" y="0px"
	 viewBox="0 0 42.4 45.4" enable-background="new 0 0 42.4 45.4" xml:space="preserve">
<g>
	<path d="M3,13.5h10.5V3h14.7v8.6c0.9-0.3,1.9-0.4,3-0.4c0,0,0,0,0.1,0V3.9c0-0.3,0-0.6-0.1-0.9c-0.3-1.4-1.5-2.6-2.9-2.9
		C27.9,0,27.6,0,27.3,0H12.9c-1.7,0-2.5,0.9-3.7,2.2l-7,7c-1.2,1.2-2,1.9-2.1,3.4c0,0.1,0,0.2,0,0.3v22.6c0,2.2,1.8,3.9,3.9,3.9
		h13.4c0.1-1,0.3-2,0.7-3H3V13.5z M33.7,29c3.1-1,5.3-3.9,5.3-7.3c0-4.3-3.5-7.8-7.8-7.8c-4.3,0-7.8,3.5-7.8,7.8
		c0,3.4,2.2,6.3,5.3,7.3c-5.9,1.5-8.7,8-8.7,11.5c0,2.4,5,4.9,11.2,4.9c6.2,0,11.2-2.6,11.2-4.9C42.4,36.9,39.5,30.4,33.7,29z"/>
</g>
<g>
</g>
<g>
</g>
<g>
</g>
<g>
</g>
<g>
</g>
<g>
</g>
<g>
</g>
<g>
</g>
<g>
</g>
<g>
</g>
<g>
</g>
<g>
</g>
<g>
</g>
<g>
</g>
<g>
</g>
</svg>
