<?xml version="1.0" encoding="utf-8"?>
<!-- Generator: Adobe Illustrator 18.1.1, SVG Export Plug-In . SVG Version: 6.00 Build 0)  -->
<svg version="1.1" id="Layer_1" xmlns="http://www.w3.org/2000/svg" xmlns:xlink="http://www.w3.org/1999/xlink" x="0px" y="0px"
	 viewBox="0 0 40.2 47.4" enable-background="new 0 0 40.2 47.4" xml:space="preserve">
<g>
	<path d="M36.3,0H3.9C1.8,0,0,1.8,0,3.9v39.6c0,2.2,1.8,3.9,3.9,3.9h32.4c2.2,0,3.9-1.8,3.9-3.9V3.9C40.2,1.8,38.4,0,36.3,0z
		 M3.7,44.7c0.7-5.3,4.9-13.4,12.8-15.4c-4.5-1.5-7.8-5.8-7.8-10.8c0-6.3,5.1-11.5,11.5-11.5c6.3,0,11.5,5.1,11.5,11.5
		c0,5-3.3,9.3-7.8,10.8c7.8,2,12.1,10,12.8,15.4H3.7z"/>
</g>
<g>
</g>
<g>
</g>
<g>
</g>
<g>
</g>
<g>
</g>
<g>
</g>
<g>
</g>
<g>
</g>
<g>
</g>
<g>
</g>
<g>
</g>
<g>
</g>
<g>
</g>
<g>
</g>
<g>
</g>
</svg>
