<?xml version="1.0" encoding="utf-8"?>
<!-- Generator: Adobe Illustrator 18.1.1, SVG Export Plug-In . SVG Version: 6.00 Build 0)  -->
<svg version="1.1" id="Layer_1" xmlns="http://www.w3.org/2000/svg" xmlns:xlink="http://www.w3.org/1999/xlink" x="0px" y="0px"
	 viewBox="0 0 45.8 52.6" enable-background="new 0 0 45.8 52.6" xml:space="preserve">
<g>
	<path d="M23.9,25.2c0.8,0,1.5,0.1,2.3,0.3c-1.6-1.2-3.4-2.1-5.5-2.7c4.6-1.6,8-5.9,8-11.1C28.7,5.3,23.5,0,17,0
		C10.5,0,5.2,5.3,5.2,11.8c0,5.2,3.4,9.5,8,11.1C4.4,25.1,0,34.9,0,40.2c0,3.6,7.6,7.5,17,7.5c0.9,0,1.9,0,2.8-0.1
		c-3.4-3.3-6.4-7.5-6.4-11.8C13.4,29.9,18.1,25.2,23.9,25.2z M38.1,28c-3.2,0-5.9,1.9-7.1,4.7C29.8,30,27.1,28,23.9,28
		c-4.3,0-7.7,3.4-7.7,7.7C16.2,44,31,52.6,31,52.6S45.8,44,45.8,35.7C45.8,31.5,42.4,28,38.1,28z"/>
</g>
<g>
</g>
<g>
</g>
<g>
</g>
<g>
</g>
<g>
</g>
<g>
</g>
<g>
</g>
<g>
</g>
<g>
</g>
<g>
</g>
<g>
</g>
<g>
</g>
<g>
</g>
<g>
</g>
<g>
</g>
</svg>
