<?xml version="1.0" encoding="utf-8"?>
<!-- Generator: Adobe Illustrator 18.1.1, SVG Export Plug-In . SVG Version: 6.00 Build 0)  -->
<svg version="1.1" id="Layer_1" xmlns="http://www.w3.org/2000/svg" xmlns:xlink="http://www.w3.org/1999/xlink" x="0px" y="0px"
	 viewBox="0 0 39 42.8" enable-background="new 0 0 39 42.8" xml:space="preserve">
<g>
	<path d="M36.5,37.7c-2.7-4.3-6.8-8.2-12.4-9.6c5.7-1.9,9.8-7.3,9.8-13.6c0-8-6.5-14.4-14.4-14.4c-8,0-14.4,6.5-14.4,14.4
		c0,6.4,4.1,11.7,9.8,13.6c-5.6,1.4-9.7,5.3-12.4,9.6c-1.1,1.7-1.9,3.4-2.5,5.1h39C38.4,41.1,37.6,39.4,36.5,37.7z M23.4,11.2
		c0-0.8,0.7-1.5,1.5-1.5c0.8,0,1.5,0.7,1.5,1.5v2.1c0,0.8-0.7,1.5-1.5,1.5c-0.8,0-1.5-0.7-1.5-1.5V11.2z M12.7,13.2v-2.1
		c0-0.8,0.7-1.5,1.5-1.5s1.5,0.7,1.5,1.5v2.1c0,0.8-0.6,1.5-1.5,1.5S12.7,14,12.7,13.2z M13.3,18.7c-0.2-0.6,0.1-1.2,0.7-1.4
		c0.6-0.2,1.2,0.1,1.4,0.7c0.6,1.7,2.2,2.8,4.1,2.8c1.9,0,3.5-1.1,4.1-2.8c0.2-0.6,0.8-0.9,1.4-0.7c0.6,0.2,0.9,0.9,0.7,1.4
		c-0.9,2.6-3.4,4.4-6.2,4.4C16.7,23.1,14.2,21.4,13.3,18.7z"/>
</g>
<g>
</g>
<g>
</g>
<g>
</g>
<g>
</g>
<g>
</g>
<g>
</g>
<g>
</g>
<g>
</g>
<g>
</g>
<g>
</g>
<g>
</g>
<g>
</g>
<g>
</g>
<g>
</g>
<g>
</g>
</svg>
