<?xml version="1.0" encoding="utf-8"?>
<!-- Generator: Adobe Illustrator 18.1.1, SVG Export Plug-In . SVG Version: 6.00 Build 0)  -->
<svg version="1.1" id="Layer_1" xmlns="http://www.w3.org/2000/svg" xmlns:xlink="http://www.w3.org/1999/xlink" x="0px" y="0px"
	 viewBox="0 0 50.1 53.3" enable-background="new 0 0 50.1 53.3" xml:space="preserve">
<g>
	<path d="M23,26.2c0.6-0.6,1.2-1.1,1.9-1.6c-1.2-0.8-2.6-1.4-4.1-1.7c4.6-1.6,8-5.9,8-11.1C28.7,5.3,23.5,0,17,0
		C10.5,0,5.2,5.3,5.2,11.8c0,5.2,3.4,9.5,8,11.1C4.4,25.1,0,34.9,0,40.2c0,3.6,7.6,7.5,17,7.5c1.1,0,2.2-0.1,3.3-0.2
		C16.3,40.8,17.2,32,23,26.2z M45.8,28.2c-5.7-5.7-15.1-5.7-20.8,0c-5.7,5.7-5.7,15.1,0,20.8c5.7,5.7,15.1,5.7,20.8,0
		C51.5,43.2,51.5,33.9,45.8,28.2z M28,31.2c3.5-3.5,9-4,13.1-1.4L26.6,44.3C24,40.2,24.4,34.8,28,31.2z M42.7,45.9
		c-3.5,3.5-9,4-13.1,1.4l14.4-14.4C46.7,36.9,46.3,42.4,42.7,45.9z"/>
</g>
<g>
</g>
<g>
</g>
<g>
</g>
<g>
</g>
<g>
</g>
<g>
</g>
<g>
</g>
<g>
</g>
<g>
</g>
<g>
</g>
<g>
</g>
<g>
</g>
<g>
</g>
<g>
</g>
<g>
</g>
</svg>
