<?xml version="1.0" encoding="utf-8"?>
<!-- Generator: Adobe Illustrator 18.1.1, SVG Export Plug-In . SVG Version: 6.00 Build 0)  -->
<svg version="1.1" id="Layer_1" xmlns="http://www.w3.org/2000/svg" xmlns:xlink="http://www.w3.org/1999/xlink" x="0px" y="0px"
	 viewBox="0 0 47.8 47.6" enable-background="new 0 0 47.8 47.6" xml:space="preserve">
<g>
	<path d="M35.6,36.9l-3.4,0c-0.3,0-0.6,0.1-0.9,0.2c0.2,0.5,0.3,1.1,0.3,1.7c0,2.5-2.1,4.5-4.6,4.5h-6.8c-2.6,0-4.6-2-4.6-4.5
		c0-2.5,2.1-4.5,4.6-4.5l1.5,0c0.7-1.6,1.8-3.1,3.2-4.2l-4.7,0c-4.9,0-8.8,3.9-8.8,8.7c0,4.8,4,8.7,8.8,8.7H27
		c4.9,0,8.8-3.9,8.8-8.7C35.8,38.2,35.7,37.5,35.6,36.9z M39,30.1h-6.8c-4.9,0-8.8,3.9-8.8,8.7c0,0.7,0.1,1.3,0.2,1.9l3.4,0
		c0.3,0,0.6-0.1,0.9-0.2c-0.2-0.5-0.3-1.1-0.3-1.7c0-2.5,2.1-4.5,4.6-4.5l6.8,0c2.6,0,4.6,2,4.6,4.5c0,2.5-2.1,4.5-4.6,4.5l-1.5,0
		c-0.7,1.6-1.8,3.1-3.2,4.2H39c4.9,0,8.8-3.9,8.8-8.7C47.8,34,43.9,30.1,39,30.1z M8.5,38.8c0-3.1,1.2-6,3.4-8.1
		c2.2-2.2,5.2-3.4,8.3-3.4l8,0c-2-2-4.5-3.7-7.5-4.4c4.6-1.6,8-5.9,8-11.1C28.7,5.3,23.5,0,17,0C10.5,0,5.2,5.3,5.2,11.8
		c0,5.2,3.4,9.5,8,11.1C4.4,25.1,0,34.9,0,40.2c0,3,5.2,6.1,12.3,7.1c-0.1-0.1-0.3-0.2-0.4-0.4C9.7,44.8,8.5,41.9,8.5,38.8z"/>
</g>
<g>
</g>
<g>
</g>
<g>
</g>
<g>
</g>
<g>
</g>
<g>
</g>
<g>
</g>
<g>
</g>
<g>
</g>
<g>
</g>
<g>
</g>
<g>
</g>
<g>
</g>
<g>
</g>
<g>
</g>
</svg>
