<?xml version="1.0" encoding="utf-8"?>
<!-- Generator: Adobe Illustrator 18.1.1, SVG Export Plug-In . SVG Version: 6.00 Build 0)  -->
<svg version="1.1" id="Layer_1" xmlns="http://www.w3.org/2000/svg" xmlns:xlink="http://www.w3.org/1999/xlink" x="0px" y="0px"
	 viewBox="0 0 614 612" enable-background="new 0 0 614 612" xml:space="preserve">
<g>
	<polygon points="315.8,433.5 182.4,433.5 182.4,302.1 133.4,302.1 133.4,433.5 0,433.5 0,480.6 133.4,480.6 133.4,612 182.4,612 
		182.4,480.6 315.8,480.6 	"/>
	<path d="M566.9,384.5l-88.3-60.8c-13.7-9.8-19.6-15.7-23.5-19.6c-2-2-2-5.9-2-9.8c0-2,0-3.9,0-7.8l0,0c0-5.9,7.8-15.7,17.7-31.4
		c13.7-21.6,19.6-45.1,23.5-66.7c0-5.9,2-13.7,2-19.6v-58.8c0-17.7-5.9-37.3-15.7-56.9c-2-2-3.9-3.9-3.9-7.8h2V0H372.7
		c-31.4,0-58.8,9.8-78.5,23.5c-11.8,9.8-21.6,19.6-29.4,31.4c-7.8,13.7-13.7,27.5-15.7,43.2c0,3.9,0,9.8,0,13.7v58.8
		c0,5.9,0,13.7,2,19.6c3.9,21.6,9.8,45.1,21.6,64.7c9.8,13.7,15.7,25.5,17.7,31.4l0,0l0,0c0,2,0,5.9,0,7.8c0,3.9,0,5.9-2,9.8
		c-3.9,3.9-9.8,9.8-23.5,19.6l-49,35.3v41.2h25.5l54.9-37.3c15.7-11.8,27.5-19.6,37.3-35.3l0,0l0,0c5.9-9.8,7.8-21.6,7.8-31.4
		c0-5.9,0-11.8-2-15.7c-3.9-23.5-17.7-37.3-23.5-49c-7.8-11.8-13.7-29.4-15.7-47.1c0-3.9-2-9.8-2-13.7v-58.8c0-2,0-3.9,0-7.8
		c2-7.8,3.9-15.7,7.8-23.5c3.9-5.9,9.8-11.8,15.7-17.7c11.8-7.8,27.5-13.7,49-13.7h72.6l-17.7,17.7c5.9,3.9,9.8,9.8,11.8,13.7
		c5.9,9.8,9.8,21.6,9.8,31.4v58.8c0,3.9,0,7.8-2,13.7c-2,17.7-7.8,35.3-15.7,47.1l0,0l0,0c-5.9,9.8-17.7,25.5-23.5,47.1l0,0
		c-2,5.9-2,11.8-2,17.7c0,9.8,2,21.6,7.8,31.4l0,0l0,0c9.8,15.7,21.6,23.5,37.3,35.3l88.3,60.8c11.8,5.9,25.5,33.3,23.5,47.1v51
		H215.8v47.1h364.8c17.7,0,33.3-13.7,33.3-31.4v-66.7C612,437.4,594.3,406,566.9,384.5z"/>
</g>
<g>
</g>
<g>
</g>
<g>
</g>
<g>
</g>
<g>
</g>
<g>
</g>
<g>
</g>
<g>
</g>
<g>
</g>
<g>
</g>
<g>
</g>
<g>
</g>
<g>
</g>
<g>
</g>
<g>
</g>
</svg>
