<?xml version="1.0" encoding="utf-8"?>
<!-- Generator: Adobe Illustrator 18.1.1, SVG Export Plug-In . SVG Version: 6.00 Build 0)  -->
<svg version="1.1" id="Layer_1" xmlns="http://www.w3.org/2000/svg" xmlns:xlink="http://www.w3.org/1999/xlink" x="0px" y="0px"
	 viewBox="0 0 50 54" enable-background="new 0 0 50 54" xml:space="preserve">
<g>
	<path d="M17.8,43.5l-0.3-2c-0.1-0.8-0.2-1.6-0.2-2.4c0-0.8,0.1-1.6,0.2-2.4l0.3-2c0,0,2.8-0.6,3.7-0.7c0.2-0.4,0.2-0.5,0.4-0.9
		c-0.5-0.7-0.9-1.4-0.9-1.4L19.5,30l3-3.5l2.3-2c-1.2-0.8-2.6-1.4-4.1-1.7c4.6-1.6,8-5.9,8-11.1C28.7,5.3,23.5,0,17,0
		C10.5,0,5.2,5.3,5.2,11.7c0,5.2,3.4,9.5,8,11.1C4.4,25.1,0,34.9,0,40.2c0,3.6,7.6,7.5,17,7.5c1.1,0,2.2-0.1,3.2-0.2
		c0.5-0.8,1.3-2,1.6-2.4c-0.2-0.4-0.2-0.5-0.4-0.9C20.6,44.1,17.8,43.5,17.8,43.5z"/>
	<path d="M49.8,41.1c0.2-1.3,0.2-2.7,0-4c-1-0.2-3.2-0.6-3.2-0.6l-1.5-3.7c0,0,1.3-1.9,1.8-2.7c-0.4-0.5-0.8-1-1.3-1.5
		c-0.5-0.5-1-0.9-1.5-1.3c-0.8,0.5-2.7,1.8-2.7,1.8l-3.7-1.5c0,0-0.4-2.2-0.6-3.2c-1.3-0.2-2.7-0.2-4,0c-0.2,1-0.6,3.2-0.6,3.2
		L28.8,29c0,0-1.9-1.3-2.7-1.8c-0.5,0.4-1.1,0.8-1.5,1.3c-0.5,0.5-0.9,1-1.3,1.5c0.5,0.8,1.8,2.7,1.8,2.7l-1.5,3.7
		c0,0-2.2,0.4-3.2,0.6c-0.2,1.3-0.2,2.7,0,4c0.9,0.2,3.2,0.6,3.2,0.6l1.5,3.7c0,0-1.3,1.9-1.8,2.7c0.4,0.5,0.8,1.1,1.3,1.5
		c0.5,0.5,1,0.9,1.5,1.3c0.8-0.5,2.7-1.8,2.7-1.8l3.7,1.5c0,0,0.4,2.2,0.6,3.2c1.3,0.2,2.7,0.2,4,0c0.2-0.9,0.6-3.2,0.6-3.2l3.7-1.5
		c0,0,1.9,1.3,2.7,1.8c0.5-0.4,1-0.8,1.5-1.3c0.5-0.5,0.9-1,1.3-1.5c-0.5-0.8-1.8-2.7-1.8-2.7l1.5-3.7
		C46.7,41.7,48.9,41.3,49.8,41.1z M39.6,43.6c-2.5,2.5-6.5,2.5-9,0c-2.5-2.5-2.5-6.5,0-9c2.5-2.5,6.5-2.5,9,0
		C42.1,37.1,42.1,41.1,39.6,43.6z"/>
</g>
<g>
</g>
<g>
</g>
<g>
</g>
<g>
</g>
<g>
</g>
<g>
</g>
<g>
</g>
<g>
</g>
<g>
</g>
<g>
</g>
<g>
</g>
<g>
</g>
<g>
</g>
<g>
</g>
<g>
</g>
</svg>
