<?xml version="1.0" encoding="utf-8"?>
<!-- Generator: Adobe Illustrator 17.0.0, SVG Export Plug-In . SVG Version: 6.00 Build 0)  -->
<!DOCTYPE svg PUBLIC "-//W3C//DTD SVG 1.1//EN" "http://www.w3.org/Graphics/SVG/1.1/DTD/svg11.dtd">
<svg version="1.1" id="Layer_1" xmlns="http://www.w3.org/2000/svg" xmlns:xlink="http://www.w3.org/1999/xlink" x="0px" y="0px"
	 width="510px" height="515.1px" viewBox="0 0 510 515.1" enable-background="new 0 0 510 515.1" xml:space="preserve">
<g id="access-alarms">
	<path d="M510,99.45L392.7,0l-33.15,38.25l117.3,99.45L510,99.45z M150.45,40.8L117.3,2.55L0,99.45l33.15,38.25L150.45,40.8z
		 M267.75,158.1H229.5v153l119.85,73.95l20.4-30.6l-102-61.2V158.1z M255,56.1c-127.5,0-229.5,102-229.5,229.5
		s102,229.5,229.5,229.5s229.5-102,229.5-229.5S382.5,56.1,255,56.1z M255,464.1c-99.45,0-178.5-79.05-178.5-178.5
		S155.55,107.1,255,107.1s178.5,79.05,178.5,178.5S354.45,464.1,255,464.1z"/>
</g>
<g>
</g>
<g>
</g>
<g>
</g>
<g>
</g>
<g>
</g>
<g>
</g>
<g>
</g>
<g>
</g>
<g>
</g>
<g>
</g>
<g>
</g>
<g>
</g>
<g>
</g>
<g>
</g>
<g>
</g>
</svg>
