<?xml version="1.0" encoding="utf-8"?>
<!-- Generator: Adobe Illustrator 17.0.0, SVG Export Plug-In . SVG Version: 6.00 Build 0)  -->
<!DOCTYPE svg PUBLIC "-//W3C//DTD SVG 1.1//EN" "http://www.w3.org/Graphics/SVG/1.1/DTD/svg11.dtd">
<svg version="1.1" id="Layer_1" xmlns="http://www.w3.org/2000/svg" xmlns:xlink="http://www.w3.org/1999/xlink" x="0px" y="0px"
	 width="459px" height="459px" viewBox="0 0 459 459" enable-background="new 0 0 459 459" xml:space="preserve">
<g id="account-box">
	<path d="M0,51v357c0,28.05,22.95,51,51,51h357c28.05,0,51-22.95,51-51V51c0-28.05-22.95-51-51-51H51C22.95,0,0,22.95,0,51z
		 M306,153c0,43.35-33.15,76.5-76.5,76.5S153,196.35,153,153s33.15-76.5,76.5-76.5S306,109.65,306,153z M76.5,357
		c0-51,102-79.05,153-79.05s153,28.05,153,79.05v25.5h-306V357z"/>
</g>
<g>
</g>
<g>
</g>
<g>
</g>
<g>
</g>
<g>
</g>
<g>
</g>
<g>
</g>
<g>
</g>
<g>
</g>
<g>
</g>
<g>
</g>
<g>
</g>
<g>
</g>
<g>
</g>
<g>
</g>
</svg>
