<?xml version="1.0" encoding="utf-8"?>
<!-- Generator: Adobe Illustrator 17.0.0, SVG Export Plug-In . SVG Version: 6.00 Build 0)  -->
<!DOCTYPE svg PUBLIC "-//W3C//DTD SVG 1.1//EN" "http://www.w3.org/Graphics/SVG/1.1/DTD/svg11.dtd">
<svg version="1.1" id="Layer_1" xmlns="http://www.w3.org/2000/svg" xmlns:xlink="http://www.w3.org/1999/xlink" x="0px" y="0px"
	 width="510px" height="611.3625px" viewBox="0 0 510 611.3625" enable-background="new 0 0 510 611.3625" xml:space="preserve">
<g id="android">
	<path d="M102,458.3625c0,15.3,10.2,25.5,25.5,25.5H153v89.25c0,20.4,17.85,38.25,38.25,38.25s38.25-17.85,38.25-38.25v-89.25h51
		v89.25c0,20.4,17.85,38.25,38.25,38.25s38.25-17.85,38.25-38.25v-89.25h25.5c15.3,0,25.5-10.2,25.5-25.5v-255H102V458.3625z
		 M38.25,203.3625c-20.4,0-38.25,17.85-38.25,38.25v178.5c0,20.4,17.85,38.25,38.25,38.25s38.25-17.85,38.25-38.25v-178.5
		C76.5,221.2125,58.65,203.3625,38.25,203.3625z M471.75,203.3625c-20.4,0-38.25,17.85-38.25,38.25v178.5
		c0,20.4,17.85,38.25,38.25,38.25s38.25-17.85,38.25-38.25v-178.5C510,221.2125,492.15,203.3625,471.75,203.3625z M344.25,55.4625
		l33.15-33.15c5.1-5.1,5.1-12.75,0-17.85c-5.1-5.1-12.75-5.1-17.85,0l-38.25,38.25c-17.85-12.75-40.8-17.85-66.3-17.85
		s-48.45,5.1-68.85,15.3l-35.7-38.25c-5.1-2.55-15.3-2.55-20.4,0c-2.55,5.1-2.55,15.3,0,20.4l33.15,33.15
		c-35.7,28.05-61.2,71.4-61.2,122.4h306C408,126.8625,382.5,80.9625,344.25,55.4625z M204,126.8625h-25.5v-25.5H204V126.8625z
		 M331.5,126.8625H306v-25.5h25.5V126.8625z"/>
</g>
<g>
</g>
<g>
</g>
<g>
</g>
<g>
</g>
<g>
</g>
<g>
</g>
<g>
</g>
<g>
</g>
<g>
</g>
<g>
</g>
<g>
</g>
<g>
</g>
<g>
</g>
<g>
</g>
<g>
</g>
</svg>
