<?xml version="1.0" encoding="utf-8"?>
<!-- Generator: Adobe Illustrator 17.0.0, SVG Export Plug-In . SVG Version: 6.00 Build 0)  -->
<!DOCTYPE svg PUBLIC "-//W3C//DTD SVG 1.1//EN" "http://www.w3.org/Graphics/SVG/1.1/DTD/svg11.dtd">
<svg version="1.1" id="Layer_1" xmlns="http://www.w3.org/2000/svg" xmlns:xlink="http://www.w3.org/1999/xlink" x="0px" y="0px"
	 width="357px" height="550.8px" viewBox="0 0 357 550.8" enable-background="new 0 0 357 550.8" xml:space="preserve">
<g id="adb">
	<path d="M0,372.3c0,99.45,79.05,178.5,178.5,178.5S357,471.75,357,372.3v-102H0V372.3z M283.05,76.5l53.55-53.55l-20.4-20.4
		L257.55,61.2c-22.9501-12.75-51-20.4-79.05-20.4s-56.1,7.65-79.05,17.85L40.8,0L20.4,22.95L73.95,76.5
		C28.05,107.1,0,160.65,0,219.3v25.5h357v-25.5C357,160.65,328.95,107.1,283.05,76.5z M102,193.8c-15.3,0-25.5-10.2-25.5-25.5
		s10.2-25.5,25.5-25.5s25.5,10.2,25.5,25.5S117.3,193.8,102,193.8z M255,193.8c-15.3,0-25.5-10.2-25.5-25.5s10.2-25.5,25.5-25.5
		s25.5,10.2,25.5,25.5S270.3,193.8,255,193.8z"/>
</g>
<g>
</g>
<g>
</g>
<g>
</g>
<g>
</g>
<g>
</g>
<g>
</g>
<g>
</g>
<g>
</g>
<g>
</g>
<g>
</g>
<g>
</g>
<g>
</g>
<g>
</g>
<g>
</g>
<g>
</g>
</svg>
