<?xml version="1.0" encoding="utf-8"?>
<!-- Generator: Adobe Illustrator 17.0.0, SVG Export Plug-In . SVG Version: 6.00 Build 0)  -->
<!DOCTYPE svg PUBLIC "-//W3C//DTD SVG 1.1//EN" "http://www.w3.org/Graphics/SVG/1.1/DTD/svg11.dtd">
<svg version="1.1" id="Layer_1" xmlns="http://www.w3.org/2000/svg" xmlns:xlink="http://www.w3.org/1999/xlink" x="0px" y="0px"
	 width="510px" height="280.5px" viewBox="0 0 510 280.5" enable-background="new 0 0 510 280.5" xml:space="preserve">
<g id="attachment">
	<path d="M140.25,280.5C63.75,280.5,0,216.75,0,140.25S63.75,0,140.25,0H408c56.1,0,102,45.9,102,102s-45.9,102-102,102H191.25
		c-35.7,0-63.75-28.05-63.75-63.75s28.05-63.75,63.75-63.75H382.5v38.25H191.25c-15.3,0-25.5,10.2-25.5,25.5s10.2,25.5,25.5,25.5
		H408c35.7,0,63.75-28.05,63.75-63.75S443.7,38.25,408,38.25H140.25c-56.1,0-102,45.9-102,102s45.9,102,102,102H382.5v38.25H140.25z
		"/>
</g>
<g>
</g>
<g>
</g>
<g>
</g>
<g>
</g>
<g>
</g>
<g>
</g>
<g>
</g>
<g>
</g>
<g>
</g>
<g>
</g>
<g>
</g>
<g>
</g>
<g>
</g>
<g>
</g>
<g>
</g>
</svg>
