<?xml version="1.0" encoding="utf-8"?>
<!-- Generator: Adobe Illustrator 17.0.0, SVG Export Plug-In . SVG Version: 6.00 Build 0)  -->
<!DOCTYPE svg PUBLIC "-//W3C//DTD SVG 1.1//EN" "http://www.w3.org/Graphics/SVG/1.1/DTD/svg11.dtd">
<svg version="1.1" id="Layer_1" xmlns="http://www.w3.org/2000/svg" xmlns:xlink="http://www.w3.org/1999/xlink" x="0px" y="0px"
	 width="612px" height="459px" viewBox="0 0 612 459" enable-background="new 0 0 612 459" xml:space="preserve">
<g id="backspace">
	<path d="M561,0H178.5c-17.85,0-30.6,7.65-40.8,22.95L0,229.5l137.7,206.55C147.9,448.8,160.65,459,178.5,459H561
		c28.05,0,51-22.95,51-51V51C612,22.95,589.05,0,561,0z M484.5,321.3L448.8,357L357,265.2L265.2,357l-35.7-35.7l91.8-91.8
		l-91.8-91.8l35.7-35.7l91.8,91.8l91.8-91.8l35.7,35.7l-91.8,91.8L484.5,321.3z"/>
</g>
<g>
</g>
<g>
</g>
<g>
</g>
<g>
</g>
<g>
</g>
<g>
</g>
<g>
</g>
<g>
</g>
<g>
</g>
<g>
</g>
<g>
</g>
<g>
</g>
<g>
</g>
<g>
</g>
<g>
</g>
</svg>
