<?xml version="1.0" encoding="utf-8"?>
<!-- Generator: Adobe Illustrator 17.0.0, SVG Export Plug-In . SVG Version: 6.00 Build 0)  -->
<!DOCTYPE svg PUBLIC "-//W3C//DTD SVG 1.1//EN" "http://www.w3.org/Graphics/SVG/1.1/DTD/svg11.dtd">
<svg version="1.1" id="Layer_1" xmlns="http://www.w3.org/2000/svg" xmlns:xlink="http://www.w3.org/1999/xlink" x="0px" y="0px"
	 width="408px" height="459px" viewBox="0 0 408 459" enable-background="new 0 0 408 459" xml:space="preserve">
<g id="bug-report">
	<path d="M408,127.5h-71.4c-12.75-20.4-28.05-38.25-45.9-51l40.8-40.8L295.8,0l-56.1,56.1C229.5,53.55,216.75,51,204,51
		s-25.5,2.55-35.7,5.1L112.2,0L76.5,35.7l40.8,40.8c-17.85,12.75-33.15,30.6-45.9,51H0v51h53.55C51,186.15,51,196.35,51,204v25.5H0
		v51h51V306c0,7.65,0,17.85,2.55,25.5H0v51h71.4C96.9,428.4,147.9,459,204,459s107.1-30.6,132.6-76.5H408v-51h-53.55
		C357,323.85,357,313.65,357,306v-25.5h51v-51h-51V204c0-7.65,0-17.85-2.55-25.5H408V127.5z M255,331.5H153v-51h102V331.5z
		 M255,229.5H153v-51h102V229.5z"/>
</g>
<g>
</g>
<g>
</g>
<g>
</g>
<g>
</g>
<g>
</g>
<g>
</g>
<g>
</g>
<g>
</g>
<g>
</g>
<g>
</g>
<g>
</g>
<g>
</g>
<g>
</g>
<g>
</g>
<g>
</g>
</svg>
