<?xml version="1.0" encoding="utf-8"?>
<!-- Generator: Adobe Illustrator 17.0.0, SVG Export Plug-In . SVG Version: 6.00 Build 0)  -->
<!DOCTYPE svg PUBLIC "-//W3C//DTD SVG 1.1//EN" "http://www.w3.org/Graphics/SVG/1.1/DTD/svg11.dtd">
<svg version="1.1" id="Layer_1" xmlns="http://www.w3.org/2000/svg" xmlns:xlink="http://www.w3.org/1999/xlink" x="0px" y="0px"
	 width="561px" height="561px" viewBox="0 0 561 561" enable-background="new 0 0 561 561" xml:space="preserve">
<g id="cake">
	<path d="M280.5,114.75c20.4,0,38.25-17.85,38.25-38.25c0-7.65-2.55-12.75-5.1-20.4L280.5,0l-33.15,56.1
		c-2.55,5.1-5.1,12.75-5.1,20.4C242.25,96.9,260.1,114.75,280.5,114.75z M446.25,178.5H306v-38.25h-51v38.25H114.75
		C51,178.5,0,229.5,0,293.25c0,40.8,20.4,73.95,51,94.35V561h459V387.6c30.6-20.4,51-56.1,51-94.35
		C561,229.5,510,178.5,446.25,178.5z M446.25,357c-17.85,0-33.15-7.65-45.9-17.85L362.1,300.9l-38.25,38.25
		c-10.2,10.2-25.5,17.85-43.35,17.85s-33.15-7.65-45.9-17.85l-38.25-38.25l-38.25,38.25c-10.2,10.2-25.5,17.85-43.35,17.85
		C79.05,357,51,328.95,51,293.25s28.05-63.75,63.75-63.75h331.5c35.7,0,63.75,28.05,63.75,63.75S481.95,357,446.25,357z"/>
</g>
<g>
</g>
<g>
</g>
<g>
</g>
<g>
</g>
<g>
</g>
<g>
</g>
<g>
</g>
<g>
</g>
<g>
</g>
<g>
</g>
<g>
</g>
<g>
</g>
<g>
</g>
<g>
</g>
<g>
</g>
</svg>
