<?xml version="1.0" encoding="utf-8"?>
<!-- Generator: Adobe Illustrator 17.0.0, SVG Export Plug-In . SVG Version: 6.00 Build 0)  -->
<!DOCTYPE svg PUBLIC "-//W3C//DTD SVG 1.1//EN" "http://www.w3.org/Graphics/SVG/1.1/DTD/svg11.dtd">
<svg version="1.1" id="Layer_1" xmlns="http://www.w3.org/2000/svg" xmlns:xlink="http://www.w3.org/1999/xlink" x="0px" y="0px"
	 width="510px" height="535.5px" viewBox="0 0 510 535.5" enable-background="new 0 0 510 535.5" xml:space="preserve">
<g id="camera-roll">
	<path d="M306,102c0-28.05-22.95-51-51-51h-25.5V25.5C229.5,10.2,219.3,0,204,0H102C86.7,0,76.5,10.2,76.5,25.5V51H51
		C22.95,51,0,73.95,0,102v382.5c0,28.05,22.95,51,51,51h204c28.05,0,51-22.95,51-51h204V102H306z M255,433.5h-51v-51h51V433.5z
		 M255,204h-51v-51h51V204z M357,433.5h-51v-51h51V433.5z M357,204h-51v-51h51V204z M459,433.5h-51v-51h51V433.5z M459,204h-51v-51
		h51V204z"/>
</g>
<g>
</g>
<g>
</g>
<g>
</g>
<g>
</g>
<g>
</g>
<g>
</g>
<g>
</g>
<g>
</g>
<g>
</g>
<g>
</g>
<g>
</g>
<g>
</g>
<g>
</g>
<g>
</g>
<g>
</g>
</svg>
