<?xml version="1.0" encoding="utf-8"?>
<!-- Generator: Adobe Illustrator 17.0.0, SVG Export Plug-In . SVG Version: 6.00 Build 0)  -->
<!DOCTYPE svg PUBLIC "-//W3C//DTD SVG 1.1//EN" "http://www.w3.org/Graphics/SVG/1.1/DTD/svg11.dtd">
<svg version="1.1" id="Layer_1" xmlns="http://www.w3.org/2000/svg" xmlns:xlink="http://www.w3.org/1999/xlink" x="0px" y="0px"
	 width="510px" height="459px" viewBox="0 0 510 459" enable-background="new 0 0 510 459" xml:space="preserve">
<g id="camera-alt">
	<circle cx="255" cy="255" r="81.6"/>
	<path d="M178.5,0l-45.9,51H51C22.95,51,0,73.95,0,102v306c0,28.05,22.95,51,51,51h408c28.05,0,51-22.95,51-51V102
		c0-28.05-22.95-51-51-51h-81.6L331.5,0H178.5z M255,382.5c-71.4,0-127.5-56.1-127.5-127.5S183.6,127.5,255,127.5
		S382.5,183.6,382.5,255S326.4,382.5,255,382.5z"/>
</g>
<g>
</g>
<g>
</g>
<g>
</g>
<g>
</g>
<g>
</g>
<g>
</g>
<g>
</g>
<g>
</g>
<g>
</g>
<g>
</g>
<g>
</g>
<g>
</g>
<g>
</g>
<g>
</g>
<g>
</g>
</svg>
