<?xml version="1.0" encoding="utf-8"?>
<!-- Generator: Adobe Illustrator 17.0.0, SVG Export Plug-In . SVG Version: 6.00 Build 0)  -->
<!DOCTYPE svg PUBLIC "-//W3C//DTD SVG 1.1//EN" "http://www.w3.org/Graphics/SVG/1.1/DTD/svg11.dtd">
<svg version="1.1" id="Layer_1" xmlns="http://www.w3.org/2000/svg" xmlns:xlink="http://www.w3.org/1999/xlink" x="0px" y="0px"
	 width="561px" height="459px" viewBox="0 0 561 459" enable-background="new 0 0 561 459" xml:space="preserve">
<g id="cast-connected">
	<path d="M0,382.5V459h76.5C76.5,415.65,43.35,382.5,0,382.5z M0,280.5v51c71.4,0,127.5,56.1,127.5,127.5h51
		C178.5,359.55,99.45,280.5,0,280.5z M459,102H102v40.8C204,175.95,283.05,255,316.2,357H459V102z M0,178.5v51
		c127.5,0,229.5,102,229.5,229.5h51C280.5,303.45,155.55,178.5,0,178.5z M510,0H51C22.95,0,0,22.95,0,51v76.5h51V51h459v357H331.5
		v51H510c28.05,0,51-22.95,51-51V51C561,22.95,538.05,0,510,0z"/>
</g>
<g>
</g>
<g>
</g>
<g>
</g>
<g>
</g>
<g>
</g>
<g>
</g>
<g>
</g>
<g>
</g>
<g>
</g>
<g>
</g>
<g>
</g>
<g>
</g>
<g>
</g>
<g>
</g>
<g>
</g>
</svg>
