<?xml version="1.0" encoding="utf-8"?>
<!-- Generator: Adobe Illustrator 17.0.0, SVG Export Plug-In . SVG Version: 6.00 Build 0)  -->
<!DOCTYPE svg PUBLIC "-//W3C//DTD SVG 1.1//EN" "http://www.w3.org/Graphics/SVG/1.1/DTD/svg11.dtd">
<svg version="1.1" id="Layer_1" xmlns="http://www.w3.org/2000/svg" xmlns:xlink="http://www.w3.org/1999/xlink" x="0px" y="0px"
	 width="612px" height="408px" viewBox="0 0 612 408" enable-background="new 0 0 612 408" xml:space="preserve">
<g id="cloud-queue">
	<path d="M494.7,153C476.85,66.3,400.35,0,306,0c-73.95,0-137.7,40.8-168.3,102C58.65,112.2,0,175.95,0,255
		c0,84.15,68.85,153,153,153h331.5c71.4,0,127.5-56.1,127.5-127.5C612,214.2,558.45,158.1,494.7,153z M484.5,357H153
		c-56.1,0-102-45.9-102-102s45.9-102,102-102h17.85C188.7,94.35,242.25,51,306,51c76.5,0,140.25,63.75,140.25,140.25V204h38.25
		c43.35,0,76.5,33.15,76.5,76.5S527.85,357,484.5,357z"/>
</g>
<g>
</g>
<g>
</g>
<g>
</g>
<g>
</g>
<g>
</g>
<g>
</g>
<g>
</g>
<g>
</g>
<g>
</g>
<g>
</g>
<g>
</g>
<g>
</g>
<g>
</g>
<g>
</g>
<g>
</g>
</svg>
