<?xml version="1.0" encoding="utf-8"?>
<!-- Generator: Adobe Illustrator 17.0.0, SVG Export Plug-In . SVG Version: 6.00 Build 0)  -->
<!DOCTYPE svg PUBLIC "-//W3C//DTD SVG 1.1//EN" "http://www.w3.org/Graphics/SVG/1.1/DTD/svg11.dtd">
<svg version="1.1" id="Layer_1" xmlns="http://www.w3.org/2000/svg" xmlns:xlink="http://www.w3.org/1999/xlink" x="0px" y="0px"
	 width="612px" height="459px" viewBox="0 0 612 459" enable-background="new 0 0 612 459" xml:space="preserve">
<g id="cloud-off">
	<path d="M494.7,153C476.85,66.3,400.35,0,306,0c-38.25,0-73.95,10.2-102,30.6l38.25,38.25C260.1,56.1,283.05,51,306,51
		c76.5,0,140.25,63.75,140.25,140.25V204h38.25c43.35,0,76.5,33.15,76.5,76.5c0,28.05-15.3,53.55-40.8,66.3l38.25,38.25
		C591.6,362.1,612,323.85,612,280.5C612,214.2,558.45,158.1,494.7,153z M76.5,33.15L147.9,102C66.3,107.1,0,173.4,0,255
		c0,84.15,68.85,153,153,153h298.35l51,51l33.15-33.15L109.65,0L76.5,33.15z M196.35,153l204,204H153c-56.1,0-102-45.9-102-102
		s45.9-102,102-102H196.35z"/>
</g>
<g>
</g>
<g>
</g>
<g>
</g>
<g>
</g>
<g>
</g>
<g>
</g>
<g>
</g>
<g>
</g>
<g>
</g>
<g>
</g>
<g>
</g>
<g>
</g>
<g>
</g>
<g>
</g>
<g>
</g>
</svg>
