<?xml version="1.0" encoding="utf-8"?>
<!-- Generator: Adobe Illustrator 17.0.0, SVG Export Plug-In . SVG Version: 6.00 Build 0)  -->
<!DOCTYPE svg PUBLIC "-//W3C//DTD SVG 1.1//EN" "http://www.w3.org/Graphics/SVG/1.1/DTD/svg11.dtd">
<svg version="1.1" id="Layer_1" xmlns="http://www.w3.org/2000/svg" xmlns:xlink="http://www.w3.org/1999/xlink" x="0px" y="0px"
	 width="535.5px" height="510px" viewBox="0 0 535.5 510" enable-background="new 0 0 535.5 510" xml:space="preserve">
<g id="content-cut">
	<path d="M204,102C204,45.9,158.1,0,102,0S0,45.9,0,102s45.9,102,102,102c15.3,0,28.05-2.55,40.8-10.2L204,255l-61.2,61.2
		c-12.75-7.65-25.5-10.2-40.8-10.2C45.9,306,0,351.9,0,408s45.9,102,102,102s102-45.9,102-102c0-15.3-2.55-28.05-10.2-40.8L255,306
		l178.5,178.5h102L193.8,142.8C201.45,130.05,204,117.3,204,102z M102,153c-28.05,0-51-22.95-51-51s22.95-51,51-51s51,22.95,51,51
		S130.05,153,102,153z M102,459c-28.05,0-51-22.95-51-51s22.95-51,51-51s51,22.95,51,51S130.05,459,102,459z M255,242.25
		c7.65,0,12.75,5.1,12.75,12.75c0,7.65-5.1,12.75-12.75,12.75c-7.65,0-12.75-5.1-12.75-12.75
		C242.25,247.35,247.35,242.25,255,242.25z M535.5,25.5h-102l-153,153l51,51L535.5,25.5z"/>
</g>
<g>
</g>
<g>
</g>
<g>
</g>
<g>
</g>
<g>
</g>
<g>
</g>
<g>
</g>
<g>
</g>
<g>
</g>
<g>
</g>
<g>
</g>
<g>
</g>
<g>
</g>
<g>
</g>
<g>
</g>
</svg>
