<?xml version="1.0" encoding="utf-8"?>
<!-- Generator: Adobe Illustrator 17.0.0, SVG Export Plug-In . SVG Version: 6.00 Build 0)  -->
<!DOCTYPE svg PUBLIC "-//W3C//DTD SVG 1.1//EN" "http://www.w3.org/Graphics/SVG/1.1/DTD/svg11.dtd">
<svg version="1.1" id="Layer_1" xmlns="http://www.w3.org/2000/svg" xmlns:xlink="http://www.w3.org/1999/xlink" x="0px" y="0px"
	 width="408px" height="102px" viewBox="0 0 408 102" enable-background="new 0 0 408 102" xml:space="preserve">
<g id="keyboard-control">
	<path d="M51,0C22.95,0,0,22.95,0,51s22.95,51,51,51s51-22.95,51-51S79.05,0,51,0z M357,0c-28.05,0-51,22.95-51,51s22.95,51,51,51
		s51-22.95,51-51S385.05,0,357,0z M204,0c-28.05,0-51,22.95-51,51s22.95,51,51,51s51-22.95,51-51S232.05,0,204,0z"/>
</g>
<g>
</g>
<g>
</g>
<g>
</g>
<g>
</g>
<g>
</g>
<g>
</g>
<g>
</g>
<g>
</g>
<g>
</g>
<g>
</g>
<g>
</g>
<g>
</g>
<g>
</g>
<g>
</g>
<g>
</g>
</svg>
