<?xml version="1.0" encoding="utf-8"?>
<!-- Generator: Adobe Illustrator 17.0.0, SVG Export Plug-In . SVG Version: 6.00 Build 0)  -->
<!DOCTYPE svg PUBLIC "-//W3C//DTD SVG 1.1//EN" "http://www.w3.org/Graphics/SVG/1.1/DTD/svg11.dtd">
<svg version="1.1" id="Layer_1" xmlns="http://www.w3.org/2000/svg" xmlns:xlink="http://www.w3.org/1999/xlink" x="0px" y="0px"
	 width="459px" height="561px" viewBox="0 0 459 561" enable-background="new 0 0 459 561" xml:space="preserve">
<g id="content-paste">
	<path d="M408,51H300.9c-10.2-30.6-38.25-51-71.4-51s-61.2,20.4-71.4,51H51C22.95,51,0,73.95,0,102v408c0,28.05,22.95,51,51,51h357
		c28.05,0,51-22.95,51-51V102C459,73.95,436.05,51,408,51z M229.5,51c15.3,0,25.5,10.2,25.5,25.5S244.8,102,229.5,102
		S204,91.8,204,76.5S214.2,51,229.5,51z M408,510H51V102h51v76.5h255V102h51V510z"/>
</g>
<g>
</g>
<g>
</g>
<g>
</g>
<g>
</g>
<g>
</g>
<g>
</g>
<g>
</g>
<g>
</g>
<g>
</g>
<g>
</g>
<g>
</g>
<g>
</g>
<g>
</g>
<g>
</g>
<g>
</g>
</svg>
