<?xml version="1.0" encoding="utf-8"?>
<!-- Generator: Adobe Illustrator 17.0.0, SVG Export Plug-In . SVG Version: 6.00 Build 0)  -->
<!DOCTYPE svg PUBLIC "-//W3C//DTD SVG 1.1//EN" "http://www.w3.org/Graphics/SVG/1.1/DTD/svg11.dtd">
<svg version="1.1" id="Layer_1" xmlns="http://www.w3.org/2000/svg" xmlns:xlink="http://www.w3.org/1999/xlink" x="0px" y="0px"
	 width="408px" height="561px" viewBox="0 0 408 561" enable-background="new 0 0 408 561" xml:space="preserve">
<g id="dialpad">
	<path d="M204,459c-28.05,0-51,22.95-51,51c0,28.05,22.95,51,51,51s51-22.95,51-51C255,481.95,232.05,459,204,459z M51,0
		C22.95,0,0,22.95,0,51s22.95,51,51,51s51-22.95,51-51S79.05,0,51,0z M51,153c-28.05,0-51,22.95-51,51s22.95,51,51,51
		s51-22.95,51-51S79.05,153,51,153z M51,306c-28.05,0-51,22.95-51,51s22.95,51,51,51s51-22.95,51-51S79.05,306,51,306z M357,102
		c28.05,0,51-22.95,51-51S385.05,0,357,0s-51,22.95-51,51S328.95,102,357,102z M204,306c-28.05,0-51,22.95-51,51s22.95,51,51,51
		s51-22.95,51-51S232.05,306,204,306z M357,306c-28.05,0-51,22.95-51,51s22.95,51,51,51s51-22.95,51-51S385.05,306,357,306z
		 M357,153c-28.05,0-51,22.95-51,51s22.95,51,51,51s51-22.95,51-51S385.05,153,357,153z M204,153c-28.05,0-51,22.95-51,51
		s22.95,51,51,51s51-22.95,51-51S232.05,153,204,153z M204,0c-28.05,0-51,22.95-51,51s22.95,51,51,51s51-22.95,51-51S232.05,0,204,0
		z"/>
</g>
<g>
</g>
<g>
</g>
<g>
</g>
<g>
</g>
<g>
</g>
<g>
</g>
<g>
</g>
<g>
</g>
<g>
</g>
<g>
</g>
<g>
</g>
<g>
</g>
<g>
</g>
<g>
</g>
<g>
</g>
</svg>
