<?xml version="1.0" encoding="utf-8"?>
<!-- Generator: Adobe Illustrator 17.0.0, SVG Export Plug-In . SVG Version: 6.00 Build 0)  -->
<!DOCTYPE svg PUBLIC "-//W3C//DTD SVG 1.1//EN" "http://www.w3.org/Graphics/SVG/1.1/DTD/svg11.dtd">
<svg version="1.1" id="Layer_1" xmlns="http://www.w3.org/2000/svg" xmlns:xlink="http://www.w3.org/1999/xlink" x="0px" y="0px"
	 width="612px" height="530.4px" viewBox="0 0 612 530.4" enable-background="new 0 0 612 530.4" xml:space="preserve">
<g id="directions-bike">
	<path d="M408,91.8c25.5,0,45.9-20.4,45.9-45.9S433.5,0,408,0s-45.9,20.4-45.9,45.9S382.5,91.8,408,91.8z M484.5,275.4
		c-71.4,0-127.5,56.1-127.5,127.5s56.1,127.5,127.5,127.5S612,474.3,612,402.9S555.9,275.4,484.5,275.4z M484.5,492.15
		c-48.45,0-89.25-40.8-89.25-89.25s40.8-89.25,89.25-89.25s89.25,40.8,89.25,89.25S532.95,492.15,484.5,492.15z M377.4,224.4h107.1
		v-45.9h-81.6l-48.45-84.15c-7.65-12.75-20.4-20.4-38.25-20.4c-12.75,0-22.95,5.1-30.6,12.75l-94.35,94.35
		c-7.65,7.65-12.75,17.85-12.75,30.6c0,15.3,7.65,30.6,20.4,38.25l86.7,51v127.5h45.9V262.65l-56.1-43.35l58.65-58.65L377.4,224.4z
		 M127.5,275.4C56.1,275.4,0,331.5,0,402.9s56.1,127.5,127.5,127.5S255,474.3,255,402.9S198.9,275.4,127.5,275.4z M127.5,492.15
		c-48.45,0-89.25-40.8-89.25-89.25s40.8-89.25,89.25-89.25s89.25,40.8,89.25,89.25S175.95,492.15,127.5,492.15z"/>
</g>
<g>
</g>
<g>
</g>
<g>
</g>
<g>
</g>
<g>
</g>
<g>
</g>
<g>
</g>
<g>
</g>
<g>
</g>
<g>
</g>
<g>
</g>
<g>
</g>
<g>
</g>
<g>
</g>
<g>
</g>
</svg>
