<?xml version="1.0" encoding="utf-8"?>
<!-- Generator: Adobe Illustrator 17.0.0, SVG Export Plug-In . SVG Version: 6.00 Build 0)  -->
<!DOCTYPE svg PUBLIC "-//W3C//DTD SVG 1.1//EN" "http://www.w3.org/Graphics/SVG/1.1/DTD/svg11.dtd">
<svg version="1.1" id="Layer_1" xmlns="http://www.w3.org/2000/svg" xmlns:xlink="http://www.w3.org/1999/xlink" x="0px" y="0px"
	 width="408px" height="484.5px" viewBox="0 0 408 484.5" enable-background="new 0 0 408 484.5" xml:space="preserve">
<g id="directions-subway">
	<path d="M204,0C91.8,0,0,12.75,0,102v242.25c0,48.45,40.8,89.25,89.25,89.25L51,471.75v12.75h306v-12.75l-38.25-38.25
		c48.45,0,89.25-40.8,89.25-89.25V102C408,12.75,316.2,0,204,0z M89.25,382.5c-20.4,0-38.25-17.85-38.25-38.25S68.85,306,89.25,306
		s38.25,17.85,38.25,38.25S109.65,382.5,89.25,382.5z M178.5,229.5H51V102h127.5V229.5z M318.75,382.5
		c-20.4,0-38.25-17.85-38.25-38.25S298.35,306,318.75,306S357,323.85,357,344.25S339.15,382.5,318.75,382.5z M357,229.5H229.5V102
		H357V229.5z"/>
</g>
<g>
</g>
<g>
</g>
<g>
</g>
<g>
</g>
<g>
</g>
<g>
</g>
<g>
</g>
<g>
</g>
<g>
</g>
<g>
</g>
<g>
</g>
<g>
</g>
<g>
</g>
<g>
</g>
<g>
</g>
</svg>
