<?xml version="1.0" encoding="utf-8"?>
<!-- Generator: Adobe Illustrator 17.0.0, SVG Export Plug-In . SVG Version: 6.00 Build 0)  -->
<!DOCTYPE svg PUBLIC "-//W3C//DTD SVG 1.1//EN" "http://www.w3.org/Graphics/SVG/1.1/DTD/svg11.dtd">
<svg version="1.1" id="Layer_1" xmlns="http://www.w3.org/2000/svg" xmlns:xlink="http://www.w3.org/1999/xlink" x="0px" y="0px"
	 width="459px" height="408px" viewBox="0 0 459 408" enable-background="new 0 0 459 408" xml:space="preserve">
<g id="directions-car">
	<path d="M405.45,25.5c-5.1-15.3-20.4-25.5-35.7-25.5H89.25c-17.85,0-30.6,10.2-35.7,25.5L0,178.5v204C0,397.8,10.2,408,25.5,408H51
		c15.3,0,25.5-10.2,25.5-25.5V357h306v25.5c0,15.3,10.2,25.5,25.5,25.5h25.5c15.3,0,25.5-10.2,25.5-25.5v-204L405.45,25.5z
		 M89.25,280.5c-20.4,0-38.25-17.85-38.25-38.25S68.85,204,89.25,204s38.25,17.85,38.25,38.25S109.65,280.5,89.25,280.5z
		 M369.75,280.5c-20.4,0-38.25-17.85-38.25-38.25S349.35,204,369.75,204S408,221.85,408,242.25S390.15,280.5,369.75,280.5z M51,153
		L89.25,38.25h280.5L408,153H51z"/>
</g>
<g>
</g>
<g>
</g>
<g>
</g>
<g>
</g>
<g>
</g>
<g>
</g>
<g>
</g>
<g>
</g>
<g>
</g>
<g>
</g>
<g>
</g>
<g>
</g>
<g>
</g>
<g>
</g>
<g>
</g>
</svg>
