<?xml version="1.0" encoding="utf-8"?>
<!-- Generator: Adobe Illustrator 17.0.0, SVG Export Plug-In . SVG Version: 6.00 Build 0)  -->
<!DOCTYPE svg PUBLIC "-//W3C//DTD SVG 1.1//EN" "http://www.w3.org/Graphics/SVG/1.1/DTD/svg11.dtd">
<svg version="1.1" id="Layer_1" xmlns="http://www.w3.org/2000/svg" xmlns:xlink="http://www.w3.org/1999/xlink" x="0px" y="0px"
	 width="331.5px" height="555.9px" viewBox="0 0 331.5 555.9" enable-background="new 0 0 331.5 555.9" xml:space="preserve">
<g id="directionswalk">
	<path d="M204,91.8c25.5,0,45.9-20.4,45.9-45.9S229.5,0,204,0s-45.9,20.4-45.9,45.9S178.5,91.8,204,91.8z M206.55,249.9H331.5V204
		h-91.8l-51-84.15c-7.65-12.75-22.95-22.95-38.25-22.95c-5.1,0-7.65,0-12.75,2.55L0,142.8v132.6h45.9v-94.35l53.55-17.85L0,555.9
		h45.9l73.95-206.55l58.65,79.05v127.5h45.9V392.7l-63.75-114.75L178.5,204L206.55,249.9z"/>
</g>
<g>
</g>
<g>
</g>
<g>
</g>
<g>
</g>
<g>
</g>
<g>
</g>
<g>
</g>
<g>
</g>
<g>
</g>
<g>
</g>
<g>
</g>
<g>
</g>
<g>
</g>
<g>
</g>
<g>
</g>
</svg>
