<?xml version="1.0" encoding="utf-8"?>
<!-- Generator: Adobe Illustrator 17.0.0, SVG Export Plug-In . SVG Version: 6.00 Build 0)  -->
<!DOCTYPE svg PUBLIC "-//W3C//DTD SVG 1.1//EN" "http://www.w3.org/Graphics/SVG/1.1/DTD/svg11.dtd">
<svg version="1.1" id="Layer_1" xmlns="http://www.w3.org/2000/svg" xmlns:xlink="http://www.w3.org/1999/xlink" x="0px" y="0px"
	 width="459px" height="459px" viewBox="0 0 459 459" enable-background="new 0 0 459 459" xml:space="preserve">
<g id="drive-ms-powerpoint">
	<path d="M408,0H51C22.95,0,0,22.95,0,51v357c0,28.05,22.95,51,51,51h357c28.05,0,51-22.95,51-51V51C459,22.95,436.05,0,408,0z
		 M173.4,265.2V357h-45.9V102h109.65c38.25,0,56.1,7.65,71.4,22.95c17.85,15.3,22.95,35.7,22.95,58.65c0,25.5-7.65,45.9-22.95,58.65
		c-15.3,12.75-33.15,20.4-71.4,20.4H173.4V265.2z"/>
	<path d="M173.4,229.5v-91.8h58.65c17.85,0,30.6,5.1,38.25,15.3c7.65,10.2,12.75,17.85,12.75,30.6c0,15.3-5.1,22.95-12.75,33.15
		c-7.65,7.65-17.85,12.75-35.7,12.75H173.4z"/>
</g>
<g>
</g>
<g>
</g>
<g>
</g>
<g>
</g>
<g>
</g>
<g>
</g>
<g>
</g>
<g>
</g>
<g>
</g>
<g>
</g>
<g>
</g>
<g>
</g>
<g>
</g>
<g>
</g>
<g>
</g>
</svg>
