<?xml version="1.0" encoding="utf-8"?>
<!-- Generator: Adobe Illustrator 17.0.0, SVG Export Plug-In . SVG Version: 6.00 Build 0)  -->
<!DOCTYPE svg PUBLIC "-//W3C//DTD SVG 1.1//EN" "http://www.w3.org/Graphics/SVG/1.1/DTD/svg11.dtd">
<svg version="1.1" id="Layer_1" xmlns="http://www.w3.org/2000/svg" xmlns:xlink="http://www.w3.org/1999/xlink" x="0px" y="0px"
	 width="510px" height="466.65px" viewBox="0 0 510 466.65" enable-background="new 0 0 510 466.65" xml:space="preserve">
<g id="favorite-outline">
	<path d="M369.75,0C326.4,0,283.05,20.4,255,53.55C226.95,20.4,183.6,0,140.25,0C61.2,0,0,61.2,0,140.25
		c0,96.9,86.7,175.95,219.3,293.25l35.7,33.15l35.7-33.15C420.75,313.65,510,234.6,510,140.25C510,61.2,448.8,0,369.75,0z
		 M257.55,397.8H255l-2.55-2.55C130.05,285.6,51,214.2,51,140.25C51,89.25,89.25,51,140.25,51c38.25,0,76.5,25.5,91.8,61.2h48.45
		c12.75-35.7,51-61.2,89.25-61.2c51,0,89.25,38.25,89.25,89.25C459,214.2,379.95,285.6,257.55,397.8z"/>
</g>
<g>
</g>
<g>
</g>
<g>
</g>
<g>
</g>
<g>
</g>
<g>
</g>
<g>
</g>
<g>
</g>
<g>
</g>
<g>
</g>
<g>
</g>
<g>
</g>
<g>
</g>
<g>
</g>
<g>
</g>
</svg>
