<?xml version="1.0" encoding="utf-8"?>
<!-- Generator: Adobe Illustrator 17.0.0, SVG Export Plug-In . SVG Version: 6.00 Build 0)  -->
<!DOCTYPE svg PUBLIC "-//W3C//DTD SVG 1.1//EN" "http://www.w3.org/Graphics/SVG/1.1/DTD/svg11.dtd">
<svg version="1.1" id="Layer_1" xmlns="http://www.w3.org/2000/svg" xmlns:xlink="http://www.w3.org/1999/xlink" x="0px" y="0px"
	 width="510px" height="408px" viewBox="0 0 510 408" enable-background="new 0 0 510 408" xml:space="preserve">
<g id="folder-mydrive">
	<path d="M459,51H255L204,0H51C22.95,0,0,22.95,0,51v306c0,28.05,22.95,51,51,51h408c28.05,0,51-22.95,51-51V102
		C510,73.95,487.05,51,459,51z M247.35,331.5l-33.15-53.55l71.4-127.5l38.25,68.85l-61.2,112.2H247.35z M415.65,331.5H275.4
		l35.7-63.75h130.05l7.65,12.75L415.65,331.5z M300.9,127.5h61.2L433.5,255H357l-66.3-114.75L300.9,127.5z"/>
</g>
<g>
</g>
<g>
</g>
<g>
</g>
<g>
</g>
<g>
</g>
<g>
</g>
<g>
</g>
<g>
</g>
<g>
</g>
<g>
</g>
<g>
</g>
<g>
</g>
<g>
</g>
<g>
</g>
<g>
</g>
</svg>
