<?xml version="1.0" encoding="utf-8"?>
<!-- Generator: Adobe Illustrator 17.0.0, SVG Export Plug-In . SVG Version: 6.00 Build 0)  -->
<!DOCTYPE svg PUBLIC "-//W3C//DTD SVG 1.1//EN" "http://www.w3.org/Graphics/SVG/1.1/DTD/svg11.dtd">
<svg version="1.1" id="Layer_1" xmlns="http://www.w3.org/2000/svg" xmlns:xlink="http://www.w3.org/1999/xlink" x="0px" y="0px"
	 width="510px" height="408px" viewBox="0 0 510 408" enable-background="new 0 0 510 408" xml:space="preserve">
<g id="folder-shared">
	<path d="M459,51H255L204,0H51C22.95,0,0,22.95,0,51v306c0,28.05,22.95,51,51,51h408c28.05,0,51-22.95,51-51V102
		C510,73.95,487.05,51,459,51z M331.5,127.5c28.05,0,51,22.95,51,51s-22.95,51-51,51s-51-22.95-51-51S303.45,127.5,331.5,127.5z
		 M433.5,331.5h-204V306c0-33.15,68.85-51,102-51s102,17.85,102,51V331.5z"/>
</g>
<g>
</g>
<g>
</g>
<g>
</g>
<g>
</g>
<g>
</g>
<g>
</g>
<g>
</g>
<g>
</g>
<g>
</g>
<g>
</g>
<g>
</g>
<g>
</g>
<g>
</g>
<g>
</g>
<g>
</g>
</svg>
