<?xml version="1.0" encoding="utf-8"?>
<!-- Generator: Adobe Illustrator 17.0.0, SVG Export Plug-In . SVG Version: 6.00 Build 0)  -->
<!DOCTYPE svg PUBLIC "-//W3C//DTD SVG 1.1//EN" "http://www.w3.org/Graphics/SVG/1.1/DTD/svg11.dtd">
<svg version="1.1" id="Layer_1" xmlns="http://www.w3.org/2000/svg" xmlns:xlink="http://www.w3.org/1999/xlink" x="0px" y="0px"
	 width="581.4px" height="604.35px" viewBox="0 0 581.4 604.35" enable-background="new 0 0 581.4 604.35" xml:space="preserve">
<g id="google-plus">
	<path d="M504.9,255v-76.5h-51V255h-76.5v51h76.5v76.5h51V306h76.5v-51H504.9z M308.55,341.7l-28.05-20.4
		c-10.2-7.65-20.4-17.85-20.4-35.7c0-17.85,12.75-33.15,25.5-40.8c33.15-25.5,66.3-53.55,66.3-109.65c0-53.55-33.15-84.15-51-99.45
		h43.35L374.85,0h-158.1c-112.2,0-168.3,71.4-168.3,147.9c0,58.65,45.9,122.4,127.5,122.4h20.4c-2.55,7.65-10.2,20.4-10.2,33.15
		c0,25.5,10.2,35.7,22.95,51c-35.7,2.55-102,10.2-150.45,40.8C12.75,423.3,0,461.55,0,489.6c0,58.65,53.55,114.75,168.3,114.75
		c137.7,0,204-76.5,204-150.45C372.3,400.35,344.25,372.3,308.55,341.7z M114.75,109.65c0-56.1,33.15-81.6,68.85-81.6
		c66.3,0,102,89.25,102,140.25c0,66.3-53.55,79.05-73.95,79.05C147.9,247.35,114.75,168.3,114.75,109.65z M206.55,568.65
		c-84.15,0-137.7-38.25-137.7-94.35s51-73.95,66.3-81.6c33.15-10.2,76.5-12.75,84.15-12.75c7.65,0,12.75,0,17.85,0
		c61.2,43.35,86.7,61.2,86.7,102C323.85,530.4,275.4,568.65,206.55,568.65z"/>
</g>
<g>
</g>
<g>
</g>
<g>
</g>
<g>
</g>
<g>
</g>
<g>
</g>
<g>
</g>
<g>
</g>
<g>
</g>
<g>
</g>
<g>
</g>
<g>
</g>
<g>
</g>
<g>
</g>
<g>
</g>
</svg>
