<?xml version="1.0" encoding="utf-8"?>
<!-- Generator: Adobe Illustrator 17.0.0, SVG Export Plug-In . SVG Version: 6.00 Build 0)  -->
<!DOCTYPE svg PUBLIC "-//W3C//DTD SVG 1.1//EN" "http://www.w3.org/Graphics/SVG/1.1/DTD/svg11.dtd">
<svg version="1.1" id="Layer_1" xmlns="http://www.w3.org/2000/svg" xmlns:xlink="http://www.w3.org/1999/xlink" x="0px" y="0px"
	 width="612px" height="331.5px" viewBox="0 0 612 331.5" enable-background="new 0 0 612 331.5" xml:space="preserve">
<g id="group-add">
	<path d="M204,127.5h-76.5V51h-51v76.5H0v51h76.5V255h51v-76.5H204V127.5z M459,153c43.35,0,76.5-33.15,76.5-76.5S502.35,0,459,0
		c-7.65,0-15.3,2.55-22.95,2.55C451.35,25.5,459,48.45,459,76.5s-7.65,51-22.95,73.95C443.7,150.45,451.35,153,459,153z M331.5,153
		c43.35,0,76.5-33.15,76.5-76.5S374.85,0,331.5,0S255,33.15,255,76.5S288.15,153,331.5,153z M499.8,209.1
		c20.4,17.85,35.7,43.35,35.7,71.4v51H612v-51C612,242.25,550.8,216.75,499.8,209.1z M331.5,204c-51,0-153,25.5-153,76.5v51h306v-51
		C484.5,229.5,382.5,204,331.5,204z"/>
</g>
<g>
</g>
<g>
</g>
<g>
</g>
<g>
</g>
<g>
</g>
<g>
</g>
<g>
</g>
<g>
</g>
<g>
</g>
<g>
</g>
<g>
</g>
<g>
</g>
<g>
</g>
<g>
</g>
<g>
</g>
</svg>
