<?xml version="1.0" encoding="utf-8"?>
<!-- Generator: Adobe Illustrator 17.0.0, SVG Export Plug-In . SVG Version: 6.00 Build 0)  -->
<!DOCTYPE svg PUBLIC "-//W3C//DTD SVG 1.1//EN" "http://www.w3.org/Graphics/SVG/1.1/DTD/svg11.dtd">
<svg version="1.1" id="Layer_1" xmlns="http://www.w3.org/2000/svg" xmlns:xlink="http://www.w3.org/1999/xlink" x="0px" y="0px"
	 width="561px" height="357px" viewBox="0 0 561 357" enable-background="new 0 0 561 357" xml:space="preserve">
<g id="group">
	<path d="M382.5,153c43.35,0,76.5-33.15,76.5-76.5S425.85,0,382.5,0S306,33.15,306,76.5S339.15,153,382.5,153z M178.5,153
		c43.35,0,76.5-33.15,76.5-76.5S221.85,0,178.5,0S102,33.15,102,76.5S135.15,153,178.5,153z M178.5,204C119.85,204,0,234.6,0,293.25
		V357h357v-63.75C357,234.6,237.15,204,178.5,204z M382.5,204c-7.65,0-15.3,0-25.5,2.55c30.6,20.4,51,51,51,86.7V357h153v-63.75
		C561,234.6,441.15,204,382.5,204z"/>
</g>
<g>
</g>
<g>
</g>
<g>
</g>
<g>
</g>
<g>
</g>
<g>
</g>
<g>
</g>
<g>
</g>
<g>
</g>
<g>
</g>
<g>
</g>
<g>
</g>
<g>
</g>
<g>
</g>
<g>
</g>
</svg>
