<?xml version="1.0" encoding="utf-8"?>
<!-- Generator: Adobe Illustrator 17.0.0, SVG Export Plug-In . SVG Version: 6.00 Build 0)  -->
<!DOCTYPE svg PUBLIC "-//W3C//DTD SVG 1.1//EN" "http://www.w3.org/Graphics/SVG/1.1/DTD/svg11.dtd">
<svg version="1.1" id="Layer_1" xmlns="http://www.w3.org/2000/svg" xmlns:xlink="http://www.w3.org/1999/xlink" x="0px" y="0px"
	 width="459px" height="408px" viewBox="0 0 459 408" enable-background="new 0 0 459 408" xml:space="preserve">
<g id="high-quality">
	<path d="M408,0H51C22.95,0,0,22.95,0,51v306c0,28.05,22.95,51,51,51h357c28.05,0,51-22.95,51-51V51C459,22.95,436.05,0,408,0z
		 M204,280.5h-38.25v-51h-51v51H76.5v-153h38.25v63.75h51V127.5H204V280.5z M382.5,255c0,15.3-10.2,25.5-25.5,25.5h-20.4v38.25
		h-38.25V280.5H280.5c-15.3,0-25.5-10.2-25.5-25.5V153c0-15.3,10.2-25.5,25.5-25.5H357c15.3,0,25.5,10.2,25.5,25.5V255z
		 M293.25,242.25h51v-76.5h-51V242.25z"/>
</g>
<g>
</g>
<g>
</g>
<g>
</g>
<g>
</g>
<g>
</g>
<g>
</g>
<g>
</g>
<g>
</g>
<g>
</g>
<g>
</g>
<g>
</g>
<g>
</g>
<g>
</g>
<g>
</g>
<g>
</g>
</svg>
