<?xml version="1.0" encoding="utf-8"?>
<!-- Generator: Adobe Illustrator 17.0.0, SVG Export Plug-In . SVG Version: 6.00 Build 0)  -->
<!DOCTYPE svg PUBLIC "-//W3C//DTD SVG 1.1//EN" "http://www.w3.org/Graphics/SVG/1.1/DTD/svg11.dtd">
<svg version="1.1" id="Layer_1" xmlns="http://www.w3.org/2000/svg" xmlns:xlink="http://www.w3.org/1999/xlink" x="0px" y="0px"
	 width="510px" height="484.5px" viewBox="0 0 510 484.5" enable-background="new 0 0 510 484.5" xml:space="preserve">
<g id="history">
	<path opacity="0.9" enable-background="new    " d="M267.75,0C178.5,0,99.45,48.45,58.65,122.4L0,63.75V229.5h165.75l-71.4-71.4
		C127.5,94.35,191.25,51,267.75,51C372.3,51,459,137.7,459,242.25S372.3,433.5,267.75,433.5c-84.15,0-153-53.55-181.05-127.5H33.15
		c28.05,102,122.4,178.5,234.6,178.5C402.9,484.5,510,374.85,510,242.25S400.35,0,267.75,0z M229.5,127.5v130.05l119.85,71.4
		l20.4-33.15l-102-61.2V127.5H229.5z"/>
</g>
<g>
</g>
<g>
</g>
<g>
</g>
<g>
</g>
<g>
</g>
<g>
</g>
<g>
</g>
<g>
</g>
<g>
</g>
<g>
</g>
<g>
</g>
<g>
</g>
<g>
</g>
<g>
</g>
<g>
</g>
</svg>
