<?xml version="1.0" encoding="utf-8"?>
<!-- Generator: Adobe Illustrator 17.0.0, SVG Export Plug-In . SVG Version: 6.00 Build 0)  -->
<!DOCTYPE svg PUBLIC "-//W3C//DTD SVG 1.1//EN" "http://www.w3.org/Graphics/SVG/1.1/DTD/svg11.dtd">
<svg version="1.1" id="Layer_1" xmlns="http://www.w3.org/2000/svg" xmlns:xlink="http://www.w3.org/1999/xlink" x="0px" y="0px"
	 width="510px" height="306px" viewBox="0 0 510 306" enable-background="new 0 0 510 306" xml:space="preserve">
<g id="link">
	<path d="M153,178.5h204v-51H153V178.5z M48.45,153c0-58.65,45.9-104.55,104.55-104.55h76.5V0H153C68.85,0,0,68.85,0,153
		s68.85,153,153,153h76.5v-48.45H153C94.35,257.55,48.45,211.65,48.45,153z M357,0h-76.5v48.45H357
		c58.65,0,104.55,45.9,104.55,104.55S415.65,257.55,357,257.55h-76.5V306H357c84.15,0,153-68.85,153-153S441.15,0,357,0z"/>
</g>
<g>
</g>
<g>
</g>
<g>
</g>
<g>
</g>
<g>
</g>
<g>
</g>
<g>
</g>
<g>
</g>
<g>
</g>
<g>
</g>
<g>
</g>
<g>
</g>
<g>
</g>
<g>
</g>
<g>
</g>
</svg>
