<?xml version="1.0" encoding="utf-8"?>
<!-- Generator: Adobe Illustrator 17.0.0, SVG Export Plug-In . SVG Version: 6.00 Build 0)  -->
<!DOCTYPE svg PUBLIC "-//W3C//DTD SVG 1.1//EN" "http://www.w3.org/Graphics/SVG/1.1/DTD/svg11.dtd">
<svg version="1.1" id="Layer_1" xmlns="http://www.w3.org/2000/svg" xmlns:xlink="http://www.w3.org/1999/xlink" x="0px" y="0px"
	 width="459px" height="535.5px" viewBox="0 0 459 535.5" enable-background="new 0 0 459 535.5" xml:space="preserve">
<g id="live-help">
	<path d="M408,0H51C22.95,0,0,22.95,0,51v357c0,28.05,22.95,51,51,51h102l76.5,76.5L306,459h102c28.05,0,51-22.95,51-51V51
		C459,22.95,436.05,0,408,0z M255,408h-51v-51h51V408z M308.55,211.65L285.6,234.6C265.2,252.45,255,267.75,255,306h-51v-12.75
		c0-28.05,10.2-53.55,30.6-71.4l30.6-33.15c10.2-7.65,15.3-20.4,15.3-35.7c0-28.05-22.95-51-51-51s-51,22.95-51,51h-51
		c0-56.1,45.9-102,102-102s102,45.9,102,102C331.5,175.95,321.3,196.35,308.55,211.65z"/>
</g>
<g>
</g>
<g>
</g>
<g>
</g>
<g>
</g>
<g>
</g>
<g>
</g>
<g>
</g>
<g>
</g>
<g>
</g>
<g>
</g>
<g>
</g>
<g>
</g>
<g>
</g>
<g>
</g>
<g>
</g>
</svg>
