<?xml version="1.0" encoding="utf-8"?>
<!-- Generator: Adobe Illustrator 17.0.0, SVG Export Plug-In . SVG Version: 6.00 Build 0)  -->
<!DOCTYPE svg PUBLIC "-//W3C//DTD SVG 1.1//EN" "http://www.w3.org/Graphics/SVG/1.1/DTD/svg11.dtd">
<svg version="1.1" id="Layer_1" xmlns="http://www.w3.org/2000/svg" xmlns:xlink="http://www.w3.org/1999/xlink" x="0px" y="0px"
	 width="408px" height="535.5px" viewBox="0 0 408 535.5" enable-background="new 0 0 408 535.5" xml:space="preserve">
<g id="lock-open">
	<path d="M204,408c28.05,0,51-22.95,51-51s-22.95-51-51-51s-51,22.95-51,51S175.95,408,204,408z M357,178.5h-25.5v-51
		C331.5,56.1,275.4,0,204,0S76.5,56.1,76.5,127.5h48.45c0-43.35,35.7-79.05,79.05-79.05s79.05,35.7,79.05,79.05v51H51
		c-28.05,0-51,22.95-51,51v255c0,28.05,22.95,51,51,51h306c28.05,0,51-22.95,51-51v-255C408,201.45,385.05,178.5,357,178.5z
		 M357,484.5H51v-255h306V484.5z"/>
</g>
<g>
</g>
<g>
</g>
<g>
</g>
<g>
</g>
<g>
</g>
<g>
</g>
<g>
</g>
<g>
</g>
<g>
</g>
<g>
</g>
<g>
</g>
<g>
</g>
<g>
</g>
<g>
</g>
<g>
</g>
</svg>
