<?xml version="1.0" encoding="utf-8"?>
<!-- Generator: Adobe Illustrator 17.0.0, SVG Export Plug-In . SVG Version: 6.00 Build 0)  -->
<!DOCTYPE svg PUBLIC "-//W3C//DTD SVG 1.1//EN" "http://www.w3.org/Graphics/SVG/1.1/DTD/svg11.dtd">
<svg version="1.1" id="Layer_1" xmlns="http://www.w3.org/2000/svg" xmlns:xlink="http://www.w3.org/1999/xlink" x="0px" y="0px"
	 width="408px" height="561px" viewBox="0 0 408 561" enable-background="new 0 0 408 561" xml:space="preserve">
<g id="loop">
	<path d="M204,76.5V0L102,102l102,102v-76.5c84.15,0,153,68.85,153,153c0,25.5-7.65,51-17.85,71.4l38.25,38.25
		C395.25,357,408,321.3,408,280.5C408,168.3,316.2,76.5,204,76.5z M204,433.5c-84.15,0-153-68.85-153-153c0-25.5,7.65-51,17.85-71.4
		L30.6,170.85C12.75,204,0,239.7,0,280.5c0,112.2,91.8,204,204,204V561l102-102L204,357V433.5z"/>
</g>
<g>
</g>
<g>
</g>
<g>
</g>
<g>
</g>
<g>
</g>
<g>
</g>
<g>
</g>
<g>
</g>
<g>
</g>
<g>
</g>
<g>
</g>
<g>
</g>
<g>
</g>
<g>
</g>
<g>
</g>
</svg>
