<?xml version="1.0" encoding="utf-8"?>
<!-- Generator: Adobe Illustrator 17.0.0, SVG Export Plug-In . SVG Version: 6.00 Build 0)  -->
<!DOCTYPE svg PUBLIC "-//W3C//DTD SVG 1.1//EN" "http://www.w3.org/Graphics/SVG/1.1/DTD/svg11.dtd">
<svg version="1.1" id="Layer_1" xmlns="http://www.w3.org/2000/svg" xmlns:xlink="http://www.w3.org/1999/xlink" x="0px" y="0px"
	 width="612px" height="510px" viewBox="0 0 612 510" enable-background="new 0 0 612 510" xml:space="preserve">
<g id="markunread">
	<path d="M561,102l51-51L561,0l-51,51L459,0l-51,51L357,0l-51,51L255,0l-51,51L153,0l-51,51L51,0L0,51l51,51L0,153l51,51L0,255
		l51,51L0,357l51,51L0,459l51,51l51-51l51,51l51-51l51,51l51-51l51,51l51-51l51,51l51-51l51,51l51-51l-51-51l51-51l-51-51l51-51
		l-51-51l51-51L561,102z M510,153L306,280.5L102,153v-51l204,127.5L510,102V153z"/>
</g>
<g>
</g>
<g>
</g>
<g>
</g>
<g>
</g>
<g>
</g>
<g>
</g>
<g>
</g>
<g>
</g>
<g>
</g>
<g>
</g>
<g>
</g>
<g>
</g>
<g>
</g>
<g>
</g>
<g>
</g>
</svg>
