<?xml version="1.0" encoding="utf-8"?>
<!-- Generator: Adobe Illustrator 17.0.0, SVG Export Plug-In . SVG Version: 6.00 Build 0)  -->
<!DOCTYPE svg PUBLIC "-//W3C//DTD SVG 1.1//EN" "http://www.w3.org/Graphics/SVG/1.1/DTD/svg11.dtd">
<svg version="1.1" id="Layer_1" xmlns="http://www.w3.org/2000/svg" xmlns:xlink="http://www.w3.org/1999/xlink" x="0px" y="0px"
	 width="459px" height="484.5px" viewBox="0 0 459 484.5" enable-background="new 0 0 459 484.5" xml:space="preserve">
<g id="mic-off">
	<path d="M408,229.5h-43.35c0,17.85-5.1,35.7-10.2,51l30.6,30.6C400.35,288.15,408,260.1,408,229.5z"/>
	<path d="M306,234.6c0-2.55,0-2.55,0-5.1v-153C306,33.15,272.85,0,229.5,0S153,33.15,153,76.5v5.1L306,234.6z"/>
	<path d="M33.15,25.5L0,58.65l153,153v17.85c0,43.35,33.15,76.5,76.5,76.5c5.1,0,10.2,0,17.85-2.55l43.35,43.35
		c-17.85,7.65-38.25,12.75-58.65,12.75C160.65,359.55,96.9,306,96.9,229.5H51c0,86.7,68.85,158.1,153,170.85v84.15h51v-84.15
		c22.95-2.55,45.9-12.75,63.75-22.95l107.1,107.1L459,451.35L33.15,25.5z"/>
</g>
<g>
</g>
<g>
</g>
<g>
</g>
<g>
</g>
<g>
</g>
<g>
</g>
<g>
</g>
<g>
</g>
<g>
</g>
<g>
</g>
<g>
</g>
<g>
</g>
<g>
</g>
<g>
</g>
<g>
</g>
</svg>
