<?xml version="1.0" encoding="utf-8"?>
<!-- Generator: Adobe Illustrator 17.0.0, SVG Export Plug-In . SVG Version: 6.00 Build 0)  -->
<!DOCTYPE svg PUBLIC "-//W3C//DTD SVG 1.1//EN" "http://www.w3.org/Graphics/SVG/1.1/DTD/svg11.dtd">
<svg version="1.1" id="Layer_1" xmlns="http://www.w3.org/2000/svg" xmlns:xlink="http://www.w3.org/1999/xlink" x="0px" y="0px"
	 width="612px" height="459px" viewBox="0 0 612 459" enable-background="new 0 0 612 459" xml:space="preserve">
<g id="more">
	<path d="M561,0H178.5c-17.85,0-30.6,10.2-40.8,22.95L0,229.5l137.7,206.55C147.9,448.8,163.2,459,181.05,459H561
		c28.05,0,51-22.95,51-51V51C612,22.95,589.05,0,561,0z M229.5,267.75c-20.4,0-38.25-17.85-38.25-38.25s17.85-38.25,38.25-38.25
		s38.25,17.85,38.25,38.25S249.9,267.75,229.5,267.75z M357,267.75c-20.4,0-38.25-17.85-38.25-38.25s17.85-38.25,38.25-38.25
		s38.25,17.85,38.25,38.25S377.4,267.75,357,267.75z M484.5,267.75c-20.4,0-38.25-17.85-38.25-38.25s17.85-38.25,38.25-38.25
		s38.25,17.85,38.25,38.25S504.9,267.75,484.5,267.75z"/>
</g>
<g>
</g>
<g>
</g>
<g>
</g>
<g>
</g>
<g>
</g>
<g>
</g>
<g>
</g>
<g>
</g>
<g>
</g>
<g>
</g>
<g>
</g>
<g>
</g>
<g>
</g>
<g>
</g>
<g>
</g>
</svg>
