<?xml version="1.0" encoding="utf-8"?>
<!-- Generator: Adobe Illustrator 17.0.0, SVG Export Plug-In . SVG Version: 6.00 Build 0)  -->
<!DOCTYPE svg PUBLIC "-//W3C//DTD SVG 1.1//EN" "http://www.w3.org/Graphics/SVG/1.1/DTD/svg11.dtd">
<svg version="1.1" id="Layer_1" xmlns="http://www.w3.org/2000/svg" xmlns:xlink="http://www.w3.org/1999/xlink" x="0px" y="0px"
	 width="510px" height="459px" viewBox="0 0 510 459" enable-background="new 0 0 510 459" xml:space="preserve">
<g id="news">
	<path d="M466.65,43.35L425.85,0L382.5,43.35L339.15,0L295.8,43.35L255,0l-43.35,43.35L170.85,0L127.5,43.35L84.15,0l-40.8,43.35
		L0,0v408c0,28.05,22.95,51,51,51h408c28.05,0,51-22.95,51-51V0L466.65,43.35z M255,408H51V229.5h204V408z M459,408H280.5v-25.5H459
		V408z M459,357H280.5v-25.5H459V357z M459,306H280.5v-25.5H459V306z M459,255H280.5v-25.5H459V255z M459,204H51v-76.5h408V204z"/>
</g>
<g>
</g>
<g>
</g>
<g>
</g>
<g>
</g>
<g>
</g>
<g>
</g>
<g>
</g>
<g>
</g>
<g>
</g>
<g>
</g>
<g>
</g>
<g>
</g>
<g>
</g>
<g>
</g>
<g>
</g>
</svg>
