<?xml version="1.0" encoding="utf-8"?>
<!-- Generator: Adobe Illustrator 17.0.0, SVG Export Plug-In . SVG Version: 6.00 Build 0)  -->
<!DOCTYPE svg PUBLIC "-//W3C//DTD SVG 1.1//EN" "http://www.w3.org/Graphics/SVG/1.1/DTD/svg11.dtd">
<svg version="1.1" id="Layer_1" xmlns="http://www.w3.org/2000/svg" xmlns:xlink="http://www.w3.org/1999/xlink" x="0px" y="0px"
	 width="433.5px" height="510px" viewBox="0 0 433.5 510" enable-background="new 0 0 433.5 510" xml:space="preserve">
<g id="notifications-none">
	<path d="M216.75,510c28.05,0,51-22.95,51-51h-102C165.75,487.05,188.7,510,216.75,510z M382.5,357V216.75
		c0-79.05-53.55-142.8-127.5-160.65V38.25C255,17.85,237.15,0,216.75,0S178.5,17.85,178.5,38.25V56.1
		C104.55,73.95,51,137.7,51,216.75V357L0,408v25.5h433.5V408L382.5,357z M331.5,382.5H102V216.75C102,153,153,102,216.75,102
		S331.5,153,331.5,216.75V382.5z"/>
</g>
<g>
</g>
<g>
</g>
<g>
</g>
<g>
</g>
<g>
</g>
<g>
</g>
<g>
</g>
<g>
</g>
<g>
</g>
<g>
</g>
<g>
</g>
<g>
</g>
<g>
</g>
<g>
</g>
<g>
</g>
</svg>
