<?xml version="1.0" encoding="utf-8"?>
<!-- Generator: Adobe Illustrator 17.0.0, SVG Export Plug-In . SVG Version: 6.00 Build 0)  -->
<!DOCTYPE svg PUBLIC "-//W3C//DTD SVG 1.1//EN" "http://www.w3.org/Graphics/SVG/1.1/DTD/svg11.dtd">
<svg version="1.1" id="Layer_1" xmlns="http://www.w3.org/2000/svg" xmlns:xlink="http://www.w3.org/1999/xlink" x="0px" y="0px"
	 width="535.5px" height="510px" viewBox="0 0 535.5 510" enable-background="new 0 0 535.5 510" xml:space="preserve">
<g id="notifications-on">
	<path d="M142.8,40.8L107.1,5.1C45.9,51,5.1,122.4,0,204h51C56.1,135.15,89.25,76.5,142.8,40.8z M484.5,204h51
		c-5.1-81.6-43.35-153-104.55-198.9l-35.7,35.7C446.25,76.5,479.4,135.15,484.5,204z M433.5,216.75
		c0-79.05-53.55-142.8-127.5-160.65V38.25C306,17.85,288.15,0,267.75,0S229.5,17.85,229.5,38.25V56.1
		C155.55,73.95,102,137.7,102,216.75V357l-51,51v25.5h433.5V408l-51-51V216.75z M267.75,510c2.55,0,7.65,0,10.2,0
		c17.85-2.55,30.6-15.3,35.7-30.6c2.55-5.1,5.1-12.75,5.1-20.4h-102C216.75,487.05,239.7,510,267.75,510z"/>
</g>
<g>
</g>
<g>
</g>
<g>
</g>
<g>
</g>
<g>
</g>
<g>
</g>
<g>
</g>
<g>
</g>
<g>
</g>
<g>
</g>
<g>
</g>
<g>
</g>
<g>
</g>
<g>
</g>
<g>
</g>
</svg>
