<?xml version="1.0" encoding="utf-8"?>
<!-- Generator: Adobe Illustrator 17.0.0, SVG Export Plug-In . SVG Version: 6.00 Build 0)  -->
<!DOCTYPE svg PUBLIC "-//W3C//DTD SVG 1.1//EN" "http://www.w3.org/Graphics/SVG/1.1/DTD/svg11.dtd">
<svg version="1.1" id="Layer_1" xmlns="http://www.w3.org/2000/svg" xmlns:xlink="http://www.w3.org/1999/xlink" x="0px" y="0px"
	 width="459px" height="510px" viewBox="0 0 459 510" enable-background="new 0 0 459 510" xml:space="preserve">
<g id="notifications-off">
	<path d="M216.75,510c28.05,0,51-22.95,51-51h-102C165.75,487.05,188.7,510,216.75,510z M382.5,216.75
		c0-79.05-53.55-142.8-127.5-160.65V38.25C255,17.85,237.15,0,216.75,0S178.5,17.85,178.5,38.25V56.1
		c-12.75,2.55-25.5,7.65-35.7,12.75l239.7,239.7V216.75z M374.85,433.5l51,51L459,451.35L33.15,25.5L0,58.65l73.95,73.95
		C58.65,158.1,51,186.15,51,216.75V357L0,408v25.5H374.85z"/>
</g>
<g>
</g>
<g>
</g>
<g>
</g>
<g>
</g>
<g>
</g>
<g>
</g>
<g>
</g>
<g>
</g>
<g>
</g>
<g>
</g>
<g>
</g>
<g>
</g>
<g>
</g>
<g>
</g>
<g>
</g>
</svg>
