<?xml version="1.0" encoding="utf-8"?>
<!-- Generator: Adobe Illustrator 17.0.0, SVG Export Plug-In . SVG Version: 6.00 Build 0)  -->
<!DOCTYPE svg PUBLIC "-//W3C//DTD SVG 1.1//EN" "http://www.w3.org/Graphics/SVG/1.1/DTD/svg11.dtd">
<svg version="1.1" id="Layer_1" xmlns="http://www.w3.org/2000/svg" xmlns:xlink="http://www.w3.org/1999/xlink" x="0px" y="0px"
	 width="459px" height="535.5px" viewBox="0 0 459 535.5" enable-background="new 0 0 459 535.5" xml:space="preserve">
<g id="person-location">
	<path d="M408,0H51C22.95,0,0,22.95,0,51v357c0,28.05,22.95,51,51,51h102l76.5,76.5L306,459h102c28.05,0,51-22.95,51-51V51
		C459,22.95,436.05,0,408,0z M229.5,84.15c38.25,0,68.85,30.6,68.85,68.85s-30.6,68.85-68.85,68.85s-68.85-30.6-68.85-68.85
		S191.25,84.15,229.5,84.15z M382.5,357h-306v-22.95c0-51,102-79.05,153-79.05s153,28.05,153,79.05V357z"/>
</g>
<g>
</g>
<g>
</g>
<g>
</g>
<g>
</g>
<g>
</g>
<g>
</g>
<g>
</g>
<g>
</g>
<g>
</g>
<g>
</g>
<g>
</g>
<g>
</g>
<g>
</g>
<g>
</g>
<g>
</g>
</svg>
