<?xml version="1.0" encoding="utf-8"?>
<!-- Generator: Adobe Illustrator 17.0.0, SVG Export Plug-In . SVG Version: 6.00 Build 0)  -->
<!DOCTYPE svg PUBLIC "-//W3C//DTD SVG 1.1//EN" "http://www.w3.org/Graphics/SVG/1.1/DTD/svg11.dtd">
<svg version="1.1" id="Layer_1" xmlns="http://www.w3.org/2000/svg" xmlns:xlink="http://www.w3.org/1999/xlink" x="0px" y="0px"
	 width="617.1px" height="456.45px" viewBox="0 0 617.1 456.45" enable-background="new 0 0 617.1 456.45" xml:space="preserve">
<g id="phone-missed">
	<path d="M165.75,63.75L306,204L484.5,25.5L459,0L306,153L191.25,38.25h89.25V0h-153v153h38.25V63.75z M604.35,349.35
		C527.85,275.4,420.75,229.5,306,229.5S84.15,275.4,7.65,349.35C2.55,354.45,0,359.55,0,367.2c0,7.65,2.55,12.75,7.65,17.85
		L71.4,448.8c5.1,5.1,10.2,7.65,17.85,7.65s12.75-2.55,17.85-7.65c20.4-17.85,43.35-35.7,68.85-48.45
		c7.65-5.1,15.3-12.75,15.3-22.95v-79.05c35.7-12.75,76.5-17.85,117.3-17.85s81.6,7.65,117.3,17.85v79.05
		c0,10.2,5.1,17.85,15.3,22.95c25.5,12.75,48.45,28.05,68.85,48.45c5.1,5.1,10.2,7.65,17.85,7.65c7.65,0,12.75-2.55,17.85-7.65
		l63.75-63.75c5.1-5.1,7.65-10.2,7.65-17.85S609.45,354.45,604.35,349.35z"/>
</g>
<g>
</g>
<g>
</g>
<g>
</g>
<g>
</g>
<g>
</g>
<g>
</g>
<g>
</g>
<g>
</g>
<g>
</g>
<g>
</g>
<g>
</g>
<g>
</g>
<g>
</g>
<g>
</g>
<g>
</g>
</svg>
