<?xml version="1.0" encoding="utf-8"?>
<!-- Generator: Adobe Illustrator 17.0.0, SVG Export Plug-In . SVG Version: 6.00 Build 0)  -->
<!DOCTYPE svg PUBLIC "-//W3C//DTD SVG 1.1//EN" "http://www.w3.org/Graphics/SVG/1.1/DTD/svg11.dtd">
<svg version="1.1" id="Layer_1" xmlns="http://www.w3.org/2000/svg" xmlns:xlink="http://www.w3.org/1999/xlink" x="0px" y="0px"
	 width="510px" height="484.5px" viewBox="0 0 510 484.5" enable-background="new 0 0 510 484.5" xml:space="preserve">
<g id="play-install">
	<path d="M459,102H357V51L306,0H204l-51,51v51H51c-28.05,0-51,22.95-51,51v280.5c0,28.05,22.95,51,51,51h408c28.05,0,51-22.95,51-51
		V153C510,124.95,487.05,102,459,102z M204,51h102v51H204V51z M216.75,395.25L127.5,306l35.7-35.7l53.55,53.55l132.6-132.6
		l35.7,35.7L216.75,395.25z"/>
</g>
<g>
</g>
<g>
</g>
<g>
</g>
<g>
</g>
<g>
</g>
<g>
</g>
<g>
</g>
<g>
</g>
<g>
</g>
<g>
</g>
<g>
</g>
<g>
</g>
<g>
</g>
<g>
</g>
<g>
</g>
</svg>
