<?xml version="1.0" encoding="utf-8"?>
<!-- Generator: Adobe Illustrator 17.0.0, SVG Export Plug-In . SVG Version: 6.00 Build 0)  -->
<!DOCTYPE svg PUBLIC "-//W3C//DTD SVG 1.1//EN" "http://www.w3.org/Graphics/SVG/1.1/DTD/svg11.dtd">
<svg version="1.1" id="Layer_1" xmlns="http://www.w3.org/2000/svg" xmlns:xlink="http://www.w3.org/1999/xlink" x="0px" y="0px"
	 width="357px" height="548.25px" viewBox="0 0 357 548.25" enable-background="new 0 0 357 548.25" xml:space="preserve">
<g id="reminder">
	<path d="M303.45,306C336.6,272.85,357,229.5,357,178.5C357,79.05,277.95,0,178.5,0S0,79.05,0,178.5c0,51,20.4,94.35,53.55,127.5
		l0,0l89.25,89.25L25.5,512.55l35.7,35.7L303.45,306z M267.75,267.75L267.75,267.75l-89.25,91.8L89.25,270.3l0,0l0,0
		C66.3,244.8,51,214.2,51,178.5C51,107.1,107.1,51,178.5,51S306,107.1,306,178.5C306,214.2,290.7,244.8,267.75,267.75L267.75,267.75
		z M214.2,466.65l81.6,81.6l35.7-35.7l-81.6-81.6L214.2,466.65z"/>
</g>
<g>
</g>
<g>
</g>
<g>
</g>
<g>
</g>
<g>
</g>
<g>
</g>
<g>
</g>
<g>
</g>
<g>
</g>
<g>
</g>
<g>
</g>
<g>
</g>
<g>
</g>
<g>
</g>
<g>
</g>
</svg>
