<?xml version="1.0" encoding="utf-8"?>
<!-- Generator: Adobe Illustrator 17.0.0, SVG Export Plug-In . SVG Version: 6.00 Build 0)  -->
<!DOCTYPE svg PUBLIC "-//W3C//DTD SVG 1.1//EN" "http://www.w3.org/Graphics/SVG/1.1/DTD/svg11.dtd">
<svg version="1.1" id="Layer_1" xmlns="http://www.w3.org/2000/svg" xmlns:xlink="http://www.w3.org/1999/xlink" x="0px" y="0px"
	 width="617.1px" height="481.95px" viewBox="0 0 617.1 481.95" enable-background="new 0 0 617.1 481.95" xml:space="preserve">
<g id="ring-volume">
	<path d="M604.35,374.85C527.85,300.9,420.75,255,306,255S84.15,300.9,7.65,374.85C2.55,379.95,0,385.05,0,392.7
		c0,7.65,2.55,12.75,7.65,17.85L71.4,474.3c5.1,5.1,10.2,7.65,17.85,7.65s12.75-2.55,17.85-7.65c20.4-17.85,43.35-35.7,68.85-48.45
		c7.65-5.1,15.3-12.75,15.3-22.95v-79.05c35.7-12.75,76.5-17.85,117.3-17.85s79.05,7.65,117.3,17.85v79.05
		c0,10.2,5.1,17.85,15.3,22.95c25.5,12.75,48.45,28.05,68.85,48.45c5.1,5.1,10.2,7.65,17.85,7.65c7.65,0,12.75-2.55,17.85-7.65
		l63.75-63.75c5.1-5.1,7.65-10.2,7.65-17.85C612,385.05,609.45,379.95,604.35,374.85z M540.6,109.65l-35.7-35.7l-91.8,91.8
		l35.7,35.7C448.8,198.9,535.5,109.65,540.6,109.65z M331.5,0h-51v127.5h51V0z M163.2,198.9l35.7-35.7l-89.25-91.8L71.4,109.65
		C76.5,109.65,163.2,198.9,163.2,198.9z"/>
</g>
<g>
</g>
<g>
</g>
<g>
</g>
<g>
</g>
<g>
</g>
<g>
</g>
<g>
</g>
<g>
</g>
<g>
</g>
<g>
</g>
<g>
</g>
<g>
</g>
<g>
</g>
<g>
</g>
<g>
</g>
</svg>
