<?xml version="1.0" encoding="utf-8"?>
<!-- Generator: Adobe Illustrator 17.0.0, SVG Export Plug-In . SVG Version: 6.00 Build 0)  -->
<!DOCTYPE svg PUBLIC "-//W3C//DTD SVG 1.1//EN" "http://www.w3.org/Graphics/SVG/1.1/DTD/svg11.dtd">
<svg version="1.1" id="Layer_1" xmlns="http://www.w3.org/2000/svg" xmlns:xlink="http://www.w3.org/1999/xlink" x="0px" y="0px"
	 width="405.45px" height="481.95px" viewBox="0 0 405.45 481.95" enable-background="new 0 0 405.45 481.95" xml:space="preserve">
<g id="rotate-right">
	<path d="M293.25,114.75L178.5,0v79.05C79.05,91.8,0,175.95,0,280.5s79.05,188.7,178.5,201.45v-51C107.1,418.2,51,357,51,280.5
		s56.1-137.7,127.5-150.45v99.45L293.25,114.75z M405.45,255c-5.1-35.7-17.85-68.85-40.8-99.45l-35.7,35.7
		c12.75,20.4,22.95,40.8,25.5,63.75H405.45z M229.5,430.95v51c35.7-5.1,68.85-17.85,99.45-40.8l-35.7-35.7
		C272.85,418.2,252.45,428.4,229.5,430.95z M328.95,369.75l35.7,35.7c22.95-30.6,38.25-63.75,40.8-99.45h-51
		C351.9,328.95,341.7,349.35,328.95,369.75z"/>
</g>
<g>
</g>
<g>
</g>
<g>
</g>
<g>
</g>
<g>
</g>
<g>
</g>
<g>
</g>
<g>
</g>
<g>
</g>
<g>
</g>
<g>
</g>
<g>
</g>
<g>
</g>
<g>
</g>
<g>
</g>
</svg>
