<?xml version="1.0" encoding="utf-8"?>
<!-- Generator: Adobe Illustrator 17.0.0, SVG Export Plug-In . SVG Version: 6.00 Build 0)  -->
<!DOCTYPE svg PUBLIC "-//W3C//DTD SVG 1.1//EN" "http://www.w3.org/Graphics/SVG/1.1/DTD/svg11.dtd">
<svg version="1.1" id="Layer_1" xmlns="http://www.w3.org/2000/svg" xmlns:xlink="http://www.w3.org/1999/xlink" x="0px" y="0px"
	 width="405.45px" height="481.95px" viewBox="0 0 405.45 481.95" enable-background="new 0 0 405.45 481.95" xml:space="preserve">
<g id="rotate-left">
	<path d="M76.5,191.25l-35.7-35.7C17.85,186.15,2.55,219.3,0,255h51C53.55,232.05,63.75,211.65,76.5,191.25z M51,306H0
		c5.1,35.7,17.85,68.85,40.8,99.45l35.7-35.7C63.75,349.35,53.55,328.95,51,306z M76.5,441.15c30.6,22.95,63.75,35.7,99.45,40.8v-51
		c-22.95-2.55-43.35-12.75-63.75-25.5L76.5,441.15z M226.95,79.05V0L112.2,114.75L226.95,229.5v-99.45
		c71.4,12.75,127.5,73.95,127.5,150.45s-56.1,137.7-127.5,150.45v51c99.45-12.75,178.5-99.45,178.5-201.45S326.4,91.8,226.95,79.05z
		"/>
</g>
<g>
</g>
<g>
</g>
<g>
</g>
<g>
</g>
<g>
</g>
<g>
</g>
<g>
</g>
<g>
</g>
<g>
</g>
<g>
</g>
<g>
</g>
<g>
</g>
<g>
</g>
<g>
</g>
<g>
</g>
</svg>
