<?xml version="1.0" encoding="utf-8"?>
<!-- Generator: Adobe Illustrator 17.0.0, SVG Export Plug-In . SVG Version: 6.00 Build 0)  -->
<!DOCTYPE svg PUBLIC "-//W3C//DTD SVG 1.1//EN" "http://www.w3.org/Graphics/SVG/1.1/DTD/svg11.dtd">
<svg version="1.1" id="Layer_1" xmlns="http://www.w3.org/2000/svg" xmlns:xlink="http://www.w3.org/1999/xlink" x="0px" y="0px"
	 width="357px" height="561px" viewBox="0 0 357 561" enable-background="new 0 0 357 561" xml:space="preserve">
<g id="screen-lock-portrait">
	<path d="M127.5,382.5h102c15.3,0,25.5-10.2,25.5-25.5v-76.5c0-15.3-10.2-25.5-25.5-25.5v-25.5c0-28.05-22.95-51-51-51
		s-51,22.95-51,51V255c-15.3,0-25.5,10.2-25.5,25.5V357C102,372.3,112.2,382.5,127.5,382.5z M147.9,229.5
		c0-17.85,12.75-30.6,30.6-30.6s30.6,12.75,30.6,30.6V255h-61.2L147.9,229.5L147.9,229.5z M306,0H51C22.95,0,0,22.95,0,51v459
		c0,28.05,22.95,51,51,51h255c28.05,0,51-22.95,51-51V51C357,22.95,334.05,0,306,0z M306,459H51V102h255V459z"/>
</g>
<g>
</g>
<g>
</g>
<g>
</g>
<g>
</g>
<g>
</g>
<g>
</g>
<g>
</g>
<g>
</g>
<g>
</g>
<g>
</g>
<g>
</g>
<g>
</g>
<g>
</g>
<g>
</g>
<g>
</g>
</svg>
