<?xml version="1.0" encoding="utf-8"?>
<!-- Generator: Adobe Illustrator 17.0.0, SVG Export Plug-In . SVG Version: 6.00 Build 0)  -->
<!DOCTYPE svg PUBLIC "-//W3C//DTD SVG 1.1//EN" "http://www.w3.org/Graphics/SVG/1.1/DTD/svg11.dtd">
<svg version="1.1" id="Layer_1" xmlns="http://www.w3.org/2000/svg" xmlns:xlink="http://www.w3.org/1999/xlink" x="0px" y="0px"
	 width="561px" height="357px" viewBox="0 0 561 357" enable-background="new 0 0 561 357" xml:space="preserve">
<g id="screen-lock-landscape">
	<path d="M510,0H51C22.95,0,0,22.95,0,51v255c0,28.05,22.95,51,51,51h459c28.05,0,51-22.95,51-51V51C561,22.95,538.05,0,510,0z
		 M459,306H102V51h357V306z M229.5,280.5h102c15.3,0,25.5-10.2,25.5-25.5v-76.5c0-15.3-10.2-25.5-25.5-25.5v-25.5
		c0-28.05-22.95-51-51-51s-51,22.95-51,51V153c-15.3,0-25.5,10.2-25.5,25.5V255C204,270.3,214.2,280.5,229.5,280.5z M249.9,127.5
		c0-17.85,12.75-30.6,30.6-30.6s30.6,12.75,30.6,30.6V153h-61.2L249.9,127.5L249.9,127.5z"/>
</g>
<g>
</g>
<g>
</g>
<g>
</g>
<g>
</g>
<g>
</g>
<g>
</g>
<g>
</g>
<g>
</g>
<g>
</g>
<g>
</g>
<g>
</g>
<g>
</g>
<g>
</g>
<g>
</g>
<g>
</g>
</svg>
