<?xml version="1.0" encoding="utf-8"?>
<!-- Generator: Adobe Illustrator 17.0.0, SVG Export Plug-In . SVG Version: 6.00 Build 0)  -->
<!DOCTYPE svg PUBLIC "-//W3C//DTD SVG 1.1//EN" "http://www.w3.org/Graphics/SVG/1.1/DTD/svg11.dtd">
<svg version="1.1" id="Layer_1" xmlns="http://www.w3.org/2000/svg" xmlns:xlink="http://www.w3.org/1999/xlink" x="0px" y="0px"
	 width="609.45px" height="612px" viewBox="0 0 609.45 612" enable-background="new 0 0 609.45 612" xml:space="preserve">
<g id="screen-rotation">
	<path d="M418.2,63.75C502.35,102,561,183.6,571.2,280.5h38.25C594.15,122.4,464.1,0,303.45,0c-5.1,0-10.2,0-17.85,0l96.9,96.9
		L418.2,63.75z M257.55,43.35c-15.3-15.3-38.25-15.3-53.55,0L40.8,206.55c-15.3,15.3-15.3,38.25,0,53.55l306,306
		c15.3,15.3,38.25,15.3,53.55,0l163.2-163.2c15.3-15.3,15.3-38.25,0-53.55L257.55,43.35z M374.85,540.6l-306-306l163.2-163.2
		l306,306L374.85,540.6z M188.7,548.25C104.55,510,45.9,428.4,35.7,331.5H0C12.75,489.6,142.8,612,303.45,612c5.1,0,10.2,0,17.85,0
		l-96.9-96.9L188.7,548.25z"/>
</g>
<g>
</g>
<g>
</g>
<g>
</g>
<g>
</g>
<g>
</g>
<g>
</g>
<g>
</g>
<g>
</g>
<g>
</g>
<g>
</g>
<g>
</g>
<g>
</g>
<g>
</g>
<g>
</g>
<g>
</g>
</svg>
