<?xml version="1.0" encoding="utf-8"?>
<!-- Generator: Adobe Illustrator 17.0.0, SVG Export Plug-In . SVG Version: 6.00 Build 0)  -->
<!DOCTYPE svg PUBLIC "-//W3C//DTD SVG 1.1//EN" "http://www.w3.org/Graphics/SVG/1.1/DTD/svg11.dtd">
<svg version="1.1" id="Layer_1" xmlns="http://www.w3.org/2000/svg" xmlns:xlink="http://www.w3.org/1999/xlink" x="0px" y="0px"
	 width="577.9155px" height="586.5px" viewBox="0 0 577.9155 586.5" enable-background="new 0 0 577.9155 586.5"
	 xml:space="preserve">
<g id="screen-lock-rotation">
	<path d="M568.65,326.4l-66.3-66.3l-35.7,35.7l56.1,56.1L377.4,497.25L89.25,209.1L234.6,63.75l53.55,53.55l35.7-35.7l-61.2-61.2
		c-15.3-15.3-38.25-15.3-53.55,0L43.35,181.05c-15.3,15.3-15.3,38.25,0,53.55l306,306.0001c15.3,15.3,38.25,15.3,53.55,0
		l163.2-163.2C581.4,364.65,581.4,341.7,568.65,326.4z M191.25,522.75C107.1,484.5,48.45,402.9,38.25,306H0
		c12.75,158.1,145.35,280.5,303.45,280.5c5.1,0,10.2,0,17.85,0l-96.9-96.9L191.25,522.75z M382.5,229.5H510
		c15.3,0,25.5-10.2,25.5-25.5V102c0-15.3-10.2-25.5-25.5-25.5V63.75C510,28.05,481.95,0,446.25,0S382.5,28.05,382.5,63.75V76.5
		c-15.3,0-25.5,10.2-25.5,25.5v102C357,219.3,367.2,229.5,382.5,229.5z M402.9,63.75c0-22.95,20.4-43.35,43.35-43.35
		c22.95,0,43.35,20.4,43.35,43.35V76.5h-86.7L402.9,63.75L402.9,63.75z"/>
</g>
<g>
</g>
<g>
</g>
<g>
</g>
<g>
</g>
<g>
</g>
<g>
</g>
<g>
</g>
<g>
</g>
<g>
</g>
<g>
</g>
<g>
</g>
<g>
</g>
<g>
</g>
<g>
</g>
<g>
</g>
</svg>
