<?xml version="1.0" encoding="utf-8"?>
<!-- Generator: Adobe Illustrator 17.0.0, SVG Export Plug-In . SVG Version: 6.00 Build 0)  -->
<!DOCTYPE svg PUBLIC "-//W3C//DTD SVG 1.1//EN" "http://www.w3.org/Graphics/SVG/1.1/DTD/svg11.dtd">
<svg version="1.1" id="Layer_1" xmlns="http://www.w3.org/2000/svg" xmlns:xlink="http://www.w3.org/1999/xlink" x="0px" y="0px"
	 width="459px" height="459px" viewBox="0 0 459 459" enable-background="new 0 0 459 459" xml:space="preserve">
<g id="settings-applications">
	<path d="M229.5,178.5c-28.05,0-51,22.95-51,51s22.95,51,51,51s51-22.95,51-51S257.55,178.5,229.5,178.5z M408,0H51
		C22.95,0,0,22.95,0,51v357c0,28.05,22.95,51,51,51h357c28.05,0,51-22.95,51-51V51C459,22.95,436.05,0,408,0z M362.1,229.5
		c0,5.1,0,12.75,0,17.85l38.25,30.6c2.55,2.55,5.1,7.65,2.55,10.2l-35.7,61.2c-2.55,5.1-7.65,5.1-10.2,5.1l-43.35-17.85
		c-10.2,7.65-20.4,12.75-30.6,17.85l-7.65,48.45c0,5.1-5.1,7.65-7.65,7.65h-71.4c-5.1,0-7.65-2.55-7.65-7.65l-10.2-48.45
		c-10.2-5.1-20.4-10.2-30.6-17.85l-43.35,17.85c-5.1,2.55-7.65,0-10.2-5.1l-35.7-61.2c-2.55-5.1,0-7.65,2.55-10.2l38.25-30.6
		c0-5.1,0-12.75,0-17.85s0-12.75,0-17.85l-38.25-30.6c-2.55-2.55-5.1-7.65-2.55-10.2l35.7-61.2c2.55-5.1,7.65-5.1,10.2-5.1
		l43.35,17.85c10.2-5.1,20.4-12.75,30.6-17.85l7.65-48.45c0-5.1,5.1-7.65,7.65-7.65h71.4c5.1,0,7.65,2.55,7.65,7.65l7.65,48.45
		c10.2,5.1,20.4,10.2,30.6,17.85l43.35-17.85c5.1-2.55,7.65,0,10.2,5.1l35.7,61.2c2.55,5.1,0,7.65-2.55,10.2l-38.25,30.6
		C362.1,216.75,362.1,224.4,362.1,229.5z"/>
</g>
<g>
</g>
<g>
</g>
<g>
</g>
<g>
</g>
<g>
</g>
<g>
</g>
<g>
</g>
<g>
</g>
<g>
</g>
<g>
</g>
<g>
</g>
<g>
</g>
<g>
</g>
<g>
</g>
<g>
</g>
</svg>
