<?xml version="1.0" encoding="utf-8"?>
<!-- Generator: Adobe Illustrator 17.0.0, SVG Export Plug-In . SVG Version: 6.00 Build 0)  -->
<!DOCTYPE svg PUBLIC "-//W3C//DTD SVG 1.1//EN" "http://www.w3.org/Graphics/SVG/1.1/DTD/svg11.dtd">
<svg version="1.1" id="Layer_1" xmlns="http://www.w3.org/2000/svg" xmlns:xlink="http://www.w3.org/1999/xlink" x="0px" y="0px"
	 width="357px" height="586.5px" viewBox="0 0 357 586.5" enable-background="new 0 0 357 586.5" xml:space="preserve">
<g id="settings-voice">
	<path d="M51,586.5h51v-51H51V586.5z M178.5,306c43.35,0,76.5-33.15,76.5-76.5v-153C255,33.15,221.85,0,178.5,0S102,33.15,102,76.5
		v153C102,272.85,135.15,306,178.5,306z M153,586.5h51v-51h-51V586.5z M255,586.5h51v-51h-51V586.5z M357,229.5h-43.35
		c0,76.5-63.75,130.05-135.15,130.05S43.35,306,43.35,229.5H0c0,86.7,68.85,158.1,153,170.85v84.15h51v-84.15
		C288.15,387.6,357,316.2,357,229.5z"/>
</g>
<g>
</g>
<g>
</g>
<g>
</g>
<g>
</g>
<g>
</g>
<g>
</g>
<g>
</g>
<g>
</g>
<g>
</g>
<g>
</g>
<g>
</g>
<g>
</g>
<g>
</g>
<g>
</g>
<g>
</g>
</svg>
