<?xml version="1.0" encoding="utf-8"?>
<!-- Generator: Adobe Illustrator 17.0.0, SVG Export Plug-In . SVG Version: 6.00 Build 0)  -->
<!DOCTYPE svg PUBLIC "-//W3C//DTD SVG 1.1//EN" "http://www.w3.org/Graphics/SVG/1.1/DTD/svg11.dtd">
<svg version="1.1" id="Layer_1" xmlns="http://www.w3.org/2000/svg" xmlns:xlink="http://www.w3.org/1999/xlink" x="0px" y="0px"
	 width="408px" height="561px" viewBox="0 0 408 561" enable-background="new 0 0 408 561" xml:space="preserve">
<g id="settings-power">
	<path d="M76.5,561h51v-51h-51V561z M178.5,561h51v-51h-51V561z M229.5,0h-51v255h51V0z M321.3,61.2l-35.7,35.7
		c40.8,28.05,71.4,76.5,71.4,132.6c0,84.15-68.85,153-153,153s-153-68.85-153-153c0-56.1,30.6-104.55,73.95-130.05L86.7,61.2
		C35.7,99.45,0,160.65,0,229.5c0,112.2,91.8,204,204,204s204-91.8,204-204C408,160.65,372.3,99.45,321.3,61.2z M280.5,561h51v-51
		h-51V561z"/>
</g>
<g>
</g>
<g>
</g>
<g>
</g>
<g>
</g>
<g>
</g>
<g>
</g>
<g>
</g>
<g>
</g>
<g>
</g>
<g>
</g>
<g>
</g>
<g>
</g>
<g>
</g>
<g>
</g>
<g>
</g>
</svg>
