<?xml version="1.0" encoding="utf-8"?>
<!-- Generator: Adobe Illustrator 17.0.0, SVG Export Plug-In . SVG Version: 6.00 Build 0)  -->
<!DOCTYPE svg PUBLIC "-//W3C//DTD SVG 1.1//EN" "http://www.w3.org/Graphics/SVG/1.1/DTD/svg11.dtd">
<svg version="1.1" id="Layer_1" xmlns="http://www.w3.org/2000/svg" xmlns:xlink="http://www.w3.org/1999/xlink" x="0px" y="0px"
	 width="499.9254px" height="507.45px" viewBox="0 0 499.9254 507.45" enable-background="new 0 0 499.9254 507.45"
	 xml:space="preserve">
<g id="settings">
	<path d="M437.0504,280.5c0-7.65,2.55-15.3,2.55-25.5c0-10.2,0-17.85-2.55-25.5l53.55-43.35c5.1-5.1,5.1-10.2,2.55-15.3l-51-89.25
		c-2.55-2.55-7.65-5.1-15.3-2.55l-63.75,25.5c-12.75-10.2-28.05-17.85-43.35-25.5l-10.2-66.3c2.55-7.65-5.1-12.75-10.2-12.75h-102
		c-5.1,0-12.75,5.1-12.75,10.2l-10.2,68.85c-15.3,5.1-28.05,15.3-43.35,25.5l-61.2-25.5c-7.65-2.55-12.75,0-17.85,5.1l-51,89.25
		c-2.55,2.55,0,10.2,5.1,15.3l53.55,40.8c0,7.65-2.55,15.3-2.55,25.5c0,10.2,0,17.85,2.55,25.5l-53.55,43.35
		c-5.1,5.1-5.1,10.2-2.55,15.3l51,89.25c2.55,2.55,7.65,5.1,15.3,2.55l63.75-25.5c12.75,10.2,28.05,17.85,43.35,25.5l10.2,66.3
		c0,5.1,5.1,10.2,12.75,10.2h102c5.1,0,12.75-5.1,12.75-10.2l10.2-66.3c15.3-7.65,30.6-15.3,43.35-25.5l63.75,25.5
		c5.1,2.55,12.75,0,15.3-5.1l51-89.25c2.55-5.1,2.55-12.75-2.55-15.3L437.0504,280.5z M248.3504,344.25
		c-48.45,0-89.25-40.8-89.25-89.25s40.8-89.25,89.25-89.25s89.25,40.8,89.25,89.25S296.8004,344.25,248.3504,344.25z"/>
</g>
<g>
</g>
<g>
</g>
<g>
</g>
<g>
</g>
<g>
</g>
<g>
</g>
<g>
</g>
<g>
</g>
<g>
</g>
<g>
</g>
<g>
</g>
<g>
</g>
<g>
</g>
<g>
</g>
<g>
</g>
</svg>
