<?xml version="1.0" encoding="utf-8"?>
<!-- Generator: Adobe Illustrator 17.0.0, SVG Export Plug-In . SVG Version: 6.00 Build 0)  -->
<!DOCTYPE svg PUBLIC "-//W3C//DTD SVG 1.1//EN" "http://www.w3.org/Graphics/SVG/1.1/DTD/svg11.dtd">
<svg version="1.1" id="Layer_1" xmlns="http://www.w3.org/2000/svg" xmlns:xlink="http://www.w3.org/1999/xlink" x="0px" y="0px"
	 width="456.45px" height="507.45px" viewBox="0 0 456.45 507.45" enable-background="new 0 0 456.45 507.45" xml:space="preserve">
<g id="share-alt">
	<path d="M382.5,178.5c-20.4,0-38.25,7.65-51,20.4L150.45,94.35C153,89.25,153,81.6,153,76.5C153,33.15,119.85,0,76.5,0
		S0,33.15,0,76.5S33.15,153,76.5,153c20.4,0,38.25-7.65,51-20.4l181.05,104.55C306,242.25,306,249.9,306,255
		c0,5.1,0,12.75,2.55,17.85L127.5,379.95c-12.75-12.75-30.6-20.4-51-20.4c-40.8,0-73.95,33.15-73.95,73.95s33.15,73.95,73.95,73.95
		s73.95-33.15,73.95-73.95c0-5.1,0-10.2-2.55-17.85l181.05-107.1c12.75,12.75,30.6,20.4,51,20.4c43.35,0,76.5-33.15,76.5-76.5
		S425.85,178.5,382.5,178.5z"/>
</g>
<g>
</g>
<g>
</g>
<g>
</g>
<g>
</g>
<g>
</g>
<g>
</g>
<g>
</g>
<g>
</g>
<g>
</g>
<g>
</g>
<g>
</g>
<g>
</g>
<g>
</g>
<g>
</g>
<g>
</g>
</svg>
