<?xml version="1.0" encoding="utf-8"?>
<!-- Generator: Adobe Illustrator 17.0.0, SVG Export Plug-In . SVG Version: 6.00 Build 0)  -->
<!DOCTYPE svg PUBLIC "-//W3C//DTD SVG 1.1//EN" "http://www.w3.org/Graphics/SVG/1.1/DTD/svg11.dtd">
<svg version="1.1" id="Layer_1" xmlns="http://www.w3.org/2000/svg" xmlns:xlink="http://www.w3.org/1999/xlink" x="0px" y="0px"
	 width="555.9px" height="487.05px" viewBox="0 0 555.9 487.05" enable-background="new 0 0 555.9 487.05" xml:space="preserve">
<g id="shopping-basket">
	<path d="M413.1,178.5L300.9,10.2C295.8,5.1,288.15,0,280.5,0s-15.3,2.55-20.4,10.2L147.9,178.5H25.5C10.2,178.5,0,188.7,0,204
		c0,2.55,0,5.1,0,7.65L63.75,448.8c5.1,20.4,25.5,38.25,48.45,38.25h331.5c22.95,0,43.35-15.3,48.45-38.25l63.75-237.15
		c0-2.55,0-5.1,0-7.65c0-15.3-10.2-25.5-25.5-25.5H413.1z M204,178.5l76.5-112.2L357,178.5H204z M280.5,382.5
		c-28.05,0-51-22.95-51-51s22.95-51,51-51s51,22.95,51,51S308.55,382.5,280.5,382.5z"/>
</g>
<g>
</g>
<g>
</g>
<g>
</g>
<g>
</g>
<g>
</g>
<g>
</g>
<g>
</g>
<g>
</g>
<g>
</g>
<g>
</g>
<g>
</g>
<g>
</g>
<g>
</g>
<g>
</g>
<g>
</g>
</svg>
