<?xml version="1.0" encoding="utf-8"?>
<!-- Generator: Adobe Illustrator 17.0.0, SVG Export Plug-In . SVG Version: 6.00 Build 0)  -->
<!DOCTYPE svg PUBLIC "-//W3C//DTD SVG 1.1//EN" "http://www.w3.org/Graphics/SVG/1.1/DTD/svg11.dtd">
<svg version="1.1" id="Layer_1" xmlns="http://www.w3.org/2000/svg" xmlns:xlink="http://www.w3.org/1999/xlink" x="0px" y="0px"
	 width="357px" height="510px" viewBox="0 0 357 510" enable-background="new 0 0 357 510" xml:space="preserve">
<g id="speaker">
	<path d="M306,0H51C22.95,0,0,22.95,0,51v408c0,28.05,22.95,51,51,51h255c28.05,0,51-22.95,51-51V51C357,22.95,334.05,0,306,0z
		 M178.5,51c28.05,0,51,22.95,51,51s-22.95,51-51,51s-51-22.95-51-51S150.45,51,178.5,51z M178.5,459C107.1,459,51,402.9,51,331.5
		S107.1,204,178.5,204S306,260.1,306,331.5S249.9,459,178.5,459z M178.5,255c-43.35,0-76.5,33.15-76.5,76.5s33.15,76.5,76.5,76.5
		s76.5-33.15,76.5-76.5S221.85,255,178.5,255z"/>
</g>
<g>
</g>
<g>
</g>
<g>
</g>
<g>
</g>
<g>
</g>
<g>
</g>
<g>
</g>
<g>
</g>
<g>
</g>
<g>
</g>
<g>
</g>
<g>
</g>
<g>
</g>
<g>
</g>
<g>
</g>
</svg>
