<?xml version="1.0" encoding="utf-8"?>
<!-- Generator: Adobe Illustrator 17.0.0, SVG Export Plug-In . SVG Version: 6.00 Build 0)  -->
<!DOCTYPE svg PUBLIC "-//W3C//DTD SVG 1.1//EN" "http://www.w3.org/Graphics/SVG/1.1/DTD/svg11.dtd">
<svg version="1.1" id="Layer_1" xmlns="http://www.w3.org/2000/svg" xmlns:xlink="http://www.w3.org/1999/xlink" x="0px" y="0px"
	 width="459px" height="561px" viewBox="0 0 459 561" enable-background="new 0 0 459 561" xml:space="preserve">
<g id="swap-driving-apps">
	<circle cx="89.25" cy="395.25" r="38.25"/>
	<circle cx="369.75" cy="395.25" r="38.25"/>
	<path d="M405.45,178.5c-5.1-15.3-20.4-25.5-35.7-25.5H331.5h-255v-51L0,178.5l51,51L76.5,255v-51h298.35L408,306H0v229.5
		C0,550.8,10.2,561,25.5,561H51c15.3,0,25.5-10.2,25.5-25.5V510h306v25.5c0,15.3,10.2,25.5,25.5,25.5h25.5
		c15.3,0,25.5-10.2,25.5-25.5v-204L405.45,178.5z M89.25,433.5c-20.4,0-38.25-17.85-38.25-38.25S68.85,357,89.25,357
		s38.25,17.85,38.25,38.25S109.65,433.5,89.25,433.5z M369.75,433.5c-20.4,0-38.25-17.85-38.25-38.25S349.35,357,369.75,357
		S408,374.85,408,395.25S390.15,433.5,369.75,433.5z M331.5,0v51h-204v51h204v51L408,76.5L331.5,0z"/>
</g>
<g>
</g>
<g>
</g>
<g>
</g>
<g>
</g>
<g>
</g>
<g>
</g>
<g>
</g>
<g>
</g>
<g>
</g>
<g>
</g>
<g>
</g>
<g>
</g>
<g>
</g>
<g>
</g>
<g>
</g>
</svg>
