<?xml version="1.0" encoding="utf-8"?>
<!-- Generator: Adobe Illustrator 17.0.0, SVG Export Plug-In . SVG Version: 6.00 Build 0)  -->
<!DOCTYPE svg PUBLIC "-//W3C//DTD SVG 1.1//EN" "http://www.w3.org/Graphics/SVG/1.1/DTD/svg11.dtd">
<svg version="1.1" id="Layer_1" xmlns="http://www.w3.org/2000/svg" xmlns:xlink="http://www.w3.org/1999/xlink" x="0px" y="0px"
	 width="612px" height="459px" viewBox="0 0 612 459" enable-background="new 0 0 612 459" xml:space="preserve">
<g id="tag-faces">
	<path d="M433.5,204c15.3,0,25.5-10.2,25.5-25.5S448.8,153,433.5,153S408,163.2,408,178.5S418.2,204,433.5,204z M382.5,331.5
		c48.45,0,86.7-33.15,96.9-76.5H285.6C295.8,298.35,334.05,331.5,382.5,331.5z M331.5,204c15.3,0,25.5-10.2,25.5-25.5
		S346.8,153,331.5,153S306,163.2,306,178.5S316.2,204,331.5,204z M561,0H193.8c-15.3,0-30.6,7.65-40.8,20.4L0,229.5l153,209.1
		c10.2,12.75,25.5,20.4,40.8,20.4H561c28.05,0,51-22.95,51-51V51C612,22.95,589.05,0,561,0z M102,255c-15.3,0-25.5-10.2-25.5-25.5
		S86.7,204,102,204s25.5,10.2,25.5,25.5S117.3,255,102,255z M382.5,382.5c-84.15,0-153-68.85-153-153s68.85-153,153-153
		s153,68.85,153,153S466.65,382.5,382.5,382.5z"/>
</g>
<g>
</g>
<g>
</g>
<g>
</g>
<g>
</g>
<g>
</g>
<g>
</g>
<g>
</g>
<g>
</g>
<g>
</g>
<g>
</g>
<g>
</g>
<g>
</g>
<g>
</g>
<g>
</g>
<g>
</g>
</svg>
