<?xml version="1.0" encoding="utf-8"?>
<!-- Generator: Adobe Illustrator 17.0.0, SVG Export Plug-In . SVG Version: 6.00 Build 0)  -->
<!DOCTYPE svg PUBLIC "-//W3C//DTD SVG 1.1//EN" "http://www.w3.org/Graphics/SVG/1.1/DTD/svg11.dtd">
<svg version="1.1" id="Layer_1" xmlns="http://www.w3.org/2000/svg" xmlns:xlink="http://www.w3.org/1999/xlink" x="0px" y="0px"
	 width="433.5px" height="561px" viewBox="0 0 433.5 561" enable-background="new 0 0 433.5 561" xml:space="preserve">
<g id="tap-and-play">
	<path d="M0,382.5v51c71.4,0,127.5,56.1,127.5,127.5h51C178.5,461.55,99.45,382.5,0,382.5z M0,484.5V561h76.5
		C76.5,517.65,43.35,484.5,0,484.5z M0,280.5v51c127.5,0,229.5,102,229.5,229.5h51C280.5,405.45,155.55,280.5,0,280.5z M382.5,0
		h-255c-28.05,0-51,22.95-51,51v188.7c17.85,5.1,35.7,10.2,51,15.3V102h255v331.5H306c12.75,30.6,20.4,66.3,22.95,102h53.55
		c28.05,0,51-22.95,51-51V51C433.5,22.95,410.55,0,382.5,0z"/>
</g>
<g>
</g>
<g>
</g>
<g>
</g>
<g>
</g>
<g>
</g>
<g>
</g>
<g>
</g>
<g>
</g>
<g>
</g>
<g>
</g>
<g>
</g>
<g>
</g>
<g>
</g>
<g>
</g>
<g>
</g>
</svg>
