<?xml version="1.0" encoding="utf-8"?>
<!-- Generator: Adobe Illustrator 17.0.0, SVG Export Plug-In . SVG Version: 6.00 Build 0)  -->
<!DOCTYPE svg PUBLIC "-//W3C//DTD SVG 1.1//EN" "http://www.w3.org/Graphics/SVG/1.1/DTD/svg11.dtd">
<svg version="1.1" id="Layer_1" xmlns="http://www.w3.org/2000/svg" xmlns:xlink="http://www.w3.org/1999/xlink" x="0px" y="0px"
	 width="408px" height="459px" viewBox="0 0 408 459" enable-background="new 0 0 408 459" xml:space="preserve">
<g id="theaters">
	<path d="M357,0v51h-51V0H102v51H51V0H0v459h51v-51h51v51h204v-51h51v51h51V0H357z M102,357H51v-51h51V357z M102,255H51v-51h51V255z
		 M102,153H51v-51h51V153z M357,357h-51v-51h51V357z M357,255h-51v-51h51V255z M357,153h-51v-51h51V153z"/>
</g>
<g>
</g>
<g>
</g>
<g>
</g>
<g>
</g>
<g>
</g>
<g>
</g>
<g>
</g>
<g>
</g>
<g>
</g>
<g>
</g>
<g>
</g>
<g>
</g>
<g>
</g>
<g>
</g>
<g>
</g>
</svg>
