<?xml version="1.0" encoding="utf-8"?>
<!-- Generator: Adobe Illustrator 17.0.0, SVG Export Plug-In . SVG Version: 6.00 Build 0)  -->
<!DOCTYPE svg PUBLIC "-//W3C//DTD SVG 1.1//EN" "http://www.w3.org/Graphics/SVG/1.1/DTD/svg11.dtd">
<svg version="1.1" id="Layer_1" xmlns="http://www.w3.org/2000/svg" xmlns:xlink="http://www.w3.org/1999/xlink" x="0px" y="0px"
	 width="561px" height="510px" viewBox="0 0 561 510" enable-background="new 0 0 561 510" xml:space="preserve">
<g id="thumb-up">
	<path d="M0,510h102V204H0V510z M561,229.5c0-28.05-22.95-51-51-51H349.35l25.5-117.3c0-2.55,0-5.1,0-7.65
		c0-10.2-5.1-20.4-10.2-28.05L336.6,0L168.3,168.3c-10.2,7.65-15.3,20.4-15.3,35.7v255c0,28.05,22.95,51,51,51h229.5
		c20.4,0,38.25-12.75,45.9-30.6l76.5-181.05c2.55-5.1,2.55-12.75,2.55-17.85v-51H561C561,232.05,561,229.5,561,229.5z"/>
</g>
<g>
</g>
<g>
</g>
<g>
</g>
<g>
</g>
<g>
</g>
<g>
</g>
<g>
</g>
<g>
</g>
<g>
</g>
<g>
</g>
<g>
</g>
<g>
</g>
<g>
</g>
<g>
</g>
<g>
</g>
</svg>
