<?xml version="1.0" encoding="utf-8"?>
<!-- Generator: Adobe Illustrator 17.0.0, SVG Export Plug-In . SVG Version: 6.00 Build 0)  -->
<!DOCTYPE svg PUBLIC "-//W3C//DTD SVG 1.1//EN" "http://www.w3.org/Graphics/SVG/1.1/DTD/svg11.dtd">
<svg version="1.1" id="Layer_1" xmlns="http://www.w3.org/2000/svg" xmlns:xlink="http://www.w3.org/1999/xlink" x="0px" y="0px"
	 width="561px" height="510px" viewBox="0 0 561 510" enable-background="new 0 0 561 510" xml:space="preserve">
<g id="thumb-down">
	<path d="M357,0H127.5c-20.4,0-38.25,12.75-45.9,30.6L5.1,211.65c-2.55,5.1-5.1,10.2-5.1,17.85v48.45l0,0v2.55
		c0,28.05,22.95,51,51,51h160.65l-25.5,117.3c0,2.55,0,5.1,0,7.65c0,10.2,5.1,20.4,10.2,28.05L224.4,510l168.3-168.3
		c10.2-10.2,15.3-22.95,15.3-35.7V51C408,22.95,385.05,0,357,0z M459,0v306h102V0H459z"/>
</g>
<g>
</g>
<g>
</g>
<g>
</g>
<g>
</g>
<g>
</g>
<g>
</g>
<g>
</g>
<g>
</g>
<g>
</g>
<g>
</g>
<g>
</g>
<g>
</g>
<g>
</g>
<g>
</g>
<g>
</g>
</svg>
