<?xml version="1.0" encoding="utf-8"?>
<!-- Generator: Adobe Illustrator 17.0.0, SVG Export Plug-In . SVG Version: 6.00 Build 0)  -->
<!DOCTYPE svg PUBLIC "-//W3C//DTD SVG 1.1//EN" "http://www.w3.org/Graphics/SVG/1.1/DTD/svg11.dtd">
<svg version="1.1" id="Layer_1" xmlns="http://www.w3.org/2000/svg" xmlns:xlink="http://www.w3.org/1999/xlink" x="0px" y="0px"
	 width="459px" height="535.5px" viewBox="0 0 459 535.5" enable-background="new 0 0 459 535.5" xml:space="preserve">
<g id="timer">
	<path d="M306,0H153v51h153V0z M204,331.5h51v-153h-51V331.5z M408,163.2l38.25-35.7C433.5,114.75,420.75,102,408,91.8l-35.7,35.7
		c-38.25-30.6-89.25-51-142.8-51C102,76.5,0,178.5,0,306s102,229.5,229.5,229.5S459,433.5,459,306
		C459,252.45,441.15,201.45,408,163.2z M229.5,484.5C130.05,484.5,51,405.45,51,306s79.05-178.5,178.5-178.5S408,206.55,408,306
		S328.95,484.5,229.5,484.5z"/>
</g>
<g>
</g>
<g>
</g>
<g>
</g>
<g>
</g>
<g>
</g>
<g>
</g>
<g>
</g>
<g>
</g>
<g>
</g>
<g>
</g>
<g>
</g>
<g>
</g>
<g>
</g>
<g>
</g>
<g>
</g>
</svg>
