<?xml version="1.0" encoding="utf-8"?>
<!-- Generator: Adobe Illustrator 17.0.0, SVG Export Plug-In . SVG Version: 6.00 Build 0)  -->
<!DOCTYPE svg PUBLIC "-//W3C//DTD SVG 1.1//EN" "http://www.w3.org/Graphics/SVG/1.1/DTD/svg11.dtd">
<svg version="1.1" id="Layer_1" xmlns="http://www.w3.org/2000/svg" xmlns:xlink="http://www.w3.org/1999/xlink" x="0px" y="0px"
	 width="408px" height="459px" viewBox="0 0 408 459" enable-background="new 0 0 408 459" xml:space="preserve">
<g id="traffic">
	<path d="M408,178.5h-76.5v-28.05c43.35-10.2,76.5-51,76.5-99.45h-76.5V25.5C331.5,10.2,321.3,0,306,0H102
		C86.7,0,76.5,10.2,76.5,25.5V51H0c0,48.45,33.15,86.7,76.5,99.45v28.05H0c0,48.45,33.15,86.7,76.5,99.45V306H0
		c0,48.45,33.15,86.7,76.5,99.45v28.05c0,15.3,10.2,25.5,25.5,25.5h204c15.3,0,25.5-10.2,25.5-25.5v-28.05
		c43.35-10.2,76.5-51,76.5-99.45h-76.5v-28.05C374.85,265.2,408,226.95,408,178.5z M204,408c-28.05,0-51-22.95-51-51s22.95-51,51-51
		s51,22.95,51,51S232.05,408,204,408z M204,280.5c-28.05,0-51-22.95-51-51s22.95-51,51-51s51,22.95,51,51S232.05,280.5,204,280.5z
		 M204,153c-28.05,0-51-22.95-51-51s22.95-51,51-51s51,22.95,51,51S232.05,153,204,153z"/>
</g>
<g>
</g>
<g>
</g>
<g>
</g>
<g>
</g>
<g>
</g>
<g>
</g>
<g>
</g>
<g>
</g>
<g>
</g>
<g>
</g>
<g>
</g>
<g>
</g>
<g>
</g>
<g>
</g>
<g>
</g>
</svg>
