<?xml version="1.0" encoding="utf-8"?>
<!-- Generator: Adobe Illustrator 17.0.0, SVG Export Plug-In . SVG Version: 6.00 Build 0)  -->
<!DOCTYPE svg PUBLIC "-//W3C//DTD SVG 1.1//EN" "http://www.w3.org/Graphics/SVG/1.1/DTD/svg11.dtd">
<svg version="1.1" id="Layer_1" xmlns="http://www.w3.org/2000/svg" xmlns:xlink="http://www.w3.org/1999/xlink" x="0px" y="0px"
	 width="362.1px" height="540.6px" viewBox="0 0 362.1 540.6" enable-background="new 0 0 362.1 540.6" xml:space="preserve">
<g id="usb">
	<path d="M260.1,153v102h25.5v51h-76.5V102h51L183.6,0l-76.5,102h51v204H81.6v-53.55c17.85-7.65,30.6-28.05,30.6-48.45
		c0-30.6-25.5-56.1-56.1-56.1S0,173.4,0,204c0,20.4,12.75,40.8,30.6,48.45V306c0,28.05,22.95,51,51,51h76.5v79.05
		c-17.85,10.2-30.6,28.05-30.6,48.45c0,30.6,25.5,56.1,56.1,56.1s56.1-25.5,56.1-56.1c0-22.95-12.75-40.8-30.6-48.45V357h76.5
		c28.05,0,51-22.95,51-51v-51h25.5V153H260.1z"/>
</g>
<g>
</g>
<g>
</g>
<g>
</g>
<g>
</g>
<g>
</g>
<g>
</g>
<g>
</g>
<g>
</g>
<g>
</g>
<g>
</g>
<g>
</g>
<g>
</g>
<g>
</g>
<g>
</g>
<g>
</g>
</svg>
