<?xml version="1.0" encoding="utf-8"?>
<!-- Generator: Adobe Illustrator 17.0.0, SVG Export Plug-In . SVG Version: 6.00 Build 0)  -->
<!DOCTYPE svg PUBLIC "-//W3C//DTD SVG 1.1//EN" "http://www.w3.org/Graphics/SVG/1.1/DTD/svg11.dtd">
<svg version="1.1" id="Layer_1" xmlns="http://www.w3.org/2000/svg" xmlns:xlink="http://www.w3.org/1999/xlink" x="0px" y="0px"
	 width="612px" height="459px" viewBox="0 0 612 459" enable-background="new 0 0 612 459" xml:space="preserve">
<g id="vibration">
	<path d="M0,306h51V153H0V306z M76.5,357h51V102h-51V357z M561,153v153h51V153H561z M484.5,357h51V102h-51V357z M420.75,0h-229.5
		C170.85,0,153,17.85,153,38.25v382.5c0,20.4,17.85,38.25,38.25,38.25h229.5c20.4,0,38.25-17.85,38.25-38.25V38.25
		C459,17.85,441.15,0,420.75,0z M408,408H204V51h204V408z"/>
</g>
<g>
</g>
<g>
</g>
<g>
</g>
<g>
</g>
<g>
</g>
<g>
</g>
<g>
</g>
<g>
</g>
<g>
</g>
<g>
</g>
<g>
</g>
<g>
</g>
<g>
</g>
<g>
</g>
<g>
</g>
</svg>
