<?xml version="1.0" encoding="utf-8"?>
<!-- Generator: Adobe Illustrator 17.0.0, SVG Export Plug-In . SVG Version: 6.00 Build 0)  -->
<!DOCTYPE svg PUBLIC "-//W3C//DTD SVG 1.1//EN" "http://www.w3.org/Graphics/SVG/1.1/DTD/svg11.dtd">
<svg version="1.1" id="Layer_1" xmlns="http://www.w3.org/2000/svg" xmlns:xlink="http://www.w3.org/1999/xlink" x="0px" y="0px"
	 width="558.45px" height="484.5px" viewBox="0 0 558.45 484.5" enable-background="new 0 0 558.45 484.5" xml:space="preserve">
<g id="visibility-off">
	<path d="M280.5,102c71.4,0,127.5,56.1,127.5,127.5c0,15.3-2.55,33.15-10.2,45.9l73.95,73.95C510,316.2,540.6,275.4,558.45,229.5
		c-43.35-112.2-153-191.25-280.5-191.25c-35.7,0-68.85,7.65-102,17.85l56.1,56.1C247.35,104.55,265.2,102,280.5,102z M25.5,33.15
		L84.15,91.8l10.2,10.2C51,135.15,17.85,178.5,0,229.5c43.35,112.2,153,191.25,280.5,191.25c38.25,0,76.5-7.65,112.2-20.4l10.2,10.2
		l73.95,73.95L510,451.35L58.65,0L25.5,33.15z M165.75,173.4L204,211.65c0,7.65,0,12.75,0,17.85c0,43.35,33.15,76.5,76.5,76.5
		c5.1,0,10.2,0,17.85-2.55l38.25,38.25c-17.85,10.2-35.7,15.3-56.1,15.3C209.1,357,153,300.9,153,229.5
		C153,209.1,158.1,191.25,165.75,173.4z M275.4,153l79.05,79.05c0-2.55,0-2.55,0-5.1c0-43.35-33.15-76.5-76.5-76.5
		C277.95,153,277.95,153,275.4,153z"/>
</g>
<g>
</g>
<g>
</g>
<g>
</g>
<g>
</g>
<g>
</g>
<g>
</g>
<g>
</g>
<g>
</g>
<g>
</g>
<g>
</g>
<g>
</g>
<g>
</g>
<g>
</g>
<g>
</g>
<g>
</g>
</svg>
