<?xml version="1.0" encoding="utf-8"?>
<!-- Generator: Adobe Illustrator 17.0.0, SVG Export Plug-In . SVG Version: 6.00 Build 0)  -->
<!DOCTYPE svg PUBLIC "-//W3C//DTD SVG 1.1//EN" "http://www.w3.org/Graphics/SVG/1.1/DTD/svg11.dtd">
<svg version="1.1" id="Layer_1" xmlns="http://www.w3.org/2000/svg" xmlns:xlink="http://www.w3.org/1999/xlink" x="0px" y="0px"
	 width="561px" height="382.5px" viewBox="0 0 561 382.5" enable-background="new 0 0 561 382.5" xml:space="preserve">
<g id="visibility">
	<path d="M280.5,0C153,0,43.35,79.05,0,191.25C43.35,303.45,153,382.5,280.5,382.5S517.65,303.45,561,191.25
		C517.65,79.05,408,0,280.5,0z M280.5,318.75c-71.4,0-127.5-56.1-127.5-127.5s56.1-127.5,127.5-127.5S408,119.85,408,191.25
		S351.9,318.75,280.5,318.75z M280.5,114.75c-43.35,0-76.5,33.15-76.5,76.5s33.15,76.5,76.5,76.5s76.5-33.15,76.5-76.5
		S323.85,114.75,280.5,114.75z"/>
</g>
<g>
</g>
<g>
</g>
<g>
</g>
<g>
</g>
<g>
</g>
<g>
</g>
<g>
</g>
<g>
</g>
<g>
</g>
<g>
</g>
<g>
</g>
<g>
</g>
<g>
</g>
<g>
</g>
<g>
</g>
</svg>
