<?xml version="1.0" encoding="utf-8"?>
<!-- Generator: Adobe Illustrator 17.0.0, SVG Export Plug-In . SVG Version: 6.00 Build 0)  -->
<!DOCTYPE svg PUBLIC "-//W3C//DTD SVG 1.1//EN" "http://www.w3.org/Graphics/SVG/1.1/DTD/svg11.dtd">
<svg version="1.1" id="Layer_1" xmlns="http://www.w3.org/2000/svg" xmlns:xlink="http://www.w3.org/1999/xlink" x="0px" y="0px"
	 width="612px" height="280.5px" viewBox="0 0 612 280.5" enable-background="new 0 0 612 280.5" xml:space="preserve">
<g id="voicemail">
	<path d="M471.75,0C395.25,0,331.5,63.75,331.5,140.25c0,33.15,12.75,63.75,33.15,89.25h-117.3c20.4-25.5,33.15-56.1,33.15-89.25
		C280.5,63.75,216.75,0,140.25,0S0,63.75,0,140.25S63.75,280.5,140.25,280.5h331.5c76.5,0,140.25-63.75,140.25-140.25
		S548.25,0,471.75,0z M140.25,229.5C91.8,229.5,51,188.7,51,140.25S91.8,51,140.25,51s89.25,40.8,89.25,89.25
		S188.7,229.5,140.25,229.5z M471.75,229.5c-48.45,0-89.25-40.8-89.25-89.25S423.3,51,471.75,51S561,91.8,561,140.25
		S520.2,229.5,471.75,229.5z"/>
</g>
<g>
</g>
<g>
</g>
<g>
</g>
<g>
</g>
<g>
</g>
<g>
</g>
<g>
</g>
<g>
</g>
<g>
</g>
<g>
</g>
<g>
</g>
<g>
</g>
<g>
</g>
<g>
</g>
<g>
</g>
</svg>
