<?xml version="1.0" encoding="utf-8"?>
<!-- Generator: Adobe Illustrator 17.0.0, SVG Export Plug-In . SVG Version: 6.00 Build 0)  -->
<!DOCTYPE svg PUBLIC "-//W3C//DTD SVG 1.1//EN" "http://www.w3.org/Graphics/SVG/1.1/DTD/svg11.dtd">
<svg version="1.1" id="Layer_1" xmlns="http://www.w3.org/2000/svg" xmlns:xlink="http://www.w3.org/1999/xlink" x="0px" y="0px"
	 width="459px" height="461.55px" viewBox="0 0 459 461.55" enable-background="new 0 0 459 461.55" xml:space="preserve">
<g id="volume-off">
	<path d="M344.25,229.5c0-45.9-25.5-84.15-63.75-102v56.1l63.75,63.75C344.25,239.7,344.25,234.6,344.25,229.5z M408,229.5
		c0,22.95-5.1,45.9-12.75,66.3l38.25,38.25c17.85-30.6,25.5-68.85,25.5-107.1C459,117.3,382.5,25.5,280.5,2.55V56.1
		C354.45,81.6,408,147.9,408,229.5z M33.15,0L0,33.15L119.85,153H0v153h102l127.5,127.5V262.65L339.15,372.3
		c-17.85,12.75-35.7,22.95-58.65,30.6v53.55c35.7-7.65,66.3-22.95,94.35-45.9l51,51l33.15-33.15l-229.5-229.5L33.15,0z M229.5,25.5
		l-53.55,53.55l53.55,53.55V25.5z"/>
</g>
<g>
</g>
<g>
</g>
<g>
</g>
<g>
</g>
<g>
</g>
<g>
</g>
<g>
</g>
<g>
</g>
<g>
</g>
<g>
</g>
<g>
</g>
<g>
</g>
<g>
</g>
<g>
</g>
<g>
</g>
</svg>
