<?xml version="1.0" encoding="utf-8"?>
<!-- Generator: Adobe Illustrator 17.0.0, SVG Export Plug-In . SVG Version: 6.00 Build 0)  -->
<!DOCTYPE svg PUBLIC "-//W3C//DTD SVG 1.1//EN" "http://www.w3.org/Graphics/SVG/1.1/DTD/svg11.dtd">
<svg version="1.1" id="Layer_1" xmlns="http://www.w3.org/2000/svg" xmlns:xlink="http://www.w3.org/1999/xlink" x="0px" y="0px"
	 width="606.9px" height="408px" viewBox="0 0 606.9 408" enable-background="new 0 0 606.9 408" xml:space="preserve">
<g id="wb-auto">
	<path d="M175.95,219.3h58.65L204,127.5L175.95,219.3z M561,76.5l-30.6,160.65L492.15,76.5h-40.8L413.1,237.15L382.5,76.5h-20.4
		C326.4,30.6,267.75,0,204,0C91.8,0,0,91.8,0,204s91.8,204,204,204c79.05,0,147.9-45.9,183.6-112.2l2.55,10.2h43.35l38.25-155.55
		L510,306h45.9l51-229.5H561z M262.65,306l-17.85-51h-81.6l-17.85,51H96.9l81.6-229.5h51L311.1,306H262.65z"/>
</g>
<g>
</g>
<g>
</g>
<g>
</g>
<g>
</g>
<g>
</g>
<g>
</g>
<g>
</g>
<g>
</g>
<g>
</g>
<g>
</g>
<g>
</g>
<g>
</g>
<g>
</g>
<g>
</g>
<g>
</g>
</svg>
