<?xml version="1.0" encoding="utf-8"?>
<!-- Generator: Adobe Illustrator 17.0.0, SVG Export Plug-In . SVG Version: 6.00 Build 0)  -->
<!DOCTYPE svg PUBLIC "-//W3C//DTD SVG 1.1//EN" "http://www.w3.org/Graphics/SVG/1.1/DTD/svg11.dtd">
<svg version="1.1" id="Layer_1" xmlns="http://www.w3.org/2000/svg" xmlns:xlink="http://www.w3.org/1999/xlink" x="0px" y="0px"
	 width="433.5px" height="557.0333px" viewBox="0 0 433.5 557.0333" enable-background="new 0 0 433.5 557.0333"
	 xml:space="preserve">
<g id="wb-irradescent">
	<path d="M38.25,354.45h357v-153h-357V354.45z M191.25,0v73.95h51V0H191.25z M395.25,61.2l-45.9,45.9l35.7,35.7l45.9-45.9
		L395.25,61.2z M242.25,555.9v-73.95h-51v73.95C198.9,558.45,242.25,555.9,242.25,555.9z M433.5,456.45l-45.9-45.9l-35.7,35.7
		l43.35,48.45L433.5,456.45z M0,99.45l45.9,45.9l35.7-35.7L38.25,61.2L0,99.45z M38.25,494.7l45.9-45.9l-35.7-35.7L2.55,459
		L38.25,494.7z"/>
</g>
<g>
</g>
<g>
</g>
<g>
</g>
<g>
</g>
<g>
</g>
<g>
</g>
<g>
</g>
<g>
</g>
<g>
</g>
<g>
</g>
<g>
</g>
<g>
</g>
<g>
</g>
<g>
</g>
<g>
</g>
</svg>
