<?xml version="1.0" encoding="utf-8"?>
<!-- Generator: Adobe Illustrator 17.0.0, SVG Export Plug-In . SVG Version: 6.00 Build 0)  -->
<!DOCTYPE svg PUBLIC "-//W3C//DTD SVG 1.1//EN" "http://www.w3.org/Graphics/SVG/1.1/DTD/svg11.dtd">
<svg version="1.1" id="Layer_1" xmlns="http://www.w3.org/2000/svg" xmlns:xlink="http://www.w3.org/1999/xlink" x="0px" y="0px"
	 width="561px" height="532.95px" viewBox="0 0 561 532.95" enable-background="new 0 0 561 532.95" xml:space="preserve">
<g id="wb-incandescent">
	<path d="M63.75,433.5L102,471.75l45.9-45.9l-35.7-35.7L63.75,433.5z M255,532.95c7.65,0,51,0,51,0V459h-51V532.95z M76.5,229.5H0
		v51h76.5V229.5z M357,122.4V0H204v122.4c-45.9,25.5-76.5,76.5-76.5,132.6c0,84.15,68.85,153,153,153s153-68.85,153-153
		C433.5,198.9,402.9,147.9,357,122.4z M484.5,229.5v51H561v-51H484.5z M413.1,425.85l45.9,45.9l35.7-35.7l-45.9-45.9L413.1,425.85z"
		/>
</g>
<g>
</g>
<g>
</g>
<g>
</g>
<g>
</g>
<g>
</g>
<g>
</g>
<g>
</g>
<g>
</g>
<g>
</g>
<g>
</g>
<g>
</g>
<g>
</g>
<g>
</g>
<g>
</g>
<g>
</g>
</svg>
