<?xml version="1.0" encoding="utf-8"?>
<!-- Generator: Adobe Illustrator 17.0.0, SVG Export Plug-In . SVG Version: 6.00 Build 0)  -->
<!DOCTYPE svg PUBLIC "-//W3C//DTD SVG 1.1//EN" "http://www.w3.org/Graphics/SVG/1.1/DTD/svg11.dtd">
<svg version="1.1" id="Layer_1" xmlns="http://www.w3.org/2000/svg" xmlns:xlink="http://www.w3.org/1999/xlink" x="0px" y="0px"
	 width="561px" height="555.9px" viewBox="0 0 561 555.9" enable-background="new 0 0 561 555.9" xml:space="preserve">
<g id="wb-sunny">
	<path d="M147.9,107.1L102,61.2L63.75,99.45l45.9,45.9L147.9,107.1z M76.5,252.45H0v51h76.5V252.45z M306,0h-51v73.95h51V0z
		 M497.25,99.45L459,61.2l-45.9,45.9l35.7,35.7L497.25,99.45z M413.1,448.8l45.9,45.9l35.7-35.7l-45.9-45.9L413.1,448.8z
		 M484.5,252.45v51H561v-51H484.5z M280.5,124.95c-84.15,0-153,68.85-153,153s68.85,153,153,153s153-68.85,153-153
		S364.65,124.95,280.5,124.95z M255,555.9c7.65,0,51,0,51,0v-73.95h-51V555.9z M63.75,456.45L102,494.7l45.9-45.9l-35.7-35.7
		L63.75,456.45z"/>
</g>
<g>
</g>
<g>
</g>
<g>
</g>
<g>
</g>
<g>
</g>
<g>
</g>
<g>
</g>
<g>
</g>
<g>
</g>
<g>
</g>
<g>
</g>
<g>
</g>
<g>
</g>
<g>
</g>
<g>
</g>
</svg>
