<?xml version="1.0" encoding="utf-8"?>
<!-- Generator: Adobe Illustrator 17.0.0, SVG Export Plug-In . SVG Version: 6.00 Build 0)  -->
<!DOCTYPE svg PUBLIC "-//W3C//DTD SVG 1.1//EN" "http://www.w3.org/Graphics/SVG/1.1/DTD/svg11.dtd">
<svg version="1.1" id="Layer_1" xmlns="http://www.w3.org/2000/svg" xmlns:xlink="http://www.w3.org/1999/xlink" x="0px" y="0px"
	 width="382.5px" height="510px" viewBox="0 0 382.5 510" enable-background="new 0 0 382.5 510" xml:space="preserve">
<g id="whatshot">
	<path d="M229.5,0c0,0,15.3,63.75,15.3,114.75c0,48.45-33.15,89.25-81.6,89.25s-86.7-40.8-86.7-89.25v-7.65
		C28.05,165.75,0,239.7,0,318.75C0,423.3,86.7,510,191.25,510S382.5,423.3,382.5,318.75C382.5,188.7,323.85,73.95,229.5,0z
		 M191.25,433.5c-43.35,0-76.5-33.15-76.5-73.95c0-38.25,25.5-66.3,66.3-73.95c43.35-7.65,86.7-28.05,109.65-61.2
		c10.2,30.6,15.3,63.75,15.3,96.9C306,382.5,255,433.5,191.25,433.5z"/>
</g>
<g>
</g>
<g>
</g>
<g>
</g>
<g>
</g>
<g>
</g>
<g>
</g>
<g>
</g>
<g>
</g>
<g>
</g>
<g>
</g>
<g>
</g>
<g>
</g>
<g>
</g>
<g>
</g>
<g>
</g>
</svg>
