<?xml version="1.0" encoding="utf-8"?>
<!-- Generator: Adobe Illustrator 17.0.0, SVG Export Plug-In . SVG Version: 6.00 Build 0)  -->
<!DOCTYPE svg PUBLIC "-//W3C//DTD SVG 1.1//EN" "http://www.w3.org/Graphics/SVG/1.1/DTD/svg11.dtd">
<svg version="1.1" id="Layer_1" xmlns="http://www.w3.org/2000/svg" xmlns:xlink="http://www.w3.org/1999/xlink" x="0px" y="0px"
	 width="510px" height="474.3px" viewBox="0 0 510 474.3" enable-background="new 0 0 510 474.3" xml:space="preserve">
<g id="wifi-tethering">
	<path d="M255,204c-28.05,0-51,22.95-51,51s22.95,51,51,51s51-22.95,51-51S283.05,204,255,204z M408,255c0-84.15-68.85-153-153-153
		s-153,68.85-153,153c0,56.1,30.6,104.55,76.5,132.6l25.5-43.35c-30.6-17.85-51-51-51-86.7c0-56.1,45.9-102,102-102
		s102,45.9,102,102c0,38.25-20.4,71.4-51,86.7l25.5,43.35C377.4,359.55,408,311.1,408,255z M255,0C114.75,0,0,114.75,0,255
		c0,94.35,51,175.95,127.5,219.3l25.5-43.35C91.8,395.25,51,328.95,51,255c0-112.2,91.8-204,204-204s204,91.8,204,204
		c0,76.5-40.8,140.25-102,175.95l25.5,43.35C459,430.95,510,346.8,510,255C510,114.75,395.25,0,255,0z"/>
</g>
<g>
</g>
<g>
</g>
<g>
</g>
<g>
</g>
<g>
</g>
<g>
</g>
<g>
</g>
<g>
</g>
<g>
</g>
<g>
</g>
<g>
</g>
<g>
</g>
<g>
</g>
<g>
</g>
<g>
</g>
</svg>
