<?xml version="1.0" encoding="utf-8"?>
<!-- Generator: Adobe Illustrator 16.0.0, SVG Export Plug-In . SVG Version: 6.00 Build 0)  -->
<!DOCTYPE svg PUBLIC "-//W3C//DTD SVG 1.1//EN" "http://www.w3.org/Graphics/SVG/1.1/DTD/svg11.dtd" [
	<!ENTITY ns_extend "http://ns.adobe.com/Extensibility/1.0/">
	<!ENTITY ns_ai "http://ns.adobe.com/AdobeIllustrator/10.0/">
	<!ENTITY ns_graphs "http://ns.adobe.com/Graphs/1.0/">
	<!ENTITY ns_vars "http://ns.adobe.com/Variables/1.0/">
	<!ENTITY ns_imrep "http://ns.adobe.com/ImageReplacement/1.0/">
	<!ENTITY ns_sfw "http://ns.adobe.com/SaveForWeb/1.0/">
	<!ENTITY ns_custom "http://ns.adobe.com/GenericCustomNamespace/1.0/">
	<!ENTITY ns_adobe_xpath "http://ns.adobe.com/XPath/1.0/">
]>
<svg version="1.1" id="Layer_3" xmlns:x="&ns_extend;" xmlns:i="&ns_ai;" xmlns:graph="&ns_graphs;"
	 xmlns="http://www.w3.org/2000/svg" xmlns:xlink="http://www.w3.org/1999/xlink" x="0px" y="0px" width="31px" height="28px"
	 viewBox="0 0 31 28" enable-background="new 0 0 31 28" xml:space="preserve">
<metadata>
	<sfw  xmlns="&ns_sfw;">
		<slices></slices>
		<sliceSourceBounds  height="27.747" width="29.875" x="0.61" y="-27.856" bottomLeftOrigin="true"></sliceSourceBounds>
	</sfw>
</metadata>
<path fill="#FFFFFF" d="M23.226,1.293c-0.771-0.344-1.536-0.606-2.292-0.796c-1.045-0.264-2.072-0.387-3.082-0.387
	c-0.509,0-1.014,0.033-1.515,0.093C11.541,0.784,7.193,4.045,3.55,8.054c-1.632,1.794-2.547,3.786-2.842,5.792
	c0,0-0.098,0.739-0.098,1.374c0,0.632,0.098,1.524,0.098,1.524c0.406,2.799,1.974,5.446,4.44,7.416
	c0.931,0.745,1.989,1.39,3.162,1.914c1.199,0.534,2.45,0.953,3.721,1.251c1.479,0.349,2.985,0.53,4.463,0.53
	c4.176,0,8.136-1.444,10.67-4.651l0.904-1.32c0.271-0.459,0.515-0.944,0.731-1.459c1.103-2.612,1.682-5.25,1.686-7.728
	C30.489,7.8,28.228,3.524,23.226,1.293z M7.336,21.649c-0.025,0-0.051-0.001-0.075-0.004c-0.475-0.04-0.825-0.458-0.783-0.933
	c0.038-0.446,0.415-0.784,0.855-0.784c0.026,0,0.05,0,0.076,0.003c0.476,0.043,0.825,0.458,0.784,0.932
	C8.154,21.313,7.777,21.649,7.336,21.649z M15.824,12.436l-0.301,3.43c-0.119,1.346-1.223,2.358-2.57,2.358
	c-0.077,0-0.151-0.002-0.228-0.009c-0.297-0.028-0.582-0.103-0.845-0.222l-0.251,2.869c-0.04,0.449-0.417,0.786-0.857,0.786
	c-0.024,0-0.05-0.001-0.077-0.004c-0.472-0.04-0.823-0.458-0.781-0.933l0.464-5.297c0-0.001,0-0.001,0-0.001l0.301-3.429
	c0.117-1.344,1.222-2.358,2.57-2.358c0.076,0,0.152,0.003,0.229,0.01c0.686,0.059,1.31,0.384,1.753,0.913
	C15.673,11.079,15.883,11.749,15.824,12.436z M23.933,17.348c0,0.002,0,0.003,0,0.005c-0.002,0.017-0.006,0.033-0.006,0.05
	c-0.004,0.011-0.004,0.022-0.006,0.034c-0.004,0.012-0.006,0.023-0.01,0.037s-0.006,0.027-0.012,0.041
	c-0.002,0.012-0.005,0.02-0.009,0.028c-0.004,0.017-0.01,0.033-0.016,0.049c-0.002,0.009-0.008,0.017-0.012,0.023
	c-0.008,0.017-0.016,0.034-0.023,0.05c-0.005,0.008-0.011,0.018-0.013,0.026c-0.01,0.015-0.018,0.029-0.027,0.04
	c-0.006,0.012-0.014,0.022-0.021,0.032c-0.006,0.012-0.016,0.021-0.023,0.032s-0.02,0.022-0.029,0.034
	c-0.007,0.007-0.013,0.016-0.022,0.024c-0.01,0.011-0.021,0.023-0.033,0.034c-0.007,0.006-0.013,0.014-0.021,0.021
	c-0.014,0.011-0.025,0.021-0.039,0.031c-0.007,0.006-0.019,0.012-0.026,0.02c-0.014,0.008-0.025,0.018-0.036,0.026
	c-0.01,0.008-0.023,0.014-0.035,0.02c-0.012,0.008-0.021,0.014-0.032,0.02c-0.016,0.008-0.033,0.016-0.048,0.022
	c-0.006,0.004-0.012,0.006-0.02,0.01c-0.004,0.001-0.006,0.001-0.006,0.002c-0.02,0.007-0.04,0.014-0.062,0.021
	c-0.006,0.003-0.01,0.005-0.016,0.006c-0.022,0.008-0.046,0.012-0.068,0.019c-0.004,0.001-0.008,0.002-0.012,0.002
	c-0.02,0.005-0.038,0.006-0.058,0.01c-0.035,0.003-0.071,0.006-0.105,0.006c-0.002,0-0.004,0-0.008,0
	c-0.021,0-0.046-0.002-0.067-0.003c-0.01,0-0.021-0.002-0.03-0.003c-0.012-0.003-0.021-0.004-0.031-0.005
	c-0.075-0.014-0.147-0.034-0.213-0.063c-0.006-0.003-0.012-0.007-0.018-0.01c-0.034-0.017-0.067-0.033-0.096-0.053
	c0,0,0,0-0.004-0.002c-0.029-0.021-0.06-0.043-0.087-0.064c-0.007-0.009-0.013-0.016-0.021-0.022
	c-0.025-0.021-0.05-0.047-0.071-0.07c-0.004-0.005-0.008-0.01-0.012-0.014c-0.021-0.027-0.04-0.055-0.06-0.084
	c-0.004-0.007-0.009-0.016-0.013-0.024c-0.021-0.033-0.039-0.065-0.052-0.099c-0.002-0.002-0.002-0.004-0.002-0.005l-2.896-6.956
	l-0.586,6.705c-0.04,0.441-0.411,0.773-0.845,0.773c-0.025,0-0.052-0.001-0.075-0.003c-0.467-0.041-0.813-0.453-0.771-0.919
	l0.887-10.147c0-0.002,0-0.003,0.002-0.004c0.002-0.019,0.004-0.039,0.008-0.057c0-0.009,0.002-0.02,0.004-0.028
	c0.002-0.014,0.006-0.026,0.01-0.042c0.002-0.014,0.008-0.027,0.011-0.043l0,0c0.039-0.126,0.104-0.237,0.192-0.331
	c0.016-0.017,0.033-0.035,0.052-0.051c0.008-0.008,0.016-0.015,0.023-0.02c0.008-0.007,0.017-0.012,0.024-0.02
	c0.012-0.01,0.027-0.021,0.043-0.031c0.004-0.004,0.009-0.007,0.015-0.009c0.018-0.013,0.037-0.024,0.056-0.036
	c0.004-0.001,0.006-0.002,0.012-0.005c0.021-0.012,0.044-0.022,0.067-0.031l0.002-0.001c0.004-0.002,0.008-0.003,0.01-0.004
	c0.021-0.009,0.046-0.017,0.067-0.024c0.005-0.001,0.013-0.003,0.022-0.005c0.018-0.005,0.037-0.009,0.058-0.014
	c0.012-0.003,0.023-0.004,0.033-0.005c0.015-0.003,0.03-0.006,0.048-0.008c0.015-0.001,0.03-0.001,0.046-0.002
	c0.012,0,0.023-0.001,0.036-0.001c0.02,0,0.039,0.001,0.058,0.003c0.008,0,0.014,0,0.023,0h0.002
	c0.019,0.003,0.04,0.006,0.058,0.009c0.01,0.001,0.021,0.002,0.028,0.004c0.014,0.002,0.025,0.006,0.041,0.009
	c0.013,0.004,0.028,0.007,0.042,0.011c0.002,0,0.004,0,0.004,0.002c0.094,0.028,0.181,0.073,0.257,0.131
	c0.067,0.052,0.131,0.113,0.181,0.188c0.006,0.004,0.008,0.008,0.012,0.012c0.008,0.01,0.014,0.021,0.021,0.031
	c0.008,0.014,0.016,0.027,0.025,0.041c0.004,0.007,0.006,0.015,0.01,0.022c0.01,0.019,0.02,0.037,0.026,0.055
	c0,0.003,0,0.003,0.002,0.004l2.894,6.957L23.13,7.05c0.04-0.467,0.453-0.812,0.92-0.771s0.812,0.454,0.77,0.918L23.933,17.348z"/>
<path fill="#FFFFFF" d="M13.327,11.353c-0.026-0.001-0.053-0.001-0.079-0.001c-0.439,0-0.817,0.344-0.854,0.785l-0.3,3.431
	c-0.021,0.23,0.049,0.452,0.197,0.628c0.148,0.177,0.356,0.283,0.585,0.306c0.471,0.041,0.892-0.316,0.933-0.782l0.3-3.432
	c0.02-0.229-0.049-0.453-0.197-0.629C13.762,11.481,13.556,11.373,13.327,11.353z"/>
</svg>
