<?xml version="1.0" encoding="iso-8859-1"?>
<!-- Generator: Adobe Illustrator 18.1.1, SVG Export Plug-In . SVG Version: 6.00 Build 0)  -->
<svg version="1.1" xmlns="http://www.w3.org/2000/svg" xmlns:xlink="http://www.w3.org/1999/xlink" x="0px" y="0px"
	 viewBox="0 0 32.163 38.005" style="enable-background:new 0 0 32.163 38.005;" xml:space="preserve">
<g id="Layer_36.svg">
	<path d="M27.867,0c-1.135,0.001-2.168,0.441-2.937,1.161c-0.768-0.72-1.802-1.16-2.936-1.161c-2.042,0.001-3.748,1.426-4.184,3.335
		h-7.305l1.824-3.109L4.341,4.295l3.186,1.623l0.332-0.121c0.247-0.094,0.499-0.132,0.735-0.132C9.463,5.664,10.271,6.2,10.59,7.06
		l0.186,0.513l1.554,0.792l-1.824-3.109h7.304c0.437,1.909,2.141,3.333,4.184,3.334c1.134,0,2.168-0.441,2.936-1.161
		c0.768,0.72,1.802,1.16,2.937,1.16c2.373,0,4.296-1.922,4.296-4.294C32.163,1.922,30.241,0.001,27.867,0z M27.867,6.67
		c-0.905,0.001-1.689-0.504-2.092-1.25h-1.689c-0.403,0.746-1.186,1.251-2.092,1.25c-1.312-0.003-2.374-1.065-2.376-2.376
		c0.002-1.312,1.064-2.374,2.376-2.375c0.906-0.001,1.689,0.504,2.092,1.25h1.689c0.403-0.746,1.187-1.251,2.092-1.25
		c1.312,0.002,2.374,1.064,2.376,2.375C30.242,5.606,29.18,6.667,27.867,6.67z"/>
	<path id="inner" fill="#FFFFFF" d="M7.565,30.811c0.372,0.408,0.872,0.877,1.474,1.344c0.46,0.408,1.414,1.046,2.327,1.731
		c0.92,0.663,1.791,1.475,1.835,1.706l0.157,0.432c0.048,0.132,0.109,0.253,0.18,0.364c0.354,0.562,0.973,0.898,1.628,0.898
		c0.219,0,0.438-0.037,0.648-0.113l8.683-3.159c0.778-0.287,1.26-1.024,1.26-1.807c0-0.089-0.007-0.176-0.018-0.259
		c-0.017-0.132-0.048-0.263-0.097-0.394l-0.191-0.526c-0.201-0.545-0.323-1.406-0.322-2.189c0-0.055,0.001-0.107,0.003-0.154
		c0.007-0.402,0.044-0.773,0.11-1.058l0.007-0.028l0.003-0.027c0.001-0.014,0.054-0.489,0.054-1.212c0-0.89-0.078-2.156-0.438-3.415
		c-0.058-0.184-0.112-0.373-0.186-0.579c-0.781-2.146-2.838-7.797-2.84-7.805c-0.247-0.667-0.875-1.082-1.546-1.082
		c-0.184,0-0.376,0.031-0.564,0.101l-0.808,0.294c-0.668,0.247-1.084,0.877-1.084,1.55c0,0.184,0.031,0.373,0.098,0.557l0.299,0.819
		l-0.083,0.031l-1.067-2.925c-0.246-0.667-0.872-1.082-1.542-1.08c-0.185,0-0.379,0.031-0.566,0.102l-0.807,0.292
		c-0.669,0.244-1.083,0.874-1.082,1.544c0,0.154,0.021,0.311,0.067,0.466v0.017l0.862,2.375l-0.085,0.03L10.139,7.223
		C9.892,6.558,9.266,6.144,8.595,6.144c-0.184,0-0.377,0.031-0.565,0.102L7.221,6.539C6.554,6.784,6.139,7.414,6.139,8.086
		c0,0.184,0.031,0.373,0.098,0.557l3.796,10.423l-0.085,0.031l-3.179-8.72C6.527,9.711,5.899,9.294,5.227,9.294
		c-0.185,0-0.378,0.031-0.565,0.102L3.854,9.691c-0.668,0.243-1.083,0.874-1.082,1.545c0,0.185,0.031,0.376,0.098,0.561l5.389,14.8
		l-0.086,0.032l-0.965-2.652l-0.06-0.067c-0.513-0.58-1.413-1.588-1.693-1.895c-0.573-0.595-1.655-0.962-2.713-0.985
		c-0.556,0.004-1.132,0.118-1.562,0.53c-0.256,0.241-0.46,0.578-0.459,0.972c0.003,0.413,0.204,0.781,0.513,1.141
		c0.685,0.79,5.425,6.119,6.215,7.008C7.521,30.761,7.564,30.81,7.565,30.811z"/>
	<path d="M12.93,36.774c-0.098-0.155-0.183-0.322-0.248-0.503l0,0l-0.152-0.419c-0.011-0.015-0.029-0.037-0.05-0.061l0,0
		c-0.075-0.087-0.203-0.217-0.358-0.363l0,0c-0.311-0.29-0.741-0.646-1.187-0.967l0,0c-0.89-0.67-1.819-1.285-2.358-1.755l0,0
		c-0.618-0.481-1.132-0.962-1.528-1.395l0,0c-0.019-0.02-0.013-0.014-0.021-0.023l0,0c-0.003-0.003-0.004-0.005-0.008-0.008l0,0
		c-0.005-0.008-0.013-0.016-0.024-0.028l0,0c-0.02-0.023-0.05-0.057-0.085-0.096l0,0c-0.791-0.89-5.525-6.213-6.222-7.017l0,0
		c-0.353-0.409-0.666-0.924-0.685-1.561l0,0C0.001,22.561,0,22.544,0,22.528l0,0l0.001-0.001c0.003-0.652,0.331-1.16,0.681-1.487
		l0,0c0.627-0.597,1.415-0.726,2.075-0.73l0,0c0.987,0.03,1.974,0.282,2.742,0.813l0,0l-3.307-9.081
		c-0.092-0.253-0.135-0.512-0.139-0.763l0,0c-0.001-0.015-0.002-0.031-0.002-0.045l0,0v-0.001c0-0.965,0.597-1.869,1.556-2.218l0,0
		l0.797-0.29c0.277-0.106,0.557-0.149,0.822-0.149l0,0c0.083,0,0.166,0.005,0.247,0.013l0,0C5.437,8.42,5.419,8.251,5.419,8.086l0,0
		c0-0.968,0.597-1.87,1.557-2.225l0,0l0.797-0.289c0.277-0.104,0.556-0.149,0.82-0.149l0,0C9.56,5.422,10.46,6.02,10.816,6.977l0,0
		l2.23,6.131c0.24-0.244,0.537-0.44,0.88-0.566l0,0l0.796-0.289c0.248-0.092,0.498-0.138,0.738-0.146l0,0
		c0.037-0.005,0.067-0.006,0.085-0.003l0,0h0.003c0.965,0,1.863,0.6,2.215,1.555l0,0l0.038,0.104
		c0.24-0.243,0.536-0.439,0.878-0.566l0,0l0.803-0.292c0.274-0.102,0.551-0.145,0.815-0.145l0,0
		c0.964-0.001,1.862,0.595,2.228,1.572l0,0h0c0.004,0.01,0.009,0.027,0.017,0.048l0,0c0.016,0.043,0.038,0.104,0.067,0.184l0,0
		c0.058,0.16,0.142,0.389,0.244,0.671l0,0c0.205,0.565,0.487,1.338,0.793,2.18l0,0c0.612,1.682,1.321,3.631,1.712,4.704l0,0
		c0.086,0.235,0.144,0.439,0.203,0.627l0,0c0.387,1.355,0.464,2.681,0.464,3.612l0,0c0.001,0.749-0.056,1.273-0.056,1.288l0,0
		l-0.008,0.074L25.95,27.76l-0.005,0.027c-0.05,0.211-0.087,0.544-0.093,0.917l0,0c-0.001,0.045-0.003,0.09-0.003,0.133l0,0v0.051
		l0,0c0.001,0.693,0.125,1.488,0.279,1.892l0,0l0.19,0.523c0.067,0.184,0.11,0.369,0.134,0.551l0,0
		c0.014,0.109,0.023,0.225,0.023,0.352l0,0c0.001,1.077-0.662,2.086-1.733,2.482l0,0l-8.687,3.162
		c-0.289,0.103-0.591,0.154-0.891,0.154l0,0C14.265,38.005,13.418,37.545,12.93,36.774L12.93,36.774z M14.034,35.776
		c0.031,0.083,0.067,0.156,0.113,0.227l0,0c0.22,0.352,0.611,0.563,1.019,0.563l0,0c0.137,0,0.273-0.023,0.403-0.07l0,0l8.68-3.159
		c0.489-0.179,0.789-0.641,0.789-1.13l0,0c0-0.052-0.004-0.109-0.011-0.165l0,0c-0.011-0.083-0.03-0.162-0.06-0.243l0,0
		l-0.189-0.524c-0.244-0.677-0.362-1.568-0.366-2.427l0,0v-0.005c0-0.002,0-0.004,0-0.006l0,0l0,0c0-0.067,0.003-0.127,0.003-0.166
		l0,0c0.008-0.433,0.046-0.837,0.125-1.192l0,0c0.011-0.112,0.048-0.51,0.048-1.121l0,0c0.001-0.847-0.076-2.054-0.404-3.199l0,0
		c-0.062-0.196-0.112-0.372-0.176-0.548l0,0c-0.787-2.16-2.829-7.767-2.839-7.801l0,0c-0.141-0.381-0.497-0.612-0.871-0.612l0,0
		c-0.103,0-0.211,0.017-0.318,0.056l0,0l-0.804,0.293c-0.381,0.141-0.614,0.498-0.615,0.877l0,0c0,0.103,0.017,0.208,0.055,0.309
		l0,0l0.545,1.491l-1.434,0.531l-1.314-3.602c-0.134-0.364-0.463-0.589-0.816-0.609l0,0c-0.016,0.001-0.03,0.001-0.041,0l0,0h-0.011
		c-0.105,0-0.212,0.017-0.321,0.059l0,0l-0.805,0.291c-0.379,0.137-0.608,0.493-0.608,0.864l0,0v0.004
		c0,0.087,0.012,0.175,0.037,0.262l0,0l0.025,0.083l1.069,2.944l-1.439,0.518L9.464,7.474c-0.14-0.38-0.494-0.609-0.87-0.611l0,0
		c-0.104,0-0.211,0.019-0.321,0.06l0,0l-0.804,0.29C7.092,7.352,6.86,7.709,6.858,8.086l0,0c0,0.103,0.018,0.209,0.055,0.312l0,0
		l4.042,11.098L9.519,20.02l-3.426-9.397c-0.136-0.377-0.49-0.61-0.867-0.61l0,0c-0.105,0-0.212,0.017-0.318,0.059l0,0l-0.809,0.294
		c-0.376,0.135-0.607,0.491-0.607,0.864l0,0v0.004c0,0.104,0.017,0.212,0.054,0.314l0,0l5.633,15.467l-1.432,0.541l-1.167-3.205
		c-0.513-0.582-1.388-1.559-1.642-1.84l0,0c-0.353-0.392-1.306-0.759-2.188-0.766l0,0c-0.473,0.004-0.836,0.102-1.075,0.335l0,0
		c-0.156,0.148-0.235,0.31-0.232,0.441l0,0v0.001c0,0.169,0.082,0.376,0.337,0.676l0,0c0.674,0.777,5.421,6.113,6.21,7.002l0,0
		c0.036,0.042,0.064,0.074,0.085,0.096l0,0l0.001,0.004l-0.509,0.509l0.509-0.509l0.009,0.009l0.014,0.015
		c0.341,0.373,0.813,0.818,1.384,1.26l0,0l0.016,0.012l0.02,0.017c0.384,0.344,1.353,1,2.27,1.686l0,0
		c0.732,0.53,1.404,1.111,1.784,1.549l0,0c0.112,0.154,0.214,0.223,0.304,0.495l0,0l0.002-0.001L14.034,35.776L14.034,35.776z"/>
</g>
<g id="Layer_1">
</g>
</svg>
