<?xml version="1.0" encoding="iso-8859-1"?>
<!-- Generator: Adobe Illustrator 18.1.1, SVG Export Plug-In . SVG Version: 6.00 Build 0)  -->
<svg version="1.1" xmlns="http://www.w3.org/2000/svg" xmlns:xlink="http://www.w3.org/1999/xlink" x="0px" y="0px"
	 viewBox="0 0 29.634 36.923" style="enable-background:new 0 0 29.634 36.923;" xml:space="preserve">
<g id="Layer_1_1_">
	<path d="M5.609,22.977c-0.4,0.481-0.994,0.793-1.668,0.794c-1.204-0.002-2.178-0.976-2.18-2.18c-0.001-0.83,0.464-1.55,1.147-1.919
		v-1.551c-0.685-0.371-1.148-1.09-1.147-1.919c0.002-1.205,0.976-2.179,2.18-2.181c1.203,0.002,2.177,0.976,2.181,2.181
		c0,0.83-0.464,1.549-1.147,1.919v1.551c0.665,0.359,1.119,1.053,1.142,1.855c0.005-0.004,0.009-0.009,0.014-0.014
		c0.511-0.48,1.13-0.596,1.689-0.607c-0.135-0.769-0.491-1.463-1.003-2.01c0.66-0.704,1.065-1.653,1.066-2.694
		c-0.001-1.875-1.308-3.439-3.061-3.84V5.658l2.854,1.674L3.941,0L0.207,7.332l2.854-1.674v6.704C1.309,12.762,0,14.326,0,16.201
		c0,1.041,0.405,1.989,1.066,2.694C0.405,19.601,0,20.549,0,21.591c0,2.177,1.764,3.941,3.941,3.942
		c1.011,0,1.929-0.384,2.626-1.008c-0.187-0.213-0.331-0.377-0.412-0.47C5.891,23.747,5.679,23.396,5.609,22.977z"/>
	<path d="M20.089,36.781c-0.258,0.091-0.531,0.142-0.808,0.141l0,0c-0.003,0-0.007,0-0.01,0l0,0
		c-0.825-0.001-1.603-0.422-2.047-1.127l0,0c-0.091-0.143-0.169-0.298-0.23-0.466l0,0l-0.139-0.382
		c-0.011-0.014-0.027-0.035-0.047-0.059l0,0c-0.069-0.08-0.186-0.2-0.328-0.332l0,0c-0.287-0.266-0.681-0.591-1.09-0.886l0,0
		c-0.829-0.624-1.692-1.194-2.186-1.628l0,0c-0.559-0.437-1.024-0.876-1.403-1.287l0,0l0,0c-0.001-0.001-0.003-0.003-0.006-0.006
		l0,0c-0.005-0.006-0.012-0.015-0.022-0.026l0,0c-0.018-0.022-0.046-0.053-0.08-0.092l0,0l0,0c-0.745-0.836-5.068-5.696-5.707-6.434
		l0,0c-0.33-0.382-0.625-0.869-0.63-1.474l0,0l0,0c0-0.002,0-0.005,0-0.007l0,0v-0.001c0.002-0.597,0.304-1.063,0.625-1.362l0,0
		c0.575-0.547,1.298-0.668,1.904-0.67l0,0c0.906,0.028,1.811,0.258,2.516,0.746l0,0l-3.034-8.333
		c-0.084-0.232-0.125-0.468-0.129-0.7l0,0c-0.001-0.014-0.002-0.028-0.002-0.041l0,0c0,0,0.001-0.001,0-0.001l0,0
		c0-0.886,0.55-1.714,1.428-2.035l0,0l0.733-0.267c0.254-0.096,0.51-0.135,0.754-0.137l0,0c0.076,0,0.151,0.004,0.226,0.012l0,0
		c-0.034-0.154-0.05-0.308-0.05-0.458l0,0c-0.001-0.89,0.55-1.717,1.429-2.042l0,0l0.732-0.266c0.254-0.096,0.51-0.135,0.753-0.135
		l0,0c0.888-0.001,1.712,0.548,2.039,1.425l0,0l2.047,5.626c0.22-0.224,0.493-0.403,0.807-0.517l0,0l0.733-0.269
		c0.252-0.095,0.509-0.135,0.753-0.135l0,0c0.886-0.001,1.711,0.55,2.035,1.425l0,0l0.035,0.097c0.22-0.224,0.491-0.403,0.805-0.519
		l0,0l0.734-0.267c0.252-0.095,0.507-0.135,0.75-0.135l0,0c0.889-0.001,1.715,0.551,2.04,1.428l0,0
		c0.003,0.007,1.89,5.194,2.607,7.161l0,0c0.079,0.217,0.132,0.407,0.185,0.578l0,0c0.356,1.244,0.426,2.461,0.428,3.317l0,0
		c0,0.692-0.049,1.152-0.055,1.205l0,0l-0.009,0.054l-0.01,0.051c-0.046,0.192-0.079,0.499-0.085,0.857l0,0
		c-0.001,0.016-0.001,0.053-0.001,0.106l0,0v0.08l-0.001,0.004c0.005,0.627,0.117,1.334,0.256,1.698l0,0l0.149,0.408l0,0
		l0.145,0.543c0.001,0.01,0.003,0.02,0.005,0.031l0,0h-0.001l0.001,0.005c0.014,0.107-0.091,0.775-0.091,0.882l0,0v0.002
		c0.001,0.006,0.001,0.013,0,0.024l0,0l-0.329,0.807l0,0 M28.063,33.88 M18.234,34.877c0.028,0.075,0.061,0.141,0.105,0.211l0,0
		c0.201,0.32,0.559,0.515,0.935,0.515l0,0c0.122,0,0.248-0.021,0.368-0.064l0,0l7.967-2.899c0.447-0.165,0.722-0.588,0.723-1.038
		l0,0h0c0,0,0-0.001,0-0.002l0,0h0c0-0.053-0.003-0.106-0.01-0.156l0,0h0c-0.01-0.069-0.028-0.145-0.052-0.216l0,0l-0.175-0.48
		c-0.226-0.621-0.334-1.439-0.338-2.226l0,0c0-0.001,0-0.001,0-0.016l0,0c0.001-0.006,0.001-0.014,0.001-0.024l0,0
		c0-0.044-0.001-0.089,0.001-0.125l0,0c0.009-0.403,0.043-0.779,0.113-1.083l0,0v0.003c0-0.001,0.044-0.407,0.044-1.039l0,0
		c0.001-0.778-0.069-1.887-0.372-2.943l0,0c-0.054-0.179-0.1-0.339-0.159-0.5l0,0c-0.717-1.968-2.608-7.161-2.607-7.158l0,0
		c-0.129-0.35-0.455-0.562-0.8-0.563l0,0c-0.095,0-0.192,0.016-0.291,0.054l0,0l-0.739,0.268c-0.35,0.128-0.563,0.456-0.564,0.803
		l0,0c0.001,0.091,0.016,0.189,0.051,0.283l0,0l0.502,1.376l-1.319,0.474l-1.204-3.299c-0.128-0.349-0.453-0.559-0.796-0.561l0,0
		c-0.097,0-0.196,0.016-0.293,0.053l0,0l-0.742,0.271c-0.346,0.124-0.558,0.451-0.558,0.792l0,0v0.004
		c0,0.077,0.011,0.159,0.034,0.239l0,0l0.023,0.076l0.986,2.713l-1.328,0.457L14.04,8.904c-0.128-0.349-0.455-0.561-0.798-0.562l0,0
		c-0.095,0-0.194,0.017-0.293,0.054l0,0l-0.737,0.269c-0.35,0.129-0.56,0.453-0.563,0.802l0,0C11.65,9.561,11.665,9.655,11.7,9.75
		l0,0l3.709,10.183l-1.318,0.483l-3.143-8.621c-0.126-0.346-0.452-0.561-0.796-0.562l0,0c-0.097,0-0.196,0.017-0.293,0.054l0,0
		l-0.74,0.27c-0.347,0.126-0.559,0.452-0.559,0.795l0,0v0.001v0.002c0,0.098,0.016,0.196,0.049,0.29l0,0l5.174,14.206l-1.324,0.47
		l-1.065-2.929c-0.472-0.534-1.274-1.431-1.507-1.69l0,0c-0.325-0.359-1.199-0.694-2.012-0.701l0,0
		c-0.43,0.004-0.764,0.094-0.986,0.309l0,0c-0.138,0.13-0.21,0.274-0.212,0.391l0,0v0.012v0.001c0,0.157,0.075,0.343,0.309,0.618
		l0,0c0.618,0.716,4.976,5.613,5.699,6.426l0,0l-0.494,0.439l0.5-0.432c0.07,0.081,0.083,0.095,0.092,0.107l0,0
		c0.314,0.341,0.743,0.748,1.26,1.151l0,0l0.021,0.015l0.015,0.014c0.344,0.312,1.244,0.919,2.092,1.553l0,0
		c0.671,0.487,1.288,1.022,1.637,1.423l0,0c0.103,0.141,0.197,0.204,0.28,0.454l0,0l0.002-0.001L18.234,34.877L18.234,34.877z
		 M16.706,15.589L16.706,15.589L16.706,15.589C16.706,15.588,16.706,15.588,16.706,15.589L16.706,15.589
		C16.706,15.589,16.706,15.589,16.706,15.589L16.706,15.589z M16.706,15.576L16.706,15.576L16.706,15.576
		C16.706,15.576,16.706,15.576,16.706,15.576L16.706,15.576C16.706,15.576,16.706,15.576,16.706,15.576L16.706,15.576z"/>
</g>
<g id="Layer_1">
</g>
</svg>
