<?xml version="1.0" encoding="iso-8859-1"?>
<!-- Generator: Adobe Illustrator 18.1.1, SVG Export Plug-In . SVG Version: 6.00 Build 0)  -->
<svg version="1.1" xmlns="http://www.w3.org/2000/svg" xmlns:xlink="http://www.w3.org/1999/xlink" x="0px" y="0px"
	 viewBox="0 0 32.313 41.637" style="enable-background:new 0 0 32.313 41.637;" xml:space="preserve">
<g id="Layer_47.svg">
	<path d="M5.254,21.658v-7.305c1.91-0.438,3.335-2.142,3.335-4.184c0-1.136-0.441-2.169-1.162-2.937
		c0.72-0.768,1.162-1.802,1.162-2.937c0-2.373-1.922-4.295-4.295-4.296C1.922,0.001,0,1.923,0,4.296C0,5.43,0.441,6.464,1.16,7.232
		C0.441,8,0,9.033,0,10.169c0,2.042,1.425,3.746,3.335,4.184v7.304l-3.11-1.824l4.07,7.99l4.069-7.99L5.254,21.658z M1.919,10.169
		C1.918,9.263,2.423,8.481,3.168,8.077V6.388c-0.745-0.404-1.25-1.187-1.249-2.092C1.921,2.983,2.983,1.922,4.294,1.92
		C5.606,1.922,6.666,2.983,6.67,4.296c0,0.905-0.506,1.689-1.25,2.092v1.689c0.745,0.404,1.25,1.186,1.25,2.093
		c-0.004,1.311-1.064,2.374-2.376,2.375C2.983,12.543,1.921,11.48,1.919,10.169z"/>
	<path id="inner" fill="#FFFFFF"  d="M13.4,34.442c0.37,0.403,0.865,0.871,1.462,1.335c0.456,0.407,1.418,1.049,2.339,1.74
		c0.919,0.663,1.791,1.475,1.835,1.706l0.157,0.432c0.048,0.131,0.11,0.252,0.181,0.365c0.353,0.561,0.972,0.896,1.628,0.898
		c0.217,0,0.436-0.039,0.647-0.114l8.684-3.159c0.778-0.288,1.26-1.024,1.26-1.808c0-0.087-0.007-0.175-0.018-0.261h0
		c-0.017-0.13-0.049-0.261-0.095-0.39l-0.192-0.528c-0.201-0.545-0.324-1.406-0.322-2.189c0-0.057,0.001-0.108,0.003-0.155
		c0.007-0.401,0.044-0.773,0.11-1.057l0.007-0.028l0.003-0.027c0.001-0.013,0.054-0.487,0.054-1.209
		c-0.001-0.89-0.078-2.157-0.439-3.417c-0.056-0.184-0.11-0.374-0.185-0.58c-0.781-2.144-2.841-7.804-2.841-7.804
		c-0.246-0.667-0.874-1.083-1.546-1.083c-0.184,0-0.376,0.031-0.562,0.102l-0.809,0.294c-0.668,0.247-1.084,0.876-1.083,1.55
		c-0.001,0.184,0.031,0.372,0.097,0.556l0.301,0.82l-0.083,0.03l-1.068-2.925c-0.244-0.666-0.872-1.08-1.542-1.08
		c-0.185,0-0.379,0.031-0.566,0.102l-0.805,0.294c-0.67,0.243-1.083,0.874-1.083,1.543c0,0.153,0.022,0.31,0.067,0.463v0.02
		l0.863,2.375l-0.085,0.031l-3.796-10.428c-0.246-0.665-0.872-1.08-1.545-1.08c-0.184,0-0.377,0.031-0.565,0.102l-0.807,0.293
		c-0.669,0.247-1.083,0.875-1.083,1.549c0,0.184,0.031,0.372,0.098,0.556l3.796,10.422l-0.085,0.031l-3.178-8.718
		c-0.243-0.667-0.871-1.084-1.544-1.084c-0.185,0-0.377,0.031-0.565,0.102l-0.808,0.294c-0.668,0.244-1.083,0.875-1.082,1.546
		c0,0.185,0.031,0.376,0.098,0.561l5.389,14.799l-0.086,0.03l-0.965-2.651l-0.06-0.067c-0.513-0.58-1.413-1.588-1.693-1.897
		c-0.573-0.595-1.653-0.962-2.711-0.984c-0.557,0.003-1.132,0.118-1.564,0.53c-0.256,0.24-0.461,0.577-0.459,0.97
		c0.004,0.415,0.205,0.781,0.513,1.141c0.685,0.792,5.425,6.12,6.216,7.009C13.356,34.393,13.399,34.441,13.4,34.442z"/>
	<path d="M18.764,40.403c-0.094-0.15-0.18-0.317-0.248-0.503l0,0l-0.152-0.417c-0.012-0.015-0.029-0.037-0.05-0.062l0,0
		c-0.075-0.089-0.203-0.219-0.357-0.362l0,0c-0.313-0.291-0.742-0.646-1.188-0.967l0,0c-0.903-0.68-1.844-1.3-2.382-1.774l0,0
		c-0.604-0.471-1.107-0.946-1.496-1.367l0,0l0,0c-0.032-0.035-0.032-0.035-0.032-0.035l0,0c0,0,0,0-0.005-0.005l0,0
		c-0.005-0.008-0.015-0.017-0.024-0.03l0,0c-0.022-0.023-0.051-0.057-0.082-0.093l0,0c-0.793-0.891-5.526-6.211-6.225-7.019l0,0
		c-0.358-0.418-0.679-0.945-0.686-1.601l0,0h0c0-0.004,0-0.007,0-0.011l0,0v-0.001c0.003-0.652,0.332-1.16,0.682-1.486l0,0
		c0.627-0.595,1.414-0.728,2.075-0.729l0,0c0.987,0.03,1.973,0.281,2.741,0.813l0,0l-3.307-9.081
		c-0.091-0.253-0.136-0.511-0.14-0.762l0,0c-0.001-0.017-0.002-0.033-0.002-0.045l0,0c0,0,0.001-0.001,0-0.001l0,0
		c0-0.965,0.599-1.869,1.556-2.219l0,0l0.801-0.291c0.274-0.104,0.553-0.148,0.819-0.148l0,0c0.083,0,0.165,0.005,0.247,0.013l0,0
		c-0.037-0.167-0.055-0.335-0.055-0.5l0,0c-0.001-0.969,0.599-1.871,1.558-2.226l0,0l0.796-0.289
		c0.277-0.105,0.556-0.149,0.82-0.149l0,0c0.968-0.001,1.869,0.599,2.222,1.553l0,0l2.232,6.13c0.239-0.244,0.536-0.439,0.879-0.564
		l0,0l0.799-0.293c0.275-0.103,0.555-0.146,0.82-0.148l0,0c0.965,0,1.866,0.599,2.218,1.555l0,0l0.038,0.104
		c0.24-0.244,0.536-0.44,0.877-0.566l0,0l0.8-0.29c0.275-0.104,0.553-0.149,0.818-0.149l0,0c0.969,0,1.87,0.6,2.223,1.557l0,0
		c0.003,0.008,2.059,5.658,2.842,7.803l0,0c0.085,0.235,0.144,0.442,0.2,0.628l0,0c0.388,1.357,0.465,2.683,0.467,3.615l0,0
		c0,0.754-0.055,1.259-0.058,1.278l0,0l-0.008,0.081l-0.011,0.047l-0.005,0.022c-0.05,0.211-0.086,0.545-0.091,0.917l0,0
		c-0.001,0.045-0.003,0.089-0.003,0.133l0,0v0.089l-0.001,0.005c0.007,0.683,0.128,1.454,0.28,1.851l0,0l0.161,0.443h0.084
		l0.081,0.631c0.013,0.109,0.023,0.225,0.023,0.35l0,0c0,1.076-0.663,2.086-1.734,2.483l0,0l-8.689,3.161
		c-0.285,0.102-0.584,0.156-0.89,0.156l0,0C20.1,41.635,19.252,41.177,18.764,40.403L18.764,40.403z M19.868,39.406
		c0.03,0.079,0.067,0.153,0.115,0.231l0,0c0.217,0.348,0.608,0.56,1.019,0.561l0,0c0.132,0,0.268-0.024,0.4-0.071l0,0l8.681-3.157
		c0.489-0.18,0.789-0.643,0.791-1.133l0,0c0-0.045-0.004-0.094-0.01-0.147l0,0l-0.003-0.02c-0.011-0.076-0.031-0.16-0.058-0.239l0,0
		l-0.191-0.525c-0.246-0.675-0.364-1.566-0.368-2.426l0,0c0,0,0,0,0-0.016l0,0c0.001-0.009,0.001-0.019,0.001-0.034l0,0
		c0-0.052,0.002-0.098,0.003-0.129l0,0c0.008-0.431,0.044-0.831,0.123-1.19l0,0c0.008-0.078,0.049-0.499,0.05-1.119l0,0
		c-0.001-0.849-0.078-2.056-0.408-3.208l0,0c-0.059-0.195-0.109-0.368-0.173-0.543l0,0c-0.781-2.145-2.842-7.805-2.84-7.801l0,0
		c-0.14-0.38-0.495-0.612-0.871-0.613l0,0c-0.103,0-0.209,0.019-0.317,0.059l0,0l-0.805,0.292c-0.361,0.134-0.587,0.458-0.611,0.811
		l0,0l0.003,0.015l-0.005,0.086c0.003,0.087,0.02,0.18,0.053,0.271l0,0l0.55,1.504l-1.442,0.512l-1.311-3.594
		c-0.137-0.377-0.493-0.608-0.866-0.61l0,0c-0.106,0-0.213,0.019-0.319,0.059l0,0l-0.808,0.296
		c-0.377,0.134-0.607,0.491-0.608,0.866l0,0c0,0.084,0.012,0.173,0.038,0.26l0,0l0.025,0.083l1.069,2.943l-1.436,0.526
		l-4.041-11.102c-0.138-0.377-0.493-0.608-0.87-0.61l0,0c-0.103,0-0.211,0.017-0.32,0.059l0,0l-0.803,0.291
		c-0.381,0.141-0.611,0.494-0.612,0.874l0,0c0,0.104,0.016,0.207,0.054,0.309l0,0l4.042,11.097l-1.436,0.525l-3.424-9.394
		c-0.137-0.377-0.493-0.611-0.867-0.611l0,0c-0.106,0-0.211,0.017-0.319,0.058l0,0l-0.807,0.294
		c-0.375,0.136-0.605,0.486-0.609,0.857l0,0c0,0.004,0,0.007,0,0.011l0,0v0.002c0,0.105,0.018,0.212,0.055,0.314l0,0l5.637,15.481
		l-1.443,0.51l-1.16-3.188c-0.515-0.582-1.388-1.56-1.642-1.843l0,0c-0.354-0.392-1.305-0.757-2.189-0.764l0,0
		c-0.471,0.004-0.834,0.102-1.077,0.337l0,0c-0.15,0.141-0.228,0.298-0.231,0.427l0,0v0.01c0.001,0.172,0.083,0.377,0.338,0.678l0,0
		c0.673,0.779,5.421,6.114,6.214,7.007l0,0c0.035,0.04,0.062,0.071,0.081,0.092l0,0l0.001,0.001l-0.509,0.51l0.529-0.487
		c0.342,0.373,0.811,0.816,1.374,1.254l0,0l0.02,0.016l0.018,0.015c0.376,0.34,1.356,1.001,2.281,1.692l0,0
		c0.73,0.53,1.403,1.113,1.783,1.551l0,0c0.113,0.153,0.214,0.222,0.305,0.495l0,0l0.003-0.001L19.868,39.406L19.868,39.406z"/>
</g>
<g id="Layer_1">
</g>
</svg>
