<?xml version="1.0" encoding="iso-8859-1"?>
<!-- Generator: Adobe Illustrator 18.1.1, SVG Export Plug-In . SVG Version: 6.00 Build 0)  -->
<svg version="1.1" xmlns="http://www.w3.org/2000/svg" xmlns:xlink="http://www.w3.org/1999/xlink" x="0px" y="0px"
	 viewBox="0 0 24.283 39.937" style="enable-background:new 0 0 24.283 39.937;" xml:space="preserve">
<g id="Layer_38.svg">
	<path d="M6.201,17.781l0-1.487c-2.752-0.832-4.756-3.381-4.761-6.404c0.007-3.695,2.996-6.684,6.69-6.691
		C8.245,3.198,8.382,3.21,8.549,3.221L8.84,3.239l0.222-0.19c1.172-1.003,2.683-1.609,4.345-1.609
		c3.694,0.007,6.684,2.995,6.69,6.69c-0.005,2.942-1.905,5.432-4.543,6.33v1.504c0.182-0.05,0.361-0.105,0.537-0.167
		c0.024-0.008,0.047-0.018,0.071-0.026c3.131-1.13,5.374-4.12,5.374-7.641c0-4.49-3.64-8.129-8.129-8.13
		C11.499,0,9.74,0.664,8.356,1.766C8.285,1.763,8.21,1.76,8.13,1.76C3.639,1.76,0,5.399,0,9.89C0,13.713,2.644,16.912,6.201,17.781z
		"/>
	<path d="M6.201,14.324v-1.642c-0.886-0.614-1.467-1.634-1.468-2.792c0.003-1.876,1.521-3.394,3.398-3.398
		c0.492,0,0.958,0.108,1.385,0.298l0.602,0.268l0.321-0.575c0.581-1.044,1.692-1.75,2.97-1.75V4.732
		c1.876,0.005,3.393,1.523,3.397,3.399c-0.002,1.061-0.489,2.006-1.25,2.628v1.7c1.592-0.792,2.689-2.43,2.689-4.328
		c-0.001-2.673-2.165-4.837-4.836-4.837V3.293c-1.595,0.001-3.01,0.774-3.89,1.965C9.079,5.125,8.613,5.053,8.131,5.054
		c-2.672,0-4.837,2.164-4.838,4.836C3.294,11.875,4.49,13.578,6.201,14.324z"/>
	<path  id="inner" fill="#FFFFFF"  d="M4.588,30.417c0.211,0.51,0.519,1.122,0.925,1.767c0.276,0.518,0.962,1.456,1.597,2.425
		c0.636,0.937,1.177,1.997,1.14,2.23v0.459c0,0.141,0.016,0.276,0.044,0.402c0.185,0.865,0.954,1.516,1.876,1.517h9.236
		c0.921-0.001,1.688-0.652,1.875-1.519c0.028-0.126,0.044-0.261,0.044-0.401V36.74c-0.003-0.622,0.202-1.547,0.503-2.317
		c0.143-0.369,0.305-0.706,0.464-0.953l0.016-0.023l0.012-0.024c0.011-0.03,1.052-2.112,1.221-4.478
		c0.009-0.195,0.023-0.39,0.023-0.608c0-2.283,0-8.298,0.001-8.306c-0.004-0.908-0.736-1.64-1.641-1.644l-0.003,0.48v-0.48h-0.864
		c-0.909,0.004-1.644,0.736-1.648,1.642l0.001,0.873h-0.089l-0.001-3.113c-0.004-0.909-0.737-1.642-1.643-1.642h-0.863
		c-0.875,0-1.586,0.683-1.641,1.539l-0.006,0.016l-0.003,2.53h-0.089V9.136c-0.004-0.908-0.736-1.639-1.642-1.642h-0.867
		c-0.906,0.003-1.639,0.733-1.645,1.639l0.003,11.094h-0.09l-0.005-9.28c0-0.908-0.733-1.645-1.639-1.645H8.325
		c-0.91,0-1.643,0.737-1.645,1.643l0.001,15.75H6.591v-2.823L6.558,23.79c-0.284-0.72-0.786-1.975-0.942-2.359
		c-0.217-0.507-0.678-0.955-1.24-1.347c-0.566-0.38-1.229-0.682-1.913-0.688c-0.235,0-0.48,0.04-0.713,0.147
		c-0.455,0.173-0.857,0.644-0.836,1.204c0,0.257,0.062,0.517,0.168,0.798c0.372,0.976,3.003,7.606,3.443,8.712
		C4.564,30.356,4.588,30.416,4.588,30.417z"/>
	<path d="M10.169,39.937C8.9,39.935,7.845,39.043,7.59,37.853l0,0c-0.037-0.174-0.06-0.36-0.06-0.556l0,0v-0.441
		c-0.008-0.024-0.021-0.064-0.04-0.112l0,0c-0.046-0.117-0.123-0.281-0.218-0.467l0,0c-0.193-0.373-0.467-0.838-0.765-1.274l0,0
		c-0.618-0.947-1.284-1.847-1.619-2.46l0,0c-0.421-0.671-0.741-1.308-0.965-1.851l0,0l-0.012-0.028h0
		c0-0.001-0.001-0.003-0.002-0.006l0,0l-0.042-0.1v-0.007c-0.004-0.01-0.008-0.02-0.012-0.03l0,0
		c-0.441-1.11-3.068-7.73-3.448-8.724l0,0c-0.118-0.317-0.206-0.651-0.212-1.01l0,0c-0.003-0.041-0.002-0.072-0.002-0.084l0,0
		c0.016-0.893,0.589-1.542,1.266-1.82l0,0c0.343-0.155,0.692-0.208,1.01-0.208l0,0c0.896,0.013,1.674,0.387,2.318,0.818l0,0
		c0.444,0.312,0.859,0.665,1.175,1.104l0,0l-0.001-9.653c0.001-1.302,1.056-2.362,2.365-2.362l0,0h0.865
		c0.371,0,0.722,0.086,1.034,0.239l0,0c0.156-1.155,1.144-2.044,2.342-2.048l0,0h0.869c1.302,0.004,2.354,1.058,2.359,2.363l0,0
		v6.522c0.308-0.147,0.653-0.23,1.019-0.23l0,0h0.863c1.303-0.001,2.358,1.056,2.362,2.361l0,0v0.111
		c0.308-0.147,0.653-0.23,1.017-0.231l0,0h0.151v-0.002l0.719,0.002h0.714v0.113c0.951,0.305,1.639,1.195,1.643,2.248l0,0v0.065
		c0,0.002,0,0.005,0,0.008l0,0c0,0.045,0,0.111,0,0.196l0,0c0,0.169-0.001,0.414-0.001,0.714l0,0c0,0.601,0,1.424,0,2.319l0,0
		c0,1.79,0,3.864,0,5.006l0,0c0,0.246-0.015,0.456-0.024,0.659l0,0c-0.17,2.372-1.147,4.429-1.27,4.694l0,0l-0.004,0.012
		l-0.021,0.044l-0.034,0.067l-0.026,0.04l-0.007,0.007c-0.119,0.186-0.269,0.489-0.398,0.826l0,0
		c-0.269,0.677-0.457,1.554-0.454,2.032l0,0l0,0v0.009v0.013v0.557c0,0.196-0.021,0.381-0.06,0.553l0,0
		c-0.255,1.191-1.31,2.084-2.577,2.086l0,0H10.169L10.169,39.937z M8.97,37.298c0,0.086,0.009,0.171,0.026,0.253l0,0
		c0.116,0.537,0.598,0.949,1.174,0.947l0,0h9.234c0.573,0.001,1.055-0.409,1.172-0.954l0,0c0.017-0.075,0.028-0.16,0.028-0.246l0,0
		V36.78c0-0.005-0.001-0.02-0.001-0.053l0,0c0.005-0.769,0.226-1.719,0.552-2.564l0,0c0.154-0.395,0.325-0.759,0.527-1.076l0,0
		c0.008-0.017,0.018-0.041,0.031-0.069l0,0c0.028-0.06,0.067-0.147,0.115-0.258l0,0c0.097-0.223,0.226-0.544,0.36-0.934l0,0
		c0.27-0.779,0.556-1.838,0.633-2.915l0,0c0.009-0.204,0.021-0.385,0.021-0.573l0,0c0-2.213,0-7.805,0.002-8.303l0,0h-0.001
		c-0.003-0.514-0.414-0.925-0.924-0.928l0,0l0.001-0.237H21.92v0.237h-0.86c-0.517,0.003-0.93,0.417-0.933,0.921l0,0l0.004,1.594
		h-1.53L18.6,17.793c-0.004-0.516-0.415-0.925-0.923-0.926l0,0h-0.863c-0.492-0.001-0.893,0.387-0.924,0.865l0,0l-0.004,0.067
		l-0.004,3.152h-1.527V9.139c-0.003-0.515-0.413-0.924-0.922-0.926l0,0h-0.864c-0.512,0.001-0.923,0.413-0.927,0.919l0,0
		l0.004,11.814h-1.53l-0.005-10c-0.001-0.512-0.414-0.925-0.92-0.925l0,0H8.325c-0.512,0-0.923,0.414-0.925,0.923l0,0l0.001,16.47
		H5.871V24.01c-0.286-0.723-0.772-1.938-0.917-2.297l0,0c-0.126-0.308-0.483-0.692-0.979-1.032l0,0
		c-0.499-0.337-1.047-0.566-1.512-0.566l0,0c-0.155,0-0.293,0.027-0.412,0.081l0,0l-0.02,0.009l-0.025,0.011
		c-0.191,0.066-0.382,0.303-0.375,0.476l0,0h0.001l0.001,0.022v0.033c0,0.139,0.034,0.313,0.122,0.541l0,0
		c0.365,0.96,3.001,7.601,3.438,8.703l0,0c0.02,0.048,0.036,0.087,0.048,0.117l0,0c0.014,0.039,0.008,0.018,0.023,0.061l0,0
		c0.196,0.465,0.482,1.035,0.859,1.632l0,0l0.013,0.022l0.013,0.025c0.221,0.424,0.92,1.388,1.557,2.358l0,0
		c0.488,0.723,0.909,1.475,1.124,2.01l0,0c0.069,0.193,0.132,0.322,0.143,0.6l0,0c0,0.018-0.001,0.034-0.001,0.047l0,0V37.298
		L8.97,37.298z"/>
</g>
<g id="Layer_1">
</g>
</svg>
