<?xml version="1.0" encoding="iso-8859-1"?>
<!-- Generator: Adobe Illustrator 18.1.1, SVG Export Plug-In . SVG Version: 6.00 Build 0)  -->
<svg version="1.1" xmlns="http://www.w3.org/2000/svg" xmlns:xlink="http://www.w3.org/1999/xlink" x="0px" y="0px"
	 viewBox="0 0 33.467 39.205" style="enable-background:new 0 0 33.467 39.205;" xml:space="preserve">
<g id="Layer_35.svg">
	<path d="M14.352,5.255h7.305l-0.38,0.648c0.054-0.004,0.108-0.012,0.163-0.012c0.242,0,0.491,0.043,0.725,0.129l0.812,0.294
		c0.158,0.058,0.302,0.138,0.437,0.227l4.408-2.246l-7.989-4.069l1.824,3.109h-7.305C13.916,1.426,12.211,0.001,10.168,0
		C9.033,0.001,8,0.441,7.231,1.161C6.463,0.441,5.429,0.001,4.295,0C1.922,0.001,0,1.922,0,4.295c0,2.372,1.922,4.294,4.295,4.295
		V8.588c1.135,0,2.169-0.44,2.937-1.16c0.768,0.72,1.802,1.16,2.937,1.16C12.211,8.588,13.916,7.164,14.352,5.255z M10.168,6.67
		C9.263,6.671,8.48,6.166,8.076,5.42H6.387C5.984,6.166,5.2,6.671,4.295,6.67C2.983,6.667,1.921,5.606,1.919,4.295
		c0.002-1.312,1.064-2.374,2.376-2.375C5.2,1.918,5.984,2.423,6.387,3.169h1.689c0.404-0.746,1.187-1.251,2.093-1.25
		c1.312,0.002,2.374,1.064,2.376,2.375C12.542,5.606,11.481,6.667,10.168,6.67z"/>
	<path id="inner" fill="#FFFFFF"  d="M12.354,32.753c-0.047,0.131-0.079,0.264-0.097,0.393c-0.011,0.085-0.018,0.172-0.018,0.261
		c0,0.783,0.482,1.52,1.261,1.806l8.679,3.159c0.211,0.077,0.429,0.114,0.64,0.114c0.004,0,0.007,0,0.011,0
		c0.656,0,1.274-0.335,1.63-0.898c0.07-0.11,0.131-0.232,0.18-0.364l0.19-0.523c0.209-0.585,0.72-1.385,1.265-2.006
		c0.26-0.298,0.529-0.56,0.761-0.736l0.02-0.015l0.022-0.022c0.022-0.023,1.712-1.624,2.68-3.79
		c0.075-0.179,0.156-0.357,0.231-0.564c0.78-2.144,2.84-7.804,2.84-7.804c0.067-0.185,0.099-0.376,0.098-0.561
		c0.001-0.671-0.412-1.301-1.078-1.545l-0.812-0.296c-0.185-0.067-0.375-0.099-0.562-0.099c-0.671-0.001-1.302,0.411-1.548,1.078
		l-0.298,0.822l-0.083-0.031l1.063-2.927c0.067-0.185,0.098-0.376,0.098-0.561c0.001-0.672-0.415-1.299-1.081-1.542l-0.81-0.294
		c-0.184-0.067-0.375-0.101-0.564-0.101c-0.634-0.001-1.227,0.368-1.496,0.966l-0.013,0.013l-0.874,2.394l-0.085-0.031l3.795-10.426
		c0.067-0.185,0.098-0.375,0.098-0.56c0-0.671-0.412-1.301-1.081-1.544l-0.811-0.297c-0.184-0.067-0.375-0.099-0.561-0.099
		c-0.67,0-1.301,0.41-1.547,1.078l-3.79,10.425l-0.085-0.031l3.168-8.721c0.067-0.186,0.099-0.377,0.099-0.566
		c0-0.67-0.412-1.299-1.08-1.542l-0.812-0.294c-0.184-0.069-0.375-0.101-0.562-0.101c-0.673,0-1.301,0.416-1.545,1.08l-5.385,14.802
		l-0.086-0.031l0.965-2.651l-0.003-0.091c-0.02-0.773-0.062-2.125-0.078-2.537c-0.037-0.631-0.393-1.311-0.891-1.933
		c-0.505-0.6-1.157-1.152-1.983-1.169c-0.024,0-0.065-0.001-0.127,0.005c-0.352,0.024-0.721,0.156-0.966,0.459
		c-0.248,0.306-0.332,0.696-0.332,1.14c0,0.009-0.001,0.035,0.001,0.074c0.013,1.024,0.219,8.154,0.254,9.344
		c0.003,0.106,0.005,0.171,0.005,0.172c0.023,0.553,0.103,1.234,0.264,1.979c0.154,1.016,1.027,3.764,1.018,4.966
		c0.001,0.171-0.022,0.298-0.039,0.345L12.354,32.753z"/>
	<path d="M22.821,39.205c-0.297,0-0.596-0.052-0.886-0.157l0,0l-8.682-3.161c-1.07-0.393-1.732-1.404-1.732-2.48l0,0
		c0-0.126,0.009-0.243,0.024-0.357l0,0c0.024-0.181,0.069-0.361,0.132-0.538l0,0l0.678,0.242l-0.675-0.247l0.144-0.393
		c0-0.002,0.001-0.005,0.001-0.008l0,0c0.003-0.024,0.007-0.064,0.007-0.112l0,0c0-0.006,0-0.01,0-0.014l0,0v-0.007
		c0-0.001,0-0.003,0-0.004l0,0v-0.009c0.005-0.454-0.197-1.438-0.431-2.376l0,0c-0.23-0.942-0.48-1.845-0.575-2.437l0,0
		c-0.165-0.769-0.249-1.473-0.276-2.09l0,0h-0.001v-0.008c0-0.009-0.001-0.022-0.001-0.036l0,0
		c-0.001-0.031-0.003-0.077-0.004-0.129l0,0c-0.035-1.19-0.239-8.272-0.253-9.345l0,0c-0.002-0.033-0.002-0.06-0.002-0.069l0,0
		c0-0.009,0-0.016,0-0.023l0,0c0-0.014,0-0.014,0-0.014l0,0l0,0c0-0.523,0.103-1.098,0.491-1.58l0,0
		c0.404-0.493,0.964-0.683,1.444-0.721l0,0c0.085-0.011,0.158-0.011,0.182-0.011l0,0c0.027,0,0.027,0.001,0.042,0.001l0,0
		c1.164,0.035,1.966,0.772,2.53,1.439l0,0c0.413,0.521,0.765,1.09,0.939,1.718l0,0l3.302-9.075c0.352-0.953,1.253-1.552,2.221-1.551
		l0,0c0.269-0.001,0.547,0.044,0.807,0.142l0,0l0.814,0.296c0.349,0.127,0.65,0.328,0.891,0.578l0,0
		c0.414-0.79,1.232-1.266,2.096-1.265l0,0c0.267-0.001,0.543,0.046,0.808,0.142l0,0l0.808,0.297
		c0.961,0.349,1.556,1.255,1.555,2.219l0,0c0,0.264-0.044,0.538-0.141,0.805l0,0l-2.231,6.13c0.074-0.008,0.149-0.011,0.224-0.011
		l0,0c0.008,0,0.016,0.001,0.023,0.001l0,0c0.266,0.001,0.535,0.049,0.789,0.143l0,0l0.811,0.294
		c0.953,0.348,1.555,1.246,1.553,2.214l0,0v0.004c0,0.266-0.044,0.538-0.141,0.807l0,0l-0.037,0.102
		c0.074-0.007,0.149-0.01,0.223-0.01l0,0c0.012,0,0.024,0.001,0.035,0.002l0,0c0.261,0.003,0.522,0.05,0.776,0.142l0,0l0.814,0.297
		c0.955,0.349,1.55,1.251,1.551,2.214l0,0h0c0,0,0,0,0,0l0,0c0,0.001,0,0.002,0,0.003l0,0v0.004v0.106l-0.003,0.007
		c-0.011,0.232-0.057,0.466-0.138,0.693l0,0c0,0-2.06,5.661-2.84,7.804l0,0c-0.087,0.238-0.175,0.43-0.25,0.611l0,0
		c-1.009,2.247-2.679,3.856-2.828,4.006l0,0l0.001,0.001l-0.06,0.058l-0.04,0.032l-0.016,0.011c-0.173,0.13-0.417,0.365-0.655,0.636
		l0,0c-0.49,0.552-0.975,1.329-1.129,1.778l0,0l-0.191,0.525c-0.067,0.183-0.152,0.349-0.247,0.501l0,0
		c-0.489,0.772-1.336,1.233-2.238,1.233l0,0H22.821L22.821,39.205z M13.032,32.994c-0.031,0.085-0.051,0.171-0.06,0.242l0,0
		c-0.008,0.062-0.012,0.118-0.012,0.171l0,0c0,0.489,0.302,0.952,0.787,1.129l0,0l8.679,3.158c0.133,0.048,0.268,0.071,0.395,0.071
		l0,0h0.011c0.411,0,0.799-0.209,1.022-0.564l0,0c0.043-0.068,0.082-0.145,0.112-0.224l0,0l0.189-0.52
		c0.266-0.726,0.803-1.549,1.4-2.237l0,0c0.28-0.32,0.566-0.603,0.855-0.826l0,0c0.045-0.045,0.115-0.113,0.258-0.265l0,0
		c0.167-0.176,0.397-0.432,0.658-0.753l0,0c0.52-0.641,1.15-1.537,1.59-2.524l0,0c0.08-0.191,0.154-0.355,0.219-0.53l0,0
		c0.78-2.145,2.836-7.797,2.838-7.804l0,0c0.038-0.102,0.055-0.208,0.055-0.305l0,0h0c0-0.003,0-0.007,0-0.011l0,0h0v-0.004
		c-0.001-0.376-0.232-0.73-0.604-0.865l0,0l-0.811-0.295c-0.107-0.039-0.212-0.057-0.318-0.057l0,0h-0.047
		c-0.36,0.019-0.693,0.245-0.824,0.604l0,0l-0.545,1.503l-1.433-0.532l1.307-3.597c0.038-0.103,0.055-0.211,0.055-0.317l0,0v-0.004
		c0-0.374-0.232-0.726-0.606-0.862l0,0l-0.812-0.294c-0.105-0.039-0.211-0.056-0.316-0.058l0,0h-0.004
		c-0.353,0-0.686,0.205-0.837,0.542l0,0L26.2,17.04l-1.08,2.961l-1.437-0.525l4.04-11.099c0.037-0.103,0.055-0.211,0.055-0.315l0,0
		c-0.001-0.379-0.23-0.732-0.608-0.868l0,0l-0.811-0.297c-0.102-0.037-0.208-0.055-0.313-0.056l0,0
		c-0.379,0.001-0.734,0.231-0.87,0.604l0,0l-4.038,11.103l-1.435-0.526l3.413-9.394c0.037-0.106,0.056-0.215,0.056-0.321l0,0
		c-0.001-0.376-0.231-0.73-0.604-0.866l0,0l-0.82-0.297c-0.099-0.036-0.203-0.053-0.31-0.053l0,0c-0.376,0-0.733,0.232-0.869,0.605
		l0,0l-5.63,15.476l-1.441-0.52l1.165-3.2c-0.02-0.776-0.061-2.087-0.075-2.469l0,0c-0.016-0.391-0.287-0.974-0.724-1.513l0,0
		c-0.458-0.546-0.96-0.913-1.433-0.913l0,0c-0.027,0-0.027,0-0.027,0l0,0h-0.004l-0.027,0.003l-0.02,0.001
		c-0.215,0.015-0.377,0.093-0.455,0.195l0,0c-0.105,0.126-0.171,0.323-0.172,0.687l0,0c0,0.023,0,0.023,0,0.023l0,0h0l0.001,0.017
		v0.023c0.014,1.006,0.219,8.148,0.254,9.335l0,0c0.003,0.119,0.004,0.132,0.005,0.161l0,0c0.02,0.509,0.095,1.154,0.248,1.857l0,0
		l0.004,0.02l0.004,0.024c0.06,0.42,0.316,1.371,0.553,2.335l0,0c0.233,0.965,0.459,1.932,0.472,2.686l0,0l0,0.005v0.028v0.009
		v0.011c0,0.014,0,0.023,0,0.024l0,0h0c-0.004,0.232-0.021,0.375-0.083,0.568l0,0L13.032,32.994L13.032,32.994L13.032,32.994z"/>
</g>
<g id="Layer_1">
</g>
</svg>
