<?xml version="1.0" encoding="iso-8859-1"?>
<!-- Generator: Adobe Illustrator 18.1.1, SVG Export Plug-In . SVG Version: 6.00 Build 0)  -->
<svg version="1.1" xmlns="http://www.w3.org/2000/svg" xmlns:xlink="http://www.w3.org/1999/xlink" x="0px" y="0px"
	 viewBox="0 0 24.088 40.729" style="enable-background:new 0 0 24.088 40.729;" xml:space="preserve">
<g id="Layer_40.svg">
	<path d="M19.771,0c-2.211,0-4.004,1.794-4.004,4.005c0,2.211,1.793,4.004,4.004,4.005c2.213-0.001,4.004-1.794,4.004-4.005
		C23.776,1.794,21.984,0,19.771,0z M19.771,7.145c-1.735-0.003-3.138-1.407-3.14-3.14c0.002-1.735,1.406-3.138,3.14-3.141
		c1.735,0.003,3.138,1.407,3.142,3.141C22.909,5.739,21.506,7.142,19.771,7.145z"/>
	<polygon points="20.06,1.658 19.484,1.658 19.484,4.294 21.841,4.292 21.841,3.717 20.06,3.717 	"/>
	<path d="M15.362,12.378v2.038c2.401-0.687,4.173-2.853,4.268-5.454c-0.684-0.02-1.333-0.177-1.92-0.446
		c0.004,0.076,0.011,0.152,0.012,0.23C17.719,10.366,16.751,11.757,15.362,12.378z"/>
	<path d="M6.009,16.583l0-2.006c-1.504-0.568-2.576-2.017-2.579-3.72c0.003-2.197,1.782-3.976,3.98-3.981
		c0.578,0,1.123,0.126,1.622,0.349l0.803,0.36l0.429-0.769c0.682-1.224,1.982-2.05,3.48-2.05c0.402,0.001,0.79,0.063,1.156,0.174
		c-0.058-0.304-0.091-0.615-0.091-0.935c0-0.357,0.039-0.704,0.111-1.04c-0.38-0.077-0.774-0.118-1.176-0.118
		c-1.921,0-3.629,0.921-4.705,2.343c-0.516-0.15-1.063-0.231-1.628-0.231c-3.259,0.001-5.899,2.642-5.9,5.9
		C1.511,13.633,3.427,15.953,6.009,16.583z"/>
	<path id="inner" fill="#FFFFFF"  d="M4.395,31.209c0.212,0.511,0.52,1.125,0.926,1.77l0.006,0.009c0.296,0.543,0.968,1.462,1.59,2.413
		c0.636,0.937,1.177,1.997,1.14,2.23v0.459c0,0.139,0.015,0.274,0.045,0.405c0.184,0.864,0.953,1.512,1.875,1.515h9.236
		c0.921-0.001,1.688-0.652,1.875-1.519c0.026-0.126,0.044-0.26,0.044-0.401v-0.558c-0.003-0.622,0.202-1.547,0.503-2.317
		c0.143-0.369,0.304-0.706,0.464-0.953l0.013-0.021l0.015-0.026c0.011-0.03,1.052-2.112,1.22-4.478
		c0.011-0.195,0.024-0.39,0.024-0.608c0-2.283,0-8.298,0-8.306c-0.004-0.908-0.734-1.64-1.639-1.644l-0.003,0.48v-0.48h-0.864
		c-0.909,0.004-1.644,0.734-1.648,1.642l0.001,0.873h-0.089l-0.003-3.113c-0.003-0.909-0.736-1.642-1.642-1.642h-0.863
		c-0.867,0-1.572,0.669-1.639,1.512l-0.008,0.015l-0.003,2.556h-0.089V9.928c-0.004-0.907-0.736-1.641-1.642-1.642h-0.867
		c-0.906,0.003-1.639,0.733-1.644,1.639l0.003,11.094h-0.089l-0.005-9.28c0-0.908-0.734-1.645-1.641-1.645H8.133
		c-0.909,0-1.643,0.737-1.645,1.643l0.001,15.75H6.398v-2.823l-0.034-0.083c-0.283-0.72-0.785-1.975-0.942-2.359
		c-0.216-0.507-0.676-0.955-1.238-1.347c-0.566-0.38-1.229-0.682-1.913-0.688c-0.235,0-0.481,0.04-0.714,0.147
		c-0.454,0.173-0.856,0.644-0.835,1.204c0,0.257,0.061,0.517,0.168,0.798c0.372,0.976,3.003,7.606,3.442,8.712
		C4.37,31.147,4.395,31.208,4.395,31.209z"/>
	<path d="M9.975,40.729c-1.266-0.004-2.323-0.892-2.575-2.07l0,0c-0.044-0.189-0.063-0.38-0.063-0.569l0,0v-0.443
		c-0.008-0.024-0.021-0.064-0.04-0.11l0,0c-0.045-0.117-0.122-0.281-0.218-0.467l0,0c-0.193-0.373-0.467-0.838-0.765-1.274l0,0
		c-0.607-0.931-1.264-1.822-1.612-2.448l0,0c-0.424-0.675-0.745-1.317-0.973-1.863l0,0l-0.021-0.052l0,0l0,0
		c0-0.001-0.001-0.002-0.001-0.003l0,0l-0.032-0.078v-0.005c-0.004-0.011-0.009-0.022-0.013-0.034l0,0
		c-0.441-1.11-3.068-7.73-3.446-8.721l0,0c-0.124-0.327-0.212-0.668-0.216-1.031l0,0C0,21.53,0,21.506,0,21.496l0,0
		c0.017-0.891,0.588-1.541,1.263-1.819l0,0c0.345-0.157,0.694-0.209,1.014-0.209l0,0c0.896,0.013,1.673,0.387,2.317,0.818l0,0
		c0.445,0.312,0.861,0.665,1.175,1.105l0,0l-0.002-9.654c0.003-1.302,1.057-2.361,2.364-2.362l0,0h0.865
		c0.371,0,0.722,0.086,1.034,0.239l0,0c0.157-1.155,1.144-2.044,2.343-2.048l0,0h0.867c1.305,0.003,2.355,1.058,2.36,2.363l0,0
		v6.521c0.308-0.147,0.653-0.23,1.019-0.23l0,0h0.863c1.303-0.001,2.358,1.056,2.362,2.361l0,0l0,0.111
		c0.309-0.147,0.654-0.23,1.019-0.231l0,0h0.151v-0.002l0.718,0.002h0.715v0.113c0.95,0.305,1.637,1.197,1.641,2.25l0,0
		c0,0.008,0,6.023,0,8.306l0,0c0,0.246-0.015,0.459-0.025,0.659l0,0c-0.169,2.37-1.145,4.428-1.268,4.693l0,0l-0.009,0.027
		l-0.03,0.055l-0.037,0.064l-0.017,0.028c-0.119,0.181-0.267,0.484-0.398,0.823l0,0c-0.266,0.668-0.452,1.533-0.454,2.014l0,0l0,0
		l0.001,0.018v0.022v0.557c0,0.2-0.025,0.384-0.059,0.553l0,0c-0.257,1.191-1.31,2.084-2.579,2.086l0,0H9.975L9.975,40.729z
		 M8.777,38.089c0,0.09,0.009,0.17,0.029,0.255l0,0C8.92,38.879,9.4,39.29,9.977,39.29l0,0h9.234
		c0.574,0.001,1.056-0.409,1.172-0.947l0,0c0.017-0.086,0.028-0.17,0.028-0.253l0,0l0.001-0.517c0-0.005-0.001-0.02-0.001-0.053l0,0
		c0.004-0.769,0.225-1.719,0.552-2.564l0,0c0.156-0.401,0.328-0.77,0.524-1.073l0,0c0-0.001,0-0.001,0.001-0.002l0,0
		c0.008-0.017,0.019-0.041,0.033-0.07l0,0c0.028-0.06,0.066-0.147,0.115-0.258l0,0c0.095-0.223,0.225-0.544,0.36-0.933l0,0
		c0.269-0.781,0.554-1.839,0.63-2.92l0,0c0.012-0.202,0.024-0.381,0.022-0.569l0,0c0.001-2.284,0-8.298,0.001-8.303l0,0
		c-0.003-0.515-0.414-0.925-0.923-0.928l0,0h-0.86c-0.517,0.003-0.929,0.414-0.932,0.921l0,0l0.003,1.594h-1.53l-0.003-3.831
		c-0.003-0.515-0.413-0.923-0.922-0.925l0,0L16.62,17.66c-0.488-0.003-0.884,0.376-0.921,0.849l0,0l-0.007,0.081l-0.003,3.153
		h-1.528l0.001-11.812c-0.003-0.514-0.415-0.926-0.922-0.926l0,0h-0.865c-0.512,0.001-0.924,0.413-0.926,0.919l0,0l0.003,11.814
		H9.924l-0.005-10c-0.001-0.512-0.414-0.925-0.921-0.925l0,0H8.132c-0.511-0.001-0.923,0.414-0.925,0.923l0,0l0.001,16.47H5.678
		v-3.402c-0.283-0.721-0.771-1.941-0.918-2.3l0,0c-0.124-0.307-0.482-0.691-0.976-1.031l0,0c-0.499-0.337-1.047-0.566-1.512-0.566
		l0,0c-0.156,0-0.295,0.027-0.414,0.081l0,0l-0.019,0.009l-0.025,0.011c-0.195,0.066-0.388,0.311-0.373,0.487l0,0l0,0l0.001,0.023
		v0.021c0,0.142,0.033,0.313,0.12,0.541l0,0c0.366,0.96,3.001,7.601,3.441,8.709l0,0c0.017,0.045,0.032,0.081,0.042,0.107l0,0
		c0.013,0.034,0.007,0.017,0.018,0.046l0,0c0.196,0.469,0.486,1.047,0.86,1.642l0,0l0.021,0.033l0.014,0.027
		c0.248,0.459,0.929,1.4,1.553,2.353l0,0c0.488,0.723,0.909,1.475,1.124,2.01l0,0c0.069,0.193,0.132,0.322,0.143,0.6l0,0
		c0,0.022-0.001,0.04-0.001,0.054l0,0V38.089L8.777,38.089z M21.482,33.892l0.004-0.007c0,0,0.001-0.001,0.001-0.002l0,0
		L21.482,33.892L21.482,33.892z"/>
</g>
<g id="Layer_1">
</g>
</svg>
