<?xml version="1.0" encoding="iso-8859-1"?>
<!-- Generator: Adobe Illustrator 18.1.1, SVG Export Plug-In . SVG Version: 6.00 Build 0)  -->
<svg version="1.1" xmlns="http://www.w3.org/2000/svg" xmlns:xlink="http://www.w3.org/1999/xlink" x="0px" y="0px"
	 viewBox="0 0 27.586 39.501" style="enable-background:new 0 0 27.586 39.501;" xml:space="preserve">
<g id="Layer_10.svg">
	<path d="M10.988,10.002l2.13-1.2l0.444-1.219c0.316-0.858,1.125-1.397,1.995-1.396c0.244,0,0.492,0.043,0.726,0.129l0.759,0.275
		l2.823-1.59L10.988,0l2.143,4.042H0V5.96h13.132L10.988,10.002z"/>
	<path id="inner" fill="#FFFFFF" d="M6.474,33.049c-0.048,0.13-0.079,0.263-0.097,0.393c-0.012,0.085-0.019,0.173-0.017,0.259
		c0,0.784,0.481,1.521,1.259,1.807l8.68,3.159c0.212,0.077,0.429,0.114,0.641,0.114c0.004,0,0.007,0,0.011,0
		c0.657,0,1.273-0.335,1.629-0.898c0.071-0.111,0.131-0.232,0.179-0.361l0.192-0.528c0.211-0.584,0.72-1.384,1.265-2.004
		c0.26-0.298,0.529-0.56,0.761-0.736l0.02-0.015l0.023-0.022c0.02-0.023,1.71-1.624,2.68-3.79c0.074-0.179,0.156-0.358,0.23-0.564
		c0.781-2.144,2.841-7.804,2.841-7.804c0.066-0.185,0.098-0.374,0.098-0.56c0-0.671-0.412-1.301-1.078-1.545l-0.165,0.45
		l0.164-0.451l-0.812-0.296c-0.184-0.067-0.375-0.099-0.561-0.099c-0.673-0.001-1.304,0.411-1.549,1.08l-0.297,0.82l-0.085-0.031
		l1.063-2.927c0.067-0.185,0.099-0.376,0.099-0.561c0-0.672-0.416-1.301-1.082-1.542l-0.81-0.294
		c-0.184-0.067-0.375-0.101-0.564-0.101c-0.633-0.001-1.227,0.368-1.496,0.966l-0.013,0.013l-0.874,2.394l-0.083-0.03L22.52,8.918
		c0.066-0.185,0.098-0.375,0.097-0.56c0.001-0.671-0.412-1.302-1.081-1.545l-0.811-0.295c-0.184-0.067-0.373-0.099-0.561-0.099
		c-0.67,0-1.301,0.41-1.547,1.078l-3.79,10.425l-0.085-0.031l3.168-8.721c0.067-0.187,0.099-0.379,0.099-0.566
		c0-0.67-0.412-1.299-1.078-1.542l-0.814-0.294c-0.184-0.069-0.375-0.101-0.562-0.101c-0.673,0-1.3,0.416-1.544,1.08L8.627,22.549
		L8.54,22.518l0.965-2.651l-0.003-0.091c-0.02-0.773-0.062-2.125-0.078-2.537c-0.037-0.631-0.393-1.311-0.891-1.933
		c-0.505-0.6-1.157-1.152-1.983-1.169c-0.024,0-0.064-0.001-0.127,0.005c-0.351,0.024-0.72,0.156-0.966,0.459
		c-0.248,0.306-0.332,0.696-0.332,1.14c0,0.009-0.001,0.035,0.001,0.074c0.015,1.024,0.219,8.154,0.254,9.344
		c0.003,0.106,0.005,0.171,0.005,0.172c0.024,0.548,0.102,1.222,0.261,1.959c0.146,1,1.03,3.775,1.021,4.987
		c0.001,0.171-0.02,0.298-0.039,0.345L6.474,33.049z"/>
	<path d="M16.94,39.501c-0.297,0-0.598-0.052-0.888-0.157l0,0L7.37,36.183c-1.067-0.392-1.727-1.4-1.731-2.472l0,0
		c0-0.022,0-0.032,0-0.032l0,0c0-0.121,0.011-0.234,0.024-0.333l0,0c0.024-0.176,0.065-0.359,0.135-0.543l0,0l0,0l0.144-0.396
		c0,0,0-0.001,0-0.001l0,0c0.004-0.023,0.007-0.065,0.007-0.114l0,0l0,0l0,0c-0.001-0.025,0-0.035,0-0.035l0,0
		c0.007-0.458-0.199-1.453-0.435-2.397l0,0c-0.23-0.941-0.478-1.839-0.571-2.428l0,0c-0.164-0.766-0.247-1.467-0.274-2.08l0,0H4.667
		c0-0.006-0.001-0.002,0-0.013l0,0c-0.001-0.008-0.001-0.019-0.002-0.031l0,0c0-0.031-0.001-0.077-0.003-0.129l0,0
		c-0.034-1.178-0.234-8.132-0.253-9.312l0,0c-0.003-0.048-0.003-0.091-0.003-0.103l0,0c0-0.016,0-0.03,0.001-0.036l0,0
		c-0.001-0.523,0.101-1.099,0.493-1.582l0,0c0.404-0.492,0.963-0.682,1.445-0.72l0,0c0.083-0.01,0.154-0.01,0.179-0.01l0,0
		c0.026,0,0.026,0.001,0.042,0.001l0,0c1.163,0.035,1.966,0.772,2.53,1.439l0,0c0.412,0.521,0.764,1.091,0.938,1.72l0,0l3.302-9.076
		c0.352-0.952,1.251-1.552,2.221-1.551l0,0c0.269-0.001,0.545,0.044,0.806,0.142l0,0l0.816,0.296
		c0.348,0.127,0.648,0.328,0.889,0.578l0,0c0.415-0.79,1.232-1.265,2.096-1.264l0,0c0.269-0.001,0.544,0.046,0.807,0.142l0,0
		l0.81,0.294c0.96,0.349,1.556,1.254,1.556,2.218l0,0v0.004V8.43l-0.003,0.013c-0.008,0.241-0.053,0.483-0.138,0.721l0,0
		l-2.231,6.129c0.073-0.007,0.147-0.01,0.222-0.01l0,0c0.008,0,0.016,0.001,0.023,0.001l0,0c0.267,0.001,0.535,0.049,0.79,0.143l0,0
		l0.81,0.294c0.956,0.348,1.556,1.25,1.556,2.218l0,0c0,0.268-0.047,0.543-0.144,0.807l0,0l-0.037,0.102
		c0.075-0.007,0.149-0.011,0.225-0.011l0,0c0.012,0,0.023,0.001,0.034,0.002l0,0c0.259,0.003,0.522,0.05,0.777,0.142l0,0
		l0.139,0.051l0-0.001l0.272,0.1l1.076,0.391l-0.039,0.107c0.578,0.447,0.917,1.142,0.916,1.87l0,0c0,0.268-0.047,0.54-0.141,0.805
		l0,0c0,0-2.06,5.661-2.84,7.802l0,0c-0.086,0.24-0.174,0.433-0.25,0.615l0,0c-0.978,2.181-2.597,3.775-2.805,3.982l0,0l-0.009,0.01
		l-0.03,0.028l-0.055,0.051l-0.031,0.024l-0.016,0.011c-0.172,0.13-0.417,0.365-0.654,0.636l0,0
		c-0.491,0.552-0.973,1.328-1.129,1.775l0,0l-0.192,0.529c-0.066,0.18-0.15,0.346-0.247,0.499l0,0
		c-0.487,0.772-1.335,1.233-2.237,1.233l0,0H16.94L16.94,39.501z M7.079,33.701c0.001,0.491,0.301,0.953,0.786,1.131l0,0
		l8.679,3.158c0.136,0.05,0.268,0.071,0.396,0.071l0,0h0.011c0.411,0,0.797-0.209,1.022-0.566l0,0
		c0.044-0.068,0.081-0.142,0.109-0.22l0,0l0.192-0.526c0.266-0.721,0.802-1.546,1.4-2.233l0,0c0.279-0.32,0.564-0.603,0.854-0.825
		l0,0c0.002-0.001,0.004-0.004,0.009-0.009l0,0c0.012-0.013,0.031-0.031,0.054-0.053l0,0c0.046-0.046,0.113-0.114,0.195-0.201l0,0
		c0.167-0.178,0.399-0.434,0.658-0.755l0,0c0.521-0.641,1.151-1.537,1.59-2.52l0,0c0.082-0.194,0.157-0.361,0.219-0.534l0,0
		c0.782-2.145,2.838-7.797,2.838-7.8l0,0c0.039-0.109,0.056-0.216,0.056-0.318l0,0c0-0.379-0.231-0.733-0.606-0.87l0,0l0.082-0.224
		h0l-0.082,0.224l-0.812-0.295c-0.104-0.039-0.211-0.057-0.314-0.057l0,0h-0.049c-0.362,0.019-0.693,0.245-0.824,0.604l0,0
		L23,22.383l-1.438-0.527l1.309-3.6c0.038-0.106,0.056-0.215,0.056-0.317l0,0c-0.001-0.376-0.234-0.73-0.608-0.866l0,0l-0.812-0.294
		c-0.105-0.039-0.211-0.056-0.316-0.058l0,0h-0.004c-0.352,0-0.686,0.207-0.837,0.542l0,0l-0.026,0.058l-1.086,2.973l-1.438-0.519
		l4.042-11.099c0.037-0.106,0.055-0.211,0.055-0.309l0,0l-0.001-0.006c0-0.003,0-0.006,0.001-0.009l0,0l-0.001,0l0,0
		c0-0.376-0.231-0.73-0.606-0.864l0,0l-0.814-0.296c-0.102-0.037-0.207-0.055-0.313-0.056l0,0c-0.379,0.001-0.734,0.231-0.87,0.604
		l0,0l-4.036,11.103l-1.437-0.526l3.413-9.392c0.039-0.109,0.056-0.217,0.056-0.322l0,0c0-0.376-0.231-0.732-0.603-0.866l0,0
		L15.866,7.44c-0.098-0.036-0.203-0.053-0.309-0.053l0,0c-0.377,0-0.732,0.232-0.869,0.605l0,0L9.059,23.465l-1.445-0.512
		l1.167-3.204c-0.02-0.776-0.061-2.087-0.075-2.469l0,0c-0.015-0.391-0.286-0.974-0.724-1.513l0,0
		c-0.458-0.546-0.959-0.913-1.433-0.913l0,0c-0.026,0-0.026,0-0.026,0l0,0H6.516l-0.023,0.003l-0.022,0.001
		c-0.213,0.016-0.376,0.091-0.455,0.195l0,0c-0.103,0.126-0.17,0.323-0.172,0.687l0,0c0,0.014,0,0.019,0,0.022l0,0l0.001,0.011v0.03
		c0.015,1.007,0.219,8.148,0.254,9.335l0,0c0.003,0.119,0.005,0.132,0.005,0.16l0,0c0.021,0.507,0.095,1.143,0.246,1.84l0,0
		l0.005,0.021l0.003,0.026c0.058,0.407,0.313,1.363,0.552,2.331l0,0c0.238,0.983,0.47,1.97,0.477,2.733l0,0v0.001v0.006v0.009v0.011
		c0,0.015,0,0.015,0,0.015l0,0c-0.007,0.238-0.013,0.37-0.082,0.576l0,0L7.15,33.295l-0.677-0.246l0.675,0.25
		c-0.028,0.075-0.047,0.156-0.059,0.244l0,0c-0.007,0.05-0.011,0.098-0.011,0.136l0,0V33.701L7.079,33.701z"/>
</g>
<g id="Layer_1">
</g>
</svg>
