<?xml version="1.0" encoding="iso-8859-1"?>
<!-- Generator: Adobe Illustrator 18.1.1, SVG Export Plug-In . SVG Version: 6.00 Build 0)  -->
<svg version="1.1" xmlns="http://www.w3.org/2000/svg" xmlns:xlink="http://www.w3.org/1999/xlink" x="0px" y="0px"
	 viewBox="0 0 26.477 38.301" style="enable-background:new 0 0 26.477 38.301;" xml:space="preserve">
<g id="Layer_11.svg">
	<path d="M7.858,6.093c0.247-0.094,0.499-0.132,0.735-0.132c0.867-0.001,1.676,0.535,1.996,1.395l0.401,1.101l2.743,1.545
		L11.589,5.96H24.72V4.042H11.589L13.732,0L4.855,5.001l2.356,1.327L7.858,6.093z"/>
	<path id="inner" fill="#FFFFFF" d="M7.563,31.107c0.373,0.407,0.874,0.878,1.476,1.345L9.038,32.45
		c0.427,0.387,1.397,1.035,2.327,1.732c0.92,0.663,1.791,1.475,1.835,1.706l0.157,0.432c0.048,0.132,0.109,0.253,0.177,0.363
		c0.356,0.564,0.975,0.899,1.631,0.899c0.217,0,0.436-0.037,0.647-0.113l8.683-3.159c0.78-0.287,1.262-1.024,1.262-1.808
		c0-0.089-0.007-0.174-0.017-0.258c-0.019-0.13-0.048-0.263-0.098-0.397l-0.191-0.523c-0.201-0.545-0.324-1.406-0.321-2.189
		c0-0.055,0-0.107,0.001-0.154c0.008-0.402,0.046-0.773,0.112-1.059l0.005-0.027l0.003-0.027c0.001-0.014,0.054-0.489,0.054-1.214
		c0-0.89-0.078-2.154-0.437-3.413c-0.058-0.184-0.112-0.373-0.185-0.577c-0.781-2.147-2.839-7.798-2.841-7.806
		c-0.246-0.667-0.874-1.082-1.546-1.082c-0.184,0-0.376,0.031-0.562,0.101h0l-0.809,0.294c-0.669,0.247-1.085,0.877-1.085,1.55
		c0,0.184,0.031,0.373,0.099,0.559l0.299,0.817l-0.085,0.031l-1.066-2.925c-0.246-0.667-0.873-1.082-1.542-1.08
		c-0.186,0-0.378,0.031-0.568,0.102l-0.805,0.292c-0.668,0.244-1.084,0.874-1.083,1.545c0,0.143,0.019,0.289,0.059,0.433
		l-0.002,0.019l0.874,2.404l-0.085,0.03L10.137,7.52C9.891,6.854,9.265,6.441,8.592,6.441c-0.184,0-0.376,0.031-0.565,0.102
		L7.22,6.835C6.553,7.081,6.137,7.71,6.139,8.383c0,0.184,0.031,0.373,0.098,0.557l3.796,10.423l-0.085,0.031l-3.178-8.72
		C6.525,10.007,5.897,9.59,5.224,9.59c-0.185,0-0.377,0.031-0.565,0.102L3.853,9.987C3.184,10.23,2.77,10.861,2.77,11.532
		c0,0.185,0.032,0.377,0.099,0.562l5.389,14.798l-0.087,0.031l-0.965-2.651l-0.06-0.067c-0.513-0.58-1.413-1.588-1.691-1.895
		c-0.573-0.595-1.655-0.962-2.713-0.985c-0.557,0.004-1.132,0.118-1.564,0.53c-0.255,0.241-0.46,0.578-0.458,0.972
		c0.003,0.413,0.204,0.781,0.513,1.141c0.683,0.79,5.424,6.119,6.215,7.008C7.517,31.056,7.561,31.104,7.563,31.107z M19.9,14.325
		L19.9,14.325L19.9,14.325L19.9,14.325z"/>
	<path d="M12.922,37.062c-0.093-0.149-0.174-0.314-0.242-0.497l0,0l-0.151-0.417c-0.011-0.015-0.029-0.037-0.051-0.063l0,0
		c-0.075-0.087-0.202-0.217-0.357-0.363l0,0c-0.313-0.29-0.742-0.646-1.187-0.965l0,0c-0.909-0.683-1.847-1.302-2.365-1.761l0,0
		c-0.622-0.485-1.141-0.972-1.538-1.405l0,0l0.532-0.486l0.643-0.322l-0.643,0.322l-0.532,0.486l-0.068-0.075L6.96,31.512
		c-0.016-0.018-0.033-0.038-0.051-0.059l0,0c-0.793-0.891-5.527-6.213-6.223-7.018l0,0C0.326,24.017,0.005,23.488,0,22.83l0,0l0,0
		c0-0.003,0-0.006,0-0.009l0,0v-0.004c0.003-0.653,0.334-1.156,0.681-1.483l0,0c0.627-0.595,1.415-0.725,2.075-0.729l0,0
		c0.988,0.03,1.974,0.282,2.743,0.814l0,0l-3.307-9.08C2.096,12.072,2.05,11.8,2.05,11.532l0,0C2.048,10.565,2.646,9.66,3.606,9.31
		l0,0l0.799-0.29c0.275-0.105,0.554-0.149,0.82-0.149l0,0c0.083,0,0.166,0.005,0.248,0.013l0,0C5.439,8.73,5.422,8.576,5.42,8.424
		l0,0C5.419,8.409,5.418,8.393,5.418,8.379l0,0V8.378c0-0.968,0.6-1.867,1.557-2.22l0,0l0.799-0.289
		C8.049,5.766,8.327,5.72,8.591,5.72l0,0c0.967-0.001,1.869,0.596,2.222,1.553l0,0l2.232,6.131c0.24-0.245,0.537-0.44,0.88-0.565
		l0,0l0.797-0.29c0.247-0.093,0.498-0.139,0.739-0.146l0,0c0.036-0.005,0.066-0.006,0.084-0.003l0,0h0.001
		c0.965,0,1.863,0.6,2.215,1.555l0,0l0.038,0.104c0.239-0.244,0.535-0.439,0.876-0.566l0,0l0.81-0.294l0,0
		c0.272-0.101,0.546-0.144,0.808-0.145l0,0c0.965,0,1.865,0.596,2.228,1.574l0,0l0.001,0c0.003,0.01,0.009,0.027,0.018,0.048l0,0
		c0.015,0.041,0.037,0.104,0.067,0.184l0,0c0.058,0.16,0.141,0.389,0.244,0.671l0,0c0.205,0.565,0.487,1.338,0.793,2.18l0,0
		c0.612,1.682,1.322,3.633,1.713,4.708l0,0c0.085,0.232,0.141,0.435,0.2,0.623l0,0c0.387,1.355,0.465,2.68,0.466,3.611l0,0
		c0,0.757-0.055,1.266-0.058,1.284l0,0l-0.007,0.063l-0.005,0.034l-0.011,0.05c-0.05,0.212-0.086,0.546-0.093,0.916l0,0
		c-0.001,0.03-0.001,0.071-0.002,0.149l0,0h0.001c0,0,0,0.003,0,0.014l0,0c-0.004,0.698,0.121,1.507,0.276,1.915l0,0l0.189,0.521
		c0.073,0.192,0.112,0.377,0.137,0.554l0,0c0.015,0.109,0.024,0.225,0.024,0.35l0,0c0,1.077-0.663,2.087-1.736,2.483l0,0
		l-8.687,3.162c-0.287,0.103-0.589,0.154-0.889,0.154l0,0C14.263,38.301,13.415,37.841,12.922,37.062L12.922,37.062z M14.032,36.072
		c0.031,0.083,0.069,0.158,0.11,0.225l0,0c0.223,0.353,0.612,0.564,1.023,0.564l0,0c0.134,0,0.271-0.023,0.4-0.07l0,0l8.682-3.159
		c0.489-0.179,0.789-0.641,0.791-1.132l0,0c-0.001-0.054-0.004-0.107-0.011-0.156l0,0c-0.013-0.093-0.032-0.175-0.062-0.254l0,0
		l-0.189-0.52c-0.244-0.672-0.362-1.557-0.365-2.412l0,0c0-0.001-0.001-0.018,0-0.027l0,0c0-0.055,0-0.112,0.001-0.169l0,0
		c0.009-0.432,0.046-0.838,0.122-1.172l0,0c0.003-0.02,0.049-0.457,0.049-1.139l0,0c0.001-0.847-0.076-2.052-0.404-3.196l0,0
		c-0.062-0.199-0.111-0.375-0.174-0.548l0,0c-0.787-2.161-2.829-7.769-2.841-7.803l0,0c-0.14-0.38-0.494-0.61-0.871-0.611l0,0
		c-0.103,0-0.211,0.017-0.31,0.055l0,0l-0.013-0.035l0.006,0.036l-0.805,0.293c-0.381,0.141-0.614,0.498-0.615,0.877l0,0
		c0.001,0.102,0.018,0.207,0.056,0.31l0,0l0.546,1.493l-1.438,0.526l-1.31-3.599c-0.135-0.364-0.463-0.589-0.817-0.609l0,0
		c-0.016,0.001-0.029,0.001-0.04,0l0,0h-0.01c-0.108,0-0.212,0.017-0.322,0.059l0,0l-0.804,0.291
		c-0.375,0.137-0.607,0.487-0.611,0.856l0,0c0,0.004,0,0.008,0,0.011l0,0v0.001c0,0.079,0.011,0.161,0.033,0.245l0,0l0.018,0.068
		l1.081,2.978l-1.438,0.517L9.461,7.769c-0.14-0.379-0.492-0.608-0.87-0.61l0,0C8.488,7.161,8.383,7.177,8.272,7.22l0,0L7.469,7.51
		C7.091,7.648,6.858,8.005,6.858,8.378l0,0v0.004c0,0.104,0.017,0.209,0.054,0.312l0,0l4.042,11.098l-1.437,0.523l-3.425-9.394
		C5.956,10.544,5.6,10.31,5.225,10.31l0,0c-0.106,0-0.209,0.017-0.32,0.059l0,0l-0.807,0.294c-0.376,0.135-0.609,0.492-0.609,0.869
		l0,0c0,0.102,0.019,0.212,0.056,0.315l0,0l5.637,15.481l-1.444,0.511l-1.161-3.19c-0.514-0.582-1.388-1.559-1.641-1.84l0,0
		c-0.354-0.392-1.306-0.759-2.189-0.766l0,0c-0.474,0.004-0.836,0.101-1.075,0.335l0,0c-0.152,0.144-0.23,0.302-0.232,0.426l0,0
		v0.013v0.004c0,0.169,0.082,0.376,0.337,0.676l0,0c0.673,0.777,5.421,6.113,6.215,7.007l0,0c0.064,0.075,0.074,0.083,0.121,0.139
		l0,0c0.342,0.37,0.808,0.807,1.368,1.24l0,0l-0.32,0.412l0.36-0.379c0.34,0.313,1.333,0.985,2.265,1.682l0,0
		c0.732,0.53,1.404,1.111,1.784,1.549l0,0c0.112,0.154,0.215,0.223,0.305,0.495l0,0l0.003-0.001L14.032,36.072L14.032,36.072z
		 M12.543,36.169C12.544,36.169,12.544,36.169,12.543,36.169L12.543,36.169L12.543,36.169L12.543,36.169z M19.934,14.308
		l0.609-0.305L19.934,14.308L19.934,14.308z M19.934,14.308l0.609-0.305L19.934,14.308L19.934,14.308z"/>
</g>
<g id="Layer_1">
</g>
</svg>
