<?xml version="1.0" encoding="iso-8859-1"?>
<!-- Generator: Adobe Illustrator 18.1.1, SVG Export Plug-In . SVG Version: 6.00 Build 0)  -->
<svg version="1.1" xmlns="http://www.w3.org/2000/svg" xmlns:xlink="http://www.w3.org/1999/xlink" x="0px" y="0px"
	 viewBox="0 0 29.579 42.614" style="enable-background:new 0 0 29.579 42.614;" xml:space="preserve">
<g id="Layer_8.svg">
	<path d="M6.045,18.013l-0.526-1.444c-0.086-0.238-0.127-0.484-0.127-0.723c-0.001-0.868,0.535-1.681,1.398-1.997l0.805-0.293
		c0.243-0.091,0.493-0.131,0.733-0.131c0.098,0,0.195,0.007,0.291,0.021l0.187-0.333c-0.028-0.14-0.045-0.279-0.045-0.416
		c-0.001-0.466,0.157-0.913,0.433-1.278l-3.233,1.715V0H4.042v13.133L0,10.989l5.001,8.877L6.045,18.013z"/>
	<path id="inner" fill="#FFFFFF" d="M28.744,36.16l-0.191-0.523c-0.201-0.545-0.324-1.406-0.322-2.189c0-0.057,0.001-0.108,0.003-0.155
		c0.008-0.401,0.045-0.773,0.11-1.059l0.007-0.028l0.003-0.026c0.001-0.013,0.054-0.488,0.054-1.213c0-0.89-0.078-2.156-0.438-3.413
		c-0.058-0.184-0.112-0.373-0.185-0.579c-0.781-2.146-2.839-7.796-2.841-7.805c-0.247-0.667-0.875-1.083-1.547-1.081
		c-0.183-0.001-0.372,0.029-0.558,0.099l0-0.001l-0.812,0.297c-0.67,0.247-1.086,0.876-1.084,1.55c0,0.184,0.031,0.372,0.097,0.556
		l0.301,0.82l-0.083,0.03l-1.067-2.923c-0.246-0.667-0.872-1.082-1.542-1.082c-0.187,0-0.379,0.031-0.568,0.102l-0.805,0.294
		c-0.67,0.243-1.083,0.874-1.082,1.543c-0.001,0.155,0.021,0.313,0.067,0.468v0.014l0.862,2.376l-0.085,0.03L13.24,11.834
		c-0.247-0.665-0.874-1.08-1.546-1.08c-0.184,0-0.376,0.031-0.565,0.102l-0.807,0.293c-0.669,0.247-1.083,0.875-1.083,1.549
		c0,0.184,0.031,0.372,0.098,0.556l3.797,10.422l-0.085,0.031l-3.178-8.718c-0.244-0.667-0.872-1.084-1.545-1.084
		c-0.185,0-0.377,0.031-0.565,0.102L6.954,14.3c-0.668,0.244-1.082,0.875-1.082,1.546c0,0.185,0.031,0.376,0.099,0.561l5.389,14.799
		l-0.086,0.03l-0.966-2.651l-0.06-0.067c-0.511-0.58-1.413-1.588-1.693-1.897c-0.572-0.595-1.653-0.962-2.711-0.984
		c-0.557,0.003-1.133,0.118-1.564,0.53c-0.256,0.24-0.46,0.577-0.458,0.97c0.003,0.415,0.204,0.782,0.513,1.141
		c0.683,0.792,5.424,6.12,6.214,7.009c0.071,0.081,0.114,0.129,0.115,0.132c0.373,0.406,0.874,0.878,1.476,1.345H12.14
		c0.427,0.387,1.397,1.034,2.327,1.73c0.918,0.663,1.79,1.475,1.833,1.706l0.158,0.434c0.047,0.129,0.109,0.251,0.18,0.364
		c0.353,0.561,0.972,0.896,1.628,0.898c0.219,0,0.438-0.039,0.648-0.114l8.683-3.159c0.78-0.288,1.262-1.024,1.26-1.808
		c0-0.089-0.005-0.175-0.016-0.258C28.823,36.427,28.794,36.294,28.744,36.16z M23.001,18.638L23.001,18.638L23.001,18.638
		L23.001,18.638z"/>
	<path d="M18.266,42.614c-0.901-0.001-1.749-0.46-2.236-1.233l0,0c-0.095-0.15-0.18-0.319-0.247-0.499l0,0l-0.152-0.419
		c-0.011-0.015-0.029-0.037-0.051-0.065l0,0c-0.075-0.087-0.203-0.217-0.358-0.362l0,0c-0.311-0.29-0.742-0.646-1.185-0.965l0,0
		c-0.907-0.682-1.845-1.3-2.364-1.759l0,0c-0.624-0.485-1.142-0.974-1.537-1.405l0,0l-0.07-0.076l-0.003-0.007
		c-0.015-0.017-0.032-0.037-0.051-0.058l0,0c-0.793-0.89-5.526-6.211-6.222-7.016l0,0c-0.357-0.412-0.674-0.935-0.687-1.583l0,0
		c-0.001-0.023-0.001-0.042,0-0.048l0,0l0,0c0.007-0.647,0.334-1.147,0.679-1.47l0,0c0.627-0.596,1.415-0.728,2.077-0.73l0,0
		c0.988,0.03,1.975,0.282,2.743,0.813l0,0l-3.305-9.076c-0.099-0.27-0.144-0.545-0.144-0.811l0,0
		c-0.001-0.965,0.595-1.87,1.555-2.221l0,0l0.801-0.293c0.275-0.103,0.553-0.148,0.819-0.148l0,0c0.083,0,0.165,0.005,0.246,0.013
		l0,0c-0.037-0.167-0.054-0.336-0.053-0.499l0,0c-0.001-0.969,0.597-1.871,1.557-2.226l0,0l0.799-0.29
		c0.275-0.104,0.553-0.149,0.818-0.149l0,0c0.969,0,1.869,0.599,2.223,1.555l0,0l2.231,6.129c0.239-0.244,0.536-0.439,0.878-0.563
		l0,0l0.8-0.293c0.275-0.103,0.554-0.148,0.82-0.148l0,0c0.966-0.001,1.866,0.599,2.218,1.555l0,0l0.038,0.104
		c0.239-0.244,0.535-0.439,0.876-0.566l0,0l1.416-0.517l0.042,0.083c0.028-0.002,0.055-0.003,0.082-0.003l0,0
		c0.034-0.005,0.061-0.006,0.078-0.002l0,0c0,0,0.003,0.001,0.003,0l0,0c0.968,0,1.866,0.602,2.227,1.575l0,0h-0.001
		c0.004,0.011,0.01,0.027,0.018,0.047l0,0c0.015,0.043,0.038,0.105,0.066,0.184l0,0c0.059,0.16,0.142,0.389,0.246,0.671l0,0
		c0.205,0.565,0.487,1.34,0.793,2.18l0,0c0.612,1.682,1.322,3.631,1.713,4.708l0,0c0.083,0.232,0.141,0.435,0.2,0.624l0,0
		c0.387,1.353,0.465,2.678,0.466,3.611l0,0c0,0.757-0.055,1.263-0.058,1.285l0,0l-0.007,0.074l-0.012,0.048l-0.004,0.018
		c-0.05,0.216-0.086,0.551-0.093,0.923l0,0c-0.001,0.044-0.003,0.087-0.003,0.133l0,0v0.089l-0.001,0.005
		c0.007,0.683,0.128,1.453,0.279,1.849l0,0l0.189,0.52l0,0c0.072,0.192,0.112,0.377,0.137,0.554l0,0
		c0.016,0.115,0.023,0.23,0.023,0.348l0,0c0.001,0.007,0.002,0.019,0,0.04l0,0v2.123l-0.48-0.641
		c-0.299,0.427-0.727,0.77-1.254,0.965l0,0l-8.688,3.161c-0.281,0.099-0.578,0.155-0.879,0.154l0,0
		C18.273,42.614,18.269,42.614,18.266,42.614L18.266,42.614z M17.135,40.389c0.027,0.074,0.066,0.15,0.112,0.226l0,0
		c0.219,0.349,0.609,0.561,1.02,0.561l0,0c0.133,0,0.27-0.023,0.401-0.07l0,0l8.68-3.158c0.49-0.18,0.788-0.641,0.789-1.131l0,0h0
		c0-0.007,0-0.015,0-0.027l0,0c-0.001-0.05-0.004-0.097-0.009-0.131l0,0c-0.013-0.092-0.032-0.173-0.06-0.25l0,0l0.279-0.103
		c0.001-0.001,0.002-0.002,0.003-0.003l0,0l-0.283,0.104l-0.189-0.521c-0.246-0.677-0.364-1.566-0.368-2.426l0,0
		c0-0.001,0-0.001,0-0.017l0,0c0.001-0.008,0.001-0.018,0.001-0.031l0,0c0-0.054,0.001-0.1,0.003-0.133l0,0
		c0.009-0.433,0.046-0.837,0.126-1.199l0,0c0.01-0.101,0.047-0.513,0.047-1.112l0,0c0-0.848-0.078-2.054-0.405-3.199l0,0
		c-0.062-0.196-0.112-0.372-0.175-0.548l0,0c-0.785-2.156-2.831-7.774-2.841-7.8l0,0c-0.109-0.298-0.351-0.505-0.629-0.58l0,0
		l-0.283-0.032c-0.089,0.003-0.176,0.019-0.261,0.051l0,0l-0.61,0.234l-0.005-0.009l-0.206,0.075
		c-0.383,0.141-0.614,0.495-0.614,0.872l0,0v0.004c0,0.104,0.016,0.208,0.052,0.307l0,0l0.55,1.504l-1.442,0.51l-1.309-3.591
		c-0.14-0.38-0.494-0.61-0.867-0.611l0,0c-0.108,0-0.212,0.018-0.321,0.058l0,0l-0.808,0.295c-0.346,0.125-0.569,0.435-0.603,0.775
		l0,0l0.002,0.007l-0.007,0.104c0.001,0.079,0.013,0.159,0.037,0.242l0,0l0.019,0.064l1.078,2.971l-1.443,0.503l-4.035-11.089
		c-0.141-0.38-0.495-0.611-0.872-0.612l0,0c-0.103,0.001-0.208,0.017-0.32,0.059l0,0l-0.803,0.293
		c-0.381,0.141-0.611,0.494-0.612,0.874l0,0c0,0.103,0.017,0.205,0.054,0.309l0,0l4.043,11.097l-1.437,0.525l-3.424-9.392
		c-0.138-0.379-0.494-0.612-0.868-0.614l0,0c-0.106,0.001-0.211,0.019-0.32,0.059l0,0L7.2,14.975
		c-0.377,0.137-0.608,0.492-0.609,0.87l0,0c0,0.106,0.017,0.211,0.056,0.316l0,0l5.636,15.48l-1.442,0.512l-1.164-3.19
		c-0.512-0.58-1.388-1.558-1.643-1.841l0,0c-0.352-0.392-1.303-0.757-2.188-0.764l0,0c-0.471,0.004-0.835,0.102-1.077,0.337l0,0
		c-0.151,0.141-0.227,0.297-0.23,0.424l0,0v0.001l0,0l0,0l0,0l0,0v0.012v0.004c0,0.171,0.082,0.376,0.338,0.675l0,0
		c0.671,0.779,5.419,6.114,6.21,7.003l0,0c0.067,0.077,0.082,0.09,0.126,0.143l0,0c0.343,0.37,0.808,0.806,1.367,1.239l0,0
		l0.883,0.683c0.421,0.305,0.931,0.665,1.423,1.033l0,0c0.73,0.53,1.403,1.113,1.783,1.551l0,0c0.112,0.154,0.213,0.222,0.303,0.493
		l0,0l0.003-0.001L17.135,40.389L17.135,40.389z M23.002,18.638l0.352-0.176L23.002,18.638L23.002,18.638z M23.002,18.638
		l0.352-0.176L23.002,18.638L23.002,18.638z M23.383,18.448l0.013-0.007L23.383,18.448L23.383,18.448z M23.383,18.448l0.013-0.007
		L23.383,18.448L23.383,18.448z"/>
</g>
<g id="Layer_1">
</g>
</svg>
