<?xml version="1.0" encoding="iso-8859-1"?>
<!-- Generator: Adobe Illustrator 18.1.1, SVG Export Plug-In . SVG Version: 6.00 Build 0)  -->
<svg version="1.1" xmlns="http://www.w3.org/2000/svg" xmlns:xlink="http://www.w3.org/1999/xlink" x="0px" y="0px"
	 viewBox="0 0 31.656 34.457" style="enable-background:new 0 0 31.656 34.457;" xml:space="preserve">
<g id="Layer_9.svg">
	<path d="M5.658,19.864c-0.139-0.263-0.234-0.552-0.238-0.883c-0.004-0.518,0.255-0.96,0.541-1.25V6.734l1.521,0.807
		c0.043-0.625,0.362-1.206,0.88-1.576L5.001,0L0,8.877l4.042-2.143v13.13H5.658z"/>
	<path id="inner" fill="#FFFFFF" d="M16.545,30.338c0.919,0.663,1.791,1.475,1.835,1.706l0.157,0.432
		c0.048,0.131,0.109,0.252,0.181,0.365c0.352,0.561,0.971,0.896,1.627,0.898c0.219,0,0.438-0.039,0.648-0.114l8.683-3.159
		c0.78-0.288,1.26-1.024,1.26-1.808c0-0.087-0.005-0.175-0.018-0.262c-0.017-0.127-0.048-0.259-0.095-0.389l-0.192-0.528
		c-0.201-0.545-0.324-1.406-0.321-2.189c0-0.057,0-0.108,0.001-0.155c0.008-0.401,0.044-0.773,0.111-1.057l0.005-0.028l0.004-0.027
		c0.001-0.013,0.052-0.487,0.052-1.209c0-0.89-0.078-2.157-0.438-3.417c-0.058-0.184-0.111-0.374-0.186-0.58
		c-0.78-2.144-2.84-7.804-2.84-7.804c-0.247-0.667-0.875-1.083-1.548-1.083c-0.181,0-0.372,0.03-0.558,0.1l0-0.001l-0.812,0.297
		c-0.668,0.247-1.084,0.876-1.084,1.55c0,0.184,0.031,0.372,0.097,0.556l0.301,0.82l-0.082,0.03l-1.068-2.925
		c-0.246-0.666-0.872-1.08-1.542-1.08c-0.185,0-0.379,0.031-0.568,0.102L19.35,9.673c-0.668,0.243-1.083,0.874-1.082,1.543
		c0,0.155,0.021,0.313,0.067,0.468v0.014l0.862,2.376l-0.085,0.03L15.318,3.677c-0.247-0.665-0.874-1.08-1.545-1.08
		c-0.184,0-0.377,0.031-0.565,0.102l-0.808,0.293c-0.667,0.247-1.083,0.875-1.082,1.549c0,0.184,0.031,0.372,0.097,0.556
		l3.797,10.422l-0.083,0.031l-3.18-8.718c-0.244-0.667-0.872-1.084-1.545-1.084c-0.185,0-0.377,0.031-0.565,0.102L9.032,6.143
		C8.365,6.387,7.95,7.017,7.951,7.689C7.95,7.874,7.982,8.064,8.049,8.25l5.389,14.799l-0.086,0.03l-0.965-2.651l-0.06-0.067
		c-0.513-0.58-1.413-1.588-1.693-1.897c-0.573-0.595-1.655-0.962-2.713-0.984c-0.557,0.003-1.132,0.118-1.563,0.53
		c-0.255,0.24-0.461,0.577-0.458,0.97c0.003,0.415,0.204,0.782,0.513,1.141c0.684,0.792,5.425,6.12,6.216,7.009
		c0.07,0.081,0.113,0.129,0.114,0.132c0.374,0.406,0.874,0.878,1.476,1.345h-0.001C14.646,28.995,15.615,29.642,16.545,30.338z
		 M25.08,10.481L25.08,10.481L25.08,10.481L25.08,10.481z"/>
	<path d="M20.344,34.457c-0.901-0.001-1.749-0.459-2.231-1.228l0,0c-0.101-0.156-0.185-0.325-0.252-0.507l0,0l-0.15-0.415
		c-0.011-0.015-0.03-0.038-0.053-0.066l0,0c-0.075-0.087-0.201-0.217-0.357-0.361l0,0c-0.313-0.291-0.742-0.646-1.176-0.96l0,0
		l0.42-0.582l-0.431,0.576c-0.91-0.683-1.849-1.303-2.366-1.761l0,0c-0.623-0.486-1.139-0.973-1.535-1.402l0,0l-0.068-0.076
		l-0.004-0.008c-0.015-0.017-0.032-0.037-0.05-0.058l0,0c-0.793-0.89-5.526-6.211-6.223-7.016l0,0
		c-0.361-0.418-0.682-0.948-0.687-1.607l0,0h0c0-0.003,0-0.007,0-0.009l0,0v-0.002c0.003-0.654,0.334-1.157,0.681-1.483l0,0
		c0.627-0.594,1.414-0.726,2.075-0.729l0,0c0.987,0.03,1.974,0.281,2.743,0.813l0,0L7.372,8.493C7.279,8.237,7.233,7.972,7.231,7.71
		l0,0c0-0.006,0-0.011,0-0.016l0,0c0-0.005,0-0.014,0-0.028l0,0c0.007-0.959,0.602-1.852,1.553-2.2l0,0l0.801-0.293
		c0.275-0.103,0.553-0.148,0.819-0.148l0,0c0.083,0,0.166,0.005,0.247,0.013l0,0C10.619,4.885,10.601,4.73,10.6,4.578l0,0
		c-0.001-0.014-0.001-0.029-0.001-0.042l0,0V4.535c0-0.968,0.601-1.867,1.557-2.22l0,0l0.799-0.29
		c0.276-0.105,0.556-0.148,0.82-0.148l0,0c0.967-0.001,1.865,0.597,2.22,1.553l0,0l2.231,6.13c0.239-0.244,0.536-0.439,0.878-0.563
		l0,0l0.8-0.293c0.275-0.103,0.554-0.148,0.82-0.148l0,0c0.967-0.001,1.865,0.599,2.218,1.553l0,0l0.039,0.105
		c0.239-0.244,0.536-0.44,0.877-0.566l0,0l1.415-0.517l0.042,0.083c0.054-0.004,0.107-0.006,0.16-0.006l0,0
		c0.969-0.001,1.869,0.599,2.224,1.556l0,0c0,0,2.06,5.659,2.84,7.803l0,0c0.086,0.236,0.142,0.442,0.202,0.63l0,0
		c0.387,1.356,0.465,2.682,0.466,3.615l0,0c0,0.754-0.054,1.255-0.06,1.313l0,0l-0.009,0.059l-0.011,0.058
		c-0.05,0.205-0.086,0.541-0.093,0.914l0,0c-0.001,0.031-0.001,0.075-0.001,0.133l0,0v0.02c0,0.002,0,0.003,0,0.006l0,0
		c-0.004,0.698,0.121,1.507,0.277,1.917l0,0l0.193,0.529c0.066,0.181,0.107,0.361,0.131,0.534l0,0
		c0.018,0.124,0.024,0.244,0.024,0.361l0,0c0.001,1.076-0.662,2.087-1.735,2.485l0,0l-8.688,3.161
		c-0.281,0.099-0.578,0.155-0.879,0.154l0,0C20.351,34.457,20.347,34.457,20.344,34.457L20.344,34.457z M19.212,32.228
		c0.031,0.082,0.067,0.154,0.115,0.231l0,0c0.217,0.347,0.607,0.56,1.017,0.56l0,0c0.133,0,0.27-0.023,0.402-0.07l0,0l8.68-3.158
		c0.49-0.18,0.789-0.642,0.791-1.133l0,0c0-0.058-0.004-0.112-0.011-0.165l0,0c-0.012-0.079-0.031-0.162-0.059-0.239l0,0
		l-0.191-0.525c-0.244-0.672-0.362-1.557-0.365-2.412l0,0c0,0-0.001-0.009,0-0.036l0,0c0-0.054,0-0.107,0.001-0.159l0,0
		c0.009-0.438,0.045-0.846,0.123-1.178l0,0v0.003h0.001c-0.001-0.001,0.048-0.443,0.048-1.132l0,0c0-0.848-0.077-2.056-0.406-3.203
		l0,0c-0.062-0.197-0.111-0.373-0.176-0.549l0,0c-0.78-2.144-2.837-7.796-2.838-7.799l0,0c-0.141-0.381-0.498-0.612-0.874-0.613l0,0
		c-0.101,0-0.205,0.017-0.305,0.055l0,0L24.56,10.93l-0.002-0.004l-0.206,0.075c-0.381,0.14-0.614,0.497-0.614,0.875l0,0
		c0,0.104,0.016,0.208,0.052,0.307l0,0l0.549,1.499l-1.436,0.518l-1.313-3.595c-0.14-0.38-0.494-0.61-0.867-0.611l0,0
		c-0.106,0-0.213,0.018-0.321,0.058l0,0l-0.807,0.295c-0.376,0.135-0.608,0.491-0.608,0.863l0,0v0.001v0.003
		c0,0.089,0.012,0.177,0.038,0.263l0,0l0.018,0.06l1.079,2.974l-1.443,0.503L14.644,3.927c-0.141-0.38-0.497-0.611-0.87-0.612l0,0
		c-0.105,0-0.211,0.019-0.321,0.06l0,0l-0.803,0.291c-0.381,0.14-0.612,0.494-0.612,0.868l0,0v0.001V4.54
		c0,0.103,0.017,0.208,0.052,0.309l0,0l4.043,11.093L14.7,16.474l-3.427-9.395c-0.138-0.379-0.494-0.612-0.868-0.614l0,0
		c-0.106,0.001-0.211,0.019-0.32,0.059l0,0L9.278,6.818c-0.343,0.124-0.567,0.431-0.603,0.77l0,0L8.68,7.601L8.671,7.714
		c0.002,0.093,0.019,0.191,0.055,0.29l0,0l5.637,15.48l-1.442,0.513l-1.162-3.191c-0.515-0.582-1.388-1.56-1.642-1.842l0,0
		C9.762,18.572,8.81,18.207,7.925,18.2l0,0c-0.471,0.004-0.834,0.101-1.075,0.336l0,0c-0.151,0.142-0.228,0.299-0.231,0.425l0,0
		v0.013v0.002v0.001c0,0.171,0.082,0.376,0.338,0.674l0,0c0.673,0.78,5.42,6.116,6.215,7.009l0,0
		c0.059,0.07,0.077,0.087,0.112,0.129l0,0c0.345,0.373,0.813,0.815,1.375,1.25l0,0l0.874,0.676c0.421,0.305,0.933,0.668,1.432,1.041
		l0,0l0-0.001c0.73,0.53,1.403,1.113,1.783,1.551l0,0c0.114,0.153,0.216,0.222,0.306,0.494l0,0l0.002,0L19.212,32.228L19.212,32.228
		z M25.081,10.481l0.698-0.176L25.081,10.481l0.698-0.176L25.081,10.481L25.081,10.481z"/>
</g>
<g id="Layer_1">
</g>
</svg>
