<?xml version="1.0" encoding="iso-8859-1"?>
<!-- Generator: Adobe Illustrator 18.1.1, SVG Export Plug-In . SVG Version: 6.00 Build 0)  -->
<svg version="1.1" xmlns="http://www.w3.org/2000/svg" xmlns:xlink="http://www.w3.org/1999/xlink" x="0px" y="0px"
	 viewBox="0 0 24.091 37.883" style="enable-background:new 0 0 24.091 37.883;" xml:space="preserve">
<g id="Layer_39.svg">
	<path d="M3.423,12.359c0.558,0.513,1.216,0.92,1.943,1.188l0.665-1.8c-0.489-0.18-0.932-0.455-1.31-0.801L3.423,12.359z"/>
	<path d="M4.43,5.374L2.993,4.101C2.491,4.668,2.096,5.333,1.84,6.064l1.811,0.633C3.824,6.205,4.09,5.756,4.43,5.374z"/>
	<path d="M3.435,8.219L1.519,8.318H1.518c0.041,0.786,0.236,1.534,0.555,2.21l1.735-0.819C3.593,9.253,3.463,8.751,3.435,8.219z"/>
	<path d="M17.71,5.556l1.912-0.163c-0.067-0.783-0.287-1.526-0.63-2.19l-1.707,0.878C17.516,4.53,17.665,5.027,17.71,5.556z"/>
	<path d="M17.579,1.418L17.579,1.418c-0.575-0.493-1.246-0.876-1.983-1.121l-0.602,1.822c0.494,0.164,0.946,0.423,1.336,0.756
		L17.579,1.418z"/>
	<path d="M7.001,2.125C6.217,2.179,5.473,2.387,4.801,2.718l0.849,1.72c0.453-0.223,0.952-0.362,1.482-0.398L7.001,2.125
		L7.001,2.125z"/>
	<path d="M12.236,2.214c0.464-0.189,0.97-0.294,1.507-0.294V0c-0.789,0-1.546,0.157-2.235,0.44L12.236,2.214z"/>
	<path d="M16.813,8.435l1.48,1.222c0.482-0.583,0.855-1.26,1.085-2.003l-1.832-0.569C17.39,7.583,17.139,8.04,16.813,8.435z"/>
	<path d="M8.585,3.037l0.395,0.22L8.656,4.233c0.129,0.042,0.253,0.092,0.377,0.146l0.802,0.36l0.428-0.769
		c0.186-0.335,0.42-0.641,0.691-0.907L9.608,1.694C9.207,2.09,8.861,2.54,8.585,3.037z"/>
	<path d="M15.363,9.534v2.036c0.409-0.117,0.802-0.273,1.169-0.47l-0.909-1.69C15.539,9.455,15.451,9.494,15.363,9.534z"/>
	<path id="inner" fill="#FFFFFF" d="M6.366,21.736c-0.284-0.72-0.786-1.975-0.942-2.359c-0.217-0.507-0.676-0.955-1.24-1.347
		c-0.565-0.38-1.229-0.682-1.912-0.688c-0.237,0-0.482,0.04-0.714,0.147c-0.455,0.173-0.857,0.644-0.836,1.204
		c0.001,0.257,0.062,0.517,0.169,0.798c0.37,0.976,3.003,7.606,3.441,8.712c0.04,0.099,0.063,0.16,0.065,0.161
		c0.21,0.51,0.519,1.122,0.924,1.766c0.276,0.519,0.964,1.456,1.597,2.425c0.638,0.937,1.179,1.997,1.14,2.23v0.459
		c0,0.141,0.016,0.276,0.044,0.402c0.186,0.865,0.954,1.516,1.876,1.517h9.236c0.921-0.001,1.69-0.652,1.876-1.519
		c0.026-0.126,0.042-0.261,0.042-0.401v-0.558c-0.003-0.622,0.202-1.547,0.503-2.317c0.143-0.369,0.305-0.706,0.466-0.953
		l0.013-0.021l0.013-0.026c0.012-0.03,1.052-2.112,1.221-4.478c0.009-0.195,0.024-0.39,0.024-0.608c0-2.283,0-8.298,0-8.306
		c-0.004-0.908-0.736-1.64-1.641-1.644l-0.001,0.48v-0.48h-0.865c-0.908,0.004-1.643,0.736-1.649,1.642l0.003,0.873h-0.09
		l-0.001-3.113c-0.003-0.909-0.737-1.642-1.643-1.642h-0.861c-0.877,0-1.588,0.683-1.641,1.539l-0.006,0.015l-0.003,2.53h-0.09
		V7.082c-0.004-0.908-0.736-1.639-1.642-1.642h-0.865c-0.906,0.003-1.641,0.733-1.645,1.639l0.003,11.094h-0.09l-0.005-9.28
		c0-0.908-0.733-1.645-1.641-1.645H8.133c-0.909,0-1.642,0.737-1.645,1.643l0.001,15.75H6.399v-2.823L6.366,21.736z"/>
	<path d="M9.977,37.883c-1.269-0.002-2.323-0.896-2.579-2.083l0,0c-0.038-0.176-0.059-0.362-0.059-0.557l0,0v-0.44
		c-0.007-0.025-0.02-0.065-0.041-0.114l0,0c-0.045-0.116-0.122-0.281-0.218-0.467l0,0c-0.192-0.373-0.466-0.836-0.765-1.274l0,0
		c-0.611-0.938-1.271-1.83-1.609-2.444l0,0c-0.418-0.667-0.739-1.3-0.965-1.845l0,0c-0.004-0.009-0.007-0.013-0.008-0.018l0,0
		c-0.004-0.008-0.005-0.012-0.008-0.018l0,0c-0.004-0.011-0.009-0.021-0.015-0.036l0,0c-0.012-0.03-0.028-0.069-0.048-0.12l0,0
		c-0.439-1.108-3.068-7.728-3.444-8.72l0,0c-0.125-0.329-0.212-0.673-0.217-1.036l0,0C0,18.681,0,18.659,0,18.65l0,0
		c0.017-0.887,0.584-1.534,1.256-1.815l0,0v0c0.346-0.159,0.7-0.213,1.023-0.213l0,0c0.894,0.013,1.672,0.387,2.316,0.818l0,0
		c0.446,0.312,0.861,0.665,1.176,1.105l0,0L5.769,8.889c0.003-1.301,1.056-2.36,2.363-2.36l0,0h0.865
		c0.372,0,0.723,0.086,1.035,0.239l0,0c0.156-1.155,1.146-2.044,2.343-2.048l0,0h0.867c1.302,0.004,2.354,1.058,2.36,2.363l0,0
		v6.522c0.309-0.148,0.655-0.23,1.02-0.23l0,0h0.86c1.303-0.001,2.359,1.055,2.363,2.361l0,0v0.112
		c0.308-0.147,0.653-0.23,1.017-0.232l0,0h0.149V15.61l0.72,0.004h0.716v0.113c0.95,0.306,1.638,1.196,1.642,2.25l0,0
		c0,0.008,0,6.023,0,8.306l0,0c0,0.25-0.017,0.461-0.026,0.659l0,0c-0.172,2.389-1.154,4.446-1.273,4.702l0,0l-0.007,0.016
		l-0.017,0.034l-0.029,0.056l-0.014,0.025l-0.021,0.033c-0.12,0.183-0.27,0.486-0.398,0.823l0,0
		c-0.271,0.677-0.457,1.554-0.454,2.032l0,0l0,0v0.009v0.013v0.557c0,0.196-0.022,0.38-0.058,0.553l0,0
		c-0.257,1.191-1.311,2.084-2.58,2.086l0,0H9.977L9.977,37.883z M8.777,35.243c0,0.088,0.011,0.171,0.028,0.252l0,0
		c0.116,0.54,0.598,0.95,1.172,0.949l0,0h9.236c0.573,0.001,1.056-0.409,1.172-0.947l0,0c0.017-0.081,0.026-0.167,0.026-0.253l0,0
		l0.001-0.517c0-0.005-0.001-0.02-0.001-0.053l0,0c0.005-0.769,0.226-1.719,0.552-2.564l0,0c0.155-0.401,0.33-0.769,0.522-1.067l0,0
		c0.001-0.002,0.003-0.006,0.005-0.011l0,0c0.008-0.016,0.019-0.038,0.032-0.069l0,0c0.028-0.06,0.067-0.146,0.115-0.257l0,0
		c0.096-0.223,0.226-0.544,0.36-0.933l0,0c0.27-0.781,0.556-1.839,0.631-2.916l0,0c0.011-0.208,0.024-0.388,0.024-0.573l0,0
		c0-2.284,0-8.298,0-8.303l0,0c-0.003-0.514-0.416-0.925-0.924-0.928l0,0h-0.861c-0.513,0.003-0.929,0.417-0.931,0.921l0,0
		l0.005,1.594h-1.532l-0.001-3.831c-0.001-0.514-0.414-0.923-0.924-0.925l0,0l-0.86,0.001c-0.495-0.003-0.894,0.385-0.924,0.863l0,0
		l-0.005,0.089l-0.002,3.132h-1.528V7.085c-0.003-0.515-0.414-0.925-0.922-0.926l0,0h-0.863c-0.514,0.001-0.926,0.413-0.928,0.919
		l0,0l0.003,11.814h-1.53l-0.005-10c0-0.512-0.413-0.925-0.921-0.925l0,0H8.132C7.623,7.966,7.21,8.382,7.207,8.891l0,0l0.003,16.47
		H5.679v-3.404c-0.286-0.723-0.772-1.938-0.917-2.297l0,0c-0.127-0.31-0.483-0.692-0.98-1.032l0,0
		c-0.496-0.337-1.045-0.566-1.51-0.566l0,0c-0.157,0-0.295,0.027-0.413,0.081l0,0l-0.02,0.009l-0.026,0.011
		c-0.194,0.067-0.386,0.31-0.373,0.485l0,0l0.001,0.011v0.03c0,0.144,0.034,0.317,0.123,0.546l0,0c0.364,0.959,3,7.599,3.436,8.701
		l0,0c0.029,0.072,0.052,0.128,0.057,0.142l0,0l0.005,0.012c0.192,0.468,0.484,1.048,0.867,1.656l0,0l0.015,0.023l0.012,0.022
		c0.221,0.424,0.921,1.39,1.556,2.36l0,0c0.49,0.721,0.91,1.474,1.125,2.009l0,0c0.069,0.193,0.131,0.323,0.141,0.599l0,0
		c0,0.023-0.001,0.042-0.001,0.057l0,0V35.243L8.777,35.243z"/>
</g>
<g id="Layer_1">
</g>
</svg>
