<?xml version="1.0" encoding="iso-8859-1"?>
<!-- Generator: Adobe Illustrator 18.1.1, SVG Export Plug-In . SVG Version: 6.00 Build 0)  -->
<svg version="1.1" xmlns="http://www.w3.org/2000/svg" xmlns:xlink="http://www.w3.org/1999/xlink" x="0px" y="0px"
	 viewBox="0 0 24.089 37.883" style="enable-background:new 0 0 24.089 37.883;" xml:space="preserve">
<g id="Layer_37.svg">
	<path d="M6.008,13.738v-2.006c-1.505-0.568-2.577-2.016-2.58-3.72C3.432,5.814,5.21,4.035,7.409,4.03
		c0.578,0,1.123,0.126,1.622,0.349l0.803,0.36l0.428-0.769c0.682-1.224,1.981-2.05,3.48-2.05c2.197,0.005,3.976,1.783,3.98,3.981
		c-0.003,1.62-0.973,3.011-2.361,3.633v2.036c2.47-0.705,4.28-2.972,4.281-5.669C19.64,2.642,17,0.001,13.742,0
		c-1.921,0-3.63,0.921-4.706,2.343C8.52,2.193,7.974,2.111,7.409,2.111c-3.259,0.001-5.9,2.642-5.9,5.9
		C1.509,10.787,3.427,13.107,6.008,13.738z"/>
	<path id="inner" fill="#FFFFFF" d="M8.099,35.645c0.187,0.868,0.954,1.518,1.876,1.519l9.236,0.001c0.922-0.002,1.69-0.652,1.876-1.519
		c0.026-0.126,0.044-0.261,0.044-0.401v-0.558c-0.003-0.622,0.202-1.547,0.503-2.317c0.141-0.369,0.304-0.707,0.464-0.953
		l0.014-0.025l0.012-0.023c0.012-0.03,1.052-2.113,1.221-4.48c0.009-0.193,0.024-0.389,0.024-0.606c0-2.283,0-8.299,0-8.307
		c-0.004-0.907-0.734-1.639-1.639-1.643l-0.003,0.48l0,0v-0.48h-0.865c-0.908,0.004-1.643,0.734-1.648,1.642l0.003,0.873h-0.089
		l-0.003-3.113c-0.003-0.909-0.737-1.643-1.642-1.642h-0.863c-0.867,0-1.572,0.669-1.639,1.512l-0.008,0.015l-0.003,2.556h-0.09
		V7.081c-0.004-0.906-0.734-1.639-1.641-1.642h-0.867c-0.906,0.002-1.639,0.734-1.645,1.639l0.003,11.095h-0.09l-0.005-9.279
		c-0.001-0.908-0.733-1.645-1.639-1.645H8.131c-0.909,0-1.641,0.737-1.645,1.642l0.003,15.75H6.398v-2.822l-0.034-0.085
		c-0.283-0.718-0.785-1.974-0.942-2.359c-0.216-0.506-0.676-0.954-1.238-1.346c-0.566-0.38-1.229-0.683-1.913-0.688
		c-0.235,0-0.48,0.04-0.713,0.146c-0.455,0.175-0.857,0.646-0.836,1.205c0,0.257,0.061,0.517,0.168,0.798
		c0.372,0.976,3.003,7.606,3.443,8.712c0.038,0.099,0.063,0.159,0.063,0.16c0.211,0.51,0.517,1.121,0.921,1.763
		c0.297,0.549,0.975,1.473,1.599,2.43c0.638,0.937,1.179,1.997,1.14,2.229v0.46C8.056,35.385,8.073,35.52,8.099,35.645z"/>
	<path d="M9.974,37.883c-1.269-0.002-2.323-0.894-2.579-2.086l0,0l0.704-0.152l-0.704,0.15c-0.036-0.167-0.06-0.35-0.06-0.549l0,0
		v-0.444c-0.008-0.024-0.021-0.065-0.04-0.112l0,0c-0.046-0.115-0.122-0.281-0.218-0.467l0,0c-0.193-0.372-0.467-0.835-0.766-1.274
		l0,0c-0.605-0.931-1.265-1.822-1.616-2.457l0,0c-0.421-0.67-0.742-1.308-0.967-1.854l0,0l-0.004-0.009l0,0l-0.001-0.001l-0.05-0.12
		v-0.006c-0.004-0.01-0.008-0.021-0.012-0.032l0,0c-0.441-1.109-3.068-7.729-3.447-8.72l0,0c-0.123-0.322-0.208-0.658-0.214-1.016
		l0,0C-0.001,18.693,0,18.661,0,18.649l0,0c0.016-0.895,0.594-1.547,1.274-1.824l0,0c0.34-0.152,0.685-0.203,1-0.203l0,0
		c0.898,0.011,1.675,0.388,2.319,0.817l0,0c0.444,0.313,0.86,0.665,1.174,1.105l0,0L5.767,8.888c0.005-1.299,1.056-2.36,2.364-2.36
		l0,0h0.867c0.371,0,0.722,0.086,1.034,0.238l0,0c0.155-1.154,1.143-2.045,2.342-2.048l0,0h0.868
		c1.303,0.004,2.354,1.06,2.359,2.362l0,0v6.524c0.308-0.148,0.654-0.231,1.02-0.231l0,0h0.813c0.04-0.003,0.071-0.001,0.092,0l0,0
		c0.002,0,0.003,0,0.005,0l0,0c1.281,0.024,2.311,1.072,2.313,2.36l0,0l0,0.112c0.308-0.147,0.653-0.23,1.017-0.232l0,0h0.152
		v-0.002l0.719,0.002h0.714v0.113c0.951,0.305,1.638,1.197,1.642,2.25l0,0c0,0.007,0,6.023,0,8.307l0,0
		c0,0.249-0.016,0.46-0.025,0.657l0,0c-0.178,2.448-1.203,4.549-1.281,4.72l0,0l-0.003,0.008l-0.02,0.037l-0.025,0.047l-0.033,0.054
		c-0.119,0.181-0.268,0.484-0.397,0.822l0,0c-0.269,0.677-0.457,1.554-0.454,2.032l0,0l0,0v0.009v0.014v0.558
		c0,0.2-0.024,0.384-0.06,0.553l0,0c-0.256,1.191-1.31,2.081-2.58,2.085l0,0H9.974L9.974,37.883z M9.974,36.443l9.234,0.001
		c0.577,0,1.057-0.41,1.174-0.947l0,0c0.018-0.088,0.029-0.172,0.029-0.253l0,0v-0.519c0-0.008-0.001-0.023-0.001-0.053l0,0
		c0.005-0.769,0.226-1.719,0.551-2.561l0,0c0.156-0.403,0.332-0.777,0.516-1.057l0,0l0,0c0.004-0.009,0.002-0.004,0.01-0.022l0,0
		c0.008-0.015,0.019-0.039,0.033-0.068l0,0c0.028-0.059,0.066-0.147,0.115-0.258l0,0c0.095-0.223,0.225-0.544,0.36-0.934l0,0
		c0.269-0.779,0.554-1.838,0.631-2.915l0,0c0.011-0.207,0.023-0.388,0.023-0.572l0,0c0-2.284,0-8.299,0-8.304l0,0
		c-0.003-0.514-0.413-0.923-0.922-0.926l0,0l0.001-0.238h-0.001v0.238h-0.863c-0.515,0.003-0.929,0.416-0.931,0.92l0,0l0.005,1.594
		h-1.53l-0.003-3.831c-0.003-0.497-0.389-0.898-0.871-0.924l0,0h-0.915c-0.488-0.001-0.884,0.377-0.922,0.85l0,0l-0.006,0.073
		l-0.004,3.162h-1.528V7.083c-0.003-0.512-0.413-0.923-0.921-0.925l0,0h-0.864c-0.512,0.001-0.925,0.414-0.927,0.919l0,0
		l0.004,11.815H9.921L9.918,8.895C9.916,8.38,9.503,7.967,8.998,7.967l0,0H8.131c-0.511,0-0.922,0.414-0.925,0.923l0,0l0.003,16.47
		H5.678v-3.402c-0.284-0.721-0.771-1.94-0.92-2.301l0,0c-0.123-0.307-0.48-0.69-0.976-1.031l0,0
		C3.283,18.289,2.735,18.06,2.27,18.06l0,0c-0.155,0.001-0.294,0.027-0.416,0.082l0,0l-0.02,0.009l-0.02,0.008
		c-0.195,0.067-0.385,0.306-0.376,0.48l0,0h0l0.001,0.025v0.028c0,0.14,0.034,0.313,0.122,0.541l0,0
		c0.365,0.961,3.001,7.601,3.442,8.711l0,0c0.03,0.079,0.048,0.122,0.058,0.144l0,0c0.001,0.003,0.001,0.004,0.001,0.005l0,0
		c0,0,0,0.001,0.001,0.001l0,0c0,0,0.001,0.001,0.003,0.008l0,0c0.194,0.467,0.481,1.039,0.858,1.638l0,0l0.012,0.016l0.013,0.025
		c0.245,0.462,0.933,1.407,1.56,2.367l0,0c0.49,0.721,0.91,1.474,1.125,2.01l0,0c0.069,0.192,0.132,0.32,0.143,0.598l0,0
		c0,0.026-0.001,0.05-0.003,0.068l0,0v0.418c0,0.081,0.011,0.167,0.029,0.25l0,0H8.803C8.921,36.037,9.401,36.443,9.974,36.443
		L9.974,36.443z"/>
</g>
<g id="Layer_1">
</g>
</svg>
