<?xml version="1.0" encoding="iso-8859-1"?>
<!-- Generator: Adobe Illustrator 18.1.1, SVG Export Plug-In . SVG Version: 6.00 Build 0)  -->
<svg version="1.1" xmlns="http://www.w3.org/2000/svg" xmlns:xlink="http://www.w3.org/1999/xlink" x="0px" y="0px"
	 viewBox="0 0 35.722 38.481" style="enable-background:new 0 0 35.722 38.481;" xml:space="preserve">
<g id="Layer_30.svg">
	<path d="M34.463,1.261C33.626,0.424,32.519,0,31.422,0c-0.866,0-1.738,0.263-2.478,0.788C28.203,0.264,27.331,0,26.464,0
		c-0.866,0-1.737,0.263-2.478,0.788C23.245,0.264,22.373,0,21.507,0c-0.866,0-1.738,0.263-2.478,0.788
		C18.287,0.264,17.415,0,16.549,0c-1.096,0-2.202,0.423-3.038,1.262c-0.592,0.59-0.971,1.317-1.146,2.078h-6.2l1.824-3.109L0,4.301
		l6.834,3.48c0.097-0.246,0.235-0.475,0.417-0.67L6.165,5.261h6.2c0.09,0.392,0.237,0.774,0.437,1.134l0.566-0.206
		c0.246-0.092,0.497-0.133,0.736-0.133c0.868-0.001,1.675,0.538,1.993,1.396l0.418,1.145c0.012,0,0.024,0.002,0.037,0.002
		c0.093,0,0.185-0.015,0.278-0.021c0.221-0.234,0.497-0.423,0.819-0.542l0.803-0.292V7.743c0.246-0.092,0.496-0.131,0.733-0.131
		c0.702,0,1.361,0.355,1.758,0.945c0.188,0.024,0.378,0.042,0.567,0.042c0.868,0.001,1.739-0.264,2.48-0.786
		c0.741,0.524,1.614,0.787,2.479,0.786c0.868,0.001,1.739-0.264,2.48-0.786c0.741,0.524,1.613,0.787,2.479,0.786h0.004
		c1.097,0,2.199-0.425,3.035-1.258c0.838-0.839,1.26-1.944,1.259-3.04C35.723,3.203,35.301,2.098,34.463,1.261z M33.106,5.983
		c-0.467,0.465-1.071,0.694-1.682,0.695c-0.612-0.001-1.214-0.23-1.682-0.695c0.001,0.002-0.026-0.03-0.082-0.094l-1.426-0.003
		c-0.059,0.066-0.086,0.098-0.087,0.097c-0.466,0.464-1.07,0.693-1.681,0.694c-0.612-0.001-1.214-0.23-1.682-0.695
		c0.001,0.002-0.026-0.031-0.085-0.096L23.274,5.89c-0.058,0.064-0.084,0.096-0.085,0.095c-0.465,0.464-1.07,0.693-1.681,0.694
		c-0.612-0.001-1.214-0.23-1.681-0.695c0.001,0.002-0.025-0.03-0.083-0.094l-1.425-0.003c-0.059,0.066-0.086,0.098-0.087,0.097
		c-0.465,0.464-1.07,0.693-1.681,0.694c-0.612-0.001-1.214-0.23-1.682-0.695c-0.468-0.469-0.696-1.071-0.697-1.682
		c0.001-0.613,0.23-1.216,0.697-1.684c0.467-0.468,1.068-0.696,1.68-0.697c0.611,0.001,1.216,0.231,1.684,0.697
		c-0.001-0.001,0.024,0.028,0.084,0.096l1.428-0.003c0.058-0.066,0.081-0.093,0.081-0.093c0.467-0.468,1.07-0.696,1.682-0.697
		c0.611,0.001,1.215,0.231,1.684,0.697c-0.001-0.001,0.024,0.028,0.084,0.096l1.428-0.003c0.058-0.066,0.081-0.093,0.081-0.093
		c0.468-0.468,1.07-0.696,1.681-0.697c0.612,0.001,1.216,0.231,1.685,0.697c-0.002-0.001,0.024,0.028,0.084,0.096L29.66,2.71
		c0.058-0.066,0.081-0.093,0.081-0.093c0.468-0.468,1.07-0.696,1.681-0.697c0.612,0.001,1.216,0.231,1.683,0.697l0.001,0.001
		c0.465,0.467,0.694,1.07,0.696,1.683C33.801,4.912,33.573,5.516,33.106,5.983z"/>
	<path id="inner" fill="#FFFFFF" d="M10.047,32.62c0.456,0.406,1.418,1.049,2.339,1.74c0.919,0.663,1.79,1.475,1.834,1.705l0.151,0.414
		l0.004,0.014c0.287,0.786,1.026,1.267,1.809,1.266c0.004,0,0.007,0,0.011,0c0.214,0,0.429-0.038,0.638-0.111l8.682-3.161
		c0.78-0.284,1.263-1.022,1.262-1.808c0.001-0.217-0.037-0.438-0.114-0.652l-0.004-0.014l-0.186-0.512
		c-0.201-0.546-0.324-1.405-0.323-2.189c0-0.056,0.001-0.107,0.003-0.155c0.007-0.4,0.044-0.773,0.11-1.057l0.005-0.026l0.004-0.029
		c0.001-0.014,0.053-0.489,0.053-1.211c0-0.891-0.078-2.157-0.438-3.414c-0.057-0.185-0.11-0.374-0.186-0.581
		c-0.78-2.144-4.973-13.664-4.973-13.664c-0.246-0.667-0.874-1.081-1.546-1.081c-0.182,0-0.372,0.03-0.558,0.099l0-0.001
		l-0.813,0.296c-0.668,0.247-1.085,0.877-1.085,1.55c0,0.184,0.031,0.372,0.097,0.555l2.435,6.681l-0.084,0.031l-3.529-9.687
		c-0.246-0.667-0.872-1.082-1.544-1.082c-0.185,0-0.377,0.031-0.566,0.102l-0.804,0.294c-0.67,0.244-1.085,0.874-1.084,1.543
		c0,0.155,0.022,0.313,0.068,0.468v0.014l3.323,9.138l-0.084,0.03L11.159,7.698c-0.246-0.665-0.874-1.08-1.545-1.08
		c-0.184,0-0.376,0.03-0.564,0.101L8.242,7.013C7.573,7.258,7.159,7.888,7.159,8.561c0,0.184,0.031,0.373,0.098,0.557l3.795,10.422
		l-0.084,0.03l-3.177-8.718c-0.244-0.667-0.873-1.084-1.545-1.084c-0.185,0-0.377,0.031-0.565,0.102l-0.807,0.294
		c-0.669,0.244-1.084,0.874-1.082,1.545c0,0.185,0.031,0.375,0.098,0.561l5.389,14.8l-0.086,0.031L8.227,24.45l-0.061-0.068
		c0-0.001-1.412-1.586-1.689-1.893c-0.574-0.595-1.655-0.964-2.713-0.986c-0.557,0.004-1.131,0.119-1.564,0.529
		c-0.254,0.241-0.459,0.579-0.457,0.972c0.003,0.414,0.204,0.78,0.512,1.139c0.746,0.864,6.327,7.137,6.329,7.138
		C8.955,31.689,9.45,32.156,10.047,32.62z M18.787,8.643L18.787,8.643L18.787,8.643L18.787,8.643z"/>
	<path d="M16.161,38.479h-0.216l-0.018-0.014c-0.977-0.094-1.865-0.735-2.227-1.725l0,0l-0.008-0.022l-0.006-0.022l-0.135-0.368
		c-0.011-0.015-0.029-0.038-0.052-0.065l0,0c-0.075-0.087-0.201-0.218-0.357-0.362l0,0c-0.313-0.29-0.742-0.645-1.187-0.967l0,0
		c-0.898-0.675-1.832-1.293-2.37-1.764l0,0C8.979,32.7,8.473,32.225,8.081,31.8l0,0c-0.004-0.004-0.006-0.006-0.006-0.007l0,0
		c-0.003-0.003-0.006-0.007-0.009-0.01l0,0c0,0,0,0-0.001,0l0,0c-0.001,0-0.001-0.001-0.002-0.002l0,0
		c-0.001-0.001-0.003-0.003-0.004-0.004l0,0c-0.001-0.001-0.003-0.002-0.003-0.004l0,0c-0.002-0.001-0.003-0.003-0.005-0.005l0,0
		L8.05,31.766l-0.003-0.004l-0.003-0.001L8.04,31.756c-0.003-0.003-0.007-0.007-0.012-0.014l0,0
		c-0.011-0.012-0.026-0.03-0.048-0.053l0,0c-0.041-0.046-0.101-0.114-0.179-0.2l0,0c-0.154-0.174-0.376-0.422-0.643-0.723l0,0
		c-0.535-0.602-1.257-1.414-2.001-2.252l0,0c-1.489-1.678-3.067-3.458-3.451-3.903l0,0c-0.35-0.407-0.664-0.919-0.684-1.556l0,0
		C1.021,23.038,1.02,23.019,1.02,23l0,0l0.001-0.001c0.003-0.652,0.331-1.157,0.681-1.489l0,0c0.628-0.592,1.413-0.723,2.075-0.727
		l0,0c0.988,0.031,1.974,0.283,2.743,0.816l0,0l-3.309-9.085c-0.089-0.251-0.134-0.508-0.138-0.761l0,0
		c-0.001-0.015-0.002-0.031-0.002-0.045l0,0v-0.001c0-0.967,0.599-1.868,1.556-2.218l0,0l0.801-0.291
		c0.274-0.104,0.551-0.148,0.818-0.148l0,0c0.083,0,0.165,0.005,0.247,0.013l0,0c-0.037-0.167-0.054-0.335-0.054-0.5l0,0
		C6.438,7.594,7.035,6.689,7.995,6.337l0,0l0.801-0.293c0.278-0.104,0.555-0.147,0.818-0.147l0,0c0.759,0,1.479,0.37,1.924,0.993
		l0,0c0.251-0.277,0.571-0.499,0.946-0.635l0,0l0.799-0.293c0.274-0.102,0.553-0.147,0.818-0.147l0,0
		c0.968-0.001,1.866,0.599,2.22,1.555l0,0l0.366,1.005c0.24-0.244,0.536-0.439,0.877-0.566l0,0l0.808-0.294l0,0
		c0.013-0.005,0.027-0.01,0.04-0.015l0,0l0.716-0.261l0.033,0.131c0.007,0,0.015,0,0.022,0l0,0c0.967,0,1.868,0.598,2.222,1.555l0,0
		c0,0,4.193,11.521,4.972,13.662l0,0c0.087,0.24,0.146,0.446,0.203,0.632l0,0c0.388,1.353,0.466,2.679,0.466,3.613l0,0
		c0.001,0.753-0.055,1.26-0.06,1.31l0,0l-0.008,0.054l-0.003,0.019l-0.011,0.046c-0.049,0.207-0.086,0.543-0.091,0.915l0,0
		c-0.001,0.046-0.003,0.09-0.003,0.134l0,0v0.006c0,0.004,0,0.009,0,0.017l0,0v0.037v0c0.002,0.691,0.126,1.478,0.28,1.883l0,0
		l0.193,0.534l0.004,0.011c0.097,0.276,0.149,0.562,0.15,0.852l0,0h0c0,0,0,0.001,0,0.015l0,0c0,0.004,0,0.007,0,0.012l0,0v0.719
		h-0.099c-0.222,0.788-0.807,1.461-1.636,1.764l0,0l-8.689,3.165c-0.27,0.095-0.554,0.148-0.841,0.152l0,0
		c-0.008,0.002-0.019,0.002-0.032,0.002l0,0C16.189,38.481,16.176,38.48,16.161,38.479L16.161,38.479z M16.222,37.039
		c0.121-0.004,0.245-0.026,0.366-0.069l0,0l8.682-3.16c0.482-0.176,0.782-0.631,0.788-1.116l0,0c0-0.007,0-0.016,0-0.029l0,0
		c0-0.126-0.023-0.262-0.071-0.394l0,0l-0.008-0.019l-0.002-0.01l-0.179-0.491c-0.245-0.677-0.364-1.569-0.368-2.428l0,0v-0.006
		c0-0.006,0-0.014,0-0.024l0,0c0-0.06,0.001-0.113,0.003-0.149l0,0c0.008-0.439,0.046-0.848,0.125-1.19l0,0l0-0.001
		c0.008-0.085,0.048-0.504,0.048-1.119l0,0c0.001-0.85-0.076-2.056-0.406-3.202l0,0c-0.061-0.197-0.11-0.37-0.176-0.549l0,0
		c-0.78-2.143-4.968-13.65-4.971-13.661l0,0c-0.14-0.38-0.494-0.608-0.871-0.61l0,0c-0.105,0-0.208,0.016-0.306,0.053l0,0
		L18.12,9.147l-0.002-0.007L18.061,9.16c-0.383,0.142-0.614,0.497-0.615,0.876l0,0c0,0.102,0.018,0.209,0.054,0.309l0,0l2.68,7.352
		l-1.434,0.534L14.97,7.866c-0.14-0.381-0.494-0.61-0.868-0.611l0,0c-0.104,0-0.21,0.018-0.319,0.059l0,0l-0.806,0.294
		c-0.38,0.137-0.61,0.493-0.61,0.863l0,0v0.001v0.003c0,0.089,0.012,0.176,0.038,0.263l0,0l0.019,0.063l3.539,9.73l-1.441,0.512
		L10.484,7.947c-0.14-0.378-0.494-0.61-0.87-0.61l0,0c-0.106,0-0.211,0.016-0.319,0.057l0,0L8.489,7.689
		C8.111,7.826,7.88,8.182,7.878,8.56l0,0c0,0.102,0.018,0.209,0.054,0.311l0,0l4.044,11.102l-1.441,0.512l-3.422-9.388
		c-0.136-0.377-0.493-0.61-0.868-0.611l0,0c-0.104,0.001-0.21,0.018-0.319,0.06l0,0L5.12,10.841
		c-0.377,0.136-0.608,0.491-0.608,0.864l0,0v0.004c0,0.104,0.018,0.212,0.054,0.314l0,0l5.635,15.475l-1.438,0.527l-1.165-3.198
		l-0.152-0.169v-0.004c-0.014-0.015-0.028-0.031-0.042-0.047l0,0c-0.138-0.154-0.323-0.361-0.516-0.579l0,0
		c-0.387-0.433-0.81-0.908-0.93-1.04l0,0c-0.355-0.394-1.307-0.76-2.189-0.767l0,0c-0.473,0.004-0.836,0.102-1.074,0.334l0,0
		c-0.154,0.146-0.234,0.307-0.233,0.436l0,0c0,0.002,0,0.004,0,0.005l0,0c0,0.001,0,0.001,0,0.002l0,0
		c0,0.17,0.082,0.374,0.336,0.674l0,0c0.711,0.824,5.974,6.741,6.305,7.111l0,0l-0.001,0.001l0.01,0.012
		c0.344,0.376,0.813,0.817,1.377,1.255l0,0l-0.441,0.569l0.441-0.569l0.015,0.011l0.023,0.021c0.376,0.339,1.356,1.002,2.281,1.693
		l0,0c0.731,0.531,1.404,1.112,1.783,1.549l0,0c0.112,0.154,0.214,0.223,0.304,0.494l0,0l0.002-0.001l0.159,0.437l0.001,0.005
		c0.183,0.484,0.641,0.777,1.123,0.778l0,0l0,0c0.002,0,0.003,0,0.005,0l0,0C16.197,37.038,16.209,37.038,16.222,37.039
		L16.222,37.039z M13.564,36.347L13.564,36.347L13.564,36.347L13.564,36.347L13.564,36.347z M9.089,30.771
		c-0.001-0.001-0.003-0.004-0.009-0.01l0,0L9.089,30.771L9.089,30.771z"/>
</g>
<g id="Layer_1">
</g>
</svg>
