<?xml version="1.0" encoding="iso-8859-1"?>
<!-- Generator: Adobe Illustrator 18.1.1, SVG Export Plug-In . SVG Version: 6.00 Build 0)  -->
<svg version="1.1" xmlns="http://www.w3.org/2000/svg" xmlns:xlink="http://www.w3.org/1999/xlink" x="0px" y="0px"
	 viewBox="0 0 35.723 38.477" style="enable-background:new 0 0 35.723 38.477;" xml:space="preserve">
<g id="Layer_31.svg">
	<path d="M11.736,7.811c0.742,0.524,1.614,0.787,2.48,0.786c0.649,0.001,1.301-0.147,1.899-0.441l0.58-1.596
		c0.094-0.256,0.236-0.48,0.407-0.673L15.978,5.89c-0.058,0.064-0.082,0.091-0.082,0.091c-0.468,0.465-1.071,0.695-1.681,0.697
		c-0.613-0.002-1.217-0.231-1.684-0.698c0.001,0.003-0.025-0.027-0.085-0.095L11.02,5.89c-0.057,0.064-0.082,0.091-0.082,0.091
		c-0.467,0.465-1.071,0.695-1.68,0.697C8.645,6.677,8.041,6.448,7.574,5.98C7.575,5.983,7.55,5.953,7.489,5.886L6.062,5.89
		C6.005,5.954,5.982,5.981,5.982,5.981C5.513,6.446,4.91,6.677,4.3,6.679C3.687,6.677,3.083,6.448,2.616,5.98L2.615,5.981
		C2.149,5.512,1.92,4.909,1.919,4.297c0.001-0.611,0.23-1.214,0.697-1.68C3.083,2.149,3.686,1.92,4.298,1.919
		C4.91,1.92,5.513,2.149,5.98,2.616C5.979,2.614,6.006,2.645,6.063,2.71l1.426,0.002c0.059-0.066,0.086-0.097,0.086-0.097
		c0.466-0.466,1.068-0.694,1.68-0.695c0.612,0.001,1.214,0.23,1.683,0.697c-0.001-0.002,0.026,0.03,0.085,0.096l1.425-0.002
		c0.057-0.065,0.084-0.096,0.084-0.096c0.466-0.466,1.068-0.694,1.68-0.695c0.612,0.001,1.214,0.23,1.683,0.697
		c-0.001-0.002,0.025,0.029,0.082,0.094l1.426,0.002c0.059-0.066,0.086-0.097,0.086-0.097c0.466-0.466,1.069-0.694,1.681-0.695
		c0.611,0.001,1.214,0.23,1.682,0.697c0.466,0.466,0.695,1.069,0.697,1.68c-0.001,0.605-0.226,1.201-0.681,1.666
		c0.153,0.129,0.288,0.275,0.396,0.439l0.035-0.095c0.318-0.86,1.129-1.393,1.997-1.392c0.243-0.001,0.489,0.042,0.724,0.128
		l0.595,0.216h4.942l-1.62,2.762l0.28,0.101l7.505-3.822l-7.989-4.07l1.824,3.109h-6.2c-0.174-0.762-0.555-1.489-1.147-2.078
		C21.374,0.422,20.268-0.001,19.172,0c-0.866-0.001-1.739,0.262-2.48,0.786C15.951,0.262,15.079-0.001,14.214,0
		c-0.866-0.001-1.738,0.262-2.479,0.786C10.994,0.262,10.121-0.001,9.255,0C8.39-0.001,7.517,0.262,6.777,0.786
		C6.036,0.262,5.164-0.001,4.298,0C3.201-0.001,2.094,0.422,1.259,1.26C0.422,2.095-0.001,3.201,0,4.297
		C-0.001,5.393,0.422,6.5,1.259,7.337v0.001C2.097,8.176,3.203,8.598,4.3,8.597c0.867,0.001,1.738-0.263,2.478-0.786
		c0.742,0.524,1.614,0.787,2.48,0.786C10.125,8.598,10.996,8.333,11.736,7.811z"/>
	<path id="inner" fill="#FFFFFF" d="M19.432,37.643c0.211,0.078,0.429,0.114,0.642,0.114c0.004,0,0.008,0,0.011,0
		c0.786,0,1.521-0.483,1.806-1.26l0.01-0.024l0.182-0.501c0.21-0.585,0.719-1.384,1.265-2.005c0.261-0.299,0.528-0.561,0.761-0.735
		l0.019-0.016l0.023-0.021c0.022-0.024,1.711-1.624,2.68-3.79c0.075-0.18,0.155-0.359,0.229-0.564
		c0.781-2.145,4.974-13.666,4.974-13.666c0.067-0.186,0.098-0.376,0.098-0.561c0.001-0.671-0.413-1.302-1.078-1.544l-0.165,0.45l0,0
		l0.165-0.452l-0.813-0.295c-0.185-0.068-0.376-0.101-0.562-0.1c-0.673-0.001-1.303,0.411-1.548,1.078l-2.43,6.681l-0.084-0.03
		l3.524-9.689c0.067-0.186,0.098-0.376,0.098-0.561c0.001-0.673-0.414-1.302-1.081-1.542L27.35,8.316
		c-0.185-0.067-0.376-0.101-0.565-0.101c-0.632,0-1.223,0.367-1.494,0.965l-0.015,0.015l-3.335,9.158l-0.083-0.031l3.795-10.427
		c0.067-0.185,0.098-0.374,0.097-0.559c0.001-0.671-0.413-1.302-1.08-1.545l-0.813-0.296c-0.183-0.066-0.373-0.101-0.559-0.099
		c-0.671-0.001-1.302,0.413-1.547,1.078L17.96,16.897l-0.084-0.031l3.168-8.722c0.068-0.185,0.101-0.377,0.099-0.564
		c0.001-0.671-0.413-1.3-1.078-1.542l-0.813-0.296c-0.184-0.068-0.374-0.101-0.562-0.101c-0.673,0-1.301,0.417-1.545,1.084
		L11.76,21.524l-0.086-0.031l0.965-2.652l-0.003-0.091c0-0.001-0.063-2.122-0.078-2.537c-0.037-0.629-0.395-1.31-0.892-1.932
		c-0.505-0.6-1.157-1.152-1.983-1.171c-0.023,0-0.067-0.001-0.13,0.007c-0.351,0.025-0.718,0.157-0.963,0.459
		c-0.248,0.306-0.331,0.695-0.331,1.139c0,0.009-0.001,0.038,0.001,0.08C8.276,15.909,8.52,24.3,8.52,24.303
		c0.023,0.55,0.102,1.225,0.261,1.962c0.147,0.999,1.031,3.774,1.021,4.985c0.001,0.173-0.02,0.299-0.039,0.346l-0.15,0.411
		l-0.001,0.004C9.528,32.238,9.49,32.46,9.49,32.677c0,0.784,0.483,1.521,1.262,1.808L19.432,37.643z"/>
	<path d="M20.073,38.477c-0.293,0-0.594-0.05-0.888-0.158l0,0l0,0l-8.682-3.158c-1.069-0.396-1.733-1.405-1.733-2.483l0,0
		c0-0.287,0.05-0.582,0.151-0.871l0,0l0.004-0.018l0.011-0.029l0.139-0.381c0,0,0,0,0,0l0,0c0.003-0.022,0.007-0.062,0.007-0.114
		l0,0c0-0.015,0-0.015,0-0.015l0,0l0,0c0-0.007,0-0.012,0-0.016l0,0v-0.004c0.005-0.457-0.199-1.452-0.436-2.395l0,0
		c-0.23-0.946-0.481-1.848-0.573-2.436l0,0c-0.165-0.77-0.248-1.476-0.274-2.095l0,0v-0.004c0-0.016-0.001-0.039-0.003-0.071l0,0
		c-0.001-0.061-0.004-0.152-0.007-0.268l0,0c-0.007-0.231-0.016-0.564-0.029-0.967l0,0c-0.023-0.805-0.053-1.889-0.085-3.008l0,0
		c-0.062-2.235-0.128-4.599-0.136-5.177l0,0C7.54,14.778,7.54,14.753,7.54,14.744l0,0c0-0.015,0-0.028,0-0.036l0,0h0.001
		c-0.002-0.524,0.1-1.102,0.49-1.586l0,0c0.402-0.491,0.96-0.682,1.439-0.721l0,0c0.092-0.012,0.171-0.012,0.198-0.012l0,0
		c0.006,0,0.012,0,0.016,0l0,0c0.007,0,0.012,0,0.016,0l0,0c0.004,0,0.007,0,0.008,0l0,0v0c1.158,0.041,1.958,0.776,2.521,1.442l0,0
		c0.411,0.521,0.763,1.09,0.938,1.719l0,0l3.302-9.072c0.35-0.956,1.251-1.558,2.22-1.557l0,0c0.271,0,0.546,0.048,0.809,0.144l0,0
		l0.812,0.296c0.349,0.127,0.65,0.327,0.891,0.578l0,0c0.407-0.777,1.205-1.254,2.058-1.266l0,0c0.019-0.001,0.034,0,0.045,0l0,0
		c0.002,0,0.004,0,0.005,0l0,0c0.014,0,0.014,0,0.014,0l0,0v0c0.269,0.001,0.533,0.053,0.78,0.144l0,0l0.813,0.296
		c0.956,0.35,1.552,1.251,1.553,2.215l0,0l0,0l0,0l0,0c0,0.001,0,0.002,0,0.003l0,0v0.004v0.087l-0.002,0.007
		c-0.001,0.03-0.003,0.059-0.005,0.089l0,0c0.106-0.015,0.214-0.022,0.323-0.022l0,0c0.276-0.001,0.55,0.049,0.812,0.144l0,0
		l0.806,0.294c0.958,0.346,1.558,1.248,1.556,2.216l0,0v0.003c0.001,0.267-0.045,0.539-0.14,0.807l0,0l-0.365,1.005
		c0.06-0.006,0.12-0.009,0.181-0.01l0,0c0.02-0.001,0.032-0.001,0.04,0l0,0c0.007,0,0.011,0,0.014,0l0,0
		c0.268,0,0.542,0.047,0.799,0.143l0,0l1.491,0.54l-0.039,0.108c0.576,0.446,0.915,1.139,0.913,1.866l0,0v0.003
		c0,0.265-0.045,0.537-0.141,0.807l0,0c0,0-4.192,11.519-4.972,13.662l0,0c-0.086,0.236-0.173,0.429-0.249,0.614l0,0
		c-1.024,2.282-2.749,3.92-2.826,4.003l0,0l0,0l-0.005,0.006l-0.027,0.026l-0.031,0.027l-0.037,0.031l-0.022,0.016
		c-0.17,0.127-0.413,0.36-0.652,0.635l0,0c-0.491,0.551-0.973,1.327-1.129,1.775l0,0l-0.189,0.52l-0.003,0.008
		c-0.394,1.067-1.404,1.732-2.482,1.732l0,0H20.073L20.073,38.477z M10.521,31.249c0,0.015,0,0.015,0,0.015l0,0
		c-0.007,0.24-0.012,0.373-0.083,0.577l0,0l-0.14,0.387l-0.011,0.03c-0.054,0.151-0.076,0.286-0.078,0.419l0,0
		c0.001,0.49,0.302,0.953,0.788,1.131l0,0l8.681,3.159l-0.246,0.677l0.249-0.677c0.129,0.047,0.261,0.071,0.392,0.071l0,0h0.012
		c0.491-0.001,0.953-0.302,1.137-0.804l0,0l0.003-0.007l0.181-0.499c0.266-0.724,0.802-1.548,1.4-2.235l0,0
		c0.277-0.315,0.558-0.597,0.845-0.816l0,0l0.022-0.021c0.012-0.012,0.029-0.029,0.05-0.05l0,0c0.046-0.046,0.113-0.114,0.196-0.203
		l0,0c0.166-0.176,0.398-0.433,0.658-0.753l0,0c0.52-0.641,1.15-1.537,1.59-2.522l0,0c0.08-0.192,0.154-0.357,0.218-0.534l0,0
		c0.78-2.144,4.968-13.651,4.972-13.661l0,0c0.038-0.109,0.056-0.215,0.056-0.318l0,0v-0.003c-0.001-0.377-0.233-0.731-0.605-0.864
		l0,0l0.082-0.226l0,0l-0.082,0.225l-0.817-0.297c-0.078-0.029-0.156-0.046-0.232-0.052l0,0l-0.163,0.04l-0.065-0.033
		c-0.321,0.052-0.605,0.268-0.723,0.594l0,0l-2.675,7.353l-1.44-0.512l3.771-10.368c0.039-0.107,0.056-0.215,0.056-0.319l0,0V10.15
		c0-0.377-0.231-0.728-0.607-0.863l0,0l-0.806-0.294c-0.11-0.041-0.219-0.059-0.321-0.059l0,0c-0.353,0-0.686,0.205-0.839,0.542l0,0
		l-0.037,0.082l-3.542,9.725l-1.43-0.54L24.976,7.65c0.036-0.102,0.053-0.204,0.054-0.301l0,0h-0.001c0-0.005,0-0.011,0-0.019l0,0h0
		l0,0c0-0.376-0.231-0.731-0.604-0.866l0,0L23.61,6.169c-0.063-0.023-0.125-0.039-0.185-0.048l0,0l-0.118,0.051l-0.13-0.052
		c-0.33,0.044-0.628,0.264-0.75,0.598l0,0l-4.038,11.107l-1.434-0.535l3.413-9.394c0.037-0.101,0.054-0.207,0.054-0.305l0,0h0
		c0-0.003,0-0.007,0-0.011l0,0h0V7.577c-0.001-0.376-0.231-0.728-0.604-0.863l0,0l-0.815-0.297c-0.104-0.038-0.21-0.056-0.313-0.056
		l0,0c-0.376,0.001-0.732,0.233-0.868,0.61l0,0L12.19,22.444l-1.441-0.52l1.166-3.2c0-0.013-0.001-0.029-0.002-0.046l0,0
		c-0.001-0.059-0.004-0.143-0.007-0.246l0,0c-0.007-0.205-0.015-0.483-0.023-0.774l0,0c-0.018-0.581-0.037-1.217-0.044-1.404l0,0
		c-0.014-0.385-0.287-0.972-0.724-1.51l0,0c-0.458-0.548-0.959-0.914-1.432-0.915l0,0c-0.01,0-0.019,0-0.025,0l0,0l-0.038,0.004
		l-0.018,0.001c-0.215,0.016-0.376,0.092-0.453,0.193l0,0c-0.104,0.126-0.169,0.324-0.17,0.688l0,0
		c-0.001,0.018-0.001,0.023-0.001,0.026l0,0l0.001,0.024v0.021c0.015,1.105,0.259,9.471,0.259,9.485l0,0
		c0.021,0.507,0.095,1.144,0.245,1.842l0,0l0.006,0.023l0.004,0.023c0.057,0.406,0.312,1.361,0.552,2.329l0,0
		c0.236,0.979,0.468,1.961,0.476,2.723l0,0l0,0.003v0.014c0,0.016,0,0.016,0,0.016l0,0V31.249L10.521,31.249z"/>
</g>
<g id="Layer_1">
</g>
</svg>
