<?xml version="1.0" encoding="iso-8859-1"?>
<!-- Generator: Adobe Illustrator 18.1.1, SVG Export Plug-In . SVG Version: 6.00 Build 0)  -->
<svg version="1.1" xmlns="http://www.w3.org/2000/svg" xmlns:xlink="http://www.w3.org/1999/xlink" x="0px" y="0px"
	 viewBox="0 0 25.313 41.051" style="enable-background:new 0 0 25.313 41.051;" xml:space="preserve">
<g id="Layer_7.svg">
	<path d="M14.976,7.643c0.247-0.098,0.51-0.156,0.781-0.155c0.242,0,0.489,0.042,0.724,0.127l0.813,0.296
		c0.027,0.01,0.052,0.024,0.078,0.036l5.229-2.946L13.724,0l2.144,4.043H2.736v1.918h13.133L14.976,7.643z"/>
	<path id="inner" fill="#FFFFFF"  d="M11.892,40.217c0.211,0.077,0.429,0.114,0.641,0.114c0.004,0,0.008,0,0.011,0
		c0.786,0,1.522-0.484,1.808-1.261l0.008-0.024l0.182-0.501c0.211-0.586,0.72-1.385,1.265-2.005
		c0.261-0.298,0.529-0.561,0.762-0.737l0.023-0.016l0.019-0.019c0.02-0.025,1.711-1.624,2.679-3.79
		c0.075-0.18,0.157-0.359,0.23-0.565c0.781-2.144,4.974-13.665,4.974-13.665c0.067-0.186,0.098-0.375,0.098-0.561
		c0-0.671-0.414-1.3-1.08-1.543l-0.163,0.45l0.163-0.452l-0.813-0.296c-0.184-0.067-0.374-0.101-0.562-0.099
		c-0.671-0.001-1.301,0.411-1.548,1.078l-2.428,6.681l-0.084-0.03l3.524-9.688c0.067-0.186,0.098-0.377,0.098-0.562
		c0-0.672-0.415-1.301-1.081-1.542l-0.81-0.295c-0.184-0.066-0.376-0.101-0.564-0.099c-0.632-0.001-1.225,0.366-1.496,0.964
		l-0.014,0.014l-3.335,9.158l-0.084-0.03l3.795-10.428c0.067-0.185,0.098-0.374,0.098-0.559c0.001-0.671-0.413-1.303-1.081-1.545
		l-0.811-0.296C16.134,8,15.945,7.966,15.757,7.968c-0.671-0.001-1.3,0.412-1.546,1.078L10.42,19.471l-0.085-0.031l3.169-8.722
		c0.068-0.185,0.099-0.377,0.099-0.564c0-0.671-0.412-1.3-1.078-1.542l-0.814-0.295c-0.184-0.068-0.374-0.101-0.562-0.099
		c-0.672-0.001-1.3,0.415-1.544,1.082l-5.385,14.8l-0.087-0.031L5.1,21.415l-0.003-0.091c0-0.001-0.063-2.122-0.079-2.538
		c-0.037-0.629-0.393-1.31-0.89-1.931c-0.506-0.601-1.158-1.152-1.984-1.169c-0.024,0-0.065-0.001-0.127,0.005
		c-0.351,0.024-0.72,0.156-0.966,0.459c-0.249,0.306-0.331,0.695-0.331,1.139c0,0.01-0.001,0.038,0.001,0.081
		c0.014,1.113,0.257,9.505,0.257,9.507c0.025,0.556,0.105,1.237,0.265,1.983c0.156,1.017,1.028,3.761,1.018,4.965
		c0.001,0.172-0.022,0.299-0.04,0.344l-0.15,0.411l-0.003,0.004c-0.083,0.227-0.121,0.449-0.12,0.667
		c0,0.784,0.482,1.52,1.262,1.806L11.892,40.217z"/>
	<path d="M12.532,41.051c-0.295,0-0.596-0.052-0.888-0.158l0,0h0l-8.68-3.16c-1.071-0.394-1.736-1.405-1.735-2.482l0,0h0
		c0-0.006,0-0.01,0-0.011l0,0c0-0.301,0.055-0.607,0.164-0.906l0,0l0.024-0.065l0.004-0.006l0.112-0.308
		c0-0.002,0-0.004,0.001-0.006l0,0c0.003-0.023,0.007-0.064,0.007-0.111l0,0c-0.001-0.025,0-0.034,0-0.034l0,0
		c0.005-0.456-0.196-1.441-0.43-2.379l0,0c-0.231-0.945-0.483-1.853-0.578-2.444l0,0c-0.165-0.775-0.249-1.484-0.276-2.107l0,0
		v-0.003c0-0.016-0.001-0.041-0.003-0.071l0,0c-0.001-0.062-0.004-0.152-0.007-0.268l0,0C0.242,26.3,0.233,25.968,0.22,25.567l0,0
		c-0.023-0.805-0.053-1.89-0.084-3.008l0,0c-0.062-2.232-0.126-4.588-0.135-5.175l0,0C0,17.356,0,17.332,0,17.316l0,0
		c0-0.012,0-0.022,0-0.029l0,0v-0.007l0,0c0-0.521,0.098-1.101,0.491-1.585l0,0c0.405-0.494,0.965-0.684,1.444-0.722l0,0
		c0.084-0.011,0.157-0.011,0.182-0.009l0,0c0.027,0,0.027,0,0.042,0l0,0c1.163,0.036,1.965,0.772,2.53,1.441l0,0
		c0.413,0.521,0.765,1.09,0.939,1.718l0,0l3.3-9.072c0.349-0.956,1.249-1.556,2.217-1.556l0,0c0.011,0,0.023,0.001,0.033,0.001l0,0
		c0.264,0.001,0.529,0.05,0.778,0.141l0,0l0.814,0.296c0.349,0.127,0.65,0.328,0.891,0.579l0,0c0.407-0.776,1.204-1.255,2.057-1.266
		l0,0c0.019-0.001,0.034-0.001,0.045,0l0,0c0.001,0,0.003,0,0.004,0l0,0c0.015,0,0.015,0,0.015,0l0,0l0,0
		c0.27,0.002,0.534,0.053,0.782,0.143l0,0l0.81,0.296c0.96,0.349,1.556,1.254,1.556,2.218l0,0v0.004
		c0,0.061-0.003,0.122-0.008,0.184l0,0c0.094-0.013,0.188-0.02,0.283-0.022l0,0c0.021-0.001,0.037-0.001,0.048,0l0,0
		c0.001,0,0.002,0,0.003,0l0,0c0.014,0,0.014,0,0.014,0l0,0l0,0c0.27,0.002,0.535,0.052,0.786,0.143l0,0l0.809,0.296
		c0.958,0.348,1.556,1.251,1.555,2.219l0,0c0,0.266-0.044,0.538-0.14,0.807l0,0l-0.365,1.003c0.062-0.006,0.124-0.009,0.186-0.01
		l0,0c0.019-0.001,0.033,0,0.044,0l0,0c0.002,0,0.004,0,0.005,0l0,0c0.014,0,0.014,0,0.014,0l0,0v0
		c0.269,0.001,0.534,0.053,0.783,0.144l0,0l0.137,0.05l0-0.001l0.313,0.115l1.037,0.377l-0.039,0.107
		c0.578,0.447,0.918,1.14,0.917,1.869l0,0c0,0.266-0.045,0.539-0.141,0.808l0,0c0,0-4.192,11.521-4.972,13.661l0,0
		c-0.086,0.239-0.176,0.434-0.25,0.617l0,0c-0.964,2.152-2.567,3.743-2.794,3.97l0,0l-0.006,0.008l-0.03,0.03l-0.063,0.061
		l-0.046,0.033l-0.005,0.004c-0.171,0.128-0.418,0.364-0.655,0.636l0,0c-0.491,0.553-0.974,1.327-1.13,1.777l0,0l-0.176,0.484
		l-0.015,0.044c-0.395,1.068-1.405,1.732-2.483,1.732l0,0H12.532L12.532,41.051z M2.67,35.251c0.001,0.49,0.301,0.952,0.788,1.13
		l0,0l8.681,3.158l-0.246,0.677l0.246-0.675c0.132,0.048,0.267,0.071,0.394,0.071l0,0l0.012-0.001c0.491,0,0.954-0.302,1.126-0.769
		l0,0l0.014-0.042l0.181-0.498c0.267-0.724,0.803-1.547,1.401-2.236l0,0c0.275-0.312,0.554-0.59,0.852-0.822l0,0
		c0.003-0.003,0.006-0.006,0.009-0.009l0,0c0.014-0.012,0.031-0.031,0.055-0.054l0,0c0.046-0.046,0.113-0.114,0.196-0.203l0,0
		c0.167-0.177,0.399-0.433,0.659-0.753l0,0c0.52-0.641,1.149-1.539,1.589-2.522l0,0c0.082-0.194,0.155-0.359,0.218-0.535l0,0
		c0.782-2.143,4.97-13.651,4.974-13.661l0,0c0.038-0.107,0.056-0.214,0.056-0.319l0,0c-0.001-0.376-0.231-0.731-0.607-0.867l0,0
		l0-0.001l-0.812-0.295c-0.064-0.023-0.127-0.039-0.188-0.048l0,0l-0.118,0.051l-0.129-0.051c-0.331,0.042-0.629,0.261-0.752,0.597
		l0,0l-2.674,7.353l-1.441-0.513l3.771-10.365c0.038-0.108,0.056-0.216,0.056-0.32l0,0c0-0.379-0.233-0.732-0.607-0.866l0,0
		l-0.81-0.296c-0.063-0.023-0.127-0.039-0.188-0.048l0,0l-0.097,0.042l-0.136-0.045c-0.313,0.035-0.6,0.232-0.737,0.536l0,0
		l-0.031,0.068l-3.541,9.724l-1.442-0.512l4.044-11.109c0.038-0.104,0.055-0.209,0.056-0.314l0,0L17.49,9.903
		c0-0.376-0.231-0.73-0.607-0.864l0,0l-0.812-0.295c-0.064-0.024-0.126-0.039-0.186-0.048l0,0l-0.119,0.051l-0.13-0.052
		c-0.33,0.044-0.627,0.263-0.75,0.598l0,0l-4.038,11.105l-1.434-0.534l3.415-9.396c0.037-0.099,0.054-0.208,0.054-0.314l0,0
		c-0.001-0.379-0.231-0.731-0.604-0.866l0,0L11.46,8.99c-0.086-0.033-0.173-0.049-0.259-0.054l0,0l-0.141,0.019l-0.031-0.013
		c-0.329,0.044-0.623,0.263-0.746,0.602l0,0L4.651,25.019l-1.442-0.52l1.167-3.202c0-0.013-0.001-0.029-0.002-0.046l0,0
		c-0.001-0.06-0.004-0.144-0.007-0.246l0,0c-0.007-0.206-0.015-0.483-0.023-0.775l0,0C4.327,19.65,4.306,19.014,4.3,18.827l0,0
		c-0.015-0.387-0.287-0.974-0.723-1.51l0,0c-0.459-0.549-0.96-0.913-1.432-0.913l0,0c-0.027,0-0.027,0-0.027,0l0,0L2.11,16.403
		l-0.034,0.004l-0.009,0.001c-0.216,0.015-0.379,0.091-0.458,0.195l0,0c-0.102,0.124-0.169,0.321-0.17,0.685l0,0
		c0,0.02,0,0.025,0,0.028l0,0l0.001,0.019v0.026c0.014,1.104,0.257,9.472,0.257,9.484l0,0c0.022,0.514,0.098,1.157,0.25,1.864l0,0
		l0.003,0.018l0.004,0.025c0.063,0.42,0.317,1.371,0.555,2.333l0,0c0.235,0.976,0.464,1.954,0.471,2.713l0,0l0,0.002v0.007v0.008
		v0.011c0,0.014,0,0.023,0,0.026l0,0h0c-0.006,0.235-0.017,0.37-0.083,0.565l0,0l-0.157,0.429C2.69,34.987,2.67,35.116,2.67,35.24
		l0,0V35.251L2.67,35.251z"/>
</g>
<g id="Layer_1">
</g>
</svg>
