<?xml version="1.0" encoding="iso-8859-1"?>
<!-- Generator: Adobe Illustrator 18.1.1, SVG Export Plug-In . SVG Version: 6.00 Build 0)  -->
<svg version="1.1" xmlns="http://www.w3.org/2000/svg" xmlns:xlink="http://www.w3.org/1999/xlink" x="0px" y="0px"
	 viewBox="0 0 26.478 39.862" style="enable-background:new 0 0 26.478 39.862;" xml:space="preserve">
<g id="Layer_6.svg">
	<path d="M7.057,7.945l0.801-0.292C7.996,7.6,8.135,7.568,8.273,7.546L7.432,5.961h13.132V4.043H7.431L9.575,0L0.698,5.001
		l5.786,3.26C6.653,8.13,6.845,8.022,7.057,7.945z"/>
	<path id="inner" fill="#FFFFFF" d="M9.039,34.011H9.038c0.427,0.387,1.398,1.033,2.327,1.731c0.92,0.661,1.791,1.474,1.835,1.705
		l0.151,0.414l0.004,0.014c0.287,0.785,1.025,1.267,1.809,1.266c0.004,0,0.007,0,0.011,0c0.214,0,0.429-0.038,0.638-0.111
		l8.683-3.16c0.778-0.286,1.262-1.023,1.262-1.809c0-0.217-0.037-0.438-0.114-0.652l-0.005-0.014l-0.186-0.512
		c-0.201-0.546-0.324-1.406-0.321-2.189c0-0.057,0-0.109,0.001-0.155c0.008-0.402,0.045-0.773,0.11-1.057l0.007-0.029l0.003-0.027
		c0.001-0.014,0.053-0.489,0.055-1.213c-0.001-0.89-0.079-2.156-0.438-3.413c-0.059-0.185-0.112-0.374-0.186-0.58
		c-0.78-2.145-4.974-13.666-4.974-13.666c-0.246-0.666-0.874-1.081-1.546-1.081c-0.184,0-0.376,0.03-0.562,0.101v0L16.79,9.868
		c-0.67,0.246-1.085,0.876-1.085,1.549c0,0.184,0.031,0.373,0.096,0.557l2.435,6.68l-0.085,0.031l-3.528-9.686
		c-0.246-0.667-0.872-1.082-1.543-1.082c-0.185,0-0.378,0.031-0.566,0.102L11.71,8.313c-0.668,0.242-1.083,0.872-1.082,1.543
		c-0.001,0.153,0.021,0.309,0.067,0.463v0.018l3.324,9.139l-0.084,0.03L10.138,9.08C9.891,8.414,9.264,8,8.592,8
		C8.408,8,8.216,8.029,8.03,8.1L7.221,8.394C6.553,8.639,6.139,9.27,6.139,9.942c0,0.184,0.03,0.373,0.098,0.557l3.796,10.423
		l-0.084,0.031l-3.179-8.719c-0.244-0.667-0.871-1.085-1.545-1.083c-0.185-0.001-0.377,0.031-0.565,0.102l-0.807,0.294
		c-0.668,0.242-1.083,0.872-1.082,1.545c0,0.185,0.031,0.376,0.099,0.562l5.388,14.8l-0.086,0.03l-0.966-2.651l-0.061-0.068
		c0-0.001-1.411-1.586-1.69-1.895c-0.573-0.595-1.655-0.962-2.712-0.984c-0.557,0.003-1.131,0.119-1.564,0.529
		c-0.256,0.241-0.46,0.579-0.457,0.97c0.003,0.415,0.204,0.783,0.513,1.14c0.744,0.863,6.326,7.136,6.327,7.139
		C7.937,33.073,8.437,33.545,9.039,34.011z M17.767,10.024L17.767,10.024L17.767,10.024L17.767,10.024z"/>
	<path d="M15.132,39.86h-0.208l-0.018-0.013c-0.978-0.093-1.867-0.738-2.239-1.759l0,0l0.008,0.021l-0.146-0.399
		c-0.011-0.015-0.029-0.038-0.052-0.064l0,0c-0.075-0.089-0.201-0.218-0.357-0.362l0,0c-0.313-0.291-0.742-0.645-1.188-0.965l0,0
		c-0.908-0.684-1.847-1.303-2.364-1.762l0,0c-0.624-0.485-1.14-0.973-1.538-1.407l0,0l-0.068-0.073L6.96,33.07h0l0,0
		c-0.041-0.046-0.101-0.114-0.178-0.201l0,0c-0.154-0.173-0.376-0.422-0.642-0.723l0,0c-0.535-0.602-1.256-1.413-2.001-2.251l0,0
		c-1.49-1.68-3.067-3.457-3.449-3.9l0,0c-0.353-0.408-0.668-0.924-0.687-1.563l0,0C0,24.396,0,24.37,0,24.364l0,0h0
		c0.008-0.645,0.334-1.145,0.682-1.473l0,0c0.627-0.591,1.413-0.724,2.074-0.727l0,0c0.987,0.031,1.974,0.282,2.743,0.814l0,0
		l-3.306-9.08c-0.093-0.254-0.138-0.514-0.142-0.766l0,0c-0.001-0.016-0.002-0.031-0.002-0.045l0,0c0,0,0.001-0.001,0-0.001l0,0
		c0-0.967,0.599-1.869,1.556-2.218l0,0l0.797-0.29c0.247-0.094,0.501-0.142,0.748-0.149l0,0c0.032-0.004,0.058-0.004,0.075-0.001
		l0,0c0.003,0,0.007,0,0.011,0l0,0c0.079,0,0.158,0.005,0.236,0.013l0,0c-0.037-0.169-0.054-0.337-0.054-0.5l0,0
		C5.418,8.974,6.015,8.071,6.975,7.718l0,0l0.799-0.291C8.051,7.322,8.33,7.28,8.592,7.28l0,0c0.76-0.001,1.48,0.369,1.925,0.992
		l0,0c0.25-0.277,0.571-0.499,0.946-0.635l0,0l0.799-0.291c0.275-0.105,0.554-0.149,0.819-0.149l0,0
		c0.968-0.001,1.866,0.599,2.22,1.556l0,0l0.366,1.004c0.239-0.244,0.535-0.439,0.877-0.566l0,0l0.755-0.273l0.045-0.017
		c0.278-0.104,0.557-0.147,0.818-0.148l0,0c0.968,0,1.868,0.599,2.221,1.554l0,0c0,0,4.195,11.521,4.975,13.667l0,0
		c0.086,0.235,0.143,0.439,0.202,0.627l0,0c0.387,1.354,0.464,2.679,0.467,3.612l0,0c-0.001,0.756-0.056,1.263-0.059,1.28l0,0
		l-0.007,0.078l-0.012,0.049l-0.005,0.023c-0.049,0.209-0.084,0.546-0.093,0.917l0,0c0,0.031,0,0.076,0,0.133l0,0v0.029
		l-0.001,0.019l0,0c0,0.692,0.124,1.489,0.279,1.895l0,0l0.178,0.493l0.014,0.033c0.108,0.295,0.158,0.599,0.158,0.898l0,0
		c0,1.078-0.664,2.089-1.735,2.486l0,0l-8.69,3.162c-0.27,0.095-0.554,0.148-0.841,0.152l0,0c-0.009,0.002-0.021,0.003-0.035,0.003
		l0,0C15.164,39.862,15.149,39.861,15.132,39.86L15.132,39.86z M15.201,38.421c0.121-0.004,0.246-0.026,0.365-0.067l0,0l8.682-3.161
		c0.487-0.177,0.789-0.64,0.789-1.132l0,0c0-0.136-0.023-0.274-0.064-0.387l0,0l-0.012-0.033l-0.185-0.509
		c-0.244-0.674-0.362-1.56-0.366-2.413l0,0c0.001,0,0-0.005,0-0.025l0,0h0c0-0.057,0-0.114,0.001-0.17l0,0
		c0.009-0.426,0.046-0.825,0.125-1.182l0,0c0.007-0.069,0.048-0.495,0.049-1.128l0,0c0-0.848-0.078-2.055-0.404-3.197l0,0
		c-0.063-0.2-0.113-0.376-0.177-0.551l0,0c-0.78-2.144-4.97-13.651-4.973-13.661l0,0c-0.14-0.38-0.495-0.611-0.871-0.611l0,0
		c-0.106,0-0.211,0.018-0.308,0.055l0,0l0-0.001l-0.814,0.296c-0.383,0.14-0.614,0.497-0.614,0.874l0,0
		c0,0.102,0.018,0.211,0.053,0.311l0,0l2.68,7.35l-1.435,0.533L13.95,9.248c-0.14-0.382-0.494-0.611-0.868-0.612l0,0
		c-0.104,0-0.211,0.018-0.319,0.059l0,0l-0.807,0.295c-0.357,0.127-0.583,0.451-0.606,0.801l0,0l0.003,0.015L11.347,9.88
		c0.001,0.076,0.012,0.153,0.037,0.234l0,0l0.027,0.091l3.531,9.706l-1.44,0.512L9.463,9.33c-0.14-0.38-0.494-0.61-0.871-0.611l0,0
		c-0.108,0-0.212,0.018-0.316,0.057l0,0L7.469,9.07c-0.378,0.137-0.61,0.492-0.61,0.872l0,0c0,0.105,0.016,0.208,0.055,0.309l0,0
		l4.041,11.098l-1.436,0.526L6.093,12.48c-0.106-0.292-0.34-0.496-0.614-0.575l0,0l-0.297-0.035
		c-0.086,0.004-0.178,0.021-0.277,0.059l0,0l-0.808,0.294c-0.376,0.135-0.607,0.489-0.607,0.864l0,0v0.001v0.003
		c0,0.103,0.018,0.211,0.056,0.316l0,0L9.184,28.89l-1.445,0.506l-1.161-3.188L6.425,26.04v-0.004
		c-0.014-0.015-0.028-0.031-0.042-0.048l0,0c-0.138-0.152-0.321-0.361-0.516-0.578l0,0c-0.387-0.433-0.81-0.908-0.931-1.043l0,0
		c-0.353-0.391-1.305-0.757-2.19-0.764l0,0c-0.469,0.004-0.833,0.102-1.075,0.335l0,0c-0.148,0.141-0.227,0.297-0.23,0.421l0,0
		v0.003c0,0.006,0,0.01,0,0.014l0,0c0,0.001,0,0.002,0,0.003l0,0c0,0.171,0.082,0.376,0.339,0.675l0,0
		c0.72,0.835,6.094,6.876,6.317,7.128l0,0c0.347,0.379,0.817,0.821,1.383,1.26l0,0L9.048,34l0.432-0.558l0.867,0.67
		c0.424,0.307,0.941,0.672,1.439,1.046l0,0c0.732,0.529,1.405,1.112,1.784,1.55l0,0c0.113,0.153,0.214,0.222,0.304,0.493l0,0
		l0.002-0.001l0.162,0.448l-0.007-0.021c0.18,0.493,0.64,0.791,1.128,0.792l0,0l0,0c0.002,0,0.003,0,0.005,0l0,0
		C15.176,38.42,15.188,38.42,15.201,38.421L15.201,38.421z M9.04,34.009v-0.718V34.009L9.04,34.009z"/>
</g>
<g id="Layer_1">
</g>
</svg>
