<?xml version="1.0" encoding="iso-8859-1"?>
<!-- Generator: Adobe Illustrator 18.1.1, SVG Export Plug-In . SVG Version: 6.00 Build 0)  -->
<svg version="1.1" xmlns="http://www.w3.org/2000/svg" xmlns:xlink="http://www.w3.org/1999/xlink" x="0px" y="0px"
	 viewBox="0 0 42.495 42.503" style="enable-background:new 0 0 42.495 42.503;" xml:space="preserve">
<g id="Layer_21.svg">
	<polygon points="22.207,0.001 20.288,0 20.287,4.948 17.694,3.573 21.247,9.88 24.801,3.573 22.206,4.949 	"/>
	<polygon points="11.474,8.784 9.001,4.5 7.339,5.46 9.812,9.744 6.88,9.85 13.109,13.535 13.033,6.296 	"/>
	<polygon points="1.798,20.462 9.036,20.538 5.351,14.307 5.245,17.241 0.96,14.767 0,16.43 4.285,18.904 	"/>
	<polygon points="29.462,6.296 29.386,13.535 35.617,9.85 32.684,9.744 35.158,5.46 33.495,4.5 31.022,8.785 	"/>
	<polygon points="33.459,20.538 40.697,20.462 38.21,18.904 42.495,16.43 41.535,14.767 37.25,17.242 37.144,14.307 	"/>
	<path id="inner" fill="#FFFFFF" d="M30.886,16.5l-0.468,0.104l0.468-0.105c-0.173-0.766-0.85-1.289-1.607-1.289
		c-0.113,0-0.233,0.011-0.356,0.038c0.001,0-0.864,0.196-0.89,0.202c-0.081,0.022-0.163,0.044-0.259,0.087
		c-0.128,0.057-0.233,0.128-0.319,0.195c-0.117,0.088-0.232,0.197-0.331,0.33l-0.133,0.175l0.279,1.269
		c0.112,0.502,0.221,1.847,0.22,2.866v0.006v0.826v2.267h-0.087l-0.001-3.007c-0.001-1.106-0.188-2.809-0.423-3.892l-0.923-4.207
		c-0.102-0.464-0.396-0.832-0.763-1.049c-0.246-0.146-0.536-0.236-0.842-0.236c-0.057,0-0.124,0.003-0.201,0.014
		c-0.024,0.003-0.024,0.003-0.024,0.003l-0.028,0.004l0,0.001c-0.073,0.01-0.076,0.015-0.173,0.033
		c-0.264,0.055-0.765,0.163-0.765,0.163c-0.773,0.17-1.296,0.849-1.295,1.604c0,0.074,0.005,0.149,0.015,0.224l-0.004,0.017
		l0.868,3.968c0.217,0.982,0.402,2.688,0.4,3.693v1.996h-0.09v-1.882c-0.001-1.09-0.181-2.757-0.411-3.842V17.07l-1.147-5.221
		c-0.171-0.766-0.848-1.289-1.604-1.289c-0.113,0-0.233,0.011-0.359,0.04l-0.837,0.184c-0.767,0.171-1.292,0.849-1.292,1.607
		c0,0.113,0.011,0.23,0.037,0.35l1.063,4.841c0.217,0.98,0.402,2.686,0.4,3.688v1.523h-0.09v-1.415v-0.006
		c-0.003-1.099-0.188-2.797-0.424-3.879l-0.651-2.963c-0.17-0.769-0.846-1.295-1.603-1.295c-0.113,0-0.236,0.011-0.362,0.043
		L15.04,13.46c-0.77,0.17-1.293,0.85-1.292,1.608c0,0.113,0.011,0.232,0.038,0.351l0.576,2.619c0.217,0.98,0.402,2.688,0.4,3.692
		l0.001,7.044c0,0.128-0.111,0.239-0.24,0.239h-0.896l-0.392-0.472v-1.743c-0.003-0.119-0.016-0.22-0.034-0.316
		c-0.105-0.545-0.41-1.146-0.832-1.686c-0.44-0.545-0.995-1.035-1.698-1.162l-0.012-0.003l-0.022-0.001
		c-0.04-0.003-0.121-0.02-0.244-0.02c0,0-0.003,0-0.008,0c-0.009,0-0.027-0.001-0.058,0.002c-0.343,0.015-0.696,0.131-0.946,0.4
		c-0.289,0.309-0.393,0.729-0.4,1.215v3.807c0,0.616,0.186,1.191,0.501,1.67l0.012,0.019l0.018,0.022
		c0.076,0.093,3.894,4.745,4.126,5.057c0.249,0.33,0.925,1.062,1.561,1.862c0.638,0.762,1.179,1.698,1.132,1.862v0.319v0.021
		c0.001,1.059,0.861,1.916,1.919,1.917h9.235c1.059-0.001,1.917-0.86,1.919-1.917v-0.021v-0.538
		c-0.001-0.621,0.204-1.548,0.504-2.318c0.142-0.369,0.305-0.706,0.465-0.951l0.015-0.025l0.011-0.024
		c0.012-0.03,1.052-2.112,1.222-4.478c0.01-0.193,0.023-0.389,0.023-0.607c0-0.864,0-8.979,0-8.987
		c-0.001-1.104-0.168-2.731-0.384-3.719L30.886,16.5z"/>
	<path d="M18.247,42.501c-1.454-0.001-2.634-1.177-2.637-2.636l0,0v-0.021v-0.267c-0.005-0.014-0.012-0.03-0.021-0.048l0,0
		c-0.043-0.091-0.117-0.228-0.21-0.381l0,0c-0.188-0.309-0.456-0.692-0.745-1.038l0,0c-0.621-0.782-1.272-1.482-1.575-1.881l0,0
		c-0.192-0.26-4.038-4.948-4.106-5.03l0,0l-0.044-0.055l-0.021-0.033l-0.01-0.015c-0.388-0.589-0.62-1.303-0.619-2.064l0,0v-3.819
		c0.006-0.572,0.134-1.199,0.592-1.694l0,0c0.406-0.433,0.937-0.601,1.406-0.626l0,0c0.056-0.006,0.101-0.006,0.111-0.006l0,0
		c0.017,0,0.035,0,0.051,0.002l0,0c0.126,0.002,0.229,0.015,0.269,0.02l0,0v0l0.073,0.005l0.044,0.01
		c0.963,0.183,1.633,0.816,2.128,1.426l0,0c0.476,0.613,0.834,1.291,0.973,1.996l0,0c0.022,0.12,0.043,0.266,0.045,0.448l0,0v1.483
		l0.011,0.014h0.079l-0.001-6.541c0-0.017,0-0.03,0-0.04l0,0c0.002-0.925-0.182-2.625-0.384-3.521l0,0l-0.576-2.618
		c-0.039-0.174-0.054-0.345-0.054-0.505l0,0l0,0c0-0.001,0-0.002,0-0.003l0,0c-0.001-1.089,0.752-2.064,1.858-2.308l0,0l0.812-0.177
		c0.196-0.05,0.38-0.065,0.538-0.065l0,0c0.19,0,0.376,0.023,0.556,0.067l0,0c-0.005-0.065-0.007-0.129-0.007-0.192l0,0
		c-0.001-1.091,0.754-2.063,1.857-2.31l0,0l0.829-0.182c0.186-0.043,0.363-0.058,0.522-0.058l0,0c0.88,0,1.682,0.491,2.088,1.26l0,0
		c0.286-0.242,0.635-0.42,1.028-0.507l0,0c0,0,0.087-0.019,0.209-0.045l0,0l-0.01-0.042l0.781-0.119l0.051-0.007
		c0,0,0,0,0.004-0.001l0,0c0.12-0.016,0.225-0.021,0.305-0.021l0,0c0.449,0,0.863,0.131,1.208,0.335l0,0
		c0.528,0.312,0.951,0.842,1.1,1.515l0,0l0.599,2.73c0.04-0.021,0.082-0.042,0.126-0.061l0,0c0.151-0.066,0.283-0.101,0.372-0.126
		l0,0c0.068-0.017,0.9-0.204,0.91-0.207l0,0c0.013-0.003,0.026-0.006,0.038-0.008l0,0c0.168-0.035,0.33-0.048,0.478-0.048l0,0
		c0.848,0,1.624,0.456,2.044,1.176l0,0l0.112-0.025l0.154,0.704l0.157,0.698l-0.004,0.001l0.22,1.001
		c0.231,1.067,0.396,2.696,0.4,3.871l0,0c0,0.008,0,8.124,0,8.988l0,0c0,0.248-0.015,0.46-0.025,0.657l0,0
		c-0.175,2.382-1.138,4.408-1.277,4.708l0,0l-0.097-0.045l0.084,0.072l-0.027,0.058l-0.018,0.03l-0.029,0.047
		c-0.119,0.181-0.268,0.483-0.398,0.82l0,0c-0.265,0.668-0.451,1.534-0.454,2.017l0,0v0V39.3v0.007v0.538v0.021
		c-0.003,1.455-1.182,2.634-2.639,2.637l0,0L18.247,42.501L18.247,42.501z M17.048,39.845v0.019c0,0.662,0.54,1.199,1.2,1.199l0,0
		h9.234c0.663,0,1.2-0.538,1.201-1.197l0,0v-0.021v-0.499c-0.001-0.012-0.001-0.028-0.001-0.047l0,0
		c0.006-0.769,0.228-1.723,0.552-2.571l0,0c0.156-0.399,0.329-0.768,0.515-1.053l0,0c0.017-0.036,0.017-0.034,0.045-0.094l0,0
		c0.028-0.059,0.066-0.146,0.115-0.257l0,0c0.095-0.222,0.225-0.544,0.36-0.933l0,0c0.269-0.78,0.554-1.839,0.631-2.917l0,0
		c0.01-0.203,0.022-0.384,0.022-0.57l0,0c0-0.866,0-8.98,0-8.987l0,0c0.001-1.035-0.166-2.658-0.366-3.565l0,0l-0.373-1.697h0
		c-0.096-0.433-0.482-0.728-0.904-0.728l0,0c-0.067,0-0.133,0.007-0.197,0.021l0,0v0c0,0-0.013,0.003-0.034,0.008l0,0l-0.045,0.01
		h-0.001c-0.215,0.048-0.788,0.178-0.781,0.177l0,0c-0.083,0.022-0.113,0.032-0.157,0.051l0,0c-0.055,0.023-0.109,0.059-0.177,0.112
		l0,0c-0.042,0.031-0.082,0.067-0.12,0.106l0,0l0.206,0.937c0.132,0.62,0.231,1.914,0.236,2.988l0,0v0v0.013v0.003v0.016v0.007V21.2
		v2.986h-1.526l-0.001-3.725c0-1.03-0.185-2.73-0.406-3.738l0,0l-0.924-4.207c-0.055-0.255-0.22-0.461-0.429-0.585l0,0
		c-0.144-0.086-0.309-0.135-0.474-0.135l0,0c-0.019,0-0.037,0.001-0.06,0.003l0,0l-0.096,0.013c-0.018,0.001,0.004,0-0.122,0.023
		l0,0C23.911,11.892,23.41,12,23.413,12l0,0c-0.439,0.095-0.729,0.476-0.729,0.897l0,0V12.9c0,0.042,0.003,0.084,0.008,0.126l0,0
		l0.009,0.068l0.844,3.86c0.229,1.047,0.411,2.71,0.417,3.798l0,0l0.002,0.012v2.755h-1.53v-2.601
		c0.001-1.016-0.178-2.679-0.395-3.694l0,0l-0.016-0.073v-0.002l-1.129-5.143c-0.097-0.434-0.479-0.726-0.902-0.726l0,0
		c-0.067,0-0.131,0.006-0.206,0.023l0,0l-0.834,0.182c-0.435,0.097-0.729,0.48-0.729,0.904l0,0c0,0.066,0.007,0.131,0.021,0.194l0,0
		l1.063,4.841c0.228,1.043,0.409,2.702,0.417,3.788l0,0l0,0.002v0.043v0.015l0,0l0,0l0,0l0,0v2.238h-1.528v-2.135v-0.004
		c-0.001-1.023-0.185-2.717-0.407-3.726l0,0l-0.651-2.962c-0.097-0.436-0.479-0.729-0.9-0.73l0,0c-0.068,0-0.13,0.007-0.208,0.026
		l0,0l-0.834,0.182c-0.435,0.095-0.726,0.477-0.727,0.903l0,0v0.003c0,0.065,0.007,0.132,0.021,0.196l0,0l0.576,2.618
		c0.228,1.044,0.409,2.704,0.417,3.792l0,0l0,0.002l0.001,7.098c-0.014,0.545-0.417,0.945-0.96,0.958l0,0h-1.233L12.514,28.8v-1.988
		c-0.001-0.072-0.008-0.126-0.022-0.196l0,0c-0.07-0.389-0.323-0.911-0.685-1.368l0,0c-0.386-0.482-0.818-0.826-1.251-0.904l0,0
		c-0.107-0.011-0.102-0.014-0.16-0.015l0,0l-0.042,0.001c-0.208,0.01-0.367,0.079-0.45,0.173l0,0
		c-0.119,0.124-0.2,0.335-0.207,0.723l0,0v3.808c0,0.461,0.136,0.89,0.372,1.259l0,0c0.142,0.174,3.873,4.719,4.142,5.076l0,0
		c0.196,0.265,0.897,1.03,1.538,1.833l0,0c0.501,0.603,0.921,1.252,1.143,1.721l0,0c0.071,0.175,0.142,0.266,0.159,0.58l0,0
		c0,0.023-0.001,0.048-0.003,0.072l0,0V39.845L17.048,39.845z M29.732,35.712c0.001-0.002,0.002-0.004,0.003-0.007l0,0h0
		L29.732,35.712L29.732,35.712z M30.184,16.654l0.233-0.051L30.184,16.654L30.184,16.654z M29.643,15.247
		c0.001-0.036-0.002-0.083-0.013-0.136l0,0C29.638,15.155,29.643,15.201,29.643,15.247L29.643,15.247z"/>
</g>
<g id="Layer_1">
</g>
</svg>
