<?xml version="1.0" encoding="iso-8859-1"?>
<!-- Generator: Adobe Illustrator 18.1.1, SVG Export Plug-In . SVG Version: 6.00 Build 0)  -->
<svg version="1.1" xmlns="http://www.w3.org/2000/svg" xmlns:xlink="http://www.w3.org/1999/xlink" x="0px" y="0px"
	 viewBox="0 0 44.169 42.157" style="enable-background:new 0 0 44.169 42.157;" xml:space="preserve">
<g id="Layer_26.svg">
	<path d="M9.936,19.841l-2.514-0.916c0.009-0.11,0.019-0.218,0.019-0.328c0-0.775-0.244-1.562-0.742-2.227
		c-0.729-0.975-1.852-1.492-2.981-1.491c-0.772-0.001-1.561,0.242-2.227,0.742h0c-0.974,0.728-1.493,1.852-1.49,2.98
		c-0.001,0.774,0.242,1.561,0.742,2.227c0.73,0.975,1.852,1.492,2.98,1.491c0.774,0,1.562-0.245,2.227-0.742
		c0.325-0.243,0.594-0.532,0.815-0.849l2.516,0.916l-1.525,1.261l5.83-0.715l-4.006-4.296L9.936,19.841z M4.799,20.041
		c-0.327,0.243-0.7,0.358-1.078,0.359c-0.552-0.001-1.089-0.246-1.443-0.722c-0.245-0.327-0.359-0.699-0.36-1.078
		c0.001-0.551,0.247-1.088,0.722-1.444l0.003-0.001c0.324-0.243,0.696-0.358,1.075-0.358c0.552,0.002,1.089,0.247,1.444,0.723
		c0.244,0.325,0.359,0.699,0.359,1.077C5.52,19.148,5.274,19.685,4.799,20.041z"/>
	<path d="M42.678,15.621L42.678,15.621c-0.667-0.5-1.455-0.743-2.227-0.742c-1.129-0.001-2.251,0.516-2.98,1.491
		c-0.5,0.665-0.743,1.452-0.743,2.227c0,0.11,0.008,0.219,0.018,0.328l-2.512,0.915l0.357-1.945l-0.928,0.995
		c0.121,0.891,0.2,1.895,0.202,2.681c0,0.002,0,0.398,0,1.022l2.55,0.312l-1.525-1.262l2.515-0.915
		c0.221,0.317,0.49,0.606,0.815,0.849c0.665,0.498,1.452,0.742,2.227,0.741c0.002,0,0.005,0,0.007,0
		c1.125,0,2.245-0.517,2.973-1.488c0.498-0.668,0.742-1.454,0.742-2.229C44.17,17.473,43.652,16.349,42.678,15.621z M41.889,19.681
		c-0.353,0.472-0.891,0.718-1.443,0.719c-0.378-0.001-0.751-0.116-1.077-0.359c-0.475-0.356-0.722-0.893-0.723-1.444
		c0.001-0.378,0.116-0.751,0.359-1.076c0.357-0.476,0.893-0.722,1.445-0.723c0.378,0,0.75,0.115,1.077,0.359
		c0.474,0.356,0.721,0.892,0.723,1.444C42.248,18.978,42.133,19.352,41.889,19.681z"/>
	<path d="M32.691,11.555c0.349,0.163,0.728,0.277,1.132,0.326c0.151,0.018,0.297,0.025,0.446,0.025c1.861,0,3.463-1.387,3.691-3.278
		c0.017-0.15,0.026-0.297,0.026-0.445c0-1.861-1.388-3.462-3.278-3.69l0,0.001c-0.157-0.021-0.306-0.027-0.445-0.027
		c-1.862,0-3.462,1.389-3.691,3.279c-0.019,0.148-0.027,0.3-0.027,0.445c0,0.785,0.249,1.522,0.677,2.131l-1.718,2.048l-0.663-1.863
		l-0.452,1.958l0.552,2.514c0.097-0.072,0.223-0.156,0.383-0.227c0.138-0.062,0.244-0.089,0.311-0.107
		c0.082-0.021,0.084-0.02,0.186-0.043c0.084-0.02,0.196-0.045,0.306-0.069c0.221-0.05,0.44-0.099,0.432-0.097
		c0.164-0.039,0.32-0.052,0.464-0.052c0.213,0,0.418,0.038,0.616,0.097l1.286-0.546l-1.952-0.33L32.691,11.555z M32.474,7.981
		c0.109-0.923,0.89-1.596,1.787-1.596c0.076,0,0.143,0.004,0.204,0.012l0.013,0.002c0.915,0.107,1.587,0.889,1.587,1.784
		c0,0.071-0.005,0.144-0.013,0.223c-0.108,0.91-0.889,1.582-1.785,1.582c-0.072,0-0.147-0.005-0.223-0.012
		c-0.91-0.108-1.583-0.889-1.583-1.785C32.462,8.117,32.466,8.046,32.474,7.981z"/>
	<path d="M19.63,10.344c0.234-0.173,0.502-0.307,0.805-0.376l0.13-0.028l-1.626-0.954L19.63,10.344z"/>
	<path d="M23.641,0.61L23.641,0.61C23.016,0.2,22.304,0,21.607,0c-1.211-0.001-2.404,0.595-3.117,1.687
		c-0.409,0.624-0.607,1.334-0.606,2.032c-0.002,1.21,0.595,2.403,1.684,3.117c0.339,0.222,0.704,0.377,1.077,0.476v2.612
		l0.619-0.136c0.167-0.039,0.326-0.052,0.47-0.052c0.292,0,0.572,0.065,0.83,0.175V7.313c0.854-0.23,1.632-0.759,2.153-1.555
		c0.409-0.627,0.608-1.337,0.606-2.034C25.325,2.514,24.73,1.321,23.641,0.61z M23.111,4.708c-0.345,0.529-0.919,0.813-1.509,0.815
		c-0.339,0-0.677-0.094-0.983-0.294c-0.53-0.348-0.815-0.921-0.816-1.511c0.001-0.339,0.094-0.676,0.293-0.982
		c0.347-0.53,0.919-0.815,1.511-0.816c0.337,0.001,0.675,0.094,0.983,0.294l0.001,0.001c0.529,0.346,0.814,0.918,0.815,1.509
		C23.404,4.063,23.311,4.4,23.111,4.708z"/>
	<path d="M23.446,10.607l0.825-1.62l-1.629,0.955C22.959,10.092,23.236,10.319,23.446,10.607z"/>
	<path d="M14.851,10.507l-0.664,1.864l-1.719-2.049c0.427-0.608,0.677-1.346,0.678-2.129c-0.001-0.149-0.009-0.296-0.027-0.444
		C12.89,5.856,11.29,4.466,9.428,4.466c-0.138,0-0.286,0.007-0.445,0.028c-1.891,0.227-3.28,1.828-3.28,3.69
		c0,0.144,0.008,0.294,0.027,0.451c0.228,1.884,1.83,3.271,3.691,3.273c0.148,0,0.294-0.01,0.439-0.026
		c0.406-0.049,0.786-0.164,1.137-0.328l1.72,2.05l-1.951,0.33l4.434,1.883l-0.141-0.64c-0.036-0.156-0.051-0.31-0.051-0.456
		c0-0.508,0.185-0.987,0.5-1.363L14.851,10.507z M9.638,9.976C9.566,9.984,9.492,9.988,9.421,9.988
		c-0.897,0-1.678-0.673-1.786-1.587C7.627,8.327,7.623,8.257,7.623,8.184c0-0.895,0.673-1.677,1.588-1.785l0.015-0.002
		c0.058-0.008,0.126-0.012,0.202-0.012c0.895,0,1.677,0.674,1.785,1.588c0.008,0.071,0.013,0.146,0.013,0.218
		C11.226,9.087,10.554,9.867,9.638,9.976z"/>
	<path id="inner" fill="#FFFFFF" d="M32.628,16.154c-0.173-0.767-0.849-1.292-1.607-1.291c-0.113,0-0.233,0.01-0.356,0.038
		c0,0-0.861,0.195-0.893,0.202c-0.079,0.022-0.159,0.044-0.255,0.085c-0.131,0.058-0.236,0.13-0.32,0.195
		c-0.116,0.089-0.232,0.197-0.333,0.331l-0.131,0.175l0.279,1.269c0.113,0.501,0.222,1.847,0.221,2.864v0.006v0.827v2.267h-0.09
		v-3.007c-0.001-1.107-0.186-2.809-0.422-3.893l-0.923-4.205c-0.102-0.464-0.396-0.832-0.763-1.05
		c-0.246-0.146-0.536-0.235-0.842-0.235c-0.056,0-0.124,0.001-0.202,0.014c-0.023,0.003-0.023,0.003-0.023,0.003l-0.022,0.003
		l-0.011,0.002c-0.068,0.01-0.074,0.015-0.167,0.033c-0.264,0.055-0.765,0.163-0.765,0.163c-0.773,0.168-1.296,0.849-1.295,1.604
		c0,0.073,0.005,0.148,0.015,0.224l-0.004,0.017l0.868,3.968c0.217,0.98,0.402,2.688,0.4,3.692v1.996h-0.09v-1.88
		c-0.001-1.107-0.186-2.811-0.422-3.893l0.005,0.021l-1.14-5.197c-0.173-0.767-0.849-1.29-1.605-1.289
		c-0.113,0-0.233,0.009-0.359,0.04l-0.837,0.184c-0.768,0.171-1.292,0.849-1.292,1.607c0,0.113,0.011,0.231,0.039,0.351l1.061,4.839
		c0.217,0.98,0.402,2.686,0.4,3.69l0.001,1.523h-0.091V21.03v-0.004c-0.001-1.099-0.188-2.797-0.424-3.879l-0.651-2.964
		c-0.168-0.767-0.846-1.293-1.604-1.293c-0.112,0-0.235,0.011-0.362,0.041l-0.834,0.184c-0.769,0.168-1.292,0.849-1.292,1.607
		c0,0.113,0.012,0.233,0.039,0.354l0.574,2.616c0.217,0.982,0.403,2.688,0.402,3.693v7.044c0,0.128-0.11,0.239-0.24,0.239h-0.895
		l-0.393-0.472v-1.743c-0.001-0.119-0.017-0.22-0.035-0.316c-0.105-0.545-0.41-1.146-0.832-1.686
		c-0.44-0.545-0.994-1.035-1.698-1.162l-0.012-0.003l-0.022-0.001c-0.039-0.003-0.12-0.019-0.243-0.019c0,0-0.003,0-0.008,0
		c-0.01-0.001-0.03-0.001-0.063,0.002c-0.341,0.014-0.693,0.13-0.942,0.398c-0.288,0.311-0.393,0.729-0.4,1.216v3.806
		c0,0.617,0.188,1.192,0.501,1.67l0.012,0.019l0.018,0.023c0.077,0.091,3.894,4.745,4.126,5.056
		c0.248,0.331,0.925,1.063,1.561,1.862c0.639,0.762,1.179,1.699,1.132,1.862v0.32v0.019c0.001,1.059,0.861,1.917,1.919,1.919h9.237
		c1.059-0.001,1.918-0.86,1.919-1.919V39.5v-0.538c-0.003-0.623,0.203-1.548,0.503-2.318c0.144-0.369,0.305-0.707,0.465-0.953
		l0.015-0.023l0.011-0.024c0.012-0.03,1.052-2.112,1.222-4.479c0.01-0.193,0.023-0.389,0.023-0.606c0-0.864,0-8.979,0-8.988
		c-0.001-1.104-0.168-2.731-0.384-3.719L32.628,16.154z"/>
	<path d="M19.989,42.156c-1.455-0.002-2.634-1.179-2.637-2.637l0,0V39.5v-0.268c-0.006-0.014-0.013-0.03-0.022-0.048l0,0
		c-0.041-0.091-0.116-0.228-0.208-0.381l0,0c-0.188-0.309-0.454-0.692-0.746-1.038l0,0c-0.621-0.78-1.272-1.48-1.574-1.879l0,0
		c-0.189-0.257-4.047-4.959-4.122-5.05l0,0l-0.036-0.047l-0.014-0.022l-0.01-0.015c-0.387-0.588-0.62-1.3-0.62-2.064l0,0
		l0.001-3.816c0.005-0.574,0.135-1.202,0.592-1.697l0,0c0.402-0.429,0.928-0.598,1.394-0.625l0,0c0.06-0.007,0.109-0.006,0.12-0.006
		l0,0c0.016,0,0.032,0.001,0.046,0.001l0,0c0.129,0.001,0.235,0.015,0.277,0.021l0,0v0l0.072,0.005l0.043,0.009
		c0.966,0.183,1.636,0.816,2.13,1.427l0,0c0.476,0.613,0.834,1.291,0.973,1.996l0,0c0.021,0.113,0.044,0.263,0.046,0.448l0,0v1.483
		l0.011,0.014h0.079v-6.56c-0.001-0.017,0-0.017,0-0.017l0,0c0.001-0.925-0.184-2.628-0.385-3.528l0,0l-0.574-2.616
		c-0.037-0.171-0.055-0.341-0.055-0.507l0,0c0-1.089,0.752-2.067,1.857-2.31l0,0l0.821-0.181c0.191-0.045,0.372-0.061,0.529-0.061
		l0,0c0.19,0,0.377,0.023,0.557,0.067l0,0c-0.005-0.066-0.008-0.13-0.008-0.193l0,0c-0.001-1.091,0.754-2.063,1.857-2.31l0,0
		l0.822-0.179c0.167-0.04,0.324-0.056,0.463-0.06l0,0c0.044-0.005,0.075-0.003,0.095-0.001l0,0c0.001,0,0.002,0,0.004,0l0,0
		c0.867,0.01,1.654,0.499,2.056,1.259l0,0c0.286-0.242,0.635-0.42,1.028-0.506l0,0c0,0,0.501-0.108,0.777-0.165l0,0
		c0.053-0.01,0.083-0.021,0.181-0.037l0,0l0.017-0.003l0.029-0.004l0.026-0.003c0,0,0,0,0.008-0.001l0,0
		c0.129-0.02,0.236-0.021,0.302-0.021l0,0c0.446,0,0.861,0.128,1.211,0.335l0,0c0.525,0.312,0.948,0.842,1.098,1.515l0,0
		l0.599,2.729c0.042-0.023,0.087-0.045,0.135-0.066l0,0c0.144-0.06,0.269-0.094,0.344-0.116l0,0l0.029-0.007l0.011-0.003
		c0.023-0.006,0.888-0.2,0.885-0.2l0,0c0.162-0.038,0.316-0.052,0.454-0.056l0,0c0.033-0.004,0.059-0.003,0.078-0.002l0,0
		c1.088,0.005,2.049,0.761,2.296,1.853l0,0l-0.701,0.158l0.703-0.155l0.373,1.698c0.229,1.067,0.396,2.696,0.4,3.872l0,0
		c0,0.009,0,8.123,0,8.989l0,0c0,0.247-0.015,0.458-0.025,0.657l0,0c-0.175,2.382-1.138,4.408-1.277,4.708l0,0l-0.097-0.045
		l0.087,0.066l-0.032,0.069l-0.029,0.046l-0.016,0.025c-0.117,0.178-0.267,0.483-0.398,0.82l0,0c-0.27,0.68-0.457,1.563-0.453,2.039
		l0,0c0,0.001,0,0.003,0,0.005l0,0h-0.484l0.484,0.014V39.5v0.019c-0.003,1.457-1.182,2.636-2.638,2.638l0,0L19.989,42.156
		L19.989,42.156z M18.79,39.5v0.018c0,0.662,0.54,1.2,1.2,1.2l0,0h9.235c0.663,0,1.2-0.538,1.201-1.198l0,0V39.5v-0.498
		c0-0.008-0.001-0.023-0.001-0.054l0,0c0.006-0.769,0.227-1.719,0.552-2.565l0,0c0.153-0.389,0.32-0.752,0.516-1.058l0,0
		c0.014-0.03,0.015-0.031,0.041-0.088l0,0c0.029-0.059,0.068-0.146,0.116-0.257l0,0c0.095-0.222,0.225-0.544,0.36-0.933l0,0
		c0.269-0.78,0.554-1.839,0.631-2.917l0,0c0.01-0.204,0.022-0.385,0.022-0.57l0,0c0-0.866,0-8.98,0-8.988l0,0
		c0.001-1.035-0.166-2.658-0.367-3.566l0,0l-0.373-1.696h0.001c-0.096-0.418-0.453-0.704-0.854-0.726l0,0h-0.049
		c-0.072,0-0.137,0.007-0.197,0.021l0,0c-0.003,0.001-0.756,0.171-0.881,0.199l0,0c-0.066,0.018-0.099,0.029-0.135,0.044l0,0
		c-0.061,0.028-0.115,0.062-0.173,0.108l0,0c-0.047,0.037-0.09,0.074-0.127,0.113l0,0L29.713,17c0.136,0.623,0.234,1.917,0.239,2.99
		l0,0l0,0v0.013v0.003v0.016v0.007v0.826v2.986h-1.528v-3.725c0-1.033-0.184-2.73-0.406-3.739l0,0l-0.924-4.204
		c-0.055-0.257-0.22-0.462-0.428-0.588l0,0c-0.142-0.084-0.308-0.134-0.475-0.134l0,0c-0.044,0-0.065,0.003-0.084,0.006l0,0
		L26.09,11.46l-0.015,0.001c-0.006,0.001-0.011,0.001-0.014,0.002l0,0l-0.005,0.001l-0.019,0.003
		c-0.019,0.001-0.001,0.001-0.123,0.025l0,0c-0.26,0.055-0.759,0.163-0.759,0.163l0,0c-0.436,0.094-0.728,0.477-0.728,0.897l0,0
		v0.003c0,0.04,0.003,0.083,0.008,0.126l0,0l0.011,0.074l0.843,3.855c0.227,1.043,0.409,2.703,0.418,3.791l0,0l0,0.002v0.043v2.727
		h-1.53v-2.599c0.001-1.033-0.184-2.733-0.406-3.74l0,0h0l-1.134-5.17c-0.094-0.421-0.451-0.706-0.851-0.728l0,0h-0.052
		c-0.075,0-0.134,0.006-0.206,0.023l0,0l-0.834,0.182c-0.435,0.097-0.729,0.48-0.729,0.904l0,0c0,0.066,0.007,0.128,0.022,0.196l0,0
		l1.062,4.838c0.229,1.049,0.411,2.721,0.417,3.808l0,0v0.001l0.003,2.278h-1.531v-2.136v-0.003c0-1.023-0.185-2.717-0.407-3.726
		l0,0l-0.652-2.963c-0.094-0.433-0.478-0.727-0.901-0.729l0,0c-0.066,0-0.131,0.007-0.207,0.025l0,0l-0.835,0.184
		c-0.431,0.094-0.725,0.477-0.726,0.904l0,0c0,0.06,0.008,0.131,0.022,0.199l0,0l0.574,2.615c0.227,1.042,0.41,2.698,0.418,3.787
		l0,0l0,0.001v0.043v0.006v7.057c-0.014,0.544-0.417,0.945-0.96,0.958l0,0h-1.232l-0.776-0.932v-1.995
		c-0.001-0.062-0.007-0.113-0.022-0.189l0,0c-0.07-0.389-0.323-0.911-0.685-1.37l0,0c-0.387-0.481-0.816-0.824-1.25-0.903l0,0
		c-0.106-0.011-0.1-0.014-0.163-0.015l0,0l-0.045,0.001c-0.205,0.008-0.362,0.077-0.443,0.17l0,0
		c-0.12,0.127-0.202,0.337-0.208,0.726l0,0v3.806c0,0.466,0.14,0.901,0.381,1.272l0,0c0.312,0.378,3.867,4.712,4.132,5.064l0,0
		c0.196,0.265,0.897,1.03,1.537,1.832l0,0c0.503,0.603,0.924,1.254,1.145,1.72l0,0c0.07,0.177,0.141,0.266,0.159,0.58l0,0
		c0,0.026-0.001,0.049-0.003,0.067l0,0V39.5L18.79,39.5z M31.474,35.367C31.475,35.367,31.475,35.367,31.474,35.367L31.474,35.367
		v-0.001V35.367L31.474,35.367z M11.806,29.941L11.806,29.941l-0.005-0.006C11.802,29.936,11.804,29.938,11.806,29.941
		L11.806,29.941z"/>
</g>
<g id="Layer_1">
</g>
</svg>
