<?xml version="1.0" encoding="iso-8859-1"?>
<!-- Generator: Adobe Illustrator 18.1.1, SVG Export Plug-In . SVG Version: 6.00 Build 0)  -->
<svg version="1.1" xmlns="http://www.w3.org/2000/svg" xmlns:xlink="http://www.w3.org/1999/xlink" x="0px" y="0px"
	 viewBox="0 0 48.006 43.121" style="enable-background:new 0 0 48.006 43.121;" xml:space="preserve">
<g id="Layer_27.svg">
	<path d="M9.863,19.119c-0.774,0-1.563,0.242-2.23,0.746c-0.324,0.242-0.592,0.53-0.813,0.846l-2.512-0.915l1.523-1.261L0,19.25
		l4.006,4.296L3.649,21.6l2.512,0.914c-0.009,0.11-0.018,0.219-0.018,0.329c0,0.772,0.243,1.561,0.743,2.228
		c0.724,0.965,1.833,1.481,2.952,1.488c0.107-0.385,0.345-0.706,0.588-0.915c0.349-0.31,0.739-0.469,1.128-0.544l-0.036-0.049
		l0.036,0.049c0.223-0.044,0.446-0.06,0.66-0.062c0.206,0,0.409,0.021,0.609,0.049c0.498-0.656,0.762-1.45,0.76-2.249
		c0.001-0.775-0.242-1.562-0.741-2.226C12.115,19.636,10.991,19.117,9.863,19.119z M10.946,24.282L10.946,24.282
		c-0.329,0.244-0.703,0.358-1.08,0.36c-0.553-0.003-1.089-0.248-1.444-0.722c-0.245-0.328-0.359-0.701-0.359-1.078
		c0.001-0.552,0.247-1.087,0.721-1.443c0.328-0.246,0.7-0.36,1.079-0.36c0.552,0.001,1.089,0.246,1.444,0.722
		c0.243,0.325,0.358,0.699,0.358,1.077C11.664,23.389,11.418,23.925,10.946,24.282z"/>
	<path d="M14.375,10.045c-0.143,0.002-0.297,0.008-0.46,0.03c-0.398,0.048-0.773,0.161-1.119,0.322l-1.717-2.046l1.951-0.33
		L7.623,5.726l1.322,5.723l0.663-1.864l1.717,2.048c-0.426,0.608-0.676,1.346-0.676,2.131c0,0.144,0.008,0.295,0.028,0.451
		c0.226,1.884,1.828,3.273,3.689,3.273c0.147,0,0.294-0.009,0.439-0.025l0.007-0.001c0.821-0.099,1.548-0.458,2.107-0.985
		l-0.183-2.089c-0.007-0.078-0.009-0.145-0.009-0.196c-0.001-0.782,0.43-1.475,1.08-1.844
		C17.242,10.975,15.896,10.045,14.375,10.045z M14.591,15.554c-0.079,0.008-0.153,0.013-0.224,0.014
		c-0.897,0-1.678-0.673-1.784-1.586c-0.01-0.075-0.013-0.146-0.013-0.218c0-0.895,0.671-1.676,1.586-1.784
		c0.073-0.009,0.141-0.014,0.218-0.014c0.895,0,1.677,0.673,1.785,1.588c0.008,0.071,0.012,0.145,0.012,0.216
		C16.173,14.662,15.503,15.443,14.591,15.554z"/>
	<path d="M26.518,7.384c-0.338-0.222-0.703-0.377-1.076-0.476V4.233l1.706,1.002L24.483,0l-2.666,5.235l1.707-1.002l0,2.673
		c-0.855,0.229-1.633,0.759-2.155,1.557c-0.408,0.623-0.606,1.335-0.606,2.033c-0.001,1.076,0.474,2.137,1.346,2.861l0-1.042
		c0.004-0.579,0.238-1.101,0.615-1.482c-0.021-0.112-0.041-0.223-0.041-0.336c0.001-0.338,0.093-0.676,0.295-0.983
		c0.346-0.531,0.917-0.815,1.509-0.817c0.338,0,0.676,0.095,0.983,0.295c0.53,0.345,0.815,0.919,0.816,1.511
		c0,0.02-0.004,0.038-0.004,0.058c0.565,0.38,0.936,1.026,0.939,1.76v0.691c0.135-0.147,0.263-0.303,0.377-0.474
		c0.41-0.628,0.607-1.338,0.607-2.034C28.204,9.288,27.608,8.095,26.518,7.384z"/>
	<path d="M37.473,16.121c0.433-0.529,0.727-1.182,0.815-1.911c0.018-0.153,0.027-0.3,0.027-0.448c0-0.784-0.249-1.521-0.677-2.129
		l1.718-2.048l0.664,1.864l1.322-5.723l-5.407,2.296l1.951,0.33l-1.719,2.047c-0.349-0.162-0.728-0.276-1.132-0.325
		c-0.15-0.021-0.304-0.028-0.446-0.028c-1.355,0-2.57,0.738-3.22,1.869c0.747,0.336,1.255,1.081,1.253,1.932
		c0,0.054-0.001,0.112-0.007,0.183l-0.238,2.722c0.079,0.059,0.16,0.114,0.244,0.168l0.052-0.295
		c0.107-0.588,0.448-1.067,0.905-1.377c-0.478-0.33-0.788-0.875-0.787-1.479c-0.001-0.074,0.003-0.143,0.012-0.208
		c0.109-0.923,0.89-1.596,1.785-1.596c0.077,0,0.143,0.005,0.205,0.012c0.929,0.109,1.6,0.89,1.6,1.785
		c0,0.07-0.004,0.144-0.014,0.225c-0.048,0.413-0.242,0.773-0.517,1.048l0.126,0.023l0.002,0.001
		C36.647,15.176,37.175,15.582,37.473,16.121z"/>
	<path d="M48.006,19.25l-5.83-0.715l1.523,1.261l-2.514,0.915c-0.221-0.316-0.49-0.605-0.815-0.849
		c-0.666-0.5-1.455-0.743-2.228-0.743c-0.245-0.001-0.488,0.028-0.728,0.076c-0.117,0.662-0.256,1.45-0.395,2.239
		c0.323-0.259,0.719-0.394,1.123-0.394c0.379,0,0.75,0.114,1.077,0.359c0.476,0.355,0.723,0.892,0.723,1.444
		c-0.001,0.376-0.115,0.75-0.36,1.08c-0.355,0.471-0.892,0.717-1.443,0.72c-0.379-0.002-0.752-0.116-1.079-0.36v0.001
		c-0.192-0.144-0.336-0.324-0.453-0.516c-0.121,0.683-0.215,1.215-0.254,1.438c-0.001,0.008-0.003,0.021-0.005,0.029v0.001
		c-0.04,0.229-0.079,0.497-0.114,0.787c0.591,0.354,1.249,0.54,1.904,0.538h0.003c1.126,0,2.248-0.515,2.976-1.489
		c0.499-0.669,0.744-1.454,0.743-2.228c0-0.11-0.009-0.219-0.019-0.328l2.514-0.915L44,23.546L48.006,19.25z"/>
	<path id="inner" fill="#FFFFFF" d="M35.908,15.53l-0.084,0.472l0.083-0.472l-0.852-0.15c-0.094-0.016-0.189-0.025-0.284-0.025
		c-0.785,0-1.479,0.558-1.624,1.355l-1.233,7.003l-0.62-0.065l0.845-9.661c0.004-0.051,0.005-0.097,0.005-0.141
		c0.001-0.847-0.643-1.564-1.5-1.638l-0.856-0.076c-0.044-0.004-0.094-0.007-0.145-0.007c-0.802,0-1.484,0.578-1.62,1.363
		l-0.009,0.013l-0.87,9.908h-0.405V12.319c-0.004-0.907-0.736-1.639-1.64-1.642h-0.867c-0.906,0.003-1.64,0.733-1.644,1.639
		L22.59,23.41h-0.411l-0.395-4.501l-0.435-4.938c-0.076-0.855-0.788-1.502-1.633-1.504c-0.04,0.001-0.091,0.001-0.153,0.009
		l-0.853,0.075c-0.857,0.073-1.502,0.794-1.501,1.639c0,0.042,0.001,0.093,0.007,0.149l1.32,15.067l0.003,0.036
		c0-0.001,0,0.006,0,0.011c-0.006,0.107-0.062,0.17-0.179,0.175l-0.322,0.001c-0.206,0.019-0.696-0.211-0.812-0.381L15.01,26.59
		c-0.431-0.484-1.154-0.803-1.952-0.981c-0.276-0.057-0.561-0.091-0.844-0.091c-0.518,0.001-1.052,0.109-1.466,0.48
		c-0.272,0.239-0.493,0.587-0.49,0.994c0.003,0.4,0.189,0.76,0.478,1.118c0.716,0.885,4.833,5.824,4.835,5.826
		c0.67,0.802,1.568,1.93,1.98,2.481c0.249,0.331,0.927,1.063,1.561,1.863c0.639,0.762,1.181,1.698,1.134,1.862v0.319v0.019
		c0.001,1.059,0.86,1.918,1.919,1.919l9.234,0.001c1.059-0.003,1.918-0.862,1.919-1.921v-0.019v-0.538
		c-0.001-0.621,0.204-1.548,0.504-2.318c0.142-0.369,0.305-0.706,0.464-0.952l0.014-0.022l0.014-0.026
		c0.011-0.03,1.052-2.111,1.222-4.478c0.008-0.195,0.022-0.389,0.022-0.608c0-0.738,0-2.678,0-2.681
		c0-1.011,0.149-2.719,0.326-3.718c0.17-0.963,1.354-7.681,1.356-7.69c0.017-0.098,0.023-0.192,0.023-0.283
		C37.262,16.365,36.704,15.674,35.908,15.53z"/>
	<path d="M22.163,43.12c-1.455-0.003-2.635-1.182-2.637-2.638l0,0v-0.02v-0.266c-0.006-0.014-0.013-0.03-0.021-0.048l0,0
		c-0.043-0.091-0.116-0.228-0.21-0.381l0,0c-0.188-0.309-0.456-0.692-0.747-1.04l0,0c-0.62-0.782-1.272-1.48-1.574-1.881l0,0
		c-0.396-0.528-1.296-1.66-1.956-2.449l0,0l-0.003-0.004c-0.001-0.001-0.006-0.006-0.008-0.011l0,0
		c-0.008-0.009-0.021-0.023-0.036-0.041l0,0c-0.03-0.036-0.075-0.09-0.131-0.159l0,0c-0.115-0.137-0.279-0.333-0.478-0.572l0,0
		c-0.398-0.478-0.935-1.123-1.494-1.796l0,0c-1.12-1.346-2.325-2.799-2.692-3.252l0,0c-0.332-0.411-0.622-0.918-0.636-1.538l0,0
		c-0.001-0.028-0.001-0.048,0-0.053l0,0h0c0.008-0.672,0.36-1.186,0.729-1.51l0,0c0.602-0.537,1.338-0.663,1.947-0.664l0,0
		c0.341,0,0.674,0.041,1,0.109l0,0c0.882,0.201,1.733,0.543,2.349,1.223l0,0l2.193,2.633l-1.258-14.355
		c-0.007-0.086-0.01-0.159-0.01-0.217l0,0h0c0-0.002,0-0.004,0-0.006l0,0c0-0.007,0-0.014,0-0.021l0,0c0,0.006,0,0.013,0,0.02l0,0
		c-0.001-0.025-0.001-0.045,0.001-0.052l0,0c0.027-1.191,0.944-2.194,2.156-2.297l0,0l0.83-0.073
		c0.109-0.014,0.196-0.013,0.215-0.014l0,0l0.01-0.001l0.017,0.001c0.951,0.001,1.782,0.569,2.153,1.402l0,0l0-0.839
		c0.006-1.302,1.062-2.35,2.364-2.354l0,0h0.869c1.301,0.004,2.351,1.056,2.358,2.361l0,0v0.543c0.359-0.864,1.21-1.456,2.183-1.456
		l0,0c0.077,0,0.149,0.003,0.209,0.01l0,0l0.853,0.075c1.232,0.106,2.16,1.136,2.16,2.353l0,0v0.002c0,0.06-0.001,0.126-0.008,0.203
		l0,0l-0.158,1.805c0.412-0.743,1.203-1.22,2.073-1.22l0,0c0.137,0,0.273,0.013,0.409,0.036l0,0l0.146,0.026l0-0.002l0.477,0.086
		l0.937,0.165l-0.02,0.113c0.767,0.404,1.262,1.206,1.262,2.091l0,0c0,0.127-0.01,0.262-0.033,0.402l0,0
		c-0.004,0.022-1.188,6.728-1.357,7.696l0,0c-0.167,0.933-0.316,2.648-0.315,3.593l0,0c0,0.002,0,1.943,0,2.681l0,0
		c0,0.249-0.015,0.457-0.025,0.659l0,0c-0.171,2.371-1.143,4.423-1.27,4.695l0,0l-0.008,0.023l-0.023,0.044l-0.028,0.052
		l-0.014,0.021l-0.018,0.03c-0.12,0.184-0.269,0.487-0.399,0.823l0,0c-0.265,0.67-0.452,1.539-0.454,2.019l0,0v0v0.029v0.007v0.538
		v0.021c-0.003,1.455-1.182,2.634-2.639,2.638l0,0L22.163,43.12L22.163,43.12z M20.965,40.462v0.02c0,0.661,0.538,1.199,1.2,1.199
		l0,0l9.233,0.001c0.661-0.001,1.2-0.54,1.201-1.201l0,0v-0.02v-0.498c-0.001-0.012-0.001-0.028-0.001-0.048l0,0
		c0.005-0.767,0.228-1.723,0.552-2.569l0,0c0.156-0.402,0.331-0.77,0.523-1.07l0,0c0.001-0.002,0.002-0.005,0.003-0.008l0,0
		c0.008-0.017,0.019-0.04,0.033-0.069l0,0c0.028-0.059,0.068-0.146,0.115-0.258l0,0c0.097-0.222,0.227-0.543,0.361-0.933l0,0
		c0.269-0.779,0.555-1.838,0.632-2.912l0,0c0.01-0.209,0.022-0.388,0.022-0.576l0,0c-0.001-0.738-0.001-2.679-0.001-2.681l0,0
		c0.003-1.076,0.151-2.779,0.337-3.843l0,0c0.17-0.96,1.353-7.675,1.356-7.685l0,0c0.008-0.055,0.012-0.108,0.012-0.163l0,0
		c0-0.44-0.311-0.829-0.76-0.911l0,0l0,0.001l-0.851-0.15c-0.054-0.009-0.108-0.014-0.16-0.014l0,0
		c-0.443,0-0.835,0.313-0.916,0.759l0,0l-1.349,7.663l-1.991-0.208l0.906-10.358c0.003-0.03,0.004-0.055,0.004-0.084l0,0v-0.002
		c-0.001-0.475-0.362-0.879-0.845-0.918l0,0l-0.86-0.076c-0.023-0.003-0.052-0.004-0.077-0.004l0,0
		c-0.451,0-0.834,0.326-0.911,0.766l0,0l-0.008,0.05l-0.919,10.469h-1.784V12.321c-0.003-0.512-0.414-0.923-0.92-0.925l0,0h-0.866
		c-0.511,0.001-0.924,0.414-0.926,0.919l0,0l0.001,11.814h-1.791l-0.451-5.157l-0.435-4.937c-0.042-0.479-0.437-0.838-0.902-0.848
		l0,0c-0.052,0.001-0.069,0.001-0.105,0.007l0,0l-0.856,0.075c-0.476,0.04-0.838,0.441-0.842,0.909l0,0c0,0.008,0,0.016,0,0.024l0,0
		c0,0.022,0.002,0.046,0.005,0.075l0,0l1.32,15.075l0.005,0.063v0.028l-0.001,0.05c-0.007,0.164-0.067,0.406-0.257,0.596l0,0
		c-0.186,0.189-0.434,0.255-0.608,0.261l0,0h-0.03l-0.284,0.001l0,0c-0.037,0.001-0.058,0.001-0.066,0.001l0,0
		c-0.331-0.012-0.521-0.102-0.747-0.203l0,0c-0.206-0.112-0.382-0.184-0.592-0.439l0,0l-0.001,0l-2.199-2.64
		c-0.261-0.307-0.858-0.604-1.559-0.755l0,0c-0.237-0.048-0.475-0.076-0.697-0.076l0,0c-0.428,0.001-0.761,0.091-0.993,0.301l0,0
		c-0.158,0.138-0.243,0.301-0.246,0.43l0,0v0.002c0,0.006,0,0.01,0,0.014l0,0c0,0.001,0,0.002,0,0.003l0,0
		c0,0.167,0.079,0.372,0.318,0.67l0,0c0.661,0.818,4.327,5.218,4.781,5.763l0,0l0.003,0.007l0.022,0.022l0.022,0.026
		c0.679,0.815,1.577,1.94,2.002,2.51l0,0c0.195,0.263,0.899,1.028,1.537,1.832l0,0c0.503,0.603,0.924,1.254,1.146,1.72l0,0
		c0.071,0.177,0.142,0.268,0.159,0.581l0,0c0,0.023-0.001,0.047-0.003,0.071l0,0V40.462L20.965,40.462z M35.78,16.237l0.043-0.235
		L35.78,16.237L35.78,16.237z M18.392,30.348h0.012H18.392L18.392,30.348z M16.488,14.184L16.488,14.184L16.488,14.184
		c0,0.001,0,0.002,0,0.002l0,0C16.488,14.185,16.488,14.185,16.488,14.184L16.488,14.184z"/>
</g>
<g id="Layer_1">
</g>
</svg>
