<?xml version="1.0" encoding="iso-8859-1"?>
<!-- Generator: Adobe Illustrator 18.1.1, SVG Export Plug-In . SVG Version: 6.00 Build 0)  -->
<svg version="1.1" xmlns="http://www.w3.org/2000/svg" xmlns:xlink="http://www.w3.org/1999/xlink" x="0px" y="0px"
	 viewBox="0 0 43.455 43.462" style="enable-background:new 0 0 43.455 43.462;" xml:space="preserve">
<g id="Layer_22.svg">
	<polygon points="20.767,9.879 22.687,9.88 22.687,4.932 25.28,6.307 21.728,0 18.174,6.307 20.767,4.932 	"/>
	<polygon points="8.994,10.209 11.467,14.495 13.13,13.534 10.656,9.251 13.589,9.145 7.359,5.459 7.435,12.698 	"/>
	<polygon points="8.075,23.436 9.035,21.774 4.751,19.3 7.238,17.742 0,17.666 3.685,23.896 3.791,20.961 	"/>
	<polygon points="30.325,13.534 31.987,14.495 34.461,10.209 36.02,12.698 36.096,5.459 29.866,9.145 32.798,9.251 	"/>
	<polygon points="43.455,17.666 36.217,17.742 38.704,19.3 34.419,21.774 35.378,23.436 39.664,20.962 39.77,23.896 	"/>
	<path id="inner" fill="#FFFFFF" d="M32.77,15.871l-0.084,0.472l0.083-0.472l-0.852-0.15c-0.094-0.015-0.189-0.025-0.284-0.025
		c-0.784,0-1.478,0.558-1.622,1.355l-1.234,7.004l-0.62-0.065l0.845-9.661c0.004-0.052,0.005-0.098,0.005-0.142
		c0.001-0.846-0.643-1.564-1.5-1.638l-0.857-0.076c-0.043-0.002-0.092-0.005-0.143-0.005c-0.802-0.001-1.482,0.577-1.62,1.361
		l-0.009,0.014l-0.87,9.908h-0.405V12.66c-0.004-0.906-0.736-1.638-1.641-1.641h-0.866c-0.907,0.003-1.641,0.733-1.645,1.639
		l0.001,11.094H19.04l-0.828-9.438c-0.076-0.855-0.788-1.502-1.633-1.502c-0.044,0-0.099,0-0.17,0.01l-0.837,0.073
		c-0.859,0.073-1.502,0.794-1.502,1.64c0,0.042,0.001,0.091,0.007,0.148l1.32,15.068l0.004,0.035c-0.001-0.006,0,0.003,0,0.012
		c-0.007,0.108-0.063,0.17-0.179,0.176H14.9c-0.206,0.019-0.696-0.21-0.813-0.38l-2.214-2.659c-0.429-0.485-1.154-0.805-1.951-0.982
		c-0.277-0.058-0.562-0.093-0.845-0.093c-0.518,0.003-1.052,0.109-1.466,0.482c-0.272,0.237-0.493,0.585-0.49,0.992
		c0.003,0.402,0.189,0.76,0.478,1.118c0.718,0.886,4.834,5.824,4.836,5.827c0.668,0.802,1.567,1.93,1.978,2.481
		c0.25,0.331,0.926,1.063,1.563,1.863c0.639,0.762,1.179,1.698,1.132,1.862v0.319v0.021c0.001,1.057,0.86,1.916,1.919,1.917h9.237
		c1.057-0.001,1.916-0.86,1.919-1.917v-0.021v-0.538c-0.003-0.621,0.203-1.548,0.503-2.318c0.144-0.369,0.305-0.707,0.464-0.951
		l0.015-0.025l0.012-0.024c0.011-0.03,1.052-2.111,1.222-4.478c0.008-0.194,0.022-0.389,0.022-0.607c0-0.738,0-2.678,0-2.681
		c0-1.011,0.149-2.719,0.326-3.719c0.17-0.964,1.354-7.681,1.355-7.688c0.017-0.099,0.024-0.193,0.024-0.284
		C34.124,16.707,33.567,16.015,32.77,15.871z"/>
	<path d="M19.025,43.461c-1.455-0.001-2.634-1.18-2.637-2.636l0,0v-0.021v-0.268c-0.006-0.014-0.013-0.03-0.022-0.049l0,0
		c-0.041-0.089-0.116-0.226-0.208-0.38l0,0c-0.188-0.309-0.454-0.692-0.745-1.038l0,0c-0.621-0.782-1.273-1.482-1.577-1.881l0,0
		c-0.395-0.53-1.295-1.661-1.954-2.45l0,0l-0.054-0.064l-0.002-0.004c-0.03-0.037-0.071-0.085-0.124-0.148l0,0
		c-0.113-0.137-0.278-0.334-0.476-0.572l0,0c-0.398-0.477-0.935-1.123-1.494-1.796l0,0c-1.121-1.348-2.327-2.8-2.694-3.253l0,0
		c-0.327-0.405-0.618-0.907-0.636-1.519l0,0C6.4,27.347,6.4,27.32,6.4,27.314l0,0l0,0c0.008-0.672,0.361-1.188,0.729-1.508l0,0
		c0.603-0.541,1.339-0.665,1.948-0.667l0,0c0.341,0,0.674,0.042,1,0.109l0,0c0.882,0.201,1.734,0.544,2.349,1.223l0,0l2.193,2.633
		L13.36,14.75c-0.008-0.086-0.01-0.159-0.01-0.217l0,0c-0.001-1.215,0.923-2.25,2.159-2.357l0,0l0.823-0.072
		c0.11-0.014,0.203-0.014,0.246-0.014l0,0c0.949,0,1.779,0.566,2.151,1.395l0,0v-0.832c0.007-1.302,1.063-2.352,2.366-2.355l0,0
		h0.867c1.302,0.004,2.353,1.057,2.36,2.361l0,0v0.543c0.359-0.862,1.206-1.454,2.18-1.454l0,0c0.001,0,0.002,0,0.003,0l0,0l0,0
		c0.077,0,0.141,0.004,0.207,0.008l0,0l0.855,0.076c1.232,0.105,2.159,1.137,2.159,2.352l0,0v0.003c0,0.059-0.001,0.126-0.008,0.204
		l0,0l-0.158,1.805c0.411-0.744,1.203-1.221,2.073-1.22l0,0c0.144,0,0.278,0.014,0.409,0.036l0,0l0.146,0.026l0-0.004l0.71,0.128
		c0.005,0.001,0.01,0.002,0.015,0.003l0,0l0.688,0.121l-0.019,0.112c0.767,0.404,1.262,1.206,1.261,2.092l0,0
		c0.001,0.127-0.01,0.264-0.037,0.425l0,0v0.004c-0.003,0.012-0.005,0.031-0.01,0.056l0,0c-0.01,0.05-0.022,0.123-0.039,0.216l0,0
		c-0.033,0.186-0.08,0.453-0.137,0.776l0,0c-0.115,0.646-0.268,1.516-0.427,2.418l0,0c-0.318,1.8-0.656,3.721-0.74,4.203l0,0
		c-0.167,0.935-0.318,2.648-0.315,3.594l0,0c0,0.001,0,1.943,0,2.681l0,0c0,0.248-0.015,0.457-0.025,0.657l0,0
		c-0.174,2.415-1.179,4.498-1.276,4.709l0,0l-0.002,0.006l-0.004,0.008l-0.018,0.036l-0.023,0.045l-0.014,0.022l-0.026,0.042
		c-0.116,0.178-0.265,0.483-0.396,0.821l0,0c-0.266,0.668-0.452,1.536-0.454,2.016l0,0l0,0c0,0,0,0.007,0,0.026l0,0h-0.486
		l0.488,0.014v0.538v0.022c-0.006,1.455-1.183,2.632-2.639,2.635l0,0L19.025,43.461L19.025,43.461z M17.826,40.805v0.019
		c0,0.66,0.539,1.199,1.2,1.199l0,0h9.235c0.66,0,1.2-0.538,1.2-1.197l0,0v-0.021l0.001-0.499c0-0.004-0.001-0.025-0.001-0.054l0,0
		c0.005-0.767,0.226-1.719,0.552-2.565l0,0c0.157-0.4,0.329-0.771,0.52-1.064l0,0c0.001-0.002,0.003-0.006,0.005-0.011l0,0
		c0.008-0.018,0.019-0.04,0.033-0.071l0,0c0.028-0.059,0.066-0.145,0.115-0.257l0,0c0.097-0.222,0.227-0.544,0.36-0.933l0,0
		c0.269-0.78,0.555-1.839,0.632-2.912l0,0c0.008-0.208,0.021-0.389,0.021-0.576l0,0c0-0.74,0-2.68,0-2.681l0,0
		c0.001-1.077,0.151-2.781,0.337-3.844l0,0c0.171-0.973,1.35-7.662,1.355-7.682l0,0c0.01-0.061,0.014-0.112,0.014-0.166l0,0
		c-0.001-0.442-0.313-0.831-0.762-0.911l0,0h0l0.042-0.235l-0.042,0.235l-0.84-0.149c-0.068-0.01-0.124-0.015-0.17-0.015l0,0
		c-0.442,0-0.835,0.314-0.914,0.759l0,0l-1.35,7.666l-1.991-0.209l0.906-10.358c0.003-0.033,0.003-0.058,0.004-0.087l0,0
		l-0.001-0.003c0-0.475-0.362-0.877-0.844-0.918l0,0l-0.834-0.073c-0.043-0.003-0.079-0.006-0.104-0.006l0,0H26.5
		c-0.447,0-0.829,0.326-0.906,0.767l0,0l-0.011,0.063L24.666,24.47h-1.784V12.664c-0.003-0.512-0.414-0.924-0.921-0.926l0,0h-0.864
		c-0.514,0.003-0.925,0.414-0.928,0.92l0,0l0.001,11.813H18.38l-0.885-10.094c-0.043-0.483-0.446-0.846-0.917-0.846l0,0
		c-0.043,0.001-0.05,0.001-0.071,0.004l0,0l-0.014,0.001l-0.861,0.076c-0.481,0.038-0.842,0.445-0.844,0.922l0,0
		c0,0.025,0.001,0.051,0.004,0.086l0,0l1.319,15.048l0.008,0.076v0.041v0.032l-0.001,0.025c-0.008,0.164-0.069,0.4-0.255,0.588l0,0
		c-0.186,0.189-0.434,0.255-0.607,0.261l0,0l-0.008,0.001h-0.026h-0.305c-0.022,0.001-0.035,0-0.043,0l0,0
		c-0.329-0.011-0.519-0.101-0.745-0.2l0,0c-0.207-0.113-0.383-0.185-0.593-0.44l0,0l-0.001,0.001l-2.201-2.641
		c-0.258-0.307-0.856-0.605-1.559-0.755l0,0c-0.237-0.05-0.473-0.077-0.694-0.077l0,0c-0.431,0.003-0.762,0.091-0.997,0.305l0,0
		c-0.156,0.136-0.241,0.298-0.243,0.428l0,0c0,0,0,0.001,0,0.001l0,0h0h0l0,0h0h0c0,0.005,0,0.009,0,0.013l0,0
		c0,0.001,0,0.002,0,0.003l0,0c0,0.17,0.077,0.371,0.317,0.671l0,0c0.617,0.762,3.848,4.639,4.649,5.601l0,0
		c0.105,0.127,0.144,0.173,0.18,0.217l0,0l0.001,0c0.678,0.815,1.574,1.94,1.999,2.509l0,0c0.199,0.266,0.9,1.031,1.54,1.835l0,0
		c0.503,0.602,0.923,1.252,1.144,1.721l0,0c0.07,0.175,0.142,0.268,0.159,0.58l0,0c0,0.022-0.001,0.044-0.003,0.065l0,0V40.805
		L17.826,40.805z M11.874,34.731L11.874,34.731c-0.001-0.001-0.002-0.002-0.003-0.004l0,0L11.874,34.731L11.874,34.731z
		 M11.869,34.724C11.869,34.724,11.868,34.723,11.869,34.724L11.869,34.724C11.868,34.723,11.869,34.724,11.869,34.724
		L11.869,34.724z M7.84,27.313L7.84,27.313L7.84,27.313L7.84,27.313L7.84,27.313z M32.642,16.579L32.642,16.579L32.642,16.579
		L32.642,16.579z"/>
</g>
<g id="Layer_1">
</g>
</svg>
