<?xml version="1.0" encoding="iso-8859-1"?>
<!-- Generator: Adobe Illustrator 18.1.1, SVG Export Plug-In . SVG Version: 6.00 Build 0)  -->
<svg version="1.1" xmlns="http://www.w3.org/2000/svg" xmlns:xlink="http://www.w3.org/1999/xlink" x="0px" y="0px"
	 viewBox="0 0 24.088 38.618" style="enable-background:new 0 0 24.088 38.618;" xml:space="preserve">
<g id="Layer_44.svg">
	<path d="M6.008,15.84l0-1.535c-2.418-1.008-4.117-3.39-4.122-6.174C1.892,4.436,4.881,1.447,8.576,1.44
		c3.694,0.007,6.683,2.996,6.69,6.691c-0.005,2.793-1.717,5.181-4.147,6.184v0.428c0.351-0.258,0.785-0.41,1.255-0.411h0.867
		c0.177,0,0.346,0.028,0.509,0.069c1.804-1.492,2.955-3.746,2.956-6.27c-0.001-4.49-3.641-8.13-8.13-8.131
		c-4.49,0.001-8.129,3.641-8.13,8.131C0.447,11.722,2.778,14.765,6.008,15.84z"/>
	<path d="M11.119,12.239c1.375-0.853,2.293-2.371,2.293-4.107c-0.001-2.673-2.165-4.837-4.836-4.837
		c-2.671,0-4.835,2.165-4.835,4.837c0,1.725,0.907,3.236,2.268,4.092l0-1.877C5.494,9.753,5.18,8.98,5.179,8.132
		C5.182,6.256,6.7,4.737,8.575,4.733c1.876,0.004,3.393,1.523,3.397,3.399c-0.002,0.862-0.326,1.646-0.855,2.245L11.119,12.239z"/>
	<path id="inner" fill="#FFFFFF"  d="M4.395,29.096c0.212,0.514,0.52,1.127,0.927,1.773L5.316,30.86c0.275,0.518,0.965,1.457,1.601,2.431
		c0.637,0.936,1.178,1.997,1.141,2.23v0.46c0,0.139,0.015,0.274,0.044,0.402c0.185,0.866,0.953,1.514,1.875,1.517h9.236
		c0.921-0.003,1.689-0.651,1.876-1.52c0.026-0.125,0.042-0.259,0.042-0.399v-0.559c-0.003-0.622,0.203-1.547,0.503-2.317
		c0.143-0.369,0.305-0.707,0.464-0.952l0.015-0.025l0.012-0.023c0.011-0.031,1.052-2.112,1.221-4.479
		c0.009-0.193,0.023-0.389,0.023-0.606c0-2.284,0-7.819,0-7.827c-0.004-0.907-0.735-1.64-1.64-1.643l-0.001,0.48l0,0v-0.48h-0.865
		c-0.908,0.003-1.644,0.735-1.648,1.641l0.001,0.394h-0.089l-0.003-2.154c-0.003-0.908-0.736-1.641-1.642-1.641h-0.862
		c-0.857,0-1.553,0.651-1.637,1.479l-0.011,0.016l-0.001,1.629h-0.091v-2.46c-0.004-0.906-0.735-1.639-1.642-1.642h-0.865
		c-0.907,0.003-1.64,0.735-1.646,1.639l0.003,2.458h-0.089l-0.005-9.281c0-0.907-0.733-1.645-1.642-1.645H8.132
		c-0.909,0-1.642,0.737-1.644,1.643l0.001,15.75H6.397v-2.822l-0.033-0.085c-0.001-0.001-0.893-2.235-0.942-2.357
		c-0.217-0.509-0.677-0.956-1.24-1.346c-0.566-0.38-1.229-0.682-1.913-0.689c-0.236,0-0.481,0.04-0.713,0.145
		c-0.456,0.175-0.858,0.645-0.836,1.205c0,0.255,0.062,0.516,0.168,0.797C1.294,21.291,4.394,29.094,4.395,29.096z"/>
	<path d="M9.974,38.618c-1.266-0.005-2.323-0.893-2.576-2.081l0,0c-0.04-0.179-0.06-0.365-0.06-0.558l0,0v-0.443
		c-0.007-0.024-0.02-0.064-0.04-0.111l0,0c-0.046-0.117-0.122-0.281-0.218-0.468l0,0c-0.193-0.374-0.468-0.836-0.766-1.274l0,0
		c-0.616-0.947-1.281-1.844-1.617-2.457l0,0c-0.413-0.658-0.728-1.283-0.953-1.824l0,0c-0.012-0.026-0.009-0.02-0.012-0.028l0,0
		l-0.003-0.005l-0.001-0.004l-0.001-0.002V29.36l-0.003-0.005c-0.001-0.002-0.004-0.009-0.007-0.016l0,0
		c-0.006-0.015-0.015-0.036-0.027-0.066l0,0c-0.022-0.058-0.055-0.143-0.099-0.249l0,0c-0.086-0.217-0.208-0.526-0.357-0.9l0,0
		c-0.297-0.749-0.698-1.759-1.11-2.8l0,0c-0.827-2.086-1.701-4.297-1.908-4.845l0,0c-0.122-0.32-0.208-0.655-0.214-1.013l0,0
		C-0.001,19.426,0,19.395,0,19.383l0,0c0.015-0.897,0.597-1.549,1.277-1.824l0,0c0.339-0.149,0.682-0.202,1-0.202l0,0
		c0.896,0.013,1.673,0.388,2.315,0.817l0,0c0.444,0.311,0.861,0.663,1.176,1.105l0,0L5.767,9.624
		c0.004-1.302,1.055-2.36,2.364-2.361l0,0h0.865c1.307,0.001,2.361,1.061,2.361,2.364l0,0l0.003,4.694
		c0.307-0.147,0.651-0.229,1.014-0.23l0,0h0.867c0.936,0.003,1.742,0.549,2.124,1.34l0,0c0.363-0.228,0.794-0.36,1.256-0.36l0,0
		h0.862c1.182,0,2.16,0.869,2.334,2.005l0,0c0.315-0.156,0.67-0.244,1.046-0.245l0,0h0.148v-0.002l0.719,0.002h0.717v0.113
		c0.95,0.306,1.636,1.197,1.641,2.25l0,0c0,0.007,0,5.544,0,7.826l0,0c0,0.248-0.015,0.46-0.024,0.658l0,0
		c-0.173,2.396-1.162,4.463-1.274,4.704l0,0l-0.005,0.015l-0.019,0.036l-0.024,0.047l-0.014,0.024L22.7,32.544
		c-0.118,0.18-0.267,0.484-0.397,0.822l0,0c-0.266,0.669-0.452,1.534-0.455,2.014l0,0l0,0l0.001,0.018v0.022v0.559
		c0,0.198-0.025,0.38-0.059,0.551l0,0c-0.256,1.194-1.312,2.083-2.578,2.088l0,0H9.974L9.974,38.618z M8.776,35.98
		c0,0.086,0.009,0.168,0.028,0.252l0,0c0.116,0.538,0.595,0.946,1.172,0.948l0,0h9.233c0.577-0.001,1.057-0.409,1.173-0.944l0,0
		c0.017-0.086,0.027-0.173,0.027-0.256l0,0v-0.559l0,0c0-0.003,0-0.008,0-0.011l0,0c0.005-0.77,0.226-1.72,0.552-2.566l0,0
		c0.157-0.402,0.331-0.772,0.521-1.066l0,0v0l0,0h0c0,0,0-0.001,0.001-0.001l0,0l-0.001,0c0.001-0.002,0.003-0.005,0.004-0.009l0,0
		c0.008-0.017,0.018-0.04,0.032-0.069l0,0c0.028-0.059,0.067-0.147,0.116-0.258l0,0c0.095-0.223,0.226-0.543,0.36-0.933l0,0
		c0.27-0.78,0.555-1.839,0.632-2.915l0,0c0.009-0.205,0.022-0.387,0.022-0.573l0,0c0-2.284,0-7.819,0-7.824l0,0
		c-0.003-0.514-0.414-0.923-0.923-0.926l0,0h-0.862c-0.514,0.003-0.929,0.417-0.93,0.919l0,0l0.004,1.117h-1.53l-0.003-2.872
		c-0.003-0.514-0.415-0.923-0.923-0.923l0,0h-0.862c-0.482-0.001-0.874,0.366-0.921,0.831l0,0l-0.008,0.077l-0.001,2.215h-1.53
		v-3.176c-0.003-0.513-0.414-0.924-0.921-0.926l0,0h-0.863c-0.513,0.003-0.925,0.415-0.928,0.92l0,0l0.003,3.178H9.924L9.919,9.627
		c-0.001-0.51-0.414-0.923-0.923-0.925l0,0L8.131,8.703c-0.51-0.001-0.924,0.414-0.925,0.923l0,0l0.001,16.469h-1.53v-3.403
		c-0.006-0.014-0.013-0.031-0.021-0.052l0,0c-0.024-0.063-0.06-0.15-0.103-0.256l0,0c-0.083-0.212-0.198-0.496-0.312-0.782l0,0
		c-0.229-0.574-0.464-1.163-0.482-1.208l0,0c-0.126-0.311-0.482-0.691-0.979-1.031l0,0c-0.498-0.338-1.047-0.567-1.511-0.567l0,0
		c-0.157,0-0.295,0.026-0.416,0.081l0,0l-0.021,0.009l-0.019,0.008c-0.196,0.069-0.385,0.307-0.376,0.482l0,0h0l0.001,0.026v0.026
		c0,0.139,0.033,0.312,0.121,0.542l0,0c0.392,1.032,3.403,8.613,3.5,8.854l0,0l0,0c0.193,0.467,0.477,1.036,0.854,1.636l0,0
		l0.004,0.006l0,0c0.004,0.006,0.008,0.013,0.012,0.019l0,0l-0.398,0.26l0.418-0.222c0.22,0.421,0.921,1.389,1.56,2.363l0,0
		c0.489,0.722,0.911,1.476,1.124,2.01l0,0c0.069,0.193,0.132,0.321,0.143,0.599l0,0c0,0.022,0,0.04-0.001,0.054l0,0V35.98
		L8.776,35.98z M4.394,29.096l0.017-0.008L4.394,29.096L4.394,29.096z M21.482,31.777L21.482,31.777
		C21.483,31.777,21.483,31.777,21.482,31.777L21.482,31.777L21.482,31.777L21.482,31.777z"/>
</g>
<g id="Layer_1">
</g>
</svg>
