<?xml version="1.0" encoding="iso-8859-1"?>
<!-- Generator: Adobe Illustrator 18.1.1, SVG Export Plug-In . SVG Version: 6.00 Build 0)  -->
<svg version="1.1" xmlns="http://www.w3.org/2000/svg" xmlns:xlink="http://www.w3.org/1999/xlink" x="0px" y="0px"
	 viewBox="0 0 31.408 37.604" style="enable-background:new 0 0 31.408 37.604;" xml:space="preserve">
<g id="Layer_48.svg">
	<path d="M5.259,8.485c0.762-0.174,1.488-0.554,2.079-1.146c0.836-0.837,1.26-1.942,1.259-3.038C8.598,3.204,8.176,2.097,7.338,1.26
		C6.5,0.421,5.393-0.001,4.297,0C3.2-0.001,2.095,0.424,1.259,1.26C0.422,2.095-0.001,3.203,0,4.299
		c-0.001,1.097,0.423,2.203,1.259,3.04H1.26C1.851,7.93,2.577,8.31,3.339,8.484v8.532L0.23,15.193l4.07,7.989l4.069-7.989
		l-3.109,1.824V8.485z M2.616,5.982C2.15,5.514,1.92,4.91,1.919,4.299C1.92,3.686,2.15,3.083,2.615,2.618
		C3.084,2.151,3.686,1.921,4.297,1.92C4.91,1.921,5.512,2.15,5.981,2.617c0.467,0.468,0.696,1.07,0.697,1.684
		c-0.001,0.61-0.23,1.214-0.697,1.682C5.515,6.448,4.912,6.678,4.3,6.679C3.686,6.678,3.083,6.447,2.616,5.982L2.616,5.982z"/>
	<path id="inner" fill="#FFFFFF" d="M13.973,31.756l-0.001-0.001c0.427,0.387,1.397,1.034,2.326,1.732
		c0.919,0.662,1.79,1.475,1.835,1.705l0.158,0.433c0.048,0.133,0.111,0.253,0.177,0.36c0.356,0.567,0.975,0.901,1.63,0.901
		c0.218,0,0.437-0.038,0.649-0.112l8.683-3.16c0.778-0.287,1.26-1.022,1.26-1.806c0-0.089-0.007-0.176-0.017-0.261
		c-0.018-0.127-0.048-0.259-0.095-0.392l-0.192-0.526c-0.202-0.546-0.323-1.406-0.322-2.189c0-0.056,0-0.108,0.001-0.156
		c0.008-0.402,0.044-0.775,0.111-1.058l0.005-0.028l0.004-0.027c0.001-0.013,0.053-0.488,0.053-1.213
		c-0.001-0.889-0.078-2.156-0.438-3.412c-0.057-0.186-0.112-0.374-0.185-0.578c-0.781-2.146-2.677-7.356-2.677-7.356
		c-0.248-0.668-0.876-1.082-1.548-1.081c-0.184-0.001-0.373,0.03-0.559,0.097l0,0.001l-0.811,0.295
		c-0.669,0.246-1.085,0.876-1.083,1.549c-0.001,0.184,0.03,0.373,0.096,0.557l0.136,0.369l-0.083,0.03l-0.738-2.024
		c-0.246-0.665-0.872-1.081-1.543-1.08c-0.185,0-0.378,0.031-0.566,0.102l-0.806,0.293c-0.669,0.244-1.084,0.874-1.082,1.544
		c-0.001,0.143,0.018,0.29,0.057,0.434l-0.003,0.02l0.545,1.502l-0.083,0.03l-0.842-2.312c-0.246-0.665-0.874-1.08-1.545-1.08
		c-0.184,0-0.376,0.03-0.565,0.102l-0.807,0.293c-0.667,0.245-1.082,0.875-1.082,1.548c0,0.182,0.031,0.372,0.097,0.554l0.844,2.309
		l-0.085,0.03l-3.178-8.717c-0.244-0.668-0.872-1.085-1.545-1.085c-0.185,0-0.378,0.031-0.566,0.103L8.784,9.29
		c-0.668,0.244-1.082,0.875-1.081,1.547c0,0.185,0.031,0.376,0.098,0.561l5.391,14.798l-0.087,0.031l-0.966-2.652l-0.061-0.068
		c-0.001-0.001-1.599-1.793-1.691-1.894c-0.571-0.595-1.653-0.962-2.711-0.983c-0.557,0.003-1.132,0.118-1.563,0.529
		c-0.256,0.24-0.46,0.578-0.458,0.97c0.003,0.416,0.203,0.782,0.513,1.141c0.746,0.863,6.327,7.136,6.328,7.138
		C12.868,30.817,13.369,31.289,13.973,31.756z"/>
	<path d="M17.856,36.364c-0.087-0.14-0.173-0.304-0.242-0.493l0,0l-0.152-0.417c-0.011-0.015-0.03-0.037-0.052-0.064l0,0
		c-0.076-0.089-0.202-0.219-0.357-0.363l0,0c-0.313-0.291-0.742-0.646-1.187-0.966l0,0c-0.906-0.682-1.841-1.299-2.36-1.757l0,0
		c-0.625-0.486-1.144-0.976-1.565-1.437l0,0h-0.001c-0.011-0.012-0.026-0.03-0.047-0.053l0,0c-0.04-0.045-0.1-0.113-0.179-0.201l0,0
		c-0.154-0.173-0.374-0.421-0.642-0.723l0,0c-0.536-0.601-1.257-1.414-2.002-2.251l0,0c-1.489-1.678-3.067-3.457-3.449-3.901l0,0
		c-0.357-0.41-0.674-0.934-0.687-1.58l0,0c-0.001-0.026-0.001-0.045,0-0.05l0,0h0c0.006-0.646,0.335-1.147,0.681-1.471l0,0
		c0.626-0.595,1.414-0.726,2.075-0.729l0,0c0.988,0.03,1.975,0.28,2.743,0.813l0,0l-3.309-9.082
		c-0.092-0.256-0.136-0.517-0.139-0.774l0,0c0-0.012,0-0.023,0-0.034l0,0v-0.001C6.982,9.867,7.58,8.965,8.538,8.614l0,0l0.797-0.29
		c0.275-0.106,0.555-0.15,0.822-0.15l0,0c0.97-0.001,1.871,0.601,2.222,1.557l0,0l1.607,4.409c0.239-0.243,0.534-0.438,0.875-0.564
		l0,0l0.798-0.29c0.278-0.105,0.558-0.149,0.82-0.149l0,0c0.619-0.001,1.211,0.245,1.65,0.673l0,0
		c0.264-0.339,0.624-0.61,1.057-0.768l0,0l0.799-0.291c0.249-0.093,0.5-0.139,0.743-0.146l0,0c0.033-0.004,0.059-0.004,0.076-0.001
		l0,0h0.003c0.852,0,1.647,0.467,2.067,1.229l0,0c0.243-0.254,0.547-0.458,0.898-0.588l0,0l0.593-0.216l0.216-0.079
		c0.243-0.09,0.492-0.135,0.736-0.141l0,0c0.031-0.004,0.057-0.004,0.073-0.001l0,0c0.003,0,0.006,0,0.01,0l0,0
		c0.963,0.002,1.859,0.601,2.213,1.554l0,0c0,0,1.896,5.209,2.677,7.358l0,0c0.083,0.23,0.141,0.431,0.201,0.624l0,0
		c0.386,1.354,0.463,2.68,0.465,3.611l0,0c0.001,0.751-0.056,1.275-0.056,1.277l0,0L30.9,27.253l-0.004,0.021l-0.008,0.055
		l-0.013,0.06c-0.048,0.208-0.085,0.544-0.091,0.916l0,0c-0.001,0.033-0.001,0.078-0.001,0.136l0,0v0.072h0
		c0.004,0.687,0.126,1.47,0.279,1.87l0,0l0.194,0.532c0.064,0.182,0.104,0.362,0.131,0.544l0,0c0.013,0.108,0.022,0.226,0.022,0.35
		l0,0c0.001,1.077-0.663,2.087-1.733,2.483l0,0l-8.69,3.162c-0.287,0.101-0.586,0.153-0.888,0.153l0,0
		C19.198,37.604,18.346,37.145,17.856,36.364L17.856,36.364z M18.966,35.38c0.027,0.075,0.067,0.151,0.111,0.222l0,0
		c0.222,0.355,0.611,0.563,1.02,0.565l0,0c0.134-0.001,0.272-0.023,0.403-0.069l0,0l8.68-3.16c0.489-0.18,0.789-0.64,0.789-1.131
		l0,0c0-0.053-0.004-0.111-0.009-0.16l0,0c-0.013-0.086-0.033-0.17-0.059-0.246l0,0l-0.19-0.523
		c-0.246-0.678-0.364-1.57-0.368-2.427l0,0v-0.007c0-0.001,0-0.003,0-0.004l0,0h0c0-0.058,0-0.115,0.003-0.17l0,0
		c0.009-0.438,0.046-0.848,0.122-1.178l0,0l0.003-0.02c0.011-0.114,0.047-0.513,0.047-1.113l0,0c0-0.849-0.077-2.057-0.406-3.203
		l0,0c-0.06-0.193-0.111-0.368-0.174-0.543l0,0c-0.781-2.147-2.675-7.349-2.676-7.351l0,0c-0.108-0.295-0.344-0.499-0.618-0.577l0,0
		l-0.298-0.035c-0.076,0.003-0.153,0.016-0.23,0.041l0,0L24.268,14.6c-0.363,0.133-0.59,0.46-0.611,0.813l0,0l0.002,0.011
		l-0.004,0.068c0.001,0.094,0.018,0.193,0.052,0.289l0,0l0.386,1.049l-1.44,0.519l-0.982-2.693c-0.134-0.362-0.462-0.589-0.814-0.61
		l0,0c-0.018,0.001-0.033,0.001-0.045,0l0,0h-0.009c-0.103,0-0.211,0.018-0.32,0.059l0,0l-0.806,0.292
		c-0.348,0.126-0.571,0.437-0.605,0.776l0,0l0.003,0.011l-0.007,0.109c0.002,0.068,0.012,0.141,0.032,0.216l0,0l0.025,0.09
		l0.746,2.054l-1.437,0.517l-1.087-2.981c-0.139-0.377-0.494-0.609-0.87-0.611l0,0c-0.107,0.001-0.21,0.018-0.319,0.059l0,0
		l-0.805,0.294c-0.378,0.137-0.609,0.494-0.61,0.872l0,0c0,0.1,0.017,0.209,0.052,0.306l0,0l1.094,2.993l-1.442,0.51l-3.422-9.387
		c-0.138-0.378-0.493-0.61-0.87-0.611l0,0c-0.103,0-0.209,0.018-0.32,0.06l0,0L9.031,9.965c-0.373,0.136-0.603,0.486-0.609,0.856
		l0,0c0,0.004,0,0.008,0,0.013l0,0v0.003c0,0.104,0.018,0.214,0.055,0.314l0,0l5.638,15.477l-1.442,0.518l-1.162-3.193
		c-0.011-0.012-0.024-0.027-0.04-0.044l0,0c-0.043-0.05-0.107-0.12-0.183-0.205l0,0c-0.151-0.17-0.353-0.398-0.559-0.627l0,0
		c-0.409-0.459-0.837-0.939-0.862-0.965l0,0c-0.349-0.391-1.303-0.758-2.188-0.763l0,0c-0.471,0.003-0.833,0.101-1.075,0.335l0,0
		c-0.144,0.134-0.222,0.285-0.23,0.409l0,0l0.001,0.032c0,0.173,0.081,0.374,0.336,0.674l0,0c0.743,0.859,6.304,7.11,6.314,7.123
		l0,0c0.346,0.377,0.818,0.823,1.389,1.265l0,0l-0.324,0.418l-0.108,0.139l0.108-0.139l0.366-0.384
		c0.338,0.313,1.332,0.984,2.263,1.681l0,0c0.732,0.529,1.403,1.113,1.784,1.549l0,0c0.113,0.155,0.215,0.223,0.305,0.495l0,0
		l0.002,0L18.966,35.38L18.966,35.38z M14.413,31.187l-0.324,0.418L14.413,31.187L14.413,31.187z"/>
</g>
<g id="Layer_1">
</g>
</svg>
