<?xml version="1.0" encoding="iso-8859-1"?>
<!-- Generator: Adobe Illustrator 18.1.1, SVG Export Plug-In . SVG Version: 6.00 Build 0)  -->
<svg version="1.1" xmlns="http://www.w3.org/2000/svg" xmlns:xlink="http://www.w3.org/1999/xlink" x="0px" y="0px"
	 viewBox="0 0 31.871 38.025" style="enable-background:new 0 0 31.871 38.025;" xml:space="preserve">
<g id="Layer_49.svg">
	<path d="M15.192,8.369l2.449-1.247l0.37-1.017c0.317-0.857,1.127-1.397,1.997-1.395c0.242-0.001,0.49,0.041,0.725,0.129
		l0.811,0.294l1.637-0.834l-7.99-4.069l1.825,3.109H8.485C8.31,2.578,7.93,1.852,7.339,1.259C6.502,0.422,5.397-0.001,4.301,0
		C3.203-0.001,2.097,0.423,1.259,1.26C0.422,2.097-0.001,3.203,0,4.3c-0.001,1.096,0.423,2.201,1.259,3.037
		c0.836,0.838,1.942,1.26,3.039,1.259h0.004c1.094,0,2.199-0.422,3.035-1.258l0.001-0.002c0.59-0.591,0.97-1.317,1.145-2.078h8.532
		L15.192,8.369z M5.981,5.981c-0.467,0.466-1.07,0.694-1.682,0.696c-0.612-0.002-1.216-0.23-1.683-0.696
		C2.151,5.515,1.92,4.911,1.919,4.3C1.92,3.686,2.15,3.084,2.616,2.618C3.085,2.15,3.688,1.92,4.301,1.919
		c0.611,0.001,1.213,0.23,1.68,0.697c0.468,0.468,0.697,1.07,0.698,1.681C6.677,4.909,6.448,5.512,5.981,5.981z"/>
	<path id="inner" fill="#FFFFFF" d="M27.151,19.612l-0.133,0.368l-0.083-0.03l0.734-2.025c0.066-0.186,0.098-0.375,0.098-0.562
		c0.001-0.672-0.413-1.301-1.08-1.542l-0.809-0.295c-0.185-0.068-0.376-0.1-0.565-0.1c-0.64-0.001-1.239,0.376-1.505,0.986
		l-0.012,0.014l-0.539,1.471l-0.085-0.031l0.843-2.311c0.065-0.186,0.098-0.374,0.098-0.559c0-0.672-0.413-1.3-1.079-1.544
		l-0.814-0.296c-0.183-0.067-0.373-0.099-0.561-0.099c-0.67-0.001-1.3,0.411-1.546,1.077l-0.839,2.31l-0.083-0.031l3.169-8.72
		c0.067-0.185,0.099-0.377,0.099-0.565c0-0.67-0.413-1.302-1.081-1.543l-0.811-0.295c-0.183-0.068-0.374-0.1-0.561-0.1
		c-0.673-0.001-1.3,0.416-1.546,1.081l-5.385,14.801L12.99,21.04l0.965-2.653l-0.003-0.091c-0.001-0.003-0.073-2.404-0.078-2.537
		c-0.037-0.629-0.394-1.31-0.891-1.932c-0.506-0.601-1.158-1.152-1.984-1.17c-0.025,0-0.068,0-0.129,0.007
		c-0.335,0.018-0.713,0.148-0.964,0.458c-0.248,0.308-0.33,0.696-0.331,1.141c0,0.009,0,0.035,0.001,0.073
		c0.016,1.119,0.26,9.512,0.26,9.515c0.022,0.554,0.103,1.236,0.266,1.982l-0.007-0.029c0.145,0.995,1.032,3.779,1.023,4.992
		c0,0.171-0.021,0.298-0.039,0.345l-0.157,0.429c-0.048,0.132-0.078,0.263-0.096,0.391c-0.012,0.086-0.018,0.174-0.018,0.262
		c0,0.784,0.483,1.521,1.261,1.806l8.68,3.159c0.214,0.078,0.435,0.115,0.652,0.115c0.656,0,1.273-0.337,1.629-0.899
		c0.066-0.109,0.129-0.229,0.179-0.364l0.19-0.524c0.21-0.584,0.719-1.384,1.264-2.003c0.261-0.3,0.528-0.561,0.763-0.738
		l0.019-0.014l0.022-0.021c0.021-0.023,1.71-1.625,2.679-3.79c0.074-0.179,0.155-0.359,0.229-0.565
		c0.781-2.143,2.678-7.352,2.678-7.352c0.065-0.185,0.098-0.374,0.098-0.561c0-0.67-0.412-1.3-1.079-1.546l-0.164,0.452l0,0
		l0.163-0.452l-0.812-0.295c-0.184-0.068-0.374-0.1-0.562-0.099C28.026,18.532,27.396,18.944,27.151,19.612z"/>
	<path d="M20.503,37.867l-8.681-3.161c-1.07-0.393-1.734-1.405-1.734-2.481l0,0c0-0.124,0.009-0.245,0.026-0.365l0,0
		c0.024-0.168,0.065-0.35,0.133-0.536l0,0l0.145-0.396c0-0.001,0-0.002,0-0.003l0,0c0.004-0.025,0.007-0.072,0.007-0.128l0,0l0,0
		c0-0.004,0-0.007,0-0.011l0,0v-0.009c0.007-0.458-0.2-1.456-0.437-2.402l0,0c-0.232-0.951-0.484-1.856-0.574-2.444l0,0
		c-0.164-0.766-0.247-1.466-0.27-2.081l0,0l-0.001-0.002c0-0.017-0.001-0.041-0.001-0.072l0,0c-0.003-0.061-0.005-0.152-0.008-0.267
		l0,0c-0.008-0.232-0.017-0.565-0.029-0.968l0,0c-0.023-0.804-0.053-1.889-0.085-3.008l0,0c-0.064-2.241-0.128-4.613-0.136-5.174
		l0,0c-0.001-0.048-0.003-0.085-0.001-0.098l0,0c0-0.524,0.099-1.103,0.491-1.593l0,0c0.414-0.501,0.977-0.688,1.453-0.721l0,0
		c0.093-0.01,0.172-0.01,0.215-0.01l0,0c1.162,0.037,1.965,0.773,2.531,1.44l0,0c0.411,0.522,0.764,1.091,0.938,1.719l0,0
		l3.302-9.075c0.351-0.952,1.248-1.555,2.219-1.554l0,0c0.013,0,0.026,0.001,0.038,0.002l0,0c0.26,0.004,0.521,0.051,0.772,0.143
		l0,0l0.81,0.295c0.961,0.348,1.556,1.255,1.555,2.219l0,0c0,0.272-0.046,0.545-0.142,0.81l0,0l-1.602,4.409
		c0.073-0.007,0.147-0.01,0.221-0.01l0,0c0.012,0,0.023,0.001,0.034,0.001l0,0c0.26,0.003,0.523,0.05,0.777,0.142l0,0l0.815,0.298
		c0.876,0.322,1.45,1.108,1.538,1.981l0,0c0.16-0.034,0.324-0.052,0.489-0.052l0,0c0.008,0,0.016,0.001,0.023,0.001l0,0
		c0.264,0.001,0.533,0.048,0.791,0.143l0,0l0.808,0.294c0.957,0.347,1.555,1.25,1.555,2.216l0,0v0.003
		c0,0.153-0.015,0.308-0.046,0.463l0,0c0.077-0.008,0.154-0.013,0.232-0.013l0,0c0.023-0.001,0.034,0,0.037,0l0,0
		c0.27,0,0.54,0.048,0.796,0.142l0,0l0.138,0.05l0.001-0.003l0.678,0.249c0.012,0.004,0.024,0.009,0.036,0.014l0,0l0.634,0.23
		l-0.038,0.106c0.578,0.448,0.917,1.143,0.916,1.871l0,0c0.001,0.27-0.047,0.54-0.141,0.806l0,0c0,0-1.897,5.21-2.677,7.35l0,0
		c-0.086,0.238-0.173,0.432-0.249,0.615l0,0c-0.968,2.158-2.563,3.742-2.799,3.975l0,0l-0.016,0.019l-0.026,0.025l-0.057,0.053
		l-0.038,0.027l-0.008,0.005c-0.175,0.132-0.419,0.365-0.656,0.641l0,0c-0.49,0.549-0.973,1.327-1.128,1.774l0,0l-0.19,0.526
		c-0.07,0.19-0.156,0.353-0.247,0.502l0,0c-0.489,0.769-1.334,1.233-2.237,1.233l0,0C21.104,38.025,20.799,37.975,20.503,37.867
		L20.503,37.867z M11.838,30.752v0.044c-0.009,0.245-0.008,0.369-0.084,0.592l0,0l-0.156,0.429
		c-0.027,0.077-0.047,0.158-0.059,0.241l0,0c-0.008,0.057-0.012,0.112-0.012,0.165l0,0c0,0.489,0.301,0.953,0.788,1.13l0,0
		l8.681,3.16c0.13,0.048,0.269,0.072,0.404,0.07l0,0c0.409,0.001,0.797-0.21,1.015-0.554l0,0c0.048-0.078,0.087-0.156,0.116-0.234
		l0,0l0.189-0.521c0.266-0.724,0.801-1.547,1.398-2.234l0,0c0.28-0.319,0.565-0.603,0.862-0.832l0,0
		c0.001-0.001,0.003-0.003,0.004-0.004l0,0c0.013-0.013,0.03-0.03,0.054-0.054l0,0c0.046-0.047,0.112-0.115,0.196-0.202l0,0
		c0.166-0.176,0.398-0.433,0.657-0.754l0,0c0.521-0.641,1.151-1.538,1.59-2.52l0,0c0.08-0.193,0.154-0.359,0.218-0.536l0,0
		c0.781-2.143,2.674-7.344,2.676-7.344l0,0c0.038-0.112,0.056-0.221,0.056-0.322l0,0c0-0.376-0.23-0.731-0.605-0.871l0,0l0,0
		l-0.816-0.296c-0.089-0.032-0.178-0.049-0.266-0.054l0,0l-0.14,0.019l-0.029-0.012c-0.331,0.043-0.625,0.261-0.749,0.597l0,0h0
		l-0.377,1.042l-1.439-0.516l0.98-2.7c0.038-0.108,0.056-0.214,0.056-0.32l0,0V17.36c-0.001-0.376-0.232-0.729-0.607-0.862l0,0
		l-0.811-0.296c-0.104-0.038-0.209-0.056-0.316-0.056l0,0h-0.05c-0.339,0.017-0.655,0.225-0.796,0.552l0,0l-0.031,0.071
		l-0.753,2.055l-1.433-0.532l1.085-2.974c0.041-0.115,0.057-0.222,0.057-0.322l0,0c-0.001-0.377-0.232-0.732-0.605-0.867l0,0
		l-0.814-0.296c-0.102-0.038-0.209-0.056-0.314-0.056l0,0h-0.004c-0.376,0-0.729,0.23-0.865,0.604l0,0l-1.088,2.994l-1.431-0.54
		l3.413-9.386c0.038-0.105,0.056-0.216,0.056-0.321l0,0c-0.001-0.375-0.232-0.731-0.608-0.866l0,0l-0.814-0.296
		c-0.1-0.038-0.209-0.056-0.312-0.056l0,0h-0.048c-0.357,0.019-0.689,0.246-0.821,0.608l0,0l-5.633,15.478l-1.439-0.524l1.165-3.2
		c-0.001-0.015-0.001-0.034-0.001-0.056l0,0c-0.003-0.067-0.005-0.161-0.009-0.275l0,0c-0.007-0.227-0.016-0.532-0.025-0.84l0,0
		c-0.019-0.614-0.039-1.258-0.04-1.298l0,0c-0.014-0.385-0.287-0.972-0.723-1.509l0,0c-0.459-0.548-0.96-0.915-1.434-0.915l0,0
		c-0.021,0-0.025,0-0.052,0.003l0,0l-0.014,0.001l-0.023,0.001c-0.188,0.011-0.364,0.088-0.442,0.192l0,0
		c-0.104,0.128-0.17,0.325-0.172,0.69l0,0c0,0.007,0,0.022,0.001,0.063l0,0c0.016,1.111,0.258,9.479,0.258,9.495l0,0
		c0.021,0.505,0.096,1.144,0.247,1.842l0,0l0.002,0.009l0,0c0,0.002,0.001,0.004,0.001,0.007l0,0l-0.285,0.064l0.288-0.042
		c0.056,0.403,0.312,1.361,0.552,2.33l0,0c0.235,0.972,0.465,1.95,0.477,2.709l0,0L11.838,30.752L11.838,30.752z"/>
</g>
<g id="Layer_1">
</g>
</svg>
