<?xml version="1.0" encoding="iso-8859-1"?>
<!-- Generator: Adobe Illustrator 18.1.1, SVG Export Plug-In . SVG Version: 6.00 Build 0)  -->
<svg version="1.1" xmlns="http://www.w3.org/2000/svg" xmlns:xlink="http://www.w3.org/1999/xlink" x="0px" y="0px"
	 viewBox="0 0 31.408 37.123" style="enable-background:new 0 0 31.408 37.123;" xml:space="preserve">
<g id="Layer_41.svg">
	<path d="M5.173,21.648c-0.001-0.22,0.045-0.426,0.12-0.614c-0.314,0.144-0.65,0.225-0.992,0.226
		c-0.613-0.002-1.217-0.231-1.684-0.697c-0.468-0.468-0.696-1.071-0.697-1.685c0.001-0.612,0.23-1.213,0.696-1.679
		c0.468-0.467,1.071-0.696,1.683-0.698c0.613,0.002,1.214,0.231,1.683,0.697v0.001c0.466,0.467,0.696,1.069,0.697,1.681
		c-0.001,0.352-0.086,0.697-0.239,1.019c0.408-0.176,0.837-0.227,1.235-0.231c0.282,0.001,0.561,0.03,0.832,0.079
		c0.059-0.286,0.09-0.576,0.09-0.867c0.001-1.096-0.422-2.202-1.258-3.039l0,0.001c-0.591-0.593-1.318-0.973-2.079-1.147v-8.53
		l3.11,1.825L4.299,0L0.23,7.99l3.109-1.824v8.528C2.577,14.87,1.851,15.25,1.26,15.842c-0.838,0.834-1.261,1.94-1.26,3.036
		c-0.001,1.098,0.422,2.205,1.26,3.043c0.837,0.837,1.943,1.259,3.041,1.258h0.003c0.467,0,0.931-0.082,1.378-0.233
		C5.397,22.579,5.178,22.163,5.173,21.648z"/>
	<path id="inner" fill="#FFFFFF"  d="M25.39,13.048c-0.184,0-0.374,0.031-0.559,0.099l0,0l-0.811,0.296
		c-0.669,0.246-1.085,0.876-1.083,1.549c0,0.184,0.03,0.373,0.097,0.557l0.136,0.369l-0.082,0.03l-0.739-2.024
		c-0.246-0.665-0.872-1.081-1.542-1.08c-0.185,0-0.378,0.031-0.566,0.102l-0.806,0.293c-0.669,0.244-1.083,0.874-1.083,1.545
		c0,0.153,0.022,0.31,0.068,0.464v0.019l0.535,1.472l-0.086,0.031l-0.841-2.313c-0.246-0.665-0.874-1.08-1.545-1.08
		c-0.184,0-0.376,0.03-0.565,0.102l-0.807,0.293c-0.668,0.245-1.082,0.875-1.082,1.548c0,0.184,0.031,0.373,0.098,0.555l0.842,2.308
		l-0.085,0.03l-3.178-8.717c-0.244-0.668-0.872-1.085-1.545-1.085c-0.185,0-0.378,0.031-0.566,0.103L8.784,8.809
		c-0.667,0.244-1.082,0.875-1.081,1.547c0,0.185,0.031,0.376,0.099,0.561l5.388,14.798l-0.086,0.031l-0.966-2.651l-0.061-0.069
		c-0.001-0.001-1.6-1.795-1.69-1.893c-0.573-0.596-1.655-0.963-2.712-0.984c-0.557,0.003-1.132,0.118-1.564,0.529
		c-0.256,0.24-0.46,0.578-0.459,0.97c0.004,0.416,0.205,0.782,0.514,1.141c0.746,0.863,6.327,7.136,6.328,7.138
		c0.371,0.406,0.866,0.874,1.464,1.337c0.449,0.403,1.414,1.047,2.339,1.742c0.919,0.662,1.791,1.475,1.835,1.705l0.158,0.433
		c0.048,0.132,0.11,0.252,0.177,0.36c0.356,0.567,0.975,0.901,1.63,0.901c0.218,0,0.437-0.038,0.649-0.112l8.682-3.16
		c0.778-0.287,1.261-1.022,1.261-1.806c0-0.089-0.005-0.176-0.017-0.261c-0.018-0.129-0.048-0.259-0.097-0.392l-0.192-0.526
		c-0.201-0.546-0.324-1.406-0.321-2.189c0-0.058,0-0.108,0.001-0.156c0.008-0.402,0.044-0.773,0.111-1.058l0.005-0.025l0.004-0.03
		c0.001-0.013,0.053-0.488,0.053-1.213c-0.001-0.889-0.078-2.156-0.438-3.412c-0.057-0.186-0.111-0.374-0.185-0.579
		c-0.781-2.145-2.674-7.348-2.677-7.354C26.69,13.463,26.062,13.048,25.39,13.048z M24.996,13.598L24.996,13.598L24.996,13.598
		L24.996,13.598z"/>
	<path d="M17.856,35.884c-0.09-0.145-0.175-0.309-0.242-0.496l0,0l-0.154-0.419c-0.011-0.015-0.028-0.037-0.05-0.062l0,0
		c-0.074-0.087-0.202-0.218-0.357-0.361l0,0c-0.312-0.291-0.742-0.646-1.188-0.966l0,0c-0.897-0.676-1.83-1.292-2.365-1.761l0,0
		c-0.625-0.486-1.14-0.974-1.515-1.385l0,0c-0.027-0.027-0.018-0.02-0.023-0.025l0,0l-0.003-0.001l-0.001-0.003l-0.001-0.001
		l-0.001-0.001L11.952,30.4c-0.003-0.004-0.008-0.008-0.013-0.015l0,0c-0.01-0.012-0.026-0.03-0.047-0.053l0,0
		c-0.041-0.045-0.102-0.113-0.179-0.201l0,0c-0.154-0.173-0.376-0.421-0.643-0.723l0,0c-0.535-0.601-1.256-1.414-2.001-2.251l0,0
		c-1.489-1.678-3.067-3.457-3.449-3.901l0,0c-0.361-0.416-0.682-0.946-0.689-1.604l0,0l0,0c0-0.004,0-0.007,0-0.01l0,0v-0.001
		c0.003-0.652,0.331-1.158,0.682-1.486l0,0c0.626-0.595,1.414-0.726,2.075-0.729l0,0c0.987,0.03,1.974,0.281,2.741,0.811l0,0
		l-3.304-9.076c-0.092-0.253-0.137-0.512-0.142-0.764l0,0c-0.001-0.017-0.002-0.033-0.002-0.045l0,0v-0.001
		c0-0.966,0.597-1.869,1.556-2.219l0,0l0.796-0.29c0.276-0.106,0.557-0.15,0.823-0.15l0,0c0.97-0.001,1.872,0.601,2.222,1.557l0,0
		l1.607,4.409c0.239-0.243,0.534-0.438,0.875-0.563l0,0l0.798-0.29c0.278-0.105,0.558-0.149,0.82-0.149l0,0
		c0.619-0.001,1.211,0.245,1.65,0.673l0,0c0.264-0.339,0.623-0.61,1.056-0.768l0,0l0.801-0.291c0.248-0.093,0.5-0.139,0.743-0.146
		l0,0c0.033-0.004,0.059-0.004,0.076-0.001l0,0h0.003c0.852,0,1.648,0.467,2.067,1.229l0,0c0.243-0.254,0.547-0.458,0.899-0.588l0,0
		l0.053-0.02l0.758-0.276c0.266-0.096,0.54-0.142,0.806-0.142l0,0v0.539v-0.539c0.968-0.001,1.868,0.598,2.217,1.539l0,0
		c0.017,0.044,1.899,5.217,2.684,7.372l0,0c0.085,0.233,0.142,0.437,0.201,0.626l0,0c0.386,1.354,0.463,2.68,0.465,3.611l0,0
		c0,0.758-0.055,1.261-0.06,1.307l0,0l-0.008,0.056l-0.005,0.026l-0.009,0.042c-0.049,0.209-0.085,0.544-0.091,0.913l0,0
		c-0.001,0.034-0.001,0.079-0.001,0.138l0,0v0.034v0c-0.003,0.695,0.122,1.498,0.278,1.907l0,0l0.192,0.527
		c0.067,0.185,0.108,0.366,0.133,0.538l0,0c0.017,0.124,0.023,0.244,0.023,0.36l0,0c0,1.077-0.664,2.087-1.735,2.483l0,0
		l-8.689,3.162c-0.287,0.101-0.587,0.153-0.888,0.153l0,0C19.197,37.123,18.347,36.664,17.856,35.884L17.856,35.884z M18.965,34.895
		c0.03,0.078,0.068,0.154,0.112,0.224l0,0c0.222,0.355,0.61,0.563,1.02,0.565l0,0c0.134-0.001,0.273-0.023,0.403-0.069l0,0
		l8.679-3.16c0.489-0.18,0.789-0.64,0.79-1.131l0,0c0-0.061-0.004-0.116-0.009-0.16l0,0c-0.013-0.088-0.031-0.166-0.061-0.246l0,0
		l-0.19-0.523c-0.242-0.673-0.361-1.557-0.365-2.413l0,0c0.001,0-0.001-0.01,0-0.04l0,0c0-0.053,0-0.103,0.001-0.154l0,0
		c0.009-0.435,0.046-0.841,0.125-1.184l0,0c0.006-0.061,0.049-0.488,0.049-1.127l0,0c0-0.849-0.077-2.057-0.406-3.203l0,0
		c-0.061-0.197-0.111-0.369-0.173-0.544l0,0c-0.758-2.079-2.558-7.027-2.672-7.338l0,0l0.048-0.018l-0.052,0.007
		c-0.142-0.382-0.496-0.612-0.873-0.613l0,0v-0.059v0.059c-0.088,0-0.18,0.013-0.27,0.04l0,0l-0.124,0.045v0.465v-0.465v0.465
		v-0.465l-0.729,0.266c-0.381,0.14-0.612,0.494-0.612,0.869l0,0v0.005c0,0.106,0.017,0.211,0.052,0.308l0,0l0.385,1.046
		l-1.436,0.524l-0.986-2.695c-0.133-0.362-0.461-0.589-0.813-0.61l0,0c-0.018,0.001-0.033,0.001-0.045,0l0,0h-0.009
		c-0.104,0-0.212,0.018-0.32,0.059l0,0l-0.806,0.292c-0.378,0.137-0.609,0.493-0.61,0.87l0,0c0,0.083,0.013,0.171,0.039,0.26l0,0
		l0.023,0.079l0.744,2.048l-1.441,0.518l-1.084-2.982c-0.14-0.378-0.494-0.609-0.87-0.611l0,0c-0.107,0.001-0.21,0.018-0.32,0.059
		l0,0l-0.805,0.294c-0.378,0.138-0.61,0.494-0.61,0.872l0,0c0,0.102,0.017,0.209,0.053,0.308l0,0l1.092,2.992l-1.442,0.51
		l-3.421-9.387c-0.138-0.378-0.494-0.61-0.87-0.611l0,0c-0.104,0-0.21,0.018-0.32,0.06l0,0L9.031,9.483
		C8.656,9.62,8.425,9.974,8.422,10.348l0,0c0,0.002,0,0.004,0,0.006l0,0v0.001c0,0.104,0.018,0.211,0.056,0.314l0,0l5.634,15.475
		l-1.438,0.524l-1.166-3.2c-0.01-0.012-0.022-0.026-0.037-0.043l0,0c-0.044-0.048-0.107-0.12-0.183-0.205l0,0
		c-0.151-0.169-0.355-0.396-0.559-0.627l0,0c-0.408-0.458-0.84-0.94-0.861-0.964l0,0c-0.352-0.391-1.304-0.758-2.19-0.763l0,0
		c-0.471,0.003-0.833,0.101-1.075,0.335l0,0c-0.15,0.141-0.23,0.301-0.232,0.427l0,0v0.011c0.001,0.175,0.083,0.377,0.339,0.677l0,0
		c0.727,0.841,6.241,7.04,6.315,7.123l0,0c0.001,0.001,0.002,0.001,0.001,0l0,0c0.342,0.374,0.807,0.817,1.373,1.253l0,0
		l0.017,0.015l0.022,0.019c0.366,0.334,1.351,0.999,2.28,1.693l0,0c0.732,0.529,1.404,1.113,1.784,1.551l0,0
		c0.112,0.153,0.214,0.221,0.304,0.494l0,0l0.002-0.001L18.965,34.895L18.965,34.895z M24.996,13.064v-0.186V13.064L24.996,13.064z
		 M24.996,13.064v-0.186V13.064L24.996,13.064z M24.996,13.064v-0.186V13.064L24.996,13.064z M24.996,13.064v-0.186V13.064
		L24.996,13.064z"/>
</g>
<g id="Layer_1">
</g>
</svg>
