<?xml version="1.0" encoding="iso-8859-1"?>
<!-- Generator: Adobe Illustrator 18.1.1, SVG Export Plug-In . SVG Version: 6.00 Build 0)  -->
<svg version="1.1" xmlns="http://www.w3.org/2000/svg" xmlns:xlink="http://www.w3.org/1999/xlink" x="0px" y="0px"
	 viewBox="0 0 26.476 35.961" style="enable-background:new 0 0 26.476 35.961;" xml:space="preserve">
<g id="Layer_46.svg">
	<path d="M24.575,1.259C23.738,0.42,22.631-0.002,21.535,0c-1.097-0.002-2.202,0.422-3.039,1.259h0
		c-0.593,0.591-0.973,1.318-1.146,2.079H8.82l1.824-3.109L2.655,4.298l7.989,4.07L8.82,5.259h8.53
		c0.175,0.761,0.555,1.487,1.146,2.078c0.835,0.836,1.94,1.26,3.037,1.259h0.004c1.096,0,2.2-0.423,3.037-1.259
		C25.41,6.5,25.834,5.398,25.833,4.3C25.834,3.204,25.415,2.097,24.575,1.259z M23.218,5.98c-0.467,0.466-1.071,0.695-1.684,0.696
		c-0.611-0.001-1.214-0.23-1.681-0.696c-0.467-0.468-0.696-1.071-0.697-1.682c0.001-0.614,0.23-1.215,0.695-1.682l0.002-0.001
		c0.467-0.467,1.07-0.695,1.681-0.696c0.613,0.001,1.215,0.229,1.683,0.696c0.468,0.467,0.695,1.071,0.696,1.685
		C23.913,4.909,23.684,5.512,23.218,5.98z"/>
	<path id="inner" fill="#FFFFFF" d="M7.561,28.764c0.371,0.406,0.865,0.874,1.464,1.337c0.449,0.403,1.415,1.047,2.34,1.742
		c0.918,0.662,1.79,1.474,1.833,1.705l0.158,0.433c0.05,0.132,0.11,0.252,0.177,0.36c0.356,0.567,0.975,0.901,1.631,0.901
		c0.218,0,0.437-0.038,0.648-0.112l8.683-3.16c0.778-0.287,1.261-1.024,1.261-1.807c0-0.089-0.007-0.175-0.018-0.258
		c-0.017-0.13-0.047-0.262-0.097-0.395l-0.19-0.526c-0.202-0.545-0.323-1.404-0.322-2.189c0-0.056,0-0.108,0.003-0.155
		c0.007-0.402,0.044-0.773,0.11-1.057l0.007-0.026l0.003-0.029c0.001-0.015,0.053-0.488,0.053-1.211
		c0-0.891-0.077-2.157-0.437-3.415c-0.059-0.186-0.112-0.376-0.186-0.579c-0.781-2.146-2.677-7.355-2.677-7.355
		c-0.246-0.667-0.876-1.082-1.548-1.082c-0.183,0-0.373,0.031-0.559,0.099l0,0.001l-0.811,0.295
		c-0.669,0.248-1.085,0.876-1.085,1.55c0,0.184,0.031,0.372,0.098,0.557l0.136,0.369l-0.083,0.03l-0.738-2.024
		c-0.246-0.666-0.872-1.082-1.544-1.08c-0.185,0-0.377,0.031-0.566,0.102l-0.806,0.293c-0.669,0.244-1.083,0.873-1.082,1.545
		c0,0.153,0.022,0.31,0.066,0.464v0.019l0.535,1.472l-0.085,0.031l-0.842-2.313c-0.246-0.665-0.872-1.08-1.544-1.08
		c-0.184,0-0.377,0.03-0.566,0.102l-0.806,0.293c-0.669,0.246-1.083,0.875-1.083,1.548c0,0.184,0.031,0.373,0.098,0.557l0.842,2.308
		l-0.085,0.03L6.77,8.335C6.526,7.667,5.898,7.25,5.224,7.25c-0.184,0-0.377,0.031-0.565,0.102L3.852,7.646
		C3.183,7.89,2.77,8.521,2.77,9.193c0,0.185,0.031,0.375,0.099,0.56l5.388,14.798l-0.086,0.033L7.205,21.93l-0.061-0.068
		c-0.001-0.001-1.6-1.795-1.69-1.894c-0.574-0.595-1.654-0.962-2.713-0.984c-0.557,0.004-1.132,0.119-1.563,0.531
		c-0.256,0.24-0.46,0.577-0.458,0.97c0.003,0.416,0.205,0.782,0.514,1.141C1.979,22.49,7.56,28.761,7.561,28.764z"/>
	<path d="M12.924,34.721c-0.094-0.149-0.175-0.312-0.244-0.495l0,0l-0.153-0.418c-0.011-0.015-0.028-0.037-0.051-0.062l0,0
		c-0.074-0.089-0.202-0.217-0.357-0.362l0,0c-0.312-0.291-0.742-0.646-1.187-0.966l0,0c-0.897-0.675-1.83-1.29-2.366-1.761l0,0
		c-0.625-0.484-1.14-0.974-1.537-1.408l0,0l0.531-0.485l0.644-0.321l-0.644,0.321L7.03,29.248l-0.01-0.011l0,0l-0.003-0.003l0,0h0
		c0,0-0.001-0.001-0.001-0.001l0,0L7.01,29.226c0,0,0,0,0,0l0,0c0,0,0,0,0-0.001l0,0L7,29.215c-0.003-0.003-0.005-0.006-0.008-0.009
		l0,0l-0.029-0.032l-0.001-0.002c0,0-0.001-0.001-0.001-0.001l0,0c-0.04-0.046-0.1-0.113-0.179-0.201l0,0
		c-0.154-0.173-0.374-0.421-0.643-0.722l0,0c-0.535-0.602-1.256-1.413-2-2.252l0,0c-1.49-1.678-3.067-3.457-3.449-3.9l0,0
		c-0.357-0.411-0.675-0.932-0.688-1.581l0,0C0,20.488,0,20.469,0.001,20.464l0,0l0,0c0.007-0.646,0.335-1.146,0.681-1.471l0,0
		c0.626-0.595,1.414-0.725,2.075-0.73l0,0c0.987,0.031,1.973,0.283,2.742,0.813l0,0L2.192,10C2.095,9.733,2.05,9.459,2.05,9.193l0,0
		C2.049,8.227,2.645,7.32,3.605,6.97l0,0l0.802-0.294C4.68,6.575,4.958,6.53,5.223,6.529l0,0c0.971,0,1.874,0.603,2.223,1.558l0,0
		l1.607,4.41c0.239-0.243,0.535-0.439,0.876-0.565l0,0l0.797-0.29c0.279-0.105,0.559-0.149,0.821-0.149l0,0
		c0.62,0,1.211,0.245,1.649,0.672l0,0c0.264-0.339,0.624-0.61,1.057-0.767l0,0l0.799-0.291c0.248-0.092,0.5-0.138,0.742-0.146l0,0
		c0.033-0.004,0.059-0.005,0.076-0.001l0,0h0.003c0.853-0.001,1.649,0.467,2.069,1.23l0,0c0.243-0.253,0.547-0.458,0.898-0.588l0,0
		l0.053-0.018v-0.001l0.758-0.276c0.269-0.098,0.543-0.142,0.806-0.142l0,0c0.966,0,1.869,0.597,2.223,1.556l0,0
		c0.003,0.007,1.896,5.208,2.677,7.354l0,0c0.085,0.233,0.142,0.437,0.202,0.627l0,0c0.386,1.355,0.464,2.681,0.464,3.613l0,0
		c0.001,0.745-0.056,1.267-0.056,1.275l0,0l-0.008,0.086l-0.014,0.056l-0.003,0.009c-0.05,0.211-0.086,0.545-0.093,0.936l0,0
		c-0.001,0.017-0.001,0.06-0.001,0.115l0,0v0.073l0,0c0.003,0.689,0.126,1.471,0.279,1.871l0,0l0.188,0.519
		c0.072,0.191,0.113,0.379,0.135,0.547l0,0c0.016,0.114,0.025,0.235,0.025,0.358l0,0c0.001,1.077-0.662,2.088-1.734,2.484l0,0
		l-8.691,3.162c-0.286,0.101-0.585,0.153-0.886,0.154l0,0C14.265,35.961,13.413,35.502,12.924,34.721L12.924,34.721z M14.03,33.726
		c0.033,0.087,0.072,0.164,0.113,0.23l0,0c0.223,0.355,0.61,0.564,1.021,0.565l0,0c0.134,0,0.274-0.023,0.402-0.069l0,0l8.682-3.159
		c0.488-0.179,0.789-0.643,0.789-1.132l0,0c0-0.053-0.004-0.106-0.012-0.166l0,0c-0.012-0.083-0.029-0.16-0.06-0.242l0,0
		l-0.188-0.521c-0.246-0.678-0.364-1.57-0.368-2.428l0,0v-0.007c0-0.001,0-0.003,0-0.005l0,0h0c0-0.056,0-0.119,0.003-0.167l0,0
		c0.008-0.427,0.045-0.825,0.125-1.191l0,0c0.012-0.115,0.048-0.507,0.048-1.12l0,0c0.001-0.849-0.076-2.055-0.403-3.199l0,0
		c-0.063-0.201-0.113-0.377-0.176-0.549l0,0c-0.781-2.146-2.677-7.354-2.676-7.352l0,0c-0.14-0.38-0.497-0.61-0.872-0.611l0,0
		c-0.093,0-0.189,0.014-0.285,0.046l0,0l-0.835,0.305c-0.383,0.141-0.614,0.497-0.615,0.875l0,0c0,0.102,0.017,0.206,0.053,0.308
		l0,0l0.386,1.048l-1.441,0.518l-0.982-2.693c-0.133-0.363-0.461-0.589-0.814-0.61l0,0c-0.018,0.001-0.033,0.001-0.045,0l0,0H15.87
		c-0.104,0-0.21,0.017-0.32,0.059l0,0l-0.806,0.293c-0.376,0.136-0.606,0.487-0.609,0.86l0,0c0,0.002,0,0.004,0,0.006l0,0v0.003
		c0,0.086,0.013,0.175,0.038,0.262l0,0l0.022,0.073l0.744,2.045l-1.434,0.532l-1.089-2.988c-0.139-0.38-0.493-0.611-0.868-0.611l0,0
		c-0.107,0-0.212,0.017-0.321,0.059l0,0l-0.802,0.292c-0.382,0.14-0.612,0.494-0.613,0.872l0,0c0,0.102,0.017,0.209,0.053,0.309l0,0
		l1.093,2.992l-1.443,0.508l-3.42-9.385C5.956,8.202,5.601,7.97,5.223,7.968l0,0c-0.102,0-0.21,0.018-0.317,0.059l0,0L4.099,8.322
		C3.721,8.459,3.49,8.814,3.489,9.193l0,0c0.001,0.103,0.018,0.21,0.056,0.313l0,0L9.176,24.97l-1.432,0.546l-1.167-3.207
		c-0.011-0.012-0.024-0.027-0.04-0.045l0,0c-0.044-0.05-0.107-0.12-0.183-0.206l0,0C6.203,21.888,6,21.661,5.795,21.43l0,0
		c-0.409-0.459-0.836-0.938-0.859-0.963l0,0c-0.355-0.393-1.305-0.758-2.189-0.764l0,0c-0.473,0.004-0.836,0.102-1.077,0.336l0,0
		c-0.144,0.135-0.222,0.285-0.23,0.409l0,0l0.001,0.031c0,0.172,0.081,0.375,0.339,0.677l0,0c0.716,0.832,6.048,6.823,6.314,7.123
		l0,0c0.342,0.374,0.808,0.816,1.373,1.253l0,0l0.018,0.014l0.022,0.02c0.365,0.334,1.351,0.998,2.281,1.692l0,0
		c0.729,0.529,1.402,1.112,1.783,1.549l0,0c0.112,0.154,0.213,0.223,0.303,0.495l0,0l0.002-0.001L14.03,33.726L14.03,33.726z
		 M7.013,29.23c-0.001-0.001-0.002-0.002-0.003-0.003l0,0c0.002,0.002,0.004,0.005,0.006,0.007l0,0l0.001,0.001l0,0L7.013,29.23
		L7.013,29.23z"/>
</g>
<g id="Layer_1">
</g>
</svg>
