<?xml version="1.0" encoding="iso-8859-1"?>
<!-- Generator: Adobe Illustrator 18.1.1, SVG Export Plug-In . SVG Version: 6.00 Build 0)  -->
<svg version="1.1" xmlns="http://www.w3.org/2000/svg" xmlns:xlink="http://www.w3.org/1999/xlink" x="0px" y="0px"
	 viewBox="0 0 24.089 39.41" style="enable-background:new 0 0 24.089 39.41;" xml:space="preserve">
<g id="Layer_42.svg">
	<path d="M14.653,0c-2.211,0-4.004,1.794-4.004,4.006c0,2.21,1.793,4.003,4.004,4.005c2.213-0.002,4.004-1.795,4.004-4.005
		C18.657,1.794,16.866,0,14.653,0z M14.653,7.145c-1.735-0.002-3.138-1.407-3.14-3.139c0.002-1.735,1.406-3.139,3.14-3.142
		c1.735,0.003,3.138,1.407,3.142,3.142C17.791,5.739,16.388,7.143,14.653,7.145z"/>
	<polygon points="14.941,1.658 14.366,1.658 14.366,4.294 16.723,4.293 16.723,3.717 14.941,3.717 	"/>
	<path d="M14.652,8.969c-0.535,0-1.048-0.087-1.53-0.244c0.003,0.066,0.01,0.131,0.01,0.198c-0.003,1.573-0.801,2.959-2.014,3.778
		l0.001,2.178c2.303-0.986,3.92-3.268,3.931-5.93C14.918,8.959,14.786,8.969,14.652,8.969z"/>
	<path d="M8.577,2.448C5,2.449,2.102,5.346,2.101,8.923c0.001,2.662,1.609,4.949,3.907,5.944v-2.185
		c-1.199-0.821-1.985-2.197-1.988-3.759c0.004-2.517,2.04-4.552,4.557-4.556c0.394,0.001,0.774,0.056,1.139,0.151
		C9.699,4.35,9.69,4.178,9.69,4.006c0-0.495,0.075-0.972,0.209-1.422C9.472,2.495,9.03,2.448,8.577,2.448z"/>
	<path id="inner" fill="#FFFFFF" d="M4.394,29.888c0.21,0.508,0.515,1.113,0.916,1.752c0.294,0.548,0.978,1.478,1.606,2.442
		c0.637,0.936,1.178,1.997,1.141,2.23v0.46c0,0.14,0.017,0.275,0.044,0.399c0.186,0.869,0.954,1.517,1.876,1.52h9.236
		c0.921-0.003,1.689-0.651,1.875-1.52c0.028-0.126,0.044-0.261,0.044-0.399v-0.559c-0.003-0.622,0.203-1.547,0.502-2.317
		c0.144-0.369,0.306-0.707,0.465-0.952l0.015-0.025l0.012-0.023c0.012-0.031,1.052-2.112,1.221-4.479
		c0.009-0.194,0.023-0.389,0.023-0.606c0-2.284,0-7.819,0-7.827c-0.004-0.907-0.735-1.64-1.64-1.643l-0.001,0.48l0,0v-0.48h-0.866
		c-0.908,0.003-1.643,0.735-1.647,1.641l0.001,0.394h-0.089l-0.003-2.154c-0.003-0.908-0.736-1.641-1.642-1.641h-0.862
		c-0.88,0-1.593,0.687-1.643,1.547l-0.005,0.016l-0.003,1.561h-0.09v-2.46c-0.004-0.906-0.735-1.639-1.642-1.642h-0.865
		c-0.907,0.003-1.64,0.735-1.646,1.639l0.003,2.458h-0.09l-0.005-9.281c0-0.907-0.733-1.645-1.64-1.645H8.132
		c-0.911,0-1.642,0.737-1.646,1.643l0.003,15.751H6.397v-2.825l-0.033-0.083c0-0.001-0.89-2.235-0.94-2.357
		c-0.217-0.509-0.677-0.956-1.24-1.346c-0.566-0.38-1.229-0.682-1.911-0.689c-0.236,0-0.482,0.04-0.714,0.145
		c-0.456,0.175-0.858,0.645-0.836,1.205c0,0.257,0.062,0.516,0.168,0.797C1.294,22.083,4.394,29.886,4.394,29.888z"/>
	<path d="M9.974,39.41c-1.266-0.005-2.322-0.894-2.577-2.088l0,0c-0.036-0.168-0.06-0.353-0.06-0.551l0,0v-0.444
		c-0.007-0.024-0.021-0.063-0.04-0.11l0,0c-0.045-0.117-0.122-0.281-0.218-0.468l0,0c-0.193-0.374-0.466-0.836-0.766-1.276l0,0
		c-0.608-0.936-1.271-1.831-1.622-2.468l0,0c-0.417-0.666-0.736-1.299-0.961-1.845l0,0l-0.006-0.015l0,0c0,0,0-0.001-0.001-0.002
		l0,0L3.719,30.14l0,0c0-0.001-0.001-0.003-0.001-0.004l0,0c0,0,0,0,0,0l0,0L3.674,30.03v-0.006c-0.021-0.054-0.05-0.125-0.083-0.21
		l0,0c-0.085-0.216-0.208-0.524-0.356-0.899l0,0c-0.298-0.748-0.698-1.758-1.11-2.8l0,0c-0.827-2.086-1.701-4.297-1.908-4.845l0,0
		c-0.124-0.326-0.214-0.67-0.216-1.038l0,0C0,20.205,0,20.184,0,20.175l0,0c0.016-0.896,0.598-1.548,1.277-1.824l0,0
		c0.339-0.151,0.684-0.202,1.003-0.202l0,0c0.894,0.013,1.67,0.388,2.314,0.817l0,0c0.445,0.311,0.861,0.664,1.176,1.104l0,0
		l-0.002-9.655c0.004-1.299,1.055-2.36,2.365-2.36l0,0h0.865c1.307,0.001,2.359,1.061,2.359,2.364l0,0l0.003,4.695
		c0.308-0.147,0.652-0.23,1.016-0.231l0,0h0.867c0.936,0.003,1.742,0.549,2.124,1.339l0,0c0.364-0.228,0.794-0.36,1.257-0.36l0,0
		h0.862c1.182,0,2.16,0.868,2.333,2.004l0,0c0.315-0.156,0.67-0.243,1.045-0.245l0,0h0.15v-0.002l0.719,0.002h0.716v0.112
		c0.951,0.305,1.638,1.197,1.642,2.25l0,0c0,0.007,0,5.544,0,7.826l0,0c0,0.249-0.015,0.459-0.024,0.658l0,0
		c-0.175,2.422-1.184,4.509-1.277,4.711l0,0l-0.002,0.005l-0.004,0.008l-0.015,0.031l-0.023,0.045l-0.017,0.027l-0.024,0.041
		c-0.118,0.18-0.267,0.484-0.398,0.821l0,0c-0.266,0.67-0.451,1.535-0.454,2.016l0,0h0v0.018v0.01v0.011v0.559
		c0,0.193-0.021,0.379-0.059,0.551l0,0c-0.256,1.194-1.312,2.083-2.578,2.088l0,0H9.974L9.974,39.41z M8.776,36.771
		c0,0.082,0.009,0.167,0.027,0.248l0,0c0.117,0.543,0.597,0.951,1.173,0.952l0,0h9.233c0.577-0.001,1.056-0.409,1.176-0.958l0,0
		c0.017-0.074,0.026-0.156,0.026-0.242l0,0v-0.559l0,0c0-0.003,0-0.008,0-0.011l0,0c0.005-0.77,0.226-1.719,0.551-2.567l0,0
		c0.157-0.399,0.33-0.768,0.52-1.062l0,0l0.002-0.003h0c0.001-0.002,0.003-0.005,0.005-0.01l0,0c0.008-0.017,0.018-0.04,0.032-0.069
		l0,0c0.027-0.059,0.067-0.147,0.114-0.258l0,0c0.096-0.223,0.226-0.543,0.361-0.933l0,0c0.27-0.78,0.555-1.839,0.631-2.915l0,0
		c0.01-0.207,0.023-0.388,0.023-0.573l0,0c0-2.284,0-7.819,0-7.824l0,0c-0.003-0.514-0.414-0.923-0.924-0.926l0,0h-0.862
		c-0.514,0.003-0.927,0.417-0.93,0.919l0,0l0.005,1.117h-1.531l-0.003-2.872c-0.001-0.514-0.414-0.923-0.921-0.923l0,0h-0.862
		c-0.496-0.001-0.897,0.388-0.925,0.868l0,0l-0.004,0.077l-0.004,2.178h-1.528v-3.176c-0.003-0.513-0.414-0.924-0.923-0.926l0,0
		h-0.862c-0.513,0.003-0.925,0.415-0.929,0.92l0,0l0.004,3.178h-1.53L9.917,10.418c-0.001-0.51-0.414-0.923-0.92-0.925l0,0H8.132
		c-0.513,0-0.924,0.414-0.926,0.924l0,0l0.003,16.471H5.677v-3.403c-0.006-0.015-0.013-0.033-0.022-0.054l0,0
		c-0.024-0.062-0.059-0.15-0.101-0.256l0,0c-0.084-0.211-0.197-0.495-0.311-0.781l0,0c-0.227-0.571-0.466-1.169-0.482-1.208l0,0
		c-0.127-0.311-0.482-0.691-0.979-1.031l0,0c-0.499-0.338-1.047-0.567-1.511-0.567l0,0c-0.156,0-0.297,0.027-0.416,0.082l0,0
		l-0.021,0.008l-0.019,0.008C1.615,19.756,1.423,20,1.44,20.175l0,0H1.44l0.002,0.018v0.026c0,0.14,0.033,0.311,0.121,0.542l0,0
		c0.388,1.024,3.311,8.383,3.497,8.852l0,0v0c0.193,0.468,0.481,1.04,0.86,1.645l0,0l0.011,0.018L5.943,31.3
		c0.243,0.457,0.935,1.411,1.567,2.377l0,0c0.488,0.722,0.91,1.476,1.124,2.01l0,0c0.068,0.193,0.131,0.321,0.143,0.599l0,0
		c0,0.017,0,0.033-0.001,0.046l0,0V36.771L8.776,36.771z M5.688,23.51l0.003,0.008l0.001,0c-0.001-0.002-0.003-0.006-0.005-0.011
		l0,0C5.687,23.508,5.687,23.509,5.688,23.51L5.688,23.51z M3.718,30.137L3.718,30.137L3.718,30.137l0.001,0.003L3.718,30.137
		L3.718,30.137z"/>
</g>
<g id="Layer_1">
</g>
</svg>
