<?xml version="1.0" encoding="iso-8859-1"?>
<!-- Generator: Adobe Illustrator 18.1.1, SVG Export Plug-In . SVG Version: 6.00 Build 0)  -->
<svg version="1.1" xmlns="http://www.w3.org/2000/svg" xmlns:xlink="http://www.w3.org/1999/xlink" x="0px" y="0px"
	 viewBox="0 0 37.185 39.468" style="enable-background:new 0 0 37.185 39.468;" xml:space="preserve">
<g id="Layer_32.svg">
	<path d="M14.935,17.507c0.001-1.096-0.422-2.203-1.259-3.041c-0.837-0.84-1.944-1.261-3.041-1.26
		c-1.096-0.001-2.202,0.423-3.037,1.26c-0.84,0.836-1.26,1.944-1.259,3.041c-0.001,0.791,0.223,1.585,0.659,2.281l-3.317,3.317
		l-0.909-3.489L0,28.143l8.527-2.772l-3.489-0.909l3.318-3.317c0.696,0.437,1.49,0.66,2.282,0.658h0.009
		c1.094,0,2.195-0.423,3.029-1.258C14.512,19.708,14.936,18.604,14.935,17.507z M12.319,19.189
		c-0.467,0.466-1.069,0.694-1.681,0.695c-0.612-0.001-1.216-0.23-1.683-0.696c-0.467-0.467-0.697-1.07-0.698-1.68
		c0.001-0.614,0.231-1.218,0.697-1.683c0.467-0.468,1.07-0.697,1.681-0.699c0.614,0.002,1.216,0.231,1.684,0.698
		c0.467,0.469,0.696,1.071,0.696,1.684C13.015,18.117,12.786,18.72,12.319,19.189z"/>
	<path d="M17.508,14.935h0.004c0.539,0,1.08-0.104,1.591-0.308l0-2.237c-0.453,0.412-1.018,0.624-1.594,0.625
		c-0.613-0.001-1.218-0.231-1.683-0.695c-0.468-0.469-0.697-1.072-0.698-1.684c0.001-0.613,0.231-1.214,0.697-1.681
		c0.468-0.467,1.07-0.697,1.682-0.698c0.613,0.001,1.214,0.231,1.682,0.698c0.106,0.106,0.196,0.22,0.277,0.338
		c0.367-0.545,0.981-0.906,1.683-0.931c-0.001-0.002-0.002-0.005-0.003-0.007l3.317-3.317l0.909,3.489L28.143,0l-8.526,2.772
		l3.488,0.909l-3.316,3.316c-0.697-0.438-1.492-0.66-2.283-0.659c-1.098-0.002-2.202,0.422-3.038,1.26
		c-0.838,0.834-1.26,1.939-1.259,3.037c-0.001,1.097,0.421,2.202,1.259,3.04C15.304,14.513,16.41,14.936,17.508,14.935z"/>
	<path id="inner" fill="#FFFFFF" d="M34.824,18.399l-0.001,0.479v-0.479h-0.866c-0.908,0.004-1.643,0.735-1.647,1.641l0.001,0.394
		h-0.089l-0.003-2.155c-0.003-0.908-0.736-1.641-1.642-1.64h-0.863c-0.884,0-1.601,0.694-1.642,1.562l-0.005,0.02l-0.003,1.542
		h-0.09v-2.461c-0.004-0.906-0.736-1.639-1.642-1.641H25.47c-0.906,0.003-1.64,0.734-1.644,1.64l0.001,2.457h-0.09l-0.005-9.28
		c-0.001-0.907-0.732-1.643-1.639-1.643h-0.867c-0.909,0-1.64,0.736-1.644,1.641l0.003,15.263c0,0.128-0.112,0.238-0.239,0.238
		h-0.402c-0.204,0.021-0.694-0.209-0.811-0.38l-0.029-0.034l-2.186-2.624c-0.43-0.484-1.154-0.804-1.951-0.983
		c-0.278-0.057-0.562-0.091-0.845-0.091c-0.518,0.001-1.052,0.109-1.467,0.48c-0.272,0.239-0.491,0.587-0.488,0.994
		c0.003,0.401,0.188,0.76,0.476,1.118c0.717,0.885,4.833,5.824,4.836,5.825c0.668,0.803,1.568,1.93,1.979,2.483
		c0.249,0.331,0.925,1.063,1.561,1.862c0.64,0.762,1.18,1.698,1.132,1.863v0.339c0,0.14,0.018,0.275,0.044,0.399
		c0.186,0.868,0.954,1.519,1.876,1.52h9.236c0.921-0.003,1.69-0.652,1.876-1.52c0.029-0.125,0.043-0.261,0.043-0.399v-0.558
		c-0.003-0.622,0.203-1.548,0.504-2.316c0.143-0.37,0.305-0.708,0.464-0.954l0.014-0.02l0.014-0.027
		c0.012-0.03,1.052-2.111,1.221-4.478c0.01-0.195,0.023-0.389,0.023-0.607c0-2.284,0-7.819,0.001-7.826
		C36.462,19.135,35.729,18.402,34.824,18.399z"/>
	<path d="M23.068,39.468c-1.267-0.002-2.322-0.895-2.578-2.092l0,0c-0.034-0.162-0.059-0.344-0.059-0.546l0,0v-0.287
		c-0.006-0.014-0.013-0.031-0.022-0.05l0,0c-0.042-0.091-0.116-0.229-0.21-0.381l0,0c-0.186-0.309-0.454-0.69-0.744-1.037l0,0
		c-0.621-0.782-1.273-1.481-1.576-1.88l0,0c-0.391-0.528-1.284-1.646-1.941-2.437l0,0c-0.002-0.002-0.003-0.003-0.004-0.004l0,0
		l-0.005-0.007l-0.004-0.006c-0.003-0.002-0.005-0.007-0.011-0.012l0,0c-0.008-0.009-0.019-0.023-0.035-0.042l0,0
		c-0.03-0.037-0.075-0.09-0.132-0.159l0,0c-0.114-0.136-0.278-0.334-0.477-0.572l0,0c-0.397-0.478-0.935-1.123-1.495-1.795l0,0
		c-1.12-1.348-2.326-2.8-2.692-3.252l0,0c-0.329-0.406-0.617-0.91-0.635-1.521l0,0c-0.002-0.021-0.002-0.04-0.002-0.054l0,0V23.33
		c0.004-0.675,0.355-1.195,0.73-1.522l0,0c0.602-0.536,1.337-0.663,1.947-0.663l0,0c0.34,0,0.673,0.039,1.003,0.108l0,0
		c0.879,0.203,1.73,0.544,2.345,1.223l0,0l2.185,2.625l0.029,0.033c0.016,0.011,0.045,0.03,0.079,0.047l0,0
		c0.031,0.017,0.069,0.034,0.102,0.047l0,0l-0.003-14.757c0.005-1.299,1.055-2.358,2.363-2.358l0,0h0.867
		c1.307,0,2.358,1.06,2.359,2.361l0,0l0.003,4.694c0.308-0.147,0.652-0.23,1.015-0.231l0,0h0.867
		c0.936,0.003,1.743,0.548,2.124,1.339l0,0c0.364-0.228,0.794-0.36,1.256-0.36l0,0h0.812c0.031-0.002,0.056-0.002,0.075-0.001l0,0
		c1.173,0.012,2.137,0.879,2.31,2.006l0,0c0.315-0.156,0.67-0.243,1.044-0.245l0,0h0.15v-0.002l0.72,0.002h0.715v0.113
		c0.95,0.306,1.638,1.195,1.643,2.247l0,0v0.067c0,0,0,0.001,0,0.001l0,0c0,0.041,0,0.102,0,0.18l0,0c0,0.157,0,0.382,0,0.66l0,0
		c0,0.555,0,1.319,0,2.155l0,0c-0.001,1.67-0.001,3.625-0.001,4.767l0,0c0,0.248-0.015,0.458-0.024,0.658l0,0
		c-0.174,2.382-1.135,4.408-1.276,4.707l0,0l-0.001,0l-0.007,0.018l-0.011,0.023l-0.034,0.068l-0.027,0.041l-0.005,0.008
		c-0.12,0.182-0.268,0.486-0.399,0.827l0,0c-0.266,0.667-0.453,1.532-0.455,2.013l0,0h0c0,0,0,0.002,0,0.029l0,0h-0.498l0.498,0.012
		v0.558c0,0.189-0.019,0.376-0.059,0.549l0,0c-0.255,1.195-1.311,2.085-2.58,2.089l0,0H23.068L23.068,39.468z M21.871,36.83
		c0,0.079,0.01,0.164,0.027,0.248l0,0c0.117,0.543,0.598,0.951,1.172,0.951l0,0h9.235c0.576-0.001,1.058-0.409,1.176-0.961l0,0
		c0.015-0.067,0.025-0.152,0.025-0.238l0,0l0.001-0.519c0-0.004-0.001-0.019-0.001-0.052l0,0c0.005-0.771,0.226-1.721,0.553-2.563
		l0,0c0.152-0.392,0.32-0.752,0.52-1.068l0,0c0.012-0.024,0.015-0.03,0.04-0.082l0,0c0.027-0.06,0.067-0.146,0.114-0.257l0,0
		c0.095-0.222,0.226-0.543,0.359-0.932l0,0c0.27-0.78,0.555-1.838,0.632-2.916l0,0c0.01-0.206,0.022-0.386,0.022-0.572l0,0
		c0-2.232-0.001-7.461,0.001-7.835l0,0c-0.009-0.509-0.419-0.913-0.924-0.916l0,0l0.001-0.239l-0.001,0.239H33.96
		c-0.515,0.003-0.928,0.415-0.93,0.919l0,0l0.004,1.117h-1.53l-0.003-2.873c-0.003-0.513-0.415-0.924-0.92-0.923l0,0h-0.864
		c-0.498,0-0.901,0.392-0.924,0.877l0,0l-0.003,0.067l-0.001,0.006l-0.004,2.174h-1.527v-3.177
		c-0.003-0.512-0.415-0.924-0.921-0.925l0,0h-0.864c-0.512,0.003-0.924,0.414-0.926,0.92l0,0l0.001,3.177h-1.53l-0.005-9.999
		c-0.001-0.512-0.412-0.924-0.919-0.924l0,0h-0.867c-0.51,0-0.922,0.412-0.924,0.922l0,0l0.003,15.264
		c-0.018,0.55-0.417,0.94-0.958,0.957l0,0h-0.379c-0.012,0.001-0.03,0.001-0.052,0.001l0,0c-0.329-0.012-0.52-0.102-0.745-0.201l0,0
		c-0.206-0.112-0.381-0.185-0.59-0.438l0,0l-0.001,0.001l-0.03-0.035l-2.171-2.607c-0.26-0.306-0.857-0.604-1.557-0.755l0,0
		c-0.237-0.049-0.474-0.076-0.698-0.076l0,0c-0.429,0.001-0.761,0.09-0.994,0.301l0,0c-0.156,0.138-0.24,0.298-0.244,0.428l0,0
		v0.017v0.004c0,0.17,0.076,0.372,0.316,0.67l0,0c0.643,0.794,4.163,5.019,4.74,5.711l0,0l0.001,0l0.088,0.106
		c0.678,0.816,1.575,1.939,2.001,2.51l0,0c0.197,0.265,0.898,1.03,1.537,1.832l0,0c0.502,0.603,0.923,1.252,1.145,1.721l0,0
		c0.071,0.175,0.141,0.269,0.159,0.58l0,0c0,0.024-0.001,0.047-0.003,0.067l0,0V36.83L21.871,36.83z M17.018,29.807
		c-0.001-0.001-0.002-0.003-0.005-0.006l0,0C17.015,29.804,17.017,29.806,17.018,29.807L17.018,29.807z M37.185,20.061
		c0,0.003,0,0.007,0,0.011l0,0c0-0.007,0-0.01,0-0.012l0,0V20.061L37.185,20.061z"/>
</g>
<g id="Layer_1">
</g>
</svg>
