<?xml version="1.0" encoding="iso-8859-1"?>
<!-- Generator: Adobe Illustrator 18.1.1, SVG Export Plug-In . SVG Version: 6.00 Build 0)  -->
<svg version="1.1" xmlns="http://www.w3.org/2000/svg" xmlns:xlink="http://www.w3.org/1999/xlink" x="0px" y="0px"
	 viewBox="0 0 31.933 36.313" style="enable-background:new 0 0 31.933 36.313;" xml:space="preserve">
<g id="Layer_23.svg">
	<polygon points="10.034,10.745 0.22,13.485 4.594,14.828 0,19.421 1.357,20.778 5.95,16.185 7.293,20.559 	"/>
	<path d="M12.889,9.333c-0.036-0.156-0.051-0.311-0.05-0.456c-0.002-0.978,0.674-1.856,1.67-2.077l0.095-0.021l0.727-0.159
		c0.171-0.041,0.333-0.055,0.476-0.055c0.92-0.001,1.736,0.602,2.017,1.493l2.734-0.764l-4.373-1.343l4.594-4.594L19.421,0
		l-4.594,4.595l-1.343-4.373l-2.74,9.814l2.165-0.604L12.889,9.333z"/>
	<path id="inner" fill="#FFFFFF" d="M14.767,31.473c0.638,0.762,1.179,1.698,1.132,1.863v0.479h0.006
		c0.007,0.09,0.021,0.177,0.038,0.259c0.186,0.868,0.954,1.518,1.876,1.52h9.236c0.921-0.003,1.69-0.652,1.876-1.52
		c0.027-0.124,0.044-0.259,0.044-0.399v-0.558c-0.003-0.624,0.201-1.548,0.502-2.316c0.143-0.37,0.305-0.708,0.464-0.954l0.015-0.02
		l0.012-0.026c0.001-0.003,0.019-0.038,0.049-0.102c0.018-0.038,0.03-0.068,0.045-0.098c0.263-0.589,0.99-2.337,1.128-4.279
		c0.008-0.195,0.023-0.389,0.023-0.607c0-2.284,0-7.819,0-7.826c-0.004-0.908-0.735-1.64-1.64-1.644l-0.001,0.479v-0.479h-0.866
		c-0.9,0.004-1.628,0.723-1.646,1.616v-0.023l-0.003,0.026l0.001,0.417h-0.088l-0.001-2.155c-0.004-0.908-0.736-1.64-1.642-1.64
		h-0.863c-0.868,0-1.573,0.668-1.64,1.512l-0.008,0.016l-0.001,1.595h-0.092v-2.461c0-0.127-0.015-0.242-0.039-0.352
		c-0.163-0.737-0.817-1.285-1.601-1.289h-0.866c-0.906,0.003-1.641,0.734-1.646,1.64l0.003,2.457h-0.09v-1.415v-0.006v-0.008
		c-0.004-1.099-0.188-2.79-0.424-3.871l-0.652-2.963c-0.169-0.767-0.845-1.294-1.603-1.294c-0.113,0-0.235,0.011-0.361,0.042
		l-0.836,0.182c-0.769,0.17-1.293,0.85-1.291,1.608c0,0.113,0.012,0.231,0.038,0.351l0.576,2.617c0.215,0.979,0.4,2.681,0.4,3.685
		v0.008v7.045c0,0.128-0.11,0.238-0.24,0.238h-0.895l-0.393-0.472v-1.743c-0.001-0.119-0.016-0.219-0.034-0.316
		c-0.105-0.544-0.409-1.146-0.833-1.685c-0.44-0.546-0.994-1.036-1.697-1.164l-0.012-0.001l-0.022-0.003
		c-0.04-0.002-0.121-0.017-0.244-0.019c-0.001,0-0.003,0-0.008,0c-0.01-0.001-0.028-0.001-0.059,0.002
		c-0.343,0.014-0.697,0.131-0.947,0.4c-0.287,0.309-0.392,0.73-0.399,1.215v3.807c0,0.611,0.185,1.181,0.493,1.655l-0.014-0.02
		l0.022,0.041l0.03,0.037c0.076,0.093,3.894,4.745,4.127,5.056C13.454,29.941,14.13,30.674,14.767,31.473z"/>
	<path d="M17.817,36.313c-1.153-0.004-2.13-0.744-2.49-1.779l0,0H15.18v-0.719v-0.427c-0.006-0.014-0.013-0.03-0.022-0.048l0,0
		c-0.042-0.091-0.116-0.229-0.21-0.381l0,0c-0.186-0.309-0.454-0.692-0.734-1.024l0,0l0.553-0.463l-0.564,0.449
		c-0.622-0.783-1.273-1.482-1.575-1.881l0,0c-0.193-0.26-4.039-4.95-4.106-5.03l0,0l-0.076-0.093l-0.033-0.061l-0.017-0.031
		c-0.356-0.57-0.569-1.253-0.569-1.983l0,0v-3.817c0.007-0.573,0.133-1.2,0.591-1.696l0,0c0.402-0.428,0.925-0.596,1.391-0.625l0,0
		c0.063-0.008,0.114-0.008,0.125-0.007l0,0c0.025-0.001,0.047,0,0.065,0.002l0,0c0.117,0.003,0.211,0.015,0.249,0.019l0,0l0,0
		l0.015,0.001l0.031,0.004l0.012,0.001l0.044,0.006l0.015,0.003c0.968,0.182,1.64,0.817,2.134,1.428l0,0
		c0.478,0.613,0.836,1.293,0.975,1.998l0,0c0.02,0.113,0.044,0.264,0.046,0.447l0,0l-0.001,1.484l0.011,0.012h0.079v-6.562v-0.008
		c0.003-0.923-0.182-2.633-0.384-3.529l0,0l-0.576-2.622c-0.035-0.161-0.053-0.322-0.054-0.48l0,0c0-0.008,0-0.017,0-0.025l0,0
		V8.873c0-1.09,0.754-2.062,1.858-2.307l0,0l0.814-0.177c0.196-0.049,0.377-0.064,0.536-0.064l0,0c1.093,0,2.062,0.758,2.306,1.858
		l0,0l0.652,2.965c0.066,0.305,0.128,0.648,0.183,1.01l0,0c0.367-0.235,0.803-0.371,1.271-0.373l0,0h0.87
		c0.933,0.006,1.74,0.548,2.121,1.339l0,0c0.364-0.228,0.794-0.36,1.256-0.36l0,0h0.863c1.183,0,2.159,0.869,2.333,2.005l0,0
		c0.315-0.156,0.669-0.244,1.044-0.246l0,0h0.15v-0.002l0.72,0.002h0.716v0.113c0.95,0.306,1.637,1.196,1.642,2.251l0,0
		c0,0.005,0,5.541,0,7.826l0,0c0,0.251-0.016,0.459-0.026,0.658l0,0c-0.151,2.086-0.911,3.894-1.202,4.549l0,0
		c0,0-0.011,0.026-0.037,0.083l0,0c-0.034,0.069-0.05,0.106-0.05,0.104l0,0l-0.042,0.09l-0.043,0.058
		c-0.116,0.184-0.26,0.478-0.387,0.808l0,0c-0.27,0.677-0.456,1.556-0.452,2.035l0,0c0,0.001,0,0.003,0,0.005l0,0h-0.447
		l0.447,0.014v0.558c0,0.196-0.023,0.381-0.06,0.549l0,0c-0.253,1.195-1.311,2.085-2.578,2.089l0,0H17.817L17.817,36.313z
		 M16.623,33.756c0.004,0.056,0.012,0.112,0.025,0.166l0,0c0.117,0.543,0.596,0.95,1.172,0.951l0,0h9.233
		c0.577-0.001,1.058-0.409,1.175-0.955l0,0c0.016-0.076,0.027-0.161,0.027-0.244l0,0v-0.523c0-0.004-0.001-0.019-0.001-0.049l0,0
		c0.005-0.771,0.226-1.721,0.551-2.562l0,0c0.156-0.402,0.33-0.772,0.528-1.081l0,0c0.007-0.014,0.017-0.036,0.03-0.065l0,0
		c0.012-0.023,0.024-0.056,0.041-0.089l0,0c0.249-0.551,0.943-2.239,1.067-4.017l0,0c0.01-0.212,0.023-0.392,0.022-0.576l0,0
		c0-2.284,0-7.82,0.001-7.823l0,0c-0.004-0.516-0.415-0.926-0.924-0.929l0,0h-0.862c-0.509,0.003-0.919,0.409-0.928,0.911l0,0
		h-0.003l0.004,1.124h-1.53l-0.001-2.871c-0.003-0.514-0.415-0.924-0.922-0.924l0,0h-0.863c-0.49,0-0.885,0.377-0.923,0.85l0,0
		l-0.006,0.063l-0.001,2.211h-1.531v-3.179c0-0.071-0.007-0.131-0.022-0.198l0,0c-0.093-0.412-0.459-0.723-0.898-0.725l0,0h-0.863
		c-0.513,0.003-0.927,0.415-0.928,0.92l0,0l0.004,3.177h-1.53v-2.135v-0.005v-0.007c-0.003-1.025-0.185-2.711-0.408-3.717l0,0
		l-0.652-2.963c-0.095-0.436-0.478-0.73-0.9-0.73l0,0c-0.068,0-0.131,0.007-0.208,0.026l0,0L14.765,7.97
		c-0.434,0.096-0.727,0.479-0.727,0.902l0,0v0.004c0,0.063,0.007,0.129,0.02,0.196l0,0l0.576,2.617
		c0.23,1.059,0.415,2.755,0.417,3.84l0,0v0.008v7.044c-0.014,0.546-0.418,0.943-0.958,0.957l0,0h-1.233l-0.776-0.931v-1.995
		c0-0.063-0.007-0.113-0.02-0.188l0,0c-0.072-0.389-0.324-0.912-0.687-1.37l0,0c-0.381-0.477-0.804-0.817-1.233-0.902l0,0l-0.007,0
		l-0.022-0.003v0c-0.084-0.008-0.092-0.012-0.153-0.013l0,0H9.95l-0.026,0.001c-0.207,0.008-0.368,0.077-0.451,0.171l0,0
		c-0.116,0.122-0.199,0.336-0.205,0.724l0,0v3.808c0,0.457,0.136,0.886,0.367,1.248l0,0l0.003,0.004v0
		c0.002,0.003,0.004,0.007,0.007,0.011l0,0l-0.002,0.001c0.207,0.253,3.872,4.718,4.139,5.072l0,0
		c0.194,0.262,0.888,1.02,1.537,1.831l0,0l0,0c0.502,0.603,0.923,1.254,1.143,1.722l0,0c0.071,0.175,0.141,0.268,0.159,0.58l0,0
		c0,0.022-0.001,0.044-0.003,0.064l0,0v0.332L16.623,33.756L16.623,33.756z"/>
</g>
<g id="Layer_1">
</g>
</svg>
