<?xml version="1.0" encoding="iso-8859-1"?>
<!-- Generator: Adobe Illustrator 18.1.1, SVG Export Plug-In . SVG Version: 6.00 Build 0)  -->
<svg version="1.1" xmlns="http://www.w3.org/2000/svg" xmlns:xlink="http://www.w3.org/1999/xlink" x="0px" y="0px"
	 viewBox="0 0 38.144 40.429" style="enable-background:new 0 0 38.144 40.429;" xml:space="preserve">
<g id="Layer_33.svg">
	<path d="M9.897,18.81l-3.316,3.316c-0.697-0.438-1.492-0.661-2.283-0.66c-1.097-0.001-2.202,0.423-3.038,1.259
		C0.421,23.562-0.001,24.668,0,25.764c-0.001,1.097,0.421,2.203,1.259,3.041c0.838,0.837,1.944,1.26,3.041,1.259h0.004
		c1.095,0,2.199-0.423,3.033-1.258c0.838-0.84,1.26-1.945,1.259-3.042c0.001-0.791-0.223-1.585-0.659-2.28l3.318-3.317l0.909,3.489
		l2.772-8.526L6.41,17.901L9.897,18.81z M5.98,27.45c-0.466,0.465-1.069,0.693-1.68,0.694c-0.613-0.001-1.218-0.231-1.684-0.697
		c-0.467-0.467-0.696-1.07-0.698-1.683c0.001-0.611,0.231-1.214,0.697-1.68c0.469-0.467,1.071-0.697,1.683-0.698
		c0.612,0.001,1.214,0.23,1.683,0.698h0.001c0.466,0.467,0.694,1.069,0.695,1.68C6.676,26.377,6.447,26.98,5.98,27.45z"/>
	<path d="M19.099,13.45c-0.035-0.156-0.049-0.311-0.049-0.456c-0.001-0.87,0.536-1.658,1.355-1.977l3.078-3.078
		c0.696,0.437,1.49,0.661,2.281,0.659c0.003,0,0.006,0,0.006,0c1.096,0,2.198-0.423,3.033-1.258
		c0.837-0.838,1.259-1.943,1.258-3.039c0.001-1.096-0.42-2.203-1.258-3.04C27.965,0.422,26.858-0.001,25.762,0
		c-1.097-0.001-2.202,0.424-3.038,1.26c-0.838,0.836-1.259,1.942-1.258,3.039c-0.001,0.792,0.223,1.586,0.659,2.282l-3.318,3.317
		l-0.908-3.488l-2.772,8.526l4.013-1.304L19.099,13.45z M24.082,2.618c0.467-0.468,1.07-0.697,1.68-0.698
		c0.613,0.001,1.216,0.23,1.684,0.696c0.467,0.469,0.695,1.071,0.696,1.684c-0.001,0.611-0.23,1.214-0.697,1.683
		c-0.466,0.465-1.068,0.693-1.681,0.694c-0.612-0.001-1.216-0.23-1.683-0.695c-0.466-0.469-0.696-1.071-0.697-1.683
		C23.386,3.686,23.614,3.084,24.082,2.618z"/>
	<path id="inner" fill="#FFFFFF" d="M35.785,19.36l-0.001,0.479V19.36h-0.866c-0.9,0.004-1.628,0.721-1.646,1.616v-0.023l-0.003,0.026
		l0.002,0.417h-0.089l-0.001-2.155c-0.004-0.908-0.736-1.64-1.643-1.64h-0.862c-0.877,0-1.587,0.681-1.642,1.537l-0.006,0.016
		l-0.001,1.571h-0.092v-1.879v-0.581c0-0.127-0.016-0.245-0.039-0.352c-0.163-0.737-0.815-1.285-1.601-1.289H26.43
		c-0.907,0.003-1.642,0.734-1.646,1.64l0.001,0.882l0.001,1.575h-0.09v-0.945v-0.471v-0.006v-0.008
		c-0.004-1.099-0.189-2.79-0.425-3.87l-0.651-2.964c-0.17-0.767-0.847-1.294-1.605-1.294c-0.113,0-0.235,0.011-0.362,0.042
		l-0.738,0.162l-0.093,0.021c-0.773,0.17-1.296,0.85-1.296,1.608c0,0.114,0.012,0.232,0.038,0.354l0.576,2.616
		c0.215,0.979,0.402,2.681,0.4,3.685v0.008l0.001,7.045c0,0.128-0.112,0.238-0.24,0.238h-0.402h-0.495l-0.314-0.378l-0.018-0.021
		l-0.015-0.019l-0.045-0.053v-1.745c-0.003-0.119-0.016-0.219-0.035-0.316c-0.105-0.544-0.409-1.145-0.831-1.685
		c-0.441-0.546-0.995-1.036-1.699-1.164l-0.012-0.001l-0.022-0.003c-0.04-0.002-0.121-0.017-0.244-0.019c0,0-0.003,0-0.008,0
		c-0.01-0.001-0.03-0.001-0.062,0.002c-0.341,0.015-0.693,0.132-0.942,0.4c-0.288,0.309-0.393,0.728-0.4,1.215v0.346v3.461
		c0,0.611,0.185,1.181,0.493,1.655l-0.014-0.02l0.023,0.041l0.03,0.037c0.076,0.093,3.894,4.745,4.125,5.056
		c0.248,0.331,0.926,1.063,1.561,1.862c0.638,0.762,1.179,1.698,1.132,1.863v0.479h0.005c0.007,0.09,0.02,0.177,0.038,0.259
		c0.186,0.868,0.954,1.518,1.876,1.52h9.236c0.921-0.003,1.691-0.652,1.876-1.52c0.027-0.124,0.044-0.259,0.044-0.399v-0.558
		c-0.003-0.624,0.202-1.548,0.502-2.316c0.143-0.37,0.305-0.708,0.464-0.954l0.015-0.022l0.012-0.024
		c0.001-0.003,0.019-0.038,0.049-0.102c0.016-0.034,0.03-0.066,0.045-0.098c0.263-0.589,0.99-2.337,1.128-4.279
		c0.008-0.195,0.023-0.389,0.023-0.607c0-2.284,0-7.819,0-7.826C37.421,20.096,36.69,19.364,35.785,19.36z"/>
	<path d="M24.028,40.429c-1.155-0.004-2.134-0.746-2.49-1.779l0,0h-0.145v-0.719v-0.425c-0.006-0.014-0.013-0.031-0.022-0.05l0,0
		c-0.042-0.091-0.116-0.229-0.21-0.381l0,0c-0.188-0.309-0.455-0.692-0.745-1.039l0,0c-0.621-0.782-1.273-1.48-1.576-1.881l0,0
		c-0.19-0.257-4.037-4.948-4.104-5.028l0,0l-0.069-0.086l-0.03-0.052l-0.022-0.038c-0.358-0.573-0.574-1.259-0.574-1.993l0,0v-3.462
		v-0.355c0.007-0.574,0.135-1.203,0.593-1.696l0,0c0.402-0.427,0.924-0.596,1.389-0.625l0,0c0.063-0.007,0.114-0.007,0.125-0.007
		l0,0c0.023-0.001,0.045,0,0.062,0.002l0,0c0.118,0.003,0.215,0.015,0.253,0.019l0,0l0,0l0.016,0.001l0.03,0.004l0.012,0.001
		l0.045,0.006l0.014,0.003c0.968,0.182,1.64,0.817,2.137,1.429l0,0c0.477,0.613,0.833,1.29,0.971,1.988l0,0
		c0.026,0.127,0.046,0.276,0.049,0.456l0,0v1.483l0.011,0.013h0.079l-0.001-6.542c0-0.01-0.001-0.018-0.001-0.025l0,0
		c0-0.016,0-0.016,0-0.016l0,0c0.003-0.923-0.182-2.623-0.382-3.517l0,0l-0.577-2.622c-0.035-0.169-0.053-0.337-0.053-0.504l0,0
		c-0.001-1.089,0.753-2.065,1.858-2.31l0,0l0.095-0.021l0.719-0.158c0.194-0.047,0.377-0.062,0.535-0.062l0,0
		c1.093,0,2.064,0.758,2.307,1.859l0,0l0.652,2.965c0.066,0.305,0.127,0.648,0.182,1.009l0,0c0.367-0.235,0.804-0.372,1.272-0.373
		l0,0h0.87c0.934,0.006,1.739,0.548,2.12,1.34l0,0c0.363-0.228,0.793-0.36,1.255-0.361l0,0h0.862c1.184,0,2.161,0.869,2.335,2.005
		l0,0c0.315-0.156,0.67-0.243,1.045-0.245l0,0h0.15v-0.002l0.72,0.002h0.716v0.113c0.95,0.306,1.636,1.196,1.64,2.251l0,0
		c0,0.005,0,5.541,0,7.826l0,0c0,0.251-0.016,0.459-0.025,0.658l0,0c-0.152,2.086-0.912,3.894-1.194,4.531l0,0
		c-0.01,0.021-0.025,0.056-0.045,0.099l0,0c-0.033,0.07-0.055,0.112-0.057,0.119l0,0l-0.035,0.071l-0.03,0.044l-0.001,0.001
		c-0.12,0.182-0.268,0.486-0.399,0.827l0,0c-0.267,0.668-0.453,1.534-0.454,2.017l0,0h0c0,0,0,0,0,0.023l0,0h-0.447l0.447,0.014
		v0.558c0,0.196-0.022,0.381-0.059,0.549l0,0c-0.255,1.195-1.311,2.085-2.58,2.089l0,0H24.028L24.028,40.429z M22.834,37.874
		c0.004,0.057,0.012,0.112,0.025,0.165l0,0c0.117,0.543,0.598,0.95,1.172,0.951l0,0h9.233c0.577-0.001,1.059-0.409,1.175-0.955l0,0
		c0.018-0.076,0.027-0.161,0.027-0.244l0,0l0.001-0.523c0-0.004-0.001-0.019-0.001-0.049l0,0c0.005-0.771,0.225-1.721,0.551-2.562
		l0,0c0.152-0.392,0.32-0.752,0.524-1.075l0,0c0.007-0.014,0.019-0.039,0.038-0.081l0,0c0.01-0.017,0.02-0.045,0.037-0.079l0,0
		c0.248-0.551,0.942-2.239,1.066-4.017l0,0c0.01-0.212,0.023-0.392,0.023-0.576l0,0c0-2.284,0-7.82,0-7.823l0,0
		c-0.003-0.516-0.414-0.926-0.923-0.929l0,0l0.001-0.239l-0.001,0.239h-0.862c-0.51,0.003-0.919,0.407-0.928,0.911l0,0h-0.003
		l0.005,1.124h-1.531l-0.003-2.871c-0.003-0.514-0.414-0.923-0.923-0.924l0,0l-0.862,0.001c-0.494-0.001-0.892,0.384-0.923,0.863
		l0,0l-0.006,0.075l-0.001,2.184h-1.53v-2.599v-0.581c0-0.066-0.008-0.134-0.023-0.198l0,0c-0.093-0.414-0.456-0.723-0.897-0.725
		l0,0h-0.864c-0.512,0.003-0.926,0.415-0.928,0.92l0,0l0.001,0.882l0.003,2.295h-1.53v-1.664v-0.471v-0.005v-0.007
		c-0.001-1.024-0.186-2.711-0.407-3.717l0,0l-0.651-2.962c-0.096-0.437-0.479-0.731-0.902-0.731l0,0
		c-0.067,0-0.131,0.007-0.208,0.026l0,0l-0.735,0.161l-0.094,0.022c-0.438,0.096-0.73,0.479-0.731,0.904l0,0
		c0,0.064,0.007,0.131,0.022,0.199l0,0l0.576,2.616c0.225,1.038,0.408,2.688,0.416,3.776l0,0l0,0.002v0.045v0.006v0.012v0.007
		l0.001,7.046c-0.018,0.55-0.418,0.94-0.96,0.957l0,0h-0.402H19.07l-0.521-0.627l-0.04-0.048l0.003,0.004l-0.215-0.255v-1.994
		c-0.003-0.072-0.01-0.124-0.023-0.194l0,0c-0.071-0.388-0.324-0.911-0.685-1.368l0,0c-0.383-0.478-0.807-0.818-1.236-0.903l0,0
		l-0.007,0l-0.022-0.003v0c-0.083-0.008-0.091-0.012-0.151-0.013l0,0h-0.016l-0.024,0.001c-0.204,0.009-0.364,0.077-0.448,0.171l0,0
		c-0.117,0.124-0.199,0.335-0.207,0.724l0,0l0.001,0.346l-0.001,3.462c0,0.458,0.138,0.887,0.368,1.249l0,0l0.002,0.003v0
		c0.002,0.003,0.005,0.007,0.007,0.011l0,0l0,0c0.197,0.241,3.872,4.717,4.137,5.073l0,0c0.195,0.264,0.898,1.029,1.538,1.831l0,0
		c0.501,0.603,0.921,1.254,1.143,1.722l0,0c0.069,0.175,0.141,0.268,0.158,0.58l0,0c0,0.02,0,0.04-0.001,0.059l0,0v0.353
		L22.834,37.874L22.834,37.874z"/>
</g>
<g id="Layer_1">
</g>
</svg>
