<?xml version="1.0" encoding="iso-8859-1"?>
<!-- Generator: Adobe Illustrator 18.1.1, SVG Export Plug-In . SVG Version: 6.00 Build 0)  -->
<svg version="1.1" xmlns="http://www.w3.org/2000/svg" xmlns:xlink="http://www.w3.org/1999/xlink" x="0px" y="0px"
	 viewBox="0 0 33.251 35.733" style="enable-background:new 0 0 33.251 35.733;" xml:space="preserve">
<g id="Layer_24.svg">
	<polygon points="10.034,10.943 8.676,9.585 4.083,14.18 2.741,9.806 0,19.62 9.813,16.88 5.44,15.537 	"/>
	<path d="M10.944,10.033l4.593-4.594l0.025,0.08c0.384-0.543,1.013-0.901,1.731-0.901h0.865c0.058,0,0.112,0.013,0.169,0.017
		L19.621,0L9.807,2.74l4.373,1.343L9.587,8.675L10.944,10.033z"/>
	<path id="inner" fill="#FFFFFF" d="M12.544,26.548c0.67,0.803,1.569,1.93,1.979,2.483c0.249,0.331,0.926,1.063,1.563,1.862
		c0.638,0.762,1.179,1.698,1.132,1.863v0.339c0,0.14,0.016,0.275,0.042,0.399c0.188,0.868,0.954,1.519,1.877,1.52h9.235
		c0.921-0.003,1.69-0.652,1.876-1.52c0.029-0.125,0.044-0.261,0.044-0.399v-0.558c-0.003-0.622,0.204-1.548,0.503-2.316
		c0.143-0.37,0.305-0.708,0.465-0.953l0.015-0.024l0.012-0.024c0.011-0.03,1.051-2.111,1.221-4.478
		c0.008-0.195,0.023-0.389,0.023-0.607c0-2.284,0-7.819,0-7.826c-0.004-0.908-0.735-1.64-1.642-1.644l-0.001,0.479v-0.479h-0.864
		c-0.909,0.004-1.644,0.735-1.648,1.641l0.001,0.394h-0.088l-0.001-2.155c-0.003-0.908-0.738-1.641-1.643-1.64h-0.863
		c-0.884,0-1.601,0.696-1.642,1.564l-0.005,0.018l-0.003,1.542h-0.09v-2.461c-0.004-0.906-0.735-1.639-1.64-1.641h-0.867
		c-0.906,0.003-1.64,0.734-1.644,1.64l0.003,2.457h-0.091l-0.004-9.28c-0.003-0.907-0.734-1.643-1.64-1.643h-0.866
		c-0.911,0-1.642,0.736-1.646,1.641l0.003,15.263c0,0.128-0.11,0.238-0.24,0.238h-0.4c-0.205,0.021-0.696-0.209-0.812-0.38
		l-0.029-0.034l-2.185-2.624c-0.432-0.484-1.156-0.804-1.952-0.983c-0.278-0.057-0.562-0.091-0.844-0.091
		c-0.519,0.001-1.054,0.109-1.469,0.48c-0.271,0.239-0.491,0.587-0.489,0.994c0.003,0.401,0.189,0.76,0.476,1.118
		C8.426,21.608,12.543,26.546,12.544,26.548z"/>
	<path d="M19.137,35.733c-1.27-0.002-2.324-0.895-2.581-2.091l0,0c-0.035-0.169-0.057-0.353-0.057-0.547l0,0v-0.287
		c-0.006-0.014-0.013-0.03-0.022-0.048l0,0c-0.042-0.091-0.116-0.229-0.21-0.381l0,0c-0.186-0.309-0.454-0.692-0.745-1.037l0,0
		c-0.622-0.782-1.273-1.482-1.578-1.883l0,0c-0.391-0.528-1.287-1.652-1.947-2.442l0,0l-0.001-0.001l-0.001-0.001
		c-0.002-0.002-0.003-0.004-0.005-0.006l0,0l-0.003-0.004c-0.003-0.001-0.005-0.006-0.01-0.011l0,0
		c-0.007-0.008-0.019-0.023-0.034-0.041l0,0c-0.031-0.037-0.075-0.09-0.132-0.159l0,0c-0.114-0.136-0.279-0.334-0.478-0.572l0,0
		c-0.398-0.478-0.934-1.123-1.495-1.795l0,0c-1.12-1.348-2.325-2.8-2.694-3.255l0,0c-0.328-0.407-0.619-0.912-0.634-1.53l0,0
		c-0.002-0.029-0.001-0.052,0-0.057l0,0l0,0c0.008-0.673,0.36-1.186,0.728-1.511l0,0c0.603-0.536,1.338-0.663,1.949-0.663l0,0
		c0.339,0,0.67,0.039,1.001,0.108l0,0c0.881,0.203,1.73,0.544,2.348,1.225l0,0l2.183,2.623l0.027,0.033
		c0.016,0.011,0.046,0.03,0.079,0.047l0,0c0.031,0.017,0.068,0.034,0.102,0.047l0,0L14.928,6.737
		c0.005-1.299,1.056-2.358,2.366-2.358l0,0h0.866c1.306,0,2.355,1.06,2.359,2.361l0,0l0.002,4.694
		c0.307-0.147,0.651-0.23,1.015-0.231l0,0h0.87c0.935,0.003,1.741,0.548,2.123,1.339l0,0c0.363-0.228,0.793-0.359,1.254-0.36l0,0
		h0.812c0.031-0.002,0.056-0.002,0.075-0.001l0,0c1.172,0.013,2.138,0.878,2.31,2.006l0,0c0.315-0.156,0.669-0.243,1.044-0.245l0,0
		h0.148v-0.002l0.72,0.002h0.716v0.113c0.951,0.306,1.638,1.196,1.643,2.251l0,0c0,0.005,0,5.541,0,7.826l0,0
		c0,0.251-0.016,0.459-0.026,0.659l0,0c-0.174,2.41-1.177,4.492-1.274,4.705l0,0c-0.001,0.003-0.002,0.005-0.003,0.007l0,0
		l-0.001,0.003l-0.003,0.005l-0.016,0.033l-0.024,0.049l-0.016,0.026l-0.026,0.042c-0.117,0.178-0.267,0.482-0.396,0.819l0,0
		c-0.271,0.68-0.46,1.568-0.455,2.042l0,0h-0.483l0.483,0.014v0.558c0,0.189-0.02,0.376-0.06,0.549l0,0
		c-0.254,1.195-1.311,2.085-2.578,2.089l0,0H19.137L19.137,35.733z M17.937,33.095c0,0.084,0.011,0.171,0.026,0.246l0,0
		c0.12,0.544,0.599,0.953,1.173,0.953l0,0h9.233c0.577-0.001,1.058-0.409,1.176-0.961l0,0c0.015-0.068,0.026-0.154,0.026-0.238l0,0
		v-0.519c0-0.004-0.001-0.024-0.001-0.053l0,0c0.006-0.771,0.229-1.721,0.553-2.562l0,0c0.156-0.404,0.331-0.775,0.522-1.068l0,0
		c0,0,0-0.001,0.001-0.002l0,0l0,0c0,0,0.001-0.001,0.001-0.002l0,0l-0.001,0.001c0.001-0.002,0.002-0.005,0.004-0.009l0,0
		c0.008-0.018,0.019-0.039,0.033-0.069l0,0c0.027-0.06,0.067-0.147,0.114-0.259l0,0c0.096-0.222,0.226-0.543,0.361-0.932l0,0
		c0.27-0.78,0.555-1.839,0.632-2.912l0,0c0.009-0.212,0.023-0.392,0.022-0.576l0,0c0-2.284,0-7.82,0.001-7.823l0,0
		c-0.004-0.516-0.414-0.926-0.926-0.929l0,0h-0.86c-0.516,0.003-0.928,0.415-0.931,0.919l0,0l0.004,1.117h-1.53l-0.001-2.873
		c-0.001-0.501-0.399-0.907-0.891-0.922l0,0l-0.895,0.001c-0.498-0.001-0.901,0.392-0.924,0.877l0,0l-0.003,0.074l-0.001,0.006
		l-0.003,2.165h-1.529v-3.177c-0.003-0.513-0.414-0.923-0.92-0.925l0,0h-0.864c-0.513,0.003-0.924,0.414-0.927,0.92l0,0l0.003,3.177
		h-1.53l-0.004-9.997c-0.003-0.513-0.414-0.925-0.92-0.925l0,0h-0.866c-0.513,0-0.923,0.412-0.927,0.922l0,0l0.003,15.264
		c-0.014,0.546-0.418,0.943-0.958,0.957l0,0h-0.378c-0.012,0.001-0.03,0.001-0.051,0.001l0,0c-0.329-0.011-0.52-0.101-0.746-0.201
		l0,0c-0.205-0.112-0.38-0.184-0.589-0.438l0,0l-0.001,0.001l-0.029-0.035l-2.17-2.607c-0.261-0.306-0.86-0.604-1.559-0.755l0,0
		c-0.238-0.049-0.475-0.076-0.698-0.076l0,0c-0.429,0.001-0.762,0.091-0.994,0.299l0,0c-0.157,0.14-0.242,0.302-0.245,0.431l0,0
		v0.004h0l0,0l0,0h0c0,0.005,0,0.009,0,0.012l0,0c0,0.001,0,0.003,0,0.004l0,0c0,0.169,0.078,0.372,0.316,0.67l0,0
		c0.663,0.818,4.329,5.218,4.783,5.761l0,0l0.003,0.008l-0.509,0.509l0.509-0.509l0.022,0.022l0.022,0.027
		c0.679,0.816,1.578,1.939,2.001,2.51l0,0c0.197,0.265,0.898,1.029,1.54,1.832l0,0c0.502,0.603,0.923,1.254,1.143,1.722l0,0
		c0.071,0.175,0.141,0.268,0.159,0.58l0,0c0,0.022-0.001,0.044-0.003,0.064l0,0V33.095L17.937,33.095z"/>
</g>
<g id="Layer_1">
</g>
</svg>
