<?xml version="1.0" encoding="iso-8859-1"?>
<!-- Generator: Adobe Illustrator 18.1.1, SVG Export Plug-In . SVG Version: 6.00 Build 0)  -->
<svg version="1.1" xmlns="http://www.w3.org/2000/svg" xmlns:xlink="http://www.w3.org/1999/xlink" x="0px" y="0px"
	 viewBox="0 0 34.974 37.789" style="enable-background:new 0 0 34.974 37.789;" xml:space="preserve">
<g id="Layer_28.svg">
	<path d="M9.567,23.403c-0.723-0.473-1.543-0.703-2.35-0.702c-0.44-0.001-0.877,0.075-1.296,0.207
		c-0.825-1.72-1.258-3.609-1.258-5.518c0-1.341,0.213-2.69,0.649-3.999l2.23,2.904L6.773,7.362L0,13.236l3.511-0.514
		c-0.517,1.527-0.768,3.104-0.767,4.668c0,2.252,0.521,4.476,1.517,6.493c-0.238,0.227-0.457,0.479-0.643,0.766
		c-0.474,0.722-0.702,1.542-0.701,2.349c-0.002,1.397,0.686,2.775,1.944,3.599l0.001,0.001c0.723,0.472,1.544,0.701,2.349,0.701
		h0.004c1.398,0,2.774-0.689,3.597-1.946c0.473-0.723,0.702-1.544,0.7-2.349C11.514,25.603,10.826,24.225,9.567,23.403z
		 M9.206,28.303c-0.458,0.698-1.216,1.075-1.995,1.076c-0.447,0-0.894-0.124-1.299-0.388v0.001
		c-0.699-0.459-1.076-1.216-1.078-1.994c0.001-0.448,0.125-0.896,0.389-1.301c0.457-0.699,1.214-1.076,1.993-1.077
		c0.448,0,0.894,0.124,1.3,0.389c0.699,0.455,1.076,1.214,1.077,1.994C9.593,27.451,9.47,27.899,9.206,28.303z"/>
	<path d="M21.419,0l0.521,3.503c-1.492-0.492-3.028-0.733-4.553-0.733c-2.182,0-4.338,0.491-6.306,1.426
		c-0.244-0.271-0.526-0.516-0.845-0.724C9.514,3,8.693,2.769,7.886,2.77c-1.4-0.002-2.778,0.686-3.6,1.948
		c-0.472,0.721-0.702,1.541-0.7,2.348C3.584,7.593,3.682,8.116,3.87,8.608l1.641-1.422c-0.002-0.04-0.008-0.08-0.008-0.12
		c0.001-0.448,0.124-0.894,0.389-1.299C6.351,5.066,7.107,4.69,7.886,4.689c0.447,0,0.894,0.125,1.299,0.389
		c0.699,0.456,1.076,1.214,1.078,1.995c-0.001,0.447-0.124,0.895-0.388,1.299c-0.45,0.689-1.194,1.063-1.96,1.075l0.164,1.908
		c1.329-0.06,2.617-0.734,3.402-1.932c0.474-0.723,0.702-1.544,0.701-2.349c0-0.404-0.063-0.805-0.175-1.193
		c1.682-0.782,3.522-1.191,5.38-1.191c1.306,0,2.619,0.203,3.896,0.618l-2.904,2.241l2.195-0.194l0.539-1.483
		c0.316-0.858,1.125-1.398,1.996-1.396c0.243-0.001,0.491,0.042,0.726,0.128l0.81,0.295c0.857,0.31,1.388,1.113,1.395,1.972
		l1.27-0.112L21.419,0z"/>
	<path id="inner" fill="#FFFFFF" d="M33.176,18.693l-0.814-0.297c-0.184-0.066-0.374-0.099-0.562-0.098
		c-0.671-0.001-1.301,0.411-1.548,1.078l-0.133,0.37l-0.083-0.03l0.734-2.025c0.067-0.186,0.098-0.377,0.098-0.562
		c0.001-0.672-0.414-1.301-1.081-1.543l-0.809-0.294c-0.185-0.068-0.375-0.101-0.564-0.101c-0.641-0.001-1.24,0.377-1.505,0.987
		l-0.011,0.014l-0.538,1.471l-0.084-0.03l0.842-2.313c0.066-0.185,0.098-0.374,0.097-0.559c0.001-0.671-0.411-1.302-1.079-1.544
		l-0.813-0.295c-0.182-0.068-0.373-0.101-0.56-0.1c-0.671-0.001-1.3,0.411-1.545,1.078l-0.839,2.308l-0.083-0.03l3.168-8.722
		c0.067-0.186,0.099-0.377,0.099-0.565c0-0.67-0.413-1.3-1.079-1.543l-0.813-0.295c-0.184-0.067-0.374-0.099-0.562-0.099
		c-0.674-0.001-1.3,0.415-1.546,1.082l-5.218,14.341c-0.032,0.094-0.128,0.157-0.226,0.157c-0.026-0.001-0.055-0.005-0.083-0.015
		l-0.374-0.137c-0.199-0.052-0.581-0.436-0.632-0.635l-0.016-0.044l-1.155-3.21c-0.239-0.604-0.81-1.152-1.497-1.591
		c-0.504-0.308-1.068-0.543-1.656-0.548c-0.215,0-0.439,0.033-0.654,0.124c-0.475,0.163-0.898,0.648-0.873,1.227
		c0,0.24,0.052,0.486,0.145,0.752c0.37,1.078,2.549,7.126,2.55,7.128c0.355,0.984,0.813,2.35,1.012,3.009
		c0.209,0.653,1.297,3.231,1.281,4.219c0,0.107-0.015,0.18-0.025,0.205l-0.115,0.316c-0.048,0.133-0.079,0.263-0.096,0.389
		c-0.012,0.089-0.019,0.176-0.018,0.264c-0.001,0.784,0.482,1.522,1.261,1.808l8.679,3.159c0.214,0.077,0.435,0.113,0.651,0.113
		c0.656,0,1.274-0.337,1.63-0.9c0.07-0.111,0.13-0.23,0.177-0.359l0.192-0.529c0.211-0.584,0.72-1.383,1.265-2.004
		c0.261-0.298,0.529-0.559,0.763-0.737l0.022-0.016l0.019-0.018c0.021-0.025,1.71-1.626,2.679-3.791
		c0.075-0.179,0.156-0.359,0.231-0.565c0.781-2.143,2.676-7.353,2.676-7.353c0.066-0.186,0.098-0.374,0.098-0.56
		C34.256,19.568,33.843,18.938,33.176,18.693z"/>
	<path d="M23.605,37.633l-8.682-3.159c-1.06-0.392-1.723-1.39-1.732-2.457l0,0c-0.001-0.032,0-0.049,0-0.049l0,0
		c0-0.124,0.011-0.239,0.025-0.343l0,0c0.025-0.17,0.066-0.35,0.132-0.533l0,0l0.097-0.266c0,0,0-0.001,0-0.002l0,0
		c0-0.023,0-0.031,0-0.031l0,0c0.012-0.282-0.232-1.188-0.523-1.995l0,0c-0.289-0.831-0.6-1.601-0.727-1.994l0,0
		c-0.19-0.632-0.646-1.991-0.994-2.959l0,0c0-0.001,0-0.001,0-0.002l0,0c-0.001-0.001-0.001-0.003-0.002-0.005l0,0l-0.001-0.003
		l0-0.001c0-0.001-0.001-0.002-0.001-0.003l0,0l0,0l0-0.001c-0.001-0.004-0.004-0.008-0.005-0.015l0,0
		c-0.004-0.011-0.011-0.029-0.019-0.051l0,0c-0.016-0.045-0.04-0.11-0.07-0.194l0,0c-0.059-0.169-0.146-0.409-0.251-0.701l0,0
		c-0.211-0.584-0.495-1.373-0.791-2.197l0,0c-0.592-1.649-1.227-3.427-1.416-3.975l0,0c-0.104-0.302-0.177-0.615-0.183-0.943l0,0
		c-0.003-0.047-0.002-0.081-0.002-0.095l0,0c0.016-0.917,0.619-1.585,1.332-1.847l0,0c0.317-0.131,0.633-0.175,0.921-0.173l0,0
		c0.78,0.008,1.459,0.309,2.039,0.66l0,0c0.758,0.492,1.441,1.104,1.786,1.954l0,0l1.152,3.203l0.018,0.05
		c0.012,0.016,0.037,0.048,0.066,0.08l0,0c0.022,0.025,0.047,0.05,0.07,0.071l0,0l5.045-13.866c0.35-0.952,1.249-1.556,2.218-1.554
		l0,0c0.012,0,0.024,0.001,0.036,0.002l0,0c0.259,0.002,0.523,0.049,0.776,0.142l0,0l0.813,0.295
		c0.958,0.35,1.554,1.255,1.553,2.219l0,0c0,0.269-0.047,0.544-0.142,0.81l0,0l-1.602,4.409c0.059-0.006,0.118-0.009,0.178-0.01l0,0
		c0.02-0.001,0.032-0.001,0.04,0l0,0c0.007,0,0.011,0,0.014,0l0,0c0.271,0,0.544,0.048,0.798,0.144l0,0l0.813,0.295
		c0.881,0.32,1.454,1.109,1.542,1.982l0,0c0.159-0.034,0.323-0.052,0.488-0.052l0,0c0.008,0,0.016,0.001,0.023,0.001l0,0
		c0.266,0.001,0.535,0.049,0.791,0.144l0,0l0.807,0.292c0.958,0.348,1.557,1.251,1.556,2.217l0,0v0.004
		c0,0.151-0.014,0.306-0.045,0.462l0,0c0.065-0.007,0.13-0.011,0.196-0.013l0,0c0.029-0.003,0.05-0.002,0.064-0.001l0,0
		c0.003,0,0.006,0,0.008,0l0,0c0.012,0,0.012,0,0.012,0l0,0l0,0c0.268,0.002,0.533,0.051,0.784,0.142l0,0l0.814,0.297l-0.246,0.676
		l0.247-0.676c0.957,0.35,1.55,1.255,1.55,2.218l0,0v0.004c0,0.266-0.047,0.538-0.141,0.806l0,0c0,0-1.895,5.209-2.676,7.352l0,0
		c-0.087,0.238-0.174,0.429-0.25,0.613l0,0c-0.979,2.186-2.615,3.791-2.803,3.981l0,0l-0.01,0.012l-0.037,0.035l-0.045,0.041
		l-0.03,0.022l-0.017,0.014c-0.177,0.133-0.42,0.367-0.657,0.638l0,0c-0.491,0.552-0.975,1.329-1.13,1.775l0,0l-0.192,0.53
		c-0.065,0.177-0.146,0.344-0.244,0.497l0,0c-0.489,0.771-1.336,1.234-2.237,1.234l0,0C24.207,37.789,23.903,37.739,23.605,37.633
		L23.605,37.633z M15.419,33.121l8.676,3.158c0.132,0.048,0.271,0.07,0.409,0.07l0,0c0.407,0.001,0.798-0.211,1.021-0.565l0,0
		c0.043-0.067,0.08-0.141,0.108-0.219l0,0l0.192-0.528c0.266-0.722,0.802-1.544,1.401-2.233l0,0
		c0.282-0.321,0.569-0.606,0.863-0.831l0,0c0.012-0.014,0.03-0.032,0.053-0.055l0,0c0.047-0.047,0.113-0.115,0.196-0.203l0,0
		c0.167-0.177,0.399-0.433,0.658-0.755l0,0c0.519-0.64,1.15-1.537,1.589-2.52l0,0c0.082-0.194,0.156-0.36,0.22-0.536l0,0
		c0.781-2.142,2.673-7.345,2.673-7.347l0,0c0.04-0.112,0.056-0.214,0.056-0.319l0,0v-0.004c0-0.375-0.232-0.731-0.604-0.867l0,0
		l0,0.001l-0.813-0.297c-0.06-0.022-0.12-0.037-0.178-0.046l0,0l-0.119,0.055l-0.14-0.056c-0.331,0.042-0.628,0.261-0.75,0.593l0,0
		l-0.378,1.055l-1.436-0.53l0.979-2.697c0.038-0.104,0.054-0.209,0.055-0.316l0,0l-0.001-0.004c0-0.375-0.232-0.729-0.606-0.863l0,0
		l-0.812-0.296c-0.105-0.037-0.21-0.055-0.316-0.056l0,0h-0.004c-0.356,0-0.693,0.211-0.841,0.553l0,0l-0.03,0.069l-0.749,2.051
		l-1.438-0.521l1.088-2.986c0.037-0.105,0.055-0.208,0.055-0.306l0,0l-0.001-0.005c0.001-0.007,0.001-0.017,0.001-0.028l0,0
		c-0.009-0.369-0.238-0.714-0.605-0.846l0,0l-0.819-0.297c-0.076-0.029-0.154-0.046-0.23-0.052l0,0l-0.162,0.04l-0.063-0.031
		c-0.32,0.051-0.604,0.266-0.723,0.593l0,0l-1.085,2.985l-1.437-0.522l3.415-9.398c0.039-0.106,0.056-0.212,0.056-0.319l0,0
		c-0.001-0.377-0.23-0.731-0.606-0.867l0,0l-0.814-0.297c-0.102-0.038-0.207-0.054-0.313-0.055l0,0h-0.004
		c-0.376,0.001-0.726,0.231-0.865,0.609l0,0l-5.213,14.325c-0.157,0.425-0.508,0.638-0.908,0.648l0,0h-0.015l-0.023-0.001
		c-0.066-0.004-0.163-0.013-0.291-0.058l0,0l-0.374-0.137l0-0.001c-0.323-0.117-0.452-0.265-0.634-0.43l0,0
		c-0.162-0.181-0.31-0.31-0.424-0.629l0,0h-0.001l-0.019-0.051l-1.148-3.19c-0.139-0.378-0.599-0.861-1.202-1.241l0,0
		c-0.442-0.272-0.892-0.442-1.281-0.443l0,0c-0.142,0.001-0.266,0.022-0.374,0.069l0,0l-0.03,0.011l-0.017,0.006
		c-0.195,0.06-0.399,0.306-0.39,0.487l0,0h0.001l0.001,0.032v0.028c0,0.134,0.03,0.298,0.106,0.519l0,0
		c0.341,0.994,2.28,6.378,2.522,7.047l0,0l0,0l0.025,0.07c0.36,0.998,0.817,2.361,1.02,3.034l0,0
		c0.084,0.265,0.413,1.092,0.712,1.946l0,0c0.298,0.878,0.589,1.746,0.603,2.469l0,0v0.011v0.012
		c-0.007,0.188-0.01,0.279-0.068,0.45l0,0l-0.116,0.318c-0.029,0.082-0.048,0.162-0.059,0.243l0,0
		c-0.007,0.047-0.011,0.086-0.012,0.119l0,0l0.011,0.096l-0.008,0.032C14.664,32.53,14.958,32.952,15.419,33.121L15.419,33.121z"/>
</g>
<g id="Layer_1">
</g>
</svg>
