<?xml version="1.0" encoding="iso-8859-1"?>
<!-- Generator: Adobe Illustrator 18.1.1, SVG Export Plug-In . SVG Version: 6.00 Build 0)  -->
<svg version="1.1" xmlns="http://www.w3.org/2000/svg" xmlns:xlink="http://www.w3.org/1999/xlink" x="0px" y="0px"
	 viewBox="0 0 35.213 36.209" style="enable-background:new 0 0 35.213 36.209;" xml:space="preserve">
<g id="Layer_5.svg">
	<path d="M12.426,7.444l0.198-0.072l-2.105-1.159c1.999-1.195,4.247-1.795,6.497-1.795c1.947-0.001,3.89,0.444,5.665,1.327
		l0.854-1.718c-2.045-1.017-4.281-1.528-6.519-1.529c-2.644,0-5.292,0.723-7.634,2.162L8.95,0L4.265,9.048l6.949-0.466
		C11.439,8.073,11.861,7.649,12.426,7.444z"/>
	<path d="M8.68,26.265c-0.581-0.332-1.134-0.916-1.133-1.701c0-0.358,0.11-0.665,0.246-0.923c0.216-0.374,0.489-0.645,0.793-0.846
		l-0.219-3.272l-2.263,4.108c-1.196-2.002-1.797-4.251-1.798-6.501c0-1.778,0.372-3.552,1.109-5.198l-1.751-0.784
		c-0.849,1.896-1.275,3.938-1.275,5.982c0,2.58,0.688,5.161,2.056,7.462L0,25.003l9.047,4.686l-0.223-3.338
		C8.77,26.32,8.72,26.29,8.68,26.265z"/>
	<path id="inner" fill="#FFFFFF" d="M34.382,29.76l-0.193-0.527c-0.2-0.547-0.323-1.405-0.322-2.189c0-0.057,0.001-0.109,0.003-0.155
		c0.007-0.402,0.044-0.775,0.11-1.06l0.006-0.028l0.004-0.028c0.001-0.012,0.052-0.485,0.052-1.207c0-0.89-0.077-2.157-0.437-3.418
		c-0.058-0.184-0.112-0.374-0.186-0.58c-0.78-2.144-2.673-7.346-2.676-7.353c-0.247-0.666-0.875-1.082-1.547-1.082
		c-0.184,0-0.375,0.03-0.563,0.101h0l-0.808,0.294c-0.669,0.247-1.086,0.876-1.085,1.549c-0.001,0.184,0.03,0.373,0.097,0.556
		l0.135,0.37l-0.082,0.029l-0.74-2.023c-0.246-0.665-0.872-1.081-1.543-1.081c-0.185,0-0.378,0.032-0.566,0.102l-0.806,0.294
		c-0.67,0.243-1.085,0.873-1.083,1.544c0,0.132,0.016,0.268,0.051,0.403l-0.005,0.02l0.556,1.53l-0.084,0.032l-0.842-2.313
		c-0.247-0.665-0.874-1.079-1.544-1.079c-0.185,0-0.377,0.03-0.566,0.102l-0.807,0.294c-0.668,0.245-1.082,0.874-1.082,1.546
		c0,0.184,0.03,0.373,0.098,0.558l0.842,2.308l-0.084,0.03l-3.178-8.718c-0.244-0.667-0.872-1.085-1.544-1.085
		c-0.185,0-0.378,0.031-0.566,0.102L12.59,7.895c-0.668,0.244-1.083,0.873-1.082,1.546c0,0.185,0.032,0.377,0.099,0.562l5.222,14.34
		c0.008,0.025,0.012,0.051,0.012,0.079c0.001,0.097-0.062,0.194-0.159,0.229l-0.375,0.137c-0.068,0.025-0.189,0.045-0.322,0.045
		c-0.218,0.003-0.466-0.061-0.571-0.127l-0.039-0.021l-2.951-1.718c-0.407-0.225-0.911-0.301-1.466-0.306
		c-0.229,0-0.468,0.015-0.705,0.051c-0.787,0.124-1.619,0.407-2.037,1.154c-0.112,0.213-0.192,0.446-0.192,0.701
		c0,0.548,0.378,0.984,0.903,1.289c0.976,0.587,6.533,3.82,6.536,3.821c0.904,0.526,2.134,1.278,2.707,1.655
		c0.348,0.226,1.234,0.683,2.106,1.217c0.86,0.497,1.689,1.192,1.702,1.363l0.116,0.319c0.047,0.133,0.109,0.254,0.177,0.36
		c0.356,0.567,0.974,0.901,1.63,0.901c0.218,0,0.437-0.037,0.649-0.112l8.683-3.16c0.778-0.286,1.26-1.023,1.26-1.807
		c0-0.089-0.006-0.175-0.018-0.261C34.459,30.02,34.427,29.889,34.382,29.76z M28.801,12.685L28.801,12.685L28.801,12.685
		L28.801,12.685z"/>
	<path d="M21.664,34.975c-0.093-0.148-0.179-0.316-0.246-0.501l0,0l-0.098-0.269c-0.003-0.003-0.007-0.007-0.011-0.011l0,0
		c-0.061-0.065-0.175-0.17-0.317-0.284l0,0c-0.284-0.232-0.683-0.514-1.09-0.748l0,0c-0.852-0.523-1.703-0.958-2.124-1.23l0,0
		c-0.548-0.359-1.766-1.105-2.654-1.622l0,0c-0.013-0.007-0.008-0.005-0.013-0.008l0,0L15.107,30.3l-0.003-0.001l-0.001-0.001
		l-0.004-0.001c-0.003-0.002-0.007-0.004-0.012-0.008l0,0c-0.011-0.006-0.026-0.015-0.047-0.026l0,0
		c-0.041-0.025-0.101-0.06-0.178-0.105l0,0c-0.154-0.09-0.375-0.218-0.644-0.374l0,0c-0.537-0.313-1.262-0.736-2.018-1.176l0,0
		c-1.514-0.883-3.143-1.837-3.633-2.131l0,0c-0.635-0.362-1.253-0.998-1.26-1.91l0,0c0-0.409,0.13-0.759,0.284-1.053l0,0
		c0.604-1.056,1.698-1.376,2.556-1.513l0,0c0.279-0.043,0.553-0.059,0.821-0.059l0,0c0.611,0.008,1.234,0.082,1.82,0.404l0,0
		l2.926,1.705l0.05,0.026l0,0c0.008,0.004,0.029,0.009,0.054,0.016l0,0c0.05,0.013,0.117,0.021,0.155,0.019l0,0
		c0.003,0,0.005,0,0.007,0l0,0l-5.048-13.863c-0.097-0.266-0.143-0.537-0.143-0.802l0,0v0l0,0c0-0.002,0-0.003,0-0.005l0,0l0,0
		c0-0.001,0-0.002,0-0.003l0,0V9.437c-0.001-0.968,0.599-1.869,1.556-2.219l0,0l0.799-0.29c0.275-0.104,0.554-0.149,0.82-0.149l0,0
		c0.97,0,1.87,0.603,2.221,1.558l0,0l1.607,4.408c0.239-0.242,0.534-0.437,0.874-0.562l0,0l0.799-0.291
		c0.276-0.104,0.556-0.149,0.821-0.149l0,0c0.619,0,1.21,0.245,1.648,0.672l0,0c0.264-0.338,0.623-0.608,1.056-0.765l0,0
		l0.801-0.293c0.273-0.102,0.551-0.148,0.819-0.149l0,0c0.853,0,1.652,0.467,2.072,1.231l0,0c0.243-0.254,0.547-0.458,0.898-0.588
		l0,0l0.808-0.294l0,0c0.273-0.102,0.548-0.146,0.81-0.146l0,0c0.968,0,1.867,0.601,2.215,1.535l0,0
		c0.021,0.054,1.899,5.217,2.684,7.374l0,0c0.084,0.236,0.142,0.44,0.201,0.628l0,0c0.387,1.358,0.464,2.683,0.465,3.616l0,0
		c0,0.751-0.055,1.263-0.061,1.315l0,0l-0.011,0.063l-0.01,0.047c-0.05,0.208-0.087,0.545-0.093,0.917l0,0
		c-0.001,0.045-0.003,0.089-0.003,0.134l0,0v0.055c0.002,0.692,0.126,1.482,0.279,1.886l0,0l0.193,0.527l-0.676,0.249l0.678-0.242
		c0.062,0.175,0.106,0.356,0.128,0.527l0,0c0.018,0.124,0.026,0.246,0.026,0.366l0,0c0,1.077-0.663,2.087-1.735,2.481l0,0
		l-8.687,3.162c-0.29,0.102-0.591,0.153-0.89,0.153l0,0C23.001,36.209,22.151,35.749,21.664,34.975L21.664,34.975z M22.774,33.988
		c0.026,0.075,0.063,0.149,0.108,0.218l0,0c0.224,0.355,0.61,0.563,1.02,0.565l0,0c0.137-0.001,0.275-0.023,0.403-0.069l0,0
		l8.682-3.159c0.486-0.178,0.787-0.641,0.788-1.131l0,0c0-0.059-0.004-0.111-0.012-0.171l0,0c-0.009-0.075-0.028-0.155-0.056-0.234
		l0,0l-0.001,0l-0.192-0.527c-0.243-0.675-0.363-1.565-0.367-2.424l0,0c0.004,0-0.002-0.001,0.001-0.05l0,0
		c0-0.053,0.002-0.099,0.003-0.13l0,0c0.008-0.44,0.046-0.852,0.124-1.191l0,0v0.006c0.008-0.078,0.047-0.494,0.048-1.125l0,0
		c0-0.849-0.076-2.055-0.404-3.202l0,0c-0.062-0.199-0.113-0.375-0.177-0.551l0,0c-0.751-2.066-2.538-6.973-2.668-7.331l0,0l0,0
		l-0.001-0.006l0.168-0.062l-0.174,0.05c-0.139-0.38-0.496-0.611-0.871-0.613l0,0c-0.105,0.001-0.211,0.018-0.312,0.055l0,0
		l-0.011-0.031l0.006,0.033l-0.805,0.294c-0.363,0.133-0.589,0.46-0.612,0.813l0,0l0.002,0.011l-0.004,0.069
		c0.001,0.093,0.018,0.192,0.054,0.29l0,0l0.385,1.055l-1.441,0.504l-0.981-2.686c-0.139-0.38-0.494-0.61-0.868-0.611l0,0
		c-0.102,0-0.211,0.018-0.319,0.059l0,0l-0.808,0.296c-0.378,0.135-0.609,0.49-0.609,0.863l0,0v0.004
		c0,0.073,0.008,0.15,0.028,0.226l0,0l0.02,0.079l0.753,2.07l-1.43,0.541l-1.089-2.992c-0.141-0.38-0.496-0.61-0.87-0.611l0,0
		c-0.106,0.001-0.21,0.018-0.32,0.059l0,0l-0.806,0.294c-0.378,0.137-0.609,0.491-0.61,0.87l0,0c0,0.104,0.018,0.209,0.055,0.311
		l0,0l1.089,2.985l-1.438,0.521l-3.424-9.391c-0.138-0.38-0.494-0.613-0.868-0.613l0,0c-0.104,0-0.211,0.018-0.32,0.059l0,0
		L12.836,8.57c-0.378,0.138-0.609,0.491-0.609,0.867l0,0v0.001v0.003c0,0.102,0.018,0.211,0.055,0.314l0,0l5.23,14.36
		c0.033,0.099,0.048,0.204,0.048,0.305l0,0v0.001c-0.01,0.409-0.232,0.743-0.632,0.904l0,0l-0.374,0.136
		c-0.196,0.068-0.356,0.086-0.569,0.089l0,0c-0.026,0-0.04,0-0.043,0l0,0l0-0.001c-0.335-0.015-0.575-0.057-0.866-0.211l0,0
		l-0.001,0.001l-0.062-0.033l-2.937-1.712c-0.242-0.137-0.628-0.213-1.118-0.217l0,0c-0.198,0-0.4,0.014-0.592,0.043l0,0
		c-0.719,0.112-1.29,0.358-1.513,0.777l0,0c-0.077,0.149-0.109,0.265-0.109,0.367l0,0c-0.006,0.183,0.131,0.419,0.553,0.672l0,0
		c0.957,0.576,6.513,3.808,6.52,3.811l0,0l0,0.001l0.007,0.004c0.918,0.533,2.145,1.284,2.738,1.673l0,0
		c0.276,0.183,1.197,0.661,2.073,1.198l0,0c0.411,0.236,0.803,0.508,1.128,0.76l0,0c0.331,0.263,0.567,0.461,0.762,0.723l0,0
		c0.039,0.07,0.097,0.13,0.138,0.282l0,0L22.774,33.988L22.774,33.988z M28.835,12.667l0.609-0.305L28.835,12.667L28.835,12.667z
		 M28.835,12.667l0.609-0.305L28.835,12.667L28.835,12.667z"/>
</g>
<g id="Layer_1">
</g>
</svg>
