<?xml version="1.0" encoding="iso-8859-1"?>
<!-- Generator: Adobe Illustrator 18.1.1, SVG Export Plug-In . SVG Version: 6.00 Build 0)  -->
<svg version="1.1" xmlns="http://www.w3.org/2000/svg" xmlns:xlink="http://www.w3.org/1999/xlink" x="0px" y="0px"
	 viewBox="0 0 34.837 39.617" style="enable-background:new 0 0 34.837 39.617;" xml:space="preserve">
<g id="Layer_4.svg">
	<polygon points="9.798,9.839 9.798,9.838 9.797,9.839 	"/>
	<path d="M19.964,0l1.249,4.276c-0.774-0.126-1.548-0.189-2.316-0.189c-3.939,0.002-7.725,1.599-10.474,4.411l1.373,1.341
		c2.385-2.441,5.682-3.833,9.1-3.832c0.677,0,1.359,0.057,2.041,0.169l-2.995,3.62l2.569-0.821l0.463-1.273
		c0.316-0.858,1.127-1.398,1.997-1.396c0.243-0.001,0.49,0.042,0.726,0.128l0.81,0.295c0.38,0.138,0.692,0.377,0.928,0.671
		l2.211-0.707L19.964,0z"/>
	<path d="M6.181,18.717c0-0.677,0.056-1.356,0.168-2.035l2.484,2.056c-0.041-0.117-0.076-0.216-0.101-0.291
		c-0.104-0.301-0.17-0.598-0.171-0.91c-0.004-0.324,0.094-0.68,0.286-0.97L6.693,9.829L0,17.512l4.486-1.309
		c-0.147,0.839-0.224,1.68-0.224,2.514c0,4.136,1.763,8.105,4.843,10.879l1.284-1.426h-0.001
		C7.715,25.764,6.181,22.306,6.181,18.717z"/>
	<path id="inner" fill="#FFFFFF" d="M33.038,20.522l-0.813-0.297c-0.185-0.066-0.374-0.099-0.562-0.098
		c-0.672-0.001-1.303,0.411-1.548,1.078l-0.133,0.37l-0.083-0.03l0.734-2.025c0.066-0.186,0.098-0.377,0.098-0.563
		c0.001-0.67-0.414-1.3-1.081-1.541l-0.81-0.294c-0.183-0.068-0.375-0.101-0.564-0.101c-0.649-0.001-1.254,0.386-1.515,1.01
		l-0.008,0.013l-0.53,1.449l-0.084-0.03l0.841-2.313c0.066-0.185,0.098-0.374,0.098-0.559c0-0.671-0.413-1.3-1.078-1.544
		l-0.816-0.295c-0.182-0.068-0.373-0.101-0.56-0.1c-0.669-0.001-1.3,0.411-1.545,1.078l-0.838,2.308l-0.083-0.03l3.169-8.722
		c0.068-0.186,0.099-0.378,0.099-0.565c0-0.67-0.414-1.3-1.081-1.541l-0.812-0.297c-0.183-0.067-0.375-0.099-0.563-0.099
		c-0.672-0.001-1.3,0.415-1.544,1.08l-5.218,14.343c-0.032,0.094-0.13,0.157-0.228,0.157c-0.026,0-0.054-0.005-0.081-0.015
		l-0.374-0.137c-0.2-0.052-0.582-0.436-0.633-0.635l-0.016-0.044l-1.155-3.21c-0.239-0.603-0.809-1.152-1.497-1.591
		c-0.504-0.308-1.068-0.543-1.656-0.548c-0.214,0-0.438,0.033-0.654,0.124c-0.475,0.163-0.897,0.648-0.872,1.227
		c0,0.24,0.052,0.486,0.144,0.752c0.371,1.078,2.55,7.126,2.55,7.128c0.355,0.984,0.813,2.35,1.012,3.009
		c0.209,0.653,1.299,3.231,1.281,4.219c0,0.107-0.014,0.18-0.023,0.205l-0.116,0.316c-0.048,0.133-0.079,0.263-0.095,0.389
		c-0.012,0.09-0.019,0.177-0.019,0.264c0,0.784,0.482,1.522,1.261,1.808l8.68,3.159c0.214,0.077,0.435,0.113,0.65,0.113
		c0.657-0.001,1.275-0.337,1.63-0.9c0.07-0.111,0.131-0.23,0.178-0.359l0.192-0.529c0.21-0.584,0.719-1.383,1.264-2.004
		c0.261-0.298,0.529-0.559,0.763-0.737l0.019-0.014l0.023-0.021c0.021-0.025,1.71-1.626,2.679-3.791
		c0.075-0.179,0.154-0.359,0.229-0.565c0.781-2.143,2.677-7.353,2.677-7.353c0.066-0.186,0.098-0.374,0.098-0.56
		C34.118,21.398,33.705,20.767,33.038,20.522z"/>
	<path d="M23.468,39.461l-8.682-3.159c-1.071-0.393-1.734-1.406-1.734-2.483l0,0c0-0.126,0.01-0.246,0.026-0.359l0,0
		c0.022-0.174,0.065-0.356,0.133-0.543l0,0l0.095-0.26c0-0.002,0-0.004,0-0.006l0,0c-0.001-0.026,0.001-0.032,0-0.032l0,0
		c0.014-0.283-0.232-1.188-0.523-1.995l0,0c-0.289-0.829-0.6-1.598-0.727-1.991l0,0c-0.19-0.635-0.65-2.004-0.999-2.974l0,0
		l-0.004-0.01l0.002,0.005c-0.001-0.002-0.002-0.004-0.003-0.007l0,0c0,0,0,0,0,0l0,0l-0.001-0.002
		c-0.001-0.001-0.001-0.003-0.002-0.004l0,0c0-0.002-0.001-0.004-0.002-0.006l0,0l-0.034-0.095v-0.001
		c-0.014-0.038-0.031-0.086-0.051-0.142l0,0c-0.061-0.169-0.148-0.409-0.253-0.701l0,0c-0.21-0.584-0.494-1.373-0.789-2.197l0,0
		c-0.592-1.65-1.229-3.426-1.418-3.978l0,0c-0.104-0.302-0.177-0.617-0.182-0.949l0,0C8.319,17.53,8.32,17.499,8.32,17.487l0,0
		c0.016-0.923,0.623-1.591,1.341-1.853l0,0c0.314-0.128,0.627-0.17,0.911-0.17l0,0c0.781,0.008,1.459,0.309,2.037,0.66l0,0
		c0.762,0.493,1.442,1.107,1.787,1.954l0,0l1.152,3.203l0.02,0.052c0.013,0.017,0.036,0.048,0.065,0.078l0,0
		c0.022,0.026,0.048,0.051,0.071,0.072l0,0L20.75,7.617c0.35-0.953,1.249-1.554,2.217-1.554l0,0c0.013,0,0.026,0.001,0.039,0.002
		l0,0c0.259,0.004,0.522,0.051,0.776,0.143l0,0l0.809,0.295c0.959,0.349,1.557,1.253,1.556,2.218l0,0
		c0,0.268-0.046,0.543-0.142,0.81l0,0l-1.602,4.409c0.073-0.007,0.147-0.011,0.221-0.011l0,0c0.009,0,0.017,0.001,0.025,0.002l0,0
		c0.267,0.001,0.533,0.05,0.782,0.142l0,0l0.819,0.297c0.877,0.323,1.448,1.109,1.538,1.981l0,0
		c0.159-0.034,0.323-0.052,0.489-0.052l0,0c0.009,0,0.018,0.001,0.026,0.002l0,0c0.265,0.002,0.533,0.049,0.787,0.143l0,0
		l0.809,0.294c0.958,0.346,1.557,1.249,1.556,2.215l0,0v0.003c0.001,0.153-0.014,0.308-0.045,0.463l0,0
		c0.071-0.007,0.143-0.012,0.216-0.013l0,0c0.021-0.001,0.037-0.001,0.048,0l0,0c0.002,0,0.004,0,0.005,0l0,0
		c0.014,0,0.014,0,0.014,0l0,0l0,0c0.267,0.002,0.532,0.052,0.784,0.142l0,0l0.813,0.297l-0.247,0.676l0.247-0.676
		c0.958,0.353,1.553,1.258,1.551,2.222l0,0c0,0.268-0.047,0.539-0.141,0.806l0,0c0,0-1.896,5.21-2.678,7.352l0,0
		c-0.085,0.235-0.171,0.426-0.248,0.613l0,0c-0.987,2.206-2.642,3.82-2.807,3.987l0,0l-0.011,0.013l-0.041,0.037l-0.055,0.049
		l-0.032,0.022l0.004-0.003c-0.177,0.133-0.421,0.367-0.658,0.639l0,0c-0.49,0.551-0.973,1.328-1.128,1.773l0,0l-0.193,0.531
		c-0.066,0.179-0.151,0.347-0.244,0.496l0,0c-0.489,0.773-1.336,1.232-2.239,1.234l0,0C24.07,39.617,23.766,39.569,23.468,39.461
		L23.468,39.461z M14.746,32.644c-0.007,0.185-0.004,0.264-0.067,0.453l0,0l-0.115,0.315c-0.03,0.082-0.048,0.162-0.059,0.241l0,0
		c-0.008,0.064-0.012,0.116-0.012,0.166l0,0c0.001,0.492,0.302,0.955,0.788,1.132l0,0l8.678,3.158
		c0.132,0.047,0.272,0.071,0.406,0.071l0,0c0.413-0.001,0.801-0.213,1.024-0.566l0,0c0.044-0.07,0.082-0.145,0.108-0.218l0,0
		l0.192-0.527c0.265-0.723,0.801-1.546,1.4-2.234l0,0c0.276-0.315,0.558-0.594,0.863-0.83l0,0c0,0,0.001,0,0.001-0.001l0,0
		c0.012-0.014,0.03-0.032,0.054-0.054l0,0c0.047-0.047,0.113-0.116,0.197-0.204l0,0c0.166-0.177,0.398-0.433,0.657-0.754l0,0
		c0.519-0.64,1.15-1.537,1.589-2.522l0,0c0.08-0.19,0.153-0.357,0.218-0.534l0,0c0.781-2.143,2.675-7.345,2.675-7.347l0,0
		c0.04-0.113,0.057-0.216,0.057-0.32l0,0c0-0.377-0.232-0.735-0.607-0.87l0,0v0l-0.808-0.295c-0.066-0.023-0.13-0.039-0.191-0.048
		l0,0l-0.118,0.051l-0.13-0.052c-0.332,0.043-0.63,0.261-0.751,0.594l0,0l-0.377,1.053l-1.437-0.529l0.977-2.693
		c0.039-0.111,0.057-0.218,0.057-0.323l0,0c0,0,0-0.003-0.001-0.003l0,0c0-0.374-0.232-0.729-0.606-0.863l0,0l-0.814-0.296
		c-0.101-0.037-0.208-0.055-0.315-0.055l0,0h-0.047c-0.345,0.018-0.663,0.228-0.803,0.567l0,0l-0.027,0.063l-0.746,2.042
		l-1.437-0.521l1.086-2.987c0.037-0.106,0.055-0.212,0.055-0.314l0,0c-0.001-0.378-0.232-0.733-0.603-0.868l0,0l-0.821-0.298
		c-0.075-0.029-0.153-0.045-0.23-0.052l0,0l-0.163,0.041l-0.064-0.032c-0.319,0.052-0.602,0.267-0.721,0.592l0,0l-1.083,2.984
		l-1.437-0.521l3.414-9.397c0.039-0.106,0.057-0.215,0.057-0.32l0,0c0-0.375-0.232-0.73-0.607-0.865l0,0l-0.81-0.297
		c-0.104-0.037-0.214-0.055-0.317-0.055l0,0h-0.049c-0.357,0.019-0.688,0.246-0.819,0.607l0,0L16.89,22.438
		c-0.161,0.429-0.511,0.635-0.908,0.646l0,0c-0.121,0-0.228-0.022-0.33-0.059l0,0l-0.374-0.137l0-0.001
		c-0.322-0.116-0.453-0.265-0.635-0.428l0,0c-0.162-0.181-0.309-0.312-0.425-0.631l0,0l-0.001,0l-0.019-0.051l-1.147-3.188
		c-0.141-0.378-0.599-0.863-1.204-1.242l0,0c-0.442-0.27-0.892-0.442-1.281-0.442l0,0c-0.139,0-0.265,0.022-0.376,0.068l0,0
		l-0.019,0.008l-0.026,0.01c-0.195,0.059-0.4,0.306-0.388,0.491l0,0l0.002,0.021v0.033c0,0.134,0.03,0.301,0.105,0.517l0,0
		c0.366,1.062,2.527,7.061,2.549,7.125l0,0c0.002,0.006,0.001,0.005,0.003,0.012l0,0c0.359,0.997,0.813,2.348,1.014,3.018l0,0
		c0.084,0.264,0.413,1.091,0.712,1.944l0,0c0.298,0.876,0.588,1.743,0.603,2.465l0,0v0.001v0.003c0,0.016,0,0.016,0,0.016l0,0
		V32.644L14.746,32.644z M11.053,25.648L11.053,25.648L11.053,25.648L11.053,25.648L11.053,25.648L11.053,25.648z"/>
</g>
<g id="Layer_1">
</g>
</svg>
