<?xml version="1.0" encoding="iso-8859-1"?>
<!-- Generator: Adobe Illustrator 18.1.1, SVG Export Plug-In . SVG Version: 6.00 Build 0)  -->
<svg version="1.1" xmlns="http://www.w3.org/2000/svg" xmlns:xlink="http://www.w3.org/1999/xlink" x="0px" y="0px"
	 viewBox="0 0 34.372 35.711" style="enable-background:new 0 0 34.372 35.711;" xml:space="preserve">
<g id="Layer_29.svg">
	<path d="M26.709,1.259L26.709,1.259C25.87,0.42,24.764-0.001,23.668,0c-1.096-0.001-2.201,0.423-3.038,1.26
		c-0.243,0.243-0.447,0.51-0.619,0.791c-1.198-0.308-2.426-0.47-3.657-0.47c-2.563,0-5.128,0.678-7.417,2.029L8.719,0.058
		L4.356,7.891l7.021-0.851c0.068-0.033,0.134-0.068,0.207-0.094l0.804-0.292c0.114-0.043,0.231-0.072,0.345-0.094L9.967,5.228
		c1.971-1.152,4.177-1.729,6.386-1.729c1.022,0,2.043,0.126,3.039,0.37c-0.014,0.142-0.022,0.286-0.022,0.429
		c0,1.096,0.422,2.203,1.261,3.04c0.837,0.837,1.943,1.26,3.041,1.259h0.004c1.094,0,2.197-0.423,3.033-1.259
		c0.836-0.84,1.259-1.944,1.259-3.04C27.968,3.202,27.546,2.096,26.709,1.259z M25.351,5.983c-0.466,0.465-1.068,0.693-1.679,0.694
		c-0.613-0.002-1.218-0.231-1.684-0.696c-0.467-0.469-0.696-1.071-0.698-1.683c0.001-0.612,0.231-1.215,0.696-1.681
		c0.468-0.468,1.071-0.697,1.682-0.698c0.613,0.001,1.215,0.231,1.683,0.697v0.001c0.467,0.467,0.696,1.07,0.697,1.682
		C26.047,4.91,25.817,5.513,25.351,5.983z"/>
	<path d="M4.3,13.336c1.095,0,2.201-0.422,3.037-1.259c0.837-0.839,1.26-1.944,1.259-3.041c0-0.23-0.023-0.458-0.06-0.686
		L6.633,8.581c0.029,0.15,0.043,0.303,0.044,0.455c-0.001,0.612-0.23,1.215-0.697,1.685c-0.465,0.465-1.068,0.693-1.679,0.694
		c-0.614-0.001-1.217-0.231-1.685-0.695C2.15,10.252,1.92,9.648,1.918,9.036C1.92,8.423,2.15,7.821,2.614,7.356
		c0.373-0.372,0.831-0.588,1.31-0.663l1.056-1.897C4.754,4.76,4.525,4.738,4.297,4.738c-1.097-0.001-2.201,0.423-3.038,1.26
		C0.42,6.833-0.001,7.939,0,9.036c-0.001,1.096,0.422,2.203,1.259,3.04c0.27,0.27,0.57,0.493,0.887,0.677
		c-0.275,1.135-0.421,2.296-0.421,3.46c0,2.524,0.657,5.051,1.966,7.314l-3.541,0.207l7.822,4.383l-0.29-2.446
		c-0.521-0.343-0.98-0.889-0.979-1.603c0.001-0.358,0.11-0.665,0.248-0.923c0.109-0.19,0.237-0.347,0.373-0.488l-0.408-3.444
		L5.319,22.51c-1.116-1.951-1.674-4.123-1.674-6.298c0-0.972,0.114-1.943,0.335-2.892C4.087,13.328,4.193,13.336,4.3,13.336z"/>
	<path id="inner" fill="#FFFFFF" d="M33.539,29.263l-0.192-0.527c-0.202-0.547-0.323-1.405-0.322-2.189c0-0.057,0-0.109,0.001-0.155
		c0.008-0.402,0.044-0.775,0.11-1.06l0.006-0.023l0.004-0.032c0.001-0.012,0.054-0.487,0.054-1.21
		c-0.001-0.89-0.078-2.155-0.439-3.415c-0.056-0.185-0.11-0.374-0.185-0.579c-0.781-2.146-2.677-7.354-2.677-7.354
		c-0.247-0.666-0.875-1.082-1.547-1.082c-0.183,0-0.375,0.03-0.563,0.101v0l-0.807,0.294c-0.67,0.247-1.085,0.876-1.085,1.549
		c0,0.184,0.03,0.373,0.097,0.556l0.137,0.369l-0.083,0.03l-0.74-2.023c-0.246-0.665-0.872-1.081-1.543-1.081
		c-0.185,0-0.378,0.032-0.566,0.102l-0.806,0.294c-0.669,0.243-1.083,0.873-1.082,1.544c0,0.142,0.018,0.289,0.058,0.434
		l-0.002,0.018l0.545,1.503l-0.084,0.03l-0.842-2.313c-0.246-0.665-0.874-1.079-1.544-1.079c-0.183,0-0.377,0.03-0.566,0.102
		l-0.807,0.294c-0.666,0.245-1.082,0.874-1.082,1.546c0,0.184,0.032,0.373,0.098,0.558l0.842,2.308l-0.084,0.03l-3.178-8.718
		c-0.244-0.667-0.872-1.085-1.544-1.085c-0.185,0-0.378,0.031-0.566,0.102l-0.807,0.294c-0.668,0.243-1.082,0.873-1.08,1.546
		c-0.001,0.185,0.03,0.375,0.098,0.56l5.222,14.341C15.996,23.871,16,23.895,16,23.923c0,0.098-0.063,0.194-0.16,0.229l-0.374,0.137
		c-0.068,0.025-0.19,0.045-0.323,0.045c-0.218,0.003-0.466-0.061-0.571-0.126l-0.039-0.022l-2.949-1.718
		c-0.407-0.225-0.911-0.301-1.466-0.306c-0.23,0-0.468,0.015-0.707,0.051c-0.787,0.124-1.619,0.407-2.036,1.154
		c-0.113,0.213-0.192,0.446-0.192,0.7c-0.001,0.55,0.377,0.984,0.901,1.29c0.977,0.587,6.534,3.82,6.536,3.821
		c0.904,0.526,2.133,1.278,2.709,1.655c0.348,0.226,1.234,0.683,2.105,1.217c0.861,0.497,1.689,1.192,1.702,1.363l0.116,0.319
		c0.048,0.133,0.109,0.253,0.178,0.363c0.355,0.564,0.974,0.898,1.63,0.898c0.217,0,0.436-0.037,0.647-0.112l8.683-3.16
		c0.78-0.286,1.262-1.023,1.262-1.807c0-0.089-0.007-0.175-0.018-0.261C33.616,29.522,33.585,29.391,33.539,29.263z M27.96,12.188
		L27.96,12.188L27.96,12.188L27.96,12.188z"/>
	<path d="M20.82,34.476c-0.093-0.149-0.177-0.316-0.244-0.5l0,0l-0.099-0.27c-0.003-0.003-0.007-0.007-0.01-0.011l0,0
		c-0.061-0.063-0.175-0.168-0.317-0.283l0,0c-0.283-0.232-0.683-0.514-1.091-0.748l0,0c-0.85-0.523-1.702-0.958-2.123-1.228l0,0
		c-0.555-0.363-1.786-1.118-2.676-1.636l0,0l-0.005-0.002h-0.001c-0.002-0.001-0.004-0.003-0.007-0.004l0,0h0l0,0l0,0l-0.004-0.002
		c-0.002-0.001-0.005-0.003-0.008-0.005l0,0c0,0,0,0,0.001,0l0,0l-0.056-0.033c-0.04-0.023-0.094-0.054-0.162-0.094l0,0
		c-0.155-0.09-0.375-0.218-0.643-0.374l0,0c-0.537-0.313-1.263-0.736-2.018-1.176l0,0c-1.514-0.883-3.144-1.837-3.635-2.132l0,0
		C7.09,25.614,6.47,24.98,6.464,24.068l0,0l0-0.001h0c0-0.406,0.127-0.758,0.283-1.05l0,0c0.604-1.057,1.697-1.378,2.556-1.514l0,0
		c0.28-0.043,0.553-0.059,0.822-0.059l0,0c0.611,0.008,1.234,0.082,1.821,0.404l0,0l2.943,1.714l0.029,0.016c0,0,0,0,0,0l0,0l0,0h0
		c0.008,0.004,0.03,0.009,0.055,0.016l0,0c0.051,0.013,0.119,0.021,0.156,0.019l0,0c0.003,0,0.005,0,0.007,0l0,0L10.089,9.751
		C9.992,9.488,9.947,9.218,9.947,8.954l0,0c0-0.001,0-0.004,0-0.008l0,0c0-0.002,0-0.004,0-0.006l0,0V8.939
		c-0.001-0.966,0.596-1.87,1.554-2.219l0,0L12.3,6.43c0.275-0.104,0.554-0.149,0.82-0.149l0,0c0.97,0,1.87,0.603,2.221,1.558l0,0
		l1.608,4.409c0.239-0.243,0.533-0.437,0.874-0.562l0,0l0.799-0.291c0.277-0.104,0.558-0.148,0.821-0.149l0,0
		c0.618,0,1.21,0.246,1.649,0.673l0,0c0.264-0.338,0.622-0.608,1.055-0.765l0,0l0.8-0.293c0.273-0.102,0.551-0.148,0.819-0.149l0,0
		c0.853,0,1.653,0.467,2.072,1.231l0,0c0.243-0.254,0.547-0.458,0.9-0.588l0,0l0.806-0.294l0,0c0.273-0.102,0.548-0.144,0.81-0.146
		l0,0c0.968,0,1.867,0.601,2.223,1.556l0,0c0,0,1.895,5.209,2.676,7.354l0,0c0.085,0.235,0.144,0.44,0.201,0.628l0,0
		c0.387,1.356,0.464,2.681,0.465,3.613l0,0c0,0.759-0.054,1.253-0.059,1.304l0,0l-0.01,0.071l-0.008,0.034l-0.004,0.02
		c-0.05,0.207-0.085,0.545-0.093,0.917l0,0c0,0.03,0,0.077,0,0.134l0,0v0.075l-0.001,0.006c0.005,0.686,0.126,1.461,0.279,1.862l0,0
		l0.192,0.527l-0.676,0.247l0.679-0.24c0.061,0.172,0.105,0.352,0.13,0.538l0,0c0.014,0.108,0.025,0.226,0.025,0.353l0,0
		c0,1.077-0.663,2.088-1.735,2.481l0,0l-8.688,3.162c-0.29,0.102-0.589,0.153-0.889,0.153l0,0
		C22.16,35.711,21.31,35.253,20.82,34.476L20.82,34.476z M21.928,33.485c0.03,0.081,0.068,0.155,0.112,0.226l0,0
		c0.219,0.35,0.609,0.562,1.02,0.562l0,0c0.135,0,0.273-0.023,0.402-0.069l0,0l8.682-3.159c0.489-0.178,0.788-0.641,0.789-1.131l0,0
		c0-0.051-0.004-0.108-0.011-0.164l0,0c-0.011-0.079-0.031-0.16-0.059-0.242l0,0l-0.001,0l-0.19-0.525
		c-0.244-0.678-0.363-1.566-0.367-2.425l0,0c0.004,0-0.002-0.001,0.001-0.048l0,0c0-0.045,0-0.09,0.001-0.134l0,0
		c0.01-0.429,0.044-0.829,0.125-1.191l0,0c0.005-0.06,0.049-0.484,0.049-1.118l0,0c-0.001-0.849-0.077-2.055-0.409-3.206l0,0
		c-0.058-0.195-0.108-0.369-0.173-0.543l0,0c-0.781-2.146-2.673-7.347-2.675-7.351l0,0c-0.141-0.38-0.497-0.611-0.872-0.613l0,0
		c-0.093,0-0.187,0.014-0.277,0.044l0,0l-0.845,0.308c-0.382,0.139-0.613,0.495-0.614,0.874l0,0c0,0.104,0.018,0.211,0.052,0.306
		l0,0l0.388,1.047l-1.44,0.521l-0.984-2.693c-0.139-0.38-0.494-0.61-0.868-0.611l0,0c-0.102,0-0.211,0.018-0.319,0.059l0,0
		l-0.808,0.296c-0.362,0.13-0.588,0.461-0.607,0.818l0,0v0.049c0,0.082,0.01,0.164,0.032,0.246l0,0l0.019,0.072l0.751,2.069
		l-1.437,0.521l-1.086-2.984c-0.138-0.377-0.494-0.609-0.868-0.61l0,0c-0.105,0-0.211,0.018-0.32,0.059l0,0l-0.806,0.293
		c-0.377,0.138-0.609,0.494-0.61,0.871l0,0c0,0.101,0.018,0.209,0.055,0.311l0,0l1.089,2.985l-1.438,0.521l-3.424-9.391
		c-0.138-0.38-0.494-0.613-0.868-0.613l0,0c-0.104,0-0.211,0.018-0.32,0.059l0,0l-0.807,0.294c-0.356,0.128-0.582,0.453-0.604,0.807
		l0,0l0.002,0.011l-0.004,0.07c0.001,0.095,0.018,0.195,0.054,0.294l0,0l5.221,14.339c0.039,0.101,0.059,0.226,0.058,0.327l0,0
		c-0.007,0.404-0.233,0.752-0.632,0.906l0,0l-0.374,0.136c-0.199,0.068-0.357,0.084-0.57,0.089l0,0c-0.026,0-0.04,0-0.043,0l0,0
		l0-0.001c-0.35-0.016-0.596-0.062-0.885-0.218l0,0l-0.044-0.025l-2.936-1.712c-0.242-0.137-0.628-0.213-1.118-0.217l0,0
		c-0.199,0-0.4,0.014-0.594,0.043l0,0c-0.719,0.112-1.29,0.358-1.513,0.781l0,0c-0.076,0.145-0.108,0.26-0.108,0.362l0,0v0.028
		c0.007,0.179,0.149,0.402,0.552,0.645l0,0c0.962,0.577,6.473,3.785,6.533,3.819l0,0c0.004,0.003,0.004,0.003,0.007,0.005l0,0
		c0.916,0.532,2.135,1.278,2.727,1.666l0,0c0.276,0.183,1.197,0.661,2.072,1.197l0,0c0.411,0.237,0.805,0.509,1.129,0.762l0,0
		c0.33,0.263,0.567,0.462,0.76,0.723l0,0c0.041,0.071,0.101,0.132,0.141,0.29l0,0L21.928,33.485L21.928,33.485z M14.247,29.792
		C14.247,29.793,14.247,29.793,14.247,29.792L14.247,29.792L14.247,29.792C14.247,29.793,14.247,29.793,14.247,29.792L14.247,29.792
		z M14.244,29.79c0.002,0.001,0.003,0.002,0.004,0.002l0,0C14.246,29.792,14.245,29.791,14.244,29.79L14.244,29.79z M14.238,29.787
		c0,0-0.001-0.001-0.001-0.001l0,0l0.007,0.004h0l0,0C14.242,29.79,14.24,29.789,14.238,29.787L14.238,29.787z M14.918,23.578
		L14.918,23.578L14.918,23.578L14.918,23.578L14.918,23.578z"/>
</g>
<g id="Layer_1">
</g>
</svg>
