<?xml version="1.0" encoding="iso-8859-1"?>
<!-- Generator: Adobe Illustrator 18.1.1, SVG Export Plug-In . SVG Version: 6.00 Build 0)  -->
<svg version="1.1" xmlns="http://www.w3.org/2000/svg" xmlns:xlink="http://www.w3.org/1999/xlink" x="0px" y="0px"
	 viewBox="0 0 30.132 38.693" style="enable-background:new 0 0 30.132 38.693;" xml:space="preserve">
<g id="Layer_2.svg">
	<path d="M12.908,10.002l2.754-1.552l0.61-1.677c0.317-0.857,1.127-1.396,1.997-1.395c0.242,0,0.491,0.043,0.726,0.129l0.81,0.295
		c0.108,0.039,0.211,0.086,0.309,0.141l1.671-0.942L12.908,0l2.144,4.043H0v1.918h15.051L12.908,10.002z"/>
	<path id="inner" fill="#FFFFFF"  d="M25.412,20.281l-0.133,0.369l-0.083-0.031l0.734-2.025c0.067-0.186,0.098-0.375,0.098-0.562
		c0.001-0.672-0.413-1.301-1.08-1.542l-0.809-0.295c-0.184-0.068-0.376-0.1-0.565-0.1c-0.633-0.001-1.225,0.367-1.495,0.964
		l-0.014,0.014l-0.547,1.493l-0.083-0.031l0.841-2.311c0.065-0.186,0.098-0.374,0.097-0.559c0.001-0.672-0.412-1.3-1.077-1.544
		l-0.814-0.296c-0.183-0.067-0.373-0.099-0.561-0.099c-0.67-0.001-1.3,0.411-1.546,1.077l-0.839,2.309l-0.083-0.03l3.169-8.72
		c0.067-0.186,0.099-0.378,0.099-0.565c0-0.672-0.414-1.301-1.08-1.543l-0.811-0.295c-0.184-0.068-0.376-0.1-0.562-0.1
		c-0.673-0.001-1.302,0.416-1.547,1.083l-5.383,14.8l-0.087-0.031l0.965-2.654l-0.003-0.09c-0.001-0.003-0.073-2.404-0.077-2.537
		c-0.038-0.629-0.395-1.31-0.892-1.932c-0.506-0.601-1.158-1.152-1.984-1.17c-0.025,0-0.068,0-0.129,0.007
		c-0.335,0.018-0.713,0.148-0.964,0.459c-0.248,0.308-0.33,0.696-0.331,1.141c0,0.009,0,0.036,0.001,0.073
		c0.016,1.118,0.26,9.511,0.26,9.514c0.022,0.554,0.103,1.236,0.266,1.982l-0.007-0.029c0.145,0.995,1.032,3.777,1.023,4.992
		c0.001,0.171-0.021,0.298-0.039,0.344l-0.157,0.43c-0.047,0.132-0.078,0.263-0.097,0.394c-0.012,0.085-0.018,0.173-0.017,0.261
		c0,0.784,0.481,1.519,1.26,1.805l8.68,3.159c0.214,0.078,0.434,0.115,0.652,0.115c0.656,0,1.273-0.337,1.628-0.899
		c0.068-0.109,0.131-0.229,0.18-0.363l0.19-0.526c0.21-0.584,0.719-1.384,1.265-2.003c0.26-0.3,0.527-0.561,0.762-0.738l0.023-0.017
		l0.018-0.018c0.021-0.023,1.71-1.625,2.679-3.79c0.074-0.179,0.155-0.359,0.23-0.565c0.781-2.143,2.678-7.352,2.678-7.352
		c0.065-0.185,0.098-0.374,0.096-0.561c0.001-0.67-0.411-1.3-1.076-1.546l-0.166,0.452l0,0l0.164-0.452l-0.814-0.295
		c-0.184-0.068-0.374-0.1-0.562-0.099C26.287,19.201,25.657,19.613,25.412,20.281z"/>
	<path d="M18.765,38.535l-8.681-3.159c-1.058-0.388-1.717-1.381-1.732-2.442l0,0c-0.002-0.04,0-0.063-0.002-0.063l0,0
		c0-0.12,0.011-0.232,0.025-0.336l0,0c0.025-0.178,0.068-0.357,0.133-0.542l0,0l0.144-0.397c0-0.001,0-0.002,0-0.003l0,0
		c0.004-0.02,0.007-0.055,0.008-0.097l0,0c-0.001-0.016-0.001-0.03-0.001-0.04l0,0v-0.009c0.007-0.459-0.2-1.457-0.436-2.403l0,0
		c-0.233-0.95-0.484-1.856-0.576-2.443l0,0c-0.163-0.766-0.246-1.467-0.27-2.08l0,0l-0.001-0.004c0-0.016,0-0.039-0.001-0.071l0,0
		c-0.003-0.061-0.005-0.152-0.008-0.268l0,0c-0.007-0.232-0.017-0.565-0.027-0.967l0,0c-0.023-0.805-0.055-1.889-0.086-3.008l0,0
		c-0.063-2.241-0.128-4.613-0.136-5.174l0,0c-0.001-0.047-0.001-0.084-0.001-0.098l0,0c0-0.523,0.099-1.104,0.491-1.59l0,0
		c0.421-0.515,1.003-0.699,1.484-0.727l0,0v0c0.078-0.007,0.146-0.008,0.185-0.007l0,0c1.161,0.035,1.965,0.771,2.529,1.44l0,0
		c0.412,0.521,0.764,1.09,0.939,1.721l0,0l3.301-9.076c0.35-0.953,1.25-1.556,2.219-1.555l0,0c0.001,0,0.003,0,0.004,0l0,0v0
		c0.27,0,0.544,0.047,0.808,0.144l0,0l0.811,0.296c0.958,0.348,1.555,1.253,1.554,2.219l0,0c0,0.27-0.047,0.543-0.142,0.81l0,0
		l-1.603,4.409c0.073-0.007,0.147-0.01,0.221-0.01l0,0c0.013,0,0.026,0.001,0.038,0.002l0,0c0.26,0.004,0.52,0.05,0.772,0.142l0,0
		l0.815,0.296c0.875,0.322,1.45,1.107,1.538,1.981l0,0c0.16-0.034,0.323-0.051,0.489-0.051l0,0c0.001,0,0.003,0,0.004,0l0,0v0
		c0.272,0,0.547,0.047,0.812,0.143l0,0l0.806,0.295c0.957,0.345,1.556,1.248,1.555,2.215l0,0v0.004c0,0.153-0.015,0.308-0.046,0.462
		l0,0c0.084-0.009,0.169-0.014,0.254-0.014l0,0c0.01,0,0.019,0.001,0.029,0.001l0,0c0.265,0,0.532,0.049,0.782,0.142l0,0
		l0.142,0.051l0.002-0.004l0.628,0.231l0.721,0.26l-0.04,0.109c0.576,0.447,0.913,1.139,0.913,1.866l0,0v0.002v0.073l-0.001,0.006
		c-0.007,0.245-0.055,0.488-0.138,0.729l0,0c0,0-1.897,5.209-2.678,7.35l0,0c-0.085,0.238-0.172,0.431-0.249,0.614l0,0
		c-0.975,2.175-2.589,3.767-2.803,3.981l0,0l-0.002,0.001l-0.019,0.02l-0.003,0.003l-0.056,0.057l-0.051,0.037l-0.009,0.007
		c-0.176,0.132-0.419,0.365-0.657,0.641l0,0c-0.491,0.549-0.973,1.325-1.127,1.773l0,0l-0.192,0.529
		c-0.07,0.188-0.156,0.354-0.246,0.499l0,0c-0.488,0.771-1.333,1.233-2.237,1.233l0,0c-0.004,0-0.008,0-0.011,0l0,0
		C19.357,38.693,19.056,38.642,18.765,38.535L18.765,38.535z M9.79,32.894c0.001,0.492,0.3,0.953,0.787,1.129l0,0l8.681,3.161
		c0.132,0.048,0.268,0.07,0.404,0.07l0,0c0.41,0,0.797-0.211,1.017-0.56l0,0c0.047-0.077,0.086-0.151,0.114-0.227l0,0l0.19-0.524
		c0.266-0.723,0.801-1.547,1.398-2.231l0,0c0.277-0.319,0.56-0.601,0.857-0.83l0,0c0.002-0.001,0.004-0.004,0.007-0.007l0,0
		c0.013-0.013,0.031-0.031,0.053-0.054l0,0c0.047-0.047,0.114-0.115,0.196-0.202l0,0c0.167-0.178,0.398-0.434,0.658-0.754l0,0
		c0.521-0.64,1.15-1.538,1.59-2.522l0,0c0.079-0.192,0.154-0.359,0.218-0.536l0,0c0.782-2.142,2.676-7.344,2.676-7.343l0,0
		c0.038-0.11,0.055-0.216,0.055-0.314l0,0v-0.006c0-0.001,0-0.004,0-0.006l0,0l0,0c0-0.375-0.23-0.729-0.601-0.867l0,0v0
		l-0.819-0.296c-0.088-0.033-0.176-0.05-0.263-0.054l0,0l-0.141,0.019l-0.029-0.012c-0.331,0.043-0.627,0.261-0.75,0.599l0,0h0
		l-0.38,1.052l-1.432-0.54l0.976-2.688c0.039-0.11,0.056-0.214,0.056-0.32l0,0v-0.004c-0.001-0.376-0.232-0.728-0.607-0.862l0,0
		L23.89,16.87c-0.102-0.037-0.209-0.056-0.316-0.056l0,0h-0.004c-0.352,0-0.685,0.206-0.835,0.542l0,0l-0.037,0.081l-0.753,2.06
		l-1.43-0.539l1.081-2.97c0.039-0.113,0.056-0.216,0.056-0.313l0,0v-0.005c0-0.001,0-0.003,0-0.004l0,0h0v-0.002
		c-0.001-0.377-0.231-0.73-0.604-0.865l0,0l-0.814-0.296c-0.102-0.038-0.209-0.056-0.314-0.056l0,0h-0.048
		c-0.359,0.019-0.691,0.245-0.821,0.603l0,0l-1.084,2.984l-1.437-0.518l3.414-9.395c0.039-0.11,0.057-0.219,0.057-0.322l0,0
		c0-0.378-0.231-0.732-0.605-0.866l0,0l-0.814-0.296c-0.103-0.038-0.211-0.058-0.313-0.058l0,0h-0.004
		c-0.375,0-0.729,0.232-0.867,0.61l0,0L11.77,22.659l-1.441-0.518l1.164-3.201c-0.001-0.016-0.001-0.035-0.002-0.057l0,0
		c-0.003-0.066-0.005-0.162-0.009-0.275l0,0c-0.006-0.227-0.015-0.532-0.025-0.841l0,0c-0.018-0.617-0.038-1.251-0.039-1.296l0,0
		c-0.015-0.386-0.288-0.973-0.724-1.511l0,0c-0.458-0.549-0.96-0.915-1.432-0.915l0,0c-0.022,0-0.026,0-0.053,0.003l0,0L9.195,14.05
		L9.17,14.051c-0.188,0.011-0.363,0.088-0.442,0.192l0,0c-0.104,0.129-0.17,0.326-0.172,0.69l0,0c0,0.007,0,0.024,0.001,0.063l0,0
		c0.016,1.111,0.26,9.479,0.26,9.495l0,0c0.019,0.5,0.093,1.131,0.241,1.821l0,0h0l0.006,0.029h0c0,0.002,0.001,0.005,0.002,0.007
		l0,0l-0.284,0.064l0.287-0.041c0.056,0.402,0.312,1.361,0.552,2.33l0,0c0.235,0.974,0.466,1.953,0.478,2.714l0,0l0,0.003v0.029
		v0.009v0.011c0,0.013,0,0.021,0,0.025l0,0h0c-0.007,0.232-0.015,0.364-0.082,0.565l0,0l-0.155,0.425
		c-0.03,0.085-0.05,0.168-0.061,0.253l0,0c-0.007,0.048-0.011,0.097-0.011,0.137l0,0V32.894L9.79,32.894z"/>
</g>
<g id="Layer_1">
</g>
</svg>
