<?xml version="1.0" encoding="iso-8859-1"?>
<!-- Generator: Adobe Illustrator 18.1.1, SVG Export Plug-In . SVG Version: 6.00 Build 0)  -->
<svg version="1.1" xmlns="http://www.w3.org/2000/svg" xmlns:xlink="http://www.w3.org/1999/xlink" x="0px" y="0px"
	 viewBox="0 0 29.578 42.708" style="enable-background:new 0 0 29.578 42.708;" xml:space="preserve">
<g id="Layer_16.svg">
	<path d="M6.023,18.05l-0.505-1.387c-0.086-0.238-0.127-0.484-0.127-0.723c-0.001-0.867,0.534-1.682,1.398-1.997l0.805-0.292
		c0.243-0.092,0.493-0.132,0.732-0.131c0.081,0,0.16,0.009,0.239,0.018l1.436-2.548L5.96,13.132V0H4.042v13.132L0,10.989
		l5.001,8.877L6.023,18.05z"/>
	<path id="inner" fill="#FFFFFF" d="M23.559,18.633c-0.184,0-0.374,0.031-0.559,0.099v0l-0.811,0.296
		c-0.669,0.246-1.085,0.876-1.083,1.549c-0.001,0.184,0.03,0.373,0.097,0.557l0.136,0.369l-0.083,0.03l-0.738-2.024
		c-0.246-0.665-0.872-1.081-1.542-1.08c-0.185,0-0.378,0.031-0.566,0.102l-0.806,0.293c-0.669,0.244-1.085,0.874-1.083,1.545
		c0,0.152,0.022,0.31,0.068,0.466v0.016l0.533,1.472l-0.083,0.03l-0.842-2.312c-0.246-0.666-0.874-1.08-1.545-1.08
		c-0.184,0-0.376,0.03-0.565,0.102l-0.807,0.293c-0.668,0.245-1.082,0.875-1.082,1.548c0,0.184,0.031,0.373,0.097,0.555l0.842,2.308
		l-0.083,0.03l-3.178-8.717c-0.244-0.668-0.872-1.085-1.545-1.085c-0.185,0-0.378,0.031-0.566,0.103l-0.807,0.293
		c-0.668,0.244-1.082,0.875-1.081,1.547c0,0.185,0.031,0.376,0.098,0.561l5.389,14.798l-0.086,0.031l-0.966-2.652l-0.061-0.068
		c-0.001-0.001-1.599-1.793-1.691-1.894c-0.573-0.595-1.653-0.962-2.711-0.983c-0.557,0.003-1.132,0.118-1.565,0.529
		c-0.256,0.24-0.459,0.578-0.458,0.97c0.004,0.416,0.205,0.782,0.514,1.141c0.745,0.863,6.327,7.136,6.328,7.138
		c0.374,0.409,0.874,0.881,1.479,1.348l-0.001-0.001c0.426,0.387,1.396,1.034,2.326,1.732c0.919,0.662,1.79,1.475,1.835,1.705
		l0.158,0.433c0.048,0.133,0.109,0.253,0.177,0.36c0.356,0.566,0.974,0.901,1.63,0.901c0.218,0,0.437-0.038,0.648-0.112l8.683-3.16
		c0.778-0.287,1.261-1.022,1.261-1.806c0-0.089-0.006-0.176-0.017-0.261c-0.018-0.129-0.048-0.259-0.095-0.39l-0.192-0.528
		c-0.202-0.546-0.325-1.406-0.322-2.189c0-0.056,0-0.108,0.001-0.154c0.008-0.403,0.045-0.776,0.11-1.06l0.007-0.029l0.003-0.026
		c0.003-0.013,0.053-0.488,0.055-1.213c-0.001-0.889-0.078-2.156-0.438-3.412c-0.057-0.186-0.112-0.374-0.185-0.578
		c-0.782-2.146-2.674-7.349-2.677-7.356C24.859,19.047,24.23,18.633,23.559,18.633z M23.165,19.183L23.165,19.183L23.165,19.183
		L23.165,19.183z"/>
	<path d="M16.029,41.474c-0.094-0.147-0.18-0.316-0.246-0.499l0,0l-0.152-0.417c-0.012-0.015-0.029-0.037-0.052-0.064l0,0
		c-0.076-0.089-0.202-0.219-0.357-0.363l0,0c-0.313-0.291-0.742-0.646-1.188-0.966l0,0c-0.903-0.681-1.838-1.297-2.357-1.755l0,0
		c-0.628-0.488-1.147-0.977-1.523-1.391l0,0c-0.027-0.027-0.018-0.02-0.024-0.023l0,0l-0.003-0.002l-0.001-0.003l-0.001-0.001
		l-0.001-0.001l-0.003-0.002c-0.003-0.004-0.007-0.008-0.013-0.015l0,0c-0.011-0.012-0.026-0.03-0.047-0.053l0,0
		c-0.04-0.045-0.1-0.113-0.179-0.2l0,0c-0.154-0.175-0.374-0.423-0.643-0.724l0,0c-0.535-0.601-1.256-1.414-2-2.251l0,0
		c-1.491-1.678-3.067-3.457-3.449-3.901l0,0c-0.356-0.41-0.673-0.931-0.688-1.576l0,0c-0.001-0.013-0.001-0.025,0-0.037l0,0v-0.001
		c0.003-0.651,0.33-1.158,0.681-1.488l0,0c0.629-0.594,1.415-0.725,2.076-0.728l0,0c0.987,0.03,1.973,0.281,2.741,0.813l0,0
		l-3.307-9.081c-0.09-0.253-0.135-0.511-0.139-0.764l0,0c-0.001-0.015-0.002-0.03-0.002-0.042l0,0c0,0,0.001-0.001,0-0.001l0,0
		c0-0.966,0.597-1.869,1.556-2.219l0,0l0.796-0.29c0.276-0.106,0.557-0.15,0.823-0.15l0,0c0.97-0.001,1.871,0.601,2.222,1.557l0,0
		l1.607,4.409c0.239-0.243,0.534-0.438,0.875-0.563l0,0l0.798-0.29c0.278-0.105,0.558-0.149,0.82-0.149l0,0
		c0.618-0.001,1.21,0.245,1.649,0.672l0,0c0.264-0.339,0.624-0.61,1.058-0.767l0,0l0.8-0.291c0.248-0.092,0.5-0.138,0.743-0.146l0,0
		c0.033-0.004,0.059-0.004,0.076-0.001l0,0h0.003c0.852,0,1.648,0.467,2.066,1.229l0,0c0.243-0.254,0.547-0.458,0.899-0.588l0,0
		l0.338-0.124l0.473-0.172c0.267-0.096,0.54-0.142,0.806-0.142l0,0v0.72v0.099v-0.099v-0.72c0.966,0,1.868,0.597,2.217,1.539l0,0
		c0.017,0.044,1.897,5.217,2.684,7.375l0,0c0.082,0.23,0.141,0.431,0.201,0.624l0,0c0.386,1.354,0.463,2.68,0.466,3.612l0,0
		c-0.001,0.568-0.031,0.99-0.048,1.181l0,0c-0.008,0.074-0.004,0.062-0.013,0.124l0,0l-0.004,0.047l-0.01,0.043l-0.007,0.031
		c-0.048,0.209-0.085,0.546-0.091,0.916l0,0c-0.001,0.033-0.001,0.08-0.001,0.137l0,0v0.029l0,0
		c-0.003,0.697,0.122,1.504,0.279,1.914l0,0l0.193,0.531c0.065,0.181,0.106,0.361,0.132,0.544l0,0
		c0.013,0.11,0.022,0.227,0.022,0.35l0,0c0,1.077-0.664,2.087-1.735,2.483l0,0l-8.689,3.162c-0.287,0.101-0.587,0.153-0.888,0.153
		l0,0C17.364,42.708,16.515,42.248,16.029,41.474L16.029,41.474z M17.135,40.483c0.03,0.079,0.067,0.152,0.111,0.222l0,0
		c0.223,0.355,0.609,0.563,1.02,0.565l0,0c0.134,0,0.272-0.023,0.402-0.069l0,0l8.68-3.16c0.489-0.18,0.79-0.64,0.79-1.131l0,0
		c0-0.055-0.004-0.112-0.009-0.16l0,0c-0.013-0.088-0.033-0.168-0.06-0.245l0,0l-0.189-0.523c-0.245-0.674-0.364-1.559-0.368-2.415
		l0,0c0.001,0,0-0.005,0-0.023l0,0h0c0-0.058,0-0.114,0.001-0.17l0,0c0.01-0.432,0.046-0.837,0.125-1.189l0,0l0.002-0.017
		l0.001-0.005c0.001-0.011,0.002-0.026,0.004-0.045l0,0c0.004-0.051,0.01-0.128,0.017-0.227l0,0
		c0.012-0.198,0.025-0.484,0.025-0.826l0,0c0-0.849-0.077-2.057-0.407-3.203l0,0c-0.059-0.193-0.109-0.368-0.172-0.543l0,0
		c-0.759-2.08-2.557-7.028-2.672-7.341l0,0l0.071-0.026l-0.075,0.016c-0.141-0.382-0.497-0.613-0.872-0.613l0,0v-0.059v0.059
		c-0.092,0-0.19,0.014-0.284,0.045l0,0l-0.838,0.305c-0.348,0.128-0.571,0.435-0.606,0.774l0,0l0.003,0.008l-0.009,0.119
		c0.003,0.093,0.019,0.187,0.053,0.28l0,0l0.386,1.049l-1.44,0.519l-0.983-2.693c-0.133-0.363-0.461-0.589-0.813-0.61l0,0
		c-0.018,0.001-0.033,0.001-0.045,0l0,0h-0.009c-0.104,0-0.211,0.017-0.32,0.059l0,0L17.847,19.5
		c-0.378,0.137-0.609,0.493-0.61,0.866l0,0v0.001v0.003c0,0.085,0.012,0.175,0.038,0.262l0,0l0.019,0.063l0.748,2.061l-1.437,0.518
		l-1.086-2.982c-0.14-0.38-0.493-0.608-0.87-0.611l0,0c-0.107,0.001-0.21,0.018-0.32,0.059l0,0l-0.805,0.294
		c-0.378,0.138-0.61,0.494-0.61,0.872l0,0c0,0.102,0.017,0.21,0.052,0.308l0,0l1.09,2.987l-1.438,0.517l-3.422-9.39
		c-0.138-0.378-0.494-0.61-0.87-0.611l0,0c-0.104,0-0.21,0.018-0.32,0.06l0,0L7.2,15.068c-0.376,0.136-0.606,0.491-0.609,0.864l0,0
		c0,0.002,0,0.004,0,0.006l0,0v0.001c0,0.104,0.018,0.212,0.055,0.314l0,0l5.635,15.473l-1.438,0.526l-1.165-3.198
		c-0.011-0.011-0.023-0.026-0.038-0.043l0,0c-0.043-0.05-0.107-0.12-0.183-0.205l0,0c-0.151-0.17-0.353-0.398-0.559-0.627l0,0
		c-0.409-0.459-0.837-0.939-0.861-0.965l0,0c-0.353-0.391-1.304-0.758-2.189-0.763l0,0c-0.471,0.003-0.833,0.101-1.076,0.335l0,0
		c-0.148,0.139-0.227,0.296-0.231,0.425l0,0c0,0.005,0,0.01,0,0.015l0,0c0.002,0.174,0.084,0.376,0.34,0.675l0,0
		c0.728,0.845,6.308,7.116,6.315,7.123l0,0c-0.003-0.002-0.003-0.001-0.001,0l0,0c0.346,0.377,0.816,0.823,1.388,1.264l0,0
		l-0.326,0.423l0.369-0.387c0.338,0.313,1.332,0.984,2.263,1.681l0,0c0.732,0.529,1.403,1.113,1.784,1.549l0,0
		c0.113,0.155,0.215,0.223,0.304,0.495l0,0l0.002-0.001L17.135,40.483L17.135,40.483z M11.193,35.025
		c0.001,0.001,0.002,0.001,0.002,0.001l0,0C11.195,35.027,11.194,35.026,11.193,35.025L11.193,35.025z"/>
</g>
<g id="Layer_1">
</g>
</svg>
