<?xml version="1.0" encoding="iso-8859-1"?>
<!-- Generator: Adobe Illustrator 18.1.1, SVG Export Plug-In . SVG Version: 6.00 Build 0)  -->
<svg version="1.1" xmlns="http://www.w3.org/2000/svg" xmlns:xlink="http://www.w3.org/1999/xlink" x="0px" y="0px"
	 viewBox="0 0 26.477 36.631" style="enable-background:new 0 0 26.477 36.631;" xml:space="preserve">
<g id="Layer_3.svg">
	<polygon points="23.831,4.042 8.781,4.042 10.924,0 2.047,5.001 10.924,10.002 8.78,5.96 23.831,5.96 	"/>
	<path id="inner" fill="#FFFFFF" d="M7.563,29.434c0.371,0.406,0.866,0.874,1.463,1.337c0.45,0.403,1.415,1.047,2.34,1.742
		c0.919,0.662,1.79,1.474,1.835,1.705l0.158,0.433c0.048,0.132,0.108,0.252,0.176,0.36c0.357,0.567,0.977,0.901,1.631,0.901
		c0.218,0,0.437-0.038,0.649-0.112l8.682-3.16c0.78-0.287,1.261-1.024,1.261-1.809c0-0.087-0.005-0.173-0.017-0.257
		c-0.018-0.13-0.048-0.262-0.097-0.395l-0.192-0.526c-0.201-0.545-0.323-1.404-0.321-2.189c-0.001-0.056,0-0.108,0.001-0.155
		c0.008-0.402,0.045-0.773,0.111-1.057l0.005-0.027l0.004-0.029c0.001-0.013,0.054-0.486,0.054-1.21
		c-0.001-0.889-0.078-2.157-0.438-3.415c-0.057-0.185-0.111-0.374-0.186-0.581c-0.78-2.144-2.673-7.347-2.675-7.353
		c-0.248-0.667-0.876-1.082-1.548-1.081c-0.184-0.001-0.374,0.03-0.559,0.098l0,0l-0.812,0.296
		c-0.667,0.248-1.085,0.876-1.083,1.549c-0.001,0.184,0.03,0.374,0.098,0.559l0.136,0.366l-0.084,0.03l-0.739-2.022
		c-0.246-0.666-0.872-1.082-1.542-1.08c-0.185,0-0.378,0.031-0.566,0.102L14.5,12.747c-0.669,0.244-1.085,0.873-1.083,1.543
		c0,0.155,0.022,0.313,0.068,0.468v0.016l0.535,1.472l-0.086,0.031l-0.841-2.313c-0.246-0.665-0.874-1.08-1.545-1.08
		c-0.184,0-0.376,0.03-0.565,0.102l-0.807,0.293c-0.667,0.246-1.083,0.875-1.082,1.548c-0.001,0.184,0.03,0.373,0.098,0.557
		l0.841,2.308l-0.083,0.03L6.77,9.005C6.526,8.337,5.898,7.92,5.225,7.92c-0.185,0-0.378,0.031-0.565,0.102L3.853,8.316
		C3.185,8.56,2.77,9.19,2.771,9.861c0,0.185,0.031,0.375,0.098,0.56l5.39,14.799l-0.087,0.033l-0.965-2.652l-0.061-0.069
		c-0.001-0.001-1.601-1.795-1.691-1.894c-0.572-0.595-1.654-0.962-2.712-0.984c-0.557,0.004-1.132,0.119-1.563,0.531
		c-0.256,0.24-0.46,0.577-0.459,0.97c0.004,0.416,0.205,0.782,0.514,1.141C1.979,23.158,7.561,29.431,7.563,29.434z M20.065,13.105
		L20.065,13.105L20.065,13.105L20.065,13.105z"/>
	<path d="M12.924,35.391c-0.094-0.149-0.176-0.314-0.243-0.495l0,0l-0.152-0.417c-0.011-0.015-0.029-0.037-0.05-0.063l0,0
		c-0.076-0.089-0.202-0.217-0.359-0.362l0,0c-0.312-0.291-0.742-0.646-1.187-0.966l0,0c-0.9-0.676-1.832-1.293-2.368-1.763l0,0
		c-0.622-0.483-1.138-0.972-1.535-1.404l0,0l0.532-0.486l0.664-0.277l-0.664,0.277l-0.532,0.486l-0.085-0.094L6.944,29.82
		c-0.04-0.044-0.094-0.105-0.161-0.181l0,0c-0.154-0.173-0.376-0.421-0.643-0.722l0,0c-0.536-0.602-1.257-1.413-2.002-2.252l0,0
		c-1.49-1.678-3.068-3.457-3.45-3.9l0,0c-0.353-0.407-0.666-0.923-0.686-1.559l0,0C0.001,21.188,0,21.169,0,21.15l0,0v-0.001
		c0.004-0.652,0.334-1.158,0.682-1.485l0,0c0.627-0.595,1.414-0.725,2.076-0.73l0,0c0.987,0.031,1.973,0.282,2.742,0.813l0,0
		l-3.307-9.081c-0.096-0.266-0.141-0.538-0.141-0.803l0,0l0,0c0-0.001,0-0.003,0-0.004l0,0V9.857C2.05,8.891,2.65,7.989,3.607,7.64
		l0,0l0.799-0.292C4.68,7.245,4.959,7.2,5.225,7.199l0,0c0.97,0,1.871,0.603,2.221,1.558l0,0l1.608,4.409
		c0.239-0.243,0.535-0.438,0.876-0.564l0,0l0.797-0.29c0.279-0.105,0.558-0.149,0.82-0.149l0,0c0.62,0,1.211,0.245,1.65,0.672l0,0
		c0.264-0.339,0.624-0.61,1.057-0.767l0,0l0.798-0.29c0.25-0.095,0.502-0.14,0.746-0.148l0,0c0.033-0.004,0.059-0.005,0.076-0.001
		l0,0h0.001c0.853-0.001,1.649,0.467,2.068,1.23l0,0c0.244-0.254,0.547-0.458,0.899-0.589l0,0l0.693-0.252l0.113-0.042
		c0.245-0.092,0.494-0.137,0.734-0.143l0,0c0.047-0.006,0.082-0.004,0.106-0.002l0,0c0.956,0.011,1.842,0.608,2.189,1.539l0,0
		c0.017,0.044,1.899,5.216,2.681,7.369l0,0c0.087,0.237,0.145,0.442,0.202,0.63l0,0c0.387,1.355,0.464,2.682,0.467,3.613l0,0
		c0,0.756-0.055,1.259-0.06,1.303l0,0l-0.006,0.051l-0.005,0.025l-0.01,0.051c-0.05,0.207-0.085,0.543-0.093,0.926l0,0
		c-0.001,0.018-0.001,0.044-0.001,0.073l0,0c0,0.002,0,0.013,0,0.03l0,0l0.001,0.044l-0.001,0.016
		c-0.002,0.695,0.124,1.496,0.278,1.902l0,0l0.192,0.527c0.068,0.186,0.109,0.369,0.133,0.54l0,0
		c0.017,0.122,0.023,0.241,0.025,0.357l0,0c0,1.077-0.662,2.089-1.734,2.486l0,0l-8.692,3.163c-0.286,0.099-0.584,0.153-0.885,0.153
		l0,0C14.265,36.631,13.415,36.172,12.924,35.391L12.924,35.391z M14.033,34.402c0.031,0.083,0.068,0.157,0.11,0.223l0,0
		c0.224,0.356,0.611,0.565,1.022,0.566l0,0c0.134-0.001,0.272-0.023,0.403-0.069l0,0l8.679-3.159
		c0.489-0.179,0.789-0.641,0.79-1.133l0,0c0-0.059-0.004-0.112-0.01-0.157l0,0c-0.012-0.09-0.031-0.171-0.06-0.249l0,0l-0.19-0.523
		c-0.242-0.672-0.362-1.557-0.365-2.414l0,0c0,0-0.001-0.006,0-0.025l0,0c0-0.014-0.001-0.03-0.001-0.049l0,0
		c0-0.047,0.001-0.093,0.003-0.12l0,0c0.009-0.437,0.046-0.845,0.124-1.183l0,0l0.002-0.009c0.009-0.087,0.048-0.504,0.048-1.115
		l0,0c-0.001-0.848-0.077-2.056-0.406-3.204l0,0c-0.061-0.197-0.111-0.37-0.176-0.547l0,0c-0.755-2.078-2.556-7.025-2.669-7.336l0,0
		l0.048-0.018l-0.048,0.018l0.048-0.018l-0.052,0.007c-0.097-0.26-0.292-0.449-0.525-0.544l0,0l-0.403-0.067
		c-0.072,0.004-0.143,0.015-0.213,0.037l0,0l-0.855,0.312c-0.332,0.122-0.551,0.407-0.603,0.726l0,0l0.001,0.003l-0.013,0.174
		c0.002,0.092,0.019,0.187,0.053,0.28l0,0l0.389,1.048l-1.442,0.517l-0.983-2.692c-0.134-0.363-0.461-0.589-0.813-0.61l0,0
		c-0.018,0.001-0.033,0.001-0.045,0l0,0h-0.009c-0.105,0-0.212,0.018-0.319,0.059l0,0l-0.806,0.293
		c-0.38,0.137-0.61,0.492-0.61,0.864l0,0v0.001v0.002c0,0.088,0.012,0.178,0.038,0.262l0,0l0.02,0.067l0.746,2.056l-1.44,0.524
		l-1.083-2.985c-0.141-0.378-0.495-0.611-0.871-0.611l0,0c-0.106,0-0.209,0.017-0.318,0.059l0,0l-0.805,0.292
		c-0.359,0.132-0.585,0.456-0.609,0.808l0,0l0.003,0.015l-0.005,0.073c0.001,0.093,0.019,0.188,0.055,0.287l0,0l1.089,2.986
		L9.518,18.64L6.093,9.251C5.957,8.872,5.6,8.64,5.225,8.638l0,0c-0.104,0-0.211,0.018-0.318,0.059l0,0L4.1,8.992
		C3.722,9.129,3.492,9.484,3.491,9.857l0,0v0.001v0.004c0,0.103,0.018,0.211,0.055,0.313l0,0l5.633,15.469l-1.436,0.538
		l-1.166-3.205c-0.01-0.012-0.023-0.026-0.038-0.043l0,0c-0.044-0.05-0.107-0.12-0.184-0.206l0,0
		c-0.151-0.17-0.353-0.396-0.559-0.627l0,0c-0.411-0.459-0.837-0.938-0.86-0.963l0,0c-0.352-0.391-1.305-0.758-2.188-0.764l0,0
		c-0.472,0.004-0.834,0.102-1.076,0.336l0,0c-0.152,0.141-0.23,0.301-0.232,0.427l0,0v0.011c0.001,0.175,0.082,0.377,0.339,0.677
		l0,0c0.737,0.854,6.283,7.086,6.332,7.142l0,0c0,0,0,0,0,0h0c0.341,0.37,0.801,0.805,1.356,1.235l0,0l0.022,0.018l0.017,0.014
		c0.368,0.335,1.352,0.999,2.281,1.694l0,0c0.732,0.529,1.403,1.112,1.783,1.549l0,0c0.114,0.155,0.216,0.222,0.305,0.495l0,0
		l0.002-0.001L14.033,34.402L14.033,34.402z M7.018,29.904c0,0-0.001-0.001-0.001-0.001l0,0C7.017,29.903,7.017,29.903,7.018,29.904
		L7.018,29.904z"/>
</g>
<g id="Layer_1">
</g>
</svg>
