<?xml version="1.0" encoding="iso-8859-1"?>
<!-- Generator: Adobe Illustrator 18.1.1, SVG Export Plug-In . SVG Version: 6.00 Build 0)  -->
<svg version="1.1" xmlns="http://www.w3.org/2000/svg" xmlns:xlink="http://www.w3.org/1999/xlink" x="0px" y="0px"
	 viewBox="0 0 31.656 34.55" style="enable-background:new 0 0 31.656 34.55;" xml:space="preserve">
<g id="Layer_17.svg">
	<path d="M5.606,19.865c-0.112-0.238-0.183-0.498-0.186-0.789c-0.004-0.52,0.255-0.961,0.541-1.252V6.733l1.527,0.811
		C7.557,6.938,7.885,6.384,8.4,6.033L5.001,0L0,8.877l4.042-2.144v13.132H5.606z"/>
	<path id="inner" fill="#FFFFFF" d="M25.637,10.476c-0.184,0-0.374,0.031-0.559,0.099v0l-0.811,0.296
		c-0.668,0.246-1.085,0.876-1.084,1.549c0,0.184,0.031,0.373,0.097,0.557l0.136,0.369l-0.083,0.03l-0.738-2.024
		c-0.246-0.665-0.872-1.081-1.543-1.08c-0.185,0-0.378,0.031-0.566,0.102l-0.806,0.293c-0.669,0.244-1.084,0.874-1.084,1.544
		c0,0.154,0.022,0.311,0.068,0.466v0.018l0.535,1.472l-0.086,0.03l-0.841-2.312c-0.246-0.665-0.874-1.08-1.545-1.08
		c-0.184,0-0.376,0.03-0.565,0.102L15.355,11.2c-0.669,0.245-1.083,0.875-1.083,1.548c0,0.184,0.031,0.373,0.098,0.555l0.842,2.308
		l-0.085,0.03L11.95,6.925c-0.244-0.668-0.872-1.085-1.545-1.085c-0.185,0-0.378,0.031-0.566,0.103L9.031,6.236
		C8.364,6.48,7.949,7.111,7.95,7.782c0,0.185,0.031,0.376,0.098,0.562l5.389,14.798l-0.086,0.031l-0.966-2.651l-0.061-0.069
		c0-0.001-1.601-1.795-1.689-1.893c-0.574-0.596-1.656-0.963-2.714-0.984c-0.557,0.003-1.132,0.118-1.563,0.529
		c-0.256,0.24-0.46,0.578-0.458,0.97c0.003,0.415,0.203,0.781,0.511,1.141c0.746,0.863,6.328,7.136,6.331,7.138
		c0.372,0.408,0.87,0.878,1.471,1.343c0.479,0.423,1.424,1.055,2.331,1.735c0.919,0.662,1.792,1.475,1.835,1.705l0.158,0.433
		c0.048,0.13,0.108,0.25,0.176,0.36c0.357,0.567,0.977,0.901,1.631,0.901c0.218,0,0.437-0.038,0.649-0.112l8.682-3.16
		c0.778-0.286,1.261-1.022,1.261-1.806c0-0.089-0.007-0.175-0.017-0.26c-0.018-0.13-0.048-0.262-0.098-0.395l-0.19-0.524
		c-0.201-0.546-0.323-1.406-0.322-2.19c0-0.056,0.001-0.107,0.003-0.153c0.008-0.403,0.044-0.774,0.111-1.059l0.005-0.029
		l0.004-0.027c0.001-0.013,0.053-0.488,0.053-1.213c-0.001-0.889-0.078-2.156-0.438-3.412c-0.057-0.186-0.111-0.374-0.186-0.58
		c-0.78-2.144-2.673-7.346-2.676-7.353C26.937,10.89,26.31,10.476,25.637,10.476z"/>
	<path d="M18.1,33.309c-0.091-0.147-0.172-0.312-0.24-0.491l0,0l-0.155-0.423c-0.012-0.015-0.028-0.035-0.048-0.059l0,0
		c-0.076-0.087-0.202-0.218-0.358-0.361l0,0c-0.313-0.291-0.743-0.646-1.188-0.966l0,0c-0.884-0.665-1.807-1.277-2.361-1.759l0,0
		c-0.626-0.485-1.144-0.975-1.543-1.41l0,0l0.001,0l-0.003-0.003l-0.005-0.005c-0.003-0.004-0.007-0.009-0.013-0.014l0,0
		c-0.011-0.013-0.026-0.03-0.047-0.053l0,0c-0.042-0.047-0.102-0.115-0.179-0.201l0,0c-0.155-0.173-0.376-0.423-0.644-0.724l0,0
		c-0.535-0.601-1.256-1.414-2.002-2.251l0,0c-1.491-1.678-3.067-3.457-3.452-3.902l0,0c-0.359-0.418-0.68-0.947-0.685-1.606l0,0h0
		c0-0.012,0-0.021,0-0.023l0,0h0c0.008-0.646,0.335-1.147,0.681-1.471l0,0c0.627-0.595,1.415-0.726,2.075-0.729l0,0
		c0.985,0.03,1.972,0.28,2.742,0.812l0,0L7.37,8.586C7.275,8.322,7.231,8.052,7.23,7.788l0,0c0,0,0-0.001,0-0.002l0,0
		c0-0.001,0-0.003,0-0.004l0,0l0,0c0-0.001,0-0.002,0-0.003l0,0V7.777c0-0.965,0.597-1.866,1.555-2.217l0,0l0.797-0.29
		c0.276-0.106,0.557-0.15,0.823-0.15l0,0c0.969-0.001,1.871,0.601,2.221,1.557l0,0l1.608,4.409c0.239-0.243,0.534-0.438,0.875-0.563
		l0,0l0.797-0.29c0.279-0.105,0.558-0.149,0.82-0.149l0,0c0.62-0.001,1.212,0.245,1.65,0.673l0,0
		c0.264-0.338,0.624-0.61,1.057-0.768l0,0l0.8-0.291c0.248-0.093,0.5-0.139,0.744-0.146l0,0c0.033-0.004,0.059-0.004,0.076-0.001
		l0,0h0.001c0.852,0,1.648,0.467,2.067,1.229l0,0c0.243-0.254,0.547-0.458,0.898-0.588l0,0l0.338-0.123V10.07l0.473-0.172
		c0.267-0.096,0.541-0.142,0.806-0.142l0,0v0.72v0.099v-0.099v-0.72c0.969-0.001,1.869,0.598,2.209,1.518l0,0
		c0.013,0.032,0.009,0.025,0.013,0.032l0,0l0.001,0.004l0.001,0.004c0.001,0.003,0.003,0.008,0.005,0.013l0,0
		c0.004,0.009,0.009,0.025,0.016,0.044l0,0c0.014,0.039,0.035,0.097,0.063,0.17l0,0c0.054,0.148,0.131,0.36,0.226,0.621l0,0
		c0.19,0.522,0.451,1.24,0.737,2.026l0,0c0.571,1.569,1.239,3.405,1.629,4.475l0,0c0.086,0.238,0.144,0.442,0.202,0.63l0,0
		c0.388,1.354,0.464,2.68,0.467,3.611l0,0c0,0.751-0.057,1.275-0.057,1.277l0,0l-0.001,0.018l-0.003,0.021l-0.008,0.051
		l-0.013,0.065c-0.049,0.208-0.086,0.543-0.093,0.917l0,0c-0.001,0.044-0.003,0.086-0.003,0.132l0,0v0.004c0,0.004,0,0.01,0,0.017
		l0,0v0.037v0c0.002,0.693,0.126,1.481,0.279,1.885l0,0l0.189,0.519c0.07,0.189,0.112,0.374,0.137,0.557l0,0
		c0.013,0.107,0.023,0.224,0.023,0.348l0,0c0,1.077-0.664,2.088-1.736,2.483l0,0l-8.689,3.162c-0.286,0.101-0.586,0.153-0.887,0.153
		l0,0C19.445,34.55,18.594,34.091,18.1,33.309L18.1,33.309z M19.211,32.321c0.031,0.083,0.069,0.159,0.111,0.227l0,0
		c0.223,0.355,0.612,0.563,1.022,0.565l0,0c0.133-0.001,0.271-0.023,0.403-0.069l0,0l8.679-3.16c0.488-0.179,0.789-0.64,0.79-1.131
		l0,0c0-0.053-0.004-0.11-0.011-0.159l0,0c-0.013-0.09-0.031-0.168-0.061-0.251l0,0l-0.189-0.522
		c-0.244-0.676-0.364-1.568-0.366-2.428l0,0l-0.001-0.005c0.001-0.008,0.001-0.019,0.001-0.034l0,0c0-0.056,0.001-0.103,0.003-0.136
		l0,0c0.009-0.439,0.046-0.848,0.121-1.174l0,0l0.003-0.006l0-0.001c0.008-0.082,0.048-0.493,0.049-1.132l0,0
		c-0.001-0.849-0.077-2.057-0.406-3.202l0,0c-0.061-0.197-0.111-0.369-0.176-0.546l0,0c-0.776-2.132-2.66-7.312-2.673-7.347l0,0
		c0.003,0.007,0,0-0.001-0.001l0,0c-0.141-0.382-0.494-0.612-0.872-0.613l0,0v-0.059v0.059c-0.091,0-0.187,0.014-0.28,0.044l0,0
		l-0.841,0.307c-0.381,0.14-0.613,0.496-0.613,0.87l0,0v0.004c0,0.102,0.017,0.21,0.052,0.308l0,0l0.386,1.049l-1.44,0.519
		l-0.982-2.693c-0.133-0.362-0.462-0.589-0.813-0.61l0,0c-0.018,0.001-0.033,0.001-0.045,0l0,0h-0.009
		c-0.104,0-0.212,0.018-0.321,0.059l0,0l-0.805,0.292c-0.378,0.137-0.61,0.493-0.61,0.869l0,0c0,0.083,0.012,0.172,0.039,0.263l0,0
		l0.02,0.07l0.749,2.061l-1.446,0.504l-1.082-2.975c-0.14-0.378-0.494-0.609-0.87-0.611l0,0c-0.106,0.001-0.209,0.018-0.318,0.059
		l0,0l-0.804,0.294c-0.38,0.138-0.611,0.494-0.612,0.872l0,0c0,0.102,0.018,0.209,0.055,0.308l0,0l1.091,2.992l-1.442,0.51
		l-3.422-9.387c-0.137-0.378-0.493-0.61-0.868-0.611l0,0c-0.104,0-0.21,0.018-0.321,0.06l0,0L9.278,6.911
		C8.902,7.048,8.67,7.405,8.67,7.777l0,0v0.001v0.003c0,0.104,0.017,0.214,0.053,0.315l0,0l5.635,15.473l-1.438,0.526l-1.164-3.198
		c-0.009-0.01-0.019-0.022-0.031-0.036l0,0l-0.016-0.018c-0.044-0.048-0.103-0.116-0.173-0.195l0,0
		c-0.151-0.169-0.355-0.396-0.561-0.627l0,0c-0.411-0.462-0.833-0.934-0.858-0.963l0,0c-0.353-0.392-1.307-0.759-2.191-0.764l0,0
		c-0.471,0.003-0.835,0.101-1.076,0.335l0,0c-0.148,0.139-0.227,0.297-0.23,0.423l0,0c0,0,0,0,0,0.001l0,0h0l0,0l0,0l0,0h0
		c0,0.005,0,0.009,0,0.013l0,0c0,0.001,0,0.003,0,0.004l0,0c0,0.171,0.081,0.374,0.336,0.674l0,0
		c0.679,0.786,5.601,6.319,6.243,7.04l0,0l0.076,0.083c0.34,0.376,0.811,0.82,1.378,1.26l0,0l0.022,0.017l0.013,0.012
		c0.407,0.361,1.366,1.01,2.277,1.691l0,0c0.73,0.529,1.403,1.111,1.784,1.551l0,0c0.112,0.153,0.214,0.221,0.303,0.493l0,0l0.002,0
		L19.211,32.321L19.211,32.321z M13.265,26.859c-0.001-0.001-0.002-0.002-0.007-0.007l0,0
		C13.262,26.855,13.264,26.858,13.265,26.859L13.265,26.859z M6.62,19.054L6.62,19.054L6.62,19.054L6.62,19.054L6.62,19.054z"/>
</g>
<g id="Layer_1">
</g>
</svg>
