<?xml version="1.0" encoding="iso-8859-1"?>
<!-- Generator: Adobe Illustrator 18.1.1, SVG Export Plug-In . SVG Version: 6.00 Build 0)  -->
<svg version="1.1" xmlns="http://www.w3.org/2000/svg" xmlns:xlink="http://www.w3.org/1999/xlink" x="0px" y="0px"
	 viewBox="0 0 24.091 36.962" style="enable-background:new 0 0 24.091 36.962;" xml:space="preserve">
<g id="Layer_45.svg">
	<path d="M6.009,12.419l0-2.185C4.81,9.413,4.024,8.036,4.021,6.475c0.004-2.517,2.04-4.552,4.556-4.556
		c2.516,0.004,4.55,2.039,4.556,4.556c-0.003,1.573-0.801,2.959-2.014,3.778l0.001,2.178c2.311-0.99,3.931-3.283,3.932-5.956
		C15.052,2.898,12.154,0.001,8.578,0C5.001,0.001,2.103,2.898,2.102,6.475C2.103,9.137,3.711,11.424,6.009,12.419z"/>
	<path id="inner" fill="#FFFFFF" d="M4.395,27.44c0.212,0.513,0.519,1.125,0.925,1.769c0.275,0.519,0.963,1.455,1.596,2.425
		c0.637,0.936,1.178,1.997,1.141,2.23v0.46c0,0.139,0.015,0.274,0.044,0.402c0.186,0.866,0.953,1.514,1.875,1.517h9.236
		c0.921-0.003,1.689-0.651,1.876-1.52c0.027-0.125,0.044-0.259,0.044-0.399v-0.559c-0.003-0.622,0.202-1.547,0.502-2.317
		c0.143-0.369,0.305-0.707,0.464-0.952l0.017-0.025l0.011-0.023c0.012-0.031,1.051-2.112,1.222-4.479
		c0.008-0.194,0.022-0.389,0.022-0.606c0-2.284,0-7.819,0.001-7.827c-0.005-0.907-0.735-1.64-1.642-1.643h-0.866
		c-0.908,0.003-1.643,0.735-1.648,1.641l0.001,0.394h-0.089l-0.001-2.154c-0.004-0.908-0.736-1.641-1.642-1.641h-0.862
		c-0.868,0-1.573,0.667-1.64,1.512l-0.008,0.015l-0.003,1.597h-0.09v-2.46c-0.004-0.906-0.735-1.639-1.642-1.642h-0.866
		c-0.907,0.003-1.639,0.735-1.644,1.639l0.003,2.457h-0.09l-0.005-9.279c0-0.907-0.734-1.645-1.64-1.645H8.132
		c-0.909,0-1.642,0.737-1.644,1.643l0.003,15.75H6.398v-2.823l-0.034-0.083c0-0.001-0.891-2.235-0.942-2.357
		c-0.217-0.509-0.677-0.956-1.24-1.346c-0.565-0.38-1.228-0.682-1.912-0.689c-0.236,0-0.48,0.04-0.713,0.145
		c-0.456,0.175-0.859,0.645-0.838,1.205c0,0.257,0.062,0.516,0.168,0.797C1.296,19.635,4.394,27.438,4.395,27.44z"/>
	<path d="M9.975,36.962c-1.267-0.005-2.322-0.893-2.576-2.081l0,0c-0.04-0.179-0.062-0.365-0.062-0.558l0,0V33.88
		c-0.007-0.024-0.021-0.063-0.04-0.11l0,0c-0.045-0.117-0.122-0.281-0.218-0.468l0,0c-0.193-0.374-0.466-0.836-0.764-1.274l0,0
		c-0.62-0.951-1.288-1.853-1.623-2.466l0,0c-0.414-0.661-0.73-1.288-0.955-1.83l0,0c-0.002-0.003-0.002-0.006-0.003-0.007l0,0
		c-0.002-0.004-0.003-0.008-0.005-0.012l0,0L3.727,27.71v-0.002l-0.001-0.003l-0.001-0.005c-0.003-0.002-0.004-0.009-0.008-0.016
		l0,0c-0.005-0.015-0.014-0.036-0.026-0.066l0,0c-0.023-0.058-0.056-0.143-0.099-0.249l0,0c-0.086-0.217-0.209-0.526-0.357-0.9l0,0
		c-0.297-0.749-0.697-1.759-1.11-2.8l0,0c-0.826-2.086-1.7-4.297-1.909-4.845l0,0c-0.123-0.325-0.212-0.668-0.215-1.035l0,0
		C0,17.759,0,17.737,0,17.727l0,0c0.017-0.898,0.6-1.549,1.279-1.824l0,0c0.339-0.149,0.682-0.202,1-0.202l0,0
		c0.894,0.013,1.673,0.388,2.314,0.817l0,0c0.445,0.312,0.862,0.665,1.177,1.106l0,0L5.769,7.968c0.003-1.3,1.055-2.36,2.364-2.361
		l0,0h0.866c1.305,0.001,2.359,1.061,2.359,2.364l0,0l0.003,4.694c0.307-0.147,0.651-0.229,1.015-0.23l0,0h0.868
		c0.936,0.003,1.742,0.549,2.123,1.339l0,0c0.364-0.228,0.794-0.359,1.257-0.359l0,0l0.862-0.001
		c1.182,0.001,2.159,0.871,2.333,2.006l0,0c0.315-0.156,0.67-0.243,1.045-0.245l0,0h0.868c1.303,0.004,2.352,1.06,2.359,2.359l0,0
		v0.07c0,0.041,0,0.101,0,0.179l0,0c0,0.156-0.001,0.383-0.001,0.659l0,0c0,0.557,0,1.321,0,2.156l0,0c0,1.67,0,3.625,0,4.766l0,0
		c0,0.249-0.015,0.458-0.023,0.658l0,0c-0.173,2.381-1.149,4.433-1.273,4.699l0,0l-0.005,0.014L22.77,30.77l-0.032,0.064
		l-0.026,0.037l-0.01,0.017c-0.118,0.18-0.267,0.484-0.397,0.822l0,0c-0.27,0.677-0.456,1.554-0.454,2.032l0,0v0.001v0.01v0.011
		v0.559c0,0.198-0.023,0.383-0.059,0.551l0,0c-0.256,1.194-1.312,2.083-2.58,2.088l0,0H9.975L9.975,36.962z M8.778,34.324
		c0,0.086,0.009,0.168,0.027,0.251l0,0c0.117,0.541,0.596,0.948,1.172,0.949l0,0h9.235c0.577-0.001,1.056-0.409,1.174-0.952l0,0
		c0.017-0.081,0.027-0.164,0.027-0.248l0,0v-0.559l0,0c0-0.003,0-0.008,0-0.011l0,0c0.005-0.768,0.225-1.719,0.55-2.566l0,0
		c0.153-0.392,0.323-0.755,0.523-1.068l0,0c0.001-0.002,0.002-0.005,0.004-0.008l0,0c0.009-0.017,0.019-0.04,0.033-0.069l0,0
		c0.027-0.059,0.067-0.147,0.114-0.258l0,0c0.096-0.223,0.226-0.542,0.36-0.933l0,0c0.27-0.78,0.555-1.839,0.632-2.91l0,0
		c0.009-0.21,0.022-0.393,0.022-0.578l0,0c0-2.234-0.001-7.508,0.001-7.831l0,0c-0.008-0.511-0.418-0.916-0.922-0.919l0,0h-0.863
		c-0.514,0.003-0.929,0.417-0.931,0.919l0,0l0.005,1.117h-1.531l-0.001-2.872c-0.003-0.514-0.414-0.923-0.921-0.923l0,0h-0.862
		c-0.491-0.001-0.885,0.375-0.924,0.849l0,0l-0.005,0.072l-0.004,2.202h-1.528v-3.176c-0.003-0.513-0.414-0.924-0.923-0.926l0,0
		h-0.863c-0.513,0.003-0.924,0.414-0.927,0.92l0,0l0.004,3.177h-1.53l-0.005-10c-0.001-0.51-0.414-0.923-0.92-0.925l0,0L8.133,7.047
		C7.621,7.046,7.209,7.461,7.208,7.97l0,0L7.21,24.439H5.679v-3.402c-0.006-0.014-0.013-0.032-0.022-0.054l0,0
		c-0.024-0.062-0.059-0.149-0.101-0.254l0,0c-0.084-0.212-0.197-0.496-0.311-0.782l0,0c-0.229-0.571-0.468-1.168-0.483-1.208l0,0
		c-0.127-0.311-0.482-0.691-0.98-1.031l0,0c-0.497-0.338-1.044-0.567-1.51-0.567l0,0c-0.157,0-0.294,0.026-0.415,0.082l0,0
		L1.836,17.23l-0.019,0.008c-0.201,0.071-0.393,0.316-0.376,0.489l0,0H1.44l0.001,0.015v0.029c0,0.14,0.035,0.311,0.122,0.542l0,0
		c0.384,1.007,3.262,8.257,3.487,8.825l0,0l0.003,0.005l0.009,0.022c0.194,0.473,0.484,1.051,0.869,1.66l0,0l0.015,0.024
		l0.012,0.022c0.22,0.423,0.92,1.387,1.556,2.358l0,0c0.488,0.722,0.91,1.476,1.124,2.01l0,0c0.07,0.193,0.131,0.321,0.143,0.599
		l0,0c0,0.018,0,0.034-0.001,0.047l0,0V34.324L8.778,34.324z M4.395,27.44l0.644-0.321L4.395,27.44L4.395,27.44z M5.058,27.16
		L5.058,27.16c-0.001-0.003-0.001-0.004-0.002-0.006l0,0C5.056,27.156,5.057,27.158,5.058,27.16L5.058,27.16z M5.689,21.063
		l0.004,0.008c-0.001-0.002-0.003-0.006-0.005-0.012l0,0C5.688,21.06,5.689,21.061,5.689,21.063L5.689,21.063z"/>
</g>
<g id="Layer_1">
</g>
</svg>
