<?xml version="1.0" encoding="iso-8859-1"?>
<!-- Generator: Adobe Illustrator 18.1.1, SVG Export Plug-In . SVG Version: 6.00 Build 0)  -->
<svg version="1.1" xmlns="http://www.w3.org/2000/svg" xmlns:xlink="http://www.w3.org/1999/xlink" x="0px" y="0px"
	 viewBox="0 0 24.089 36.885" style="enable-background:new 0 0 24.089 36.885;" xml:space="preserve">
<g id="Layer_43.svg">
	<path d="M5.045,3.518L3.559,2.303C3.087,2.881,2.714,3.54,2.462,4.26l1.812,0.633C4.45,4.388,4.713,3.924,5.045,3.518z"/>
	<path d="M4.309,7.999C4.129,7.517,4.026,6.996,4.02,6.45l-1.92,0.022C2.11,7.244,2.255,7.988,2.513,8.674L4.309,7.999L4.309,7.999z
		"/>
	<path d="M5.252,0.839l0.987,1.646c0.447-0.268,0.942-0.46,1.471-0.561L7.348,0.037C6.595,0.184,5.888,0.458,5.252,0.839z"/>
	<path d="M14.613,4.052c-0.275-0.709-0.671-1.356-1.162-1.916l-1.444,1.263c0.346,0.395,0.625,0.852,0.818,1.348L14.613,4.052z"/>
	<path d="M15.05,6.25l-1.92,0.042h0.001c0,0.036,0.001,0.07,0.001,0.105c0,0.548-0.096,1.069-0.271,1.554l1.803,0.654
		c0.251-0.69,0.387-1.436,0.387-2.208C15.051,6.347,15.051,6.299,15.05,6.25z"/>
	<path d="M9.586,0L9.289,1.896c0.533,0.084,1.034,0.26,1.489,0.513l0.93-1.68C11.061,0.37,10.345,0.12,9.586,0z"/>
	<path d="M11.117,10.176l0,0.588l0.718,1.229c0.652-0.38,1.229-0.87,1.71-1.445l-1.472-1.23
		C11.798,9.647,11.475,9.935,11.117,10.176z"/>
	<path d="M5.112,9.357l-1.459,1.246c0.487,0.571,1.071,1.054,1.728,1.427l0.627-1.103l0-0.767C5.675,9.933,5.373,9.662,5.112,9.357z
		"/>
	<path id="inner" fill="#FFFFFF" d="M4.394,27.363c0.21,0.508,0.515,1.113,0.916,1.752c0.294,0.548,0.978,1.478,1.606,2.442
		c0.637,0.936,1.178,1.997,1.141,2.23v0.46c0,0.14,0.017,0.275,0.044,0.399c0.186,0.869,0.954,1.517,1.876,1.52h9.236
		c0.921-0.003,1.689-0.651,1.875-1.52c0.028-0.126,0.044-0.261,0.044-0.399v-0.559c-0.003-0.622,0.203-1.547,0.502-2.317
		c0.144-0.369,0.306-0.707,0.465-0.952l0.015-0.025l0.012-0.023c0.011-0.031,1.052-2.112,1.221-4.479
		c0.009-0.194,0.023-0.389,0.023-0.606c0-2.284,0-7.819,0-7.827c-0.004-0.907-0.735-1.64-1.64-1.643l-0.001,0.48l0,0v-0.48h-0.866
		c-0.908,0.003-1.643,0.735-1.647,1.641l0.001,0.394h-0.089l-0.003-2.633c-0.003-0.909-0.736-1.643-1.642-1.643l-0.862,0.001
		c-0.881-0.001-1.593,0.687-1.643,1.548l-0.005,0.016l-0.003,2.04h-0.09v-2.94c-0.004-0.906-0.735-1.639-1.642-1.64h-0.865
		c-0.907,0.001-1.64,0.733-1.646,1.638l0.003,2.939h-0.09l-0.005-9.281c0-0.907-0.733-1.645-1.641-1.645H8.132
		c-0.911,0-1.642,0.737-1.646,1.643l0.003,15.751H6.396v-2.825l-0.033-0.083c0-0.001-0.89-2.235-0.94-2.357
		c-0.217-0.509-0.677-0.956-1.24-1.346c-0.566-0.38-1.229-0.682-1.911-0.689c-0.236,0-0.482,0.04-0.714,0.145
		c-0.456,0.175-0.858,0.645-0.836,1.205c0,0.257,0.062,0.516,0.168,0.797C1.294,19.558,4.394,27.36,4.394,27.363z"/>
	<path d="M9.972,36.885c-1.264-0.005-2.321-0.894-2.576-2.088l0,0c-0.037-0.168-0.06-0.353-0.06-0.551l0,0v-0.444
		c-0.007-0.024-0.021-0.063-0.04-0.11l0,0c-0.045-0.117-0.122-0.281-0.218-0.468l0,0c-0.193-0.374-0.466-0.836-0.766-1.276l0,0
		c-0.608-0.936-1.273-1.832-1.622-2.468l0,0c-0.418-0.666-0.737-1.299-0.961-1.845l0,0l-0.006-0.014H3.722l-0.001-0.002l0.001,0l0,0
		l0,0c-0.001-0.004-0.004-0.008-0.006-0.015l0,0c0-0.001-0.001-0.001-0.001-0.002l0,0c0,0.001,0.001,0.002,0.001,0.003l0,0
		l-0.041-0.1v-0.004c-0.022-0.055-0.05-0.126-0.083-0.212l0,0c-0.086-0.216-0.208-0.524-0.357-0.899l0,0
		c-0.297-0.748-0.696-1.758-1.11-2.8l0,0c-0.826-2.086-1.7-4.297-1.908-4.845l0,0c-0.123-0.321-0.21-0.66-0.214-1.023l0,0
		C0,17.687,0,17.66,0,17.649l0,0c0.015-0.897,0.597-1.549,1.277-1.824l0,0c0.339-0.151,0.684-0.202,1.001-0.202l0,0
		c0.894,0.013,1.672,0.388,2.315,0.817l0,0c0.444,0.311,0.86,0.663,1.174,1.102l0,0L5.766,7.889c0.005-1.299,1.056-2.36,2.365-2.36
		l0,0h0.864c1.307,0.001,2.36,1.061,2.36,2.364l0,0l0.002,4.215c0.308-0.147,0.652-0.229,1.017-0.23l0,0h0.864
		c0.938,0.001,1.744,0.546,2.126,1.335l0,0c0.363-0.227,0.792-0.359,1.254-0.359l0,0c0.009,0,0.017,0.001,0.026,0.001l0,0
		l0.839-0.003c1.304,0,2.359,1.057,2.361,2.363l0,0l0,0.11c0.308-0.147,0.653-0.23,1.017-0.231l0,0h0.149v-0.002l0.721,0.002h0.716
		v0.113c0.95,0.305,1.638,1.197,1.642,2.25l0,0c0,0.007,0,5.544,0,7.826l0,0c0,0.249-0.015,0.459-0.026,0.658l0,0
		c-0.17,2.377-1.147,4.431-1.272,4.698l0,0l-0.008,0.021l-0.018,0.036l-0.023,0.045l-0.017,0.027L22.7,30.811
		c-0.117,0.18-0.267,0.484-0.397,0.821l0,0c-0.269,0.678-0.456,1.556-0.454,2.033l0,0v0.001v0.01v0.011v0.559
		c0,0.193-0.021,0.379-0.06,0.551l0,0c-0.254,1.194-1.31,2.083-2.579,2.088l0,0H9.972L9.972,36.885z M8.775,34.246
		c0,0.083,0.01,0.167,0.028,0.248l0,0c0.117,0.543,0.597,0.951,1.172,0.952l0,0h9.233c0.577-0.001,1.057-0.409,1.176-0.958l0,0
		c0.017-0.074,0.027-0.156,0.027-0.242l0,0v-0.534c-0.001-0.008-0.001-0.02-0.001-0.036l0,0c0.005-0.77,0.227-1.719,0.552-2.567l0,0
		c0.157-0.401,0.331-0.772,0.522-1.066l0,0v0c0.001-0.002,0.002-0.005,0.004-0.009l0,0c0.008-0.017,0.019-0.04,0.034-0.069l0,0
		c0.027-0.059,0.067-0.147,0.114-0.258l0,0c0.096-0.223,0.226-0.543,0.361-0.933l0,0c0.268-0.78,0.554-1.839,0.631-2.915l0,0
		c0.01-0.207,0.022-0.388,0.022-0.573l0,0c0-2.284,0-7.819,0-7.824l0,0c-0.003-0.514-0.414-0.923-0.923-0.926l0,0h-0.862
		c-0.515,0.003-0.927,0.417-0.93,0.919l0,0l0.004,1.117h-1.53l-0.003-3.351c-0.003-0.515-0.415-0.926-0.921-0.926l0,0l-0.866,0.001
		l0,0c-0.495-0.001-0.893,0.387-0.921,0.87l0,0l-0.004,0.061l-0.004,2.673H14.16v-3.656c-0.002-0.513-0.412-0.924-0.921-0.924l0,0
		h-0.864c-0.51,0-0.924,0.412-0.926,0.917l0,0l0.004,3.659h-1.53L9.917,7.893c-0.001-0.51-0.414-0.923-0.921-0.925l0,0H8.131
		c-0.511,0-0.923,0.414-0.925,0.924l0,0l0.003,16.471H5.676v-3.406l-0.034-0.082v-0.001c-0.023-0.059-0.053-0.134-0.089-0.223l0,0
		c-0.084-0.211-0.197-0.495-0.311-0.781l0,0c-0.227-0.571-0.466-1.169-0.483-1.208l0,0c-0.126-0.311-0.481-0.691-0.979-1.031l0,0
		c-0.498-0.338-1.047-0.567-1.51-0.567l0,0c-0.157,0-0.297,0.027-0.418,0.082l0,0l-0.01,0.005l-0.03,0.01
		c-0.196,0.069-0.385,0.307-0.376,0.482l0,0h0l0.001,0.026v0.026c0,0.14,0.033,0.311,0.122,0.542l0,0
		c0.388,1.025,3.313,8.387,3.496,8.852l0,0l0.001,0c0.191,0.468,0.481,1.04,0.86,1.645l0,0L5.93,28.75l0.013,0.024
		c0.242,0.457,0.935,1.411,1.566,2.377l0,0c0.49,0.722,0.911,1.476,1.125,2.01l0,0c0.068,0.193,0.131,0.321,0.143,0.599l0,0
		c0,0.025-0.001,0.048-0.003,0.067l0,0V34.246L8.775,34.246z M3.718,27.611c-0.001-0.001-0.002-0.003-0.003-0.007l0,0l0.006,0.014
		l0,0l0,0l-0.001,0L3.718,27.611L3.718,27.611z"/>
</g>
<g id="Layer_1">
</g>
</svg>
