<?xml version="1.0" encoding="utf-8"?>
<!-- Generator: Adobe Illustrator 18.1.1, SVG Export Plug-In . SVG Version: 6.00 Build 0)  -->
<svg version="1.1" id="Layer_1" xmlns="http://www.w3.org/2000/svg" xmlns:xlink="http://www.w3.org/1999/xlink" x="0px" y="0px"
	 viewBox="0 0 19 19" enable-background="new 0 0 19 19" xml:space="preserve">
<path d="M9.5,0C4.3,0,0,4.3,0,9.5S4.3,19,9.5,19c5.2,0,9.5-4.3,9.5-9.5S14.7,0,9.5,0z M9.5,18.2c-4.8,0-8.7-3.9-8.7-8.7
	c0-4.8,3.9-8.7,8.7-8.7c4.8,0,8.7,3.9,8.7,8.7C18.2,14.3,14.3,18.2,9.5,18.2z"/>
<polygon points="9.9,3.8 9.1,3.8 9.1,9.1 3.8,9.1 3.8,9.9 9.1,9.9 9.1,15.2 9.9,15.2 9.9,9.9 15.2,9.9 15.2,9.1 9.9,9.1 "/>
<g>
</g>
<g>
</g>
<g>
</g>
<g>
</g>
<g>
</g>
<g>
</g>
<g>
</g>
<g>
</g>
<g>
</g>
<g>
</g>
<g>
</g>
<g>
</g>
<g>
</g>
<g>
</g>
<g>
</g>
</svg>
