<?xml version="1.0" encoding="utf-8"?>
<!-- Generator: Adobe Illustrator 18.1.1, SVG Export Plug-In . SVG Version: 6.00 Build 0)  -->
<svg version="1.1" id="Layer_1" xmlns="http://www.w3.org/2000/svg" xmlns:xlink="http://www.w3.org/1999/xlink" x="0px" y="0px"
	 viewBox="0 0 19.8 19" enable-background="new 0 0 19.8 19" xml:space="preserve">
<g>
	<path d="M9.9,2.3c-4.6,0-8.4,3.7-8.4,8.4c0,2.1,0.8,4,2,5.5l-2,2.4L2.2,19l1.9-2.3C5.6,18.1,7.6,19,9.9,19c2.3,0,4.3-0.9,5.8-2.3
		l1.9,2.3l0.6-0.5l-2-2.4c1.3-1.5,2-3.4,2-5.5C18.2,6,14.5,2.3,9.9,2.3z M9.9,18.2c-4.2,0-7.6-3.4-7.6-7.6C2.3,6.4,5.7,3,9.9,3
		s7.6,3.4,7.6,7.6C17.5,14.8,14.1,18.2,9.9,18.2z"/>
	<path d="M6.1,0H3.8C1.7,0,0,1.7,0,3.8v2.3h1.1l5-5V0z M5.3,0.8L0.8,5.3h0V3.8c0-1.7,1.4-3,3-3L5.3,0.8L5.3,0.8z"/>
	<path d="M16,0h-2.3v1.1l5,5h1.1V3.8C19.8,1.7,18,0,16,0z M19,5.3L19,5.3l-4.5-4.6v0H16c1.7,0,3,1.4,3,3V5.3z"/>
	<polygon points="9.9,10.6 5.7,10.6 5.7,11.4 10.6,11.4 10.6,4.6 9.9,4.6 	"/>
</g>
<g>
</g>
<g>
</g>
<g>
</g>
<g>
</g>
<g>
</g>
<g>
</g>
<g>
</g>
<g>
</g>
<g>
</g>
<g>
</g>
<g>
</g>
<g>
</g>
<g>
</g>
<g>
</g>
<g>
</g>
</svg>
