<?xml version="1.0" encoding="utf-8"?>
<!-- Generator: Adobe Illustrator 18.1.1, SVG Export Plug-In . SVG Version: 6.00 Build 0)  -->
<svg version="1.1" id="Layer_1" xmlns="http://www.w3.org/2000/svg" xmlns:xlink="http://www.w3.org/1999/xlink" x="0px" y="0px"
	 viewBox="0 0 19 18.3" enable-background="new 0 0 19 18.3" xml:space="preserve">
<g>
	<path d="M5.8,0H3.7C1.6,0,0,1.6,0,3.7v2.2h1L5.8,1V0z"/>
	<path d="M15.3,0h-2.2v1L18,5.9h1V3.7C19,1.6,17.4,0,15.3,0z"/>
	<path d="M9.5,2.2c-4.4,0-8,3.6-8,8c0,2,0.7,3.9,2,5.3l-1.9,2.3l0.6,0.5L3.9,16c1.4,1.4,3.4,2.2,5.6,2.2c2.2,0,4.1-0.9,5.6-2.2
		l1.8,2.2l0.6-0.5l-1.9-2.3c1.2-1.4,2-3.2,2-5.3C17.5,5.8,13.9,2.2,9.5,2.2z M10.2,11H5.5v-0.7h4V4.4h0.7V11z"/>
</g>
<g>
</g>
<g>
</g>
<g>
</g>
<g>
</g>
<g>
</g>
<g>
</g>
<g>
</g>
<g>
</g>
<g>
</g>
<g>
</g>
<g>
</g>
<g>
</g>
<g>
</g>
<g>
</g>
<g>
</g>
</svg>
