<?xml version="1.0" encoding="utf-8"?>
<!-- Generator: Adobe Illustrator 18.1.1, SVG Export Plug-In . SVG Version: 6.00 Build 0)  -->
<svg version="1.1" id="Layer_1" xmlns="http://www.w3.org/2000/svg" xmlns:xlink="http://www.w3.org/1999/xlink" x="0px" y="0px"
	 viewBox="0 0 19 18.2" enable-background="new 0 0 19 18.2" xml:space="preserve">
<path d="M19,0H0v5.5h0.8v12.7h17.4V5.5H19V0z M17.4,17.4H1.6V5.5h15.8V17.4z M18.2,4.8H0.8v-4h17.4V4.8z"/>
<path d="M7.1,11.1h4.8c0.9,0,1.6-0.7,1.6-1.6c0-0.9-0.7-1.6-1.6-1.6H7.1c-0.9,0-1.6,0.7-1.6,1.6C5.5,10.4,6.3,11.1,7.1,11.1z
	 M7.1,8.7h4.8c0.4,0,0.8,0.4,0.8,0.8c0,0.4-0.4,0.8-0.8,0.8H7.1c-0.4,0-0.8-0.4-0.8-0.8C6.3,9.1,6.7,8.7,7.1,8.7z"/>
<g>
</g>
<g>
</g>
<g>
</g>
<g>
</g>
<g>
</g>
<g>
</g>
<g>
</g>
<g>
</g>
<g>
</g>
<g>
</g>
<g>
</g>
<g>
</g>
<g>
</g>
<g>
</g>
<g>
</g>
</svg>
