<?xml version="1.0" encoding="utf-8"?>
<!-- Generator: Adobe Illustrator 18.1.1, SVG Export Plug-In . SVG Version: 6.00 Build 0)  -->
<svg version="1.1" id="Layer_1" xmlns="http://www.w3.org/2000/svg" xmlns:xlink="http://www.w3.org/1999/xlink" x="0px" y="0px"
	 viewBox="0 0 19 17.5" enable-background="new 0 0 19 17.5" xml:space="preserve">
<path d="M17.5,0h-6.8c-0.3,0-0.5,0.1-0.8,0.2v15H9.1v-15C8.9,0.1,8.6,0,8.4,0H1.5C0.7,0,0,0.7,0,1.5v12.9C0,15.3,0.7,16,1.5,16h6.8
	c0,0,0,0,0,0c0.4,0,0.7,0.3,0.7,0.7v0.8h0.8v-0.4h0v-0.3c0-0.4,0.3-0.7,0.7-0.8c0,0,0,0,0,0h6.8c0.8,0,1.5-0.7,1.5-1.5V1.5
	C19,0.7,18.3,0,17.5,0z"/>
<g>
</g>
<g>
</g>
<g>
</g>
<g>
</g>
<g>
</g>
<g>
</g>
<g>
</g>
<g>
</g>
<g>
</g>
<g>
</g>
<g>
</g>
<g>
</g>
<g>
</g>
<g>
</g>
<g>
</g>
</svg>
