<?xml version="1.0" encoding="utf-8"?>
<!-- Generator: Adobe Illustrator 18.1.1, SVG Export Plug-In . SVG Version: 6.00 Build 0)  -->
<svg version="1.1" id="Layer_1" xmlns="http://www.w3.org/2000/svg" xmlns:xlink="http://www.w3.org/1999/xlink" x="0px" y="0px"
	 viewBox="0 0 19 16.9" enable-background="new 0 0 19 16.9" xml:space="preserve">
<path d="M8,0.7c0.6,0,1.1,0.5,1.1,1.1v13c-0.3-0.3-0.7-0.4-1.1-0.4H1.8c-0.6,0-1.1-0.5-1.1-1.1V1.8c0-0.6,0.5-1.1,1.1-1.1H8 M8,0
	H1.8C0.8,0,0,0.8,0,1.8v11.5c0,1,0.8,1.8,1.8,1.8H8c1.1,0,1.1,1.8,1.1,1.8h0.7V1.8C9.9,0.8,9,0,8,0"/>
<path d="M17.2,0.7c0.6,0,1.1,0.5,1.1,1.1v11.5c0,0.6-0.5,1.1-1.1,1.1H11c-0.4,0-0.8,0.1-1.1,0.4v-13c0-0.6,0.5-1.1,1.1-1.1H17.2
	 M17.2,0H11c-1,0-1.8,0.8-1.8,1.8v15.1h0.7c0,0,0-1.8,1.1-1.8h6.2c1,0,1.8-0.8,1.8-1.8V1.8C19,0.8,18.2,0,17.2,0"/>
<g>
</g>
<g>
</g>
<g>
</g>
<g>
</g>
<g>
</g>
<g>
</g>
<g>
</g>
<g>
</g>
<g>
</g>
<g>
</g>
<g>
</g>
<g>
</g>
<g>
</g>
<g>
</g>
<g>
</g>
</svg>
