<?xml version="1.0" encoding="utf-8"?>
<!-- Generator: Adobe Illustrator 18.1.1, SVG Export Plug-In . SVG Version: 6.00 Build 0)  -->
<svg version="1.1" id="Layer_1" xmlns="http://www.w3.org/2000/svg" xmlns:xlink="http://www.w3.org/1999/xlink" x="0px" y="0px"
	 viewBox="0 0 14.2 19" enable-background="new 0 0 14.2 19" xml:space="preserve">
<g>
	<path d="M1.6,5.5h11.1V2.4H1.6V5.5z M2.4,3.2h9.5v1.6H2.4V3.2z"/>
	<path d="M12.7,0H1.6C0.7,0,0,0.7,0,1.6v15.8C0,18.3,0.7,19,1.6,19h11.1c0.9,0,1.6-0.7,1.6-1.6V1.6C14.2,0.7,13.5,0,12.7,0z
		 M13.5,17.4c0,0.4-0.4,0.8-0.8,0.8H1.6c-0.4,0-0.8-0.4-0.8-0.8V1.6c0-0.4,0.4-0.8,0.8-0.8h11.1c0.4,0,0.8,0.4,0.8,0.8V17.4z"/>
	<polygon points="2.4,8.7 2.4,7.1 2.4,6.3 1.6,6.3 1.6,9.5 4.8,9.5 4.8,8.7 4,8.7 	"/>
	<polygon points="2.4,12.7 2.4,11.1 2.4,10.3 1.6,10.3 1.6,13.5 4.8,13.5 4.8,12.7 4,12.7 	"/>
	<polygon points="2.4,16.6 2.4,15 2.4,14.2 1.6,14.2 1.6,17.4 4.8,17.4 4.8,16.6 4,16.6 	"/>
	<polygon points="6.3,8.7 6.3,7.1 6.3,6.3 5.5,6.3 5.5,9.5 8.7,9.5 8.7,8.7 7.9,8.7 	"/>
	<polygon points="10.3,8.7 10.3,7.1 10.3,6.3 9.5,6.3 9.5,9.5 12.7,9.5 12.7,8.7 11.9,8.7 	"/>
	<polygon points="6.3,12.7 6.3,11.1 6.3,10.3 5.5,10.3 5.5,13.5 8.7,13.5 8.7,12.7 7.9,12.7 	"/>
	<polygon points="6.3,16.6 6.3,15 6.3,14.2 5.5,14.2 5.5,17.4 8.7,17.4 8.7,16.6 7.9,16.6 	"/>
	<polygon points="10.3,16.6 10.3,15 10.3,10.3 9.5,10.3 9.5,17.4 12.7,17.4 12.7,16.6 11.9,16.6 	"/>
</g>
<g>
</g>
<g>
</g>
<g>
</g>
<g>
</g>
<g>
</g>
<g>
</g>
<g>
</g>
<g>
</g>
<g>
</g>
<g>
</g>
<g>
</g>
<g>
</g>
<g>
</g>
<g>
</g>
<g>
</g>
</svg>
