<?xml version="1.0" encoding="utf-8"?>
<!-- Generator: Adobe Illustrator 18.1.1, SVG Export Plug-In . SVG Version: 6.00 Build 0)  -->
<svg version="1.1" id="Layer_1" xmlns="http://www.w3.org/2000/svg" xmlns:xlink="http://www.w3.org/1999/xlink" x="0px" y="0px"
	 viewBox="0 0 14.2 19" enable-background="new 0 0 14.2 19" xml:space="preserve">
<g>
	<g>
		<path d="M12.7,0H1.6C0.7,0,0,0.7,0,1.6v15.8C0,18.3,0.7,19,1.6,19h11.1c0.9,0,1.6-0.7,1.6-1.6V1.6C14.2,0.7,13.5,0,12.7,0z
			 M4.8,15.8H2.4v-2.4h2.4V15.8z M4.8,12.7H2.4v-2.4h2.4V12.7z M4.8,9.5H2.4V7.1h2.4V9.5z M8.3,15.8H5.9v-2.4h2.4V15.8z M8.3,12.7
			H5.9v-2.4h2.4V12.7z M8.3,9.5H5.9V7.1h2.4V9.5z M11.9,15.8H9.5v-5.5h2.4V15.8z M11.9,9.5H9.5V7.1h2.4V9.5z M11.9,5.5H2.4V3.2h9.5
			V5.5z"/>
	</g>
</g>
<g>
</g>
<g>
</g>
<g>
</g>
<g>
</g>
<g>
</g>
<g>
</g>
<g>
</g>
<g>
</g>
<g>
</g>
<g>
</g>
<g>
</g>
<g>
</g>
<g>
</g>
<g>
</g>
<g>
</g>
</svg>
