<?xml version="1.0" encoding="utf-8"?>
<!-- Generator: Adobe Illustrator 18.1.1, SVG Export Plug-In . SVG Version: 6.00 Build 0)  -->
<svg version="1.1" id="Layer_1" xmlns="http://www.w3.org/2000/svg" xmlns:xlink="http://www.w3.org/1999/xlink" x="0px" y="0px"
	 viewBox="0 0 18.2 18.2" enable-background="new 0 0 18.2 18.2" xml:space="preserve">
<g>
	<path d="M0,0v18.2h18.2V0H0z M17.5,17.5H0.8V5.3h16.7V17.5z M17.5,4.6H0.8V0.8h16.7V4.6z"/>
	<rect x="6.1" y="2.3" width="0.8" height="0.8"/>
	<rect x="11.4" y="2.3" width="0.8" height="0.8"/>
	<path d="M6.4,9.3v4.2h0.8v-6H6.5l0,0.1c-0.1,0.9-0.6,0.9-1.5,1l-0.1,0v0.6H6.4z"/>
	<path d="M11,12.9c-0.7,0-1.2-0.5-1.3-1.2l0-0.1H8.9l0,0.1c0,1.1,0.8,1.9,2,1.9c1.2,0,2.1-0.9,2.1-2.1c0-1.3-0.8-2.1-2-2.1
		c-0.4,0-0.7,0.1-1,0.3l0.3-1.4h2.5V7.6H9.7l-0.6,3.2h0.7l0-0.1c0.2-0.4,0.7-0.6,1.1-0.6c0.8,0,1.3,0.6,1.3,1.3
		C12.3,12.2,11.8,12.9,11,12.9z"/>
</g>
<g>
</g>
<g>
</g>
<g>
</g>
<g>
</g>
<g>
</g>
<g>
</g>
<g>
</g>
<g>
</g>
<g>
</g>
<g>
</g>
<g>
</g>
<g>
</g>
<g>
</g>
<g>
</g>
<g>
</g>
</svg>
