<?xml version="1.0" encoding="iso-8859-1"?>
<!-- Generator: Adobe Illustrator 18.1.1, SVG Export Plug-In . SVG Version: 6.00 Build 0)  -->
<svg version="1.1" xmlns="http://www.w3.org/2000/svg" xmlns:xlink="http://www.w3.org/1999/xlink" x="0px" y="0px"
	 viewBox="0 0 19 14.25" style="enable-background:new 0 0 19 14.25;" xml:space="preserve">
<g id="Layer_104.svg">
	<g>
		<rect x="1.9" y="0.75" width="1.9" height="0.75"/>
		<path d="M4.181,2.25c0.626,0,1.369-0.452,1.648-1.006l0.121-0.237C6.231,0.453,6.973,0,7.6,0h3.8c0.627,0,1.369,0.453,1.649,1.007
			l0.121,0.237c0.281,0.554,1.023,1.006,1.65,1.006h3.041c0.626,0,1.14,0.505,1.14,1.124v9.75c0,0.619-0.514,1.126-1.14,1.126H1.139
			C0.513,14.25,0,13.743,0,13.124v-9.75C0,2.755,0.513,2.25,1.139,2.25H4.181z M15.011,3.374c-0.316,0-0.57,0.252-0.57,0.563
			c0,0.311,0.254,0.562,0.57,0.562c0.313,0,0.57-0.251,0.57-0.562C15.581,3.626,15.324,3.374,15.011,3.374 M9.5,3.374
			c-2.518,0-4.56,2.015-4.56,4.501c0,2.484,2.041,4.499,4.56,4.499c2.518,0,4.559-2.015,4.559-4.499
			C14.059,5.389,12.018,3.374,9.5,3.374 M9.5,4.499c-1.889,0-3.42,1.511-3.42,3.376c0,1.863,1.531,3.374,3.42,3.374
			c1.888,0,3.42-1.511,3.42-3.374C12.92,6.01,11.388,4.499,9.5,4.499"/>
	</g>
</g>
<g id="Layer_1">
</g>
</svg>
