<?xml version="1.0" encoding="iso-8859-1"?>
<!-- Generator: Adobe Illustrator 18.1.1, SVG Export Plug-In . SVG Version: 6.00 Build 0)  -->
<svg version="1.1" xmlns="http://www.w3.org/2000/svg" xmlns:xlink="http://www.w3.org/1999/xlink" x="0px" y="0px"
	 viewBox="0 0 19 14.44" style="enable-background:new 0 0 19 14.44;" xml:space="preserve">
<g id="Layer_71.svg">
	<path d="M17.48,2.281h-3.143L12.51,0.449c-0.003-0.001-0.004-0.004-0.006-0.007L12.5,0.44C12.225,0.168,11.849,0,11.432,0H7.633
		C7.19,0,6.797,0.192,6.519,0.491L6.518,0.487L4.727,2.281H1.52C0.681,2.281,0,2.961,0,3.801v9.12c0,0.839,0.681,1.52,1.52,1.52
		h15.96c0.84,0,1.52-0.681,1.52-1.52v-9.12C19,2.961,18.32,2.281,17.48,2.281z M18.24,12.92c0,0.419-0.342,0.76-0.76,0.76H1.52
		c-0.418,0-0.76-0.341-0.76-0.76v-9.12c0-0.419,0.342-0.761,0.76-0.761h3.208h0.314l0.225-0.223l0.918-0.921l0.019,0.056
		l0.873-0.944C7.225,0.848,7.422,0.76,7.633,0.76h3.799c0.201,0,0.392,0.079,0.54,0.226l1.827,1.832l0.223,0.223h0.316h3.143
		c0.418,0,0.76,0.342,0.76,0.761V12.92z"/>
	<path d="M9.5,3.04c-2.728,0-4.94,2.212-4.94,4.939c0,2.729,2.212,4.941,4.94,4.941c2.728,0,4.94-2.212,4.94-4.941
		C14.44,5.252,12.228,3.04,9.5,3.04z M9.5,12.161c-2.306,0-4.18-1.876-4.18-4.181c0-2.305,1.875-4.179,4.18-4.179
		c2.305,0,4.18,1.874,4.18,4.179C13.68,10.285,11.805,12.161,9.5,12.161z"/>
	<path d="M9.5,4.56c-1.891,0-3.42,1.531-3.42,3.419S7.609,11.4,9.5,11.4c1.89,0,3.42-1.532,3.42-3.421S11.39,4.56,9.5,4.56z
		 M9.5,10.641c-1.467,0-2.661-1.194-2.661-2.661c0-1.466,1.194-2.659,2.661-2.659c1.466,0,2.66,1.193,2.66,2.659
		C12.16,9.447,10.966,10.641,9.5,10.641z"/>
</g>
<g id="Layer_1">
</g>
</svg>
