<?xml version="1.0" encoding="utf-8"?>
<!-- Generator: Adobe Illustrator 18.1.1, SVG Export Plug-In . SVG Version: 6.00 Build 0)  -->
<svg version="1.1" id="Layer_1" xmlns="http://www.w3.org/2000/svg" xmlns:xlink="http://www.w3.org/1999/xlink" x="0px" y="0px"
	 viewBox="0 0 18.2 16.7" enable-background="new 0 0 18.2 16.7" xml:space="preserve">
<g>
	<path d="M16.7,0H1.5C0.7,0,0,0.7,0,1.5v10.6c0,0.8,0.7,1.5,1.5,1.5h10.7l3,3v-3h1.5c0.8,0,1.5-0.7,1.5-1.5V1.5
		C18.2,0.7,17.6,0,16.7,0z M17.5,12.2c0,0.4-0.3,0.8-0.8,0.8h-1.5h-0.8v0.8v1.2l-1.7-1.7l-0.2-0.2h-0.3H1.5c-0.4,0-0.8-0.3-0.8-0.8
		V1.5c0-0.4,0.3-0.8,0.8-0.8h15.2c0.4,0,0.8,0.3,0.8,0.8V12.2z"/>
	<circle cx="9.1" cy="6.8" r="0.8"/>
	<circle cx="12.2" cy="6.8" r="0.8"/>
	<circle cx="6.2" cy="6.8" r="0.8"/>
</g>
<g>
</g>
<g>
</g>
<g>
</g>
<g>
</g>
<g>
</g>
<g>
</g>
<g>
</g>
<g>
</g>
<g>
</g>
<g>
</g>
<g>
</g>
<g>
</g>
<g>
</g>
<g>
</g>
<g>
</g>
</svg>
