<?xml version="1.0" encoding="utf-8"?>
<!-- Generator: Adobe Illustrator 18.1.1, SVG Export Plug-In . SVG Version: 6.00 Build 0)  -->
<svg version="1.1" id="Layer_1" xmlns="http://www.w3.org/2000/svg" xmlns:xlink="http://www.w3.org/1999/xlink" x="0px" y="0px"
	 viewBox="0 0 18.2 16.7" enable-background="new 0 0 18.2 16.7" xml:space="preserve">
<path d="M16.7,0H1.5C0.7,0,0,0.7,0,1.5v10.6c0,0.8,0.7,1.5,1.5,1.5h10.7l3,3v-3h1.5c0.8,0,1.5-0.7,1.5-1.5V1.5
	C18.2,0.7,17.6,0,16.7,0z M6.2,7.6c-0.4,0-0.8-0.3-0.8-0.8c0-0.4,0.3-0.8,0.8-0.8c0.4,0,0.8,0.3,0.8,0.8C6.9,7.3,6.6,7.6,6.2,7.6z
	 M9.1,7.6c-0.4,0-0.8-0.3-0.8-0.8c0-0.4,0.3-0.8,0.8-0.8c0.4,0,0.8,0.3,0.8,0.8C9.9,7.3,9.5,7.6,9.1,7.6z M12.2,7.6
	c-0.4,0-0.8-0.3-0.8-0.8c0-0.4,0.3-0.8,0.8-0.8c0.4,0,0.8,0.3,0.8,0.8C12.9,7.3,12.6,7.6,12.2,7.6z"/>
<g>
</g>
<g>
</g>
<g>
</g>
<g>
</g>
<g>
</g>
<g>
</g>
<g>
</g>
<g>
</g>
<g>
</g>
<g>
</g>
<g>
</g>
<g>
</g>
<g>
</g>
<g>
</g>
<g>
</g>
</svg>
