<?xml version="1.0" encoding="utf-8"?>
<!-- Generator: Adobe Illustrator 18.1.1, SVG Export Plug-In . SVG Version: 6.00 Build 0)  -->
<svg version="1.1" id="Layer_1" xmlns="http://www.w3.org/2000/svg" xmlns:xlink="http://www.w3.org/1999/xlink" x="0px" y="0px"
	 viewBox="0 0 19 19" enable-background="new 0 0 19 19" xml:space="preserve">
<path d="M9.5,0C4.3,0,0,4.3,0,9.5S4.3,19,9.5,19c5.2,0,9.5-4.3,9.5-9.5S14.7,0,9.5,0z M15,6.9l-6.5,6.3c-0.1,0.1-0.3,0.2-0.4,0.2
	c-0.1,0-0.3-0.1-0.4-0.2l-2.5-2.5C5,10.5,5,10.1,5.2,9.9c0.2-0.2,0.6-0.2,0.8,0L8.2,12l6.1-5.9c0.2-0.2,0.6-0.2,0.8,0
	C15.3,6.3,15.3,6.7,15,6.9z"/>
<g>
</g>
<g>
</g>
<g>
</g>
<g>
</g>
<g>
</g>
<g>
</g>
<g>
</g>
<g>
</g>
<g>
</g>
<g>
</g>
<g>
</g>
<g>
</g>
<g>
</g>
<g>
</g>
<g>
</g>
</svg>
