<?xml version="1.0" encoding="utf-8"?>
<!-- Generator: Adobe Illustrator 18.1.1, SVG Export Plug-In . SVG Version: 6.00 Build 0)  -->
<svg version="1.1" id="Layer_1" xmlns="http://www.w3.org/2000/svg" xmlns:xlink="http://www.w3.org/1999/xlink" x="0px" y="0px"
	 viewBox="0 0 19 12" enable-background="new 0 0 19 12" xml:space="preserve">
<path d="M10.6,0.6c2.4,0,4.3,1.9,4.3,4.3l0,0c0,0,0,0.1,0,0.1l0,0.6l0.6,0c1.6,0,2.8,1.3,2.8,2.8c0,1.6-1.3,2.8-2.8,2.8H3.8
	c-1.7,0-3.2-1.4-3.2-3.2c0-1.4,0.9-2.6,2.1-3l0.4-0.1l0.1-0.4c0.2-0.9,0.9-1.6,1.9-1.6c0.3,0,0.6,0.1,0.8,0.2l0.6,0.3l0.3-0.6
	C7.5,1.6,9,0.6,10.6,0.6 M10.6,0C8.7,0,7,1.1,6.2,2.8C5.9,2.6,5.5,2.5,5.1,2.5c-1.3,0-2.3,0.9-2.5,2.1C1.1,5.1,0,6.6,0,8.2
	C0,10.3,1.7,12,3.8,12h11.7v0c1.9,0,3.5-1.6,3.5-3.5c0-1.9-1.6-3.5-3.5-3.5c0-0.1,0-0.1,0-0.2C15.5,2.2,13.3,0,10.6,0L10.6,0z"/>
<g>
</g>
<g>
</g>
<g>
</g>
<g>
</g>
<g>
</g>
<g>
</g>
<g>
</g>
<g>
</g>
<g>
</g>
<g>
</g>
<g>
</g>
<g>
</g>
<g>
</g>
<g>
</g>
<g>
</g>
</svg>
