<?xml version="1.0" encoding="utf-8"?>
<!-- Generator: Adobe Illustrator 18.1.1, SVG Export Plug-In . SVG Version: 6.00 Build 0)  -->
<svg version="1.1" id="Layer_1" xmlns="http://www.w3.org/2000/svg" xmlns:xlink="http://www.w3.org/1999/xlink" x="0px" y="0px"
	 viewBox="0 0 19 19" enable-background="new 0 0 19 19" xml:space="preserve">
<path d="M9.5,19C4.3,19,0,14.7,0,9.5S4.3,0,9.5,0C14.7,0,19,4.3,19,9.5S14.7,19,9.5,19z M9.5,0.8c-4.8,0-8.7,3.9-8.7,8.7
	c0,4.8,3.9,8.7,8.7,8.7c4.8,0,8.7-3.9,8.7-8.7C18.2,4.7,14.3,0.8,9.5,0.8z"/>
<path fill-rule="evenodd" clip-rule="evenodd" d="M15,4.1c-0.3,0.5-0.5,1-0.8,1.4c-1,1.8-3.7,5.5-3.8,5.6C8.2,12.3,4,14.9,4,14.9
	s2.8-4.2,4-6.4c0.1-0.1,4.5-3.1,6.8-4.3C14.8,4.2,14.9,4.1,15,4.1z M4.9,14l5.2-3.2L8.2,8.9L4.9,14z"/>
<g>
</g>
<g>
</g>
<g>
</g>
<g>
</g>
<g>
</g>
<g>
</g>
<g>
</g>
<g>
</g>
<g>
</g>
<g>
</g>
<g>
</g>
<g>
</g>
<g>
</g>
<g>
</g>
<g>
</g>
</svg>
