<?xml version="1.0" encoding="utf-8"?>
<!-- Generator: Adobe Illustrator 18.1.1, SVG Export Plug-In . SVG Version: 6.00 Build 0)  -->
<svg version="1.1" id="Layer_1" xmlns="http://www.w3.org/2000/svg" xmlns:xlink="http://www.w3.org/1999/xlink" x="0px" y="0px"
	 viewBox="0 0 19 19" enable-background="new 0 0 19 19" xml:space="preserve">
<path d="M9.5,0C4.3,0,0,4.3,0,9.5C0,14.7,4.3,19,9.5,19c5.2,0,9.5-4.3,9.5-9.5C19,4.3,14.7,0,9.5,0z M9.5,0.8c4.8,0,8.7,3.9,8.7,8.7
	c0,2.1-0.8,4.1-2,5.6c-0.9-0.4-2.9-1.1-4.2-1.5c-0.1,0-0.1,0-0.1-0.5c0-0.4,0.2-0.7,0.3-1.1c0.2-0.3,0.4-0.9,0.4-1.4
	c0.2-0.2,0.5-0.7,0.6-1.5c0.1-0.7,0.1-1,0-1.3c0,0,0-0.1,0-0.1c0-0.2,0-1.1,0.1-1.8c0.1-0.5,0-1.5-0.7-2.3c-0.4-0.5-1.2-1.2-2.7-1.3
	l-0.8,0C7.7,2.5,6.9,3.1,6.5,3.6C5.9,4.5,5.7,5.5,5.8,6C6,6.7,6,7.6,6,7.8c0,0,0,0.1,0,0.1c-0.1,0.3-0.2,0.5,0,1.3
	c0.2,0.8,0.4,1.3,0.6,1.5c0.1,0.5,0.3,1.1,0.4,1.4c0.1,0.3,0.2,0.6,0.2,1.1c0,0.5,0,0.5-0.1,0.5c-1.3,0.4-3.4,1.1-4.2,1.5
	c-1.3-1.5-2.1-3.5-2.1-5.6C0.8,4.7,4.7,0.8,9.5,0.8z M3.4,15.7c0.9-0.4,2.7-1,3.8-1.3c0.7-0.2,0.7-0.8,0.7-1.2c0-0.4,0-0.9-0.2-1.4
	c-0.2-0.3-0.3-0.9-0.4-1.3c0-0.1-0.1-0.2-0.1-0.3C7.1,10,6.8,9.7,6.7,9c-0.1-0.6-0.1-0.7,0-0.8c0-0.1,0-0.1,0.1-0.2
	c0.1-0.3,0-1.5-0.1-2.1c-0.1-0.3,0-1.1,0.5-1.7c0.5-0.6,1.2-0.9,2.1-1l0.8,0c0.9,0.1,1.6,0.4,2.1,1c0.5,0.7,0.6,1.4,0.5,1.7
	c-0.1,0.6-0.2,1.8-0.1,2.1c0,0.1,0,0.1,0.1,0.2c0,0.1,0.1,0.2,0,0.8c-0.1,0.7-0.4,1.1-0.5,1.2c-0.1,0.1-0.1,0.2-0.1,0.3
	c0,0.4-0.2,1-0.4,1.3c-0.2,0.4-0.4,0.9-0.4,1.4c0,0.5,0,1,0.7,1.2c1.1,0.3,2.9,0.9,3.8,1.3c-1.6,1.6-3.7,2.5-6.1,2.5
	C7.1,18.2,5,17.3,3.4,15.7z"/>
<g>
</g>
<g>
</g>
<g>
</g>
<g>
</g>
<g>
</g>
<g>
</g>
<g>
</g>
<g>
</g>
<g>
</g>
<g>
</g>
<g>
</g>
<g>
</g>
<g>
</g>
<g>
</g>
<g>
</g>
</svg>
