<?xml version="1.0" encoding="utf-8"?>
<!-- Generator: Adobe Illustrator 18.1.1, SVG Export Plug-In . SVG Version: 6.00 Build 0)  -->
<svg version="1.1" id="Layer_1" xmlns="http://www.w3.org/2000/svg" xmlns:xlink="http://www.w3.org/1999/xlink" x="0px" y="0px"
	 viewBox="0 0 19 19" enable-background="new 0 0 19 19" xml:space="preserve">
<g>
	<g>
		<path d="M9.5,0C4.3,0,0,4.3,0,9.5C0,14.7,4.3,19,9.5,19c5.2,0,9.5-4.3,9.5-9.5C19,4.3,14.7,0,9.5,0 M14.4,16.3
			c-1.4-0.3-2.4-0.6-2.6-1.1c-0.4-0.8-0.4-1.5,0-2.7c0.1-0.2,0.4,0,0.6-1.6c0,0,0.5,0.1,0.7-0.5c0.2-0.7,0.6-2.1,0-2.1
			c0,0,0.7-2.5-0.4-4c-1.1-1.6-3.2-1.5-3.2-1.5s-2.1,0-3.2,1.5c-1.1,1.6-0.4,4-0.4,4c-0.6,0-0.2,1.5,0,2.1c0.2,0.7,0.7,0.5,0.7,0.5
			c0.2,1.6,0.5,1.5,0.6,1.6c0.4,1.1,0.4,1.9,0,2.7c-0.2,0.5-1.3,0.7-2.7,1c-2-1.5-3.3-4-3.3-6.7c0-4.6,3.7-8.4,8.4-8.4
			c4.6,0,8.4,3.7,8.4,8.4C17.9,12.3,16.5,14.8,14.4,16.3"/>
	</g>
</g>
<g>
</g>
<g>
</g>
<g>
</g>
<g>
</g>
<g>
</g>
<g>
</g>
<g>
</g>
<g>
</g>
<g>
</g>
<g>
</g>
<g>
</g>
<g>
</g>
<g>
</g>
<g>
</g>
<g>
</g>
</svg>
