<?xml version="1.0" encoding="utf-8"?>
<!-- Generator: Adobe Illustrator 18.1.1, SVG Export Plug-In . SVG Version: 6.00 Build 0)  -->
<svg version="1.1" id="Layer_1" xmlns="http://www.w3.org/2000/svg" xmlns:xlink="http://www.w3.org/1999/xlink" x="0px" y="0px"
	 viewBox="0 0 16.1 19" enable-background="new 0 0 16.1 19" xml:space="preserve">
<g>
	<polygon points="8,6.6 11.7,6.6 8,2.9 	"/>
	<polygon points="7.3,6.6 7.3,2.9 5.1,2.9 4.4,2.9 3.2,2.9 0,2.9 0,19 11.7,19 11.7,18.1 11.7,16.1 11.7,15.3 11.7,7.3 7.3,7.3 	"/>
	<polygon points="12.4,0 12.4,3.7 16.1,3.7 	"/>
	<polygon points="11.7,3.7 11.7,0 9.5,0 8.8,0 7.6,0 4.4,0 4.4,2.2 5.1,2.2 8,2.2 8.3,2.2 8.6,2.4 12.2,6.1 12.4,6.3 12.4,6.6 
		12.4,15.3 12.4,16.1 16.1,16.1 16.1,15.2 16.1,13.2 16.1,12.4 16.1,4.4 11.7,4.4 	"/>
</g>
<g>
</g>
<g>
</g>
<g>
</g>
<g>
</g>
<g>
</g>
<g>
</g>
<g>
</g>
<g>
</g>
<g>
</g>
<g>
</g>
<g>
</g>
<g>
</g>
<g>
</g>
<g>
</g>
<g>
</g>
</svg>
