<?xml version="1.0" encoding="utf-8"?>
<!-- Generator: Adobe Illustrator 18.1.1, SVG Export Plug-In . SVG Version: 6.00 Build 0)  -->
<svg version="1.1" id="Layer_1" xmlns="http://www.w3.org/2000/svg" xmlns:xlink="http://www.w3.org/1999/xlink" x="0px" y="0px"
	 viewBox="0 0 19 11.4" enable-background="new 0 0 19 11.4" xml:space="preserve">
<g>
	<path d="M9.5,0C6.1,0,3.3,2.1,0,5.6c2.8,3,5.2,5.7,9.5,5.8c4.2,0,7.4-3.3,9.5-5.6C16.8,3.2,13.7,0,9.5,0z M9.5,10.8
		c-3.8,0-6-2.4-8.6-5.1c3.1-3.2,5.6-5,8.7-5c3.7,0,6.5,2.7,8.6,5.2C16,8,13.2,10.8,9.5,10.8z"/>
	<path d="M9.5,1.9c-2.1,0-3.8,1.7-3.8,3.8s1.7,3.8,3.8,3.8c2.1,0,3.8-1.7,3.8-3.8S11.6,1.9,9.5,1.9z M9.5,8.9
		c-1.7,0-3.2-1.4-3.1-3.2c0-1.7,1.4-3.2,3.2-3.1c1.7,0,3.2,1.4,3.1,3.2C12.7,7.5,11.2,8.9,9.5,8.9z"/>
	<path d="M9.5,3.2C8.1,3.1,7,4.3,7,5.7c0,1.4,1.1,2.6,2.5,2.6c1.4,0,2.6-1.1,2.6-2.5C12.1,4.3,10.9,3.2,9.5,3.2z M9.5,7.6
		c-1.1,0-1.9-0.9-1.9-1.9c0-1.1,0.9-1.9,1.9-1.9c1.1,0,1.9,0.9,1.9,1.9C11.4,6.8,10.5,7.6,9.5,7.6z"/>
</g>
<g>
</g>
<g>
</g>
<g>
</g>
<g>
</g>
<g>
</g>
<g>
</g>
<g>
</g>
<g>
</g>
<g>
</g>
<g>
</g>
<g>
</g>
<g>
</g>
<g>
</g>
<g>
</g>
<g>
</g>
</svg>
