<?xml version="1.0" encoding="utf-8"?>
<!-- Generator: Adobe Illustrator 18.1.1, SVG Export Plug-In . SVG Version: 6.00 Build 0)  -->
<svg version="1.1" id="Layer_1" xmlns="http://www.w3.org/2000/svg" xmlns:xlink="http://www.w3.org/1999/xlink" x="0px" y="0px"
	 viewBox="0 0 595.5 595.5" enable-background="new 0 0 595.5 595.5" xml:space="preserve">
<g id="Large">
	<g>
		<path d="M19,394.8c-1.7,0-3.2-1.1-3.8-2.7C5.1,361.8,0,330.1,0,297.8c0-28.2,4.1-56.4,12.1-84c0.6-2.1,2.8-3.3,5-2.7
			c2.1,0.6,3.3,2.8,2.7,5C12,242.8,8,270.4,8,297.8c0,31.4,5,62.3,14.8,91.8c0.7,2.1-0.4,4.4-2.5,5.1
			C19.8,394.7,19.4,394.8,19,394.8z"/>
		<path d="M33.4,173.2c-0.6,0-1.2-0.1-1.8-0.4c-2-1-2.8-3.4-1.8-5.4c24-49,60.9-90.6,106.7-120.1C183.5,17,238.1,0.6,294.4,0
			c0,0,0,0,0,0c2.2,0,4,1.8,4,4c0,2.2-1.7,4-4,4c-54.7,0.6-107.8,16.5-153.6,46.1C96.2,82.9,60.3,123.3,37,171
			C36.3,172.4,34.9,173.2,33.4,173.2z"/>
		<path d="M591.5,293.5c-2.2,0-3.9-1.7-4-3.9c-1.9-67.8-27.7-133.1-72.8-183.9c-44.7-50.4-105.8-83.8-172-94.1
			c-2.2-0.3-3.7-2.4-3.3-4.6c0.3-2.2,2.4-3.7,4.6-3.3c68,10.6,130.8,44.9,176.7,96.7c46.3,52.2,72.9,119.3,74.8,189
			c0.1,2.2-1.7,4-3.9,4.1C591.6,293.5,591.6,293.5,591.5,293.5z"/>
		<path d="M263.5,593.7c-0.6,0-1.2-0.1-1.7-0.4c-2-0.9-2.9-3.3-1.9-5.3c5.8-12.3,11.4-26,16.7-40.6c0.7-2.1,3-3.2,5.1-2.4
			c2.1,0.7,3.2,3,2.4,5.1c-5.3,14.9-11.1,28.8-17,41.4C266.4,592.8,265,593.7,263.5,593.7z"/>
		<path d="M294.7,505.9c-0.3,0-0.6,0-1-0.1c-2.1-0.5-3.4-2.7-2.9-4.9c3.3-13,5.9-25.8,7.9-37.9c14.1-86.5-4.6-163.5-4.8-164.2
			c-0.5-2.1,0.8-4.3,2.9-4.8c2.1-0.5,4.3,0.8,4.8,2.9c0.2,0.8,19.3,79.2,5,167.5c-2,12.3-4.7,25.3-8,38.6
			C298.1,504.6,296.5,505.9,294.7,505.9z"/>
		<path d="M316.4,595.5c-0.5,0-1-0.1-1.5-0.3c-2-0.8-3-3.2-2.2-5.2c9-22.4,25.6-68.8,35-127.1l0.4-2.4c0.8-4.9,1.5-9.6,2-14.3
			c0.2-2.2,2.2-3.8,4.4-3.5c2.2,0.2,3.8,2.2,3.5,4.4c-0.5,4.8-1.3,9.6-2.1,14.6l-0.4,2.4c-9.5,59.1-26.3,106-35.4,128.8
			C319.5,594.6,318,595.5,316.4,595.5z"/>
		<path d="M213,583c-0.6,0-1.2-0.1-1.8-0.4c-2-1-2.8-3.4-1.8-5.4c19.2-38,32.2-76.4,38.8-114.2c8.2-47.3,7.4-99.7-2.4-155.8
			c-0.7-3.2-0.7-6.4-0.7-9.3c0-29.2,23.8-53,53-53c24.6,0,45.8,16.9,51.6,41c0.1,0.5,11.4,50.8,11.4,112.3c0,2.2-1.8,4-4,4
			s-4-1.8-4-4c0-60.7-11.1-110-11.2-110.5c-4.9-20.5-22.9-34.8-43.8-34.8c-24.8,0-45,20.2-45,45c0,2.6,0,5.4,0.5,7.7l0,0.2
			c10,57,10.8,110.4,2.4,158.7c-6.7,38.6-20,77.8-39.5,116.5C215.9,582.2,214.5,583,213,583z"/>
		<path d="M549.9,452.3c-0.1,0-0.2,0-0.2,0c-2.2-0.1-3.9-2-3.8-4.2c1.1-20.4,1.5-41.3,1.2-62.1c0-2.2,1.7-4,3.9-4.1c0,0,0,0,0.1,0
			c2.2,0,4,1.8,4,3.9c0.3,21-0.1,42.1-1.2,62.7C553.8,450.7,552,452.3,549.9,452.3z"/>
		<path d="M549,340.6c-2.1,0-3.8-1.6-4-3.7c-3.3-43.3-8.5-71.8-8.5-72.1l0-0.2c-7.9-57-36.3-109.5-79.8-147.8
			C412.6,78.2,356.2,57,297.8,57c-32.5,0-64.3,6.5-94.5,19.3c-2,0.9-4.4-0.1-5.2-2.1c-0.9-2,0.1-4.4,2.1-5.2
			C231.4,55.7,264.2,49,297.8,49c60.4,0,118.7,22,164.1,61.9c45,39.5,74.3,93.7,82.5,152.6c0.3,1.8,5.4,30.3,8.6,72.8
			c0.2,2.2-1.5,4.1-3.7,4.3C549.2,340.6,549.1,340.6,549,340.6z"/>
		<path d="M52,462.7c-0.5,0-1-0.1-1.5-0.3c-2-0.8-3-3.2-2.2-5.2c3-7.1,5.3-14.9,7.1-23.2c7.2-31.2,0.3-76.7-3.1-94.8
			c-2.3-14-3.4-27.9-3.4-41.4c0-82,40.3-158.6,107.9-205c1.8-1.2,4.3-0.8,5.6,1c1.2,1.8,0.8,4.3-1,5.6C96,144.3,57,218.4,57,297.8
			c0,13.1,1.1,26.5,3.3,40.1c4.2,23,10.3,66.5,3,97.9c-1.9,8.7-4.4,17-7.5,24.5C55.1,461.8,53.6,462.7,52,462.7z"/>
		<path d="M86.3,505.9c-0.6,0-1.2-0.1-1.8-0.4c-2-1-2.8-3.4-1.8-5.4c9.6-19.6,16.4-39.9,20.2-60.2c8.7-47.6,0.1-95.7-2.8-111.5
			l0-0.2c-1.5-11.9-2.2-21.5-2.2-30.5c0-110.2,89.6-199.8,199.8-199.8c16.7,0,33.4,2.1,49.6,6.2c2.1,0.5,3.4,2.7,2.9,4.9
			c-0.5,2.1-2.7,3.4-4.9,2.9c-15.6-4-31.6-6-47.7-6c-105.8,0-191.8,86.1-191.8,191.8c0,8.6,0.7,17.9,2.1,29.4
			c2.9,16.3,11.6,65.3,2.7,114.2c-3.9,21-10.9,42-20.8,62.2C89.2,505,87.8,505.9,86.3,505.9z"/>
		<path d="M493,521.2c-0.2,0-0.5,0-0.7-0.1c-2.2-0.4-3.6-2.5-3.2-4.7c1.7-9.6,3.3-20.1,4.6-31.3c14.1-111-6.2-215-6.4-216l0-0.2
			c-8.7-58.5-45.2-110.6-97.4-139.4c-1.9-1.1-2.6-3.5-1.6-5.4s3.5-2.6,5.4-1.6c26.5,14.6,49.8,35.3,67.2,60.1
			c17.8,25.2,29.7,54.6,34.2,85.1c0.7,3.8,20.6,107.7,6.5,218.4c-1.3,11.3-2.8,21.9-4.6,31.7C496.6,519.8,494.9,521.2,493,521.2z"/>
		<path d="M432.7,562.5c-0.3,0-0.7,0-1-0.1c-2.1-0.6-3.4-2.7-2.9-4.9c8.8-33.7,15-68.6,18.6-103.7c7.8-77.1-2.8-148.9-9.7-184.9
			c-1.2-5.9-2.7-11.5-4.5-16.6c-0.7-2.1,0.4-4.4,2.5-5.1c2.1-0.7,4.4,0.4,5.1,2.5c1.8,5.4,3.4,11.4,4.7,17.6
			c7.1,36.5,17.7,109.2,9.9,187.3c-3.6,35.6-9.9,70.9-18.8,105C436.1,561.3,434.5,562.5,432.7,562.5z"/>
		<path d="M157.9,430.3c-0.1,0-0.3,0-0.4,0c-2.2-0.2-3.8-2.2-3.5-4.4c6-54.6-4.1-98-4.2-98.4l0-0.1c-1.9-9.4-2.8-19.3-2.8-29.5
			c0-83.2,67.7-150.9,150.9-150.9c46.7,0,90.1,21.2,119.1,58.1c1.4,1.7,1.1,4.3-0.7,5.6c-1.7,1.4-4.3,1.1-5.6-0.7
			c-27.5-35-68.6-55.1-112.8-55.1c-78.8,0-142.9,64.1-142.9,142.9c0,9.7,0.9,19.1,2.7,27.9c0.6,2.7,10.4,45.6,4.4,101
			C161.7,428.8,159.9,430.3,157.9,430.3z"/>
		<path d="M124.6,539.2c-0.6,0-1.2-0.1-1.8-0.4c-2-1-2.7-3.4-1.7-5.4c10.3-19.9,18.4-40.2,23.9-60.1c0.6-2.1,2.8-3.4,4.9-2.8
			c2.1,0.6,3.4,2.8,2.8,4.9c-5.7,20.5-13.9,41.2-24.5,61.7C127.4,538.4,126,539.2,124.6,539.2z"/>
		<path d="M374,585.7c-0.4,0-0.9-0.1-1.3-0.2c-2.1-0.7-3.2-3-2.5-5.1c9.5-27.4,22.1-71.4,28.3-125.5c8.7-79.1-3.3-149.8-8.8-176.5
			c-8.9-43.2-47.6-74.5-91.9-74.5c-11.8,0-22.6,1.9-32.2,5.6c-2.1,0.8-4.4-0.2-5.2-2.3c-0.8-2.1,0.2-4.4,2.3-5.2
			c10.5-4,22.4-6.1,35.1-6.1c48.1,0,90,34,99.7,80.9c5.6,27.1,17.7,98.8,8.9,179c-6.2,54.8-19,99.5-28.7,127.3
			C377.2,584.7,375.6,585.7,374,585.7z"/>
		<path d="M167.4,565.2c-0.6,0-1.3-0.1-1.9-0.5c-2-1-2.7-3.5-1.7-5.4c12.6-23.8,29-61,35.7-103.1c8.7-55.3,3.6-106.6-2.1-140
			c-1.4-6.7-1.6-12.9-1.6-18.5c0-24.8,8.9-48.7,25.2-67.2c1.5-1.7,4-1.8,5.6-0.4c1.7,1.5,1.8,4,0.4,5.6
			c-15,17.1-23.2,39.1-23.2,61.9c0,7.1,0.4,12.1,1.4,16.9l0,0.1c5.9,34,11,86.3,2.2,142.7c-6.9,43.2-23.7,81.2-36.5,105.6
			C170.2,564.5,168.8,565.2,167.4,565.2z"/>
	</g>
</g>
<g>
</g>
<g>
</g>
<g>
</g>
<g>
</g>
<g>
</g>
<g>
</g>
<g>
</g>
<g>
</g>
<g>
</g>
<g>
</g>
<g>
</g>
<g>
</g>
<g>
</g>
<g>
</g>
<g>
</g>
</svg>
