<?xml version="1.0" encoding="utf-8"?>
<!-- Generator: Adobe Illustrator 18.1.1, SVG Export Plug-In . SVG Version: 6.00 Build 0)  -->
<svg version="1.1" id="Layer_1" xmlns="http://www.w3.org/2000/svg" xmlns:xlink="http://www.w3.org/1999/xlink" x="0px" y="0px"
	 viewBox="0 0 15.5 19" enable-background="new 0 0 15.5 19" xml:space="preserve">
<path d="M15,0.5c0,0-1.6,0.5-4,0.5C9.7,1,8.5,0.8,7.3,0.5C6.2,0.3,5,0,3.7,0C1.1,0,0.3,0.5,0.2,0.6L0,0.7v0.1v9.7V19h0.9v-8.3
	c0.3-0.1,1.2-0.4,2.8-0.4c1.2,0,2.3,0.2,3.5,0.5c1.2,0.3,2.4,0.5,3.8,0.5c2.6,0,4.2-0.6,4.3-0.6l0.3-0.1V0.3L15,0.5z"/>
<g>
</g>
<g>
</g>
<g>
</g>
<g>
</g>
<g>
</g>
<g>
</g>
<g>
</g>
<g>
</g>
<g>
</g>
<g>
</g>
<g>
</g>
<g>
</g>
<g>
</g>
<g>
</g>
<g>
</g>
</svg>
