<?xml version="1.0" encoding="utf-8"?>
<!-- Generator: Adobe Illustrator 18.1.1, SVG Export Plug-In . SVG Version: 6.00 Build 0)  -->
<svg version="1.1" id="Layer_1" xmlns="http://www.w3.org/2000/svg" xmlns:xlink="http://www.w3.org/1999/xlink" x="0px" y="0px"
	 viewBox="0 0 19 16.3" enable-background="new 0 0 19 16.3" xml:space="preserve">
<path d="M17.6,4.7c0.2,0,0.5,0.2,0.5,0.5v9.8c0,0.3-0.2,0.5-0.5,0.5H1.4c-0.2,0-0.5-0.2-0.5-0.5V5.1c0-0.3,0.2-0.5,0.5-0.5H17.6
	 M17.6,3.7H1.4C0.6,3.7,0,4.4,0,5.1v9.8c0,0.8,0.6,1.4,1.4,1.4h16.3c0.7,0,1.4-0.6,1.4-1.4V5.1C19,4.4,18.4,3.7,17.6,3.7"/>
<path d="M4.5,0.9c0.6,0,1.1,0.2,1.2,0.2C6.2,2,7.5,2.3,8.6,2.3h8.6c0.5,0,0.9,0.4,0.9,0.9v11.2c0,0.5-0.4,0.9-0.9,0.9H1.8
	c-0.5,0-0.9-0.4-0.9-0.9V1.9c0-0.5,0.4-0.9,0.9-0.9H4.5 M4.5,0H1.8C0.8,0,0,0.8,0,1.9v12.6c0,1,0.8,1.9,1.8,1.9h15.4
	c1,0,1.8-0.8,1.8-1.9V3.3c0-1-0.8-1.9-1.8-1.9H8.6c-1,0-1.9-0.3-2-0.7C6.4,0.3,5.5,0,4.5,0"/>
<g>
</g>
<g>
</g>
<g>
</g>
<g>
</g>
<g>
</g>
<g>
</g>
<g>
</g>
<g>
</g>
<g>
</g>
<g>
</g>
<g>
</g>
<g>
</g>
<g>
</g>
<g>
</g>
<g>
</g>
</svg>
