<?xml version="1.0" encoding="utf-8"?>
<!-- Generator: Adobe Illustrator 18.1.1, SVG Export Plug-In . SVG Version: 6.00 Build 0)  -->
<svg version="1.1" id="Layer_1" xmlns="http://www.w3.org/2000/svg" xmlns:xlink="http://www.w3.org/1999/xlink" x="0px" y="0px"
	 viewBox="0 0 18.2 18.2" enable-background="new 0 0 18.2 18.2" xml:space="preserve">
<g>
	<path d="M2.4,13.5c-1.3,0-2.4,1.1-2.4,2.4c0,1.3,1.1,2.4,2.4,2.4c1.3,0,2.4-1.1,2.4-2.4C4.8,14.5,3.7,13.5,2.4,13.5z M2.4,17.4
		c-0.9,0-1.6-0.7-1.6-1.6c0-0.9,0.7-1.6,1.6-1.6C3.2,14.2,4,15,4,15.8C4,16.7,3.2,17.4,2.4,17.4z"/>
	<path d="M2.4,0C1.1,0,0,1.1,0,2.4c0,1.3,1.1,2.4,2.4,2.4c1.3,0,2.4-1.1,2.4-2.4C4.8,1.1,3.7,0,2.4,0z M2.4,4C1.5,4,0.8,3.2,0.8,2.4
		c0-0.9,0.7-1.6,1.6-1.6C3.2,0.8,4,1.5,4,2.4C4,3.2,3.2,4,2.4,4z"/>
	<path d="M2.4,6.7C1.1,6.7,0,7.8,0,9.1c0,1.3,1.1,2.4,2.4,2.4c1.3,0,2.4-1.1,2.4-2.4C4.8,7.8,3.7,6.7,2.4,6.7z M2.4,10.7
		c-0.9,0-1.6-0.7-1.6-1.6c0-0.9,0.7-1.6,1.6-1.6C3.2,7.5,4,8.2,4,9.1C4,10,3.2,10.7,2.4,10.7z"/>
	<path d="M9.1,13.5c-1.3,0-2.4,1.1-2.4,2.4c0,1.3,1.1,2.4,2.4,2.4s2.4-1.1,2.4-2.4C11.5,14.5,10.4,13.5,9.1,13.5z M9.1,17.4
		c-0.9,0-1.6-0.7-1.6-1.6c0-0.9,0.7-1.6,1.6-1.6c0.9,0,1.6,0.7,1.6,1.6C10.7,16.7,10,17.4,9.1,17.4z"/>
	<path d="M9.1,0C7.8,0,6.7,1.1,6.7,2.4c0,1.3,1.1,2.4,2.4,2.4s2.4-1.1,2.4-2.4C11.5,1.1,10.4,0,9.1,0z M9.1,4C8.2,4,7.5,3.2,7.5,2.4
		c0-0.9,0.7-1.6,1.6-1.6c0.9,0,1.6,0.7,1.6,1.6C10.7,3.2,10,4,9.1,4z"/>
	<path d="M9.1,6.7c-1.3,0-2.4,1.1-2.4,2.4c0,1.3,1.1,2.4,2.4,2.4s2.4-1.1,2.4-2.4C11.5,7.8,10.4,6.7,9.1,6.7z M9.1,10.7
		c-0.9,0-1.6-0.7-1.6-1.6c0-0.9,0.7-1.6,1.6-1.6c0.9,0,1.6,0.7,1.6,1.6C10.7,10,10,10.7,9.1,10.7z"/>
	<path d="M15.8,13.5c-1.3,0-2.4,1.1-2.4,2.4c0,1.3,1.1,2.4,2.4,2.4c1.3,0,2.4-1.1,2.4-2.4C18.2,14.5,17.1,13.5,15.8,13.5z
		 M15.8,17.4c-0.9,0-1.6-0.7-1.6-1.6c0-0.9,0.7-1.6,1.6-1.6c0.9,0,1.6,0.7,1.6,1.6C17.4,16.7,16.7,17.4,15.8,17.4z"/>
	<path d="M15.8,4.8c1.3,0,2.4-1.1,2.4-2.4c0-1.3-1.1-2.4-2.4-2.4c-1.3,0-2.4,1.1-2.4,2.4C13.5,3.7,14.5,4.8,15.8,4.8z M15.8,0.8
		c0.9,0,1.6,0.7,1.6,1.6c0,0.9-0.7,1.6-1.6,1.6c-0.9,0-1.6-0.7-1.6-1.6C14.2,1.5,15,0.8,15.8,0.8z"/>
	<path d="M15.8,6.7c-1.3,0-2.4,1.1-2.4,2.4c0,1.3,1.1,2.4,2.4,2.4c1.3,0,2.4-1.1,2.4-2.4C18.2,7.8,17.1,6.7,15.8,6.7z M15.8,10.7
		c-0.9,0-1.6-0.7-1.6-1.6c0-0.9,0.7-1.6,1.6-1.6c0.9,0,1.6,0.7,1.6,1.6C17.4,10,16.7,10.7,15.8,10.7z"/>
</g>
<g>
</g>
<g>
</g>
<g>
</g>
<g>
</g>
<g>
</g>
<g>
</g>
<g>
</g>
<g>
</g>
<g>
</g>
<g>
</g>
<g>
</g>
<g>
</g>
<g>
</g>
<g>
</g>
<g>
</g>
</svg>
