<?xml version="1.0" encoding="utf-8"?>
<!-- Generator: Adobe Illustrator 18.1.1, SVG Export Plug-In . SVG Version: 6.00 Build 0)  -->
<svg version="1.1" id="Layer_1" xmlns="http://www.w3.org/2000/svg" xmlns:xlink="http://www.w3.org/1999/xlink" x="0px" y="0px"
	 viewBox="0 0 19 12.9" enable-background="new 0 0 19 12.9" xml:space="preserve">
<g>
	<path d="M0,0v0.8h0.6l0.2,1.5C0.8,2.6,0.8,2.8,1,3h17c0.1-0.2,0.2-0.5,0.2-0.8l0.2-1.5H19V0H0z"/>
	<path d="M3,11.5c0.1,0.8,0.6,1.5,1.5,1.5h10.2c0.8,0,1.3-0.6,1.5-1.5l1.3-7.7H1.7L3,11.5z M6.7,5.7l0.5-0.5l2.3,2.3l2.3-2.3
		l0.5,0.5L10,8l2.3,2.3l-0.5,0.5L9.5,8.5l-2.3,2.3l-0.5-0.5L9,8L6.7,5.7z"/>
</g>
<g>
</g>
<g>
</g>
<g>
</g>
<g>
</g>
<g>
</g>
<g>
</g>
<g>
</g>
<g>
</g>
<g>
</g>
<g>
</g>
<g>
</g>
<g>
</g>
<g>
</g>
<g>
</g>
<g>
</g>
</svg>
