<?xml version="1.0" encoding="utf-8"?>
<!-- Generator: Adobe Illustrator 18.1.1, SVG Export Plug-In . SVG Version: 6.00 Build 0)  -->
<svg version="1.1" id="Layer_1" xmlns="http://www.w3.org/2000/svg" xmlns:xlink="http://www.w3.org/1999/xlink" x="0px" y="0px"
	 viewBox="0 0 19 12.2" enable-background="new 0 0 19 12.2" xml:space="preserve">
<path d="M18.2,0H0.8H0.6H0.2H0v12.2h19V0h-0.7H18.2z M17.5,0.8l-7.3,7.3c-0.3,0.3-0.9,0.3-1.3,0L1.5,0.8H17.5z M0.8,1.1L5.7,6
	l-4.9,4.9V1.1z M1.4,11.4l4.9-4.9l2.1,2.1c0.3,0.3,0.7,0.5,1.2,0.5c0.4,0,0.9-0.2,1.2-0.5l2.1-2.1l4.9,4.9H1.4z M18.2,10.9L13.3,6
	l4.9-4.9V10.9z"/>
<g>
</g>
<g>
</g>
<g>
</g>
<g>
</g>
<g>
</g>
<g>
</g>
<g>
</g>
<g>
</g>
<g>
</g>
<g>
</g>
<g>
</g>
<g>
</g>
<g>
</g>
<g>
</g>
<g>
</g>
</svg>
