<?xml version="1.0" encoding="utf-8"?>
<!-- Generator: Adobe Illustrator 18.1.1, SVG Export Plug-In . SVG Version: 6.00 Build 0)  -->
<svg version="1.1" id="Layer_1" xmlns="http://www.w3.org/2000/svg" xmlns:xlink="http://www.w3.org/1999/xlink" x="0px" y="0px"
	 viewBox="0 0 12.7 19" enable-background="new 0 0 12.7 19" xml:space="preserve">
<path d="M6.3,0.6c3.1,0,5.7,2.6,5.7,5.7c0,1-0.3,2-0.8,2.8l-4.9,8.5L1.4,9.2C0.9,8.3,0.6,7.3,0.6,6.3C0.6,3.2,3.2,0.6,6.3,0.6
	 M6.3,8.2c1,0,1.9-0.9,1.9-1.9c0-1-0.9-1.9-1.9-1.9c-1,0-1.9,0.9-1.9,1.9C4.4,7.4,5.3,8.2,6.3,8.2 M6.3,0C2.8,0,0,2.8,0,6.3
	c0,1.2,0.3,2.2,0.9,3.2L6.3,19l5.5-9.5c0.5-0.9,0.9-2,0.9-3.2C12.7,2.8,9.8,0,6.3,0L6.3,0z M6.3,7.6C5.6,7.6,5.1,7,5.1,6.3
	c0-0.7,0.6-1.3,1.3-1.3c0.7,0,1.3,0.6,1.3,1.3C7.6,7,7,7.6,6.3,7.6L6.3,7.6z"/>
<g>
</g>
<g>
</g>
<g>
</g>
<g>
</g>
<g>
</g>
<g>
</g>
<g>
</g>
<g>
</g>
<g>
</g>
<g>
</g>
<g>
</g>
<g>
</g>
<g>
</g>
<g>
</g>
<g>
</g>
</svg>
