<?xml version="1.0" encoding="utf-8"?>
<!-- Generator: Adobe Illustrator 18.1.1, SVG Export Plug-In . SVG Version: 6.00 Build 0)  -->
<svg version="1.1" id="Layer_1" xmlns="http://www.w3.org/2000/svg" xmlns:xlink="http://www.w3.org/1999/xlink" x="0px" y="0px"
	 viewBox="0 0 10.8 19" enable-background="new 0 0 10.8 19" xml:space="preserve">
<g>
	<path d="M5.4,13.3c1.9,0,3.5-1.6,3.5-3.5V3.5C8.9,1.6,7.3,0,5.4,0C3.5,0,1.9,1.6,1.9,3.5v6.3C1.9,11.7,3.5,13.3,5.4,13.3z"/>
	<path d="M10.1,6.6v3.2c0,2.6-2.1,4.7-4.7,4.7c-2.6,0-4.7-2.1-4.7-4.7V6.6H0v3.2c0,2.9,2.3,5.2,5.1,5.4h0v3.2H2.2V19h6.3v-0.6H5.7
		v-3.2h0c2.8-0.1,5.1-2.5,5.1-5.4V6.6H10.1z"/>
</g>
<g>
</g>
<g>
</g>
<g>
</g>
<g>
</g>
<g>
</g>
<g>
</g>
<g>
</g>
<g>
</g>
<g>
</g>
<g>
</g>
<g>
</g>
<g>
</g>
<g>
</g>
<g>
</g>
<g>
</g>
</svg>
