<?xml version="1.0" encoding="utf-8"?>
<!-- Generator: Adobe Illustrator 18.1.1, SVG Export Plug-In . SVG Version: 6.00 Build 0)  -->
<svg version="1.1" id="Layer_1" xmlns="http://www.w3.org/2000/svg" xmlns:xlink="http://www.w3.org/1999/xlink" x="0px" y="0px"
	 viewBox="0 0 19 19" enable-background="new 0 0 19 19" xml:space="preserve">
<g>
	<circle cx="9.5" cy="9.5" r="9.5"/>
	<g>
		<g>
			<path fill="#FFFFFF" d="M9.5,12.1c1.3,0,2.4-1.1,2.4-2.4V5.3c0-1.3-1.1-2.4-2.4-2.4C8.2,2.9,7.1,4,7.1,5.3v4.4
				C7.1,11.1,8.2,12.1,9.5,12.1z"/>
			<path fill="#FFFFFF" d="M12.8,7.5v2.2c0,1.8-1.5,3.3-3.3,3.3c-1.8,0-3.3-1.5-3.3-3.3V7.5H5.8v2.2c0,2,1.6,3.6,3.5,3.7h0v2.2h-2
				v0.4h4.4v-0.4h-2v-2.2h0c2-0.1,3.5-1.7,3.5-3.7V7.5H12.8z"/>
		</g>
	</g>
</g>
<g>
</g>
<g>
</g>
<g>
</g>
<g>
</g>
<g>
</g>
<g>
</g>
<g>
</g>
<g>
</g>
<g>
</g>
<g>
</g>
<g>
</g>
<g>
</g>
<g>
</g>
<g>
</g>
<g>
</g>
</svg>
