<?xml version="1.0" encoding="utf-8"?>
<!-- Generator: Adobe Illustrator 18.1.1, SVG Export Plug-In . SVG Version: 6.00 Build 0)  -->
<svg version="1.1" id="Layer_1" xmlns="http://www.w3.org/2000/svg" xmlns:xlink="http://www.w3.org/1999/xlink" x="0px" y="0px"
	 viewBox="0 0 19 19" enable-background="new 0 0 19 19" xml:space="preserve">
<path d="M18.6,0.4C18.4,0.1,18,0,17.7,0c-0.3,0-0.6,0.1-0.9,0.4L13.2,4V3.3H0V19h15.7V5.8h-0.8l3.7-3.7C19.1,1.6,19.1,0.8,18.6,0.4z
	 M14.9,18.2h-14v-14h12.2l-6.5,6.5v1.8h1.7l6.5-6.5V18.2z M18,1.5l-10,10H7.4V11l10-10c0.1-0.1,0.2-0.1,0.3-0.1c0.1,0,0.2,0,0.3,0.1
	c0.1,0.1,0.1,0.2,0.1,0.3C18.1,1.3,18.1,1.4,18,1.5z"/>
<g>
</g>
<g>
</g>
<g>
</g>
<g>
</g>
<g>
</g>
<g>
</g>
<g>
</g>
<g>
</g>
<g>
</g>
<g>
</g>
<g>
</g>
<g>
</g>
<g>
</g>
<g>
</g>
<g>
</g>
</svg>
