<?xml version="1.0" encoding="utf-8"?>
<!-- Generator: Adobe Illustrator 18.1.1, SVG Export Plug-In . SVG Version: 6.00 Build 0)  -->
<svg version="1.1" id="Layer_1" xmlns="http://www.w3.org/2000/svg" xmlns:xlink="http://www.w3.org/1999/xlink" x="0px" y="0px"
	 viewBox="0 0 19 19" enable-background="new 0 0 19 19" xml:space="preserve">
<g>
	<path d="M18.6,0.4C18.4,0.1,18,0,17.7,0c-0.3,0-0.6,0.1-0.9,0.4l-3,3l-0.4,0.4l-0.4,0.4l-2.4,2.4l-4.1,4.1v1.8h1.7l2-2l4.5-4.5
		l0.1-0.1h0l0.2-0.2l3.5-3.5C19.1,1.6,19.1,0.8,18.6,0.4z"/>
	<polygon points="15.4,6.4 10.9,11 8.9,13 8.7,13.2 8.3,13.2 6.6,13.2 5.8,13.2 5.8,12.4 5.8,10.6 5.8,10.3 6,10 10.1,5.9 12.5,3.6 
		12.7,3.3 0,3.3 0,19 15.7,19 15.7,6.2 15.5,6.4 	"/>
</g>
<g>
</g>
<g>
</g>
<g>
</g>
<g>
</g>
<g>
</g>
<g>
</g>
<g>
</g>
<g>
</g>
<g>
</g>
<g>
</g>
<g>
</g>
<g>
</g>
<g>
</g>
<g>
</g>
<g>
</g>
</svg>
