<?xml version="1.0" encoding="utf-8"?>
<!-- Generator: Adobe Illustrator 18.1.1, SVG Export Plug-In . SVG Version: 6.00 Build 0)  -->
<svg version="1.1" id="Layer_1" xmlns="http://www.w3.org/2000/svg" xmlns:xlink="http://www.w3.org/1999/xlink" x="0px" y="0px"
	 viewBox="0 0 19 19" enable-background="new 0 0 19 19" xml:space="preserve">
<g>
	<path d="M9.5,0C4.3,0,0,4.3,0,9.5S4.3,19,9.5,19S19,14.7,19,9.5S14.7,0,9.5,0z M9.5,18.2c-4.8,0-8.7-3.9-8.7-8.7s3.9-8.7,8.7-8.7
		s8.7,3.9,8.7,8.7S14.3,18.2,9.5,18.2z"/>
	<path d="M9.5,4.5c-1.9,0-3,1.2-3,3.1h0.8c0-1.4,0.7-2.4,2.1-2.4c1,0,1.9,0.7,1.9,1.8c0,0.7-0.4,1.2-0.9,1.7c-1,0.9-1.3,1.4-1.3,2.7
		H10c0-1.2,0-1.1,1-2.2C11.7,8.6,12.2,8,12.2,7C12.2,5.4,10.9,4.5,9.5,4.5z"/>
	<circle cx="9.5" cy="13.7" r="0.8"/>
</g>
<g>
</g>
<g>
</g>
<g>
</g>
<g>
</g>
<g>
</g>
<g>
</g>
<g>
</g>
<g>
</g>
<g>
</g>
<g>
</g>
<g>
</g>
<g>
</g>
<g>
</g>
<g>
</g>
<g>
</g>
</svg>
