<?xml version="1.0" encoding="utf-8"?>
<!-- Generator: Adobe Illustrator 18.1.1, SVG Export Plug-In . SVG Version: 6.00 Build 0)  -->
<svg version="1.1" id="Layer_1" xmlns="http://www.w3.org/2000/svg" xmlns:xlink="http://www.w3.org/1999/xlink" x="0px" y="0px"
	 viewBox="0 0 19 19" enable-background="new 0 0 19 19" xml:space="preserve">
<path d="M9.5,0C4.3,0,0,4.3,0,9.5S4.3,19,9.5,19c5.2,0,9.5-4.3,9.5-9.5S14.7,0,9.5,0z M9.5,14.4c-0.4,0-0.8-0.3-0.8-0.8
	s0.3-0.8,0.8-0.8c0.4,0,0.8,0.3,0.8,0.8S9.9,14.4,9.5,14.4z M11,9.2c-1,1-1,1-1,2.2H9.1c0.1-1.3,0.3-1.7,1.3-2.7
	c0.5-0.5,0.9-1,0.9-1.7c0-1.1-0.9-1.8-1.9-1.8c-1.4,0-2.2,1-2.1,2.4H6.4c0-1.9,1.1-3.1,3-3.1c1.5,0,2.7,0.9,2.7,2.5
	C12.2,8,11.7,8.6,11,9.2z"/>
<g>
</g>
<g>
</g>
<g>
</g>
<g>
</g>
<g>
</g>
<g>
</g>
<g>
</g>
<g>
</g>
<g>
</g>
<g>
</g>
<g>
</g>
<g>
</g>
<g>
</g>
<g>
</g>
<g>
</g>
</svg>
