<?xml version="1.0" encoding="utf-8"?>
<!-- Generator: Adobe Illustrator 18.1.1, SVG Export Plug-In . SVG Version: 6.00 Build 0)  -->
<svg version="1.1" id="Layer_1" xmlns="http://www.w3.org/2000/svg" xmlns:xlink="http://www.w3.org/1999/xlink" x="0px" y="0px"
	 viewBox="0 0 19 7.6" enable-background="new 0 0 19 7.6" xml:space="preserve">
<path d="M18.5,3.2h-0.2C18,1.4,16.4,0,14.6,0c-1.9,0-3.5,1.4-3.7,3.2L9.7,2.6c-0.1-0.1-0.2-0.1-0.3,0L8.2,3.2C7.9,1.4,6.3,0,4.4,0
	C2.6,0,1,1.4,0.7,3.2H0.5C0.2,3.2,0,3.4,0,3.6c0,0.3,0.2,0.5,0.5,0.5h0.2c0.2,2,1.8,3.5,3.8,3.5c2.1,0,3.8-1.7,3.8-3.7l1.3-0.7
	l1.3,0.7c0,2.1,1.7,3.7,3.8,3.7c2,0,3.6-1.5,3.8-3.5h0.2c0.3,0,0.5-0.2,0.5-0.5S18.8,3.2,18.5,3.2z M4.4,7C2.7,7,1.3,5.5,1.3,3.8
	c0-1.7,1.4-3.2,3.2-3.2c1.7,0,3.2,1.4,3.2,3.2C7.6,5.5,6.2,7,4.4,7z M14.6,7c-1.7,0-3.2-1.4-3.2-3.2c0-1.7,1.4-3.2,3.2-3.2
	s3.2,1.4,3.2,3.2C17.7,5.5,16.3,7,14.6,7z"/>
<g>
</g>
<g>
</g>
<g>
</g>
<g>
</g>
<g>
</g>
<g>
</g>
<g>
</g>
<g>
</g>
<g>
</g>
<g>
</g>
<g>
</g>
<g>
</g>
<g>
</g>
<g>
</g>
<g>
</g>
</svg>
