<?xml version="1.0" encoding="utf-8"?>
<!-- Generator: Adobe Illustrator 18.1.1, SVG Export Plug-In . SVG Version: 6.00 Build 0)  -->
<svg version="1.1" id="Layer_1" xmlns="http://www.w3.org/2000/svg" xmlns:xlink="http://www.w3.org/1999/xlink" x="0px" y="0px"
	 viewBox="0 0 19 19" enable-background="new 0 0 19 19" xml:space="preserve">
<path d="M10.6,0.8V2v0.6l0.6,0.1c0.6,0.2,1.3,0.4,1.8,0.8l0.5,0.3L14,3.4l0.9-0.9l1.6,1.6l-0.9,0.9l-0.4,0.4L15.4,6
	c0.3,0.6,0.6,1.2,0.7,1.8l0.1,0.6h0.6h1.4v2.3h-1.4h-0.6l-0.2,0.6c-0.2,0.6-0.4,1.2-0.7,1.7L15,13.4l0.4,0.4l1,1l-1.6,1.6l-1.1-1.1
	L13.4,15l-0.5,0.3c-0.5,0.3-1.1,0.5-1.7,0.7l-0.6,0.1v0.6v1.5H8.4v-1.5v-0.6L7.8,16c-0.6-0.2-1.2-0.4-1.7-0.7L5.6,15l-0.4,0.4
	l-1.1,1.1l-1.6-1.6l1-1L4,13.4l-0.3-0.5c-0.3-0.5-0.6-1.1-0.7-1.7l-0.2-0.6H2.2H0.8V8.4h1.4h0.6l0.1-0.6C3,7.1,3.2,6.5,3.6,6
	l0.3-0.5L3.4,5.1L2.5,4.1l1.6-1.6L5,3.4l0.4,0.4L6,3.5c0.6-0.3,1.2-0.6,1.8-0.8l0.6-0.1V2V0.8H10.6 M9.5,12.9c1.9,0,3.4-1.5,3.4-3.4
	c0-1.9-1.5-3.4-3.4-3.4c-1.9,0-3.4,1.5-3.4,3.4C6.1,11.4,7.6,12.9,9.5,12.9 M11.4,0H7.6v2c-0.7,0.2-1.4,0.5-2,0.9L4.1,1.4L1.4,4.1
	l1.5,1.5c-0.4,0.6-0.6,1.3-0.8,2H0v3.8h2.2c0.2,0.7,0.5,1.3,0.8,1.9l-1.6,1.6l2.7,2.7L5.7,16c0.6,0.3,1.2,0.6,1.9,0.8V19h3.8v-2.3
	c0.7-0.2,1.3-0.4,1.9-0.8l1.6,1.6l2.7-2.7L16,13.3c0.4-0.6,0.6-1.2,0.8-1.9H19V7.6h-2.1c-0.2-0.7-0.4-1.4-0.8-2l1.5-1.5l-2.7-2.7
	l-1.4,1.4c-0.6-0.4-1.3-0.7-2-0.9V0L11.4,0z M9.5,12.2C8,12.2,6.8,11,6.8,9.5S8,6.8,9.5,6.8c1.5,0,2.7,1.2,2.7,2.7S11,12.2,9.5,12.2
	L9.5,12.2z"/>
<g>
</g>
<g>
</g>
<g>
</g>
<g>
</g>
<g>
</g>
<g>
</g>
<g>
</g>
<g>
</g>
<g>
</g>
<g>
</g>
<g>
</g>
<g>
</g>
<g>
</g>
<g>
</g>
<g>
</g>
</svg>
