<?xml version="1.0" encoding="utf-8"?>
<!-- Generator: Adobe Illustrator 18.1.1, SVG Export Plug-In . SVG Version: 6.00 Build 0)  -->
<svg version="1.1" id="Layer_1" xmlns="http://www.w3.org/2000/svg" xmlns:xlink="http://www.w3.org/1999/xlink" x="0px" y="0px"
	 viewBox="0 0 17.5 19" enable-background="new 0 0 17.5 19" xml:space="preserve">
<g>
	<path d="M15.2,4.4l0.6-0.6l0.7,0.7l0.8-0.8l-1.8-1.8l-0.8,0.8l0.7,0.7l-0.6,0.6c-1.4-1.3-3.3-2.1-5.3-2.3V0H8.2v1.5
		C3.6,1.8,0,5.6,0,10.3C0,15.1,3.9,19,8.7,19c4.8,0,8.7-3.9,8.7-8.7C17.5,8,16.6,5.9,15.2,4.4z M8.7,18.2c-4.4,0-8-3.6-8-8
		c0-4.4,3.6-8,8-8c4.4,0,8,3.6,8,8C16.7,14.7,13.1,18.2,8.7,18.2z"/>
	<path d="M9.1,9.2v-5H8.4v5c-0.4,0.2-0.8,0.6-0.8,1.1c0,0.5,0.3,0.9,0.8,1.1v1.6h0.8v-1.6c0.4-0.2,0.8-0.6,0.8-1.1
		C9.9,9.8,9.6,9.3,9.1,9.2z"/>
</g>
<g>
</g>
<g>
</g>
<g>
</g>
<g>
</g>
<g>
</g>
<g>
</g>
<g>
</g>
<g>
</g>
<g>
</g>
<g>
</g>
<g>
</g>
<g>
</g>
<g>
</g>
<g>
</g>
<g>
</g>
</svg>
