<?xml version="1.0" encoding="utf-8"?>
<!-- Generator: Adobe Illustrator 18.1.1, SVG Export Plug-In . SVG Version: 6.00 Build 0)  -->
<svg version="1.1" id="Layer_1" xmlns="http://www.w3.org/2000/svg" xmlns:xlink="http://www.w3.org/1999/xlink" x="0px" y="0px"
	 viewBox="0 0 17.5 19" enable-background="new 0 0 17.5 19" xml:space="preserve">
<path d="M15.2,4.4l0.6-0.6l0.7,0.7l0.8-0.8l-1.8-1.8l-0.8,0.8l0.7,0.7l-0.6,0.6c-1.4-1.3-3.3-2.1-5.3-2.3V0H8.2v1.5
	C3.6,1.8,0,5.6,0,10.3C0,15.1,3.9,19,8.7,19c4.8,0,8.7-3.9,8.7-8.7C17.5,8,16.6,5.9,15.2,4.4z M9.1,11.3v1.6H8.4v-1.6
	c-0.4-0.2-0.8-0.6-0.8-1.1c0-0.5,0.3-0.9,0.8-1.1v-5h0.8v5c0.4,0.2,0.8,0.6,0.8,1.1C9.9,10.8,9.6,11.2,9.1,11.3z"/>
<g>
</g>
<g>
</g>
<g>
</g>
<g>
</g>
<g>
</g>
<g>
</g>
<g>
</g>
<g>
</g>
<g>
</g>
<g>
</g>
<g>
</g>
<g>
</g>
<g>
</g>
<g>
</g>
<g>
</g>
</svg>
