<?xml version="1.0" encoding="utf-8"?>
<!-- Generator: Adobe Illustrator 18.1.1, SVG Export Plug-In . SVG Version: 6.00 Build 0)  -->
<svg version="1.1" id="Layer_1" xmlns="http://www.w3.org/2000/svg" xmlns:xlink="http://www.w3.org/1999/xlink" x="0px" y="0px"
	 viewBox="0 0 19 19" enable-background="new 0 0 19 19" xml:space="preserve">
<g>
	<path d="M8.6,10.2C8.6,10.2,8.6,10.2,8.6,10.2c0.3,0.3,0.6,0.5,0.9,0.5c0.6,0,1.1-0.5,1.1-1.1c0-0.3-0.1-0.6-0.4-0.8
		c0,0-0.1-0.1-0.1-0.1L5.6,5.1c-0.1-0.1-0.3-0.1-0.5,0C4.9,5.2,4.9,5.4,5,5.6L8.6,10.2z"/>
	<path d="M9.5,0C9.4,0,9.3,0,9.1,0v0.4h0v4.1h0.8V0.8c4.6,0.2,8.4,4,8.4,8.7c0,4.8-3.9,8.7-8.7,8.7c-4.8,0-8.7-3.9-8.7-8.7
		c0-2.4,1-4.6,2.6-6.2L2.8,2.8C1.1,4.5,0,6.9,0,9.5C0,14.7,4.3,19,9.5,19c5.2,0,9.5-4.3,9.5-9.5S14.7,0,9.5,0z"/>
</g>
<g>
</g>
<g>
</g>
<g>
</g>
<g>
</g>
<g>
</g>
<g>
</g>
<g>
</g>
<g>
</g>
<g>
</g>
<g>
</g>
<g>
</g>
<g>
</g>
<g>
</g>
<g>
</g>
<g>
</g>
</svg>
