<?xml version="1.0" encoding="utf-8"?>
<!-- Generator: Adobe Illustrator 18.1.1, SVG Export Plug-In . SVG Version: 6.00 Build 0)  -->
<svg version="1.1" id="Layer_1" xmlns="http://www.w3.org/2000/svg" xmlns:xlink="http://www.w3.org/1999/xlink" x="0px" y="0px"
	 viewBox="0 0 19 19" enable-background="new 0 0 19 19" xml:space="preserve">
<path d="M9.5,0C4.3,0,0,4.3,0,9.5S4.3,19,9.5,19c5.2,0,9.5-4.3,9.5-9.5S14.7,0,9.5,0z M5.1,5.1c0.1-0.1,0.3-0.1,0.5,0l4.6,3.5
	c0,0,0.1,0.1,0.1,0.1c0.2,0.2,0.4,0.5,0.4,0.8c0,0.6-0.5,1.1-1.1,1.1c-0.4,0-0.7-0.2-0.9-0.4c0,0,0,0-0.1-0.1L5,5.6
	C4.9,5.4,4.9,5.2,5.1,5.1z M9.5,18.2c-4.8,0-8.7-3.9-8.7-8.7c0-2.4,1-4.6,2.6-6.2l0.5,0.5C2.4,5.3,1.5,7.3,1.5,9.5c0,4.4,3.6,8,8,8
	s8-3.6,8-8c0-4.3-3.4-7.8-7.6-8v3H9.1v-3V1.1V0.8c0.1,0,0.3,0,0.4,0c4.8,0,8.7,3.9,8.7,8.7C18.2,14.3,14.3,18.2,9.5,18.2z"/>
<g>
</g>
<g>
</g>
<g>
</g>
<g>
</g>
<g>
</g>
<g>
</g>
<g>
</g>
<g>
</g>
<g>
</g>
<g>
</g>
<g>
</g>
<g>
</g>
<g>
</g>
<g>
</g>
<g>
</g>
</svg>
