<?xml version="1.0" encoding="utf-8"?>
<!-- Generator: Adobe Illustrator 18.1.1, SVG Export Plug-In . SVG Version: 6.00 Build 0)  -->
<svg version="1.1" id="Layer_1" xmlns="http://www.w3.org/2000/svg" xmlns:xlink="http://www.w3.org/1999/xlink" x="0px" y="0px"
	 viewBox="0 0 19 19" enable-background="new 0 0 19 19" xml:space="preserve">
<g>
	<path d="M0,0v19h19V0H0z M5.3,15.8L4.1,15L3,15.8l0.4-1.3l-1.1-0.8h1.4l0.4-1.3l0.4,1.3h1.4l-1.1,0.8L5.3,15.8z M4.8,9.9l0.4,1.3
		l-1.1-0.8L3,11.2l0.4-1.3L2.4,9.1h1.4l0.4-1.3l0.4,1.3h1.4L4.8,9.9z M4.8,5.3l0.4,1.3L4.1,5.9L3,6.7l0.4-1.3L2.4,4.5h1.4l0.4-1.3
		l0.4,1.3h1.4L4.8,5.3z M16.6,14.5H6.8v-0.8h9.9V14.5z M16.6,9.9H6.8V9.1h9.9V9.9z M16.6,5.3H6.8V4.5h9.9V5.3z"/>
</g>
<g>
</g>
<g>
</g>
<g>
</g>
<g>
</g>
<g>
</g>
<g>
</g>
<g>
</g>
<g>
</g>
<g>
</g>
<g>
</g>
<g>
</g>
<g>
</g>
<g>
</g>
<g>
</g>
<g>
</g>
</svg>
