<?xml version="1.0" encoding="utf-8"?>
<!-- Generator: Adobe Illustrator 18.1.1, SVG Export Plug-In . SVG Version: 6.00 Build 0)  -->
<svg version="1.1" id="Layer_1" xmlns="http://www.w3.org/2000/svg" xmlns:xlink="http://www.w3.org/1999/xlink" x="0px" y="0px"
	 viewBox="0 0 19 19" enable-background="new 0 0 19 19" xml:space="preserve">
<polygon points="4.1,12.3 3.7,13.7 2.4,13.7 3.5,14.5 3.1,15.8 4.2,15 5.3,15.8 4.8,14.5 5.9,13.7 4.6,13.7 "/>
<polygon points="4.1,7.8 3.7,9.1 2.4,9.1 3.5,9.9 3.1,11.2 4.2,10.4 5.3,11.2 4.8,9.9 5.9,9.1 4.6,9.1 "/>
<polygon points="4.1,3.2 3.7,4.5 2.4,4.5 3.5,5.4 3.1,6.7 4.2,5.9 5.3,6.7 4.8,5.3 5.9,4.5 4.6,4.5 "/>
<rect x="6.8" y="4.5" width="9.9" height="0.8"/>
<rect x="6.8" y="9.1" width="9.9" height="0.8"/>
<rect x="6.8" y="13.7" width="9.9" height="0.8"/>
<path d="M19,19H0V0h19V19z M0.9,18.1h17.2V0.9H0.9V18.1z"/>
<g>
</g>
<g>
</g>
<g>
</g>
<g>
</g>
<g>
</g>
<g>
</g>
<g>
</g>
<g>
</g>
<g>
</g>
<g>
</g>
<g>
</g>
<g>
</g>
<g>
</g>
<g>
</g>
<g>
</g>
</svg>
