<?xml version="1.0" encoding="utf-8"?>
<!-- Generator: Adobe Illustrator 18.1.1, SVG Export Plug-In . SVG Version: 6.00 Build 0)  -->
<svg version="1.1" id="Layer_1" xmlns="http://www.w3.org/2000/svg" xmlns:xlink="http://www.w3.org/1999/xlink" x="0px" y="0px"
	 viewBox="0 0 14.2 19" enable-background="new 0 0 14.2 19" xml:space="preserve">
<rect x="0" y="2.3" width="14.2" height="0.8"/>
<path d="M10.3,2.7H9.5V1.1c0-0.1-0.1-0.4-0.8-0.4H5.5c-0.7,0-0.8,0.3-0.8,0.4v1.5H4V1.1C4,0.7,4.3,0,5.5,0h3.2
	c1.3,0,1.6,0.7,1.6,1.1V2.7z"/>
<path d="M10.7,19H3.6c-1,0-1.5-0.9-1.5-1L2,18L0.8,2.7l0.8-0.1l1.2,15.1c0.1,0.1,0.4,0.5,0.8,0.5h7.1c0.4,0,0.7-0.4,0.8-0.5
	l1.2-15.1l0.8,0.1L12.3,18l0,0.1C12.2,18.1,11.7,19,10.7,19"/>
<rect x="-1.5" y="10.2" transform="matrix(3.250963e-02 0.9995 -0.9995 3.250963e-02 15.0386 5.7442)" width="12.2" height="0.8"/>
<rect x="6.7" y="4.6" width="0.8" height="12.2"/>
<rect x="9.3" y="4.6" transform="matrix(0.9995 3.025097e-02 -3.025097e-02 0.9995 0.3263 -0.2885)" width="0.8" height="12.2"/>
<g>
</g>
<g>
</g>
<g>
</g>
<g>
</g>
<g>
</g>
<g>
</g>
<g>
</g>
<g>
</g>
<g>
</g>
<g>
</g>
<g>
</g>
<g>
</g>
<g>
</g>
<g>
</g>
<g>
</g>
</svg>
