<?xml version="1.0" encoding="utf-8"?>
<!-- Generator: Adobe Illustrator 18.1.1, SVG Export Plug-In . SVG Version: 6.00 Build 0)  -->
<svg version="1.1" id="Layer_1" xmlns="http://www.w3.org/2000/svg" xmlns:xlink="http://www.w3.org/1999/xlink" x="0px" y="0px"
	 viewBox="0 0 14.4 19" enable-background="new 0 0 14.4 19" xml:space="preserve">
<path d="M10.6,2.3V1.5C10.6,0.7,10,0,9.1,0H5.3C4.5,0,3.8,0.7,3.8,1.5v0.8H0V3h0.8l0.8,14.4c0,0.8,0.7,1.5,1.5,1.5h8.4
	c0.8,0,1.5-0.7,1.5-1.5L13.7,3h0.8V2.3H10.6z M4.6,1.5c0-0.4,0.3-0.8,0.8-0.8h3.8c0.4,0,0.8,0.3,0.8,0.8v0.8H4.6V1.5z M4.6,16.7
	L3.8,4.6l0.8,0l0.8,12.1L4.6,16.7z M7.6,16.7H6.8V4.6h0.8V16.7z M9.9,16.7l-0.8,0L9.9,4.5l0.8,0L9.9,16.7z"/>
<g>
</g>
<g>
</g>
<g>
</g>
<g>
</g>
<g>
</g>
<g>
</g>
<g>
</g>
<g>
</g>
<g>
</g>
<g>
</g>
<g>
</g>
<g>
</g>
<g>
</g>
<g>
</g>
<g>
</g>
</svg>
