<?xml version="1.0" encoding="utf-8"?>
<!-- Generator: Adobe Illustrator 18.1.1, SVG Export Plug-In . SVG Version: 6.00 Build 0)  -->
<svg version="1.1" id="Layer_1" xmlns="http://www.w3.org/2000/svg" xmlns:xlink="http://www.w3.org/1999/xlink" x="0px" y="0px"
	 viewBox="0 0 19 8.2" enable-background="new 0 0 19 8.2" xml:space="preserve">
<path d="M14.9,0c-2.3,0-4.1,1.8-4.1,4.1c0,1.5,0.8,2.8,1.9,3.5H6.3c1.2-0.7,1.9-2,1.9-3.5C8.2,1.8,6.4,0,4.1,0C1.8,0,0,1.8,0,4.1
	c0,2.2,1.8,4.1,4,4.1v0h10.9c2.3,0,4.1-1.8,4.1-4.1C19,1.8,17.2,0,14.9,0z M0.6,4.1c0-1.9,1.6-3.5,3.5-3.5c1.9,0,3.5,1.6,3.5,3.5
	S6,7.6,4.1,7.6C2.2,7.6,0.6,6,0.6,4.1z M14.9,7.6c-1.9,0-3.5-1.6-3.5-3.5s1.6-3.5,3.5-3.5c1.9,0,3.5,1.6,3.5,3.5S16.8,7.6,14.9,7.6z
	"/>
<g>
</g>
<g>
</g>
<g>
</g>
<g>
</g>
<g>
</g>
<g>
</g>
<g>
</g>
<g>
</g>
<g>
</g>
<g>
</g>
<g>
</g>
<g>
</g>
<g>
</g>
<g>
</g>
<g>
</g>
</svg>
