<?xml version="1.0" encoding="utf-8"?>
<!-- Generator: Adobe Illustrator 18.1.1, SVG Export Plug-In . SVG Version: 6.00 Build 0)  -->
<svg version="1.1" id="Layer_1" xmlns="http://www.w3.org/2000/svg" xmlns:xlink="http://www.w3.org/1999/xlink" x="0px" y="0px"
	 viewBox="0 0 19 19" enable-background="new 0 0 19 19" xml:space="preserve">
<g>
	<path d="M9.5,0C9.5,0,9.5,0,9.5,0C9.5,0,9.5,0,9.5,0C9.5,0,9.5,0,9.5,0C4.2,0,0,4.3,0,9.5S4.2,19,9.5,19c0,0,0,0,0,0c0,0,0,0,0,0
		c0,0,0,0,0,0c5.2,0,9.5-4.3,9.5-9.5C19,4.3,14.7,0,9.5,0z M9.5,18.2L9.5,18.2L9.5,18.2c-4.9,0-8.8-3.9-8.8-8.7s3.9-8.7,8.7-8.7l0,0
		h0c4.8,0,8.7,3.9,8.7,8.7C18.2,14.3,14.3,18.2,9.5,18.2z"/>
	<path d="M15.2,3.9c-1-1.1-2.4-1.8-3.8-2.2C12,2.4,12.6,3.5,13,4.8C13.8,4.6,14.5,4.3,15.2,3.9z"/>
	<path d="M9.9,1.6v3.7c0.8,0,1.7-0.1,2.5-0.3C11.7,3.1,10.8,1.9,9.9,1.6z"/>
	<path d="M12.5,5.7C11.7,5.9,10.8,6,9.9,6v3.1H13C12.9,7.8,12.8,6.7,12.5,5.7z"/>
	<path d="M6.6,5c0.8,0.2,1.6,0.3,2.5,0.3V1.6C8.2,1.8,7.2,3.1,6.6,5z"/>
	<path d="M13,9.9H9.9V13c0.9,0,1.8,0.1,2.6,0.4C12.8,12.3,12.9,11.2,13,9.9z"/>
	<path d="M13.7,9.1h3.8c-0.1-1.8-0.7-3.4-1.8-4.7c-0.8,0.4-1.6,0.8-2.5,1C13.5,6.6,13.6,7.8,13.7,9.1z"/>
	<path d="M6.5,13.3C7.3,13.1,8.2,13,9.1,13V9.9H6C6,11.2,6.2,12.3,6.5,13.3z"/>
	<path d="M6,9.1h3.1V6C8.2,6,7.3,5.9,6.5,5.7C6.2,6.7,6,7.8,6,9.1z"/>
	<path d="M7.6,1.7C6.1,2.1,4.8,2.9,3.8,3.9C4.5,4.3,5.2,4.6,6,4.8C6.4,3.5,6.9,2.4,7.6,1.7z"/>
	<path d="M11.4,17.3c1.5-0.4,2.8-1.1,3.8-2.2c-0.7-0.4-1.4-0.7-2.2-0.9C12.6,15.5,12,16.6,11.4,17.3z"/>
	<path d="M13.2,13.5c0.9,0.3,1.7,0.6,2.5,1c1.1-1.3,1.7-2.9,1.8-4.7h-3.8C13.6,11.2,13.5,12.4,13.2,13.5z"/>
	<path d="M9.9,13.7v3.7c0.9-0.3,1.9-1.5,2.5-3.4C11.5,13.8,10.7,13.7,9.9,13.7z"/>
	<path d="M5.8,5.5c-0.9-0.3-1.7-0.6-2.5-1C2.3,5.7,1.6,7.3,1.5,9.1h3.8C5.3,7.8,5.5,6.6,5.8,5.5z"/>
	<path d="M9.1,17.4v-3.7c-0.9,0-1.7,0.1-2.5,0.3C7.2,15.9,8.2,17.2,9.1,17.4z"/>
	<path d="M5.3,9.9H1.5c0.1,1.8,0.7,3.4,1.8,4.7c0.8-0.4,1.6-0.8,2.5-1C5.5,12.4,5.3,11.2,5.3,9.9z"/>
	<path d="M3.8,15.1c1,1,2.3,1.8,3.8,2.2c-0.7-0.7-1.2-1.8-1.6-3.1C5.2,14.4,4.5,14.7,3.8,15.1z"/>
</g>
<g>
</g>
<g>
</g>
<g>
</g>
<g>
</g>
<g>
</g>
<g>
</g>
<g>
</g>
<g>
</g>
<g>
</g>
<g>
</g>
<g>
</g>
<g>
</g>
<g>
</g>
<g>
</g>
<g>
</g>
</svg>
