<?xml version="1.0" encoding="utf-8"?>
<!-- Generator: Adobe Illustrator 18.1.1, SVG Export Plug-In . SVG Version: 6.00 Build 0)  -->
<svg version="1.1" id="Layer_1" xmlns="http://www.w3.org/2000/svg" xmlns:xlink="http://www.w3.org/1999/xlink" x="0px" y="0px"
	 viewBox="0 0 19 19" enable-background="new 0 0 19 19" xml:space="preserve">
<path d="M9.5,0C9.5,0,9.5,0,9.5,0C9.5,0,9.5,0,9.5,0C9.5,0,9.5,0,9.5,0C4.2,0,0,4.3,0,9.5C0,14.7,4.2,19,9.5,19c0,0,0,0,0,0
	c0,0,0,0,0,0c0,0,0,0,0,0c5.2,0,9.5-4.3,9.5-9.5S14.7,0,9.5,0z M9.9,5.7c1,0,2-0.2,2.9-0.4c0.3,1.1,0.5,2.4,0.5,3.8H9.9V5.7z
	 M9.9,4.9V0.8c1,0.3,2.1,1.7,2.7,3.7C11.7,4.8,10.8,4.9,9.9,4.9z M9.1,0.8v4.1c-0.9,0-1.9-0.2-2.7-0.4C7,2.5,8.1,1.1,9.1,0.8z
	 M9.1,5.7v3.4H5.7c0-1.4,0.2-2.7,0.5-3.8C7.1,5.5,8.1,5.7,9.1,5.7z M4.9,9.1H0.8c0.1-2,0.8-3.7,2-5.2c0.8,0.5,1.7,0.8,2.7,1.1
	C5.1,6.3,4.9,7.7,4.9,9.1z M4.9,9.9c0,1.5,0.2,2.8,0.5,4c-0.9,0.3-1.8,0.7-2.7,1.1c-1.2-1.4-1.9-3.2-2-5.2H4.9z M5.7,9.9h3.4v3.4
	c-1,0-2,0.2-3,0.4C5.9,12.6,5.7,11.3,5.7,9.9z M9.1,14.1v4.1c-1-0.3-2.1-1.6-2.7-3.8C7.3,14.2,8.2,14.1,9.1,14.1z M9.9,18.2v-4.1
	c0.9,0,1.8,0.2,2.7,0.4C11.9,16.5,10.9,17.9,9.9,18.2z M9.9,13.3V9.9h3.4c0,1.4-0.2,2.7-0.5,3.8C11.9,13.5,10.9,13.3,9.9,13.3z
	 M14.1,9.9h4.2c-0.1,2-0.8,3.7-2,5.2c-0.9-0.5-1.8-0.9-2.7-1.1C13.9,12.7,14,11.3,14.1,9.9z M14.1,9.1c0-1.4-0.2-2.8-0.5-4
	c0.9-0.3,1.9-0.7,2.7-1.1c1.2,1.4,1.9,3.2,2,5.2H14.1z M15.7,3.4c-0.8,0.4-1.6,0.7-2.4,1c-0.4-1.4-1.1-2.6-1.8-3.4
	C13.2,1.4,14.6,2.2,15.7,3.4z M7.4,1C6.7,1.8,6.1,2.9,5.6,4.4C4.8,4.1,4,3.8,3.3,3.4C4.4,2.2,5.8,1.4,7.4,1z M3.3,15.6
	c0.7-0.4,1.5-0.7,2.4-1c0.4,1.4,1.1,2.6,1.8,3.4C5.8,17.6,4.4,16.8,3.3,15.6z M11.5,18c0.7-0.8,1.4-1.9,1.8-3.4
	c0.8,0.3,1.6,0.6,2.4,1C14.6,16.8,13.2,17.6,11.5,18z"/>
<g>
</g>
<g>
</g>
<g>
</g>
<g>
</g>
<g>
</g>
<g>
</g>
<g>
</g>
<g>
</g>
<g>
</g>
<g>
</g>
<g>
</g>
<g>
</g>
<g>
</g>
<g>
</g>
<g>
</g>
</svg>
