<?xml version="1.0" encoding="utf-8"?>
<!-- Generator: Adobe Illustrator 18.1.1, SVG Export Plug-In . SVG Version: 6.00 Build 0)  -->
<svg version="1.1" id="Layer_1" xmlns="http://www.w3.org/2000/svg" xmlns:xlink="http://www.w3.org/1999/xlink" x="0px" y="0px"
	 viewBox="0 0 612.6 432.3" enable-background="new 0 0 612.6 432.3" xml:space="preserve">
<g>
	<rect x="161.2" y="385.6" width="388.9" height="46.7"/>
	<path d="M599.2,175.4L565.3,159c-11.7-5.8-29.2-4.7-40.9,2.3l0,0L459,205.7l-57.2-28L516.2,60.9c9.3-9.3,7-21-4.7-26.9l0,0
		L449.7,3.7l0,0C440.3-1,425.1-1,415.8,2.5l0,0L209.1,84.3C182.2,71.4,106.3,34,103.9,32.9c-10.5-4.7-21-7-31.5-7
		C45.5,25.9,19.9,41,7,66.7c-4.7,10.5-7,21-7,31.5c0,26.9,15.2,52.6,40.9,65.4l356.2,171.7h150.7l63.1-129.6l0,0
		C615.5,195.2,610.8,181.2,599.2,175.4z M517.4,288.6H407.6l-346.9-167c-9.3-4.7-14-14-14-23.4c0-3.5,1.2-7,2.3-10.5
		c4.7-9.3,12.8-14,23.4-14c3.5,0,7,1.2,10.5,2.3c0,0,1.2,0,1.2,1.2l122.6,59.6L431,46.9l22.2,10.5L322.4,191.7l140.2,67.7l84.1-57.2
		l10.5,4.7L517.4,288.6z"/>
</g>
<g>
</g>
<g>
</g>
<g>
</g>
<g>
</g>
<g>
</g>
<g>
</g>
<g>
</g>
<g>
</g>
<g>
</g>
<g>
</g>
<g>
</g>
<g>
</g>
<g>
</g>
<g>
</g>
<g>
</g>
</svg>
