<?xml version="1.0" encoding="utf-8"?>
<!-- Generator: Adobe Illustrator 18.1.1, SVG Export Plug-In . SVG Version: 6.00 Build 0)  -->
<svg version="1.1" id="Layer_1" xmlns="http://www.w3.org/2000/svg" xmlns:xlink="http://www.w3.org/1999/xlink" x="0px" y="0px"
	 viewBox="0 0 52 35.9" enable-background="new 0 0 52 35.9" xml:space="preserve">
<g>
	<path d="M47.4,32.8H12.1c-0.5,0-0.8,0.4-0.8,0.8v1.5c0,0.4,0.4,0.8,0.8,0.8h35.3c0.5,0,0.8-0.4,0.8-0.8v-1.5
		C48.2,33.1,47.8,32.8,47.4,32.8z M52,17.2c-0.1-0.2-0.2-0.4-0.4-0.5l-3.2-1.3c-0.2-0.1-0.4-0.1-0.5,0l-8.3,3.6c0,0,0,0,0,0
		l-5.8-2.4l8.4-13.5c0.1-0.2,0.1-0.4,0.1-0.6c-0.1-0.2-0.2-0.4-0.4-0.4l-4.9-2c-0.2-0.1-0.4-0.1-0.6,0L16.2,9.4c0,0,0,0,0,0h0L5,4.7
		C4.5,4.5,4,4.5,3.6,4.5c-1.4,0-2.7,0.8-3.3,2.2C0.1,7.1,0,7.6,0,8c0,0,0,0,0,0.1c0,1.4,0.8,2.7,2.2,3.3l32.5,13.5l0.3,0.1h11.2
		c0.2,0,0.4-0.1,0.6-0.3l5.1-6.7C52,17.7,52.1,17.5,52,17.2z"/>
</g>
<g>
</g>
<g>
</g>
<g>
</g>
<g>
</g>
<g>
</g>
<g>
</g>
<g>
</g>
<g>
</g>
<g>
</g>
<g>
</g>
<g>
</g>
<g>
</g>
<g>
</g>
<g>
</g>
<g>
</g>
</svg>
