<?xml version="1.0" encoding="utf-8"?>
<!-- Generator: Adobe Illustrator 18.1.1, SVG Export Plug-In . SVG Version: 6.00 Build 0)  -->
<svg version="1.1" id="Layer_1" xmlns="http://www.w3.org/2000/svg" xmlns:xlink="http://www.w3.org/1999/xlink" x="0px" y="0px"
	 viewBox="0 0 41.5 45" enable-background="new 0 0 41.5 45" xml:space="preserve">
<g>
	<path d="M40.9,25.8l-14.8-7.6c0-2.1,0-8.2,0-10c0-2.8-0.9-4.8-2-6.2c-1.2-1.3-2.2-2-3.3-2c-1.1,0.1-2.1,0.7-3.3,2
		c-1.1,1.3-2,3.4-2,6.2c0,1.9,0,8,0,10L0.6,25.8C0.2,26,0,26.4,0,26.8v3.9c0,0.3,0.1,0.6,0.4,0.9c0.3,0.2,0.6,0.3,0.9,0.2l14.9-2.5
		l0.6,7.9l-4.4,2.7c-0.3,0.2-0.5,0.6-0.5,1v3c0,0.3,0.1,0.6,0.3,0.8c0.2,0.2,0.5,0.3,0.8,0.3h8.5h7c0.3,0,0.6-0.1,0.8-0.3
		c0.2-0.2,0.3-0.5,0.3-0.8v-3c0-0.4-0.2-0.8-0.5-1l-4.4-2.7l0.6-7.9l14.9,2.5c0.3,0.1,0.7,0,0.9-0.2c0.3-0.2,0.4-0.5,0.4-0.9v-3.9
		C41.5,26.4,41.3,26,40.9,25.8z M24.5,26.8c-0.3-0.1-0.6,0-0.9,0.2c-0.2,0.2-0.4,0.5-0.4,0.8l-0.8,9.9c0,0.4,0.2,0.8,0.5,1l4.4,2.7
		v1.3h-5.9h-7.4v-1.3l4.4-2.7c0.4-0.2,0.6-0.6,0.5-1l-0.8-9.9c0-0.3-0.2-0.6-0.4-0.8c-0.2-0.2-0.4-0.2-0.7-0.2c-0.1,0-0.1,0-0.2,0
		L2.2,29.3v-1.9l14.8-7.6c0.4-0.2,0.6-0.6,0.6-1c0,0,0-8.5,0-10.7c0-2.3,0.7-3.8,1.5-4.7c0.4-0.5,0.8-0.8,1.1-1
		c0.2-0.1,0.3-0.2,0.4-0.2c0,0,0,0,0.1,0c0.6,0.1,3.1,1.8,3.1,5.9c0,2.3,0,10.7,0,10.7c0,0.4,0.2,0.8,0.6,1l14.8,7.6l0,1.9
		L24.5,26.8z"/>
</g>
<g>
</g>
<g>
</g>
<g>
</g>
<g>
</g>
<g>
</g>
<g>
</g>
<g>
</g>
<g>
</g>
<g>
</g>
<g>
</g>
<g>
</g>
<g>
</g>
<g>
</g>
<g>
</g>
<g>
</g>
</svg>
