<?xml version="1.0" encoding="utf-8"?>
<!-- Generator: Adobe Illustrator 18.1.1, SVG Export Plug-In . SVG Version: 6.00 Build 0)  -->
<svg version="1.1" id="Layer_1" xmlns="http://www.w3.org/2000/svg" xmlns:xlink="http://www.w3.org/1999/xlink" x="0px" y="0px"
	 viewBox="0 0 50 39.1" enable-background="new 0 0 50 39.1" xml:space="preserve">
<g>
	<path d="M28.5,0c0,0-6.9,13.5-7.7,15.1c-1.6,0-11.8,0-11.8,0l-9,4.5l9,4.5c0,0,10.2,0,11.8,0c0.8,1.5,7.7,15.1,7.7,15.1h6.1
		c0,0-2.5-12.5-3.1-15.2c2.4-0.2,9-0.8,10.3-0.9c0.8,1.1,3.4,4.7,3.4,4.7H50c0,0-2.8-7.4-3-7.9c0-0.2,0-0.2,0-0.4
		c0.2-0.5,3-7.9,3-7.9h-4.7c0,0-2.7,3.7-3.4,4.7c-1.3-0.1-7.9-0.7-10.3-0.9C32.1,12.5,34.6,0,34.6,0H28.5z M30.7,3.2
		c-0.6,2.9-3,14.9-3,14.9l15.6,1.4c0,0,0.5-0.6,0.5-0.7c0,0,0,1.5,0,1.5c0-0.1-0.5-0.7-0.5-0.7l-15.6,1.4c0,0,2.4,12,3,14.9
		c-0.1,0-0.2,0-0.3,0c-0.8-1.5-7.7-15.1-7.7-15.1s-12.3,0-13,0c-0.3-0.1-1.3-0.7-2.7-1.3c1.3-0.7,2.4-1.2,2.7-1.3c0.7,0,13,0,13,0
		s6.9-13.5,7.7-15.1C30.6,3.2,30.6,3.2,30.7,3.2z"/>
</g>
<g>
</g>
<g>
</g>
<g>
</g>
<g>
</g>
<g>
</g>
<g>
</g>
<g>
</g>
<g>
</g>
<g>
</g>
<g>
</g>
<g>
</g>
<g>
</g>
<g>
</g>
<g>
</g>
<g>
</g>
</svg>
