<?xml version="1.0" encoding="utf-8"?>
<!-- Generator: Adobe Illustrator 18.1.1, SVG Export Plug-In . SVG Version: 6.00 Build 0)  -->
<svg version="1.1" id="Layer_1" xmlns="http://www.w3.org/2000/svg" xmlns:xlink="http://www.w3.org/1999/xlink" x="0px" y="0px"
	 viewBox="0 0 65.1 33" enable-background="new 0 0 65.1 33" xml:space="preserve">
<path d="M64.8,14.2c-0.4-0.6-1-0.9-1.7-0.9h-7.1c-0.5,0-1.1,0.2-1.5,0.6L49,19.3h-6.3l9.1-16.3c0.4-0.6,0.3-1.4,0-2
	c-0.4-0.6-1-1-1.8-1h-6.4c-0.5,0-1.1,0.2-1.5,0.6L23.4,19.3H6.1c-0.5,0-1.1,0.2-1.5,0.6l-4,4C0.2,24.3,0,24.9,0,25.4v3.4
	c0,0.7,0.4,1.4,1,1.8l3.6,2.1C4.9,32.9,5.3,33,5.6,33h51.2c0.8,0,1.6-0.5,1.9-1.3L65,16.1C65.2,15.4,65.2,14.7,64.8,14.2z
	 M55.4,28.9H6.2l-2.1-1.2v-1.4l2.8-2.8h17.3c0.5,0,1.1-0.2,1.4-0.6L44.4,4.1h2l-9.1,16.3c-0.4,0.6-0.3,1.4,0,2c0.4,0.6,1,1,1.8,1
	h10.7c0.5,0,1.1-0.2,1.4-0.6l5.5-5.5h3.3L55.4,28.9z"/>
<g>
</g>
<g>
</g>
<g>
</g>
<g>
</g>
<g>
</g>
<g>
</g>
<g>
</g>
<g>
</g>
<g>
</g>
<g>
</g>
<g>
</g>
<g>
</g>
<g>
</g>
<g>
</g>
<g>
</g>
</svg>
