<?xml version="1.0" encoding="utf-8"?>
<!-- Generator: Adobe Illustrator 18.1.1, SVG Export Plug-In . SVG Version: 6.00 Build 0)  -->
<svg version="1.1" id="Layer_1" xmlns="http://www.w3.org/2000/svg" xmlns:xlink="http://www.w3.org/1999/xlink" x="0px" y="0px"
	 viewBox="0 0 50.5 32.1" enable-background="new 0 0 50.5 32.1" xml:space="preserve">
<g>
	<path d="M50.4,16.8l-1.1,0.3L50.4,16.8c-0.2-0.5-0.5-1-1-1.2l-3-1.2c-0.2-0.1-0.4-0.1-0.7-0.1c-0.2,0-0.5,0-0.7,0.2l-7.2,3.1L34,16
		l7.1-11.4c0.2-0.3,0.3-0.6,0.3-0.9c0-0.2,0-0.3-0.1-0.5c-0.2-0.6-0.5-1-1-1.2l-4.5-1.9C35.5,0,35.3,0,35,0c-0.3,0-0.5,0-0.8,0.2
		L16.1,8.6l-10-4.1C5.6,4.2,5,4.1,4.5,4.1c-1.7,0-3.4,1-4.1,2.7C0.1,7.3,0,7.9,0,8.4c0,0,0,0,0,0c0,0,0,0.1,0,0.1c0,0,0,0,0,0
		c0,0,0,0.1,0,0.1c0,1.7,1.1,3.3,2.7,4l30.1,12.5l0.2,0.1l0.3,0l0.2,0h10.4c0,0,0,0,0,0c0.6,0,1.1-0.3,1.4-0.7l4.7-6.2
		c0.2-0.3,0.4-0.7,0.4-1.1C50.5,17.1,50.4,17,50.4,16.8z M43.7,23.1H33.6l0,0l-30-12.5c-0.8-0.3-1.4-1.2-1.4-2v0c0,0,0,0,0,0
		c0-0.3,0.1-0.5,0.2-0.8c0.3-0.9,1.2-1.4,2-1.4c0.3,0,0.6,0.1,0.8,0.2l10.4,4.3l0,0c0.3,0.1,0.6,0.1,0.9,0l18.5-8.6l3.8,1.6L31.4,16
		c-0.2,0.3-0.2,0.6-0.1,0.9c0.1,0.3,0.3,0.6,0.6,0.7l5.4,2.2c0.3,0.1,0.6,0.1,0.9,0l7.5-3.3l2.3,0.9L43.7,23.1z"/>
	<rect x="12.4" y="29.9" width="32.4" height="2.2"/>
</g>
<g>
</g>
<g>
</g>
<g>
</g>
<g>
</g>
<g>
</g>
<g>
</g>
<g>
</g>
<g>
</g>
<g>
</g>
<g>
</g>
<g>
</g>
<g>
</g>
<g>
</g>
<g>
</g>
<g>
</g>
</svg>
