<?xml version="1.0" encoding="utf-8"?>
<!-- Generator: Adobe Illustrator 18.1.1, SVG Export Plug-In . SVG Version: 6.00 Build 0)  -->
<svg version="1.1" id="Layer_1" xmlns="http://www.w3.org/2000/svg" xmlns:xlink="http://www.w3.org/1999/xlink" x="0px" y="0px"
	 viewBox="0 0 612.6 346" enable-background="new 0 0 612.6 346" xml:space="preserve">
<path d="M599,182.6l-37.9-17.8c-11.8-5.9-29.6-4.7-41.4,2.4l0,0l-63.9,42.6l-28.4-14.2l66.3-138.5c5.9-11.8,1.2-26-10.7-32L438,3.9
	l0,0c-11.8-5.9-30.8-4.7-42.6,1.2L222.5,96.2c0,0-111.3-54.5-114.8-55.6c-10.7-4.7-22.5-7.1-33.1-7.1c-27.2,0-54.5,15.4-67.5,42.6
	C2.4,86.8,0,97.4,0,108.1c0,27.2,15.4,54.5,42.6,67.5c0,0,330.3,159.8,331.5,159.8c11.8,5.9,28.4,10.7,41.4,10.7h107.7
	c13,0,28.4-9.5,34.3-21.3l0,0l53.3-111.3C615.6,202.8,610.8,188.6,599,182.6z M512.6,292.7H407.2c0,0-340.9-164.5-340.9-165.7
	c-8.3-3.6-11.8-11.8-11.8-18.9c0-3.6,1.2-5.9,2.4-9.5c3.6-8.3,11.8-11.8,18.9-11.8c3.6,0,5.9,1.2,9.5,2.4l139.7,67.5L419,53.6
	l15.4,8.3l-76.9,159.8l104.2,50.9l84-56.8l4.7,2.4L512.6,292.7z"/>
<g>
</g>
<g>
</g>
<g>
</g>
<g>
</g>
<g>
</g>
<g>
</g>
<g>
</g>
<g>
</g>
<g>
</g>
<g>
</g>
<g>
</g>
<g>
</g>
<g>
</g>
<g>
</g>
<g>
</g>
</svg>
