<?xml version="1.0" encoding="utf-8"?>
<!-- Generator: Adobe Illustrator 18.1.1, SVG Export Plug-In . SVG Version: 6.00 Build 0)  -->
<svg version="1.1" id="Layer_1" xmlns="http://www.w3.org/2000/svg" xmlns:xlink="http://www.w3.org/1999/xlink" x="0px" y="0px"
	 viewBox="0 0 59.9 42.6" enable-background="new 0 0 59.9 42.6" xml:space="preserve">
<g>
	<path d="M8.7,7.5c2.1,0,3.7-1.7,3.7-3.7c0-2.1-1.7-3.7-3.7-3.7C6.6,0,5,1.7,5,3.7C5,5.8,6.6,7.5,8.7,7.5z"/>
	<path d="M17.4,24.7l0-12.4l0-0.1c-0.1-1.6-1.1-2.8-1.9-3.4c-0.9-0.6-1.6-0.7-1.7-0.7l-0.3,0H3.9l-0.3,0c-1.6,0.2-2.8,1.3-3.2,2.2
		C0,11.3,0,12,0,12.3v0v12.4c0,1,0.8,1.7,1.7,1.7c1,0,1.7-0.8,1.7-1.7V12.3v0v0c0-0.1,0-0.3,0.1-0.4c0.1-0.2,0.1-0.2,0.5-0.3h0.1
		v28.6c0,0.9,0.8,1.7,1.7,1.7c0.9,0,1.7-0.8,1.7-1.7V26.9h2v13.2c0,0.9,0.8,1.7,1.7,1.7c0.9,0,1.7-0.8,1.7-1.7V11.5h0.1
		c0.1,0,0.3,0.1,0.4,0.2c0.2,0.1,0.3,0.2,0.3,0.6v12.3c0,1,0.8,1.7,1.7,1.7C16.6,26.4,17.4,25.6,17.4,24.7z"/>
	<path d="M50.1,23.1c-0.9,0-1.8,0.1-2.6,0.4l-1.5-3c-0.3-0.5-0.8-0.9-1.4-0.9H31.2l1.4-5.1h4.5c0.9,0,1.5-0.7,1.5-1.6
		c0-0.8-0.7-1.5-1.5-1.5h-5.7c-0.7,0-1.3,0.5-1.5,1.1l-3,10.5c-0.3,0-0.7-0.1-1-0.1c-5.4,0-9.7,4.4-9.7,9.8c0,5.4,4.4,9.7,9.7,9.7
		c5.4,0,9.7-4.4,9.7-9.7c0-4-2.4-7.3-5.7-8.9l0.4-1.3h13.4l1,2c-2.6,1.7-4.3,4.7-4.3,8.1c0,5.4,4.4,9.7,9.7,9.7s9.7-4.4,9.8-9.7
		C59.9,27.5,55.5,23.1,50.1,23.1z M32.6,32.8c0,3.7-3,6.6-6.7,6.6c-3.7,0-6.6-3-6.7-6.6c0-3.7,3-6.7,6.7-6.7
		C29.7,26.2,32.6,29.2,32.6,32.8z M50.1,39.5c-3.7,0-6.6-3-6.7-6.6c0-3.7,3-6.7,6.7-6.7c3.7,0,6.7,3,6.7,6.7
		C56.8,36.5,53.8,39.5,50.1,39.5z"/>
</g>
<g>
</g>
<g>
</g>
<g>
</g>
<g>
</g>
<g>
</g>
<g>
</g>
<g>
</g>
<g>
</g>
<g>
</g>
<g>
</g>
<g>
</g>
<g>
</g>
<g>
</g>
<g>
</g>
<g>
</g>
</svg>
