<?xml version="1.0" encoding="utf-8"?>
<!-- Generator: Adobe Illustrator 18.1.1, SVG Export Plug-In . SVG Version: 6.00 Build 0)  -->
<svg version="1.1" id="Layer_1" xmlns="http://www.w3.org/2000/svg" xmlns:xlink="http://www.w3.org/1999/xlink" x="0px" y="0px"
	 viewBox="0 0 48.9 42.5" enable-background="new 0 0 48.9 42.5" xml:space="preserve">
<g>
	<path d="M39.1,22.8c-5.4,0-9.9,4.4-9.9,9.8c0,5.4,4.4,9.8,9.9,9.8c5.4,0,9.9-4.4,9.9-9.8C48.9,27.2,44.5,22.8,39.1,22.8z
		 M39.1,39.5c-3.8,0-6.9-3.1-6.9-6.9c0-3.8,3.1-6.9,6.9-6.9c3.8,0,6.9,3.1,6.9,6.9C46,36.4,42.9,39.5,39.1,39.5z"/>
	<path d="M9.9,22.8c-5.4,0-9.9,4.4-9.9,9.8c0,5.4,4.4,9.8,9.9,9.8c5.4,0,9.9-4.4,9.9-9.8C19.7,27.2,15.3,22.8,9.9,22.8z M9.9,39.5
		c-3.8,0-6.9-3.1-6.9-6.9c0-3.8,3.1-6.9,6.9-6.9c3.8,0,6.9,3.1,6.9,6.9C16.8,36.4,13.7,39.5,9.9,39.5z"/>
	<path d="M30.4,7.1c2,0,3.5-1.6,3.5-3.5c0-2-1.6-3.5-3.5-3.5c-2,0-3.5,1.6-3.5,3.5C26.9,5.5,28.4,7.1,30.4,7.1z"/>
	<path d="M33.1,19.5L33.1,19.5c0.9,0.9,2.3,1,3.1,0.2c0.8-0.8,0.7-2.2-0.2-3.1l-9.7-9.7h0c-0.9-0.9-2.3-0.9-3.2,0c0,0,0,0,0,0
		l-8.6,8.6c-0.9,0.9-0.9,2.3,0,3.2l7.8,7.8v7.7c0,1.3,0.9,2.3,2,2.3c1.1,0,2-1,2-2.3v-9.4l-5.7-5.7l6-6L33.1,19.5z"/>
</g>
<g>
</g>
<g>
</g>
<g>
</g>
<g>
</g>
<g>
</g>
<g>
</g>
<g>
</g>
<g>
</g>
<g>
</g>
<g>
</g>
<g>
</g>
<g>
</g>
<g>
</g>
<g>
</g>
<g>
</g>
</svg>
