<?xml version="1.0" encoding="utf-8"?>
<!-- Generator: Adobe Illustrator 18.1.1, SVG Export Plug-In . SVG Version: 6.00 Build 0)  -->
<svg version="1.1" id="Layer_1" xmlns="http://www.w3.org/2000/svg" xmlns:xlink="http://www.w3.org/1999/xlink" x="0px" y="0px"
	 viewBox="0 0 33.1 42.4" enable-background="new 0 0 33.1 42.4" xml:space="preserve">
<g>
	<path d="M31.5,6c-0.4-2.2-1.9-3.1-4-4c-2.1-0.9-7.2-2-10.9-2C12.8,0,7.8,1.1,5.6,2c-2.1,0.9-3.6,1.8-4,4L0,18.4v17.1h2.8v4.5
		c0,3.3,4.8,3.3,4.8,0v-4.5h18v4.5c0,3.3,4.8,3.3,4.8,0v-4.5h2.8V18.4L31.5,6z M5.8,30.7c-1.6,0-2.9-1.3-2.9-2.9
		c0-1.6,1.3-2.9,2.9-2.9c1.6,0,2.9,1.3,2.9,2.9C8.6,29.4,7.3,30.7,5.8,30.7z M27.3,30.7c-1.6,0-2.9-1.3-2.9-2.9
		c0-1.6,1.3-2.9,2.9-2.9c1.6,0,2.9,1.3,2.9,2.9C30.2,29.4,28.9,30.7,27.3,30.7z M28.9,19.7H4.2c-0.7,0-1.3-0.6-1.3-1.3
		c0-0.1,0-0.2,0-0.3l1.3-9.8c0.1-0.6,0.6-1.1,1.3-1.1h22c0.6,0,1.2,0.5,1.3,1.1l1.3,9.8c0,0.1,0.1,0.2,0.1,0.3
		C30.2,19.1,29.6,19.7,28.9,19.7z"/>
</g>
<g>
</g>
<g>
</g>
<g>
</g>
<g>
</g>
<g>
</g>
<g>
</g>
<g>
</g>
<g>
</g>
<g>
</g>
<g>
</g>
<g>
</g>
<g>
</g>
<g>
</g>
<g>
</g>
<g>
</g>
</svg>
