<?xml version="1.0" encoding="utf-8"?>
<!-- Generator: Adobe Illustrator 18.1.1, SVG Export Plug-In . SVG Version: 6.00 Build 0)  -->
<svg version="1.1" id="Layer_1" xmlns="http://www.w3.org/2000/svg" xmlns:xlink="http://www.w3.org/1999/xlink" x="0px" y="0px"
	 viewBox="0 0 37 45" enable-background="new 0 0 37 45" xml:space="preserve">
<g>
	<path d="M37,5.5C36.7,2.9,35.4,2,33,1c-2.4-1-10.3-1-14.5-1C14.3,0,6.2,0,3.8,1C1.4,2,0.5,3,0,5.5l0,14.7v12.9v4.7
		c0,0.8,0.7,1.5,1.5,1.5h2.1h0.3v3c0,3.6,5.3,3.6,5.3,0v-3H28v3c0,3.6,5.3,3.6,5.3,0v-3h0.6h1.6c0.8,0,1.5-0.7,1.5-1.5v-4.1V20.2
		L37,5.5z M11.2,4.4c0-0.4,0.4-0.8,0.8-0.8h13.6c0.4,0,0.8,0.4,0.8,0.8v1.2c0,0.4-0.4,0.8-0.8,0.8H12c-0.4,0-0.8-0.4-0.8-0.8V4.4z
		 M6.3,33.7c-1.6,0-3-1.3-3-3c0-1.6,1.3-2.9,3-2.9c1.6,0,3,1.3,3,2.9C9.2,32.3,7.9,33.7,6.3,33.7z M4.7,21.6c-0.7,0-1.3-0.5-1.4-1.2
		l0-0.6l0-4.4l0-4.4l0-0.6C3.4,9.7,4,9.1,4.7,9.1l27.5,0c0.7,0,1.3,0.5,1.4,1.2l0.1,0.8l0,4.3l0,4.3l-0.1,0.8
		c-0.1,0.7-0.7,1.2-1.4,1.2L4.7,21.6z M31,33.7c-1.6,0-3-1.3-3-3c0-1.6,1.3-2.9,3-2.9c1.6,0,2.9,1.3,2.9,2.9
		C34,32.3,32.6,33.7,31,33.7z"/>
</g>
<g>
</g>
<g>
</g>
<g>
</g>
<g>
</g>
<g>
</g>
<g>
</g>
<g>
</g>
<g>
</g>
<g>
</g>
<g>
</g>
<g>
</g>
<g>
</g>
<g>
</g>
<g>
</g>
<g>
</g>
</svg>
