<?xml version="1.0" encoding="utf-8"?>
<!-- Generator: Adobe Illustrator 18.1.1, SVG Export Plug-In . SVG Version: 6.00 Build 0)  -->
<svg version="1.1" id="Layer_1" xmlns="http://www.w3.org/2000/svg" xmlns:xlink="http://www.w3.org/1999/xlink" x="0px" y="0px"
	 viewBox="0 0 612 292.3" enable-background="new 0 0 612 292.3" xml:space="preserve">
<g>
	<path d="M129.5,202c-25,0-45.2,20.2-45.2,45.2c0,25,20.2,45.2,45.2,45.2s45.2-20.2,45.2-45.2S154.5,202,129.5,202z"/>
	<circle cx="499.1" cy="247.2" r="45.2"/>
	<path d="M603.7,115.3l-30.9-91.5C568,10.7,552.6,0,539.5,0H25C11.9,0,0,11.9,0,25v187.8C0,227,11.9,240,25,242.4l0,0l41.6,9.5
		c0-1.2,0-3.6,0-4.8c0-35.7,28.5-64.2,64.2-64.2s64.2,28.5,64.2,64.2c0,3.6,0,5.9-1.2,9.5h242.4c0-2.4-1.2-5.9-1.2-9.5
		c0-35.7,28.5-64.2,64.2-64.2s64.2,28.5,64.2,64.2c0,3.6,0,5.9-1.2,9.5h25c14.3,0,25-11.9,25-25v-65.4
		C612,150.9,608.4,129.5,603.7,115.3z M571.6,128.3h-72.5c-4.8,0-9.5,0-9.5,0s-2.4-3.6-5.9-7.1l-4.8-5.9c-3.6-3.6-10.7-7.1-15.4-7.1
		h-429c-4.8,0-9.5-4.8-9.5-9.5V34.5c0-4.8,4.8-9.5,9.5-9.5h501.5c4.8,0,10.7,3.6,11.9,8.3l29.7,85.6
		C579.9,124.8,577.5,128.3,571.6,128.3z"/>
</g>
<g>
</g>
<g>
</g>
<g>
</g>
<g>
</g>
<g>
</g>
<g>
</g>
<g>
</g>
<g>
</g>
<g>
</g>
<g>
</g>
<g>
</g>
<g>
</g>
<g>
</g>
<g>
</g>
<g>
</g>
</svg>
