<?xml version="1.0" encoding="utf-8"?>
<!-- Generator: Adobe Illustrator 18.1.1, SVG Export Plug-In . SVG Version: 6.00 Build 0)  -->
<svg version="1.1" id="Layer_1" xmlns="http://www.w3.org/2000/svg" xmlns:xlink="http://www.w3.org/1999/xlink" x="0px" y="0px"
	 viewBox="0 0 38.3 43" enable-background="new 0 0 38.3 43" xml:space="preserve">
<g>
	<path d="M6.6,8.3c-0.7,0-1.3,0.6-1.3,1.3v13c0,0.7,0.6,1.3,1.3,1.3h25.1c0.7,0,1.3-0.6,1.3-1.3v-13c0-0.7-0.6-1.3-1.3-1.3H6.6z
		 M35.6,3.1h-3.2V2.7c0-1.5-1.2-2.7-2.7-2.7H8.6C7.1,0,5.9,1.2,5.9,2.7v0.4H2.7C1.2,3.1,0,4.3,0,5.8v30.8c0,1.5,1.2,2.7,2.7,2.7h0.5
		v1.1c0,1.5,1.2,2.7,2.7,2.7h3.7c1.5,0,2.7-1.2,2.7-2.7v-1.1H26v1.1c0,1.5,1.2,2.7,2.7,2.7h3.7c1.5,0,2.7-1.2,2.7-2.7v-1.1h0.5
		c1.5,0,2.7-1.2,2.7-2.7V5.8C38.3,4.3,37.1,3.1,35.6,3.1z M35.6,36.6h-0.5c-1.5,0-2.7,1.2-2.7,2.7v1.1h-3.7v-1.1
		c0-1.5-1.2-2.7-2.7-2.7H12.3c-1.5,0-2.7,1.2-2.7,2.7v1.1H5.9v-1.1c0-1.5-1.2-2.7-2.7-2.7H2.7V5.8h3.2c1.5,0,2.7-1.2,2.7-2.7V2.7
		h21.1v0.4c0,1.5,1.2,2.7,2.7,2.7h3.2V36.6z M7.6,27c-1.6,0-2.9,1.3-2.9,2.9c0,1.6,1.3,2.9,2.9,2.9c1.6,0,2.9-1.3,2.9-2.9
		C10.5,28.2,9.2,27,7.6,27z M30.7,27c-1.6,0-2.9,1.3-2.9,2.9c0,1.6,1.3,2.9,2.9,2.9c1.6,0,2.9-1.3,2.9-2.9
		C33.6,28.2,32.3,27,30.7,27z"/>
</g>
<g>
</g>
<g>
</g>
<g>
</g>
<g>
</g>
<g>
</g>
<g>
</g>
<g>
</g>
<g>
</g>
<g>
</g>
<g>
</g>
<g>
</g>
<g>
</g>
<g>
</g>
<g>
</g>
<g>
</g>
</svg>
