<?xml version="1.0" encoding="utf-8"?>
<!-- Generator: Adobe Illustrator 18.1.1, SVG Export Plug-In . SVG Version: 6.00 Build 0)  -->
<svg version="1.1" id="Layer_1" xmlns="http://www.w3.org/2000/svg" xmlns:xlink="http://www.w3.org/1999/xlink" x="0px" y="0px"
	 viewBox="0 0 73.3 39.4" enable-background="new 0 0 73.3 39.4" xml:space="preserve">
<g>
	<path d="M65.5,0H11.2C8.1,0,5.7,1.5,4.5,4.2c0,0.1-4.1,12.1-4.1,12.1C0,17.9,0,18.9,0,19.6c0,0.1,0,6.8,0,6.8
		c0,3.8,2.5,6.5,6.5,6.5h3.8c0.3,3.6,3.3,6.4,7,6.5h1.2c1.9,0,3.6-0.7,5-2.1c1.1-1.1,1.8-2.6,2-4.1h22.3c0.2,1.5,0.9,3,2,4.1
		c1.3,1.3,3.1,2.1,5,2.1H56c3.9,0,7-3.1,7-7v-0.1l8.8-2.9c0.9-0.3,1.5-1.1,1.5-2.1V7.6C73.3,3.1,70.1,0,65.5,0z M8.6,5.9
		c0.3-0.6,0.8-1.5,2.6-1.5h54.3c1,0,3.3,0.3,3.3,3.1V14h-63C8.3,7.1,8.7,5.8,8.6,5.9z M68.5,25.8c-0.1,0-8.5,2.8-8.5,2.8
		c-1.1,0.4-1.5,1.4-1.5,2.5v1.2c0,0.7-0.3,1.4-0.8,1.8c-0.5,0.5-1.1,0.8-1.8,0.8h-1.2c-0.7,0-1.3-0.3-1.8-0.8
		c-0.5-0.5-0.8-1.1-0.8-1.8V31c0-0.6-0.2-1.2-0.7-1.6c-0.4-0.4-1-0.6-1.6-0.6H23.3c-0.6,0-1.2,0.2-1.6,0.6c-0.4,0.4-0.7,1-0.7,1.6
		v1.4c0,0.7-0.3,1.3-0.8,1.8c-0.5,0.5-1.1,0.8-1.8,0.8h-1.2c-0.7,0-1.4-0.3-1.8-0.8c-0.5-0.5-0.8-1.1-0.8-1.8V31c0-0.1,0-0.2,0-0.3
		c0-1.2-1-2.2-2.2-2.2H6.5c-0.6,0-2.1-0.1-2.1-2.1c0,0,0-6.8,0-6.9c0-0.4,0-0.7,0.1-1.1h64.4v6.9C68.9,25.6,68.8,25.7,68.5,25.8z"/>
</g>
<g>
</g>
<g>
</g>
<g>
</g>
<g>
</g>
<g>
</g>
<g>
</g>
<g>
</g>
<g>
</g>
<g>
</g>
<g>
</g>
<g>
</g>
<g>
</g>
<g>
</g>
<g>
</g>
<g>
</g>
</svg>
