<?xml version="1.0" encoding="utf-8"?>
<!-- Generator: Adobe Illustrator 18.1.1, SVG Export Plug-In . SVG Version: 6.00 Build 0)  -->
<svg version="1.1" id="Layer_1" xmlns="http://www.w3.org/2000/svg" xmlns:xlink="http://www.w3.org/1999/xlink" x="0px" y="0px"
	 viewBox="0 0 54.8 30" enable-background="new 0 0 54.8 30" xml:space="preserve">
<g>
	<path d="M0.8,12.4h12.7V0.8c0-0.2-0.1-0.4-0.2-0.6C13.2,0.1,13,0,12.7,0H4.7C4.3,0,4,0.2,3.9,0.6L0,11.3C0,11.5,0,11.8,0.2,12
		C0.3,12.3,0.6,12.4,0.8,12.4z M52.9,0H16.8c-0.2,0-0.4,0.1-0.6,0.2C16.1,0.4,16,0.6,16,0.8v11.5h37.9c0.2,0,0.4-0.1,0.6-0.2
		c0.2-0.2,0.2-0.4,0.2-0.6l-1-10.7c0-0.2-0.1-0.4-0.2-0.6C53.4,0.1,53.1,0,52.9,0z M53.9,14.5h-53c-0.2,0-0.4,0.1-0.6,0.3
		C0.1,14.9,0,15.1,0,15.3l1,9.7c0,0.7,0.5,1.2,1.2,1.2h2.1c0-2.9,2.4-5.2,5.3-5.2c0,0,0.5,0,0.5,0c2.9,0,5.3,2.4,5.3,5.2h23.2
		c0-2.9,2.4-5.2,5.3-5.2c0,0,0.5,0,0.5,0c2.9,0,5.3,2.3,5.3,5.2c0,0,4.2-1.3,4.2-1.3c0.5-0.1,0.9-0.2,0.9-0.9v-8.6
		c0-0.2-0.1-0.5-0.3-0.6C54.3,14.6,54.1,14.5,53.9,14.5z M10.1,23H9.6c-1.8,0-3.3,1.4-3.3,3.2l0,0l0,0.5c0,1.8,1.5,3.3,3.3,3.3h0.5
		c1.8,0,3.3-1.5,3.3-3.3v-0.5l0-0.1C13.3,24.5,11.9,23,10.1,23z M44.3,23h-0.5c-1.8,0-3.3,1.5-3.3,3.2l0,0v0.5c0,0,0,0,0,0
		c0,0,0,0,0,0c0,1.8,1.5,3.2,3.3,3.3h0.5c1.8,0,3.3-1.5,3.3-3.3v-0.5l0-0.1C47.5,24.5,46.1,23,44.3,23z M40.6,26.6L40.6,26.6
		C40.6,26.6,40.6,26.6,40.6,26.6C40.6,26.6,40.6,26.6,40.6,26.6z"/>
</g>
<g>
</g>
<g>
</g>
<g>
</g>
<g>
</g>
<g>
</g>
<g>
</g>
<g>
</g>
<g>
</g>
<g>
</g>
<g>
</g>
<g>
</g>
<g>
</g>
<g>
</g>
<g>
</g>
<g>
</g>
</svg>
