<?xml version="1.0" encoding="utf-8"?>
<!-- Generator: Adobe Illustrator 18.1.1, SVG Export Plug-In . SVG Version: 6.00 Build 0)  -->
<svg version="1.1" id="Layer_1" xmlns="http://www.w3.org/2000/svg" xmlns:xlink="http://www.w3.org/1999/xlink" x="0px" y="0px"
	 viewBox="0 0 610.7 290" enable-background="new 0 0 610.7 290" xml:space="preserve">
<g>
	<path d="M604.7,120.4l-29.2-83.9c-4.6-11.9-18.2-21.9-31-21.9h-22.8l-5.5-7.3C512.6,3.6,505.3,0,498.9,0H346.6
		c-6.4,0-14.6,3.6-17.3,7.3l-5.5,7.3h-301C10,14.6,0,24.6,0,37.4v179.7c0,12.8,10,24.6,22.8,27.4l0,0l54.7,9.1c0-1.8,0-2.7,0-4.6
		c0-31.9,26.5-58.4,58.4-58.4s58.4,26.5,58.4,58.4c0,2.7,0,5.5-0.9,8.2h230.8c0-2.7-0.9-5.5-0.9-8.2c0-31.9,26.5-58.4,58.4-58.4
		s58.4,26.5,58.4,58.4c0,2.7,0,5.5-0.9,8.2h48.3c12.8,0,22.8-10,22.8-22.8V166C612,152.3,608.4,132.3,604.7,120.4z M560.9,131.3
		h-60.2l0,0l-15.5-18.2H47.4c-12.8,0-22.8-10-22.8-22.8V37.4h93v57.5H135V37.4h99.4v57.5h17.3V37.4h99.4v57.5h17.3V37.4h99.4v57.5
		h17.3V37.4h67.5l24.6,72.1C580.1,122.2,573.7,131.3,560.9,131.3z"/>
	<path d="M135.9,208c-22.8,0-41,18.2-41,41s18.2,41,41,41s41-18.2,41-41S158.7,208,135.9,208z M135.9,272.7
		c-12.8,0-23.7-10.9-23.7-23.7c0-13.7,10.9-23.7,23.7-23.7c13.7,0,23.7,10.9,23.7,23.7C159.6,261.8,148.7,272.7,135.9,272.7z"/>
	<path d="M482.5,208c-22.8,0-41,18.2-41,41s18.2,41,41,41s41-18.2,41-41S505.3,208,482.5,208z M482.5,272.7
		c-13.7,0-23.7-10.9-23.7-23.7c0-13.7,10.9-23.7,23.7-23.7c13.7,0,23.7,10.9,23.7,23.7C506.2,261.8,495.3,272.7,482.5,272.7z"/>
</g>
<g>
</g>
<g>
</g>
<g>
</g>
<g>
</g>
<g>
</g>
<g>
</g>
<g>
</g>
<g>
</g>
<g>
</g>
<g>
</g>
<g>
</g>
<g>
</g>
<g>
</g>
<g>
</g>
<g>
</g>
</svg>
