<?xml version="1.0" encoding="utf-8"?>
<!-- Generator: Adobe Illustrator 18.1.1, SVG Export Plug-In . SVG Version: 6.00 Build 0)  -->
<svg version="1.1" id="Layer_1" xmlns="http://www.w3.org/2000/svg" xmlns:xlink="http://www.w3.org/1999/xlink" x="0px" y="0px"
	 viewBox="0 0 53.3 29.8" enable-background="new 0 0 53.3 29.8" xml:space="preserve">
<g>
	<path d="M53.2,11.8L49.6,1.4C49.3,0.6,48.6,0,47.7,0H19.8c-0.7,0-1.4,0.4-1.7,0.9l-4.2,6.6h-8c-0.5,0-1.1,0.2-1.4,0.6L0.6,12
		C0.2,12.4,0,12.9,0,13.4V22C0,23.1,0.9,24,2.1,24s2.1-0.9,2.1-2.1v-7.7l2.6-2.6h8.2c0.7,0,1.4-0.4,1.7-0.9l4.2-6.6h25.3l3,8.7
		l0,8.8c0,1.1,0.9,2.1,2,2.1h0c1.1,0,2-0.9,2.1-2l0-9.1C53.3,12.3,53.3,12,53.2,11.8z"/>
	<path d="M43.1,23.5c0,1.4-1.1,2.5-2.5,2.5c-1.4,0-2.5-1.1-2.5-2.5c0,0,0,0,0,0c0,0,0,0,0-0.1c0-1.1-0.9-1.9-1.9-1.9h0l-19.3,0.1
		c-1.1,0-1.9,0.9-1.9,1.9c0,1.4-1.1,2.5-2.5,2.5S10,24.9,10,23.5V21H6.1v2.5c0,3.5,2.8,6.4,6.3,6.4c2.8,0,5.2-1.9,6.1-4.4l16-0.1
		c0.8,2.6,3.2,4.5,6.1,4.5c3.5,0,6.3-2.9,6.3-6.4V21h-3.8V23.5z"/>
</g>
<g>
</g>
<g>
</g>
<g>
</g>
<g>
</g>
<g>
</g>
<g>
</g>
<g>
</g>
<g>
</g>
<g>
</g>
<g>
</g>
<g>
</g>
<g>
</g>
<g>
</g>
<g>
</g>
<g>
</g>
</svg>
