<?xml version="1.0" encoding="utf-8"?>
<!-- Generator: Adobe Illustrator 18.1.1, SVG Export Plug-In . SVG Version: 6.00 Build 0)  -->
<svg version="1.1" id="Layer_1" xmlns="http://www.w3.org/2000/svg" xmlns:xlink="http://www.w3.org/1999/xlink" x="0px" y="0px"
	 viewBox="0 0 613 291" enable-background="new 0 0 613 291" xml:space="preserve">
<path d="M612,129c0-16-5-30-14-41s-22-20-38-20c-2,0-8,0-13,0l-70-49C460,8,438,0,417,0H302c-20,0-42,7-59,17l-99,59l-62,8
	c-44,5-81,40-82,84c0,14,0,57,0,57c0,17,12,35,33,35h25c12,19,33,31,58,31c24,0,45-13,58-31h261c12,19,33,31,58,31c28,0,51-16,62-40
	l30-7c19-6,27-21,28-38L612,129z M116,253c-16,0-29-13-29-29s13-29,29-29s29,13,29,29S132,253,116,253z M492,253c-16,0-29-13-29-29
	s13-29,29-29s29,13,29,29S508,253,492,253z M572,207l-12,4c-6-31-34-55-67-55c-37,0-67,29-68,66H184c-2-37-32-66-68-66
	c-37,0-67,29-68,66h-8c0-12,0-42,0-53c-1-19,20-42,47-45l70-9l106-64c8-5,30-11,39-11h115c8,0,30,6,37,12l80,56h6c0,0,15,0,19,0
	c2,0,4,1,7,4c3,4,5,10,5,17v78H572z"/>
<g>
</g>
<g>
</g>
<g>
</g>
<g>
</g>
<g>
</g>
<g>
</g>
<g>
</g>
<g>
</g>
<g>
</g>
<g>
</g>
<g>
</g>
<g>
</g>
<g>
</g>
<g>
</g>
<g>
</g>
</svg>
