<?xml version="1.0" encoding="utf-8"?>
<!-- Generator: Adobe Illustrator 18.1.1, SVG Export Plug-In . SVG Version: 6.00 Build 0)  -->
<svg version="1.1" id="Layer_1" xmlns="http://www.w3.org/2000/svg" xmlns:xlink="http://www.w3.org/1999/xlink" x="0px" y="0px"
	 viewBox="0 0 50.6 24.7" enable-background="new 0 0 50.6 24.7" xml:space="preserve">
<g>
	<path d="M50.6,18L50,12c-0.3-2.3-1.4-4.6-3-6.3l-2.9-3C42.4,1.1,40,0.1,37.6,0h-12c-2.2,0-4.7,0.8-6.6,2l-4.7,3.1
		C13.1,5.8,10.7,7,9.4,7.4L4.5,9C2,9.9,0.3,12.1,0.1,14.8L0,18.1c0,0,0,0.1,0,0.2c0,2.7,2.2,4.9,4.9,4.9h2.7c1.1,0.9,2.5,1.5,4,1.5
		c1.5,0,3-0.6,4-1.5h19.5c1.1,0.9,2.5,1.5,4,1.5c1.5,0,3-0.6,4-1.5h2.7c0,0,0,0,0,0c1.3,0,2.5-0.5,3.3-1.4c0.9-0.8,1.4-2,1.4-3.3
		C50.6,18.3,50.6,18.2,50.6,18z M9.4,18.5c0-1.2,1-2.2,2.2-2.2c1.2,0,2.2,1,2.2,2.2c0,0.2,0,0.5-0.1,0.7c-0.3,0.9-1.1,1.5-2.1,1.5
		c-1,0-1.8-0.6-2.1-1.5C9.4,19,9.4,18.7,9.4,18.5z M37,18.5c0-1.2,1-2.2,2.2-2.2c1.2,0,2.2,1,2.2,2.2c0,0.2-0.1,0.5-0.1,0.7
		c-0.3,0.9-1.1,1.5-2.1,1.5c-1,0-1.8-0.6-2.1-1.5C37,19,37,18.7,37,18.5z M45.9,19.2h-0.6c0-0.2,0-0.5,0-0.7h0
		c0-3.4-2.8-6.2-6.2-6.2c-3.4,0-6.2,2.8-6.2,6.2c0,0.2,0,0.5,0,0.7H17.7c0-0.2,0-0.5,0-0.7h0c0-3.4-2.8-6.2-6.2-6.2
		c-3.4,0-6.2,2.8-6.2,6.2c0,0.2,0,0.5,0,0.7H4.9c-0.5,0-0.9-0.4-0.9-0.9l0,0l0.1-3.3c-0.1-0.7,0.9-2,1.6-2.1l4.9-1.6
		c1.8-0.6,4.2-1.8,5.8-2.8l4.7-3.1C22.1,4.7,24.5,4,25.6,4h12c0.9-0.1,3.1,0.8,3.6,1.5l2.9,3c0.7,0.7,1.8,2.9,1.9,4l0.6,5.9
		c0,0,0,0.1,0,0.1C46.6,19,46.4,19.2,45.9,19.2z"/>
</g>
<g>
</g>
<g>
</g>
<g>
</g>
<g>
</g>
<g>
</g>
<g>
</g>
<g>
</g>
<g>
</g>
<g>
</g>
<g>
</g>
<g>
</g>
<g>
</g>
<g>
</g>
<g>
</g>
<g>
</g>
</svg>
