<?xml version="1.0" encoding="utf-8"?>
<!-- Generator: Adobe Illustrator 18.1.1, SVG Export Plug-In . SVG Version: 6.00 Build 0)  -->
<svg version="1.1" id="Layer_1" xmlns="http://www.w3.org/2000/svg" xmlns:xlink="http://www.w3.org/1999/xlink" x="0px" y="0px"
	 viewBox="0 0 51.3 43" enable-background="new 0 0 51.3 43" xml:space="preserve">
<g>
	<path d="M36.3,5.1V15h9.9v-1.3h-8.5V5.1H36.3z M37,0c-7.3,0-13.4,5.5-14.2,12.6h2.7C26.3,7,31.1,2.7,37,2.7
		c6.4,0,11.6,5.2,11.6,11.7c0,5.4-3.6,9.9-8.6,11.2c0.2,0.5,0.3,1.1,0.3,1.6v1.1c6.3-1.5,10.9-7.2,10.9-13.9C51.3,6.4,44.9,0,37,0z
		 M31,24.6l-2.3-4.8c-0.3-0.7-1.2-1.2-1.9-1.2H12.2c-0.7,0-1.6,0.5-1.9,1.2L8,24.6c-0.3,0.7,0,1.2,0.8,1.2h21.4
		C31,25.8,31.3,25.3,31,24.6z M7.3,29c-1.6,0-2.8,1.3-2.8,2.8c0,1.6,1.3,2.8,2.8,2.8s2.8-1.3,2.8-2.8C10.1,30.3,8.8,29,7.3,29z
		 M31.8,29c-1.6,0-2.8,1.3-2.8,2.8c0,1.6,1.3,2.8,2.8,2.8c1.6,0,2.8-1.3,2.8-2.8C34.6,30.3,33.3,29,31.8,29z M36.8,24.1l-0.6-0.2
		c-0.4-0.1-0.9-0.6-1.1-0.9l-3.3-7.1c-0.5-1.1-1.9-2-3.1-2H10.3c-1.3,0-2.6,0.9-3.1,2L3.9,23c-0.2,0.3-0.7,0.8-1.1,0.9l-0.6,0.2
		c-1.2,0.4-2.2,1.7-2.2,3v9.7c0,1.4,1,2.5,2.3,2.6c0,0,0,0,0,0v0.8C2.3,41.8,3.5,43,5,43h3.7c1.5,0,2.7-1.2,2.7-2.7v-0.8h16.3v0.8
		c0,1.5,1.2,2.7,2.7,2.7H34c1.5,0,2.7-1.2,2.7-2.7v-0.8c0,0,0,0,0,0c1.3-0.1,2.3-1.2,2.3-2.6v-9.7C39,25.9,38.1,24.6,36.8,24.1z
		 M36.3,36.8C36.3,36.9,36.3,36.9,36.3,36.8C35,37,34,38.1,34,39.5v0.8h-3.7v-0.8c0-1.5-1.2-2.7-2.7-2.7H11.4
		c-1.5,0-2.7,1.2-2.7,2.7v0.8H5v-0.8c0-1.4-1-2.5-2.3-2.6c0,0,0,0,0,0v-9.7c0-0.2,0.2-0.5,0.4-0.5l0.6-0.2c1.1-0.4,2.2-1.3,2.6-2.4
		l3.3-7.1c0.1-0.2,0.5-0.4,0.7-0.4h18.5c0.2,0,0.6,0.2,0.7,0.4l3.3,7.1c0.5,1,1.6,2,2.6,2.4l0.6,0.2c0.2,0.1,0.4,0.3,0.4,0.5V36.8z"
		/>
</g>
<g>
</g>
<g>
</g>
<g>
</g>
<g>
</g>
<g>
</g>
<g>
</g>
<g>
</g>
<g>
</g>
<g>
</g>
<g>
</g>
<g>
</g>
<g>
</g>
<g>
</g>
<g>
</g>
<g>
</g>
</svg>
