<?xml version="1.0" encoding="utf-8"?>
<!-- Generator: Adobe Illustrator 18.1.1, SVG Export Plug-In . SVG Version: 6.00 Build 0)  -->
<svg version="1.1" id="Layer_1" xmlns="http://www.w3.org/2000/svg" xmlns:xlink="http://www.w3.org/1999/xlink" x="0px" y="0px"
	 viewBox="0 0 57.3 33.8" enable-background="new 0 0 57.3 33.8" xml:space="preserve">
<g>
	<path d="M11.6,23.4c-2.9,0-5.2,2.3-5.2,5.2c0,2.9,2.3,5.2,5.2,5.2c2.9,0,5.2-2.3,5.2-5.2C16.8,25.7,14.5,23.4,11.6,23.4z
		 M57.2,25.1L57.2,25.1L54.1,3.5c-0.3-1.9-2.1-3.5-4-3.5H24.3C22.4,0,20,1.3,19,3l-6.4,10.4l-9.2,2.4C1.5,16.2,0,18.2,0,20.1v7.6
		c0,1.9,1.6,3.5,3.5,3.5h0.3c-0.3-0.8-0.4-1.7-0.4-2.6c0-4.5,3.7-8.2,8.2-8.2c4.5,0,8.2,3.7,8.2,8.2c0,0.9-0.2,1.8-0.4,2.6h20
		c-0.3-0.8-0.4-1.7-0.4-2.6c0-4.5,3.7-8.2,8.2-8.2c4.5,0,8.2,3.7,8.2,8.2c0,0.5-0.1,1-0.1,1.4C56.7,28.9,57.5,27.1,57.2,25.1z
		 M15.4,13.4L21,4.2c0.6-0.9,2.2-1.8,3.3-1.8h25.8c0.7,0,1.5,0.7,1.6,1.4l1.4,9.6H15.4z M47.2,23.4c-2.9,0-5.2,2.3-5.2,5.2
		c0,2.9,2.3,5.2,5.2,5.2c2.9,0,5.2-2.3,5.2-5.2C52.4,25.7,50.1,23.4,47.2,23.4z"/>
</g>
<g>
</g>
<g>
</g>
<g>
</g>
<g>
</g>
<g>
</g>
<g>
</g>
<g>
</g>
<g>
</g>
<g>
</g>
<g>
</g>
<g>
</g>
<g>
</g>
<g>
</g>
<g>
</g>
<g>
</g>
</svg>
