<?xml version="1.0" encoding="utf-8"?>
<!-- Generator: Adobe Illustrator 18.1.1, SVG Export Plug-In . SVG Version: 6.00 Build 0)  -->
<svg version="1.1" id="Layer_1" xmlns="http://www.w3.org/2000/svg" xmlns:xlink="http://www.w3.org/1999/xlink" x="0px" y="0px"
	 viewBox="0 0 612 269.2" enable-background="new 0 0 612 269.2" xml:space="preserve">
<g>
	<path d="M107.5,178.7c-24.9,0-45.2,20.4-45.2,45.2c0,24.9,20.4,45.2,45.2,45.2s45.2-20.4,45.2-45.2
		C152.7,199.1,132.4,178.7,107.5,178.7z"/>
	<path d="M515.8,178.7c-24.9,0-45.2,20.4-45.2,45.2c0,24.9,20.4,45.2,45.2,45.2s45.2-20.4,45.2-45.2
		C560,199.1,540.7,178.7,515.8,178.7z"/>
	<path d="M574.7,108.6L461.5,84.8L371,17c-12.4-9-35.1-17-50.9-17H127.8C112,0,90.5,9,80.3,21.5l-61.1,69c0,0,0,0,0,1.1
		C7.9,102.9,0,124.4,0,139.1v61.1c0,15.8,12.4,28.3,28.3,28.3h15.8c0-1.1,0-3.4,0-4.5c0-35.1,27.1-62.2,62.2-63.3c1.1,0,2.3,0,3.4,0
		c35.1,1.1,62.2,29.4,62.2,63.3c0,1.1,0,3.4,0,4.5h280.5c0-1.1,0-3.4,0-4.5c0-27.1,18.1-50.9,41.9-60c5.7-2.3,12.4-3.4,19.2-3.4
		c1.1,0,2.3,0,3.4,0c35.1,1.1,62.2,29.4,62.2,63.3c0,1.1,0,3.4,0,4.5h4.5c15.8,0,28.3-12.4,28.3-28.3v-47.5
		C612,132.4,595,112,574.7,108.6z M53.2,90.5l52-57.7c3.4-3.4,10.2-6.8,15.8-6.8h209.3c5.7,0,12.4,2.3,17,5.7l79.2,58.8H53.2z"/>
</g>
<g>
</g>
<g>
</g>
<g>
</g>
<g>
</g>
<g>
</g>
<g>
</g>
<g>
</g>
<g>
</g>
<g>
</g>
<g>
</g>
<g>
</g>
<g>
</g>
<g>
</g>
<g>
</g>
<g>
</g>
</svg>
