<?xml version="1.0" encoding="utf-8"?>
<!-- Generator: Adobe Illustrator 18.1.1, SVG Export Plug-In . SVG Version: 6.00 Build 0)  -->
<svg version="1.1" id="Layer_1" xmlns="http://www.w3.org/2000/svg" xmlns:xlink="http://www.w3.org/1999/xlink" x="0px" y="0px"
	 viewBox="0 0 62.1 29.9" enable-background="new 0 0 62.1 29.9" xml:space="preserve">
<g>
	<path d="M59.8,12.2L47.6,9.9c-0.5-0.1-1.5-0.7-1.8-1.1l-7.4-7.4c-1.2-1.2-2.2-1.4-3.6-1.5h0c0,0,0,0,0,0H21.3
		c-1.8,0-2.7,0.6-3.6,1.7l-6.1,7.2c-0.5,0.6-0.6,0.9-1.5,1l-7.6,0.8l-0.1,0C0.9,11.1,0,12.3,0,13.8c0,0.1,0,0.3,0,0.5l1,6.5
		c0.3,1.5,1.3,2.6,2.8,3.1L9,25.2c0.7,2.7,3.2,4.7,6.1,4.7c3,0,5.5-2.1,6.2-4.9c0.1,0,20.2,0,20.3,0c0.7,2.8,3.2,4.9,6.2,4.9
		c2.9,0,5.4-2,6.1-4.7l4.5-1.3c1.4-0.5,2.4-1.6,2.8-3.1l0.9-5.1c0-0.2,0-0.4,0-0.6C62.1,13.8,61.2,12.6,59.8,12.2z M42.6,9.9H27.3V3
		c0,0,7.5,0,7.6,0h0c0.6,0,1,0.1,1.4,0.6L42.6,9.9z M20,3.6C20.4,3.1,20.8,3,21.3,3h3v6.9h-9.6L20,3.6z M15.1,26.9
		c-1.9,0-3.4-1.5-3.4-3.4c0-1.9,1.5-3.4,3.4-3.4c1.9,0,3.4,1.5,3.4,3.4C18.5,25.4,17,26.9,15.1,26.9z M47.8,26.9
		c-1.9,0-3.4-1.5-3.4-3.4c0-1.9,1.5-3.4,3.4-3.4c1.9,0,3.4,1.5,3.4,3.4C51.1,25.4,49.6,26.9,47.8,26.9z M59.1,15.3c0,0-0.9,5-0.9,5
		c-0.1,0.4-0.2,0.6-0.7,0.8L54,22.1c-0.6-2.8-3.2-5-6.2-5c-3,0-5.6,2.1-6.2,4.9c-0.1,0-20.2,0-20.2,0c-0.7-2.8-3.2-4.9-6.2-4.9
		c-3,0-5.5,2.1-6.2,4.9l-4.3-1.1c-0.4-0.1-0.5-0.2-0.6-0.6c0,0-1-6.2-1-6.4c0-0.2,0-0.3,0.2-0.3c0,0,7.1-0.7,7.2-0.7H47L58.9,15
		C59,15.1,59.1,15.1,59.1,15.3z"/>
</g>
<g>
</g>
<g>
</g>
<g>
</g>
<g>
</g>
<g>
</g>
<g>
</g>
<g>
</g>
<g>
</g>
<g>
</g>
<g>
</g>
<g>
</g>
<g>
</g>
<g>
</g>
<g>
</g>
<g>
</g>
</svg>
