<?xml version="1.0" encoding="utf-8"?>
<!-- Generator: Adobe Illustrator 18.1.1, SVG Export Plug-In . SVG Version: 6.00 Build 0)  -->
<svg version="1.1" id="Layer_1" xmlns="http://www.w3.org/2000/svg" xmlns:xlink="http://www.w3.org/1999/xlink" x="0px" y="0px"
	 viewBox="0 0 44.1 37.8" enable-background="new 0 0 44.1 37.8" xml:space="preserve">
<g>
	<path d="M43.3,15.8L40,12.5l-0.9-0.9l-3.6-9.8C35.2,0.8,34,0,33,0H11.2c-1,0-2.2,0.8-2.6,1.8L5,11.6l-0.9,0.9l-3.3,3.3
		C0.3,16.2,0,16.7,0,17.3v12.1c0,1.1,0.9,1.9,1.9,1.9H4v3.5c0,1.6,1.3,2.9,2.9,2.9h0c0,0,0,0,0,0c0.8,0,1.4-0.3,1.9-0.8
		c0.6-0.5,1-1.3,1-2.2v-3.5h24.5v3.5c0,0.9,0.4,1.6,1,2.2c0.5,0.5,1.2,0.8,1.9,0.8h0c0,0,0,0,0,0c1.6,0,2.9-1.3,2.9-2.9v-3.5h2.1
		c1.1,0,1.9-0.9,1.9-1.9V17.3C44.1,16.7,43.8,16.2,43.3,15.8z M31.3,3.2c1,0,2.2,0.8,2.6,1.8l2.8,7.7c0.2,0.5,0.1,0.9-0.1,1.3
		c-0.2,0.3-0.6,0.5-1.2,0.5H8.8c-0.5,0-0.9-0.2-1.2-0.5c-0.2-0.3-0.3-0.8-0.1-1.3L10.3,5c0.4-1,1.5-1.8,2.6-1.8H31.3z M7.5,23.6
		c-1.7,0-3.1-1.4-3.1-3.1c0-1.7,1.4-3.1,3.1-3.1c1.7,0,3.1,1.4,3.1,3.1C10.6,22.2,9.2,23.6,7.5,23.6z M36.6,17.5
		c1.7,0,3.1,1.4,3.1,3.1c0,1.7-1.4,3.1-3.1,3.1c-1.7,0-3.1-1.4-3.1-3.1C33.5,18.8,34.9,17.5,36.6,17.5z"/>
</g>
<g>
</g>
<g>
</g>
<g>
</g>
<g>
</g>
<g>
</g>
<g>
</g>
<g>
</g>
<g>
</g>
<g>
</g>
<g>
</g>
<g>
</g>
<g>
</g>
<g>
</g>
<g>
</g>
<g>
</g>
</svg>
