<?xml version="1.0" encoding="utf-8"?>
<!-- Generator: Adobe Illustrator 18.1.1, SVG Export Plug-In . SVG Version: 6.00 Build 0)  -->
<svg version="1.1" id="Layer_1" xmlns="http://www.w3.org/2000/svg" xmlns:xlink="http://www.w3.org/1999/xlink" x="0px" y="0px"
	 viewBox="0 0 73.3 36" enable-background="new 0 0 73.3 36" xml:space="preserve">
<g>
	<path d="M65.1,11.7h-3.5L56,3.8l0,0C54.4,1.2,52.4,0,49.6,0L38.6,0c-2,0-4.5,0-7.3,2.3c0,0,0,0,0,0l-11.7,9.4H8.2
		c-4.5,0-8.2,3.7-8.2,8.2v1.5c0,2.2,0.9,4.3,2.4,5.8c1.5,1.5,3.6,2.4,5.8,2.4h2.1c0.3,3.6,3.3,6.4,7,6.5h1.2c1.9,0,3.6-0.7,5-2.1
		c1.1-1.1,1.8-2.6,2-4.1h22.3c0.2,1.5,0.9,3,2,4.1c1.3,1.3,3.1,2.1,5,2.1H56c3.7,0,6.7-2.8,7-6.5h2.1c2.2,0,4.3-0.9,5.8-2.4
		c1.5-1.5,2.4-3.6,2.4-5.8v-1.5C73.3,15.4,69.6,11.7,65.1,11.7z M34,5.8c1.7-1.3,2.8-1.3,4.5-1.3l11.1,0c1.1,0,1.7,0.2,2.5,1.4
		c0-0.1,2.3,3.3,4.2,6H26.5C30,9,34.1,5.7,34,5.8z M68.8,21.4c0,1-0.4,1.9-1.1,2.7c-0.7,0.7-1.6,1.1-2.7,1.1h-4.3
		c-1.2,0-2.2,1-2.2,2.2c0,0.2,0,0.3,0,0.5V29c0,0.7-0.3,1.4-0.8,1.8c-0.5,0.5-1.1,0.8-1.8,0.8h-1.2c-0.7,0-1.3-0.3-1.8-0.8
		c-0.5-0.5-0.8-1.1-0.8-1.8v-1.4c0-0.6-0.2-1.2-0.6-1.6c-0.4-0.4-1-0.6-1.6-0.6c0,0-26.6,0-26.7,0c-1.2,0-2.2,1-2.2,2.2V29
		c0,0.7-0.3,1.3-0.8,1.8c-0.5,0.5-1.1,0.8-1.8,0.8h-1.2c-0.7,0-1.4-0.3-1.8-0.8c-0.5-0.5-0.8-1.1-0.8-1.8c0,0,0-1.5,0-1.6
		c0-1.2-1-2.2-2.2-2.2H8.2c-1,0-1.9-0.4-2.7-1.1c-0.7-0.7-1.1-1.6-1.1-2.7v-1.5c0-1,0.4-2,1.1-2.7c0.7-0.7,1.6-1.1,2.7-1.1h56.9
		c1,0,2,0.4,2.7,1.1c0.7,0.7,1.1,1.6,1.1,2.7V21.4z"/>
</g>
<g>
</g>
<g>
</g>
<g>
</g>
<g>
</g>
<g>
</g>
<g>
</g>
<g>
</g>
<g>
</g>
<g>
</g>
<g>
</g>
<g>
</g>
<g>
</g>
<g>
</g>
<g>
</g>
<g>
</g>
</svg>
