<?xml version="1.0" encoding="utf-8"?>
<!-- Generator: Adobe Illustrator 18.1.1, SVG Export Plug-In . SVG Version: 6.00 Build 0)  -->
<svg version="1.1" id="Layer_1" xmlns="http://www.w3.org/2000/svg" xmlns:xlink="http://www.w3.org/1999/xlink" x="0px" y="0px"
	 viewBox="0 0 42.1 33.6" enable-background="new 0 0 42.1 33.6" xml:space="preserve">
<g>
	<path d="M34.5,31.5c0,1.1,0.9,2,2,2h1.6c1.1,0,2-0.9,2-2v-2.3h-5.7V31.5z"/>
	<path d="M1.9,31.5c0,1.1,0.9,2,2,2h1.6c1.1,0,2-0.9,2-2v-2.3H1.9V31.5z"/>
	<path d="M37,11.5L34.4,2c-0.3-1.1-1.5-2-2.6-2H10.3C9.2,0,8,0.9,7.7,2l-2.6,9.5C3.3,12.7,0,15,0,16.2v9c0,1.1,0.8,1.9,1.9,2v0h38.3
		v0c1-0.1,1.9-1,1.9-2v-9C42.1,15,38.8,12.7,37,11.5z M10.6,3.1h20.8l2.1,7.7h-25C9.2,8.3,10.6,3.1,10.6,3.1z M9.6,21.5
		C9,22.3,8,22.8,6.9,22.8c-1.1,0-2-0.5-2.7-1.3c-0.5-0.6-0.9-1.4-0.9-2.3c0-2,1.6-3.5,3.5-3.5c2,0,3.5,1.6,3.5,3.5
		C10.5,20.1,10.2,20.9,9.6,21.5z M37.8,21.5c-0.7,0.8-1.6,1.3-2.7,1.3c-1.1,0-2-0.5-2.7-1.3c-0.5-0.6-0.9-1.4-0.9-2.3
		c0-2,1.6-3.5,3.5-3.5c2,0,3.6,1.6,3.6,3.5C38.7,20.1,38.4,20.9,37.8,21.5z"/>
</g>
<g>
</g>
<g>
</g>
<g>
</g>
<g>
</g>
<g>
</g>
<g>
</g>
<g>
</g>
<g>
</g>
<g>
</g>
<g>
</g>
<g>
</g>
<g>
</g>
<g>
</g>
<g>
</g>
<g>
</g>
</svg>
