<?xml version="1.0" encoding="utf-8"?>
<!-- Generator: Adobe Illustrator 18.1.1, SVG Export Plug-In . SVG Version: 6.00 Build 0)  -->
<svg version="1.1" id="Layer_1" xmlns="http://www.w3.org/2000/svg" xmlns:xlink="http://www.w3.org/1999/xlink" x="0px" y="0px"
	 viewBox="0 0 610.9 263.9" enable-background="new 0 0 610.9 263.9" xml:space="preserve">
<g>
	<path d="M108.7,175.2c-24.4,0-44.3,20-44.3,44.3c0,24.4,20,44.3,44.3,44.3s44.3-20,44.3-44.3C151.9,195.1,131.9,175.2,108.7,175.2z
		"/>
	<path d="M516.7,175.2c-24.4,0-44.3,20-44.3,44.3c0,24.4,20,44.3,44.3,44.3c24.4,0,44.3-20,44.3-44.3
		C561,195.1,541,175.2,516.7,175.2z"/>
	<path d="M575.4,106.4l-93.1-23.3l-88.7-66.5C381.4,7.8,359.2,0,343.7,0H173c-15.5,0-35.5,8.9-46.6,21.1L77.6,76.5L27.7,88.7l0,0
		C12.2,92,0,106.4,0,122v74.3C0,211.8,12.2,224,27.7,224h17.7c0-1.1,0-3.3,0-4.4c0-34.4,26.6-61,61-62.1c1.1,0,2.2,0,3.3,0
		c34.4,1.1,61,28.8,61,62.1c0,1.1,0,3.3,0,4.4h283.8c0-1.1,0-3.3,0-4.4c0-26.6,17.7-49.9,41-58.8c5.5-2.2,12.2-3.3,18.8-3.3
		c1.1,0,2.2,0,3.3,0c34.4,1.1,61,28.8,61,62.1c0,1.1,0,3.3,0,4.4h4.4c15.5,0,27.7-12.2,27.7-27.7v-46.6
		C612,129.7,595.4,109.8,575.4,106.4z M100.9,88.7l51-56.5c3.3-3.3,10-6.7,15.5-6.7h187.4c5.5,0,12.2,2.2,16.6,5.5L449,88.7H100.9z"
		/>
</g>
<g>
</g>
<g>
</g>
<g>
</g>
<g>
</g>
<g>
</g>
<g>
</g>
<g>
</g>
<g>
</g>
<g>
</g>
<g>
</g>
<g>
</g>
<g>
</g>
<g>
</g>
<g>
</g>
<g>
</g>
</svg>
