<?xml version="1.0" encoding="utf-8"?>
<!-- Generator: Adobe Illustrator 18.1.1, SVG Export Plug-In . SVG Version: 6.00 Build 0)  -->
<svg version="1.1" id="Layer_1" xmlns="http://www.w3.org/2000/svg" xmlns:xlink="http://www.w3.org/1999/xlink" x="0px" y="0px"
	 viewBox="0 0 54.7 25" enable-background="new 0 0 54.7 25" xml:space="preserve">
<g>
	<path d="M46.4,9c0.2-0.3,0.1-0.7-0.1-0.9l-6.7-7.5C39.3,0.1,39,0,38.6,0h-5.3c-0.2,0-0.4,0.1-0.6,0.2c-0.2,0.2-0.2,0.4-0.2,0.6v8.5
		c6.5,0,13.3,0,13.3,0C46,9.4,46.3,9.3,46.4,9z M14.1,9.4c0,0,7.8,0,16.2,0V0.8c0-0.2-0.1-0.4-0.2-0.6C29.9,0.1,29.7,0,29.5,0h-4.6
		c-0.5,0-0.7,0.1-1.1,0.5c0,0-9.6,7.6-9.7,7.6c-0.3,0.2-0.5,0.4-0.5,0.7C13.6,9.1,13.8,9.4,14.1,9.4z M54.4,11.7
		c-0.2-0.2-0.4-0.3-0.6-0.3h-51c-0.2,0-0.4,0.1-0.6,0.3C2.1,11.9,2,12.1,2,12.3l-2,7.7c0,0.7,0.5,1.2,1.2,1.2h3.1
		c0-2.9,2.4-5.2,5.3-5.2c0,0,0.5,0,0.5,0c2.9,0,5.3,2.4,5.3,5.2h22.2c0-2.9,2.4-5.2,5.3-5.2c0,0,0.5,0,0.5,0c2.9,0,5.3,2.3,5.3,5.2
		c0,0,4.2-1.3,4.2-1.3c0.6-0.2,0.8-0.3,0.9-0.9l1-6.6C54.7,12.1,54.6,11.9,54.4,11.7z M10.1,18H9.6c-1.8,0-3.3,1.5-3.3,3.2l0,0
		l0,0.5c0,1.8,1.5,3.3,3.3,3.3h0.5c1.8,0,3.3-1.5,3.3-3.3v-0.5l0-0.1C13.3,19.5,11.9,18,10.1,18z M43.3,18h-0.5
		c-1.8,0-3.3,1.5-3.3,3.2l0,0v0.5c0,0,0,0,0,0c0,0,0,0,0,0c0,1.8,1.5,3.3,3.3,3.3h0.5c1.8,0,3.3-1.5,3.3-3.3v-0.5l0-0.1
		C46.5,19.5,45.1,18,43.3,18z"/>
</g>
<g>
</g>
<g>
</g>
<g>
</g>
<g>
</g>
<g>
</g>
<g>
</g>
<g>
</g>
<g>
</g>
<g>
</g>
<g>
</g>
<g>
</g>
<g>
</g>
<g>
</g>
<g>
</g>
<g>
</g>
</svg>
