<?xml version="1.0" encoding="utf-8"?>
<!-- Generator: Adobe Illustrator 18.1.1, SVG Export Plug-In . SVG Version: 6.00 Build 0)  -->
<svg version="1.1" id="Layer_1" xmlns="http://www.w3.org/2000/svg" xmlns:xlink="http://www.w3.org/1999/xlink" x="0px" y="0px"
	 viewBox="0 0 40.3 45" enable-background="new 0 0 40.3 45" xml:space="preserve">
<g>
	<path d="M31.3,21.5c1.9,0,3.4-1.5,3.4-3.4c0-1.9-1.5-3.4-3.4-3.4c-1.9,0-3.4,1.5-3.4,3.4C27.9,20,29.4,21.5,31.3,21.5z M40.2,33.8
		l-3.5-9.3c0,0-0.1-0.3-0.2-0.4c-0.6-1-1.5-1.6-2.3-1.8C33.4,22,32.5,22,31.8,22h-1.5c-0.7,0-1.5,0-2.4,0.3
		c-1.1,0.3-1.7,0.9-2.3,1.8c-0.5,0.7-1,1.6-2,1.6c-0.2,0-0.5,0-0.6-0.1c-0.1,0-0.2-0.1-0.2-0.1c-0.2-0.1-0.5-0.1-0.7-0.1
		c0.2-0.6,0-1.3-0.6-1.7c-1.1-0.7-2.5-3.5-3.3-6.1c-0.8-2.6-1.2-4.9-1.2-4.9c-0.5-3.6-3.1-4.4-3.6-4.4l-0.2,0c0,0-3.5,0-3.7,0
		c-0.8,0-1.4,0.2-1.9,0.5C7.7,8.8,7.5,8.9,7.3,9.1l-5.2,5.1L2,14.2c-2.1,2-2,4.2-2,4.3l0,0.1l0.2,7.3c0,0.8,0.7,1.4,1.4,1.4
		c0.2,0,0.4,0,0.5-0.1C2.7,26.9,3,26.4,3,25.8l0-0.2l-0.1-5.8l0-1c0,0,0,0,0,0c0.1-1.6,1.8-3.2,1.8-3.2l2.2-2.1v0l0,0l0.9-0.9
		L4,33.7h4.4v8.8c0,1.4,1.1,2.5,2.5,2.5c1.4,0,2.5-1.1,2.5-2.5v-8.8h4.4l-2.5-16.3c0.1,0.4,0.2,0.7,0.3,1.1c0.9,2.8,2.1,6,4.5,7.6
		c0.3,0.2,0.6,0.2,0.9,0.2C20.7,27,21,27.7,21.6,28c0.1,0.1,0.9,0.5,2.1,0.5c0.1,0,0.1,0,0.2,0c1,0,2.3-0.5,3.3-1.7
		c0.1-0.2,0.3-0.3,0.4-0.5l0.1-0.1l0.2,0v17.3c0,0.8,0.7,1.5,1.5,1.5c0.8,0,1.5-0.7,1.5-1.5V35h0.6v8.5c0,0.8,0.7,1.5,1.5,1.5
		c0.8,0,1.5-0.7,1.5-1.5V26.2l3.2,8.6c0.2,0.5,0.7,0.8,1.2,0.8c0,0,0,0,0.1,0c0,0,0,0,0,0c0.2,0,0.3,0,0.5-0.1
		C40.1,35.2,40.4,34.4,40.2,33.8z M11.6,7.3c2,0,3.6-1.6,3.6-3.6c0-2-1.6-3.6-3.6-3.6C9.6,0,8,1.6,8,3.6C8,5.7,9.6,7.3,11.6,7.3z"/>
</g>
<g>
</g>
<g>
</g>
<g>
</g>
<g>
</g>
<g>
</g>
<g>
</g>
<g>
</g>
<g>
</g>
<g>
</g>
<g>
</g>
<g>
</g>
<g>
</g>
<g>
</g>
<g>
</g>
<g>
</g>
</svg>
