<?xml version="1.0" encoding="utf-8"?>
<!-- Generator: Adobe Illustrator 18.1.1, SVG Export Plug-In . SVG Version: 6.00 Build 0)  -->
<svg version="1.1" id="Layer_1" xmlns="http://www.w3.org/2000/svg" xmlns:xlink="http://www.w3.org/1999/xlink" x="0px" y="0px"
	 viewBox="0 0 40.2 40.2" enable-background="new 0 0 40.2 40.2" xml:space="preserve">
<g>
	<path d="M21.8,10.6h-6.7v9.2h6.6c2.4,0,4.4-1.9,4.4-4.5C26.2,12.6,24,10.6,21.8,10.6z"/>
	<path d="M35.2,0H5C2.3,0,0,2.3,0,5v30.1c0,2.8,2.3,5,5,5h30.2c2.8,0,5-2.3,5-5V5C40.2,2.3,37.9,0,35.2,0z M21.9,25.5h-6.8v10H9.2V5
		h12.9c5.7,0,9.8,5.1,9.8,10.3C32,21.1,27,25.5,21.9,25.5z"/>
</g>
<g>
</g>
<g>
</g>
<g>
</g>
<g>
</g>
<g>
</g>
<g>
</g>
<g>
</g>
<g>
</g>
<g>
</g>
<g>
</g>
<g>
</g>
<g>
</g>
<g>
</g>
<g>
</g>
<g>
</g>
</svg>
