<?xml version="1.0" encoding="utf-8"?>
<!-- Generator: Adobe Illustrator 18.1.1, SVG Export Plug-In . SVG Version: 6.00 Build 0)  -->
<svg version="1.1" id="Layer_1" xmlns="http://www.w3.org/2000/svg" xmlns:xlink="http://www.w3.org/1999/xlink" x="0px" y="0px"
	 viewBox="0 0 30.2 38.5" enable-background="new 0 0 30.2 38.5" xml:space="preserve">
<g>
	<g>
		<path d="M0,0v38.5h3.1c0,0,0-8.5,0-16.8c2.6,0,16.2,0,16.2,0c2.9,0,5.6-1.1,7.7-3.2c2.1-2.1,3.2-4.8,3.2-7.7
			c0-6-4.9-10.9-10.9-10.9H0z M19.3,3.1c4.3,0,7.8,3.5,7.8,7.8c0,2.1-0.8,4-2.3,5.5c-1.5,1.5-3.4,2.3-5.5,2.3c0,0-13.6,0-16.2,0
			c0-7.7,0-14.3,0-15.5C5.7,3.1,19.3,3.1,19.3,3.1z"/>
	</g>
</g>
<g>
</g>
<g>
</g>
<g>
</g>
<g>
</g>
<g>
</g>
<g>
</g>
<g>
</g>
<g>
</g>
<g>
</g>
<g>
</g>
<g>
</g>
<g>
</g>
<g>
</g>
<g>
</g>
<g>
</g>
</svg>
