<?xml version="1.0" encoding="utf-8"?>
<!-- Generator: Adobe Illustrator 18.1.1, SVG Export Plug-In . SVG Version: 6.00 Build 0)  -->
<svg version="1.1" id="Layer_1" xmlns="http://www.w3.org/2000/svg" xmlns:xlink="http://www.w3.org/1999/xlink" x="0px" y="0px"
	 viewBox="0 0 39.1 41.4" enable-background="new 0 0 39.1 41.4" xml:space="preserve">
<path d="M31.3,12.1c0-2.7,1.2-4.5,2.6-5.9c1.3-1.3,2.6-1.9,2.6-1.9c0.9-0.4,1.4-1.6,0.9-2.5c-0.4-1-1.6-1.4-2.5-0.9
	c-0.1,0.1-5.1,2.3-6.8,7.7V1c0-0.5-0.4-1-1-1H1C0.4,0,0,0.4,0,1v40.4h28.1v-5.9c1.1,0.4,2.3,0.6,3.6,0.6c0.1,0,0.2,0,0.2,0
	c2.7,0,6-1.5,6.9-5.2c0.2-0.8,0.3-1.5,0.3-2.2C38.5,20.9,30.9,18.6,31.3,12.1z M4.3,5h19.5v12.2H4.3V5z M35.3,28.7
	c0,0.4,0,0.8-0.1,1.3c-0.4,1.7-1.6,2.2-3.5,2.3c-0.8,0-1.6-0.2-2.1-0.4c-0.3-0.1-0.5-0.2-0.6-0.3l0,0c-0.2-0.3-0.5-0.6-0.8-0.7V15.8
	C30,22.3,35.8,25.2,35.3,28.7z"/>
<g>
</g>
<g>
</g>
<g>
</g>
<g>
</g>
<g>
</g>
<g>
</g>
<g>
</g>
<g>
</g>
<g>
</g>
<g>
</g>
<g>
</g>
<g>
</g>
<g>
</g>
<g>
</g>
<g>
</g>
</svg>
