<?xml version="1.0" encoding="utf-8"?>
<!-- Generator: Adobe Illustrator 18.1.1, SVG Export Plug-In . SVG Version: 6.00 Build 0)  -->
<svg version="1.1" id="Layer_1" xmlns="http://www.w3.org/2000/svg" xmlns:xlink="http://www.w3.org/1999/xlink" x="0px" y="0px"
	 viewBox="0 0 42.1 41.2" enable-background="new 0 0 42.1 41.2" xml:space="preserve">
<g>
	<path d="M26.6,2.5c0-1.4-1.1-2.5-2.5-2.5H5C3.6,0,2.5,1.1,2.5,2.5l0,34.7H0v4h29.1v-4h-2.5V2.5z M23.2,15.4c0,0.8-0.6,1.4-1.4,1.4
		H7.5c-0.8,0-1.4-0.6-1.4-1.4V5.9c0-0.8,0.6-1.4,1.4-1.4h14.3c0.8,0,1.4,0.6,1.4,1.4V15.4z"/>
	<path d="M37,4.4L37,4.4C37,4.2,36.6,2,33.9,2c0,0-0.2,0-0.5,0c-1.2,0-4.2,0-4.2,0H29v3.1h4.7l5.1,29c0,1.1-1,2-2.2,2
		c-1.2,0-2.2-0.9-2.2-2l0-9.4c0-2.8-2.3-5.1-5.1-5.1H29v3.4h0.2c1,0,1.7,0.8,1.7,1.7V34c0,2.9,2.5,5.2,5.6,5.2
		c3.1,0,5.6-2.3,5.6-5.2L37,4.4z M36.8,4.4L36.8,4.4L36.8,4.4L36.8,4.4z"/>
</g>
<g>
</g>
<g>
</g>
<g>
</g>
<g>
</g>
<g>
</g>
<g>
</g>
<g>
</g>
<g>
</g>
<g>
</g>
<g>
</g>
<g>
</g>
<g>
</g>
<g>
</g>
<g>
</g>
<g>
</g>
</svg>
