<?xml version="1.0" encoding="utf-8"?>
<!-- Generator: Adobe Illustrator 18.1.1, SVG Export Plug-In . SVG Version: 6.00 Build 0)  -->
<svg version="1.1" id="Layer_1" xmlns="http://www.w3.org/2000/svg" xmlns:xlink="http://www.w3.org/1999/xlink" x="0px" y="0px"
	 viewBox="0 0 47.5 27.7" enable-background="new 0 0 47.5 27.7" xml:space="preserve">
<g>
	<path d="M33.6,6.3V0h-9.4v5.2l-12.7,6.9l0,0H0v9.7h47.5V6.3H33.6z M44.3,18.7H3.2v-3.4c2.7,0,9.1,0,9.1,0l0.7-0.4l3-1.6l1.4,2.5
		l2.8-1.5l-1.4-2.5l2.7-1.5l1.4,2.5l2.8-1.5l-1.4-2.5l3.1-1.7c0,0,0-2.9,0-3.9h3.1c0,1.6,0,6.3,0,6.3s10.2,0,13.9,0V18.7z M0,27.7
		h47.5v-3.2H0V27.7z"/>
</g>
<g>
</g>
<g>
</g>
<g>
</g>
<g>
</g>
<g>
</g>
<g>
</g>
<g>
</g>
<g>
</g>
<g>
</g>
<g>
</g>
<g>
</g>
<g>
</g>
<g>
</g>
<g>
</g>
<g>
</g>
</svg>
