<?xml version="1.0" encoding="utf-8"?>
<!-- Generator: Adobe Illustrator 18.1.1, SVG Export Plug-In . SVG Version: 6.00 Build 0)  -->
<svg version="1.1" id="Layer_1" xmlns="http://www.w3.org/2000/svg" xmlns:xlink="http://www.w3.org/1999/xlink" x="0px" y="0px"
	 viewBox="0 0 39.7 45.3" enable-background="new 0 0 39.7 45.3" xml:space="preserve">
<g>
	<path d="M33.9,40.1v-8.5l5.3-10.3l-7-2.8V9.2h-3.4V5.3h-5.4V3.9c0-2.2-1.6-3.9-3.6-3.9c-2,0-3.6,1.8-3.6,3.9v1.4h-5.4v3.9H9.2H7.5
		v9.2l-7,2.8l5.3,10.3v8.5C4,41.5,1.9,42.9,0,42.9v2.4c2.7,0,4.9-1.5,6.6-2.8c1.7,1.4,3.9,2.8,6.6,2.8c2.7,0,4.9-1.5,6.6-2.8
		c1.7,1.4,3.9,2.8,6.6,2.8c2.7,0,4.9-1.5,6.6-2.8c1.7,1.4,3.9,2.8,6.6,2.8v-2.4C37.7,42.9,35.7,41.5,33.9,40.1z M11,12.8h1.6h1.8
		V8.9h10.9V11v1.8h1.8h1.6V17l-8.8-3.6L11,17V12.8z"/>
</g>
<g>
</g>
<g>
</g>
<g>
</g>
<g>
</g>
<g>
</g>
<g>
</g>
<g>
</g>
<g>
</g>
<g>
</g>
<g>
</g>
<g>
</g>
<g>
</g>
<g>
</g>
<g>
</g>
<g>
</g>
</svg>
