<?xml version="1.0" encoding="utf-8"?>
<!-- Generator: Adobe Illustrator 18.1.1, SVG Export Plug-In . SVG Version: 6.00 Build 0)  -->
<svg version="1.1" id="Layer_1" xmlns="http://www.w3.org/2000/svg" xmlns:xlink="http://www.w3.org/1999/xlink" x="0px" y="0px"
	 viewBox="0 0 35.7 45" enable-background="new 0 0 35.7 45" xml:space="preserve">
<g>
	<path d="M30.1,36.6c2.7-0.5,5.5-3.3,5.4-6.8v-23c0-3.6-3-6.9-7.1-6.9h-8.7H7.3C3.2,0,0.1,3.3,0.2,6.9v23c0,3.5,2.7,6.3,5.4,6.8
		L0,45h5.5l4.2-6.1h16.5l4.2,6.1h5.3L30.1,36.6z M3.9,8.8c0-1.9,1.2-3.6,3.6-3.6h20.7c2.3,0,3.6,1.7,3.6,3.6v6.5
		c0,2.2-1.6,3.6-3.6,3.6H7.5c-2,0-3.6-1.4-3.6-3.6V8.8z M7.1,32.9c-1.7,0-3.1-1.4-3.1-3.1c0-1.7,1.4-3.1,3.1-3.1
		c1.7,0,3.1,1.4,3.1,3.1C10.2,31.5,8.8,32.9,7.1,32.9z M25.4,29.8c0-1.7,1.4-3.1,3.1-3.1c1.7,0,3.1,1.4,3.1,3.1
		c0,1.7-1.4,3.1-3.1,3.1C26.8,32.9,25.4,31.5,25.4,29.8z"/>
</g>
<g>
</g>
<g>
</g>
<g>
</g>
<g>
</g>
<g>
</g>
<g>
</g>
<g>
</g>
<g>
</g>
<g>
</g>
<g>
</g>
<g>
</g>
<g>
</g>
<g>
</g>
<g>
</g>
<g>
</g>
</svg>
