<?xml version="1.0" encoding="utf-8"?>
<!-- Generator: Adobe Illustrator 18.1.1, SVG Export Plug-In . SVG Version: 6.00 Build 0)  -->
<svg version="1.1" id="Layer_1" xmlns="http://www.w3.org/2000/svg" xmlns:xlink="http://www.w3.org/1999/xlink" x="0px" y="0px"
	 viewBox="0 0 48.6 30.9" enable-background="new 0 0 48.6 30.9" xml:space="preserve">
<g>
	<path d="M44.1,11V6.1h-4.9V11H44.1z M33.5,11V6.1h-4.9V11H33.5z M0,30.9h48.6v-3.2H0V30.9z M11.5,11V6.5L6.6,11H11.5z M48.6,0H8.4
		L0,7.9v12.8h5.1C5.1,21.1,5,21.4,5,21.7c0,2.1,1.7,3.9,3.9,3.9c2.1,0,3.9-1.7,3.9-3.9c0-0.3,0-0.6-0.1-0.9h6.1
		c-0.1,0.3-0.1,0.6-0.1,0.9c0,2.1,1.7,3.9,3.9,3.9c2.1,0,3.9-1.7,3.9-3.9c0-0.3,0-0.6-0.1-0.9h6.1c-0.1,0.3-0.1,0.6-0.1,0.9
		c0,2.1,1.7,3.9,3.9,3.9c2.1,0,3.9-1.7,3.9-3.9c0-0.3,0-0.6-0.1-0.9h8.7v-3.2H3.2V9.3C4,8.5,8.9,3.9,9.7,3.2h38.9V0z M22.8,11V6.1
		h-4.9V11H22.8z"/>
</g>
<g>
</g>
<g>
</g>
<g>
</g>
<g>
</g>
<g>
</g>
<g>
</g>
<g>
</g>
<g>
</g>
<g>
</g>
<g>
</g>
<g>
</g>
<g>
</g>
<g>
</g>
<g>
</g>
<g>
</g>
</svg>
