<?xml version="1.0" encoding="utf-8"?>
<!-- Generator: Adobe Illustrator 18.1.1, SVG Export Plug-In . SVG Version: 6.00 Build 0)  -->
<svg version="1.1" id="Layer_1" xmlns="http://www.w3.org/2000/svg" xmlns:xlink="http://www.w3.org/1999/xlink" x="0px" y="0px"
	 viewBox="0 0 40.1 38.6" enable-background="new 0 0 40.1 38.6" xml:space="preserve">
<g>
	<path d="M35.5,14.7l-3.2-8.8C32,5,30.9,4.3,30,4.3h-5V1.9c0-1-0.8-1.9-1.9-1.9H17c-1,0-1.9,0.8-1.9,1.9v2.4h-5c-1,0-2,0.7-2.3,1.6
		l-3.3,8.9c0,0-4.5,4.5-4.5,5.2v11c0,1,0.8,1.7,1.7,1.7h1.9V36c0,1.5,1.2,2.7,2.6,2.7c1.5,0,2.6-1.2,2.6-2.7v-3.2h22.3V36
		c0,1.5,1.2,2.7,2.7,2.7c1.5,0,2.6-1.2,2.6-2.7v-3.2h1.9c1,0,1.7-0.8,1.7-1.7V20C40.1,19.3,35.5,14.7,35.5,14.7z M6.8,15.8l2.5-7
		c0.3-0.9,1.4-1.6,2.3-1.6h16.8c1,0,2,0.7,2.3,1.6l2.5,7c0.3,0.9-0.2,1.6-1.2,1.6H8C7,17.4,6.5,16.7,6.8,15.8z M6.8,27.8
		c-1.7,0-3.1-1.4-3.1-3.1c0-1.7,1.4-3.1,3.1-3.1c1.7,0,3.1,1.4,3.1,3.1C9.9,26.4,8.5,27.8,6.8,27.8z M33.2,27.8
		c-1.7,0-3.1-1.4-3.1-3.1c0-1.7,1.4-3.1,3.1-3.1c1.7,0,3.1,1.4,3.1,3.1C36.3,26.4,34.9,27.8,33.2,27.8z"/>
</g>
<g>
</g>
<g>
</g>
<g>
</g>
<g>
</g>
<g>
</g>
<g>
</g>
<g>
</g>
<g>
</g>
<g>
</g>
<g>
</g>
<g>
</g>
<g>
</g>
<g>
</g>
<g>
</g>
<g>
</g>
</svg>
