<?xml version="1.0" encoding="utf-8"?>
<!-- Generator: Adobe Illustrator 18.1.1, SVG Export Plug-In . SVG Version: 6.00 Build 0)  -->
<svg version="1.1" id="Layer_1" xmlns="http://www.w3.org/2000/svg" xmlns:xlink="http://www.w3.org/1999/xlink" x="0px" y="0px"
	 viewBox="0 0 50.6 30.8" enable-background="new 0 0 50.6 30.8" xml:space="preserve">
<g>
	<path d="M28,0h-5.3v3.2H28V0z M41,13c-0.7-1.2-4.4-7.4-4.4-7.4H13.9c0,0-3.7,6.1-4.4,7.4C8.1,13,0,13,0,13v13.4h7.9
		c0.5,2.5,2.7,4.4,5.4,4.4c2.7,0,4.9-1.9,5.4-4.4h13.3c0.5,2.5,2.7,4.4,5.4,4.4c2.7,0,4.9-1.9,5.4-4.4h7.9V13C50.6,13,42.5,13,41,13
		z M13.3,27.6c-1.3,0-2.3-1-2.3-2.3c0-1.3,1-2.3,2.3-2.3c1.3,0,2.3,1,2.3,2.3C15.6,26.6,14.6,27.6,13.3,27.6z M37.3,27.6
		c-1.3,0-2.3-1-2.3-2.3c0-1.3,1-2.3,2.3-2.3c1.3,0,2.3,1,2.3,2.3C39.6,26.6,38.6,27.6,37.3,27.6z M47.4,23.2h-5.1
		c-0.8-2-2.8-3.3-5-3.3c-2.3,0-4.2,1.4-5,3.3H18.3c-0.8-2-2.8-3.3-5-3.3c-2.3,0-4.2,1.4-5,3.3H3.2v-7.1h8.2l4.4-7.4h19.1
		c0.7,1.2,4.4,7.4,4.4,7.4s6.1,0,8.2,0V23.2z M18.2,11.4c-0.5,0.9-1.7,2.8-2.8,4.7h19.7c-1.1-1.9-2.3-3.8-2.8-4.7H18.2z"/>
</g>
<g>
</g>
<g>
</g>
<g>
</g>
<g>
</g>
<g>
</g>
<g>
</g>
<g>
</g>
<g>
</g>
<g>
</g>
<g>
</g>
<g>
</g>
<g>
</g>
<g>
</g>
<g>
</g>
<g>
</g>
</svg>
