<?xml version="1.0" encoding="utf-8"?>
<!-- Generator: Adobe Illustrator 18.1.1, SVG Export Plug-In . SVG Version: 6.00 Build 0)  -->
<svg version="1.1" id="Layer_1" xmlns="http://www.w3.org/2000/svg" xmlns:xlink="http://www.w3.org/1999/xlink" x="0px" y="0px"
	 viewBox="0 0 48.7 31.4" enable-background="new 0 0 48.7 31.4" xml:space="preserve">
<g>
	<path d="M48.7,0H30.8L0,12.1v9h6.4c0,0.2-0.1,0.5-0.1,0.7c0,2.1,1.7,3.9,3.9,3.9c2.1,0,3.9-1.7,3.9-3.9c0-0.2,0-0.5-0.1-0.7h6
		c0,0.2-0.1,0.5-0.1,0.7c0,2.1,1.7,3.9,3.9,3.9c2.1,0,3.9-1.7,3.9-3.9c0-0.2,0-0.5-0.1-0.7h6c0,0.2-0.1,0.5-0.1,0.7
		c0,2.1,1.7,3.9,3.9,3.9c2.1,0,3.9-1.7,3.9-3.9c0-0.2,0-0.5-0.1-0.7h7.6v-3.2c0,0-42.6,0-45.5,0v-3.7c0.4-0.2,2.3-0.9,4.8-1.9h10.3
		l11.4-4.5v-4c1.1-0.4,1.7-0.7,1.8-0.7c0.6,0,17.2,0,17.2,0V0z M0,31.4h48.7v-3.2H0V31.4z M40.5,11.5V6.6h-4.9v4.9H40.5z"/>
</g>
<g>
</g>
<g>
</g>
<g>
</g>
<g>
</g>
<g>
</g>
<g>
</g>
<g>
</g>
<g>
</g>
<g>
</g>
<g>
</g>
<g>
</g>
<g>
</g>
<g>
</g>
<g>
</g>
<g>
</g>
</svg>
