<?xml version="1.0" encoding="utf-8"?>
<!-- Generator: Adobe Illustrator 18.1.1, SVG Export Plug-In . SVG Version: 6.00 Build 0)  -->
<svg version="1.1" id="Layer_1" xmlns="http://www.w3.org/2000/svg" xmlns:xlink="http://www.w3.org/1999/xlink" x="0px" y="0px"
	 viewBox="0 0 34.5 44.6" enable-background="new 0 0 34.5 44.6" xml:space="preserve">
<g>
	<g>
		<polyline points="10.3,33 1.8,42.2 4.3,44.6 12.9,35.4 		"/>
		<polyline points="21.6,35.4 30.2,44.6 32.7,42.2 24.2,33 		"/>
	</g>
	<path d="M34.1,18.1c-0.9-4.2-2.7-8.2-3.9-12.3c-0.8-2.3-1.8-2.9-3.8-3.8c-1.8-0.8-5.4-1.8-8.6-2v0c-0.2,0-0.3,0-0.5,0
		c-0.2,0-0.3,0-0.5,0v0c-3.3,0.2-6.8,1.2-8.7,2c-2,0.8-3,1.5-3.8,3.8c-1.3,4.1-3.1,8.1-4,12.3c-0.6,2.8-0.5,5.6,0.5,8.3
		c0.8,2.1,2.8,6.4,4.6,7.9c1,0.8,3.6,1.9,4.1,2.1c0,0,5.9,0.7,7.1,0.8c0,0,0.1,0,0.1,0c0,0,0.1,0,0.1,0c0.8,0,7.2-0.6,7.2-0.6
		c0.7-0.1,3.9-1.5,4.9-2.2c1.8-1.5,3.8-5.7,4.6-7.9C34.6,23.7,34.7,20.9,34.1,18.1z M17.2,29.7c-2.5,0-4.5-2-4.5-4.5
		c0-2.5,2-4.5,4.5-4.5c2.5,0,4.5,2,4.5,4.5C21.8,27.7,19.8,29.7,17.2,29.7z M27.9,17.2L23,16.1c-1-0.3-1.6-0.8-2-1.2
		c-0.7-1.2-2-2-3.5-2c-1.2,0-2.4,0.5-3.1,1.4l0,0c0,0,0,0.1-0.1,0.2c-0.1,0.1-0.1,0.2-0.2,0.2c-0.3,0.4-0.9,0.9-1.8,1.3l-5.1,1.1
		l0,0c-0.2,0.1-0.3,0.1-0.5,0.1l-0.1,0c-0.6,0-0.7-0.3-0.7-0.7l2.4-9.4C8.3,6.6,8.7,6.3,9,6.2l7.2-2.1C16.5,4.1,17.4,4,18,4.2
		c0,0,0,0,0,0l7.4,2c0.2,0.1,0.7,0.4,0.8,0.9l2.3,9.3C28.6,16.8,28.5,17.2,27.9,17.2z"/>
</g>
<g>
</g>
<g>
</g>
<g>
</g>
<g>
</g>
<g>
</g>
<g>
</g>
<g>
</g>
<g>
</g>
<g>
</g>
<g>
</g>
<g>
</g>
<g>
</g>
<g>
</g>
<g>
</g>
<g>
</g>
</svg>
