<?xml version="1.0" encoding="utf-8"?>
<!-- Generator: Adobe Illustrator 18.1.1, SVG Export Plug-In . SVG Version: 6.00 Build 0)  -->
<svg version="1.1" id="Layer_1" xmlns="http://www.w3.org/2000/svg" xmlns:xlink="http://www.w3.org/1999/xlink" x="0px" y="0px"
	 viewBox="0 0 46.8 37.5" enable-background="new 0 0 46.8 37.5" xml:space="preserve">
<g>
	<path d="M20.5,20.8c0-2.3,0-10.6,0-10.6H5.7L0,20.6v12.5c0,0,4.9,0,6.6,0c0.7,2.5,3,4.4,5.8,4.4c2.7,0,5.1-1.9,5.8-4.4h10.9
		c0.7,2.5,3,4.4,5.8,4.4c2.7,0,5.1-1.9,5.8-4.4c1.6,0,6.2,0,6.2,0V20.8C46.8,20.8,23.3,20.8,20.5,20.8z M43.7,30c-1.7,0-6,0-6,0
		l0,1.5c0,1.6-1.3,2.9-2.9,2.9c-1.6,0-2.9-1.3-2.9-2.9l0-1.5H15.3l0,1.5c0,1.6-1.3,2.9-2.9,2.9c-1.6,0-2.9-1.3-2.9-2.9l0-1.5
		c0,0-4.6,0-6.3,0v-8.6c0.3-0.6,3.7-6.8,4.4-8.1h9.9c0,2.3,0,10.6,0,10.6s23.6,0,26.3,0V30z M26.9,3.1h14v14.7H44V0H23.7v17.8h3.1
		V3.1z"/>
</g>
<g>
</g>
<g>
</g>
<g>
</g>
<g>
</g>
<g>
</g>
<g>
</g>
<g>
</g>
<g>
</g>
<g>
</g>
<g>
</g>
<g>
</g>
<g>
</g>
<g>
</g>
<g>
</g>
<g>
</g>
</svg>
