<?xml version="1.0" encoding="utf-8"?>
<!-- Generator: Adobe Illustrator 18.1.1, SVG Export Plug-In . SVG Version: 6.00 Build 0)  -->
<svg version="1.1" id="Layer_1" xmlns="http://www.w3.org/2000/svg" xmlns:xlink="http://www.w3.org/1999/xlink" x="0px" y="0px"
	 viewBox="0 0 615.4 437.6" enable-background="new 0 0 615.4 437.6" xml:space="preserve">
<g>
	<path d="M579.5,0H345.3c-18.8,0-32.5,13.7-32.5,32.5v162.4h30.8V32.5l1.7-1.7h234.2l1.7,1.7v162.4H612V32.5
		C612,13.7,596.6,0,579.5,0z"/>
	<path d="M273.5,88.9c0-17.1-13.7-32.5-32.5-32.5H97.4c-17.1,0-30.8,10.3-37.6,23.9l-49.6,106C3.4,198.3,0,213.7,0,225.7v119.7
		c0,18.8,15.4,32.5,32.5,32.5h30.8c6.8,34.2,37.6,59.8,73.5,59.8s66.7-25.6,73.5-59.8h194.9c6.8,34.2,37.6,59.8,73.5,59.8
		s66.7-25.6,73.5-59.8h30.8c17.1,0,32.5-13.7,32.5-32.5v-118H273.5V88.9z M135.1,406.9c-23.9,0-44.4-20.5-44.4-44.4
		s20.5-44.4,44.4-44.4s44.4,20.5,44.4,44.4C179.5,388.1,160.7,406.9,135.1,406.9z M476.9,406.9c-23.9,0-44.4-20.5-44.4-44.4
		S453,318,476.9,318s44.4,20.5,44.4,44.4C519.7,388.1,500.9,406.9,476.9,406.9z M581.2,258.1v87.2l-1.7,1.7h-30.8
		c-6.8-34.2-37.6-59.8-73.5-59.8s-66.7,25.6-73.5,59.8H208.6c-6.8-34.2-37.6-59.8-73.5-59.8S68.4,312.8,61.5,347H32.5l-1.7-1.7
		V225.7c0-6.8,3.4-20.5,5.1-25.6L85.5,94c0-1.7,8.5-6.8,10.3-6.8h143.6l1.7,1.7v169.2H581.2z"/>
</g>
<g>
</g>
<g>
</g>
<g>
</g>
<g>
</g>
<g>
</g>
<g>
</g>
<g>
</g>
<g>
</g>
<g>
</g>
<g>
</g>
<g>
</g>
<g>
</g>
<g>
</g>
<g>
</g>
<g>
</g>
</svg>
