<?xml version="1.0" encoding="utf-8"?>
<!-- Generator: Adobe Illustrator 18.1.1, SVG Export Plug-In . SVG Version: 6.00 Build 0)  -->
<svg version="1.1" id="Layer_1" xmlns="http://www.w3.org/2000/svg" xmlns:xlink="http://www.w3.org/1999/xlink" x="0px" y="0px"
	 viewBox="0 0 51.8 33" enable-background="new 0 0 51.8 33" xml:space="preserve">
<g>
	<path d="M0.8,17.4h12.7V5.8c0-0.2-0.1-0.4-0.2-0.6C13.2,5.1,13,5,12.7,5H4.7C4.3,5,4,5.2,3.9,5.6L0,16.3C0,16.5,0,16.8,0.2,17
		C0.3,17.3,0.6,17.4,0.8,17.4z M50.9,19.5h-50c-0.2,0-0.5,0.1-0.6,0.3C0.1,19.9,0,20.1,0,20.3v7.7c0,0.7,0.5,1.2,1.2,1.2h3.1
		c0-2.9,2.4-5.2,5.3-5.2c0,0,0.5,0,0.5,0c2.9,0,5.3,2.4,5.3,5.2h20.2c0-2.9,2.4-5.2,5.3-5.2c0,0,0.5,0,0.5,0c2.9,0,5.3,2.3,5.3,5.2
		c0,0,4.2-1.3,4.2-1.3c0.5-0.1,0.9-0.2,0.9-0.9v-6.6c0-0.2-0.1-0.5-0.3-0.6C51.3,19.6,51.1,19.5,50.9,19.5z M51.5,0.2
		C51.4,0.1,51.1,0,50.9,0H16.8c-0.2,0-0.4,0.1-0.6,0.2C16.1,0.4,16,0.6,16,0.8v16.5h34.9c0.2,0,0.4-0.1,0.6-0.2
		c0.2-0.2,0.2-0.4,0.2-0.6V0.8C51.8,0.6,51.7,0.4,51.5,0.2z M10.1,26H9.6c-1.8,0-3.3,1.4-3.3,3.2l0,0v0.5c0,1.8,1.5,3.3,3.3,3.3h0.5
		c1.8,0,3.3-1.5,3.3-3.3v-0.5l0-0.1C13.3,27.5,11.9,26,10.1,26z M41.3,26h-0.5c-1.8,0-3.3,1.5-3.3,3.2l0,0v0.5c0,0,0,0,0,0
		c0,0,0,0,0,0c0,1.8,1.5,3.3,3.3,3.3h0.5c1.8,0,3.3-1.5,3.3-3.3v-0.5l0-0.1C44.5,27.5,43.1,26,41.3,26z"/>
</g>
<g>
</g>
<g>
</g>
<g>
</g>
<g>
</g>
<g>
</g>
<g>
</g>
<g>
</g>
<g>
</g>
<g>
</g>
<g>
</g>
<g>
</g>
<g>
</g>
<g>
</g>
<g>
</g>
<g>
</g>
</svg>
