<?xml version="1.0" encoding="utf-8"?>
<!-- Generator: Adobe Illustrator 18.1.1, SVG Export Plug-In . SVG Version: 6.00 Build 0)  -->
<svg version="1.1" id="Layer_1" xmlns="http://www.w3.org/2000/svg" xmlns:xlink="http://www.w3.org/1999/xlink" x="0px" y="0px"
	 viewBox="0 0 38.1 43.6" enable-background="new 0 0 38.1 43.6" xml:space="preserve">
<g>
	<path d="M35.7,8.5C30.4,4.8,25.2,8.5,23,14c-1,2.5-2.2,5.4-5.6,4.2c-2.8-1-3.3-6.6-4.1-8.8c-0.4-1.3-1.1-2.5-2-3.5
		C11,5.6,10,4.7,9.6,4.4c0.4,0,0.8,0,1.2-0.1c0.5-0.2,0.8-0.5,0.6-1.1c-0.3-1-0.9-1.2-1.8-1.8c-0.4-0.3,0-1.4-0.8-1.4
		c-0.5,0-0.7,0.7-1.1,0.8C7.3,0.9,7.2,0.6,7,0.4C6.8,0.1,6.5-0.2,6,0.2C5.7,0.4,6,1,5.7,1.4C5.4,1.7,5,1.4,4.7,1.2
		C4,0.8,2.6,1,2.5,2c0,0.4,0.1,0.8,0.4,1.2c0.8,1,0.8,1.3,0.8,1.3s-2.3,1.5-3,2C-0.1,6.9-0.3,7,0.7,7.3c1.5,0.4,3.1,0.5,3.1,0.5
		c0.2,0-0.4,1.5-0.4,1.5c-0.6,1-2.2,2.7-0.6,3.6c1,0.6,2.4-0.1,2.4-1.3c0,0.7-0.4,2.4-0.7,3c-0.4,0.8-0.9,1.6-1.2,2.5
		c-1.7,4,0,8.1,3.7,12.8c1.2,1.6,1.3,0.7,2.5,2.3c0.9,1.3,1,3.1,2.6,3.9c0.4,0.2,1.3,0.1,1.4,0.7l0.5,2.3c0.2,0.7-0.5,1.1-1.3,1.3
		c-1.1,0.2-2,0.4-3.1,0.8l0,0.3l0.9,0l0.6-0.1l1.2-0.2l0.7-0.1l-0.5,0.3l-0.3,0.2l0.1,0.2c0,0,0.6-0.2,0.7-0.2
		c0.1,0,1.6-0.7,1.6-0.7s0.2-0.1,0.2-0.1c-0.1,0.1,0.3,0.3,0.4,0.3c0.5,0.1,1.2,0.1,1.7,0l0.6-0.1l0.4-0.2v-0.2c0-0.1-1.2,0-1.2,0
		c-0.3-0.1-1.3-0.2-1.3-0.6c0,0-0.1-1.8-0.1-1.9c0-0.4-0.2-0.7-0.2-1.1c-0.1-0.4,0.1-0.9,0.2-1.3c0.2,0.2,0.5,0.3,0.7,0.5
		c0.4,0.3,0.7,0.5,1,0.8c0.4,0.4,0.6,0.8,1.1,1c0.4,0.2,1.3,0.1,1.4,0.7c0,0,0.5,2.3,0.5,2.3c0.2,0.7-0.5,1.1-1.3,1.3
		c-1.1,0.2-2,0.4-3.1,0.8l0,0.3l0.9,0l0.6,0l1.2-0.2l0.7-0.1l-0.5,0.3l-0.3,0.2l0.1,0.2c0,0,0.6-0.2,0.7-0.2c0.1,0,1.6-0.7,1.6-0.7
		s0.2-0.1,0.2-0.1c-0.1,0.1,0.3,0.3,0.4,0.3c0.5,0.1,1.2,0.1,1.7,0l0.6-0.1l0.4-0.2v-0.2c0-0.1-1.2,0-1.2,0
		c-0.3-0.1-1.3-0.2-1.3-0.6c0,0-0.1-1.8-0.1-1.9c0-0.4-0.2-0.7-0.2-1.1c-0.1-0.7,0.4-1.4,0.3-2.1c-0.2-0.9-0.2-1.4,0.4-2.2
		c0.1-0.1,0.3-0.2,0.4-0.3c0.4-0.3,0.9-0.5,1.3-0.7c1.2-0.6,2-1.7,2.9-2.8c0.9-1,1.8-2,2.6-3c1.1-1.5,1.7-3.6,1.5-4.1
		c0,0,0.7,1.5,0.8,2c0.2,1.2,0.1,2.1,0.1,3.3l-0.2,0.8l0.3-0.1l0.6-0.7c0,0,0.6-1.6,0.6-1.6c0.4-1.2,0.1-2.9,0-4.2
		c0-0.5-0.3-2.8-0.4-3.5c0-0.2,0-0.9,0-0.9s0.9,1.6,1,1.9c0.2,0.5,0.6,1.1,0.5,1.6c0,0.3,0.2,2.2,0.2,2.2s0.8-1.8,0.9-2.2
		c0.1-1.9,0-3.8-0.8-5.6c0,0,0.6,1,0.9,1.8c0.1,0.3,0.7,1.6,0.9,2.1c0.1-0.2,0.2-1.6,0.1-1.9l-0.3-1.6c0,0-0.5-1.5-0.5-1.6
		c-0.5-1.8-0.5-2.7-0.5-2.7s0.8,0.2,1.1,0.5c0.5,0.4,0.7,1.1,0.9,1.7c0.2,0.4,0.2,0.9,0.2,0.9c0.2-0.1,0.6-0.9,0.7-1.3
		c0.1-0.9,0.2-1.5,0.1-2.9C38,10.9,36.5,9.1,35.7,8.5z"/>
</g>
<g>
</g>
<g>
</g>
<g>
</g>
<g>
</g>
<g>
</g>
<g>
</g>
<g>
</g>
<g>
</g>
<g>
</g>
<g>
</g>
<g>
</g>
<g>
</g>
<g>
</g>
<g>
</g>
<g>
</g>
</svg>
