<?xml version="1.0" encoding="utf-8"?>
<!-- Generator: Adobe Illustrator 18.1.1, SVG Export Plug-In . SVG Version: 6.00 Build 0)  -->
<svg version="1.1" id="Layer_1" xmlns="http://www.w3.org/2000/svg" xmlns:xlink="http://www.w3.org/1999/xlink" x="0px" y="0px"
	 viewBox="0 0 43.7 32.8" enable-background="new 0 0 43.7 32.8" xml:space="preserve">
<g>
	<g>
		<g>
			<path d="M4,32.8h31c2.2,0,4-1.8,4-4H0C0,31,1.8,32.8,4,32.8z"/>
			<path d="M41.5,2.2C40.2,0.8,38.3,0,36.3,0H7.4c-2.2,0-4,1.8-4,4c0,0.1,0,0.3,0,0.4v0L5,17.9l0,0h0c0,0,0,0,0,0
				c0.3,2.2,1.3,4.2,2.8,5.7c1.8,1.8,4.3,3,7,3c0,0,0,0,0,0h9.4c0,0,0,0,0,0c2.7,0,5.2-1.2,7-3c1.5-1.5,2.5-3.5,2.8-5.7c0,0,0,0,0,0
				h0l0,0l0.4-3.1h1.9c2,0,3.9-0.8,5.2-2.2c1.3-1.3,2.2-3.2,2.2-5.2C43.7,5.4,42.9,3.5,41.5,2.2z M30,17.4c-0.3,2.7-3.1,5.2-5.8,5.2
				h-9.4c-2.8,0-5.5-2.4-5.8-5.2L7.4,4l24.1,0L30,17.4z M38.7,9.8c-0.6,0.6-1.5,1-2.4,1h-1.5l0.7-6.3c0,0,0-0.4,0-0.5h0.7
				c0.9,0,1.8,0.4,2.4,1c0.6,0.6,1,1.5,1,2.4C39.7,8.4,39.3,9.2,38.7,9.8z"/>
		</g>
	</g>
</g>
<g>
</g>
<g>
</g>
<g>
</g>
<g>
</g>
<g>
</g>
<g>
</g>
<g>
</g>
<g>
</g>
<g>
</g>
<g>
</g>
<g>
</g>
<g>
</g>
<g>
</g>
<g>
</g>
<g>
</g>
</svg>
