<?xml version="1.0" encoding="utf-8"?>
<!-- Generator: Adobe Illustrator 18.1.1, SVG Export Plug-In . SVG Version: 6.00 Build 0)  -->
<svg version="1.1" id="Layer_1" xmlns="http://www.w3.org/2000/svg" xmlns:xlink="http://www.w3.org/1999/xlink" x="0px" y="0px"
	 viewBox="0 0 40.4 33.8" enable-background="new 0 0 40.4 33.8" xml:space="preserve">
<g>
	<path d="M32.1,0L4.4,0v16.7c0,5.2,4.2,9.4,9.4,9.4c2.5,0,5.5,0,8,0c5.2,0,9.4-4.2,9.4-9.3c0,0,0-0.1,0-0.1c0,0,0,0,0-0.1
		c0,0,0.4,0,0.8,0c4.6,0,8.3-3.7,8.3-8.3C40.4,3.7,36.7,0,32.1,0z M32.1,13.3c-0.4,0-0.9,0-0.9,0v-10c0,0,0.3,0,0.9,0
		c2.8,0,5,2.2,5,5C37.2,11.1,34.9,13.3,32.1,13.3z M4.8,33.8c1.1,0,25,0,26,0c2.7,0,4.8-2.2,4.8-4.8H0C0,31.6,2.2,33.8,4.8,33.8z"/>
</g>
<g>
</g>
<g>
</g>
<g>
</g>
<g>
</g>
<g>
</g>
<g>
</g>
<g>
</g>
<g>
</g>
<g>
</g>
<g>
</g>
<g>
</g>
<g>
</g>
<g>
</g>
<g>
</g>
<g>
</g>
</svg>
