<?xml version="1.0" encoding="utf-8"?>
<!-- Generator: Adobe Illustrator 18.1.1, SVG Export Plug-In . SVG Version: 6.00 Build 0)  -->
<svg version="1.1" id="Layer_1" xmlns="http://www.w3.org/2000/svg" xmlns:xlink="http://www.w3.org/1999/xlink" x="0px" y="0px"
	 viewBox="0 0 25.4 49.2" enable-background="new 0 0 25.4 49.2" xml:space="preserve">
<g>
	<path d="M12.4,14.3c4.4,0.1,8.1-1.8,8.2-4.2h0V9.9v0c0,0,0,0,0,0l0-2.1c0-4.3-3.6-7.8-8-7.8c-4.4,0-7.9,3.5-8,7.8l0,2.3h0
		C4.8,12.3,8.1,14.2,12.4,14.3z M15.2,2.9c0.2-0.6,1.2-0.7,2.1-0.3c0.9,0.4,1.5,1.1,1.3,1.7c-0.2,0.5-1.2,0.7-2.1,0.3
		C15.5,4.2,15,3.5,15.2,2.9z M12.7,0.7c1.1,0,2,0.4,2,1c0,0.5-0.9,1-2,1c-1.1,0-2-0.4-2-1C10.7,1.1,11.6,0.7,12.7,0.7z M12.7,4.4
		c1.1,0,2,0.7,2,1.6c0,0.9-0.9,1.6-2,1.6c-1.1,0-2-0.7-2-1.6C10.7,5.1,11.6,4.4,12.7,4.4z M8.1,2.6C9,2.2,10,2.4,10.2,2.9
		c0.2,0.6-0.3,1.3-1.3,1.7C8,5,7,4.8,6.8,4.3C6.6,3.7,7.2,3,8.1,2.6z"/>
	<path d="M25.2,39.4L25.2,39.4l-0.1-0.5l-0.2-0.8l-5.3-19.2l-0.4-1.4c1.8-0.9,2.9-2.2,2.9-3.6c0-0.3-0.1-0.5-0.2-0.8V13h0
		c0,0,0-0.1,0-0.1c-0.9,2.2-4.7,3.9-9.2,3.9h-0.2c-4.4-0.1-7.9-1.7-8.8-3.9c0,0,0,0,0,0h0v0.2c-0.1,0.2-0.2,0.5-0.2,0.7
		c-0.1,1.4,1,2.7,2.9,3.7l-0.4,1.4L0.5,38.1l-0.2,0.8l-0.1,0.5h0c0,0-0.9,2.7,1.3,5.8h0c1.7,2.3,5.8,3.9,10.8,4c0.1,0,0.2,0,0.4,0
		c0.1,0,0.2,0,0.4,0c5-0.1,9.2-1.7,10.8-4h0C26.1,42.1,25.2,39.4,25.2,39.4z"/>
</g>
<g>
</g>
<g>
</g>
<g>
</g>
<g>
</g>
<g>
</g>
<g>
</g>
<g>
</g>
<g>
</g>
<g>
</g>
<g>
</g>
<g>
</g>
<g>
</g>
<g>
</g>
<g>
</g>
<g>
</g>
</svg>
