<?xml version="1.0" encoding="utf-8"?>
<!-- Generator: Adobe Illustrator 18.1.1, SVG Export Plug-In . SVG Version: 6.00 Build 0)  -->
<svg version="1.1" id="Layer_1" xmlns="http://www.w3.org/2000/svg" xmlns:xlink="http://www.w3.org/1999/xlink" x="0px" y="0px"
	 viewBox="0 0 31.1 41.8" enable-background="new 0 0 31.1 41.8" xml:space="preserve">
<g>
	<path d="M7.1,2.6C7.4,2.9,8,3.3,8.8,3.5c1.6,0.6,4,1,6.7,1C19,4.5,22,3.8,23.4,3c0.5-0.3,0.7-0.5,0.8-0.7l0-0.1l0-0.1l-0.3-0.3
		c-0.2-0.2-0.7-0.4-1.2-0.6C22.6,1.1,22.4,1,22.2,1c-1.6-0.6-4-1-6.7-1c-3,0-5.7,0.5-7.3,1.2C8,1.3,7.8,1.4,7.6,1.5
		C7.1,1.8,6.8,2.1,6.8,2.2l0,0.1l0,0.1L7.1,2.6z"/>
	<path d="M15.5,13.2c6.9,0,12.5-1.8,12.7-4h0l0,0l-0.5-1.3l-1.5-4.2c-0.2,0.3-0.5,0.6-0.8,0.9c-0.7,0.6-1.5,1-2.5,1.3
		C21,6.6,18.4,7,15.5,7c-2.2,0-4.2-0.2-5.9-0.6c-1.7-0.4-3.1-1-4.1-1.8C5.2,4.3,4.9,4,4.7,3.7L3.2,7.9L2.8,9.2v0l0,0
		C3,11.4,8.6,13.2,15.5,13.2z"/>
	<path d="M30.4,17.6C30.4,17.6,30.4,17.6,30.4,17.6c-0.1-0.3-0.2-0.5-0.3-0.7c-0.8-1.6-1.9-2.7-2.3-3l-0.4-0.4c0,0,0,0-0.1,0l0,0
		c-3,1.5-7.6,2.2-11.7,2.2c-4.1,0-8.7-0.6-11.7-2.2l0,0c0,0,0,0-0.1,0l-0.4,0.4c-0.4,0.3-1.5,1.4-2.3,3c-0.1,0.2-0.2,0.4-0.3,0.6
		c0,0,0,0,0,0C0.2,18.7-0.1,20,0,21.4c0,0.2,0,0.4,0,0.6c0.7,8.5,4.9,15.2,5.1,15.7c0.9,1.7,3.2,3,6.2,3.7c0,0,0.1,0,0.1,0
		c0.6,0.1,1.2,0.2,1.9,0.3c0,0,0.1,0,0.1,0c0.7,0.1,1.3,0.1,2.1,0.1c0,0,0,0,0,0c0,0,0,0,0,0c0.7,0,1.4,0,2.1-0.1c0,0,0.1,0,0.1,0
		c0.7-0.1,1.3-0.2,1.9-0.3c0,0,0.1,0,0.1,0c3-0.7,5.3-2,6.2-3.7c0.2-0.5,4.4-7.2,5.1-15.7c0-0.2,0-0.4,0-0.6
		C31.2,20,30.9,18.7,30.4,17.6z"/>
</g>
<g>
</g>
<g>
</g>
<g>
</g>
<g>
</g>
<g>
</g>
<g>
</g>
<g>
</g>
<g>
</g>
<g>
</g>
<g>
</g>
<g>
</g>
<g>
</g>
<g>
</g>
<g>
</g>
<g>
</g>
</svg>
