<?xml version="1.0" encoding="utf-8"?>
<!-- Generator: Adobe Illustrator 18.1.1, SVG Export Plug-In . SVG Version: 6.00 Build 0)  -->
<svg version="1.1" id="Layer_1" xmlns="http://www.w3.org/2000/svg" xmlns:xlink="http://www.w3.org/1999/xlink" x="0px" y="0px"
	 viewBox="0 0 22.9 57.4" enable-background="new 0 0 22.9 57.4" xml:space="preserve">
<g>
	<path d="M7.8,4.7c0.8,0.4,2.1,0.7,3.6,0.7c1.4,0,2.7-0.3,3.6-0.7c0.9-0.4,1.1-0.9,1.1-1c0-0.6,0-1.6,0-2.2c0,0-0.2-0.5-1.1-0.9
		C14.2,0.3,12.9,0,11.4,0C10,0,8.7,0.3,7.8,0.7C6.9,1.1,6.8,1.5,6.8,1.5c0,0.6,0,1.6,0,2.2C6.7,3.8,7,4.3,7.8,4.7z"/>
	<path d="M18.7,17.8c-2.8-4-3.2-7.7-3.2-8.5c0-2.1,1.2-2.1,1.4-3.4c-0.3,0.3-0.7,0.5-1.1,0.7c-1.2,0.6-2.7,0.9-4.4,0.9
		C9.7,7.4,8.2,7.1,7,6.5C6.6,6.4,6.2,6.1,5.9,5.8c0.3,1.4,1.4,1.3,1.4,3.4c0,0.8-0.3,4.5-3.2,8.5C-0.3,24.1,0,30.1,0,33.6
		c0,3.5,0,18.3,0,18.5v0l0,0v0h0l14.1,5.3c0-3.3,0-15.9,0-19.1c0-0.4,0-0.9,0-1.4c0-3.8-0.1-9.3-2.2-15l1.9-0.7
		c2.2,6.1,2.3,11.9,2.3,15.7c0,0.5,0,1,0,1.4c0,3.1,0,15.1,0,18.8l6.6-5.1h0c0,0,0-15,0-18.5S23.1,24.1,18.7,17.8z"/>
</g>
<g>
</g>
<g>
</g>
<g>
</g>
<g>
</g>
<g>
</g>
<g>
</g>
<g>
</g>
<g>
</g>
<g>
</g>
<g>
</g>
<g>
</g>
<g>
</g>
<g>
</g>
<g>
</g>
<g>
</g>
</svg>
