<?xml version="1.0" encoding="utf-8"?>
<!-- Generator: Adobe Illustrator 18.1.1, SVG Export Plug-In . SVG Version: 6.00 Build 0)  -->
<svg version="1.1" id="Layer_1" xmlns="http://www.w3.org/2000/svg" xmlns:xlink="http://www.w3.org/1999/xlink" x="0px" y="0px"
	 viewBox="0 0 49 41.6" enable-background="new 0 0 49 41.6" xml:space="preserve">
<g>
	<path d="M34.7,16.9c-0.3-0.9-0.7-1.8-1-2.6c-0.2-0.4-0.4-0.8-0.6-1.1c-2.6,3.9-8.6,6.4-15.3,6.4c-6.7,0-12.6-2.5-15.3-6.4
		C1.3,15.5,0,18.7,0,22.7c0,3.3,0.9,7.1,3.6,11.3c0.2,0.1,0.3,0.3,0.4,0.5c1.5,3.9,7.1,7.2,13.9,7.2c6.8,0,12.4-3.2,13.9-7.2
		c0.1-0.2,0.2-0.4,0.4-0.5c1.4-2.1,2.3-4.2,2.8-6.2c0.5-1.8,0.7-3.5,0.7-5.1c0-0.5,0-0.9-0.1-1.4C35.4,19.7,35.1,18.2,34.7,16.9z"/>
	<path d="M46.1,4.9c-0.2,0-0.4,0-0.5,0c-2,0.3-3.3,1.2-4.9,2.7c-1.7,1.6-3.3,4-4.7,6.7c0.5,1.3,1,2.7,1.3,4.2c2-2.8,4.4-5.2,7.3-6.8
		c2.2-1.2,4.6-2.4,4.5-4.5c0,0,0,0,0,0C49,5.7,47.5,5,46.1,4.9z"/>
	<path d="M7.2,14.8c2.6,1.6,6.4,2.7,10.5,2.7c4.2,0,7.9-1.1,10.5-2.7c1.7-1.1,2.9-2.3,3.5-3.6c0.4-0.8,0.6-1.6,0.6-2.4
		c0-0.1,0-0.2,0-0.2c-0.1-2.1-1.5-4.2-4.1-5.8C25.7,1.1,21.9,0,17.8,0c0,0,0,0,0,0C13.6,0,9.9,1.1,7.2,2.7c-2.6,1.6-4,3.7-4.1,5.8
		c0,0.1,0,0.2,0,0.2c0,0.8,0.2,1.6,0.6,2.4C4.4,12.5,5.6,13.7,7.2,14.8z"/>
</g>
<g>
</g>
<g>
</g>
<g>
</g>
<g>
</g>
<g>
</g>
<g>
</g>
<g>
</g>
<g>
</g>
<g>
</g>
<g>
</g>
<g>
</g>
<g>
</g>
<g>
</g>
<g>
</g>
<g>
</g>
</svg>
