<?xml version="1.0" encoding="utf-8"?>
<!-- Generator: Adobe Illustrator 18.1.1, SVG Export Plug-In . SVG Version: 6.00 Build 0)  -->
<svg version="1.1" id="Layer_1" xmlns="http://www.w3.org/2000/svg" xmlns:xlink="http://www.w3.org/1999/xlink" x="0px" y="0px"
	 viewBox="0 0 49.1 25.9" enable-background="new 0 0 49.1 25.9" xml:space="preserve">
<g>
	<path d="M49.1,8.1c0,0-3.5,0.5-8.8,3.9l-0.6,0c-0.8-0.4-10.9-5-13.1-6.4l0.2-1.8L17.9,0l-1.3,3.8C16.6,3.8,3.1,5.8,0,15
		c0,0,10.2,10.6,24.1,7.1c0,0,0.6,3.2,4.8,3.8c0,0-0.8-4.3-1-4.3c-0.2,0,10.3-4.7,11.6-5.3v0l1.1,0.1c0,0,1.8,3.1,8.5,3.9l-5-6
		L49.1,8.1z M10.1,13.2c-1.1,0-1.9-0.9-1.9-1.9c0-1.1,0.9-1.9,1.9-1.9c1.1,0,1.9,0.9,1.9,1.9C12.1,12.3,11.2,13.2,10.1,13.2z"/>
</g>
<g>
</g>
<g>
</g>
<g>
</g>
<g>
</g>
<g>
</g>
<g>
</g>
<g>
</g>
<g>
</g>
<g>
</g>
<g>
</g>
<g>
</g>
<g>
</g>
<g>
</g>
<g>
</g>
<g>
</g>
</svg>
