<?xml version="1.0" encoding="utf-8"?>
<!-- Generator: Adobe Illustrator 18.1.1, SVG Export Plug-In . SVG Version: 6.00 Build 0)  -->
<svg version="1.1" id="Layer_1" xmlns="http://www.w3.org/2000/svg" xmlns:xlink="http://www.w3.org/1999/xlink" x="0px" y="0px"
	 viewBox="0 0 37.4 52.4" enable-background="new 0 0 37.4 52.4" xml:space="preserve">
<g>
	<path d="M6.2,26l12.5,26.4L31.3,26C31.1,26,6.3,26,6.2,26z"/>
	<path d="M34.1,16.5H34c0.2-0.7,0.3-1.5,0.3-2.4C34.1,7.5,27.3,0,18.7,0C10.1,0,3.4,7.5,3.2,14.1c0,0.9,0,1.7,0.2,2.4H3.3
		c-1.8,0-3.3,1.3-3.3,2.9c0,1.6,1.5,2.9,3.3,2.9h30.8c1.8,0,3.3-1.3,3.3-2.9C37.4,17.8,36,16.5,34.1,16.5z"/>
</g>
<g>
</g>
<g>
</g>
<g>
</g>
<g>
</g>
<g>
</g>
<g>
</g>
<g>
</g>
<g>
</g>
<g>
</g>
<g>
</g>
<g>
</g>
<g>
</g>
<g>
</g>
<g>
</g>
<g>
</g>
</svg>
