<?xml version="1.0" encoding="utf-8"?>
<!-- Generator: Adobe Illustrator 18.1.1, SVG Export Plug-In . SVG Version: 6.00 Build 0)  -->
<svg version="1.1" id="Layer_1" xmlns="http://www.w3.org/2000/svg" xmlns:xlink="http://www.w3.org/1999/xlink" x="0px" y="0px"
	 viewBox="0 0 42.6 50.1" enable-background="new 0 0 42.6 50.1" xml:space="preserve">
<g>
	<path d="M42.2,7.3c-1.2-0.8-2.6-1-3.8-1c-0.6,0-1.1,0.1-1.6,0.1l3.6-4.3c0.5-0.5,0.4-1.4-0.2-1.8c-0.5-0.5-1.4-0.4-1.8,0.2
		l-4.5,5.3c-0.2-1.7-0.8-3.8-2.6-5.4C31,0,30.4,0,30.1,0.4c-0.3,0.4-0.3,0.9,0.1,1.3c1.7,1.5,2.1,4.1,2.1,5.5c0,0.3,0,0.6,0,0.7
		l0,0.2l0,0.1c0,0,0,0,0,0c0,0.1,0,0.3,0,0.4L29.5,12c-0.3-0.2-0.5-0.4-0.9-0.6l-0.2-0.1c-2.4-1.7-7.3-4.3-10.4,0.2
		c0,0-0.7,0.8-1.7,2.5l5.2,3.7c0.6,0.4,0.7,1.2,0.3,1.8c-0.4,0.6-1.2,0.7-1.8,0.3l-5-3.5c-0.5,0.9-1,2-1.5,3.2l3,2.1
		c0.6,0.4,0.7,1.2,0.3,1.8c-0.4,0.6-1.2,0.7-1.8,0.3l-2.5-1.8l-2.9,5.5c-0.6,0.9-1.2,1.9-1.9,2.8c-2,3-4.8,6.8-5.2,10.5
		c-0.2,1.7-0.2,3.3-0.9,5c-0.5,1.3-1.4,2.6-1.8,3.9l0,0.1l0,0.1L0,50.1l0,0l0,0L0.2,50l0.1,0l0-0.1c1.2-0.8,2.2-1.9,3.4-2.7
		c1.4-1,3-1.4,4.6-2c3.5-1.3,6.5-4.9,9-7.5c0.8-0.8,1.6-1.6,2.3-2.5l4.9-4.3c6.3-4.3,8.7-7.5,8.7-7.5c3.7-4,0.1-8.2-2.2-10.1
		L31,13.3c-0.2-0.2-0.4-0.4-0.7-0.6L33,9.3c0.1,0,0.3,0,0.4-0.1l0.1,0C34,9,36.2,8.1,38.3,8.1c1.1,0,2.1,0.2,2.9,0.7
		c0.4,0.3,1,0.1,1.2-0.3C42.7,8.1,42.6,7.5,42.2,7.3z"/>
</g>
<g>
</g>
<g>
</g>
<g>
</g>
<g>
</g>
<g>
</g>
<g>
</g>
<g>
</g>
<g>
</g>
<g>
</g>
<g>
</g>
<g>
</g>
<g>
</g>
<g>
</g>
<g>
</g>
<g>
</g>
</svg>
