<?xml version="1.0" encoding="utf-8"?>
<!-- Generator: Adobe Illustrator 18.1.1, SVG Export Plug-In . SVG Version: 6.00 Build 0)  -->
<svg version="1.1" id="Layer_1" xmlns="http://www.w3.org/2000/svg" xmlns:xlink="http://www.w3.org/1999/xlink" x="0px" y="0px"
	 viewBox="0 0 52.5 22.8" enable-background="new 0 0 52.5 22.8" xml:space="preserve">
<g>
	<path d="M37.7,6.3c-0.8,1.2-1.5,2.7-1.5,4.3c0,0.9-0.7,1.6-1.6,1.6c-0.9,0-1.6-0.7-1.6-1.6c0.1-2.3,0.8-4.4,2-6.1
		c-2.3-3.2-5.5-4.5-9.2-4.5c-4.1,0.1-8.2,2.8-9.6,6.6c-0.5,1.3-0.8,2.7-0.9,4c-0.1,0.9-1,1.4-1.9,1.4c-0.9,0-1.6-0.7-1.6-1.6
		c0-2.1,0.7-4,1.7-5.6C8.2,3.1,1,5.8,0.1,11.4c-1,6.4,3.5,11.3,8.7,11.4c1.2,0,33,0,34.7-0.1c5-0.4,9-4,9-9.4
		C52.5,5.2,43.7,2.4,37.7,6.3z"/>
</g>
<g>
</g>
<g>
</g>
<g>
</g>
<g>
</g>
<g>
</g>
<g>
</g>
<g>
</g>
<g>
</g>
<g>
</g>
<g>
</g>
<g>
</g>
<g>
</g>
<g>
</g>
<g>
</g>
<g>
</g>
</svg>
