<?xml version="1.0" encoding="utf-8"?>
<!-- Generator: Adobe Illustrator 18.1.1, SVG Export Plug-In . SVG Version: 6.00 Build 0)  -->
<svg version="1.1" id="Layer_1" xmlns="http://www.w3.org/2000/svg" xmlns:xlink="http://www.w3.org/1999/xlink" x="0px" y="0px"
	 viewBox="0 0 44.8 29" enable-background="new 0 0 44.8 29" xml:space="preserve">
<g>
	<path d="M43,19.2c-2.6,2.1-5.8,3.3-9.1,3.5c-12.9,0.4-26.9-3-33.9-15c0.2,3.6-0.1,6.5,2.1,9.3c2.3,3,5.3,5.4,8.5,7.2
		c5.6,3.1,12,4.5,18.4,4.6C33,29,36.8,28.6,40,26.2c2.9-2.2,3.8-5.4,4.8-8.8C44.2,18.1,43.6,18.7,43,19.2z M34.4,19.5
		c2.5-0.2,5.1-1.1,7-2.8c3.9-3.3,3.7-8.1,0.1-11.5c-4.3-4.1-9.7-6.6-15-4.6c-4.3,1.6-6.9,1.5-8.9,0.8c-0.2-0.1-1.4-0.4-1.8-0.5
		C2-1.7,1.3,3.7,3.6,6.8C9.5,17.1,23.5,20.2,34.4,19.5z M34.2,6.2c2.4,0.4,4.3,2.1,4.1,3.8c-0.1,1.7-2.2,2.6-4.6,2.2
		c-2.4-0.4-4.3-2.1-4.1-3.8C29.7,6.7,31.8,5.7,34.2,6.2z"/>
</g>
<g>
</g>
<g>
</g>
<g>
</g>
<g>
</g>
<g>
</g>
<g>
</g>
<g>
</g>
<g>
</g>
<g>
</g>
<g>
</g>
<g>
</g>
<g>
</g>
<g>
</g>
<g>
</g>
<g>
</g>
</svg>
