<?xml version="1.0" encoding="utf-8"?>
<!-- Generator: Adobe Illustrator 18.1.1, SVG Export Plug-In . SVG Version: 6.00 Build 0)  -->
<svg version="1.1" id="Layer_1" xmlns="http://www.w3.org/2000/svg" xmlns:xlink="http://www.w3.org/1999/xlink" x="0px" y="0px"
	 viewBox="0 0 36.2 38.6" enable-background="new 0 0 36.2 38.6" xml:space="preserve">
<g>
	<g>
		<path d="M6.4,12.9c3.1,1.2,7.4,1.8,11.7,1.8h0c0,0,0.1,0,0.1,0c4.3,0,8.6-0.6,11.7-1.8c3.1-1.2,4.8-2.8,4.8-4.6c0,0,0,0,0-0.1V6.5
			c0,0,0,0,0-0.1c0-1.8-1.7-3.4-4.8-4.6C26.7,0.6,22.4,0,18.1,0c0,0,0,0-0.1,0c0,0,0,0,0,0C13.8,0,9.5,0.6,6.4,1.8
			C3.2,3,1.5,4.7,1.5,6.5c0,0,0,0,0,0.1v1.6c0,0,0,0,0,0.1C1.5,10,3.2,11.7,6.4,12.9z"/>
	</g>
	<g>
		<path d="M7.1,23.1v6.7C7.4,30.1,8.1,30.6,9,31c2.1,1,5.6,1.6,9,1.6c0,0,0,0,0,0c0,0,0,0,0,0c0.1,0,0.2,0,0.3,0
			c4.4,0,9-1.3,10.3-2.5c0.1-0.1,0.2-0.2,0.3-0.3v-6.8c-3.4,1.2-7.2,1.7-11,1.7C14.3,24.7,10.5,24.3,7.1,23.1z"/>
	</g>
	<g>
		<g>
			<path d="M33.9,13.1c-1,0.7-2.1,1.3-3.3,1.7c-3.5,1.3-8,2-12.5,2c-4.5,0-9-0.6-12.5-2c-1.2-0.5-2.4-1-3.3-1.7v1.6
				C0.9,16,0,17.7,0,19.8v9c0,13.1,36.2,13.1,36.2,0v-9c0-2-0.9-3.7-2.3-5.1V13.1z M31.1,30.2l-0.1,0.5c-0.1,0.2-0.4,0.6-1,1
				c-2.1,1.7-6.8,2.9-11.6,2.9c-0.1,0-0.2,0-0.4,0v0c-3.7,0-7.4-0.7-9.9-1.8c-1.3-0.6-2.2-1.2-2.6-1.8c-0.1-0.1-0.2-0.3-0.3-0.4
				l-0.1-0.5v-8.6c0-0.4,0.2-0.7,0.5-0.9c0.3-0.2,0.7-0.2,1-0.1c3.3,1.5,7.4,2,11.5,2.1c4.1,0,8.2-0.6,11.6-2.1
				c0.3-0.1,0.7-0.1,1,0.1c0.3,0.2,0.5,0.5,0.5,0.9V30.2z"/>
		</g>
	</g>
</g>
<g>
</g>
<g>
</g>
<g>
</g>
<g>
</g>
<g>
</g>
<g>
</g>
<g>
</g>
<g>
</g>
<g>
</g>
<g>
</g>
<g>
</g>
<g>
</g>
<g>
</g>
<g>
</g>
<g>
</g>
</svg>
