<?xml version="1.0" encoding="utf-8"?>
<!-- Generator: Adobe Illustrator 18.1.1, SVG Export Plug-In . SVG Version: 6.00 Build 0)  -->
<svg version="1.1" id="Layer_1" xmlns="http://www.w3.org/2000/svg" xmlns:xlink="http://www.w3.org/1999/xlink" x="0px" y="0px"
	 viewBox="0 0 34.6 44.2" enable-background="new 0 0 34.6 44.2" xml:space="preserve">
<g>
	<path d="M34.4,22.6c-1.4-8.7-9-11.6-16.2-7.6c-0.1-0.5-0.2-1.4-0.2-2.5c0-1.6,0.2-3.5,1.1-5.3c0.9-1.8,2.4-3.4,5.1-4.4
		c0.4-0.2,0.6-0.6,0.5-1c-0.1-0.4-0.6-0.6-1-0.5c-3,1.1-4.9,3.1-5.9,5.2c-0.7,1.3-1,2.7-1.2,3.9c-0.4-0.5-0.7-0.8-1.1-1.1
		c0,0,1.4-3.2-2.3-5.1C9.5,2.2,6.7,1.9,6.7,0c-0.2,11.4,8.6,9.4,8.8,9.6c0.4,0.3,0.7,0.7,1,1.1c-0.1,0.6-0.1,1.2-0.1,1.7
		c0,1.1,0.1,2,0.2,2.6c-4.1-2.3-9.1-3.4-12.8,0.2c-2.3,2.2-3.5,5.4-3.8,8.6c-0.5,5.6,2,12.3,5.4,16.7c3.2,4.1,7.1,3.7,11.8,3.6
		c4.7,0.2,8.6,0.5,11.8-3.6C32.8,35.9,35.3,28.5,34.4,22.6z"/>
</g>
<g>
</g>
<g>
</g>
<g>
</g>
<g>
</g>
<g>
</g>
<g>
</g>
<g>
</g>
<g>
</g>
<g>
</g>
<g>
</g>
<g>
</g>
<g>
</g>
<g>
</g>
<g>
</g>
<g>
</g>
</svg>
