<?xml version="1.0" encoding="utf-8"?>
<!-- Generator: Adobe Illustrator 18.1.1, SVG Export Plug-In . SVG Version: 6.00 Build 0)  -->
<svg version="1.1" id="Layer_1" xmlns="http://www.w3.org/2000/svg" xmlns:xlink="http://www.w3.org/1999/xlink" x="0px" y="0px"
	 viewBox="0 0 25.6 52.4" enable-background="new 0 0 25.6 52.4" xml:space="preserve">
<g>
	<path d="M13.8,21.8c0.9-0.9,2-1.5,3-1.9c0.4-0.8,0.6-1.7,0.6-2.6c0-2.9-2.7-7.3-4-9.3l0-8h-1.4l0,8c-1.3,2-4,6.5-4,9.3
		c0,0.9,0.3,1.8,0.6,2.6c1.1,0.4,2.1,1,3,1.9c0.1,0.1,0.2,0.2,0.2,0.3c0.3,0.4,0.6,0.8,0.8,1.3c0.2-0.4,0.4-0.8,0.7-1.2
		C13.7,22,13.8,21.9,13.8,21.8z"/>
	<path d="M15.1,23.5c-1.8,2-1.7,6.8-1.7,8.1c0.1-0.1,0.1-0.1,0.2-0.2h0c0.1-0.1,0.2-0.2,0.2-0.3c1.9-1.9,4.2-2.3,6.1-2.7
		c2-0.4,3.5-0.9,3.9-1.4c0.1,0,0.1-0.1,0.1-0.1l0.3-0.4c0.8-1.8,1.1-3.9,1.2-6.3h0v-1.1c0,0,0-0.1,0-0.1l0,0V4.1l-1.4,0v15.9
		C21.5,21.5,17.2,21.2,15.1,23.5z"/>
	<path d="M0,19.1l0,1.1h0c0.1,2.4,0.5,4.6,1.2,6.4l0.3,0.4C1.6,27,1.7,27,1.7,27.1c0.4,0.5,2,1,3.9,1.4c1.9,0.4,4.2,0.8,6.1,2.7
		c0.1,0.1,0.2,0.2,0.2,0.3c0.1,0.1,0.1,0.1,0.1,0.2c0-1.4,0.1-6.1-1.7-8.1c-2-2.4-6.4-2.1-9-3.4l0-16H0l0,14.8c0,0,0,0,0,0
		C0,19,0,19,0,19.1z"/>
	<path d="M13.5,41c0,0,0.1-0.1,0.1-0.2h0c0.1-0.1,0.2-0.2,0.3-0.3c1.9-1.9,4.2-2.3,6.1-2.7c2-0.4,3.5-0.9,3.9-1.4
		c0,0,0.1-0.1,0.1-0.1l0.3-0.4c0.9-2.1,1.3-4.6,1.3-7.6c-2.1,2.8-8,1.7-10.5,4.6C13.4,34.9,13.4,39.6,13.5,41z"/>
	<path d="M1.6,36.3c0,0,0.1,0.1,0.1,0.1c0.4,0.5,2,1,3.9,1.4c1.9,0.4,4.2,0.8,6.1,2.7c0.1,0.1,0.2,0.2,0.2,0.2
		c0.1,0.1,0.1,0.1,0.2,0.2c0-1.4,0.1-6.1-1.7-8.1C8,30,2.1,31.1,0,28.3c0,2.9,0.4,5.5,1.3,7.6L1.6,36.3z"/>
	<path d="M0.1,37.6c0,13,11.2,11,12.1,14.8c0-0.7,0-1.9,0-2.3c0-1.6,0-6-1.7-7.9C8,39.3,2.2,40.4,0.1,37.6z"/>
	<path d="M13.4,50.1c0,0.4,0,1.6,0,2.3c0.9-3.8,12.1-1.7,12.1-14.8c-2.1,2.8-8,1.7-10.5,4.6C13.4,44.1,13.4,48.4,13.4,50.1z"/>
</g>
<g>
</g>
<g>
</g>
<g>
</g>
<g>
</g>
<g>
</g>
<g>
</g>
<g>
</g>
<g>
</g>
<g>
</g>
<g>
</g>
<g>
</g>
<g>
</g>
<g>
</g>
<g>
</g>
<g>
</g>
</svg>
