<?xml version="1.0" encoding="utf-8"?>
<!-- Generator: Adobe Illustrator 18.1.1, SVG Export Plug-In . SVG Version: 6.00 Build 0)  -->
<svg version="1.1" id="Layer_1" xmlns="http://www.w3.org/2000/svg" xmlns:xlink="http://www.w3.org/1999/xlink" x="0px" y="0px"
	 viewBox="0 0 33.1 41.1" enable-background="new 0 0 33.1 41.1" xml:space="preserve">
<g>
	<path d="M7.5,17.8c0.4,0,0.9,0,1.5-0.1c2-0.4,4.6-1.5,7.1-3.2c2.5-1.7,4.4-3.7,5.4-5.5c0.7-1.1,1-2.1,1-2.8c0-0.4-0.1-0.7-0.3-0.9
		c-0.2-0.4-1-0.8-2.2-0.8c-0.4,0-0.9,0-1.5,0.2c-2,0.4-4.6,1.5-7.1,3.2C9,9.5,7,11.6,6,13.3c-0.7,1.1-1,2.1-1,2.8
		c0,0.4,0.1,0.7,0.3,0.9C5.5,17.5,6.3,17.8,7.5,17.8z"/>
	<path d="M32.2,30.5c0-2.1,0-4.1,0-5.9c0.5-0.9,0.8-1.8,0.8-2.9c-0.2-4-3.9-6.8-9-8.2C27.6,9.3,28.9,5,27,2.3
		C24.4-1.5,16.4-0.5,9.1,4.5C2.1,9.4-1.6,16.3,0.7,20.2c-0.1,0.5-0.2,0.9-0.2,1.4c0.1,1.1,0.3,2,0.8,2.9c0,1.9,0,3.8,0,5.9
		c0,0.1,0,0.2,0,0.3c-0.1,0.5-0.2,0.9-0.2,1.4c0.3,5.6,7.5,8.8,15.7,8.9c8.2-0.1,15.4-3.3,15.7-8.9c0-0.5-0.1-1-0.2-1.4
		C32.2,30.7,32.2,30.6,32.2,30.5z M4,12.2C5.3,10,7.4,7.8,10.1,6c2.7-1.9,5.5-3.1,7.9-3.6c0.7-0.1,1.3-0.2,1.9-0.2
		c1.6,0,3.1,0.5,4,1.8c0.5,0.7,0.7,1.5,0.7,2.2c0,1.3-0.5,2.6-1.3,3.9c-1.3,2.1-3.4,4.3-6.1,6.2c-2.7,1.9-5.5,3.1-8,3.6
		c-0.7,0.1-1.3,0.2-1.9,0.2c-1.7,0-3.1-0.5-4-1.8c-0.5-0.7-0.7-1.5-0.7-2.3C2.8,14.8,3.3,13.5,4,12.2z M16.8,28.8
		c-7.6,0-13.8-3.1-14.5-7c3.5,2.1,10.2,0.8,16.4-3.5c1.7-1.2,3.3-2.6,4.6-3.9c4.7,1.3,8,3.8,8,6.8C31.3,25.4,24.8,28.8,16.8,28.8z"
		/>
</g>
<g>
</g>
<g>
</g>
<g>
</g>
<g>
</g>
<g>
</g>
<g>
</g>
<g>
</g>
<g>
</g>
<g>
</g>
<g>
</g>
<g>
</g>
<g>
</g>
<g>
</g>
<g>
</g>
<g>
</g>
</svg>
