<?xml version="1.0" encoding="utf-8"?>
<!-- Generator: Adobe Illustrator 18.1.1, SVG Export Plug-In . SVG Version: 6.00 Build 0)  -->
<svg version="1.1" id="Layer_1" xmlns="http://www.w3.org/2000/svg" xmlns:xlink="http://www.w3.org/1999/xlink" x="0px" y="0px"
	 viewBox="0 0 46.5 41.2" enable-background="new 0 0 46.5 41.2" xml:space="preserve">
<g>
	<path d="M43.4,0c0,0-0.3-0.2-0.5,0.3C43.6,2,43.9,4.4,42.8,6c-0.5,0.6-1.1,0.9-1.3,1c0.3-0.1,0.5-0.2,0.7-0.3
		c-0.2,0.1-0.4,0.3-0.6,0.4c-0.4-0.2-0.8-0.4-1.3-0.5c-4.4-1.2-8.8,1.1-10,5.3c0,0,0,0,0,0.1c0.1,0.1,0.3,0.1,0.4,0.2
		c1.6,0.8,3,2.2,3.9,4.1c0.4,1,0,2.1-1,2.6c-1,0.4-2.1,0-2.6-1c-0.5-1.1-1.2-1.7-2.1-2.2c-0.9-0.5-2.1-0.7-3.4-0.7
		c-1.7,0-3.6,0.6-5.1,1.6c-1.5,1-2.5,2.4-2.8,4c0,0.3-0.1,0.5-0.1,0.8c0,0.8,0.2,1.4,0.6,2c0.4,0.5,1,1,1.8,1.4l0,0
		c1,0.4,1.4,1.6,1,2.6c-0.4,1-1.6,1.4-2.6,1c-1.4-0.6-2.6-1.5-3.4-2.7c-0.1-0.2-0.2-0.4-0.4-0.6c0,0,0,0-0.1,0
		c-0.6,0.1-1.3,0.3-1.9,0.6c-0.5,0.2-0.9,0.5-1.3,0.7c-0.1,0.1-0.3,0.2-0.4,0.3c-0.3,0.2-0.5,0.4-0.8,0.6c-0.1,0.1-0.3,0.2-0.4,0.4
		c-0.3,0.3-0.6,0.6-0.8,1c-0.1,0.2-0.2,0.4-0.4,0.6c-0.1,0.2-0.2,0.4-0.3,0.5c-0.1,0.2-0.2,0.5-0.3,0.7C8,30.4,8,30.5,7.9,30.7
		c-0.2,0.6-0.3,1.1-0.3,1.7c0,0.1,0,0.1,0,0.2c-1.7,0.3-3.4,0.1-5-0.3c-0.6-0.2-1.4-0.3-2.1-0.2c-0.6,0.1-0.6,0.4-0.4,0.8
		c0,0,3.5,8.9,15.6,8.3l0,0c2.8-0.1,7.2-0.8,13-4.1c0,0,17.8-9.4,17.9-23.7C46.5,13.4,46,0.7,43.4,0z"/>
</g>
<g>
</g>
<g>
</g>
<g>
</g>
<g>
</g>
<g>
</g>
<g>
</g>
<g>
</g>
<g>
</g>
<g>
</g>
<g>
</g>
<g>
</g>
<g>
</g>
<g>
</g>
<g>
</g>
<g>
</g>
</svg>
