<?xml version="1.0" encoding="utf-8"?>
<!-- Generator: Adobe Illustrator 18.1.1, SVG Export Plug-In . SVG Version: 6.00 Build 0)  -->
<svg version="1.1" id="Layer_1" xmlns="http://www.w3.org/2000/svg" xmlns:xlink="http://www.w3.org/1999/xlink" x="0px" y="0px"
	 viewBox="0 0 41.1 44.4" enable-background="new 0 0 41.1 44.4" xml:space="preserve">
<g>
	<path d="M40.8,0.1C40.7,0,40.6,0,40.5,0c-0.1,0-0.3,0-0.4,0.1c-2.9,2.1-6.3,4-9.6,6.1c-3.8,2.3-7.3,4.8-9.9,7.6
		c1.2,1,2.3,2,3.3,3.2c3.7-5.1,8.2-8,8.2-8h0c0.5-0.3,1.1-0.2,1.4,0.3c0.3,0.5,0.2,1.1-0.3,1.4c0,0-3,2-6.1,5.5
		c-0.7,0.8-1.3,1.6-1.9,2.5c0.7,1.1,1.4,2.2,1.8,3.5c1.2,3.5,1.2,7.4,0,10.5c0.2-0.1,0.4-0.1,0.7-0.1c6-1.8,10.7-6.1,12.1-11.7
		c1.6-6.2,0.9-13.7,1.4-20.3C41.2,0.4,41,0.2,40.8,0.1z"/>
	<path d="M10.9,10C7.6,8.1,4.1,6.4,1.1,4.5C1,4.4,0.8,4.3,0.7,4.3c-0.1,0-0.3,0-0.4,0.1C0.1,4.6,0,4.8,0,5c0.9,6.5,0.6,14,2.5,20.1
		c1.7,5.5,6.6,9.5,12.7,11c0.9,0.2,1.9,0.4,2.9,0.4c0.9,0,1.8-0.2,2.7-0.4c-0.5,4.8-2.9,7.4-2.9,7.4s0.5,1.4,2,0.6c0,0,2-3,1.8-8.9
		c0,0,0-0.1,0-0.1c0-0.1,0-0.1,0-0.2c0-0.3,0-0.6,0-0.9l0,0c-0.3-5.9-3.4-10.6-6.6-14c-3.3-3.5-6.7-5.4-6.7-5.4
		c-0.5-0.3-0.7-0.9-0.4-1.4c0.3-0.5,0.9-0.7,1.4-0.4c0.1,0.1,13.7,7.7,14.3,21.5c0.1-0.2,0.3-0.3,0.4-0.5c2.1-3.2,2.2-7.5,0.9-11
		C23.2,17.4,17.3,13.5,10.9,10z"/>
</g>
<g>
</g>
<g>
</g>
<g>
</g>
<g>
</g>
<g>
</g>
<g>
</g>
<g>
</g>
<g>
</g>
<g>
</g>
<g>
</g>
<g>
</g>
<g>
</g>
<g>
</g>
<g>
</g>
<g>
</g>
</svg>
