<?xml version="1.0" encoding="utf-8"?>
<!-- Generator: Adobe Illustrator 18.1.1, SVG Export Plug-In . SVG Version: 6.00 Build 0)  -->
<svg version="1.1" id="Layer_1" xmlns="http://www.w3.org/2000/svg" xmlns:xlink="http://www.w3.org/1999/xlink" x="0px" y="0px"
	 viewBox="0 0 39.7 42.4" enable-background="new 0 0 39.7 42.4" xml:space="preserve">
<g>
	<path d="M39.7,19.9C39.7,8.9,30.8,0,19.9,0S0,8.9,0,19.9c0,0.3,0.2,0.6,0.4,0.8c0.1,0.1,3.4,2.4,9.3,2.4c2.9,0,6.5-0.6,10.6-2.3
		c3.8-1.6,7.1-2.1,9.8-2.1c2.7,0,4.7,0.5,6.1,1c0.3,0.1,0.5,0.2,0.7,0.3c-1.7,1.1-3.9,1.7-6,1.9c-1.2,0.1-2.3,0.1-3.3,0.1l0.3,2.1
		c0.9,0,2,0,3.2-0.1c2.7-0.3,5.9-1.1,8.2-3.2c0,0,0,0,0,0c0,0,0.1-0.1,0.1-0.1c0,0,0.1-0.1,0.1-0.1l0,0
		C39.6,20.4,39.7,20.1,39.7,19.9z"/>
	<path d="M25.3,21.3c-1.5,0.3-3.1,0.8-4.9,1.5c-2.4,1-4.5,1.6-6.6,1.9l-1.5,10.1c0,4.1,3.4,7.5,7.5,7.5c4.1,0,7.5-3.4,7.5-7.5
		L25.4,22L25.3,21.3z"/>
</g>
<g>
</g>
<g>
</g>
<g>
</g>
<g>
</g>
<g>
</g>
<g>
</g>
<g>
</g>
<g>
</g>
<g>
</g>
<g>
</g>
<g>
</g>
<g>
</g>
<g>
</g>
<g>
</g>
<g>
</g>
</svg>
