<?xml version="1.0" encoding="utf-8"?>
<!-- Generator: Adobe Illustrator 18.1.1, SVG Export Plug-In . SVG Version: 6.00 Build 0)  -->
<svg version="1.1" id="Layer_1" xmlns="http://www.w3.org/2000/svg" xmlns:xlink="http://www.w3.org/1999/xlink" x="0px" y="0px"
	 viewBox="0 0 51.1 39.9" enable-background="new 0 0 51.1 39.9" xml:space="preserve">
<g>
	<g>
		<path d="M32.6,36.4c-4.2-3.9-5.9-5.6-11.1-5.7l0,0c-0.3,0-0.6,0-1,0l0,0c-2.6,0.1-5.4,0.7-8.3,0.7l0,0c-2.5,0-5.1-0.5-7.5-2.4l0,0
			C1.4,26.4,0,22.7,0,18.9l0,0c0-4.8,2.2-9.7,5.5-13l0,0C9.7,1.6,16,0,22,0l0,0c4,0,7.9,0.7,11.1,1.9l0,0
			C42.7,5.5,51.1,14,51.1,24.5l0,0c0,2-0.3,4.2-1,6.3l0,0L49,30.4l1.1,0.4c-1.6,4.8-5,9.1-9.9,9.2l0,0
			C37.8,39.9,35.2,38.8,32.6,36.4L32.6,36.4z M34.2,34.7c2.3,2.2,4.3,2.9,6,2.9l0,0c3.3,0.1,6.2-3.2,7.7-7.6l0,0l0,0
			c0.6-1.9,0.9-3.8,0.9-5.6l0,0c0-9.1-7.5-17.1-16.4-20.4l0,0C29.4,3,25.7,2.3,22,2.3l0,0c-5.7,0-11.4,1.6-14.9,5.2l0,0
			c-2.9,2.9-4.8,7.3-4.8,11.4l0,0c0,3.2,1.1,6.1,3.8,8.3l0,0c1.9,1.5,3.8,1.9,6,1.9l0,0c2.5,0,5.3-0.6,8.2-0.7l0,0
			c0.4,0,0.7,0,1.1,0l0,0c0.1,0,0.1,0,0.2,0l0,0C27.5,28.4,30.2,30.9,34.2,34.7L34.2,34.7z"/>
	</g>
	<g>
		<g>
			<path d="M35.9,13.2c0.7-0.6,1.4-1.3,1-2.3c-0.4-0.9-1.8-1.5-2.6-2c-1.1-0.6-2.3-1.2-3.6-1.7c-2.5-0.9-5.7-1.5-8.9-1.5
				c-5,0-9.7,1.5-12.2,4.1c-2.2,2.2-3.8,5.9-3.8,8.8c0,2.4,0.7,4.1,2.5,5.5c1.1,0.9,2.1,1.1,3.8,1.1c2,0,4.7-0.5,7.9-0.7
				c0.4,0,0.8,0,1.2,0c0.1,0,0.1,0,0.2,0c1.3,0,2.7,0.5,4,0.3c1.4-0.3,1.6-0.8,2.3-2c0.2-0.4,0.5-0.8,0.8-1.3c1.2-2,2.7-3.8,4.3-5.5
				c0.9-0.9,1.9-1.8,2.9-2.6C35.7,13.4,35.8,13.3,35.9,13.2z"/>
		</g>
		<g>
			<path d="M41,15c-0.1,0-0.2,0-0.3,0c-1.1,0-1.6,0.6-2.4,1.2c-1.8,1.5-3.5,3.1-4.9,5c-1.4,1.9-4.3,4.9-1.6,6.8
				c1.8,1.2,3.2,2.6,4.8,4.1c1.9,1.7,3,2,3.6,2c0.6,0,1.2-0.2,2-1.1c0.8-0.9,1.7-2.3,2.3-4.1c0.5-1.5,0.7-3,0.7-4.4
				c0-2.9-1-5.7-2.7-8.2C42.2,15.7,41.9,15.1,41,15z"/>
		</g>
	</g>
</g>
<g>
</g>
<g>
</g>
<g>
</g>
<g>
</g>
<g>
</g>
<g>
</g>
<g>
</g>
<g>
</g>
<g>
</g>
<g>
</g>
<g>
</g>
<g>
</g>
<g>
</g>
<g>
</g>
<g>
</g>
</svg>
