<?xml version="1.0" encoding="utf-8"?>
<!-- Generator: Adobe Illustrator 18.1.1, SVG Export Plug-In . SVG Version: 6.00 Build 0)  -->
<svg version="1.1" id="Layer_1" xmlns="http://www.w3.org/2000/svg" xmlns:xlink="http://www.w3.org/1999/xlink" x="0px" y="0px"
	 viewBox="0 0 31.8 48.4" enable-background="new 0 0 31.8 48.4" xml:space="preserve">
<g>
	<path d="M31.2,16.5c-0.4-0.5-1-0.7-1.7-0.7H20v-5.4c0-2.2,0.1-3.3,1.8-3.9l8-2.2c0.5-0.1,0.8-0.7,0.7-1.2l-0.7-2.4
		c-0.1-0.5-0.7-0.8-1.2-0.7l-8.1,2.2l-0.1,0c-4.7,1.3-4.8,5.5-4.8,8.1v5.4H2.2c-0.6,0-1.2,0.3-1.7,0.7c-0.4,0.5-0.6,1.1-0.5,1.7
		l2.7,23.5c0.1,3.7,3.2,6.7,7,6.7h12.5c1.9,0,3.6-0.7,4.9-2c1.3-1.3,2-2.9,2-4.7l2.7-23.5C31.8,17.6,31.6,16.9,31.2,16.5z
		 M24.6,41.5c0,0.7-0.3,1.3-0.7,1.8c-0.5,0.5-1.1,0.7-1.8,0.7H9.7c-1.4,0-2.5-1.1-2.5-2.5L4.7,20.2h22.4L24.6,41.5z"/>
</g>
<g>
</g>
<g>
</g>
<g>
</g>
<g>
</g>
<g>
</g>
<g>
</g>
<g>
</g>
<g>
</g>
<g>
</g>
<g>
</g>
<g>
</g>
<g>
</g>
<g>
</g>
<g>
</g>
<g>
</g>
</svg>
