<?xml version="1.0" encoding="utf-8"?>
<!-- Generator: Adobe Illustrator 18.1.1, SVG Export Plug-In . SVG Version: 6.00 Build 0)  -->
<svg version="1.1" id="Layer_1" xmlns="http://www.w3.org/2000/svg" xmlns:xlink="http://www.w3.org/1999/xlink" x="0px" y="0px"
	 viewBox="0 0 33.9 49" enable-background="new 0 0 33.9 49" xml:space="preserve">
<g>
	<path d="M32,26.8c-0.9-1.1-1.9-1.9-2.9-2.4L28.5,0h-5.5l-0.6,24.4c-1,0.5-2,1.3-2.9,2.4c-1.1,1.4-1.9,3.3-1.9,5.8V49h16.2V32.6
		C33.9,30.1,33.1,28.2,32,26.8z"/>
	<path d="M0,9.2V24h0c0.4,4.1,2.3,7.3,4.8,8.2V45H0.6v4h11.8v-4H8.2V32.2c2.4-0.9,4.3-4.1,4.8-8.2h0V9.2H0z"/>
</g>
<g>
</g>
<g>
</g>
<g>
</g>
<g>
</g>
<g>
</g>
<g>
</g>
<g>
</g>
<g>
</g>
<g>
</g>
<g>
</g>
<g>
</g>
<g>
</g>
<g>
</g>
<g>
</g>
<g>
</g>
</svg>
