<?xml version="1.0" encoding="utf-8"?>
<!-- Generator: Adobe Illustrator 18.1.1, SVG Export Plug-In . SVG Version: 6.00 Build 0)  -->
<svg version="1.1" id="Layer_1" xmlns="http://www.w3.org/2000/svg" xmlns:xlink="http://www.w3.org/1999/xlink" x="0px" y="0px"
	 viewBox="0 0 33.2 40.1" enable-background="new 0 0 33.2 40.1" xml:space="preserve">
<g>
	<path d="M7.5,0C3.4,0,0,4.3,0,9.6c0,4.3,2.2,7.9,5.3,9.2v19.2c0,1.2,1,2.2,2.2,2.2c1.2,0,2.2-1,2.2-2.2V18.7
		c3.1-1.2,5.3-4.9,5.3-9.2C15,4.3,11.7,0,7.5,0z"/>
	<path d="M31.7,0.1c-0.8,0-1.5,0.7-1.5,1.5v10.2h-2.9V1.6c0-0.9-0.7-1.5-1.5-1.5c-0.9,0-1.5,0.7-1.5,1.5v10.2h-2.9V1.6
		c0-0.9-0.7-1.5-1.5-1.5c-0.8,0-1.5,0.7-1.5,1.5v10.3h0c0,3.4,2.2,6.2,5.3,7.1v18.9c0,1.2,1,2.2,2.2,2.2c1.2,0,2.2-1,2.2-2.2V19
		c3-1,5.3-3.8,5.3-7.1V1.6C33.2,0.8,32.5,0.1,31.7,0.1z"/>
</g>
<g>
</g>
<g>
</g>
<g>
</g>
<g>
</g>
<g>
</g>
<g>
</g>
<g>
</g>
<g>
</g>
<g>
</g>
<g>
</g>
<g>
</g>
<g>
</g>
<g>
</g>
<g>
</g>
<g>
</g>
</svg>
