<?xml version="1.0" encoding="utf-8"?>
<!-- Generator: Adobe Illustrator 18.1.1, SVG Export Plug-In . SVG Version: 6.00 Build 0)  -->
<svg version="1.1" id="Layer_1" xmlns="http://www.w3.org/2000/svg" xmlns:xlink="http://www.w3.org/1999/xlink" x="0px" y="0px"
	 viewBox="0 0 40.3 48.7" enable-background="new 0 0 40.3 48.7" xml:space="preserve">
<g>
	<path d="M9.1,0C4.1,0,0,5.2,0,11.6c0,5.2,2.7,9.6,6.4,11.1v26h5.5v-26c3.7-1.5,6.4-5.9,6.4-11.1C18.2,5.2,14.1,0,9.1,0z"/>
	<path d="M36.6,0.1v14.3H33V0.1h-3.7v14.3h-3.5V0.1h-3.7v14.3h0c0,4.1,2.7,7.5,6.4,8.6v25.7h5.5V23c3.7-1.2,6.4-4.6,6.4-8.6V0.1
		H36.6z"/>
</g>
<g>
</g>
<g>
</g>
<g>
</g>
<g>
</g>
<g>
</g>
<g>
</g>
<g>
</g>
<g>
</g>
<g>
</g>
<g>
</g>
<g>
</g>
<g>
</g>
<g>
</g>
<g>
</g>
<g>
</g>
</svg>
