<?xml version="1.0" encoding="utf-8"?>
<!-- Generator: Adobe Illustrator 18.1.1, SVG Export Plug-In . SVG Version: 6.00 Build 0)  -->
<svg version="1.1" id="Layer_1" xmlns="http://www.w3.org/2000/svg" xmlns:xlink="http://www.w3.org/1999/xlink" x="0px" y="0px"
	 viewBox="0 0 12 12" enable-background="new 0 0 12 12" xml:space="preserve">
<path d="M6,0C2.7,0,0,2.7,0,6c0,3.3,2.7,6,6,6c3.3,0,6-2.7,6-6C12,2.7,9.3,0,6,0z M6,11.3c-2.9,0-5.3-2.4-5.3-5.3
	c0-2.9,2.4-5.3,5.3-5.3c2.9,0,5.3,2.4,5.3,5.3C11.3,8.9,8.9,11.3,6,11.3z"/>
<circle cx="6" cy="9" r="0.8"/>
<path d="M6.9,3.1L6.9,3.1l0-0.1C6.7,2.6,6.4,2.3,6,2.3c-0.1,0-0.1,0-0.2,0C5.5,2.4,5.3,2.7,5.2,3l0,0.1c0,0,0,0.1,0,0.1
	c0,0,0,0.1,0,0.1l0,0.1l0.8,4.3c0,0,0,0,0.1,0c0,0,0.1,0,0.1,0l0.8-4.3l0-0.1c0,0,0-0.1,0-0.1C6.9,3.2,6.9,3.1,6.9,3.1z"/>
<g>
</g>
<g>
</g>
<g>
</g>
<g>
</g>
<g>
</g>
<g>
</g>
<g>
</g>
<g>
</g>
<g>
</g>
<g>
</g>
<g>
</g>
<g>
</g>
<g>
</g>
<g>
</g>
<g>
</g>
</svg>
