<?xml version="1.0" encoding="utf-8"?>
<!-- Generator: Adobe Illustrator 18.1.1, SVG Export Plug-In . SVG Version: 6.00 Build 0)  -->
<svg version="1.1" id="Layer_1" xmlns="http://www.w3.org/2000/svg" xmlns:xlink="http://www.w3.org/1999/xlink" x="0px" y="0px"
	 viewBox="0 0 12 12" enable-background="new 0 0 12 12" xml:space="preserve">
<path d="M6,0C2.7,0,0,2.7,0,6c0,3.3,2.7,6,6,6c3.3,0,6-2.7,6-6C12,2.7,9.3,0,6,0z M6,11.3c-2.9,0-5.3-2.4-5.3-5.3
	c0-2.9,2.4-5.3,5.3-5.3c2.9,0,5.3,2.4,5.3,5.3C11.3,8.9,8.9,11.3,6,11.3z"/>
<path d="M9.4,7.6l-2.9-5c-0.3-0.5-0.8-0.5-1.1,0l-2.9,5C2.3,8.1,2.6,8.5,3.1,8.5h5.7C9.5,8.5,9.7,8.1,9.4,7.6z M6,7.7
	c-0.3,0-0.5-0.2-0.5-0.5C5.5,7,5.8,6.8,6,6.8c0.3,0,0.5,0.2,0.5,0.5C6.5,7.5,6.3,7.7,6,7.7z M6.5,4.5L6.5,4.5L6,6.4c0,0,0,0,0,0
	c0,0,0,0,0,0L5.6,4.5l0-0.1c0,0,0,0,0-0.1c0,0,0,0,0-0.1l0-0.1c0-0.2,0.2-0.3,0.4-0.3c0,0,0.1,0,0.1,0c0.2,0,0.4,0.1,0.5,0.3l0,0.1
	l0,0C6.5,4.4,6.5,4.4,6.5,4.5C6.5,4.4,6.5,4.4,6.5,4.5z"/>
<g>
</g>
<g>
</g>
<g>
</g>
<g>
</g>
<g>
</g>
<g>
</g>
<g>
</g>
<g>
</g>
<g>
</g>
<g>
</g>
<g>
</g>
<g>
</g>
<g>
</g>
<g>
</g>
<g>
</g>
</svg>
