<?xml version="1.0" encoding="utf-8"?>
<!-- Generator: Adobe Illustrator 18.1.1, SVG Export Plug-In . SVG Version: 6.00 Build 0)  -->
<svg version="1.1" id="Layer_1" xmlns="http://www.w3.org/2000/svg" xmlns:xlink="http://www.w3.org/1999/xlink" x="0px" y="0px"
	 viewBox="0 0 12 12" enable-background="new 0 0 12 12" xml:space="preserve">
<path d="M0,6c0-3.3,2.7-6,6-6l0,0c3.3,0,6,2.7,6,6l0,0c0,3.3-2.7,6-6,6l0,0C2.7,12,0,9.3,0,6L0,6z M0.7,6c0,2.9,2.4,5.3,5.3,5.3l0,0
	c2.9,0,5.3-2.4,5.3-5.3l0,0c0-2.9-2.4-5.3-5.3-5.3l0,0C3.1,0.7,0.7,3.1,0.7,6L0.7,6z"/>
<path d="M9.6,3.8l-2.4-1c0,0,0,0,0,0c-0.1,0-0.2,0-0.3,0L2.4,4.6l2.6,1L9.6,3.8z"/>
<path d="M2.3,5v3c0,0.1,0.1,0.2,0.2,0.2l2.3,0.9V6L2.3,5z"/>
<path d="M5.2,6v3.2l4.3-1.7l0,0c0.1,0,0.2-0.1,0.2-0.2v-3L5.2,6z M9,7.2L9,7.2L9,7.2c-0.1,0-0.2,0-0.2-0.1V5.3C8.8,5.2,8.9,5.1,9,5
	l0,0l0,0c0.1,0,0.2,0,0.2,0.1V7C9.2,7.1,9.1,7.2,9,7.2z M8,7.6L8,7.6L8,7.6c-0.1,0-0.2,0-0.2-0.1V5.7c0-0.1,0.1-0.2,0.2-0.2l0,0l0,0
	c0.1,0,0.2,0,0.2,0.1v1.8C8.2,7.4,8.1,7.6,8,7.6z M7,8L7,8L7,8C6.9,8,6.8,8,6.8,7.9V6.1C6.8,6,6.9,5.8,7,5.8l0,0l0,0
	c0.1,0,0.2,0,0.2,0.1v1.8C7.2,7.8,7.1,7.9,7,8z M6,8.4L6,8.4L6,8.4c-0.1,0-0.2,0-0.2-0.1V6.4c0-0.1,0.1-0.2,0.2-0.2l0,0l0,0
	c0.1,0,0.2,0,0.2,0.1v1.8C6.2,8.2,6.1,8.3,6,8.4z"/>
<g>
</g>
<g>
</g>
<g>
</g>
<g>
</g>
<g>
</g>
<g>
</g>
<g>
</g>
<g>
</g>
<g>
</g>
<g>
</g>
<g>
</g>
<g>
</g>
<g>
</g>
<g>
</g>
<g>
</g>
</svg>
