<?xml version="1.0" encoding="utf-8"?>
<!-- Generator: Adobe Illustrator 18.1.1, SVG Export Plug-In . SVG Version: 6.00 Build 0)  -->
<svg version="1.1" id="Layer_1" xmlns="http://www.w3.org/2000/svg" xmlns:xlink="http://www.w3.org/1999/xlink" x="0px" y="0px"
	 viewBox="0 0 12 12" enable-background="new 0 0 12 12" xml:space="preserve">
<path d="M0,6c0-3.3,2.7-6,6-6l0,0c3.3,0,6,2.7,6,6l0,0c0,3.3-2.7,6-6,6l0,0C2.7,12,0,9.3,0,6L0,6z M0.7,6c0,2.9,2.4,5.3,5.3,5.3l0,0
	c2.9,0,5.3-2.4,5.3-5.3l0,0c0-2.9-2.4-5.3-5.3-5.3l0,0C3.1,0.7,0.7,3.1,0.7,6L0.7,6z"/>
<path d="M3.1,2.5v6.9h5.7V2.5H3.1z M3.9,3.4H6v0.4H3.9V3.4z M3.9,4.3H8v0.4H3.9V4.3z M7.6,8.5L7.4,8.9l-0.5-1c0,0-0.1,0-0.1,0
	c0,0-0.1,0-0.1,0l-0.5,1L6,8.5L5.6,8.6l0.5-1C5.9,7.4,5.8,7.2,5.8,6.9c0-0.6,0.5-1,1-1c0.6,0,1,0.5,1,1c0,0.3-0.1,0.5-0.3,0.7l0.5,1
	L7.6,8.5z"/>
<g>
</g>
<g>
</g>
<g>
</g>
<g>
</g>
<g>
</g>
<g>
</g>
<g>
</g>
<g>
</g>
<g>
</g>
<g>
</g>
<g>
</g>
<g>
</g>
<g>
</g>
<g>
</g>
<g>
</g>
</svg>
