<?xml version="1.0" encoding="utf-8"?>
<!-- Generator: Adobe Illustrator 18.1.1, SVG Export Plug-In . SVG Version: 6.00 Build 0)  -->
<svg version="1.1" id="Layer_1" xmlns="http://www.w3.org/2000/svg" xmlns:xlink="http://www.w3.org/1999/xlink" x="0px" y="0px"
	 viewBox="0 0 12 12" enable-background="new 0 0 12 12" xml:space="preserve">
<path d="M0,6c0-3.3,2.7-6,6-6l0,0c3.3,0,6,2.7,6,6l0,0c0,3.3-2.7,6-6,6l0,0C2.7,12,0,9.3,0,6L0,6z M0.7,6c0,2.9,2.4,5.3,5.3,5.3l0,0
	c2.9,0,5.3-2.4,5.3-5.3l0,0c0-2.9-2.4-5.3-5.3-5.3l0,0C3.1,0.7,0.7,3.1,0.7,6L0.7,6z"/>
<polygon points="6,2.1 6.8,2.8 7.8,2.8 7.9,3.8 8.7,4.4 8.2,5.3 8.4,6.3 7.4,6.6 7,7.5 6,7.1 5.1,7.5 4.6,6.6 3.6,6.3 3.9,5.3 
	3.3,4.4 4.1,3.8 4.2,2.8 5.3,2.8 "/>
<g>
	<path d="M7.3,7.7C7.2,7.8,7.1,7.9,7,7.9c-0.1,0-0.1,0-0.1,0L6.2,7.6l1.1,2.3L7.7,9l1,0.3L7.6,7L7.3,7.7z"/>
	<path d="M5.2,7.8c0,0-0.1,0-0.1,0c-0.1,0-0.3-0.1-0.3-0.2L4.4,7L3.3,9.2l1-0.3l0.4,0.9l1.1-2.3L5.2,7.8z"/>
</g>
<g>
</g>
<g>
</g>
<g>
</g>
<g>
</g>
<g>
</g>
<g>
</g>
<g>
</g>
<g>
</g>
<g>
</g>
<g>
</g>
<g>
</g>
<g>
</g>
<g>
</g>
<g>
</g>
<g>
</g>
</svg>
