<?xml version="1.0" encoding="utf-8"?>
<!-- Generator: Adobe Illustrator 18.1.1, SVG Export Plug-In . SVG Version: 6.00 Build 0)  -->
<svg version="1.1" id="Layer_1" xmlns="http://www.w3.org/2000/svg" xmlns:xlink="http://www.w3.org/1999/xlink" x="0px" y="0px"
	 viewBox="0 0 12 12" enable-background="new 0 0 12 12" xml:space="preserve">
<path d="M0,6c0-3.3,2.7-6,6-6l0,0c3.3,0,6,2.7,6,6l0,0c0,3.3-2.7,6-6,6l0,0C2.7,12,0,9.3,0,6L0,6z M0.7,6c0,2.9,2.4,5.3,5.3,5.3l0,0
	c2.9,0,5.3-2.4,5.3-5.3l0,0c0-2.9-2.4-5.3-5.3-5.3l0,0C3.1,0.7,0.7,3.1,0.7,6L0.7,6z"/>
<path d="M4.9,3.3C4.9,3.3,4.9,3.3,4.9,3.3c0,0.2,0.1,0.4,0.2,0.5c0,0,0,0,0,0c0,0,0,0.1,0.1,0.1C5.1,3.9,5.2,4,5.2,4
	c0.2,0.2,0.4,0.2,0.6,0.2h0.3h0c0.2,0,0.5-0.1,0.6-0.2c0,0,0.1-0.1,0.1-0.1c0,0,0-0.1,0.1-0.1c0,0,0,0,0,0c0.1-0.1,0.2-0.3,0.2-0.5
	c0,0,0,0,0,0c0,0,0,0,0-0.1c0,0,0,0,0-0.1V3c0,0,0,0,0-0.1c0,0,0,0,0-0.1c0,0,0,0,0,0c0-0.2-0.1-0.4-0.2-0.6c0-0.1-0.1-0.1-0.1-0.2
	c0,0,0,0,0,0C6.6,2,6.4,1.9,6.1,1.9h0H5.9h0C5.6,1.9,5.4,2,5.2,2.2c0,0,0,0,0,0c-0.1,0-0.1,0.1-0.1,0.2C5,2.5,4.9,2.7,4.9,2.9
	c0,0,0,0,0,0c0,0,0,0,0,0.1c0,0,0,0,0,0.1v0.2C4.9,3.2,4.9,3.2,4.9,3.3C4.9,3.2,4.9,3.2,4.9,3.3z"/>
<g>
	<path d="M5.5,8.9c0-0.1,0-0.2,0-0.2s0-0.1,0.1-0.2l0.2-0.3L4.8,7.5c0,0,0,0,0,0L4.5,8.2c0,0.1-0.1,0.4-0.1,0.4c0,0.1,0,0.3,0,0.4
		c0,0.1,0.1,0.2,0.1,0.3L4.8,10c0,0.1,0.1,0.1,0.2,0.1L5.6,10c0.1,0,0.2-0.1,0.1-0.2L5.5,8.9z"/>
	<path d="M7.5,8.2L7.2,7.5c0,0,0,0,0,0L6.3,8.3l0.2,0.3c0,0.1,0.1,0.2,0.1,0.2s0,0.1,0,0.2L6.3,9.8c0,0.1,0,0.2,0.1,0.2L7,10.1
		c0.1,0,0.2,0,0.2-0.1l0.3-0.7c0-0.1,0.1-0.2,0.1-0.3c0-0.1,0-0.3,0-0.4C7.6,8.6,7.5,8.3,7.5,8.2z"/>
	<path d="M8.7,6.1L7,4.6c0,0,0,0,0,0C6.8,4.5,6.6,4.4,6.3,4.4H5.7c-0.3,0-0.5,0.1-0.6,0.2c0,0,0,0,0,0L3.3,6.1
		c-0.1,0.1-0.1,0.2,0,0.3l0.2,0.3c0.1,0.1,0.2,0.1,0.3,0l1-0.7l0,1.1h2.4V6l1,0.7c0.1,0.1,0.2,0,0.3,0l0.2-0.3
		C8.8,6.3,8.8,6.1,8.7,6.1z"/>
</g>
<g>
</g>
<g>
</g>
<g>
</g>
<g>
</g>
<g>
</g>
<g>
</g>
<g>
</g>
<g>
</g>
<g>
</g>
<g>
</g>
<g>
</g>
<g>
</g>
<g>
</g>
<g>
</g>
<g>
</g>
</svg>
