<?xml version="1.0" encoding="utf-8"?>
<!-- Generator: Adobe Illustrator 18.1.1, SVG Export Plug-In . SVG Version: 6.00 Build 0)  -->
<svg version="1.1" id="Layer_1" xmlns="http://www.w3.org/2000/svg" xmlns:xlink="http://www.w3.org/1999/xlink" x="0px" y="0px"
	 viewBox="0 0 12 12" enable-background="new 0 0 12 12" xml:space="preserve">
<path d="M6,7.8c0-0.6-0.3-1-0.6-1.3c0,0-0.1-0.1-0.1-0.1l-1.1,1l0,1c0,0,0,0,0,0c0,0,0,0,0,0c0,0.4,0.3,0.7,0.7,0.7
	c0.1,0,0.3,0,0.4-0.1c0,0,0,0,0,0c0.2-0.2,0.4-0.4,0.5-0.6C5.9,8.2,6,8,6,7.8z M5.2,8.1C5.1,8.2,5,8.3,4.9,8.4l0-0.7l0-0.5
	c0.2,0.2,0.3,0.4,0.3,0.6c0,0,0,0.1,0,0.1C5.2,7.9,5.2,8,5.2,8.1z"/>
<path d="M5,1.8c-0.4,0-0.7,0.3-0.7,0.7c0,0,0,0,0,0h0l0,2.4l0.7-0.7L5,1.8z"/>
<path d="M7.2,3.8L7.2,3.8c0.3-0.3,0.3-0.7,0-1L4.4,5.4l0,0C4.2,5.7,3.9,5.7,3.5,5.7c-0.4,0-0.9,0-1.4,0.5C2,6.3,1.9,6.5,1.8,6.7
	C1.7,6.9,1.7,7.2,1.7,7.5c0,0,0,0,0,0.1c0,0.1,0.1,0.2,0.2,0.3c0.3,0.3,0.7,0.3,1,0c0,0,0,0,0,0c0,0,0,0,0,0L7.2,3.8L7.2,3.8z
	 M3,6.9L2.5,7.4c0-0.1,0-0.3,0-0.4c0-0.1,0.1-0.2,0.1-0.2c0,0,0,0,0.1-0.1c0.2-0.1,0.4-0.2,0.7-0.2L3,6.9z"/>
<path d="M10,4.2L8.6,3.6c-0.1,0-0.2,0-0.2,0.1L8.3,3.8c0,0.1,0,0.2,0.1,0.2l1.4,0.6c0,0,0,0,0,0.1L9.7,5L8.2,4.3L8.1,4.7l1.4,0.7
	L9.3,5.7L7.9,5L7.8,5.4L9.2,6L9,6.4L7.6,5.7L7.4,6l1.4,0.7L8.7,7.1L7.3,6.4L7.1,6.7l1.4,0.7L8.4,7.8L6.9,7.1L6.8,7.4l1.4,0.7L8,8.4
	L6.6,7.8L6.5,8.1l1.4,0.7L7.7,9.1L6.3,8.5L6.1,8.8l1.4,0.7L7.4,9.7c0,0,0,0-0.1,0L6.2,9.2l0,0L6,9.1c-0.1,0-0.2,0-0.2,0.1L5.7,9.3
	c0,0.1,0,0.2,0.1,0.2l1.4,0.6c0.3,0.1,0.6,0,0.7-0.3l2.4-5C10.4,4.7,10.2,4.3,10,4.2z"/>
<path d="M0,6c0-3.3,2.7-6,6-6l0,0c3.3,0,6,2.7,6,6l0,0c0,3.3-2.7,6-6,6l0,0C2.7,12,0,9.3,0,6L0,6z M0.7,6c0,2.9,2.4,5.3,5.3,5.3l0,0
	c2.9,0,5.3-2.4,5.3-5.3l0,0c0-2.9-2.4-5.3-5.3-5.3l0,0C3.1,0.7,0.7,3.1,0.7,6L0.7,6z"/>
<g>
</g>
<g>
</g>
<g>
</g>
<g>
</g>
<g>
</g>
<g>
</g>
<g>
</g>
<g>
</g>
<g>
</g>
<g>
</g>
<g>
</g>
<g>
</g>
<g>
</g>
<g>
</g>
<g>
</g>
</svg>
