<?xml version="1.0" encoding="utf-8"?>
<!-- Generator: Adobe Illustrator 18.1.1, SVG Export Plug-In . SVG Version: 6.00 Build 0)  -->
<svg version="1.1" id="Layer_1" xmlns="http://www.w3.org/2000/svg" xmlns:xlink="http://www.w3.org/1999/xlink" x="0px" y="0px"
	 viewBox="0 0 12 12" enable-background="new 0 0 12 12" xml:space="preserve">
<path d="M6,0C2.7,0,0,2.7,0,6c0,3.3,2.7,6,6,6c3.3,0,6-2.7,6-6C12,2.7,9.3,0,6,0z M6,11.3c-2.9,0-5.3-2.4-5.3-5.3
	c0-2.9,2.4-5.3,5.3-5.3c2.9,0,5.3,2.4,5.3,5.3C11.3,8.9,8.9,11.3,6,11.3z"/>
<path d="M5.4,7.7c-0.2,0-0.5-0.1-0.7-0.4C4.8,7.1,4.9,7,4.9,7c0,0-0.1-3.3-0.1-3.7c0-0.3-0.1-0.6-0.1-0.7C4.6,2.4,4.5,2.3,4.4,2.3
	C4.4,2.3,4.3,2.4,4.2,2.6C4.1,2.7,4.1,3,4.1,3.3C4.1,3.7,4,7,4,7c0,0,0,0.1,0.1,0.3C3.9,7.6,3.6,7.7,3.4,7.7c-0.5,0-0.9,0.4-0.9,0.9
	c0,0.5,0.4,0.9,0.9,0.9c0.4,0,0.8-0.3,0.9-0.7c0,0,0-0.1,0-0.1c0,0,0-0.1,0.1-0.3c0.1,0.2,0.1,0.3,0.1,0.3c0,0,0,0.1,0,0.1
	C4.6,9.2,5,9.5,5.4,9.5c0.5,0,0.9-0.4,0.9-0.9C6.3,8.1,5.9,7.7,5.4,7.7z M4,8.6c0,0.3-0.2,0.5-0.5,0.5c-0.3,0-0.5-0.2-0.5-0.5
	C2.9,8.3,3.1,8,3.4,8c0.2,0,0.3,0.1,0.4,0.2C3.9,8.3,4,8.4,4,8.6C4,8.6,4,8.6,4,8.6z M4.4,7.1C4.3,7.1,4.2,7,4.2,6.8
	c0-0.1,0.1-0.2,0.2-0.2c0.1,0,0.2,0.1,0.2,0.2C4.7,7,4.6,7.1,4.4,7.1z M5.4,9.1c-0.3,0-0.5-0.2-0.5-0.5c0,0,0,0,0,0
	c0-0.1,0.1-0.3,0.1-0.3C5.1,8.1,5.3,8,5.4,8C5.7,8,6,8.3,6,8.6C6,8.9,5.7,9.1,5.4,9.1z"/>
<path d="M8.8,8.6V3.2c0-0.4-0.3-0.8-0.8-0.8H6.9V3h1.1v0.3H6.9v0.4h1.1v0.3H6.9v0.4h1.1v0.3H6.9v0.4h1.1v0.3H6.9v0.4h1.1V6H6.9v0.4
	h1.1v0.3H6.9v0.4h1.1v0.3H6.9v0.4h1.1v0.3H6.9v0.4h1.1v0.3H6.9v0.6H8C8.4,9.4,8.8,9,8.8,8.6z"/>
<g>
</g>
<g>
</g>
<g>
</g>
<g>
</g>
<g>
</g>
<g>
</g>
<g>
</g>
<g>
</g>
<g>
</g>
<g>
</g>
<g>
</g>
<g>
</g>
<g>
</g>
<g>
</g>
<g>
</g>
</svg>
