<?xml version="1.0" encoding="utf-8"?>
<!-- Generator: Adobe Illustrator 18.1.1, SVG Export Plug-In . SVG Version: 6.00 Build 0)  -->
<svg version="1.1" id="Layer_1" xmlns="http://www.w3.org/2000/svg" xmlns:xlink="http://www.w3.org/1999/xlink" x="0px" y="0px"
	 viewBox="0 0 12 12" enable-background="new 0 0 12 12" xml:space="preserve">
<path d="M6,0C2.7,0,0,2.7,0,6c0,3.3,2.7,6,6,6c3.3,0,6-2.7,6-6C12,2.7,9.3,0,6,0z M6,11.3c-2.9,0-5.3-2.4-5.3-5.3
	c0-2.9,2.4-5.3,5.3-5.3c2.9,0,5.3,2.4,5.3,5.3C11.3,8.9,8.9,11.3,6,11.3z"/>
<path d="M6.9,4.6V3.8c0-0.1-0.1-0.2-0.2-0.2H6.3V2.9h0.2c0.2,0,0.4-0.2,0.4-0.4V2.2c0-0.1,0-0.1-0.1-0.1H4.9c-0.2,0-0.3,0.1-0.4,0.2
	L4.2,2.6l0.3,0.3l0.3-0.3c0,0,0.1-0.1,0.2-0.1h0.3v0.1c0,0.2,0.2,0.4,0.4,0.4h0.2v0.7H5.3c-0.1,0-0.2,0.1-0.2,0.2v0.8L4.5,5.3
	C4.3,5.5,4.1,5.9,4.1,6.2v3.1c0,0.3,0.2,0.5,0.5,0.5h2.7c0.3,0,0.5-0.2,0.5-0.5V6.2c0-0.3-0.2-0.7-0.4-0.9L6.9,4.6z"/>
<g>
</g>
<g>
</g>
<g>
</g>
<g>
</g>
<g>
</g>
<g>
</g>
<g>
</g>
<g>
</g>
<g>
</g>
<g>
</g>
<g>
</g>
<g>
</g>
<g>
</g>
<g>
</g>
<g>
</g>
</svg>
