<?xml version="1.0" encoding="utf-8"?>
<!-- Generator: Adobe Illustrator 18.1.1, SVG Export Plug-In . SVG Version: 6.00 Build 0)  -->
<svg version="1.1" id="Layer_1" xmlns="http://www.w3.org/2000/svg" xmlns:xlink="http://www.w3.org/1999/xlink" x="0px" y="0px"
	 viewBox="0 0 12 12" enable-background="new 0 0 12 12" xml:space="preserve">
<path d="M6,0C2.7,0,0,2.7,0,6c0,3.3,2.7,6,6,6c3.3,0,6-2.7,6-6C12,2.7,9.3,0,6,0z M6,11.3c-2.9,0-5.3-2.4-5.3-5.3
	c0-2.9,2.4-5.3,5.3-5.3c2.9,0,5.3,2.4,5.3,5.3C11.3,8.9,8.9,11.3,6,11.3z"/>
<path d="M3.4,7.7C3.4,7.7,3.5,7.7,3.4,7.7c0.4,0,0.7-0.2,0.9-0.5c0.2-0.4,0.4-0.9,0.4-1.4c0.1-0.7,0-1.4,0.1-2.3l0,0l0,0
	C5,3.4,5,3.1,5.1,2.9c0.1-0.3,0.3-0.5,0.6-0.7l0,0l0,0C6,2,6.2,2,6.4,2C6.5,2,6.7,2,6.8,2C6.6,1.9,6.4,1.8,6.1,1.8
	C5.5,1.7,4.9,2,4.4,2.4C3.6,3.1,3.2,4.1,3.1,5.2C3.1,6.1,3.3,7,3.4,7.7z"/>
<path d="M4,9L4,9C3.8,9,3.7,9,3.5,8.9C3.4,9.1,3.2,9.2,2.7,9.2C3,9.5,3.6,9.8,4.2,9.3C4.3,9.2,4.4,9.1,4.5,9C4.3,9,4.2,9,4,9z"/>
<path d="M2.9,7.6c0.1,0,0.1,0,0.2,0.1C2.9,7.1,2.8,6.3,2.8,5.5c0-0.1,0-0.2,0-0.3c0-0.6,0.2-1.2,0.4-1.7C2.5,4.1,2.3,5,2.3,5.9
	c0,0.6,0.2,1.2,0.4,1.7L2.9,7.6z"/>
<path d="M8.6,9c0-0.2,0-0.5,0.2-0.9C9,7.4,9.3,6.5,9.4,5.5c0-1-0.3-2.1-1-2.8C7.8,2.1,6.9,2,6.3,2.3c-0.1,0-0.3,0-0.4,0.1
	C5.4,2.8,5.4,3.2,5.3,3.6C5.2,4.4,5.3,5.2,5.2,5.9C5,7.2,4.3,8.5,2.8,8c0.3,0.6,1.6,1,2.4,0.4c0,0,0,0,0.1,0c0,0,0,0,0,0l0.3,0.2
	c0,0,0.1,0.1,0.2,0.1h0.5c0.1,0,0.1,0,0.2-0.1l0.3-0.2c0,0,0,0,0,0H6.4c-0.1,0-0.3,0-0.3,0c0,0-0.1,0-0.1,0c0,0-0.1,0-0.1,0
	c0,0-0.2,0-0.3,0H5.3c0.1-0.1,0.2-0.1,0.2-0.2h0c0.1,0,0.3,0,0.4,0c0,0,0.1,0,0.1,0c0,0,0.1,0,0.1,0c0.1,0,0.2,0,0.4,0h0.3
	c0,0,0,0,0,0L6.2,7.8c0,0-0.1,0-0.2,0s-0.1,0-0.2,0c0,0,0,0-0.1,0C6.3,7.3,6.5,6.7,6.6,6C6.7,5.1,6.4,3.3,7,2.9
	C7.6,3.1,7.8,3.4,8,3.7c0.2,0.3,0.3,0.7,0.3,1.1v0.9c0.1,0,0.1,0.1,0.2,0.1c0.1,0,0.1,0.1,0.1,0.2c0,0.1,0,0.1,0,0.2c0,0,0,0,0,0.1
	l0,0.3c0,0.2-0.2,0.5-0.5,0.6C8,7.5,7.9,7.8,7.8,8c0,0,0,0.1-0.1,0.1c0,0.4,0,0.9,0.4,1.3c0.5,0.4,0.9,0.2,1.3,0.1
	C9.1,9.4,8.6,9.2,8.6,9z"/>
<g>
</g>
<g>
</g>
<g>
</g>
<g>
</g>
<g>
</g>
<g>
</g>
<g>
</g>
<g>
</g>
<g>
</g>
<g>
</g>
<g>
</g>
<g>
</g>
<g>
</g>
<g>
</g>
<g>
</g>
</svg>
