<?xml version="1.0" encoding="utf-8"?>
<!-- Generator: Adobe Illustrator 18.1.1, SVG Export Plug-In . SVG Version: 6.00 Build 0)  -->
<svg version="1.1" id="Layer_1" xmlns="http://www.w3.org/2000/svg" xmlns:xlink="http://www.w3.org/1999/xlink" x="0px" y="0px"
	 viewBox="0 0 12 12" enable-background="new 0 0 12 12" xml:space="preserve">
<path d="M6,0C2.7,0,0,2.7,0,6c0,3.3,2.7,6,6,6c3.3,0,6-2.7,6-6C12,2.7,9.3,0,6,0z M6,11.3c-2.9,0-5.3-2.4-5.3-5.3
	c0-2.9,2.4-5.3,5.3-5.3c2.9,0,5.3,2.4,5.3,5.3C11.3,8.9,8.9,11.3,6,11.3z"/>
<path d="M4.8,6.1C4.8,6.1,4.8,6.1,4.8,6.1l0.4,0h0c0,0,0,0,0,0l0,0c1.4,0,2.3-0.8,2.3-0.8c-0.5-0.3-0.7-0.5-0.7-1V3.8
	c0,0,0-0.1,0-0.1c0,0,0-0.1,0-0.1c0,0,0,0,0,0c0-0.3-0.2-0.6-0.3-0.9C6.4,2.6,6.3,2.5,6.2,2.4c0,0,0,0,0,0C5.9,2.2,5.6,2,5.2,2h0
	H4.8c-0.4,0-0.7,0.1-1,0.4c0,0,0,0,0,0C3.7,2.5,3.6,2.6,3.6,2.7C3.4,2.9,3.2,3.2,3.2,3.6c0,0,0,0,0,0c0,0,0,0.1,0,0.1
	c0,0,0,0.1,0,0.1v0.5c0,0.5-0.1,0.6-0.7,1C2.5,5.3,3.4,6.1,4.8,6.1L4.8,6.1z"/>
<path d="M6,10.7c0.6,0,1.3-0.1,1.8-0.4V8.5h0c0-1.2-0.8-1.9-2.1-1.9H4.3c-1.4,0-2.1,0.7-2.1,1.9l0,0.2C3,10,4.4,10.7,6,10.7z"/>
<path d="M10.1,4L9,3.8c-0.1,0-0.2-0.1-0.2-0.3L8.6,2.2L8.5,3.5c0,0.1-0.1,0.3-0.2,0.3L7.2,4l1,0.2c0.1,0,0.2,0.1,0.2,0.3l0.2,1.4
	l0.2-1.4c0-0.1,0.1-0.3,0.2-0.3L10.1,4z"/>
<g>
</g>
<g>
</g>
<g>
</g>
<g>
</g>
<g>
</g>
<g>
</g>
<g>
</g>
<g>
</g>
<g>
</g>
<g>
</g>
<g>
</g>
<g>
</g>
<g>
</g>
<g>
</g>
<g>
</g>
</svg>
