<?xml version="1.0" encoding="utf-8"?>
<!-- Generator: Adobe Illustrator 18.1.1, SVG Export Plug-In . SVG Version: 6.00 Build 0)  -->
<svg version="1.1" id="Layer_1" xmlns="http://www.w3.org/2000/svg" xmlns:xlink="http://www.w3.org/1999/xlink" x="0px" y="0px"
	 viewBox="0 0 12 12" enable-background="new 0 0 12 12" xml:space="preserve">
<path d="M0,6c0-3.3,2.7-6,6-6l0,0c3.3,0,6,2.7,6,6l0,0c0,3.3-2.7,6-6,6l0,0C2.7,12,0,9.3,0,6L0,6z M0.7,6c0,2.9,2.4,5.3,5.3,5.3l0,0
	c2.9,0,5.3-2.4,5.3-5.3l0,0c0-2.9-2.4-5.3-5.3-5.3l0,0C3.1,0.7,0.7,3.1,0.7,6L0.7,6z"/>
<path d="M8.6,5.1c-0.2,0-0.5,0.1-0.7,0.1L7.4,4.4l0.3-0.5H8V3.4H7v0.5h0.1L7,4.2H4.6l0.2-0.5c0-0.1,0-0.1,0-0.2
	c0-0.1-0.1-0.1-0.2-0.1H3.6v0.5h0.6L3.7,5.2c-0.1,0-0.3,0-0.4,0c-1,0-1.7,0.8-1.7,1.7c0,1,0.8,1.7,1.7,1.7c1,0,1.7-0.8,1.7-1.7
	c0-0.7-0.4-1.3-0.9-1.5l0.2-0.4L5.7,7c0,0.1,0.1,0.1,0.2,0.1h1.1C7,8,7.8,8.6,8.6,8.6c1,0,1.7-0.8,1.7-1.7C10.4,5.9,9.6,5.1,8.6,5.1
	z M4.7,6.9c0,0.7-0.6,1.3-1.3,1.3c-0.7,0-1.3-0.6-1.3-1.3c0-0.7,0.6-1.3,1.3-1.3c0.1,0,0.2,0,0.2,0L3.1,6.8l0.4,0.2L4,5.8
	C4.4,6,4.7,6.4,4.7,6.9z M7.6,5.5C7.2,5.8,7,6.2,6.9,6.6H6.3l0.9-1.8L7.6,5.5z M7.8,5.9l0.4,0.7H7.4C7.4,6.3,7.6,6.1,7.8,5.9z
	 M4.7,4.6h2L5.9,6.4L4.7,4.6z M8.6,8.2C8,8.2,7.5,7.7,7.4,7.1h1.3c0.1,0,0.2,0,0.2-0.1c0-0.1,0-0.2,0-0.2L8.2,5.7
	c0.1-0.1,0.3-0.1,0.5-0.1c0.7,0,1.3,0.6,1.3,1.3C9.9,7.6,9.4,8.2,8.6,8.2z"/>
<g>
</g>
<g>
</g>
<g>
</g>
<g>
</g>
<g>
</g>
<g>
</g>
<g>
</g>
<g>
</g>
<g>
</g>
<g>
</g>
<g>
</g>
<g>
</g>
<g>
</g>
<g>
</g>
<g>
</g>
</svg>
