<?xml version="1.0" encoding="utf-8"?>
<!-- Generator: Adobe Illustrator 18.1.1, SVG Export Plug-In . SVG Version: 6.00 Build 0)  -->
<svg version="1.1" id="Layer_1" xmlns="http://www.w3.org/2000/svg" xmlns:xlink="http://www.w3.org/1999/xlink" x="0px" y="0px"
	 viewBox="0 0 12 12" enable-background="new 0 0 12 12" xml:space="preserve">
<path d="M6,0C2.7,0,0,2.7,0,6c0,3.3,2.7,6,6,6c3.3,0,6-2.7,6-6C12,2.7,9.3,0,6,0z M6,11.3c-2.9,0-5.3-2.4-5.3-5.3
	c0-2.9,2.4-5.3,5.3-5.3c2.9,0,5.3,2.4,5.3,5.3C11.3,8.9,8.9,11.3,6,11.3z"/>
<polygon points="4.6,8.4 6,9 8.8,7.6 7.5,7 "/>
<polygon points="9.2,6.2 7.9,6.8 9.2,7.4 10.6,6.8 "/>
<polygon points="6,7.3 8.8,5.9 7.7,5.4 4.8,6.8 "/>
<polygon points="4.4,7 3.1,7.6 4.2,8.1 5.5,7.5 "/>
<polygon points="7.3,5.2 6,4.6 4.6,5.2 6,5.8 "/>
<polygon points="4.2,5.4 1.4,6.8 2.7,7.4 5.5,6 "/>
<path d="M9.9,3.9l-1-0.2c-0.1,0-0.2-0.1-0.2-0.2l-0.2-1l-0.2,1c0,0.1-0.1,0.2-0.2,0.2l-1,0.2l1,0.2c0.1,0,0.2,0.1,0.2,0.2l0.2,1
	l0.2-1c0-0.1,0.1-0.2,0.2-0.2L9.9,3.9z"/>
<g>
</g>
<g>
</g>
<g>
</g>
<g>
</g>
<g>
</g>
<g>
</g>
<g>
</g>
<g>
</g>
<g>
</g>
<g>
</g>
<g>
</g>
<g>
</g>
<g>
</g>
<g>
</g>
<g>
</g>
</svg>
