<?xml version="1.0" encoding="utf-8"?>
<!-- Generator: Adobe Illustrator 18.1.1, SVG Export Plug-In . SVG Version: 6.00 Build 0)  -->
<svg version="1.1" id="Layer_1" xmlns="http://www.w3.org/2000/svg" xmlns:xlink="http://www.w3.org/1999/xlink" x="0px" y="0px"
	 viewBox="0 0 12 12" enable-background="new 0 0 12 12" xml:space="preserve">
<path d="M6,0C2.7,0,0,2.7,0,6c0,3.3,2.7,6,6,6c3.3,0,6-2.7,6-6C12,2.7,9.3,0,6,0z M6,11.3c-2.9,0-5.3-2.4-5.3-5.3
	c0-2.9,2.4-5.3,5.3-5.3c2.9,0,5.3,2.4,5.3,5.3C11.3,8.9,8.9,11.3,6,11.3z"/>
<path d="M2.6,7.9c0,0.1,0.1,0.2,0.2,0.2l0,0l3,1.2V5.7L2.6,4.4V7.9z"/>
<path d="M6.2,5.7v3.6l3-1.2c0.1,0,0.2-0.1,0.2-0.2V4.4L6.2,5.7z"/>
<polygon points="7.9,3.5 4.7,4.7 6,5.3 9.2,4 "/>
<path d="M7.3,3.2L6.2,2.8h0c-0.1,0-0.2,0-0.3,0h0L2.8,4L4,4.5L7.3,3.2z"/>
<g>
</g>
<g>
</g>
<g>
</g>
<g>
</g>
<g>
</g>
<g>
</g>
<g>
</g>
<g>
</g>
<g>
</g>
<g>
</g>
<g>
</g>
<g>
</g>
<g>
</g>
<g>
</g>
<g>
</g>
</svg>
