<?xml version="1.0" encoding="utf-8"?>
<!-- Generator: Adobe Illustrator 18.1.1, SVG Export Plug-In . SVG Version: 6.00 Build 0)  -->
<svg version="1.1" id="Layer_1" xmlns="http://www.w3.org/2000/svg" xmlns:xlink="http://www.w3.org/1999/xlink" x="0px" y="0px"
	 viewBox="0 0 12 12" enable-background="new 0 0 12 12" xml:space="preserve">
<path d="M9.3,6c0-0.4-0.4-0.8-0.8-0.8C8,5.2,7.6,5.6,7.6,6C7.3,6.2,7.2,6.4,7.2,6.7c0,0.5,0.4,0.8,0.8,0.8c0,0,0.1,0,0.2,0v1.8h0.4
	V7.6c0.1,0,0.2,0,0.2,0c0.5,0,0.8-0.4,0.8-0.8C9.7,6.4,9.5,6.2,9.3,6z"/>
<path d="M4.2,2.7V7c0.2,0.2,0.4,0.4,0.4,0.7c0.3,0.2,0.4,0.6,0.4,0.9c0,0.3-0.1,0.6-0.3,0.8h0.8V8.2h0.8v1.1h1.4V2.7H4.2z M5.5,7.3
	H4.8V6.7h0.6V7.3z M5.5,5.6H4.8V5h0.6V5.6z M5.5,3.9H4.8V3.3h0.6V3.9z M7.2,7.3H6.5V6.7h0.6V7.3z M7.2,5.6H6.5V5h0.6V5.6z M7.2,3.9
	H6.5V3.3h0.6V3.9z"/>
<path d="M0,6c0-3.3,2.7-6,6-6l0,0c3.3,0,6,2.7,6,6l0,0c0,3.3-2.7,6-6,6l0,0C2.7,12,0,9.3,0,6L0,6z M0.7,6c0,2.9,2.4,5.3,5.3,5.3l0,0
	c2.9,0,5.3-2.4,5.3-5.3l0,0c0-2.9-2.4-5.3-5.3-5.3l0,0C3.1,0.7,0.7,3.1,0.7,6L0.7,6z"/>
<path d="M3.9,9.4c0.5,0,0.8-0.4,0.8-0.8c0-0.3-0.2-0.6-0.4-0.7c0-0.4-0.4-0.8-0.8-0.8C3,7.1,2.7,7.4,2.6,7.9C2.4,8,2.2,8.2,2.2,8.5
	C2.4,8.9,2.7,9.1,3,9.4c0,0,0,0,0.1,0C3.2,9.4,3.7,9.4,3.9,9.4z"/>
<g>
</g>
<g>
</g>
<g>
</g>
<g>
</g>
<g>
</g>
<g>
</g>
<g>
</g>
<g>
</g>
<g>
</g>
<g>
</g>
<g>
</g>
<g>
</g>
<g>
</g>
<g>
</g>
<g>
</g>
</svg>
