<?xml version="1.0" encoding="utf-8"?>
<!-- Generator: Adobe Illustrator 18.1.1, SVG Export Plug-In . SVG Version: 6.00 Build 0)  -->
<svg version="1.1" id="Layer_1" xmlns="http://www.w3.org/2000/svg" xmlns:xlink="http://www.w3.org/1999/xlink" x="0px" y="0px"
	 viewBox="0 0 12 12" enable-background="new 0 0 12 12" xml:space="preserve">
<path d="M6,0C2.7,0,0,2.7,0,6c0,3.3,2.7,6,6,6c3.3,0,6-2.7,6-6C12,2.7,9.3,0,6,0z M6,11.3c-2.9,0-5.3-2.4-5.3-5.3
	c0-2.9,2.4-5.3,5.3-5.3c2.9,0,5.3,2.4,5.3,5.3C11.3,8.9,8.9,11.3,6,11.3z"/>
<polygon points="4.2,5.3 4.2,5.9 4.5,5.6 4.5,8 5.1,8 5.1,4.9 4.7,4.9 "/>
<path d="M7.1,6.8c0.5-0.2,0.7-0.5,0.7-1c0-0.6-0.3-0.9-1-0.9c-0.7,0-1,0.3-1,0.9h0.6c0-0.2,0.1-0.4,0.4-0.4c0.3,0,0.4,0.1,0.4,0.4
	c0,0.3-0.2,0.5-0.7,0.7C6,6.7,5.8,7,5.7,7.4V8h2.1V7.4H6.4C6.4,7.2,6.6,7,7.1,6.8z"/>
<path d="M9.1,3H8.3V2.6c0-0.2-0.1-0.3-0.3-0.3c-0.2,0-0.3,0.1-0.3,0.3V3H4.3V2.6c0-0.2-0.1-0.3-0.3-0.3c-0.2,0-0.3,0.1-0.3,0.3V3
	H2.9C2.8,3,2.7,3.1,2.7,3.2v5.6c0,0.1,0.1,0.2,0.2,0.2h6.2c0.1,0,0.2-0.1,0.2-0.2V3.2C9.3,3.1,9.2,3,9.1,3z M8.8,8.5H8.6H3.4H3.2
	V8.3v-4h5.6v4V8.5z"/>
<g>
</g>
<g>
</g>
<g>
</g>
<g>
</g>
<g>
</g>
<g>
</g>
<g>
</g>
<g>
</g>
<g>
</g>
<g>
</g>
<g>
</g>
<g>
</g>
<g>
</g>
<g>
</g>
<g>
</g>
</svg>
