<?xml version="1.0" encoding="utf-8"?>
<!-- Generator: Adobe Illustrator 18.1.1, SVG Export Plug-In . SVG Version: 6.00 Build 0)  -->
<svg version="1.1" id="Layer_1" xmlns="http://www.w3.org/2000/svg" xmlns:xlink="http://www.w3.org/1999/xlink" x="0px" y="0px"
	 viewBox="0 0 12 12" enable-background="new 0 0 12 12" xml:space="preserve">
<path d="M6,0C2.7,0,0,2.7,0,6c0,3.3,2.7,6,6,6c3.3,0,6-2.7,6-6C12,2.7,9.3,0,6,0z M6,11.3c-2.9,0-5.3-2.4-5.3-5.3
	c0-2.9,2.4-5.3,5.3-5.3c2.9,0,5.3,2.4,5.3,5.3C11.3,8.9,8.9,11.3,6,11.3z"/>
<path d="M9.1,3H8.3V2.6c0-0.2-0.1-0.3-0.3-0.3c-0.2,0-0.3,0.1-0.3,0.3V3H4.3V2.6c0-0.2-0.1-0.3-0.3-0.3c-0.2,0-0.3,0.1-0.3,0.3V3
	H2.9C2.8,3,2.7,3.1,2.7,3.2v5.6c0,0.1,0.1,0.2,0.2,0.2h6.2c0.1,0,0.2-0.1,0.2-0.2V3.2C9.3,3.1,9.2,3,9.1,3z M8.8,4.4v1h-1v-1H8.8z
	 M3.2,5.9h1v1h-1V5.9z M4.8,5.9h1v1h-1V5.9z M5.7,5.4h-1v-1h1V5.4z M6.3,4.4h1v1h-1V4.4z M5.7,7.5v1h-1v-1H5.7z M6.3,7.5h1v1h-1V7.5
	z M6.3,7v-1h1v1H6.3z M7.8,5.9h1v1h-1V5.9z M4.2,4.4v1h-1v-1H4.2z M3.2,7.5h1v1h-1V7.5z"/>
<g>
</g>
<g>
</g>
<g>
</g>
<g>
</g>
<g>
</g>
<g>
</g>
<g>
</g>
<g>
</g>
<g>
</g>
<g>
</g>
<g>
</g>
<g>
</g>
<g>
</g>
<g>
</g>
<g>
</g>
</svg>
