<?xml version="1.0" encoding="utf-8"?>
<!-- Generator: Adobe Illustrator 18.1.1, SVG Export Plug-In . SVG Version: 6.00 Build 0)  -->
<svg version="1.1" id="Layer_1" xmlns="http://www.w3.org/2000/svg" xmlns:xlink="http://www.w3.org/1999/xlink" x="0px" y="0px"
	 viewBox="0 0 12 12" enable-background="new 0 0 12 12" xml:space="preserve">
<path d="M6,0C2.7,0,0,2.7,0,6c0,3.3,2.7,6,6,6c3.3,0,6-2.7,6-6C12,2.7,9.3,0,6,0z M6,11.3c-2.9,0-5.3-2.4-5.3-5.3
	c0-2.9,2.4-5.3,5.3-5.3c2.9,0,5.3,2.4,5.3,5.3C11.3,8.9,8.9,11.3,6,11.3z"/>
<path d="M9.2,3.9c0-0.3-0.2-0.5-0.4-0.7L8.4,2.8h0c-0.1-0.1-0.2-0.1-0.3,0L7,4.1l0,0C7,4.2,7,4.4,7.1,4.4v0l0.4,0.4
	c0.2,0.2,0.2,0.4,0,0.6L5.4,7.6c-0.2,0.2-0.4,0.2-0.6,0L4.4,7.1v0C4.3,7,4.2,7,4.1,7.1c0,0,0,0,0,0l-1.3,1c-0.1,0.1-0.1,0.2,0,0.3
	l0.3,0.5l0,0c0.2,0.2,0.4,0.3,0.7,0.4c0.4,0.1,0.8,0,1.3-0.2C5.5,8.9,6,8.6,6.4,8.2l1.8-1.8c0.5-0.5,0.9-1.1,1-1.7
	C9.3,4.4,9.3,4.1,9.2,3.9z"/>
<g>
</g>
<g>
</g>
<g>
</g>
<g>
</g>
<g>
</g>
<g>
</g>
<g>
</g>
<g>
</g>
<g>
</g>
<g>
</g>
<g>
</g>
<g>
</g>
<g>
</g>
<g>
</g>
<g>
</g>
</svg>
