<?xml version="1.0" encoding="utf-8"?>
<!-- Generator: Adobe Illustrator 18.1.1, SVG Export Plug-In . SVG Version: 6.00 Build 0)  -->
<svg version="1.1" id="Layer_1" xmlns="http://www.w3.org/2000/svg" xmlns:xlink="http://www.w3.org/1999/xlink" x="0px" y="0px"
	 viewBox="0 0 12 12" enable-background="new 0 0 12 12" xml:space="preserve">
<g>
	<path d="M6,4.3c-0.6,0-1.1,0.5-1.1,1.1S5.4,6.5,6,6.5S7.1,6,7.1,5.4S6.6,4.3,6,4.3z M6,6.2c-0.4,0-0.7-0.3-0.7-0.7
		C5.3,5,5.6,4.7,6,4.7c0.4,0,0.7,0.3,0.7,0.7C6.7,5.8,6.4,6.2,6,6.2z"/>
</g>
<g>
	<path d="M8.8,3.3H7.3L7,2.9C6.9,2.8,6.7,2.8,6.6,2.8H5.4C5.3,2.8,5.1,2.8,5,2.9L4.7,3.3H3.2C3,3.3,2.8,3.5,2.8,3.7v3.5
		c0,0.2,0.2,0.4,0.4,0.4h5.5c0.2,0,0.4-0.2,0.4-0.4V3.7C9.2,3.5,9,3.3,8.8,3.3z M6,6.9c-0.8,0-1.5-0.7-1.5-1.5C4.5,4.6,5.2,4,6,4
		c0.8,0,1.5,0.7,1.5,1.5C7.5,6.2,6.8,6.9,6,6.9z"/>
</g>
<g>
	<path d="M6,0C2.7,0,0,2.7,0,6c0,3.3,2.7,6,6,6c3.3,0,6-2.7,6-6C12,2.7,9.3,0,6,0z M6,11.3c-2.9,0-5.3-2.4-5.3-5.3
		c0-2.9,2.4-5.3,5.3-5.3c2.9,0,5.3,2.4,5.3,5.3C11.3,8.9,8.9,11.3,6,11.3z"/>
</g>
<g>
	<path d="M7.3,8.5V7.9H4.7v0.6h0.8L3.9,10c0.2,0.1,0.4,0.2,0.5,0.2l1.3-1.2v1.5c0.1,0,0.2,0,0.3,0c0.1,0,0.2,0,0.3,0V9.1l1.3,1.2
		c0.2-0.1,0.4-0.2,0.5-0.2L6.5,8.5H7.3z"/>
</g>
<g>
</g>
<g>
</g>
<g>
</g>
<g>
</g>
<g>
</g>
<g>
</g>
<g>
</g>
<g>
</g>
<g>
</g>
<g>
</g>
<g>
</g>
<g>
</g>
<g>
</g>
<g>
</g>
<g>
</g>
</svg>
