<?xml version="1.0" encoding="utf-8"?>
<!-- Generator: Adobe Illustrator 18.1.1, SVG Export Plug-In . SVG Version: 6.00 Build 0)  -->
<svg version="1.1" id="Layer_1" xmlns="http://www.w3.org/2000/svg" xmlns:xlink="http://www.w3.org/1999/xlink" x="0px" y="0px"
	 viewBox="0 0 12 12" enable-background="new 0 0 12 12" xml:space="preserve">
<g>
	<g>
		<path d="M0,6c0-3.3,2.7-6,6-6l0,0c3.3,0,6,2.7,6,6l0,0c0,3.3-2.7,6-6,6l0,0C2.7,12,0,9.3,0,6L0,6z M0.7,6c0,2.9,2.4,5.3,5.3,5.3
			l0,0c2.9,0,5.3-2.4,5.3-5.3l0,0c0-2.9-2.4-5.3-5.3-5.3l0,0C3.1,0.7,0.7,3.1,0.7,6L0.7,6z"/>
	</g>
</g>
<path d="M6,2.2L2.4,4.2v4.5h7.2V4.2L6,2.2z M8.2,7.5c0,0.1-0.1,0.3-0.3,0.3H4.1c-0.1,0-0.3-0.1-0.3-0.3V5.1c0-0.1,0.1-0.3,0.3-0.3h1
	l0.2-0.3c0-0.1,0.1-0.1,0.2-0.1h0.9c0.1,0,0.2,0,0.2,0.1l0.2,0.3h1c0.1,0,0.3,0.1,0.3,0.3V7.5z"/>
<path d="M6,5.4c-0.5,0-0.9,0.4-0.9,0.9c0,0.5,0.4,0.9,0.9,0.9c0.5,0,0.9-0.4,0.9-0.9C6.9,5.8,6.5,5.4,6,5.4z M6,6.8
	c-0.3,0-0.5-0.2-0.5-0.5C5.6,6,5.8,5.8,6,5.8c0.3,0,0.5,0.2,0.5,0.5C6.5,6.5,6.3,6.8,6,6.8z"/>
<g>
</g>
<g>
</g>
<g>
</g>
<g>
</g>
<g>
</g>
<g>
</g>
<g>
</g>
<g>
</g>
<g>
</g>
<g>
</g>
<g>
</g>
<g>
</g>
<g>
</g>
<g>
</g>
<g>
</g>
</svg>
