<?xml version="1.0" encoding="utf-8"?>
<!-- Generator: Adobe Illustrator 18.1.1, SVG Export Plug-In . SVG Version: 6.00 Build 0)  -->
<svg version="1.1" id="Layer_1" xmlns="http://www.w3.org/2000/svg" xmlns:xlink="http://www.w3.org/1999/xlink" x="0px" y="0px"
	 viewBox="0 0 12 12" enable-background="new 0 0 12 12" xml:space="preserve">
<path d="M6,0C2.7,0,0,2.7,0,6c0,3.3,2.7,6,6,6c3.3,0,6-2.7,6-6C12,2.7,9.3,0,6,0z M6,11.3c-2.9,0-5.3-2.4-5.3-5.3
	c0-2.9,2.4-5.3,5.3-5.3c2.9,0,5.3,2.4,5.3,5.3C11.3,8.9,8.9,11.3,6,11.3z"/>
<circle cx="6.9" cy="6" r="1.1"/>
<path d="M9.4,3.7H5H4.6H4.4L4.3,3.5c0,0-0.1-0.1-0.1-0.1H3.3c0,0-0.1,0-0.1,0.1L3,3.7H2.9H2.7H2.6c-0.1,0-0.2,0.1-0.2,0.2v4.2
	c0,0.1,0.1,0.2,0.2,0.2h6.8c0.1,0,0.2-0.1,0.2-0.2V3.9C9.6,3.8,9.5,3.7,9.4,3.7z M4.3,4.7c0,0.1-0.1,0.2-0.2,0.2H3.4
	c-0.1,0-0.2-0.1-0.2-0.2V4.6c0-0.1,0.1-0.2,0.2-0.2h0.7c0.1,0,0.2,0.1,0.2,0.2V4.7z M6.9,7.6C6,7.6,5.3,6.9,5.3,6
	c0-0.9,0.7-1.6,1.6-1.6c0.9,0,1.6,0.7,1.6,1.6C8.5,6.9,7.8,7.6,6.9,7.6z"/>
<g>
</g>
<g>
</g>
<g>
</g>
<g>
</g>
<g>
</g>
<g>
</g>
<g>
</g>
<g>
</g>
<g>
</g>
<g>
</g>
<g>
</g>
<g>
</g>
<g>
</g>
<g>
</g>
<g>
</g>
</svg>
