<?xml version="1.0" encoding="utf-8"?>
<!-- Generator: Adobe Illustrator 18.1.1, SVG Export Plug-In . SVG Version: 6.00 Build 0)  -->
<svg version="1.1" id="Layer_1" xmlns="http://www.w3.org/2000/svg" xmlns:xlink="http://www.w3.org/1999/xlink" x="0px" y="0px"
	 viewBox="0 0 12 12" enable-background="new 0 0 12 12" xml:space="preserve">
<path d="M9.1,4.6H2.9c0,0-0.1,0-0.1,0.1v0.1c0,0,0,0.1,0.1,0.1h0.1c0,1.4,0.6,2.3,1.7,2.7l-1,2.5h0.4l1-2.4c0.2,0,0.4,0.1,0.7,0.1
	v2.3h0.4V7.8c0.2,0,0.5,0,0.7-0.1l1,2.4h0.4l-1-2.5c1-0.4,1.7-1.3,1.7-2.7h0.1c0,0,0.1,0,0.1-0.1L9.1,4.6C9.1,4.6,9.1,4.6,9.1,4.6z"
	/>
<path d="M5.7,4.4c-1-1.5,1.5-1.7-0.3-3.3C6.4,2.5,3.7,3,5.7,4.4z"/>
<path d="M6.6,4.4C6,3.3,7.8,3.3,6.7,2.1C7.2,3.1,5.4,3.3,6.6,4.4z"/>
<path d="M6,0C2.7,0,0,2.7,0,6c0,3.3,2.7,6,6,6c3.3,0,6-2.7,6-6C12,2.7,9.3,0,6,0z M6,11.3c-2.9,0-5.3-2.4-5.3-5.3
	c0-2.9,2.4-5.3,5.3-5.3c2.9,0,5.3,2.4,5.3,5.3C11.3,8.9,8.9,11.3,6,11.3z"/>
<g>
</g>
<g>
</g>
<g>
</g>
<g>
</g>
<g>
</g>
<g>
</g>
<g>
</g>
<g>
</g>
<g>
</g>
<g>
</g>
<g>
</g>
<g>
</g>
<g>
</g>
<g>
</g>
<g>
</g>
</svg>
