<?xml version="1.0" encoding="utf-8"?>
<!-- Generator: Adobe Illustrator 18.1.1, SVG Export Plug-In . SVG Version: 6.00 Build 0)  -->
<svg version="1.1" id="Layer_1" xmlns="http://www.w3.org/2000/svg" xmlns:xlink="http://www.w3.org/1999/xlink" x="0px" y="0px"
	 viewBox="0 0 12 12" enable-background="new 0 0 12 12" xml:space="preserve">
<path d="M0,6c0-3.3,2.7-6,6-6l0,0c3.3,0,6,2.7,6,6l0,0c0,3.3-2.7,6-6,6l0,0C2.7,12,0,9.3,0,6L0,6z M0.7,6c0,2.9,2.4,5.3,5.3,5.3l0,0
	c2.9,0,5.3-2.4,5.3-5.3l0,0c0-2.9-2.4-5.3-5.3-5.3l0,0C3.1,0.7,0.7,3.1,0.7,6L0.7,6z"/>
<path d="M4.4,6.8l1.2,0.4C5.5,5.8,7.1,5.4,7.1,4c0.1-1.5-1.7-2.3-1.7-2.3C6.1,2.9,3.8,4,3.7,5.4C3.7,6,4.1,6.5,4.4,6.8z"/>
<path d="M6.7,5.9C6.2,6.5,6.2,7,6.3,7.2l1.5-0.4C7.9,6.7,7.9,6.6,8,6.5C8.7,5,7.6,4.2,7.6,4.2C7.7,4.9,7.3,5.3,6.7,5.9z"/>
<polygon points="3.2,6.9 3.2,6.9 4.1,7.2 "/>
<path d="M3.2,7.7l0.7,0.2l1.3-0.4l-2-0.6C3.1,6.9,3,7,3,7.1v0.4C3,7.5,3.1,7.6,3.2,7.7z"/>
<path d="M8.8,8.6L8.1,8.4L6.8,8.7l2,0.6h0c0.1,0,0.2,0,0.2-0.1V8.8C9,8.7,8.9,8.6,8.8,8.6z"/>
<path d="M8.8,6.9L8.8,6.9L3.2,8.6C3.1,8.6,3,8.7,3,8.8v0.4c0,0.1,0.1,0.2,0.2,0.1h0l5.7-1.6C8.9,7.6,9,7.5,9,7.4V7.1
	C9,7,8.9,6.9,8.8,6.9z"/>
<g>
</g>
<g>
</g>
<g>
</g>
<g>
</g>
<g>
</g>
<g>
</g>
<g>
</g>
<g>
</g>
<g>
</g>
<g>
</g>
<g>
</g>
<g>
</g>
<g>
</g>
<g>
</g>
<g>
</g>
</svg>
