<?xml version="1.0" encoding="utf-8"?>
<!-- Generator: Adobe Illustrator 18.1.1, SVG Export Plug-In . SVG Version: 6.00 Build 0)  -->
<svg version="1.1" id="Layer_1" xmlns="http://www.w3.org/2000/svg" xmlns:xlink="http://www.w3.org/1999/xlink" x="0px" y="0px"
	 viewBox="0 0 12 12" enable-background="new 0 0 12 12" xml:space="preserve">
<path d="M6,0C2.7,0,0,2.7,0,6c0,3.3,2.7,6,6,6c3.3,0,6-2.7,6-6C12,2.7,9.3,0,6,0z M6,11.3c-2.9,0-5.3-2.4-5.3-5.3
	c0-2.9,2.4-5.3,5.3-5.3c2.9,0,5.3,2.4,5.3,5.3C11.3,8.9,8.9,11.3,6,11.3z"/>
<path d="M9.5,5.9c0-0.6-0.2-1.1-0.4-1.6c-0.6-1.1-1.7-1.8-3-1.8c0,0,0,0-0.1,0C4.1,2.5,2.5,4.1,2.5,6c0,0,0,0.1,0,0.1
	c0,0.6,0.2,1.1,0.4,1.6c0.6,1.1,1.7,1.8,3,1.8c0,0,0,0,0.1,0C7.9,9.5,9.5,7.9,9.5,5.9C9.5,6,9.5,5.9,9.5,5.9z M9.1,6L9.1,6
	c0,0.6-0.2,1.2-0.5,1.7l0,0c0,0-0.1,0.1-0.1,0.1c0,0,0,0,0,0v0C8.1,8.3,7.6,8.7,7,8.9l0,0c0,0,0,0-0.1,0c0,0-0.1,0-0.1,0l0,0
	C6.6,9,6.3,9.1,6,9.1c-0.3,0-0.6,0-0.9-0.1l0,0c0,0-0.1,0-0.1,0c0,0,0,0,0,0l0,0c-0.6-0.2-1-0.6-1.4-1v0c0,0,0,0,0,0
	c0,0-0.1-0.1-0.1-0.1l0,0C3.2,7.2,3,6.6,3,6l0,0l0,0c0-0.6,0.2-1.2,0.5-1.7l0,0c0,0,0.1-0.1,0.1-0.1c0,0,0,0,0,0v0
	c0.4-0.5,0.8-0.8,1.4-1l0,0c0,0,0,0,0.1,0c0,0,0.1,0,0.1,0l0,0C5.4,3,5.7,3,6,3c0.3,0,0.6,0,0.9,0.1l0,0c0,0,0.1,0,0.1,0
	c0,0,0,0,0,0l0,0c0.6,0.2,1,0.6,1.4,1v0c0,0,0,0,0,0c0,0,0.1,0.1,0.1,0.1l0,0C8.9,4.8,9.1,5.4,9.1,6L9.1,6z"/>
<polygon points="6.3,3.5 5.7,3.5 5.7,6.2 7.7,7.4 8,7 6.3,5.9 "/>
<g>
</g>
<g>
</g>
<g>
</g>
<g>
</g>
<g>
</g>
<g>
</g>
<g>
</g>
<g>
</g>
<g>
</g>
<g>
</g>
<g>
</g>
<g>
</g>
<g>
</g>
<g>
</g>
<g>
</g>
</svg>
