<?xml version="1.0" encoding="utf-8"?>
<!-- Generator: Adobe Illustrator 18.1.1, SVG Export Plug-In . SVG Version: 6.00 Build 0)  -->
<svg version="1.1" id="Layer_1" xmlns="http://www.w3.org/2000/svg" xmlns:xlink="http://www.w3.org/1999/xlink" x="0px" y="0px"
	 viewBox="0 0 12 12" enable-background="new 0 0 12 12" xml:space="preserve">
<path d="M0,6c0-3.3,2.7-6,6-6l0,0c3.3,0,6,2.7,6,6l0,0c0,3.3-2.7,6-6,6l0,0C2.7,12,0,9.3,0,6L0,6z M0.7,6c0,2.9,2.4,5.3,5.3,5.3l0,0
	c2.9,0,5.3-2.4,5.3-5.3l0,0c0-2.9-2.4-5.3-5.3-5.3l0,0C3.1,0.7,0.7,3.1,0.7,6L0.7,6z"/>
<path d="M10,3.2L9.6,3c0,0-0.1,0-0.1,0L7.7,4.2c0,0,0,0,0,0.1c0,0,0,0,0,0L7.5,4.3C7.4,4.4,7.2,4.6,7.1,4.8L6.9,5.1
	C6.4,4.8,5.7,4.7,5,4.7c-1.7,0-3,0.9-3,1.9c0,1,1.4,1.9,3,1.9c1.7,0,3-0.9,3-1.9c0-0.4-0.2-0.8-0.6-1.1l0.2-0.3
	c0-0.1,0.2-0.2,0.2-0.2l0.2-0.1l0,0c0,0,0,0,0,0c0,0,0,0,0,0L10,3.6c0,0,0,0,0-0.1C10.1,3.5,10.1,3.3,10,3.2
	C10.1,3.3,10.1,3.3,10,3.2z M7.2,7.5C7.2,7.5,7.2,7.5,7.2,7.5L7.2,7.5C7.1,7.5,7.1,7.4,7.2,7.5C6.9,6.8,6.1,6.3,5,6.3l0,0l0,0
	c-1,0-1.9,0.5-2,1.1l0,0l0,0c0,0,0,0.1-0.1,0.1c0,0,0,0,0,0c0,0-0.1,0-0.1-0.1c0,0,0,0,0,0C3,6.6,3.9,6,5,6C6.2,6,7.1,6.6,7.2,7.5
	C7.2,7.4,7.2,7.4,7.2,7.5C7.2,7.4,7.2,7.5,7.2,7.5z"/>
<path d="M2.5,7.9C2.7,8.2,2.9,8.4,3,8.5C3.4,9,4.2,9.3,5,9.3c0.9,0,1.7-0.3,2.1-0.8c0.1-0.1,0.2-0.3,0.4-0.6C7,8.4,6.1,8.8,5,8.8
	C4,8.8,3.1,8.4,2.5,7.9z"/>
<g>
</g>
<g>
</g>
<g>
</g>
<g>
</g>
<g>
</g>
<g>
</g>
<g>
</g>
<g>
</g>
<g>
</g>
<g>
</g>
<g>
</g>
<g>
</g>
<g>
</g>
<g>
</g>
<g>
</g>
</svg>
