<?xml version="1.0" encoding="utf-8"?>
<!-- Generator: Adobe Illustrator 18.1.1, SVG Export Plug-In . SVG Version: 6.00 Build 0)  -->
<svg version="1.1" id="Layer_1" xmlns="http://www.w3.org/2000/svg" xmlns:xlink="http://www.w3.org/1999/xlink" x="0px" y="0px"
	 viewBox="0 0 12 12" enable-background="new 0 0 12 12" xml:space="preserve">
<path d="M0,6c0-3.3,2.7-6,6-6l0,0c3.3,0,6,2.7,6,6l0,0c0,3.3-2.7,6-6,6l0,0C2.7,12,0,9.3,0,6L0,6z M0.7,6c0,2.9,2.4,5.3,5.3,5.3l0,0
	c2.9,0,5.3-2.4,5.3-5.3l0,0c0-2.9-2.4-5.3-5.3-5.3l0,0C3.1,0.7,0.7,3.1,0.7,6L0.7,6z"/>
<polygon points="6.4,2.9 5.7,2.9 5.4,3.6 6.6,3.6 "/>
<path d="M8.7,4.9L8.6,4.6C8.6,4.3,8.3,4.1,8,4.1H4c-0.3,0-0.6,0.2-0.6,0.5L3.3,4.9c0,0.1-0.1,0.2-0.1,0.4h5.5C8.8,5.2,8.8,5,8.7,4.9
	z"/>
<path d="M3.2,5.7c0,0.1,0,0.2,0,0.2l0.1,2.5c0,0.3,0.2,0.5,0.5,0.5h4.3c0.3,0,0.5-0.2,0.5-0.5l0.1-2.5c0-0.1,0-0.1,0-0.2H3.2z"/>
<polygon points="4.2,3.6 3.9,3.1 3.4,3.2 3.5,3.9 "/>
<path d="M10,4.1H8.9C9,4.2,9,4.3,9.1,4.5l0.1,0.3c0,0.2,0.1,0.4,0.1,0.6L10,5.2c0.1,0,0.2-0.1,0.2-0.2V4.3C10.2,4.2,10.1,4.1,10,4.1
	z"/>
<path d="M1.8,4.3V5c0,0.1,0.1,0.2,0.2,0.2l0.8,0.1c0-0.2,0.1-0.4,0.1-0.6L3,4.5c0-0.1,0.1-0.3,0.2-0.4H2C1.9,4.1,1.8,4.2,1.8,4.3z"
	/>
<g>
</g>
<g>
</g>
<g>
</g>
<g>
</g>
<g>
</g>
<g>
</g>
<g>
</g>
<g>
</g>
<g>
</g>
<g>
</g>
<g>
</g>
<g>
</g>
<g>
</g>
<g>
</g>
<g>
</g>
</svg>
