<?xml version="1.0" encoding="utf-8"?>
<!-- Generator: Adobe Illustrator 18.1.1, SVG Export Plug-In . SVG Version: 6.00 Build 0)  -->
<svg version="1.1" id="Layer_1" xmlns="http://www.w3.org/2000/svg" xmlns:xlink="http://www.w3.org/1999/xlink" x="0px" y="0px"
	 viewBox="0 0 12 12" enable-background="new 0 0 12 12" xml:space="preserve">
<path d="M0,6c0-3.3,2.7-6,6-6l0,0c3.3,0,6,2.7,6,6l0,0c0,3.3-2.7,6-6,6l0,0C2.7,12,0,9.3,0,6L0,6z M0.7,6c0,2.9,2.4,5.3,5.3,5.3l0,0
	c2.9,0,5.3-2.4,5.3-5.3l0,0c0-2.9-2.4-5.3-5.3-5.3l0,0C3.1,0.7,0.7,3.1,0.7,6L0.7,6z"/>
<path d="M9.1,4.7V4.3c0-0.5-0.4-0.9-0.9-0.9H7.6L7.4,3C7.2,2.7,7,2.5,6.6,2.5H5.4C5.1,2.5,4.8,2.7,4.6,3L4.4,3.4H3.8
	c-0.5,0-0.9,0.4-0.9,0.9v0.3H9.1z M5.1,3.3c0-0.1,0.2-0.2,0.3-0.2h1.2c0.1,0,0.3,0.1,0.3,0.2L7,3.4H5L5.1,3.3z"/>
<path d="M2.9,5v3.1C2.9,8.6,3.3,9,3.8,9h4.4c0.5,0,0.9-0.4,0.9-0.9V5H2.9z M7.1,7.7c0,0.2-0.2,0.4-0.4,0.4l-1.5,0
	c-0.2,0-0.4-0.2-0.4-0.4l0-2.1h0.4v2.1l1.5,0V5.6h0.4V7.7z"/>
<g>
</g>
<g>
</g>
<g>
</g>
<g>
</g>
<g>
</g>
<g>
</g>
<g>
</g>
<g>
</g>
<g>
</g>
<g>
</g>
<g>
</g>
<g>
</g>
<g>
</g>
<g>
</g>
<g>
</g>
</svg>
