<?xml version="1.0" encoding="utf-8"?>
<!-- Generator: Adobe Illustrator 18.1.1, SVG Export Plug-In . SVG Version: 6.00 Build 0)  -->
<svg version="1.1" id="Layer_1" xmlns="http://www.w3.org/2000/svg" xmlns:xlink="http://www.w3.org/1999/xlink" x="0px" y="0px"
	 viewBox="0 0 12 12" enable-background="new 0 0 12 12" xml:space="preserve">
<path d="M0,6c0-3.3,2.7-6,6-6l0,0c3.3,0,6,2.7,6,6l0,0c0,3.3-2.7,6-6,6l0,0C2.7,12,0,9.3,0,6L0,6z M0.7,6c0,2.9,2.4,5.3,5.3,5.3l0,0
	c2.9,0,5.3-2.4,5.3-5.3l0,0c0-2.9-2.4-5.3-5.3-5.3l0,0C3.1,0.7,0.7,3.1,0.7,6L0.7,6z"/>
<path d="M3.3,4.4C3.3,4.4,3.3,4.4,3.3,4.4c0,0.2,0.1,0.3,0.2,0.5c0,0,0,0,0,0c0,0,0,0,0.1,0.1c0,0,0.1,0.1,0.1,0.1
	C3.8,5.2,4,5.3,4.2,5.3h0h0.2h0c0.2,0,0.4-0.1,0.6-0.2c0,0,0.1-0.1,0.1-0.1c0,0,0,0,0.1-0.1c0,0,0,0,0,0c0.1-0.1,0.1-0.3,0.2-0.5
	c0,0,0,0,0,0c0,0,0,0,0-0.1c0,0,0,0,0-0.1V3.9c0,0,0,0,0-0.1c0,0,0,0,0-0.1c0,0,0,0,0,0c0-0.2-0.1-0.4-0.2-0.5
	c0-0.1-0.1-0.1-0.1-0.1c0,0,0,0,0,0C4.9,3,4.7,2.9,4.5,2.9H4.2C4,2.9,3.8,3,3.6,3.2c0,0,0,0,0,0c0,0-0.1,0.1-0.1,0.1
	C3.4,3.5,3.3,3.6,3.3,3.8c0,0,0,0,0,0c0,0,0,0,0,0.1c0,0,0,0,0,0.1v0.4C3.3,4.3,3.3,4.4,3.3,4.4C3.3,4.4,3.3,4.4,3.3,4.4z"/>
<path d="M7.6,5.3C7.6,5.3,7.6,5.3,7.6,5.3l0.2,0h0c0,0,0,0,0,0l0,0c0.8,0,1.3-0.5,1.3-0.5C8.8,4.6,8.7,4.5,8.7,4.2V3.9
	c0,0,0,0,0-0.1c0,0,0,0,0-0.1c0,0,0,0,0,0c0-0.2-0.1-0.4-0.2-0.5c0-0.1-0.1-0.1-0.1-0.1c0,0,0,0,0,0C8.2,3,8,2.9,7.8,2.9h0H7.6
	C7.3,2.9,7.1,3,7,3.2c0,0,0,0,0,0c0,0-0.1,0.1-0.1,0.1C6.7,3.5,6.6,3.6,6.6,3.8c0,0,0,0,0,0c0,0,0,0,0,0.1c0,0,0,0,0,0.1v0.3
	c0,0.3-0.1,0.4-0.4,0.6C6.2,4.8,6.7,5.3,7.6,5.3L7.6,5.3z"/>
<path d="M9.7,7.1c0-0.8-0.5-1.3-1.5-1.3H7.1C6.6,5.8,6.3,5.9,6,6.2C5.8,5.9,5.4,5.8,4.9,5.8H3.8c-1,0-1.5,0.5-1.5,1.3l0,1.3
	c0,0.1,0.1,0.2,0.2,0.2h1.9C4.2,8.4,4.1,8.1,4.1,7.8c0-0.3,0.1-0.6,0.3-0.9C4.7,6.7,5,6.6,5.3,6.6c0.3,0,0.5,0.1,0.7,0.2
	c0.2-0.2,0.5-0.2,0.7-0.2C7,6.6,7.4,6.7,7.6,7c0.2,0.2,0.3,0.6,0.3,0.9c0,0.3-0.1,0.5-0.3,0.8h1.9c0.1,0,0.2-0.1,0.2-0.2L9.7,7.1
	L9.7,7.1z"/>
<path d="M7.3,7.3C7,7,6.5,7,6.2,7.3c0,0,0,0,0,0C6.1,7.4,6.1,7.4,6,7.6c0,0,0,0,0,0c0,0,0,0,0,0C5.9,7.4,5.9,7.4,5.8,7.3
	c0,0,0,0,0,0C5.5,7,5.1,7,4.8,7.3C4.6,7.4,4.5,7.6,4.5,7.8c0,0.2,0.1,0.4,0.2,0.6c0,0,1.2,1.3,1.2,1.3l0,0l0,0c0,0,1.2-1.3,1.2-1.3
	C7.4,8.2,7.5,8,7.5,7.8C7.5,7.6,7.4,7.4,7.3,7.3z"/>
<g>
</g>
<g>
</g>
<g>
</g>
<g>
</g>
<g>
</g>
<g>
</g>
<g>
</g>
<g>
</g>
<g>
</g>
<g>
</g>
<g>
</g>
<g>
</g>
<g>
</g>
<g>
</g>
<g>
</g>
</svg>
