<?xml version="1.0" encoding="utf-8"?>
<!-- Generator: Adobe Illustrator 18.1.1, SVG Export Plug-In . SVG Version: 6.00 Build 0)  -->
<svg version="1.1" id="Layer_1" xmlns="http://www.w3.org/2000/svg" xmlns:xlink="http://www.w3.org/1999/xlink" x="0px" y="0px"
	 viewBox="0 0 12 12" enable-background="new 0 0 12 12" xml:space="preserve">
<path d="M6,0C2.7,0,0,2.7,0,6c0,3.3,2.7,6,6,6c3.3,0,6-2.7,6-6C12,2.7,9.3,0,6,0z M6,11.3c-2.9,0-5.3-2.4-5.3-5.3
	c0-2.9,2.4-5.3,5.3-5.3c2.9,0,5.3,2.4,5.3,5.3C11.3,8.9,8.9,11.3,6,11.3z"/>
<g>
	<path d="M6.3,5.7l0.5-0.5l2.4,2.5c0.1,0.1,0.2,0.2,0.3,0.2l0,0c0.1,0,0.2,0,0.3-0.1l0,0C10,7.8,10,7.6,9.9,7.5l0,0
		c0-0.1-0.1-0.2-0.2-0.3L7.2,4.8l0.5-0.5L6.1,2.7L4.7,4.1L6.3,5.7z"/>
	<path d="M4.1,4.3L3.9,4.5c-0.1,0.1-0.1,0.2,0,0.3l1.6,1.6c0.1,0.1,0.2,0.1,0.3,0L6,6.2C6.1,6.2,6.1,6,6,6L4.4,4.3
		C4.3,4.2,4.2,4.2,4.1,4.3z"/>
	<path d="M6.5,1.9L6.3,2.1c-0.1,0.1-0.1,0.2,0,0.3L7.9,4C8,4.1,8.1,4.1,8.2,4l0.2-0.2c0.1-0.1,0.1-0.2,0-0.3L6.8,1.9
		C6.7,1.9,6.6,1.9,6.5,1.9z"/>
</g>
<g>
	<path d="M7.3,7.5c0-0.1-0.1-0.2-0.2-0.2H3.2C3.1,7.3,3,7.4,3,7.5v0.3l4.3,0V7.5z"/>
	<path d="M7.7,8h-5C2.6,8,2.5,8.1,2.5,8.2v0.8l5.4,0V8.2C7.9,8.1,7.8,8,7.7,8z"/>
</g>
<g>
</g>
<g>
</g>
<g>
</g>
<g>
</g>
<g>
</g>
<g>
</g>
<g>
</g>
<g>
</g>
<g>
</g>
<g>
</g>
<g>
</g>
<g>
</g>
<g>
</g>
<g>
</g>
<g>
</g>
</svg>
