<?xml version="1.0" encoding="utf-8"?>
<!-- Generator: Adobe Illustrator 18.1.1, SVG Export Plug-In . SVG Version: 6.00 Build 0)  -->
<svg version="1.1" id="Layer_1" xmlns="http://www.w3.org/2000/svg" xmlns:xlink="http://www.w3.org/1999/xlink" x="0px" y="0px"
	 viewBox="0 0 12 12" enable-background="new 0 0 12 12" xml:space="preserve">
<path d="M0,6c0-3.3,2.7-6,6-6l0,0c3.3,0,6,2.7,6,6l0,0c0,3.3-2.7,6-6,6l0,0C2.7,12,0,9.3,0,6L0,6z M0.7,6c0,2.9,2.4,5.3,5.3,5.3l0,0
	c2.9,0,5.3-2.4,5.3-5.3l0,0c0-2.9-2.4-5.3-5.3-5.3l0,0C3.1,0.7,0.7,3.1,0.7,6L0.7,6z"/>
<circle cx="3.4" cy="8" r="0.6"/>
<circle cx="7.9" cy="8" r="0.6"/>
<path d="M9.8,5.7H7.6l-1-2.1h1.3V3.3H6.4L5.9,2.2C5.8,2,5.7,1.9,5.5,1.9H5.1v0.4l0.4,0c0,0,0.1,0,0.1,0.1l2,4.2H5V4.6
	c0-0.1-0.1-0.2-0.2-0.2H2.9c-0.1,0-0.2,0.1-0.2,0.2v0L2,6.2C2,6.3,2,6.4,2,6.5v1.2c0,0.1,0.1,0.2,0.2,0.2h0.3c0,0,0-0.1,0-0.1
	c0.1-0.4,0.4-0.6,0.8-0.7c0,0,0.1,0,0.1,0c0,0,0.1,0,0.1,0c0.4,0,0.7,0.3,0.8,0.7c0,0,0,0.1,0,0.1H7c0,0,0-0.1,0-0.1
	c0.1-0.4,0.4-0.7,0.9-0.7h0c0.4,0,0.8,0.3,0.9,0.7c0,0,0,0.1,0,0.1h1.1c0.1,0,0.2-0.1,0.2-0.2V5.9C10,5.8,9.9,5.7,9.8,5.7z M2.5,6
	L3,4.8h1.1l0,1.2H2.5z"/>
<g>
</g>
<g>
</g>
<g>
</g>
<g>
</g>
<g>
</g>
<g>
</g>
<g>
</g>
<g>
</g>
<g>
</g>
<g>
</g>
<g>
</g>
<g>
</g>
<g>
</g>
<g>
</g>
<g>
</g>
</svg>
