<?xml version="1.0" encoding="utf-8"?>
<!-- Generator: Adobe Illustrator 18.1.1, SVG Export Plug-In . SVG Version: 6.00 Build 0)  -->
<svg version="1.1" id="Layer_1" xmlns="http://www.w3.org/2000/svg" xmlns:xlink="http://www.w3.org/1999/xlink" x="0px" y="0px"
	 viewBox="0 0 12 12" enable-background="new 0 0 12 12" xml:space="preserve">
<path d="M0,6c0-3.3,2.7-6,6-6l0,0c3.3,0,6,2.7,6,6l0,0c0,3.3-2.7,6-6,6l0,0C2.7,12,0,9.3,0,6L0,6z M0.7,6c0,2.9,2.4,5.3,5.3,5.3l0,0
	c2.9,0,5.3-2.4,5.3-5.3l0,0c0-2.9-2.4-5.3-5.3-5.3l0,0C3.1,0.7,0.7,3.1,0.7,6L0.7,6z"/>
<path d="M10.4,5.6H9.3L8.4,4.3C8.2,4,7.9,3.8,7.6,3.8H5.9C5.7,3.8,5.3,4,5.1,4.1L3.3,5.6H2.5c-0.6,0-1.2,0.5-1.2,1.2v0.5
	c0,0.1,0.1,0.2,0.2,0.2l1.2,0c0.1,0.4,0.4,0.7,0.9,0.7s0.8-0.3,0.9-0.7h3.1C7.7,7.9,8,8.2,8.4,8.2c0.4,0,0.8-0.3,0.9-0.7h0.4
	c0.5,0,1-0.4,1-1V5.8C10.6,5.7,10.6,5.6,10.4,5.6z M4.5,5.6l1.1-0.9C5.7,4.6,5.9,4.6,6,4.6h1.5c0.1,0,0.2,0.1,0.3,0.2l0.6,0.9H4.5z"
	/>
<g>
</g>
<g>
</g>
<g>
</g>
<g>
</g>
<g>
</g>
<g>
</g>
<g>
</g>
<g>
</g>
<g>
</g>
<g>
</g>
<g>
</g>
<g>
</g>
<g>
</g>
<g>
</g>
<g>
</g>
</svg>
