<?xml version="1.0" encoding="utf-8"?>
<!-- Generator: Adobe Illustrator 18.1.1, SVG Export Plug-In . SVG Version: 6.00 Build 0)  -->
<svg version="1.1" id="Layer_1" xmlns="http://www.w3.org/2000/svg" xmlns:xlink="http://www.w3.org/1999/xlink" x="0px" y="0px"
	 viewBox="0 0 12 12" enable-background="new 0 0 12 12" xml:space="preserve">
<path d="M0,6c0-3.3,2.7-6,6-6l0,0c3.3,0,6,2.7,6,6l0,0c0,3.3-2.7,6-6,6l0,0C2.7,12,0,9.3,0,6L0,6z M0.7,6c0,2.9,2.4,5.3,5.3,5.3l0,0
	c2.9,0,5.3-2.4,5.3-5.3l0,0c0-2.9-2.4-5.3-5.3-5.3l0,0C3.1,0.7,0.7,3.1,0.7,6L0.7,6z"/>
<rect x="1.7" y="3.6" width="7.8" height="0.4"/>
<path d="M3,8.1c-0.2,0-0.3-0.1-0.3-0.3H2.3c0,0.4,0.3,0.7,0.7,0.7c0.1,0,3.8,0,3.8,0V8.1C6.8,8.1,3.1,8.1,3,8.1z"/>
<path d="M9.7,4.2C9.3,4.2,9,4.5,8.9,4.8H6.2L6.2,4.6c0,0-0.1-0.1-0.1-0.1H5c-0.1,0-0.1,0-0.1,0.1L4.8,4.9C4.3,5,3.9,5.1,3.6,5.3h0.9
	c0.1,0,0.1,0,0.1,0.1L4.3,6.2c0,0.1-0.1,0.1-0.2,0.1H2.8L2.7,6.6c-0.3,0.5,0,0.9,0.6,0.9h1.6c1.1,0,1.7-0.4,2-0.9l0.3-0.7L9,5.6
	C9.2,5.8,9.4,6,9.7,6c0.5,0,0.9-0.4,0.9-0.9C10.6,4.6,10.2,4.2,9.7,4.2z M9.7,5.6c-0.1,0-0.2,0-0.3-0.1C9.3,5.4,9.2,5.3,9.2,5.1
	c0-0.1,0-0.2,0.1-0.3c0.1-0.1,0.2-0.2,0.4-0.2c0.3,0,0.5,0.2,0.5,0.5C10.2,5.4,10,5.6,9.7,5.6z"/>
<g>
</g>
<g>
</g>
<g>
</g>
<g>
</g>
<g>
</g>
<g>
</g>
<g>
</g>
<g>
</g>
<g>
</g>
<g>
</g>
<g>
</g>
<g>
</g>
<g>
</g>
<g>
</g>
<g>
</g>
</svg>
