<?xml version="1.0" encoding="utf-8"?>
<!-- Generator: Adobe Illustrator 18.1.1, SVG Export Plug-In . SVG Version: 6.00 Build 0)  -->
<svg version="1.1" id="Layer_1" xmlns="http://www.w3.org/2000/svg" xmlns:xlink="http://www.w3.org/1999/xlink" x="0px" y="0px"
	 viewBox="0 0 12 12" enable-background="new 0 0 12 12" xml:space="preserve">
<path d="M7,5.4h0.2V5.2V4.4c0-0.1-0.1-0.2-0.2-0.2H2.9c-0.1,0-0.2,0.1-0.2,0.2v0.8v0.2h0.2H7z"/>
<path d="M2.5,6.8C2.8,7,3.1,7.2,3.1,7.5c0,0,0,0,0,0c0.2,0,0.4-0.1,0.5-0.2l0.1-0.1c0,0,0,0,0,0c0,0,0.1-0.1,0.2-0.2C4,7,4,7,4.1,7
	c0.1,0,0.1,0,0.1,0c0.1,0.1,0.2,0.1,0.2,0.2l0.1,0.1c0.1,0.1,0.3,0.2,0.5,0.2c0,0,0,0,0,0c0,0,0.1,0,0.1,0c0,0,0.1,0,0.1,0
	c0.2,0,0.3-0.1,0.5-0.2l0.1-0.1c0,0,0,0,0,0c0,0,0.1-0.1,0.1-0.1c0,0,0,0,0,0c0,0,0.1-0.1,0.1-0.1C5.9,7.1,6,7,6,7l0,0c0,0,0,0,0,0
	l0,0c0,0,0,0,0,0c0,0,0,0,0,0c0,0,0,0,0,0c0,0,0,0,0,0h0l0,0h0c0,0,0,0,0,0c0,0,0,0,0,0h0c0,0,0,0,0,0c0,0,0,0,0,0c0,0,0,0,0,0
	c0,0,0,0,0,0l0,0c0,0,0,0,0.1,0c0,0,0.1,0.1,0.1,0.1c0,0,0,0,0,0h0c0,0,0,0,0,0c0,0,0,0,0.1,0.1c0,0,0,0,0,0l0.1,0.1
	c0,0,0,0.1,0.1,0.1c0,0,0,0,0,0c0,0,0,0,0.1,0C6.7,7.5,6.8,7.6,7,7.6h0h0h0c0,0,0,0,0.1,0c0,0,0,0,0,0c0,0,0,0,0,0
	c0.2,0,0.3-0.1,0.5-0.2l0.1-0.1c0,0,0,0,0,0c0,0,0.1-0.1,0.2-0.2c0,0,0.1,0,0.1,0c0.1,0,0.1,0,0.1,0c0.1,0.1,0.2,0.1,0.2,0.2
	c0,0,0,0,0,0l0.1,0.1c0.1,0.1,0.3,0.2,0.5,0.2c0,0,0.1,0,0.1,0c0,0,0.1,0,0.1,0c0.2,0,0.3-0.1,0.5-0.2l0.1-0.1l0.1-0.1
	c0.3-0.5,0.4-1,0.4-1.5H9.9h0H9.6V5.5V3.8V3.6H9.5H9.3v0.2V4v0.2H9.1H8.3c-0.1,0-0.2,0.1-0.1,0.2l0,0.2l0,0.2c0,0.1,0.1,0.2,0.2,0.2
	h0.1l0,0.4l0,0.2v0l0,0.2H8.3H2H1.8C1.9,6.2,2.2,6.5,2.5,6.8z"/>
<path d="M10.1,7.6L9.9,7.4L9.8,7.6C9.6,7.8,9.3,7.9,8.9,7.9c-0.3,0-0.6-0.1-0.8-0.4L8,7.4L7.8,7.6C7.6,7.8,7.4,7.9,7.1,7.9v0
	c0,0-0.1,0-0.1,0l0,0c-0.2,0-0.4-0.1-0.6-0.2C6.3,7.7,6.2,7.6,6.1,7.6L6,7.4l0,0v0L5.9,7.6C5.7,7.8,5.4,7.9,5,7.9c0,0-0.1,0-0.1,0v0
	c-0.3,0-0.5-0.2-0.7-0.4L4.1,7.4L3.9,7.6C3.7,7.8,3.4,7.9,3.1,7.9c-0.3,0-0.6-0.1-0.8-0.4L2.1,7.4L2,7.6C1.9,7.7,1.8,7.8,1.6,7.8
	c0,0.1,0.1,0.2,0.2,0.3C1.9,8.1,2,8,2.1,8c0.3,0.2,0.6,0.4,1,0.4c0.4,0,0.7-0.1,1-0.4c0.3,0.2,0.6,0.4,1,0.4l0,0
	c0.4,0,0.7-0.1,1-0.4c0.1,0.1,0.3,0.2,0.5,0.3C6.7,8.3,6.8,8.3,7,8.3h0l0,0c0,0,0,0,0,0c0.4,0,0.7-0.1,1-0.4c0.3,0.2,0.6,0.4,1,0.4
	c0.4,0,0.7-0.1,1-0.4C10,8,10.1,8.1,10.2,8.2c0.1-0.1,0.1-0.2,0.2-0.3C10.3,7.8,10.1,7.7,10.1,7.6z"/>
<path d="M0,6c0-3.3,2.7-6,6-6l0,0c3.3,0,6,2.7,6,6l0,0c0,3.3-2.7,6-6,6l0,0C2.7,12,0,9.3,0,6L0,6z M0.7,6c0,2.9,2.4,5.3,5.3,5.3l0,0
	c2.9,0,5.3-2.4,5.3-5.3l0,0c0-2.9-2.4-5.3-5.3-5.3l0,0C3.1,0.7,0.7,3.1,0.7,6L0.7,6z"/>
<g>
</g>
<g>
</g>
<g>
</g>
<g>
</g>
<g>
</g>
<g>
</g>
<g>
</g>
<g>
</g>
<g>
</g>
<g>
</g>
<g>
</g>
<g>
</g>
<g>
</g>
<g>
</g>
<g>
</g>
</svg>
