<?xml version="1.0" encoding="utf-8"?>
<!-- Generator: Adobe Illustrator 18.1.1, SVG Export Plug-In . SVG Version: 6.00 Build 0)  -->
<svg version="1.1" id="Layer_1" xmlns="http://www.w3.org/2000/svg" xmlns:xlink="http://www.w3.org/1999/xlink" x="0px" y="0px"
	 viewBox="0 0 12 12" enable-background="new 0 0 12 12" xml:space="preserve">
<path d="M0,6c0-3.3,2.7-6,6-6l0,0c3.3,0,6,2.7,6,6l0,0c0,3.3-2.7,6-6,6l0,0C2.7,12,0,9.3,0,6L0,6z M0.7,6c0,2.9,2.4,5.3,5.3,5.3l0,0
	c2.9,0,5.3-2.4,5.3-5.3l0,0c0-2.9-2.4-5.3-5.3-5.3l0,0C3.1,0.7,0.7,3.1,0.7,6L0.7,6z"/>
<circle cx="3.3" cy="7.8" r="0.6"/>
<circle cx="7.8" cy="7.8" r="0.6"/>
<path d="M9.7,3.5H5.5c-0.1,0-0.2,0.1-0.2,0.2v2.6H4.8V4.4c0-0.1-0.1-0.2-0.2-0.2H2.7c-0.1,0-0.2,0.1-0.2,0.2v0L1.9,6
	c0,0.1-0.1,0.3-0.1,0.4v1.2c0,0.1,0.1,0.2,0.2,0.2h0.3c0,0,0-0.1,0-0.1C2.5,7.3,2.8,7,3.2,7c0,0,0.1,0,0.1,0c0,0,0.1,0,0.1,0
	C3.7,7,4,7.3,4.1,7.6c0,0,0,0.1,0,0.1h2.7c0,0,0-0.1,0-0.1C7,7.2,7.4,6.9,7.8,6.9h0c0.4,0,0.8,0.3,0.9,0.7c0,0,0,0.1,0,0.1h1.1
	c0.1,0,0.2-0.1,0.2-0.2V3.7C9.9,3.6,9.8,3.5,9.7,3.5z M2.4,5.8l0.4-1.2h1.1l0,1.2H2.4z"/>
<g>
</g>
<g>
</g>
<g>
</g>
<g>
</g>
<g>
</g>
<g>
</g>
<g>
</g>
<g>
</g>
<g>
</g>
<g>
</g>
<g>
</g>
<g>
</g>
<g>
</g>
<g>
</g>
<g>
</g>
</svg>
