<?xml version="1.0" encoding="utf-8"?>
<!-- Generator: Adobe Illustrator 18.1.1, SVG Export Plug-In . SVG Version: 6.00 Build 0)  -->
<svg version="1.1" id="Layer_1" xmlns="http://www.w3.org/2000/svg" xmlns:xlink="http://www.w3.org/1999/xlink" x="0px" y="0px"
	 viewBox="0 0 12 12" enable-background="new 0 0 12 12" xml:space="preserve">
<path d="M7.4,8.3C7.5,8.3,7.9,8.1,8,8.1c0.3-0.2,0.6-1,0.8-1.3c0.2-0.5,0.2-0.9,0.1-1.4C8.7,4.7,8.4,4,8.2,3.3
	C8,2.9,7.9,2.8,7.5,2.7C7.2,2.5,6.6,2.4,6.1,2.3v0c0,0-0.1,0-0.1,0c0,0-0.1,0-0.1,0v0c-0.6,0-1.1,0.2-1.5,0.3C4.1,2.8,4,2.9,3.8,3.3
	C3.6,4,3.3,4.7,3.2,5.4C3.1,5.8,3.1,6.3,3.3,6.8C3.4,7.1,3.7,7.8,4,8.1c0.1,0.1,0.4,0.2,0.6,0.3L3.1,9.7C3.3,9.8,3.4,10,3.6,10
	l0.8-0.8h3.3L8.5,10C8.6,10,8.8,9.9,8.9,9.7L7.4,8.3z M4.3,5.2L4.3,5.2C4.3,5.2,4.2,5.2,4.3,5.2L4.3,5.2c-0.2,0-0.2,0-0.2-0.1
	l0.4-1.6c0-0.1,0.1-0.1,0.1-0.1L5.8,3C5.9,3,6,3,6.1,3c0,0,0,0,0,0l1.2,0.3c0,0,0.1,0.1,0.1,0.1l0.4,1.6c0,0.1,0,0.1-0.1,0.1L7,5
	C6.8,5,6.7,4.9,6.6,4.8C6.5,4.6,6.3,4.5,6,4.5c-0.2,0-0.4,0.1-0.5,0.2l0,0c0,0,0,0,0,0c0,0,0,0,0,0C5.4,4.9,5.3,4.9,5.2,5L4.3,5.2z
	 M6.8,6.5C6.8,7,6.4,7.3,6,7.3C5.6,7.3,5.2,7,5.2,6.5c0-0.4,0.3-0.8,0.8-0.8C6.4,5.8,6.8,6.1,6.8,6.5z M4.7,8.8l0.4-0.4
	c0.3,0,0.7,0.1,0.8,0.1c0,0,0,0,0,0c0,0,0,0,0,0c0.1,0,0.7,0,1-0.1l0.4,0.4H4.7z"/>
<path d="M0,6c0-3.3,2.7-6,6-6l0,0c3.3,0,6,2.7,6,6l0,0c0,3.3-2.7,6-6,6l0,0C2.7,12,0,9.3,0,6L0,6z M0.7,6c0,2.9,2.4,5.3,5.3,5.3l0,0
	c2.9,0,5.3-2.4,5.3-5.3l0,0c0-2.9-2.4-5.3-5.3-5.3l0,0C3.1,0.7,0.7,3.1,0.7,6L0.7,6z"/>
<g>
</g>
<g>
</g>
<g>
</g>
<g>
</g>
<g>
</g>
<g>
</g>
<g>
</g>
<g>
</g>
<g>
</g>
<g>
</g>
<g>
</g>
<g>
</g>
<g>
</g>
<g>
</g>
<g>
</g>
</svg>
