<?xml version="1.0" encoding="utf-8"?>
<!-- Generator: Adobe Illustrator 18.1.1, SVG Export Plug-In . SVG Version: 6.00 Build 0)  -->
<svg version="1.1" id="Layer_1" xmlns="http://www.w3.org/2000/svg" xmlns:xlink="http://www.w3.org/1999/xlink" x="0px" y="0px"
	 viewBox="0 0 12 12" enable-background="new 0 0 12 12" xml:space="preserve">
<path d="M0,6c0-3.3,2.7-6,6-6l0,0c3.3,0,6,2.7,6,6l0,0c0,3.3-2.7,6-6,6l0,0C2.7,12,0,9.3,0,6L0,6z M0.7,6c0,2.9,2.4,5.3,5.3,5.3l0,0
	c2.9,0,5.3-2.4,5.3-5.3l0,0c0-2.9-2.4-5.3-5.3-5.3l0,0C3.1,0.7,0.7,3.1,0.7,6L0.7,6z"/>
<path d="M9.3,5.3C9.1,5.1,8.8,4.8,8.8,4.8L8.2,3.2C8.2,3,8,2.9,7.8,2.9H4.2C4,2.9,3.8,3,3.8,3.2L3.2,4.8c0,0-0.2,0.2-0.5,0.5
	C2.5,5.5,2.3,5.7,2.3,5.8v1.9C2.3,7.8,2.5,8,2.7,8h0.2v0.4c0,0.3,0.2,0.5,0.5,0.5c0.3,0,0.5-0.2,0.5-0.5V8h4.4v0.4
	c0,0.3,0.2,0.5,0.5,0.5c0.3,0,0.5-0.2,0.5-0.5V8h0.2c0.2,0,0.3-0.1,0.3-0.3V5.8C9.7,5.7,9.5,5.5,9.3,5.3z M4.2,3.5h3.5L8.3,5H3.7
	L4.2,3.5z M3.6,7.2C3.3,7.2,3,7,3,6.7c0-0.3,0.3-0.6,0.6-0.6c0.3,0,0.6,0.3,0.6,0.6C4.1,7,3.9,7.2,3.6,7.2z M8.4,7.2
	C8.1,7.2,7.9,7,7.9,6.7c0-0.3,0.3-0.6,0.6-0.6C8.7,6.1,9,6.4,9,6.7C9,7,8.7,7.2,8.4,7.2z"/>
<g>
</g>
<g>
</g>
<g>
</g>
<g>
</g>
<g>
</g>
<g>
</g>
<g>
</g>
<g>
</g>
<g>
</g>
<g>
</g>
<g>
</g>
<g>
</g>
<g>
</g>
<g>
</g>
<g>
</g>
</svg>
