<?xml version="1.0" encoding="utf-8"?>
<!-- Generator: Adobe Illustrator 18.1.1, SVG Export Plug-In . SVG Version: 6.00 Build 0)  -->
<svg version="1.1" id="Layer_1" xmlns="http://www.w3.org/2000/svg" xmlns:xlink="http://www.w3.org/1999/xlink" x="0px" y="0px"
	 viewBox="0 0 12 12" enable-background="new 0 0 12 12" xml:space="preserve">
<path d="M0,6c0-3.3,2.7-6,6-6l0,0c3.3,0,6,2.7,6,6l0,0c0,3.3-2.7,6-6,6l0,0C2.7,12,0,9.3,0,6L0,6z M0.7,6c0,2.9,2.4,5.3,5.3,5.3l0,0
	c2.9,0,5.3-2.4,5.3-5.3l0,0c0-2.9-2.4-5.3-5.3-5.3l0,0C3.1,0.7,0.7,3.1,0.7,6L0.7,6z"/>
<path d="M10,4.2H2.6c-0.1,0-0.2,0.1-0.2,0.2L1.8,5.9c0,0.1-0.1,0.3-0.1,0.4v1.3c0,0.1,0.1,0.2,0.2,0.2h0.5c0,0,0-0.1,0-0.1
	c0-0.5,0.4-0.9,0.9-0.9h0c0.5,0,0.9,0.4,0.9,0.9c0,0,0,0.1,0,0.1h3.6c0,0,0-0.1,0-0.1c0-0.5,0.4-0.9,0.9-0.9c0,0,0,0,0,0
	c0.5,0,0.9,0.4,0.9,0.9c0,0,0,0,0,0.1l0.6-0.2l0,0c0.1,0,0.2-0.1,0.2-0.2V4.3C10.2,4.2,10.1,4.2,10,4.2z M9.8,5.7H2.3l0.4-1.1h7.1
	V5.7z"/>
<circle cx="8.6" cy="7.6" r="0.6"/>
<circle cx="3.3" cy="7.6" r="0.6"/>
<g>
</g>
<g>
</g>
<g>
</g>
<g>
</g>
<g>
</g>
<g>
</g>
<g>
</g>
<g>
</g>
<g>
</g>
<g>
</g>
<g>
</g>
<g>
</g>
<g>
</g>
<g>
</g>
<g>
</g>
</svg>
