<?xml version="1.0" encoding="utf-8"?>
<!-- Generator: Adobe Illustrator 18.1.1, SVG Export Plug-In . SVG Version: 6.00 Build 0)  -->
<svg version="1.1" id="Layer_1" xmlns="http://www.w3.org/2000/svg" xmlns:xlink="http://www.w3.org/1999/xlink" x="0px" y="0px"
	 viewBox="0 0 12 12" enable-background="new 0 0 12 12" xml:space="preserve">
<path d="M0,6c0-3.3,2.7-6,6-6l0,0c3.3,0,6,2.7,6,6l0,0c0,3.3-2.7,6-6,6l0,0C2.7,12,0,9.3,0,6L0,6z M0.7,6c0,2.9,2.4,5.3,5.3,5.3l0,0
	c2.9,0,5.3-2.4,5.3-5.3l0,0c0-2.9-2.4-5.3-5.3-5.3l0,0C3.1,0.7,0.7,3.1,0.7,6L0.7,6z"/>
<path d="M7.1,7.6C7.1,7.6,7.1,7.6,7.1,7.6L7.1,7.6c0,1-0.8,1.8-1.8,1.8c-1,0-1.8-0.8-1.8-1.8c0-0.7,0.4-1.3,1-1.6l0-0.6
	C3.6,5.8,3,6.6,3,7.6c0,1.3,1,2.3,2.3,2.3c1.3,0,2.3-1,2.3-2.3c0,0,0,0,0,0L7.1,7.6z"/>
<path d="M4.8,2.8C4.8,2.8,4.8,2.8,4.8,2.8c0,0.1,0,0.2,0.1,0.3c0,0,0,0,0,0c0,0,0,0,0,0c0,0,0.1,0.1,0.1,0.1
	c0.1,0.1,0.2,0.2,0.4,0.2h0.2c0.2,0,0.3-0.1,0.4-0.2C6,3.2,6,3.2,6,3.2c0,0,0,0,0,0c0,0,0,0,0,0C6.1,3,6.2,2.9,6.2,2.8c0,0,0,0,0,0
	c0,0,0,0,0,0c0,0,0,0,0,0V2.5c0,0,0,0,0,0c0,0,0,0,0,0c0,0,0,0,0,0c0-0.1-0.1-0.2-0.1-0.3C6,2.1,6,2,6,2c0,0,0,0,0,0
	C5.9,1.9,5.7,1.8,5.6,1.8H5.4C5.3,1.8,5.1,1.9,5,2c0,0,0,0,0,0c0,0-0.1,0.1-0.1,0.1C4.8,2.2,4.8,2.3,4.8,2.4c0,0,0,0,0,0
	c0,0,0,0,0,0c0,0,0,0,0,0L4.8,2.8C4.8,2.7,4.8,2.8,4.8,2.8C4.8,2.8,4.8,2.8,4.8,2.8z"/>
<path d="M9,8.9L8.3,6.5c0-0.1-0.1-0.2-0.2-0.2L6.4,6.2l-0.1-2C6.3,4,6,3.7,5.7,3.7H5.2C5,3.7,4.7,4,4.8,4.3c0,0,0,0,0,0v0l0.2,2.5
	c0,0.3,0.3,0.5,0.6,0.5l2.1-0.1l0.7,1.9c0,0.1,0.1,0.1,0.2,0.1l0.3-0.1h0C9,9.1,9,9,9,8.9z"/>
<g>
</g>
<g>
</g>
<g>
</g>
<g>
</g>
<g>
</g>
<g>
</g>
<g>
</g>
<g>
</g>
<g>
</g>
<g>
</g>
<g>
</g>
<g>
</g>
<g>
</g>
<g>
</g>
<g>
</g>
</svg>
