<?xml version="1.0" encoding="utf-8"?>
<!-- Generator: Adobe Illustrator 18.1.1, SVG Export Plug-In . SVG Version: 6.00 Build 0)  -->
<svg version="1.1" id="Layer_1" xmlns="http://www.w3.org/2000/svg" xmlns:xlink="http://www.w3.org/1999/xlink" x="0px" y="0px"
	 viewBox="0 0 12 12" enable-background="new 0 0 12 12" xml:space="preserve">
<path d="M0,6c0-3.3,2.7-6,6-6l0,0c3.3,0,6,2.7,6,6l0,0c0,3.3-2.7,6-6,6l0,0C2.7,12,0,9.3,0,6L0,6z M0.7,6c0,2.9,2.4,5.3,5.3,5.3l0,0
	c2.9,0,5.3-2.4,5.3-5.3l0,0c0-2.9-2.4-5.3-5.3-5.3l0,0C3.1,0.7,0.7,3.1,0.7,6L0.7,6z"/>
<path d="M6.9,6.4c-0.1,0-0.1,0-0.2,0.1C6.7,6.6,6.6,6.6,6.6,6.7c0,0.1,0,0.1,0.1,0.2C6.8,7,6.8,7,6.9,7C7,7,7.1,7,7.1,6.9
	c0.1-0.1,0.1-0.1,0.1-0.2c0-0.1,0-0.2-0.1-0.2C7.1,6.5,7,6.4,6.9,6.4z"/>
<path d="M5.3,5.4L5.3,5.4L5.3,5.4c0.1-0.1,0.1-0.1,0.1-0.2c0-0.1,0-0.2-0.1-0.2C5.2,4.9,5.2,4.9,5.1,4.9C5,4.9,4.9,4.9,4.9,5
	C4.8,5,4.8,5.1,4.8,5.2c0,0.1,0,0.1,0.1,0.2C4.9,5.4,5,5.5,5.1,5.5C5.2,5.5,5.2,5.4,5.3,5.4z"/>
<path d="M8.6,6.7V2.9H3.4v3.8H2l4,3.4l4-3.4H8.6z M4.3,5.2c0-0.2,0.1-0.4,0.2-0.5c0.1-0.1,0.3-0.2,0.5-0.2c0.2,0,0.4,0.1,0.5,0.2
	l0,0l0,0C5.8,4.8,5.8,5,5.8,5.2c0,0.2-0.1,0.4-0.2,0.5C5.5,5.9,5.3,5.9,5.1,5.9h0c-0.2,0-0.4-0.1-0.5-0.2C4.4,5.6,4.3,5.4,4.3,5.2z
	 M5.4,7.5L5.4,7.5l-0.5,0l1.6-3.1h0.5L5.4,7.5z M7.4,7.3C7.3,7.4,7.1,7.5,6.9,7.5c-0.2,0-0.4-0.1-0.5-0.2C6.3,7.1,6.2,6.9,6.2,6.7
	c0-0.2,0.1-0.4,0.2-0.5C6.5,6,6.7,6,6.9,6C7.1,6,7.3,6,7.4,6.2c0.1,0.1,0.2,0.3,0.2,0.5C7.7,6.9,7.6,7.1,7.4,7.3z"/>
<g>
</g>
<g>
</g>
<g>
</g>
<g>
</g>
<g>
</g>
<g>
</g>
<g>
</g>
<g>
</g>
<g>
</g>
<g>
</g>
<g>
</g>
<g>
</g>
<g>
</g>
<g>
</g>
<g>
</g>
</svg>
