<?xml version="1.0" encoding="utf-8"?>
<!-- Generator: Adobe Illustrator 18.1.1, SVG Export Plug-In . SVG Version: 6.00 Build 0)  -->
<svg version="1.1" id="Layer_1" xmlns="http://www.w3.org/2000/svg" xmlns:xlink="http://www.w3.org/1999/xlink" x="0px" y="0px"
	 viewBox="0 0 12 12" enable-background="new 0 0 12 12" xml:space="preserve">
<path d="M0,6c0-3.3,2.7-6,6-6l0,0c3.3,0,6,2.7,6,6l0,0c0,3.3-2.7,6-6,6l0,0C2.7,12,0,9.3,0,6L0,6z M0.7,6c0,2.9,2.4,5.3,5.3,5.3l0,0
	c2.9,0,5.3-2.4,5.3-5.3l0,0c0-2.9-2.4-5.3-5.3-5.3l0,0C3.1,0.7,0.7,3.1,0.7,6L0.7,6z"/>
<path d="M10.5,6.3l-1-2C9.4,4.1,8.8,3.2,7.8,3.2H6.3C6,3.2,5.6,3.3,5.4,3.5L5,3.9C4.7,4.1,4.3,4.3,4.1,4.3L2.6,4.6
	c-0.3,0-0.5,0.3-0.4,0.6l0.2,1C2.5,6.5,2.7,6.8,3,6.9l2.7,0.8l0.8,2.8C8.7,10.3,10.4,8.5,10.5,6.3z M5.7,5C5.5,5,5.3,4.8,5.3,4.6
	c0-0.2,0.2-0.4,0.4-0.4c0.2,0,0.4,0.2,0.4,0.4C6.1,4.8,5.9,5,5.7,5z M8,7.7c-0.5,0-1-0.4-1-1c0-0.2,0.1-2.1,0.1-2.2h0h0.4
	c0,0.1-0.1,2-0.1,2.2c0,0.3,0.3,0.6,0.6,0.6c0.3,0,0.6-0.3,0.6-0.6c0-0.2-0.1-2.1-0.1-2.2h0.4c0,0.1,0.1,2,0.1,2.2
	C9,7.3,8.5,7.7,8,7.7z"/>
<g>
</g>
<g>
</g>
<g>
</g>
<g>
</g>
<g>
</g>
<g>
</g>
<g>
</g>
<g>
</g>
<g>
</g>
<g>
</g>
<g>
</g>
<g>
</g>
<g>
</g>
<g>
</g>
<g>
</g>
</svg>
