<?xml version="1.0" encoding="utf-8"?>
<!-- Generator: Adobe Illustrator 18.1.1, SVG Export Plug-In . SVG Version: 6.00 Build 0)  -->
<svg version="1.1" id="Layer_1" xmlns="http://www.w3.org/2000/svg" xmlns:xlink="http://www.w3.org/1999/xlink" x="0px" y="0px"
	 viewBox="0 0 12 12" enable-background="new 0 0 12 12" xml:space="preserve">
<path d="M0,6c0-3.3,2.7-6,6-6l0,0c3.3,0,6,2.7,6,6l0,0c0,3.3-2.7,6-6,6l0,0C2.7,12,0,9.3,0,6L0,6z M0.7,6c0,2.9,2.4,5.3,5.3,5.3l0,0
	c2.9,0,5.3-2.4,5.3-5.3l0,0c0-2.9-2.4-5.3-5.3-5.3l0,0C3.1,0.7,0.7,3.1,0.7,6L0.7,6z"/>
<path d="M8.6,3.6h-2l0.1-0.6c0-0.2,0.2-0.4,0.4-0.4h0.8V2.1H7c-0.4,0-0.8,0.3-0.9,0.8L6.1,3.6H3.4c-0.1,0-0.1,0.1-0.1,0.1
	c0,0,0,0,0,0l0,0l0.8,5.7C4.2,9.7,4.4,10,4.8,10h2.5c0.3,0,0.6-0.2,0.7-0.6l0.8-5.7l0,0c0,0,0,0,0,0C8.7,3.6,8.7,3.6,8.6,3.6z
	 M7.5,9.3c0,0.1-0.2,0.2-0.3,0.3c0,0,0,0,0,0H4.8c0,0,0,0,0,0c-0.1,0-0.3-0.1-0.3-0.3L3.7,3.9H6L5.9,4.9C6,4.9,6.1,4.9,6.2,5
	c0,0,0.1,0,0.2,0.1l0.2-1.1h1.8L7.5,9.3z"/>
<path d="M6.1,5.2L6.1,5.2C5.8,5.1,5.5,5.1,5.2,5.1c-0.3,0-0.6,0.1-0.9,0.2l-0.1,0l0.6,4h2.4l0.6-4L7.6,5.3C7.4,5.4,7.2,5.4,6.9,5.4
	C6.6,5.4,6.3,5.4,6.1,5.2z"/>
<g>
</g>
<g>
</g>
<g>
</g>
<g>
</g>
<g>
</g>
<g>
</g>
<g>
</g>
<g>
</g>
<g>
</g>
<g>
</g>
<g>
</g>
<g>
</g>
<g>
</g>
<g>
</g>
<g>
</g>
</svg>
