<?xml version="1.0" encoding="utf-8"?>
<!-- Generator: Adobe Illustrator 18.1.1, SVG Export Plug-In . SVG Version: 6.00 Build 0)  -->
<svg version="1.1" id="Layer_1" xmlns="http://www.w3.org/2000/svg" xmlns:xlink="http://www.w3.org/1999/xlink" x="0px" y="0px"
	 viewBox="0 0 12 12" enable-background="new 0 0 12 12" xml:space="preserve">
<path d="M6,0C2.7,0,0,2.7,0,6c0,3.3,2.7,6,6,6c3.3,0,6-2.7,6-6S9.3,0,6,0z M6,11.3c-2.9,0-5.3-2.4-5.3-5.3c0-2.9,2.4-5.3,5.3-5.3
	c2.9,0,5.3,2.4,5.3,5.3C11.3,8.9,8.9,11.3,6,11.3z"/>
<polygon points="3.3,5.6 3.3,3.9 4.2,3.9 4.2,5.6 3.3,5.6 "/>
<polygon points="7.8,5.6 7.8,3.9 8.7,3.9 8.7,5.6 7.8,5.6 "/>
<path d="M8.9,8.8L8.2,9.3C7.7,8.6,6.9,8.2,6,8.2l0,0c-0.9,0-1.7,0.4-2.2,1.1l0,0L3.1,8.8C3.8,7.9,4.8,7.3,6,7.3l0,0
	C7.2,7.3,8.3,7.9,8.9,8.8L8.9,8.8z"/>
<g>
</g>
<g>
</g>
<g>
</g>
<g>
</g>
<g>
</g>
<g>
</g>
<g>
</g>
<g>
</g>
<g>
</g>
<g>
</g>
<g>
</g>
<g>
</g>
<g>
</g>
<g>
</g>
<g>
</g>
</svg>
