<?xml version="1.0" encoding="utf-8"?>
<!-- Generator: Adobe Illustrator 18.1.1, SVG Export Plug-In . SVG Version: 6.00 Build 0)  -->
<svg version="1.1" id="Layer_1" xmlns="http://www.w3.org/2000/svg" xmlns:xlink="http://www.w3.org/1999/xlink" x="0px" y="0px"
	 viewBox="0 0 12 12" enable-background="new 0 0 12 12" xml:space="preserve">
<path d="M4.3,4.6l0.3,0.3l0.3-0.3l0.3,0.3L4.9,5.2l2,2l0.3-0.3l0.3,0.3L7.2,7.5l0.3,0.3l2.7-2.7L8.6,3.5l0.3-0.3L7.3,1.6L4.3,4.6z
	 M8.2,6.5L7.8,6.9L7.5,6.6L8,6.2L8.2,6.5z M5.9,4.2L5.5,4.6L5.2,4.3l0.4-0.4L5.9,4.2z M8.9,5.8L8.5,6.2L8.2,5.9l0.4-0.4L8.9,5.8z
	 M6.6,3.5L6.2,3.9L5.9,3.6l0.4-0.4L6.6,3.5z M9.6,5.1L9.2,5.5L8.9,5.2l0.4-0.4L9.6,5.1z M6.9,3.2L6.6,2.9l0.4-0.4l0.3,0.3L6.9,3.2z"
	/>
<polygon points="2.7,4.9 2.1,5.5 2.5,5.9 1.8,6.6 2.2,7 4.2,5 3.8,4.6 3.1,5.3 "/>
<rect x="4.9" y="8.9" transform="matrix(-0.7072 0.707 -0.707 -0.7072 17.2985 11.1307)" width="2.9" height="0.5"/>
<rect x="3.2" y="5.8" transform="matrix(-0.7071 0.7071 -0.7071 -0.7071 13.248 9.4519)" width="2.9" height="3.3"/>
<g>
	<path d="M0,6c0-3.3,2.7-6,6-6l0,0c3.3,0,6,2.7,6,6l0,0c0,3.3-2.7,6-6,6l0,0C2.7,12,0,9.3,0,6L0,6z M0.7,6c0,2.9,2.4,5.3,5.3,5.3
		l0,0c2.9,0,5.3-2.4,5.3-5.3l0,0c0-2.9-2.4-5.3-5.3-5.3l0,0C3.1,0.7,0.7,3.1,0.7,6L0.7,6z"/>
</g>
<g>
</g>
<g>
</g>
<g>
</g>
<g>
</g>
<g>
</g>
<g>
</g>
<g>
</g>
<g>
</g>
<g>
</g>
<g>
</g>
<g>
</g>
<g>
</g>
<g>
</g>
<g>
</g>
<g>
</g>
</svg>
