<?xml version="1.0" encoding="utf-8"?>
<!-- Generator: Adobe Illustrator 18.1.1, SVG Export Plug-In . SVG Version: 6.00 Build 0)  -->
<svg version="1.1" id="Layer_1" xmlns="http://www.w3.org/2000/svg" xmlns:xlink="http://www.w3.org/1999/xlink" x="0px" y="0px"
	 viewBox="0 0 12 12" enable-background="new 0 0 12 12" xml:space="preserve">
<path d="M5.9,4v0.5h0.4v0.4H5.9v2.9l0.4,0l0,0.4H5.9v0.5h3.8V6.2H10V4H5.9z M7.3,8.1H6.7V7.7h0.6V8.1z M7.3,4.9H6.7V4.5h0.6V4.9z
	 M8.3,8.1H7.7V7.7l0.6,0V8.1z M8.3,4.9l-0.6,0l0-0.4h0.6V4.9z M9.3,8.1H8.7V7.7l0.6,0V8.1z M8.7,4.9V4.5h0.6l0,0.4L8.7,4.9z"/>
<polygon points="4.5,3.1 3.6,3.1 3.6,3.6 2.6,3.6 2.6,4.2 5.5,4.2 5.5,3.6 4.5,3.6 "/>
<rect x="2.6" y="8.4" width="2.9" height="0.5"/>
<rect x="2.6" y="4.6" width="2.9" height="3.3"/>
<g>
	<path d="M0,6c0-3.3,2.7-6,6-6l0,0c3.3,0,6,2.7,6,6l0,0c0,3.3-2.7,6-6,6l0,0C2.7,12,0,9.3,0,6L0,6z M0.7,6c0,2.9,2.4,5.3,5.3,5.3
		l0,0c2.9,0,5.3-2.4,5.3-5.3l0,0c0-2.9-2.4-5.3-5.3-5.3l0,0C3.1,0.7,0.7,3.1,0.7,6L0.7,6z"/>
</g>
<g>
</g>
<g>
</g>
<g>
</g>
<g>
</g>
<g>
</g>
<g>
</g>
<g>
</g>
<g>
</g>
<g>
</g>
<g>
</g>
<g>
</g>
<g>
</g>
<g>
</g>
<g>
</g>
<g>
</g>
</svg>
