<?xml version="1.0" encoding="utf-8"?>
<!-- Generator: Adobe Illustrator 18.1.1, SVG Export Plug-In . SVG Version: 6.00 Build 0)  -->
<svg version="1.1" id="Layer_1" xmlns="http://www.w3.org/2000/svg" xmlns:xlink="http://www.w3.org/1999/xlink" x="0px" y="0px"
	 viewBox="0 0 12 12" enable-background="new 0 0 12 12" xml:space="preserve">
<path d="M9,6.4c-0.2,0-0.5,0.1-0.7,0.2L7.7,7.1H6.4c-0.2,0-0.5,0.1-0.6,0.3L4.9,8.6l0.3-1.3c0,0,0,0,0,0c0-0.2,0-0.5-0.1-0.7
	L4.6,5.7C4.5,5.5,4.4,5.2,4.4,5L4.2,4.1l0.6-0.2l0,0C5,3.8,5.2,3.6,5.2,3.4l0.1-0.8c0-0.2-0.1-0.4-0.3-0.5c0,0,0,0,0,0L4,1.9
	C3.8,1.8,3.6,1.9,3.6,2.1L3.2,3.4c0,0,0,0,0,0C3.1,3.6,3,3.9,3,4.1v5.2c0,0.2,0.2,0.4,0.4,0.4h0c0.2,0,0.5,0,0.7,0.1l1.5,0.3
	c0.2,0,0.5,0.1,0.7,0.1h1.8c1.4-0.7,2.3-2.2,2.5-3.8H9z"/>
<path d="M6,0C2.7,0,0,2.7,0,6c0,3.3,2.7,6,6,6c3.3,0,6-2.7,6-6C12,2.7,9.3,0,6,0z M6,11.3c-2.9,0-5.3-2.4-5.3-5.3
	c0-2.9,2.4-5.3,5.3-5.3c2.9,0,5.3,2.4,5.3,5.3C11.3,8.9,8.9,11.3,6,11.3z"/>
<g>
</g>
<g>
</g>
<g>
</g>
<g>
</g>
<g>
</g>
<g>
</g>
<g>
</g>
<g>
</g>
<g>
</g>
<g>
</g>
<g>
</g>
<g>
</g>
<g>
</g>
<g>
</g>
<g>
</g>
</svg>
