<?xml version="1.0" encoding="utf-8"?>
<!-- Generator: Adobe Illustrator 18.1.1, SVG Export Plug-In . SVG Version: 6.00 Build 0)  -->
<svg version="1.1" id="Layer_1" xmlns="http://www.w3.org/2000/svg" xmlns:xlink="http://www.w3.org/1999/xlink" x="0px" y="0px"
	 viewBox="0 0 12 12" enable-background="new 0 0 12 12" xml:space="preserve">
<path d="M6,0C2.7,0,0,2.7,0,6c0,3.3,2.7,6,6,6c3.3,0,6-2.7,6-6C12,2.7,9.3,0,6,0z M6,11.3c-2.9,0-5.3-2.4-5.3-5.3
	c0-2.9,2.4-5.3,5.3-5.3c2.9,0,5.3,2.4,5.3,5.3C11.3,8.9,8.9,11.3,6,11.3z"/>
<path d="M2.6,4.7H2c-0.1,0-0.2,0.1-0.2,0.2v2.3c0,0.1,0.1,0.2,0.2,0.2h0.6c0.1,0,0.2-0.1,0.2-0.2V4.9C2.7,4.8,2.7,4.7,2.6,4.7z"/>
<path d="M8.8,3.9H7.9C7.8,3.9,7.7,4,7.7,4.1v1.5H4.3V4.1c0-0.1-0.1-0.2-0.2-0.2H3.2C3.1,3.9,3,4,3,4.1v3.8C3,8,3.1,8.1,3.2,8.1h0.9
	c0.1,0,0.2-0.1,0.2-0.2V6.4h3.4v1.5c0,0.1,0.1,0.2,0.2,0.2h0.9C8.9,8.1,9,8,9,7.9V4.1C9,4,8.9,3.9,8.8,3.9z"/>
<path d="M10,4.7H9.4c-0.1,0-0.2,0.1-0.2,0.2v2.3c0,0.1,0.1,0.2,0.2,0.2H10c0.1,0,0.2-0.1,0.2-0.2V4.9C10.2,4.8,10.1,4.7,10,4.7z"/>
<g>
</g>
<g>
</g>
<g>
</g>
<g>
</g>
<g>
</g>
<g>
</g>
<g>
</g>
<g>
</g>
<g>
</g>
<g>
</g>
<g>
</g>
<g>
</g>
<g>
</g>
<g>
</g>
<g>
</g>
</svg>
