<?xml version="1.0" encoding="utf-8"?>
<!-- Generator: Adobe Illustrator 18.1.1, SVG Export Plug-In . SVG Version: 6.00 Build 0)  -->
<svg version="1.1" id="Layer_1" xmlns="http://www.w3.org/2000/svg" xmlns:xlink="http://www.w3.org/1999/xlink" x="0px" y="0px"
	 viewBox="0 0 12 12" enable-background="new 0 0 12 12" xml:space="preserve">
<path d="M6,0C2.7,0,0,2.7,0,6c0,3.3,2.7,6,6,6c3.3,0,6-2.7,6-6S9.3,0,6,0z M6,11.3c-2.9,0-5.3-2.4-5.3-5.3c0-2.9,2.4-5.3,5.3-5.3
	c2.9,0,5.3,2.4,5.3,5.3C11.3,8.9,8.9,11.3,6,11.3z"/>
<path d="M8.5,2.7h-5c-0.4,0-0.8,0.4-0.8,0.8v5c0,0.4,0.4,0.8,0.8,0.8h5c0.4,0,0.8-0.4,0.8-0.8v-5C9.3,3.1,8.9,2.7,8.5,2.7z M7.4,5.9
	C7,5.6,6.5,5.4,6,5.4c-0.5,0-1,0.2-1.4,0.5L3.5,4.4C4.2,3.9,5.1,3.6,6,3.6c0.9,0,1.8,0.3,2.5,0.8L7.4,5.9z"/>
<path d="M6.1,4.3c0-0.1,0-0.1-0.1-0.1c-0.1,0-0.1,0-0.1,0.1L5.8,5.6v0h0.4v0L6.1,4.3z"/>
<g>
</g>
<g>
</g>
<g>
</g>
<g>
</g>
<g>
</g>
<g>
</g>
<g>
</g>
<g>
</g>
<g>
</g>
<g>
</g>
<g>
</g>
<g>
</g>
<g>
</g>
<g>
</g>
<g>
</g>
</svg>
