<?xml version="1.0" encoding="utf-8"?>
<!-- Generator: Adobe Illustrator 18.1.1, SVG Export Plug-In . SVG Version: 6.00 Build 0)  -->
<svg version="1.1" id="Layer_1" xmlns="http://www.w3.org/2000/svg" xmlns:xlink="http://www.w3.org/1999/xlink" x="0px" y="0px"
	 viewBox="0 0 12 12" enable-background="new 0 0 12 12" xml:space="preserve">
<polygon points="6.9,6.4 5.1,6.4 5.1,5.6 6.9,5.6 6.9,6.4 "/>
<path d="M4.5,3.8H3C2.9,3.8,2.8,3.9,2.8,4v1.5H2.6c-0.1,0-0.2,0.1-0.2,0.2v0.5c0,0.1,0.1,0.2,0.2,0.2h0.1V8c0,0.1,0.1,0.2,0.2,0.2
	h1.5c0.1,0,0.2-0.1,0.2-0.2V4C4.7,3.9,4.6,3.8,4.5,3.8z"/>
<path d="M9.4,5.5H9.2V4c0-0.1-0.1-0.2-0.2-0.2H7.5C7.3,3.8,7.2,3.9,7.2,4v4c0,0.1,0.1,0.2,0.2,0.2H9c0.1,0,0.2-0.1,0.2-0.2V6.5h0.2
	c0.1,0,0.2-0.1,0.2-0.2V5.8C9.6,5.6,9.5,5.5,9.4,5.5z"/>
<g>
	<path d="M0,6c0-3.3,2.7-6,6-6l0,0c3.3,0,6,2.7,6,6l0,0c0,3.3-2.7,6-6,6l0,0C2.7,12,0,9.3,0,6L0,6z M0.7,6c0,2.9,2.4,5.3,5.3,5.3
		l0,0c2.9,0,5.3-2.4,5.3-5.3l0,0c0-2.9-2.4-5.3-5.3-5.3l0,0C3.1,0.7,0.7,3.1,0.7,6L0.7,6z"/>
</g>
<g>
</g>
<g>
</g>
<g>
</g>
<g>
</g>
<g>
</g>
<g>
</g>
<g>
</g>
<g>
</g>
<g>
</g>
<g>
</g>
<g>
</g>
<g>
</g>
<g>
</g>
<g>
</g>
<g>
</g>
</svg>
