<?xml version="1.0" encoding="utf-8"?>
<!-- Generator: Adobe Illustrator 18.1.1, SVG Export Plug-In . SVG Version: 6.00 Build 0)  -->
<svg version="1.1" id="Layer_1" xmlns="http://www.w3.org/2000/svg" xmlns:xlink="http://www.w3.org/1999/xlink" x="0px" y="0px"
	 viewBox="0 0 12 12" enable-background="new 0 0 12 12" xml:space="preserve">
<path d="M6,0C2.7,0,0,2.7,0,6c0,3.3,2.7,6,6,6c3.3,0,6-2.7,6-6S9.3,0,6,0z M6,11.3c-2.9,0-5.3-2.4-5.3-5.3c0-2.9,2.4-5.3,5.3-5.3
	c2.9,0,5.3,2.4,5.3,5.3C11.3,8.9,8.9,11.3,6,11.3z"/>
<path d="M9.5,6.3C9.5,6.3,9.5,6.3,9.5,6.3C9.5,5.6,8.7,5,7.7,5H5.6c-0.4,0-0.7-0.1-1-0.3c0.3-0.2,0.6-0.3,1-0.3v0h2.7V2.7H5.6
	C4.6,2.7,3.8,3.3,3.8,4l0,0v1.4c0,0.8,0.8,1.3,1.8,1.3h2.2c0.4,0,0.7,0.1,1,0.3c-0.3,0.2-0.6,0.3-1,0.3l-1.6,0V8H5.8V7.3H5.2V8H4.9
	V7.3H4.3V8H3.9V7.3l-0.6,0V8H3V7.3H2.4V9h5.4c0.9,0,1.8-0.5,1.8-1.3L9.5,6.3z M9.2,6.3c0,0,0,0.1,0,0.1c0,0,0,0,0,0c0,0,0,0.1,0,0.1
	c0,0,0,0,0,0c0,0,0,0.1-0.1,0.1c0,0,0,0,0,0c0,0,0,0,0,0C8.7,6.5,8.2,6.4,7.7,6.4H5.6c-0.4,0-0.8-0.1-1-0.3C4.3,5.9,4.1,5.7,4.1,5.4
	V4.9c0,0,0,0,0,0c0,0,0,0,0,0L4.3,5l0,0c0.3,0.2,0.8,0.4,1.3,0.4h2.2c0.4,0,0.8,0.1,1,0.3C9,5.9,9.2,6.1,9.2,6.3L9.2,6.3z"/>
<g>
</g>
<g>
</g>
<g>
</g>
<g>
</g>
<g>
</g>
<g>
</g>
<g>
</g>
<g>
</g>
<g>
</g>
<g>
</g>
<g>
</g>
<g>
</g>
<g>
</g>
<g>
</g>
<g>
</g>
</svg>
