<?xml version="1.0" encoding="utf-8"?>
<!-- Generator: Adobe Illustrator 18.1.1, SVG Export Plug-In . SVG Version: 6.00 Build 0)  -->
<svg version="1.1" id="Layer_1" xmlns="http://www.w3.org/2000/svg" xmlns:xlink="http://www.w3.org/1999/xlink" x="0px" y="0px"
	 viewBox="0 0 12 12" enable-background="new 0 0 12 12" xml:space="preserve">
<path d="M6,0C2.7,0,0,2.7,0,6c0,3.3,2.7,6,6,6c3.3,0,6-2.7,6-6S9.3,0,6,0z M6,11.3c-2.9,0-5.3-2.4-5.3-5.3c0-2.9,2.4-5.3,5.3-5.3
	c2.9,0,5.3,2.4,5.3,5.3C11.3,8.9,8.9,11.3,6,11.3z"/>
<circle cx="6.8" cy="2.9" r="0.7"/>
<path d="M7.8,5.7L7.2,4.2l0,0C7.1,4.1,7,4,6.9,3.9l0,0l-1-0.4L5.6,2.2l1.2-0.8L6.6,1L5.2,1.8C5.1,1.8,5,2,5,2.1l0.3,2.1L4.6,6.3
	c0,0.1-0.1,0.3,0,0.4l0.3,4.1h0.7L5.5,7.5l0.7,3.3h0.7L6.3,6.9L6.4,7l1.3-1v0C7.8,6,7.8,5.8,7.8,5.7z M6.3,6.5L6.2,6.1l0.6-1.3
	l0.4,0.8L6.3,6.5z"/>
<g>
</g>
<g>
</g>
<g>
</g>
<g>
</g>
<g>
</g>
<g>
</g>
<g>
</g>
<g>
</g>
<g>
</g>
<g>
</g>
<g>
</g>
<g>
</g>
<g>
</g>
<g>
</g>
<g>
</g>
</svg>
