<?xml version="1.0" encoding="utf-8"?>
<!-- Generator: Adobe Illustrator 18.1.1, SVG Export Plug-In . SVG Version: 6.00 Build 0)  -->
<svg version="1.1" id="Layer_1" xmlns="http://www.w3.org/2000/svg" xmlns:xlink="http://www.w3.org/1999/xlink" x="0px" y="0px"
	 viewBox="0 0 12 12" enable-background="new 0 0 12 12" xml:space="preserve">
<path d="M6,0C2.7,0,0,2.7,0,6c0,3.3,2.7,6,6,6c3.3,0,6-2.7,6-6C12,2.7,9.3,0,6,0z M6,11.3c-2.9,0-5.3-2.4-5.3-5.3
	c0-2.9,2.4-5.3,5.3-5.3c2.9,0,5.3,2.4,5.3,5.3C11.3,8.9,8.9,11.3,6,11.3z"/>
<path d="M8.2,6.4C9,6.2,9.5,5.6,9.7,4.9C9.2,4.4,8.4,4.3,7.6,4.5C7.3,4.6,7.1,4.7,6.9,4.9C7,4.7,7,4.4,7,4.1c0-0.8-0.4-1.5-1-1.9
	C5.4,2.6,5,3.3,5,4.1C5,4.4,5,4.7,5.1,4.9C4.9,4.7,4.7,4.6,4.4,4.5C3.6,4.3,2.9,4.4,2.3,4.9C2.5,5.6,3,6.2,3.8,6.4
	c0.3,0.1,0.6,0.1,0.8,0.1C4.4,6.7,4.2,6.9,4,7.1C3.5,7.8,3.4,8.6,3.7,9.3c0.7,0,1.5-0.3,1.9-0.9C5.8,8.1,5.9,7.8,6,7.6
	c0.1,0.3,0.2,0.5,0.4,0.8c0.5,0.6,1.2,1,1.9,0.9C8.6,8.6,8.5,7.8,8,7.1C7.8,6.9,7.6,6.7,7.4,6.6C7.7,6.6,8,6.5,8.2,6.4z M6,7.3
	c-0.6,0-1.2-0.5-1.2-1.2c0-0.6,0.5-1.2,1.2-1.2s1.2,0.5,1.2,1.2C7.2,6.7,6.6,7.3,6,7.3z"/>
<g>
</g>
<g>
</g>
<g>
</g>
<g>
</g>
<g>
</g>
<g>
</g>
<g>
</g>
<g>
</g>
<g>
</g>
<g>
</g>
<g>
</g>
<g>
</g>
<g>
</g>
<g>
</g>
<g>
</g>
</svg>
