<?xml version="1.0" encoding="utf-8"?>
<!-- Generator: Adobe Illustrator 18.1.1, SVG Export Plug-In . SVG Version: 6.00 Build 0)  -->
<svg version="1.1" id="Layer_1" xmlns="http://www.w3.org/2000/svg" xmlns:xlink="http://www.w3.org/1999/xlink" x="0px" y="0px"
	 viewBox="0 0 12 12" enable-background="new 0 0 12 12" xml:space="preserve">
<path d="M6,0C2.7,0,0,2.7,0,6c0,3.3,2.7,6,6,6c3.3,0,6-2.7,6-6C12,2.7,9.3,0,6,0z M6,11.3c-2.9,0-5.3-2.4-5.3-5.3
	c0-2.9,2.4-5.3,5.3-5.3c2.9,0,5.3,2.4,5.3,5.3C11.3,8.9,8.9,11.3,6,11.3z"/>
<path d="M8.8,4.2c-0.8-0.6-1.7,0-2,0.9C6.6,5.5,6.4,5.9,5.9,5.7c-0.4-0.2-0.5-1-0.6-1.4C5.2,4.1,5.1,4,4.9,3.8
	c0-0.1-0.2-0.2-0.3-0.2c0.1,0,0.1,0,0.2,0c0.1,0,0.1-0.1,0.1-0.2c0-0.2-0.2-0.2-0.3-0.3c-0.1,0,0-0.2-0.1-0.2C4.4,2.9,4.4,3,4.3,3
	c-0.1,0-0.1,0-0.1-0.1c0,0-0.1-0.1-0.2,0c0,0,0,0.1-0.1,0.2c0,0.1-0.1,0-0.2,0C3.8,3,3.5,3,3.5,3.2c0,0.1,0,0.1,0.1,0.2
	c0.1,0.2,0.1,0.2,0.1,0.2S3.3,3.8,3.2,3.9C3.1,3.9,3.1,4,3.2,4c0.2,0.1,0.5,0.1,0.5,0.1c0,0-0.1,0.2-0.1,0.2
	C3.6,4.5,3.3,4.7,3.6,4.9C3.7,5,4,4.9,4,4.7c0,0.1-0.1,0.4-0.1,0.5C3.8,5.3,3.7,5.4,3.6,5.6c-0.3,0.6,0,1.3,0.6,2
	c0.2,0.2,0.2,0.1,0.4,0.4C4.8,8.1,4.8,8.4,5,8.6c0.1,0,0.2,0,0.2,0.1L5.3,9c0,0.1-0.1,0.2-0.2,0.2C5,9.3,4.8,9.3,4.7,9.4l0,0l0.1,0
	l0.1,0l0.2,0l0.1,0L5.1,9.4l0,0l0,0c0,0,0.1,0,0.1,0c0,0,0.3-0.1,0.3-0.1l0,0c0,0,0.1,0,0.1,0c0.1,0,0.2,0,0.3,0l0.1,0l0.1,0v0
	c0,0-0.2,0-0.2,0c0,0-0.2,0-0.2-0.1c0,0,0-0.3,0-0.3c0-0.1,0-0.1,0-0.2c0-0.1,0-0.1,0-0.2c0,0,0.1,0.1,0.1,0.1
	c0.1,0,0.1,0.1,0.2,0.1C5.9,8.8,5.9,8.8,6,8.9c0.1,0,0.2,0,0.2,0.1c0,0,0.1,0.4,0.1,0.4c0,0.1-0.1,0.2-0.2,0.2
	c-0.2,0-0.3,0.1-0.5,0.1l0,0l0.1,0l0.1,0l0.2,0l0.1,0L6.1,9.7l0,0l0,0c0,0,0.1,0,0.1,0c0,0,0.3-0.1,0.3-0.1l0,0c0,0,0.1,0,0.1,0
	c0.1,0,0.2,0,0.3,0l0.1,0l0.1,0v0c0,0-0.2,0-0.2,0c0,0-0.2,0-0.2-0.1c0,0,0-0.3,0-0.3c0-0.1,0-0.1,0-0.2c0-0.1,0.1-0.2,0-0.3
	c0-0.1,0-0.2,0.1-0.3c0,0,0,0,0.1-0.1c0.1,0,0.1-0.1,0.2-0.1c0.2-0.1,0.3-0.3,0.5-0.4c0.1-0.2,0.3-0.3,0.4-0.5C7.9,7,8,6.7,8,6.6
	c0,0,0.1,0.2,0.1,0.3c0,0.2,0,0.3,0,0.5l0,0.1l0.1,0l0.1-0.1l0.1-0.3c0.1-0.2,0-0.5,0-0.7c0-0.1,0-0.4-0.1-0.6c0,0,0-0.1,0-0.1
	s0.1,0.3,0.2,0.3c0,0.1,0.1,0.2,0.1,0.3c0,0.1,0,0.3,0,0.3s0.1-0.3,0.1-0.3c0-0.3,0-0.6-0.1-0.9c0,0,0.1,0.2,0.2,0.3
	c0,0.1,0.1,0.3,0.1,0.3c0,0,0-0.3,0-0.3L8.9,5.6c0,0-0.1-0.2-0.1-0.2C8.7,5,8.7,4.9,8.7,4.9s0.1,0,0.2,0.1C8.9,5,9,5.1,9,5.2
	c0,0.1,0,0.1,0,0.1c0,0,0.1-0.1,0.1-0.2c0-0.1,0-0.2,0-0.5C9.1,4.6,8.9,4.3,8.8,4.2z"/>
<g>
</g>
<g>
</g>
<g>
</g>
<g>
</g>
<g>
</g>
<g>
</g>
<g>
</g>
<g>
</g>
<g>
</g>
<g>
</g>
<g>
</g>
<g>
</g>
<g>
</g>
<g>
</g>
<g>
</g>
</svg>
