<?xml version="1.0" encoding="utf-8"?>
<!-- Generator: Adobe Illustrator 18.1.1, SVG Export Plug-In . SVG Version: 6.00 Build 0)  -->
<svg version="1.1" id="Layer_1" xmlns="http://www.w3.org/2000/svg" xmlns:xlink="http://www.w3.org/1999/xlink" x="0px" y="0px"
	 viewBox="0 0 12 12" enable-background="new 0 0 12 12" xml:space="preserve">
<path d="M0,6c0-3.3,2.7-6,6-6l0,0c3.3,0,6,2.7,6,6l0,0c0,3.3-2.7,6-6,6l0,0C2.7,12,0,9.3,0,6L0,6z M0.7,6c0,2.9,2.4,5.3,5.3,5.3l0,0
	c2.9,0,5.3-2.4,5.3-5.3l0,0c0-2.9-2.4-5.3-5.3-5.3l0,0C3.1,0.7,0.7,3.1,0.7,6L0.7,6z"/>
<path d="M9.2,8.2H2.6c-0.2,0-0.2,0.1,0,0.1l1.1,0.4c0.2,0.1,0.5,0.1,0.8,0.1h2.8c0.2,0,0.6-0.1,0.8-0.1l1.1-0.4
	C9.4,8.3,9.4,8.2,9.2,8.2z"/>
<path d="M8.7,3.7c0,0-5.5,0-5.5,0c-0.1,0-0.1,0-0.1,0.1l1.1,3.9c0,0.1,0.1,0.1,0.1,0.1h3c0.1,0,0.1,0,0.1-0.1l0.4-1.4
	c0.3,0,0.6,0,0.7,0C9.4,6.3,10,5.7,10,5C10,4.3,9.4,3.7,8.7,3.7z M8.7,5.8c-0.1,0-0.3,0-0.6,0l0.4-1.5c0.1,0,0.1,0,0.1,0
	c0.4,0,0.7,0.3,0.7,0.7C9.4,5.4,9.1,5.8,8.7,5.8z"/>
<g>
</g>
<g>
</g>
<g>
</g>
<g>
</g>
<g>
</g>
<g>
</g>
<g>
</g>
<g>
</g>
<g>
</g>
<g>
</g>
<g>
</g>
<g>
</g>
<g>
</g>
<g>
</g>
<g>
</g>
</svg>
