<?xml version="1.0" encoding="utf-8"?>
<!-- Generator: Adobe Illustrator 18.1.1, SVG Export Plug-In . SVG Version: 6.00 Build 0)  -->
<svg version="1.1" id="Layer_1" xmlns="http://www.w3.org/2000/svg" xmlns:xlink="http://www.w3.org/1999/xlink" x="0px" y="0px"
	 viewBox="0 0 12 12" enable-background="new 0 0 12 12" xml:space="preserve">
<path d="M0,6c0-3.3,2.7-6,6-6l0,0c3.3,0,6,2.7,6,6l0,0c0,3.3-2.7,6-6,6l0,0C2.7,12,0,9.3,0,6L0,6z M0.7,6c0,2.9,2.4,5.3,5.3,5.3l0,0
	c2.9,0,5.3-2.4,5.3-5.3l0,0c0-2.9-2.4-5.3-5.3-5.3l0,0C3.1,0.7,0.7,3.1,0.7,6L0.7,6z"/>
<path d="M9.2,6.2c0-0.1,0.1-0.3,0.1-0.4c0-0.8-0.6-1.4-1.4-1.4c0,0,0,0-0.1,0C7.9,4.7,8,4.9,8.1,5.2L7.7,5.3c0-0.1,0-0.1,0-0.2
	c0,0,0-0.1,0-0.1c0,0,0,0,0-0.1C7.6,4.8,7.5,4.6,7.4,4.5c-0.4-0.6-1.1-1-1.9-1C4.6,3.5,3.8,4,3.4,4.8c0.4,0,0.8,0.2,1,0.4L4.2,5.5
	c0,0,0,0,0,0c0,0-0.1,0-0.1-0.1c0,0,0,0,0,0c0,0-0.1,0-0.1-0.1c0,0,0,0,0,0C4,5.3,3.9,5.3,3.8,5.2c0,0,0,0,0,0c0,0-0.1,0-0.1,0
	c0,0,0,0,0,0c0,0-0.1,0-0.1,0c0,0,0,0,0,0c0,0,0,0-0.1,0c0,0-0.1,0-0.1,0c0,0,0,0-0.1,0C2.6,5.2,2,5.8,2,6.6C2,7.3,2.6,8,3.4,8h5.8
	C9.6,8,10,7.6,10,7.1C10,6.6,9.6,6.2,9.2,6.2z"/>
<g>
</g>
<g>
</g>
<g>
</g>
<g>
</g>
<g>
</g>
<g>
</g>
<g>
</g>
<g>
</g>
<g>
</g>
<g>
</g>
<g>
</g>
<g>
</g>
<g>
</g>
<g>
</g>
<g>
</g>
</svg>
