<?xml version="1.0" encoding="utf-8"?>
<!-- Generator: Adobe Illustrator 18.1.1, SVG Export Plug-In . SVG Version: 6.00 Build 0)  -->
<svg version="1.1" id="Layer_1" xmlns="http://www.w3.org/2000/svg" xmlns:xlink="http://www.w3.org/1999/xlink" x="0px" y="0px"
	 viewBox="0 0 12 12" enable-background="new 0 0 12 12" xml:space="preserve">
<path d="M6,0C2.7,0,0,2.7,0,6c0,3.3,2.7,6,6,6c3.3,0,6-2.7,6-6C12,2.7,9.3,0,6,0z M6,11.3c-2.9,0-5.3-2.4-5.3-5.3
	c0-2.9,2.4-5.3,5.3-5.3c2.9,0,5.3,2.4,5.3,5.3C11.3,8.9,8.9,11.3,6,11.3z"/>
<path d="M9.8,4.7c0-0.2-0.1-0.5-0.3-0.6C9.4,4.1,9.2,4,9.1,4C8.9,3.9,8.7,3.9,8.5,3.9c0,0,0,0,0,0C7.9,3.9,7.4,4,6.8,4
	C6.4,4,6.1,4,5.7,4C5.4,4,5.1,4,4.8,4C4.3,4,3.9,4.2,3.4,4.4c-0.1,0-0.2,0.1-0.2,0.1C3.1,4.5,3.1,4.3,3,4.3c-0.1,0-0.3,0-0.4,0
	c-0.1,0-0.1,0-0.2,0.1C2.4,4.4,2.3,4.5,2.3,4.6c0,0.1-0.1,0.1-0.2,0.1c0,0,0,0,0,0C2,4.7,2,4.6,1.9,4.6c-0.1-0.1-0.3-0.1-0.4,0
	C1.2,4.6,1.7,5,1.8,5.1c0.1,0,0.2,0,0.3,0c0,0,0,0,0,0.2c0,0.1,0,0.1,0,0.2c0,0,0.1,0.1,0.1,0.1c0,0.1,0,0.2,0.1,0.4
	c0,0.1,0,0.3,0,0.4c0,0.1-0.1,0.1-0.1,0.2c0,0.1,0,0.1,0,0.2c0,0,0.1,0,0.1,0.1c0.1,0,0.2,0,0.3,0c0.1,0,0.2,0,0.2-0.1
	c0-0.1,0-0.2,0.1-0.4C3.1,6.2,3.2,6.1,3.3,6c0,0,0.2,0.4,0.3,0.4C3.7,6.7,3.7,6.8,4,6.9c0.1,0,0.2,0,0.2,0.1c0,0,0,0,0.1,0
	c0,0,0,0,0,0c0,0,0,0,0,0c0,0.1,0.1,0.3,0.1,0.4c0,0.1,0,0.1,0.1,0.1c0,0,0,0,0,0c0.1,0.1,0,0.3,0,0.4c0,0.1,0,0.2-0.1,0.3
	C4.4,8.4,4.3,8.5,4.3,8.6c0.1,0,0.1,0,0.2,0c0.1,0,0.1,0,0.2-0.1c0,0,0,0,0-0.1c0.1-0.1,0.1-0.3,0.2-0.4c0-0.2,0-0.4,0-0.6
	c0-0.1,0-0.2,0-0.3c0,0.1,0,0.2,0,0.2c0,0.1,0,0.2,0,0.2c0,0.1,0,0.2,0,0.4C5,8,5,8.1,5,8.2c0,0.1,0,0.3,0,0.4c0,0-0.1,0.1-0.1,0.1
	C4.8,8.8,4.7,8.9,4.7,9c0,0,0.1,0,0.2,0.1C5,9,5.1,9,5.1,9c0-0.1,0-0.2,0.1-0.3C5.3,8.5,5.3,8.2,5.3,8c0-0.2,0-0.5,0-0.7
	c0,0,0.1-0.2,0.1-0.3c0,0,0,0,0.1,0c0.3,0,0.5,0.1,0.8,0c0.4,0,0.7-0.1,1.1-0.1c0.2,0,0.5,0,0.7,0.1c0.3,0.1,0.4,0.2,0.5,0.4
	c0,0.1,0,0.2,0,0.3c0,0.1,0,0.2,0,0.2c0,0.1-0.1,0.2-0.1,0.3c0,0.1,0,0.2-0.1,0.2C8.4,8.5,8.3,8.6,8.3,8.6c0,0.1-0.1,0.1-0.1,0.2
	c0,0.1,0.4,0,0.4,0s0.1-0.2,0.1-0.3c0.1,0,0.1,0,0.2,0c0-0.1,0-0.1,0-0.1c0,0,0-0.1,0-0.1c0-0.1,0.1-0.1,0.1-0.2
	C9,8,9.1,7.6,9.1,7.3c0.1,0.1,0,0.3,0.1,0.4c0.1,0.1,0.1,0.4,0.1,0.6c0,0.1-0.1,0.2-0.2,0.3C9,8.6,9,8.6,9,8.7c0,0,0.2,0.1,0.4,0
	c0,0,0,0,0.1-0.1c0.1-0.1,0.1,0,0.1-0.1c0,0,0.1,0,0.1,0c0.1-0.1,0-0.3,0-0.4c0-0.1,0-0.5,0-0.6c0,0,0.1-0.1,0.1-0.1
	c0-0.2,0-0.3,0-0.5c0-0.2,0-0.4,0-0.6c0-0.1,0-0.3,0-0.4c0-0.1,0-0.1,0-0.4C9.7,5.3,9.8,5,9.8,4.7z M9.4,6.5c0-0.1-0.1-0.3-0.1-0.4
	c0-0.2,0-0.3,0.1-0.5C9.5,5.9,9.4,6.2,9.4,6.5z"/>
<g>
</g>
<g>
</g>
<g>
</g>
<g>
</g>
<g>
</g>
<g>
</g>
<g>
</g>
<g>
</g>
<g>
</g>
<g>
</g>
<g>
</g>
<g>
</g>
<g>
</g>
<g>
</g>
<g>
</g>
</svg>
