<?xml version="1.0" encoding="utf-8"?>
<!-- Generator: Adobe Illustrator 18.1.1, SVG Export Plug-In . SVG Version: 6.00 Build 0)  -->
<svg version="1.1" id="Layer_1" xmlns="http://www.w3.org/2000/svg" xmlns:xlink="http://www.w3.org/1999/xlink" x="0px" y="0px"
	 viewBox="0 0 12 12" enable-background="new 0 0 12 12" xml:space="preserve">
<path d="M6,0C2.7,0,0,2.7,0,6c0,3.3,2.7,6,6,6c3.3,0,6-2.7,6-6C12,2.7,9.3,0,6,0z M6,11.3c-2.9,0-5.3-2.4-5.3-5.3
	c0-2.9,2.4-5.3,5.3-5.3c2.9,0,5.3,2.4,5.3,5.3C11.3,8.9,8.9,11.3,6,11.3z"/>
<path d="M9.8,5.1c0,0-0.1,0-0.1,0C9.7,5,9.7,5,9.6,4.9c-0.4-0.6-1.2-1-2.3-1c-1.1,0-2.2,0.2-2.8,0.4C3.9,4.4,3.8,4.6,3.6,4.6
	C3.5,4.7,3.3,4.8,3.2,4.9C3,4.8,2.9,4.8,2.7,4.7c-0.5,0-0.5-0.1-0.3,0.2c0,0.1,0.1,0.1,0.1,0.2c0,0-0.1,0-0.1,0.1
	C2,5.4,1.9,5.4,2.2,5.5c0.1,0.1,0.3,0.1,0.4,0.2c0,0,0,0,0,0c0,0.1-0.2,0.3-0.4,0.3C2.1,6.1,2.1,6.2,2,6.2c-0.1,0-0.1,0-0.1,0
	c0,0-0.2,0-0.2,0.1c0,0.1,0.1,0.2,0.1,0.3C1.9,6.7,2,6.7,2,6.7c0.1,0.1,0.2,0.1,0.6,0.2C3.1,6.9,3.5,6.9,4,7c0,0,0.1,0,0.1,0
	C4.1,7.3,4.3,7.7,4.3,8c0,0.3-0.1,0.4-0.3,0.6C3.8,8.6,3.8,8.7,4,8.6c0.2,0,0.3,0,0.3-0.2c0-0.1,0.1,0,0.1,0.1c0,0.1,0.1,0,0.1-0.1
	c0-0.1,0-0.4,0.1-0.5c0-0.1,0.1-0.2,0.1-0.4c0,0.1,0.1,0.2,0.1,0.3c0,0.1,0.1,0.1,0.1,0.3c0,0.1,0.1,0.4-0.2,0.6
	c-0.1,0.1-0.2,0.1,0,0.1c0.2,0,0.3,0,0.3-0.1c0-0.1,0.1-0.1,0.1,0c0,0.1,0.1,0.1,0.1,0c0-0.2,0-0.4,0-0.5c0-0.1,0.2-0.4,0.2-1
	c0,0,0,0,0,0c0.2,0,0.4,0,0.5,0.1c0.7,0.2,1.3,0.2,1.6,0.1c0.1,0,0.2,0,0.4,0c0,0,0,0,0,0c0,0.1,0.2,0.3,0.1,0.6C8,8,8,8.2,8,8.2
	c0,0.1-0.1,0.2-0.2,0.3c-0.1,0.1-0.1,0.1,0,0.1c0.1,0,0.3,0,0.3-0.1c0-0.1,0.1-0.1,0.1,0c0,0.1,0,0.1,0.1,0c0.1-0.2,0.1-0.3,0.1-0.5
	c0.1-0.2,0.2-0.4,0.2-0.6c0,0,0,0.1,0.1,0.1c0,0.1,0.2,0.3,0.1,0.6C8.7,8.2,8.7,8.3,8.7,8.3c0,0.1-0.1,0.2-0.2,0.3
	c-0.1,0.1-0.1,0.1,0,0.1c0.1,0,0.3,0,0.3-0.1c0-0.1,0.1-0.1,0.1,0c0,0.1,0,0.1,0.1,0C9,8.4,9,8.2,9,8.1c0.1-0.2,0.2-0.5,0.2-0.6
	c0-0.2,0-0.2,0.1-0.4C9.4,7,9.4,6.9,9.5,6.9c0.1-0.1,0.1-0.1,0.2-0.2c0.2-0.3,0.3-0.7,0.2-1.1c0,0,0,0,0.1-0.1
	C10.1,5.3,10.1,5,9.8,5.1z"/>
<g>
</g>
<g>
</g>
<g>
</g>
<g>
</g>
<g>
</g>
<g>
</g>
<g>
</g>
<g>
</g>
<g>
</g>
<g>
</g>
<g>
</g>
<g>
</g>
<g>
</g>
<g>
</g>
<g>
</g>
</svg>
