<?xml version="1.0" encoding="utf-8"?>
<!-- Generator: Adobe Illustrator 18.1.1, SVG Export Plug-In . SVG Version: 6.00 Build 0)  -->
<svg version="1.1" id="Layer_1" xmlns="http://www.w3.org/2000/svg" xmlns:xlink="http://www.w3.org/1999/xlink" x="0px" y="0px"
	 viewBox="0 0 12 12" enable-background="new 0 0 12 12" xml:space="preserve">
<path d="M0,6c0-3.3,2.7-6,6-6l0,0c3.3,0,6,2.7,6,6l0,0c0,3.3-2.7,6-6,6l0,0C2.7,12,0,9.3,0,6L0,6z M0.7,6c0,2.9,2.4,5.3,5.3,5.3l0,0
	c2.9,0,5.3-2.4,5.3-5.3l0,0c0-2.9-2.4-5.3-5.3-5.3l0,0C3.1,0.7,0.7,3.1,0.7,6L0.7,6z"/>
<path d="M6.4,3C5.6,3,5.3,5.2,5.3,7.6c0,0.4,0.2,0.5,0.3,0.5c0.1,0,0.4,0.1,0.5,0.2v2.3c0.2,0,0.3,0,0.5,0V3.2C6.5,3.1,6.4,3,6.4,3z
	"/>
<path d="M4,6.4c0.5-0.3,0.5-0.7,0.5-1.2c0-0.3-0.1-1.3-0.2-1.9c0-0.1,0-0.1,0-0.2c0-0.1,0-0.2-0.1-0.2H4v2.1c0,0.2-0.1,0.3-0.2,0.3
	c-0.1,0-0.2-0.1-0.2-0.3L3.5,3H3.2L3.2,5.2c0,0,0,0,0,0.1c0,0.1-0.1,0.2-0.2,0.2c-0.1,0-0.2-0.1-0.2-0.3V3H2.7
	C2.6,3,2.5,3.1,2.5,3.2c0,0.1,0,0.1,0,0.2C2.4,4,2.3,4.9,2.3,5.3c0,0.5,0,0.8,0.5,1.2c0.2,0.1,0.3,0.2,0.4,0.2v2.9
	c0.1,0.1,0.3,0.2,0.5,0.3V6.7C3.7,6.6,3.8,6.5,4,6.4z"/>
<path d="M9.1,6.4c0.4-0.3,0.5-0.6,0.6-1.1C9.8,4.8,9.5,3,8.5,3h0c-1,0-1.2,1.8-1.2,2.3c0,0.5,0.2,0.8,0.6,1.1
	c0.2,0.1,0.3,0.2,0.4,0.2v3.3c0.2-0.1,0.3-0.2,0.5-0.3V6.7C8.9,6.6,9,6.5,9.1,6.4z"/>
<g>
</g>
<g>
</g>
<g>
</g>
<g>
</g>
<g>
</g>
<g>
</g>
<g>
</g>
<g>
</g>
<g>
</g>
<g>
</g>
<g>
</g>
<g>
</g>
<g>
</g>
<g>
</g>
<g>
</g>
</svg>
