<?xml version="1.0" encoding="utf-8"?>
<!-- Generator: Adobe Illustrator 18.1.1, SVG Export Plug-In . SVG Version: 6.00 Build 0)  -->
<svg version="1.1" id="Layer_1" xmlns="http://www.w3.org/2000/svg" xmlns:xlink="http://www.w3.org/1999/xlink" x="0px" y="0px"
	 viewBox="0 0 12 12" enable-background="new 0 0 12 12" xml:space="preserve">
<path d="M0,6c0-3.3,2.7-6,6-6l0,0c3.3,0,6,2.7,6,6l0,0c0,3.3-2.7,6-6,6l0,0C2.7,12,0,9.3,0,6L0,6z M0.7,6c0,2.9,2.4,5.3,5.3,5.3l0,0
	c2.9,0,5.3-2.4,5.3-5.3l0,0c0-2.9-2.4-5.3-5.3-5.3l0,0C3.1,0.7,0.7,3.1,0.7,6L0.7,6z"/>
<g>
	<path d="M5,6c0.2,0,0.3-0.1,0.4-0.2c0.1-0.1,0.2-0.3,0.2-0.5c0-0.2-0.1-0.3-0.2-0.5l0,0l0,0C5.4,4.8,5.2,4.7,5,4.7
		c-0.2,0-0.3,0.1-0.5,0.2C4.5,5,4.4,5.2,4.4,5.3c0,0.2,0.1,0.3,0.2,0.5C4.7,5.9,4.9,6,5,6L5,6z M4.8,5.3c0-0.1,0-0.1,0.1-0.2
		c0,0,0.1-0.1,0.2-0.1c0.1,0,0.1,0,0.2,0.1c0,0,0.1,0.1,0.1,0.2c0,0.1,0,0.1-0.1,0.2l0,0l0,0c0,0-0.1,0.1-0.2,0.1
		c-0.1,0-0.1,0-0.2-0.1C4.8,5.5,4.8,5.4,4.8,5.3z"/>
	<path d="M7.1,6.2C6.9,6.1,6.8,6,6.6,6C6.4,6,6.3,6.1,6.2,6.2C6,6.3,6,6.5,6,6.7C6,6.9,6,7,6.2,7.1c0.1,0.1,0.3,0.2,0.4,0.2
		s0.3-0.1,0.4-0.2C7.2,7,7.2,6.9,7.2,6.7C7.2,6.5,7.2,6.3,7.1,6.2z M6.8,6.8c-0.1,0-0.1,0.1-0.2,0.1c-0.1,0-0.1,0-0.2-0.1
		c0-0.1-0.1-0.1-0.1-0.2c0-0.1,0-0.1,0.1-0.2c0,0,0.1-0.1,0.2-0.1c0.1,0,0.1,0,0.2,0.1c0.1,0,0.1,0.1,0.1,0.2
		C6.9,6.7,6.8,6.8,6.8,6.8z"/>
	<polygon points="6.3,4.7 4.9,7.3 5.3,7.3 5.3,7.3 6.7,4.7 	"/>
</g>
<path d="M9.9,8.4C9.8,8.1,9.1,8.2,9,8L8.9,7.9c0.2-0.6,0.5-1.2,0.6-1.3c0.1-0.3-0.1-0.5-0.1-0.5L8.8,7.5L8.2,6.1
	c0,0-0.2,0.2-0.1,0.5c0,0.1,0.3,0.7,0.6,1.3L8.5,8C8.5,8.2,7.8,8.1,7.7,8.4C7.5,8.7,7.6,9,7.9,9.1C8.1,9.2,8.3,9.2,8.4,9
	c0,0,0,0,0,0c0,0,0,0,0-0.1c0,0,0.1-0.3,0.3-0.7c0.2,0.4,0.3,0.7,0.3,0.7c0,0,0,0,0,0.1c0,0,0,0,0,0c0.1,0.2,0.4,0.2,0.6,0.1
	C9.9,9,10,8.7,9.9,8.4z M8.3,8.8C8.3,8.8,8.3,8.8,8.3,8.8C8.2,9,8.1,9.1,7.9,9C7.8,8.9,7.7,8.7,7.8,8.5C7.9,8.3,8,8.3,8.2,8.4
	c0.1,0,0.1,0.1,0.1,0.2C8.3,8.7,8.3,8.8,8.3,8.8z M9.6,9C9.5,9.1,9.3,9,9.3,8.8c0,0,0,0,0,0c0-0.1,0-0.2,0-0.2
	c0-0.1,0.1-0.2,0.1-0.2c0.1-0.1,0.3,0,0.4,0.2C9.8,8.7,9.8,8.9,9.6,9z"/>
<g>
	<path d="M3.2,8.4C3.1,8.2,3.1,8.1,3.1,7.9V7.8H2.7v0.1c0,0.2,0.1,0.5,0.2,0.7L3.2,8.4L3.2,8.4z"/>
	<path d="M3.4,8.6L3.2,8.9c0.2,0.1,0.5,0.2,0.7,0.2h0h0V8.7h0C3.7,8.7,3.6,8.7,3.4,8.6z"/>
	<path d="M3.2,3l0.2,0.4v0c0.1-0.1,0.3-0.1,0.5-0.1H4V2.8H3.9C3.7,2.8,3.4,2.9,3.2,3z"/>
	<rect x="2.7" y="6.7" width="0.4" height="0.7"/>
	<rect x="2.7" y="4.6" width="0.4" height="0.7"/>
	<path d="M8.6,4.1H9l0,0c0-0.3-0.1-0.5-0.2-0.7L8.4,3.6h0C8.5,3.8,8.6,3.9,8.6,4.1L8.6,4.1z"/>
	<path d="M7.7,2.8v0.4h0.1c0.2,0,0.3,0,0.5,0.1L8.4,3C8.2,2.9,8,2.8,7.7,2.8L7.7,2.8z"/>
	<rect x="4.4" y="8.7" width="0.7" height="0.4"/>
	<rect x="2.7" y="5.6" width="0.4" height="0.7"/>
	<path d="M3.1,4.1c0-0.2,0.1-0.3,0.1-0.5L2.9,3.4C2.7,3.6,2.7,3.8,2.7,4.1v0L3.1,4.1L3.1,4.1z"/>
	<rect x="4.4" y="2.8" width="0.7" height="0.4"/>
	<rect x="8.6" y="5.6" width="0.4" height="0.7"/>
	<rect x="8.6" y="4.6" width="0.4" height="0.7"/>
	<rect x="5.4" y="8.7" width="0.7" height="0.4"/>
	<rect x="5.5" y="2.8" width="0.7" height="0.4"/>
	<rect x="6.5" y="8.7" width="0.7" height="0.4"/>
	<rect x="6.6" y="2.8" width="0.7" height="0.4"/>
</g>
<g>
</g>
<g>
</g>
<g>
</g>
<g>
</g>
<g>
</g>
<g>
</g>
<g>
</g>
<g>
</g>
<g>
</g>
<g>
</g>
<g>
</g>
<g>
</g>
<g>
</g>
<g>
</g>
<g>
</g>
</svg>
