<?xml version="1.0" encoding="utf-8"?>
<!-- Generator: Adobe Illustrator 18.1.1, SVG Export Plug-In . SVG Version: 6.00 Build 0)  -->
<svg version="1.1" id="Layer_1" xmlns="http://www.w3.org/2000/svg" xmlns:xlink="http://www.w3.org/1999/xlink" x="0px" y="0px"
	 viewBox="0 0 12 12" enable-background="new 0 0 12 12" xml:space="preserve">
<path d="M0,6c0-3.3,2.7-6,6-6l0,0c3.3,0,6,2.7,6,6l0,0c0,3.3-2.7,6-6,6l0,0C2.7,12,0,9.3,0,6L0,6z M0.7,6c0,2.9,2.4,5.3,5.3,5.3l0,0
	c2.9,0,5.3-2.4,5.3-5.3l0,0c0-2.9-2.4-5.3-5.3-5.3l0,0C3.1,0.7,0.7,3.1,0.7,6L0.7,6z"/>
<polygon points="2.4,7.2 2.9,7.2 2.9,6.2 3.7,6.2 3.7,5.8 2.9,5.8 2.9,5.3 3.8,5.3 3.8,4.8 2.4,4.8 "/>
<path d="M5.5,6.1L5.5,6.1C5.7,6,5.9,5.8,5.9,5.5c0-0.2-0.1-0.4-0.2-0.5C5.5,4.9,5.3,4.8,4.9,4.8c-0.3,0-0.5,0-0.7,0v2.3h0.5V6.3h0.2
	c0.2,0,0.3,0.1,0.4,0.4c0.1,0.3,0.1,0.5,0.2,0.5H6c0-0.1-0.1-0.4-0.2-0.7C5.7,6.3,5.6,6.2,5.5,6.1z M4.9,5.9H4.7V5.2
	c0,0,0.1,0,0.2,0c0.2,0,0.4,0.1,0.4,0.3C5.4,5.7,5.2,5.9,4.9,5.9z"/>
<polygon points="6.8,6.2 7.7,6.2 7.7,5.8 6.8,5.8 6.8,5.3 7.7,5.3 7.7,4.8 6.3,4.8 6.3,7.2 7.8,7.2 7.8,6.8 6.8,6.8 "/>
<polygon points="8.7,6.8 8.7,6.2 9.5,6.2 9.5,5.8 8.7,5.8 8.7,5.3 9.6,5.3 9.6,4.8 8.1,4.8 8.1,7.2 9.6,7.2 9.6,6.8 "/>
<g>
</g>
<g>
</g>
<g>
</g>
<g>
</g>
<g>
</g>
<g>
</g>
<g>
</g>
<g>
</g>
<g>
</g>
<g>
</g>
<g>
</g>
<g>
</g>
<g>
</g>
<g>
</g>
<g>
</g>
</svg>
