<?xml version="1.0" encoding="utf-8"?>
<!-- Generator: Adobe Illustrator 18.1.1, SVG Export Plug-In . SVG Version: 6.00 Build 0)  -->
<svg version="1.1" id="Layer_1" xmlns="http://www.w3.org/2000/svg" xmlns:xlink="http://www.w3.org/1999/xlink" x="0px" y="0px"
	 viewBox="0 0 12 12" enable-background="new 0 0 12 12" xml:space="preserve">
<path d="M6,0C2.7,0,0,2.7,0,6c0,3.3,2.7,6,6,6c3.3,0,6-2.7,6-6C12,2.7,9.3,0,6,0z M6,11.3c-2.9,0-5.3-2.4-5.3-5.3
	c0-2.9,2.4-5.3,5.3-5.3c2.9,0,5.3,2.4,5.3,5.3C11.3,8.9,8.9,11.3,6,11.3z"/>
<path d="M8.1,2.7c0-0.1-0.1-0.2-0.3-0.1L6,3.9L4.2,2.6h0c-0.1-0.1-0.3,0-0.3,0.1L3.6,3.8L6,4l2.4-0.2L8.1,2.7z"/>
<path d="M3,8.7C3,8.8,3.1,9,3.2,9h2.3V5.6H3V8.7z"/>
<path d="M6.4,9h2.3C8.9,9,9,8.8,9,8.7V5.6H6.4V9z"/>
<line x1="5.6" y1="4" x2="5.6" y2="4"/>
<path d="M2.9,4C2.7,4,2.6,4.1,2.6,4.3v1h2.9V4l0,0H3.4H2.9z"/>
<line x1="6.4" y1="4" x2="6.5" y2="4"/>
<path d="M9.1,4H8.6H6.4l0,0v1.2h2.9v-1C9.4,4.1,9.3,4,9.1,4z"/>
<g>
</g>
<g>
</g>
<g>
</g>
<g>
</g>
<g>
</g>
<g>
</g>
<g>
</g>
<g>
</g>
<g>
</g>
<g>
</g>
<g>
</g>
<g>
</g>
<g>
</g>
<g>
</g>
<g>
</g>
</svg>
