<?xml version="1.0" encoding="utf-8"?>
<!-- Generator: Adobe Illustrator 18.1.1, SVG Export Plug-In . SVG Version: 6.00 Build 0)  -->
<svg version="1.1" id="Layer_1" xmlns="http://www.w3.org/2000/svg" xmlns:xlink="http://www.w3.org/1999/xlink" x="0px" y="0px"
	 viewBox="0 0 12 12" enable-background="new 0 0 12 12" xml:space="preserve">
<g>
	<path d="M0,6c0-3.3,2.7-6,6-6l0,0c3.3,0,6,2.7,6,6l0,0c0,3.3-2.7,6-6,6l0,0C2.7,12,0,9.3,0,6L0,6z M0.7,6c0,2.9,2.4,5.3,5.3,5.3
		l0,0c2.9,0,5.3-2.4,5.3-5.3l0,0c0-2.9-2.4-5.3-5.3-5.3l0,0C3.1,0.7,0.7,3.1,0.7,6L0.7,6z"/>
</g>
<rect x="2.9" y="6.2" width="2.7" height="3.3"/>
<rect x="6.4" y="6.2" width="2.7" height="3.3"/>
<path d="M8.2,4.4c0.1-0.1,0.1-0.1,0.2-0.2c0.7-0.7,0.3-1.3,0.1-1.4C8.4,2.6,8.1,2.5,7.9,2.5c-0.3,0-0.5,0.1-0.8,0.4
	C6.9,3.1,6.6,3.5,6.5,3.8C6.4,4,6.4,4.2,6.4,4.4h0v1.3h3V4.4H8.2z M7.5,3.3C7.7,3.1,7.8,3,7.9,3c0.1,0,0.2,0,0.2,0.1
	C8.2,3.2,8.4,3.4,8,3.8C7.7,4.1,7.3,4.3,7,4.3c0,0,0,0,0,0c0,0,0,0,0,0C6.9,4.2,7.1,3.7,7.5,3.3z"/>
<path d="M5.5,3.8C5.4,3.5,5.1,3.1,4.9,2.9C4.6,2.6,4.4,2.5,4.1,2.5c-0.2,0-0.4,0.1-0.6,0.3C3.3,2.9,2.9,3.5,3.6,4.2
	c0.1,0.1,0.1,0.1,0.2,0.2H2.6v1.3h3V4.4h0C5.6,4.2,5.6,4,5.5,3.8z M3.9,3.2C3.9,3.1,4,3,4.1,3c0.1,0,0.3,0.1,0.4,0.2
	c0.4,0.4,0.6,0.9,0.5,1c0,0,0,0,0,0c0,0,0,0,0,0c-0.2,0-0.7-0.2-1-0.5C3.6,3.4,3.8,3.2,3.9,3.2z"/>
<g>
</g>
<g>
</g>
<g>
</g>
<g>
</g>
<g>
</g>
<g>
</g>
<g>
</g>
<g>
</g>
<g>
</g>
<g>
</g>
<g>
</g>
<g>
</g>
<g>
</g>
<g>
</g>
<g>
</g>
</svg>
