<?xml version="1.0" encoding="utf-8"?>
<!-- Generator: Adobe Illustrator 18.1.1, SVG Export Plug-In . SVG Version: 6.00 Build 0)  -->
<svg version="1.1" id="Layer_1" xmlns="http://www.w3.org/2000/svg" xmlns:xlink="http://www.w3.org/1999/xlink" x="0px" y="0px"
	 viewBox="0 0 12 12" enable-background="new 0 0 12 12" xml:space="preserve">
<path d="M6,0C2.7,0,0,2.7,0,6c0,3.3,2.7,6,6,6c3.3,0,6-2.7,6-6C12,2.7,9.3,0,6,0z M6,11.3c-2.9,0-5.3-2.4-5.3-5.3
	c0-2.9,2.4-5.3,5.3-5.3c2.9,0,5.3,2.4,5.3,5.3C11.3,8.9,8.9,11.3,6,11.3z"/>
<path d="M6,2.4C4,2.4,2.4,4,2.4,6C2.4,8,4,9.6,6,9.6C8,9.6,9.6,8,9.6,6C9.6,4,8,2.4,6,2.4z M5.8,9.2c-0.1,0-0.3,0-0.4,0L5.3,9
	C5.2,8.9,5.1,8.8,5.1,8.7c0-0.1,0-0.1,0-0.2c0,0,0,0,0,0c0,0,0-0.1,0-0.1c0,0,0-0.1,0-0.1c0,0-0.1-0.1-0.2-0.1L4.6,7.9
	c0-0.1-0.1-0.1-0.1-0.2c0-0.1-0.1-0.1-0.2-0.2c0-0.1,0-0.1,0-0.2c0-0.1,0-0.2,0-0.3c0-0.1,0-0.1,0-0.2c0-0.1,0-0.2-0.1-0.3
	C4.1,6.5,4.1,6.4,4,6.4C4,6.3,3.9,6.2,3.8,6.2c0,0-0.1-0.1-0.1-0.1L3.6,5.7L3.4,5.3L3,4.9c0.4-1,1.2-1.7,2.2-1.9c0,0,0,0.1,0,0.1
	c0,0,0,0,0,0c0,0,0,0.1-0.1,0.1C5.1,3.2,5,3.2,5,3.2c-0.1,0-0.1,0.1-0.1,0.2c0,0,0,0.1-0.1,0.1c0,0,0,0,0,0c0,0,0,0,0.1,0
	c0.1,0,0.1,0.1,0.1,0c0,0,0,0,0,0c0,0,0-0.1,0.1-0.2l0.3-0.3c0,0,0.1,0,0.1-0.1C5.5,3,5.6,3,5.6,3c0,0,0.1-0.1,0.2-0.1c0,0,0,0,0,0
	C6,3,5.9,3.1,5.9,3.2c0,0.1,0,0.1,0,0.2c0,0.1,0,0.2,0,0.2c0,0,0,0.1,0,0.1c0,0.1-0.1,0.1-0.2,0.1c0,0,0,0,0,0c0,0,0,0,0,0
	c-0.1,0-0.1,0-0.1,0c0,0,0,0-0.1,0.1c0,0-0.1,0.1-0.1,0.1C5.4,4.1,5.4,4.2,5.3,4.2L5,4.6C4.9,4.7,4.8,4.8,4.7,4.8
	C4.7,4.9,4.6,4.9,4.6,5c0,0.1-0.1,0.2-0.1,0.2c0,0,0,0,0,0c0,0,0,0.1,0,0.1c0,0,0,0.1,0,0.2c0,0,0,0.1,0,0.1c-0.1,0-0.1,0.1-0.2,0.1
	c0,0,0,0-0.1,0C4.2,5.6,4.2,5.5,4.2,5.4c0-0.1,0-0.1,0-0.2c0,0,0-0.1,0-0.1c0,0,0-0.1,0-0.1c0,0,0,0,0,0C4,5.1,4,5.1,4,5.2
	c0,0,0,0,0,0.1c0,0,0,0.1,0,0.2c0,0.1,0,0.1,0,0.2l0.1,0.3l0.2,0.3c0,0.1,0.1,0.2,0.1,0.2c0,0,0,0,0,0c0.1,0,0.1,0,0.2-0.1l0.4,0
	c0,0,0.1,0,0.1,0c0,0,0.1,0,0.2,0.1c0.1,0,0.1,0.1,0.2,0.1c0.1,0.1,0.2,0.1,0.3,0.2c0.1,0.1,0.1,0.2,0.2,0.2C5.9,6.9,6,6.9,6.1,7
	c0,0,0.1,0,0.1,0.1c0,0,0.1,0,0.2,0c0.1,0,0.2,0.1,0.3,0.2c0.1,0,0.1,0.1,0.2,0.1c0,0.1,0,0.1,0,0.1c0,0,0,0.1,0,0.1
	c0,0.1-0.1,0.2-0.1,0.3c0,0-0.1,0.1-0.1,0.2c-0.1,0-0.1,0.1-0.2,0.1c0,0-0.1,0.1-0.1,0.1c0,0-0.1,0.1-0.1,0.2c0,0.1-0.1,0.1-0.1,0.2
	c0,0.1-0.1,0.1-0.2,0.1c0,0-0.1,0-0.1,0C5.8,9,5.8,8.9,5.8,9c0,0,0,0,0,0C5.8,9.1,5.8,9.1,5.8,9.2z M8.2,6.9
	C8.2,6.9,8.2,6.9,8.2,6.9C8.1,6.8,8,6.8,7.9,6.8c0,0,0,0-0.1,0H7.6c-0.1,0-0.1,0-0.2,0c0,0-0.1,0-0.1,0c0,0,0,0-0.1,0
	c-0.1,0-0.1-0.1-0.2-0.1c0,0-0.1-0.1-0.2-0.2c0-0.1,0-0.1,0-0.2c0-0.1-0.1-0.2-0.1-0.3c0-0.1,0-0.2,0-0.3c0,0,0,0,0-0.1
	c0-0.2,0.1-0.3,0.1-0.5C7,5.1,7.1,5,7.2,5c0.1-0.1,0.2-0.2,0.3-0.2c0,0,0.1,0,0.1,0c0,0,0.1,0,0.1,0c0,0,0.1,0,0.1,0.1
	c0,0,0.1,0.1,0.1,0.1C8,5,8,5,8,5C8,5,8.1,5,8.1,5c0,0,0.1-0.1,0.2-0.1c0,0,0,0,0,0c0,0,0,0,0,0c0,0,0-0.1,0-0.1c0,0,0-0.1,0.1-0.1
	c0,0,0,0,0,0c0,0,0,0,0.1,0c0,0,0,0,0,0c0,0,0,0,0.1-0.1c0,0,0,0-0.1,0c0,0-0.1-0.1-0.1-0.1c0,0-0.1,0-0.1,0c0,0-0.1,0-0.2,0h0l0,0
	C8.2,4.4,8.1,4.4,8,4.4c-0.1,0-0.2-0.1-0.2-0.1c0,0,0,0,0,0c0,0-0.1,0-0.1,0c0,0-0.1,0-0.1,0L7.3,4.5c0,0-0.1,0-0.1,0.1
	c0,0-0.1,0.1-0.1,0.1C7,4.6,7,4.6,7,4.5c0,0,0,0,0-0.1c0,0,0-0.1,0-0.1c0-0.1,0-0.1,0-0.2c0-0.1,0-0.1,0-0.2c0-0.1,0.1-0.1,0.1-0.2
	c0-0.1,0.1-0.1,0.1-0.2c0.1-0.1,0.1-0.2,0.1-0.3V3.2C7.7,3.3,8,3.5,8.3,3.8c0,0,0,0,0,0c0,0,0,0,0,0c0,0,0,0.1,0.1,0.1
	C8.4,4,8.4,4,8.5,4C8.7,4.3,8.8,4.6,9,4.8l0,0.1c0,0.1-0.1,0.2-0.1,0.2c0,0,0,0,0,0c0,0,0,0,0,0C9,5.2,9,5.3,9.1,5.3
	c0,0.2,0.1,0.4,0.1,0.7c0,0.9-0.4,1.8-1.1,2.4l0-0.6c0-0.1,0-0.2,0-0.3c0-0.1,0-0.3,0-0.4c0,0,0,0,0,0C8.2,7.1,8.2,7,8.2,6.9z"/>
<g>
</g>
<g>
</g>
<g>
</g>
<g>
</g>
<g>
</g>
<g>
</g>
<g>
</g>
<g>
</g>
<g>
</g>
<g>
</g>
<g>
</g>
<g>
</g>
<g>
</g>
<g>
</g>
<g>
</g>
</svg>
