<?xml version="1.0" encoding="utf-8"?>
<!-- Generator: Adobe Illustrator 18.1.1, SVG Export Plug-In . SVG Version: 6.00 Build 0)  -->
<svg version="1.1" id="Layer_1" xmlns="http://www.w3.org/2000/svg" xmlns:xlink="http://www.w3.org/1999/xlink" x="0px" y="0px"
	 viewBox="0 0 12 12" enable-background="new 0 0 12 12" xml:space="preserve">
<path d="M6,2.5C4.6,2.5,3.5,3.6,3.5,5c0,1.4,1.1,2.5,2.5,2.5c1.4,0,2.5-1.1,2.5-2.5C8.5,3.6,7.4,2.5,6,2.5z M6,7C4.9,7,4,6.1,4,5
	c0-1.1,0.9-2,2-2c1.1,0,2,0.9,2,2C8,6.1,7.1,7,6,7z"/>
<circle cx="4.5" cy="4.8" r="0.2"/>
<circle cx="4.9" cy="5.7" r="0.2"/>
<circle cx="5.9" cy="5.7" r="0.2"/>
<circle cx="5.4" cy="6.5" r="0.2"/>
<circle cx="6.3" cy="6.5" r="0.2"/>
<path d="M7.2,7.7C7.2,7.7,7.2,7.6,7.2,7.7l-2.3,0c0,0,0,0-0.1,0c0,0,0,0,0,0.1c0,0,0,0.2,0,0.4c0,0.1,0.2,0.3,0.4,0.5
	c0.2,0.2,0.4,0.6,0.4,1c0,0.2,0,0.6,0.1,1c0.1,0,0.3,0,0.4,0c0.1,0,0.3,0,0.4,0c0-0.4,0-0.8,0.1-1c0-0.4,0.2-0.8,0.4-1
	C7,8.4,7.2,8.3,7.2,8.1C7.2,8,7.2,7.7,7.2,7.7C7.2,7.7,7.2,7.7,7.2,7.7z"/>
<path d="M6,0C2.7,0,0,2.7,0,6c0,3.3,2.7,6,6,6c3.3,0,6-2.7,6-6S9.3,0,6,0z M6,11.3c-2.9,0-5.3-2.4-5.3-5.3c0-2.9,2.4-5.3,5.3-5.3
	c2.9,0,5.3,2.4,5.3,5.3C11.3,8.9,8.9,11.3,6,11.3z"/>
<g>
</g>
<g>
</g>
<g>
</g>
<g>
</g>
<g>
</g>
<g>
</g>
<g>
</g>
<g>
</g>
<g>
</g>
<g>
</g>
<g>
</g>
<g>
</g>
<g>
</g>
<g>
</g>
<g>
</g>
</svg>
