<?xml version="1.0" encoding="utf-8"?>
<!-- Generator: Adobe Illustrator 18.1.1, SVG Export Plug-In . SVG Version: 6.00 Build 0)  -->
<svg version="1.1" id="Layer_1" xmlns="http://www.w3.org/2000/svg" xmlns:xlink="http://www.w3.org/1999/xlink" x="0px" y="0px"
	 viewBox="0 0 12 12" enable-background="new 0 0 12 12" xml:space="preserve">
<path d="M0,6c0-3.3,2.7-6,6-6l0,0c3.3,0,6,2.7,6,6l0,0c0,3.3-2.7,6-6,6l0,0C2.7,12,0,9.3,0,6L0,6z M0.7,6c0,2.9,2.4,5.3,5.3,5.3l0,0
	c2.9,0,5.3-2.4,5.3-5.3l0,0c0-2.9-2.4-5.3-5.3-5.3l0,0C3.1,0.7,0.7,3.1,0.7,6L0.7,6z"/>
<path d="M3.1,4.7C3.1,4.7,3.1,4.7,3.1,4.7c0,0.2,0.1,0.3,0.2,0.5c0,0,0,0,0,0c0,0,0,0,0.1,0.1c0,0,0.1,0.1,0.1,0.1
	C3.6,5.5,3.8,5.5,4,5.5l0,0h0.2h0c0.2,0,0.3-0.1,0.5-0.2c0,0,0,0,0,0l0,0l0,0c0,0,0,0,0,0h0l0,0C4.6,5.2,4.5,5,4.5,4.7l0,0l0,0
	c0-0.1,0-0.1,0-0.1c0,0,0,0,0-0.1V4.2c0,0,0-0.1,0-0.1c0,0,0,0,0-0.1h0c0-0.3,0.1-0.5,0.3-0.7C4.6,3.2,4.5,3.2,4.3,3.2h0H4h0
	c-0.2,0-0.4,0.1-0.6,0.2c0,0,0,0,0,0c0,0-0.1,0.1-0.1,0.1C3.2,3.7,3.1,3.9,3.1,4.1c0,0,0,0,0,0c0,0,0,0,0,0.1c0,0,0,0,0,0.1v0.4
	C3.1,4.6,3.1,4.6,3.1,4.7C3.1,4.6,3.1,4.6,3.1,4.7z"/>
<path d="M5,4.7C5,4.7,5,4.7,5,4.7C5,4.8,5,5,5.1,5.1c0,0,0,0,0,0c0,0,0,0,0.1,0.1c0,0,0.1,0.1,0.1,0.1c0.2,0.1,0.4,0.2,0.6,0.2h0
	h0.2h0c0.2,0,0.3-0.1,0.5-0.2c0,0,0,0,0,0l0,0l0,0C6.5,5.2,6.4,4.9,6.4,4.7l0,0l0,0c0,0,0-0.1,0-0.1c0,0,0,0,0-0.1V4.2
	c0,0,0-0.1,0-0.1c0,0,0,0,0-0.1l0,0l0,0c0-0.3,0.1-0.5,0.3-0.7C6.5,3.2,6.3,3.2,6.1,3.2l0,0H5.9l0,0c-0.2,0-0.4,0.1-0.6,0.2
	c0,0,0,0,0,0c0,0-0.1,0.1-0.1,0.1C5,3.7,5,3.9,5,4.1c0,0,0,0,0,0c0,0,0,0,0,0.1c0,0,0,0,0,0.1v0.4C5,4.6,5,4.6,5,4.7
	C5,4.6,5,4.6,5,4.7z"/>
<path d="M6.8,4.7C6.8,4.7,6.8,4.7,6.8,4.7C6.8,4.8,6.9,5,7,5.1c0,0,0,0,0,0c0,0,0,0,0.1,0.1c0,0,0.1,0.1,0.1,0.1
	c0.2,0.1,0.4,0.2,0.6,0.2l0,0H8h0c0.2,0,0.4-0.1,0.6-0.2c0,0,0.1-0.1,0.1-0.1c0,0,0,0,0.1-0.1c0,0,0,0,0,0C8.8,5,8.9,4.8,8.9,4.7
	c0,0,0,0,0,0c0,0,0,0,0-0.1c0,0,0,0,0-0.1V4.2c0,0,0,0,0-0.1c0,0,0,0,0-0.1c0,0,0,0,0,0c0-0.2-0.1-0.4-0.2-0.5
	c0-0.1-0.1-0.1-0.1-0.1c0,0,0,0,0,0C8.4,3.2,8.2,3.2,8,3.2h0H7.7l0,0c-0.2,0-0.4,0.1-0.6,0.2c0,0,0,0,0,0c0,0-0.1,0.1-0.1,0.1
	C6.9,3.7,6.8,3.9,6.8,4.1c0,0,0,0,0,0c0,0,0,0,0,0.1c0,0,0,0,0,0.1v0.4C6.8,4.6,6.8,4.6,6.8,4.7C6.8,4.6,6.8,4.6,6.8,4.7z"/>
<path d="M4.1,6H3.6c-1,0-1.5,0.5-1.5,1.3l0,1.1c0,0.1,0.1,0.2,0.2,0.2h1c0.1,0,0.2-0.1,0.2-0.2l0-1.1C3.5,6.8,3.7,6.4,4.1,6
	C4,6,4.1,6,4.1,6z"/>
<path d="M5.9,6H5.4C4.5,6,4,6.5,4,7.4l0,1.1C4,8.6,4,8.6,4.1,8.6h1c0.1,0,0.2-0.1,0.2-0.2l0-1.1C5.4,6.8,5.5,6.4,5.9,6
	C5.9,6,5.9,6,5.9,6z"/>
<path d="M9.9,7.4C9.9,6.5,9.4,6,8.4,6H7.3c-1,0-1.5,0.5-1.5,1.3l0,1.1c0,0.1,0.1,0.2,0.2,0.2h3.7c0.1,0,0.2-0.1,0.2-0.2L9.9,7.4
	L9.9,7.4z"/>
<g>
</g>
<g>
</g>
<g>
</g>
<g>
</g>
<g>
</g>
<g>
</g>
<g>
</g>
<g>
</g>
<g>
</g>
<g>
</g>
<g>
</g>
<g>
</g>
<g>
</g>
<g>
</g>
<g>
</g>
</svg>
