<?xml version="1.0" encoding="utf-8"?>
<!-- Generator: Adobe Illustrator 18.1.1, SVG Export Plug-In . SVG Version: 6.00 Build 0)  -->
<svg version="1.1" id="Layer_1" xmlns="http://www.w3.org/2000/svg" xmlns:xlink="http://www.w3.org/1999/xlink" x="0px" y="0px"
	 viewBox="0 0 12 12" enable-background="new 0 0 12 12" xml:space="preserve">
<path d="M6,0C2.7,0,0,2.7,0,6c0,3.3,2.7,6,6,6c3.3,0,6-2.7,6-6C12,2.7,9.3,0,6,0z M6,11.3c-2.9,0-5.3-2.4-5.3-5.3
	c0-2.9,2.4-5.3,5.3-5.3c2.9,0,5.3,2.4,5.3,5.3C11.3,8.9,8.9,11.3,6,11.3z"/>
<path d="M8.3,4.4H8.1c-0.2,0-0.3,0.1-0.3,0.3l0,0.2H7.4l0-0.7c0-0.2-0.1-0.3-0.3-0.3H6.9C6.7,3.9,6.5,4,6.5,4.2l0,0l0,0l0,0.6H6.2
	V3.9c0-0.2-0.1-0.3-0.3-0.3H5.7c-0.2,0-0.3,0.1-0.3,0.3l0,0.8H5L5,2c0-0.2-0.1-0.3-0.3-0.3H4.5C4.3,1.7,4.1,1.8,4.1,2l0,4.6H3.8V5.7
	c0,0-0.3-0.6-0.3-0.7C3.5,4.8,2.9,4.4,2.6,4.6C2.5,4.6,2.4,4.7,2.5,5c0.1,0.3,1,2.5,1,2.5C3.6,7.6,3.7,7.8,3.8,8l0,0
	c0.1,0.3,0.8,1.1,0.8,1.4v0.1c0,0,0,0.1,0,0.1c0,0.2,0.2,0.3,0.4,0.3h2.6C7.8,9.9,8,9.7,8,9.6c0,0,0-0.1,0-0.1V9.3
	c0-0.2,0.1-0.5,0.2-0.7c0-0.1,0.1-0.2,0.1-0.3c0,0,0.3-0.6,0.3-1.2c0-0.1,0-0.1,0-0.2c0-0.6,0-2.2,0-2.2C8.7,4.5,8.5,4.4,8.3,4.4z"
	/>
<g>
</g>
<g>
</g>
<g>
</g>
<g>
</g>
<g>
</g>
<g>
</g>
<g>
</g>
<g>
</g>
<g>
</g>
<g>
</g>
<g>
</g>
<g>
</g>
<g>
</g>
<g>
</g>
<g>
</g>
</svg>
