<?xml version="1.0" encoding="utf-8"?>
<!-- Generator: Adobe Illustrator 18.1.1, SVG Export Plug-In . SVG Version: 6.00 Build 0)  -->
<svg version="1.1" id="Layer_1" xmlns="http://www.w3.org/2000/svg" xmlns:xlink="http://www.w3.org/1999/xlink" x="0px" y="0px"
	 viewBox="0 0 12 12" enable-background="new 0 0 12 12" xml:space="preserve">
<path d="M6,0C2.7,0,0,2.7,0,6c0,3.3,2.7,6,6,6c3.3,0,6-2.7,6-6C12,2.7,9.3,0,6,0z M6,11.3c-2.9,0-5.3-2.4-5.3-5.3
	c0-2.9,2.4-5.3,5.3-5.3c2.9,0,5.3,2.4,5.3,5.3C11.3,8.9,8.9,11.3,6,11.3z"/>
<path d="M9.7,5.2C9.6,5.1,9.6,5,9.5,5l-0.1,0c-0.1,0-0.1,0-0.2,0c0,0-0.1,0-0.1,0C9,5,8.9,5,8.9,5.1L8.1,6.6l0,0
	c0,0-0.1,0.1-0.1,0.1c0,0,0,0-0.1,0c0,0-0.1,0-0.1,0c-0.1,0-0.1-0.1-0.1-0.2c0,0,0,0,0,0l0,0V3c0-0.2-0.2-0.4-0.4-0.4H7.3
	C7.1,2.6,6.9,2.8,6.9,3v2.3c0,0.1-0.1,0.2-0.2,0.2c-0.1,0-0.2-0.1-0.2-0.2l0-2.8c0-0.2-0.2-0.4-0.4-0.4H6.1c-0.2,0-0.4,0.2-0.4,0.4
	V3v2.3c0,0.1-0.1,0.2-0.2,0.2c-0.1,0-0.2-0.1-0.2-0.2V3c0-0.2-0.2-0.4-0.4-0.4H4.8C4.6,2.6,4.5,2.8,4.5,3v2.3c0,0.1-0.1,0.2-0.2,0.2
	c-0.1,0-0.2-0.1-0.2-0.2V3.6c0-0.2-0.2-0.4-0.4-0.4H3.6c-0.2,0-0.4,0.2-0.4,0.4l0,4.5c0,0.4,0.1,0.8,0.4,1.1c0.2,0.3,0.6,0.4,1,0.4
	l1.7,0c0.6,0,0.9,0,1.3-0.2c0.3-0.2,0.5-0.5,0.8-0.9l0.3-0.6c0.5-1.1,0.8-1.7,0.9-2c0.1-0.2,0.1-0.2,0.1-0.3c0,0,0,0,0,0
	c0,0,0,0,0,0c0-0.1,0-0.1,0-0.2C9.7,5.3,9.7,5.3,9.7,5.2z"/>
<g>
</g>
<g>
</g>
<g>
</g>
<g>
</g>
<g>
</g>
<g>
</g>
<g>
</g>
<g>
</g>
<g>
</g>
<g>
</g>
<g>
</g>
<g>
</g>
<g>
</g>
<g>
</g>
<g>
</g>
</svg>
