<?xml version="1.0" encoding="utf-8"?>
<!-- Generator: Adobe Illustrator 18.1.1, SVG Export Plug-In . SVG Version: 6.00 Build 0)  -->
<svg version="1.1" id="Layer_1" xmlns="http://www.w3.org/2000/svg" xmlns:xlink="http://www.w3.org/1999/xlink" x="0px" y="0px"
	 viewBox="0 0 12 12" enable-background="new 0 0 12 12" xml:space="preserve">
<path d="M0,6c0-3.3,2.7-6,6-6l0,0c3.3,0,6,2.7,6,6l0,0c0,3.3-2.7,6-6,6l0,0C2.7,12,0,9.3,0,6L0,6z M0.7,6c0,2.9,2.4,5.3,5.3,5.3l0,0
	c2.9,0,5.3-2.4,5.3-5.3l0,0c0-2.9-2.4-5.3-5.3-5.3l0,0C3.1,0.7,0.7,3.1,0.7,6L0.7,6z"/>
<path d="M9.5,5.2L9.1,5.1C9.1,3.4,7.7,2,6,2C4.3,2,2.9,3.4,2.9,5.1L2.6,5.2C2.4,5.3,2.2,5.5,2.2,5.7v0.8c0,0.2,0.2,0.4,0.4,0.5
	l0.4,0.1c0.2,1.3,1.2,2.3,2.4,2.5c0.1,0.1,0.2,0.2,0.4,0.2h0.6c0.2,0,0.4-0.2,0.4-0.4V9.3c0-0.2-0.2-0.4-0.4-0.4H5.7
	C5.6,8.9,5.5,9,5.4,9.1C4.3,8.8,3.5,7.8,3.5,6.6c0-0.4,0-1.5,0-1.5c0-1.4,1.1-2.5,2.5-2.5c1.4,0,2.5,1.1,2.5,2.5c0,0.4,0,1.8,0,1.8
	c0,0.2,0.2,0.3,0.4,0.2L9.5,7c0.2-0.1,0.4-0.3,0.4-0.5V5.7C9.8,5.5,9.6,5.3,9.5,5.2z"/>
<g>
</g>
<g>
</g>
<g>
</g>
<g>
</g>
<g>
</g>
<g>
</g>
<g>
</g>
<g>
</g>
<g>
</g>
<g>
</g>
<g>
</g>
<g>
</g>
<g>
</g>
<g>
</g>
<g>
</g>
</svg>
