<?xml version="1.0" encoding="utf-8"?>
<!-- Generator: Adobe Illustrator 18.1.1, SVG Export Plug-In . SVG Version: 6.00 Build 0)  -->
<svg version="1.1" id="Layer_1" xmlns="http://www.w3.org/2000/svg" xmlns:xlink="http://www.w3.org/1999/xlink" x="0px" y="0px"
	 viewBox="0 0 12 12" enable-background="new 0 0 12 12" xml:space="preserve">
<path d="M6,0C2.7,0,0,2.7,0,6c0,3.3,2.7,6,6,6c3.3,0,6-2.7,6-6C12,2.7,9.3,0,6,0z M6,11.3c-2.9,0-5.3-2.4-5.3-5.3
	c0-2.9,2.4-5.3,5.3-5.3c2.9,0,5.3,2.4,5.3,5.3C11.3,8.9,8.9,11.3,6,11.3z"/>
<path d="M5.9,8.4c-0.2,0-0.4,0.1-0.5,0.2C5.2,8.8,5.1,9,5.2,9.2c0,0.2,0.1,0.4,0.2,0.5c0.1,0.1,0.3,0.2,0.5,0.2c0,0,0,0,0,0
	c0.2,0,0.4-0.1,0.5-0.2c0.1-0.1,0.2-0.3,0.2-0.5c0-0.2-0.1-0.4-0.2-0.5C6.2,8.5,6.1,8.4,5.9,8.4z"/>
<path d="M7.6,3C7.2,2.7,6.6,2.5,6,2.5C5.3,2.5,4.8,2.7,4.4,3C4,3.3,3.8,3.7,3.8,4.1c0,0.3,0.1,0.5,0.3,0.6C4.2,4.9,4.4,5,4.7,5
	c0.2,0,0.4-0.1,0.5-0.2c0.1-0.1,0.2-0.3,0.2-0.5c0-0.2-0.1-0.4-0.4-0.6C4.9,3.7,4.8,3.6,4.8,3.6c0-0.1,0.1-0.2,0.3-0.3
	c0.2-0.1,0.4-0.2,0.7-0.2c0.3,0,0.6,0.1,0.8,0.3C6.8,3.6,7,3.9,7,4.2c0,0.3,0,0.5-0.1,0.7C6.8,5.2,6.6,5.4,6.4,5.7
	C6.1,6,5.9,6.3,5.8,6.4C5.7,6.5,5.7,6.7,5.6,7c0,0.2-0.1,0.5-0.1,0.9l0,0h0.5l0,0c0-0.5,0.1-0.8,0.2-1c0.1-0.2,0.4-0.5,1-0.9
	c0.4-0.3,0.7-0.6,0.8-0.8c0.1-0.3,0.2-0.6,0.2-0.9C8.3,3.8,8,3.3,7.6,3z"/>
<g>
</g>
<g>
</g>
<g>
</g>
<g>
</g>
<g>
</g>
<g>
</g>
<g>
</g>
<g>
</g>
<g>
</g>
<g>
</g>
<g>
</g>
<g>
</g>
<g>
</g>
<g>
</g>
<g>
</g>
</svg>
