<?xml version="1.0" encoding="utf-8"?>
<!-- Generator: Adobe Illustrator 18.1.1, SVG Export Plug-In . SVG Version: 6.00 Build 0)  -->
<svg version="1.1" id="Layer_1" xmlns="http://www.w3.org/2000/svg" xmlns:xlink="http://www.w3.org/1999/xlink" x="0px" y="0px"
	 viewBox="0 0 12 12" enable-background="new 0 0 12 12" xml:space="preserve">
<path d="M6,0C2.7,0,0,2.7,0,6c0,3.3,2.7,6,6,6c3.3,0,6-2.7,6-6S9.3,0,6,0z M6,11.3c-2.9,0-5.3-2.4-5.3-5.3c0-2.9,2.4-5.3,5.3-5.3
	c2.9,0,5.3,2.4,5.3,5.3C11.3,8.9,8.9,11.3,6,11.3z"/>
<polygon points="4.9,2.7 2.1,5.5 2.9,5.5 2.9,8.6 4.2,8.6 4.2,6.2 5.6,6.2 5.6,8.6 6.9,8.6 6.9,5.5 7.7,5.5 "/>
<polygon points="7.3,5.9 7.3,5.9 7.3,8.6 7.3,8.6 9.1,8.6 9.1,5.9 7.7,5.9 "/>
<polygon points="7.1,2.7 5.4,2.7 8.2,5.5 9.1,5.5 9.9,5.5 "/>
<g>
</g>
<g>
</g>
<g>
</g>
<g>
</g>
<g>
</g>
<g>
</g>
<g>
</g>
<g>
</g>
<g>
</g>
<g>
</g>
<g>
</g>
<g>
</g>
<g>
</g>
<g>
</g>
<g>
</g>
</svg>
