<?xml version="1.0" encoding="utf-8"?>
<!-- Generator: Adobe Illustrator 18.1.1, SVG Export Plug-In . SVG Version: 6.00 Build 0)  -->
<svg version="1.1" id="Layer_1" xmlns="http://www.w3.org/2000/svg" xmlns:xlink="http://www.w3.org/1999/xlink" x="0px" y="0px"
	 viewBox="0 0 12 12" enable-background="new 0 0 12 12" xml:space="preserve">
<path d="M6,0C2.7,0,0,2.7,0,6c0,3.3,2.7,6,6,6c3.3,0,6-2.7,6-6C12,2.7,9.3,0,6,0z M6,11.3c-2.9,0-5.3-2.4-5.3-5.3
	c0-2.9,2.4-5.3,5.3-5.3c2.9,0,5.3,2.4,5.3,5.3C11.3,8.9,8.9,11.3,6,11.3z"/>
<path d="M9.5,5.3L8.9,4.8V3.5c0-0.1-0.1-0.2-0.2-0.2H8c-0.1,0-0.2,0.1-0.2,0.2v0.4L6.1,2.5C6,2.5,5.9,2.5,5.8,2.5L2.3,5.3v0
	c0,0,0,0,0,0C2.2,5.4,2.2,5.5,2.4,5.5H3v3.3h0.9V6.5h1.5v2.3h3.6V5.5h0.5C9.7,5.5,9.7,5.4,9.5,5.3z M7.8,6.8H6.5V5.5h1.3V6.8z"/>
<g>
</g>
<g>
</g>
<g>
</g>
<g>
</g>
<g>
</g>
<g>
</g>
<g>
</g>
<g>
</g>
<g>
</g>
<g>
</g>
<g>
</g>
<g>
</g>
<g>
</g>
<g>
</g>
<g>
</g>
</svg>
