<?xml version="1.0" encoding="utf-8"?>
<!-- Generator: Adobe Illustrator 18.1.1, SVG Export Plug-In . SVG Version: 6.00 Build 0)  -->
<svg version="1.1" id="Layer_1" xmlns="http://www.w3.org/2000/svg" xmlns:xlink="http://www.w3.org/1999/xlink" x="0px" y="0px"
	 viewBox="0 0 12 12" enable-background="new 0 0 12 12" xml:space="preserve">
<path d="M6,0C2.7,0,0,2.7,0,6c0,3.3,2.7,6,6,6c3.3,0,6-2.7,6-6C12,2.7,9.3,0,6,0z M6,11.3c-2.9,0-5.3-2.4-5.3-5.3
	c0-2.9,2.4-5.3,5.3-5.3c2.9,0,5.3,2.4,5.3,5.3C11.3,8.9,8.9,11.3,6,11.3z"/>
<path d="M7.1,8.6C6.9,8.7,6.7,8.9,6.5,8.9l0,0C6.4,9,6.3,9,6.3,9c-0.1,0-0.1,0-0.1,0c0,0,0,0-0.1-0.1c0,0,0-0.1,0-0.1
	c0,0,0-0.1,0-0.2C6.2,8.4,7,5.9,7,5.7c0-0.1,0.1-0.3,0.1-0.4c0,0,0,0,0,0c0-0.3-0.1-0.6-0.4-0.8C6.5,4.5,6.4,4.4,6.2,4.4
	c0,0-0.1,0-0.1,0c-0.2,0-0.3,0-0.5,0.1C5.2,4.6,4.8,4.9,4.4,5.2c0,0-0.1,0.1-0.1,0.1c-0.1,0.1-0.1,0.2,0,0.2c0.1,0.1,0.2,0.1,0.3,0
	c0.2-0.2,0.4-0.3,0.6-0.4c0.1,0,0.1,0,0.2,0c0.1,0,0.1,0,0.1,0c0,0,0,0,0.1,0.1c0,0,0,0.1,0,0.1c0,0,0,0.1,0,0.2
	C5.5,5.6,4.8,8.1,4.7,8.3c0,0.1-0.1,0.3-0.1,0.4c0,0,0,0,0,0c0,0.3,0.1,0.6,0.4,0.8c0.1,0.1,0.3,0.1,0.4,0.1c0,0,0.1,0,0.1,0
	c0.2,0,0.3,0,0.5-0.1l0,0C6.5,9.4,7,9.2,7.3,8.8c0,0,0.1-0.1,0.1-0.1c0.1-0.1,0.1-0.2,0-0.2C7.3,8.5,7.2,8.5,7.1,8.6z"/>
<circle cx="6.8" cy="3.2" r="0.9"/>
<g>
</g>
<g>
</g>
<g>
</g>
<g>
</g>
<g>
</g>
<g>
</g>
<g>
</g>
<g>
</g>
<g>
</g>
<g>
</g>
<g>
</g>
<g>
</g>
<g>
</g>
<g>
</g>
<g>
</g>
</svg>
