<?xml version="1.0" encoding="utf-8"?>
<!-- Generator: Adobe Illustrator 18.1.1, SVG Export Plug-In . SVG Version: 6.00 Build 0)  -->
<svg version="1.1" id="Layer_1" xmlns="http://www.w3.org/2000/svg" xmlns:xlink="http://www.w3.org/1999/xlink" x="0px" y="0px"
	 viewBox="0 0 12 12" enable-background="new 0 0 12 12" xml:space="preserve">
<path d="M4.2,3.4c0,0.1,0,0.2,0,0.3c0,0,0,0,0,0c0,0,0,0.1,0,0.1c0,0,0,0.1,0,0.1v0.7c0,0,0,0.1,0,0.1c0,0,0,0.1,0,0.1c0,0,0,0,0,0
	c0,0.3,0.1,0.5,0.3,0.8c0,0,0,0,0,0c0,0,0.1,0.1,0.1,0.1c0.1,0.1,0.1,0.2,0.2,0.2c0.3,0.2,0.6,0.4,1,0.4h0.4h0c0.4,0,0.7-0.1,1-0.4
	c0.1-0.1,0.2-0.1,0.2-0.2c0,0,0.1-0.1,0.1-0.1c0,0,0,0,0,0C7.7,5.3,7.8,5,7.8,4.7c0,0,0,0,0,0c0,0,0-0.1,0-0.1c0,0,0-0.1,0-0.1V3.9
	c0,0,0-0.1,0-0.1c0,0,0-0.1,0-0.1c0,0,0,0,0,0c0-0.1,0-0.2,0-0.3L8.1,3C8.2,2.9,8.2,2.7,8,2.6L6.3,1.4c-0.2-0.1-0.4-0.1-0.6,0L4,2.6
	C3.8,2.7,3.8,2.9,3.9,3L4.2,3.4z M4.4,3.6c0,0,0.1-0.1,0.1-0.1l0,0l0,0c0.1,0.1,0.2,0.2,0.3,0.2c0,0,0.1,0,0.1,0c0,0,0,0,0,0
	c0.3-0.1,0.6-0.2,1-0.2c0.4,0,0.7,0.1,1,0.2c0,0,0,0,0,0c0,0,0.1,0,0.1,0c0.1,0,0.2-0.1,0.3-0.2l0,0l0,0c0,0,0.1,0.1,0.1,0.1
	c0,0,0,0,0,0L7.6,3.8l0,0C7.5,3.9,7.4,4,7.2,4c0,0-0.1,0-0.1,0c0,0,0,0-0.1,0C6.7,3.8,6.4,3.7,6,3.7C5.6,3.7,5.3,3.8,5,4
	c0,0,0,0,0,0c0,0-0.1,0-0.1,0C4.7,4,4.5,3.9,4.5,3.8l0,0L4.4,3.6C4.4,3.6,4.4,3.6,4.4,3.6z"/>
<path d="M5.6,10.2c-0.1-0.1-0.3-0.2-0.3-0.3l0,0L4,9.8l0,0.1c0,0.2,0.1,0.3,0.1,0.5c0.5,0.2,1,0.3,1.6,0.4L5.6,10.2L5.6,10.2z"/>
<path d="M9.4,9c0-1.4-0.9-2.2-2.4-2.2H5.1C3.5,6.8,2.7,7.7,2.6,9v0.3c0.3,0.3,0.6,0.6,1,0.8c0-0.2-0.1-0.4-0.1-0.5
	c0-1.4,1.1-2.4,2.4-2.4c1.4,0,2.4,1.1,2.4,2.4c0,0.2,0,0.4-0.1,0.5c0.4-0.2,0.7-0.5,1-0.8L9.4,9L9.4,9z"/>
<path d="M6.7,9.9c-0.1,0.1-0.2,0.3-0.3,0.3l0,0l0,0.5c0.6,0,1.1-0.2,1.6-0.4C7.9,10.2,8,10,8,9.9l0-0.1L6.7,9.9L6.7,9.9z"/>
<path d="M6,7.5L6,7.5L6,7.5c-1,0-1.9,0.7-2,1.7l0,0.1l1.3-0.1l0,0C5.4,8.9,5.7,8.7,6,8.7c0.3,0,0.6,0.2,0.7,0.4l0,0L8,9.3l0-0.1
	C7.9,8.2,7,7.5,6,7.5z"/>
<path d="M6,0C2.7,0,0,2.7,0,6c0,3.3,2.7,6,6,6c3.3,0,6-2.7,6-6C12,2.7,9.3,0,6,0z M6,11.3c-2.9,0-5.3-2.4-5.3-5.3
	c0-2.9,2.4-5.3,5.3-5.3c2.9,0,5.3,2.4,5.3,5.3C11.3,8.9,8.9,11.3,6,11.3z"/>
<g>
</g>
<g>
</g>
<g>
</g>
<g>
</g>
<g>
</g>
<g>
</g>
<g>
</g>
<g>
</g>
<g>
</g>
<g>
</g>
<g>
</g>
<g>
</g>
<g>
</g>
<g>
</g>
<g>
</g>
</svg>
