<?xml version="1.0" encoding="utf-8"?>
<!-- Generator: Adobe Illustrator 18.1.1, SVG Export Plug-In . SVG Version: 6.00 Build 0)  -->
<svg version="1.1" id="Layer_1" xmlns="http://www.w3.org/2000/svg" xmlns:xlink="http://www.w3.org/1999/xlink" x="0px" y="0px"
	 viewBox="0 0 12 12" enable-background="new 0 0 12 12" xml:space="preserve">
<path d="M6,0C2.7,0,0,2.7,0,6c0,3.3,2.7,6,6,6c3.3,0,6-2.7,6-6C12,2.7,9.3,0,6,0z M6,11.3c-2.9,0-5.3-2.4-5.3-5.3
	c0-2.9,2.4-5.3,5.3-5.3c2.9,0,5.3,2.4,5.3,5.3C11.3,8.9,8.9,11.3,6,11.3z"/>
<path d="M4.2,4.7C4.2,4.7,4.2,4.7,4.2,4.7c0,0.3,0.1,0.6,0.3,0.8c0,0,0,0,0,0c0,0,0.1,0.1,0.1,0.1c0.1,0.1,0.1,0.2,0.2,0.2
	c0.3,0.2,0.6,0.4,1,0.4h0.4h0c0.4,0,0.7-0.1,1-0.4c0.1-0.1,0.2-0.1,0.2-0.2c0,0,0.1-0.1,0.1-0.1c0,0,0,0,0,0C7.7,5.3,7.8,5,7.8,4.7
	c0,0,0,0,0,0c0,0,0-0.1,0-0.1c0,0,0-0.1,0-0.1V3.9c0,0,0-0.1,0-0.1c0,0,0-0.1,0-0.1c0,0,0,0,0,0c0-0.3-0.2-0.6-0.3-0.9
	C7.4,2.7,7.3,2.6,7.3,2.6c0,0,0,0,0,0C7.1,2.4,6.9,2.3,6.7,2.2c0,0,0,0.1,0,0.1c0,0.8-0.6,1.4-1.4,1.4c-0.4,0-0.8-0.2-1-0.5
	c0,0.1-0.1,0.3-0.1,0.4c0,0,0,0,0,0c0,0,0,0.1,0,0.1c0,0,0,0.1,0,0.1v0.7C4.2,4.6,4.2,4.6,4.2,4.7C4.2,4.7,4.2,4.7,4.2,4.7z"/>
<path d="M5.3,3.4c0.6,0,1-0.5,1-1c0-0.6-0.5-1-1-1c-0.6,0-1,0.5-1,1C4.3,2.9,4.7,3.4,5.3,3.4z M5.3,2c0.2,0,0.3,0.1,0.3,0.3
	S5.5,2.7,5.3,2.7C5.1,2.7,5,2.5,5,2.4S5.1,2,5.3,2z"/>
<path d="M9.4,9c0-1.4-0.9-2.2-2.4-2.2H5.1C3.5,6.8,2.7,7.7,2.6,9v0.3c0.9,0.9,2.1,1.4,3.4,1.4c1.3,0,2.5-0.5,3.4-1.4L9.4,9L9.4,9z
	 M7.3,9.1H6.3V10H5.7V9.1H4.8V8.5h0.9V7.5h0.6v0.9h0.9V9.1z"/>
<g>
</g>
<g>
</g>
<g>
</g>
<g>
</g>
<g>
</g>
<g>
</g>
<g>
</g>
<g>
</g>
<g>
</g>
<g>
</g>
<g>
</g>
<g>
</g>
<g>
</g>
<g>
</g>
<g>
</g>
</svg>
