<?xml version="1.0" encoding="utf-8"?>
<!-- Generator: Adobe Illustrator 18.1.1, SVG Export Plug-In . SVG Version: 6.00 Build 0)  -->
<svg version="1.1" id="Layer_1" xmlns="http://www.w3.org/2000/svg" xmlns:xlink="http://www.w3.org/1999/xlink" x="0px" y="0px"
	 viewBox="0 0 12 12" enable-background="new 0 0 12 12" xml:space="preserve">
<path d="M7.8,4.7C7.8,4.7,7.8,4.7,7.8,4.7c0,0.2,0.1,0.3,0.2,0.5c0,0,0,0,0,0c0,0,0,0,0.1,0.1c0,0,0.1,0.1,0.1,0.1
	c0.2,0.1,0.4,0.2,0.6,0.2h0.2h0c0.2,0,0.4-0.1,0.6-0.2c0,0,0.1-0.1,0.1-0.1c0,0,0,0,0.1-0.1c0,0,0,0,0,0C9.8,5,9.9,4.8,9.9,4.7
	c0,0,0,0,0,0c0,0,0,0,0-0.1c0,0,0,0,0-0.1V4.2c0,0,0,0,0-0.1c0,0,0,0,0-0.1c0,0,0,0,0,0c0-0.2-0.1-0.4-0.2-0.5
	c0-0.1-0.1-0.1-0.1-0.1c0,0,0,0,0,0C9.4,3.2,9.2,3.2,8.9,3.2h0H8.7h0c-0.2,0-0.4,0.1-0.6,0.2c0,0,0,0,0,0c0,0-0.1,0.1-0.1,0.1
	C7.9,3.7,7.8,3.9,7.8,4.1c0,0,0,0,0,0c0,0,0,0,0,0.1c0,0,0,0,0,0.1v0.4C7.8,4.6,7.8,4.6,7.8,4.7C7.8,4.6,7.8,4.6,7.8,4.7z"/>
<path d="M9.4,6H8.3C7.8,6,7.4,6.1,7.2,6.4c0,0,0,0,0,0l0,0c0,0,0,0,0,0L6.6,7L5.9,7.6L5.8,7.7L5.7,7.6c0,0,0,0,0,0L4,6.1L3.9,3.9
	H3.8L3.7,6.1L3.5,6.3L3.3,6.5c-0.1,0.1-0.1,0.2,0,0.3l2.4,2.5c0.1,0.1,0.2,0.1,0.3,0l0.8-0.8l0,2.2c2-0.3,3.6-2,3.9-4
	C10.5,6.3,10,6,9.4,6z"/>
<path d="M6.7,6.1L6.7,6.1L6.7,6.1L6.7,6.1C6.8,6,6.8,6,6.7,6.1C6.8,6,6.8,6,6.8,6l0,0l0,0l0,0C7,5.8,7.1,5.8,7.2,5.7V2.2h-4
	C3,2.3,2.8,2.5,2.6,2.7h4.1V6.1z"/>
<path d="M1.7,8C1.8,8.2,1.9,8.4,2,8.6h2.2L3.8,8H1.7z"/>
<path d="M6,0C2.7,0,0,2.7,0,6c0,3.3,2.7,6,6,6c3.3,0,6-2.7,6-6C12,2.7,9.3,0,6,0z M6,11.3c-2.9,0-5.3-2.4-5.3-5.3
	c0-2.9,2.4-5.3,5.3-5.3c2.9,0,5.3,2.4,5.3,5.3C11.3,8.9,8.9,11.3,6,11.3z"/>
<g>
</g>
<g>
</g>
<g>
</g>
<g>
</g>
<g>
</g>
<g>
</g>
<g>
</g>
<g>
</g>
<g>
</g>
<g>
</g>
<g>
</g>
<g>
</g>
<g>
</g>
<g>
</g>
<g>
</g>
</svg>
