<?xml version="1.0" encoding="utf-8"?>
<!-- Generator: Adobe Illustrator 18.1.1, SVG Export Plug-In . SVG Version: 6.00 Build 0)  -->
<svg version="1.1" id="Layer_1" xmlns="http://www.w3.org/2000/svg" xmlns:xlink="http://www.w3.org/1999/xlink" x="0px" y="0px"
	 viewBox="0 0 12 12" enable-background="new 0 0 12 12" xml:space="preserve">
<path d="M4.2,4.1C4.2,4.1,4.2,4.1,4.2,4.1c0,0.3,0.1,0.6,0.3,0.8c0,0,0,0,0,0c0,0,0.1,0.1,0.1,0.1c0.1,0.1,0.1,0.2,0.2,0.2
	c0.3,0.2,0.6,0.4,1,0.4h0.4h0c0.4,0,0.7-0.1,1-0.4C7.3,5.2,7.4,5.1,7.4,5c0,0,0.1-0.1,0.1-0.1c0,0,0,0,0,0c0.1-0.2,0.2-0.5,0.3-0.8
	c0,0,0,0,0,0c0,0,0-0.1,0-0.1c0,0,0-0.1,0-0.1V3.3c0,0,0-0.1,0-0.1c0,0,0-0.1,0-0.1c0,0,0,0,0,0c0-0.3-0.2-0.6-0.3-0.9
	C7.4,2.1,7.3,2,7.3,1.9c0,0,0,0,0,0C7,1.7,6.6,1.5,6.2,1.5h0H5.8h0c-0.4,0-0.7,0.1-1,0.4c0,0,0,0,0,0C4.7,2,4.6,2.1,4.5,2.2
	C4.3,2.4,4.2,2.7,4.2,3.1c0,0,0,0,0,0c0,0,0,0.1,0,0.1c0,0,0,0.1,0,0.1v0.7C4.2,3.9,4.2,4,4.2,4.1C4.2,4,4.2,4.1,4.2,4.1z"/>
<path d="M3.4,8.2h0.2c0.2,0,0.4,0,0.6,0c0.7,0,1.3,0.2,1.8,0.6c0.5-0.4,1.1-0.6,1.8-0.6c0.2,0,0.3,0,0.6,0h0.2l0.7,1
	c0,0,0,0,0.1-0.1V8.4h0c0-1.4-0.9-2.2-2.4-2.2H5.1C3.5,6.2,2.7,7,2.6,8.4l0,0.7c0,0,0,0,0.1,0.1L3.4,8.2z"/>
<path d="M8.4,8.7c-0.2,0-0.4,0-0.6,0c-0.7,0-1.2,0.2-1.7,0.6v1.6c0,0,0,0.1-0.1,0.1H6c-0.1,0-0.1,0-0.1-0.1V9.3
	c-0.4-0.4-1-0.6-1.7-0.6c-0.2,0-0.3,0-0.6,0l-1,1.4c0.2,0,0.9,0,1.2,0c0.7,0,1.3,0.4,1.7,1c0.2,0.3,0.6,0.3,0.8,0c0.4-0.6,1-1,1.7-1
	c0.4,0,1,0,1.2,0L8.4,8.7z"/>
<path d="M6,0C2.7,0,0,2.7,0,6c0,3.3,2.7,6,6,6c3.3,0,6-2.7,6-6C12,2.7,9.3,0,6,0z M6,11.3c-2.9,0-5.3-2.4-5.3-5.3
	c0-2.9,2.4-5.3,5.3-5.3c2.9,0,5.3,2.4,5.3,5.3C11.3,8.9,8.9,11.3,6,11.3z"/>
<g>
</g>
<g>
</g>
<g>
</g>
<g>
</g>
<g>
</g>
<g>
</g>
<g>
</g>
<g>
</g>
<g>
</g>
<g>
</g>
<g>
</g>
<g>
</g>
<g>
</g>
<g>
</g>
<g>
</g>
</svg>
