<?xml version="1.0" encoding="utf-8"?>
<!-- Generator: Adobe Illustrator 18.1.1, SVG Export Plug-In . SVG Version: 6.00 Build 0)  -->
<svg version="1.1" id="Layer_1" xmlns="http://www.w3.org/2000/svg" xmlns:xlink="http://www.w3.org/1999/xlink" x="0px" y="0px"
	 viewBox="0 0 12 12" enable-background="new 0 0 12 12" xml:space="preserve">
<path d="M6,0C2.7,0,0,2.7,0,6c0,3.3,2.7,6,6,6c3.3,0,6-2.7,6-6C12,2.7,9.3,0,6,0z M6,11.3c-2.9,0-5.3-2.4-5.3-5.3
	c0-2.9,2.4-5.3,5.3-5.3c2.9,0,5.3,2.4,5.3,5.3C11.3,8.9,8.9,11.3,6,11.3z"/>
<path d="M3.8,6.1c0,0,0-0.1-0.1-0.1C3.4,6.2,3.1,6.5,3.1,6.8c0,0.8,1.3,1.4,2.9,1.4c1.6,0,2.9-0.6,2.9-1.4c0-0.3-0.2-0.6-0.6-0.8
	c0,0,0,0.1-0.1,0.1c0.2,0.2,0.4,0.4,0.4,0.6c0,0.3-0.3,0.6-0.7,0.8C7.4,7.7,6.7,7.8,6,7.8c-0.7,0-1.4-0.1-1.8-0.3
	C3.7,7.3,3.4,7,3.4,6.7C3.4,6.5,3.6,6.3,3.8,6.1z"/>
<path d="M8.4,5.5c0,0.1,0,0.1-0.1,0.2c0.1,0,0.2,0.1,0.4,0.2C9.4,6.1,9.8,6.6,9.8,7c0,0.5-0.4,0.9-1.1,1.3C8,8.6,7.1,8.8,6,8.8
	c-1.1,0-2-0.2-2.7-0.5C2.6,8,2.2,7.5,2.2,7c0-0.5,0.4-0.9,1.1-1.3c0.1-0.1,0.2-0.1,0.4-0.2c0-0.1,0-0.1-0.1-0.2
	c-1,0.4-1.7,1-1.7,1.7c0,1.3,1.9,2.2,4.1,2.2c2.3,0,4.1-1,4.1-2.2C10.1,6.4,9.5,5.8,8.4,5.5z"/>
<path d="M6.4,4.6C6,5.3,5.9,6.2,5.9,6.9c0.6-0.2,1.4-0.4,1.9-1c0.5-0.7,0.5-1.6,0.6-2.3C7.7,3.8,6.9,4,6.4,4.6z"/>
<path d="M5.5,6.7c0-0.2,0-0.4,0.1-0.6l0,0c0-0.1,0-0.1,0-0.2c0,0,0,0,0,0c0,0,0,0,0,0c0-0.2,0.1-0.4,0.1-0.7c0,0,0,0,0,0
	c0-0.1,0-0.1,0.1-0.2C5.9,4.8,6,4.6,6.1,4.4l0,0l0,0c0.2-0.3,0.5-0.5,0.7-0.6C6.6,3.1,6.3,2.5,6,2.1C5.7,2.6,5.2,3.3,5.1,4.2
	c-0.4-0.3-1-0.4-1.4-0.6c0.1,0.7,0.1,1.6,0.6,2.3C4.6,6.3,5,6.6,5.5,6.7z"/>
<g>
</g>
<g>
</g>
<g>
</g>
<g>
</g>
<g>
</g>
<g>
</g>
<g>
</g>
<g>
</g>
<g>
</g>
<g>
</g>
<g>
</g>
<g>
</g>
<g>
</g>
<g>
</g>
<g>
</g>
</svg>
