<?xml version="1.0" encoding="utf-8"?>
<!-- Generator: Adobe Illustrator 18.1.1, SVG Export Plug-In . SVG Version: 6.00 Build 0)  -->
<svg version="1.1" id="Layer_1" xmlns="http://www.w3.org/2000/svg" xmlns:xlink="http://www.w3.org/1999/xlink" x="0px" y="0px"
	 viewBox="0 0 12 12" enable-background="new 0 0 12 12" xml:space="preserve">
<path d="M0,6c0-3.3,2.7-6,6-6l0,0c3.3,0,6,2.7,6,6l0,0c0,3.3-2.7,6-6,6l0,0C2.7,12,0,9.3,0,6L0,6z M0.7,6c0,2.9,2.4,5.3,5.3,5.3l0,0
	c2.9,0,5.3-2.4,5.3-5.3l0,0c0-2.9-2.4-5.3-5.3-5.3l0,0C3.1,0.7,0.7,3.1,0.7,6L0.7,6z"/>
<path d="M9.9,4.3C9.1,4.1,8.6,3.9,8.1,3.5c0,0,0,0,0-0.1V3.1c0,0,0-0.1,0-0.1H7.6h0c0,0,0,0,0,0c0,0,0,0,0,0v0.3c0,0,0,0,0,0.1
	C6.9,3.6,6.7,3.6,6,3.7c-0.7,0-0.9-0.1-1.5-0.2c0,0,0,0,0-0.1V3.1c0,0,0,0,0,0c0,0,0,0,0,0h0H4c0,0,0,0,0,0.1v0.3c0,0,0,0.1,0,0.1
	c-0.6,0.4-1,0.6-1.8,0.8c0,0,0,0,0,0.1v0.2c0,0,0,0.1,0,0.1l0,0l1,0.6v2.9H2.6c-0.1,0-0.1,0-0.1,0.1v0.4c0,0.1,0.1,0.1,0.1,0.1h6.8
	c0.1,0,0.1,0,0.1-0.1V8.2c0-0.1-0.1-0.1-0.1-0.1H8.9V5.3l1-0.6l0,0c0,0,0,0,0-0.1L9.9,4.3C9.9,4.4,9.9,4.3,9.9,4.3z M8.2,5.3V7h-1
	V5.3H8.2z M6.5,5.3V7h-1V5.3H6.5z M4.8,5.3V7h-1V5.3H4.8z M3.8,8.1V7.4h1v0.7H3.8z M5.5,8.1V7.4h1v0.7H5.5z M7.2,8.1V7.4h1v0.7H7.2z
	"/>
<g>
</g>
<g>
</g>
<g>
</g>
<g>
</g>
<g>
</g>
<g>
</g>
<g>
</g>
<g>
</g>
<g>
</g>
<g>
</g>
<g>
</g>
<g>
</g>
<g>
</g>
<g>
</g>
<g>
</g>
</svg>
