<?xml version="1.0" encoding="utf-8"?>
<!-- Generator: Adobe Illustrator 18.1.1, SVG Export Plug-In . SVG Version: 6.00 Build 0)  -->
<svg version="1.1" id="Layer_1" xmlns="http://www.w3.org/2000/svg" xmlns:xlink="http://www.w3.org/1999/xlink" x="0px" y="0px"
	 viewBox="0 0 12 12" enable-background="new 0 0 12 12" xml:space="preserve">
<path d="M6,0C2.7,0,0,2.7,0,6c0,3.3,2.7,6,6,6c3.3,0,6-2.7,6-6C12,2.7,9.3,0,6,0z M6,11.3c-2.9,0-5.3-2.4-5.3-5.3
	c0-2.9,2.4-5.3,5.3-5.3c2.9,0,5.3,2.4,5.3,5.3C11.3,8.9,8.9,11.3,6,11.3z"/>
<path d="M3.3,5.6c0.8,0,1.7,0.1,2.2,0.3c0.1,0,0.3,0.1,0.5,0.1c0.2,0,0.4,0,0.5-0.1c0.4-0.2,1.3-0.3,2.2-0.3h1.6c0,0,0,0,0,0L7.5,4
	c-0.3-0.2-0.8-0.2-1,0c-0.3,0.2-0.7,0.2-1,0c-0.3-0.2-0.7-0.1-1,0L1.8,5.5c0,0,0,0,0,0H3.3z"/>
<path d="M8.6,6.1c-0.8,0-1.7,0.1-1.9,0.2C6.5,6.4,6.2,6.5,6,6.5c-0.2,0-0.5,0-0.7-0.1C5,6.2,4.1,6.1,3.3,6.1H1.7
	c0,0.1,0.1,0.1,0.1,0.2l1.7,1.5C3.8,8,4.3,8.1,4.6,8.1h2.8c0.3,0,0.9-0.2,1.1-0.4l1.7-1.5c0.1,0,0.1-0.1,0.1-0.2H8.6z"/>
<g>
</g>
<g>
</g>
<g>
</g>
<g>
</g>
<g>
</g>
<g>
</g>
<g>
</g>
<g>
</g>
<g>
</g>
<g>
</g>
<g>
</g>
<g>
</g>
<g>
</g>
<g>
</g>
<g>
</g>
</svg>
