<?xml version="1.0" encoding="utf-8"?>
<!-- Generator: Adobe Illustrator 18.1.1, SVG Export Plug-In . SVG Version: 6.00 Build 0)  -->
<svg version="1.1" id="Layer_1" xmlns="http://www.w3.org/2000/svg" xmlns:xlink="http://www.w3.org/1999/xlink" x="0px" y="0px"
	 viewBox="0 0 12 12" enable-background="new 0 0 12 12" xml:space="preserve">
<path d="M6,0C2.7,0,0,2.7,0,6c0,3.3,2.7,6,6,6c3.3,0,6-2.7,6-6C12,2.7,9.3,0,6,0z M6,11.3c-2.9,0-5.3-2.4-5.3-5.3
	c0-2.9,2.4-5.3,5.3-5.3c2.9,0,5.3,2.4,5.3,5.3C11.3,8.9,8.9,11.3,6,11.3z"/>
<circle cx="2.9" cy="7.9" r="0.9"/>
<path d="M9.6,8.3L8.5,8V7.8c0,0,0-0.1-0.1-0.1V3.4c0-0.5-0.4-1-1-1h-2c-0.4,0-0.7,0.1-0.9,0.3C4.5,3,4.4,3.2,4.4,3.5
	c0,0.3,0.1,0.5,0.3,0.7L6,5.6C6.2,5.7,6.2,5.9,6.2,6c0,0.1,0,0.1,0,0.1C6.1,6.2,6,6.3,5.9,6.4C5.8,6.3,5.7,6.2,5.5,6.2L3.7,5.7
	C2.8,5.5,2.1,6.1,2.1,6.9v0c0.2-0.2,0.5-0.3,0.8-0.3c0.7,0,1.3,0.6,1.3,1.3c0,0.3-0.1,0.6-0.3,0.8h1.6c0.5,0,0.9-0.4,0.9-0.9V7.4
	c0-0.2-0.1-0.5-0.2-0.7c0.1-0.1,0.2-0.2,0.3-0.3C6.6,6.3,6.7,6.2,6.7,6c0-0.3-0.1-0.5-0.3-0.7L5,3.9C4.9,3.8,4.8,3.6,4.8,3.5
	C4.8,3.2,5,3,5.5,2.9h2C7.8,2.9,8,3.2,8,3.4v4.3c0,0-0.1,0.1-0.1,0.1V8L6.8,8.3c-0.1,0-0.1,0.1-0.1,0.1v0.3h3V8.5
	C9.7,8.4,9.7,8.3,9.6,8.3z"/>
<g>
</g>
<g>
</g>
<g>
</g>
<g>
</g>
<g>
</g>
<g>
</g>
<g>
</g>
<g>
</g>
<g>
</g>
<g>
</g>
<g>
</g>
<g>
</g>
<g>
</g>
<g>
</g>
<g>
</g>
</svg>
