<?xml version="1.0" encoding="utf-8"?>
<!-- Generator: Adobe Illustrator 18.1.1, SVG Export Plug-In . SVG Version: 6.00 Build 0)  -->
<svg version="1.1" id="Layer_1" xmlns="http://www.w3.org/2000/svg" xmlns:xlink="http://www.w3.org/1999/xlink" x="0px" y="0px"
	 viewBox="0 0 12 12" enable-background="new 0 0 12 12" xml:space="preserve">
<path d="M0,6c0-3.3,2.7-6,6-6l0,0c3.3,0,6,2.7,6,6l0,0c0,3.3-2.7,6-6,6l0,0C2.7,12,0,9.3,0,6L0,6z M0.7,6c0,2.9,2.4,5.3,5.3,5.3l0,0
	c2.9,0,5.3-2.4,5.3-5.3l0,0c0-2.9-2.4-5.3-5.3-5.3l0,0C3.1,0.7,0.7,3.1,0.7,6L0.7,6z"/>
<path d="M6,10.6c1.7,0,3.2-1,4-2.3C9.8,8.2,9.6,8,9.6,8S9.4,7.8,9.1,7.8S8.6,8,8.6,8S8.4,8.2,8.1,8.2C7.8,8.2,7.6,8,7.6,8
	S7.3,7.8,7,7.8S6.5,8,6.5,8S6.3,8.2,6,8.2C5.7,8.2,5.5,8,5.5,8S5.3,7.8,5,7.8S4.4,8,4.4,8S4.2,8.2,3.9,8.2C3.6,8.2,3.4,8,3.4,8
	S3.2,7.8,2.9,7.8S2.4,8,2.4,8S2.2,8.2,2,8.2C2.8,9.6,4.3,10.6,6,10.6z"/>
<rect x="4.4" y="5.8" width="0.5" height="0.9"/>
<rect x="5.3" y="5.8" width="0.5" height="0.9"/>
<rect x="6.2" y="5.8" width="0.5" height="0.9"/>
<rect x="7.1" y="5.8" width="0.5" height="0.9"/>
<path d="M6,1.5c-0.1,0-0.2,0-0.4,0v1.5H5.1L4.5,5H4.3v0.5h3.4V5H7.5l-0.7-2H6.4V1.5C6.2,1.5,6.1,1.5,6,1.5z"/>
<g>
</g>
<g>
</g>
<g>
</g>
<g>
</g>
<g>
</g>
<g>
</g>
<g>
</g>
<g>
</g>
<g>
</g>
<g>
</g>
<g>
</g>
<g>
</g>
<g>
</g>
<g>
</g>
<g>
</g>
</svg>
