<?xml version="1.0" encoding="utf-8"?>
<!-- Generator: Adobe Illustrator 18.1.1, SVG Export Plug-In . SVG Version: 6.00 Build 0)  -->
<svg version="1.1" id="Layer_1" xmlns="http://www.w3.org/2000/svg" xmlns:xlink="http://www.w3.org/1999/xlink" x="0px" y="0px"
	 viewBox="0 0 12 12" enable-background="new 0 0 12 12" xml:space="preserve">
<path d="M0,6c0-3.3,2.7-6,6-6l0,0c3.3,0,6,2.7,6,6l0,0c0,3.3-2.7,6-6,6l0,0C2.7,12,0,9.3,0,6L0,6z M0.7,6c0,2.9,2.4,5.3,5.3,5.3l0,0
	c2.9,0,5.3-2.4,5.3-5.3l0,0c0-2.9-2.4-5.3-5.3-5.3l0,0C3.1,0.7,0.7,3.1,0.7,6L0.7,6z"/>
<path d="M9.7,3.7L8.8,4v1.9l0.9,0.2c0.1,0,0.2,0,0.2-0.1V3.8C9.8,3.7,9.8,3.7,9.7,3.7z"/>
<path d="M8.4,4L4.7,3.5c0,0,0,0,0,0l-0.2,0H4.4h0h0H4.1C3,3.5,2.2,4.4,2.2,5.4S3,7.4,4.1,7.4c0,0,0.1,0,0.1,0c0,0,0.1,0,0.1,0
	c0.1,0,0.2,0,0.2,0c0.1,0,0.2,0,0.2,0.1l0.3,2c0,0.1,0.1,0.2,0.2,0.2h0.7C5.9,9.6,6,9.6,6,9.5V6.7c0-0.3,0.2-0.6,0.5-0.6l0,0
	l1.8-0.2V4z M4.1,6.3c-0.5,0-0.9-0.4-0.9-0.9s0.4-0.9,0.9-0.9C4.6,4.5,5,4.9,5,5.4S4.6,6.3,4.1,6.3z"/>
<g>
</g>
<g>
</g>
<g>
</g>
<g>
</g>
<g>
</g>
<g>
</g>
<g>
</g>
<g>
</g>
<g>
</g>
<g>
</g>
<g>
</g>
<g>
</g>
<g>
</g>
<g>
</g>
<g>
</g>
</svg>
