<?xml version="1.0" encoding="utf-8"?>
<!-- Generator: Adobe Illustrator 18.1.1, SVG Export Plug-In . SVG Version: 6.00 Build 0)  -->
<svg version="1.1" id="Layer_1" xmlns="http://www.w3.org/2000/svg" xmlns:xlink="http://www.w3.org/1999/xlink" x="0px" y="0px"
	 viewBox="0 0 12 12" enable-background="new 0 0 12 12" xml:space="preserve">
<path d="M2.8,6h6.4c0.1,0,0.2-0.1,0.2-0.2V3.2C9.4,3.1,9.3,3,9.2,3H2.8C2.7,3,2.6,3.1,2.6,3.2v2.6C2.6,5.9,2.7,6,2.8,6z M3.1,5.2
	h5.8v0.4H3.1V5.2z"/>
<path d="M3,9.4c0.5-0.9,0.9-1.9,0.9-3H3.5c0,1.1-0.5,2.2-1.1,3H3z"/>
<path d="M5.1,9.4c0.2-0.9,0.3-1.9,0.3-3H5.1c0,1.1-0.2,2.1-0.5,3H5.1z"/>
<path d="M9,9.4c-0.5-0.9-0.9-1.9-0.9-3h0.4c0,1.1,0.5,2.2,1.1,3H9z"/>
<path d="M6.9,9.4c-0.2-0.9-0.3-1.9-0.3-3H7c0,1.1,0.2,2.1,0.5,3H6.9z"/>
<path d="M0,6c0-3.3,2.7-6,6-6l0,0c3.3,0,6,2.7,6,6l0,0c0,3.3-2.7,6-6,6l0,0C2.7,12,0,9.3,0,6L0,6z M0.7,6c0,2.9,2.4,5.3,5.3,5.3l0,0
	c2.9,0,5.3-2.4,5.3-5.3l0,0c0-2.9-2.4-5.3-5.3-5.3l0,0C3.1,0.7,0.7,3.1,0.7,6L0.7,6z"/>
<g>
</g>
<g>
</g>
<g>
</g>
<g>
</g>
<g>
</g>
<g>
</g>
<g>
</g>
<g>
</g>
<g>
</g>
<g>
</g>
<g>
</g>
<g>
</g>
<g>
</g>
<g>
</g>
<g>
</g>
</svg>
