<?xml version="1.0" encoding="utf-8"?>
<!-- Generator: Adobe Illustrator 18.1.1, SVG Export Plug-In . SVG Version: 6.00 Build 0)  -->
<svg version="1.1" id="Layer_1" xmlns="http://www.w3.org/2000/svg" xmlns:xlink="http://www.w3.org/1999/xlink" x="0px" y="0px"
	 viewBox="0 0 12 12" enable-background="new 0 0 12 12" xml:space="preserve">
<path d="M9.2,8.5L9.2,8.5L8.9,8.4l0,0c0,0,0,0,0,0c0,0-0.1,0-0.1,0.1c0,0,0,0,0,0C8.6,8.6,8.5,8.9,8.3,9L7.6,8h0.4
	c0.2,0,0.4-0.2,0.4-0.4V6.8c0-0.2-0.2-0.4-0.4-0.4H4.9c-0.3-2-0.7-3.7-0.8-3.8C4,2.5,3.9,2.4,3.7,2.4c-0.1,0-0.2,0-0.2,0.1l0,0
	L2.9,3l0,0C2.8,3.1,2.7,3.2,2.7,3.3c0,0.1,0,0.1,0,0.2c0,0,0,0,0,0.1C3.1,4.1,3.7,5.3,4,7.3C4,7.7,4.4,8,4.8,8H5L4.4,9
	C4.2,8.9,4,8.6,3.9,8.4c0,0,0,0,0,0c0,0-0.1-0.1-0.1-0.1c0,0,0,0,0,0l0,0L3.5,8.5l0,0c0,0-0.1,0.1-0.1,0.1c0,0,0,0,0,0c0,0,0,0,0,0
	c0.6,1.1,1.7,1.8,2.9,1.8c1.2,0,2.3-0.7,2.9-1.8c0,0,0,0,0,0C9.3,8.6,9.3,8.6,9.2,8.5C9.3,8.5,9.2,8.5,9.2,8.5z M6.3,9.9
	c-0.6,0-1.2-0.2-1.7-0.6l0.8-1.2h1.9L8,9.3C7.5,9.7,6.9,9.9,6.3,9.9z"/>
<path d="M6,0C2.7,0,0,2.7,0,6c0,3.3,2.7,6,6,6c3.3,0,6-2.7,6-6C12,2.7,9.3,0,6,0z M6,11.3c-2.9,0-5.3-2.4-5.3-5.3
	c0-2.9,2.4-5.3,5.3-5.3c2.9,0,5.3,2.4,5.3,5.3C11.3,8.9,8.9,11.3,6,11.3z"/>
<g>
</g>
<g>
</g>
<g>
</g>
<g>
</g>
<g>
</g>
<g>
</g>
<g>
</g>
<g>
</g>
<g>
</g>
<g>
</g>
<g>
</g>
<g>
</g>
<g>
</g>
<g>
</g>
<g>
</g>
</svg>
