<?xml version="1.0" encoding="utf-8"?>
<!-- Generator: Adobe Illustrator 18.1.1, SVG Export Plug-In . SVG Version: 6.00 Build 0)  -->
<svg version="1.1" id="Layer_1" xmlns="http://www.w3.org/2000/svg" xmlns:xlink="http://www.w3.org/1999/xlink" x="0px" y="0px"
	 viewBox="0 0 12 12" enable-background="new 0 0 12 12" xml:space="preserve">
<path d="M6.2,5.7c0.3,0.1,0.6,0,0.7-0.3C7,5.3,7,5.1,6.9,5c0,0,0,0,0,0L6.4,3.9L5.9,5C5.8,5.2,5.9,5.6,6.2,5.7z"/>
<path d="M8.6,6.2c0-1,0-2.4,0-2.6c0-0.7-0.6-1.2-1.2-1.2c-0.7,0-1.2,0.6-1.2,1.2h0.5c0-0.4,0.3-0.7,0.7-0.7c0.4,0,0.7,0.3,0.7,0.7
	c0,0.2,0,1.6,0,2.6H7.7c-0.1,0-0.2,0.1-0.2,0.2v1.5c0,0.4-0.4,0.8-0.8,0.8H3.4c-0.4,0-0.8-0.4-0.8-0.8V6.3c0-0.1-0.1-0.2-0.2-0.2
	H1.3c0.1,2.5,2.2,4.6,4.7,4.6c2.6,0,4.6-2,4.7-4.6H8.6z"/>
<path d="M6,0C2.7,0,0,2.7,0,6c0,3.3,2.7,6,6,6c3.3,0,6-2.7,6-6C12,2.7,9.3,0,6,0z M6,11.3c-2.9,0-5.3-2.4-5.3-5.3
	c0-2.9,2.4-5.3,5.3-5.3c2.9,0,5.3,2.4,5.3,5.3C11.3,8.9,8.9,11.3,6,11.3z"/>
<g>
</g>
<g>
</g>
<g>
</g>
<g>
</g>
<g>
</g>
<g>
</g>
<g>
</g>
<g>
</g>
<g>
</g>
<g>
</g>
<g>
</g>
<g>
</g>
<g>
</g>
<g>
</g>
<g>
</g>
</svg>
