<?xml version="1.0" encoding="utf-8"?>
<!-- Generator: Adobe Illustrator 18.1.1, SVG Export Plug-In . SVG Version: 6.00 Build 0)  -->
<svg version="1.1" id="Layer_1" xmlns="http://www.w3.org/2000/svg" xmlns:xlink="http://www.w3.org/1999/xlink" x="0px" y="0px"
	 viewBox="0 0 12 12" enable-background="new 0 0 12 12" xml:space="preserve">
<path d="M6,0C2.7,0,0,2.7,0,6c0,3.3,2.7,6,6,6c3.3,0,6-2.7,6-6C12,2.7,9.3,0,6,0z M6,11.3c-2.9,0-5.3-2.4-5.3-5.3
	c0-2.9,2.4-5.3,5.3-5.3c2.9,0,5.3,2.4,5.3,5.3C11.3,8.9,8.9,11.3,6,11.3z"/>
<path d="M7.7,6.9c0,0,0-0.3-0.1-0.4C7.5,6.4,7,6.3,7,6.3s0.1,0.5,0.2,0.6C7.4,7,7.7,6.9,7.7,6.9z"/>
<path d="M8.1,6.9c0,0,0.3,0,0.4-0.1c0.1-0.1,0.2-0.6,0.2-0.6S8.3,6.4,8.2,6.5C8.1,6.6,8.1,6.9,8.1,6.9z"/>
<path d="M7.9,6.7c0,0,0.2-0.2,0.2-0.4c0-0.2-0.2-0.6-0.2-0.6S7.7,6.1,7.7,6.3C7.7,6.5,7.9,6.7,7.9,6.7z"/>
<path d="M9.5,3.3L9.5,3.3h-7l0,0c-0.1,0-0.2,0.1-0.2,0.2v5c0,0.1,0.1,0.2,0.2,0.2l0,0h7l0,0c0.1,0,0.2-0.1,0.2-0.2v-5
	C9.7,3.4,9.6,3.3,9.5,3.3z M2.9,6.8h0.7v1.3H2.9V6.8z M5.8,6.8v1.3H5.1V6.8H5.8z M4.7,8.2H3.9V6.8h0.8V8.2z M9.1,8.2H8.4l0.2-0.8
	h0.2V7.1H7v0.3h0.2l0.2,0.8H6.2V6.8h0.5V6.5H2.9V3.9h6.2V8.2z"/>
<g>
</g>
<g>
</g>
<g>
</g>
<g>
</g>
<g>
</g>
<g>
</g>
<g>
</g>
<g>
</g>
<g>
</g>
<g>
</g>
<g>
</g>
<g>
</g>
<g>
</g>
<g>
</g>
<g>
</g>
</svg>
