<?xml version="1.0" encoding="utf-8"?>
<!-- Generator: Adobe Illustrator 18.1.1, SVG Export Plug-In . SVG Version: 6.00 Build 0)  -->
<svg version="1.1" id="Layer_1" xmlns="http://www.w3.org/2000/svg" xmlns:xlink="http://www.w3.org/1999/xlink" x="0px" y="0px"
	 viewBox="0 0 12 12" enable-background="new 0 0 12 12" xml:space="preserve">
<path d="M6,0C2.7,0,0,2.7,0,6c0,3.3,2.7,6,6,6c3.3,0,6-2.7,6-6C12,2.7,9.3,0,6,0z M6,11.3c-2.9,0-5.3-2.4-5.3-5.3
	c0-2.9,2.4-5.3,5.3-5.3c2.9,0,5.3,2.4,5.3,5.3C11.3,8.9,8.9,11.3,6,11.3z"/>
<polygon points="8.6,4.1 9.5,4.1 9,2.7 7.9,2.7 7.5,4.1 8.4,4.1 8.4,8.2 7.7,8.2 7.7,8.4 9.2,8.4 9.2,8.2 8.6,8.2 "/>
<g>
	<path d="M3,6.3v0.3h3.5V6.3C6.5,6,6.7,5.7,7,5.6V5.4C7,5.2,6.9,5,6.7,5H2.8C2.6,5,2.5,5.2,2.5,5.4v0.3C2.8,5.7,3,6,3,6.3z"/>
	<path d="M7.2,6C7,6,6.9,6.1,6.9,6.3V7H2.6V6.3C2.6,6.1,2.5,6,2.3,6C2.1,6,1.9,6.1,1.9,6.3l0,1.4c0,0.2,0.1,0.3,0.3,0.4v0.3h0.4V8.1
		h4.3v0.3h0.4V8.1c0.2,0,0.3-0.2,0.3-0.4V6.3C7.6,6.1,7.4,6,7.2,6z"/>
</g>
<g>
</g>
<g>
</g>
<g>
</g>
<g>
</g>
<g>
</g>
<g>
</g>
<g>
</g>
<g>
</g>
<g>
</g>
<g>
</g>
<g>
</g>
<g>
</g>
<g>
</g>
<g>
</g>
<g>
</g>
</svg>
