<?xml version="1.0" encoding="utf-8"?>
<!-- Generator: Adobe Illustrator 18.1.1, SVG Export Plug-In . SVG Version: 6.00 Build 0)  -->
<svg version="1.1" id="Layer_1" xmlns="http://www.w3.org/2000/svg" xmlns:xlink="http://www.w3.org/1999/xlink" x="0px" y="0px"
	 viewBox="0 0 12 12" enable-background="new 0 0 12 12" xml:space="preserve">
<path d="M6,0C2.7,0,0,2.7,0,6c0,3.3,2.7,6,6,6c3.3,0,6-2.7,6-6C12,2.7,9.3,0,6,0z M6,11.3c-2.9,0-5.3-2.4-5.3-5.3
	c0-2.9,2.4-5.3,5.3-5.3c2.9,0,5.3,2.4,5.3,5.3C11.3,8.9,8.9,11.3,6,11.3z"/>
<path d="M9.2,3.5H2.8c-0.2,0-0.3,0.2-0.3,0.3v4.3c0,0.2,0.2,0.3,0.3,0.3h6.4c0.2,0,0.3-0.2,0.3-0.3V3.8C9.5,3.6,9.4,3.5,9.2,3.5z
	 M9.1,4L9.1,4L9.1,4c0,0.1,0,0.1,0,0.1l0,0l0,0c0,0,0,0-0.1,0.1L7.2,6L9,7.9c0,0,0.1,0.1,0.1,0.1l0,0l0,0c0,0,0,0,0,0
	c0,0,0,0.1,0,0.1l0,0v0c0,0,0,0.1,0,0.1c0,0-0.1,0.1-0.1,0.1l0,0c0,0-0.1,0-0.1,0c0,0,0,0,0,0c0,0,0,0-0.1-0.1l-2-1.7L6.3,6.8
	C6.2,6.9,6.1,7,6,7c-0.1,0-0.2,0-0.3-0.1L5.2,6.4l-2,1.7c0,0-0.1,0-0.1,0.1h0c0,0,0,0,0,0c0,0,0,0-0.1,0l0,0h0c0,0,0,0,0,0
	c0,0-0.1,0-0.1,0c0,0,0-0.1-0.1-0.1c0,0,0,0,0,0c0,0,0-0.1,0-0.1l0,0l0,0c0,0,0,0,0.1-0.1L4.8,6L3,4.2c0,0-0.1-0.1-0.1-0.1l0,0l0,0
	c0,0,0,0,0,0c0,0,0,0,0-0.1c0,0,0,0,0,0c0,0,0-0.1,0.1-0.1c0,0,0.1,0,0.1,0l0,0l0,0c0,0,0.1,0,0.1,0c0,0,0,0,0,0l0,0l0,0
	c0,0,0,0,0.1,0.1L6,6.3l2.8-2.4c0,0,0.1,0,0.1-0.1c0,0,0,0,0,0c0,0,0,0,0.1,0c0,0,0,0,0,0h0c0,0,0.1,0,0.1,0C9.1,3.9,9.1,3.9,9.1,4
	L9.1,4z"/>
<g>
</g>
<g>
</g>
<g>
</g>
<g>
</g>
<g>
</g>
<g>
</g>
<g>
</g>
<g>
</g>
<g>
</g>
<g>
</g>
<g>
</g>
<g>
</g>
<g>
</g>
<g>
</g>
<g>
</g>
</svg>
