<?xml version="1.0" encoding="utf-8"?>
<!-- Generator: Adobe Illustrator 18.1.1, SVG Export Plug-In . SVG Version: 6.00 Build 0)  -->
<svg version="1.1" id="Layer_1" xmlns="http://www.w3.org/2000/svg" xmlns:xlink="http://www.w3.org/1999/xlink" x="0px" y="0px"
	 viewBox="0 0 12 12" enable-background="new 0 0 12 12" xml:space="preserve">
<path d="M0,6c0-3.3,2.7-6,6-6l0,0c3.3,0,6,2.7,6,6l0,0c0,3.3-2.7,6-6,6l0,0C2.7,12,0,9.3,0,6L0,6z M0.7,6c0,2.9,2.4,5.3,5.3,5.3l0,0
	c2.9,0,5.3-2.4,5.3-5.3l0,0c0-2.9-2.4-5.3-5.3-5.3l0,0C3.1,0.7,0.7,3.1,0.7,6L0.7,6z"/>
<path d="M9.3,3.7c0-0.4-0.2-0.7-0.4-1c-0.3-0.2-0.6-0.4-1-0.4v0.4c0.7,0,1.1,0.4,1.1,1c0,0.1,0,0.1,0,0.2L8.7,5.2l0,0l-0.1,0
	C8.4,5.8,7.8,6.4,7.1,6.3c-0.6,0-1.3-0.6-1.4-1.2l-0.1,0l0,0L5.4,3.9c0-0.1,0-0.1,0-0.2c0-0.6,0.4-1,1.1-1V2.3c-0.4,0-0.8,0.1-1,0.4
	C5.1,3,5,3.3,5,3.7C5,3.8,5,3.9,5,4l0.2,1.3l-0.1,0C5.3,6.1,6,6.8,6.8,6.9c0,0.3,0,0.7,0,0.8H7C7,8,7,8.1,7,8.2
	c0,0.5-0.4,0.8-0.8,0.8c-0.5,0-0.8-0.4-0.8-0.8c0-0.3,0-0.8,0-1.1c0-0.7-0.5-1.2-1.2-1.2S2.9,6.5,2.9,7.1c0,0.2,0,0.5,0,0.7
	C2.5,7.9,2.2,8.3,2.2,8.7c0,0.5,0.4,0.9,0.9,0.9s0.9-0.4,0.9-0.9c0-0.4-0.3-0.8-0.7-0.9c0-0.2,0-0.5,0-0.7c0-0.5,0.4-0.8,0.8-0.8
	c0.5,0,0.8,0.4,0.8,0.8c0,0.3,0,0.8,0,1.1c0,0.7,0.5,1.2,1.2,1.2c0.7,0,1.2-0.5,1.2-1.2c0-0.1,0-0.3,0-0.5h0.1c0-0.1,0-0.5,0-0.8
	C8.3,6.8,9,6.1,9.2,5.3L9,5.2L9.3,4C9.3,3.9,9.3,3.8,9.3,3.7z M3.4,8.7C3.4,8.9,3.2,9,3.1,9C2.9,9,2.7,8.9,2.7,8.7
	c0-0.2,0.1-0.3,0.3-0.3C3.2,8.4,3.4,8.5,3.4,8.7z"/>
<g>
</g>
<g>
</g>
<g>
</g>
<g>
</g>
<g>
</g>
<g>
</g>
<g>
</g>
<g>
</g>
<g>
</g>
<g>
</g>
<g>
</g>
<g>
</g>
<g>
</g>
<g>
</g>
<g>
</g>
</svg>
