<?xml version="1.0" encoding="utf-8"?>
<!-- Generator: Adobe Illustrator 18.1.1, SVG Export Plug-In . SVG Version: 6.00 Build 0)  -->
<svg version="1.1" id="Layer_1" xmlns="http://www.w3.org/2000/svg" xmlns:xlink="http://www.w3.org/1999/xlink" x="0px" y="0px"
	 viewBox="0 0 12 12" enable-background="new 0 0 12 12" xml:space="preserve">
<path d="M6,0C2.7,0,0,2.7,0,6c0,3.3,2.7,6,6,6c3.3,0,6-2.7,6-6C12,2.7,9.3,0,6,0z M6,11.3c-2.9,0-5.3-2.4-5.3-5.3
	c0-2.9,2.4-5.3,5.3-5.3c2.9,0,5.3,2.4,5.3,5.3C11.3,8.9,8.9,11.3,6,11.3z"/>
<path d="M5,3.6H7c0.1,0,0.2-0.1,0.2-0.2V2.2C7.2,2.1,7.1,2,7,2H5C4.9,2,4.8,2.1,4.8,2.2v1.1C4.8,3.5,4.9,3.6,5,3.6z"/>
<path d="M7,4H6.8H5.2H5C4.4,4,3.9,4.5,3.9,5.2v4.3c0,0.1,0.1,0.2,0.2,0.2H8c0.1,0,0.2-0.1,0.2-0.2V5.2C8.2,4.5,7.6,4,7,4z M7.2,7.3
	H6.3v0.9H5.7V7.3H4.8V6.7h0.9V5.8h0.6v0.9h0.9V7.3z"/>
<g>
</g>
<g>
</g>
<g>
</g>
<g>
</g>
<g>
</g>
<g>
</g>
<g>
</g>
<g>
</g>
<g>
</g>
<g>
</g>
<g>
</g>
<g>
</g>
<g>
</g>
<g>
</g>
<g>
</g>
</svg>
