<?xml version="1.0" encoding="utf-8"?>
<!-- Generator: Adobe Illustrator 18.1.1, SVG Export Plug-In . SVG Version: 6.00 Build 0)  -->
<svg version="1.1" id="Layer_1" xmlns="http://www.w3.org/2000/svg" xmlns:xlink="http://www.w3.org/1999/xlink" x="0px" y="0px"
	 viewBox="0 0 12 12" enable-background="new 0 0 12 12" xml:space="preserve">
<path d="M7.2,2H4.8C4.7,2,4.6,2.1,4.6,2.2v1.3c0,0.1,0.1,0.2,0.2,0.2h2.5c0.1,0,0.2-0.1,0.2-0.2V2.2C7.4,2.1,7.4,2,7.2,2z M5.3,3.3
	H4.9V2.4h0.4V3.3z M6.2,3.3H5.8V2.4h0.4V3.3z M7.1,3.3H6.7V2.4h0.4V3.3z"/>
<path d="M7.9,4H4.1C3.9,4,3.8,4.1,3.8,4.3v5.1c0,0.2,0.1,0.3,0.3,0.3h3.8c0.2,0,0.3-0.1,0.3-0.3V4.3C8.2,4.1,8.1,4,7.9,4z M7.1,7.2
	H6.3v0.7H5.7V7.2H4.9V6.5h0.7V5.8h0.7v0.7h0.7V7.2z"/>
<path d="M0,6c0-3.3,2.7-6,6-6l0,0c3.3,0,6,2.7,6,6l0,0c0,3.3-2.7,6-6,6l0,0C2.7,12,0,9.3,0,6L0,6z M0.7,6c0,2.9,2.4,5.3,5.3,5.3l0,0
	c2.9,0,5.3-2.4,5.3-5.3l0,0c0-2.9-2.4-5.3-5.3-5.3l0,0C3.1,0.7,0.7,3.1,0.7,6L0.7,6z"/>
<g>
</g>
<g>
</g>
<g>
</g>
<g>
</g>
<g>
</g>
<g>
</g>
<g>
</g>
<g>
</g>
<g>
</g>
<g>
</g>
<g>
</g>
<g>
</g>
<g>
</g>
<g>
</g>
<g>
</g>
</svg>
