<?xml version="1.0" encoding="utf-8"?>
<!-- Generator: Adobe Illustrator 18.1.1, SVG Export Plug-In . SVG Version: 6.00 Build 0)  -->
<svg version="1.1" id="Layer_1" xmlns="http://www.w3.org/2000/svg" xmlns:xlink="http://www.w3.org/1999/xlink" x="0px" y="0px"
	 viewBox="0 0 12 12" enable-background="new 0 0 12 12" xml:space="preserve">
<path d="M6,0C2.7,0,0,2.7,0,6c0,3.3,2.7,6,6,6c3.3,0,6-2.7,6-6C12,2.7,9.3,0,6,0z M6,11.3c-2.9,0-5.3-2.4-5.3-5.3
	c0-2.9,2.4-5.3,5.3-5.3c2.9,0,5.3,2.4,5.3,5.3C11.3,8.9,8.9,11.3,6,11.3z"/>
<path d="M9.9,8.3L9.7,8.2c-0.1-0.1-0.2-0.1-0.3,0L9,8.6L8.2,7.8l0.5-0.5c0,0,0,0,0,0l0.8-0.8c0.1-0.1,0.1-0.2,0-0.3L9.4,6.1
	C9.3,6,9.2,6,9.1,6.1L8.6,6.6L7,5.1L5.3,3.3c-0.1-0.1-0.4-0.1-0.5,0L4.1,4.1L3.3,4.8c-0.1,0.1-0.1,0.4,0,0.5L5.1,7l1.6,1.6L6.1,9.1
	C6,9.2,6,9.3,6.1,9.4l0.1,0.1c0.1,0.1,0.2,0.1,0.3,0l1.1-1.1l0.3-0.3L8.6,9L8.2,9.5c-0.1,0.1-0.1,0.2,0,0.3l0.1,0.1
	c0.1,0.1,0.2,0.1,0.3,0l1.3-1.3C9.9,8.5,9.9,8.4,9.9,8.3z M3.9,5l0.3-0.3l0.7-0.7L5,3.9l0.3,0.3l1.8,1.8H4.8l0,0L4.1,5.3L3.9,5z"/>
<polygon points="4.1,3.7 2.5,2.4 2.4,2.5 3.7,4.1 "/>
<g>
</g>
<g>
</g>
<g>
</g>
<g>
</g>
<g>
</g>
<g>
</g>
<g>
</g>
<g>
</g>
<g>
</g>
<g>
</g>
<g>
</g>
<g>
</g>
<g>
</g>
<g>
</g>
<g>
</g>
</svg>
