<?xml version="1.0" encoding="utf-8"?>
<!-- Generator: Adobe Illustrator 18.1.1, SVG Export Plug-In . SVG Version: 6.00 Build 0)  -->
<svg version="1.1" id="Layer_1" xmlns="http://www.w3.org/2000/svg" xmlns:xlink="http://www.w3.org/1999/xlink" x="0px" y="0px"
	 viewBox="0 0 12 12" enable-background="new 0 0 12 12" xml:space="preserve">
<g>
	<path d="M8.9,5.7c0.7-0.7,0.7-1.8,0-2.5c-0.7-0.7-1.8-0.7-2.5,0c0.3,0.5,0.7,1,1.1,1.4C7.9,5,8.4,5.3,8.9,5.7z"/>
	<path d="M6.1,3.4C5.9,3.7,5.8,4.2,5.8,4.6c0,0,0,0.4,0.6,1c0.6,0.6,1,0.6,1,0.6c0.4,0,0.8-0.1,1.2-0.3C8.1,5.6,7.7,5.2,7.2,4.8
		C6.8,4.3,6.4,3.9,6.1,3.4z"/>
	<path d="M5.5,4.9L2.8,8.2l0.1,0.1L2.7,8.5l0.7,0.7l0.2-0.1l0.1,0.1l3.4-2.6c-0.2-0.1-0.6-0.2-1-0.7C5.7,5.4,5.5,5.1,5.5,4.9z"/>
</g>
<path d="M0,6c0-3.3,2.7-6,6-6l0,0c3.3,0,6,2.7,6,6l0,0c0,3.3-2.7,6-6,6l0,0C2.7,12,0,9.3,0,6L0,6z M0.7,6c0,2.9,2.4,5.3,5.3,5.3l0,0
	c2.9,0,5.3-2.4,5.3-5.3l0,0c0-2.9-2.4-5.3-5.3-5.3l0,0C3.1,0.7,0.7,3.1,0.7,6L0.7,6z"/>
<g>
</g>
<g>
</g>
<g>
</g>
<g>
</g>
<g>
</g>
<g>
</g>
<g>
</g>
<g>
</g>
<g>
</g>
<g>
</g>
<g>
</g>
<g>
</g>
<g>
</g>
<g>
</g>
<g>
</g>
</svg>
