<?xml version="1.0" encoding="utf-8"?>
<!-- Generator: Adobe Illustrator 18.1.1, SVG Export Plug-In . SVG Version: 6.00 Build 0)  -->
<svg version="1.1" id="Layer_1" xmlns="http://www.w3.org/2000/svg" xmlns:xlink="http://www.w3.org/1999/xlink" x="0px" y="0px"
	 viewBox="0 0 12 12" enable-background="new 0 0 12 12" xml:space="preserve">
<path d="M9,2.7C8.3,2,7.2,2,6.5,2.7c0.3,0.5,0.7,1,1.1,1.4C8,4.5,8.5,4.9,9,5.2C9.7,4.5,9.7,3.4,9,2.7z"/>
<path d="M6.2,3C6,3.3,5.9,3.8,5.9,4.2c0,0,0,0.4,0.6,1c0.6,0.6,1,0.6,1,0.6c0.4,0,0.8-0.1,1.2-0.3C8.2,5.2,7.8,4.8,7.3,4.4
	C6.9,3.9,6.6,3.5,6.2,3z"/>
<path d="M3.6,8.7l0.2-0.1l0.1,0.1l3.3-2.6C7,6,6.7,5.8,6.3,5.4C5.8,5,5.7,4.6,5.6,4.4L3,7.7l0.1,0.1L2.9,8.1l0.2,0.2
	c-0.3,0.3-0.3,0.9,0,1.2c0.2,0.2,0.4,0.2,0.6,0.2c0.2,0,0.4-0.1,0.6-0.2l0.3-0.3c0.1-0.1,0.3-0.1,0.4,0c0.1,0.1,0.3,0.1,0.4,0
	c0.1-0.1,0.1-0.3,0-0.4c-0.3-0.3-0.9-0.3-1.2,0L3.9,9C3.8,9.1,3.6,9.1,3.5,9c-0.1-0.1-0.1-0.3,0-0.4L3.6,8.7z"/>
<path d="M0,6c0-3.3,2.7-6,6-6l0,0c3.3,0,6,2.7,6,6l0,0c0,3.3-2.7,6-6,6l0,0C2.7,12,0,9.3,0,6L0,6z M0.7,6c0,2.9,2.4,5.3,5.3,5.3l0,0
	c2.9,0,5.3-2.4,5.3-5.3l0,0c0-2.9-2.4-5.3-5.3-5.3l0,0C3.1,0.7,0.7,3.1,0.7,6L0.7,6z"/>
<g>
</g>
<g>
</g>
<g>
</g>
<g>
</g>
<g>
</g>
<g>
</g>
<g>
</g>
<g>
</g>
<g>
</g>
<g>
</g>
<g>
</g>
<g>
</g>
<g>
</g>
<g>
</g>
<g>
</g>
</svg>
