<?xml version="1.0" encoding="utf-8"?>
<!-- Generator: Adobe Illustrator 18.1.1, SVG Export Plug-In . SVG Version: 6.00 Build 0)  -->
<svg version="1.1" id="Layer_1" xmlns="http://www.w3.org/2000/svg" xmlns:xlink="http://www.w3.org/1999/xlink" x="0px" y="0px"
	 viewBox="0 0 12 12" enable-background="new 0 0 12 12" xml:space="preserve">
<path d="M0,6c0-3.3,2.7-6,6-6l0,0c3.3,0,6,2.7,6,6l0,0c0,3.3-2.7,6-6,6l0,0C2.7,12,0,9.3,0,6L0,6z M0.7,6c0,2.9,2.4,5.3,5.3,5.3l0,0
	c2.9,0,5.3-2.4,5.3-5.3l0,0c0-2.9-2.4-5.3-5.3-5.3l0,0C3.1,0.7,0.7,3.1,0.7,6L0.7,6z"/>
<g>
	<path d="M6.3,5.3H6.1c0,0,0,0,0,0l0.1,0.7c0,0,0,0,0,0L6.3,5.3C6.3,5.3,6.3,5.3,6.3,5.3z"/>
	<path d="M5.3,5.3H5c0,0,0,0,0,0l0.1,0.7c0,0,0,0,0,0L5.3,5.3C5.3,5.3,5.3,5.3,5.3,5.3z"/>
	<path d="M2,3.5v3.8h4.6c0.1-0.3,0.3-0.6,0.6-0.8c0.3-0.2,0.7-0.3,1.2-0.3c0.3,0,0.7,0.1,0.9,0.2V3.5H2z M7,5.3C7,5.3,7,5.3,7,5.3
		l-0.4,0c0,0,0,0,0,0l-0.2,1c0,0,0,0,0,0H5.9c0,0,0,0,0,0l-0.2-1c0,0,0,0,0,0c0,0,0,0,0,0l-0.2,1c0,0,0,0,0,0H4.9c0,0,0,0,0,0
		l-0.2-1c0,0,0,0,0,0H4.3c0,0,0,0,0,0V5c0,0,0,0,0,0h0.3c0,0,0,0,0,0L4.5,4.4c0,0,0,0,0,0h0.3c0,0,0,0,0,0l0.1,0.5c0,0,0,0,0,0h0.4
		c0,0,0,0,0,0l0.1-0.5c0,0,0,0,0,0h0.3c0,0,0,0,0,0L6,4.9c0,0,0,0,0,0h0.4c0,0,0,0,0,0l0.1-0.5c0,0,0,0,0,0h0.3c0,0,0,0,0,0L6.7,4.9
		c0,0,0,0,0,0H7c0,0,0,0,0,0V5.3z"/>
</g>
<g>
	<path d="M9.4,8.8C9.1,9,8.8,9.1,8.4,9.1C8,9.1,7.6,9,7.4,8.8C7.2,8.7,7.1,8.6,7,8.4c0,0,0,0.1,0,0.1C7,9,7.6,9.4,8.4,9.4
		c0.8,0,1.4-0.4,1.4-0.9c0,0,0-0.1,0-0.1C9.6,8.6,9.5,8.7,9.4,8.8z"/>
	<path d="M9.4,8.2c-0.3,0.2-0.6,0.3-1,0.3c-0.4,0-0.7-0.1-1-0.3C7.2,8.1,7.1,8,7,7.8c0,0,0,0.1,0,0.1c0,0.5,0.6,0.9,1.4,0.9
		c0.8,0,1.4-0.4,1.4-0.9c0-0.1,0-0.1,0-0.1C9.6,8,9.5,8.1,9.4,8.2z"/>
	<ellipse cx="8.4" cy="7.4" rx="1.4" ry="0.9"/>
</g>
<g>
</g>
<g>
</g>
<g>
</g>
<g>
</g>
<g>
</g>
<g>
</g>
<g>
</g>
<g>
</g>
<g>
</g>
<g>
</g>
<g>
</g>
<g>
</g>
<g>
</g>
<g>
</g>
<g>
</g>
</svg>
