<?xml version="1.0" encoding="utf-8"?>
<!-- Generator: Adobe Illustrator 18.1.1, SVG Export Plug-In . SVG Version: 6.00 Build 0)  -->
<svg version="1.1" id="Layer_1" xmlns="http://www.w3.org/2000/svg" xmlns:xlink="http://www.w3.org/1999/xlink" x="0px" y="0px"
	 viewBox="0 0 12 12" enable-background="new 0 0 12 12" xml:space="preserve">
<path d="M6,0C2.7,0,0,2.7,0,6c0,3.3,2.7,6,6,6c3.3,0,6-2.7,6-6C12,2.7,9.3,0,6,0z M6,11.3c-2.9,0-5.3-2.4-5.3-5.3
	c0-2.9,2.4-5.3,5.3-5.3c2.9,0,5.3,2.4,5.3,5.3C11.3,8.9,8.9,11.3,6,11.3z"/>
<path d="M9.1,5.2l0.4-1.8l-1,0L8.1,5.2H6.9L6.5,3.4h-1L5.1,5.2H3.9L3.5,3.4h-1l0.4,1.8H2.2v1h1l0.6,2.8c0,0.1,0.2,0.2,0.3,0.2H5
	c0.1,0,0.3-0.1,0.3-0.2l0.6-2.8h0.2l0.6,2.8c0,0.1,0.2,0.2,0.3,0.2h0.9c0.1,0,0.3-0.1,0.3-0.2l0.6-2.8h1v-1H9.1z M7.9,6.2L7.5,7.7
	L7.1,6.2H7.9z M4.9,6.2L4.5,7.7L4.2,6.2L4.9,6.2z"/>
<g>
</g>
<g>
</g>
<g>
</g>
<g>
</g>
<g>
</g>
<g>
</g>
<g>
</g>
<g>
</g>
<g>
</g>
<g>
</g>
<g>
</g>
<g>
</g>
<g>
</g>
<g>
</g>
<g>
</g>
</svg>
