<?xml version="1.0" encoding="utf-8"?>
<!-- Generator: Adobe Illustrator 18.1.1, SVG Export Plug-In . SVG Version: 6.00 Build 0)  -->
<svg version="1.1" id="Layer_1" xmlns="http://www.w3.org/2000/svg" xmlns:xlink="http://www.w3.org/1999/xlink" x="0px" y="0px"
	 viewBox="0 0 12 12" enable-background="new 0 0 12 12" xml:space="preserve">
<path d="M6,0C2.7,0,0,2.7,0,6c0,3.3,2.7,6,6,6c3.3,0,6-2.7,6-6C12,2.7,9.3,0,6,0z M6,11.3c-2.9,0-5.3-2.4-5.3-5.3
	c0-2.9,2.4-5.3,5.3-5.3c2.9,0,5.3,2.4,5.3,5.3C11.3,8.9,8.9,11.3,6,11.3z"/>
<path d="M7,4.7C7,4.4,7,4.1,6.8,4C6.7,3.9,6.5,3.8,6.4,3.8v1.6c0.4,0.1,0.7,0.2,0.9,0.3C7.5,5.9,7.7,6,7.9,6.1
	c0.2,0.2,0.3,0.4,0.4,0.6c0,0.2,0.1,0.3,0.1,0.6c0,0.4-0.1,0.8-0.4,1.2C7.5,8.8,7,9,6.4,9v0.6H5.7V9C5,9,4.5,8.9,4.2,8.5
	C3.8,8.2,3.7,7.7,3.7,7.2h1.2c0,0.3,0.1,0.6,0.2,0.7c0.1,0.2,0.3,0.3,0.6,0.3V6.4c-0.6-0.1-1-0.3-1.2-0.5C4,5.6,3.8,5.2,3.8,4.7
	c0-0.5,0.2-0.9,0.5-1.2C4.6,3.1,5.1,3,5.7,3V2.3h0.7V3c0.5,0,0.9,0.1,1.2,0.3C8,3.6,8.2,4.1,8.2,4.7H7z M5.7,3.8
	C5.5,3.8,5.3,3.9,5.2,4C5.1,4.2,5,4.3,5,4.5c0,0.3,0.1,0.5,0.2,0.6c0.1,0.1,0.2,0.2,0.4,0.2V3.8z M6.4,8.2c0.2,0,0.3-0.1,0.4-0.2
	C7,7.9,7.1,7.7,7.1,7.4c0-0.2-0.1-0.4-0.2-0.6C6.8,6.7,6.6,6.6,6.4,6.5l0,0V8.2z"/>
<g>
</g>
<g>
</g>
<g>
</g>
<g>
</g>
<g>
</g>
<g>
</g>
<g>
</g>
<g>
</g>
<g>
</g>
<g>
</g>
<g>
</g>
<g>
</g>
<g>
</g>
<g>
</g>
<g>
</g>
</svg>
