<?xml version="1.0" encoding="utf-8"?>
<!-- Generator: Adobe Illustrator 18.1.1, SVG Export Plug-In . SVG Version: 6.00 Build 0)  -->
<svg version="1.1" id="Layer_1" xmlns="http://www.w3.org/2000/svg" xmlns:xlink="http://www.w3.org/1999/xlink" x="0px" y="0px"
	 viewBox="0 0 12 12" enable-background="new 0 0 12 12" xml:space="preserve">
<path d="M0,6c0-3.3,2.7-6,6-6l0,0c3.3,0,6,2.7,6,6l0,0c0,3.3-2.7,6-6,6l0,0C2.7,12,0,9.3,0,6L0,6z M0.7,6c0,2.9,2.4,5.3,5.3,5.3l0,0
	c2.9,0,5.3-2.4,5.3-5.3l0,0c0-2.9-2.4-5.3-5.3-5.3l0,0C3.1,0.7,0.7,3.1,0.7,6L0.7,6z"/>
<polygon points="9.4,4.6 9.4,7.7 2.9,7.7 2.9,8.2 9.9,8.2 9.9,4.6 "/>
<g>
	<path d="M6.2,5.5H6c0,0,0,0,0,0l0.1,0.7c0,0,0,0,0,0L6.2,5.5C6.2,5.5,6.2,5.5,6.2,5.5z"/>
	<path d="M5.2,5.5H5c0,0,0,0,0,0l0.1,0.7c0,0,0,0,0,0L5.2,5.5C5.2,5.5,5.2,5.5,5.2,5.5z"/>
	<path d="M2.1,3.8v3.6h7V3.8H2.1z M6.9,5.5H6.6c0,0,0,0,0,0l-0.2,1c0,0,0,0,0,0H5.8c0,0,0,0,0,0l-0.2-1c0,0,0,0,0,0c0,0,0,0,0,0
		l-0.2,1c0,0,0,0,0,0H4.8c0,0,0,0,0,0l-0.2-1c0,0,0,0,0,0H4.3c0,0,0,0,0,0V5.2c0,0,0,0,0,0h0.2c0,0,0,0,0,0L4.5,4.6c0,0,0,0,0,0h0.3
		c0,0,0,0,0,0l0.1,0.5c0,0,0,0,0,0h0.4c0,0,0,0,0,0l0.1-0.5c0,0,0,0,0,0h0.3c0,0,0,0,0,0l0.1,0.5c0,0,0,0,0,0h0.4c0,0,0,0,0,0
		l0.1-0.5c0,0,0,0,0,0h0.3c0,0,0,0,0,0L6.6,5.2c0,0,0,0,0,0h0.3c0,0,0,0,0,0L6.9,5.5C6.9,5.5,6.9,5.5,6.9,5.5z"/>
</g>
<g>
</g>
<g>
</g>
<g>
</g>
<g>
</g>
<g>
</g>
<g>
</g>
<g>
</g>
<g>
</g>
<g>
</g>
<g>
</g>
<g>
</g>
<g>
</g>
<g>
</g>
<g>
</g>
<g>
</g>
</svg>
