<?xml version="1.0" encoding="utf-8"?>
<!-- Generator: Adobe Illustrator 18.1.1, SVG Export Plug-In . SVG Version: 6.00 Build 0)  -->
<svg version="1.1" id="Layer_1" xmlns="http://www.w3.org/2000/svg" xmlns:xlink="http://www.w3.org/1999/xlink" x="0px" y="0px"
	 viewBox="0 0 12 12" enable-background="new 0 0 12 12" xml:space="preserve">
<path d="M0,6c0-3.3,2.7-6,6-6l0,0c3.3,0,6,2.7,6,6l0,0c0,3.3-2.7,6-6,6l0,0C2.7,12,0,9.3,0,6L0,6z M0.7,6c0,2.9,2.4,5.3,5.3,5.3l0,0
	c2.9,0,5.3-2.4,5.3-5.3l0,0c0-2.9-2.4-5.3-5.3-5.3l0,0C3.1,0.7,0.7,3.1,0.7,6L0.7,6z"/>
<path d="M7.3,9.2C7,9.2,6.9,9,6.9,8.7H5.2C5.1,9,5,9.2,4.7,9.2c-0.1,0-0.1,0.2,0,0.2h2.6C7.4,9.4,7.4,9.2,7.3,9.2z"/>
<path d="M9.1,3.3H2.9c-0.1,0-0.3,0.1-0.3,0.3l0,4.5c0,0.2,0.1,0.3,0.3,0.3h6.3c0.2,0,0.3-0.1,0.3-0.3V3.6C9.4,3.4,9.3,3.3,9.1,3.3z
	 M8.9,7.4H3.1l0-3.5h5.7V7.4z"/>
<g>
</g>
<g>
</g>
<g>
</g>
<g>
</g>
<g>
</g>
<g>
</g>
<g>
</g>
<g>
</g>
<g>
</g>
<g>
</g>
<g>
</g>
<g>
</g>
<g>
</g>
<g>
</g>
<g>
</g>
</svg>
