<?xml version="1.0" encoding="utf-8"?>
<!-- Generator: Adobe Illustrator 18.1.1, SVG Export Plug-In . SVG Version: 6.00 Build 0)  -->
<svg version="1.1" id="Layer_1" xmlns="http://www.w3.org/2000/svg" xmlns:xlink="http://www.w3.org/1999/xlink" x="0px" y="0px"
	 viewBox="0 0 12 12" enable-background="new 0 0 12 12" xml:space="preserve">
<path d="M0,6c0-3.3,2.7-6,6-6l0,0c3.3,0,6,2.7,6,6l0,0c0,3.3-2.7,6-6,6l0,0C2.7,12,0,9.3,0,6L0,6z M0.7,6c0,2.9,2.4,5.3,5.3,5.3l0,0
	c2.9,0,5.3-2.4,5.3-5.3l0,0c0-2.9-2.4-5.3-5.3-5.3l0,0C3.1,0.7,0.7,3.1,0.7,6L0.7,6z"/>
<path d="M8.8,4.8H3.3l5.4-1.5L8.3,2c0-0.1-0.1-0.2-0.2-0.1L3,3.3c-0.1,0-0.2,0.1-0.1,0.2l0.4,1.3v4.4c0,0.1,0.1,0.2,0.2,0.2h5.3
	c0.1,0,0.2-0.1,0.2-0.2V4.8z M8,2.3l0.2,0.9L7.4,3.4L8,2.3z M6.4,2.7l0.8-0.2L6.6,3.6L5.8,3.8L6.4,2.7z M4.8,3.1l0.8-0.2L5,4
	L4.2,4.2L4.8,3.1z M3.2,3.6L4,3.3L3.4,4.4L3.2,3.6z M3.5,5.1h0.9L3.5,6V5.1z M4.3,6.1l0.9-0.9h0.8L5.1,6.1H4.3z M6,6.1l0.9-0.9h0.8
	L6.8,6.1H6z M8.5,6.1H7.6l0.9-0.9V6.1z"/>
<g>
</g>
<g>
</g>
<g>
</g>
<g>
</g>
<g>
</g>
<g>
</g>
<g>
</g>
<g>
</g>
<g>
</g>
<g>
</g>
<g>
</g>
<g>
</g>
<g>
</g>
<g>
</g>
<g>
</g>
</svg>
