<?xml version="1.0" encoding="utf-8"?>
<!-- Generator: Adobe Illustrator 18.1.1, SVG Export Plug-In . SVG Version: 6.00 Build 0)  -->
<svg version="1.1" id="Layer_1" xmlns="http://www.w3.org/2000/svg" xmlns:xlink="http://www.w3.org/1999/xlink" x="0px" y="0px"
	 viewBox="0 0 12 12" enable-background="new 0 0 12 12" xml:space="preserve">
<path d="M5.8,9.2V7.3L4.6,8.5C4.9,8.9,5.3,9.1,5.8,9.2z"/>
<path d="M8.4,6.5H7.7c0-0.3,0-0.6,0-0.9h0.9l0.7,0.6h0c0.1,0.1,0.2,0.1,0.3,0c0,0,0,0,0,0v0c0,0,0.1-0.1,0.1-0.1L8.9,5.4l0,0
	C8.8,5.3,8.7,5.3,8.6,5.3H7.8L6.2,6.9v2.3c0.9-0.1,1.5-0.8,1.5-1.7c0-0.2,0-0.4,0-0.6h0.7l0.9,1.3c0.1,0.1,0.2,0.1,0.3,0l0,0l0,0
	l0.1-0.1l-1-1.5C8.6,6.6,8.5,6.5,8.4,6.5z"/>
<path d="M6,0C2.7,0,0,2.7,0,6c0,3.3,2.7,6,6,6c3.3,0,6-2.7,6-6C12,2.7,9.3,0,6,0z M6,0.7c1.3,0,2.5,0.5,3.4,1.3l-2,2
	C7.3,3.9,7.3,3.8,7.1,3.7c0-0.6-0.5-1.1-1.1-1.1c-0.6,0-1.1,0.5-1.1,1.1C4.7,3.9,4.6,4,4.5,4.2H3.7L3.2,3.4l0,0
	C3.1,3.3,3,3.2,2.9,3.3l0,0h0L2.8,3.4l0.6,1c0,0,0,0,0,0c0.1,0.1,0.2,0.2,0.3,0.2h0.7c0,0.1-0.1,0.3-0.1,0.4c0,0.1,0,0.2,0,0.3H3.5
	c-0.1,0-0.2,0.1-0.3,0.1L2.4,6.1l0.1,0.1l0,0l0,0c0.1,0.1,0.2,0.1,0.3,0l0.7-0.6l0.9,0c0,0.3,0,0.6,0,0.9H3.6
	c-0.1,0-0.2,0.1-0.3,0.2l-1,1.5l0.2,0.1l0,0v0h0c0.1,0.1,0.2,0,0.3,0l0.9-1.3h0.7c0,0.1,0,0.2,0,0.3L2,9.4C1.2,8.5,0.7,7.3,0.7,6
	C0.7,3.1,3.1,0.7,6,0.7z M6,11.3c-1.3,0-2.5-0.5-3.4-1.3L10,2.6c0.8,0.9,1.3,2.1,1.3,3.4C11.3,8.9,8.9,11.3,6,11.3z"/>
<g>
</g>
<g>
</g>
<g>
</g>
<g>
</g>
<g>
</g>
<g>
</g>
<g>
</g>
<g>
</g>
<g>
</g>
<g>
</g>
<g>
</g>
<g>
</g>
<g>
</g>
<g>
</g>
<g>
</g>
</svg>
