<?xml version="1.0" encoding="utf-8"?>
<!-- Generator: Adobe Illustrator 18.1.1, SVG Export Plug-In . SVG Version: 6.00 Build 0)  -->
<svg version="1.1" id="Layer_1" xmlns="http://www.w3.org/2000/svg" xmlns:xlink="http://www.w3.org/1999/xlink" x="0px" y="0px"
	 viewBox="0 0 12 12" enable-background="new 0 0 12 12" xml:space="preserve">
<path d="M8,6c0-0.3-0.1-0.5-0.2-0.7L6.2,6.9C6.4,7,6.6,7.1,6.9,7.1C7.5,7.1,8,6.6,8,6z"/>
<path d="M9.4,3.7L9.4,3.7L8.1,5c0.2,0.3,0.4,0.6,0.4,1c0,0.9-0.7,1.6-1.6,1.6c-0.4,0-0.7-0.1-1-0.4L4.8,8.3h4.6
	c0.1,0,0.2-0.1,0.2-0.2V3.9C9.6,3.8,9.5,3.7,9.4,3.7z"/>
<path d="M6,0C2.7,0,0,2.7,0,6c0,3.3,2.7,6,6,6c3.3,0,6-2.7,6-6C12,2.7,9.3,0,6,0z M0.7,6c0-2.9,2.4-5.3,5.3-5.3
	c1.3,0,2.5,0.5,3.4,1.3L7.7,3.7H5H4.6H4.4L4.3,3.5c0,0-0.1-0.1-0.1-0.1H3.3c0,0-0.1,0-0.1,0.1L3,3.7H2.9H2.7H2.6
	c-0.1,0-0.2,0.1-0.2,0.2v4.2c0,0.1,0.1,0.2,0.2,0.2h0.5L2,9.4C1.2,8.5,0.7,7.3,0.7,6z M7,4.4L6.5,5C6.2,5.1,6,5.3,5.8,5.6L5.3,6.1
	c0,0,0-0.1,0-0.1c0-0.9,0.7-1.6,1.6-1.6C6.9,4.4,7,4.4,7,4.4z M4.3,4.6v0.1c0,0.1-0.1,0.2-0.2,0.2H3.4c-0.1,0-0.2-0.1-0.2-0.2V4.6
	c0-0.1,0.1-0.2,0.2-0.2h0.7C4.2,4.4,4.3,4.5,4.3,4.6z M6,11.3c-1.3,0-2.5-0.5-3.4-1.3L10,2.6c0.8,0.9,1.3,2.1,1.3,3.4
	C11.3,8.9,8.9,11.3,6,11.3z"/>
<g>
</g>
<g>
</g>
<g>
</g>
<g>
</g>
<g>
</g>
<g>
</g>
<g>
</g>
<g>
</g>
<g>
</g>
<g>
</g>
<g>
</g>
<g>
</g>
<g>
</g>
<g>
</g>
<g>
</g>
</svg>
