<?xml version="1.0" encoding="utf-8"?>
<!-- Generator: Adobe Illustrator 18.1.1, SVG Export Plug-In . SVG Version: 6.00 Build 0)  -->
<svg version="1.1" id="Layer_1" xmlns="http://www.w3.org/2000/svg" xmlns:xlink="http://www.w3.org/1999/xlink" x="0px" y="0px"
	 viewBox="0 0 12 12" enable-background="new 0 0 12 12" xml:space="preserve">
<path d="M8,7.3c0.3,0,0.6-0.3,0.6-0.6c0-0.2-0.1-1.6-0.1-2.1l-1,1c0,0.5-0.1,1-0.1,1.1C7.4,7.1,7.7,7.3,8,7.3z"/>
<path d="M9.5,4.3c0-0.1-0.2-0.3-0.3-0.5L8.8,4.3C8.9,4.9,9,6.5,9,6.7c0,0.5-0.4,1-1,1c-0.5,0-1-0.4-1-1c0-0.1,0-0.4,0-0.7L5.5,7.6
	l0.2,0.1l0.8,2.8c2.2-0.2,3.9-2,4-4.2L9.5,4.3z"/>
<path d="M6,0C2.7,0,0,2.7,0,6c0,3.3,2.7,6,6,6c3.3,0,6-2.7,6-6C12,2.7,9.3,0,6,0z M6,0.7c1.3,0,2.5,0.5,3.4,1.3L8.2,3.2
	c-0.1,0-0.2,0-0.4,0H6.3C6,3.2,5.6,3.3,5.4,3.5L5,3.9C4.7,4.1,4.3,4.3,4.1,4.3L2.6,4.6c-0.3,0-0.5,0.3-0.4,0.6l0.2,1
	C2.5,6.5,2.7,6.8,3,6.9l1.2,0.4L2,9.4C1.2,8.5,0.7,7.3,0.7,6C0.7,3.1,3.1,0.7,6,0.7z M5.3,4.6c0-0.2,0.2-0.4,0.4-0.4
	c0.2,0,0.4,0.2,0.4,0.4S5.9,5,5.7,5C5.5,5,5.3,4.8,5.3,4.6z M6,11.3c-1.3,0-2.5-0.5-3.4-1.3L10,2.6c0.8,0.9,1.3,2.1,1.3,3.4
	C11.3,8.9,8.9,11.3,6,11.3z"/>
<g>
</g>
<g>
</g>
<g>
</g>
<g>
</g>
<g>
</g>
<g>
</g>
<g>
</g>
<g>
</g>
<g>
</g>
<g>
</g>
<g>
</g>
<g>
</g>
<g>
</g>
<g>
</g>
<g>
</g>
</svg>
