<?xml version="1.0" encoding="utf-8"?>
<!-- Generator: Adobe Illustrator 18.1.1, SVG Export Plug-In . SVG Version: 6.00 Build 0)  -->
<svg version="1.1" id="Layer_1" xmlns="http://www.w3.org/2000/svg" xmlns:xlink="http://www.w3.org/1999/xlink" x="0px" y="0px"
	 viewBox="0 0 12 12" enable-background="new 0 0 12 12" xml:space="preserve">
<path d="M7.7,8.7H4.4L3.8,9.3c0.1,0.3,0.3,0.5,0.6,0.5h3.1c0.4,0,0.7-0.3,0.7-0.7V4.9L7.7,5.4V8.7z M6.4,9.4
	C6.4,9.4,6.4,9.5,6.4,9.4L5.7,9.5c-0.1,0-0.1,0-0.1-0.1V9.1c0-0.1,0-0.1,0.1-0.1h0.7c0.1,0,0.1,0,0.1,0.1V9.4z"/>
<path d="M6,0C2.7,0,0,2.7,0,6c0,3.3,2.7,6,6,6c3.3,0,6-2.7,6-6C12,2.7,9.3,0,6,0z M6,0.7c1.3,0,2.5,0.5,3.4,1.3L8.2,3.2V2.9
	c0-0.4-0.3-0.7-0.7-0.7H4.4c-0.4,0-0.7,0.3-0.7,0.7v4.8L2,9.4C1.2,8.5,0.7,7.3,0.7,6C0.7,3.1,3.1,0.7,6,0.7z M7.7,3.3v0.4L4.3,7.1
	V3.3H7.7z M5.5,2.8c0-0.1,0-0.1,0.1-0.1h0.8c0.1,0,0.1,0,0.1,0.1c0,0.1,0,0.1-0.1,0.1H5.6C5.5,2.9,5.5,2.8,5.5,2.8z M6,11.3
	c-1.3,0-2.5-0.5-3.4-1.3L10,2.6c0.8,0.9,1.3,2.1,1.3,3.4C11.3,8.9,8.9,11.3,6,11.3z"/>
<g>
</g>
<g>
</g>
<g>
</g>
<g>
</g>
<g>
</g>
<g>
</g>
<g>
</g>
<g>
</g>
<g>
</g>
<g>
</g>
<g>
</g>
<g>
</g>
<g>
</g>
<g>
</g>
<g>
</g>
</svg>
