<?xml version="1.0" encoding="utf-8"?>
<!-- Generator: Adobe Illustrator 18.1.1, SVG Export Plug-In . SVG Version: 6.00 Build 0)  -->
<svg version="1.1" id="Layer_1" xmlns="http://www.w3.org/2000/svg" xmlns:xlink="http://www.w3.org/1999/xlink" x="0px" y="0px"
	 viewBox="0 0 12 12" enable-background="new 0 0 12 12" xml:space="preserve">
<path d="M3.2,6.5v0.8h0.4V6.5c0-0.1,0.1-0.3,0.3-0.4L5,5.6h0l0,0c0.3-0.2,0.5-0.4,0.5-0.7V4.3c0-0.1,0.1-0.4,0.3-0.4l0.7-0.4
	C6.7,3.4,7,3.1,7,2.8V2.3H6.6l0,0.5c0,0.1-0.1,0.4-0.3,0.4L5.6,3.6C5.3,3.8,5.1,4,5.1,4.3v0.5c0,0.1-0.1,0.3-0.3,0.4l0,0l0,0l-1,0.5
	C3.4,5.9,3.2,6.2,3.2,6.5z"/>
<path d="M2.8,6.1C2.8,6,3,5.7,3.1,5.6l0.5-0.4C3.8,5,4,4.7,4,4.4l0-1.2C4,3,4.1,2.8,4.2,2.7l0.4-0.4H4.1L4,2.4
	C3.7,2.6,3.6,2.9,3.6,3.2v1.2c0,0.1-0.1,0.4-0.2,0.5L2.8,5.3C2.6,5.5,2.5,5.8,2.5,6.1v1.2h0.4V6.1z"/>
<polygon points="5.5,7.7 4.5,8.6 9.5,8.6 9.5,7.7 "/>
<path d="M6,0C2.7,0,0,2.7,0,6c0,3.3,2.7,6,6,6c3.3,0,6-2.7,6-6C12,2.7,9.3,0,6,0z M6,0.7c1.3,0,2.5,0.5,3.4,1.3L3.8,7.7H3.6v0.2
	L3.2,8.2V7.7H2.5v0.9h0.4L2,9.4C1.2,8.5,0.7,7.3,0.7,6C0.7,3.1,3.1,0.7,6,0.7z M6,11.3c-1.3,0-2.5-0.5-3.4-1.3L10,2.6
	c0.8,0.9,1.3,2.1,1.3,3.4C11.3,8.9,8.9,11.3,6,11.3z"/>
<g>
</g>
<g>
</g>
<g>
</g>
<g>
</g>
<g>
</g>
<g>
</g>
<g>
</g>
<g>
</g>
<g>
</g>
<g>
</g>
<g>
</g>
<g>
</g>
<g>
</g>
<g>
</g>
<g>
</g>
</svg>
