<?xml version="1.0" encoding="utf-8"?>
<!-- Generator: Adobe Illustrator 18.1.1, SVG Export Plug-In . SVG Version: 6.00 Build 0)  -->
<svg version="1.1" id="Layer_1" xmlns="http://www.w3.org/2000/svg" xmlns:xlink="http://www.w3.org/1999/xlink" x="0px" y="0px"
	 viewBox="0 0 12 12" enable-background="new 0 0 12 12" xml:space="preserve">
<path d="M6,0C2.7,0,0,2.7,0,6c0,3.3,2.7,6,6,6c3.3,0,6-2.7,6-6C12,2.7,9.3,0,6,0z M6,11.3c-2.9,0-5.3-2.4-5.3-5.3
	c0-2.9,2.4-5.3,5.3-5.3c2.9,0,5.3,2.4,5.3,5.3C11.3,8.9,8.9,11.3,6,11.3z"/>
<path d="M8.3,2.8H7.6l0,0.2c0,0.4-0.3,0.7-0.7,0.7H5.1C4.8,3.7,4.4,3.4,4.4,3V2.8H3.7C3.5,2.8,3.3,3,3.3,3.1v5.9
	c0,0.2,0.2,0.3,0.3,0.3h4.6c0.2,0,0.3-0.2,0.3-0.3V3.1C8.7,3,8.5,2.8,8.3,2.8z M4.2,5.6h3.5V6H4.2V5.6z M4.2,6.8h3.5v0.4H4.2V6.8z
	 M7.8,8.3H4.2V7.9h3.5V8.3z M7.8,4.9H4.2V4.5h3.5V4.9z"/>
<path d="M5.1,3.3h1.7c0.2,0,0.3-0.2,0.3-0.3V2.5H4.8V3C4.8,3.1,5,3.3,5.1,3.3z"/>
<g>
</g>
<g>
</g>
<g>
</g>
<g>
</g>
<g>
</g>
<g>
</g>
<g>
</g>
<g>
</g>
<g>
</g>
<g>
</g>
<g>
</g>
<g>
</g>
<g>
</g>
<g>
</g>
<g>
</g>
</svg>
