<?xml version="1.0" encoding="utf-8"?>
<!-- Generator: Adobe Illustrator 18.1.1, SVG Export Plug-In . SVG Version: 6.00 Build 0)  -->
<svg version="1.1" id="Layer_1" xmlns="http://www.w3.org/2000/svg" xmlns:xlink="http://www.w3.org/1999/xlink" x="0px" y="0px"
	 viewBox="0 0 12 12" enable-background="new 0 0 12 12" xml:space="preserve">
<path d="M0,6c0-3.3,2.7-6,6-6l0,0c3.3,0,6,2.7,6,6l0,0c0,3.3-2.7,6-6,6l0,0C2.7,12,0,9.3,0,6L0,6z M0.7,6c0,2.9,2.4,5.3,5.3,5.3l0,0
	c2.9,0,5.3-2.4,5.3-5.3l0,0c0-2.9-2.4-5.3-5.3-5.3l0,0C3.1,0.7,0.7,3.1,0.7,6L0.7,6z"/>
<path d="M7.8,5.5l0-2L7.4,3.4l0-0.2C7.4,3.1,7.4,3,7.3,3L3,3C2.9,3,2.8,3.1,2.8,3.2l0,5.7C2.8,8.9,2.9,9,3,9l4.3,0
	c0.1,0,0.1-0.1,0.1-0.1l0-3.3L7.8,5.5z M6.7,5L3.6,5V3.9l3.1,0V5z"/>
<g>
	<g>
		<rect x="8.3" y="4.3" width="0.9" height="3.4"/>
		<path d="M8.3,8.1v0.7C8.3,8.9,8.4,9,8.5,9H9c0.1,0,0.1-0.1,0.1-0.1V8.1H8.3z"/>
	</g>
	<polygon points="8.8,3 8.3,3.9 9.2,3.9 	"/>
</g>
<g>
</g>
<g>
</g>
<g>
</g>
<g>
</g>
<g>
</g>
<g>
</g>
<g>
</g>
<g>
</g>
<g>
</g>
<g>
</g>
<g>
</g>
<g>
</g>
<g>
</g>
<g>
</g>
<g>
</g>
</svg>
