<?xml version="1.0" encoding="utf-8"?>
<!-- Generator: Adobe Illustrator 18.1.1, SVG Export Plug-In . SVG Version: 6.00 Build 0)  -->
<svg version="1.1" id="Layer_1" xmlns="http://www.w3.org/2000/svg" xmlns:xlink="http://www.w3.org/1999/xlink" x="0px" y="0px"
	 viewBox="0 0 12 12" enable-background="new 0 0 12 12" xml:space="preserve">
<path d="M6,0C2.7,0,0,2.7,0,6c0,3.3,2.7,6,6,6c3.3,0,6-2.7,6-6C12,2.7,9.3,0,6,0z M6,11.3c-2.9,0-5.3-2.4-5.3-5.3
	c0-2.9,2.4-5.3,5.3-5.3c2.9,0,5.3,2.4,5.3,5.3C11.3,8.9,8.9,11.3,6,11.3z"/>
<path d="M6.6,3.6L5.5,4.2v3.3l1.1,0.6c0.1,0.1,0.2,0,0.2-0.1V3.8C6.9,3.6,6.8,3.5,6.6,3.6z"/>
<path d="M1.9,4.8v2.2c0,0.3,0.2,0.5,0.5,0.5h0.8v2.4c0.2,0.1,0.4,0.2,0.5,0.3V7.5h1.4V4.2H2.5C2.2,4.2,1.9,4.5,1.9,4.8z"/>
<path d="M9.2,2.5l-1.8,1v0.4l2.1-1.1C9.4,2.7,9.3,2.6,9.2,2.5z"/>
<path d="M7.4,7.8v0.4l2,1.1C9.5,9.2,9.6,9.1,9.7,9L7.4,7.8z"/>
<g>
</g>
<g>
</g>
<g>
</g>
<g>
</g>
<g>
</g>
<g>
</g>
<g>
</g>
<g>
</g>
<g>
</g>
<g>
</g>
<g>
</g>
<g>
</g>
<g>
</g>
<g>
</g>
<g>
</g>
</svg>
