<?xml version="1.0" encoding="utf-8"?>
<!-- Generator: Adobe Illustrator 18.1.1, SVG Export Plug-In . SVG Version: 6.00 Build 0)  -->
<svg version="1.1" id="Layer_1" xmlns="http://www.w3.org/2000/svg" xmlns:xlink="http://www.w3.org/1999/xlink" x="0px" y="0px"
	 viewBox="0 0 12 12" enable-background="new 0 0 12 12" xml:space="preserve">
<path d="M9.3,3C9.3,3,9.2,3,9.1,3C8.9,3.1,8.8,3.2,8.8,3.4L8.4,5.5c0,0.2,0,0.3,0.2,0.5L8.5,6.3C8.5,6.1,8.3,6,8.1,6h-2
	C5.8,6,5.6,6.2,5.6,6.5v0.3v0C5.6,6.9,5.7,7,5.9,7H7v1.5H6c-0.2,0-0.3,0.1-0.3,0.3v0.1h3V8.8c0-0.2-0.1-0.3-0.3-0.3h-1V7h1.3
	C8.8,7,9,6.9,9,6.7L9.7,3L9.3,3C9.3,3,9.3,3,9.3,3z"/>
<circle cx="5.7" cy="9.2" r="0.3"/>
<circle cx="8.7" cy="9.2" r="0.3"/>
<path d="M4.7,4.1L4.7,4.1h-3C1.4,4.7,1.3,5.3,1.3,6c0,1.4,0.6,2.6,1.5,3.4h2.1V4.3C4.9,4.2,4.8,4.1,4.7,4.1z"/>
<path d="M6,0C2.7,0,0,2.7,0,6c0,3.3,2.7,6,6,6c3.3,0,6-2.7,6-6C12,2.7,9.3,0,6,0z M6,11.3c-2.9,0-5.3-2.4-5.3-5.3
	c0-2.9,2.4-5.3,5.3-5.3c2.9,0,5.3,2.4,5.3,5.3C11.3,8.9,8.9,11.3,6,11.3z"/>
<g>
</g>
<g>
</g>
<g>
</g>
<g>
</g>
<g>
</g>
<g>
</g>
<g>
</g>
<g>
</g>
<g>
</g>
<g>
</g>
<g>
</g>
<g>
</g>
<g>
</g>
<g>
</g>
<g>
</g>
</svg>
