<?xml version="1.0" encoding="utf-8"?>
<!-- Generator: Adobe Illustrator 18.1.1, SVG Export Plug-In . SVG Version: 6.00 Build 0)  -->
<svg version="1.1" id="Layer_1" xmlns="http://www.w3.org/2000/svg" xmlns:xlink="http://www.w3.org/1999/xlink" x="0px" y="0px"
	 viewBox="0 0 12 12" enable-background="new 0 0 12 12" xml:space="preserve">
<path d="M0,6c0-3.3,2.7-6,6-6l0,0c3.3,0,6,2.7,6,6l0,0c0,3.3-2.7,6-6,6l0,0C2.7,12,0,9.3,0,6L0,6z M0.7,6c0,2.9,2.4,5.3,5.3,5.3l0,0
	c2.9,0,5.3-2.4,5.3-5.3l0,0c0-2.9-2.4-5.3-5.3-5.3l0,0C3.1,0.7,0.7,3.1,0.7,6L0.7,6z"/>
<path d="M10.2,7.4C10.2,6.5,9.7,6,8.7,6H7.6c-0.4,0-0.8,0.1-1,0.3v2.3l0,0H10c0.1,0,0.2-0.1,0.2-0.2L10.2,7.4L10.2,7.4z"/>
<polygon points="4.6,6.4 5.8,4.6 2.1,4.6 3.3,6.4 "/>
<polygon points="3.3,6.9 2.1,8.6 5.8,8.6 4.6,6.9 "/>
<polygon points="6,8.2 6,5 5,6.6 "/>
<polygon points="1.8,5 1.8,8.2 2.9,6.6 "/>
<path d="M7.1,4.5C7.1,4.6,7.1,4.6,7.1,4.5c0,0.1,0,0.1,0,0.1c0,0,0,0,0,0c0,0.2,0.1,0.3,0.2,0.5c0,0,0,0,0,0c0,0,0,0,0.1,0.1
	c0,0,0.1,0.1,0.1,0.1C7.6,5.5,7.8,5.5,8,5.5h0.2h0c0.2,0,0.4-0.1,0.6-0.2c0,0,0.1-0.1,0.1-0.1c0,0,0,0,0.1-0.1c0,0,0,0,0,0
	C9.1,5,9.2,4.8,9.2,4.7c0,0,0,0,0,0c0,0,0,0,0-0.1c0,0,0,0,0-0.1V4.2c0,0,0,0,0-0.1c0,0,0,0,0-0.1c0,0,0,0,0,0
	c0-0.2-0.1-0.4-0.2-0.5c0-0.1-0.1-0.1-0.1-0.1c0,0,0,0,0,0C8.7,3.2,8.5,3.2,8.3,3.2h0H8l0,0c-0.2,0-0.4,0.1-0.6,0.2c0,0,0,0,0,0
	c0,0-0.1,0.1-0.1,0.1C7.2,3.6,7.2,3.7,7.1,3.8H6.5v0.4h0.6V4.5z"/>
<g>
</g>
<g>
</g>
<g>
</g>
<g>
</g>
<g>
</g>
<g>
</g>
<g>
</g>
<g>
</g>
<g>
</g>
<g>
</g>
<g>
</g>
<g>
</g>
<g>
</g>
<g>
</g>
<g>
</g>
</svg>
