<?xml version="1.0" encoding="utf-8"?>
<!-- Generator: Adobe Illustrator 18.1.1, SVG Export Plug-In . SVG Version: 6.00 Build 0)  -->
<svg version="1.1" id="Layer_1" xmlns="http://www.w3.org/2000/svg" xmlns:xlink="http://www.w3.org/1999/xlink" x="0px" y="0px"
	 viewBox="0 0 12 12" enable-background="new 0 0 12 12" xml:space="preserve">
<path d="M6.3,2C6.3,2,6.3,2,6.3,2C6.1,2,6,2,6,2.1c0,0-0.1,0-0.1,0c0,0,0,0,0,0h0l0,0c-0.4,0.2-0.7,0.6-0.7,1c0,0.3,0.1,0.6,0.4,0.8
	C5.5,4.2,5.3,4.4,5.2,4.4c0,0,1.8,0,2.4-0.2C7.6,4.2,7.8,2,6.3,2z"/>
<path d="M0,6c0-3.3,2.7-6,6-6l0,0c3.3,0,6,2.7,6,6l0,0c0,3.3-2.7,6-6,6l0,0C2.7,12,0,9.3,0,6L0,6z M0.7,6c0,2.9,2.4,5.3,5.3,5.3l0,0
	c2.9,0,5.3-2.4,5.3-5.3l0,0c0-2.9-2.4-5.3-5.3-5.3l0,0C3.1,0.7,0.7,3.1,0.7,6L0.7,6z"/>
<path d="M7.9,10.1c0-0.1,0-0.2,0-0.3V8L6.5,8.5c-0.1,0-0.2,0-0.2,0c-0.3,0-0.6-0.2-0.7-0.5C5.4,7.7,5.6,7.3,6,7.1l1.3-0.5l0.1,0.3
	L6.1,7.4C5.9,7.5,5.7,7.7,5.8,8c0,0,0,0.1,0,0.1c0,0,0,0,0,0c0,0,0,0,0,0c0,0,0,0,0,0c0,0,0,0,0,0c0,0,0,0,0,0c0,0,0,0,0.1,0
	c0,0,0,0,0,0c0,0,0,0,0.1,0c0,0,0,0,0,0c0,0,0,0,0.1,0c0,0,0,0,0,0c0,0,0,0,0,0c0,0,0,0,0,0c0,0,0,0,0,0c0,0,0.1,0,0.1,0L8,7.7
	l0.2-0.1c0.2-0.1,0.3-0.2,0.3-0.3c0-0.1,0-0.2,0-0.2L8.3,6.5L7.9,5.4L7.9,5.3l0,0c0,0,0-0.1-0.1-0.1c-0.2-0.3-0.6-0.6-1-0.6H6.5
	C5.6,4.6,5,5.3,5,6.2c0,0.2,0,0.4,0.1,0.6C4.2,7,3.6,7.8,3.6,8.8c0,0.5,0.2,0.9,0.4,1.3c0.6,0.3,1.3,0.5,2,0.5
	C6.7,10.6,7.3,10.4,7.9,10.1z"/>
<g>
</g>
<g>
</g>
<g>
</g>
<g>
</g>
<g>
</g>
<g>
</g>
<g>
</g>
<g>
</g>
<g>
</g>
<g>
</g>
<g>
</g>
<g>
</g>
<g>
</g>
<g>
</g>
<g>
</g>
</svg>
