<?xml version="1.0" encoding="utf-8"?>
<!-- Generator: Adobe Illustrator 18.1.1, SVG Export Plug-In . SVG Version: 6.00 Build 0)  -->
<svg version="1.1" id="Layer_1" xmlns="http://www.w3.org/2000/svg" xmlns:xlink="http://www.w3.org/1999/xlink" x="0px" y="0px"
	 viewBox="0 0 12 12" enable-background="new 0 0 12 12" xml:space="preserve">
<path d="M6,0C2.7,0,0,2.7,0,6c0,3.3,2.7,6,6,6c3.3,0,6-2.7,6-6C12,2.7,9.3,0,6,0z M6,11.3c-2.9,0-5.3-2.4-5.3-5.3
	c0-2.9,2.4-5.3,5.3-5.3c2.9,0,5.3,2.4,5.3,5.3C11.3,8.9,8.9,11.3,6,11.3z"/>
<path d="M8.1,9.3L7.4,8.6C7.2,8.8,6.9,8.9,6.6,9C6.4,9,6.2,9.1,6,9.1c-0.6,0-1.2-0.2-1.7-0.5C3.6,8,3.2,7.1,3.2,5.9
	c0-1.2,0.4-2.1,1.1-2.6c0.5-0.3,1-0.5,1.7-0.5c0.6,0,1.2,0.2,1.7,0.5c0.7,0.5,1.1,1.4,1.1,2.6c0,0.5-0.1,0.9-0.2,1.2
	C8.5,7.5,8.3,7.8,8.2,8l0.6,0.6L8.1,9.3z M6.7,6.6l0.6,0.6C7.4,7,7.4,6.8,7.5,6.6c0.1-0.2,0.1-0.5,0.1-0.7c0-0.8-0.2-1.3-0.5-1.7
	C6.7,4,6.4,3.8,6,3.8C5.6,3.8,5.3,4,5,4.2C4.6,4.6,4.4,5.2,4.4,5.9c0,0.7,0.2,1.3,0.5,1.7C5.3,7.8,5.6,8,6,8c0.1,0,0.2,0,0.3,0
	c0.1,0,0.2-0.1,0.3-0.1L6,7.3L6.7,6.6z"/>
<g>
</g>
<g>
</g>
<g>
</g>
<g>
</g>
<g>
</g>
<g>
</g>
<g>
</g>
<g>
</g>
<g>
</g>
<g>
</g>
<g>
</g>
<g>
</g>
<g>
</g>
<g>
</g>
<g>
</g>
</svg>
