<?xml version="1.0" encoding="utf-8"?>
<!-- Generator: Adobe Illustrator 18.1.1, SVG Export Plug-In . SVG Version: 6.00 Build 0)  -->
<svg version="1.1" id="Layer_1" xmlns="http://www.w3.org/2000/svg" xmlns:xlink="http://www.w3.org/1999/xlink" x="0px" y="0px"
	 viewBox="0 0 12 12" enable-background="new 0 0 12 12" xml:space="preserve">
<path d="M0,6c0-3.3,2.7-6,6-6l0,0c3.3,0,6,2.7,6,6l0,0c0,3.3-2.7,6-6,6l0,0C2.7,12,0,9.3,0,6L0,6z M0.7,6c0,2.9,2.4,5.3,5.3,5.3l0,0
	c2.9,0,5.3-2.4,5.3-5.3l0,0c0-2.9-2.4-5.3-5.3-5.3l0,0C3.1,0.7,0.7,3.1,0.7,6L0.7,6z"/>
<path d="M7.4,4.6l1.1-0.9L8.1,3.1H6.6L6.1,3.6l1.1,0.9c-1.2,0.1-2.1,1-2.1,2.2c0,0,0,0,0,0c0,0.3,0.1,0.6,0.2,0.9
	c0.2-0.2,0.4-0.4,0.4-0.8c0,0,0-0.1,0-0.1c0,0,0,0,0,0c0-0.9,0.7-1.6,1.6-1.6c0,0,0,0,0,0c0.9,0,1.6,0.7,1.6,1.6
	c0,0.9-0.7,1.6-1.6,1.6c-0.1,0-0.3,0-0.4-0.1C6.8,8.5,6.7,8.7,6.5,8.8C6.7,8.9,7,9,7.3,9c1.2,0,2.2-1,2.2-2.2
	C9.5,5.6,8.6,4.6,7.4,4.6z"/>
<path d="M6.9,6.8c0-0.3-0.1-0.6-0.2-0.9C6.5,6.1,6.3,6.4,6.3,6.7c0,0,0,0.1,0,0.1c0,0,0,0,0,0c0,0.9-0.7,1.6-1.6,1.6
	c-0.9,0-1.6-0.7-1.6-1.6c0-0.9,0.7-1.6,1.6-1.6c0,0,0,0,0,0c0.1,0,0.3,0,0.4,0.1C5.2,5,5.4,4.9,5.5,4.7C5.3,4.6,5.1,4.6,4.8,4.6
	l1.1-0.9L5.4,3.1H3.9L3.5,3.6l1.1,0.9c-1.2,0.1-2.1,1-2.1,2.2C2.5,8,3.5,9,4.7,9C5.9,9,6.9,8,6.9,6.8C6.9,6.8,6.9,6.8,6.9,6.8z"/>
<g>
</g>
<g>
</g>
<g>
</g>
<g>
</g>
<g>
</g>
<g>
</g>
<g>
</g>
<g>
</g>
<g>
</g>
<g>
</g>
<g>
</g>
<g>
</g>
<g>
</g>
<g>
</g>
<g>
</g>
</svg>
