<?xml version="1.0" encoding="utf-8"?>
<!-- Generator: Adobe Illustrator 18.1.1, SVG Export Plug-In . SVG Version: 6.00 Build 0)  -->
<svg version="1.1" id="Layer_1" xmlns="http://www.w3.org/2000/svg" xmlns:xlink="http://www.w3.org/1999/xlink" x="0px" y="0px"
	 viewBox="0 0 12 12" enable-background="new 0 0 12 12" xml:space="preserve">
<path d="M6,0C2.7,0,0,2.7,0,6c0,3.3,2.7,6,6,6c3.3,0,6-2.7,6-6C12,2.7,9.3,0,6,0z M6,11.3c-2.9,0-5.3-2.4-5.3-5.3
	c0-2.9,2.4-5.3,5.3-5.3c2.9,0,5.3,2.4,5.3,5.3C11.3,8.9,8.9,11.3,6,11.3z"/>
<polygon points="7.3,2.4 7.9,3 7.6,3.3 7,2.7 6.6,3.1 7.8,4.2 7.5,4.5 6.4,3.4 6,3.8 6.6,4.4 6.3,4.6 5.7,4 5.3,4.4 5.9,5 5.7,5.3 
	5.1,4.7 4.7,5.1 5.3,5.7 5,5.9 4.4,5.3 4,5.7 4.6,6.3 4.4,6.6 3.8,6 3.4,6.4 4.5,7.5 4.2,7.8 3.1,6.6 2.7,7 3.3,7.6 3,7.9 2.4,7.3 
	2,7.7 4.3,10 10,4.3 7.7,2 "/>
<g>
</g>
<g>
</g>
<g>
</g>
<g>
</g>
<g>
</g>
<g>
</g>
<g>
</g>
<g>
</g>
<g>
</g>
<g>
</g>
<g>
</g>
<g>
</g>
<g>
</g>
<g>
</g>
<g>
</g>
</svg>
