<?xml version="1.0" encoding="utf-8"?>
<!-- Generator: Adobe Illustrator 18.1.1, SVG Export Plug-In . SVG Version: 6.00 Build 0)  -->
<svg version="1.1" id="Layer_1" xmlns="http://www.w3.org/2000/svg" xmlns:xlink="http://www.w3.org/1999/xlink" x="0px" y="0px"
	 viewBox="0 0 12 12" enable-background="new 0 0 12 12" xml:space="preserve">
<path d="M6,0C2.7,0,0,2.7,0,6c0,3.3,2.7,6,6,6c3.3,0,6-2.7,6-6C12,2.7,9.3,0,6,0z M6,11.3c-2.9,0-5.3-2.4-5.3-5.3
	c0-2.9,2.4-5.3,5.3-5.3c2.9,0,5.3,2.4,5.3,5.3C11.3,8.9,8.9,11.3,6,11.3z"/>
<path d="M7.7,7L7.5,7.1L6.7,6.3c0.7-0.9,0.7-2.3-0.2-3.2C5.5,2.1,4,2.1,3.1,3.1C2.1,4,2.1,5.5,3.1,6.5c0.9,0.9,2.2,0.9,3.2,0.2
	l0.8,0.8l0,0L7,7.7l1.7,1.7c0.1,0.1,0.2,0.1,0.3,0l0.4-0.4c0.1-0.1,0.1-0.2,0-0.3L7.7,7z M6.1,6.1c-0.7,0.7-1.9,0.7-2.6,0
	c-0.7-0.7-0.7-1.9,0-2.6c0.7-0.7,1.9-0.7,2.6,0C6.8,4.2,6.8,5.4,6.1,6.1z"/>
<g>
</g>
<g>
</g>
<g>
</g>
<g>
</g>
<g>
</g>
<g>
</g>
<g>
</g>
<g>
</g>
<g>
</g>
<g>
</g>
<g>
</g>
<g>
</g>
<g>
</g>
<g>
</g>
<g>
</g>
</svg>
