<?xml version="1.0" encoding="utf-8"?>
<!-- Generator: Adobe Illustrator 18.1.1, SVG Export Plug-In . SVG Version: 6.00 Build 0)  -->
<svg version="1.1" id="Layer_1" xmlns="http://www.w3.org/2000/svg" xmlns:xlink="http://www.w3.org/1999/xlink" x="0px" y="0px"
	 viewBox="0 0 12 12" enable-background="new 0 0 12 12" xml:space="preserve">
<path d="M0,6c0-3.3,2.7-6,6-6l0,0c3.3,0,6,2.7,6,6l0,0c0,3.3-2.7,6-6,6l0,0C2.7,12,0,9.3,0,6L0,6z M0.7,6c0,2.9,2.4,5.3,5.3,5.3l0,0
	c2.9,0,5.3-2.4,5.3-5.3l0,0c0-2.9-2.4-5.3-5.3-5.3l0,0C3.1,0.7,0.7,3.1,0.7,6L0.7,6z"/>
<path d="M4.5,5.3c-0.5,0-1,0.4-1,1c0,0.1,0,0.3,0,0.3h0.5c0,0,0-0.2,0-0.3c0-0.2,0.2-0.4,0.4-0.4c0.2,0,0.4,0.2,0.4,0.4
	c0,0.3,0,4.2,0,4.2h0.5c0,0,0-4,0-4.2C5.5,5.8,5,5.3,4.5,5.3z"/>
<path d="M4.5,2.5C4.5,2.6,4.5,2.6,4.5,2.5C4.5,2.6,4.5,2.6,4.5,2.5l0.1,0.3c0,0,0,0,0,0c0,0,0,0,0,0c0,0,0,0,0,0
	C4.7,3,4.8,3.1,4.9,3.1c0,0,0,0,0,0c0,0,0,0,0.1,0c0,0,0.1,0,0.1,0c0.1,0,0.3,0,0.4,0l0.1-0.1C5.8,3,5.9,2.9,5.9,2.7
	c0,0,0-0.1,0-0.1c0,0,0,0,0-0.1c0,0,0,0,0,0c0-0.1,0-0.2,0-0.3c0,0,0,0,0,0c0,0,0,0,0,0c0,0,0,0,0,0L5.8,1.9c0,0,0,0,0,0
	c0,0,0,0,0,0c0,0,0,0,0,0C5.7,1.8,5.6,1.7,5.5,1.6c0,0-0.1,0-0.1,0c0,0,0,0,0,0c-0.1,0-0.3,0-0.4,0L4.7,1.7C4.6,1.8,4.5,1.9,4.4,2
	c0,0,0,0,0,0c0,0,0,0.1,0,0.1C4.4,2.3,4.4,2.4,4.5,2.5C4.5,2.5,4.5,2.5,4.5,2.5z"/>
<path d="M7.7,5.4l-1-1.9C6.6,3.3,6.2,3.2,6,3.3c0,0,0,0,0,0L5.5,3.6c0,0,0,0,0,0C5.2,3.7,5.1,4,5.2,4.3l0,0l1,1.9
	c0,0.1,0.1,0.2,0.1,0.3l0.3,3.9c0,0.1,0.1,0.2,0.2,0.2h0.4c0.1,0,0.2-0.1,0.2-0.2l0.3-4.6C7.7,5.7,7.7,5.5,7.7,5.4z"/>
<g>
</g>
<g>
</g>
<g>
</g>
<g>
</g>
<g>
</g>
<g>
</g>
<g>
</g>
<g>
</g>
<g>
</g>
<g>
</g>
<g>
</g>
<g>
</g>
<g>
</g>
<g>
</g>
<g>
</g>
</svg>
