<?xml version="1.0" encoding="utf-8"?>
<!-- Generator: Adobe Illustrator 18.1.1, SVG Export Plug-In . SVG Version: 6.00 Build 0)  -->
<svg version="1.1" id="Layer_1" xmlns="http://www.w3.org/2000/svg" xmlns:xlink="http://www.w3.org/1999/xlink" x="0px" y="0px"
	 viewBox="0 0 12 12" enable-background="new 0 0 12 12" xml:space="preserve">
<path d="M6,0C2.7,0,0,2.7,0,6c0,3.3,2.7,6,6,6c3.3,0,6-2.7,6-6C12,2.7,9.3,0,6,0z M6,11.3c-2.9,0-5.3-2.4-5.3-5.3
	c0-2.9,2.4-5.3,5.3-5.3c2.9,0,5.3,2.4,5.3,5.3C11.3,8.9,8.9,11.3,6,11.3z"/>
<circle cx="7.6" cy="9.3" r="0.5"/>
<circle cx="4.2" cy="9.3" r="0.5"/>
<path d="M7.3,3.7l-4.7,0c-0.1,0-0.2,0.1-0.1,0.2l0.8,2.8c0,0.1,0.1,0.2,0.2,0.2h3.7L7.3,3.7z"/>
<path d="M9.6,3H8.3C8.1,3,7.8,3.2,7.8,3.5c0,0,0,0,0,0L7.6,7.8H3.7c-0.1,0-0.1,0-0.1,0.1l0.1,0.3c0,0.1,0.1,0.1,0.1,0.1h4
	c0.1,0,0.2,0,0.2-0.1C8.1,8.2,8.2,8.1,8.2,8l0.2-4.4h1.2c0.1,0,0.1,0,0.1-0.1L9.6,3C9.7,3.1,9.7,3,9.6,3z"/>
<g>
</g>
<g>
</g>
<g>
</g>
<g>
</g>
<g>
</g>
<g>
</g>
<g>
</g>
<g>
</g>
<g>
</g>
<g>
</g>
<g>
</g>
<g>
</g>
<g>
</g>
<g>
</g>
<g>
</g>
</svg>
