<?xml version="1.0" encoding="utf-8"?>
<!-- Generator: Adobe Illustrator 18.1.1, SVG Export Plug-In . SVG Version: 6.00 Build 0)  -->
<svg version="1.1" id="Layer_1" xmlns="http://www.w3.org/2000/svg" xmlns:xlink="http://www.w3.org/1999/xlink" x="0px" y="0px"
	 viewBox="0 0 12 12" enable-background="new 0 0 12 12" xml:space="preserve">
<path d="M7.7,5.8C7.5,6,7.2,6.1,6.8,6.1C6.5,6.1,6.2,6,6,5.8C5.8,6,5.5,6.1,5.2,6.1S4.6,6,4.3,5.8C4.1,6,3.8,6.1,3.5,6.1
	C3.3,6.1,3.2,6.1,3,6v3.4h2.2V7.5h1.6v1.9H9V6C8.8,6.1,8.7,6.1,8.5,6.1C8.2,6.1,7.9,6,7.7,5.8z"/>
<path d="M4.1,5.4V2.8H2.9c-0.1,0-0.3,0.1-0.3,0.3v1.8c0,0.5,0.4,0.8,0.8,0.8C3.8,5.7,4,5.6,4.1,5.4z"/>
<path d="M9.1,2.8H7.9v2.6C8,5.6,8.2,5.7,8.5,5.7c0.5,0,0.8-0.4,0.8-0.8V3.1C9.3,2.9,9.2,2.8,9.1,2.8z"/>
<path d="M5.2,5.7c0.3,0,0.5-0.1,0.6-0.3V2.8H4.5v2.6C4.7,5.6,4.9,5.7,5.2,5.7z"/>
<path d="M6.8,5.7c0.3,0,0.5-0.1,0.6-0.3V2.8H6.2v2.6C6.3,5.6,6.6,5.7,6.8,5.7z"/>
<path d="M0,6c0-3.3,2.7-6,6-6l0,0c3.3,0,6,2.7,6,6l0,0c0,3.3-2.7,6-6,6l0,0C2.7,12,0,9.3,0,6L0,6z M0.7,6c0,2.9,2.4,5.3,5.3,5.3l0,0
	c2.9,0,5.3-2.4,5.3-5.3l0,0c0-2.9-2.4-5.3-5.3-5.3l0,0C3.1,0.7,0.7,3.1,0.7,6L0.7,6z"/>
<g>
</g>
<g>
</g>
<g>
</g>
<g>
</g>
<g>
</g>
<g>
</g>
<g>
</g>
<g>
</g>
<g>
</g>
<g>
</g>
<g>
</g>
<g>
</g>
<g>
</g>
<g>
</g>
<g>
</g>
</svg>
