<?xml version="1.0" encoding="utf-8"?>
<!-- Generator: Adobe Illustrator 18.1.1, SVG Export Plug-In . SVG Version: 6.00 Build 0)  -->
<svg version="1.1" id="Layer_1" xmlns="http://www.w3.org/2000/svg" xmlns:xlink="http://www.w3.org/1999/xlink" x="0px" y="0px"
	 viewBox="0 0 12 12" enable-background="new 0 0 12 12" xml:space="preserve">
<path d="M6,0C2.7,0,0,2.7,0,6c0,3.3,2.7,6,6,6c3.3,0,6-2.7,6-6C12,2.7,9.3,0,6,0z M6,11.3c-2.9,0-5.3-2.4-5.3-5.3
	c0-2.9,2.4-5.3,5.3-5.3c2.9,0,5.3,2.4,5.3,5.3C11.3,8.9,8.9,11.3,6,11.3z"/>
<path d="M3.6,6.3c0-0.1,0.1-0.3,0.3-0.4L5,5.4l0,0l0,0C5.3,5.2,5.5,5,5.5,4.7V4.2c0-0.1,0.1-0.4,0.3-0.4l0.7-0.4C6.7,3.3,7,3,7,2.7
	V2.1H6.6l0,0.5c0,0.1-0.1,0.4-0.3,0.4L5.6,3.4C5.3,3.6,5.1,3.9,5.1,4.2v0.5C5.1,4.8,5,5,4.8,5.1l0,0l0,0l-1,0.5
	C3.4,5.7,3.2,6,3.2,6.3v0.8h0.4V6.3z"/>
<path d="M2.8,6c0-0.1,0.1-0.4,0.2-0.5L3.6,5C3.8,4.8,4,4.5,4,4.2L4,3c0-0.1,0.1-0.4,0.2-0.5l0.4-0.4H4.1L4,2.2
	C3.7,2.4,3.6,2.7,3.6,3v1.2c0,0.1-0.1,0.4-0.2,0.5L2.8,5.2C2.6,5.4,2.5,5.7,2.5,6v1.2h0.4V6z"/>
<rect x="2.5" y="7.5" width="0.7" height="0.9"/>
<rect x="3.6" y="7.5" width="6" height="0.9"/>
<g>
</g>
<g>
</g>
<g>
</g>
<g>
</g>
<g>
</g>
<g>
</g>
<g>
</g>
<g>
</g>
<g>
</g>
<g>
</g>
<g>
</g>
<g>
</g>
<g>
</g>
<g>
</g>
<g>
</g>
</svg>
