<?xml version="1.0" encoding="utf-8"?>
<!-- Generator: Adobe Illustrator 18.1.1, SVG Export Plug-In . SVG Version: 6.00 Build 0)  -->
<svg version="1.1" id="Layer_1" xmlns="http://www.w3.org/2000/svg" xmlns:xlink="http://www.w3.org/1999/xlink" x="0px" y="0px"
	 viewBox="0 0 12 12" enable-background="new 0 0 12 12" xml:space="preserve">
<path d="M0,6c0-3.3,2.7-6,6-6l0,0c3.3,0,6,2.7,6,6l0,0c0,3.3-2.7,6-6,6l0,0C2.7,12,0,9.3,0,6L0,6z M0.7,6c0,2.9,2.4,5.3,5.3,5.3l0,0
	c2.9,0,5.3-2.4,5.3-5.3l0,0c0-2.9-2.4-5.3-5.3-5.3l0,0C3.1,0.7,0.7,3.1,0.7,6L0.7,6z"/>
<polygon points="9.2,4.2 8.9,4 7.8,4.6 8.2,3.6 7.7,3.3 7.1,5.1 6.3,5.5 6.3,4.6 7.4,3.2 7,2.9 6.3,3.7 6.3,2.5 6,2.3 5.7,2.5 
	5.7,3.7 5,2.9 4.6,3.2 5.7,4.6 5.7,5.5 4.9,5.1 4.3,3.3 3.8,3.6 4.2,4.6 3.1,4 2.8,4.2 2.8,4.5 3.9,5.1 2.8,5.3 2.8,5.8 4.6,5.5 
	5.5,6 4.6,6.5 2.8,6.2 2.8,6.7 3.9,6.9 2.8,7.5 2.8,7.8 3.1,8 4.2,7.4 3.8,8.4 4.3,8.7 4.9,7 5.7,6.5 5.7,7.4 4.6,8.8 5,9.1 
	5.7,8.3 5.7,9.5 6,9.7 6.3,9.5 6.3,8.3 7,9.1 7.4,8.8 6.3,7.4 6.3,6.5 7.1,7 7.7,8.7 8.2,8.4 7.8,7.4 8.9,8 9.2,7.8 9.2,7.5 
	8.1,6.9 9.2,6.7 9.2,6.2 7.4,6.5 6.6,6 7.4,5.5 9.2,5.8 9.2,5.3 8.1,5.1 9.2,4.5 "/>
<g>
</g>
<g>
</g>
<g>
</g>
<g>
</g>
<g>
</g>
<g>
</g>
<g>
</g>
<g>
</g>
<g>
</g>
<g>
</g>
<g>
</g>
<g>
</g>
<g>
</g>
<g>
</g>
<g>
</g>
</svg>
