<?xml version="1.0" encoding="utf-8"?>
<!-- Generator: Adobe Illustrator 18.1.1, SVG Export Plug-In . SVG Version: 6.00 Build 0)  -->
<svg version="1.1" id="Layer_1" xmlns="http://www.w3.org/2000/svg" xmlns:xlink="http://www.w3.org/1999/xlink" x="0px" y="0px"
	 viewBox="0 0 12 12" enable-background="new 0 0 12 12" xml:space="preserve">
<path d="M0,6c0-3.3,2.7-6,6-6l0,0c3.3,0,6,2.7,6,6l0,0c0,3.3-2.7,6-6,6l0,0C2.7,12,0,9.3,0,6L0,6z M0.7,6c0,2.9,2.4,5.3,5.3,5.3l0,0
	c2.9,0,5.3-2.4,5.3-5.3l0,0c0-2.9-2.4-5.3-5.3-5.3l0,0C3.1,0.7,0.7,3.1,0.7,6L0.7,6z"/>
<path d="M6,2.8c-2.1,0-3.8,1.3-3.8,3c0,1.1,0.7,2,1.7,2.5L3.6,9.5c0,0.2,0,0.2,0.2,0.1l1.5-1c0.2,0,0.4,0,0.7,0c2.1,0,3.8-1.3,3.8-3
	C9.8,4.1,8.1,2.8,6,2.8z M4.1,6.5c0,0.1-0.1,0.2-0.2,0.2c-0.1,0-0.2-0.1-0.2-0.2V5.2H3.4C3.2,5.2,3.2,5.1,3.2,5
	c0-0.1,0.1-0.2,0.2-0.2h1.1c0.1,0,0.2,0.1,0.2,0.2c0,0.1-0.1,0.2-0.2,0.2H4.1V6.5z M5.9,6.7c-0.1,0-0.2,0-0.3-0.1L5.6,6.4H4.9
	L4.8,6.6c0,0.1-0.1,0.1-0.2,0.1c0,0,0,0-0.1,0c-0.1,0-0.2-0.2-0.1-0.3l0.5-1.4l0,0C5,4.9,5.1,4.8,5.2,4.8c0.1,0,0.3,0.1,0.3,0.2l0,0
	L6,6.5l0,0C6.1,6.6,6,6.7,5.9,6.7z M7.1,6.7H6.4c-0.1,0-0.1,0-0.1-0.1c0,0-0.1-0.1-0.1-0.1V5c0-0.1,0.1-0.2,0.2-0.2
	c0.1,0,0.2,0.1,0.2,0.2v1.3h0.5c0.1,0,0.2,0.1,0.2,0.2C7.3,6.6,7.2,6.7,7.1,6.7z M8.7,6.7c0,0-0.1,0-0.1,0c-0.1,0-0.1,0-0.2-0.1
	L7.9,6L7.8,6.1v0.4c0,0.1-0.1,0.2-0.2,0.2c-0.1,0-0.2-0.1-0.2-0.2V5c0-0.1,0.1-0.2,0.2-0.2c0.1,0,0.2,0.1,0.2,0.2v0.5l0.6-0.6
	c0.1-0.1,0.2-0.1,0.3,0c0.1,0.1,0.1,0.2,0,0.3L8.2,5.7l0.6,0.7C8.8,6.5,8.8,6.6,8.7,6.7z"/>
<polygon points="5.2,5.4 5,5.9 5.4,5.9 "/>
<g>
</g>
<g>
</g>
<g>
</g>
<g>
</g>
<g>
</g>
<g>
</g>
<g>
</g>
<g>
</g>
<g>
</g>
<g>
</g>
<g>
</g>
<g>
</g>
<g>
</g>
<g>
</g>
<g>
</g>
</svg>
