<?xml version="1.0" encoding="utf-8"?>
<!-- Generator: Adobe Illustrator 18.1.1, SVG Export Plug-In . SVG Version: 6.00 Build 0)  -->
<svg version="1.1" id="Layer_1" xmlns="http://www.w3.org/2000/svg" xmlns:xlink="http://www.w3.org/1999/xlink" x="0px" y="0px"
	 viewBox="0 0 12 12" enable-background="new 0 0 12 12" xml:space="preserve">
<path d="M6,0C2.7,0,0,2.7,0,6c0,3.3,2.7,6,6,6c3.3,0,6-2.7,6-6C12,2.7,9.3,0,6,0z M6,11.3c-2.9,0-5.3-2.4-5.3-5.3
	c0-2.9,2.4-5.3,5.3-5.3c2.9,0,5.3,2.4,5.3,5.3C11.3,8.9,8.9,11.3,6,11.3z"/>
<path d="M9.9,3.9C9.7,4.1,9.4,4.1,9.1,4.2C9.4,4,9.6,3.7,9.7,3.3c-0.3,0.2-0.6,0.3-1,0.4C8.5,3.4,8.1,3.2,7.7,3.2
	c-0.8,0-1.5,0.7-1.5,1.5c0,0.1,0,0.2,0,0.3C4.9,5,3.8,4.4,3,3.5C2.9,3.7,2.8,4,2.8,4.3c0,0.5,0.3,1,0.7,1.3C3.3,5.5,3,5.5,2.8,5.3
	c0,0,0,0,0,0c0,0.7,0.5,1.3,1.2,1.5c-0.1,0-0.3,0.1-0.4,0.1c-0.1,0-0.2,0-0.3,0c0.2,0.6,0.8,1,1.4,1.1C4.3,8.3,3.6,8.6,2.9,8.6
	c-0.1,0-0.2,0-0.4,0C3.2,9,4,9.2,4.9,9.2c2.8,0,4.3-2.3,4.3-4.3c0-0.1,0-0.1,0-0.2C9.5,4.5,9.7,4.2,9.9,3.9z"/>
<g>
</g>
<g>
</g>
<g>
</g>
<g>
</g>
<g>
</g>
<g>
</g>
<g>
</g>
<g>
</g>
<g>
</g>
<g>
</g>
<g>
</g>
<g>
</g>
<g>
</g>
<g>
</g>
<g>
</g>
</svg>
