<?xml version="1.0" encoding="utf-8"?>
<!-- Generator: Adobe Illustrator 18.1.1, SVG Export Plug-In . SVG Version: 6.00 Build 0)  -->
<svg version="1.1" id="Layer_1" xmlns="http://www.w3.org/2000/svg" xmlns:xlink="http://www.w3.org/1999/xlink" x="0px" y="0px"
	 viewBox="0 0 12 12" enable-background="new 0 0 12 12" xml:space="preserve">
<path d="M0,6c0-3.3,2.7-6,6-6l0,0c3.3,0,6,2.7,6,6l0,0c0,3.3-2.7,6-6,6l0,0C2.7,12,0,9.3,0,6L0,6z M0.7,6c0,2.9,2.4,5.3,5.3,5.3l0,0
	c2.9,0,5.3-2.4,5.3-5.3l0,0c0-2.9-2.4-5.3-5.3-5.3l0,0C3.1,0.7,0.7,3.1,0.7,6L0.7,6z"/>
<path d="M6,2.6C3.9,2.6,2.2,4,2.2,5.7c0,1.6,1.5,2.9,3.4,3.1c0.2,0,0.2,0.2,0.2,0.4c0,0.1-0.1,0.3-0.1,0.4c0,0.1-0.1,0.2,0,0.3
	c0,0.1,0.1,0.1,0.2,0.1c0.1,0,0.1,0,0.2-0.1C6.3,9.6,7.4,9,8.6,7.9c0.8-0.7,1.2-1.4,1.2-2.2C9.8,4,8.1,2.6,6,2.6z M4.5,6.6H3.7
	c-0.1,0-0.2-0.1-0.2-0.2V4.9c0-0.1,0.1-0.2,0.2-0.2c0.1,0,0.2,0.1,0.2,0.2v1.3h0.5c0.1,0,0.2,0.1,0.2,0.2C4.7,6.5,4.6,6.6,4.5,6.6z
	 M4.9,6.4V4.9c0-0.1,0.1-0.2,0.2-0.2c0.1,0,0.2,0.1,0.2,0.2v1.5c0,0.1-0.1,0.2-0.2,0.2C5,6.6,4.9,6.5,4.9,6.4z M7.1,6.4
	c0,0.1-0.1,0.2-0.1,0.2c0,0,0,0-0.1,0c-0.1,0-0.1,0-0.2-0.1l-0.8-1v0.9c0,0.1-0.1,0.2-0.2,0.2S5.5,6.5,5.5,6.4V4.9
	c0-0.1,0.1-0.2,0.1-0.2c0,0,0,0,0.1,0c0.1,0,0.1,0,0.2,0.1l0.8,1V4.9c0-0.1,0.1-0.2,0.2-0.2c0.1,0,0.2,0.1,0.2,0.2V6.4z M8.3,6.2
	c0.1,0,0.2,0.1,0.2,0.2c0,0.1-0.1,0.2-0.2,0.2H7.5c-0.1,0-0.2-0.1-0.2-0.2V5.7c0,0,0,0,0,0s0,0,0,0V4.9v0c0-0.1,0.1-0.2,0.2-0.2h0.7
	c0.1,0,0.2,0.1,0.2,0.2c0,0.1-0.1,0.2-0.2,0.2H7.7v0.4h0.5c0.1,0,0.2,0.1,0.2,0.2S8.4,5.9,8.3,5.9H7.7v0.4H8.3z"/>
<g>
</g>
<g>
</g>
<g>
</g>
<g>
</g>
<g>
</g>
<g>
</g>
<g>
</g>
<g>
</g>
<g>
</g>
<g>
</g>
<g>
</g>
<g>
</g>
<g>
</g>
<g>
</g>
<g>
</g>
</svg>
