<?xml version="1.0" encoding="utf-8"?>
<!-- Generator: Adobe Illustrator 18.1.1, SVG Export Plug-In . SVG Version: 6.00 Build 0)  -->
<svg version="1.1" id="Layer_1" xmlns="http://www.w3.org/2000/svg" xmlns:xlink="http://www.w3.org/1999/xlink" x="0px" y="0px"
	 viewBox="0 0 12 12" enable-background="new 0 0 12 12" xml:space="preserve">
<path d="M6,0C2.7,0,0,2.7,0,6c0,3.3,2.7,6,6,6c3.3,0,6-2.7,6-6C12,2.7,9.3,0,6,0z M6,11.3c-2.9,0-5.3-2.4-5.3-5.3
	c0-2.9,2.4-5.3,5.3-5.3c2.9,0,5.3,2.4,5.3,5.3C11.3,8.9,8.9,11.3,6,11.3z"/>
<path d="M6,2.5C4.1,2.5,2.5,4.1,2.5,6c0,1.9,1.6,3.5,3.5,3.5S9.5,7.9,9.5,6C9.5,4.1,7.9,2.5,6,2.5z M8.6,6.3L8.6,6.3l0.4-0.4
	c0,0,0,0.1,0,0.1c0,0.7-0.2,1.3-0.6,1.9L8.3,7.3l0,0L7.1,7.5L6.5,8.6L7,8.9C6.7,9,6.4,9.1,6,9.1C5.6,9.1,5.3,9,5,8.9l0.5-0.3l0,0
	L4.9,7.5L3.7,7.3L3.6,7.9C3.2,7.3,3,6.7,3,6c0,0,0-0.1,0-0.1l0.4,0.4v0l0.9-0.9L4,4.2L3.5,4.3c0.4-0.6,1-1,1.7-1.2L4.9,3.6h0L6,4.1
	l1.1-0.6L6.9,3.1c0.7,0.2,1.3,0.6,1.7,1.2L8,4.2L7.8,5.4L8.6,6.3z"/>
<polygon points="6,4.8 4.9,5.6 5.3,6.9 5.3,6.9 6.7,6.9 6.7,6.9 7.1,5.6 7.1,5.6 "/>
<g>
</g>
<g>
</g>
<g>
</g>
<g>
</g>
<g>
</g>
<g>
</g>
<g>
</g>
<g>
</g>
<g>
</g>
<g>
</g>
<g>
</g>
<g>
</g>
<g>
</g>
<g>
</g>
<g>
</g>
</svg>
