<?xml version="1.0" encoding="utf-8"?>
<!-- Generator: Adobe Illustrator 18.1.1, SVG Export Plug-In . SVG Version: 6.00 Build 0)  -->
<svg version="1.1" id="Layer_1" xmlns="http://www.w3.org/2000/svg" xmlns:xlink="http://www.w3.org/1999/xlink" x="0px" y="0px"
	 viewBox="0 0 12 12" enable-background="new 0 0 12 12" xml:space="preserve">
<path d="M0,6c0-3.3,2.7-6,6-6l0,0c3.3,0,6,2.7,6,6l0,0c0,3.3-2.7,6-6,6l0,0C2.7,12,0,9.3,0,6L0,6z M0.7,6c0,2.9,2.4,5.3,5.3,5.3l0,0
	c2.9,0,5.3-2.4,5.3-5.3l0,0c0-2.9-2.4-5.3-5.3-5.3l0,0C3.1,0.7,0.7,3.1,0.7,6L0.7,6z"/>
<path d="M3.8,4.5C4,4.2,4.2,4,4.5,3.8L3.4,3.2c0,0-0.1,0-0.1,0c0,0,0,0.1,0,0.1L3.8,4.5z"/>
<path d="M8.2,4.5l0.6-1.1c0,0,0-0.1,0-0.1c0,0-0.1,0-0.1,0L7.6,3.8C7.8,4,8,4.2,8.2,4.5z"/>
<path d="M3.3,6c0-0.2,0-0.3,0-0.5L2.2,5.9c0,0-0.1,0-0.1,0.1c0,0,0,0.1,0.1,0.1l1.2,0.4C3.3,6.3,3.3,6.2,3.3,6z"/>
<path d="M6.5,3.4L6.1,2.2c0,0,0-0.1-0.1-0.1c0,0-0.1,0-0.1,0.1L5.6,3.4c0.1,0,0.3,0,0.5,0C6.2,3.3,6.3,3.3,6.5,3.4z"/>
<path d="M9.8,5.9L8.7,5.6c0,0.1,0,0.3,0,0.5c0,0.2,0,0.3,0,0.5l1.2-0.4C9.9,6.1,9.9,6,9.8,5.9C9.9,6,9.9,5.9,9.8,5.9z"/>
<path d="M8.2,7.6C8,7.8,7.8,8,7.6,8.2l1.1,0.6c0,0,0.1,0,0.1,0c0,0,0-0.1,0-0.1L8.2,7.6z"/>
<path d="M5.6,8.7l0.4,1.2c0,0,0,0.1,0.1,0.1c0,0,0.1,0,0.1-0.1l0.4-1.2c-0.1,0-0.3,0-0.5,0C5.9,8.7,5.7,8.7,5.6,8.7z"/>
<path d="M3.8,7.6L3.2,8.7c0,0,0,0.1,0,0.1c0,0,0.1,0,0.1,0l1.1-0.6C4.2,8,4,7.8,3.8,7.6z"/>
<circle cx="6" cy="6" r="2.3"/>
<g>
</g>
<g>
</g>
<g>
</g>
<g>
</g>
<g>
</g>
<g>
</g>
<g>
</g>
<g>
</g>
<g>
</g>
<g>
</g>
<g>
</g>
<g>
</g>
<g>
</g>
<g>
</g>
<g>
</g>
</svg>
