<?xml version="1.0" encoding="utf-8"?>
<!-- Generator: Adobe Illustrator 18.1.1, SVG Export Plug-In . SVG Version: 6.00 Build 0)  -->
<svg version="1.1" id="Layer_1" xmlns="http://www.w3.org/2000/svg" xmlns:xlink="http://www.w3.org/1999/xlink" x="0px" y="0px"
	 viewBox="0 0 12 12" enable-background="new 0 0 12 12" xml:space="preserve">
<path d="M6,0C2.7,0,0,2.7,0,6c0,3.3,2.7,6,6,6c3.3,0,6-2.7,6-6C12,2.7,9.3,0,6,0z M6,11.3c-2.9,0-5.3-2.4-5.3-5.3
	c0-2.9,2.4-5.3,5.3-5.3c2.9,0,5.3,2.4,5.3,5.3C11.3,8.9,8.9,11.3,6,11.3z"/>
<path d="M10.2,7.1C10,7,9.6,6.9,9.2,6.9c-0.4,0-0.7,0.1-1,0.2C7.9,7.3,7.5,7.4,7,7.4c-0.4,0-0.8-0.1-1.2-0.3C5.6,7,5.2,6.9,4.9,6.9
	c-0.4,0-0.7,0.1-1,0.2C3.5,7.3,3.1,7.4,2.7,7.4c-0.3,0-0.7-0.1-1-0.2C1.8,7.5,1.9,7.8,2,8c0.2,0.1,0.4,0.1,0.6,0.1
	c0.4,0,0.7-0.1,1-0.2C4,7.7,4.4,7.6,4.9,7.6c0.4,0,0.8,0.1,1.2,0.3C6.3,8,6.7,8.1,7,8.1c0.4,0,0.7-0.1,1-0.2
	c0.3-0.2,0.8-0.3,1.2-0.3c0.3,0,0.6,0,0.9,0.1C10.2,7.6,10.3,7.3,10.2,7.1C10.3,7.1,10.3,7.1,10.2,7.1z"/>
<path d="M8.2,8.3C7.9,8.5,7.5,8.6,7,8.6c-0.4,0-0.8-0.1-1.2-0.3c-0.3-0.1-0.6-0.2-1-0.2c-0.4,0-0.7,0.1-1,0.2
	C3.5,8.5,3.1,8.6,2.7,8.6c-0.1,0-0.2,0-0.3,0C2.5,8.8,2.8,9.1,3,9.3c0.3,0,0.5-0.1,0.7-0.2C4,8.9,4.4,8.8,4.9,8.8
	c0.4,0,0.8,0.1,1.2,0.3c0.3,0.1,0.6,0.2,1,0.2c0.4,0,0.7-0.1,1-0.2c0.3-0.2,0.8-0.3,1.2-0.3c0.1,0,0.1,0,0.2,0
	c0.2-0.2,0.3-0.4,0.5-0.7C9.7,8.1,9.5,8.1,9.2,8.1C8.9,8.1,8.5,8.2,8.2,8.3z"/>
<path d="M4.5,6.4c0-0.5,0-1,0-1h1.9c0,0.1,0,0.8,0,1.4C6.6,6.9,6.8,6.9,7,6.9c0,0,0,0,0.1,0c0-1.3,0-2.8,0-3c0-0.4,0.4-0.8,0.8-0.8
	c0.4,0,0.8,0.4,0.8,0.8h0.7c0-0.8-0.7-1.5-1.5-1.5c-0.8,0-1.5,0.7-1.5,1.5c0,0.1,0,0.4,0,0.8H4.5c0-0.4,0-0.7,0-0.8
	c0-0.4,0.4-0.8,0.8-0.8c0.3,0,0.6,0.2,0.7,0.5c0-0.3,0.1-0.5,0.3-0.7c-0.3-0.3-0.6-0.4-1-0.4c-0.8,0-1.5,0.7-1.5,1.5
	c0,0.1,0,1.5,0,2.7C4,6.5,4.3,6.5,4.5,6.4z"/>
<g>
</g>
<g>
</g>
<g>
</g>
<g>
</g>
<g>
</g>
<g>
</g>
<g>
</g>
<g>
</g>
<g>
</g>
<g>
</g>
<g>
</g>
<g>
</g>
<g>
</g>
<g>
</g>
<g>
</g>
</svg>
