<?xml version="1.0" encoding="utf-8"?>
<!-- Generator: Adobe Illustrator 18.1.1, SVG Export Plug-In . SVG Version: 6.00 Build 0)  -->
<svg version="1.1" id="Layer_1" xmlns="http://www.w3.org/2000/svg" xmlns:xlink="http://www.w3.org/1999/xlink" x="0px" y="0px"
	 viewBox="0 0 12 12" enable-background="new 0 0 12 12" xml:space="preserve">
<path d="M6,0C2.7,0,0,2.7,0,6c0,3.3,2.7,6,6,6c3.3,0,6-2.7,6-6C12,2.7,9.3,0,6,0z M6,11.3c-2.9,0-5.3-2.4-5.3-5.3
	c0-2.9,2.4-5.3,5.3-5.3c2.9,0,5.3,2.4,5.3,5.3C11.3,8.9,8.9,11.3,6,11.3z"/>
<path d="M5,6.5c0.1,0,0.1,0,0.2,0.1c0.3,0.4,0.9,0.7,1.5,0.7c0.6,0,1.1-0.6,1.1-1.2V5.4c0-0.7-0.5-1.2-1.2-1.2H3.3
	c-0.7,0-1.2,0.6-1.2,1.2v0.8c0,0.6,0.5,1.2,1.1,1.2c0.6,0,1.2-0.3,1.5-0.7C4.9,6.5,4.9,6.5,5,6.5z M4.3,6.3C4.2,6.6,3.6,6.9,3.3,6.8
	C3.1,6.8,3,6.8,2.9,6.7C2.8,6.5,2.7,6.4,2.7,6.2V5.4C2.7,5,3,4.7,3.3,4.7v0h3.3C7,4.7,7.3,5,7.3,5.4v0.8c0,0.2-0.1,0.4-0.2,0.5
	C7,6.8,6.9,6.8,6.7,6.8c-0.4,0-0.9-0.3-1.1-0.5C5.5,6.1,5.3,6,5,6C4.7,6,4.5,6.1,4.3,6.3z"/>
<path d="M8.2,2.8c0,0.6,0,4.1,0,4.7c0,0.8-0.6,1.4-1.4,1.4C6,8.9,5.4,8.3,5.4,7.5H4.7h0c0,1.2,1,2.1,2.1,2.1c1.2,0,2.1-1,2.1-2.1
	c0-0.6,0-4.1,0-4.7H8.2z"/>
<g>
</g>
<g>
</g>
<g>
</g>
<g>
</g>
<g>
</g>
<g>
</g>
<g>
</g>
<g>
</g>
<g>
</g>
<g>
</g>
<g>
</g>
<g>
</g>
<g>
</g>
<g>
</g>
<g>
</g>
</svg>
