<?xml version="1.0" encoding="utf-8"?>
<!-- Generator: Adobe Illustrator 18.1.1, SVG Export Plug-In . SVG Version: 6.00 Build 0)  -->
<svg version="1.1" id="Layer_1" xmlns="http://www.w3.org/2000/svg" xmlns:xlink="http://www.w3.org/1999/xlink" x="0px" y="0px"
	 viewBox="0 0 12 12" enable-background="new 0 0 12 12" xml:space="preserve">
<path d="M0,6c0-3.3,2.7-6,6-6l0,0c3.3,0,6,2.7,6,6l0,0c0,3.3-2.7,6-6,6l0,0C2.7,12,0,9.3,0,6L0,6z M0.7,6c0,2.9,2.4,5.3,5.3,5.3l0,0
	c2.9,0,5.3-2.4,5.3-5.3l0,0c0-2.9-2.4-5.3-5.3-5.3l0,0C3.1,0.7,0.7,3.1,0.7,6L0.7,6z"/>
<polygon points="3.4,5.8 3.4,4 4,4 4,3.6 2.3,3.6 2.3,4 2.9,4 2.9,5.8 "/>
<path d="M5.2,3.6H4.6L3.9,5.8h0.5l0.2-0.6h0.6l0.2,0.6h0.5L5.2,3.6z M4.6,4.9l0.1-0.5c0-0.1,0.1-0.3,0.1-0.4h0
	c0,0.1,0.1,0.3,0.1,0.4l0.1,0.5H4.6z"/>
<path d="M7.2,4.6l0.7-0.9H7.3L6.8,4.4c0,0.1-0.1,0.2-0.1,0.2h0v-1H6.2v2.2h0.5V5.1l0.2-0.2l0.5,0.9H8L7.2,4.6z"/>
<polygon points="8.7,5.4 8.7,4.9 9.5,4.9 9.5,4.5 8.7,4.5 8.7,4 9.5,4 9.5,3.6 8.2,3.6 8.2,5.8 9.6,5.8 9.6,5.4 "/>
<path d="M4,6.6c-0.6,0-1.1,0.5-1.1,1.1c0,0.6,0.4,1.1,1,1.1C4.6,8.9,5,8.4,5,7.7C5,7.1,4.7,6.6,4,6.6z M4,8.5
	c-0.3,0-0.5-0.3-0.5-0.7C3.5,7.3,3.7,7,4,7c0.3,0,0.5,0.3,0.5,0.7C4.5,8.2,4.3,8.5,4,8.5z"/>
<path d="M6.7,7.9c0,0.4-0.1,0.6-0.4,0.6C6,8.5,5.9,8.3,5.9,7.9V6.6H5.4v1.2c0,0.7,0.3,1,0.9,1c0.6,0,0.9-0.3,0.9-1V6.6H6.7V7.9z"/>
<polygon points="7.4,7.1 8,7.1 8,8.8 8.5,8.8 8.5,7.1 9.1,7.1 9.1,6.6 7.4,6.6 "/>
<g>
</g>
<g>
</g>
<g>
</g>
<g>
</g>
<g>
</g>
<g>
</g>
<g>
</g>
<g>
</g>
<g>
</g>
<g>
</g>
<g>
</g>
<g>
</g>
<g>
</g>
<g>
</g>
<g>
</g>
</svg>
