<?xml version="1.0" encoding="utf-8"?>
<!-- Generator: Adobe Illustrator 18.1.1, SVG Export Plug-In . SVG Version: 6.00 Build 0)  -->
<svg version="1.1" id="Layer_1" xmlns="http://www.w3.org/2000/svg" xmlns:xlink="http://www.w3.org/1999/xlink" x="0px" y="0px"
	 viewBox="0 0 12 12" enable-background="new 0 0 12 12" xml:space="preserve">
<path d="M6,0C2.7,0,0,2.7,0,6c0,3.3,2.7,6,6,6c3.3,0,6-2.7,6-6C12,2.7,9.3,0,6,0z M6,11.3c-2.9,0-5.3-2.4-5.3-5.3
	c0-2.9,2.4-5.3,5.3-5.3c2.9,0,5.3,2.4,5.3,5.3C11.3,8.9,8.9,11.3,6,11.3z"/>
<path d="M3.5,3.4C3.5,3.4,3.5,3.4,3.5,3.4c0,0.1,0,0.2,0.1,0.2l0,0c0,0,0,0,0,0c0,0,0,0,0.1,0.1c0.1,0.1,0.2,0.1,0.3,0.1H4h0
	c0.1,0,0.2,0,0.3-0.1c0,0,0,0,0.1-0.1c0,0,0,0,0,0l0,0c0-0.1,0.1-0.1,0.1-0.2c0,0,0,0,0,0c0,0,0,0,0,0c0,0,0,0,0,0V3.1c0,0,0,0,0,0
	c0,0,0,0,0,0c0,0,0,0,0,0c0-0.1,0-0.2-0.1-0.3c0,0,0,0-0.1-0.1c0,0,0,0,0,0C4.3,2.7,4.2,2.6,4,2.6h0H3.9c-0.1,0-0.2,0-0.3,0.1
	c0,0,0,0,0,0c0,0,0,0-0.1,0.1C3.5,2.9,3.5,3,3.5,3.1c0,0,0,0,0,0c0,0,0,0,0,0c0,0,0,0,0,0L3.5,3.4C3.5,3.3,3.5,3.3,3.5,3.4
	C3.5,3.4,3.5,3.4,3.5,3.4z"/>
<path d="M4.3,4.1H3.7C3.2,4.1,3,4.3,3,4.7l0,1.9C3,6.7,3,6.8,3,6.8h0.3l0.2,2.6l0.9,0l0.2-2.6h0.3C5,6.8,5,6.7,5,6.7V4.7h0
	C5,4.3,4.7,4.1,4.3,4.1z"/>
<path d="M8,3.8C8,3.8,8,3.8,8,3.8l0.1,0l0,0c0,0,0,0,0,0l0,0c0.4,0,0.7-0.2,0.7-0.2C8.6,3.5,8.6,3.4,8.6,3.3V3.1c0,0,0,0,0,0
	c0,0,0,0,0,0c0,0,0,0,0,0c0-0.1,0-0.2-0.1-0.3c0,0,0,0-0.1-0.1c0,0,0,0,0,0C8.3,2.7,8.2,2.6,8.1,2.6l0,0H8c-0.1,0-0.2,0-0.3,0.1
	c0,0,0,0,0,0c0,0,0,0-0.1,0.1C7.5,2.9,7.5,3,7.5,3.1c0,0,0,0,0,0c0,0,0,0,0,0c0,0,0,0,0,0v0.2c0,0.1,0,0.2-0.2,0.3
	C7.3,3.6,7.6,3.8,8,3.8L8,3.8z"/>
<path d="M9.5,7.5L8.6,4.4v0C8.6,4.2,8.4,4.1,8.2,4.1H7.9c-0.2,0-0.4,0.2-0.5,0.4l0,0L6.6,7.5c0,0,0,0.1,0.1,0.1h0.9l0.1,1.8h0.8
	l0.1-1.8L9.5,7.5C9.5,7.6,9.5,7.6,9.5,7.5z"/>
<rect x="5.8" y="2.6" width="0.4" height="6.7"/>
<g>
</g>
<g>
</g>
<g>
</g>
<g>
</g>
<g>
</g>
<g>
</g>
<g>
</g>
<g>
</g>
<g>
</g>
<g>
</g>
<g>
</g>
<g>
</g>
<g>
</g>
<g>
</g>
<g>
</g>
</svg>
