<?xml version="1.0" encoding="utf-8"?>
<!-- Generator: Adobe Illustrator 18.1.1, SVG Export Plug-In . SVG Version: 6.00 Build 0)  -->
<svg version="1.1" id="Layer_1" xmlns="http://www.w3.org/2000/svg" xmlns:xlink="http://www.w3.org/1999/xlink" x="0px" y="0px"
	 viewBox="0 0 12 12" enable-background="new 0 0 12 12" xml:space="preserve">
<path d="M6,0C2.7,0,0,2.7,0,6c0,3.3,2.7,6,6,6c3.3,0,6-2.7,6-6C12,2.7,9.3,0,6,0z M6,11.3c-2.9,0-5.3-2.4-5.3-5.3
	c0-2.9,2.4-5.3,5.3-5.3c2.9,0,5.3,2.4,5.3,5.3C11.3,8.9,8.9,11.3,6,11.3z"/>
<path d="M4.5,5.9c-0.7,0-1.3-0.2-1.8-0.4C2.5,5.4,2.3,5.2,2.2,5.1c0,0.9,0,2.4,0,2.6c0,0.3,0.2,0.6,0.6,0.8c0.4,0.2,1,0.4,1.7,0.4
	c0.7,0,1.2-0.1,1.7-0.4C6.6,8.3,6.8,8,6.8,7.7c0-0.2,0-1.5,0-2.6C6.7,5.2,6.5,5.4,6.3,5.5C5.8,5.7,5.2,5.9,4.5,5.9z"/>
<path d="M2.9,5.1c0.4,0.2,1,0.4,1.6,0.4c0.6,0,1.2-0.1,1.6-0.4c0.4-0.2,0.6-0.5,0.6-0.8c0-0.3-0.2-0.6-0.6-0.8
	c-0.4-0.2-1-0.4-1.6-0.4c0,0,0,0,0,0c-0.6,0-1.2,0.1-1.6,0.4C2.4,3.8,2.2,4.1,2.2,4.3C2.2,4.6,2.4,4.9,2.9,5.1z M4.5,4
	c0.4,0,0.7,0.2,0.7,0.4c0,0.2-0.3,0.4-0.7,0.4S3.8,4.5,3.8,4.3C3.8,4.1,4.1,4,4.5,4z"/>
<path d="M8,4.4C7.7,4.3,7.4,4.2,7.1,4.2c0,0.9,0,3.3,0,3.5c0,0,0,0.1,0,0.1C7.4,7.8,7.7,7.9,8,8C8.6,8.3,9.3,8.5,10,8V4.3
	C9.3,4.9,8.6,4.7,8,4.4z"/>
<g>
</g>
<g>
</g>
<g>
</g>
<g>
</g>
<g>
</g>
<g>
</g>
<g>
</g>
<g>
</g>
<g>
</g>
<g>
</g>
<g>
</g>
<g>
</g>
<g>
</g>
<g>
</g>
<g>
</g>
</svg>
