<?xml version="1.0" encoding="utf-8"?>
<!-- Generator: Adobe Illustrator 18.1.1, SVG Export Plug-In . SVG Version: 6.00 Build 0)  -->
<svg version="1.1" id="Layer_1" xmlns="http://www.w3.org/2000/svg" xmlns:xlink="http://www.w3.org/1999/xlink" x="0px" y="0px"
	 viewBox="0 0 12 12" enable-background="new 0 0 12 12" xml:space="preserve">
<polygon points="4,5.1 4.9,6 5.4,5.5 4.5,4.6 4.4,3.6 2.9,2.9 2.4,3.4 3.1,4.9 "/>
<path d="M0,6c0-3.3,2.7-6,6-6l0,0c3.3,0,6,2.7,6,6l0,0c0,3.3-2.7,6-6,6l0,0C2.7,12,0,9.3,0,6L0,6z M0.7,6c0,2.9,2.4,5.3,5.3,5.3l0,0
	c2.9,0,5.3-2.4,5.3-5.3l0,0c0-2.9-2.4-5.3-5.3-5.3l0,0C3.1,0.7,0.7,3.1,0.7,6L0.7,6z"/>
<path d="M9.6,5.8c0.5-0.5,0.6-1.1,0.5-1.7c0,0,0-0.1-0.1-0.1L8.8,5.2l-1-0.3l-0.3-1l1.3-1.3c-0.7-0.2-1.4,0-1.9,0.5
	C6.3,3.7,6.1,4.5,6.4,5.2L2.6,9l0.6,0.6C3.4,9.7,3.6,9.9,3.8,10l3.7-3.7C8.2,6.6,9,6.4,9.6,5.8z"/>
<path d="M9.9,8.3C9.7,8.2,9.5,8.2,9.4,8.3C9.3,8.4,8.8,7.9,8.9,7.8c0.1-0.1,0.1-0.4,0-0.5C8.7,7.2,8.5,7.2,8.3,7.4L7.8,7.8L7.2,7.3
	L6.7,7.8l0.6,0.6L6.8,8.8C6.6,9,6.6,9.3,6.8,9.4c0.2,0.2,0.4,0.2,0.5,0c0.1-0.1,0.6,0.3,0.5,0.5c-0.1,0.1-0.1,0.2-0.1,0.3
	C8.6,9.9,9.4,9.2,9.9,8.3z"/>
<g>
</g>
<g>
</g>
<g>
</g>
<g>
</g>
<g>
</g>
<g>
</g>
<g>
</g>
<g>
</g>
<g>
</g>
<g>
</g>
<g>
</g>
<g>
</g>
<g>
</g>
<g>
</g>
<g>
</g>
</svg>
