<?xml version="1.0" encoding="utf-8"?>
<!-- Generator: Adobe Illustrator 18.1.1, SVG Export Plug-In . SVG Version: 6.00 Build 0)  -->
<svg version="1.1" id="Layer_1" xmlns="http://www.w3.org/2000/svg" xmlns:xlink="http://www.w3.org/1999/xlink" x="0px" y="0px"
	 viewBox="0 0 12 12" enable-background="new 0 0 12 12" xml:space="preserve">
<path d="M7.2,7.8c1-0.4,1.6-1.4,1.6-2.5c0-1.6-1.3-2.8-2.8-2.8c-0.3,0-0.6,0.1-0.9,0.2l2.3,2.3L7,6.3L5.6,6.7L3.4,4.4
	C3.3,4.7,3.2,5,3.2,5.3c0,1.1,0.7,2.1,1.6,2.5C5,7.9,5,8.2,5,8.3v2.3c0.3,0.1,0.7,0.1,1,0.1c0.4,0,0.7,0,1-0.1V8.3
	C7,8.2,7.1,7.9,7.2,7.8z"/>
<path d="M6,0C2.7,0,0,2.7,0,6c0,3.3,2.7,6,6,6c3.3,0,6-2.7,6-6C12,2.7,9.3,0,6,0z M6,11.3c-2.9,0-5.3-2.4-5.3-5.3
	c0-2.9,2.4-5.3,5.3-5.3c2.9,0,5.3,2.4,5.3,5.3C11.3,8.9,8.9,11.3,6,11.3z"/>
<g>
</g>
<g>
</g>
<g>
</g>
<g>
</g>
<g>
</g>
<g>
</g>
<g>
</g>
<g>
</g>
<g>
</g>
<g>
</g>
<g>
</g>
<g>
</g>
<g>
</g>
<g>
</g>
<g>
</g>
</svg>
