<?xml version="1.0" encoding="utf-8"?>
<!-- Generator: Adobe Illustrator 18.1.1, SVG Export Plug-In . SVG Version: 6.00 Build 0)  -->
<svg version="1.1" id="Layer_1" xmlns="http://www.w3.org/2000/svg" xmlns:xlink="http://www.w3.org/1999/xlink" x="0px" y="0px"
	 viewBox="0 0 12 12" enable-background="new 0 0 12 12" xml:space="preserve">
<path d="M5.8,5.7C5.8,5.7,5.8,5.7,5.8,5.7l0.3,0h0c0,0,0,0,0,0l0,0C7.3,5.7,8,5.1,8,5.1C7.6,4.8,7.5,4.7,7.5,4.2V3.8
	c0,0,0-0.1,0-0.1c0,0,0-0.1,0-0.1c0,0,0,0,0,0c0-0.3-0.1-0.5-0.3-0.7C7.1,2.9,7.1,2.8,7,2.8c0,0,0,0,0,0C6.8,2.6,6.5,2.4,6.2,2.4h0
	H5.8C5.5,2.4,5.2,2.6,5,2.8c0,0,0,0,0,0C4.9,2.8,4.9,2.9,4.8,3C4.7,3.2,4.6,3.4,4.6,3.7c0,0,0,0,0,0c0,0,0,0.1,0,0.1
	c0,0,0,0.1,0,0.1v0.4c0,0.4-0.1,0.5-0.5,0.8C4,5.1,4.7,5.7,5.8,5.7L5.8,5.7z"/>
<path d="M6.6,6.4H5.4c-1.3,0-1.9,0.7-2,1.8l0,1.8c0.7,0.5,1.6,0.8,2.6,0.8c1,0,1.8-0.3,2.6-0.8V8.1h0C8.6,7.1,7.9,6.4,6.6,6.4z"/>
<path d="M6,0C2.7,0,0,2.7,0,6c0,3.3,2.7,6,6,6c3.3,0,6-2.7,6-6C12,2.7,9.3,0,6,0z M6,11.3c-2.9,0-5.3-2.4-5.3-5.3
	c0-2.9,2.4-5.3,5.3-5.3c2.9,0,5.3,2.4,5.3,5.3C11.3,8.9,8.9,11.3,6,11.3z"/>
<g>
</g>
<g>
</g>
<g>
</g>
<g>
</g>
<g>
</g>
<g>
</g>
<g>
</g>
<g>
</g>
<g>
</g>
<g>
</g>
<g>
</g>
<g>
</g>
<g>
</g>
<g>
</g>
<g>
</g>
</svg>
