<?xml version="1.0" encoding="utf-8"?>
<!-- Generator: Adobe Illustrator 18.1.1, SVG Export Plug-In . SVG Version: 6.00 Build 0)  -->
<svg version="1.1" id="Layer_1" xmlns="http://www.w3.org/2000/svg" xmlns:xlink="http://www.w3.org/1999/xlink" x="0px" y="0px"
	 viewBox="0 0 12 12" enable-background="new 0 0 12 12" xml:space="preserve">
<path d="M4.6,4.5C4.6,4.5,4.6,4.5,4.6,4.5c0,0.2,0.1,0.4,0.2,0.6c0,0,0,0,0,0c0,0,0,0.1,0.1,0.1C4.9,5.3,5,5.4,5,5.4
	c0.2,0.2,0.5,0.3,0.8,0.3h0.3h0c0.3,0,0.6-0.1,0.8-0.3C7,5.4,7.1,5.3,7.2,5.2c0,0,0-0.1,0.1-0.1c0,0,0,0,0,0C7.4,5,7.4,4.7,7.5,4.5
	c0,0,0,0,0,0c0,0,0-0.1,0-0.1c0,0,0-0.1,0-0.1V3.8c0,0,0-0.1,0-0.1c0,0,0-0.1,0-0.1c0,0,0,0,0,0c0-0.3-0.1-0.5-0.3-0.7
	C7.1,2.9,7.1,2.8,7,2.8c0,0,0,0,0,0C6.8,2.6,6.5,2.4,6.2,2.4h0H5.8h0C5.5,2.4,5.2,2.6,5,2.8c0,0,0,0,0,0C4.9,2.8,4.9,2.9,4.8,3
	C4.7,3.2,4.6,3.4,4.6,3.7c0,0,0,0,0,0c0,0,0,0.1,0,0.1c0,0,0,0.1,0,0.1v0.5C4.5,4.4,4.6,4.4,4.6,4.5C4.6,4.5,4.6,4.5,4.6,4.5z"/>
<path d="M6.8,6.4H5.3c-1.3,0-1.9,0.7-2,1.8l0,1.7C4.1,10.4,5,10.7,6,10.7c1,0,1.9-0.3,2.7-0.9V8.1h0C8.7,7.1,8,6.4,6.8,6.4z"/>
<path d="M6,0C2.7,0,0,2.7,0,6c0,3.3,2.7,6,6,6c3.3,0,6-2.7,6-6C12,2.7,9.3,0,6,0z M6,11.3c-2.9,0-5.3-2.4-5.3-5.3
	c0-2.9,2.4-5.3,5.3-5.3c2.9,0,5.3,2.4,5.3,5.3C11.3,8.9,8.9,11.3,6,11.3z"/>
<g>
</g>
<g>
</g>
<g>
</g>
<g>
</g>
<g>
</g>
<g>
</g>
<g>
</g>
<g>
</g>
<g>
</g>
<g>
</g>
<g>
</g>
<g>
</g>
<g>
</g>
<g>
</g>
<g>
</g>
</svg>
