<?xml version="1.0" encoding="utf-8"?>
<!-- Generator: Adobe Illustrator 18.1.1, SVG Export Plug-In . SVG Version: 6.00 Build 0)  -->
<svg version="1.1" id="Layer_1" xmlns="http://www.w3.org/2000/svg" xmlns:xlink="http://www.w3.org/1999/xlink" x="0px" y="0px"
	 viewBox="0 0 12 12" enable-background="new 0 0 12 12" xml:space="preserve">
<path d="M0,6c0-3.3,2.7-6,6-6l0,0c3.3,0,6,2.7,6,6l0,0c0,3.3-2.7,6-6,6l0,0C2.7,12,0,9.3,0,6L0,6z M0.7,6c0,2.9,2.4,5.3,5.3,5.3l0,0
	c2.9,0,5.3-2.4,5.3-5.3l0,0c0-2.9-2.4-5.3-5.3-5.3l0,0C3.1,0.7,0.7,3.1,0.7,6L0.7,6z"/>
<path d="M3.2,2.7v6.6h5.7V2.7H3.2z M4.9,4.6C4.9,4.6,4.9,4.5,4.9,4.6c0-0.1,0-0.1,0-0.1c0,0,0,0,0,0C5,4.3,5,4.1,5.1,4
	c0-0.1,0.1-0.1,0.1-0.1c0,0,0,0,0,0c0.2-0.1,0.4-0.2,0.6-0.2h0.2c0.2,0,0.4,0.1,0.6,0.2c0,0,0,0,0,0c0,0,0.1,0.1,0.1,0.1
	C7,4.1,7.1,4.3,7.1,4.5l0,0c0,0,0,0,0,0.1c0,0,0,0,0,0.1V5c0,0,0,0,0,0.1c0,0,0,0,0,0.1c0,0,0,0,0,0c0,0.2-0.1,0.3-0.2,0.5
	c0,0,0,0,0,0c0,0,0,0.1-0.1,0.1c0,0-0.1,0.1-0.1,0.1C6.6,5.9,6.4,6,6.1,6H5.9C5.7,6,5.5,5.9,5.3,5.8c0,0-0.1-0.1-0.1-0.1
	c0,0,0,0-0.1-0.1c0,0,0,0,0,0C5,5.4,5,5.3,4.9,5.1c0,0,0,0,0,0c0,0,0,0,0-0.1c0,0,0,0,0-0.1V4.6z M7.9,8.8H4.1
	C4,8.8,3.9,8.7,3.9,8.6l0-0.7C4,7,4.5,6.5,5.4,6.5h1.2c1,0,1.5,0.5,1.5,1.4h0v0.7C8.1,8.7,8,8.8,7.9,8.8z"/>
<g>
</g>
<g>
</g>
<g>
</g>
<g>
</g>
<g>
</g>
<g>
</g>
<g>
</g>
<g>
</g>
<g>
</g>
<g>
</g>
<g>
</g>
<g>
</g>
<g>
</g>
<g>
</g>
<g>
</g>
</svg>
