<?xml version="1.0" encoding="utf-8"?>
<!-- Generator: Adobe Illustrator 18.1.1, SVG Export Plug-In . SVG Version: 6.00 Build 0)  -->
<svg version="1.1" id="Layer_1" xmlns="http://www.w3.org/2000/svg" xmlns:xlink="http://www.w3.org/1999/xlink" x="0px" y="0px"
	 viewBox="0 0 12 12" enable-background="new 0 0 12 12" xml:space="preserve">
<path d="M0,6c0-3.3,2.7-6,6-6l0,0c3.3,0,6,2.7,6,6l0,0c0,3.3-2.7,6-6,6l0,0C2.7,12,0,9.3,0,6L0,6z M0.7,6c0,2.9,2.4,5.3,5.3,5.3l0,0
	c2.9,0,5.3-2.4,5.3-5.3l0,0c0-2.9-2.4-5.3-5.3-5.3l0,0C3.1,0.7,0.7,3.1,0.7,6L0.7,6z"/>
<path d="M4.6,4.5l1.1,0.2L6,4.4l0.1,0.5l2.1,0.5L8.5,5l0.1,0.5l1.1,0.2L10,5.4l0,0C9.9,4.2,9,3.2,7.9,2.9L8,2.4L7.6,2.3L7.5,2.8
	C6.3,2.6,5.1,3.1,4.5,4.1l0,0L4.6,4.5z"/>
<path d="M8.3,8.1C8,8.4,7.6,8.6,7.2,8.6C6.7,8.6,6.3,8.4,6,8.1C5.7,8.4,5.3,8.6,4.8,8.6C4.4,8.6,4,8.4,3.7,8.1
	C3.4,8.4,3,8.6,2.5,8.6c-0.1,0-0.1,0-0.2,0C2.5,8.8,2.8,9.1,3,9.3C3.2,9.2,3.4,9.1,3.5,9l0.2-0.2L3.9,9c0.2,0.3,0.6,0.4,1,0.4
	c0.4,0,0.7-0.2,1-0.5L6,8.8L6.2,9c0.2,0.3,0.6,0.4,1,0.4c0.4,0,0.7-0.2,1-0.4l0.2-0.2L8.5,9C8.6,9.1,8.8,9.2,9,9.3
	c0.2-0.2,0.5-0.5,0.7-0.7c-0.1,0-0.1,0-0.2,0C9,8.6,8.6,8.4,8.3,8.1z"/>
<path d="M9.5,7.3C9,7.3,8.6,7.1,8.3,6.8C8,7.1,7.6,7.3,7.2,7.3c-0.1,0-0.2,0-0.3,0l0.4-1.9L6.9,5.3L6.5,7.1C6.3,7.1,6.1,7,6,6.8
	C5.7,7.1,5.3,7.3,4.8,7.3C4.4,7.3,4,7.1,3.7,6.8C3.4,7.1,3,7.3,2.5,7.3c-0.3,0-0.6-0.1-0.8-0.2C1.8,7.4,1.9,7.7,2,8
	c0.2,0.1,0.3,0.1,0.5,0.1c0.4,0,0.7-0.2,1-0.5l0.2-0.2l0.2,0.2c0.2,0.3,0.6,0.5,1,0.5c0.4,0,0.7-0.2,1-0.5L6,7.5l0.2,0.2
	c0.2,0.3,0.6,0.5,1,0.5c0.4,0,0.7-0.2,1-0.5l0.2-0.2l0.2,0.2c0.2,0.3,0.6,0.5,1,0.5c0.2,0,0.3,0,0.5-0.1c0.2-0.3,0.3-0.6,0.4-1
	C10.1,7.2,9.8,7.3,9.5,7.3z"/>
<g>
</g>
<g>
</g>
<g>
</g>
<g>
</g>
<g>
</g>
<g>
</g>
<g>
</g>
<g>
</g>
<g>
</g>
<g>
</g>
<g>
</g>
<g>
</g>
<g>
</g>
<g>
</g>
<g>
</g>
</svg>
