<?xml version="1.0" encoding="utf-8"?>
<!-- Generator: Adobe Illustrator 18.1.1, SVG Export Plug-In . SVG Version: 6.00 Build 0)  -->
<svg version="1.1" id="Layer_1" xmlns="http://www.w3.org/2000/svg" xmlns:xlink="http://www.w3.org/1999/xlink" x="0px" y="0px"
	 viewBox="0 0 12 12" enable-background="new 0 0 12 12" xml:space="preserve">
<path d="M0,6c0-3.3,2.7-6,6-6l0,0c3.3,0,6,2.7,6,6l0,0c0,3.3-2.7,6-6,6l0,0C2.7,12,0,9.3,0,6L0,6z M0.7,6c0,2.9,2.4,5.3,5.3,5.3l0,0
	c2.9,0,5.3-2.4,5.3-5.3l0,0c0-2.9-2.4-5.3-5.3-5.3l0,0C3.1,0.7,0.7,3.1,0.7,6L0.7,6z"/>
<path d="M4.1,8.8C4.1,8.9,4.2,9,4.3,9h4.3c0.1,0,0.2-0.1,0.2-0.2V5.9c0-0.1-0.1-0.2-0.2-0.2H4.3c-0.1,0-0.2,0.1-0.2,0.2V8.8z"/>
<path d="M4.8,5.5c0.8,0,1.4-0.6,1.4-1.4c0-0.8-0.6-1.4-1.4-1.4C4,2.7,3.4,3.3,3.4,4.1C3.4,4.9,4,5.5,4.8,5.5z M4.8,3.5
	c0.3,0,0.6,0.3,0.6,0.6c0,0.3-0.3,0.6-0.6,0.6c-0.3,0-0.6-0.3-0.6-0.6C4.2,3.8,4.5,3.5,4.8,3.5z"/>
<path d="M8,2.7c-0.8,0-1.4,0.6-1.4,1.4c0,0.8,0.6,1.4,1.4,1.4s1.4-0.6,1.4-1.4C9.4,3.3,8.8,2.7,8,2.7z M8,4.7
	c-0.3,0-0.6-0.3-0.6-0.6c0-0.3,0.3-0.6,0.6-0.6c0.3,0,0.6,0.3,0.6,0.6C8.6,4.4,8.3,4.7,8,4.7z"/>
<path d="M2.5,6.1c-0.1,0-0.2,0-0.2,0.1v2.2c0,0.1,0.1,0.1,0.2,0.1l0,0l1.3-0.7V6.8L2.5,6.1z"/>
<g>
</g>
<g>
</g>
<g>
</g>
<g>
</g>
<g>
</g>
<g>
</g>
<g>
</g>
<g>
</g>
<g>
</g>
<g>
</g>
<g>
</g>
<g>
</g>
<g>
</g>
<g>
</g>
<g>
</g>
</svg>
