<?xml version="1.0" encoding="utf-8"?>
<!-- Generator: Adobe Illustrator 18.1.1, SVG Export Plug-In . SVG Version: 6.00 Build 0)  -->
<svg version="1.1" id="Layer_1" xmlns="http://www.w3.org/2000/svg" xmlns:xlink="http://www.w3.org/1999/xlink" x="0px" y="0px"
	 viewBox="0 0 12 12" enable-background="new 0 0 12 12" xml:space="preserve">
<path d="M6,0C2.7,0,0,2.7,0,6c0,3.3,2.7,6,6,6c3.3,0,6-2.7,6-6C12,2.7,9.3,0,6,0z M6,11.3c-2.9,0-5.3-2.4-5.3-5.3
	c0-2.9,2.4-5.3,5.3-5.3c2.9,0,5.3,2.4,5.3,5.3C11.3,8.9,8.9,11.3,6,11.3z"/>
<path d="M6,7c0.7,0,1.3-0.6,1.3-1.3V3.5c0-0.7-0.6-1.3-1.3-1.3c-0.7,0-1.3,0.6-1.3,1.3v2.2C4.7,6.4,5.3,7,6,7z M8.5,5.3H8.1
	C8.1,5.3,8,5.4,8,5.5l0,0.3c0,1.1-0.9,2-2,2c0,0,0,0,0,0l0,0c-1.1,0-2-0.9-2-2l0-0.3C4,5.4,4,5.3,3.9,5.3H3.5
	c-0.1,0-0.1,0.1-0.1,0.1l0,0.3c0,1.3,1,2.4,2.3,2.6v0.9l-1.2,0c-0.1,0-0.1,0.1-0.1,0.1v0.4c0,0.1,0.1,0.1,0.1,0.1h3
	c0.1,0,0.1-0.1,0.1-0.1V9.4c0-0.1-0.1-0.1-0.1-0.1l-1.2,0V8.3c1.3-0.2,2.3-1.3,2.3-2.6l0-0.3C8.6,5.4,8.6,5.3,8.5,5.3z"/>
<g>
</g>
<g>
</g>
<g>
</g>
<g>
</g>
<g>
</g>
<g>
</g>
<g>
</g>
<g>
</g>
<g>
</g>
<g>
</g>
<g>
</g>
<g>
</g>
<g>
</g>
<g>
</g>
<g>
</g>
</svg>
