<?xml version="1.0" encoding="utf-8"?>
<!-- Generator: Adobe Illustrator 18.1.1, SVG Export Plug-In . SVG Version: 6.00 Build 0)  -->
<svg version="1.1" id="Layer_1" xmlns="http://www.w3.org/2000/svg" xmlns:xlink="http://www.w3.org/1999/xlink" x="0px" y="0px"
	 viewBox="0 0 12 12" enable-background="new 0 0 12 12" xml:space="preserve">
<path d="M6,0C2.7,0,0,2.7,0,6c0,3.3,2.7,6,6,6c3.3,0,6-2.7,6-6C12,2.7,9.3,0,6,0z M6,11.3c-2.9,0-5.3-2.4-5.3-5.3
	c0-2.9,2.4-5.3,5.3-5.3c2.9,0,5.3,2.4,5.3,5.3C11.3,8.9,8.9,11.3,6,11.3z"/>
<path d="M2.4,4.8C2.3,4.9,2.1,5,1.9,5H1.8v0.4h0.7v2.1h0.6V4.5H2.6C2.6,4.6,2.5,4.7,2.4,4.8z"/>
<path d="M4.4,4.8C4.3,4.9,4.1,5,3.8,5H3.8v0.4h0.7v2.1H5V4.5H4.6C4.6,4.6,4.5,4.7,4.4,4.8z"/>
<path d="M6.8,4.4C6.4,4.4,6.2,4.5,6,4.8C5.8,5,5.7,5.5,5.7,6c0,0.5,0.1,1,0.2,1.2c0.2,0.3,0.4,0.4,0.8,0.4c0.3,0,0.6-0.1,0.8-0.4
	C7.7,7,7.8,6.6,7.8,6c0-0.6-0.1-1-0.2-1.2C7.4,4.5,7.1,4.4,6.8,4.4z M7.1,6.9C7,7,6.9,7.1,6.8,7.1C6.6,7.1,6.5,7,6.4,6.9
	C6.4,6.7,6.3,6.4,6.3,6c0-0.4,0-0.7,0.1-0.9C6.5,5,6.6,4.9,6.8,4.9C6.9,4.9,7,5,7.1,5.1C7.2,5.3,7.2,5.6,7.2,6
	C7.2,6.4,7.2,6.7,7.1,6.9z"/>
<polygon points="9.7,5.1 9.2,6.9 9.2,6.9 8.7,5.1 8.1,5.1 8.9,7.5 9.5,7.5 10.3,5.1 "/>
<g>
</g>
<g>
</g>
<g>
</g>
<g>
</g>
<g>
</g>
<g>
</g>
<g>
</g>
<g>
</g>
<g>
</g>
<g>
</g>
<g>
</g>
<g>
</g>
<g>
</g>
<g>
</g>
<g>
</g>
</svg>
