<?xml version="1.0" encoding="utf-8"?>
<!-- Generator: Adobe Illustrator 18.1.1, SVG Export Plug-In . SVG Version: 6.00 Build 0)  -->
<svg version="1.1" id="Layer_1" xmlns="http://www.w3.org/2000/svg" xmlns:xlink="http://www.w3.org/1999/xlink" x="0px" y="0px"
	 viewBox="0 0 12 12" enable-background="new 0 0 12 12" xml:space="preserve">
<path d="M6,0C2.7,0,0,2.7,0,6c0,3.3,2.7,6,6,6c3.3,0,6-2.7,6-6C12,2.7,9.3,0,6,0z M6,11.3c-2.9,0-5.3-2.4-5.3-5.3
	c0-2.9,2.4-5.3,5.3-5.3c2.9,0,5.3,2.4,5.3,5.3C11.3,8.9,8.9,11.3,6,11.3z"/>
<path d="M2.6,6.8c0.1,0,0.2-0.1,0.3-0.3l0.2-0.1C3.3,6.3,3.4,6.1,3.5,6c0.1-0.2,0.2-0.4,0.2-0.6c0-0.3-0.1-0.6-0.3-0.7
	C3.3,4.5,3,4.4,2.7,4.4c-0.2,0-0.4,0.1-0.6,0.2C1.9,4.8,1.8,5.1,1.8,5.5h0.6c0-0.2,0-0.3,0.1-0.4C2.4,5,2.6,4.9,2.7,4.9
	c0.1,0,0.2,0,0.3,0.1c0.1,0.1,0.1,0.2,0.1,0.3c0,0.2-0.1,0.3-0.2,0.4C2.9,5.9,2.7,6,2.5,6.2L2.4,6.3C2.1,6.5,1.9,6.7,1.8,7
	C1.8,7.1,1.7,7.3,1.7,7.5h2V7H2.5C2.5,7,2.5,6.9,2.6,6.8z"/>
<path d="M4.8,6.8c0.1,0,0.2-0.1,0.3-0.3l0.2-0.1C5.5,6.3,5.6,6.1,5.7,6c0.1-0.2,0.2-0.4,0.2-0.6c0-0.3-0.1-0.6-0.3-0.7
	C5.4,4.5,5.2,4.4,4.9,4.4c-0.2,0-0.4,0.1-0.6,0.2C4.1,4.8,4,5.1,4,5.5h0.6c0-0.2,0-0.3,0.1-0.4C4.6,5,4.8,4.9,4.9,4.9
	c0.1,0,0.2,0,0.3,0.1c0.1,0.1,0.1,0.2,0.1,0.3c0,0.2-0.1,0.3-0.2,0.4C5.1,5.9,4.9,6,4.7,6.2L4.6,6.3C4.3,6.5,4.1,6.7,4,7
	C4,7.1,3.9,7.3,3.9,7.5h2V7H4.7C4.7,7,4.7,6.9,4.8,6.8z"/>
<path d="M7.1,4.4c-0.3,0-0.6,0.1-0.8,0.4C6.2,5.1,6.1,5.5,6.1,6c0,0.5,0.1,1,0.2,1.2c0.2,0.3,0.4,0.4,0.8,0.4c0.3,0,0.6-0.1,0.8-0.4
	C8.1,7,8.1,6.6,8.1,6c0-0.6-0.1-1-0.2-1.2C7.7,4.5,7.5,4.4,7.1,4.4z M7.5,6.9C7.4,7,7.3,7.1,7.1,7.1C7,7.1,6.8,7,6.8,6.9
	C6.7,6.7,6.7,6.4,6.7,6c0-0.4,0-0.7,0.1-0.9C6.8,5,7,4.9,7.1,4.9c0.2,0,0.3,0.1,0.3,0.3C7.5,5.3,7.5,5.6,7.5,6
	C7.5,6.4,7.5,6.7,7.5,6.9z"/>
<polygon points="10.1,5.2 9.6,6.9 9.6,6.9 9.1,5.2 8.5,5.2 9.3,7.5 9.9,7.5 10.7,5.2 "/>
<g>
</g>
<g>
</g>
<g>
</g>
<g>
</g>
<g>
</g>
<g>
</g>
<g>
</g>
<g>
</g>
<g>
</g>
<g>
</g>
<g>
</g>
<g>
</g>
<g>
</g>
<g>
</g>
<g>
</g>
</svg>
