<?xml version="1.0" encoding="utf-8"?>
<!-- Generator: Adobe Illustrator 18.1.1, SVG Export Plug-In . SVG Version: 6.00 Build 0)  -->
<svg version="1.1" id="Layer_1" xmlns="http://www.w3.org/2000/svg" xmlns:xlink="http://www.w3.org/1999/xlink" x="0px" y="0px"
	 viewBox="0 0 12 12" enable-background="new 0 0 12 12" xml:space="preserve">
<path d="M6,0C2.7,0,0,2.7,0,6c0,3.3,2.7,6,6,6c3.3,0,6-2.7,6-6C12,2.7,9.3,0,6,0z M6,11.3c-2.9,0-5.3-2.4-5.3-5.3
	c0-2.9,2.4-5.3,5.3-5.3c2.9,0,5.3,2.4,5.3,5.3C11.3,8.9,8.9,11.3,6,11.3z"/>
<path d="M2.6,6.8c0.1,0,0.2-0.1,0.3-0.3l0.2-0.1C3.3,6.3,3.4,6.1,3.5,6c0.1-0.2,0.2-0.4,0.2-0.6c0-0.3-0.1-0.6-0.3-0.7
	C3.2,4.5,3,4.4,2.7,4.4c-0.2,0-0.4,0.1-0.6,0.2C1.8,4.8,1.7,5.1,1.7,5.5h0.6c0-0.2,0-0.3,0.1-0.4C2.4,5,2.5,4.9,2.7,4.9
	c0.1,0,0.2,0,0.3,0.1c0.1,0.1,0.1,0.2,0.1,0.3c0,0.2-0.1,0.3-0.2,0.4C2.9,5.9,2.7,6,2.4,6.2L2.4,6.3C2.1,6.5,1.9,6.7,1.8,7
	C1.7,7.1,1.7,7.3,1.7,7.5h2V7H2.4C2.4,7,2.5,6.9,2.6,6.8z"/>
<path d="M5,5.5c-0.1,0-0.2,0-0.3,0.1c-0.1,0-0.1,0.1-0.2,0.1L4.6,5h1.2V4.5H4.2L4,6.2l0.5,0C4.5,6.1,4.6,6,4.7,6c0.1,0,0.1,0,0.2,0
	C5,6,5.1,6,5.2,6.1c0.1,0.1,0.1,0.2,0.1,0.4c0,0.2,0,0.3-0.1,0.4C5.1,7.1,5,7.1,4.9,7.1c-0.1,0-0.2,0-0.3-0.1
	C4.5,6.9,4.4,6.8,4.4,6.7H3.9C3.9,7,4,7.2,4.2,7.4c0.2,0.1,0.4,0.2,0.7,0.2c0.4,0,0.7-0.1,0.9-0.4C5.8,7,5.9,6.8,5.9,6.5
	c0-0.3-0.1-0.6-0.3-0.8C5.4,5.6,5.2,5.5,5,5.5z"/>
<path d="M7.1,4.4c-0.3,0-0.6,0.1-0.8,0.4C6.1,5.1,6.1,5.5,6.1,6c0,0.5,0.1,1,0.2,1.2c0.2,0.3,0.4,0.4,0.8,0.4c0.3,0,0.6-0.1,0.8-0.4
	C8,7,8.1,6.6,8.1,6c0-0.6-0.1-1-0.2-1.2C7.7,4.5,7.4,4.4,7.1,4.4z M7.4,6.9C7.3,7,7.2,7.1,7.1,7.1C6.9,7.1,6.8,7,6.7,6.9
	C6.7,6.7,6.7,6.4,6.7,6c0-0.4,0-0.7,0.1-0.9C6.8,5,6.9,4.9,7.1,4.9c0.2,0,0.3,0.1,0.3,0.3C7.5,5.3,7.5,5.6,7.5,6
	C7.5,6.4,7.5,6.7,7.4,6.9z"/>
<polygon points="10,5.2 9.5,6.9 9.5,6.9 9.1,5.2 8.4,5.2 9.2,7.5 9.8,7.5 10.6,5.2 "/>
<g>
</g>
<g>
</g>
<g>
</g>
<g>
</g>
<g>
</g>
<g>
</g>
<g>
</g>
<g>
</g>
<g>
</g>
<g>
</g>
<g>
</g>
<g>
</g>
<g>
</g>
<g>
</g>
<g>
</g>
</svg>
