<?xml version="1.0" encoding="utf-8"?>
<!-- Generator: Adobe Illustrator 18.1.1, SVG Export Plug-In . SVG Version: 6.00 Build 0)  -->
<svg version="1.1" id="Layer_1" xmlns="http://www.w3.org/2000/svg" xmlns:xlink="http://www.w3.org/1999/xlink" x="0px" y="0px"
	 viewBox="0 0 12 12" enable-background="new 0 0 12 12" xml:space="preserve">
<path d="M6,0C2.7,0,0,2.7,0,6c0,3.3,2.7,6,6,6c3.3,0,6-2.7,6-6C12,2.7,9.3,0,6,0z M6,11.3c-2.9,0-5.3-2.4-5.3-5.3
	c0-2.9,2.4-5.3,5.3-5.3c2.9,0,5.3,2.4,5.3,5.3C11.3,8.9,8.9,11.3,6,11.3z"/>
<path d="M7.4,4L7.1,4.3c0.4,0.4,0.7,1,0.7,1.7c0,0.7-0.3,1.2-0.7,1.7L7.4,8c0.5-0.5,0.8-1.2,0.8-2C8.3,5.2,7.9,4.5,7.4,4z"/>
<path d="M8.2,3.2L7.9,3.6c0.6,0.6,1,1.5,1,2.5c0,1-0.4,1.8-1,2.5l0.3,0.3C8.9,8.1,9.3,7.1,9.3,6C9.3,4.9,8.9,3.9,8.2,3.2z"/>
<path d="M6.4,2.8c-0.1,0-0.1,0-0.1,0.1L4.4,4.5H2.9c-0.2,0-0.4,0.2-0.4,0.4v2.2c0,0.2,0.2,0.4,0.4,0.4h1.5l1.8,1.7
	c0,0,0.1,0.1,0.1,0.1c0.1,0,0.2-0.1,0.2-0.2V3C6.6,2.9,6.5,2.8,6.4,2.8z"/>
<g>
</g>
<g>
</g>
<g>
</g>
<g>
</g>
<g>
</g>
<g>
</g>
<g>
</g>
<g>
</g>
<g>
</g>
<g>
</g>
<g>
</g>
<g>
</g>
<g>
</g>
<g>
</g>
<g>
</g>
</svg>
