<?xml version="1.0" encoding="utf-8"?>
<!-- Generator: Adobe Illustrator 18.1.1, SVG Export Plug-In . SVG Version: 6.00 Build 0)  -->
<svg version="1.1" id="Layer_1" xmlns="http://www.w3.org/2000/svg" xmlns:xlink="http://www.w3.org/1999/xlink" x="0px" y="0px"
	 viewBox="0 0 12 12" enable-background="new 0 0 12 12" xml:space="preserve">
<path d="M6,0C2.7,0,0,2.7,0,6c0,3.3,2.7,6,6,6c3.3,0,6-2.7,6-6C12,2.7,9.3,0,6,0z M6,11.3c-2.9,0-5.3-2.4-5.3-5.3
	c0-2.9,2.4-5.3,5.3-5.3c2.9,0,5.3,2.4,5.3,5.3C11.3,8.9,8.9,11.3,6,11.3z"/>
<path d="M3,6.2l0.6,0.6c0.6-0.6,1.5-1,2.4-1c0.9,0,1.8,0.4,2.4,1L9,6.2C8.2,5.4,7.2,4.9,6,4.9C4.9,4.9,3.8,5.4,3,6.2z"/>
<path d="M4.1,7.2l0.6,0.6C5,7.5,5.5,7.3,6,7.3c0.5,0,1,0.2,1.3,0.5l0.6-0.6C7.4,6.8,6.7,6.5,6,6.5C5.3,6.5,4.6,6.8,4.1,7.2z"/>
<path d="M6,3.4c-1.6,0-3,0.6-4,1.7l0.6,0.6C3.4,4.8,4.7,4.2,6,4.2c1.4,0,2.6,0.5,3.5,1.4L10,5.1C9,4.1,7.6,3.4,6,3.4z"/>
<path d="M5.2,8.3L5.9,9c0.1,0.1,0.2,0.1,0.3,0l0.7-0.7C6.6,8.1,6.3,8,6,8C5.7,8,5.4,8.1,5.2,8.3z"/>
<g>
</g>
<g>
</g>
<g>
</g>
<g>
</g>
<g>
</g>
<g>
</g>
<g>
</g>
<g>
</g>
<g>
</g>
<g>
</g>
<g>
</g>
<g>
</g>
<g>
</g>
<g>
</g>
<g>
</g>
</svg>
