<?xml version="1.0" encoding="utf-8"?>
<!-- Generator: Adobe Illustrator 18.1.1, SVG Export Plug-In . SVG Version: 6.00 Build 0)  -->
<svg version="1.1" id="Layer_1" xmlns="http://www.w3.org/2000/svg" xmlns:xlink="http://www.w3.org/1999/xlink" x="0px" y="0px"
	 viewBox="0 0 12 12" enable-background="new 0 0 12 12" xml:space="preserve">
<path d="M0,6c0-3.3,2.7-6,6-6l0,0c3.3,0,6,2.7,6,6l0,0c0,3.3-2.7,6-6,6l0,0C2.7,12,0,9.3,0,6L0,6z M0.7,6c0,2.9,2.4,5.3,5.3,5.3l0,0
	c2.9,0,5.3-2.4,5.3-5.3l0,0c0-2.9-2.4-5.3-5.3-5.3l0,0C3.1,0.7,0.7,3.1,0.7,6L0.7,6z"/>
<rect x="4.2" y="3.9" width="3.3" height="0.4"/>
<rect x="4.2" y="5" width="3.3" height="0.4"/>
<polygon points="4.2,6.5 6.4,6.5 6.8,6.1 4.2,6.1 "/>
<path d="M6.1,8.3l1-0.3l2.7-2.7c0.1-0.1,0.1-0.2,0-0.2L9.2,4.4C9.2,4.3,9.1,4.3,9,4.4L8.5,5V2.8H3.2v6.5h5.3V7.2L8,7.6v1.2H3.6V3.2
	H8v2.2L6.3,7.1L6,8.1C6,8.2,6,8.3,6.1,8.3z"/>
<g>
</g>
<g>
</g>
<g>
</g>
<g>
</g>
<g>
</g>
<g>
</g>
<g>
</g>
<g>
</g>
<g>
</g>
<g>
</g>
<g>
</g>
<g>
</g>
<g>
</g>
<g>
</g>
<g>
</g>
</svg>
