<?xml version="1.0" encoding="utf-8"?>
<!-- Generator: Adobe Illustrator 18.1.1, SVG Export Plug-In . SVG Version: 6.00 Build 0)  -->
<svg version="1.1" id="Layer_1" xmlns="http://www.w3.org/2000/svg" xmlns:xlink="http://www.w3.org/1999/xlink" x="0px" y="0px"
	 viewBox="0 0 12 12" enable-background="new 0 0 12 12" xml:space="preserve">
<path d="M0,6c0-3.3,2.7-6,6-6l0,0c3.3,0,6,2.7,6,6l0,0c0,3.3-2.7,6-6,6l0,0C2.7,12,0,9.3,0,6L0,6z M0.7,6c0,2.9,2.4,5.3,5.3,5.3l0,0
	c2.9,0,5.3-2.4,5.3-5.3l0,0c0-2.9-2.4-5.3-5.3-5.3l0,0C3.1,0.7,0.7,3.1,0.7,6L0.7,6z"/>
<g>
	<path d="M7.2,3.9L4.7,6.4l0,0L3.2,9.3l2.8-1.4l0,0l0,0l0,0l0,0l2.5-2.5L7.2,3.9z M4.6,8.2L4.3,7.9l0.6-1.2l0.8,0.8L4.6,8.2z"/>
	<path d="M9.1,9.3H2.9C3,9.4,3.2,9.6,3.3,9.7h5.3C8.8,9.6,9,9.4,9.1,9.3z"/>
	<path d="M9.3,4.6c0.2-0.2,0.2-0.5,0-0.7L8.6,3.2C8.4,3,8.1,3,7.9,3.2L7.4,3.7l1.4,1.4L9.3,4.6z"/>
</g>
<g>
</g>
<g>
</g>
<g>
</g>
<g>
</g>
<g>
</g>
<g>
</g>
<g>
</g>
<g>
</g>
<g>
</g>
<g>
</g>
<g>
</g>
<g>
</g>
<g>
</g>
<g>
</g>
<g>
</g>
</svg>
