<?xml version="1.0" encoding="utf-8"?>
<!-- Generator: Adobe Illustrator 18.1.1, SVG Export Plug-In . SVG Version: 6.00 Build 0)  -->
<svg version="1.1" id="Layer_1" xmlns="http://www.w3.org/2000/svg" xmlns:xlink="http://www.w3.org/1999/xlink" x="0px" y="0px"
	 viewBox="0 0 49.4 43.8" enable-background="new 0 0 49.4 43.8" xml:space="preserve">
<path d="M48.9,38.2L28,1.9C27.3,0.7,26,0,24.7,0c-1.3,0-2.6,0.7-3.2,1.9l-21,36.3c-0.7,1.2-0.7,2.6,0,3.7c0.7,1.2,1.9,1.9,3.2,1.9
	h41.9c1.3,0,2.6-0.7,3.2-1.9C49.6,40.8,49.6,39.4,48.9,38.2z M22.4,12.2h4.7v17.3h-4.7V12.2z M24.7,38.7c-1.8,0-3.2-1.4-3.2-3.2
	c0-1.8,1.4-3.2,3.2-3.2c1.8,0,3.2,1.4,3.2,3.2C27.9,37.3,26.5,38.7,24.7,38.7z"/>
<g>
</g>
<g>
</g>
<g>
</g>
<g>
</g>
<g>
</g>
<g>
</g>
<g>
</g>
<g>
</g>
<g>
</g>
<g>
</g>
<g>
</g>
<g>
</g>
<g>
</g>
<g>
</g>
<g>
</g>
</svg>
