<?xml version="1.0" encoding="utf-8"?>
<!-- Generator: Adobe Illustrator 18.1.1, SVG Export Plug-In . SVG Version: 6.00 Build 0)  -->
<svg version="1.1" id="Layer_1" xmlns="http://www.w3.org/2000/svg" xmlns:xlink="http://www.w3.org/1999/xlink" x="0px" y="0px"
	 viewBox="0 0 46.6 46.6" enable-background="new 0 0 46.6 46.6" xml:space="preserve">
<g>
	<path d="M45.7,17.1C42.3,4.7,29.4-2.6,17,0.8C4.7,4.3-2.6,17.1,0.9,29.5c1.7,6,5.6,11,11,14.1c5.4,3.1,11.7,3.8,17.7,2.2
		C41.9,42.3,49.1,29.5,45.7,17.1z M29,29c0,3.4-1.9,5.4-4.4,5.4H24c-0.2,0-0.3-0.1-0.3-0.3l0-6.4h0c0-0.2-0.1-0.3-0.3-0.3
		c-0.1,0-0.1,0-0.2,0.1h0l-7.3,7.3c-0.6,0.6-1.5,1-2.3,1c-0.8,0-1.7-0.3-2.3-1c-0.6-0.6-1-1.5-1-2.3c0-0.8,0.3-1.7,1-2.3l7.2-7.2
		c0.1-0.1,0.1-0.3,0-0.4c-0.1-0.1-0.1-0.1-0.2-0.1c0,0-6,0-6.6,0c-0.2,0-0.3-0.1-0.3-0.3v-0.7h0l0-0.1c0-2.1,2.1-4.2,5.5-4.2l11.5,0
		c0.4,0,0.6,0.3,0.6,0.7L29,29z M35.8,21.2l0,0.2c0,1.4-1.5,3.1-3,3.1h-1v-9.3c0-0.4-0.3-0.7-0.7-0.7l-10,0v-0.9c0-1.6,1.6-3,3.1-3
		l0,0l11,0c0.4,0,0.6,0.3,0.7,0.6L35.8,21.2z"/>
</g>
<g>
</g>
<g>
</g>
<g>
</g>
<g>
</g>
<g>
</g>
<g>
</g>
<g>
</g>
<g>
</g>
<g>
</g>
<g>
</g>
<g>
</g>
<g>
</g>
<g>
</g>
<g>
</g>
<g>
</g>
</svg>
