<?xml version="1.0" encoding="utf-8"?>
<!-- Generator: Adobe Illustrator 18.1.1, SVG Export Plug-In . SVG Version: 6.00 Build 0)  -->
<svg version="1.1" id="Layer_1" xmlns="http://www.w3.org/2000/svg" xmlns:xlink="http://www.w3.org/1999/xlink" x="0px" y="0px"
	 viewBox="0 0 51.4 51.4" enable-background="new 0 0 51.4 51.4" xml:space="preserve">
<g>
	<path d="M51.4,25.7c0,14.2-11.5,25.7-25.7,25.7C11.5,51.4,0,39.9,0,25.7C0,11.5,11.5,0,25.7,0C39.9,0,51.4,11.5,51.4,25.7z"/>
	<path id="inner" fill="#FFFFFF" d="M41.1,11.7h-3.9h-23h-3.9v14.5l-4.2,4.5h3.4v9h3.2v-9H39v9h3.2v-9h3l-4.2-4.8V11.7z M37.2,24.9h-23v-3.1h23
		V24.9z M37.2,18.2h-23v-3h23V18.2z"/>
</g>
<g>
</g>
<g>
</g>
<g>
</g>
<g>
</g>
<g>
</g>
<g>
</g>
<g>
</g>
<g>
</g>
<g>
</g>
<g>
</g>
<g>
</g>
<g>
</g>
<g>
</g>
<g>
</g>
<g>
</g>
</svg>
