<?xml version="1.0" encoding="utf-8"?>
<!-- Generator: Adobe Illustrator 18.1.1, SVG Export Plug-In . SVG Version: 6.00 Build 0)  -->
<svg version="1.1" id="Layer_1" xmlns="http://www.w3.org/2000/svg" xmlns:xlink="http://www.w3.org/1999/xlink" x="0px" y="0px"
	 viewBox="0 0 51.4 51.4" enable-background="new 0 0 51.4 51.4" xml:space="preserve">
<g>
	<path d="M51.4,25.7c0,14.2-11.5,25.7-25.7,25.7S0,39.9,0,25.7C0,11.5,11.5,0,25.7,0S51.4,11.5,51.4,25.7z"/>
	<g>
		<path id="inner1" fill="#FFFFFF" d="M29.8,13c1.6,0,3-1.3,3-3c0-1.6-1.4-3-3-2.9c-1.7,0-3,1.3-3,3C26.8,11.7,28.1,13,29.8,13z"/>
		<path id="inner2" fill="#FFFFFF" d="M38,26.3l-5.1-1.8l-2.2-9.7c0,0,0,0,0,0c-0.2-0.6-0.6-1.1-1.4-1.4l-1.6-0.6c-0.6-0.2-1.1-0.2-1.5-0.1
			c-0.7-0.1-1.5,0.1-2,0.5l-6.6,4c-0.3,0.3-0.5,0.6-0.6,1l-1.8,6.1c-0.3,1,0,1.8,1,2.1c0.2,0,0.4,0.1,0.5,0.1c0.8,0,1.1-0.7,1.4-1.6
			l1.6-5.1l4.1-2.5L20.4,27l0,0l-6.3,13.7c-0.5,1.1-0.6,2.3,0.5,2.9c0.2,0.1,0.2,0.2,0.5,0.2c0.7,0.3,1.6-0.1,2-1L23.9,30l2.9,5.3
			l0.2,7c0.1,1.1,0.6,2.1,1.9,2c0.1,0,0.3,0,0.4,0c0.9,0.2,1.7-1,1.5-2.2l-0.1-7.2c0-0.3-0.2-0.7-0.3-1l-2.9-6.4l1.8-6.2l1.3,5.3
			c0.1,0.2,0.3,0.5,0.5,0.6l4.8,1.4c0.4,0.3,1,0.3,1.4,0.3l-0.3,0.1c0.5,0,0.9-0.1,1.2-0.5C38.7,27.7,38.8,26.9,38,26.3z"/>
	</g>
</g>
<g>
</g>
<g>
</g>
<g>
</g>
<g>
</g>
<g>
</g>
<g>
</g>
<g>
</g>
<g>
</g>
<g>
</g>
<g>
</g>
<g>
</g>
<g>
</g>
<g>
</g>
<g>
</g>
<g>
</g>
</svg>
