<?xml version="1.0" encoding="utf-8"?>
<!-- Generator: Adobe Illustrator 18.1.1, SVG Export Plug-In . SVG Version: 6.00 Build 0)  -->
<svg version="1.1" id="Layer_1" xmlns="http://www.w3.org/2000/svg" xmlns:xlink="http://www.w3.org/1999/xlink" x="0px" y="0px"
	 viewBox="0 0 51.4 51.4" enable-background="new 0 0 51.4 51.4" xml:space="preserve">
<g>
	<path d="M51.4,25.7c0,14.2-11.5,25.7-25.7,25.7C11.5,51.4,0,39.9,0,25.7C0,11.5,11.5,0,25.7,0C39.9,0,51.4,11.5,51.4,25.7z"/>
	<g>
		<path id="inner1" fill="#FFFFFF" d="M41,24.4c0,0-7.8,0.1-9.2-1.1c0,0-0.7,0-0.7-1.3h0.8v-3.3h-1.2l-2.1-1.5v-1.5c0.6-0.4,1.1-1,1.4-1.6h7.5
			v-3h-7.6c-0.6-1.1-1.8-1.9-3.1-1.9c-1.4,0-2.5,0.8-3.1,1.9h-8v3h7.8c0.3,0.6,0.7,1.2,1.3,1.6v1.6l-1.7,1.4h-1.8v3h1.6
			c0,0-0.2,1.1-1.5,1.6c0,0-0.6,0.3-2.6,0.1c0,0-5.3-0.3-7.2,4.2c0,0-1.8,2.6-1.5,8h6.3c0,0-0.2-4.1,1.8-4.9c0,0,1.1-0.6,3.2,0.2
			c0,0,2.2,1.1,6.1,0.9c0,0,0.9-0.1,5.1-0.9c0,0,6-0.3,8.5-0.3L41,24.4z"/>
		<path id="inner2" fill="#FFFFFF" d="M10.9,41.6c0,1.2,1,2.2,2.2,2.2c1.2,0,2.2-1,2.2-2.2c0-1.2-2.2-4.6-2.2-4.6S10.9,40.4,10.9,41.6z"/>
	</g>
</g>
<g>
</g>
<g>
</g>
<g>
</g>
<g>
</g>
<g>
</g>
<g>
</g>
<g>
</g>
<g>
</g>
<g>
</g>
<g>
</g>
<g>
</g>
<g>
</g>
<g>
</g>
<g>
</g>
<g>
</g>
</svg>
