<?xml version="1.0" encoding="utf-8"?>
<!-- Generator: Adobe Illustrator 18.1.1, SVG Export Plug-In . SVG Version: 6.00 Build 0)  -->
<svg version="1.1" id="Layer_1" xmlns="http://www.w3.org/2000/svg" xmlns:xlink="http://www.w3.org/1999/xlink" x="0px" y="0px"
	 viewBox="0 0 51.4 51.4" enable-background="new 0 0 51.4 51.4" xml:space="preserve">
<g>
	<path d="M51.4,25.7c0,14.2-11.5,25.7-25.7,25.7C11.5,51.4,0,39.9,0,25.7C0,11.5,11.5,0,25.7,0C39.9,0,51.4,11.5,51.4,25.7z"/>
	<path id="inner" fill="#FFFFFF" d="M34.3,28.5c0-5.7,0.3-8.9,5.9-10.5l-0.8-2.7c-8,2.2-8,8.1-8,13.2v10.1h-3.7v-19c0-1-0.8-1.9-1.9-1.9h-2.7
		v-5h4.6v-2.6h-12v2.6h4.6v5h-2.7c-1.1,0-1.9,0.9-1.9,1.9v19h-3.5v2.6H38v-2.6h-3.7V28.5z"/>
</g>
<g>
</g>
<g>
</g>
<g>
</g>
<g>
</g>
<g>
</g>
<g>
</g>
<g>
</g>
<g>
</g>
<g>
</g>
<g>
</g>
<g>
</g>
<g>
</g>
<g>
</g>
<g>
</g>
<g>
</g>
</svg>
