<?xml version="1.0" encoding="utf-8"?>
<!-- Generator: Adobe Illustrator 18.1.1, SVG Export Plug-In . SVG Version: 6.00 Build 0)  -->
<svg version="1.1" id="Layer_1" xmlns="http://www.w3.org/2000/svg" xmlns:xlink="http://www.w3.org/1999/xlink" x="0px" y="0px"
	 viewBox="0 0 51.4 51.4" enable-background="new 0 0 51.4 51.4" xml:space="preserve">
<g>
	<path d="M51.4,25.7c0,14.2-11.5,25.7-25.7,25.7S0,39.9,0,25.7C0,11.5,11.5,0,25.7,0S51.4,11.5,51.4,25.7z"/>
	<g>
		<path id="inner1" fill="#FFFFFF" d="M7.7,32.8c0,4,3.3,7.3,7.3,7.3c4,0,7.3-3.2,7.3-7.3c0-4-3.2-7.3-7.3-7.3C10.9,25.5,7.7,28.7,7.7,32.8z
			 M9.8,32.8c0-2.8,2.3-5.1,5.1-5.1c2.8,0,5.1,2.3,5.1,5.1c0,2.8-2.3,5.1-5.1,5.1C12.1,37.9,9.8,35.6,9.8,32.8z"/>
		<path id="inner2" fill="#FFFFFF" d="M29.2,32.8c0,4,3.3,7.3,7.3,7.3c4,0,7.3-3.2,7.3-7.3c0-4-3.3-7.3-7.3-7.3C32.4,25.5,29.2,28.7,29.2,32.8z
			 M31.3,32.8c0-2.8,2.3-5.1,5.1-5.1c2.8,0,5.1,2.3,5.1,5.1c0,2.8-2.3,5.1-5.1,5.1C33.6,37.9,31.4,35.6,31.3,32.8z"/>
		<path id="inner3" fill="#FFFFFF" d="M21.3,14c-1.4,0-2.6-1.2-2.6-2.6c0-1.4,1.2-2.6,2.6-2.6c1.4,0,2.6,1.2,2.6,2.6C23.9,12.8,22.8,14,21.3,14z
			"/>
		<path id="inner4" fill="#FFFFFF" d="M19.3,23.1L19.3,23.1c-0.7,0.7-1.7,0.7-2.3,0.1c-0.6-0.6-0.5-1.6,0.1-2.3l7.1-7.1l0,0
			c0.7-0.7,1.7-0.7,2.4,0h0l6.3,6.3c0.7,0.7,0.7,1.7,0,2.4l-5.8,5.8V34c0,0.9-0.7,1.7-1.5,1.7c-0.8,0-1.5-0.8-1.5-1.7v-6.9l4.3-4.3
			l-4.4-4.4L19.3,23.1z"/>
	</g>
</g>
<g>
</g>
<g>
</g>
<g>
</g>
<g>
</g>
<g>
</g>
<g>
</g>
<g>
</g>
<g>
</g>
<g>
</g>
<g>
</g>
<g>
</g>
<g>
</g>
<g>
</g>
<g>
</g>
<g>
</g>
</svg>
