<?xml version="1.0" encoding="utf-8"?>
<!-- Generator: Adobe Illustrator 18.1.1, SVG Export Plug-In . SVG Version: 6.00 Build 0)  -->
<svg version="1.1" id="Layer_1" xmlns="http://www.w3.org/2000/svg" xmlns:xlink="http://www.w3.org/1999/xlink" x="0px" y="0px"
	 viewBox="0 0 51.4 51.4" enable-background="new 0 0 51.4 51.4" xml:space="preserve">
<g>
	<path d="M51.4,25.7c0,14.2-11.5,25.7-25.7,25.7S0,39.9,0,25.7C0,11.5,11.5,0,25.7,0S51.4,11.5,51.4,25.7z"/>
	<g>
		<path id="inner1" fill="#FFFFFF" d="M43.3,18.5c-2.4,0-4.6-1-6.3-2.9c-0.2-0.2-0.4-0.5-0.6-0.7c-0.9-1.2-1.5-2.6-1.8-4.1c-0.3,1.5-1,3-1.8,4.1
			c-1.7,2.2-4.2,3.6-6.9,3.6c-2.4,0-4.6-1-6.3-2.9c-0.2-0.2-0.4-0.5-0.6-0.7c-0.9-1.2-1.5-2.6-1.8-4.1c-0.3,1.5-1,3-1.8,4.1
			c-1.7,2.2-4.2,3.6-6.9,3.6c-0.1,0-0.2,0-0.4,0v3.1c0.1,0,0.2,0,0.4,0c3.5,0,6.6-1.6,8.8-4.1c0,0.1,0.1,0.1,0.1,0.2
			c2.3,2.5,5.4,3.9,8.7,3.9c3.5,0,6.6-1.6,8.8-4.1c0.1,0.1,0.1,0.1,0.1,0.2c2.3,2.5,5.4,3.9,8.7,3.9c0.1,0,0.2,0,0.4,0v-3.2
			C43.5,18.5,43.4,18.5,43.3,18.5z"/>
		<path id="inner2" fill="#FFFFFF" d="M7.8,31.9c1.7,0.9,2.8,2.6,2.8,4.5v4.2h3.2v-4.2c0-2.8,2.3-5.1,5.1-5.1c2.8,0,5.1,2.3,5.1,5.1v4.2h3.2
			v-4.2c0-2.8,2.3-5.1,5.1-5.1c2.8,0,5.1,2.3,5.1,5.1v4.2h3.2v-4.2c0-2,1.1-3.7,2.8-4.5v-6.5H7.8V31.9z"/>
	</g>
</g>
<g>
</g>
<g>
</g>
<g>
</g>
<g>
</g>
<g>
</g>
<g>
</g>
<g>
</g>
<g>
</g>
<g>
</g>
<g>
</g>
<g>
</g>
<g>
</g>
<g>
</g>
<g>
</g>
<g>
</g>
</svg>
