<?xml version="1.0" encoding="utf-8"?>
<!-- Generator: Adobe Illustrator 18.1.1, SVG Export Plug-In . SVG Version: 6.00 Build 0)  -->
<svg version="1.1" id="Layer_1" xmlns="http://www.w3.org/2000/svg" xmlns:xlink="http://www.w3.org/1999/xlink" x="0px" y="0px"
	 viewBox="0 0 51.4 51.4" enable-background="new 0 0 51.4 51.4" xml:space="preserve">
<g>
	<path d="M51.4,25.7c0,14.2-11.5,25.7-25.7,25.7S0,39.9,0,25.7C0,11.5,11.5,0,25.7,0S51.4,11.5,51.4,25.7z"/>
	<g>
		<path id="inner" fill="#FFFFFF" d="M41.6,23.2c0.1,0,0.1,0,0.1,0l-3.1-3.1l-2.7-7.4c-0.3-0.8-1.2-1.4-1.9-1.4H17.4c-0.8,0-1.7,0.6-1.9,1.4
			l-2.7,7.4l-2.8,3c-0.6,0.2-1,0.7-1,1.3v9.2c0,0.8,0.7,1.5,1.4,1.5H12v2.7c0,1.2,1,2.2,2.2,2.2c1.2,0,2.2-1,2.2-2.2v-2.7H35v2.7
			c0,1.2,1,2.2,2.2,2.2c1.2,0,2.2-1,2.2-2.2v-2.7H41c0.8,0,1.4-0.7,1.4-1.5v-9.2C42.4,23.9,42.1,23.5,41.6,23.2z M14.7,21l2.1-5.9
			c0.3-0.7,1.1-1.4,1.9-1.4h14c0.8,0,1.7,0.6,1.9,1.4l2.1,5.9c0.3,0.8-0.2,1.4-1,1.4H15.6C14.8,22.4,14.4,21.7,14.7,21z M14.7,29.2
			c-1.3,0-2.3-1-2.3-2.3c0-1.3,1-2.3,2.3-2.3c1.3,0,2.3,1,2.3,2.3C17,28.2,16,29.2,14.7,29.2z M36.7,29.2c-1.3,0-2.3-1-2.3-2.3
			c0-1.3,1-2.3,2.3-2.3c1.3,0,2.3,1,2.3,2.3C39,28.2,38,29.2,36.7,29.2z"/>
	</g>
</g>
<g>
</g>
<g>
</g>
<g>
</g>
<g>
</g>
<g>
</g>
<g>
</g>
<g>
</g>
<g>
</g>
<g>
</g>
<g>
</g>
<g>
</g>
<g>
</g>
<g>
</g>
<g>
</g>
<g>
</g>
</svg>
