<?xml version="1.0" encoding="utf-8"?>
<!-- Generator: Adobe Illustrator 18.1.1, SVG Export Plug-In . SVG Version: 6.00 Build 0)  -->
<svg version="1.1" id="Layer_1" xmlns="http://www.w3.org/2000/svg" xmlns:xlink="http://www.w3.org/1999/xlink" x="0px" y="0px"
	 viewBox="0 0 51.4 51.4" enable-background="new 0 0 51.4 51.4" xml:space="preserve">
<g>
	<path d="M51.4,25.7c0,14.2-11.5,25.7-25.7,25.7S0,39.9,0,25.7C0,11.5,11.5,0,25.7,0S51.4,11.5,51.4,25.7z"/>
	<g>
		<path id="inner1" fill="#FFFFFF" d="M24.5,14.7L23,13.2c0,0-2.5,2.5-3.1,3.1c0-0.9,0-8.9,0-8.9h-2.2c0,0,0,8.1,0,8.9c-0.5-0.5-3.1-3.1-3.1-3.1
			l-1.5,1.5l5.7,5.7L24.5,14.7z"/>
		<path id="inner2" fill="#FFFFFF" d="M31.4,11.3c0,0.9,0,8.9,0,8.9h2.2c0,0,0-8.1,0-8.9c0.5,0.5,3.1,3.1,3.1,3.1l1.5-1.5l-5.7-5.7l-5.7,5.7
			l1.5,1.5C28.4,14.4,30.9,11.9,31.4,11.3z"/>
	</g>
	<path id="inner" fill="#FFFFFF" d="M13.5,22.8V42h24.5V22.8H13.5z M35.3,39.4c-0.4,0-18.9,0-19.3,0c0-0.4,0-13.7,0-14.1c0.4,0,18.9,0,19.3,0
		C35.3,25.8,35.3,39,35.3,39.4z"/>
</g>
<g>
</g>
<g>
</g>
<g>
</g>
<g>
</g>
<g>
</g>
<g>
</g>
<g>
</g>
<g>
</g>
<g>
</g>
<g>
</g>
<g>
</g>
<g>
</g>
<g>
</g>
<g>
</g>
<g>
</g>
</svg>
