<?xml version="1.0" encoding="utf-8"?>
<!-- Generator: Adobe Illustrator 18.1.1, SVG Export Plug-In . SVG Version: 6.00 Build 0)  -->
<svg version="1.1" id="Layer_1" xmlns="http://www.w3.org/2000/svg" xmlns:xlink="http://www.w3.org/1999/xlink" x="0px" y="0px"
	 viewBox="0 0 51.4 51.4" enable-background="new 0 0 51.4 51.4" xml:space="preserve">
<g>
	<path d="M51.4,25.7c0,14.2-11.5,25.7-25.7,25.7C11.5,51.4,0,39.9,0,25.7C0,11.5,11.5,0,25.7,0C39.9,0,51.4,11.5,51.4,25.7z"/>
	<path id="inner" fill="#FFFFFF" d="M43.8,23l-8.2-4.6v-5.1l8.1-3.2l-9.7-3.8v11.3l-7.6-4.2h0l-0.7-0.4L25,13.3l0,0L7.6,23
		c-0.7,0.4-0.9,1.2-0.5,1.8c0.3,0.4,0.7,0.6,1.2,0.6c0.2,0,0.5-0.1,0.7-0.2l3.3-1.8v17.2h9.4v-12h7.7v12H39V23.4l3.3,1.8
		c0.2,0.1,0.5,0.2,0.7,0.2c0.5,0,1-0.2,1.2-0.6C44.6,24.2,44.4,23.4,43.8,23z"/>
</g>
<g>
</g>
<g>
</g>
<g>
</g>
<g>
</g>
<g>
</g>
<g>
</g>
<g>
</g>
<g>
</g>
<g>
</g>
<g>
</g>
<g>
</g>
<g>
</g>
<g>
</g>
<g>
</g>
<g>
</g>
</svg>
