<?xml version="1.0" encoding="utf-8"?>
<!-- Generator: Adobe Illustrator 18.1.1, SVG Export Plug-In . SVG Version: 6.00 Build 0)  -->
<svg version="1.1" id="Layer_1" xmlns="http://www.w3.org/2000/svg" xmlns:xlink="http://www.w3.org/1999/xlink" x="0px" y="0px"
	 viewBox="0 0 51.4 51.4" enable-background="new 0 0 51.4 51.4" xml:space="preserve">
<g>
	<path d="M51.4,25.7c0,14.2-11.5,25.7-25.7,25.7S0,39.9,0,25.7C0,11.5,11.5,0,25.7,0S51.4,11.5,51.4,25.7z"/>
	<g>
		<path id="inner" fill="#FFFFFF" d="M15.6,41.7V11h11.6c2,0,3.6,0.1,4.7,0.3c1.5,0.3,2.8,0.7,3.8,1.4c1,0.7,1.8,1.7,2.5,3
			c0.6,1.3,0.9,2.7,0.9,4.2c0,2.6-0.8,4.8-2.5,6.6c-1.7,1.8-4.7,2.7-9,2.7h-7.9v12.5H15.6z M19.7,25.6h7.9c2.6,0,4.5-0.5,5.6-1.5
			c1.1-1,1.7-2.4,1.7-4.1c0-1.3-0.3-2.4-1-3.3c-0.7-0.9-1.5-1.5-2.6-1.8c-0.7-0.2-1.9-0.3-3.8-0.3h-7.9V25.6z"/>
	</g>
</g>
<g>
</g>
<g>
</g>
<g>
</g>
<g>
</g>
<g>
</g>
<g>
</g>
<g>
</g>
<g>
</g>
<g>
</g>
<g>
</g>
<g>
</g>
<g>
</g>
<g>
</g>
<g>
</g>
<g>
</g>
</svg>
