<?xml version="1.0" encoding="utf-8"?>
<!-- Generator: Adobe Illustrator 18.1.1, SVG Export Plug-In . SVG Version: 6.00 Build 0)  -->
<svg version="1.1" id="Layer_1" xmlns="http://www.w3.org/2000/svg" xmlns:xlink="http://www.w3.org/1999/xlink" x="0px" y="0px"
	 viewBox="0 0 51.4 51.4" enable-background="new 0 0 51.4 51.4" xml:space="preserve">
<g>
	<path d="M51.4,25.7c0,14.2-11.5,25.7-25.7,25.7C11.5,51.4,0,39.9,0,25.7C0,11.5,11.5,0,25.7,0C39.9,0,51.4,11.5,51.4,25.7z"/>
	<g>
		<polygon id="inner1" fill="#FFFFFF" points="12.5,31.8 14.9,31.8 16.2,43.3 18.5,43.3 19.7,31.8 22.2,31.8 22.2,17.6 12.5,17.6 		"/>
		<circle id="inner2" fill="#FFFFFF" cx="17.3" cy="12.9" r="3.1"/>
		<polygon id="inner3" fill="#FFFFFF" points="36.2,17.6 31.5,17.6 25.9,31.8 31.5,31.8 32.7,43.3 35,43.3 36.2,31.8 41.8,31.8 		"/>
		<circle id="inner4" fill="#FFFFFF" cx="33.9" cy="12.9" r="3.1"/>
	</g>
</g>
<g>
</g>
<g>
</g>
<g>
</g>
<g>
</g>
<g>
</g>
<g>
</g>
<g>
</g>
<g>
</g>
<g>
</g>
<g>
</g>
<g>
</g>
<g>
</g>
<g>
</g>
<g>
</g>
<g>
</g>
</svg>
