<?xml version="1.0" encoding="utf-8"?>
<!-- Generator: Adobe Illustrator 18.1.1, SVG Export Plug-In . SVG Version: 6.00 Build 0)  -->
<svg version="1.1" id="Layer_1" xmlns="http://www.w3.org/2000/svg" xmlns:xlink="http://www.w3.org/1999/xlink" x="0px" y="0px"
	 viewBox="0 0 51.4 51.4" enable-background="new 0 0 51.4 51.4" xml:space="preserve">
<g>
	<path d="M51.4,25.7c0,14.2-11.5,25.7-25.7,25.7S0,39.9,0,25.7C0,11.5,11.5,0,25.7,0S51.4,11.5,51.4,25.7z"/>
	<path id="inner" fill="#FFFFFF" d="M43.1,20c0-0.2-0.1-0.5-0.1-0.8c-0.2-0.6-0.5-1.3-0.9-1.7l-3.4-3.4c-0.4-0.4-1-0.7-1.6-0.9
		c-0.3-0.1-0.6-0.2-0.9-0.2H15.4c-0.3,0-0.7,0.1-1.1,0.2c-0.5,0.2-1.1,0.5-1.4,0.8l-3.6,3.6c-0.4,0.4-0.7,1-0.9,1.6
		c-0.1,0.3-0.2,0.6-0.2,0.9v16.2h8.4V25.2c0-1.2,0.7-2.8,1.5-3.6c0.8-0.8,2.4-1.5,3.6-1.5h8.2c1.2,0,2.7,0.6,3.5,1.4
		c0.8,0.8,1.4,2.4,1.4,3.5v11.3h8.4V20z"/>
</g>
<g>
</g>
<g>
</g>
<g>
</g>
<g>
</g>
<g>
</g>
<g>
</g>
<g>
</g>
<g>
</g>
<g>
</g>
<g>
</g>
<g>
</g>
<g>
</g>
<g>
</g>
<g>
</g>
<g>
</g>
</svg>
