<?xml version="1.0" encoding="utf-8"?>
<!-- Generator: Adobe Illustrator 18.1.1, SVG Export Plug-In . SVG Version: 6.00 Build 0)  -->
<svg version="1.1" id="Layer_1" xmlns="http://www.w3.org/2000/svg" xmlns:xlink="http://www.w3.org/1999/xlink" x="0px" y="0px"
	 viewBox="0 0 32.4 32.4" enable-background="new 0 0 32.4 32.4" xml:space="preserve">
<g>
	<path d="M0,16.2C0,7.2,7.2,0,16.2,0l0,0c8.9,0,16.2,7.2,16.2,16.2l0,0c0,8.9-7.2,16.2-16.2,16.2l0,0C7.2,32.4,0,25.1,0,16.2L0,16.2
		z M1,16.2c0,8.4,6.8,15.2,15.2,15.2l0,0c8.4,0,15.2-6.8,15.2-15.2l0,0C31.4,7.8,24.6,1,16.2,1l0,0C7.8,1,1,7.8,1,16.2L1,16.2z"/>
	<g>
		<polygon points="15.7,24.3 15.7,8.1 16.7,8.1 16.7,24.3 15.7,24.3 		"/>
		<polygon points="8.1,16.7 8.1,15.7 24.3,15.7 24.3,16.7 8.1,16.7 		"/>
	</g>
</g>
<g>
</g>
<g>
</g>
<g>
</g>
<g>
</g>
<g>
</g>
<g>
</g>
<g>
</g>
<g>
</g>
<g>
</g>
<g>
</g>
<g>
</g>
<g>
</g>
<g>
</g>
<g>
</g>
<g>
</g>
</svg>
