<?xml version="1.0" encoding="utf-8"?>
<!-- Generator: Adobe Illustrator 18.1.1, SVG Export Plug-In . SVG Version: 6.00 Build 0)  -->
<svg version="1.1" id="Layer_1" xmlns="http://www.w3.org/2000/svg" xmlns:xlink="http://www.w3.org/1999/xlink" x="0px" y="0px"
	 viewBox="0 0 40 43.8" enable-background="new 0 0 40 43.8" xml:space="preserve">
<path d="M20,41.7l-7.8,2.1V41l5.6-4.6c-0.7-3.7-1.1-8.3-1.1-10.1l0,0c0-0.2,0-0.5,0-0.8l0,0L0,30.8v-4.3l16.7-11.6
	c0-2.6,0-4.9,0-6.2l0,0c0-2.9,1.1-6.4,3-8.3l0,0L20,0l0.3,0.3c1.9,1.8,3,5.3,3,8.3l0,0c0,1.3,0,3.7,0,6.2l0,0L40,26.5v4.3l-16.7-5.3
	c0,0.3,0,0.6,0,0.8l0,0c0,1.8-0.4,6.4-1.1,10.1l0,0l5.6,4.6v2.8L20,41.7L20,41.7z M26.8,42.5v-1l-5.7-4.7l0.1-0.3
	c0.7-3.7,1.2-8.5,1.2-10.2l0,0c0-0.4,0-0.9,0-1.5l0,0v-0.7L39,29.4V27L22.3,15.4v-0.3c0-2.7,0-5.1,0-6.5l0,0c0-2.5-0.9-5.6-2.3-7.2
	l0,0c-1.4,1.6-2.4,4.7-2.3,7.2l0,0c0,1.4,0,3.8,0,6.5l0,0v0.3L1,27v2.4l16.7-5.3v0.7c0,0.6,0,1.1,0,1.5l0,0c0,1.7,0.4,6.5,1.2,10.2
	l0,0l0.1,0.3l-5.7,4.7v1l6.8-1.8L26.8,42.5L26.8,42.5z"/>
<g>
</g>
<g>
</g>
<g>
</g>
<g>
</g>
<g>
</g>
<g>
</g>
<g>
</g>
<g>
</g>
<g>
</g>
<g>
</g>
<g>
</g>
<g>
</g>
<g>
</g>
<g>
</g>
<g>
</g>
</svg>
