<?xml version="1.0" encoding="utf-8"?>
<!-- Generator: Adobe Illustrator 18.1.1, SVG Export Plug-In . SVG Version: 6.00 Build 0)  -->
<svg version="1.1" id="Layer_1" xmlns="http://www.w3.org/2000/svg" xmlns:xlink="http://www.w3.org/1999/xlink" x="0px" y="0px"
	 viewBox="0 0 45.8 45.8" enable-background="new 0 0 45.8 45.8" xml:space="preserve">
<g>
	<path d="M0,45.8V0h45.8v45.3v0.5H0L0,45.8z M45.3,45.3v-0.5V45.3L45.3,45.3z M1,44.8h43.8V1H1V44.8L1,44.8z"/>
	<g>
		<g>
			<g>
				<path d="M8.3,16.7V8.3h8.4v7.9v0.5H8.3L8.3,16.7z M16.2,16.2v-0.5V16.2L16.2,16.2z M9.3,15.7h6.4V9.3H9.3V15.7L9.3,15.7z"/>
				<path d="M29.1,37.5v-8.4h8.4V37v0.5H29.1L29.1,37.5z M37,37v-0.5V37L37,37z M30.1,36.5h6.4v-6.4h-6.4V36.5L30.1,36.5z"/>
			</g>
			<g>
				<path d="M8.3,37.5v-8.4h7.9v0.5v-0.5h0.5v8.4H8.3L8.3,37.5z M9.3,36.5h6.4v-6.4l-6.4,0V36.5L9.3,36.5z"/>
				<path d="M29.1,16.7V8.3H37v0.5V8.3h0.5v8.4H29.1L29.1,16.7z M30.1,15.7h6.4V9.3h-6.4V15.7L30.1,15.7z"/>
			</g>
		</g>
		<g>
			<path d="M18.7,37.5v-8.4h8.4V37v0.5H18.7L18.7,37.5z M26.6,37v-0.5V37L26.6,37z M19.7,36.5h6.4v-6.4h-6.4V36.5L19.7,36.5z"/>
			<path d="M18.7,16.7V8.3h7.9v0.5V8.3h0.5v8.4H18.7L18.7,16.7z M19.7,15.7h6.4V9.3h-6.4V15.7L19.7,15.7z"/>
		</g>
		<path d="M18.7,27.1v-8.4h7.9v0.5v-0.5h0.5v8.4H18.7L18.7,27.1z M19.7,26.1h6.4v-6.4h-6.4V26.1L19.7,26.1z"/>
		<g>
			<path d="M29.1,27.1v-8.4H37v0.5v-0.5h0.5v8.4H29.1L29.1,27.1z M30.1,26.1h6.4v-6.4h-6.4V26.1L30.1,26.1z"/>
			<path d="M8.3,27.1v-7.9v-0.5h8.4v8.4H8.3L8.3,27.1z M9.3,26.1h6.4v-6.4H9.3V26.1L9.3,26.1z"/>
		</g>
	</g>
</g>
<g>
</g>
<g>
</g>
<g>
</g>
<g>
</g>
<g>
</g>
<g>
</g>
<g>
</g>
<g>
</g>
<g>
</g>
<g>
</g>
<g>
</g>
<g>
</g>
<g>
</g>
<g>
</g>
<g>
</g>
</svg>
