<?xml version="1.0" encoding="utf-8"?>
<!-- Generator: Adobe Illustrator 18.1.1, SVG Export Plug-In . SVG Version: 6.00 Build 0)  -->
<svg version="1.1" id="Layer_1" xmlns="http://www.w3.org/2000/svg" xmlns:xlink="http://www.w3.org/1999/xlink" x="0px" y="0px"
	 viewBox="0 0 46 68.8" enable-background="new 0 0 46 68.8" xml:space="preserve">
<g>
	<g>
		<g>
			<g>
				<circle fill="#323333" cx="5.1" cy="9" r="0.7"/>
				<circle fill="#323333" cx="5.1" cy="12.6" r="0.7"/>
				<circle fill="#323333" cx="5.1" cy="16.3" r="0.7"/>
				<circle fill="#323333" cx="5.1" cy="19.9" r="0.7"/>
				<circle fill="#323333" cx="5.1" cy="23.5" r="0.7"/>
				<circle fill="#323333" cx="5.1" cy="27.2" r="0.7"/>
				<circle fill="#323333" cx="5.1" cy="30.8" r="0.7"/>
				<circle fill="#323333" cx="5.1" cy="34.4" r="0.7"/>
				<circle fill="#323333" cx="5.1" cy="38" r="0.7"/>
				<circle fill="#323333" cx="5.1" cy="41.7" r="0.7"/>
				<circle fill="#323333" cx="5.1" cy="45.3" r="0.7"/>
				<circle fill="#323333" cx="5.1" cy="48.9" r="0.7"/>
				<circle fill="#323333" cx="5.1" cy="52.6" r="0.7"/>
				<circle fill="#323333" cx="5.1" cy="56.2" r="0.7"/>
				<circle fill="#323333" cx="5.1" cy="59.8" r="0.7"/>
				<circle fill="#323333" cx="5.1" cy="63.4" r="0.7"/>
			</g>
			<g>
				<circle fill="#323333" cx="8.4" cy="10.8" r="0.7"/>
				<circle fill="#323333" cx="8.4" cy="14.5" r="0.7"/>
				<circle fill="#323333" cx="8.4" cy="18.1" r="0.7"/>
				<circle fill="#323333" cx="8.4" cy="21.7" r="0.7"/>
				<circle fill="#323333" cx="8.4" cy="25.3" r="0.7"/>
				<circle fill="#323333" cx="8.4" cy="29" r="0.7"/>
				<circle fill="#323333" cx="8.4" cy="32.6" r="0.7"/>
				<circle fill="#323333" cx="8.4" cy="36.2" r="0.7"/>
				<circle fill="#323333" cx="8.4" cy="39.9" r="0.7"/>
				<path fill="#323333" d="M8.4,42.8c-0.4,0-0.7,0.3-0.7,0.7c0,0.4,0.3,0.7,0.7,0.7c0.4,0,0.7-0.3,0.7-0.7
					C9.1,43.1,8.8,42.8,8.4,42.8z"/>
				<circle fill="#323333" cx="8.4" cy="47.1" r="0.7"/>
				<circle fill="#323333" cx="8.4" cy="50.7" r="0.7"/>
				<circle fill="#323333" cx="8.4" cy="54.4" r="0.7"/>
				<circle fill="#323333" cx="8.4" cy="58" r="0.7"/>
				<circle fill="#323333" cx="8.4" cy="61.6" r="0.7"/>
				<circle fill="#323333" cx="8.4" cy="65.2" r="0.7"/>
			</g>
			<g>
				<circle fill="#323333" cx="11.6" cy="9" r="0.7"/>
				<circle fill="#323333" cx="11.6" cy="12.6" r="0.7"/>
				<circle fill="#323333" cx="11.6" cy="16.3" r="0.7"/>
				<circle fill="#323333" cx="11.6" cy="19.9" r="0.7"/>
				<circle fill="#323333" cx="11.6" cy="23.5" r="0.7"/>
				<circle fill="#323333" cx="11.6" cy="27.2" r="0.7"/>
				<circle fill="#323333" cx="11.6" cy="30.8" r="0.7"/>
				<circle fill="#323333" cx="11.6" cy="34.4" r="0.7"/>
				<circle fill="#323333" cx="11.6" cy="38" r="0.7"/>
				<circle fill="#323333" cx="11.6" cy="41.7" r="0.7"/>
				<circle fill="#323333" cx="11.6" cy="45.3" r="0.7"/>
				<circle fill="#323333" cx="11.6" cy="48.9" r="0.7"/>
				<circle fill="#323333" cx="11.6" cy="52.6" r="0.7"/>
				<circle fill="#323333" cx="11.6" cy="56.2" r="0.7"/>
				<circle fill="#323333" cx="11.6" cy="59.8" r="0.7"/>
				<circle fill="#323333" cx="11.6" cy="63.4" r="0.7"/>
			</g>
			<g>
				<circle fill="#323333" cx="14.9" cy="10.8" r="0.7"/>
				<circle fill="#323333" cx="14.9" cy="14.5" r="0.7"/>
				<circle fill="#323333" cx="14.9" cy="18.1" r="0.7"/>
				<circle fill="#323333" cx="14.9" cy="21.7" r="0.7"/>
				<circle fill="#323333" cx="14.9" cy="25.3" r="0.7"/>
				<circle fill="#323333" cx="14.9" cy="29" r="0.7"/>
				<circle fill="#323333" cx="14.9" cy="32.6" r="0.7"/>
				<circle fill="#323333" cx="14.9" cy="36.2" r="0.7"/>
				<circle fill="#323333" cx="14.9" cy="39.9" r="0.7"/>
				<path fill="#323333" d="M14.9,42.8c-0.4,0-0.7,0.3-0.7,0.7c0,0.4,0.3,0.7,0.7,0.7c0.4,0,0.7-0.3,0.7-0.7
					C15.6,43.1,15.3,42.8,14.9,42.8z"/>
				<circle fill="#323333" cx="14.9" cy="47.1" r="0.7"/>
				<circle fill="#323333" cx="14.9" cy="50.7" r="0.7"/>
				<circle fill="#323333" cx="14.9" cy="54.4" r="0.7"/>
				<circle fill="#323333" cx="14.9" cy="58" r="0.7"/>
				<circle fill="#323333" cx="14.9" cy="61.6" r="0.7"/>
				<circle fill="#323333" cx="14.9" cy="65.2" r="0.7"/>
			</g>
			<g>
				<circle fill="#323333" cx="18.1" cy="9" r="0.7"/>
				<circle fill="#323333" cx="18.1" cy="12.6" r="0.7"/>
				<circle fill="#323333" cx="18.1" cy="16.3" r="0.7"/>
				<circle fill="#323333" cx="18.1" cy="19.9" r="0.7"/>
				<circle fill="#323333" cx="18.1" cy="23.5" r="0.7"/>
				<circle fill="#323333" cx="18.1" cy="27.2" r="0.7"/>
				<circle fill="#323333" cx="18.1" cy="30.8" r="0.7"/>
				<circle fill="#323333" cx="18.1" cy="34.4" r="0.7"/>
				<circle fill="#323333" cx="18.1" cy="38" r="0.7"/>
				<circle fill="#323333" cx="18.1" cy="41.7" r="0.7"/>
				<circle fill="#323333" cx="18.1" cy="45.3" r="0.7"/>
				<circle fill="#323333" cx="18.1" cy="48.9" r="0.7"/>
				<circle fill="#323333" cx="18.1" cy="52.6" r="0.7"/>
				<circle fill="#323333" cx="18.1" cy="56.2" r="0.7"/>
				<circle fill="#323333" cx="18.1" cy="59.8" r="0.7"/>
				<circle fill="#323333" cx="18.1" cy="63.4" r="0.7"/>
			</g>
			<g>
				<circle fill="#323333" cx="21.4" cy="10.8" r="0.7"/>
				<circle fill="#323333" cx="21.4" cy="14.5" r="0.7"/>
				<circle fill="#323333" cx="21.4" cy="18.1" r="0.7"/>
				<circle fill="#323333" cx="21.4" cy="21.7" r="0.7"/>
				<circle fill="#323333" cx="21.4" cy="25.3" r="0.7"/>
				<circle fill="#323333" cx="21.4" cy="29" r="0.7"/>
				<circle fill="#323333" cx="21.4" cy="32.6" r="0.7"/>
				<circle fill="#323333" cx="21.4" cy="36.2" r="0.7"/>
				<circle fill="#323333" cx="21.4" cy="39.9" r="0.7"/>
				<path fill="#323333" d="M21.4,42.8c-0.4,0-0.7,0.3-0.7,0.7c0,0.4,0.3,0.7,0.7,0.7c0.4,0,0.7-0.3,0.7-0.7
					C22.1,43.1,21.8,42.8,21.4,42.8z"/>
				<circle fill="#323333" cx="21.4" cy="47.1" r="0.7"/>
				<circle fill="#323333" cx="21.4" cy="50.7" r="0.7"/>
				<circle fill="#323333" cx="21.4" cy="54.4" r="0.7"/>
				<circle fill="#323333" cx="21.4" cy="58" r="0.7"/>
				<circle fill="#323333" cx="21.4" cy="61.6" r="0.7"/>
				<circle fill="#323333" cx="21.4" cy="65.2" r="0.7"/>
			</g>
			<g>
				<circle fill="#323333" cx="24.7" cy="9" r="0.7"/>
				<circle fill="#323333" cx="24.7" cy="12.6" r="0.7"/>
				<circle fill="#323333" cx="24.7" cy="16.3" r="0.7"/>
				<circle fill="#323333" cx="24.7" cy="19.9" r="0.7"/>
				<circle fill="#323333" cx="24.7" cy="23.5" r="0.7"/>
				<circle fill="#323333" cx="24.7" cy="27.2" r="0.7"/>
				<circle fill="#323333" cx="24.7" cy="30.8" r="0.7"/>
				<circle fill="#323333" cx="24.7" cy="34.4" r="0.7"/>
				<circle fill="#323333" cx="24.7" cy="38" r="0.7"/>
				<circle fill="#323333" cx="24.7" cy="41.7" r="0.7"/>
				<circle fill="#323333" cx="24.7" cy="45.3" r="0.7"/>
				<circle fill="#323333" cx="24.7" cy="48.9" r="0.7"/>
				<circle fill="#323333" cx="24.7" cy="52.6" r="0.7"/>
				<circle fill="#323333" cx="24.7" cy="56.2" r="0.7"/>
				<circle fill="#323333" cx="24.7" cy="59.8" r="0.7"/>
				<circle fill="#323333" cx="24.7" cy="63.4" r="0.7"/>
			</g>
			<g>
				<circle fill="#323333" cx="27.9" cy="10.8" r="0.7"/>
				<circle fill="#323333" cx="27.9" cy="14.5" r="0.7"/>
				<circle fill="#323333" cx="27.9" cy="18.1" r="0.7"/>
				<circle fill="#323333" cx="27.9" cy="21.7" r="0.7"/>
				<circle fill="#323333" cx="27.9" cy="25.3" r="0.7"/>
				<circle fill="#323333" cx="27.9" cy="29" r="0.7"/>
				<circle fill="#323333" cx="27.9" cy="32.6" r="0.7"/>
				<circle fill="#323333" cx="27.9" cy="36.2" r="0.7"/>
				<circle fill="#323333" cx="27.9" cy="39.9" r="0.7"/>
				<path fill="#323333" d="M27.9,42.8c-0.4,0-0.7,0.3-0.7,0.7c0,0.4,0.3,0.7,0.7,0.7c0.4,0,0.7-0.3,0.7-0.7
					C28.6,43.1,28.3,42.8,27.9,42.8z"/>
				<circle fill="#323333" cx="27.9" cy="47.1" r="0.7"/>
				<circle fill="#323333" cx="27.9" cy="50.7" r="0.7"/>
				<circle fill="#323333" cx="27.9" cy="54.4" r="0.7"/>
				<circle fill="#323333" cx="27.9" cy="58" r="0.7"/>
				<circle fill="#323333" cx="27.9" cy="61.6" r="0.7"/>
				<circle fill="#323333" cx="27.9" cy="65.2" r="0.7"/>
			</g>
			<g>
				<circle fill="#323333" cx="31.2" cy="9" r="0.7"/>
				<circle fill="#323333" cx="31.2" cy="12.6" r="0.7"/>
				<circle fill="#323333" cx="31.2" cy="16.3" r="0.7"/>
				<circle fill="#323333" cx="31.2" cy="19.9" r="0.7"/>
				<circle fill="#323333" cx="31.2" cy="23.5" r="0.7"/>
				<circle fill="#323333" cx="31.2" cy="27.2" r="0.7"/>
				<circle fill="#323333" cx="31.2" cy="30.8" r="0.7"/>
				<circle fill="#323333" cx="31.2" cy="34.4" r="0.7"/>
				<circle fill="#323333" cx="31.2" cy="38" r="0.7"/>
				<circle fill="#323333" cx="31.2" cy="41.7" r="0.7"/>
				<circle fill="#323333" cx="31.2" cy="45.3" r="0.7"/>
				<circle fill="#323333" cx="31.2" cy="48.9" r="0.7"/>
				<circle fill="#323333" cx="31.2" cy="52.6" r="0.7"/>
				<circle fill="#323333" cx="31.2" cy="56.2" r="0.7"/>
				<circle fill="#323333" cx="31.2" cy="59.8" r="0.7"/>
				<circle fill="#323333" cx="31.2" cy="63.4" r="0.7"/>
			</g>
			<g>
				<circle fill="#323333" cx="34.4" cy="10.8" r="0.7"/>
				<circle fill="#323333" cx="34.4" cy="14.5" r="0.7"/>
				<circle fill="#323333" cx="34.4" cy="18.1" r="0.7"/>
				<circle fill="#323333" cx="34.4" cy="21.7" r="0.7"/>
				<circle fill="#323333" cx="34.4" cy="25.3" r="0.7"/>
				<circle fill="#323333" cx="34.4" cy="29" r="0.7"/>
				<circle fill="#323333" cx="34.4" cy="32.6" r="0.7"/>
				<circle fill="#323333" cx="34.4" cy="36.2" r="0.7"/>
				<circle fill="#323333" cx="34.4" cy="39.9" r="0.7"/>
				<path fill="#323333" d="M34.4,42.8c-0.4,0-0.7,0.3-0.7,0.7c0,0.4,0.3,0.7,0.7,0.7c0.4,0,0.7-0.3,0.7-0.7
					C35.1,43.1,34.8,42.8,34.4,42.8z"/>
				<circle fill="#323333" cx="34.4" cy="47.1" r="0.7"/>
				<circle fill="#323333" cx="34.4" cy="50.7" r="0.7"/>
				<circle fill="#323333" cx="34.4" cy="54.4" r="0.7"/>
				<circle fill="#323333" cx="34.4" cy="58" r="0.7"/>
				<circle fill="#323333" cx="34.4" cy="61.6" r="0.7"/>
				<circle fill="#323333" cx="34.4" cy="65.2" r="0.7"/>
			</g>
			<g>
				<circle fill="#323333" cx="37.7" cy="9" r="0.7"/>
				<circle fill="#323333" cx="37.7" cy="12.6" r="0.7"/>
				<circle fill="#323333" cx="37.7" cy="16.3" r="0.7"/>
				<circle fill="#323333" cx="37.7" cy="19.9" r="0.7"/>
				<circle fill="#323333" cx="37.7" cy="23.5" r="0.7"/>
				<circle fill="#323333" cx="37.7" cy="27.2" r="0.7"/>
				<circle fill="#323333" cx="37.7" cy="30.8" r="0.7"/>
				<circle fill="#323333" cx="37.7" cy="34.4" r="0.7"/>
				<circle fill="#323333" cx="37.7" cy="38" r="0.7"/>
				<circle fill="#323333" cx="37.7" cy="41.7" r="0.7"/>
				<circle fill="#323333" cx="37.7" cy="45.3" r="0.7"/>
				<circle fill="#323333" cx="37.7" cy="48.9" r="0.7"/>
				<circle fill="#323333" cx="37.7" cy="52.6" r="0.7"/>
				<circle fill="#323333" cx="37.7" cy="56.2" r="0.7"/>
				<circle fill="#323333" cx="37.7" cy="59.8" r="0.7"/>
				<circle fill="#323333" cx="37.7" cy="63.4" r="0.7"/>
			</g>
			<g>
				<circle fill="#323333" cx="40.9" cy="10.8" r="0.7"/>
				<circle fill="#323333" cx="40.9" cy="14.5" r="0.7"/>
				<circle fill="#323333" cx="40.9" cy="18.1" r="0.7"/>
				<circle fill="#323333" cx="40.9" cy="21.7" r="0.7"/>
				<circle fill="#323333" cx="40.9" cy="25.3" r="0.7"/>
				<circle fill="#323333" cx="40.9" cy="29" r="0.7"/>
				<circle fill="#323333" cx="40.9" cy="32.6" r="0.7"/>
				<circle fill="#323333" cx="40.9" cy="36.2" r="0.7"/>
				<circle fill="#323333" cx="40.9" cy="39.9" r="0.7"/>
				<path fill="#323333" d="M40.9,42.8c-0.4,0-0.7,0.3-0.7,0.7c0,0.4,0.3,0.7,0.7,0.7c0.4,0,0.7-0.3,0.7-0.7
					C41.6,43.1,41.3,42.8,40.9,42.8z"/>
				<circle fill="#323333" cx="40.9" cy="47.1" r="0.7"/>
				<circle fill="#323333" cx="40.9" cy="50.7" r="0.7"/>
				<circle fill="#323333" cx="40.9" cy="54.4" r="0.7"/>
				<circle fill="#323333" cx="40.9" cy="58" r="0.7"/>
				<circle fill="#323333" cx="40.9" cy="61.6" r="0.7"/>
				<circle fill="#323333" cx="40.9" cy="65.2" r="0.7"/>
			</g>
		</g>
		<g>
			<path fill="#323333" d="M29.5,4.9V2.1c0-0.7-0.6-1.2-1.2-1.2l0,0H17.8c-0.7,0-1.2,0.6-1.2,1.2l0,0v2.8h-0.8V2.1
				c0-1.1,0.9-2.1,2.1-2.1l0,0h10.5c1.1,0,2.1,0.9,2.1,2.1l0,0v2.8h0H29.5L29.5,4.9z"/>
		</g>
		<path fill="#323333" d="M2.6,66.2v-15V36.6V22.1V7.5V7.1h40.8v15v14.6v14.6v15H2.6L2.6,66.2z M3.5,22.1v14.6v14.6v14.1h39.1V51.2
			V36.6V22.1V7.9H3.5V22.1L3.5,22.1z M3.1,7.9V7.5V7.9L3.1,7.9z"/>
		<path fill="#323333" d="M0,68.8V4.5h46v63.9v0.4H0L0,68.8z M45.6,68.4V68V68.4L45.6,68.4z M0.8,68h44.4V5.3H0.8V68L0.8,68z"/>
	</g>
</g>
<g>
</g>
<g>
</g>
<g>
</g>
<g>
</g>
<g>
</g>
<g>
</g>
<g>
</g>
<g>
</g>
<g>
</g>
<g>
</g>
<g>
</g>
<g>
</g>
<g>
</g>
<g>
</g>
<g>
</g>
</svg>
