<?xml version="1.0" encoding="utf-8"?>
<!-- Generator: Adobe Illustrator 18.1.1, SVG Export Plug-In . SVG Version: 6.00 Build 0)  -->
<svg version="1.1" id="Layer_1" xmlns="http://www.w3.org/2000/svg" xmlns:xlink="http://www.w3.org/1999/xlink" x="0px" y="0px"
	 viewBox="0 0 46 68.8" enable-background="new 0 0 46 68.8" xml:space="preserve">
<g>
	<g>
		<g>
			<g>
				<circle fill="#323333" cx="5.1" cy="52.6" r="0.7"/>
				<circle fill="#323333" cx="5.1" cy="56.2" r="0.7"/>
				<circle fill="#323333" cx="5.1" cy="59.8" r="0.7"/>
				<circle fill="#323333" cx="5.1" cy="63.4" r="0.7"/>
			</g>
			<g>
				<circle fill="#323333" cx="8.4" cy="54.4" r="0.7"/>
				<circle fill="#323333" cx="8.4" cy="58" r="0.7"/>
				<circle fill="#323333" cx="8.4" cy="61.6" r="0.7"/>
				<circle fill="#323333" cx="8.4" cy="65.2" r="0.7"/>
			</g>
			<g>
				<circle fill="#323333" cx="11.6" cy="52.6" r="0.7"/>
				<circle fill="#323333" cx="11.6" cy="56.2" r="0.7"/>
				<circle fill="#323333" cx="11.6" cy="59.8" r="0.7"/>
				<circle fill="#323333" cx="11.6" cy="63.4" r="0.7"/>
			</g>
			<g>
				<circle fill="#323333" cx="14.9" cy="54.4" r="0.7"/>
				<circle fill="#323333" cx="14.9" cy="58" r="0.7"/>
				<circle fill="#323333" cx="14.9" cy="61.6" r="0.7"/>
				<circle fill="#323333" cx="14.9" cy="65.2" r="0.7"/>
			</g>
			<g>
				<circle fill="#323333" cx="18.1" cy="52.6" r="0.7"/>
				<circle fill="#323333" cx="18.1" cy="56.2" r="0.7"/>
				<circle fill="#323333" cx="18.1" cy="59.8" r="0.7"/>
				<circle fill="#323333" cx="18.1" cy="63.4" r="0.7"/>
			</g>
			<g>
				<circle fill="#323333" cx="21.4" cy="54.4" r="0.7"/>
				<circle fill="#323333" cx="21.4" cy="58" r="0.7"/>
				<circle fill="#323333" cx="21.4" cy="61.6" r="0.7"/>
				<circle fill="#323333" cx="21.4" cy="65.2" r="0.7"/>
			</g>
			<g>
				<circle fill="#323333" cx="24.7" cy="52.6" r="0.7"/>
				<circle fill="#323333" cx="24.7" cy="56.2" r="0.7"/>
				<circle fill="#323333" cx="24.7" cy="59.8" r="0.7"/>
				<circle fill="#323333" cx="24.7" cy="63.4" r="0.7"/>
			</g>
			<g>
				<circle fill="#323333" cx="27.9" cy="54.4" r="0.7"/>
				<circle fill="#323333" cx="27.9" cy="58" r="0.7"/>
				<circle fill="#323333" cx="27.9" cy="61.6" r="0.7"/>
				<circle fill="#323333" cx="27.9" cy="65.2" r="0.7"/>
			</g>
			<g>
				<circle fill="#323333" cx="31.2" cy="52.6" r="0.7"/>
				<circle fill="#323333" cx="31.2" cy="56.2" r="0.7"/>
				<circle fill="#323333" cx="31.2" cy="59.8" r="0.7"/>
				<circle fill="#323333" cx="31.2" cy="63.4" r="0.7"/>
			</g>
			<g>
				<circle fill="#323333" cx="34.4" cy="54.4" r="0.7"/>
				<circle fill="#323333" cx="34.4" cy="58" r="0.7"/>
				<circle fill="#323333" cx="34.4" cy="61.6" r="0.7"/>
				<circle fill="#323333" cx="34.4" cy="65.2" r="0.7"/>
			</g>
			<g>
				<circle fill="#323333" cx="37.7" cy="52.6" r="0.7"/>
				<circle fill="#323333" cx="37.7" cy="56.2" r="0.7"/>
				<circle fill="#323333" cx="37.7" cy="59.8" r="0.7"/>
				<circle fill="#323333" cx="37.7" cy="63.4" r="0.7"/>
			</g>
			<g>
				<circle fill="#323333" cx="40.9" cy="54.4" r="0.7"/>
				<circle fill="#323333" cx="40.9" cy="58" r="0.7"/>
				<circle fill="#323333" cx="40.9" cy="61.6" r="0.7"/>
				<circle fill="#323333" cx="40.9" cy="65.2" r="0.7"/>
			</g>
		</g>
		<g>
			<path fill="#323333" d="M29.5,4.9V2.1c0-0.7-0.6-1.2-1.2-1.2l0,0H17.8c-0.7,0-1.2,0.6-1.2,1.2l0,0v2.8h-0.8V2.1
				c0-1.1,0.9-2.1,2.1-2.1l0,0h10.5c1.1,0,2.1,0.9,2.1,2.1l0,0v2.8H29.5L29.5,4.9z"/>
		</g>
		<path fill="#323333" d="M3.1,66.2H2.6V50.8h40.8v15.4H3.1L3.1,66.2z M3.5,65.3l39.1,0V51.6H3.5V65.3L3.5,65.3z"/>
		<path fill="#323333" d="M0,68.8V4.5h46v63.9v0.4H0L0,68.8z M45.6,68.4V68V68.4L45.6,68.4z M0.8,68h44.4V5.3H0.8V68L0.8,68z"/>
	</g>
</g>
<g>
</g>
<g>
</g>
<g>
</g>
<g>
</g>
<g>
</g>
<g>
</g>
<g>
</g>
<g>
</g>
<g>
</g>
<g>
</g>
<g>
</g>
<g>
</g>
<g>
</g>
<g>
</g>
<g>
</g>
</svg>
