<?xml version="1.0" encoding="utf-8"?>
<!-- Generator: Adobe Illustrator 18.1.1, SVG Export Plug-In . SVG Version: 6.00 Build 0)  -->
<svg version="1.1" id="Layer_1" xmlns="http://www.w3.org/2000/svg" xmlns:xlink="http://www.w3.org/1999/xlink" x="0px" y="0px"
	 viewBox="0 0 48.4 48.4" enable-background="new 0 0 48.4 48.4" xml:space="preserve">
<g>
	<g>
		<g>
			<circle cx="24.2" cy="11.7" r="0.5"/>
			<circle cx="24.2" cy="14.4" r="0.5"/>
			<circle cx="24.2" cy="17.2" r="0.5"/>
			<circle cx="24.2" cy="20" r="0.5"/>
			<circle cx="24.2" cy="22.8" r="0.5"/>
			<circle cx="24.2" cy="25.6" r="0.5"/>
			<circle cx="24.2" cy="28.4" r="0.5"/>
			<circle cx="24.2" cy="31.2" r="0.5"/>
			<circle cx="24.2" cy="33.9" r="0.5"/>
			<circle cx="24.2" cy="36.7" r="0.5"/>
		</g>
		<g>
			<circle cx="26.8" cy="13" r="0.5"/>
			<circle cx="26.8" cy="15.8" r="0.5"/>
			<circle cx="26.8" cy="18.6" r="0.5"/>
			<circle cx="26.8" cy="21.4" r="0.5"/>
			<circle cx="26.8" cy="24.2" r="0.5"/>
			<circle cx="26.8" cy="27" r="0.5"/>
			<circle cx="26.8" cy="29.8" r="0.5"/>
			<circle cx="26.8" cy="32.6" r="0.5"/>
			<circle cx="26.8" cy="35.3" r="0.5"/>
		</g>
		<g>
			<circle cx="29.5" cy="11.7" r="0.5"/>
			<circle cx="29.5" cy="14.4" r="0.5"/>
			<circle cx="29.5" cy="17.2" r="0.5"/>
			<circle cx="29.5" cy="20" r="0.5"/>
			<circle cx="29.5" cy="22.8" r="0.5"/>
			<circle cx="29.5" cy="25.6" r="0.5"/>
			<circle cx="29.5" cy="28.4" r="0.5"/>
			<circle cx="29.5" cy="31.2" r="0.5"/>
			<circle cx="29.5" cy="33.9" r="0.5"/>
			<circle cx="29.5" cy="36.7" r="0.5"/>
		</g>
		<g>
			<circle cx="32.1" cy="13" r="0.5"/>
			<circle cx="32.1" cy="15.8" r="0.5"/>
			<circle cx="32.1" cy="18.6" r="0.5"/>
			<circle cx="32.1" cy="21.4" r="0.5"/>
			<circle cx="32.1" cy="24.2" r="0.5"/>
			<circle cx="32.1" cy="27" r="0.5"/>
			<circle cx="32.1" cy="29.8" r="0.5"/>
			<circle cx="32.1" cy="32.6" r="0.5"/>
			<circle cx="32.1" cy="35.3" r="0.5"/>
		</g>
		<g>
			<circle cx="34.7" cy="17.2" r="0.5"/>
			<circle cx="34.7" cy="20" r="0.5"/>
			<circle cx="34.7" cy="22.8" r="0.5"/>
			<circle cx="34.7" cy="25.6" r="0.5"/>
			<circle cx="34.7" cy="28.4" r="0.5"/>
			<circle cx="34.7" cy="31.2" r="0.5"/>
		</g>
		<g>
			<circle cx="37.3" cy="21.4" r="0.5"/>
			<circle cx="37.3" cy="24.2" r="0.5"/>
			<circle cx="37.3" cy="27" r="0.5"/>
		</g>
	</g>
	<g>
		<path d="M9.9,24.2c0-7.9,6.4-14.3,14.3-14.3l0,0c7.9,0,14.3,6.4,14.3,14.3l0,0c0,7.9-6.4,14.3-14.3,14.3l0,0
			C16.3,38.5,9.9,32.1,9.9,24.2L9.9,24.2z M10.9,24.2c0,7.4,6,13.3,13.3,13.3l0,0c7.4,0,13.3-6,13.3-13.3l0,0
			c0-7.4-6-13.3-13.3-13.3l0,0C16.8,10.9,10.9,16.8,10.9,24.2L10.9,24.2z"/>
		<g>
			<polygon points="23.7,6.4 23.7,0 24.7,0 24.7,6.4 23.7,6.4 			"/>
			<polygon points="23.7,48.4 23.7,42.1 24.7,42.1 24.7,48.4 23.7,48.4 			"/>
		</g>
		<g>
			<polygon points="0,24.7 0,23.7 6.4,23.7 6.4,24.7 0,24.7 			"/>
			<polygon points="42.1,24.7 42.1,23.7 48.4,23.7 48.4,24.7 42.1,24.7 			"/>
		</g>
		<g>
			<polygon points="6.7,7.4 7.4,6.7 11.9,11.2 11.2,11.9 6.7,7.4 			"/>
			<polygon points="36.5,37.2 37.2,36.5 41.7,41 41,41.7 36.5,37.2 			"/>
		</g>
		<g>
			<polygon points="6.7,41 11.2,36.5 11.9,37.2 7.4,41.7 6.7,41 			"/>
			<polygon points="36.5,11.2 41,6.7 41.7,7.4 37.2,11.9 36.5,11.2 			"/>
		</g>
	</g>
</g>
<g>
</g>
<g>
</g>
<g>
</g>
<g>
</g>
<g>
</g>
<g>
</g>
<g>
</g>
<g>
</g>
<g>
</g>
<g>
</g>
<g>
</g>
<g>
</g>
<g>
</g>
<g>
</g>
<g>
</g>
</svg>
