<?xml version="1.0" encoding="utf-8"?>
<!-- Generator: Adobe Illustrator 18.1.1, SVG Export Plug-In . SVG Version: 6.00 Build 0)  -->
<svg version="1.1" id="Layer_1" xmlns="http://www.w3.org/2000/svg" xmlns:xlink="http://www.w3.org/1999/xlink" x="0px" y="0px"
	 viewBox="0 0 48.4 48.4" enable-background="new 0 0 48.4 48.4" xml:space="preserve">
<g>
	<g>
		<path d="M9.9,24.2c0-7.9,6.4-14.3,14.3-14.3l0,0c7.9,0,14.3,6.4,14.3,14.3l0,0c0,7.9-6.4,14.3-14.3,14.3l0,0
			C16.3,38.5,9.9,32.1,9.9,24.2L9.9,24.2z M10.9,24.2c0,7.4,6,13.3,13.3,13.3l0,0c7.4,0,13.3-6,13.3-13.3l0,0
			c0-7.4-6-13.3-13.3-13.3l0,0C16.8,10.9,10.9,16.8,10.9,24.2L10.9,24.2z"/>
		<g>
			<polygon points="23.7,6.4 23.7,0 24.7,0 24.7,6.4 23.7,6.4 			"/>
			<polygon points="23.7,48.4 23.7,42.1 24.7,42.1 24.7,48.4 23.7,48.4 			"/>
		</g>
		<g>
			<polygon points="0,24.7 0,23.7 6.4,23.7 6.4,24.7 0,24.7 			"/>
			<polygon points="42.1,24.7 42.1,23.7 48.4,23.7 48.4,24.7 42.1,24.7 			"/>
		</g>
		<g>
			<polygon points="6.7,7.4 7.4,6.7 11.9,11.2 11.2,11.9 6.7,7.4 			"/>
			<polygon points="36.5,37.2 37.2,36.5 41.7,41 41,41.7 36.5,37.2 			"/>
		</g>
		<g>
			<polygon points="6.7,41 11.2,36.5 11.9,37.2 7.4,41.7 6.7,41 			"/>
			<polygon points="36.5,11.2 41,6.7 41.7,7.4 37.2,11.9 36.5,11.2 			"/>
		</g>
	</g>
	<g>
		<polygon points="18.9,29.5 23.7,18.2 24.7,18.2 29.5,29.5 29.5,29.5 28.6,29.9 24.2,19.7 19.8,29.9 18.9,29.5 		"/>
		<polygon points="21.4,25.5 21.4,24.5 27,24.5 27,25.5 21.4,25.5 		"/>
	</g>
</g>
<g>
</g>
<g>
</g>
<g>
</g>
<g>
</g>
<g>
</g>
<g>
</g>
<g>
</g>
<g>
</g>
<g>
</g>
<g>
</g>
<g>
</g>
<g>
</g>
<g>
</g>
<g>
</g>
<g>
</g>
</svg>
