<?xml version="1.0" encoding="utf-8"?>
<!-- Generator: Adobe Illustrator 18.1.1, SVG Export Plug-In . SVG Version: 6.00 Build 0)  -->
<svg version="1.1" id="Layer_1" xmlns="http://www.w3.org/2000/svg" xmlns:xlink="http://www.w3.org/1999/xlink" x="0px" y="0px"
	 viewBox="0 0 45.8 45.8" enable-background="new 0 0 45.8 45.8" xml:space="preserve">
<g>
	<path d="M0,45.8V0h45.8v45.3v0.5H0L0,45.8z M45.3,45.3v-0.5V45.3L45.3,45.3z M1,44.8h43.8V1H1V44.8L1,44.8z"/>
	<g>
		<path d="M16.5,38.8v-0.5l0.4-0.4l-0.4,0.4V38.8h-0.2L7,29.5V16.3l9.3-9.3h13.1l9.3,9.3v13.1l-9.3,9.3H16.5L16.5,38.8z M29.1,37.8
			l8.7-8.7V16.8l-8.7-8.7H16.7L8,16.8v12.3l8.7,8.7H29.1L29.1,37.8z"/>
		<path d="M20,30.3v-0.5l0.4-0.4L20,29.8V30.3h-0.2L15.5,26v-6.1l4.3-4.3H26l4.3,4.3V26L26,30.3H20L20,30.3z M25.6,29.3l3.8-3.8
			v-5.3l-3.8-3.7h-5.3l-3.8,3.7v5.3l3.8,3.8H25.6L25.6,29.3z"/>
		<polygon points="25.2,29.9 26.2,29.5 29.6,37.7 28.7,38.1 25.2,29.9 		"/>
		<polygon points="16.2,8.1 17.2,7.7 20.5,15.9 19.6,16.3 16.2,8.1 		"/>
		<polygon points="29.5,26.2 29.9,25.3 38.1,28.7 37.7,29.6 29.5,26.2 		"/>
		<polygon points="7.7,17.2 8.1,16.2 16.2,19.6 15.8,20.5 7.7,17.2 		"/>
		<polygon points="16.2,37.7 19.6,29.5 20.6,29.9 17.2,38.1 16.2,37.7 		"/>
		<polygon points="25.2,16 28.7,7.7 29.6,8.1 26.2,16.3 25.2,16 		"/>
		<polygon points="7.7,28.7 15.9,25.3 16.3,26.2 8.1,29.6 7.7,28.7 		"/>
		<polygon points="29.4,19.7 37.7,16.2 38.1,17.2 29.8,20.6 29.4,19.7 		"/>
	</g>
</g>
<g>
</g>
<g>
</g>
<g>
</g>
<g>
</g>
<g>
</g>
<g>
</g>
<g>
</g>
<g>
</g>
<g>
</g>
<g>
</g>
<g>
</g>
<g>
</g>
<g>
</g>
<g>
</g>
<g>
</g>
</svg>
