<?xml version="1.0" encoding="utf-8"?>
<!-- Generator: Adobe Illustrator 18.1.1, SVG Export Plug-In . SVG Version: 6.00 Build 0)  -->
<svg version="1.1" id="Layer_1" xmlns="http://www.w3.org/2000/svg" xmlns:xlink="http://www.w3.org/1999/xlink" x="0px" y="0px"
	 viewBox="0 0 46.5 46.5" enable-background="new 0 0 46.5 46.5" xml:space="preserve">
<g>
	<path d="M0,23.2C0,10.4,10.4,0,23.2,0l0,0c12.8,0,23.2,10.4,23.2,23.2l0,0c0,12.8-10.4,23.2-23.2,23.2l0,0C10.4,46.5,0,36.1,0,23.2
		L0,23.2z M1,23.2c0,12.3,10,22.2,22.2,22.2l0,0c12.3,0,22.2-10,22.2-22.2l0,0C45.4,11,35.5,1,23.2,1l0,0C11,1,1,11,1,23.2L1,23.2z"
		/>
	<polygon points="22.7,23.5 22.7,5.9 22.7,5.9 23.7,5.9 23.7,23 34.8,31.4 34.2,32.2 22.7,23.5 	"/>
</g>
<g>
</g>
<g>
</g>
<g>
</g>
<g>
</g>
<g>
</g>
<g>
</g>
<g>
</g>
<g>
</g>
<g>
</g>
<g>
</g>
<g>
</g>
<g>
</g>
<g>
</g>
<g>
</g>
<g>
</g>
</svg>
