<?xml version="1.0" encoding="utf-8"?>
<!-- Generator: Adobe Illustrator 18.1.1, SVG Export Plug-In . SVG Version: 6.00 Build 0)  -->
<svg version="1.1" id="Layer_1" xmlns="http://www.w3.org/2000/svg" xmlns:xlink="http://www.w3.org/1999/xlink" x="0px" y="0px"
	 viewBox="0 0 41 8.8" enable-background="new 0 0 41 8.8" xml:space="preserve">
<g>
	<path d="M0,4.4C0,2,2,0,4.4,0l0,0c2.4,0,4.4,2,4.4,4.4l0,0c0,2.4-2,4.4-4.4,4.4l0,0C2,8.7,0,6.8,0,4.4L0,4.4z M1,4.4
		c0,1.9,1.5,3.4,3.4,3.4l0,0c1.9,0,3.4-1.5,3.4-3.4l0,0C7.7,2.5,6.2,1,4.4,1l0,0C2.5,1,1,2.5,1,4.4L1,4.4z"/>
	<path d="M16.1,4.4c0-2.4,2-4.4,4.4-4.4l0,0c2.4,0,4.4,2,4.4,4.4l0,0c0,2.4-2,4.4-4.4,4.4l0,0C18.1,8.8,16.1,6.8,16.1,4.4L16.1,4.4z
		 M17.1,4.4c0,1.9,1.5,3.4,3.4,3.4l0,0c1.9,0,3.4-1.5,3.4-3.4l0,0c0-1.9-1.5-3.4-3.4-3.4l0,0C18.6,1,17.1,2.5,17.1,4.4L17.1,4.4z"/>
	<path d="M32.2,4.4c0-2.4,2-4.4,4.4-4.4l0,0C39,0,41,2,41,4.4l0,0c0,2.4-2,4.4-4.4,4.4l0,0C34.2,8.7,32.2,6.8,32.2,4.4L32.2,4.4z
		 M33.2,4.4c0,1.9,1.5,3.4,3.4,3.4l0,0c1.9,0,3.4-1.5,3.4-3.4l0,0C40,2.5,38.5,1,36.6,1l0,0C34.8,1,33.3,2.5,33.2,4.4L33.2,4.4z"/>
</g>
<g>
</g>
<g>
</g>
<g>
</g>
<g>
</g>
<g>
</g>
<g>
</g>
<g>
</g>
<g>
</g>
<g>
</g>
<g>
</g>
<g>
</g>
<g>
</g>
<g>
</g>
<g>
</g>
<g>
</g>
</svg>
