<?xml version="1.0" encoding="utf-8"?>
<!-- Generator: Adobe Illustrator 18.1.1, SVG Export Plug-In . SVG Version: 6.00 Build 0)  -->
<svg version="1.1" id="Layer_1" xmlns="http://www.w3.org/2000/svg" xmlns:xlink="http://www.w3.org/1999/xlink" x="0px" y="0px"
	 viewBox="0 0 45.8 45.8" enable-background="new 0 0 45.8 45.8" xml:space="preserve">
<g>
	<g>
		<g>
			<path d="M3.3,36.8c0,0,0.2-1.5,0.5-3.1l0,0c0.4-1.6,0.8-3.3,1.9-3.9l0,0c1.2-0.5,4-2,6.2-3l0,0c0.3-0.6,0.7-0.8,0.7-1.2l0,0
				c0.2-0.5,0.6-0.7,0.9-0.8l0,0c0-0.5,0-0.8,0.1-1.3l0,0c-0.2-0.3-0.5-0.8-0.5-0.8l0,0c-0.4-0.6-0.8-1.3-1-2.5l0,0
				c-0.5-0.4-1-1.2-1.2-1.9l0,0c-0.1-0.2-0.1-0.5-0.1-0.7l0,0c0-0.7,0.3-1.3,0.8-1.6l0,0c0-0.3-0.1-0.6-0.1-0.9l0,0
				c-0.1-0.5-0.1-0.9-0.1-1.3l0,0c0-1.6,0.7-2.5,1.4-3.2l0,0c0.2-0.2,0.5-0.4,0.7-0.5l0,0c0.4-0.8,1-1.8,2.7-1.7l0,0
				c0.3,0,0.6,0,1,0.1l0,0c3.1,0.3,6.1,1.8,6.1,5.3l0,0c0,0.8-0.1,1.6-0.2,2.3l0,0c0.5,0.3,0.8,0.9,0.8,1.6l0,0c0,0.2,0,0.5-0.1,0.7
				l0,0c-0.3,0.8-0.7,1.5-1.2,1.9l0,0c-0.2,1.2-0.6,2-1,2.6l0,0c0,0-0.3,0.5-0.5,0.8l0,0c0,0.5,0,0.9,0.1,1.3l0,0
				c0.3,0.1,0.7,0.3,0.9,0.8l0,0c0.1,0.4,0.4,0.6,0.7,1.2l0,0c2.2,1.1,5,2.5,6.2,3l0,0c1.1,0.6,1.5,2.3,1.9,3.9l0,0
				c0.4,1.6,0.5,3.1,0.5,3.1l0,0v0l-1,0.1c0,0-0.2-1.5-0.5-3l0,0c-0.3-1.5-1-3.1-1.4-3.2l0,0c-1.2-0.6-4.2-2-6.4-3.1l0,0l-0.2-0.1
				l-0.1-0.2c-0.1-0.4-0.6-0.6-0.9-1.5l0,0c0,0-0.1,0-0.1-0.1l0,0c-0.1-0.1-0.3-0.1-0.4-0.1l0,0l-0.3-0.1l0-0.4
				C20,24.5,20,24.1,20,23.3l0,0v-0.2l0.1-0.1c0,0,0.4-0.7,0.6-0.9l0,0c0.3-0.4,0.6-1,0.8-2.3l0,0l0-0.3l0.2-0.1
				c0.1,0,0.8-0.9,0.9-1.5l0,0c0-0.1,0.1-0.3,0.1-0.4l0,0c0-0.5-0.3-0.8-0.5-0.9l0,0l-0.4-0.1l0.1-0.4c0.1-0.7,0.2-1.5,0.2-2.4l0,0
				c0-2.8-2.2-3.9-5.2-4.3l0,0c-0.4,0-0.7-0.1-0.9-0.1l0,0c-1.4,0.1-1.3,0.4-1.8,1.3l0,0l-0.1,0.1L14,10.8c-0.2,0.1-0.5,0.3-0.6,0.4
				l0,0l0,0c-0.7,0.8-1.1,1.3-1.1,2.6l0,0c0,0.3,0,0.7,0.1,1.1l0,0c0.1,0.5,0.1,0.9,0.2,1.3l0,0l0.1,0.4l-0.4,0.1
				c-0.2,0.1-0.5,0.4-0.5,0.9l0,0c0,0.1,0,0.2,0.1,0.4l0,0c0.2,0.6,0.9,1.5,0.9,1.5l0,0l0.2,0.1l0,0.3c0.2,1.3,0.5,1.9,0.8,2.3l0,0
				c0.2,0.2,0.6,0.9,0.6,1l0,0l0.1,0.1v0.2c0,0.7,0,1.2-0.1,1.9l0,0l0,0.3l-0.3,0.1c-0.2,0-0.4,0.1-0.5,0.2l0,0
				c-0.2,0.8-0.7,1.1-0.9,1.5l0,0l-0.1,0.2l-0.2,0.1c-2.2,1.1-5.1,2.5-6.4,3.1l0,0c-0.4,0.1-1.1,1.7-1.4,3.2l0,0
				c-0.3,1.5-0.5,3-0.5,3l0,0L3.3,36.8L3.3,36.8z"/>
		</g>
		<g>
			<path d="M41.1,34.4c-0.2-1.3-0.8-2.6-1-2.6l0,0c-1-0.4-3.3-1.6-5-2.4l0,0L35,29.3l-0.1-0.2c-0.1-0.2-0.5-0.5-0.7-1.1l0,0
				c0,0,0,0,0,0l0,0c-0.1,0-0.2-0.1-0.3-0.1l0,0l-0.3-0.1l0-0.4c-0.1-0.6-0.1-1-0.1-1.5l0,0v-0.2l0.1-0.1c0,0,0.3-0.5,0.5-0.7l0,0
				c0.2-0.3,0.4-0.8,0.6-1.8l0,0l0-0.3l0.2-0.1l0,0c0,0,0,0,0.1-0.1l0,0c0.1-0.1,0.1-0.2,0.2-0.3l0,0c0.2-0.2,0.3-0.5,0.4-0.7l0,0
				c0-0.1,0-0.2,0-0.3l0,0c0-0.3-0.2-0.5-0.3-0.6l0,0l-0.4-0.1l0.1-0.4c0.1-0.5,0.2-1.2,0.2-1.9l0,0c0-2.1-1.7-3-4-3.3l0,0
				c-0.3,0-0.5-0.1-0.7-0.1l0,0c-1.1,0.1-0.9,0.2-1.4,1l0,0l-0.1,0.1L29,16.2c-0.1,0.1-0.3,0.2-0.5,0.3l0,0c0,0,0,0,0,0l0,0
				c-0.5,0.6-0.8,1-0.9,1.9l0,0c0,0.2,0,0.5,0.1,0.9l0,0c0.1,0.4,0.1,0.7,0.2,1l0,0l0.1,0.4l-0.4,0.1c-0.1,0-0.3,0.2-0.3,0.6l0,0
				c0,0.1,0,0.2,0,0.3l0,0c0.1,0.3,0.4,0.8,0.6,1l0,0c0.1,0.1,0.1,0.1,0.1,0.1l0,0l0.2,0.1l0,0.3c0.2,1,0.4,1.5,0.6,1.7l0,0
				c0.2,0.2,0.5,0.7,0.5,0.7l0,0l0.1,0.1V26c0,0.6,0,0.9-0.1,1.5l0,0l0,0.4L29,27.9c-0.1,0-0.3,0.1-0.3,0.1l0,0
				c-0.2,0.7-0.6,0.9-0.7,1.1l0,0L28,29.3l-0.2,0.1c-0.3,0.1-0.6,0.3-0.8,0.4l0,0l-0.4-0.9c0.2-0.1,0.5-0.2,0.7-0.4l0,0
				c0.3-0.5,0.5-0.6,0.5-0.8l0,0c0.2-0.4,0.4-0.6,0.7-0.7l0,0c0-0.3,0-0.6,0-0.9l0,0c-0.2-0.2-0.4-0.6-0.4-0.6l0,0
				c-0.4-0.4-0.6-1.1-0.8-2l0,0c-0.4-0.4-0.7-0.9-1-1.5l0,0c-0.1-0.2-0.1-0.4-0.1-0.6l0,0c0-0.5,0.2-1,0.7-1.3l0,0
				c0-0.2-0.1-0.4-0.1-0.6l0,0c-0.1-0.4-0.1-0.7-0.1-1l0,0c0-1.3,0.5-2,1.1-2.6l0,0c0.2-0.2,0.4-0.3,0.5-0.4l0,0
				c0.3-0.6,0.9-1.4,2.2-1.4l0,0c0.2,0,0.5,0,0.8,0.1l0,0c2.4,0.3,4.9,1.5,4.9,4.3l0,0c0,0.6-0.1,1.2-0.1,1.7l0,0
				c0.4,0.3,0.6,0.8,0.6,1.3l0,0c0,0.2,0,0.4-0.1,0.6l0,0c-0.2,0.6-0.5,1.2-1,1.5l0,0c-0.2,0.9-0.4,1.6-0.8,2l0,0
				c0,0-0.2,0.3-0.4,0.6l0,0c0,0.3,0,0.6,0,0.9l0,0c0.2,0.1,0.5,0.2,0.7,0.7l0,0c0,0.3,0.3,0.4,0.5,0.8l0,0c1.7,0.8,3.9,1.9,4.8,2.4
				l0,0c1,0.6,1.2,2,1.6,3.3l0,0c0.3,1.3,0.4,2.6,0.4,2.6l0,0l-1,0.1C41.5,36.9,41.4,35.7,41.1,34.4L41.1,34.4z"/>
		</g>
	</g>
	<path d="M0,45.8V0h45.8v45.3v0.5H0L0,45.8z M45.3,45.3v-0.5V45.3L45.3,45.3z M1,44.8h43.8V1H1V44.8L1,44.8z"/>
</g>
<g>
</g>
<g>
</g>
<g>
</g>
<g>
</g>
<g>
</g>
<g>
</g>
<g>
</g>
<g>
</g>
<g>
</g>
<g>
</g>
<g>
</g>
<g>
</g>
<g>
</g>
<g>
</g>
<g>
</g>
</svg>
