<?xml version="1.0" encoding="utf-8"?>
<!-- Generator: Adobe Illustrator 18.1.1, SVG Export Plug-In . SVG Version: 6.00 Build 0)  -->
<svg version="1.1" id="Layer_1" xmlns="http://www.w3.org/2000/svg" xmlns:xlink="http://www.w3.org/1999/xlink" x="0px" y="0px"
	 viewBox="0 0 45.8 45.8" enable-background="new 0 0 45.8 45.8" xml:space="preserve">
<g>
	<path d="M22.9,29.9L14,35.5l2.6-10.2l-8.1-6.7L19,18l3.4-8.6l0.5-1.2l3.9,9.7l10.5,0.7l-8.1,6.7l2.6,10.2L22.9,29.9L22.9,29.9z
		 M30.2,33.4L28,25l6.6-5.5L26.1,19l-3.2-8l-3.2,8l-8.6,0.6l6.6,5.5l-2.1,8.3l7.3-4.6L30.2,33.4L30.2,33.4z"/>
	<path d="M0,45.8V0h45.8v45.3v0.5H0L0,45.8z M45.3,45.3v-0.5V45.3L45.3,45.3z M1,44.8h43.8V1H1V44.8L1,44.8z"/>
</g>
<g>
</g>
<g>
</g>
<g>
</g>
<g>
</g>
<g>
</g>
<g>
</g>
<g>
</g>
<g>
</g>
<g>
</g>
<g>
</g>
<g>
</g>
<g>
</g>
<g>
</g>
<g>
</g>
<g>
</g>
</svg>
