<?xml version="1.0" encoding="utf-8"?>
<!-- Generator: Adobe Illustrator 18.1.1, SVG Export Plug-In . SVG Version: 6.00 Build 0)  -->
<svg version="1.1" id="Layer_1" xmlns="http://www.w3.org/2000/svg" xmlns:xlink="http://www.w3.org/1999/xlink" x="0px" y="0px"
	 viewBox="0 0 45.8 45.8" enable-background="new 0 0 45.8 45.8" xml:space="preserve">
<g>
	<path d="M0,45.8V0h45.8v45.3v0.5H0L0,45.8z M45.3,45.3v-0.5V45.3L45.3,45.3z M1,44.8h43.8V1H1V44.8L1,44.8z"/>
	<g>
		<g>
			<polygon points="7.2,33.5 16.2,11.2 17.2,11.2 26.2,33.5 26.2,33.5 25.3,33.9 16.7,12.8 8.1,33.9 7.2,33.5 			"/>
			<polygon points="11.5,25.4 11.5,24.4 21.9,24.4 21.9,25.4 11.5,25.4 			"/>
		</g>
		<g>
			<path d="M35.9,29.8c0-1.2,0-3.5,0-4.7l0,0c0-1.5-1.6-2.9-3.8-2.9l0,0c-2.2,0-3.8,1.4-3.8,2.9l0,0h-1c0-2.2,2.2-3.9,4.8-3.9l0,0
				c2.6,0,4.8,1.6,4.8,3.9l0,0c0,1.2,0,3.5,0,4.7l0,0c0,1.5,0.4,2.5,1.3,2.6l0,0l-0.2,1C36.4,33.1,35.9,31.4,35.9,29.8L35.9,29.8z"
				/>
			<path d="M26.9,30.1C26.9,30.1,26.9,30.1,26.9,30.1L26.9,30.1c0.1-2.2,2.4-3.7,5-3.7l0,0c1.7,0,3.4-0.2,3.9-0.5l0,0
				c0.2-0.1,0.2-0.2,0.2-0.2l0,0h0h1c0,0.9-0.9,1.3-1.8,1.5l0,0c-0.9,0.2-2.1,0.3-3.3,0.3l0,0c-2.3,0-4,1.3-4,2.7l0,0
				c0,1.4,1.6,2.6,3.6,2.6l0,0c0.2,0,0.3,0,0.5,0l0,0c2.5-0.2,3.9-1.8,3.9-3.2l0,0h1c0,2.1-1.9,3.9-4.8,4.2l0,0c-0.2,0-0.4,0-0.6,0
				l0,0C29.1,33.7,26.9,32.3,26.9,30.1L26.9,30.1z M26.9,30.1C26.9,30.1,26.9,30.1,26.9,30.1L26.9,30.1z"/>
		</g>
	</g>
</g>
<g>
</g>
<g>
</g>
<g>
</g>
<g>
</g>
<g>
</g>
<g>
</g>
<g>
</g>
<g>
</g>
<g>
</g>
<g>
</g>
<g>
</g>
<g>
</g>
<g>
</g>
<g>
</g>
<g>
</g>
</svg>
