<?xml version="1.0" encoding="utf-8"?>
<!-- Generator: Adobe Illustrator 18.1.1, SVG Export Plug-In . SVG Version: 6.00 Build 0)  -->
<svg version="1.1" id="Layer_1" xmlns="http://www.w3.org/2000/svg" xmlns:xlink="http://www.w3.org/1999/xlink" x="0px" y="0px"
	 viewBox="0 0 48.2 48.2" enable-background="new 0 0 48.2 48.2" xml:space="preserve">
<g>
	<g>
		<path d="M7,24.1C7,14.7,14.7,7,24.1,7l0,0c9.5,0,17.1,7.7,17.1,17.1l0,0c0,9.5-7.7,17.1-17.1,17.1l0,0C14.7,41.3,7,33.6,7,24.1
			L7,24.1z M8,24.1c0,8.9,7.2,16.1,16.1,16.1l0,0c8.9,0,16.1-7.2,16.1-16.1l0,0C40.2,15.2,33,8,24.1,8l0,0C15.2,8,8,15.2,8,24.1
			L8,24.1z"/>
		<g>
			<polygon points="23.6,7.4 23.6,0 24.6,0 24.6,7.4 23.6,7.4 			"/>
			<polygon points="23.6,48.2 23.6,40.8 24.6,40.8 24.6,48.2 23.6,48.2 			"/>
		</g>
		<g>
			<polygon points="0,24.6 0,23.6 7.4,23.6 7.4,24.6 0,24.6 			"/>
			<polygon points="40.8,24.6 40.8,23.6 48.2,23.6 48.2,24.6 40.8,24.6 			"/>
		</g>
	</g>
	<circle cx="24.1" cy="24.1" r="1.5"/>
</g>
<g>
</g>
<g>
</g>
<g>
</g>
<g>
</g>
<g>
</g>
<g>
</g>
<g>
</g>
<g>
</g>
<g>
</g>
<g>
</g>
<g>
</g>
<g>
</g>
<g>
</g>
<g>
</g>
<g>
</g>
</svg>
