<?xml version="1.0" encoding="utf-8"?>
<!-- Generator: Adobe Illustrator 18.1.1, SVG Export Plug-In . SVG Version: 6.00 Build 0)  -->
<svg version="1.1" id="Layer_1" xmlns="http://www.w3.org/2000/svg" xmlns:xlink="http://www.w3.org/1999/xlink" x="0px" y="0px"
	 viewBox="0 0 42.5 42.5" enable-background="new 0 0 42.5 42.5" xml:space="preserve">
<g>
	<path d="M0,21.3C0,9.5,9.5,0,21.2,0l0,0C33,0,42.5,9.5,42.5,21.3l0,0c0,11.7-9.5,21.2-21.3,21.2l0,0C9.5,42.5,0,33,0,21.3L0,21.3z
		 M1,21.3c0,11.2,9.1,20.2,20.2,20.2l0,0c11.2,0,20.2-9.1,20.3-20.2l0,0C41.5,10.1,32.4,1,21.2,1l0,0C10.1,1,1,10.1,1,21.3L1,21.3z"
		/>
	<g>
		<path d="M8.1,26.2C8.1,26.2,8,26.2,8.1,26.2L8.1,26.2c-0.3-0.3-0.4-0.4-0.6-0.6l0,0c-1-1.2-1.6-2.8-1.6-4.3l0,0
			c0-1.6,0.5-3.1,1.6-4.4l0,0c0.1-0.1,0.1-0.2,0.2-0.3l0,0c0.1-0.1,0.2-0.2,0.2-0.2l0,0c1.3-1.2,3-1.8,4.6-1.8l0,0
			c1.6,0,3.3,0.6,4.6,1.8l0,0c0,0,0,0,0.1,0.1l0,0c0.2,0.2,0.4,0.4,0.5,0.5l0,0l3.8,4v0l-0.7,0.7l-3.9-4c-0.1-0.2-0.3-0.3-0.4-0.5
			l0,0c0,0,0,0-0.1-0.1l0,0c-1.1-1-2.5-1.5-3.9-1.5l0,0c-1.4,0-2.8,0.5-3.9,1.6l0,0c-0.1,0.1-0.2,0.1-0.2,0.2l0,0
			c0,0.1-0.1,0.1-0.2,0.2l0,0c-0.9,1.1-1.4,2.4-1.4,3.8l0,0c0,1.3,0.4,2.6,1.3,3.7l0,0c0.1,0.2,0.3,0.3,0.4,0.5l0,0c0,0,0,0,0.1,0.1
			l0,0c1.1,1,2.5,1.5,3.9,1.5l0,0c1.4,0,2.8-0.5,3.9-1.6l0,0c0.1-0.1,0.2-0.1,0.2-0.2l0,0c0-0.1,0.1-0.1,0.2-0.2l0,0l2.5-2.6
			l0.7,0.7l-2.5,2.6c-0.1,0.1-0.1,0.2-0.2,0.3l0,0c-0.1,0.1-0.2,0.2-0.2,0.2l0,0c-1.3,1.2-3,1.8-4.6,1.8l0,0
			C11,28,9.3,27.4,8.1,26.2L8.1,26.2z"/>
		<path d="M25.3,26.2C25.3,26.2,25.3,26.2,25.3,26.2L25.3,26.2c-0.3-0.2-0.4-0.4-0.6-0.6l0,0l-3.8-4l0.7-0.7l3.9,4
			c0.1,0.2,0.3,0.3,0.4,0.5l0,0c0,0,0,0,0.1,0.1l0,0c1.1,1,2.5,1.5,3.9,1.5l0,0c1.4,0,2.8-0.5,4-1.6l0,0c0.1-0.1,0.2-0.1,0.2-0.2
			l0,0c0.1,0,0.1-0.1,0.2-0.2l0,0c0.9-1.1,1.4-2.4,1.4-3.8l0,0c0-1.3-0.4-2.6-1.3-3.7l0,0c-0.1-0.2-0.3-0.3-0.4-0.5l0,0
			c0,0,0,0-0.1-0.1l0,0c-1.1-1-2.5-1.5-3.9-1.5l0,0c-1.4,0-2.8,0.5-3.9,1.6l0,0c-0.1,0.1-0.2,0.1-0.2,0.2l0,0c0,0.1-0.1,0.1-0.2,0.2
			l0,0L23,20.1l-0.7-0.7l2.5-2.6c0.1-0.1,0.1-0.2,0.2-0.3l0,0c0.1-0.1,0.2-0.2,0.2-0.2l0,0c1.3-1.2,3-1.8,4.6-1.8l0,0
			c1.6,0,3.3,0.6,4.6,1.8l0,0c0,0,0,0,0.1,0.1l0,0c0.2,0.2,0.4,0.4,0.5,0.5l0,0c1,1.2,1.6,2.8,1.6,4.3l0,0c0,1.6-0.5,3.1-1.6,4.4
			l0,0c-0.1,0.1-0.1,0.2-0.2,0.3l0,0c-0.1,0.1-0.2,0.2-0.2,0.2l0,0c-1.3,1.2-3,1.8-4.6,1.8l0,0C28.2,28,26.6,27.4,25.3,26.2
			L25.3,26.2z"/>
	</g>
</g>
<g>
</g>
<g>
</g>
<g>
</g>
<g>
</g>
<g>
</g>
<g>
</g>
<g>
</g>
<g>
</g>
<g>
</g>
<g>
</g>
<g>
</g>
<g>
</g>
<g>
</g>
<g>
</g>
<g>
</g>
</svg>
