<?xml version="1.0" encoding="utf-8"?>
<!-- Generator: Adobe Illustrator 18.1.1, SVG Export Plug-In . SVG Version: 6.00 Build 0)  -->
<svg version="1.1" id="Layer_1" xmlns="http://www.w3.org/2000/svg" xmlns:xlink="http://www.w3.org/1999/xlink" x="0px" y="0px"
	 viewBox="0 0 33.1 43.5" enable-background="new 0 0 33.1 43.5" xml:space="preserve">
<g>
	<polygon points="23.8,43.5 23.8,34.6 29.8,20 29.8,13.6 3.4,13.6 3.4,20 9.3,34.6 9.3,43.5 8.3,43.5 8.3,34.8 2.4,20.2 2.4,12.6 
		30.8,12.6 30.8,20.2 24.8,34.8 24.8,43.5 24.8,43.5 23.8,43.5 	"/>
	<polygon points="6.2,20.6 6.2,19.6 30.3,19.6 30.3,20.6 6.2,20.6 	"/>
	<polygon points="13.3,35.1 13.3,34.1 24.4,34.1 24.4,35.1 13.3,35.1 	"/>
	<g>
		<polygon points="0,1.2 0.9,0.8 5.9,10.2 5,10.6 0,1.2 		"/>
		<polygon points="27.2,10.2 32.2,0.8 33.1,1.2 28.1,10.6 27.2,10.2 		"/>
	</g>
	<polygon points="16.1,10.4 16.1,0 17.1,0 17.1,10.4 16.1,10.4 	"/>
</g>
<g>
</g>
<g>
</g>
<g>
</g>
<g>
</g>
<g>
</g>
<g>
</g>
<g>
</g>
<g>
</g>
<g>
</g>
<g>
</g>
<g>
</g>
<g>
</g>
<g>
</g>
<g>
</g>
<g>
</g>
</svg>
