<?xml version="1.0" encoding="utf-8"?>
<!-- Generator: Adobe Illustrator 18.1.1, SVG Export Plug-In . SVG Version: 6.00 Build 0)  -->
<svg version="1.1" id="Layer_1" xmlns="http://www.w3.org/2000/svg" xmlns:xlink="http://www.w3.org/1999/xlink" x="0px" y="0px"
	 viewBox="0 0 28.7 38.7" enable-background="new 0 0 28.7 38.7" xml:space="preserve">
<g>
	<path d="M0,38.7V14.6h28.7v23.6v0.5H0L0,38.7z M28.2,38.2v-0.5V38.2L28.2,38.2z M1,37.7h26.7V15.6H1V37.7L1,37.7z"/>
	<path d="M23.8,15c0,0,0-1,0-4.6l0,0c0-5.2-4.2-9.4-9.4-9.4l0,0c-5.2,0-9.4,4.2-9.4,9.4l0,0c0,3.5,0,4.6,0,4.6l0,0h-1c0,0,0-1,0-4.6
		l0,0C3.9,4.7,8.6,0,14.4,0l0,0c5.8,0,10.4,4.7,10.4,10.4l0,0c0,3.5,0,4.6,0,4.6l0,0H23.8L23.8,15z"/>
	<path d="M11.1,24.7c0-1.8,1.5-3.3,3.3-3.3l0,0c1.8,0,3.3,1.5,3.3,3.3l0,0h0c0,1.8-1.5,3.3-3.3,3.3l0,0C12.5,28,11.1,26.5,11.1,24.7
		L11.1,24.7z M12.1,24.7c0,1.3,1,2.3,2.3,2.3l0,0c1.3,0,2.3-1,2.3-2.3l0,0c0-1.3-1-2.3-2.3-2.3l0,0C13.1,22.4,12.1,23.4,12.1,24.7
		L12.1,24.7z"/>
	<polygon points="13.9,32.8 13.9,27.5 14.9,27.5 14.9,32.8 13.9,32.8 	"/>
</g>
<g>
</g>
<g>
</g>
<g>
</g>
<g>
</g>
<g>
</g>
<g>
</g>
<g>
</g>
<g>
</g>
<g>
</g>
<g>
</g>
<g>
</g>
<g>
</g>
<g>
</g>
<g>
</g>
<g>
</g>
</svg>
