<?xml version="1.0" encoding="utf-8"?>
<!-- Generator: Adobe Illustrator 18.1.1, SVG Export Plug-In . SVG Version: 6.00 Build 0)  -->
<svg version="1.1" id="Layer_1" xmlns="http://www.w3.org/2000/svg" xmlns:xlink="http://www.w3.org/1999/xlink" x="0px" y="0px"
	 viewBox="0 0 55.4 49" enable-background="new 0 0 55.4 49" xml:space="preserve">
<g>
	<path d="M6.5,49l0-26.8H0L27.7,0l26.6,21.3L54,21.7v-0.5v0.5l0.3-0.4l1.1,0.9l-6.4,0V49H6.5L6.5,49z M2.8,21.2h4.6V48h40.5V21.2
		h4.6L27.7,1.3L2.8,21.2L2.8,21.2z"/>
	<g>
		<path d="M16.9,41.8V23.7h21.5v17.6v0.5H16.9L16.9,41.8z M38,41.3v-0.5V41.3L38,41.3z M17.9,40.8h19.5l0-16.1H17.9V40.8L17.9,40.8z
			"/>
		<path d="M34.6,24.1c0,0,0-0.8,0-3.4l0,0c0-3.8-3.1-6.9-6.9-6.9l0,0c-3.8,0-6.9,3.1-6.9,6.9l0,0c0,2.6,0,3.4,0,3.4v0h-1
			c0,0,0-0.8,0-3.4l0,0c0-4.3,3.5-7.9,7.9-7.9l0,0c4.3,0,7.9,3.5,7.9,7.9l0,0c0,2.6,0,3.4,0,3.4v0H34.6L34.6,24.1z"/>
		<path d="M25.1,31.3c0-1.4,1.2-2.6,2.6-2.6l0,0c1.4,0,2.6,1.2,2.6,2.6l0,0c0,1.4-1.2,2.6-2.6,2.6l0,0
			C26.3,33.8,25.1,32.7,25.1,31.3L25.1,31.3z M26.1,31.3c0,0.9,0.7,1.6,1.6,1.6l0,0c0.9,0,1.6-0.7,1.6-1.6l0,0
			c0-0.9-0.7-1.6-1.6-1.6l0,0C26.8,29.7,26.1,30.4,26.1,31.3L26.1,31.3z"/>
		<polygon points="27.2,37.3 27.2,33.3 28.2,33.3 28.2,37.3 27.2,37.3 		"/>
	</g>
</g>
<g>
</g>
<g>
</g>
<g>
</g>
<g>
</g>
<g>
</g>
<g>
</g>
<g>
</g>
<g>
</g>
<g>
</g>
<g>
</g>
<g>
</g>
<g>
</g>
<g>
</g>
<g>
</g>
<g>
</g>
</svg>
