<?xml version="1.0" encoding="utf-8"?>
<!-- Generator: Adobe Illustrator 18.1.1, SVG Export Plug-In . SVG Version: 6.00 Build 0)  -->
<svg version="1.1" id="Layer_1" xmlns="http://www.w3.org/2000/svg" xmlns:xlink="http://www.w3.org/1999/xlink" x="0px" y="0px"
	 viewBox="0 0 40.4 34.3" enable-background="new 0 0 40.4 34.3" xml:space="preserve">
<g>
	<polygon points="0,10.2 0.9,9.8 4.1,17.4 3.2,17.8 0,10.2 	"/>
	<polygon points="36.3,16.9 37.2,16.5 40.4,24 39.5,24.4 36.3,16.9 	"/>
	<path d="M3.1,17.1c0-2.1,0.4-4.1,1.1-5.9l0,0C6.5,4.7,12.8,0,20.2,0l0,0c7.4,0,13.7,4.7,16.1,11.2l0,0l-0.9,0.3
		C33,5.4,27.1,1,20.2,1l0,0C13.2,1,7.3,5.4,5.1,11.6l0,0c-0.6,1.7-1,3.6-1,5.6l0,0H3.1L3.1,17.1z"/>
	<path d="M4.1,23.1l0.9-0.3c2.3,6.2,8.2,10.6,15.1,10.6l0,0c6.9,0,12.9-4.4,15.1-10.6l0,0c0.6-1.7,1-3.6,1-5.6l0,0h1
		c0,2.1-0.4,4.1-1.1,5.9l0,0c-2.4,6.5-8.7,11.2-16.1,11.2l0,0C12.8,34.3,6.5,29.6,4.1,23.1L4.1,23.1z"/>
</g>
<g>
</g>
<g>
</g>
<g>
</g>
<g>
</g>
<g>
</g>
<g>
</g>
<g>
</g>
<g>
</g>
<g>
</g>
<g>
</g>
<g>
</g>
<g>
</g>
<g>
</g>
<g>
</g>
<g>
</g>
</svg>
