<?xml version="1.0" encoding="utf-8"?>
<!-- Generator: Adobe Illustrator 18.1.1, SVG Export Plug-In . SVG Version: 6.00 Build 0)  -->
<svg version="1.1" id="Layer_1" xmlns="http://www.w3.org/2000/svg" xmlns:xlink="http://www.w3.org/1999/xlink" x="0px" y="0px"
	 viewBox="0 0 42.5 42.5" enable-background="new 0 0 42.5 42.5" xml:space="preserve">
<g>
	<path d="M0,20.2V0h20.2v19.7v0.5H0L0,20.2z M19.7,19.7v-0.5V19.7L19.7,19.7z M1,19.2h18.2V1H1V19.2L1,19.2z"/>
	<path d="M22.3,42.5V22.3h20.2V42v0.5H22.3L22.3,42.5z M42,42v-0.5V42L42,42z M23.3,41.5h18.2V23.3H23.3V41.5L23.3,41.5z"/>
	<path d="M0,42.5V22.3h19.7v0.5v-0.5h0.5v20.2H0L0,42.5z M1,41.5h18.2V23.3L1,23.3V41.5L1,41.5z"/>
	<path d="M22.3,20.2V0H42v0.5V0h0.5v20.2H22.3L22.3,20.2z M23.3,19.2h18.2V1H23.3V19.2L23.3,19.2z"/>
</g>
<g>
</g>
<g>
</g>
<g>
</g>
<g>
</g>
<g>
</g>
<g>
</g>
<g>
</g>
<g>
</g>
<g>
</g>
<g>
</g>
<g>
</g>
<g>
</g>
<g>
</g>
<g>
</g>
<g>
</g>
</svg>
