<?xml version="1.0" encoding="utf-8"?>
<!-- Generator: Adobe Illustrator 18.1.1, SVG Export Plug-In . SVG Version: 6.00 Build 0)  -->
<svg version="1.1" id="Layer_1" xmlns="http://www.w3.org/2000/svg" xmlns:xlink="http://www.w3.org/1999/xlink" x="0px" y="0px"
	 viewBox="0 0 45.8 45.8" enable-background="new 0 0 45.8 45.8" xml:space="preserve">
<g>
	<path d="M24.5,21.9H24V0h21.9v21.9H24.5L24.5,21.9z M44.8,20.9V1H25v19.9H44.8L44.8,20.9z"/>
	<path d="M0,21.9V0h21.9v21.4v0.5H0L0,21.9z M21.4,21.4v-0.5V21.4L21.4,21.4z M1,20.9h19.9V1H1V20.9L1,20.9z"/>
	<polygon points="34.4,45.4 34.4,24.4 35.4,24.4 35.4,45.4 34.4,45.4 	"/>
	<path d="M0,45.8V24h21.4v0.5V24h0.5v21.9H0L0,45.8z M1,44.8h19.9V25H1V44.8L1,44.8z"/>
	<polygon points="24.4,35.4 24.4,34.4 45.4,34.4 45.4,35.4 24.4,35.4 	"/>
</g>
<g>
</g>
<g>
</g>
<g>
</g>
<g>
</g>
<g>
</g>
<g>
</g>
<g>
</g>
<g>
</g>
<g>
</g>
<g>
</g>
<g>
</g>
<g>
</g>
<g>
</g>
<g>
</g>
<g>
</g>
</svg>
