<?xml version="1.0" encoding="utf-8"?>
<!-- Generator: Adobe Illustrator 18.1.1, SVG Export Plug-In . SVG Version: 6.00 Build 0)  -->
<svg version="1.1" id="Layer_1" xmlns="http://www.w3.org/2000/svg" xmlns:xlink="http://www.w3.org/1999/xlink" x="0px" y="0px"
	 viewBox="0 0 45.8 45.8" enable-background="new 0 0 45.8 45.8" xml:space="preserve">
<g>
	<path d="M0,45.8V0h45.8v45.3v0.5H0L0,45.8z M45.3,45.3v-0.5V45.3L45.3,45.3z M1,44.8h43.8V1H1V44.8L1,44.8z"/>
	<g>
		<path d="M24.3,33.1c0-0.2,0-0.4,0.1-0.6l0,0c0.4-2.1,2.7-3.7,5.1-4.1l0,0c0.9-0.1,1.6-0.1,1.6-0.1l0,0l0,1c0,0-0.7,0-1.5,0.1l0,0
			c-2.1,0.2-4,1.8-4.3,3.3l0,0c0,0.1,0,0.3,0,0.4l0,0c0,1,0.8,1.7,2.4,1.7l0,0c0.2,0,0.4,0,0.6,0l0,0c1.2-0.1,2.4-0.8,3.2-1.5l0,0
			c0.6-0.5,0.9-1.1,1-1.7l0,0c0,0,0-0.1,0-0.1l0,0v-0.5V10.3l-16.4,2l-0.1-1l17.5-2.2v21.7l0,0.6c0,0.1,0,0.1,0,0.2l0,0
			c-0.2,0.8-0.7,1.6-1.3,2.2l0,0c-1,0.9-2.3,1.6-3.8,1.8l0,0c-0.2,0-0.5,0-0.7,0l0,0C25.8,35.8,24.3,34.7,24.3,33.1L24.3,33.1z"/>
		<path d="M12.6,37.6c-1.9,0-3.4-1.1-3.4-2.7l0,0c0-0.2,0-0.4,0.1-0.6l0,0c0.4-2.1,2.7-3.7,5.1-4.1l0,0c0.9-0.1,1.6-0.1,1.6-0.1l0,0
			l0,1c0,0-0.7,0-1.5,0.1l0,0c-2.1,0.2-4,1.8-4.3,3.3l0,0c0,0.1,0,0.2,0,0.4l0,0c0,1,0.8,1.7,2.4,1.7l0,0c0.2,0,0.4,0,0.6,0l0,0
			c1.2-0.1,2.4-0.8,3.2-1.5l0,0c0.6-0.5,0.9-1.1,1-1.7l0,0c0,0,0-0.1,0-0.1l0,0v-0.5V16.6l13.6-1.7l0.1,1l-12.7,1.6v15.3l0,0.6
			c0,0.1,0,0.1,0,0.2l0,0c-0.2,0.8-0.7,1.6-1.3,2.2l0,0c-1,0.9-2.3,1.6-3.8,1.8l0,0C13.1,37.6,12.9,37.6,12.6,37.6L12.6,37.6
			C12.7,37.6,12.7,37.6,12.6,37.6L12.6,37.6z"/>
	</g>
</g>
<g>
</g>
<g>
</g>
<g>
</g>
<g>
</g>
<g>
</g>
<g>
</g>
<g>
</g>
<g>
</g>
<g>
</g>
<g>
</g>
<g>
</g>
<g>
</g>
<g>
</g>
<g>
</g>
<g>
</g>
</svg>
