<?xml version="1.0" encoding="utf-8"?>
<!-- Generator: Adobe Illustrator 18.1.1, SVG Export Plug-In . SVG Version: 6.00 Build 0)  -->
<svg version="1.1" id="Layer_1" xmlns="http://www.w3.org/2000/svg" xmlns:xlink="http://www.w3.org/1999/xlink" x="0px" y="0px"
	 viewBox="0 0 45.8 45.8" enable-background="new 0 0 45.8 45.8" xml:space="preserve">
<g>
	<path d="M0,45.8V0h45.8v45.3v0.5H0L0,45.8z M45.3,45.3v-0.5V45.3L45.3,45.3z M1,44.8h43.8V1H1V44.8L1,44.8z"/>
	<path d="M30.8,23.3l-6.4,6.4L11.4,16.6l-8.2,8.2V3.2h39.4v31.8L30.8,23.3L30.8,23.3z M41.6,32.6V4.2H4.2v18.2l6.8-6.8l0.4-0.4
		l13.1,13.1l6.4-6.4L41.6,32.6L41.6,32.6z"/>
	<path d="M27.1,12.8c0-2.7,2.2-4.9,4.9-4.9l0,0c2.7,0,4.9,2.2,4.9,4.9l0,0c0,2.7-2.2,4.9-4.9,4.9l0,0C29.3,17.7,27.1,15.5,27.1,12.8
		L27.1,12.8z M28.1,12.8c0,2.1,1.7,3.9,3.9,3.9l0,0c2.1,0,3.9-1.7,3.9-3.9l0,0h0c0-2.1-1.7-3.9-3.9-3.9l0,0
		C29.8,8.9,28.1,10.7,28.1,12.8L28.1,12.8z"/>
	<polygon points="24,29.1 24.7,28.4 31,34.8 30.3,35.5 24,29.1 	"/>
</g>
<g>
</g>
<g>
</g>
<g>
</g>
<g>
</g>
<g>
</g>
<g>
</g>
<g>
</g>
<g>
</g>
<g>
</g>
<g>
</g>
<g>
</g>
<g>
</g>
<g>
</g>
<g>
</g>
<g>
</g>
</svg>
