<?xml version="1.0" encoding="utf-8"?>
<!-- Generator: Adobe Illustrator 18.1.1, SVG Export Plug-In . SVG Version: 6.00 Build 0)  -->
<svg version="1.1" id="Layer_1" xmlns="http://www.w3.org/2000/svg" xmlns:xlink="http://www.w3.org/1999/xlink" x="0px" y="0px"
	 viewBox="0 0 37.2 35.8" enable-background="new 0 0 37.2 35.8" xml:space="preserve">
<g>
	<path d="M0,35.8V0h21v35.3v0.5H0L0,35.8z M20.5,35.3v-0.5V35.3L20.5,35.3z M1,34.8h19V1H1V34.8L1,34.8z"/>
	<path d="M2.1,31.1V4.6h16.7v26v0.5H2.1L2.1,31.1z M18.4,30.6v-0.5V30.6L18.4,30.6z M3.1,30.1h14.7V5.6H3.1V30.1L3.1,30.1z"/>
	<polygon points="8.5,3.3 8.5,2.3 12.5,2.3 12.5,3.3 8.5,3.3 	"/>
	<polygon points="22,35.8 22,34.8 36.2,34.8 36.2,15.8 22,15.8 22,14.8 37.2,14.8 37.2,35.8 22,35.8 	"/>
	<polygon points="22,33.6 22,32.6 31.6,32.6 31.6,17.9 22,17.9 22,16.9 32.6,16.9 32.6,33.6 22,33.6 	"/>
	<path d="M31.7,11.6c0-3.9-3.2-7.1-7.2-7.2l0,0h-1.7L27,1.8l0.5,0.8l-1.5,0.9c3.3,0.6,5.9,3.2,6.5,6.5l0,0l0.9-1.5v0l0.8,0.5
		l-2.6,4.2V11.6L31.7,11.6z"/>
</g>
<g>
</g>
<g>
</g>
<g>
</g>
<g>
</g>
<g>
</g>
<g>
</g>
<g>
</g>
<g>
</g>
<g>
</g>
<g>
</g>
<g>
</g>
<g>
</g>
<g>
</g>
<g>
</g>
<g>
</g>
</svg>
