<?xml version="1.0" encoding="utf-8"?>
<!-- Generator: Adobe Illustrator 18.1.1, SVG Export Plug-In . SVG Version: 6.00 Build 0)  -->
<svg version="1.1" id="Layer_1" xmlns="http://www.w3.org/2000/svg" xmlns:xlink="http://www.w3.org/1999/xlink" x="0px" y="0px"
	 viewBox="0 0 55.4 49" enable-background="new 0 0 55.4 49" xml:space="preserve">
<g>
	<path d="M6.5,49V22.2H0L27.7,0l26.6,21.3L54,21.7v-0.5v0.5l0.3-0.4l1.1,0.9h-6.5V49H6.5L6.5,49z M2.8,21.2h4.6V48h40.5V21.2h4.6
		L27.7,1.3L2.8,21.2L2.8,21.2z"/>
	<path d="M27.7,44.3c-0.6,0-1.2,0-1.9-0.1l0,0l-0.3,0l-0.8-3.4c-1.1-0.3-2.2-0.7-3.2-1.3l0,0l-3,1.8l-0.3-0.2
		c-1-0.8-1.9-1.7-2.7-2.7l0,0l-0.2-0.3l1.8-3c-0.3-0.5-0.6-1-0.8-1.5l0,0c-0.2-0.5-0.4-1.1-0.5-1.6l0,0l-3.4-0.8l0-0.3
		c-0.1-0.6-0.1-1.3-0.1-1.9l0,0c0-0.6,0-1.2,0.1-1.8l0,0l0-0.3l3.4-0.8c0.3-1.1,0.7-2.2,1.3-3.2l0,0l-1.8-3l0.2-0.3
		c0.8-1,1.7-1.9,2.7-2.6l0,0l0.3-0.2l3,1.8c0.5-0.3,1-0.6,1.5-0.8l0,0c0.5-0.2,1.1-0.4,1.6-0.5l0,0l0.8-3.4l0.3,0
		c0.6-0.1,1.3-0.1,1.9-0.1l0,0c0.6,0,1.2,0,1.8,0.1l0,0l0.3,0l0.8,3.4c1.1,0.3,2.2,0.7,3.2,1.3l0,0l3-1.8l0.3,0.2
		c1,0.8,1.9,1.7,2.6,2.7l0,0l0.2,0.3l-1.8,3c0.3,0.5,0.6,1,0.8,1.5l0,0l-0.5,0.2l-0.5,0.2c-0.2-0.6-0.5-1.1-0.9-1.7l0,0l-0.2-0.3
		l1.8-2.9c-0.6-0.7-1.3-1.4-2-2l0,0l-2.9,1.8l-0.3-0.2c-1.1-0.7-2.2-1.1-3.5-1.4l0,0l-0.3-0.1l-0.8-3.3c-0.5,0-0.9-0.1-1.4-0.1l0,0
		c-0.5,0-1,0-1.4,0.1l0,0l-0.8,3.3L25.2,18c-0.6,0.1-1.2,0.3-1.8,0.6l0,0c-0.6,0.2-1.1,0.5-1.7,0.9l0,0l-0.3,0.2l-2.9-1.8
		c-0.7,0.6-1.4,1.3-2,2l0,0l1.8,2.9L18.2,23c-0.7,1.1-1.1,2.2-1.4,3.5l0,0l-0.1,0.3l-3.3,0.8c0,0.5-0.1,0.9-0.1,1.4l0,0
		c0,0.5,0,1,0.1,1.4l0,0l3.3,0.8l0.1,0.3c0.1,0.6,0.3,1.2,0.6,1.8l0,0c0.2,0.6,0.5,1.1,0.9,1.7l0,0l0.2,0.3l-1.8,2.9
		c0.6,0.7,1.3,1.4,2,2l0,0l2.9-1.8l0.3,0.2c1.1,0.7,2.2,1.1,3.5,1.4l0,0l0.3,0.1l0.8,3.3c0.5,0,0.9,0.1,1.4,0.1l0,0
		c0.5,0,1,0,1.4-0.1l0,0l0.8-3.3l0.3-0.1c0.6-0.1,1.2-0.3,1.8-0.6l0,0c0.6-0.2,1.1-0.5,1.7-0.9l0,0l0.3-0.2l2.9,1.8
		c0.7-0.6,1.4-1.3,2-2l0,0l-1.8-2.9l0.2-0.3c0.7-1.1,1.1-2.2,1.4-3.5l0,0l0.1-0.3l3.3-0.8c0-0.5,0.1-0.9,0.1-1.4l0,0
		c0-0.5,0-1-0.1-1.4l0,0l-3.3-0.8l-0.1-0.3c-0.1-0.6-0.3-1.2-0.6-1.8l0,0l0.5-0.2l0.5-0.2c0.2,0.5,0.4,1.1,0.5,1.6l0,0l3.4,0.8
		l0,0.3c0.1,0.6,0.1,1.3,0.1,1.9l0,0c0,0.6,0,1.2-0.1,1.9l0,0l0,0.3L39.6,32c-0.3,1.1-0.7,2.2-1.3,3.2l0,0l1.8,3l-0.2,0.3
		c-0.8,1-1.7,1.9-2.7,2.6l0,0l-0.3,0.2l-3-1.8c-0.5,0.3-1,0.6-1.5,0.8l0,0c-0.5,0.2-1.1,0.4-1.6,0.5l0,0l-0.8,3.4l-0.3,0
		C29,44.3,28.3,44.3,27.7,44.3L27.7,44.3C27.7,44.3,27.7,44.3,27.7,44.3L27.7,44.3z M20.1,32.1c-0.4-1-0.6-2.1-0.6-3.2l0,0
		c0-3.2,1.9-6.3,5.1-7.6l0,0c1-0.4,2.1-0.6,3.2-0.6l0,0c3.2,0,6.3,1.9,7.6,5.1l0,0c0.4,1,0.6,2.1,0.6,3.2l0,0c0,3.2-1.9,6.3-5.1,7.6
		l0,0c-1,0.4-2.1,0.6-3.2,0.6l0,0C24.5,37.2,21.4,35.3,20.1,32.1L20.1,32.1z M24.9,22.2c-2.8,1.2-4.5,3.9-4.5,6.7l0,0
		c0,0.9,0.2,1.9,0.6,2.8l0,0c1.2,2.8,3.9,4.5,6.7,4.5l0,0c0.9,0,1.9-0.2,2.8-0.6l0,0v0c2.8-1.2,4.5-3.9,4.5-6.7l0,0
		c0-0.9-0.2-1.9-0.6-2.8l0,0c-1.2-2.8-3.9-4.5-6.7-4.5l0,0C26.8,21.7,25.8,21.9,24.9,22.2L24.9,22.2z"/>
</g>
<g>
</g>
<g>
</g>
<g>
</g>
<g>
</g>
<g>
</g>
<g>
</g>
<g>
</g>
<g>
</g>
<g>
</g>
<g>
</g>
<g>
</g>
<g>
</g>
<g>
</g>
<g>
</g>
<g>
</g>
</svg>
