<?xml version="1.0" encoding="utf-8"?>
<!-- Generator: Adobe Illustrator 18.1.1, SVG Export Plug-In . SVG Version: 6.00 Build 0)  -->
<svg version="1.1" id="Layer_1" xmlns="http://www.w3.org/2000/svg" xmlns:xlink="http://www.w3.org/1999/xlink" x="0px" y="0px"
	 viewBox="0 0 55.2 43.7" enable-background="new 0 0 55.2 43.7" xml:space="preserve">
<g>
	<g>
		<g>
			<path fill="#323333" d="M21.6,21.8c0-3.3,2.7-6,6-6l0,0c3.3,0,6,2.7,6,6l0,0h0c0,3.3-2.7,6-6,6l0,0
				C24.3,27.8,21.6,25.1,21.6,21.8L21.6,21.8z M22.4,21.8c0,2.9,2.3,5.2,5.2,5.2l0,0c2.9,0,5.2-2.3,5.2-5.2l0,0
				c0-2.9-2.3-5.2-5.2-5.2l0,0C24.7,16.6,22.4,19,22.4,21.8L22.4,21.8z"/>
			<circle fill="#323333" cx="27.6" cy="21.8" r="0.9"/>
		</g>
		<polygon fill="#323333" points="0,22.2 0,21.4 22,21.4 22,22.2 0,22.2 		"/>
		<polygon fill="#323333" points="33.2,22.2 33.2,21.4 55.2,21.4 55.2,22.2 33.2,22.2 		"/>
	</g>
	<g>
		<g>
			<path fill="#323333" d="M4.6,37.6c0-3.3,2.7-6,6-6l0,0c3.3,0,6,2.7,6,6l0,0c0,3.3-2.7,6-6,6l0,0C7.3,43.6,4.6,41,4.6,37.6
				L4.6,37.6z M5.4,37.6c0,2.9,2.3,5.2,5.2,5.2l0,0c2.9,0,5.2-2.3,5.2-5.2l0,0h0c0-2.9-2.3-5.2-5.2-5.2l0,0
				C7.7,32.5,5.4,34.8,5.4,37.6L5.4,37.6z"/>
			<circle fill="#323333" cx="10.6" cy="37.6" r="0.9"/>
		</g>
		<polygon fill="#323333" points="0,38.1 0,37.2 5,37.2 5,38.1 0,38.1 		"/>
		<polygon fill="#323333" points="16.2,38.1 16.2,37.2 55.2,37.2 55.2,38.1 16.2,38.1 		"/>
	</g>
	<g>
		<g>
			<path fill="#323333" d="M38.6,6c0-3.3,2.7-6,6-6l0,0c3.3,0,6,2.7,6,6l0,0c0,3.3-2.7,6-6,6l0,0C41.3,12,38.6,9.3,38.6,6L38.6,6z
				 M39.4,6c0,2.9,2.3,5.2,5.2,5.2l0,0c2.9,0,5.2-2.3,5.2-5.2l0,0c0-2.9-2.3-5.2-5.2-5.2l0,0C41.8,0.8,39.4,3.1,39.4,6L39.4,6
				L39.4,6z"/>
			<circle fill="#323333" cx="44.6" cy="6" r="0.9"/>
		</g>
		<polygon fill="#323333" points="50.2,6.4 50.2,5.6 55.2,5.6 55.2,6.4 50.2,6.4 		"/>
		<polygon fill="#323333" points="0,6.4 0,5.6 39,5.6 39,6.4 0,6.4 		"/>
	</g>
</g>
<g>
</g>
<g>
</g>
<g>
</g>
<g>
</g>
<g>
</g>
<g>
</g>
<g>
</g>
<g>
</g>
<g>
</g>
<g>
</g>
<g>
</g>
<g>
</g>
<g>
</g>
<g>
</g>
<g>
</g>
</svg>
