<?xml version="1.0" encoding="utf-8"?>
<!-- Generator: Adobe Illustrator 18.1.1, SVG Export Plug-In . SVG Version: 6.00 Build 0)  -->
<svg version="1.1" id="Layer_1" xmlns="http://www.w3.org/2000/svg" xmlns:xlink="http://www.w3.org/1999/xlink" x="0px" y="0px"
	 viewBox="0 0 42.5 42.5" enable-background="new 0 0 42.5 42.5" xml:space="preserve">
<g>
	<path d="M0,21.3C0,9.5,9.5,0,21.3,0l0,0C33,0,42.5,9.5,42.5,21.3l0,0c0,11.7-9.5,21.2-21.3,21.2l0,0C9.5,42.5,0,33,0,21.3L0,21.3z
		 M1,21.3c0,11.2,9.1,20.2,20.3,20.2l0,0c11.2,0,20.2-9.1,20.3-20.2l0,0C41.5,10.1,32.4,1,21.3,1l0,0C10.1,1,1,10.1,1,21.3L1,21.3z"
		/>
	<g>
		<path d="M12.3,18.8h-1.2c0-1.2,0.4-2.2,1.2-3c0.8-0.8,1.7-1.2,2.9-1.2c1.1,0,2,0.4,2.7,1.1c0.7,0.7,1,1.6,1,2.6
			c0,0.7-0.2,1.3-0.5,1.9c-0.3,0.6-1,1.4-1.9,2.5l-3,3.3h5.6v1.2h-8.3l4.7-5c0.9-1,1.6-1.8,1.8-2.3c0.3-0.5,0.4-1,0.4-1.5
			c0-0.7-0.3-1.3-0.8-1.8c-0.5-0.5-1.1-0.7-1.9-0.7c-0.8,0-1.4,0.3-1.9,0.8C12.7,17.1,12.4,17.8,12.3,18.8z"/>
		<path d="M21.6,20.3h0.9v1.2c0.3-0.4,0.6-0.8,1-1c0.5-0.3,0.9-0.4,1.4-0.4c0.3,0,0.7,0.1,1,0.2c0.3,0.1,0.5,0.3,0.7,0.5
			c0.2,0.2,0.4,0.5,0.5,0.9c0.3-0.5,0.7-1,1.1-1.2c0.4-0.3,0.9-0.4,1.4-0.4c0.5,0,0.9,0.1,1.3,0.4c0.4,0.2,0.6,0.6,0.8,1
			s0.3,1.1,0.3,1.9v3.8H31v-3.8c0-0.7-0.1-1.3-0.2-1.5c-0.1-0.3-0.3-0.5-0.5-0.7c-0.3-0.2-0.6-0.3-0.9-0.3c-0.4,0-0.8,0.1-1.2,0.4
			c-0.4,0.3-0.6,0.6-0.8,1c-0.2,0.4-0.2,1.1-0.2,2.1v2.7h-0.9v-3.5c0-0.8-0.1-1.4-0.2-1.7c-0.1-0.3-0.3-0.5-0.5-0.7
			c-0.3-0.2-0.6-0.3-0.9-0.3c-0.4,0-0.8,0.1-1.2,0.4c-0.4,0.2-0.6,0.6-0.8,1c-0.2,0.4-0.3,1.1-0.3,1.9v2.9h-0.9V20.3z"/>
	</g>
</g>
<g>
</g>
<g>
</g>
<g>
</g>
<g>
</g>
<g>
</g>
<g>
</g>
<g>
</g>
<g>
</g>
<g>
</g>
<g>
</g>
<g>
</g>
<g>
</g>
<g>
</g>
<g>
</g>
<g>
</g>
</svg>
