<?xml version="1.0" encoding="utf-8"?>
<!-- Generator: Adobe Illustrator 18.1.1, SVG Export Plug-In . SVG Version: 6.00 Build 0)  -->
<svg version="1.1" id="Layer_1" xmlns="http://www.w3.org/2000/svg" xmlns:xlink="http://www.w3.org/1999/xlink" x="0px" y="0px"
	 viewBox="0 0 42.5 42.5" enable-background="new 0 0 42.5 42.5" xml:space="preserve">
<g>
	<path d="M0,21.3C0,9.5,9.5,0,21.3,0l0,0C33,0,42.5,9.5,42.5,21.3l0,0c0,11.7-9.5,21.2-21.3,21.2l0,0C9.5,42.5,0,33,0,21.3L0,21.3z
		 M1,21.3c0,11.2,9.1,20.2,20.2,20.2l0,0c11.2,0,20.2-9.1,20.3-20.2l0,0C41.5,10.1,32.4,1,21.3,1l0,0C10.1,1,1,10.1,1,21.3L1,21.3z"
		/>
	<g>
		<path d="M21.1,15v1.2h-4.3l-0.6,3.3c0.5-0.2,1-0.2,1.4-0.2c1.1,0,2,0.4,2.7,1.1c0.7,0.7,1.1,1.7,1.1,2.9c0,0.8-0.2,1.5-0.6,2.2
			c-0.4,0.7-0.9,1.2-1.5,1.5c-0.6,0.4-1.4,0.5-2.2,0.5c-1,0-1.8-0.3-2.5-0.9c-0.7-0.6-1.1-1.4-1.2-2.4h1.3c0.1,0.5,0.3,0.9,0.5,1.1
			c0.2,0.3,0.5,0.5,0.9,0.7c0.4,0.2,0.8,0.3,1.2,0.3c0.8,0,1.5-0.3,2.1-0.9c0.6-0.6,0.9-1.4,0.9-2.3c0-0.8-0.3-1.5-0.8-2
			c-0.5-0.5-1.2-0.8-2.1-0.8c-0.7,0-1.6,0.2-2.6,0.7l1.1-6.1H21.1z"/>
		<path d="M27.9,21l-0.6,0.6c-0.5-0.5-0.9-0.7-1.4-0.7c-0.3,0-0.5,0.1-0.7,0.3c-0.2,0.2-0.3,0.4-0.3,0.7c0,0.2,0.1,0.4,0.3,0.6
			c0.2,0.2,0.5,0.5,1.1,0.7c0.7,0.3,1.1,0.7,1.4,1c0.2,0.3,0.4,0.7,0.4,1.1c0,0.6-0.2,1-0.6,1.4c-0.4,0.4-0.9,0.6-1.5,0.6
			c-0.4,0-0.8-0.1-1.1-0.3c-0.4-0.2-0.7-0.4-0.9-0.7l0.6-0.6c0.5,0.5,0.9,0.8,1.4,0.8c0.4,0,0.7-0.1,0.9-0.3
			c0.2-0.2,0.4-0.5,0.4-0.8c0-0.3-0.1-0.5-0.2-0.7c-0.2-0.2-0.5-0.4-1.1-0.7c-0.6-0.3-1-0.6-1.3-1c-0.2-0.3-0.3-0.7-0.3-1.1
			c0-0.5,0.2-1,0.5-1.3c0.4-0.3,0.8-0.5,1.4-0.5C26.6,20.1,27.2,20.4,27.9,21z"/>
	</g>
</g>
<g>
</g>
<g>
</g>
<g>
</g>
<g>
</g>
<g>
</g>
<g>
</g>
<g>
</g>
<g>
</g>
<g>
</g>
<g>
</g>
<g>
</g>
<g>
</g>
<g>
</g>
<g>
</g>
<g>
</g>
</svg>
