<?xml version="1.0" encoding="utf-8"?>
<!-- Generator: Adobe Illustrator 18.1.1, SVG Export Plug-In . SVG Version: 6.00 Build 0)  -->
<svg version="1.1" id="Layer_1" xmlns="http://www.w3.org/2000/svg" xmlns:xlink="http://www.w3.org/1999/xlink" x="0px" y="0px"
	 viewBox="0 0 42.5 42.5" enable-background="new 0 0 42.5 42.5" xml:space="preserve">
<g>
	<path d="M0,21.3C0,9.5,9.5,0,21.2,0l0,0C33,0,42.5,9.5,42.5,21.3l0,0c0,11.7-9.5,21.2-21.2,21.3l0,0C9.5,42.5,0,33,0,21.3L0,21.3z
		 M1,21.3c0,11.2,9.1,20.2,20.3,20.3l0,0c11.2,0,20.2-9.1,20.2-20.3l0,0C41.5,10.1,32.4,1,21.2,1l0,0C10.1,1,1,10.1,1,21.3L1,21.3z"
		/>
	<g>
		<path d="M10.7,17.8H9.5c0.2-1,0.7-1.8,1.3-2.3c0.6-0.5,1.4-0.8,2.3-0.8c0.6,0,1.2,0.1,1.8,0.4c0.5,0.3,1,0.7,1.3,1.2
			c0.3,0.5,0.5,1,0.5,1.5c0,1.1-0.5,1.9-1.6,2.5c0.6,0.2,1.1,0.6,1.4,1c0.5,0.6,0.8,1.4,0.8,2.2c0,0.7-0.2,1.4-0.5,2
			c-0.4,0.6-0.9,1.1-1.5,1.5c-0.6,0.3-1.3,0.5-2.1,0.5c-1.1,0-1.9-0.3-2.6-0.9c-0.7-0.6-1.2-1.5-1.4-2.7h1.2
			c0.2,0.8,0.5,1.4,0.9,1.7c0.5,0.4,1.1,0.7,1.9,0.7c0.9,0,1.6-0.3,2.1-0.8c0.5-0.5,0.8-1.2,0.8-1.9c0-0.5-0.1-0.9-0.4-1.3
			c-0.3-0.4-0.6-0.7-1.1-0.9c-0.5-0.2-1.2-0.3-2.1-0.4v-1.1c0.6,0,1.1-0.1,1.5-0.3c0.5-0.2,0.8-0.4,1-0.8c0.2-0.3,0.3-0.6,0.3-1
			c0-0.5-0.2-1-0.6-1.4c-0.4-0.4-1-0.6-1.6-0.6c-0.5,0-1,0.1-1.4,0.4C11.3,16.6,11,17.1,10.7,17.8z"/>
		<path d="M18.5,21.1c0-1.6,0.2-2.9,0.5-3.7c0.3-0.9,0.8-1.5,1.5-2c0.6-0.5,1.3-0.7,2.1-0.7c0.8,0,1.5,0.2,2.2,0.7
			c0.6,0.5,1.1,1.1,1.5,2.1c0.4,0.9,0.6,2.1,0.6,3.7c0,1.5-0.2,2.8-0.6,3.7c-0.4,0.9-0.9,1.6-1.5,2.1c-0.6,0.5-1.4,0.7-2.2,0.7
			c-0.8,0-1.5-0.2-2.1-0.7c-0.6-0.4-1.1-1.1-1.5-2C18.6,23.9,18.5,22.7,18.5,21.1z M19.6,21.1c0,1.4,0.1,2.4,0.4,3.1
			c0.2,0.7,0.6,1.2,1.1,1.6c0.5,0.4,1,0.5,1.5,0.5c0.5,0,1-0.2,1.5-0.5c0.5-0.4,0.8-0.9,1.1-1.6c0.3-0.9,0.5-1.9,0.5-3.1
			c0-1.2-0.1-2.2-0.4-3c-0.3-0.8-0.6-1.4-1.1-1.7c-0.5-0.4-1-0.5-1.5-0.5c-0.5,0-1.1,0.2-1.5,0.5c-0.5,0.4-0.8,0.9-1.1,1.6
			C19.7,18.7,19.6,19.7,19.6,21.1z"/>
	</g>
	<g>
		<path d="M33.2,21l-0.6,0.6c-0.5-0.5-0.9-0.7-1.4-0.7c-0.3,0-0.5,0.1-0.7,0.3c-0.2,0.2-0.3,0.4-0.3,0.7c0,0.2,0.1,0.4,0.3,0.6
			c0.2,0.2,0.5,0.5,1.1,0.7c0.7,0.3,1.1,0.7,1.4,1c0.2,0.3,0.4,0.7,0.4,1.1c0,0.6-0.2,1-0.6,1.4c-0.4,0.4-0.9,0.6-1.5,0.6
			c-0.4,0-0.8-0.1-1.1-0.3c-0.4-0.2-0.7-0.4-0.9-0.7l0.6-0.6c0.5,0.5,0.9,0.8,1.4,0.8c0.4,0,0.7-0.1,0.9-0.3
			c0.3-0.2,0.4-0.5,0.4-0.8c0-0.3-0.1-0.5-0.2-0.7c-0.2-0.2-0.5-0.4-1.1-0.7c-0.6-0.3-1-0.6-1.3-1c-0.2-0.3-0.3-0.7-0.3-1.1
			c0-0.5,0.2-1,0.5-1.3c0.4-0.3,0.8-0.5,1.4-0.5C31.9,20.1,32.5,20.4,33.2,21z"/>
	</g>
</g>
<g>
</g>
<g>
</g>
<g>
</g>
<g>
</g>
<g>
</g>
<g>
</g>
<g>
</g>
<g>
</g>
<g>
</g>
<g>
</g>
<g>
</g>
<g>
</g>
<g>
</g>
<g>
</g>
<g>
</g>
</svg>
