<?xml version="1.0" encoding="utf-8"?>
<!-- Generator: Adobe Illustrator 18.1.1, SVG Export Plug-In . SVG Version: 6.00 Build 0)  -->
<svg version="1.1" id="Layer_1" xmlns="http://www.w3.org/2000/svg" xmlns:xlink="http://www.w3.org/1999/xlink" x="0px" y="0px"
	 viewBox="0 0 39 35.7" enable-background="new 0 0 39 35.7" xml:space="preserve">
<g>
	<path d="M9,35.7V0h21v35.2v0.5H9L9,35.7z M29.5,35.2v-0.5V35.2L29.5,35.2z M10,34.8h19V1H10V34.8L10,34.8z"/>
	<path d="M11.1,31.1V4.6h16.7v26v0.5H11.1L11.1,31.1z M27.3,30.6v-0.5V30.6L27.3,30.6z M12.1,30.1h14.7V5.6H12.1V30.1L12.1,30.1z"/>
	<polygon points="17.5,3.2 17.5,2.2 21.5,2.2 21.5,3.2 17.5,3.2 	"/>
	<polygon points="32.6,33.5 37.6,28.5 32.2,23.2 37.6,17.9 32.2,12.5 37.6,7.2 32.6,2.2 33.3,1.5 39,7.2 33.6,12.5 39,17.9 
		33.6,23.2 39,28.5 33.3,34.2 32.6,33.5 	"/>
	<polygon points="0,28.5 5.3,23.2 0,17.9 5.3,12.5 0,7.2 5.7,1.5 6.4,2.2 1.4,7.2 6.8,12.5 1.4,17.9 6.8,23.2 1.4,28.5 6.4,33.5 
		5.7,34.2 0,28.5 	"/>
</g>
<g>
</g>
<g>
</g>
<g>
</g>
<g>
</g>
<g>
</g>
<g>
</g>
<g>
</g>
<g>
</g>
<g>
</g>
<g>
</g>
<g>
</g>
<g>
</g>
<g>
</g>
<g>
</g>
<g>
</g>
</svg>
