<?xml version="1.0" encoding="utf-8"?>
<!-- Generator: Adobe Illustrator 18.1.1, SVG Export Plug-In . SVG Version: 6.00 Build 0)  -->
<svg version="1.1" id="Layer_1" xmlns="http://www.w3.org/2000/svg" xmlns:xlink="http://www.w3.org/1999/xlink" x="0px" y="0px"
	 viewBox="0 0 42.7 32.8" enable-background="new 0 0 42.7 32.8" xml:space="preserve">
<g>
	<path d="M24.5,18.9c0.7-0.7,1-1.6,1-2.5l0,0c0-0.9-0.3-1.8-1-2.5l0,0l0.7-0.7c0.9,0.9,1.3,2.1,1.3,3.2l0,0c0,1.2-0.4,2.3-1.3,3.2
		l0,0L24.5,18.9L24.5,18.9z"/>
	<path d="M30.2,24.6c2.3-2.3,3.4-5.3,3.4-8.2l0,0c0-3-1.1-6-3.4-8.2l0,0l0.7-0.7c2.5,2.5,3.7,5.7,3.7,9l0,0c0,3.2-1.2,6.5-3.7,9l0,0
		L30.2,24.6L30.2,24.6z M30.2,8.1L30.2,8.1L30.2,8.1L30.2,8.1L30.2,8.1L30.2,8.1z"/>
	<path d="M36,30.4c3.8-3.8,5.8-8.9,5.8-13.9l0,0c0-5.1-1.9-10.2-5.8-14.1l0,0l0.7-0.7c4.1,4.1,6.1,9.4,6.1,14.8l0,0
		c0,5.3-2.1,10.6-6.1,14.6l0,0L36,30.4L36,30.4z"/>
	<path d="M9.8,23.9H0V8.9h9.8L20.5,0v32.8L9.8,23.9L9.8,23.9z M1,22.9h9.2l9.3,7.7V2.1l-9.2,7.6l-0.1,0.1H1V22.9L1,22.9z M10,9.4
		V8.9V9.4L10,9.4z"/>
</g>
<g>
</g>
<g>
</g>
<g>
</g>
<g>
</g>
<g>
</g>
<g>
</g>
<g>
</g>
<g>
</g>
<g>
</g>
<g>
</g>
<g>
</g>
<g>
</g>
<g>
</g>
<g>
</g>
<g>
</g>
</svg>
