<?xml version="1.0" encoding="utf-8"?>
<!-- Generator: Adobe Illustrator 18.1.1, SVG Export Plug-In . SVG Version: 6.00 Build 0)  -->
<svg version="1.1" id="Layer_1" xmlns="http://www.w3.org/2000/svg" xmlns:xlink="http://www.w3.org/1999/xlink" x="0px" y="0px"
	 viewBox="0 0 41.7 26.9" enable-background="new 0 0 41.7 26.9" xml:space="preserve">
<g>
	<path d="M20.9,25.9c-0.9,0-1.9,0.4-2.6,1.1l0,0l-0.7-0.7c0.9-0.9,2.1-1.4,3.3-1.4l0,0c1.2,0,2.4,0.5,3.3,1.4l0,0l-0.7,0.7
		C22.7,26.2,21.8,25.9,20.9,25.9L20.9,25.9z"/>
	<path d="M20.9,17.6c-3.1,0-6.1,1.2-8.4,3.5l0,0l-0.7-0.7c2.5-2.5,5.8-3.8,9.1-3.8l0,0c3.3,0,6.6,1.3,9.1,3.8l0,0l-0.7,0.7
		C27,18.7,23.9,17.6,20.9,17.6L20.9,17.6z"/>
	<path d="M5.9,14.5c4.1-4.1,9.6-6.2,15-6.2l0,0c5.4,0,10.8,2.1,15,6.2l0,0l-0.7,0.7c-3.9-3.9-9.1-5.9-14.3-5.9l0,0
		c-5.2,0-10.4,2-14.3,5.9l0,0l0,0L5.9,14.5L5.9,14.5z"/>
	<path d="M0,8.6C5.8,2.9,13.3,0,20.9,0l0,0C28.4,0,36,2.9,41.7,8.6l0,0L41,9.3C35.4,3.8,28.2,1,20.9,1l0,0C13.6,1,6.3,3.8,0.7,9.3
		l0,0v0L0,8.6L0,8.6z"/>
</g>
<g>
</g>
<g>
</g>
<g>
</g>
<g>
</g>
<g>
</g>
<g>
</g>
<g>
</g>
<g>
</g>
<g>
</g>
<g>
</g>
<g>
</g>
<g>
</g>
<g>
</g>
<g>
</g>
<g>
</g>
</svg>
