<?xml version="1.0" encoding="utf-8"?>
<!-- Generator: Adobe Illustrator 18.1.1, SVG Export Plug-In . SVG Version: 6.00 Build 0)  -->
<svg version="1.1" id="Layer_1" xmlns="http://www.w3.org/2000/svg" xmlns:xlink="http://www.w3.org/1999/xlink" x="0px" y="0px"
	 viewBox="0 0 46.7 44.8" enable-background="new 0 0 46.7 44.8" xml:space="preserve">
<g>
	<path d="M46.3,21.1L24.1,0.3C23.9,0.1,23.6,0,23.4,0h0c-0.3,0-0.5,0.1-0.7,0.3L0.3,21.1C0.1,21.3,0,21.6,0,21.9v2.6
		c0,0.3,0.1,0.6,0.3,0.8c0.2,0.2,0.5,0.3,0.8,0.3H5l0,18.1c0,0.3,0.1,0.6,0.3,0.8c0.2,0.2,0.5,0.3,0.8,0.3h34.5
		c0.3,0,0.6-0.1,0.8-0.3c0.2-0.2,0.3-0.5,0.3-0.8V25.6h3.9c0.3,0,0.6-0.1,0.8-0.3c0.2-0.2,0.3-0.5,0.3-0.8v-2.6
		C46.7,21.6,46.5,21.3,46.3,21.1z M35.5,23.8v4.7c0,0.5-0.4,1-1,1h-7.9l0,7.9c0,0.5-0.4,0.9-1,0.9c0,0,0,0,0,0h-4.9l-0.1,0
		c-0.3-0.1-0.6-0.4-0.7-0.7c0-0.1,0-0.2,0-0.2c0,0,0,0,0-0.1l0-7.8h-7.9c-0.5,0-1-0.4-1-1v-4.7c0-0.5,0.4-1,1-1H20l0-7.9
		c0-0.5,0.4-1,1-1l0,0l4.7,0c0,0,0,0,0,0h0c0,0,0,0,0,0h0c0,0,0,0,0,0c0,0,0,0,0,0c0.5,0,1,0.4,1,1c0,0,0,7.9,0,7.9h7.9
		C35.1,22.8,35.5,23.2,35.5,23.8L35.5,23.8z"/>
</g>
<g>
</g>
<g>
</g>
<g>
</g>
<g>
</g>
<g>
</g>
<g>
</g>
<g>
</g>
<g>
</g>
<g>
</g>
<g>
</g>
<g>
</g>
<g>
</g>
<g>
</g>
<g>
</g>
<g>
</g>
</svg>
