<?xml version="1.0" encoding="utf-8"?>
<!-- Generator: Adobe Illustrator 18.1.1, SVG Export Plug-In . SVG Version: 6.00 Build 0)  -->
<svg version="1.1" id="Layer_1" xmlns="http://www.w3.org/2000/svg" xmlns:xlink="http://www.w3.org/1999/xlink" x="0px" y="0px"
	 viewBox="0 0 42.8 38.1" enable-background="new 0 0 42.8 38.1" xml:space="preserve">
<g>
	<path d="M15.8,7.2V3.5h11.5v3.6h3.5l0-4.3h0v0C30.9,1.3,29.6,0,28,0H15.2c-1.6,0-2.9,1.3-2.9,2.9l0,4.3H15.8z"/>
	<path d="M40.1,9.6H2.7C1.2,9.6,0,10.8,0,12.3v23.1c0,1.5,1.2,2.7,2.7,2.7h37.4c1.5,0,2.7-1.2,2.7-2.7V12.3
		C42.7,10.8,41.6,9.6,40.1,9.6z M30,25.9c0,0.5-0.4,0.8-0.8,0.8h-4.8v4.8c0,0.5-0.4,0.8-0.9,0.8h-4.3c-0.5,0-0.8-0.4-0.8-0.8l0-4.8
		h-4.8c-0.5,0-0.8-0.4-0.8-0.8v-4.3c0-0.5,0.4-0.8,0.8-0.8l4.8,0l0-4.5c0-0.5,0.4-0.8,0.8-0.8h4.3c0.5,0,0.9,0.4,0.9,0.8v4.5l4.8,0
		c0.5,0,0.8,0.4,0.8,0.8V25.9z"/>
</g>
<g>
</g>
<g>
</g>
<g>
</g>
<g>
</g>
<g>
</g>
<g>
</g>
<g>
</g>
<g>
</g>
<g>
</g>
<g>
</g>
<g>
</g>
<g>
</g>
<g>
</g>
<g>
</g>
<g>
</g>
</svg>
