<?xml version="1.0" encoding="utf-8"?>
<!-- Generator: Adobe Illustrator 18.1.1, SVG Export Plug-In . SVG Version: 6.00 Build 0)  -->
<svg version="1.1" id="Layer_1" xmlns="http://www.w3.org/2000/svg" xmlns:xlink="http://www.w3.org/1999/xlink" x="0px" y="0px"
	 viewBox="0 0 46.7 29.9" enable-background="new 0 0 46.7 29.9" xml:space="preserve">
<g>
	<g>
		<path d="M14.2,26.9c0,1.7-1.3,3-3,3l0,0c-1.7,0-3-1.3-3-3V3c0-1.7,1.3-3,3-3l0,0c1.7,0,3,1.3,3,3V26.9z"/>
		<path d="M6,21.7c0,1.7-1.3,3-3,3l0,0c-1.7,0-3-1.3-3-3V8.3c0-1.7,1.3-3,3-3l0,0c1.7,0,3,1.3,3,3V21.7z"/>
		<path d="M32.4,3c0-1.7,1.3-3,3-3l0,0c1.7,0,3,1.3,3,3v23.9c0,1.7-1.3,3-3,3l0,0c-1.7,0-3-1.3-3-3V3z"/>
		<path d="M40.7,8.3c0-1.7,1.3-3,3-3l0,0c1.7,0,3,1.3,3,3v13.4c0,1.7-1.3,3-3,3l0,0c-1.7,0-3-1.3-3-3V8.3z"/>
	</g>
	<rect x="16.8" y="12" width="13.1" height="6"/>
</g>
<g>
</g>
<g>
</g>
<g>
</g>
<g>
</g>
<g>
</g>
<g>
</g>
<g>
</g>
<g>
</g>
<g>
</g>
<g>
</g>
<g>
</g>
<g>
</g>
<g>
</g>
<g>
</g>
<g>
</g>
</svg>
