<?xml version="1.0" encoding="utf-8"?>
<!-- Generator: Adobe Illustrator 18.1.1, SVG Export Plug-In . SVG Version: 6.00 Build 0)  -->
<svg version="1.1" id="Layer_1" xmlns="http://www.w3.org/2000/svg" xmlns:xlink="http://www.w3.org/1999/xlink" x="0px" y="0px"
	 viewBox="0 0 43.9 46.1" enable-background="new 0 0 43.9 46.1" xml:space="preserve">
<g>
	<path d="M43.7,36.8c0-3.2,0.1-5.4-0.2-9.3c0-1,0.2-2.7,0.2-3c0-2.4-1.1-4.4-2.5-5.1c-1.1-0.5-8.1-3.1-8.1-4.3v0
		c0-0.3-0.1-1.8-0.1-2.5c0.1-0.1,0.2-0.3,0.3-0.4c0.4-0.4,0.6-1.1,0.8-2.3c0.3-0.1,0.6-1,0.9-1.6c0.3-0.8,0.1-1.5-0.5-1.7
		c0.1-0.6,0.2-1.4,0.2-2.3c0-2.9-2.4-4.1-5.1-4.4c-1.9-0.2-2.8,0.5-3.3,1.5c-0.1,0.1-0.3,0.2-0.4,0.3c-0.8,0.9-1.4,1.6-1,3.8
		C25,6,25.1,6.4,25.2,6.7c-0.6,0.2-0.8,0.9-0.5,1.7c0.2,0.7,0.5,1.5,0.9,1.6c0.2,1.2,0.5,1.9,0.9,2.3c0.1,0.1,0.2,0.3,0.3,0.4
		c0,0.6-0.1,2.2-0.1,2.5c0,1.1-7,3.8-8.1,4.3c-1.4,0.6-2.5,2.6-2.5,5.1c0,0.2,0.2,2,0.2,3c-0.1,0.7-0.1,1.3-0.1,1.8
		c-0.3-0.3-0.7-0.5-1.1-0.7c-1.3-0.5-3.8-1.2-3.8-1.6c0-0.2,0-0.6,0-1.1c0.1-0.1,0.8-0.9,0.9-1c0.3-0.4,0.6-0.9,0.8-1.9
		c0.3-0.1,0.6-0.8,0.8-1.4c0.2-0.7,0.1-1.3-0.5-1.4c0.1-0.3,0.1-1.1,0.2-1.5c0-0.1,0-0.2,0-0.3c0-0.2,0-0.4,0-0.7
		c0-2.4-2.3-3.4-4.9-3.7c-1.8-0.2-2.6,0.4-3.1,1.3c-0.1,0.1-0.2,0.1-0.3,0.2c-0.8,0.8-1.3,1.4-1,3.2c0.1,0.4,0.1,1.2,0.2,1.5
		c-0.6,0.1-0.7,0.8-0.5,1.4C4,22.3,4.2,23,4.6,23.1c0.2,1,0.5,1.6,0.8,1.9c0.1,0.1,0.8,0.9,0.9,1c0,0.5,0,0.9,0,1.1
		c0,0.4-2.5,1.1-3.8,1.6C1.1,29.3,0,30.3,0,32.3c0,1.4,0.3,2.9,0.3,3.7c-0.2,2.5,0,3.9,0,7.3c-0.1,1-0.1,1.9-0.1,2.7h43.5
		C43.7,46.1,44.1,41,43.7,36.8z"/>
</g>
<g>
</g>
<g>
</g>
<g>
</g>
<g>
</g>
<g>
</g>
<g>
</g>
<g>
</g>
<g>
</g>
<g>
</g>
<g>
</g>
<g>
</g>
<g>
</g>
<g>
</g>
<g>
</g>
<g>
</g>
</svg>
