<?xml version="1.0" encoding="utf-8"?>
<!-- Generator: Adobe Illustrator 18.1.1, SVG Export Plug-In . SVG Version: 6.00 Build 0)  -->
<svg version="1.1" id="Layer_1" xmlns="http://www.w3.org/2000/svg" xmlns:xlink="http://www.w3.org/1999/xlink" x="0px" y="0px"
	 viewBox="0 0 37.6 33.1" enable-background="new 0 0 37.6 33.1" xml:space="preserve">
<g>
	<path d="M9.7,18.9C9.7,18.9,9.7,18.9,9.7,18.9c-2.2,0-4.8-0.3-8-1.1c-1.9,6.4-2.4,12.6-0.6,14.5c2.1,2.3,5.9-1,11.9-2.4
		c2.7-0.7,2.8-4.8,2.7-12.1C14.4,18.4,12.5,18.9,9.7,18.9z M15.7,16.7c0-0.6,0-1.2,0-1.9c1.2-0.7,2.4-1.7,3.2-3.1
		c0.8,1.4,2,2.4,3.2,3.1c0,0.3,0,0.7,0,1c0.7,0.4,1.5,0.9,2.2,1.6c1,0.2,2.3,0.4,3.8,0.4c2,0,4.6-0.3,7.7-1
		C33.2,9.1,29,1.5,24.6,0.4C20.7-0.5,22,4.7,22,11.9c-1.2-1-2-2.4-2.1-4.6c0,0,0,0,0-0.1c0-1.6,0-7.2,0-7.2l0,0h0h-2.2h0h0
		c0,0,0,5.6,0,7.2c0,0,0,0,0,0.1c0,2.3-0.9,3.6-2.1,4.6c0-7.2,1.3-12.4-2.6-11.5c-4.4,1-8.6,8.7-11,16.3c3.1,0.7,5.6,1,7.7,1
		C12.6,17.8,14.5,17.2,15.7,16.7z M24.2,19.3c-1.2-1.5-2.4-2.4-3.7-2.6c0.1-0.8,0.5-1.5,0.5-1.5s-1.5-1.2-2-1.8
		c-0.8,1.2-1.2,2.5-1.3,3.6c-0.3,0.1-0.5,0.2-0.7,0.3c0.2,3.2,0.1,7-0.3,10.1c0.3,3.4,8.9,3.8,10.4,2.3C28.6,28,27.3,23.3,24.2,19.3
		z M35.9,17.8c-3.2,0.8-5.8,1.1-8,1.1c0,0,0,0,0,0c-1.1,0-2-0.1-2.9-0.2c2.6,3.7,5.6,9.9,2.5,12.1c4.4,1.6,7.3,3.5,9,1.6
		C38.3,30.4,37.8,24.2,35.9,17.8z"/>
</g>
<g>
</g>
<g>
</g>
<g>
</g>
<g>
</g>
<g>
</g>
<g>
</g>
<g>
</g>
<g>
</g>
<g>
</g>
<g>
</g>
<g>
</g>
<g>
</g>
<g>
</g>
<g>
</g>
<g>
</g>
</svg>
