<?xml version="1.0" encoding="utf-8"?>
<!-- Generator: Adobe Illustrator 18.1.1, SVG Export Plug-In . SVG Version: 6.00 Build 0)  -->
<svg version="1.1" id="Layer_1" xmlns="http://www.w3.org/2000/svg" xmlns:xlink="http://www.w3.org/1999/xlink" x="0px" y="0px"
	 viewBox="0 0 45.1 43.7" enable-background="new 0 0 45.1 43.7" xml:space="preserve">
<g>
	<path d="M35.2,0l-1.6,1.6l2.3,2.3l-3.3,3.3l5.2,5.2l3.3-3.3l2.3,2.3l1.6-1.6L35.2,0z M27.4,7.9l1.3,1.3L5.4,32.5l1.8,1.8l-2.1,2.1
		l1.1,1.1L0,43.7l2.8-0.1l4.7-4.7L8.7,40l2.1-2.1l1.8,1.8l23.3-23.3l1.3,1.3l1.6-1.6L29,6.3L27.4,7.9z M12.9,36.8l-4.6-4.6l5.9-5.9
		l4.6,4.6L12.9,36.8z"/>
</g>
<g>
</g>
<g>
</g>
<g>
</g>
<g>
</g>
<g>
</g>
<g>
</g>
<g>
</g>
<g>
</g>
<g>
</g>
<g>
</g>
<g>
</g>
<g>
</g>
<g>
</g>
<g>
</g>
<g>
</g>
</svg>
