<?xml version="1.0" encoding="utf-8"?>
<!-- Generator: Adobe Illustrator 18.1.1, SVG Export Plug-In . SVG Version: 6.00 Build 0)  -->
<svg version="1.1" id="Layer_1" xmlns="http://www.w3.org/2000/svg" xmlns:xlink="http://www.w3.org/1999/xlink" x="0px" y="0px"
	 viewBox="0 0 23 46.4" enable-background="new 0 0 23 46.4" xml:space="preserve">
<g>
	<path d="M21.5,46.4c-0.7-2.7-0.6-4.1-0.2-8.9c0.3-3.8,2.8-7.9,1.3-13.2c-0.8-2.8-2.6-5.5-3-7.1c3.1-2.1,3.5-2.8,3.3-5.2
		c-0.1-0.8-1.5-3.4-2-6.3c-0.6-3.5-2.4-5.3-5.9-5.6c-4.1-0.4-5.5,0.9-6.8,2C7.2,2.9,6.2,3.6,7.7,4.6c0,0-0.7,2.6-0.3,3.1
		c0.8,1.2-0.2,2.2-0.8,2.8c-1,1.1-0.1,1.4,0.6,1.8c0.6,1.3,0.8,3,1,3.3c0.4,0.5,1,0.7,2.7,0.8c0.4,1.5,1.2,2.7,0.6,3.9
		c-2.5,5.5-5.9,4.8-7.2,8.7c-0.2,0.7-0.2,2.9,1.1,3.9c-7.3,5.8-5.3,12.2-5,13.3C0.5,46.4,21.5,46.4,21.5,46.4z"/>
</g>
<g>
</g>
<g>
</g>
<g>
</g>
<g>
</g>
<g>
</g>
<g>
</g>
<g>
</g>
<g>
</g>
<g>
</g>
<g>
</g>
<g>
</g>
<g>
</g>
<g>
</g>
<g>
</g>
<g>
</g>
</svg>
