<?xml version="1.0" encoding="utf-8"?>
<!-- Generator: Adobe Illustrator 18.1.1, SVG Export Plug-In . SVG Version: 6.00 Build 0)  -->
<svg version="1.1" id="Layer_1" xmlns="http://www.w3.org/2000/svg" xmlns:xlink="http://www.w3.org/1999/xlink" x="0px" y="0px"
	 viewBox="0 0 37.5 31.6" enable-background="new 0 0 37.5 31.6" xml:space="preserve">
<g>
	<path d="M30,0.1c-1.5-0.5-2.4,1.4-3.2,3.5c-2.6,6.7-2.8,11.9-2.8,13.1c0,0.2,0,0.3,0,0.3c0,0,0,0,0,0c0,0,0,0,0,0
		c0,2.8,1.1,4.5,2.2,5.5c0.6,0.5,1.1,0.8,1.5,1c0.4,0.2,0.6,0.3,0.6,0.3c0.5,0.1,0.8,0.7,0.6,1.2c-0.1,0.4-0.5,0.7-0.9,0.7
		c-0.1,0-0.2,0-0.3,0l0,0c-0.1,0-5.3-1.7-5.7-8c-0.6-0.2-1.8-0.6-3.4-0.6l0,0h0h0l0,0c-1.6,0-2.7,0.3-3.4,0.6c-0.3,6.3-5.6,8-5.7,8
		l0,0c-0.1,0-0.2,0-0.3,0c-0.4,0-0.8-0.3-0.9-0.7c-0.1-0.5,0.1-1,0.6-1.2c0,0,0.2-0.1,0.6-0.3c0.4-0.2,1-0.5,1.5-1
		c1.1-1,2.2-2.6,2.2-5.5c0,0,0,0,0,0c0,0,0,0,0,0c0,0,0-0.1,0-0.3c0-1.2-0.2-6.4-2.8-13.1C9.9,1.5,9-0.4,7.5,0.1
		C2.1,1.8-3.7,23.4,3,28.9c2.9,2.4,8.3,3.4,10,2.2c1.6-1,3.5-1.9,5.7-1.9c0,0,0,0,0,0h0h0h0c2.2,0,4.1,0.9,5.7,1.9
		c1.7,1.1,7.1,0.2,10-2.2C41.1,23.4,35.3,1.8,30,0.1z"/>
</g>
<g>
</g>
<g>
</g>
<g>
</g>
<g>
</g>
<g>
</g>
<g>
</g>
<g>
</g>
<g>
</g>
<g>
</g>
<g>
</g>
<g>
</g>
<g>
</g>
<g>
</g>
<g>
</g>
<g>
</g>
</svg>
