<?xml version="1.0" encoding="utf-8"?>
<!-- Generator: Adobe Illustrator 18.1.1, SVG Export Plug-In . SVG Version: 6.00 Build 0)  -->
<svg version="1.1" id="Layer_1" xmlns="http://www.w3.org/2000/svg" xmlns:xlink="http://www.w3.org/1999/xlink" x="0px" y="0px"
	 viewBox="0 0 47.3 38.1" enable-background="new 0 0 47.3 38.1" xml:space="preserve">
<g>
	<path d="M43.1,18.9c0-2.8,1.6-5.4,1.6-10.7c0-2.8-1-4.9-2.5-6.2c-1.5-1.4-3.5-2-5.4-2c-2.5,0-5.1,1.1-6.3,3.2
		c-1.9-1.1-4.3-1.7-6.9-1.7c-2.6,0-4.9,0.6-6.9,1.7C15.5,1.1,13,0,10.5,0C8.5,0,6.6,0.6,5,2C3.5,3.3,2.5,5.4,2.5,8.2
		c0,5.3,1.6,7.9,1.6,10.7c0,1.4-0.3,2.8-1.4,4.9c-1.5,2.7-2.7,5.6-2.8,8c0,0.8,0.1,1.5,0.5,2.2c0.1,0.2,0.2,0.5,0.4,0.7
		c0.2,0.2,0.4,0.5,0.9,0.5c0,0,0,0,0,0c0.4,0,0.7-0.3,0.8-0.5C3,34.1,2.9,33.7,3,32.9c0-0.5,0-1.1-0.1-1.7c0-0.1,0-0.2,0-0.3
		c0-0.1,0-0.3,0.1-0.5c0.4,0.9,1.2,1.7,1.3,3c0,0.5-0.1,1.2-0.5,1.9c-0.3,0.4-0.8,0.9-1.7,1c0.4,0.5,0.9,1,1.5,1.3
		c0.6,0.3,1.3,0.5,2,0.5c2.1,0,4.4-1.4,5.6-3.8c1.5-3,0.9-6.4-1.4-7.9C9.4,26.3,9,26.1,8.6,26c0-0.1,0.1-0.2,0.1-0.3
		c0-0.5-0.3-0.9-0.8-0.9c-0.1,0-0.2,0-0.4,0c-1.7,0-3.1,0.7-4.2,1.7c0.3-0.6,0.6-1.2,0.9-1.9c1.2-2.2,1.6-4,1.6-5.6
		c0-3.4-1.6-5.8-1.6-10.7c0-4.7,3.1-6.5,6.3-6.5c1.4,0,2.8,0.4,3.8,1.2c0.5,0.4,0.8,0.8,1.1,1.2c-2,1.6-3.3,3.7-3.3,6
		c0,4,3.6,7.1,8.5,8.1c-1.1,0.7-1.8,1.9-1.8,3.1c0,2.2,2.2,3.9,4.9,3.9c2.7,0,4.9-1.7,4.9-3.9c0-1.3-0.7-2.4-1.8-3.1
		c4.9-0.9,8.5-4.1,8.5-8.1c0-2.3-1.2-4.4-3.3-6c0.3-0.5,0.6-0.9,1.1-1.2c1-0.7,2.4-1.2,3.8-1.2c3.1,0.1,6.2,1.8,6.3,6.5
		c0,4.9-1.6,7.3-1.6,10.7c0,1.6,0.4,3.4,1.6,5.6c0.3,0.6,0.7,1.2,0.9,1.9c-1.1-1-2.5-1.6-4.2-1.7c-0.1,0-0.2,0-0.4,0
		c-0.5,0-0.8,0.4-0.8,0.9c0,0.1,0,0.2,0.1,0.3c-0.5,0.1-0.9,0.3-1.1,0.5c-2.3,1.5-2.9,4.9-1.4,7.9c1.2,2.4,3.4,3.8,5.6,3.8
		c0.7,0,1.4-0.2,2-0.5c0.6-0.3,1.1-0.8,1.5-1.3c-0.9-0.1-1.4-0.6-1.7-1c-0.4-0.7-0.5-1.3-0.5-1.9c0.1-1.2,0.9-2.1,1.3-3
		c0,0.2,0.1,0.3,0.1,0.5c0,0.1,0,0.2,0,0.3c-0.1,0.6-0.1,1.2-0.1,1.7c0,0.7,0,1.2,0.3,1.8c0.1,0.2,0.4,0.5,0.8,0.5c0,0,0,0,0,0
		c0.5,0,0.7-0.3,0.9-0.5c0.2-0.2,0.3-0.4,0.4-0.7c0.3-0.7,0.5-1.4,0.5-2.2c0-2.5-1.3-5.3-2.8-8C43.5,21.8,43.1,20.3,43.1,18.9z"/>
</g>
<g>
</g>
<g>
</g>
<g>
</g>
<g>
</g>
<g>
</g>
<g>
</g>
<g>
</g>
<g>
</g>
<g>
</g>
<g>
</g>
<g>
</g>
<g>
</g>
<g>
</g>
<g>
</g>
<g>
</g>
</svg>
