<?xml version="1.0" encoding="utf-8"?>
<!-- Generator: Adobe Illustrator 18.1.1, SVG Export Plug-In . SVG Version: 6.00 Build 0)  -->
<svg version="1.1" id="Layer_1" xmlns="http://www.w3.org/2000/svg" xmlns:xlink="http://www.w3.org/1999/xlink" x="0px" y="0px"
	 viewBox="0 0 23.7 43.6" enable-background="new 0 0 23.7 43.6" xml:space="preserve">
<g>
	<path d="M23.3,29.9c0-1.1,0.4-3.2,0.4-5.1c0-2.8-1.5-4.2-3.3-4.9c-0.5-0.2-1.1-0.4-1.7-0.6v11.5C17.6,27,17.2,20.7,17,18.7
		c-1-0.4-1.8-0.7-1.8-1c0-0.3,0-0.8,0-1.5c0.2-0.1,1-1.2,1.2-1.4c0.5-0.5,0.8-1.3,1.1-2.6c0.4-0.2,0.8-1.1,1.1-1.9
		C19,9.5,18.7,8.6,18,8.4c0.1-0.4,0.2-1.5,0.2-2c0-0.1,0-0.3,0.1-0.4c0-0.3,0.1-0.6,0.1-0.9c0-3.3-3.1-4.7-6.7-5
		C9.1-0.2,8,0.7,7.3,1.8C7.2,1.9,7,2,6.9,2.1C5.8,3.1,5.1,4,5.5,6.4c0.1,0.5,0.2,1.7,0.2,2c-0.8,0.2-1,1-0.7,1.9
		c0.3,0.8,0.7,1.7,1.1,1.9c0.3,1.4,0.6,2.1,1.1,2.6c0.1,0.2,1,1.2,1.2,1.4c0,0.7,0,1.2,0,1.5c0,0.2-0.8,0.6-1.8,1
		c-0.1,2-0.6,8.4-1.7,12.1V19.3c-0.6,0.2-1.2,0.4-1.7,0.6C1.5,20.7,0,22,0,24.8c0,1.9,0.4,3.9,0.4,5.1c-0.3,3.4,0,5.3,0,10
		c-0.1,1.4-0.1,2.6-0.1,3.7h10.5H13h10.5c0-1.1-0.1-2.3-0.1-3.7C23.3,35.1,23.6,33.3,23.3,29.9z"/>
</g>
<g>
</g>
<g>
</g>
<g>
</g>
<g>
</g>
<g>
</g>
<g>
</g>
<g>
</g>
<g>
</g>
<g>
</g>
<g>
</g>
<g>
</g>
<g>
</g>
<g>
</g>
<g>
</g>
<g>
</g>
</svg>
