<?xml version="1.0" encoding="utf-8"?>
<!-- Generator: Adobe Illustrator 18.1.1, SVG Export Plug-In . SVG Version: 6.00 Build 0)  -->
<svg version="1.1" id="Layer_1" xmlns="http://www.w3.org/2000/svg" xmlns:xlink="http://www.w3.org/1999/xlink" x="0px" y="0px"
	 viewBox="0 0 29.9 44.6" enable-background="new 0 0 29.9 44.6" xml:space="preserve">
<g>
	<path d="M29.9,12.9c0.3-6.6-3.4-9.7-6.2-11.2c-2.8-1.5-5.3-2.1-10.1-1.5c-4.8,0.7-7.8,4-7.8,4S3.4,6.7,2.9,9.8
		c-0.5,3.1-0.6,3.7,0.1,4.5c0,0,0.1,0.4-0.2,0.9c0,0-2.8,4.5-2.8,4.9c0,0.5,0.4,1,0.8,1.2c0.4,0.2,1.2,0,1.4,0.5
		c0.1,0.3-0.6,1.3-0.5,1.8c0.1,0.4,0.5,1.1,0.9,1.2c0,0-0.5,1-0.3,1.4c0.2,0.5,0.9,0.2,0.7,0.8c-0.2,0.6-1,2.6,0.3,3.4
		c1.3,0.8,2,0.9,3.1,0.9c1,0,2.3-0.1,2.9,0.9c0.3,0.5,0.1,4.5-1.1,5.7c-2.2,2.2-4,4.6-4.6,6.6h10.9c0.3-3.1,1.8-21.7-7.5-20.2
		c-1.1,0.2-2.7,0.9-3.1,0c-0.3-0.8,1-2,5.6-1.8c2.4,0.1,3.3,1.5,4.1,1c1-0.6-1.1-2.7-3.6-3.3C7.7,19.8,6,20,4,20.4
		c-1.5,0.3-2.4,0.1-1.2-2.1c0.9-1.6,4-2,6.6-2c2.6,0,1,2.7,4.5,2.7c3,0,2.8,2.3,2.8,13.1c0,1.2,0,9.6,0,12.5h11.1
		c-0.4-3.2-2.3-7.8-2.7-9.9c-0.6-3.4,0.1-8,1.2-11.7C27.2,20.2,29.5,19.5,29.9,12.9z M22.4,19.9c-0.7,0.8-0.8,1.4-1,2
		c-0.1,0.5-0.2,1.3-1,1.8c-0.5,0.3-1,0.5-1.5,0.5c-1.4,0-1.9-1.3-1.9-1.3c-0.1-0.3,0-0.7,0.3-0.8c0.3-0.1,0.7,0,0.8,0.3
		c0,0,0,0,0,0.1c0,0.1,0.1,0.1,0.2,0.2c0.1,0.2,0.3,0.3,0.6,0.3c0.2,0,0.4-0.1,0.8-0.3c0.3-0.2,0.3-0.4,0.5-1
		c0.1-0.6,0.4-1.5,1.2-2.5c0.8-0.9,1.1-1.9,1.1-2.7c0-1.1-0.5-1.9-1.1-2.1c-0.1-0.1-0.3-0.1-0.4-0.1c-0.4,0-0.9,0.2-1.2,0.5
		c-0.3,0.3-0.5,0.5-0.5,0.5l0,0c-0.2,0.3-0.6,0.3-0.9,0.1c-0.3-0.2-0.3-0.6-0.1-0.9c0.1,0,1-1.5,2.7-1.6c0.3,0,0.5,0,0.8,0.1
		c1.3,0.5,2,1.8,2,3.3C23.7,17.5,23.3,18.7,22.4,19.9z"/>
</g>
<g>
</g>
<g>
</g>
<g>
</g>
<g>
</g>
<g>
</g>
<g>
</g>
<g>
</g>
<g>
</g>
<g>
</g>
<g>
</g>
<g>
</g>
<g>
</g>
<g>
</g>
<g>
</g>
<g>
</g>
</svg>
