<?xml version="1.0" encoding="utf-8"?>
<!-- Generator: Adobe Illustrator 18.1.1, SVG Export Plug-In . SVG Version: 6.00 Build 0)  -->
<svg version="1.1" id="Layer_1" xmlns="http://www.w3.org/2000/svg" xmlns:xlink="http://www.w3.org/1999/xlink" x="0px" y="0px"
	 viewBox="0 0 43.7 45.9" enable-background="new 0 0 43.7 45.9" xml:space="preserve">
<g>
	<path d="M40.3,28.9c0,0-0.3-0.4-0.7-1.6c-0.5-1.2-0.5-2-1.8-3.4c-1.3-1.4-3.1-2.2-3.6-2.3c-0.5-0.1-6.4-2.6-6.4-2.6
		s-1.2-0.5-1.4-1.6c-0.3-2-0.5-3.9-0.5-5.4c0-1.8,1.4-1.7,1.7-5c0.2-3.4-1.6-5.4-3-6.1c-1.4-0.8-3.3-1.1-5.7-0.8
		c-2.4,0.3-4,2.1-4,2.1S13.7,3.4,13.4,5c-0.3,1.6-0.3,1.9,0,2.3c0,0,0.1,0.2-0.1,0.5c0,0-1,2.1-1.1,2.2c-0.2,0.1-0.3,0.4-0.3,0.6
		c0,0.2,0.2,0.5,0.4,0.6c0.2,0.1,0.6,0,0.7,0.3c0,0.2,0,0.4,0,0.5c0,0.2-0.2,0.4-0.2,0.6c0,0.2,0.2,0.4,0.4,0.4c0,0-0.3,0.2-0.2,0.4
		c0.1,0.2,0.4,0.4,0.4,0.7c-0.1,0.3-0.5,1,0.2,1.5c0.6,0.4,1,0.4,1.5,0.5c0.4,0,1.1,0,1.6,0.2c0,0.3,0,1.2,0,1.4
		c0.2,0.9-0.8,1.3-0.8,1.3s-5.9,2.5-6.4,2.6c-0.5,0.1-2.3,0.9-3.6,2.3c-1.3,1.4-1.3,2.2-1.8,3.4c-0.5,1.2-0.7,1.6-0.7,1.6
		S0.2,32.4,0,32.8l4,4.9c0.7-0.4,1.3-0.9,1.9-1.3C7.9,34.7,9.1,34,9.1,34s1.6,6.7,1.7,8.1c0,0.3,0.1,2.1,0.1,3.9h22
		c0-1.8,0.1-3.6,0.1-3.9c0.1-1.3,1.7-8.1,1.7-8.1s1.2,0.7,3.2,2.3c0.6,0.4,1.2,0.9,1.9,1.3l4-4.9C43.5,32.4,40.3,28.9,40.3,28.9z
		 M25.5,32.3c1.7,1.6,2.5,3.9,0.4,4.5c-2,0.6-6,0.5-5.8-1.2c0.2-1.8,0.2-3.5,0.2-4.9C20.2,29.5,23.8,30.7,25.5,32.3z M12.4,39.1
		c-1.8-2.3,0.5-15.6,5.4-16.6c1.4-0.3,1.3,1.3,1.2,4c1-0.8,1.7-1.8,1.7-3.2c0-1.6,0-8.5,0-8.5h1.1c0,0,0,6.8,0,8.5
		c-0.1,2.2-1.5,3.7-2.9,4.6c0,0.2,0,0.4,0,0.7c0,5.7,0.3,8.8-1.2,9.2C15,38.6,13.3,40.3,12.4,39.1z M30.7,42.6
		c-0.2,0.2-0.5,0.1-0.7-0.1c0,0-0.1-0.1-0.3-0.3c-0.3-0.2-0.7-0.5-1.3-0.8c-1.2-0.6-3.3-1.2-6.5-1.2c-4.9,0-7.1,1.4-7.8,2
		c-0.3,0.2-0.3,0.3-0.3,0.3c-0.1,0.1-0.2,0.2-0.4,0.2c-0.1,0-0.2,0-0.3-0.1c-0.2-0.2-0.2-0.5-0.1-0.7c0.1-0.1,2.2-2.7,8.9-2.7
		c6.7,0,8.9,2.6,8.9,2.7v0C31,42.2,30.9,42.5,30.7,42.6z"/>
</g>
<g>
</g>
<g>
</g>
<g>
</g>
<g>
</g>
<g>
</g>
<g>
</g>
<g>
</g>
<g>
</g>
<g>
</g>
<g>
</g>
<g>
</g>
<g>
</g>
<g>
</g>
<g>
</g>
<g>
</g>
</svg>
