<?xml version="1.0" encoding="utf-8"?>
<!-- Generator: Adobe Illustrator 18.1.1, SVG Export Plug-In . SVG Version: 6.00 Build 0)  -->
<svg version="1.1" id="Layer_1" xmlns="http://www.w3.org/2000/svg" xmlns:xlink="http://www.w3.org/1999/xlink" x="0px" y="0px"
	 viewBox="0 0 37.6 33.1" enable-background="new 0 0 37.6 33.1" xml:space="preserve">
<g>
	<path d="M22,16.7c1.2,0.5,3.1,1.1,6,1.1c2,0,4.6-0.3,7.7-1C33.2,9.1,29,1.5,24.6,0.4C20.7-0.5,22,4.7,22,11.9c-1.2-1-2-2.4-2.1-4.6
		c0,0,0,0,0-0.1c0-1.6,0-7.2,0-7.2h0h0h-2.2h0h0c0,0,0,5.6,0,7.2c0,0,0,0,0,0.1c0,2.3-0.9,3.6-2.1,4.6c0-7.2,1.3-12.4-2.6-11.5
		c-4.4,1-8.6,8.7-11,16.3c3.1,0.7,5.6,1,7.7,1c2.9,0,4.8-0.6,6-1.1c0-0.6,0-1.2,0-1.9c1.2-0.7,2.4-1.7,3.2-3.1
		c0.8,1.4,2,2.4,3.2,3.1C22,15.5,22,16.1,22,16.7z M35.9,17.8c-3.2,0.8-5.8,1.1-8,1.1c0,0,0,0,0,0c-2.7,0-4.6-0.5-6-1
		c-0.1,7.3,0,11.4,2.7,12.1c6,1.5,9.8,4.7,11.9,2.4C38.3,30.4,37.8,24.2,35.9,17.8z M9.7,18.9C9.7,18.9,9.7,18.9,9.7,18.9
		c-2.2,0-4.8-0.3-8-1.1c-1.9,6.4-2.4,12.6-0.6,14.5c2.1,2.3,5.9-1,11.9-2.4c2.7-0.7,2.8-4.8,2.7-12.1C14.4,18.4,12.5,18.9,9.7,18.9z
		"/>
</g>
<g>
</g>
<g>
</g>
<g>
</g>
<g>
</g>
<g>
</g>
<g>
</g>
<g>
</g>
<g>
</g>
<g>
</g>
<g>
</g>
<g>
</g>
<g>
</g>
<g>
</g>
<g>
</g>
<g>
</g>
</svg>
