<?xml version="1.0" encoding="utf-8"?>
<!-- Generator: Adobe Illustrator 18.1.1, SVG Export Plug-In . SVG Version: 6.00 Build 0)  -->
<svg version="1.1" id="Layer_1" xmlns="http://www.w3.org/2000/svg" xmlns:xlink="http://www.w3.org/1999/xlink" x="0px" y="0px"
	 viewBox="0 0 52.3 28.5" enable-background="new 0 0 52.3 28.5" xml:space="preserve">
<g>
	<path d="M49.6,0.4C49.1,0.1,48.5,0,47.9,0c-2.7,0.1-4.8,2.4-6.2,5c-1.9-0.7-5.7,1.9-15.6,1.9S12.5,4.3,10.6,5
		C9.2,2.4,7.1,0.1,4.3,0C3.8,0,3.2,0.1,2.6,0.4C0.7,1.2,0,3.3,0,5.5c0,5,3.6,12,9.6,15.1c1.3,3.3,5.5,8,16.5,8c11,0,15.2-4.6,16.5-8
		c6-3.1,9.6-10.1,9.6-15.1C52.3,3.3,51.5,1.2,49.6,0.4z M9.4,18.3c-4.7-3-7.6-9-7.6-12.8c0-1.8,0.6-2.9,1.5-3.4
		C3.7,1.9,4,1.9,4.3,1.9c1.6-0.1,3.8,2.2,5,4.8c-0.2,1.4,0.7,3,0.7,6.4C10,16.1,9.6,17.4,9.4,18.3z M16.8,21.8
		c-0.1,0.4-0.5,0.6-0.9,0.6c-0.1,0-0.2,0-0.3-0.1c-0.5-0.2-0.8-0.7-0.6-1.2c0.5-1.5,0.7-2.9,0.7-4.2c0-3.9-2-6.5-2.9-7.6
		c-0.3-0.3-0.5-0.5-0.5-0.5c-0.4-0.3-0.4-0.9-0.1-1.3c0.3-0.4,0.9-0.4,1.3-0.1c0.1,0.1,4.1,3.5,4.1,9.5
		C17.6,18.5,17.3,20.1,16.8,21.8z M40,8.9c0,0-0.2,0.2-0.5,0.5c-1,1.1-2.9,3.7-2.9,7.6c0,1.3,0.2,2.6,0.7,4.2c0.2,0.5-0.1,1-0.6,1.2
		c-0.1,0-0.2,0.1-0.3,0.1c-0.4,0-0.8-0.2-0.9-0.6c-0.6-1.7-0.8-3.3-0.8-4.8c0-6,4-9.5,4.1-9.5c0.4-0.3,1-0.3,1.3,0.1
		C40.4,8,40.4,8.6,40,8.9z M42.8,18.3c-0.2-0.9-0.6-2.2-0.6-5.2c0-3.4,0.8-5,0.7-6.4c1.2-2.6,3.4-4.9,5-4.8c0.3,0,0.6,0.1,0.9,0.2
		c1,0.4,1.5,1.5,1.5,3.4C50.5,9.3,47.5,15.3,42.8,18.3z"/>
</g>
<g>
</g>
<g>
</g>
<g>
</g>
<g>
</g>
<g>
</g>
<g>
</g>
<g>
</g>
<g>
</g>
<g>
</g>
<g>
</g>
<g>
</g>
<g>
</g>
<g>
</g>
<g>
</g>
<g>
</g>
</svg>
