<?xml version="1.0" encoding="utf-8"?>
<!-- Generator: Adobe Illustrator 18.1.1, SVG Export Plug-In . SVG Version: 6.00 Build 0)  -->
<svg version="1.1" id="Layer_1" xmlns="http://www.w3.org/2000/svg" xmlns:xlink="http://www.w3.org/1999/xlink" x="0px" y="0px"
	 viewBox="0 0 36 45" enable-background="new 0 0 36 45" xml:space="preserve">
<g>
	<path d="M21,0c-4.8,4-7.9,8.6-9.8,12.9h1.5C14.4,8.4,16.9,3.6,21,0z M26.9,19.6c0-0.1,0.1-0.3,0.1-0.4c0.3-1,0.5-1.9,0.5-2.6
		c0-2-1-3.1-1.7-3.7h-13c-0.8,2.4-1.4,4.7-1.8,6.7H26.9z M26.5,29.1c0,0.5,0.1,1,0.1,1.5c0.5-0.4,1.2-0.7,1.9-0.7
		c1.7,0,3.1,1.4,3.1,3.1c0,1.7-1.4,3.1-3.1,3.1c0.1,0.3,0.2,0.7,0.2,1.1c0,1.7-1.4,3.1-3.1,3.1s-3.1-1.4-3.1-3.1
		c0-0.4,0.1-0.8,0.2-1.1c-1.7,0-3.1-1.4-3.1-3.1c0-1.7,1.4-3.1,3.1-3.1c0.7,0,1.3,0.2,1.9,0.6c-0.1-0.5-0.1-1-0.1-1.5
		c0-2.3,0.7-4.8,1.6-7.7H10.6c-0.5,3.1-0.5,5.3-0.5,5.8c0,4.2,2,6.2,2,8.4c0,2.6-1.2,5-2.9,5c-1.8,0-3.2-2.1-3.2-4.8
		c0-2.2,1.5-4.9,1.9-8.2c0.1-0.8,0.2-3.1,0.8-6.2H0V45h36V21.5h-7.8C27.2,24.5,26.5,27,26.5,29.1z M11.3,12.9H0v6.7h9.1
		C9.5,17.6,10.2,15.3,11.3,12.9z M28.3,12.9c0.6,0.9,1,2.1,1.1,3.7c0,0.9-0.2,1.9-0.5,3H36v-6.7H28.3z"/>
</g>
<g>
</g>
<g>
</g>
<g>
</g>
<g>
</g>
<g>
</g>
<g>
</g>
<g>
</g>
<g>
</g>
<g>
</g>
<g>
</g>
<g>
</g>
<g>
</g>
<g>
</g>
<g>
</g>
<g>
</g>
</svg>
