<?xml version="1.0" encoding="utf-8"?>
<!-- Generator: Adobe Illustrator 18.1.1, SVG Export Plug-In . SVG Version: 6.00 Build 0)  -->
<svg version="1.1" id="Layer_1" xmlns="http://www.w3.org/2000/svg" xmlns:xlink="http://www.w3.org/1999/xlink" x="0px" y="0px"
	 viewBox="0 0 46.1 47.4" enable-background="new 0 0 46.1 47.4" xml:space="preserve">
<g>
	<path d="M0,47.4h45.4c0.1-1.7,0.2-3.8,0.2-5.9c0-3.1,0.4-4.6,0.4-8.7c0-1.1,0.2-2.3,0.2-3.8c0-2.6-1.2-4-2.5-4.7
		c-1.1-0.5-6.4-2.5-6.4-3.7c0-0.2,0-0.8,0-1.4c1,0,2-0.5,2.4-1.3c0.2-0.3,0.3-1.2,0.3-1.5c0-0.5,0.3-0.7,0.5-1.1
		c0.3-0.4,0.9-1.4,0.3-2.4c-0.3-0.6-1.1-1.2-1.6-2.2c-0.2-0.4-0.4-1.5-0.4-1.8l0,0c-0.1-2.9-2.4-4.2-5.1-4.5
		c-1.9-0.2-2.8,0.6-3.3,1.6c-0.1,0.1-0.3,0.2-0.4,0.3c-0.6,0.7-1.1,1.4-1.1,2.6l0,0c0,0.2-0.2,1.4-0.4,1.8c-0.5,1-1.2,1.6-1.6,2.2
		c-0.6,1,0.1,2,0.3,2.4c0.3,0.4,0.5,0.6,0.5,1.1c0,0.3,0.2,1.2,0.3,1.5c0.5,0.9,1.7,1.4,2.8,1.3c0,0.6,0,1.3,0,1.5
		c0,0.5-0.9,1.1-2.1,1.7c-0.3-0.2-0.5-0.4-0.8-0.5c-1.2-0.6-9-3.5-9-4.8c0,0,0,0,0,0c0-0.3-0.1-2-0.1-2.8c0.1-0.1,0.2-0.3,0.4-0.4
		c0.4-0.5,0.7-1.2,0.9-2.6c0.4-0.2,0.7-1.1,1-1.8c0.3-0.9,0.1-1.7-0.5-1.9c0.1-0.7,0.3-1.6,0.3-2.6c0-3.2-2.6-4.5-5.7-4.9
		c-2.1-0.2-3.1,0.6-3.6,1.7c-0.1,0.1-0.3,0.2-0.4,0.3c-0.9,1-1.5,1.8-1.2,4.2c0.1,0.5,0.2,0.9,0.2,1.3c-0.7,0.2-0.8,1-0.6,1.9
		c0.2,0.8,0.6,1.7,0.9,1.8c0.2,1.3,0.6,2.1,0.9,2.6c0.1,0.1,0.2,0.3,0.4,0.4c0,0.7-0.1,2.5-0.1,2.8c0,1.3-7.8,4.2-9,4.8
		c-1.5,0.7-2.8,2.9-2.8,5.7c0,0.2,0.2,2.2,0.2,3.3C0.1,35,0.2,37.4,0.2,41C0,43.2,0,45.5,0,47.4z"/>
</g>
<g>
</g>
<g>
</g>
<g>
</g>
<g>
</g>
<g>
</g>
<g>
</g>
<g>
</g>
<g>
</g>
<g>
</g>
<g>
</g>
<g>
</g>
<g>
</g>
<g>
</g>
<g>
</g>
<g>
</g>
</svg>
