<?xml version="1.0" encoding="utf-8"?>
<!-- Generator: Adobe Illustrator 18.1.1, SVG Export Plug-In . SVG Version: 6.00 Build 0)  -->
<svg version="1.1" id="Layer_1" xmlns="http://www.w3.org/2000/svg" xmlns:xlink="http://www.w3.org/1999/xlink" x="0px" y="0px"
	 viewBox="0 0 24.9 43.1" enable-background="new 0 0 24.9 43.1" xml:space="preserve">
<g>
	<path d="M24.2,28.6c0-1.9-1.6-3.5-3.5-3.5H3.5l0,0c-0.2,0-0.3-0.2-0.3-0.3c0-0.2,0.2-0.4,0.3-0.4h4.3h3c1.9,0,3.5-1.6,3.5-3.5v-1
		c6.8-0.7,10.6-5,10.6-9.7c0-9.8-7.7-8.6-9.8-6.3H14c-0.2,0-0.4-0.2-0.4-0.3V0h-3.2h0v3.5C10.5,5.4,12,7,14,7h1.2
		c0.5,3.1,0.1,7.9-3.3,7.9c-3.2,0-3.4,4.1-0.7,4.9v1.1c0,0.2-0.2,0.3-0.3,0.3h-3v0l-4.3,0c-1.9,0-3.5,1.6-3.5,3.5
		c0,1.9,1.6,3.5,3.5,3.5l0,0l17.2,0c0.2,0,0.3,0.2,0.3,0.4c0,0.2-0.2,0.3-0.3,0.3l0,0H3.5c-1.9,0-3.5,1.6-3.5,3.5
		C0,34.4,1.6,36,3.5,36l0,0l17.2,0c0.2,0,0.3,0.2,0.3,0.4c0,0.2-0.2,0.3-0.3,0.3v0v0H12c-1.9,0-3.5,1.6-3.5,3.5v3h3.2l0-3
		c0-0.2,0.2-0.4,0.4-0.4h8.7l0,0c1.9,0,3.5-1.6,3.5-3.5c0-1.9-1.6-3.5-3.5-3.5H3.5h0v0c-0.2,0-0.3-0.2-0.3-0.4
		c0-0.2,0.2-0.3,0.3-0.3h17.2v0C22.7,32.1,24.2,30.5,24.2,28.6z"/>
</g>
<g>
</g>
<g>
</g>
<g>
</g>
<g>
</g>
<g>
</g>
<g>
</g>
<g>
</g>
<g>
</g>
<g>
</g>
<g>
</g>
<g>
</g>
<g>
</g>
<g>
</g>
<g>
</g>
<g>
</g>
</svg>
