<?xml version="1.0" encoding="utf-8"?>
<!-- Generator: Adobe Illustrator 18.1.1, SVG Export Plug-In . SVG Version: 6.00 Build 0)  -->
<svg version="1.1" id="Layer_1" xmlns="http://www.w3.org/2000/svg" xmlns:xlink="http://www.w3.org/1999/xlink" x="0px" y="0px"
	 viewBox="0 0 33.8 41.2" enable-background="new 0 0 33.8 41.2" xml:space="preserve">
<g>
	<path d="M0.9,24.1c0.4,0.2,1.4,0,1.6,0.6c0.1,0.4-0.4,1.3-0.6,2c-0.2,0.4,0.7,1.4,1.1,1.5c0,0-0.7,0.8-0.5,1.3
		c0.2,0.5,1.2,0.5,1,1.2c-0.2,0.7-1,2.4,0.5,3.3c1.5,1,2.4,1,3.5,1c1.2,0,2.1-0.1,2.7,1c0.2,0.4,0.3,2.8,0.3,5.1h17.9
		c-0.3-0.6-0.6-1.2-0.8-1.8c-1.6-3.6,0.2-9.2,1.5-13.5c1-3.2,3.8-4.6,4.6-10.3c1-7.2-2.4-10.5-5.6-12.8C25.1,0.7,21.5-0.5,16,0.2
		C10.4,1,6.5,4.4,6.5,4.4S5.2,5.6,4.4,7.8c0.3-0.1,0.6-0.2,1-0.3l0.2,0.9C4.9,8.7,4.3,8.9,4.1,8.9C4,9.2,3.9,9.5,3.9,9.8
		c-0.4,2.1-0.7,3.3-0.8,4.1c0.4,0,0.7,0,1.1,0l0,1c-0.3,0-0.6,0-1,0c0.1,0.1,0.1,0.2,0.2,0.4c0,0,0.4,1.1,0.5,2
		c-0.4,0.3-1,0.6-2.1,0.6c0.7,0.3,1.3,0.5,1.8,0.6C2.7,20.2,0,22.2,0,22.7C0,23.2,0.4,23.9,0.9,24.1z M6.7,26.1
		c0-0.7,0.1-1.5,0.2-2.2l1,0.2c-0.1,0.7-0.2,1.4-0.2,2c0,0,0,0.1,0,0.1l-1,0C6.7,26.2,6.7,26.2,6.7,26.1z M8.1,20.6l0.8,0.5
		c-0.3,0.6-0.6,1.3-0.8,2l-0.9-0.3C7.4,22.1,7.7,21.3,8.1,20.6z M7.8,14c0.6,0,1.2-0.1,1.8-0.2l0.1,1c-0.6,0.1-1.2,0.1-1.9,0.2
		L7.8,14z M7.3,29.7C7,29,6.9,28.2,6.8,27.4l1-0.1c0.1,0.8,0.2,1.5,0.4,2.1L7.3,29.7z M9.7,32.5c-0.9-0.1-1.5-0.8-2-1.7l0.9-0.5
		c0.4,0.7,0.9,1.1,1.3,1.2L9.7,32.5z M9.6,20c-0.1,0.1-0.1,0.1-0.2,0.2l-0.8-0.6c0.1-0.1,0.1-0.2,0.2-0.2c0.4-0.5,1-1,1.7-1.3L11,19
		C10.4,19.3,10,19.6,9.6,20z M14,17.2l0.1,1c-0.7,0-1.4,0.2-2.1,0.4l-0.3-0.9C12.4,17.4,13.2,17.3,14,17.2z M13.2,13
		c0.6-0.2,1.2-0.5,1.5-0.8h0l0.5,0.8c-0.5,0.3-1.1,0.6-1.8,0.9L13.2,13z M10.7,14.6l-0.2-1c0.7-0.1,1.2-0.2,1.8-0.4l0.3,0.9
		C12,14.4,11.4,14.5,10.7,14.6z M10.5,32.5c0,0-0.1,0-0.1,0l0-1c0,0,0.1,0,0.1,0c0.6,0,1.2-0.1,1.9-0.4l0.3,0.9
		C12,32.4,11.2,32.5,10.5,32.5z M13.8,31.6l-0.5-0.9c0.6-0.3,1.2-0.7,1.8-1.2h0l0.6,0.7C15.1,30.8,14.5,31.3,13.8,31.6z M16.6,29.5
		l-0.7-0.7c0.5-0.5,1-1,1.4-1.6l0.8,0.6C17.6,28.4,17.1,29,16.6,29.5z M20.5,21.6c0,0.3,0,0.7-0.1,1.1c-0.1,0.3-0.2,0.7-0.3,1
		l-0.9-0.3c0.1-0.3,0.2-0.6,0.2-0.9c0.1-0.3,0.1-0.6,0.1-0.9c0-0.1,0-0.1,0-0.2h0l1-0.1C20.5,21.4,20.5,21.5,20.5,21.6z M18.6,18.2
		c0.7,0.4,1.3,1.1,1.7,1.9l-0.9,0.4c-0.2-0.6-0.7-1-1.3-1.4l0,0L18.6,18.2z M18.9,24.4L18.9,24.4L18.9,24.4
		C18.9,24.4,18.9,24.4,18.9,24.4l0.9,0.4c-0.3,0.7-0.6,1.4-1,2.1l-0.8-0.5C18.3,25.7,18.6,25.1,18.9,24.4z M17.1,18.6
		c-0.6-0.2-1.3-0.4-2-0.4l0.1-1c0.8,0,1.6,0.2,2.3,0.5L17.1,18.6z M16.8,10.6c0,0.6-0.2,1.2-0.7,1.8l-0.7-0.6
		c0.4-0.4,0.5-0.8,0.5-1.1c0-0.1,0-0.1,0-0.2h0l1-0.1C16.8,10.4,16.8,10.5,16.8,10.6z M14.4,8.7C14.4,8.7,14.4,8.7,14.4,8.7l0.5-0.8
		c0.7,0.4,1.2,0.8,1.5,1.4l-0.8,0.5C15.3,9.4,14.9,9,14.4,8.7L14.4,8.7L14.4,8.7z M12,7c0.6,0.1,1.3,0.2,1.9,0.5l-0.3,0.9
		c-0.5-0.2-1.1-0.3-1.7-0.4L12,7z M10.3,6.9c0.3,0,0.5,0,0.8,0l-0.1,1c-0.2,0-0.5,0-0.8,0c-0.3,0-0.7,0-1,0l-0.1-1
		C9.5,6.9,9.9,6.9,10.3,6.9z M8.2,7l0.1,1C7.7,8.1,7.1,8.2,6.6,8.3l-0.2-1C6.9,7.2,7.6,7.1,8.2,7z M5.1,14c0.2,0,0.4,0,0.6,0
		c0.4,0,0.9,0,1.3,0l0,1c-0.4,0-0.8,0-1.3,0c-0.2,0-0.4,0-0.6,0L5.1,14z"/>
</g>
<g>
</g>
<g>
</g>
<g>
</g>
<g>
</g>
<g>
</g>
<g>
</g>
<g>
</g>
<g>
</g>
<g>
</g>
<g>
</g>
<g>
</g>
<g>
</g>
<g>
</g>
<g>
</g>
<g>
</g>
</svg>
