<?xml version="1.0" encoding="utf-8"?>
<!-- Generator: Adobe Illustrator 18.1.1, SVG Export Plug-In . SVG Version: 6.00 Build 0)  -->
<svg version="1.1" id="Layer_1" xmlns="http://www.w3.org/2000/svg" xmlns:xlink="http://www.w3.org/1999/xlink" x="0px" y="0px"
	 viewBox="0 0 28.1 40.7" enable-background="new 0 0 28.1 40.7" xml:space="preserve">
<g>
	<path d="M28.1,23.6c0-2.7-1.6-4.5-2.8-5.7c-1.1-1.1-7.3-4.6-7.3-4.6s0.4-0.9,0.6-2.2c0.4-0.2,0.7-1.1,0.9-1.8
		c0.2-0.5,0.2-1.1,0-1.4c0.5-0.7,0.8-1.7,0.5-2.5c-0.4-1.1-1.4-2.7-1.4-2.7v0C17.9,1.2,16.4,0,14.1,0s-3.9,1.2-4.6,2.8v0
		c0,0-1,1.6-1.4,2.7C7.8,6.3,8,7.2,8.5,7.9c-0.2,0.4-0.2,0.9,0,1.4c0.2,0.8,0.6,1.7,0.9,1.8c0.2,1.3,0.6,2.2,0.6,2.2
		S3.9,16.9,2.8,18C1.6,19.2,0,20.9,0,23.6c0,0.2,0.2,3.7,0.2,4.8c-0.3,4.3-0.1,12.2-0.1,12.2h12.5h1.4h1.4h1.2V25.5
		c0-1.4-1.2-2.6-2.6-2.6c-1.4,0-2.6,1.2-2.6,2.6c0,0.4-0.4,0.8-0.8,0.8c-0.4,0-0.8-0.4-0.8-0.8c0-2.3,1.9-4.2,4.2-4.2
		c2.3,0,4.2,1.9,4.2,4.2l0,15.2H28c0,0,0.3-7.9-0.1-12.2C27.9,27.4,28.1,23.9,28.1,23.6z"/>
</g>
<g>
</g>
<g>
</g>
<g>
</g>
<g>
</g>
<g>
</g>
<g>
</g>
<g>
</g>
<g>
</g>
<g>
</g>
<g>
</g>
<g>
</g>
<g>
</g>
<g>
</g>
<g>
</g>
<g>
</g>
</svg>
