<?xml version="1.0" encoding="utf-8"?>
<!-- Generator: Adobe Illustrator 18.1.1, SVG Export Plug-In . SVG Version: 6.00 Build 0)  -->
<svg version="1.1" id="Layer_1" xmlns="http://www.w3.org/2000/svg" xmlns:xlink="http://www.w3.org/1999/xlink" x="0px" y="0px"
	 viewBox="0 0 38.6 36" enable-background="new 0 0 38.6 36" xml:space="preserve">
<g>
	<path d="M19.3,12.2c1.3,0,2.5,0.3,3.5,1L29,2.6C26.1,0.9,22.8,0,19.3,0c-3.5,0-6.8,0.9-9.7,2.6l6.1,10.6
		C16.8,12.6,18,12.2,19.3,12.2z M12.2,19.3H0C0,26.5,3.9,32.7,9.7,36l6.1-10.6C13.7,24.2,12.2,21.9,12.2,19.3z M26.4,19.3
		c0,2.6-1.4,4.9-3.5,6.1L29,36c5.8-3.3,9.7-9.6,9.7-16.7H26.4z M24.8,19.3c0-3-2.4-5.5-5.5-5.5c-3,0-5.5,2.4-5.5,5.5
		c0,3,2.4,5.5,5.5,5.5C22.3,24.8,24.8,22.3,24.8,19.3z"/>
</g>
<g>
</g>
<g>
</g>
<g>
</g>
<g>
</g>
<g>
</g>
<g>
</g>
<g>
</g>
<g>
</g>
<g>
</g>
<g>
</g>
<g>
</g>
<g>
</g>
<g>
</g>
<g>
</g>
<g>
</g>
</svg>
