<?xml version="1.0" encoding="utf-8"?>
<!-- Generator: Adobe Illustrator 18.1.1, SVG Export Plug-In . SVG Version: 6.00 Build 0)  -->
<svg version="1.1" id="Layer_1" xmlns="http://www.w3.org/2000/svg" xmlns:xlink="http://www.w3.org/1999/xlink" x="0px" y="0px"
	 viewBox="0 0 29.9 44.6" enable-background="new 0 0 29.9 44.6" xml:space="preserve">
<g>
	<path d="M29.9,12.9c0.3-6.6-3.4-9.7-6.2-11.2c-2.8-1.5-5.3-2.1-10.1-1.5c-4.8,0.7-7.8,4-7.8,4S3.4,6.7,2.9,9.8
		c-0.5,3.1-0.6,3.7,0.1,4.5c0,0,0.1,0.4-0.2,0.9c0,0-2.8,4.5-2.8,4.9c0,0.5,0.4,1,0.8,1.2c0.4,0.2,1.2,0,1.4,0.5
		c0.1,0.3-0.6,1.3-0.5,1.8c0.1,0.4,0.5,1.1,0.9,1.2c0,0-0.5,1-0.3,1.4c0.2,0.5,0.9,0.2,0.7,0.8c-0.2,0.6-1,2.6,0.3,3.4
		c1.3,0.8,2,0.9,3.1,0.9c1,0,2.3-0.1,2.9,0.9c0.3,0.5,0.1,4.5-1.1,5.7c-2.2,2.2-4,4.6-4.6,6.6h24.3c-0.4-3.2-2.3-7.8-2.7-9.9
		c-0.6-3.4,0.1-8,1.2-11.7C27.2,20.2,29.5,19.5,29.9,12.9z M21.5,18.8c-1.3-1.1-2.3-2.4-5.9-3.6C10.4,13.2,3.5,14.8,5.5,9
		c1.4-4,6.4-7.4,13-6.5C32.2,4.3,26.7,23.2,21.5,18.8z"/>
</g>
<g>
</g>
<g>
</g>
<g>
</g>
<g>
</g>
<g>
</g>
<g>
</g>
<g>
</g>
<g>
</g>
<g>
</g>
<g>
</g>
<g>
</g>
<g>
</g>
<g>
</g>
<g>
</g>
<g>
</g>
</svg>
