<?xml version="1.0" encoding="utf-8"?>
<!-- Generator: Adobe Illustrator 18.1.1, SVG Export Plug-In . SVG Version: 6.00 Build 0)  -->
<svg version="1.1" id="Layer_1" xmlns="http://www.w3.org/2000/svg" xmlns:xlink="http://www.w3.org/1999/xlink" x="0px" y="0px"
	 viewBox="0 0 32.9 45.6" enable-background="new 0 0 32.9 45.6" xml:space="preserve">
<g>
	<path d="M32,37.6L32,37.6l-8.7-15.1V11h-1.7V8.1h-2.7V0h-1.7v26.5h1.7V14.3h2.7l0,8.6l3.6,6.3H7.6l3.6-6.3v-8.6H14v12.2h1.7V0H14
		v8.1h-2.8V11H9.6v11.5L1,37.4c-0.6,1-1,2.2-1,3.3h0c0,0,0,0,0,0c0,1.4,0.6,2.8,1.7,3.6c1.1,0.9,2.5,1.2,4,1.2h21.5
		c1.5,0,2.9-0.4,4-1.2c1.1-0.9,1.7-2.2,1.7-3.6l0,0v-0.1C32.9,39.6,32.6,38.6,32,37.6z"/>
</g>
<g>
</g>
<g>
</g>
<g>
</g>
<g>
</g>
<g>
</g>
<g>
</g>
<g>
</g>
<g>
</g>
<g>
</g>
<g>
</g>
<g>
</g>
<g>
</g>
<g>
</g>
<g>
</g>
<g>
</g>
</svg>
