<?xml version="1.0" encoding="utf-8"?>
<!-- Generator: Adobe Illustrator 18.1.1, SVG Export Plug-In . SVG Version: 6.00 Build 0)  -->
<svg version="1.1" id="Layer_1" xmlns="http://www.w3.org/2000/svg" xmlns:xlink="http://www.w3.org/1999/xlink" x="0px" y="0px"
	 viewBox="0 0 58 31.7" enable-background="new 0 0 58 31.7" xml:space="preserve">
<g>
	<path d="M51,0.5c-6.3,0-12.7,3.2-22,3.6C19.7,3.7,13.3,0.5,7,0.5C0.3,0.5,0,6.2,0,7c0,0.7,0.8,6.7,5.2,8.7c1,1,2.6,1.6,4.7,1.6
		c3.8,0,6.7-2.1,6.7-5.2C16.6,9.1,14,9,12,9c-0.1,0-0.1,0-0.2,0c-2,0-1.9-1.1-4.4-1.1c-0.9,0-1.5,0.2-2,0.6c0,0,0-0.1,0-0.1
		C5.1,8.6,4.9,8.7,4.6,8.7C4,8.7,3.4,7.8,3.4,6.4c0-1.4,1.3-3.2,6-3.2c4.4,0,13.5,2.4,16.4,5.7c-1.6-0.8-4-1.6-6-2.3
		c0.9,3.4,2.9,8.3,5.6,10.8v4.5c0,0-0.8,0.5-0.8,1.9c0,0.7,0,4.3,0,7.5c1.3,0.3,2.9,0.4,4.5,0.4c1.6,0,3.1-0.2,4.5-0.4
		c0-3.1,0-6.8,0-7.5c0-1.3-0.8-1.9-0.8-1.9v-4.5c2.7-2.5,4.7-7.4,5.6-10.8c-2.1,0.7-4.5,1.5-6,2.3c2.9-3.3,12-5.7,16.4-5.7
		c4.7,0,6,1.8,6,3.2c0,1.4-0.6,2.3-1.2,2.3c-0.3,0-0.5-0.1-0.8-0.2c0,0,0,0.1,0,0.1c-0.5-0.4-1.1-0.6-2-0.6C48,7.9,48.2,9,46.2,9
		C46.1,9,46,9,46,9c-2,0-4.6,0-4.6,3.1c0,3.1,3,5.2,6.7,5.2c2.1,0,3.7-0.7,4.7-1.6c4.3-2,5.2-8,5.2-8.7C58,6.2,57.7,0.5,51,0.5z
		 M37.1,1.8C35.4,0.7,32.4,0,29,0c-3.4,0-6.4,0.7-8.1,1.8C23.3,2.3,26,2.7,29,2.9C32,2.7,34.7,2.3,37.1,1.8z"/>
</g>
<g>
</g>
<g>
</g>
<g>
</g>
<g>
</g>
<g>
</g>
<g>
</g>
<g>
</g>
<g>
</g>
<g>
</g>
<g>
</g>
<g>
</g>
<g>
</g>
<g>
</g>
<g>
</g>
<g>
</g>
</svg>
