<?xml version="1.0" encoding="utf-8"?>
<!-- Generator: Adobe Illustrator 18.1.1, SVG Export Plug-In . SVG Version: 6.00 Build 0)  -->
<svg version="1.1" id="Layer_1" xmlns="http://www.w3.org/2000/svg" xmlns:xlink="http://www.w3.org/1999/xlink" x="0px" y="0px"
	 viewBox="0 0 26.2 40.5" enable-background="new 0 0 26.2 40.5" xml:space="preserve">
<g>
	<path d="M10.4,29.1c0.2-0.3,0.4-0.6,0.6-0.9c-1.1,1-2.6,1.9-4.2,2c-0.5,0-0.9-0.1-1.4-0.3c-0.3-0.1-0.6-0.3-0.8-0.4
		c0.1,0.8,0.5,1.7,1.7,2.1c0.2,0.1,0.4,0.1,0.6,0.1C8.1,31.6,9.4,30.4,10.4,29.1z M8.8,25.5C8.8,25.5,8.8,25.5,8.8,25.5
		c-0.8,0-1.7-0.2-2.5-0.7c-0.6-0.4-1-0.8-1.2-1.3c-0.2,0.3-0.3,0.7-0.3,1.1c0,0.5,0.2,1,0.9,1.6c0.4,0.3,1,0.5,1.6,0.5
		c1.1,0,2.6-0.6,3.7-1.2c0.4-0.2,0.8-0.5,1.1-0.7C11.3,25.1,10.1,25.5,8.8,25.5z M7.3,27.7C7.3,27.7,7.3,27.7,7.3,27.7
		c-0.8,0-1.6-0.2-2.3-0.7c-0.2-0.2-0.4-0.3-0.5-0.5c0,0.2-0.1,0.4-0.1,0.6c0,0.7,0.2,1.4,1.4,1.9c0.3,0.1,0.6,0.2,0.9,0.2
		c1.2,0,2.6-0.9,3.7-1.9c0.2-0.2,0.4-0.4,0.6-0.6C10,27.2,8.6,27.7,7.3,27.7z M9.1,31.8c-0.6,0.4-1.4,0.7-2.2,0.8
		c-0.3,0-0.6,0-0.9-0.1c-0.4-0.1-0.8-0.4-1.1-0.6c0,0.3,0.1,0.6,0.1,1c0,0,0,0,0,0.1c0.1,0.5,0.6,0.8,1.2,0.9
		C6.9,33.8,8,33.3,9.1,31.8z M11.9,21.9c0.1,0,0.1,0,0.2,0c0-0.1,0-0.2,0-0.3c0-0.1,0-0.2,0-0.3c0,0,0-0.1,0-0.1c0-0.6,0-1.1,0-1.5
		c-0.8-0.2-2.2-0.3-3.7-0.3c0,0,0,0,0,0c-0.6,0.4-0.9,0.9-0.9,1.2c0,0.5,0.5,1.2,2.9,1.3C10.9,22,11.4,22,11.9,21.9z M7.1,38.7
		C6.8,38.8,6.6,39,6.3,39c0,0,0,0,0,0c-1-0.1-1.2-0.9-1.6-1.7c-0.3-0.9-0.5-1.9-0.7-3c-0.3-2-0.4-4-0.4-4.3
		c-0.1-0.5-0.2-0.9-0.2-1.2c0-0.3,0-0.5,0-0.6l0,0c0,0,0-0.1,0-0.1c-0.1-0.3-0.2-0.7-0.2-1c0-1,0.4-1.8,0.5-1.9
		c0-0.2-0.1-0.4-0.1-0.5C3.8,23.1,4.9,22,5,22c0,0,0,0,0.1,0c0.4-1.2,1.5-1.9,1.5-2v0c0,0,0,0,0,0c0.1-0.2,0.2-0.4,0.3-0.6
		c-2.9,0.1-4.1,4.4-4.1,4.4s-0.7,0.9-1.7,1.8c-0.2,0.2-0.6,0.6-1.1,1v13.9h11.9v-1c0-0.3,0.1-5.2,0.3-10.6c-0.8,1.1-1.5,2.8-2.2,4.5
		C9.1,35.5,8.3,37.7,7.1,38.7z M6.6,21.4C6.3,21.7,6,22.2,6,22.6C6,23,6.2,23.5,7,24c0.5,0.3,1.2,0.5,1.8,0.5c0.8,0,1.7-0.2,2.4-0.4
		c0.5-0.2,0.8-0.3,1-0.4c0,0,0,0,0,0c0-0.2,0-0.5,0-0.7c0,0,0,0,0,0c0,0-0.1,0-0.1,0c-0.6,0.1-1.1,0.1-1.6,0.1
		c-1.3,0-2.3-0.2-2.9-0.6C7,22.1,6.8,21.8,6.6,21.4z M5.6,36.6c0.2,0.7,0.5,1.3,0.6,1.3c0,0,0,0,0.1,0c0.4-0.3,0.8-0.8,1.2-1.6
		c-0.5,0.3-0.9,0.4-1.3,0.4C6,36.7,5.8,36.7,5.6,36.6z M8.4,34c-0.7,0.5-1.5,0.7-2.2,0.8c0,0,0,0,0,0c-0.4,0-0.7-0.1-1-0.2
		c0,0.3,0.1,0.5,0.1,0.7c0,0,0,0,0,0c0,0,0,0,0,0.1c0,0,0.1,0.1,0.2,0.2c0.2,0.1,0.4,0.2,0.6,0.2C6.6,35.7,7.3,35.4,8.4,34z M0,24
		c0.7-0.7,1.2-1.2,1.4-1.5c0-1.1-0.1-1.5,0.3-2.1c0.1-0.1,0.3-0.2,0.4-0.3c-0.1-0.2-0.1-0.4,0-0.6c1-1,3.1-1,5.4-1.1
		c1.9,0,3.6,0.2,4.7,0.4c0,0,0-1.4,0.1-2.2H0V24z M20.7,29.9c-0.4,0.2-0.9,0.3-1.4,0.3c-1.6,0-3.1-1-4.2-2c0.2,0.3,0.4,0.6,0.6,0.9
		c0.9,1.4,2.3,2.6,3.5,2.5c0.2,0,0.4,0,0.6-0.1c1.1-0.3,1.5-1.3,1.7-2.1C21.3,29.6,21.1,29.7,20.7,29.9z M23.4,23.8
		c0,0-1.2-4.3-4.1-4.4c0.1,0.2,0.2,0.4,0.3,0.6c0,0,0,0,0,0v0c0,0,1.2,0.8,1.5,2c0,0,0,0,0.1,0c0,0,1.2,1.1,1.2,2.6
		c0,0.2,0,0.4-0.1,0.5c0.1,0.1,0.5,0.9,0.5,1.9c0,0.3,0,0.6-0.2,1c0,0,0,0.1,0,0.1l0,0c0,0,0,0.2,0,0.6c0,0.3,0,0.8-0.2,1.2
		c0,0.3-0.1,2.3-0.4,4.3c-0.2,1.1-0.4,2.2-0.7,3c-0.3,0.8-0.6,1.6-1.6,1.7c0,0,0,0,0,0c-0.3,0-0.6-0.1-0.8-0.3c-1.2-1-2-3.1-3-5.3
		c-0.7-1.7-1.4-3.3-2.2-4.5c0.2,5.4,0.3,10.3,0.3,10.6v1h11.9V26.7c-0.4-0.4-0.8-0.8-1.1-1C24.1,24.7,23.4,23.8,23.4,23.8z
		 M13.8,16.6c0,0.7,0.1,2.2,0.1,2.2c1.1-0.2,2.8-0.4,4.7-0.4c2.3,0,4.4,0.1,5.4,1.1c0.2,0.2,0.2,0.4,0,0.6c0.1,0.1,0.3,0.2,0.4,0.3
		c0.4,0.5,0.3,0.9,0.3,2.1c0.2,0.3,0.8,0.8,1.4,1.5v-7.4H13.8z M19.8,24.8c-0.8,0.5-1.6,0.7-2.4,0.7c0,0,0,0,0,0
		c-1.3,0-2.5-0.4-3.2-0.7c0.3,0.2,0.7,0.4,1.1,0.7c1.1,0.6,2.5,1.2,3.7,1.2c0.6,0,1.1-0.1,1.6-0.5c0.7-0.6,0.9-1.1,0.9-1.6
		c0-0.4-0.1-0.8-0.3-1.1C20.8,24,20.4,24.4,19.8,24.8z M21.2,32.8c0-0.3,0.1-0.7,0.1-1c-0.3,0.2-0.7,0.4-1.1,0.6
		c-0.3,0.1-0.6,0.1-0.9,0.1c-0.8,0-1.5-0.3-2.2-0.8c1.1,1.4,2.2,1.9,2.9,1.9C20.6,33.7,21,33.4,21.2,32.8
		C21.2,32.9,21.2,32.8,21.2,32.8z M21.6,26.5c-0.1,0.2-0.3,0.3-0.5,0.5c-0.7,0.5-1.5,0.7-2.2,0.7c0,0,0,0,0,0
		c-1.3,0-2.7-0.5-3.8-1.1c0.2,0.2,0.4,0.4,0.6,0.6c1.1,1,2.5,2,3.7,1.9c0.3,0,0.6-0.1,0.9-0.2c1.2-0.5,1.4-1.2,1.4-1.9
		C21.7,26.9,21.7,26.7,21.6,26.5z M14,22.9c0,0.2,0,0.5,0,0.7c0,0,0,0,0,0c0.2,0.1,0.5,0.2,1,0.4c0.7,0.2,1.5,0.4,2.4,0.4
		c0.7,0,1.3-0.1,1.8-0.5c0.8-0.5,1-1,1-1.4c0-0.4-0.3-0.9-0.6-1.2c-0.2,0.4-0.5,0.7-0.9,1C18,22.8,17,23,15.7,23c-0.5,0-1,0-1.6-0.1
		C14.1,22.9,14,22.9,14,22.9C14,22.9,14,22.9,14,22.9z M15.7,22c2.4,0,2.9-0.8,2.9-1.3c0-0.4-0.3-0.9-0.9-1.2c0,0,0,0,0,0
		c-1.5,0-2.8,0.2-3.7,0.3c0,0.4,0,0.9,0,1.5c0,0,0,0.1,0,0.1c0,0.1,0,0.2,0,0.3c0,0.1,0,0.2,0,0.3c0.1,0,0.1,0,0.2,0
		C14.8,22,15.3,22,15.7,22z M18.6,36.3c0.4,0.7,0.8,1.3,1.2,1.6c0.1,0,0.1,0,0.1,0c0.1,0,0.4-0.6,0.6-1.3c-0.2,0-0.3,0.1-0.5,0.1
		C19.5,36.7,19.1,36.6,18.6,36.3z M20.8,35.3C20.8,35.3,20.8,35.3,20.8,35.3C20.8,35.3,20.8,35.3,20.8,35.3c0.1-0.3,0.2-0.6,0.2-0.8
		c-0.3,0.1-0.6,0.2-1,0.2c0,0,0,0,0,0c-0.7,0-1.4-0.3-2.2-0.8c1,1.5,1.8,1.8,2.2,1.7c0.3,0,0.5-0.1,0.6-0.2
		C20.7,35.4,20.7,35.4,20.8,35.3z M5,10.2c0.2,0.1,0.6,0,0.6,0.2c0,0.1,0,0.3,0,0.5c0,0.2-0.2,0.3-0.1,0.5c0,0.2,0.2,0.3,0.4,0.4
		c0,0-0.2,0.2-0.2,0.4c0.1,0.2,0.4,0.4,0.3,0.6c-0.1,0.3-0.4,0.9,0.1,1.3c0.6,0.4,0.9,0.4,1.4,0.4c0.3,0,1,0,1.4,0.2
		c0,0.2,0,0.8,0,1.1h8.6c0,0,0-0.1,0-0.1c-0.3-1.8-0.4-3.5-0.4-4.9c0-1.7,1.3-1.5,1.5-4.5c0.2-3.1-1.4-4.8-2.7-5.5
		c-1.3-0.7-3-1-5.2-0.7C8.6,0.4,7.2,2,7.2,2s-1,1.1-1.3,2.6C5.7,6,5.7,6.3,6,6.6c0,0,0.1,0.2-0.1,0.4c0,0-0.9,1.9-1,2
		C4.7,9.2,4.6,9.4,4.6,9.6C4.6,9.8,4.8,10.1,5,10.2z"/>
</g>
<g>
</g>
<g>
</g>
<g>
</g>
<g>
</g>
<g>
</g>
<g>
</g>
<g>
</g>
<g>
</g>
<g>
</g>
<g>
</g>
<g>
</g>
<g>
</g>
<g>
</g>
<g>
</g>
<g>
</g>
</svg>
