<?xml version="1.0" encoding="utf-8"?>
<!-- Generator: Adobe Illustrator 18.1.1, SVG Export Plug-In . SVG Version: 6.00 Build 0)  -->
<svg version="1.1" id="Layer_1" xmlns="http://www.w3.org/2000/svg" xmlns:xlink="http://www.w3.org/1999/xlink" x="0px" y="0px"
	 viewBox="0 0 26 58.9" enable-background="new 0 0 26 58.9" xml:space="preserve">
<g>
	<path d="M13,10.5c2.9,0,5.3-2.4,5.3-5.3C18.3,2.4,15.9,0,13,0c-2.9,0-5.3,2.4-5.3,5.3C7.7,8.2,10.1,10.5,13,10.5z"/>
	<path d="M26,17.1c-0.1-2.3-1.5-4-2.7-4.7c-1.2-0.8-2.2-1-2.4-1l-0.4,0H5.5l-0.4,0c-2.3,0.3-3.9,1.8-4.5,3.2C0,15.9,0,17,0,17.3v0
		v15.2c0,1.3,1.1,2.4,2.4,2.4c1.4,0,2.4-1.1,2.4-2.4V17.4v0v0c0-0.1,0-0.4,0.1-0.6c0.2-0.2,0.1-0.3,0.8-0.5h0.9v40.3
		c0,1.3,1.1,2.4,2.4,2.4c1.3,0,2.4-1.1,2.4-2.4V35.6h2.9v20.9c0,1.3,1.1,2.4,2.4,2.4c1.3,0,2.4-1.1,2.4-2.4V16.2h0.8
		c0.2,0,0.4,0.2,0.6,0.3c0.2,0.2,0.4,0.3,0.4,0.9v15.1c0,1.3,1.1,2.4,2.4,2.4c1.3,0,2.4-1.1,2.4-2.4V17.3L26,17.1z"/>
</g>
<g>
</g>
<g>
</g>
<g>
</g>
<g>
</g>
<g>
</g>
<g>
</g>
<g>
</g>
<g>
</g>
<g>
</g>
<g>
</g>
<g>
</g>
<g>
</g>
<g>
</g>
<g>
</g>
<g>
</g>
</svg>
