<?xml version="1.0" encoding="utf-8"?>
<!-- Generator: Adobe Illustrator 18.1.1, SVG Export Plug-In . SVG Version: 6.00 Build 0)  -->
<svg version="1.1" id="Layer_1" xmlns="http://www.w3.org/2000/svg" xmlns:xlink="http://www.w3.org/1999/xlink" x="0px" y="0px"
	 viewBox="0 0 29.9 44.6" enable-background="new 0 0 29.9 44.6" xml:space="preserve">
<g>
	<path d="M14.3,44.1c-0.2,0.2-0.4,0.3-0.6,0.5h6.1c-0.2-2.1-0.7-4.8-1.2-7.6C18.1,39.2,16.9,41.9,14.3,44.1z M29.9,12.9
		c0.3-6.6-3.4-9.7-6.2-11.2c-2.8-1.5-5.3-2.1-10.1-1.5c-4.8,0.7-7.8,4-7.8,4S3.4,6.7,2.9,9.8c-0.5,3.1-0.6,3.7,0.1,4.5
		c0,0,0.1,0.4-0.2,0.9c0,0-2.8,4.5-2.8,4.9c0,0.5,0.4,1,0.8,1.2c0.4,0.2,1.2,0,1.4,0.5c0.1,0.3-0.6,1.3-0.5,1.8
		c0.1,0.4,0.5,1.1,0.9,1.2c0,0-0.5,1-0.3,1.4c0.2,0.5,0.9,0.2,0.7,0.8c-0.2,0.6-1,2.6,0.3,3.4c1.3,0.8,2,0.9,3.1,0.9
		c1,0,2.3-0.1,2.9,0.9c0.3,0.5,0.1,4.5-1.1,5.7c-2.2,2.2-4,4.6-4.6,6.6h8.4c0.6-0.3,1.1-0.7,1.7-1.2c3.7-3.1,4.2-7.3,4.2-9.3
		c0-0.2,0-0.4,0-0.5c-0.6-2.8-1.1-5.6-1.3-8c-0.1-0.7-0.1-1.4-0.1-2c0-0.8,0.1-1.4,0.1-1.4s-1.4,0.6-2.6,1.1c-3,1.5-5.6,4.1-5.6,4.1
		c-0.1,0-0.1,0.1-0.2,0.1c-0.1,0-0.1,0-0.2-0.1c-0.1-0.1-0.1-0.3,0-0.4c0,0,1.7-1.7,4-3.2c-0.5,0.1-1.1,0.1-1.8,0.1
		c-1.5,0-3.4-0.3-5.2-1.4c-0.1-0.1-0.2-0.2-0.1-0.3c0.1-0.1,0.2-0.2,0.3-0.1c1.7,1,3.5,1.3,5,1.3c4.2,0,6.6-3.8,7.3-7.7
		c0.4-2.1,4.3-1.6,3.3,1.6c-0.5,1.4-1.2,3.8-1.3,6.1c0,0.6-0.1,1.2,0,1.8c0.4,7.8,1.9,15.5,2.4,19.2h6.1c-0.4-3.2-2.3-7.8-2.7-9.9
		c-0.6-3.4,0.1-8,1.2-11.7C27.2,20.2,29.5,19.5,29.9,12.9z"/>
</g>
<g>
</g>
<g>
</g>
<g>
</g>
<g>
</g>
<g>
</g>
<g>
</g>
<g>
</g>
<g>
</g>
<g>
</g>
<g>
</g>
<g>
</g>
<g>
</g>
<g>
</g>
<g>
</g>
<g>
</g>
</svg>
