<?xml version="1.0" encoding="utf-8"?>
<!-- Generator: Adobe Illustrator 18.1.1, SVG Export Plug-In . SVG Version: 6.00 Build 0)  -->
<svg version="1.1" id="Layer_1" xmlns="http://www.w3.org/2000/svg" xmlns:xlink="http://www.w3.org/1999/xlink" x="0px" y="0px"
	 viewBox="0 0 33.9 45.3" enable-background="new 0 0 33.9 45.3" xml:space="preserve">
<g>
	<path d="M0,45.3h30.9v-4.9H0V45.3z M7.5,28.5l2.5-1.1l1.3,0.9V31l0.8,1.3h2.6l0.8-1.3v-2.7l1.2-1.9l-7.3-4.7l-1.2,1.9l0,0.1l0-0.1
		l-2.5,1.1l-0.8,1.3L6,28.3L7.5,28.5z M17,2.1h-1.1V0h-4.7v2.1h-1.1v18.6l6.9,4.5V2.1z M20.8,17.8c0.6,0.3,1.3,0.6,2,0.6
		c0.6,0,1.2-0.2,1.8-0.4c1.4,0.8,2.7,2.2,2.9,4.6c0.3,4.2-1.3,7.7-3.7,10.5H5.4v1.9h16.5c-2.1,1.9-4.6,3.4-6.8,4.4h12.8
		c5.4-4.2,7.8-14.5,4.5-19.9c-1.6-2.7-3.6-4.3-5.5-5.4c-0.1-2.2-1.9-4-4.1-4c-0.7,0-1.4,0.2-2,0.6l-1.6-4.1h-1.1V22h1.1L20.8,17.8z
		 M22.8,12.2c1.1,0,2.1,0.9,2.1,2.1s-0.9,2.1-2.1,2.1c-1.1,0-2.1-0.9-2.1-2.1S21.7,12.2,22.8,12.2z"/>
</g>
<g>
</g>
<g>
</g>
<g>
</g>
<g>
</g>
<g>
</g>
<g>
</g>
<g>
</g>
<g>
</g>
<g>
</g>
<g>
</g>
<g>
</g>
<g>
</g>
<g>
</g>
<g>
</g>
<g>
</g>
</svg>
