<?xml version="1.0" encoding="utf-8"?>
<!-- Generator: Adobe Illustrator 18.1.1, SVG Export Plug-In . SVG Version: 6.00 Build 0)  -->
<svg version="1.1" id="Layer_1" xmlns="http://www.w3.org/2000/svg" xmlns:xlink="http://www.w3.org/1999/xlink" x="0px" y="0px"
	 viewBox="0 0 30 45" enable-background="new 0 0 30 45" xml:space="preserve">
<g>
	<path d="M30,26.5c0-2.6-1.2-4.8-2.7-5.5c-1.2-0.6-8.7-3.4-8.7-4.6c0,0,0,0,0,0c0-0.3-0.1-2-0.1-2.7c0.1-0.1,0.2-0.3,0.4-0.4
		c0.4-0.5,0.7-1.2,0.9-2.5c0.4-0.2,0.7-1,0.9-1.8c0.3-0.8,0.1-1.6-0.5-1.8c0.1-0.7,0.2-1.5,0.2-2.5c0-3.1-2.6-4.4-5.5-4.7
		c-2.1-0.2-3,0.6-3.5,1.6C11.2,1.7,11.1,1.8,11,2C10.1,3,9.5,3.7,9.9,6c0.1,0.5,0.1,0.9,0.2,1.2c-0.6,0.2-0.8,1-0.5,1.8
		c0.2,0.7,0.6,1.6,0.9,1.8c0.2,1.3,0.5,2,0.9,2.5c0.1,0.1,0.2,0.3,0.4,0.4c0,0.7-0.1,2.4-0.1,2.7c0,0.3-0.3,0.6-0.9,0.9L17,34.3
		c2.6,0,5,0,6.2,0V41c-1.9,0-7,0-14.8,0c-5.2,0-4.6-6.8,0.2-6.8c0.2,0,0.5,0,0.8,0v-16c-2.3,1.2-5.7,2.5-6.5,2.8
		c-1.5,0.7-2.7,2.9-2.7,5.5c0,0.2,0.2,2.1,0.2,3.2c-0.3,4.2-0.2,6.5-0.2,10C0,41.5,0,43.3,0,45h25.6l0.2-2.6c0,0,3.7-0.1,3.7-1.2
		c0-2,0.7-7.2,0.4-11.3C29.8,28.7,30,26.8,30,26.5z"/>
</g>
<g>
</g>
<g>
</g>
<g>
</g>
<g>
</g>
<g>
</g>
<g>
</g>
<g>
</g>
<g>
</g>
<g>
</g>
<g>
</g>
<g>
</g>
<g>
</g>
<g>
</g>
<g>
</g>
<g>
</g>
</svg>
