<?xml version="1.0" encoding="utf-8"?>
<!-- Generator: Adobe Illustrator 18.1.1, SVG Export Plug-In . SVG Version: 6.00 Build 0)  -->
<svg version="1.1" id="Layer_1" xmlns="http://www.w3.org/2000/svg" xmlns:xlink="http://www.w3.org/1999/xlink" x="0px" y="0px"
	 viewBox="0 0 26.9 45" enable-background="new 0 0 26.9 45" xml:space="preserve">
<g>
	<path d="M20.1,35.3c0.1-1.5,0.3-2.3,0.5-3.8c0.3-1.7,0.5-4.9,0.5-4.9s1,2.4,1.6,3.5l4.2-1.8c-0.2-1-0.9-2.5-1.6-4
		c-0.9-2.3-0.7-5.7-3.3-6.5c-4.2-1.3-5.5-2.2-5.5-2.8c0-0.1,0-0.5,0-0.9c0.9,0,1.8-0.5,2.2-1.2c0.1-0.3,0.3-1.1,0.3-1.4
		c0-0.4,0.3-0.7,0.5-1c0.3-0.4,0.9-1.3,0.3-2.3C19.5,7.6,18.8,7,18.3,6C18.2,5.7,18,4.6,18,4.3l0,0c-0.1-2.8-2.3-4-4.9-4.3
		c-1.8-0.2-2.6,0.5-3.1,1.5C9.9,1.6,9.8,1.7,9.7,1.9c-0.6,0.7-1,1.3-1.1,2.5v0c0,0.2-0.2,1.3-0.3,1.7C7.8,7,7.1,7.6,6.8,8.1
		c-0.5,1,0,1.9,0.3,2.3c0.3,0.3,0.5,0.6,0.5,1c0,0.3,0.2,1.1,0.3,1.4c0.4,0.8,1.5,1.3,2.5,1.2c0,0.4,0,0.8,0,0.9
		c0,0.7-1.4,1.6-5.5,2.8c-2.7,0.8-2.4,4.2-3.3,6.5c-0.6,1.5-1.3,3.1-1.6,4l4.2,1.8c0.6-1.2,1.6-3.5,1.6-3.5s0.2,3.2,0.5,4.9
		c0.2,1.4,0.4,2.3,0.5,3.8C7,38.6,5,42,4.1,45h9.4h9.4C21.9,42,19.9,38.6,20.1,35.3z M9.1,21.3c0-2.4,2-4.4,4.4-4.4
		c2.4,0,4.4,2,4.4,4.4l0,8.8H17v-8.8c0-2-1.6-3.6-3.6-3.6c-2,0-3.6,1.6-3.6,3.6l1.9,0l-2.3,5.4l-2.3-5.4L9.1,21.3z M17.8,38.3
		c0,2.4-2,4.4-4.4,4.4c-2.4,0-4.4-2-4.4-4.4v-8.8h0.8v8.8c0,2,1.6,3.6,3.6,3.6c2,0,3.6-1.6,3.6-3.6h-1.9l2.3-5.4l2.3,5.4H17.8z"/>
</g>
<g>
</g>
<g>
</g>
<g>
</g>
<g>
</g>
<g>
</g>
<g>
</g>
<g>
</g>
<g>
</g>
<g>
</g>
<g>
</g>
<g>
</g>
<g>
</g>
<g>
</g>
<g>
</g>
<g>
</g>
</svg>
