<?xml version="1.0" encoding="utf-8"?>
<!-- Generator: Adobe Illustrator 18.1.1, SVG Export Plug-In . SVG Version: 6.00 Build 0)  -->
<svg version="1.1" id="Layer_1" xmlns="http://www.w3.org/2000/svg" xmlns:xlink="http://www.w3.org/1999/xlink" x="0px" y="0px"
	 viewBox="0 0 31.4 43.7" enable-background="new 0 0 31.4 43.7" xml:space="preserve">
<g>
	<path d="M30.9,40.2c-0.1-3-0.3-7.2-1.3-9.5c-0.6-1.5-0.6-5.1-0.9-7.9c0,0,0.6-1.2,0.2-2.7c-0.4-1.5-0.8-2.6-1.2-3.9
		c-0.7-2.4-0.9-6.5-3.5-9.8C23.8,5.9,24,5,24,4.5c0-0.7,0.5-0.6,0.6-1.9c0.1-1.3-0.6-2-1.1-2.3C23,0.1,22.3-0.1,21.4,0
		C20.5,0.2,20,0.8,20,0.8s-0.4,0.5-0.5,1c-0.1,0.6-0.1,0.7,0,0.9c0,0,0,0.1,0,0.2c0,0-0.4,0.8-0.4,0.8C19,3.8,18.9,3.9,18.9,4
		c0,0.1,0.1,0.2,0.1,0.2c0.1,0,0.2,0,0.3,0.1c0,0.1,0,0.1,0,0.2c0,0.1-0.1,0.1-0.1,0.2c0,0.1,0.1,0.1,0.1,0.2c0,0-0.1,0.1-0.1,0.2
		c0,0.1,0.2,0.1,0.1,0.3c0,0.1-0.2,0.4,0.1,0.5C19.8,6,19.9,6,20.1,6c0.1,0,0.4,0,0.6,0.1c0,0.1,0,0.4,0,0.5
		c0.1,0.3-0.5,1.2-0.7,1.2c-0.2,0-0.8,0.3-1.3,0.8c-0.5,0.5-0.7,1-0.9,1.4c-0.2,0.4-1.6,3.1-1.7,3.2c0,0-1.4,1-2.5,1.9
		c-1.6,1.3-2.8,1.6-3.6,2c-0.1,0-0.2,0.2-0.3,0.3H7.6H7.4c-0.1,0-1.6,0-2.7,1.3C4.1,19.8,4,21,3.9,21L1.7,39.1
		c-1,0.3-1.7,1.2-1.7,2.2c0,1.3,1,2.3,2.3,2.3c1.3,0,2.3-1,2.3-2.3c0-0.9-0.6-1.7-1.4-2.1l1.5-12.3h9.4l1.8,14.7
		c-1.9,1-3.5,1.8-0.7,1.8c3,0,3.7,0,4.9,0c1.1,0,0.5-1.4,1-2.9c0.9-2.9,2.5-6.5,2.9-9.2c0.1-0.6,0.3-1.4,0.7-2.3
		c0.4,1.1,1.2,2.3,1.5,2.8c1,2,2.1,7.1,2.1,8.7c0,1.5-7.8,3.3-3.2,3.3c3.4,0,4.3,0,5.6,0C32,43.7,31,42.4,30.9,40.2z M4.9,25.4
		l0.5-4.2c0,0,0-0.2,0.1-0.6c0.1-0.3,0.2-0.7,0.4-0.9c0.2-0.3,0.6-0.5,0.9-0.6c0.3-0.1,0.6-0.1,0.6-0.1h0.2H9c0,0,0,0,0,0
		c0,0.4,2.4,0.7,2.9,0.2c0,0,0.1-0.1,0.1-0.1c0.3,0.1,0.7,0.3,0.9,0.6c0.2,0.2,0.3,0.6,0.4,0.9c0.1,0.3,0.1,0.6,0.1,0.6l0.5,4.2H4.9
		z M20.4,30.6c-0.2,2.8-1.1,7.8-1.8,9.2c-0.2,0.3-0.7,0.7-1.3,1.1L14.9,21c0-0.1-0.1-1.3-0.8-2.2c-0.4-0.5-0.9-0.8-1.3-1
		c0.1-0.2,0.1-0.3,0.1-0.3s1.4-0.6,2.7-1.2c1.3-0.6,2.2-1,2.2-1l2.2-2.6c0.1,0.8,0.4,2.3,0.7,3.1c0.6,2.1,1.8,4.5,2.2,5.4
		C22.3,23.1,20.5,28.8,20.4,30.6z"/>
</g>
<g>
</g>
<g>
</g>
<g>
</g>
<g>
</g>
<g>
</g>
<g>
</g>
<g>
</g>
<g>
</g>
<g>
</g>
<g>
</g>
<g>
</g>
<g>
</g>
<g>
</g>
<g>
</g>
<g>
</g>
</svg>
