<?xml version="1.0" encoding="utf-8"?>
<!-- Generator: Adobe Illustrator 18.1.1, SVG Export Plug-In . SVG Version: 6.00 Build 0)  -->
<svg version="1.1" id="Layer_1" xmlns="http://www.w3.org/2000/svg" xmlns:xlink="http://www.w3.org/1999/xlink" x="0px" y="0px"
	 viewBox="0 0 30 50.2" enable-background="new 0 0 30 50.2" xml:space="preserve">
<g>
	<path d="M6.5,29.7c0,0,0,0.1,0,0.3l0,0c0.2,2.5,1.8,3.4,3.2,3.4c1.5,0,4-1,4.7-3c-0.4,2.7-2.6,4.3-4.7,4.3c0,0,0,0,0,0
		c-1.1,0-2.2-0.4-3-1.3C6.8,34,6.9,34.6,7,35.1c0.3,1.6,0.4,2.6,0.6,4.2c0.3,3.7-2,7.5-3,10.9H15h10.5c-1.1-3.4-3.3-7.2-3-10.9
		c0.1-1.6,0.3-2.6,0.6-4.2c0.1-0.5,0.2-1.2,0.2-1.8c-0.8,0.9-1.9,1.3-3,1.3c0,0,0,0,0,0c-2.1,0-4.2-1.6-4.7-4.2c0.7,2,3.2,3,4.7,3
		c1.5,0,3-1,3.2-3.4l0,0c0-0.2,0-0.3,0-0.3s1.1,2.7,1.8,4l4.6-2c-0.3-1.1-1.1-2.8-1.7-4.5c-1-2.6-0.7-6.4-3.7-7.2
		c-4.7-1.4-6.2-2.4-6.2-3.2c0-0.1,0-0.5,0-1c1,0,2-0.6,2.4-1.4c0.2-0.3,0.4-1.2,0.4-1.6c0-0.5,0.3-0.8,0.6-1.2
		c0.3-0.4,1-1.5,0.4-2.6c-0.3-0.6-1.2-1.3-1.7-2.3c-0.2-0.4-0.4-1.6-0.4-1.9l0,0C20,1.8,17.5,0.4,14.6,0c-2-0.2-2.9,0.6-3.5,1.7
		c-0.1,0.1-0.3,0.2-0.4,0.3c-0.6,0.8-1.2,1.5-1.2,2.8v0c0,0.2-0.2,1.5-0.4,1.9C8.7,7.8,7.9,8.4,7.5,9c-0.6,1.1,0.1,2.2,0.4,2.6
		c0.3,0.4,0.6,0.7,0.6,1.2c0,0.3,0.2,1.3,0.4,1.6c0.5,0.9,1.7,1.4,2.8,1.4c0,0.5,0,0.9,0,1c0,0.7-1.5,1.8-6.2,3.2
		c-3,0.9-2.7,4.6-3.7,7.2c-0.7,1.7-1.5,3.4-1.7,4.5l4.6,2C5.3,32.3,6.5,29.7,6.5,29.7z"/>
</g>
<g>
</g>
<g>
</g>
<g>
</g>
<g>
</g>
<g>
</g>
<g>
</g>
<g>
</g>
<g>
</g>
<g>
</g>
<g>
</g>
<g>
</g>
<g>
</g>
<g>
</g>
<g>
</g>
<g>
</g>
</svg>
