<?xml version="1.0" encoding="utf-8"?>
<!-- Generator: Adobe Illustrator 18.1.1, SVG Export Plug-In . SVG Version: 6.00 Build 0)  -->
<svg version="1.1" id="Layer_1" xmlns="http://www.w3.org/2000/svg" xmlns:xlink="http://www.w3.org/1999/xlink" x="0px" y="0px"
	 viewBox="0 0 44.2 35.2" enable-background="new 0 0 44.2 35.2" xml:space="preserve">
<g>
	<path d="M12.5,9.6C12.7,9.4,12.8,9.2,13,9c3.6,0,4.8-5.5,2.1-7.6C9.6-2.8,1.8,2.9,0.3,10.9c-0.9,4.8-0.2,13.7,7.3,14.7
		c7.6,1,11.4-10.1,4.2-11.1c-0.1-0.3-0.2-0.6-0.3-0.9c5.6,0.6,7,5,7,14.4v7.2h2.1V25C20.7,12.8,15.3,10.1,12.5,9.6z M43.9,10.9
		c-1.5-8-9.3-13.7-14.7-9.4C26.4,3.6,27.7,9,31.2,9c0.2,0.2,0.3,0.4,0.5,0.5c-2.7,0.5-8.2,3.2-8.2,15.5v10.2h2.1V28
		c0-9.4,1.4-13.8,7-14.4c-0.1,0.3-0.2,0.6-0.3,0.9c-7.2,1-3.4,12.1,4.2,11.1C44.1,24.5,44.8,15.7,43.9,10.9z"/>
</g>
<g>
</g>
<g>
</g>
<g>
</g>
<g>
</g>
<g>
</g>
<g>
</g>
<g>
</g>
<g>
</g>
<g>
</g>
<g>
</g>
<g>
</g>
<g>
</g>
<g>
</g>
<g>
</g>
<g>
</g>
</svg>
