<?xml version="1.0" encoding="utf-8"?>
<!-- Generator: Adobe Illustrator 18.1.1, SVG Export Plug-In . SVG Version: 6.00 Build 0)  -->
<svg version="1.1" id="Layer_1" xmlns="http://www.w3.org/2000/svg" xmlns:xlink="http://www.w3.org/1999/xlink" x="0px" y="0px"
	 viewBox="0 0 30.8 47.4" enable-background="new 0 0 30.8 47.4" xml:space="preserve">
<g>
	<path d="M0.1,33.1h4.2C4,30.4,3.8,28,3.8,27.9c0-0.2,0.2-0.4,0.4-0.4c0.2,0,0.4,0.2,0.4,0.4c0,0,0.3,4.1,0.7,7.4
		c-0.9,1.6-1.4,3.5-1.4,5.5c0,0.5,0,1.1,0.1,1.6c0.3,1.8,0.9,3.5,1.9,4.9h3.3h13.5h2.2c1-1.4,1.7-3.1,1.9-5c0.1-0.5,0.1-1,0.1-1.6
		c0-2-0.5-3.9-1.4-5.5c0.4-3.3,0.7-7.4,0.7-7.4c0-0.2,0.2-0.4,0.4-0.4c0.2,0,0.4,0.2,0.4,0.4c0,0-0.2,2.5-0.4,5.1h4.2
		c0-0.7-0.1-1.5-0.2-2.4c0-1.1,0.2-3.1,0.2-3.3c0-2.7-1.2-5-2.8-5.7c-1.1-0.5-7.2-2.8-8.7-4.2c0-1.5-0.1-2.7-0.3-3.4
		c0.1-0.1,0.2-0.2,0.2-0.3c0.4-0.5,0.7-1.2,0.9-2.6c0.4-0.2,0.7-1.1,1-1.8c0.3-0.9,0.1-1.7-0.5-1.9c0.1-0.7,0.3-1.6,0.3-2.6
		c0-3.2-2.6-4.5-5.7-4.9c-2.1-0.2-3.1,0.6-3.6,1.7c-0.1,0.1-0.3,0.2-0.4,0.3c-0.9,1-1.5,1.8-1.2,4.2c0.1,0.5,0.1,0.9,0.2,1.3
		c-0.7,0.2-0.8,1-0.6,1.9c0.2,0.8,0.6,1.7,0.9,1.8c0.2,1.3,0.6,2.1,0.9,2.6c0.1,0.1,0.2,0.2,0.3,0.3c-0.2,0.8-0.3,1.9-0.3,3.4
		c-1.5,1.4-7.6,3.7-8.7,4.2C1.2,22.4,0,24.7,0,27.4c0,0.2,0.2,2.2,0.2,3.3C0.1,31.5,0.1,32.3,0.1,33.1z M15.4,24.8
		c0.6,4.8,4,5.4,4,9c0,2.2-1.8,4-4,4s-4-1.8-4-4C11.4,30.2,14.8,29.6,15.4,24.8z"/>
</g>
<g>
</g>
<g>
</g>
<g>
</g>
<g>
</g>
<g>
</g>
<g>
</g>
<g>
</g>
<g>
</g>
<g>
</g>
<g>
</g>
<g>
</g>
<g>
</g>
<g>
</g>
<g>
</g>
<g>
</g>
</svg>
