<?xml version="1.0" encoding="utf-8"?>
<!-- Generator: Adobe Illustrator 18.1.1, SVG Export Plug-In . SVG Version: 6.00 Build 0)  -->
<svg version="1.1" id="Layer_1" xmlns="http://www.w3.org/2000/svg" xmlns:xlink="http://www.w3.org/1999/xlink" x="0px" y="0px"
	 viewBox="0 0 41.8 37.4" enable-background="new 0 0 41.8 37.4" xml:space="preserve">
<g>
	<path d="M17.3,23l4.3,12.2c0.9-0.2,1.9-0.3,3.3-0.3L20,21.1C19,21.7,18.1,22.4,17.3,23z M40.1,5.7c0.2-2.1,0.3-4.1,0.5-5.7H25.3
		c0,1.6,0,3.6,0,5.7H40.1z M20.8,20.5l5.1,14.3c1.3,0,2.4,0.1,3.4,0.1l-5.9-16.5C22.7,19.2,21.8,19.8,20.8,20.5z M14.8,25.1
		c-0.3,0.3-0.6,0.6-0.9,0.9l3.8,10.6c0.9-0.4,1.8-0.8,2.9-1.2l-4.2-11.8C15.8,24.1,15.3,24.6,14.8,25.1z M39.9,18.6
		c-0.1-0.9-0.2-2.3-0.2-3.9H25.3c0,0.1,0,0.3,0,0.4c0,0.9-0.4,1.7-1.1,2.5L30.4,35c2.8,0.2,4.8,0.5,8.1,0.5
		C44.5,35.6,40.6,23.5,39.9,18.6z M1.1,32.1c-1.5,0-1.6,4,1,4.5c2.7,0.5,4.3-0.5,4.3-0.5s1.8,1.3,6.7,1.3c1.6,0,2.7-0.2,3.6-0.5
		L13,26.6C9.2,29.4,2.3,32.1,1.1,32.1z M25.3,13.7h14.4c0-0.9,0.1-2,0.1-3H25.3C25.3,11.8,25.3,12.8,25.3,13.7z M40,6.7H25.3
		c0,1,0,2,0,3h14.6C39.9,8.7,40,7.7,40,6.7z"/>
</g>
<g>
</g>
<g>
</g>
<g>
</g>
<g>
</g>
<g>
</g>
<g>
</g>
<g>
</g>
<g>
</g>
<g>
</g>
<g>
</g>
<g>
</g>
<g>
</g>
<g>
</g>
<g>
</g>
<g>
</g>
</svg>
