<?xml version="1.0" encoding="utf-8"?>
<!-- Generator: Adobe Illustrator 18.1.1, SVG Export Plug-In . SVG Version: 6.00 Build 0)  -->
<svg version="1.1" id="Layer_1" xmlns="http://www.w3.org/2000/svg" xmlns:xlink="http://www.w3.org/1999/xlink" x="0px" y="0px"
	 viewBox="0 0 29.9 44.6" enable-background="new 0 0 29.9 44.6" xml:space="preserve">
<g>
	<path d="M29.9,12.9c0.3-6.6-3.4-9.7-6.2-11.2c-2.8-1.5-5.3-2.1-10.1-1.5c-4.8,0.7-7.8,4-7.8,4S3.4,6.7,2.9,9.8
		c-0.5,3.1-0.6,3.7,0.1,4.5c0,0,0.1,0.4-0.2,0.9c0,0-2.8,4.5-2.8,4.9c0,0.5,0.4,1,0.8,1.2c0.4,0.2,1.2,0,1.4,0.5
		c0.1,0.3-0.6,1.3-0.5,1.8c0.1,0.4,0.5,1.1,0.9,1.2c0,0-0.5,1-0.3,1.4c0.2,0.5,0.9,0.2,0.7,0.8c-0.2,0.6-1,2.6,0.3,3.4
		c1.3,0.8,2,0.9,3.1,0.9c1,0,2.3-0.1,2.9,0.9c0.3,0.5,0.1,4.5-1.1,5.7c-2.2,2.2-4,4.6-4.6,6.6h24.3c-0.4-3.2-2.3-7.8-2.7-9.9
		c-0.6-3.4,0.1-8,1.2-11.7C27.2,20.2,29.5,19.5,29.9,12.9z M18.5,2.5c4.7,0.6,7.1,3.4,8,6.5h-6.1l-0.9,2.8l-2.3-8.2L15.1,10
		l-1.7-4.3L12,8.9H5.5C6.9,4.9,11.9,1.6,18.5,2.5z M21.5,18.8c-7.1-7.1-17.4-2.8-16.3-8.6l7.6,0l0.6-1.4l1.9,4.7l1.9-5.8l2.3,8.2
		l1.9-5.7h5.5C27.8,15.7,24.4,21.7,21.5,18.8z"/>
</g>
<g>
</g>
<g>
</g>
<g>
</g>
<g>
</g>
<g>
</g>
<g>
</g>
<g>
</g>
<g>
</g>
<g>
</g>
<g>
</g>
<g>
</g>
<g>
</g>
<g>
</g>
<g>
</g>
<g>
</g>
</svg>
