<?xml version="1.0" encoding="utf-8"?>
<!-- Generator: Adobe Illustrator 18.1.1, SVG Export Plug-In . SVG Version: 6.00 Build 0)  -->
<svg version="1.1" id="Layer_1" xmlns="http://www.w3.org/2000/svg" xmlns:xlink="http://www.w3.org/1999/xlink" x="0px" y="0px"
	 viewBox="0 0 47 25.7" enable-background="new 0 0 47 25.7" xml:space="preserve">
<g>
	<path d="M23.9,2.7c-2.2-0.2-4.2-0.2-6.1,0.1C25.2,0.5,35,1.4,47,12C23.5-13.3,3.8,8.4,2.4,13.5l0,0c-2.1,3.8-2.7,7.4-2.2,8
		c1.1,1.6,1.9,0.2,5.3,0.3c3.8,0.2,6.4,2.7,11.8,3.9c-4.6-1.8-7.7-5.4-13-5.7c0.2-1.4-0.4-2.6-1.7-2.6C4,14.9,6.9,8.1,16.3,6.6
		c-0.5,0.4-1,0.8-1.5,1.3c0.6-0.3,1.3-0.5,2.1-0.5c2.2,0.1,3.9,2,3.8,4.2c-0.1,2.2-2,3.9-4.2,3.8c-2.1-0.1-3.7-1.8-3.8-3.9
		c-0.3,0.9-0.5,1.8-0.5,2.7C11.9,20,16.3,24.8,21.9,25c5.6,0.3,10.4-4.1,10.7-9.7c0.1-2.6-0.7-5-2.2-6.8c7.1,3.3,11,9.4,11,9.4
		s-4.7,5-11.4,7.5c9.7-2.5,16.7-9,16.7-9S38.1,4.2,23.9,2.7z"/>
</g>
<g>
</g>
<g>
</g>
<g>
</g>
<g>
</g>
<g>
</g>
<g>
</g>
<g>
</g>
<g>
</g>
<g>
</g>
<g>
</g>
<g>
</g>
<g>
</g>
<g>
</g>
<g>
</g>
<g>
</g>
</svg>
