<?xml version="1.0" encoding="utf-8"?>
<!-- Generator: Adobe Illustrator 18.1.1, SVG Export Plug-In . SVG Version: 6.00 Build 0)  -->
<svg version="1.1" id="Layer_1" xmlns="http://www.w3.org/2000/svg" xmlns:xlink="http://www.w3.org/1999/xlink" x="0px" y="0px"
	 viewBox="0 0 34.3 41.8" enable-background="new 0 0 34.3 41.8" xml:space="preserve">
<g>
	<path d="M24.9,0c-3.2,0-4.5,1.7-7.7,1.7C14,1.7,12.6,0,9.5,0C4.2,0,0,4.2,0,9.5c0,2.9,4,15.4,6.8,19.8c0.6,6.8,2,12.5,4.4,12.5
		c3.2,0,3.2-11.5,6-11.5c2.8,0,2.8,11.5,6,11.5c2.3,0,3.8-5.8,4.4-12.5c2.8-4.4,6.8-16.9,6.8-19.8C34.3,4.2,30.1,0,24.9,0z
		 M26.4,4.3c-0.1,0.4-1.9,3.4-9.1,3.4c-0.1,0-0.1,0-0.2,0C9.9,7.8,8,4.7,7.9,4.3C7.7,3.8,7.9,3.2,8.4,3c0.5-0.2,1.1,0,1.3,0.5l0,0
		c0,0,0.1,0.1,0.2,0.2c0.2,0.2,0.5,0.5,1,0.8c1,0.6,2.9,1.3,6.3,1.3c6,0,7.2-2,7.4-2.3l0,0l0,0C24.8,3,25.4,2.8,25.9,3
		C26.4,3.2,26.6,3.8,26.4,4.3z"/>
</g>
<g>
</g>
<g>
</g>
<g>
</g>
<g>
</g>
<g>
</g>
<g>
</g>
<g>
</g>
<g>
</g>
<g>
</g>
<g>
</g>
<g>
</g>
<g>
</g>
<g>
</g>
<g>
</g>
<g>
</g>
</svg>
