<?xml version="1.0" encoding="utf-8"?>
<!-- Generator: Adobe Illustrator 18.1.1, SVG Export Plug-In . SVG Version: 6.00 Build 0)  -->
<svg version="1.1" id="Layer_1" xmlns="http://www.w3.org/2000/svg" xmlns:xlink="http://www.w3.org/1999/xlink" x="0px" y="0px"
	 viewBox="0 0 24.1 46.5" enable-background="new 0 0 24.1 46.5" xml:space="preserve">
<g>
	<path d="M1.6,36c-0.4,2.4,1.6,3.9,2.7,6.2c-1.7,5.6,3.2,4.9,4.4,1.7c0.5-1.2,0.2-2.5-0.3-3.7c0-2.2-0.3-2.5-1.2-3.3
		c1.9-0.9,3.8-4,3.8-4l-5.4-4.4C3.2,30.4,1.9,33.6,1.6,36z M22.5,36.1c-0.4-2.4-1.6-5.6-4-7.5L13.1,33c0,0,1.9,3.1,3.8,4
		c-0.9,0.9-1.2,1.1-1.2,3.3c-0.5,1.2-0.8,2.5-0.3,3.7c1.3,3.2,6.1,3.9,4.4-1.7C20.8,40.1,22.9,38.5,22.5,36.1z M22.1,19.8
		c-1.1-1.9-5.3-4.7-7.1-5.1c0-0.2,0-0.6,0-1.1c0.1-0.1,1-0.9,1.1-1.1c0.4-0.4,0.8-1,1-2.1c0.4-0.1,0.8-0.9,1-1.5
		c0.3-0.7,0.1-1.4-0.6-1.5c0.1-0.3,0.1-1.2,0.2-1.6C18.1,4,16.7,0,12,0C7.4,0,6,4,6.4,5.9c0.1,0.4,0.2,1.3,0.2,1.6
		C5.9,7.7,5.7,8.3,6,9c0.3,0.6,0.6,1.3,1,1.5c0.3,1.1,0.6,1.7,1,2.1c0.1,0.1,1,0.9,1.1,1.1c0,0.5,0,0.9,0,1.1
		c-1.8,0.4-6,3.2-7.1,5.1c-1.2,2-2.9,5-1.4,7.2c1.3,2,2.6,1.1,3.1-0.3c0.5-1.4-0.2-2.5-0.2-2.5s1-1.6,1.6-2.5
		c0.3-0.1,0.6-0.2,0.9-0.4c-0.2,1.4-0.3,2.9-0.4,4.2h13c-0.1-1.3-0.2-2.8-0.4-4.2c0.3,0.1,0.6,0.3,0.9,0.4c0.6,1,1.6,2.5,1.6,2.5
		s-0.7,1.1-0.2,2.5c0.5,1.4,1.8,2.3,3.1,0.3C24.9,24.8,23.2,21.8,22.1,19.8z"/>
</g>
<g>
</g>
<g>
</g>
<g>
</g>
<g>
</g>
<g>
</g>
<g>
</g>
<g>
</g>
<g>
</g>
<g>
</g>
<g>
</g>
<g>
</g>
<g>
</g>
<g>
</g>
<g>
</g>
<g>
</g>
</svg>
