<?xml version="1.0" encoding="utf-8"?>
<!-- Generator: Adobe Illustrator 18.1.1, SVG Export Plug-In . SVG Version: 6.00 Build 0)  -->
<svg version="1.1" id="Layer_1" xmlns="http://www.w3.org/2000/svg" xmlns:xlink="http://www.w3.org/1999/xlink" x="0px" y="0px"
	 viewBox="0 0 30.1 37.8" enable-background="new 0 0 30.1 37.8" xml:space="preserve">
<g>
	<path d="M3.8,20.2h1.1c0.5,1.2,1.4,2.4,2.6,3.3c1.8,1.3,4.3,2.2,7.1,2.2c0-2.5-0.2-5-0.6-5.9c-1.4-2.8-4.5-5.3-4.3-6
		c0-0.2,0-0.9,0-1.1c0.4-0.2,1-0.1,1.2-0.1c0.4,0,0.7,0,1.2-0.4c0.5-0.3,0.2-0.9,0.1-1.1c0-0.1,0-0.2,0.1-0.3c-1.8,0.4-3.4,1-4.7,2
		c-0.6,0.4-1.1,0.9-1.6,1.5L7.3,15l-4.1,3l0.7-5.1l1.3,0.8c1.6-2,4.3-3.5,7.4-4c0-0.1-0.1-0.2-0.1-0.3c0-0.1-0.1-0.3,0-0.4
		c0.1-0.2,0.4-0.1,0.5-0.2c0.2-0.1,0.3-0.3,0.3-0.5c0-0.2-0.1-0.4-0.2-0.5c-0.1-0.1-0.9-1.7-0.9-1.7c-0.1-0.2-0.1-0.4-0.1-0.4
		c0.2-0.3,0.2-0.5,0-1.8c-0.2-1.3-1.1-2.2-1.1-2.2S9.9,0.4,8,0.1c-1.9-0.3-3.4,0-4.5,0.6C2.4,1.3,1,2.9,1.2,5.5
		C1.4,8.1,2.5,8,2.5,9.4c0,1.2,0.6,2.9-0.4,4.2c-5.5,7,1.5,15.6,0.1,20.7C2,35.2,1.9,37,1.8,37.8h12c0.2-1.6,0.4-3.6,0.6-5.7
		c0.1-0.8,0.2-3,0.1-5.4C9.4,26.6,5,23.9,3.8,20.2z M28,13.6c-1-1.3-0.4-3-0.4-4.2c0-1.4,1.1-1.3,1.3-3.9c0.2-2.6-1.2-4.2-2.3-4.8
		c-1.1-0.6-2.6-0.9-4.5-0.6C20.2,0.4,19,1.7,19,1.7s-0.9,0.9-1.1,2.2c-0.2,1.3-0.2,1.5,0,1.8c0,0,0,0.2-0.1,0.4c0,0-0.7,1.6-0.9,1.7
		c-0.1,0.1-0.2,0.3-0.2,0.5c0,0.2,0.1,0.4,0.3,0.5c0.1,0.1,0.5,0,0.5,0.2c0,0.1,0,0.3,0,0.4c0,0.1-0.1,0.2-0.1,0.3
		c4.2,0.7,7.6,3.1,8.7,6.3h-1.1c-0.5-1.2-1.4-2.4-2.6-3.3c-1.3-0.9-2.9-1.6-4.7-2c0.1,0.1,0.2,0.2,0.1,0.3c-0.1,0.2-0.4,0.8,0.1,1.1
		c0.5,0.3,0.8,0.3,1.2,0.4c0.3,0,0.9,0,1.2,0.1c0,0.2,0,0.9,0,1.1c0.1,0.7-3,3.2-4.3,6c-0.4,0.9-0.6,3.4-0.6,5.9
		c2.7-0.1,5-0.9,6.8-2.2c0.6-0.4,1.1-0.9,1.6-1.5l-1.3-0.8l4.1-3l-0.7,5.1l-1.3-0.8c-1.9,2.4-5.3,4-9.2,4.2c0,2.4,0.1,4.7,0.1,5.4
		c0.2,2.1,0.4,4.1,0.6,5.7h12c0-0.8-0.2-2.6-0.4-3.5C26.4,29.2,33.4,20.6,28,13.6z"/>
</g>
<g>
</g>
<g>
</g>
<g>
</g>
<g>
</g>
<g>
</g>
<g>
</g>
<g>
</g>
<g>
</g>
<g>
</g>
<g>
</g>
<g>
</g>
<g>
</g>
<g>
</g>
<g>
</g>
<g>
</g>
</svg>
