<?xml version="1.0" encoding="utf-8"?>
<!-- Generator: Adobe Illustrator 18.1.1, SVG Export Plug-In . SVG Version: 6.00 Build 0)  -->
<svg version="1.1" id="Layer_1" xmlns="http://www.w3.org/2000/svg" xmlns:xlink="http://www.w3.org/1999/xlink" x="0px" y="0px"
	 viewBox="0 0 38.7 44.6" enable-background="new 0 0 38.7 44.6" xml:space="preserve">
<g>
	<path d="M38.1,42.5c0.4-0.7,0.6-1.4,0.6-2.1c0-0.7-0.2-1.4-0.5-2.1l0-0.1l0-0.1L25.6,20.7V4.3c0.5-0.5,0.8-1.1,0.8-1.8
		c0-0.3,0-0.6-0.1-0.8C25.9,0.6,25,0,24,0h-9.2c-1,0-2,0.6-2.3,1.6c-0.1,0.2-0.1,0.5-0.1,0.8c0,0.7,0.3,1.4,0.8,1.8v16.5L0.6,38.3
		l0,0.1C0.2,39,0,39.7,0,40.4c0,0.7,0.2,1.5,0.6,2.1c0.8,1.3,2.1,2.1,3.6,2.1h30.3C36,44.6,37.3,43.8,38.1,42.5z M17.7,24.8
		L5.6,41.7H4.2c-0.5,0-0.9-0.3-1.1-0.7c-0.1-0.2-0.2-0.4-0.2-0.7c0-0.2,0-0.4,0.1-0.6L16,21.7v-5.4h3.2V14H16V9.9h3.2V7.7H16V2.9
		l0,0h6.8l0,0v18.8l2.2,3.1H17.7z"/>
</g>
<g>
</g>
<g>
</g>
<g>
</g>
<g>
</g>
<g>
</g>
<g>
</g>
<g>
</g>
<g>
</g>
<g>
</g>
<g>
</g>
<g>
</g>
<g>
</g>
<g>
</g>
<g>
</g>
<g>
</g>
</svg>
