<?xml version="1.0" encoding="utf-8"?>
<!-- Generator: Adobe Illustrator 18.1.1, SVG Export Plug-In . SVG Version: 6.00 Build 0)  -->
<svg version="1.1" id="Layer_1" xmlns="http://www.w3.org/2000/svg" xmlns:xlink="http://www.w3.org/1999/xlink" x="0px" y="0px"
	 viewBox="0 0 24 43.1" enable-background="new 0 0 24 43.1" xml:space="preserve">
<g>
	<path d="M0.6,37.2c0,2.1,0.1,4.2,0.2,5.9h22.4c0.1-1.7,0.2-3.8,0.2-5.9c0-3.1,0.4-4.5,0.4-8.7c0-1.1,0.2-2.3,0.2-3.8
		c0-2.6-1.2-4-2.5-4.7c-1.1-0.5-6.4-2.5-6.4-3.7c0-0.2,0-0.8,0-1.4c1,0,2-0.5,2.4-1.3c0.2-0.3,0.3-1.2,0.3-1.5
		c0-0.5,0.3-0.7,0.5-1.1c0.3-0.4,0.9-1.4,0.3-2.4c-0.3-0.6-1.1-1.2-1.6-2.2c-0.2-0.4-0.4-1.5-0.4-1.8l0,0c-0.1-2.9-2.4-4.2-5.1-4.5
		C9.7-0.2,8.9,0.6,8.4,1.6C8.2,1.7,8.1,1.8,8,1.9C7.4,2.7,6.9,3.3,6.9,4.6v0c0,0.2-0.2,1.4-0.4,1.8C6,7.3,5.3,8,4.9,8.5
		c-0.6,1,0.1,2,0.3,2.4c0.3,0.4,0.5,0.6,0.5,1.1c0,0.3,0.2,1.2,0.3,1.5c0.5,0.9,1.7,1.4,2.8,1.3c0,0.6,0,1.3,0,1.5
		c0,1.2-5.3,3.1-6.4,3.7C1.2,20.6,0,22.1,0,24.7c0,1.5,0.2,2.8,0.2,3.8C0.2,32.7,0.6,34.1,0.6,37.2z"/>
</g>
<g>
</g>
<g>
</g>
<g>
</g>
<g>
</g>
<g>
</g>
<g>
</g>
<g>
</g>
<g>
</g>
<g>
</g>
<g>
</g>
<g>
</g>
<g>
</g>
<g>
</g>
<g>
</g>
<g>
</g>
</svg>
