<?xml version="1.0" encoding="utf-8"?>
<!-- Generator: Adobe Illustrator 18.1.1, SVG Export Plug-In . SVG Version: 6.00 Build 0)  -->
<svg version="1.1" id="Layer_1" xmlns="http://www.w3.org/2000/svg" xmlns:xlink="http://www.w3.org/1999/xlink" x="0px" y="0px"
	 viewBox="0 0 42.4 44.5" enable-background="new 0 0 42.4 44.5" xml:space="preserve">
<g>
	<path d="M25.6,34.2L25.6,34.2c0.1-0.2,0.1-0.5,0.1-0.8c0-1.1-0.9-2.5-2.4-3.3c-0.2-0.1-0.5-0.2-0.7-0.3c-0.1-0.1-0.3-0.1-0.4-0.1
		c0-0.4,0-0.8,0-1.2c0,0,0,0,0-0.1c0-2-2.3-4.3-5.5-4.3c-2.3,0-5.1,1.2-7.7,4.7l0,0l0,0c-2,1.8-4.4,3.7-6.7,5.5l1.6,2
		c0.6-0.4,1.3-0.9,1.8-1.3c2-1.6,3.1-2.2,3.1-2.2s1.5,6.5,1.6,7.8c0,0.3,0.1,2,0.1,3.8h8.5c0-3,0-5.5,0-7.6
		c-1.8-0.9-2.8-2.4-2.8-4.1c0-0.6,0.1-1.3,0.4-1.9c0.5-1.2,1.3-2.1,2.4-2.5c0,0,0-0.1,0-0.1c0-0.7,0.2-1.4,0.6-2.1
		c0.1,0.1,0.2,0.1,0.2,0.2c0.3,0.2,0.5,0.5,0.6,0.7c-0.2,0.4-0.3,0.7-0.3,1.1c0,0,0,0.1,0,0.1c0,0.3,0,0.6,0,1
		c-0.4,0.1-0.8,0.2-1.1,0.4c-0.6,0.3-1,0.9-1.3,1.7c-0.2,0.5-0.3,1-0.3,1.5c0,1.1,0.5,2.1,1.6,2.8c0.3,0.2,0.6,0.3,0.9,0.5
		c0.1,0,0.1,0,0.2,0.1c0,0.4,0,0.8,0,1.2c0,2.1,0,4.4,0,7.2h2c0-2.7,0-5,0-7.1c0-0.4,0-0.8,0-1.1c0.4,0,0.8-0.1,1.1-0.2
		C24.4,35.8,25.3,35.1,25.6,34.2z M34.3,28.1c2,1.7,4.3,3.7,6.6,5.5l1.5-1.8C42.2,31.4,39,28,39,28s-0.3-0.4-0.7-1.5
		c-0.5-1.1-0.4-1.9-1.7-3.3c-1.3-1.3-3-2.1-3.5-2.2c-0.5-0.1-6.2-2.5-6.2-2.5s-1.2-0.5-1.4-1.6C25.2,15,25,13.2,25,11.7
		c0-1.8,1.4-1.6,1.6-4.9c0.2-3.3-1.5-5.2-2.9-6c-1.4-0.7-3.2-1.1-5.6-0.8c-2.3,0.3-3.8,2-3.8,2S13.3,3.3,13,4.9
		c-0.3,1.6-0.3,1.9,0,2.2c0,0,0.1,0.2-0.1,0.5c0,0-0.9,2-1.1,2.2c-0.2,0.1-0.3,0.4-0.3,0.6c0,0.2,0.2,0.5,0.4,0.6
		c0.2,0.1,0.6,0,0.7,0.3c0,0.2,0,0.4,0,0.5c0,0.2-0.2,0.4-0.2,0.6c0,0.2,0.2,0.3,0.4,0.4c0,0-0.2,0.2-0.2,0.4
		c0.1,0.2,0.4,0.4,0.4,0.7c-0.1,0.3-0.5,1,0.2,1.4c0.6,0.4,1,0.4,1.5,0.5c0.4,0,1.1,0,1.6,0.2c0,0.3,0,1.1,0,1.3
		c0.2,0.8-0.8,1.3-0.8,1.3S9.8,20.9,9.3,21c-0.5,0.1-2.2,0.9-3.5,2.2c-1.3,1.3-1.3,2.2-1.7,3.3C3.6,27.6,3.4,28,3.4,28
		S0.2,31.4,0,31.8l1.5,1.8c2.2-1.8,4.6-3.7,6.6-5.5c2.7-3.7,5.9-5.1,8.6-5.1c3.7,0,6.6,2.6,6.6,5.4c0,0.2,0,0.3,0,0.5
		c2.1,1,3.5,2.8,3.5,4.6c0,0.4-0.1,0.8-0.2,1.2c-0.6,1.4-1.9,2.3-3.3,2.6c0,2.1,0,4.5,0,7.3h8.5c0-1.8,0.1-3.5,0.1-3.8
		c0.1-1.3,1.6-7.8,1.6-7.8s1.1,0.7,3.1,2.2c0.5,0.4,1.2,0.9,1.8,1.3l1.6-2c-2.3-1.8-4.6-3.8-6.7-5.5l0,0l0,0
		c-2.6-3.5-5.4-4.7-7.7-4.7c-0.9,0-1.8,0.2-2.6,0.5c-0.3-0.3-0.5-0.6-0.8-0.9c1-0.5,2.2-0.8,3.4-0.8C28.4,23,31.6,24.4,34.3,28.1z"
		/>
</g>
<g>
</g>
<g>
</g>
<g>
</g>
<g>
</g>
<g>
</g>
<g>
</g>
<g>
</g>
<g>
</g>
<g>
</g>
<g>
</g>
<g>
</g>
<g>
</g>
<g>
</g>
<g>
</g>
<g>
</g>
</svg>
