<?xml version="1.0" encoding="utf-8"?>
<!-- Generator: Adobe Illustrator 18.1.1, SVG Export Plug-In . SVG Version: 6.00 Build 0)  -->
<svg version="1.1" id="Layer_1" xmlns="http://www.w3.org/2000/svg" xmlns:xlink="http://www.w3.org/1999/xlink" x="0px" y="0px"
	 viewBox="0 0 29 44.8" enable-background="new 0 0 29 44.8" xml:space="preserve">
<g>
	<g>
		<path d="M20.3,8.4c2.3,0,4.2-1.9,4.2-4.2c0-2.3-1.9-4.2-4.2-4.2c-2.3,0-4.2,1.9-4.2,4.2C16.1,6.5,18,8.4,20.3,8.4z"/>
		<path d="M10.4,23.3c0,0-0.4-0.4,0-0.9c0,0,9-10.2,9.5-10.7l-4.9-5c0,0-1.1-1.2-2.2-0.6C12.5,6.3,1,19,0.2,20.6
			c-0.5,1,0.5,2.1,0.5,2.1L11,33.4c0,0,0.4,0.3,0.3,1.1l0,7.4c0,1.6,1.2,2.8,2.8,2.8c1.5,0,2.8-1.3,2.8-2.8c0,0,0.1-10.1-0.3-10.6
			L10.4,23.3z"/>
	</g>
	<g>
		<path d="M24,15L24,15c-2.8,0-5,2.3-5.1,5v6.3c0,1,0.8,1.7,1.7,1.7c0.9,0,1.7-0.8,1.7-1.7V20c0-0.9,0.7-1.6,1.6-1.6
			c0.9,0,1.6,0.7,1.6,1.6v23c0,1,0.8,1.7,1.7,1.7c1,0,1.7-0.8,1.7-1.7V20C29,17.3,26.8,15,24,15"/>
	</g>
</g>
<g>
</g>
<g>
</g>
<g>
</g>
<g>
</g>
<g>
</g>
<g>
</g>
<g>
</g>
<g>
</g>
<g>
</g>
<g>
</g>
<g>
</g>
<g>
</g>
<g>
</g>
<g>
</g>
<g>
</g>
</svg>
