<?xml version="1.0" encoding="utf-8"?>
<!-- Generator: Adobe Illustrator 18.1.1, SVG Export Plug-In . SVG Version: 6.00 Build 0)  -->
<svg version="1.1" id="Layer_1" xmlns="http://www.w3.org/2000/svg" xmlns:xlink="http://www.w3.org/1999/xlink" x="0px" y="0px"
	 viewBox="0 0 28.4 42.6" enable-background="new 0 0 28.4 42.6" xml:space="preserve">
<g>
	<path d="M12.2,23.3c0.4,0.7,1.1,1.1,2,1.1c0.9,0,1.6-0.5,2-1.1c-0.6,0-1.3,0.1-2,0.1C13.5,23.4,12.8,23.3,12.2,23.3z M14.2,27.2
		c2.5,0,4.6-1.9,5-4.3c-0.6,0.1-1.3,0.2-2.1,0.3c-0.5,1.2-1.6,2.1-3,2.1c-1.4,0-2.5-0.9-3-2.1C10.4,23.1,9.7,23,9.1,23
		C9.6,25.4,11.7,27.2,14.2,27.2z M14.2,16.1c2.7,0,5,1.8,5.7,4.3c0.8-0.3,1.3-0.6,1.8-1.1c-1.2-3.1-4.1-5.3-7.6-5.3
		c-3.5,0-6.4,2.2-7.6,5.3c0.5,0.5,1.1,0.8,1.8,1.1C9.2,17.9,11.5,16.1,14.2,16.1z M19.2,4c-0.1-1.6-0.2-3-0.3-4H9.5
		c0,1-0.1,2.5-0.3,4C7.4,9.5,0,14.1,0,21.6c0,7.7,7.7,12.3,9.3,17.9c0.1,1.2,0.1,2.2,0.2,3h9.5c0-0.8,0.1-1.9,0.2-3
		c1.6-5.6,9.3-10.2,9.3-17.9C28.4,14.1,21,9.5,19.2,4z M14.2,31c-3.8,0-7-2.3-8.3-5.6c0.4,1.6,2,4,2.8,9c0.1,0.4,0.1,0.8,0.2,1.2
		c-1.7-3.7-5.5-7-5.5-14.1c0-6.9,3.6-10.2,5.4-13.8c0,0.1,0,0.1,0,0.2C7.6,14.8,5.1,16.9,6,18.5c1.4-3.2,4.5-5.4,8.2-5.4
		s6.8,2.2,8.2,5.4c0.8-1.6-1.6-3.7-2.7-10.4c0-0.1,0-0.1,0-0.2c1.8,3.6,5.4,6.8,5.4,13.8c0,7.1-3.8,10.4-5.5,14.1
		c0.1-0.4,0.1-0.8,0.2-1.2c0.8-5,2.4-7.5,2.8-9.1C21.2,28.7,18,31,14.2,31z M20.1,22.9c-0.4,2.9-2.9,5.2-5.9,5.2
		c-3,0-5.5-2.3-5.9-5.2c-0.8,0-1.4,0.1-1.9,0.7c0,0-0.1,0.1-0.1,0.1c0.7,3.7,4,6.5,7.9,6.5c3.9,0,7.2-2.8,7.9-6.5
		c0,0-0.1-0.1-0.1-0.1C21.5,23,20.9,22.9,20.1,22.9z M14.2,19.8c-0.9,0-1.6,0.5-2,1.2c0.6,0,1.3,0,2,0c0.8,0,1.4,0,2,0
		C15.8,20.2,15.1,19.8,14.2,19.8z M17.2,20.9c0.8-0.1,1.4-0.2,1.9-0.3c-0.6-2.1-2.6-3.6-4.9-3.6c-2.3,0-4.2,1.5-4.9,3.6
		c0.5,0.1,1.2,0.2,1.9,0.3c0.5-1.2,1.6-2,3-2C15.5,18.9,16.7,19.7,17.2,20.9z"/>
</g>
<g>
</g>
<g>
</g>
<g>
</g>
<g>
</g>
<g>
</g>
<g>
</g>
<g>
</g>
<g>
</g>
<g>
</g>
<g>
</g>
<g>
</g>
<g>
</g>
<g>
</g>
<g>
</g>
<g>
</g>
</svg>
