<?xml version="1.0" encoding="utf-8"?>
<!-- Generator: Adobe Illustrator 18.1.1, SVG Export Plug-In . SVG Version: 6.00 Build 0)  -->
<svg version="1.1" id="Layer_1" xmlns="http://www.w3.org/2000/svg" xmlns:xlink="http://www.w3.org/1999/xlink" x="0px" y="0px"
	 viewBox="0 0 53.1 35.4" enable-background="new 0 0 53.1 35.4" xml:space="preserve">
<g>
	<path d="M35.8,18.4c-1.2-1.3-3-2.2-4.8-2.2c0,0-0.1,0-0.1,0c-2,0-3.4,0.9-4.4,1.7c-1,0.9-1.6,1.7-2.1,2.9l-0.1,0.1
		c-0.1,0.2-0.9,2.1-2.3,3.6c-0.7,0.8-1.4,1.5-2.3,1.9c-0.8,0.5-1.7,0.7-2.7,0.7c-2.8,0-4.8-1-6.4-2.6c-1.5-1.6-2.4-3.8-2.4-5.9
		c0-4.1,0.8-6.5,1.6-7.6c0.4-0.5,0.7-0.8,1.1-1c0.4-0.2,0.9-0.3,1.6-0.3c0,0,0,0,0,0c1.3,0,3.2,0.5,5.3,1.6c0.5,0.3,1,0.4,1.3,0.4
		c1.2,0,1.9-1.1,2.7-2.6c1.1-2,1.8-4.1-0.3-5.2c-3-1.5-6-2.5-9.2-2.5c-1.8,0-3.6,0.3-5.2,1.2C4.9,3.7,2.9,6,1.7,8.7
		c-1.2,2.7-1.7,6-1.7,9.8c0,4.4,1.7,8.6,4.7,11.7c3,3.1,7.4,5.2,12.3,5.2h0.1c2.7,0,5.2-0.8,7.1-2c2.9-1.8,4.8-4.2,6-6.1
		c0.2-0.4,0.4-0.7,0.6-1c0.5,1.2,1.3,1.7,2.3,1.7c0.7,0,1.4-0.2,2.2-0.5c2.2-0.8,4-2,3.2-4.2C37.9,21.3,37,19.7,35.8,18.4z
		 M19.3,7.4C20.2,5.5,21,5,21.6,5.2c0.6,0.3,0.7,1.2-0.3,3.1c-0.9,1.9-1.7,2.4-2.3,2.1C18.5,10.2,18.4,9.3,19.3,7.4z M35.5,26.3
		c-2,0.8-2.9,0.6-3.1,0c-0.2-0.6,0.3-1.3,2.3-2.1c2-0.8,2.9-0.6,3.1,0C38,24.8,37.4,25.5,35.5,26.3z M48.1,3.8c-0.3,0-0.6,0-0.9,0.1
		c-0.9,0.1-1.8,0.2-3,0.2c-4.5,0-9.6-4-16.1-4c-3.2,0-6,0.8-8.1,1.7c0.8,0.3,1.5,0.7,2.3,1.1c1.3,0.6,2,1.9,2,3.1
		c0,1.3-0.6,2.5-1.2,3.7c-0.4,0.8-0.8,1.5-1.4,2.2c-0.6,0.6-1.4,1.1-2.4,1.1c0,0,0,0,0,0c-0.7,0-1.3-0.2-1.9-0.5
		c-2-1-3.8-1.5-4.7-1.5c0,0,0,0,0,0h-0.1c-0.6,0-0.8,0.1-1.1,0.2c-0.2,0.1-0.3,0.2-0.7,0.6c-0.5,0.7-1.4,2.9-1.4,6.8v0.1
		c0,1.9,0.8,3.7,2.1,5.1c1.4,1.4,3.1,2.2,5.5,2.2c0.9,0,1.4-0.2,2.1-0.6c0.6-0.4,1.3-1,1.9-1.6c1.2-1.3,2-3.2,2-3.3l0,0l0,0l0-0.1
		c0.5-1.3,1.3-2.4,2.5-3.3c1.1-0.9,2.8-2,5.2-2H31c1.9,0,3.6,0.8,5,1.9c0.9,0,1.8,0.1,2.8,0.1c2.4,0,4.9-0.4,7.2-1
		C55.9,13.3,54.3,3.8,48.1,3.8z"/>
</g>
<g>
</g>
<g>
</g>
<g>
</g>
<g>
</g>
<g>
</g>
<g>
</g>
<g>
</g>
<g>
</g>
<g>
</g>
<g>
</g>
<g>
</g>
<g>
</g>
<g>
</g>
<g>
</g>
<g>
</g>
</svg>
