<?xml version="1.0" encoding="utf-8"?>
<!-- Generator: Adobe Illustrator 18.1.1, SVG Export Plug-In . SVG Version: 6.00 Build 0)  -->
<svg version="1.1" id="Layer_1" xmlns="http://www.w3.org/2000/svg" xmlns:xlink="http://www.w3.org/1999/xlink" x="0px" y="0px"
	 viewBox="0 0 44.4 42.3" enable-background="new 0 0 44.4 42.3" xml:space="preserve">
<g>
	<path d="M33.8,31.9c-0.3-0.5-0.6-1-0.9-1.4c-1.6-2.2-3.7-3.4-5.8-3.4h-10c-2.1,0-4.1,1.2-5.8,3.4c-0.3,0.4-0.6,0.9-0.9,1.4
		c-0.3,0.5-0.5,1-0.8,1.6l0,0C9.4,34.5,9,35.7,8.7,37l0,0c0,0.2-0.1,0.3-0.1,0.5c1.8,2.9,4.9,4.9,8.6,4.9h10c3.7,0,6.8-2,8.6-4.9
		c-0.3-1.5-0.7-2.8-1.2-4.1C34.3,32.8,34.1,32.3,33.8,31.9z"/>
	<path d="M39,8.1c-1.5-2.4-3-4.4-4-5.6c-0.3-0.6-0.7-1-1.2-1.4c0,0-0.1-0.1-0.1-0.1l0,0c-0.8-0.6-1.8-1-2.9-1H13.6
		c-1.1,0-2.1,0.4-2.9,1l0,0c0,0-0.1,0.1-0.1,0.1c-0.5,0.4-0.9,0.9-1.2,1.4c-1,1.3-2.5,3.2-4,5.6C2.8,12.3,0,17.9,0,23.6
		c0,2.6,0.6,5.2,2.1,7.5c1.1,1.7,2.6,3.3,4.7,4.6c0.2-0.6,0.3-1.3,0.5-1.9c0.4-1.1,0.8-2.1,1.4-3c0.3-0.6,0.7-1.2,1-1.7
		c1.9-2.6,4.5-4.3,7.5-4.3h10c3,0,5.6,1.7,7.5,4.3c0.4,0.5,0.7,1.1,1,1.7c0.5,0.9,1,1.9,1.4,3c0.2,0.6,0.4,1.3,0.5,1.9
		c2-1.3,3.6-2.9,4.7-4.6c1.5-2.4,2.1-5,2.1-7.5C44.4,17.9,41.6,12.3,39,8.1z M39.3,29.2c-0.5,0.7-1.1,1.4-1.8,2.1
		c0.6-6.4-0.7-15.1-1.5-19.3c-2.3,2-5.9,4.2-11,4.9v4.3h-5.6v-4.3C14.3,16.2,10.7,14,8.4,12c-0.8,4.2-2.1,12.9-1.5,19.3
		c-0.7-0.7-1.3-1.4-1.8-2.1c-1.1-1.7-1.5-3.6-1.5-5.6c0-4.5,2.4-9.6,4.8-13.6c0.1-0.2,0.3-0.4,0.4-0.6c2.2,2.2,6.6,5.4,13.5,5.4
		c6.9,0,11.2-3.3,13.3-5.5c0.3,0.4,0.6,0.9,0.8,1.4c2.3,3.8,4.4,8.6,4.4,12.8C40.8,25.6,40.3,27.5,39.3,29.2z"/>
</g>
<g>
</g>
<g>
</g>
<g>
</g>
<g>
</g>
<g>
</g>
<g>
</g>
<g>
</g>
<g>
</g>
<g>
</g>
<g>
</g>
<g>
</g>
<g>
</g>
<g>
</g>
<g>
</g>
<g>
</g>
</svg>
