<?xml version="1.0" encoding="utf-8"?>
<!-- Generator: Adobe Illustrator 18.1.1, SVG Export Plug-In . SVG Version: 6.00 Build 0)  -->
<svg version="1.1" id="Layer_1" xmlns="http://www.w3.org/2000/svg" xmlns:xlink="http://www.w3.org/1999/xlink" x="0px" y="0px"
	 viewBox="0 0 45.5 37.7" enable-background="new 0 0 45.5 37.7" xml:space="preserve">
<path d="M37.3,34.1v-7.6H45l-5.4-9.8H45l-9.5-12l-9.5,12h5.4L26,26.5h7.7v7.6H23.1v-19h4.1L13.6,0L0,15.1h4.1v19h-4v3.6h45.4v-3.6
	H37.3z M11.8,30H8.1v-3.7h3.7V30z M11.8,22.5H8.1v-3.7h3.7V22.5z M11.8,15.1H8.1v-3.7h3.7V15.1z M19.1,30h-3.7v-3.7h3.7V30z
	 M19.1,22.5h-3.7v-3.7h3.7V22.5z M19.1,15.1h-3.7v-3.7h3.7V15.1z"/>
<g>
</g>
<g>
</g>
<g>
</g>
<g>
</g>
<g>
</g>
<g>
</g>
<g>
</g>
<g>
</g>
<g>
</g>
<g>
</g>
<g>
</g>
<g>
</g>
<g>
</g>
<g>
</g>
<g>
</g>
</svg>
