<?xml version="1.0" encoding="utf-8"?>
<!-- Generator: Adobe Illustrator 18.1.1, SVG Export Plug-In . SVG Version: 6.00 Build 0)  -->
<svg version="1.1" id="Layer_1" xmlns="http://www.w3.org/2000/svg" xmlns:xlink="http://www.w3.org/1999/xlink" x="0px" y="0px"
	 viewBox="0 0 67.7 42.9" enable-background="new 0 0 67.7 42.9" xml:space="preserve">
<g>
	<path d="M19.9,21.4"/>
	<path d="M67.7,19c0-2.7-1.2-5-3.1-6.6c0-0.2,0-0.5,0-0.7l0,0l0,0v0c0,0,0,0,0,0c0-2.2-0.9-4.4-2.5-6C60.4,3.9,58.2,3,56,3h0
		c0,0-0.1,0-0.1,0c-0.2,0-0.4,0-0.7,0c-1.6-1.9-4-3.1-6.6-3.1c-2.6,0-5,1.2-6.6,3.1c-0.2,0-0.4,0-0.6,0c-0.1,0-0.2,0-0.2,0
		c-2.2,0-4.4,0.9-6,2.5c-1.7,1.7-2.5,3.9-2.5,6.1c0,0,0,0,0,0c0,0,0,0,0,0c0,0,0,0,0,0v0c0,0.2,0,0.5,0,0.7c-0.8,0.7-1.5,1.5-2,2.5
		l-5-8.5c-0.3-0.5-0.8-0.7-1.3-0.7H21l-2.4,0c-0.5,0-1,0.3-1.3,0.7L0.2,35.1C0.1,35.4,0,35.6,0,35.9v5.5c0,0.4,0.2,0.8,0.4,1.1
		c0.3,0.3,0.7,0.4,1.1,0.4h18.2V25.4l0,0c0-1,0.8-1.8,1.8-1.8c1,0,1.8,0.8,1.8,1.8l0,0v17.5h18.2c0.4,0,0.8-0.2,1.1-0.4
		c0.3-0.3,0.4-0.7,0.4-1.1v-5.4c1.2,1,2.6,1.7,4.2,2v4.9h3v-4.9c2-0.4,3.8-1.4,5.1-2.9c0.2,0,0.5,0,0.7,0l0,0c0,0,0.1,0,0.1,0
		c2.2,0,4.4-0.9,6-2.5c1.7-1.7,2.5-3.9,2.5-6.1l0,0l0-0.1c0-0.2,0-0.5,0-0.7C66.5,24.1,67.7,21.7,67.7,19z M39.9,39.9H26.3V25.4l0,0
		c0-2.7-2.2-4.8-4.8-4.8c-2.7,0-4.8,2.2-4.8,4.8l0,0v14.5H3v-3.6L19.4,8.7H21v0h2.5l16.4,27.6V39.9z M62.2,23.7
		c-0.5,0.3-0.8,0.9-0.6,1.5c0.1,0.4,0.1,0.7,0.1,1.1c0,0,0,0,0,0v0v0c0,1.4-0.6,2.9-1.7,4c-1.1,1.1-2.5,1.6-4,1.6h0c0,0,0,0,0,0l0,0
		c-0.4,0-0.7,0-1.1-0.1c-0.6-0.1-1.2,0.1-1.5,0.6c-1,1.5-2.7,2.5-4.7,2.5c-2,0-3.7-1-4.7-2.5c-0.3-0.4-0.8-0.7-1.2-0.7
		c-0.1,0-0.2,0-0.3,0C42.1,32,41.7,32,41.3,32h0c0,0,0,0,0,0l0,0c-0.1,0-0.3,0-0.4-0.1l-8.2-13.7c0.2-1.6,1.2-3,2.5-3.9
		c0.5-0.3,0.8-1,0.6-1.5c-0.1-0.3-0.1-0.7-0.1-1c0-0.1,0-0.1,0-0.2c0-1.4,0.6-2.8,1.6-3.9c1.1-1.1,2.5-1.6,3.9-1.7c0,0,0.1,0,0.1,0
		c0.4,0,0.7,0,1.1,0.1C43,6.3,43.6,6,44,5.5C45,4,46.7,3,48.7,3c2,0,3.7,1,4.7,2.5c0.3,0.5,1,0.8,1.6,0.6c0.3-0.1,0.7-0.1,1-0.1
		C56,6,56,6,56.1,6c1.4,0,2.8,0.6,3.9,1.7c1.1,1.1,1.7,2.5,1.7,4c0,0,0,0,0,0v0c0,0.4,0,0.7-0.1,1.1c-0.1,0.6,0.1,1.2,0.6,1.5
		c1.5,1,2.5,2.7,2.5,4.7C64.7,21,63.7,22.7,62.2,23.7z"/>
</g>
<g>
</g>
<g>
</g>
<g>
</g>
<g>
</g>
<g>
</g>
<g>
</g>
<g>
</g>
<g>
</g>
<g>
</g>
<g>
</g>
<g>
</g>
<g>
</g>
<g>
</g>
<g>
</g>
<g>
</g>
</svg>
