<?xml version="1.0" encoding="utf-8"?>
<!-- Generator: Adobe Illustrator 18.1.1, SVG Export Plug-In . SVG Version: 6.00 Build 0)  -->
<svg version="1.1" id="Layer_1" xmlns="http://www.w3.org/2000/svg" xmlns:xlink="http://www.w3.org/1999/xlink" x="0px" y="0px"
	 viewBox="0 0 49.9 47.5" enable-background="new 0 0 49.9 47.5" xml:space="preserve">
<g>
	<path d="M28.5,0L25,2.8L21.5,0c0,0-11.1,9.8,3.5,23v0c0,0,0,0,0,0c0,0,0,0,0,0v0C39.5,9.8,28.5,0,28.5,0z"/>
	<path d="M22.9,24.5L22.9,24.5C23,24.5,23,24.5,22.9,24.5C23,24.5,23,24.4,22.9,24.5L22.9,24.5C14.9,6.5,2.2,14,2.2,14l1.6,4.2
		L0,20.7C0,20.7,5.9,34.3,22.9,24.5z"/>
	<path d="M23.8,26.8C23.7,26.8,23.7,26.8,23.8,26.8C23.7,26.8,23.7,26.8,23.8,26.8L23.8,26.8C4.2,28.9,7.4,43.4,7.4,43.4l4.5-0.2
		l1.2,4.3C13,47.5,27.8,46,23.8,26.8L23.8,26.8z"/>
	<path d="M46.2,18.2l1.6-4.2c0,0-12.8-7.5-20.8,10.4l0,0c0,0,0,0,0,0c0,0,0,0,0,0l0,0c17,9.8,22.9-3.8,22.9-3.8L46.2,18.2z"/>
	<path d="M26.2,26.8L26.2,26.8C26.2,26.8,26.2,26.8,26.2,26.8C26.2,26.8,26.2,26.8,26.2,26.8L26.2,26.8C22.1,46,36.9,47.5,36.9,47.5
		l1.2-4.3l4.5,0.2C42.5,43.4,45.7,28.9,26.2,26.8z"/>
</g>
<g>
</g>
<g>
</g>
<g>
</g>
<g>
</g>
<g>
</g>
<g>
</g>
<g>
</g>
<g>
</g>
<g>
</g>
<g>
</g>
<g>
</g>
<g>
</g>
<g>
</g>
<g>
</g>
<g>
</g>
</svg>
