<?xml version="1.0" encoding="utf-8"?>
<!-- Generator: Adobe Illustrator 18.1.1, SVG Export Plug-In . SVG Version: 6.00 Build 0)  -->
<svg version="1.1" id="Layer_1" xmlns="http://www.w3.org/2000/svg" xmlns:xlink="http://www.w3.org/1999/xlink" x="0px" y="0px"
	 viewBox="0 0 39.5 44.2" enable-background="new 0 0 39.5 44.2" xml:space="preserve">
<g>
	<path d="M39.2,32.8l-12.5-7c-0.1-0.1-0.2-0.4-0.2-0.5v-2.9c0-0.2-0.1-0.5-0.1-0.6L20.7,13V7.8c0-0.2,0.2-0.4,0.5-0.4h4.6
		c0.2,0,0.4-0.2,0.4-0.4V6c0-0.3-0.2-0.5-0.4-0.5h-4.6c-0.2,0-0.5-0.2-0.5-0.4V0.5c0-0.2-0.2-0.5-0.5-0.5h-0.9
		c-0.2,0-0.4,0.2-0.4,0.5v4.6c0,0.2-0.2,0.4-0.5,0.4h-4.6c-0.2,0-0.5,0.2-0.5,0.5v0.9c0,0.2,0.2,0.4,0.5,0.4h4.6
		c0.2,0,0.5,0.2,0.5,0.4v5.1l-5.7,8.8C13,21.9,13,22.1,13,22.3v2.9c0,0.2-0.1,0.4-0.2,0.5l-12.5,7C0.1,32.9,0,33.1,0,33.3l0,10.6
		c0,0.2,0.2,0.3,0.4,0.3h15.3v-5.7c0-0.2,0.1-0.4,0.2-0.6l3.7-5.1c0.1-0.1,0.3-0.1,0.4,0l3.7,5.1c0.1,0.2,0.2,0.4,0.2,0.6v5.7h15.3
		c0.2,0,0.3-0.2,0.3-0.3l0-10.6C39.5,33.1,39.4,32.9,39.2,32.8z"/>
</g>
<g>
</g>
<g>
</g>
<g>
</g>
<g>
</g>
<g>
</g>
<g>
</g>
<g>
</g>
<g>
</g>
<g>
</g>
<g>
</g>
<g>
</g>
<g>
</g>
<g>
</g>
<g>
</g>
<g>
</g>
</svg>
