<?xml version="1.0" encoding="utf-8"?>
<!-- Generator: Adobe Illustrator 18.1.1, SVG Export Plug-In . SVG Version: 6.00 Build 0)  -->
<svg version="1.1" id="Layer_1" xmlns="http://www.w3.org/2000/svg" xmlns:xlink="http://www.w3.org/1999/xlink" x="0px" y="0px"
	 viewBox="0 0 49 49" enable-background="new 0 0 49 49" xml:space="preserve">
<g>
	<path d="M24.5,0C11,0,0,11,0,24.5C0,38,11,49,24.5,49C38,49,48.9,38,49,24.5C48.9,11,38,0,24.5,0z M39,39c-3.7,3.7-8.8,6-14.5,6
		c-5.7,0-10.8-2.3-14.5-6c-3.7-3.7-6-8.8-6-14.5c0-5.7,2.3-10.8,6-14.5c3.7-3.7,8.8-6,14.5-6c5.7,0,10.8,2.3,14.5,6
		c3.7,3.7,6,8.8,6,14.5C45,30.2,42.7,35.3,39,39z M22.3,24.4c-0.2,1.2,0.7,2.3,1.9,2.5c1.2,0.2,2.3-0.7,2.5-1.9
		c0.2-1.2-0.7-2.3-1.9-2.5C23.6,22.3,22.5,23.1,22.3,24.4z M24.5,6.7c-9.8,0-17.8,8-17.8,17.8c0,9.8,8,17.8,17.8,17.8
		c9.8,0,17.8-8,17.8-17.8C42.3,14.6,34.3,6.7,24.5,6.7z M24.4,40.1l-4.5-15.5l4.8-15.4l4.4,15.5L24.4,40.1z"/>
</g>
<g>
</g>
<g>
</g>
<g>
</g>
<g>
</g>
<g>
</g>
<g>
</g>
<g>
</g>
<g>
</g>
<g>
</g>
<g>
</g>
<g>
</g>
<g>
</g>
<g>
</g>
<g>
</g>
<g>
</g>
</svg>
