<?xml version="1.0" encoding="utf-8"?>
<!-- Generator: Adobe Illustrator 18.1.1, SVG Export Plug-In . SVG Version: 6.00 Build 0)  -->
<svg version="1.1" id="Layer_1" xmlns="http://www.w3.org/2000/svg" xmlns:xlink="http://www.w3.org/1999/xlink" x="0px" y="0px"
	 viewBox="0 0 48.4 42.3" enable-background="new 0 0 48.4 42.3" xml:space="preserve">
<g>
	<path d="M42.1,10.7L24.2,0L6.4,10.7L0,28.3h5.5v14h37.4v-14h5.5L42.1,10.7z M22.8,31.4v3.7H9.6v-3.4c0,0,5.8-5.5,5.8-5.5
		c1.3-1.2,3.6-3.2,3.6-5.2c0-1.8-1.4-2.8-3.4-2.8c-1.7,0-3.4,0.7-5,2.1v-3.9c1.8-1.1,3.7-1.7,5.9-1.7c2.1,0,3.7,0.5,4.8,1.5
		c1.2,1,1.7,2.4,1.7,4.2c0,2-0.6,4-3.3,6.6c-0.3,0.3-4.7,4.3-4.7,4.3v0.1H22.8z M38.9,30.8h-2.7v4.3h-3.7v-4.3h-8.8v-3.8L31.2,15h5
		v12.7h2.7V30.8z M32.4,19.2c-0.1,0.3-5.1,8.4-5.1,8.4h5.1V19.2L32.4,19.2z"/>
</g>
<g>
</g>
<g>
</g>
<g>
</g>
<g>
</g>
<g>
</g>
<g>
</g>
<g>
</g>
<g>
</g>
<g>
</g>
<g>
</g>
<g>
</g>
<g>
</g>
<g>
</g>
<g>
</g>
<g>
</g>
</svg>
