<?xml version="1.0" encoding="utf-8"?>
<!-- Generator: Adobe Illustrator 18.1.1, SVG Export Plug-In . SVG Version: 6.00 Build 0)  -->
<svg version="1.1" id="Layer_1" xmlns="http://www.w3.org/2000/svg" xmlns:xlink="http://www.w3.org/1999/xlink" x="0px" y="0px"
	 viewBox="0 0 47.2 49.5" enable-background="new 0 0 47.2 49.5" xml:space="preserve">
<g>
	<path d="M19.8,13.1c3.6,0,6.5-2.9,6.5-6.5c0-3.6-2.9-6.5-6.5-6.5s-6.5,2.9-6.5,6.5C13.2,10.2,16.2,13.1,19.8,13.1z M19.8,3.1
		c1.9,0,3.4,1.5,3.4,3.4c0,1.9-1.5,3.4-3.4,3.4c-1.9,0-3.4-1.5-3.4-3.4C16.4,4.7,17.9,3.1,19.8,3.1z M32.5,26.4c0,0-5.7,0-7.8,0
		c0-2.4,0-12.1,0-12.1h-9.9v22c0,0,12.4,0,13.6,0c0.8,0.8,11.8,11.8,11.8,11.8l7-7L32.5,26.4z M29.7,33.2c0,0-9.4,0-11.8,0V17.4h3.6
		c0,2.4,0,12.1,0,12.1s8.5,0,9.6,0c0.8,0.8,9.8,9.8,11.6,11.6c-0.9,0.9-1.7,1.7-2.6,2.6C38.4,41.9,29.7,33.2,29.7,33.2z M15.2,46.3
		c-6.7,0-12.1-5.4-12.1-12.1c0-5.7,3.9-10.4,9.2-11.7v-3.2C5.3,20.6,0,26.8,0,34.2c0,8.4,6.8,15.2,15.2,15.2c6.2,0,11.5-3.7,13.9-9
		c-1.2-0.8-2.7-1.7-2.7-1.7C24.6,43.2,20.3,46.3,15.2,46.3z"/>
</g>
<g>
</g>
<g>
</g>
<g>
</g>
<g>
</g>
<g>
</g>
<g>
</g>
<g>
</g>
<g>
</g>
<g>
</g>
<g>
</g>
<g>
</g>
<g>
</g>
<g>
</g>
<g>
</g>
<g>
</g>
</svg>
