<?xml version="1.0" encoding="utf-8"?>
<!-- Generator: Adobe Illustrator 18.1.1, SVG Export Plug-In . SVG Version: 6.00 Build 0)  -->
<svg version="1.1" id="Layer_1" xmlns="http://www.w3.org/2000/svg" xmlns:xlink="http://www.w3.org/1999/xlink" x="0px" y="0px"
	 viewBox="0 0 35.4 39.6" enable-background="new 0 0 35.4 39.6" xml:space="preserve">
<g>
	<path d="M2.3,25.6c0.2,4.5,3.1,9.3,7.8,8.8c4.9-0.5,5-5.1,4.4-9L2.3,25.6z"/>
	<path d="M15.2,12.7c1.1-4.1,1.6-10-3.3-12.1C6.9-1.5,1.6,2.6,0.5,7.1c-1.2,4.9-0.2,10.2,1,15L13.8,22
		C13.9,18.4,14.2,16.4,15.2,12.7z"/>
	<path d="M25.3,39.5c4.8,0.5,7.6-4.4,7.8-8.8l-12.2-0.1C20.2,34.4,20.3,39,25.3,39.5z"/>
	<path d="M34.8,12.2c-1.1-4.5-6.4-8.7-11.4-6.6c-5,2.1-4.4,8-3.3,12.1c1,3.7,1.3,5.7,1.4,9.4l12.3,0.1C35,22.4,36,17.1,34.8,12.2z"
		/>
</g>
<g>
</g>
<g>
</g>
<g>
</g>
<g>
</g>
<g>
</g>
<g>
</g>
<g>
</g>
<g>
</g>
<g>
</g>
<g>
</g>
<g>
</g>
<g>
</g>
<g>
</g>
<g>
</g>
<g>
</g>
</svg>
