<?xml version="1.0" encoding="utf-8"?>
<!-- Generator: Adobe Illustrator 18.1.1, SVG Export Plug-In . SVG Version: 6.00 Build 0)  -->
<svg version="1.1" id="Layer_1" xmlns="http://www.w3.org/2000/svg" xmlns:xlink="http://www.w3.org/1999/xlink" x="0px" y="0px"
	 viewBox="0 0 612 664.2" enable-background="new 0 0 612 664.2" xml:space="preserve">
<g>
	<path d="M500.5,438.8c-61.7,0-111.5,49.8-111.5,111.5s49.8,111.5,111.5,111.5S612,612,612,550.3C612,488.7,562.2,438.8,500.5,438.8
		z M500.5,600.1c-26.1,0-47.4-21.3-47.4-47.4c0-26.1,21.3-47.4,47.4-47.4c26.1,0,47.4,21.3,47.4,47.4
		C548,578.8,526.6,600.1,500.5,600.1z"/>
	<path d="M260.9,491c-11.9-7.1-26.1-11.9-40.3-14.2v66.4c4.7,2.4,7.1,2.4,11.9,4.7c9.5,4.7,14.2,9.5,16.6,11.9
		c2.4,2.4,2.4,4.7,2.4,4.7l0,0c0,0,0,2.4-2.4,4.7c-4.7,9.5-28.5,21.3-59.3,26.1V294.1l275.2-87.8l7.1-2.4
		c14.2-7.1,23.7-19,23.7-35.6s-9.5-30.8-23.7-35.6l-4.7-2.4L189.8,40.3V0h-64v595.4c-16.6-2.4-30.8-7.1-42.7-11.9
		c-9.5-4.7-14.2-9.5-16.6-11.9c-2.4-2.4-2.4-4.7-2.4-4.7s0-2.4,2.4-4.7c2.4-4.7,11.9-11.9,26.1-16.6v-66.4
		c-14.2,4.7-28.5,9.5-40.3,14.2C26.1,505.3,0,529,0,564.6c0,35.6,26.1,59.3,54.6,75.9c28.5,14.2,64,23.7,104.4,23.7
		s75.9-7.1,104.4-23.7c28.5-14.2,52.2-38,54.6-75.9l0,0C315.5,529,289.4,505.3,260.9,491z M189.8,109.1l185,59.3l-185,59.3V109.1z"
		/>
</g>
<g>
</g>
<g>
</g>
<g>
</g>
<g>
</g>
<g>
</g>
<g>
</g>
<g>
</g>
<g>
</g>
<g>
</g>
<g>
</g>
<g>
</g>
<g>
</g>
<g>
</g>
<g>
</g>
<g>
</g>
</svg>
