<?xml version="1.0" encoding="utf-8"?>
<!-- Generator: Adobe Illustrator 18.1.1, SVG Export Plug-In . SVG Version: 6.00 Build 0)  -->
<svg version="1.1" id="Layer_1" xmlns="http://www.w3.org/2000/svg" xmlns:xlink="http://www.w3.org/1999/xlink" x="0px" y="0px"
	 viewBox="0 0 44.2 42.6" enable-background="new 0 0 44.2 42.6" xml:space="preserve">
<g>
	<path d="M39.4,13.8v10.7h-20c-2.2,0.1-3.9,1.4-5,3.1c-1.1-1.7-2.8-3.1-5-3.1H4.7V13.8H0v28.7h4.7v-4.3h9.6l0.1,0l0,0h24.9v4.3h4.8
		V13.8H39.4z M26.7,21.7h4v-8h4.9l-2-12.2C33.5,0.7,32.7,0,31.8,0h-6.3v0c0,0,0,0,0,0c-0.9,0-1.7,0.7-1.8,1.5l-2.1,12.2h5.1V21.7z"
		/>
</g>
<g>
</g>
<g>
</g>
<g>
</g>
<g>
</g>
<g>
</g>
<g>
</g>
<g>
</g>
<g>
</g>
<g>
</g>
<g>
</g>
<g>
</g>
<g>
</g>
<g>
</g>
<g>
</g>
<g>
</g>
</svg>
