<?xml version="1.0" encoding="utf-8"?>
<!-- Generator: Adobe Illustrator 18.1.1, SVG Export Plug-In . SVG Version: 6.00 Build 0)  -->
<svg version="1.1" id="Layer_1" xmlns="http://www.w3.org/2000/svg" xmlns:xlink="http://www.w3.org/1999/xlink" x="0px" y="0px"
	 viewBox="0 0 50.1 47.3" enable-background="new 0 0 50.1 47.3" xml:space="preserve">
<g>
	<path d="M50.1,17.6c0-0.8-0.7-1.5-1.5-1.5s-1.5,0.7-1.5,1.5c0,0,0,0,0,0h0V26H21.8c-1.7,0-3.2,0.7-4.3,1.9C16.5,26.7,15,26,13.3,26
		H3v-8.3h0c0,0,0,0,0,0c0-0.8-0.7-1.5-1.5-1.5c-0.8,0-1.5,0.7-1.5,1.5c0,0,0,0,0,0h0v29.6h3v-7h13h3.1h28v7h3V17.6L50.1,17.6
		C50.1,17.6,50.1,17.6,50.1,17.6z M16,31.8v5.5H3V29h10.3c1.4,0,2.6,1,2.8,2.4C16,31.5,16,31.6,16,31.8z M47,37.3H19.1v-5.5
		c0-0.1,0-0.3,0-0.4c0.2-1.4,1.4-2.4,2.8-2.4H47V37.3z M29.8,14.8H34v9.6h3v-9.6h4.2c0.4,0,0.9-0.2,1.2-0.5c0.3-0.3,0.4-0.8,0.3-1.2
		L40.4,1.2C40.3,0.5,39.7,0,39,0h-7c-0.7,0-1.3,0.5-1.5,1.2L28.3,13c-0.1,0.4,0,0.9,0.3,1.2C28.9,14.6,29.3,14.8,29.8,14.8z M33.2,3
		h4.5l1.6,8.8h-7.8L33.2,3z"/>
</g>
<g>
</g>
<g>
</g>
<g>
</g>
<g>
</g>
<g>
</g>
<g>
</g>
<g>
</g>
<g>
</g>
<g>
</g>
<g>
</g>
<g>
</g>
<g>
</g>
<g>
</g>
<g>
</g>
<g>
</g>
</svg>
