<?xml version="1.0" encoding="utf-8"?>
<!-- Generator: Adobe Illustrator 18.1.1, SVG Export Plug-In . SVG Version: 6.00 Build 0)  -->
<svg version="1.1" id="Layer_1" xmlns="http://www.w3.org/2000/svg" xmlns:xlink="http://www.w3.org/1999/xlink" x="0px" y="0px"
	 viewBox="0 0 52.5 39.7" enable-background="new 0 0 52.5 39.7" xml:space="preserve">
<g>
	<path d="M52.2,17.7c0,0-9-3.2-9.5-4c-1.4-2.6-3.1-11.7-3.1-11.7c0-0.2-0.1-0.5-0.1-0.7V0.3c0-0.2-0.2-0.3-0.3-0.3h-0.8
		c-0.2,0-0.3,0.2-0.3,0.3v1c0,0.2,0,0.3,0,0.3c0,0-0.2,0-0.3,0h-23c-0.2,0-0.3,0-0.3,0s0-0.2,0-0.3v-1c0-0.2-0.1-0.3-0.3-0.3h-0.8
		C13.1,0,13,0.2,13,0.3v1.1c0,0.2,0,0.5-0.1,0.7c0,0-1.7,9.1-3.1,11.7c-0.4,0.8-9.5,4-9.5,4C0.1,17.8,0,18,0,18.2v0.5
		c0,0.2,0.1,0.4,0.3,0.5l7.9,1.7c0.2,0,0.4,0.2,0.4,0.4V34c0,0.1-0.1,0.1-0.1,0.2H4.9c-0.2,0-0.3,0.1-0.3,0.3V37
		c0,0.2-0.1,0.3-0.3,0.3H1.4c-0.2,0-0.3,0.1-0.3,0.3v1.9c0,0.2,0.1,0.3,0.3,0.3H51c0.2,0,0.3-0.1,0.3-0.3v-1.9
		c0-0.2-0.1-0.3-0.3-0.3h-2.6c-0.2,0-0.3-0.1-0.3-0.3v-2.5c0-0.2-0.1-0.3-0.3-0.3h-3.6c-0.1,0-0.1-0.1-0.1-0.2V21.2
		c0-0.2,0.2-0.4,0.3-0.4l7.9-1.7c0.2-0.1,0.3-0.3,0.3-0.5v-0.5C52.5,18,52.4,17.8,52.2,17.7z M33.7,23.1c0-0.2,0.2-0.3,0.4-0.3h3.4
		c0.2,0,0.3,0.2,0.3,0.3v2.5h-4V23.1z M33.7,26.8h4v6.9c0,0.2-0.2,0.3-0.5,0.3H34c-0.2,0-0.4-0.2-0.4-0.3V26.8z M27.4,23.1
		c0-0.2,0.2-0.3,0.4-0.3H31c0.2,0,0.4,0.2,0.4,0.3v2.5h-3.9V23.1z M27.4,26.8h3.9v6.9c0,0.2-0.2,0.3-0.4,0.3h-3.2
		c-0.2,0-0.4-0.2-0.4-0.3V26.8z M21.1,23.1c0-0.2,0.2-0.3,0.4-0.3h3.2c0.2,0,0.4,0.2,0.4,0.3v2.5h-4V23.1z M21.1,26.8h4v6.9
		c0,0.2-0.2,0.3-0.4,0.3h-3.2c-0.2,0-0.4-0.2-0.4-0.3V26.8z M14.6,23.1c0-0.2,0.2-0.3,0.4-0.3h3.5c0.2,0,0.4,0.2,0.4,0.3v2.5h-4.2
		V23.1z M14.6,26.8h4.2v6.9c0,0.2-0.2,0.3-0.4,0.3H15c-0.2,0-0.4-0.2-0.4-0.3V26.8z"/>
</g>
<g>
</g>
<g>
</g>
<g>
</g>
<g>
</g>
<g>
</g>
<g>
</g>
<g>
</g>
<g>
</g>
<g>
</g>
<g>
</g>
<g>
</g>
<g>
</g>
<g>
</g>
<g>
</g>
<g>
</g>
</svg>
