<?xml version="1.0" encoding="utf-8"?>
<!-- Generator: Adobe Illustrator 18.1.1, SVG Export Plug-In . SVG Version: 6.00 Build 0)  -->
<svg version="1.1" id="Layer_1" xmlns="http://www.w3.org/2000/svg" xmlns:xlink="http://www.w3.org/1999/xlink" x="0px" y="0px"
	 viewBox="0 0 49.6 43.6" enable-background="new 0 0 49.6 43.6" xml:space="preserve">
<g>
	<path d="M24.8,9.9c-3.9,0-7.3,1.6-9.9,4.1c-0.9,0.9-1.7,1.9-2.3,3c-1.5,3.1-0.5,6.8,2.4,8.8c3.2,2.2,7.6,1.3,9.7-1.9
		c2.2-3.2,6.5-4.1,9.7-1.9c2.8,1.9,3.8,5.4,2.6,8.4c1-1.9,1.6-4.1,1.6-6.5c0-3.9-1.6-7.3-4.1-9.9C32.2,11.4,28.7,9.9,24.8,9.9z"/>
	<path d="M46.4,38.7V9.3H41L24.8,0c0,0-15.9,9.3-16.1,9.3H3.3l0,29.4H0v4.9h49.6v-4.9H46.4z M24.8,40.8c-9.4,0-16.9-7.6-16.9-17
		c0-9.4,7.6-16.9,16.9-16.9c9.4,0,17,7.6,17,16.9C41.8,33.2,34.2,40.8,24.8,40.8z"/>
</g>
<g>
</g>
<g>
</g>
<g>
</g>
<g>
</g>
<g>
</g>
<g>
</g>
<g>
</g>
<g>
</g>
<g>
</g>
<g>
</g>
<g>
</g>
<g>
</g>
<g>
</g>
<g>
</g>
<g>
</g>
</svg>
