<?xml version="1.0" encoding="utf-8"?>
<!-- Generator: Adobe Illustrator 18.1.1, SVG Export Plug-In . SVG Version: 6.00 Build 0)  -->
<svg version="1.1" id="Layer_1" xmlns="http://www.w3.org/2000/svg" xmlns:xlink="http://www.w3.org/1999/xlink" x="0px" y="0px"
	 viewBox="0 0 51.9 34.8" enable-background="new 0 0 51.9 34.8" xml:space="preserve">
<g>
	<g>
		<path d="M51.7,8.5C47.4,7.6,41,4.4,38,2.2c-0.1-0.1-0.2-0.2-0.2-0.3V0.2c0-0.1-0.1-0.2-0.2-0.2h-1c-0.1,0-0.2,0.1-0.2,0.2v1.4
			c0,0.1-0.1,0.3-0.2,0.3c-3.5,0-16.8,0-20.2,0c-0.1,0-0.2-0.1-0.2-0.3V0.2c0-0.1-0.1-0.2-0.2-0.2h-1c-0.1,0-0.2,0.1-0.2,0.2v1.6
			c0,0.1-0.1,0.3-0.2,0.3C11,4.4,4.6,7.6,0.2,8.5C0.1,8.5,0,8.7,0,8.8v0.8C0,9.8,0.1,9.9,0.2,10l9,4.1c0,0-0.1,0.1-0.1,0.1v15.2
			c0,0.1-0.1,0.3-0.3,0.3H7.4c-0.1,0-0.3,0.1-0.3,0.3v2.3c0,0.1-0.1,0.3-0.3,0.3H3.7c-0.1,0-0.3,0.1-0.3,0.3v1.7
			c0,0.1,0.1,0.3,0.3,0.3h44.8c0.1,0,0.3-0.1,0.3-0.3v-1.7c0-0.1-0.1-0.3-0.3-0.3h-3.4c-0.1,0-0.3-0.1-0.3-0.3V30
			c0-0.1-0.1-0.3-0.3-0.3H43c-0.1,0-0.3-0.1-0.3-0.3V14.2c0,0,0,0,0-0.1l9-4.2c0.1-0.1,0.2-0.2,0.2-0.4V8.8
			C51.9,8.7,51.8,8.5,51.7,8.5z M18.5,29.5c0,0.1-0.1,0.3-0.3,0.3h-4.9c-0.1,0-0.3-0.1-0.3-0.3v-12c0-0.1,0.1-0.3,0.3-0.3h4.9
			c0.1,0,0.3,0.1,0.3,0.3V29.5z M31.5,29.5c0,0.1-0.1,0.3-0.3,0.3h-3.3c-0.1,0-3.8,0-3.9,0h-3.3c-0.1,0-0.3-0.1-0.3-0.3v-12
			c0-0.1,0.1-0.3,0.3-0.3h10.5c0.1,0,0.3,0.1,0.3,0.3V29.5z M38.9,29.5c0,0.1-0.1,0.3-0.3,0.3h-4.9c-0.1,0-0.3-0.1-0.3-0.3v-12
			c0-0.1,0.1-0.3,0.3-0.3h4.9c0.1,0,0.3,0.1,0.3,0.3V29.5z"/>
	</g>
</g>
<g>
</g>
<g>
</g>
<g>
</g>
<g>
</g>
<g>
</g>
<g>
</g>
<g>
</g>
<g>
</g>
<g>
</g>
<g>
</g>
<g>
</g>
<g>
</g>
<g>
</g>
<g>
</g>
<g>
</g>
</svg>
