<?xml version="1.0" encoding="utf-8"?>
<!-- Generator: Adobe Illustrator 18.1.1, SVG Export Plug-In . SVG Version: 6.00 Build 0)  -->
<svg version="1.1" id="Layer_1" xmlns="http://www.w3.org/2000/svg" xmlns:xlink="http://www.w3.org/1999/xlink" x="0px" y="0px"
	 viewBox="0 0 43.6 43.6" enable-background="new 0 0 43.6 43.6" xml:space="preserve">
<g>
	<path d="M21.8,0C9.8,0,0,9.8,0,21.8c0,12,9.8,21.8,21.8,21.8c12,0,21.8-9.8,21.8-21.8C43.6,9.8,33.9,0,21.8,0z M21.8,3.8
		c5,0,9.4,2,12.7,5.3c3.3,3.3,5.3,7.7,5.3,12.7c0,3-0.7,5.8-2,8.3c1.5-3.9,0.2-8.4-3.4-10.8c-4.1-2.8-9.8-1.6-12.5,2.5
		C19,26,13.4,27.1,9.3,24.3C5.5,21.8,4.3,17,6.2,13C7,11.6,8,10.3,9.1,9.1C12.4,5.9,16.8,3.8,21.8,3.8z"/>
</g>
<g>
</g>
<g>
</g>
<g>
</g>
<g>
</g>
<g>
</g>
<g>
</g>
<g>
</g>
<g>
</g>
<g>
</g>
<g>
</g>
<g>
</g>
<g>
</g>
<g>
</g>
<g>
</g>
<g>
</g>
</svg>
