<?xml version="1.0" encoding="utf-8"?>
<!-- Generator: Adobe Illustrator 18.1.1, SVG Export Plug-In . SVG Version: 6.00 Build 0)  -->
<svg version="1.1" id="Layer_1" xmlns="http://www.w3.org/2000/svg" xmlns:xlink="http://www.w3.org/1999/xlink" x="0px" y="0px"
	 viewBox="0 0 52.9 40.1" enable-background="new 0 0 52.9 40.1" xml:space="preserve">
<g>
	<path d="M52.9,14.7C52.9,14.7,52.9,14.7,52.9,14.7L52.9,14.7c0-0.1,0-0.1-0.1-0.1L27,0l-1,0L0.2,14.6c0,0,0,0,0,0
		c-0.1,0-0.2,0.1-0.2,0.2V17c0,0.2,0.1,0.3,0.3,0.3l5.6-0.1C5,23,5.2,26,5.2,26.9c0,1-0.2,4,0.7,9.9h-3c-0.2,0-0.3,0.1-0.3,0.3v2.7
		c0,0.2,0.1,0.3,0.3,0.3H50c0.2,0,0.3-0.1,0.3-0.3v-2.7c0-0.2-0.1-0.3-0.3-0.3h-3.1c0.9-6,0.7-9,0.7-9.9c0-1,0.2-3.9-0.7-9.8
		l5.7,0.1c0.2,0,0.3-0.1,0.3-0.3v-2.1C52.9,14.8,52.9,14.7,52.9,14.7z M9.7,36.9c0.9-6,0.7-9,0.7-9.9c0-1,0.2-3.9-0.7-9.8h8.5
		c-0.9,5.9-0.7,8.9-0.7,9.8c0,1-0.2,4,0.7,9.9H9.7z M22.1,36.9c0.9-6,0.7-9,0.7-9.9c0-1,0.2-3.9-0.7-9.8h8.5C29.8,23,30,26,30,26.9
		c0,1-0.2,4,0.7,9.9H22.1z M34.5,36.9c0.9-6,0.7-9,0.7-9.9c0-1,0.2-3.9-0.7-9.8h8.6c-0.9,5.9-0.7,8.9-0.7,9.8c0,1-0.2,4,0.7,9.9
		H34.5z"/>
</g>
<g>
</g>
<g>
</g>
<g>
</g>
<g>
</g>
<g>
</g>
<g>
</g>
<g>
</g>
<g>
</g>
<g>
</g>
<g>
</g>
<g>
</g>
<g>
</g>
<g>
</g>
<g>
</g>
<g>
</g>
</svg>
