<?xml version="1.0" encoding="utf-8"?>
<!-- Generator: Adobe Illustrator 18.1.1, SVG Export Plug-In . SVG Version: 6.00 Build 0)  -->
<svg version="1.1" id="Layer_1" xmlns="http://www.w3.org/2000/svg" xmlns:xlink="http://www.w3.org/1999/xlink" x="0px" y="0px"
	 viewBox="0 0 612 619.3" enable-background="new 0 0 612 619.3" xml:space="preserve">
<g>
	<path d="M314.6,111.6V78.9c18.7-4.7,49.8-6.2,85.6,14c56.1,32.7,90.3-1.6,90.3-1.6s-24.9,12.5-77.9-46.7
		C356.6-19.2,297.4,4.2,297.4,4.2v70.1v9.3v28l-109,137h235.1L314.6,111.6z"/>
	<path d="M535.7,254.9l-76.3,101.2v87.2h-63.8V301.6l28-35.8H188.4l28,35.8v141.7h-63.8v-87.2L76.3,254.9L0,356.1v87.2v176h152.6
		h63.8h179.1h63.8H612v-176v-87.2L535.7,254.9z M98.1,443.3H52.9v-82.5h45.2V443.3z M197.8,574.1h-45.2v-82.5h45.2L197.8,574.1
		L197.8,574.1z M328.6,443.3h-45.2v-82.5h45.2V443.3z M459.4,574.1h-45.2v-82.5h45.2V574.1z M560.6,443.3h-45.2v-82.5h45.2V443.3z"
		/>
</g>
<g>
</g>
<g>
</g>
<g>
</g>
<g>
</g>
<g>
</g>
<g>
</g>
<g>
</g>
<g>
</g>
<g>
</g>
<g>
</g>
<g>
</g>
<g>
</g>
<g>
</g>
<g>
</g>
<g>
</g>
</svg>
