<?xml version="1.0" encoding="utf-8"?>
<!-- Generator: Adobe Illustrator 18.1.1, SVG Export Plug-In . SVG Version: 6.00 Build 0)  -->
<svg version="1.1" id="Layer_1" xmlns="http://www.w3.org/2000/svg" xmlns:xlink="http://www.w3.org/1999/xlink" x="0px" y="0px"
	 viewBox="0 0 44.5 45.3" enable-background="new 0 0 44.5 45.3" xml:space="preserve">
<g>
	<path d="M43.9,41.5h-2c0,0,0-0.1,0-0.1V39c0-0.4-0.3-0.7-0.7-0.7h-1.8V22.2c0,0,0,0,0,0h1.8c0.4,0,0.7-0.3,0.7-0.7v-2.4
		c0-0.4-0.3-0.7-0.7-0.7H3.3c-0.4,0-0.7,0.3-0.7,0.7v2.4c0,0.4,0.3,0.7,0.7,0.7h1.8c0,0,0,0,0,0v16.1H3.3c-0.4,0-0.7,0.3-0.7,0.7
		v2.4c0,0,0,0.1,0,0.1h-2c-0.4,0-0.7,0.3-0.7,0.7v2.4c0,0.4,0.3,0.7,0.7,0.7h43.2c0.4,0,0.7-0.3,0.7-0.7v-2.4
		C44.5,41.8,44.2,41.5,43.9,41.5z M12.7,22.2v16.1H9.2V22.2c0,0,0,0,0,0L12.7,22.2C12.7,22.2,12.7,22.2,12.7,22.2z M20.2,22.2v16.1
		h-3.4V22.2c0,0,0,0,0,0L20.2,22.2C20.2,22.2,20.2,22.2,20.2,22.2z M27.8,22.2v16.1h-3.4V22.2c0,0,0,0,0,0L27.8,22.2
		C27.8,22.2,27.8,22.2,27.8,22.2z M35.3,22.2v16.1h-3.4V22.2c0,0,0,0,0,0L35.3,22.2C35.3,22.2,35.3,22.2,35.3,22.2z M1.3,16.2h42
		c0.3,0,0.6-0.2,0.7-0.5c0.1-0.3,0-0.7-0.3-0.8l-21-14.7c-0.3-0.2-0.6-0.2-0.9,0l-21,14.7c-0.3,0.2-0.4,0.5-0.3,0.8
		C0.6,16,0.9,16.2,1.3,16.2z M22.3,5.8l8.1,5.7H14.1L22.3,5.8z"/>
</g>
<g>
</g>
<g>
</g>
<g>
</g>
<g>
</g>
<g>
</g>
<g>
</g>
<g>
</g>
<g>
</g>
<g>
</g>
<g>
</g>
<g>
</g>
<g>
</g>
<g>
</g>
<g>
</g>
<g>
</g>
</svg>
