<?xml version="1.0" encoding="utf-8"?>
<!-- Generator: Adobe Illustrator 18.1.1, SVG Export Plug-In . SVG Version: 6.00 Build 0)  -->
<svg version="1.1" id="Layer_1" xmlns="http://www.w3.org/2000/svg" xmlns:xlink="http://www.w3.org/1999/xlink" x="0px" y="0px"
	 viewBox="0 0 45.7 40.1" enable-background="new 0 0 45.7 40.1" xml:space="preserve">
<g>
	<path d="M42.7,35.6V8.5h-5.1L22.8,0C22.8,0,8.2,8.5,8,8.5H3l0,27.1H0v4.5h45.7v-4.5H42.7z M14.7,32.7V33H9.1v-5.6h5.6V32.7z
		 M14.7,21.6v0.2H9.1v-5.6h5.6V21.6z M25.6,33H20v-5.6h5.6V33z M25.6,21.6v0.2H20v-5.6h5.6V21.6z M22.8,11.8c-1.8,0-3.3-1.5-3.3-3.3
		c0-1.8,1.5-3.3,3.3-3.3s3.3,1.5,3.3,3.3C26.1,10.4,24.6,11.8,22.8,11.8z M36.6,32.7V33H31v-5.6h5.6V32.7z M36.6,21.6v0.2H31v-5.6
		h5.6V21.6z"/>
</g>
<g>
</g>
<g>
</g>
<g>
</g>
<g>
</g>
<g>
</g>
<g>
</g>
<g>
</g>
<g>
</g>
<g>
</g>
<g>
</g>
<g>
</g>
<g>
</g>
<g>
</g>
<g>
</g>
<g>
</g>
</svg>
