<?xml version="1.0" encoding="utf-8"?>
<!-- Generator: Adobe Illustrator 18.1.1, SVG Export Plug-In . SVG Version: 6.00 Build 0)  -->
<svg version="1.1" id="Layer_1" xmlns="http://www.w3.org/2000/svg" xmlns:xlink="http://www.w3.org/1999/xlink" x="0px" y="0px"
	 viewBox="0 0 49 44.6" enable-background="new 0 0 49 44.6" xml:space="preserve">
<g>
	<path d="M49,44.2v-3.1c0-0.2-0.2-0.4-0.3-0.4l-2.5-1.3c-0.2,0-0.3-0.2-0.3-0.4l0-36.1c0-0.2-0.2-0.4-0.3-0.4h-5.1
		c-0.2,0-0.5-0.1-0.7-0.2l-4.5-2.2C35.1,0.1,34.8,0,34.6,0H14.5c-0.2,0-0.5,0.1-0.7,0.2L9.2,2.4C9.1,2.5,8.8,2.5,8.6,2.5h-5
		c-0.2,0-0.3,0.2-0.3,0.4l0,36.1c0,0.2-0.2,0.4-0.3,0.4l-2.5,1.3c-0.2,0-0.3,0.2-0.3,0.4v3.1c0,0.2,0.2,0.4,0.3,0.4h48.3
		C48.9,44.6,49,44.4,49,44.2z M12,36.4c0,0.2-0.2,0.4-0.3,0.4H8.9c-0.2,0-0.3-0.2-0.3-0.4V8.2c0-0.2,0.2-0.4,0.3-0.4h2.7
		C11.9,7.8,12,8,12,8.2V36.4z M19.1,33.7c0,0.2-0.2,0.4-0.3,0.4H16c-0.2,0-0.3-0.2-0.3-0.4V8.2c0-0.2,0.2-0.4,0.3-0.4h2.8
		c0.2,0,0.3,0.2,0.3,0.4V33.7z M26.2,33.7c0,0.2-0.2,0.4-0.3,0.4h-2.8c-0.2,0-0.3-0.2-0.3-0.4V8.2c0-0.2,0.2-0.4,0.3-0.4h2.8
		c0.2,0,0.3,0.2,0.3,0.4V33.7z M33.3,33.7c0,0.2-0.1,0.4-0.3,0.4h-2.7c-0.2,0-0.3-0.2-0.3-0.4V8.2c0-0.2,0.2-0.4,0.3-0.4H33
		c0.2,0,0.3,0.2,0.3,0.4V33.7z M40.5,36.4c0,0.2-0.2,0.4-0.3,0.4h-2.8c-0.2,0-0.3-0.2-0.3-0.4V8.2c0-0.2,0.2-0.4,0.3-0.4h2.8
		c0.2,0,0.3,0.2,0.3,0.4V36.4z"/>
</g>
<g>
</g>
<g>
</g>
<g>
</g>
<g>
</g>
<g>
</g>
<g>
</g>
<g>
</g>
<g>
</g>
<g>
</g>
<g>
</g>
<g>
</g>
<g>
</g>
<g>
</g>
<g>
</g>
<g>
</g>
</svg>
