<?xml version="1.0" encoding="utf-8"?>
<!-- Generator: Adobe Illustrator 18.1.1, SVG Export Plug-In . SVG Version: 6.00 Build 0)  -->
<svg version="1.1" id="Layer_1" xmlns="http://www.w3.org/2000/svg" xmlns:xlink="http://www.w3.org/1999/xlink" x="0px" y="0px"
	 viewBox="0 0 24 46.7" enable-background="new 0 0 24 46.7" xml:space="preserve">
<g>
	<path d="M23.7,42.2h-5.8c-0.2,0-0.3-0.1-0.3-0.3v-2.7c0-0.2-0.1-0.3-0.3-0.3H15c-0.2,0-0.3-0.1-0.3-0.3l0-11.4h5.9
		c0.1-0.1,0.2-0.1,0.2-0.3v-6c0-0.2-0.1-0.3-0.3-0.3H18c-0.2,0-0.3-0.1-0.3-0.3v-5.5c0-0.2-0.1-0.3-0.3-0.3h-3.1
		c-0.2,0-0.3-0.2-0.3-0.3v-3.3c0-0.2-0.1-0.3-0.3-0.3h-0.5c-0.2,0-0.3-0.1-0.3-0.3V0.3c0-0.2-0.1-0.3-0.3-0.3h-0.8
		c-0.2,0-0.3,0.1-0.3,0.3v9.8c0,0.2-0.1,0.3-0.3,0.3h-0.5c-0.2,0-0.3,0.1-0.3,0.3v3.3c0,0.2-0.1,0.3-0.3,0.3H6.6
		c-0.2,0-0.3,0.1-0.3,0.3v5.5c0,0.2-0.1,0.3-0.3,0.3H3.5c-0.2,0-0.3,0.2-0.3,0.3v6c0,0.1,0.1,0.2,0.2,0.3c0,0,0.1,0,0.1,0h5.7v11.4
		c0,0.2-0.1,0.3-0.3,0.3H6.7c-0.2,0-0.3,0.1-0.3,0.3v2.7c0,0.2-0.1,0.3-0.3,0.3H0.3c-0.2,0-0.3,0.1-0.3,0.3v4.3h24v-4.3
		C24,42.3,23.8,42.2,23.7,42.2z"/>
</g>
<g>
</g>
<g>
</g>
<g>
</g>
<g>
</g>
<g>
</g>
<g>
</g>
<g>
</g>
<g>
</g>
<g>
</g>
<g>
</g>
<g>
</g>
<g>
</g>
<g>
</g>
<g>
</g>
<g>
</g>
</svg>
