<?xml version="1.0" encoding="utf-8"?>
<!-- Generator: Adobe Illustrator 18.1.1, SVG Export Plug-In . SVG Version: 6.00 Build 0)  -->
<svg version="1.1" id="Layer_1" xmlns="http://www.w3.org/2000/svg" xmlns:xlink="http://www.w3.org/1999/xlink" x="0px" y="0px"
	 viewBox="0 0 43.6 40" enable-background="new 0 0 43.6 40" xml:space="preserve">
<g>
	<path d="M42.7,14.1L23.1,0.4C22.7,0.1,22.2,0,21.8,0c-0.5,0-1,0.2-1.4,0.5L0.9,14.2C0.3,14.6,0,15.2,0,15.9c0,0.2,0,0.5,0.1,0.7
		c0.3,0.9,1.1,1.5,2.1,1.5h39.3c0.9,0,1.8-0.6,2.1-1.5c0.1-0.2,0.1-0.5,0.1-0.7C43.6,15.2,43.3,14.6,42.7,14.1z M4.6,15.2l17.2-12
		l17.2,12L4.6,15.2z"/>
	<path d="M1.3,23.2h3.7V37H1.3V40h40.9V37h-3.7V23.2h3.7v-2.9H1.3V23.2z M8,23.2h4.7V37H8V23.2z M20.3,37h-4.7V23.2h4.7V37z
		 M23.3,23.2H28V37h-4.7V23.2z M35.6,37h-4.7V23.2h4.7V37z"/>
</g>
<g>
</g>
<g>
</g>
<g>
</g>
<g>
</g>
<g>
</g>
<g>
</g>
<g>
</g>
<g>
</g>
<g>
</g>
<g>
</g>
<g>
</g>
<g>
</g>
<g>
</g>
<g>
</g>
<g>
</g>
</svg>
