<?xml version="1.0" encoding="utf-8"?>
<!-- Generator: Adobe Illustrator 18.1.1, SVG Export Plug-In . SVG Version: 6.00 Build 0)  -->
<svg version="1.1" id="Layer_1" xmlns="http://www.w3.org/2000/svg" xmlns:xlink="http://www.w3.org/1999/xlink" x="0px" y="0px"
	 viewBox="0 0 51.9 39.5" enable-background="new 0 0 51.9 39.5" xml:space="preserve">
<g>
	<path d="M51.7,9.2c-4.7-1-11.6-4.5-14.8-6.9c-0.1-0.1-0.2-0.2-0.2-0.4V0.3c0-0.2-0.1-0.3-0.3-0.3h-1.1c-0.1,0-0.3,0.1-0.3,0.3v1.5
		c0,0.1-0.1,0.3-0.3,0.3c-3.8,0-14,0-17.7,0c-0.1,0-0.2-0.1-0.2-0.3V0.3c0-0.2-0.1-0.3-0.3-0.3h-1.1c-0.1,0-0.3,0.1-0.3,0.3V2
		c0,0.2-0.1,0.3-0.2,0.4C11.9,4.7,4.9,8.2,0.2,9.2C0.1,9.2,0,9.4,0,9.6v0.8c0,0.1,0.1,0.3,0.2,0.4l9.8,2.7c0,0-0.1,0.1-0.1,0.1v20.2
		c0,0.2-0.1,0.3-0.3,0.3H8c-0.2,0-0.3,0.1-0.3,0.3v2.4c0,0.2-0.1,0.3-0.3,0.3H4c-0.2,0-0.3,0.1-0.3,0.3v1.8c0,0.2,0.1,0.3,0.3,0.3
		h44.2c0.2,0,0.3-0.1,0.3-0.3v-1.8c0-0.2-0.1-0.3-0.3-0.3h-3.6c-0.2,0-0.3-0.1-0.3-0.3v-2.4c0-0.2-0.1-0.3-0.3-0.3h-1.7
		c-0.2,0-0.3-0.1-0.3-0.3V13.6c0,0,0-0.1,0-0.1l9.7-2.7c0.1-0.1,0.2-0.3,0.2-0.4V9.6C51.9,9.4,51.8,9.2,51.7,9.2z M37.8,33.9
		c0,0.2-0.1,0.3-0.3,0.3H14.4c-0.2,0-0.3-0.1-0.3-0.3V17.1c0-0.2,0.1-0.3,0.3-0.3h23.1c0.2,0,0.3,0.1,0.3,0.3V33.9z M29.9,19.9
		c-0.1,0-0.1,0.1-0.1,0.1v4.5c0,0.1-0.1,0.1-0.1,0.1h-2.4c-0.1,0-0.1-0.1-0.1-0.1V20c0-0.1-0.1-0.1-0.1-0.1h-6.4
		c-0.1,0-0.1,0.1-0.1,0.1v1.8c0,0.1,0.1,0.1,0.1,0.1H25c0.1,0,0.1,0.1,0.1,0.1v2.4c0,0.1-0.1,0.1-0.1,0.1h-4.4
		c-0.1,0-0.1,0.1-0.1,0.1v6.4c0,0.1,0.1,0.1,0.1,0.1h1.8c0.1,0,0.1-0.1,0.1-0.1v-4.4c0-0.1,0.1-0.1,0.1-0.1H25
		c0.1,0,0.1,0.1,0.1,0.1v4.4c0,0.1,0,0.1,0,0.1c0,0,0.1,0,0.1,0h6.4c0.1,0,0.1-0.1,0.1-0.1v-1.8c0-0.1-0.1-0.1-0.1-0.1h-4.4
		c-0.1,0-0.1-0.1-0.1-0.1v-2.4c0-0.1,0.1-0.1,0.1-0.1h4.4c0.1,0,0.1,0,0.1,0V20c0-0.1-0.1-0.1-0.1-0.1H29.9z"/>
</g>
<g>
</g>
<g>
</g>
<g>
</g>
<g>
</g>
<g>
</g>
<g>
</g>
<g>
</g>
<g>
</g>
<g>
</g>
<g>
</g>
<g>
</g>
<g>
</g>
<g>
</g>
<g>
</g>
<g>
</g>
</svg>
