<?xml version="1.0" encoding="utf-8"?>
<!-- Generator: Adobe Illustrator 18.1.1, SVG Export Plug-In . SVG Version: 6.00 Build 0)  -->
<svg version="1.1" id="Layer_1" xmlns="http://www.w3.org/2000/svg" xmlns:xlink="http://www.w3.org/1999/xlink" x="0px" y="0px"
	 viewBox="0 0 46.7 37" enable-background="new 0 0 46.7 37" xml:space="preserve">
<g>
	<path d="M46.6,35.2l-8-12.7c-0.1-0.1-0.1-0.3-0.1-0.4v-1.5c0-0.1,0.1-0.3,0.2-0.4l5.2-3.3c0.1-0.1,0.2-0.2,0.2-0.4v-0.9
		c0-0.1-0.1-0.3-0.2-0.3c-1.2-0.1-4-1.4-5.6-3.1c-0.1-0.1-0.1-0.2,0-0.2l5.7-4.4C43.9,7.7,44,7.5,44,7.3V6.6c0-0.1-0.1-0.3-0.2-0.3
		c-4.3-0.9-6.8-1.9-9.7-4.1C34,2,33.8,1.9,33.8,1.8V0.2c0-0.1-0.1-0.2-0.2-0.2h-2c-0.1,0-0.2,0.1-0.2,0.2v1.4c0,0.1-0.1,0.2-0.2,0.3
		c-3.4,0.7-4,1-7.8,1.1c-3.8,0-4.5-0.4-7.8-1.1c-0.1,0-0.2-0.1-0.2-0.3V0.2c0-0.1-0.1-0.2-0.2-0.2h-2c-0.1,0-0.2,0.1-0.2,0.2v1.5
		c0,0.1-0.1,0.3-0.2,0.3C9.7,4.3,7.2,5.3,3,6.3c-0.1,0-0.2,0.2-0.2,0.3v0.8c0,0.1,0.1,0.3,0.2,0.4l5.8,4.4c0.1,0.1,0.1,0.1,0,0.2
		c-1.7,1.6-4.6,3-5.8,3.1c-0.1,0-0.2,0.2-0.2,0.3v0.9c0,0.1,0.1,0.3,0.2,0.4l5.5,3.3c0.1,0.1,0.2,0.2,0.2,0.4v1.5
		c0,0.1-0.1,0.3-0.1,0.4L0.1,35.2C0.1,35.3,0,35.5,0,35.7v1.1C0,36.9,0.1,37,0.2,37h18.1v-6.1c0-2.5,1.6-4.9,4.3-5.2
		c0.2,0,1.1,0,1.3,0c2.7,0.3,4.4,2.7,4.4,5.2V37h18.1c0.1,0,0.2-0.1,0.2-0.2v-1.1C46.7,35.5,46.6,35.3,46.6,35.2z M36.3,22.3
		c0,0.1-0.1,0.3-0.3,0.3H11c-0.1,0-0.3-0.1-0.3-0.3v-1.6c0-0.2,0.1-0.3,0.3-0.3H36c0.1,0,0.3,0.1,0.3,0.3V22.3z M36.3,13
		c0,0.1-0.1,0.3-0.3,0.3H11c-0.1,0-0.3-0.1-0.3-0.3v-1.6c0-0.1,0.1-0.3,0.3-0.3H36c0.1,0,0.3,0.1,0.3,0.3V13z"/>
</g>
<g>
</g>
<g>
</g>
<g>
</g>
<g>
</g>
<g>
</g>
<g>
</g>
<g>
</g>
<g>
</g>
<g>
</g>
<g>
</g>
<g>
</g>
<g>
</g>
<g>
</g>
<g>
</g>
<g>
</g>
</svg>
