<?xml version="1.0" encoding="utf-8"?>
<!-- Generator: Adobe Illustrator 18.1.1, SVG Export Plug-In . SVG Version: 6.00 Build 0)  -->
<svg version="1.1" id="Layer_1" xmlns="http://www.w3.org/2000/svg" xmlns:xlink="http://www.w3.org/1999/xlink" x="0px" y="0px"
	 viewBox="0 0 32.1 42.7" enable-background="new 0 0 32.1 42.7" xml:space="preserve">
<path d="M32,27.5c0.1-0.2,0.1-0.4,0.1-0.7l0-0.7C31.6,12.4,23.5,10,16.4,7.9c-4.8-1.4-9.3-2.7-12.3-7C3.7,0.2,2.8-0.1,2,0.1
	C1.2,0.3,0.5,0.9,0.4,1.8c-2.2,16.7,4.5,26.5,20.2,29c0.8,0.1,1.5,0.2,2.2,0.3c0.8,0.1,1.5,0.2,1.9,0.3c0.7,0.2,1.5,0,2.1-0.5
	c0.5-0.6,0.7-1.3,0.5-2.1c-0.1-0.4-3.3-9.6-11.8-14.5c-1-0.6-2.2-0.2-2.8,0.7c-0.6,1-0.2,2.2,0.7,2.8c4.3,2.5,7,6.3,8.5,9
	c-0.2,0-0.4-0.1-0.6-0.1C13.5,25.5,3.7,22,4.1,6.8c3.4,2.8,7.5,3.9,11.1,5c6.9,2,12.3,3.6,12.8,14.2c-0.1,0.7-0.1,1.5-0.1,2.5l0,0.6
	c-0.6,6.8-4.2,9.7-4.4,9.8c-0.9,0.7-1.1,2-0.4,2.9c0.4,0.5,1,0.8,1.6,0.8c0.4,0,0.9-0.1,1.2-0.4c0.2-0.2,5.2-4,6-12.7
	c0-0.1,0-0.5,0-1.1C32,28.2,32,27.8,32,27.5z"/>
<g>
</g>
<g>
</g>
<g>
</g>
<g>
</g>
<g>
</g>
<g>
</g>
<g>
</g>
<g>
</g>
<g>
</g>
<g>
</g>
<g>
</g>
<g>
</g>
<g>
</g>
<g>
</g>
<g>
</g>
</svg>
