<?xml version="1.0" encoding="utf-8"?>
<!-- Generator: Adobe Illustrator 18.1.1, SVG Export Plug-In . SVG Version: 6.00 Build 0)  -->
<svg version="1.1" id="Layer_1" xmlns="http://www.w3.org/2000/svg" xmlns:xlink="http://www.w3.org/1999/xlink" x="0px" y="0px"
	 viewBox="0 0 585.5 792" enable-background="new 0 0 585.5 792" xml:space="preserve">
<g>
	<path d="M295.4,0C130.7,0,0,128.1,0,287.5C0,345,18.3,397.3,47,441.7l209.1,326.7l2.6,5.2c7.8,10.5,20.9,18.3,34,18.3
		s26.1-7.8,34-18.3l2.6-5.2l209.1-324.1c28.8-44.4,47-96.7,47-154.2C588.1,128.1,457.4,0,295.4,0z M486.2,407.8L292.8,708.4
		L101.9,407.8c-23.5-34-36.6-75.8-36.6-120.2c0-122.9,101.9-224.8,230-224.8c125.5,0,230,99.3,230,224.8
		C522.8,332,509.7,373.8,486.2,407.8z"/>
	<ellipse cx="295.4" cy="287.5" rx="83.6" ry="81"/>
</g>
<g>
</g>
<g>
</g>
<g>
</g>
<g>
</g>
<g>
</g>
<g>
</g>
<g>
</g>
<g>
</g>
<g>
</g>
<g>
</g>
<g>
</g>
<g>
</g>
<g>
</g>
<g>
</g>
<g>
</g>
</svg>
