<?xml version="1.0" encoding="utf-8"?>
<!-- Generator: Adobe Illustrator 18.1.1, SVG Export Plug-In . SVG Version: 6.00 Build 0)  -->
<svg version="1.1" id="Layer_1" xmlns="http://www.w3.org/2000/svg" xmlns:xlink="http://www.w3.org/1999/xlink" x="0px" y="0px"
	 viewBox="0 0 32.1 48" enable-background="new 0 0 32.1 48" xml:space="preserve">
<g>
	<path d="M16.1,0C7.2,0,0,7.2,0,16.1c0,0.6,0,1.1,0.1,1.7C1,28.8,10.5,30.6,16.1,48c5.6-17.4,15.1-19.2,16-30.3
		c0.1-0.5,0.1-1.1,0.1-1.7C32.1,7.2,24.9,0,16.1,0z M16.1,21c-2.8,0-5-2.2-5-5s2.2-5,5-5c2.8,0,5,2.2,5,5S18.8,21,16.1,21z"/>
</g>
<g>
</g>
<g>
</g>
<g>
</g>
<g>
</g>
<g>
</g>
<g>
</g>
<g>
</g>
<g>
</g>
<g>
</g>
<g>
</g>
<g>
</g>
<g>
</g>
<g>
</g>
<g>
</g>
<g>
</g>
</svg>
