<?xml version="1.0" encoding="utf-8"?>
<!-- Generator: Adobe Illustrator 18.1.1, SVG Export Plug-In . SVG Version: 6.00 Build 0)  -->
<svg version="1.1" id="Layer_1" xmlns="http://www.w3.org/2000/svg" xmlns:xlink="http://www.w3.org/1999/xlink" x="0px" y="0px"
	 viewBox="0 0 50.6 38.3" enable-background="new 0 0 50.6 38.3" xml:space="preserve">
<g>
	<path d="M36,31.2v3.3H2.7v-22h8.5c0.7,0,1.3-0.6,1.3-1.3V2.7H36v3.1c1,0.4,1.9,0.9,2.7,1.5V2.7C38.7,1.2,37.5,0,36,0H13.9
		c-1.1,0-2.5,0.6-3.2,1.3l-9.3,9.3C0.6,11.4,0,12.8,0,13.9v20.6c0,1.5,1.2,2.7,2.7,2.7H36c1.5,0,2.7-1.2,2.7-2.7v-4.2
		c-0.1-0.1-0.3-0.3-0.3-0.3C37.6,30.4,36.8,30.8,36,31.2z M32.2,10.2L22.5,20c0.1,0.5,0.2,1,0.4,1.5L33.3,11l-0.8-0.8
		C32.4,10.3,32.3,10.2,32.2,10.2z M40.4,26.3c1.7-2.1,2.8-4.8,2.8-7.8C43.2,11.6,37.6,6,30.7,6c-6.9,0-12.5,5.6-12.5,12.5
		c0,6.9,5.6,12.5,12.5,12.5c3,0,5.7-1,7.8-2.8l10.1,10.1l1.9-1.9L40.4,26.3z M30.7,28.3c-5.4,0-9.8-4.4-9.8-9.8
		c0-5.4,4.4-9.8,9.8-9.8c5.4,0,9.8,4.4,9.8,9.8C40.5,23.9,36.1,28.3,30.7,28.3z M17,19.4l-9.7,9.7v-4.6H5.9v4.8c0,1.1,0.9,2,2,2h4.8
		v-1.3H8.2l9-9C17.1,20.6,17,20,17,19.4z"/>
</g>
<g>
</g>
<g>
</g>
<g>
</g>
<g>
</g>
<g>
</g>
<g>
</g>
<g>
</g>
<g>
</g>
<g>
</g>
<g>
</g>
<g>
</g>
<g>
</g>
<g>
</g>
<g>
</g>
<g>
</g>
</svg>
