<?xml version="1.0" encoding="utf-8"?>
<!-- Generator: Adobe Illustrator 18.1.1, SVG Export Plug-In . SVG Version: 6.00 Build 0)  -->
<svg version="1.1" id="Layer_1" xmlns="http://www.w3.org/2000/svg" xmlns:xlink="http://www.w3.org/1999/xlink" x="0px" y="0px"
	 viewBox="0 0 32.7 41" enable-background="new 0 0 32.7 41" xml:space="preserve">
<g>
	<path d="M13.7,10.1h5.4c0.1,0,0.2,0,0.2,0.1c0,0.1,0,0.2,0,0.3l-2.7,4.4c0,0.1-0.1,0.1-0.2,0.1c-0.1,0-0.2,0-0.2-0.1l-2.7-4.4
		c0-0.1-0.1-0.2,0-0.3C13.5,10.2,13.6,10.1,13.7,10.1z"/>
	<path d="M16.1,14.9c0,0.1,0.1,0.1,0.2,0.1c0.1,0,0.2,0,0.2-0.1l2.7-4.4c0-0.1,0.1-0.2,0-0.3c0-0.1-0.1-0.1-0.2-0.1h-5.4
		c-0.1,0-0.2,0-0.2,0.1c0,0.1,0,0.2,0,0.3L16.1,14.9z"/>
	<path d="M4.5,12.3c0,3.3,1.8,6.7,3.8,9.1c0.9,1.1,1.7,2.1,2.3,3c0.4,0.5,0.7,1,1,1.5c0,0,0.1,0.1,0.1,0.1c0.6,1,1.1,1.9,1.6,2.7
		c0,0,0,0,0,0c0.2,0.4,0.4,0.8,0.6,1.2c0,0,0,0.1,0,0.1c0.4,0.8,0.7,1.5,1,2.1c0,0,0,0,0,0.1c0.1,0.3,0.3,0.7,0.4,1
		c0.1,0.3,0.2,0.6,0.4,0.8c0.1,0.2,0.4,0.3,0.6,0.3c0,0,0,0,0,0c0.2,0,0.5-0.1,0.6-0.3c0.1-0.3,0.2-0.5,0.3-0.8
		c0.4-0.9,0.8-2,1.4-3.2c0,0,0,0,0-0.1c0.6-1.2,1.3-2.5,2.2-3.9c0,0,0.1-0.1,0.1-0.1c0.3-0.5,0.6-1,1-1.5c0.7-0.9,1.4-2,2.3-3
		c2-2.4,3.8-5.8,3.8-9.1C28.2,5.5,22.9,0,16.4,0h0c0,0,0,0,0,0C9.8,0,4.5,5.5,4.5,12.3z M16.4,4.8c4,0,7.2,3.2,7.2,7.2
		c0,4-3.2,7.2-7.2,7.2c-4,0-7.2-3.2-7.2-7.2C9.2,8,12.4,4.8,16.4,4.8z"/>
	<path d="M32.7,39.8l-3.4-14.6c-0.1-0.4-0.5-0.7-0.9-0.7h-3.1c-0.4,0.5-0.7,1-1.1,1.5c-0.3,0.5-0.7,1-1,1.4l-0.1,0.1
		c-0.8,1.2-1.5,2.4-2.1,3.6l0,0.1c-0.5,0.9-0.8,1.8-1.2,2.6l-0.2,0.5c-0.1,0.3-0.2,0.6-0.4,0.8c-0.5,1.1-1.6,1.8-2.9,1.8
		s-2.4-0.7-2.9-1.8c-0.1-0.3-0.2-0.6-0.4-0.9l-0.3-0.6l-0.2-0.4c0,0,0,0,0,0c0,0,0,0,0,0l0,0c-0.2-0.5-0.5-1.2-0.9-2l-0.1-0.1
		c-0.2-0.4-0.4-0.7-0.6-1.1c-0.4-0.8-0.9-1.7-1.5-2.6l-0.1-0.1c-0.3-0.4-0.6-0.9-0.9-1.4c-0.3-0.5-0.7-1-1.1-1.5H4.4
		c-0.4,0-0.8,0.3-0.9,0.7L0,39.8c-0.1,0.3,0,0.6,0.2,0.8C0.4,40.8,0.7,41,1,41h30.8c0.3,0,0.6-0.1,0.7-0.4
		C32.7,40.4,32.7,40.1,32.7,39.8z"/>
</g>
<g>
</g>
<g>
</g>
<g>
</g>
<g>
</g>
<g>
</g>
<g>
</g>
<g>
</g>
<g>
</g>
<g>
</g>
<g>
</g>
<g>
</g>
<g>
</g>
<g>
</g>
<g>
</g>
<g>
</g>
</svg>
