<?xml version="1.0" encoding="utf-8"?>
<!-- Generator: Adobe Illustrator 18.1.1, SVG Export Plug-In . SVG Version: 6.00 Build 0)  -->
<svg version="1.1" id="Layer_1" xmlns="http://www.w3.org/2000/svg" xmlns:xlink="http://www.w3.org/1999/xlink" x="0px" y="0px"
	 viewBox="0 0 32.3 46.9" enable-background="new 0 0 32.3 46.9" xml:space="preserve">
<g>
	<path d="M12.5,13.8c-0.1,0-0.2,0.1-0.3,0.2c-0.1,0.1-0.1,0.2,0,0.4l3.7,6c0.1,0.1,0.2,0.2,0.3,0.2c0.1,0,0.2-0.1,0.3-0.2l3.7-6
		c0.1-0.1,0.1-0.2,0-0.3c-0.1-0.1-0.2-0.2-0.3-0.2H12.5z M16.2,0L16.2,0C16.2,0,16.2,0,16.2,0C7.2,0,0,7.5,0,16.7
		c0,4.5,2.5,9.2,5.2,12.5c6.8,8.2,8.5,13.5,10.2,17.2c0.1,0.3,0.5,0.5,0.8,0.5c0,0,0,0,0,0l0,0c0.3,0,0.7-0.2,0.8-0.5
		c1.7-3.7,3.4-9.1,10.2-17.2c2.7-3.3,5.2-8,5.2-12.5C32.3,7.5,25.1,0,16.2,0z M16.2,26.5C10.5,26.5,6,21.9,6,16.3
		c0-5.6,4.6-10.2,10.2-10.2c5.6,0,10.2,4.6,10.2,10.2C26.3,21.9,21.8,26.5,16.2,26.5z"/>
</g>
<g>
</g>
<g>
</g>
<g>
</g>
<g>
</g>
<g>
</g>
<g>
</g>
<g>
</g>
<g>
</g>
<g>
</g>
<g>
</g>
<g>
</g>
<g>
</g>
<g>
</g>
<g>
</g>
<g>
</g>
</svg>
