<?xml version="1.0" encoding="utf-8"?>
<!-- Generator: Adobe Illustrator 18.1.1, SVG Export Plug-In . SVG Version: 6.00 Build 0)  -->
<svg version="1.1" id="Layer_1" xmlns="http://www.w3.org/2000/svg" xmlns:xlink="http://www.w3.org/1999/xlink" x="0px" y="0px"
	 viewBox="0 0 37.4 44.8" enable-background="new 0 0 37.4 44.8" xml:space="preserve">
<g>
	<path d="M0,44.8h37.4l-6.8-12.1h-7.3L21.2,37c-0.5,1-1.4,1.6-2.5,1.6c-1.1,0-2.1-0.7-2.6-1.7l-2-4.2H6.8L0,44.8z"/>
	<path d="M30,11.3C30,5.1,24.9,0,18.7,0C12.5,0,7.4,5.1,7.4,11.3c0,1.7,0.4,3.3,1,4.7l0,0l9.7,20h0c0.1,0.2,0.3,0.4,0.5,0.4
		c0.2,0,0.4-0.2,0.5-0.4h0L29,16l0,0C29.6,14.5,30,13,30,11.3z M18.7,19.3c-4.4,0-8-3.6-8-8c0-2.1,0.8-4.1,2.3-5.6s3.5-2.3,5.6-2.3
		c4.4,0,8,3.6,8,8C26.7,15.7,23.1,19.3,18.7,19.3z"/>
	<path d="M24.3,10.2c-0.4-2.3-2.2-4-4.5-4.5v2.9h-2.2V5.7c-1.1,0.2-2.1,0.8-2.9,1.6c-0.8,0.8-1.3,1.8-1.6,2.9H16v2.2h-2.9
		c0.5,2.3,2.2,4,4.5,4.5v-2.9h2.2V17c2.3-0.5,4-2.2,4.5-4.5h-2.9v-2.2H24.3z"/>
</g>
<g>
</g>
<g>
</g>
<g>
</g>
<g>
</g>
<g>
</g>
<g>
</g>
<g>
</g>
<g>
</g>
<g>
</g>
<g>
</g>
<g>
</g>
<g>
</g>
<g>
</g>
<g>
</g>
<g>
</g>
</svg>
