<?xml version="1.0" encoding="utf-8"?>
<!-- Generator: Adobe Illustrator 18.1.1, SVG Export Plug-In . SVG Version: 6.00 Build 0)  -->
<svg version="1.1" id="Layer_1" xmlns="http://www.w3.org/2000/svg" xmlns:xlink="http://www.w3.org/1999/xlink" x="0px" y="0px"
	 viewBox="0 0 36.2 53.5" enable-background="new 0 0 36.2 53.5" xml:space="preserve">
<g>
	<path d="M18.1,0C8.1,0,0,8.3,0,18.5c0,1.8,0.3,3.6,0.7,5.3c0,0,0.2,0.7,0.4,1.1C1.4,25.6,1.7,26.3,2,27c0,0.1,0.2,0.3,0.2,0.4
		c1,2.1,15.7,25.9,15.8,26.1h0.1c0.2-0.3,15.1-24.5,16.1-26.7c0.3-0.6,0.6-1.3,0.8-1.9c0.1-0.3,0.2-0.5,0.3-0.8c0,0,0.1-0.4,0.1-0.4
		c0.5-1.7,0.8-3.4,0.8-5.3C36.2,8.3,28.1,0,18.1,0z M29.1,22.1h-7.6v7.6h-6.9v-7.6H7v-6.9h7.6V7.6h6.9v7.6h7.6V22.1z"/>
</g>
<g>
</g>
<g>
</g>
<g>
</g>
<g>
</g>
<g>
</g>
<g>
</g>
<g>
</g>
<g>
</g>
<g>
</g>
<g>
</g>
<g>
</g>
<g>
</g>
<g>
</g>
<g>
</g>
<g>
</g>
</svg>
