<?xml version="1.0" encoding="utf-8"?>
<!-- Generator: Adobe Illustrator 18.1.1, SVG Export Plug-In . SVG Version: 6.00 Build 0)  -->
<svg version="1.1" id="Layer_1" xmlns="http://www.w3.org/2000/svg" xmlns:xlink="http://www.w3.org/1999/xlink" x="0px" y="0px"
	 viewBox="0 0 43.7 44.1" enable-background="new 0 0 43.7 44.1" xml:space="preserve">
<g>
	<path d="M30.3,24.1c-0.1,0-0.2,0-0.3,0c6.2-3.7,8.8-14.1,8.8-14.1c0,0,0,0,0,0s-8.2,2.7-12.2,7.3c1.6-3-4.2-16.4-4.7-17.3
		c0,0,0,0,0,0c0,0,0,0,0,0c-0.5,0.9-6.3,14.3-4.7,17.3C13.1,12.7,5,10,5,10s0,0,0,0c0,0,2.5,10.4,8.8,14.1c-0.1,0-0.2,0-0.3,0
		c-5-1-13.4,3.5-13.4,3.5s0.4,0.3,1.2,0.7L2.2,29c0,0,0.8,0.5,1.8,0.8c2.6,1.2,6.1,2.4,9.5,2.3c0.4,0,0.9,0,1.4-0.1
		c-2.4,2.3-3.6,7.6-3.6,7.9c0,0,0,0,0,0c0,0,0,0,0,0c0,0,7.1-1.5,9.3-6.6c0.1-0.2,0.2-0.3,0.3-0.5l-1,11.3h3.8l-1-11.6
		c0.1,0.3,0.2,0.6,0.4,0.8c2.3,5.1,9.3,6.6,9.3,6.6c0,0,0,0,0,0c0,0,0,0,0,0c0-0.2-1.2-5.6-3.6-7.9c0.5,0.1,0.9,0.1,1.4,0.1
		c3.4,0.1,6.9-1.1,9.5-2.3c1-0.4,1.8-0.8,1.8-0.8l1.1-0.7c0.7-0.4,1.2-0.7,1.2-0.7S35.3,23.1,30.3,24.1z"/>
</g>
<g>
</g>
<g>
</g>
<g>
</g>
<g>
</g>
<g>
</g>
<g>
</g>
<g>
</g>
<g>
</g>
<g>
</g>
<g>
</g>
<g>
</g>
<g>
</g>
<g>
</g>
<g>
</g>
<g>
</g>
</svg>
