<?xml version="1.0" encoding="utf-8"?>
<!-- Generator: Adobe Illustrator 18.1.1, SVG Export Plug-In . SVG Version: 6.00 Build 0)  -->
<svg version="1.1" id="Layer_1" xmlns="http://www.w3.org/2000/svg" xmlns:xlink="http://www.w3.org/1999/xlink" x="0px" y="0px"
	 viewBox="0 0 56 37.6" enable-background="new 0 0 56 37.6" xml:space="preserve">
<g>
	<path d="M55.8,34.5L45.2,9.5l0.1,0.2c-0.8-2.6-3.4-4.4-6.3-4.4c-2.8,0-5.2,1.6-6.2,4c0-0.1,0.1-0.1,0.1-0.2
		c-0.1,0.1-0.1,0.2-0.2,0.3c0,0,0,0,0,0c0,0,0,0,0,0c0,0,0,0,0,0.1l-2.2,5.7L26.1,4.8L26.1,5c-0.9-3-3.8-5-7.1-5c-3.2,0-6,1.9-7,4.7
		c0,0,0,0,0,0.1L0.2,34.6C-0.1,35.3,0,36,0.4,36.7c0.4,0.6,1.1,1,1.8,1h51.6c0.7,0,1.4-0.4,1.8-1C56,36,56.1,35.2,55.8,34.5z
		 M5.5,33.2L16.1,6.4C16,6.5,16,6.7,15.9,6.8c0.1-0.2,0.2-0.4,0.3-0.6c0,0,0,0,0,0c0.4-1.1,1.5-1.8,2.9-1.8c1.4,0,2.5,0.8,2.9,1.9
		L22,6.5l8.7,20.6c0.2,0.4,0.7,0.6,1.1,0.4l2.1-0.7c0.4-0.1,0.7-0.6,0.5-1l-1.7-4.1l4.2-10.6c0,0,0,0,0,0.1c0-0.1,0.1-0.2,0.1-0.3
		c0,0,0,0.1,0,0.1c0.3-0.8,1.1-1.3,2.1-1.3c1,0,1.9,0.5,2.1,1.3l0.1,0.2l9.3,22H5.5z"/>
</g>
<g>
</g>
<g>
</g>
<g>
</g>
<g>
</g>
<g>
</g>
<g>
</g>
<g>
</g>
<g>
</g>
<g>
</g>
<g>
</g>
<g>
</g>
<g>
</g>
<g>
</g>
<g>
</g>
<g>
</g>
</svg>
