<?xml version="1.0" encoding="utf-8"?>
<!-- Generator: Adobe Illustrator 18.1.1, SVG Export Plug-In . SVG Version: 6.00 Build 0)  -->
<svg version="1.1" id="Layer_1" xmlns="http://www.w3.org/2000/svg" xmlns:xlink="http://www.w3.org/1999/xlink" x="0px" y="0px"
	 viewBox="0 0 47.5 35.3" enable-background="new 0 0 47.5 35.3" xml:space="preserve">
<g>
	<path d="M47.5,9.8h-16l-2.4,15.5h16l-9.3-7.7L47.5,9.8z M8,7c0,0,11.8,9.4,11.8,9.4L43.8,0H9.7C8.1,0.1,6.5,0.6,6,2.3
		C5.4,4.2,6.6,5.9,8,7z M10.7,10.5L0,17.5l8.6,7L10.7,10.5z M5.1,27.9c-1.3,0.8-2.9,2.1-3.3,3.7c-0.5,2.2,1.2,3.7,3.3,3.7
		c0.1,0,33.5,0,33.5,0L19.8,18.5C19.8,18.5,5.2,27.9,5.1,27.9z"/>
</g>
<g>
</g>
<g>
</g>
<g>
</g>
<g>
</g>
<g>
</g>
<g>
</g>
<g>
</g>
<g>
</g>
<g>
</g>
<g>
</g>
<g>
</g>
<g>
</g>
<g>
</g>
<g>
</g>
<g>
</g>
</svg>
