<?xml version="1.0" encoding="utf-8"?>
<!-- Generator: Adobe Illustrator 18.1.1, SVG Export Plug-In . SVG Version: 6.00 Build 0)  -->
<svg version="1.1" id="Layer_1" xmlns="http://www.w3.org/2000/svg" xmlns:xlink="http://www.w3.org/1999/xlink" x="0px" y="0px"
	 viewBox="0 0 44.6 37.7" enable-background="new 0 0 44.6 37.7" xml:space="preserve">
<g>
	<path d="M24,0l-3.4,0c-4.1,0-7.3,3.1-7.3,7.2l0,29.7c0,0.2,0.1,0.4,0.2,0.6c0.2,0.2,0.4,0.2,0.6,0.2l16.5,0c0.2,0,0.4-0.1,0.6-0.2
		c0.2-0.2,0.2-0.4,0.2-0.6V7.2C31.4,3.1,28.1,0,24,0z M28.1,8.7l-11.6,0V7.1c0-2.2,1.8-4,4-4h3.7c2.2,0,3.9,1.8,4,4V8.7z M9.9,8.7
		h-6C1.8,8.7,0,10.5,0,12.6v21.1c0,2.2,1.8,3.9,3.9,3.9h6c0.2,0,0.4-0.1,0.6-0.2c0.2-0.2,0.2-0.4,0.2-0.6V9.6c0-0.2-0.1-0.4-0.2-0.6
		C10.4,8.8,10.1,8.7,9.9,8.7z M40.6,8.7h-6c-0.2,0-0.4,0.1-0.6,0.2c-0.2,0.2-0.2,0.4-0.2,0.6v27.3c0,0.2,0.1,0.4,0.2,0.6
		c0.2,0.2,0.4,0.2,0.6,0.2l6,0c2.2,0,3.9-1.8,3.9-3.9V12.6C44.6,10.5,42.8,8.7,40.6,8.7z"/>
</g>
<g>
</g>
<g>
</g>
<g>
</g>
<g>
</g>
<g>
</g>
<g>
</g>
<g>
</g>
<g>
</g>
<g>
</g>
<g>
</g>
<g>
</g>
<g>
</g>
<g>
</g>
<g>
</g>
<g>
</g>
</svg>
