<?xml version="1.0" encoding="utf-8"?>
<!-- Generator: Adobe Illustrator 18.1.1, SVG Export Plug-In . SVG Version: 6.00 Build 0)  -->
<svg version="1.1" id="Layer_1" xmlns="http://www.w3.org/2000/svg" xmlns:xlink="http://www.w3.org/1999/xlink" x="0px" y="0px"
	 viewBox="0 0 52.9 43.6" enable-background="new 0 0 52.9 43.6" xml:space="preserve">
<g>
	<path d="M52.7,30.1c-1.5,0-2.9,0.3-4.2,0.9c-1.2,0.6-2.6,0.9-4.1,0.9c-0.4,0-0.9,0-1.3-0.1c-1-0.1-1.9-0.4-2.8-0.8
		c-1.3-0.6-2.7-0.9-4.2-0.9c-1.5,0-2.9,0.3-4.2,0.9c-0.9,0.4-1.8,0.6-2.8,0.8h-2.7c-1-0.1-1.9-0.4-2.8-0.8c-1.3-0.6-2.7-0.9-4.2-0.9
		c-1.5,0-2.9,0.3-4.2,0.9c-0.9,0.4-1.8,0.6-2.8,0.8H9.9c-0.8-0.1-1.6-0.3-2.3-0.6c-0.1-0.1-0.3-0.1-0.4-0.2
		c-1.3-0.6-2.7-0.9-4.2-0.9c-1,0-2,0.2-2.9,0.4v3.9C0.9,34.2,1.9,34,2.9,34c1.5,0,2.9,0.3,4.2,0.9c1.2,0.6,2.6,0.9,4.1,0.9
		c1.4,0,2.8-0.3,4.1-0.9c1.3-0.6,2.7-0.9,4.2-0.9c1.5,0,2.9,0.3,4.2,0.9c1.2,0.6,2.6,0.9,4.1,0.9c1.5,0,2.8-0.3,4.1-0.9
		c1.3-0.6,2.7-0.9,4.2-0.9c1.5,0,2.9,0.3,4.2,0.9c1.3,0.6,2.6,0.9,4.1,0.9c1.5,0,2.8-0.3,4.1-0.9c1.3-0.6,2.7-0.9,4.2-0.9
		c0.1,0,0.2,0,0.2,0v-3.9C52.8,30.1,52.8,30.1,52.7,30.1z M48.5,38.8c-1.2,0.6-2.6,0.9-4.1,0.9c-0.4,0-0.9,0-1.3-0.1
		c-1-0.1-1.9-0.4-2.8-0.8c-1.3-0.6-2.7-0.9-4.2-0.9c-1.5,0-2.9,0.3-4.2,0.9c-0.9,0.4-1.8,0.6-2.8,0.8h-2.7c-1-0.1-1.9-0.4-2.8-0.8
		c-1.3-0.6-2.7-0.9-4.2-0.9c-1.5,0-2.9,0.3-4.2,0.9c-0.9,0.4-1.8,0.6-2.8,0.8H9.9C9,39.5,8.2,39.3,7.5,39c-0.1-0.1-0.3-0.1-0.4-0.2
		c-1.3-0.6-2.7-0.9-4.2-0.9c-1,0-2,0.2-2.9,0.4v3.9c0.9-0.3,1.9-0.4,2.9-0.4c1.5,0,2.9,0.3,4.2,0.9c1.2,0.6,2.6,0.9,4.1,0.9
		c1.4,0,2.8-0.3,4.1-0.9c1.3-0.6,2.7-0.9,4.2-0.9c1.5,0,2.9,0.3,4.2,0.9c1.2,0.6,2.6,0.9,4.1,0.9c1.5,0,2.8-0.3,4.1-0.9
		c1.3-0.6,2.7-0.9,4.2-0.9c1.5,0,2.9,0.3,4.2,0.9c1.3,0.6,2.6,0.9,4.1,0.9c1.5,0,2.8-0.3,4.1-0.9c1.3-0.6,2.7-0.9,4.2-0.9
		c0.1,0,0.2,0,0.2,0v-3.9c-0.1,0-0.2,0-0.2,0C51.2,37.9,49.7,38.2,48.5,38.8z M29.1,28c0.2,0,0.4-0.1,0.5-0.1v-1.8h11.8v1.6
		c0.5,0.2,1.1,0.3,1.6,0.4c0.4,0.1,0.9,0.1,1.3,0.1c0.2,0,0.3,0,0.5-0.1V8.3c0-0.1,0.1-1.4,0.8-2.5c0.3-0.6,0.8-1.1,1.5-1.6
		c0.7-0.4,1.5-0.8,2.8-0.8L49.8,0c-1.9,0.1-3.5,0.6-4.7,1.4c-1.8,1.2-2.7,2.9-3.2,4.3c-0.5,1.4-0.5,2.4-0.5,2.5l0,0v1.3H29.6V8.3
		c0-0.1,0.1-1.4,0.8-2.5c0.3-0.6,0.8-1.1,1.5-1.6c0.7-0.4,1.5-0.8,2.8-0.8L34.6,0c-1.9,0.1-3.5,0.6-4.7,1.4
		c-1.8,1.2-2.7,2.9-3.2,4.3c-0.5,1.4-0.5,2.4-0.5,2.5l0,0v19.7c0.1,0,0.2,0,0.2,0.1H29.1z M29.6,13h11.8v3.1H29.6V13z M29.6,19.5
		h11.8v3.1H29.6V19.5z"/>
</g>
<g>
</g>
<g>
</g>
<g>
</g>
<g>
</g>
<g>
</g>
<g>
</g>
<g>
</g>
<g>
</g>
<g>
</g>
<g>
</g>
<g>
</g>
<g>
</g>
<g>
</g>
<g>
</g>
<g>
</g>
</svg>
