<?xml version="1.0" encoding="utf-8"?>
<!-- Generator: Adobe Illustrator 18.1.1, SVG Export Plug-In . SVG Version: 6.00 Build 0)  -->
<svg version="1.1" id="Layer_1" xmlns="http://www.w3.org/2000/svg" xmlns:xlink="http://www.w3.org/1999/xlink" x="0px" y="0px"
	 viewBox="0 0 38.6 49.2" enable-background="new 0 0 38.6 49.2" xml:space="preserve">
<g>
	<path d="M26.6,24.6"/>
	<path d="M32.1,18.2c3.7-1.1,5.8-2.9,5.9-3c0.4-0.4,0.6-0.9,0.5-1.5c-1.6-6.8-8.6-13.2-8.7-13.3c-0.5-0.4-1.1-0.5-1.7-0.3
		c-0.6,0.3-0.9,0.9-0.8,1.5c0,0.2,0,0.5,0,0.7c0,3.2-2,6.4-4.2,8.8c-1.1,1.2-2.2,2.1-3,2.8c-0.4,0.3-0.6,0.5-0.9,0.7
		c-0.2-0.2-0.5-0.4-0.8-0.7c-2.5-1.9-7.3-6.7-7.2-11.6c0-0.2,0-0.5,0-0.7C11.3,1,11,0.4,10.4,0.2C9.9-0.1,9.2,0,8.7,0.4
		C8.7,0.5,1.7,6.9,0,13.8c-0.1,0.5,0.1,1.1,0.5,1.5c0.1,0.1,1.7,1.4,4.4,2.5c0.1,0.2,0.1,0.4,0.3,0.5c1.7,2.1,2.4,3.9,2.4,5.7
		c0,1.7-0.7,3.5-2.1,5.5c-0.8,1.1-1.6,2.3-2.3,3.6c0,0.1,0,0.1-0.1,0.2c-0.8,1.7-1.5,3.6-1.5,5.4c0,0.7,0.5,1.3,1.2,1.5
		c0,0,0.4,0.1,1.3,0.3c2.5,0.7,7.7,3,10.3,8c0.3,0.5,0.8,0.8,1.3,0.8h5.8c0.6,0,1.1-0.3,1.3-0.8c1.7-3.3,4.6-5.4,7.1-6.7
		c1.2-0.6,2.4-1,3.2-1.3c0.8-0.2,1.3-0.3,1.3-0.3c0.7-0.1,1.2-0.8,1.2-1.5c0-1.9-0.7-3.8-1.5-5.5c0,0,0,0,0,0c0,0,0,0,0,0
		c-0.7-1.3-1.5-2.6-2.3-3.6c-1.5-2-2.1-3.8-2.1-5.5C29.7,22.2,30.4,20.4,32.1,18.2C32.1,18.3,32.1,18.3,32.1,18.2z M4.9,14.4
		c-0.7-0.3-1.3-0.7-1.7-1c0.8-2.4,2.5-5,4.1-7.1c0.4-0.5,0.8-1,1.2-1.5c1.1,4.8,4.7,8.5,7.2,10.6C14.3,15.9,13,16,11.8,16
		C8.9,16,6.5,15.2,4.9,14.4z M31.8,35.3c0.3,0.8,0.6,1.5,0.7,2.2c-2.6,0.8-8.4,3-11.9,8.7h-4.1c-3.4-5.7-9.2-8-11.9-8.7
		c0.1-0.7,0.4-1.5,0.7-2.2H31.8z M30.1,32.3H7.2c0.2-0.4,0.5-0.7,0.7-1.1c1.7-2.3,2.7-4.7,2.7-7.2c0-1.7-0.5-3.4-1.4-5.1
		C10,19,10.9,19,11.8,19c2.3,0,4.8-0.4,7.5-1.4c2.7,1,5.2,1.4,7.5,1.4c0.4,0,0.9,0,1.3,0c-0.9,1.6-1.3,3.3-1.3,5
		c0,2.5,1,4.9,2.7,7.2C29.6,31.5,29.9,31.9,30.1,32.3z M26.8,16c-1.2,0-2.5-0.1-3.9-0.5C25.3,13.5,28.9,9.8,30,5
		c0.4,0.4,0.8,0.9,1.2,1.5c1.6,2,3.3,4.6,4.1,7.1C34,14.4,31,16,26.8,16z M19.1,27.6c-0.8,0-1.4,0.6-1.4,1.3c0,0.7,0.6,1.3,1.4,1.3
		c0.8,0,1.4-0.6,1.4-1.3C20.5,28.2,19.9,27.6,19.1,27.6z"/>
</g>
<g>
</g>
<g>
</g>
<g>
</g>
<g>
</g>
<g>
</g>
<g>
</g>
<g>
</g>
<g>
</g>
<g>
</g>
<g>
</g>
<g>
</g>
<g>
</g>
<g>
</g>
<g>
</g>
<g>
</g>
</svg>
