<?xml version="1.0" encoding="utf-8"?>
<!-- Generator: Adobe Illustrator 18.1.1, SVG Export Plug-In . SVG Version: 6.00 Build 0)  -->
<svg version="1.1" id="Layer_1" xmlns="http://www.w3.org/2000/svg" xmlns:xlink="http://www.w3.org/1999/xlink" x="0px" y="0px"
	 viewBox="0 0 43.2 46.5" enable-background="new 0 0 43.2 46.5" xml:space="preserve">
<g>
	<path d="M10.2,13.1c3.6,0,6.5-2.9,6.5-6.5S13.8,0,10.2,0C6.6,0,3.7,2.9,3.7,6.5S6.6,13.1,10.2,13.1z M10.2,3.1
		c1.9,0,3.4,1.5,3.4,3.4S12.1,10,10.2,10c-1.9,0-3.4-1.5-3.4-3.4S8.3,3.1,10.2,3.1z M35.4,13.1c3.6,0,6.5-2.9,6.5-6.5S39,0,35.4,0
		c-3.6,0-6.5,2.9-6.5,6.5S31.8,13.1,35.4,13.1z M35.4,3.1c1.9,0,3.4,1.5,3.4,3.4S37.3,10,35.4,10S32,8.4,32,6.5S33.5,3.1,35.4,3.1z
		 M27.5,14.3v16.5c0,0,2.5,0,3.4,0c0,2.5,0,15.8,0,15.8h9c0,0,0-13.2,0-15.8c0.9,0,3.4,0,3.4,0V14.3H27.5z M40.1,27.6
		c-0.9,0-3.4,0-3.4,0s0,13.2,0,15.8H34c0-2.5,0-15.8,0-15.8s-2.5,0-3.4,0V17.4h9.5V27.6z M6.5,14.3L0,38.3c0,0,4.2,0,5.8,0
		c0,2.1,0,8.3,0,8.3h9c0,0,0-6.2,0-8.3c1.6,0,5.8,0,5.8,0l-6.5-24H6.5z M11.6,35.1c0,0,0,6.2,0,8.3H8.9c0-2.1,0-8.3,0-8.3
		s-3.3,0-4.8,0c0.8-3,4.3-15.9,4.8-17.7h2.7c0.5,1.9,4,14.7,4.8,17.7C14.8,35.1,11.6,35.1,11.6,35.1z M21.4,46.5h3.1V0.4h-3.1V46.5z
		"/>
</g>
<g>
</g>
<g>
</g>
<g>
</g>
<g>
</g>
<g>
</g>
<g>
</g>
<g>
</g>
<g>
</g>
<g>
</g>
<g>
</g>
<g>
</g>
<g>
</g>
<g>
</g>
<g>
</g>
<g>
</g>
</svg>
