<?xml version="1.0" encoding="utf-8"?>
<!-- Generator: Adobe Illustrator 18.1.1, SVG Export Plug-In . SVG Version: 6.00 Build 0)  -->
<svg version="1.1" id="Layer_1" xmlns="http://www.w3.org/2000/svg" xmlns:xlink="http://www.w3.org/1999/xlink" x="0px" y="0px"
	 viewBox="0 0 59.9 39.6" enable-background="new 0 0 59.9 39.6" xml:space="preserve">
<g>
	<path d="M35.8,21.8c0,0.3,0.2,0.5,0.4,0.8c0.2,0.2,0.5,0.3,0.8,0.3c0,0,0.1,0,0.1,0c0.3,0,0.5-0.1,0.8-0.4c0.5-0.5,0.6-1.1,0.6-1.7
		c0-0.1,0-0.1,0-0.2c-0.1-1.4-1.4-2.8-3.5-2.9v0h-0.1c-0.1,0-0.2,0-0.3,0c-2,0.1-3.6,1.9-3.6,3.9c0,0.1,0,0.2,0,0.3
		c0.1,0.9,0.4,1.8,1.3,2.7c0,0,0,0,0,0c1.3,0.3,2.5,0.9,3.6,1.7c0.3-0.6,0.7-1.2,1.2-1.6c0,0,0,0,0,0c-0.1,0-0.1,0-0.2,0
		c-1.6,0-3-1.2-3.2-2.8c0-0.1,0-0.1,0-0.2c0-0.5,0.1-1,0.4-1.5l0.1-0.1h0c0.2-0.3,0.5-0.4,0.8-0.4c0.2,0,0.3,0,0.5,0.1
		c0.3,0.2,0.5,0.5,0.5,0.8c0,0.2,0,0.3-0.1,0.5C35.9,21.4,35.8,21.6,35.8,21.8C35.8,21.8,35.8,21.8,35.8,21.8l-0.2,0L35.8,21.8z"/>
	<path d="M55.7,31.8c-0.8-0.2-1.5-0.2-2.1-0.2c-0.3,0-0.5,0-0.8,0c-1.7,0.1-3.4,0.8-5.1,0.9c-0.2,0-0.4,0-0.6,0c-1,0-2-0.2-3.1-0.7
		c0,0-0.1,0-0.1,0c0,0,0,0-0.1,0h0c-0.1,0-0.1,0-0.2,0c-0.7,0-1.4-0.3-2.1-0.8c-0.6-0.5-1-1.3-1.1-2.1c0-0.1,0-0.2,0-0.2
		c0-0.8,0.4-1.8,1.3-2.3l0.2-0.1l0,0c0.1,0,0.2-0.1,0.3-0.1c0.3,0,0.7,0.2,0.8,0.5c0.1,0.1,0.1,0.3,0.1,0.5c0,0.3-0.2,0.7-0.5,0.8
		c-0.3,0.2-0.3,0.3-0.3,0.6c0,0,0,0,0,0.1c0,0.3,0.2,0.6,0.4,0.8c0.4,0.3,0.6,0.3,0.9,0.3c0,0,0.1,0,0.1,0c0.5,0,1.3-0.7,1.5-1.4
		c0.1-0.2,0.1-0.5,0.1-0.7c0-0.1,0-0.2,0-0.2c-0.1-1.1-0.6-2.2-2.5-2.7c-0.3-0.1-0.7-0.1-1-0.1c-0.1,0-0.2,0-0.3,0
		c-1.6,0.1-3.1,1.2-3.8,3.1c0,0,0.1,0.1,0.1,0.2c1.8,2.5,3.3,4.1,4.6,5c1.2,0.8,2.2,1.1,3.5,1.1c0.2,0,0.4,0,0.7,0
		c1.2-0.1,2.7-0.4,4.5-1c1.1-0.3,2.1-0.5,3-0.6c0.2,0,0.4,0,0.5,0c1.7,0,3.3,0.6,5.1,1.1c0.1-0.1,0.1-0.2,0.2-0.3
		C58.1,32.8,56.6,32,55.7,31.8z"/>
	<path d="M54.3,34.5l0-0.2L54.3,34.5c-0.8,0.1-1.7,0.2-2.6,0.5c-1.9,0.5-3.4,0.9-4.9,1c-0.3,0-0.5,0-0.8,0c-1.7,0-3.2-0.4-4.6-1.4
		c-1.7-1.1-3.2-2.9-5.1-5.4c-1.4-1.9-3.5-2.8-5.4-2.8c-0.2,0-0.3,0-0.5,0c-2.2,0.2-4,1.4-4.6,3.6c-0.1,0.5-0.2,0.9-0.2,1.3l0,0.3
		l0,0v0.1v0c0,0,0,0,0,0c0,0.2,0,0.3,0.1,0.5l0,0.1c0,0.1,0,0.1,0,0.2l0,0.1c0.3,0.9,0.8,1.6,1.5,2.2c0.8,0.6,1.9,1,2.8,1
		c0.1,0,0.2,0,0.3,0c1-0.1,1.8-0.5,2.4-1.4c0.3-0.5,0.5-1.2,0.5-1.9c0-0.1,0-0.2,0-0.3c-0.1-1-0.5-1.7-1.5-2.1
		c-0.2-0.1-0.4-0.1-0.6-0.1c-0.1,0-0.1,0-0.2,0c-0.4,0-0.9,0.2-1.2,0.5c-0.3,0.3-0.4,0.5-0.4,1c0,0,0,0.1,0,0.2c0,0.1,0,0.1,0,0.2
		c0,0,0,0.1,0,0.1c0,0.5-0.3,0.9-0.8,0.9c-0.1,0-0.1,0-0.1,0c-0.5,0-0.9-0.3-0.9-0.8c0,0,0-0.1,0-0.1v0c0,0,0-0.1,0-0.1l0,0
		c0,0,0,0,0-0.1c0-0.1,0-0.2,0-0.3c0-1,0.4-1.9,1-2.4c0.7-0.6,1.5-0.9,2.3-1c0.1,0,0.2,0,0.3,0c0.4,0,0.8,0.1,1.2,0.2
		c1.8,0.6,2.7,2.2,2.7,3.7c0,0.1,0,0.3,0,0.4c0,1-0.3,2-0.8,2.8c0,0,0,0,0,0.1c2.1,2.8,4.5,4.2,7.9,4.2c0.3,0,0.6,0,0.9,0
		c0.4,0,0.8-0.1,1.2-0.1c4-0.6,6.4-3.8,11.2-4.2c0.3,0,0.6,0,0.9,0c0.8,0,1.6,0.1,2.3,0.1c0.1-0.1,0.2-0.3,0.3-0.4
		c-1.5-0.2-2.9-0.5-4.1-0.5C54.6,34.5,54.4,34.5,54.3,34.5z"/>
	<path d="M5.1,24.5C5.2,24.6,5.2,24.6,5.1,24.5c1,0.2,1.9,0.7,2.7,1.3c0.2-0.5,0.5-0.9,0.9-1.2c0,0,0,0,0,0c-0.1,0-0.1,0-0.2,0
		c-1.2,0-2.2-0.9-2.4-2.1c0-0.1,0-0.1,0-0.2c0-0.4,0.1-0.8,0.3-1.1l0-0.1h0C6.6,21.1,6.9,21,7.1,21c0.1,0,0.2,0,0.4,0.1
		c0.2,0.1,0.4,0.4,0.4,0.6c0,0.1,0,0.2-0.1,0.4c-0.1,0.2-0.1,0.3-0.1,0.4c0,0,0,0,0,0l-0.1,0l0.1,0c0,0.2,0.1,0.4,0.3,0.6
		c0.2,0.1,0.4,0.2,0.6,0.2c0,0,0,0,0.1,0c0.2,0,0.4-0.1,0.6-0.3c0.3-0.4,0.5-0.8,0.5-1.2c0,0,0-0.1,0-0.1c-0.1-1-1-2.1-2.6-2.1l0,0
		h0c-0.1,0-0.1,0-0.2,0c-1.5,0.1-2.7,1.4-2.7,2.9c0,0.1,0,0.1,0,0.2C4.3,23.1,4.5,23.8,5.1,24.5z"/>
	<path d="M9,27.1c1.4,1.9,2.4,3,3.4,3.7c0.9,0.6,1.6,0.8,2.6,0.8c0,0,0,0,0.1,0c-0.5-0.5-0.9-1-1.3-1.6c-0.1,0-0.2-0.1-0.2-0.1
		c0,0,0,0-0.1,0c0,0,0,0,0,0h0c-0.1,0-0.1,0-0.2,0c-0.5,0-1.1-0.2-1.5-0.6c-0.5-0.4-0.7-1-0.8-1.5c0-0.1,0-0.1,0-0.2
		c0-0.5,0.2-1,0.6-1.4c-0.2-0.5-0.4-0.9-0.6-1.4c-0.9,0.3-1.7,1-2.1,2.2C9,27,9,27,9,27.1z"/>
	<path d="M23.5,31.6L23.5,31.6c0-0.1,0-0.1,0-0.2v-0.2c0-0.5,0.1-1.1,0.2-1.8c0.8-3,3.4-4.8,6.1-5.1c-0.4-0.8-0.6-1.5-0.7-2.3
		c0-0.1,0-0.2,0-0.3c0-0.1,0-0.1,0-0.2v0c0-3.2,2.5-5.7,5.6-6c0.1,0,0.3,0,0.4,0c0,0,0.1,0,0.1,0c3.1,0,5.4,2.3,5.6,4.9
		c0,0.1,0,0.2,0,0.3c0,0.7-0.2,1.4-0.5,2.1c0.3-0.1,0.7-0.1,1-0.2c0.2,0,0.3,0,0.5,0c0.5,0,1,0.1,1.5,0.2c1.3,0.3,2.4,1,3.1,1.9
		c0.1,0.1,0.2,0.3,0.3,0.4c0.9-2.1,1.4-4.5,1.4-7C48,8.1,39.9,0,29.8,0c-10,0-18.2,8.1-18.2,18.2c0,8.5,5.8,15.6,13.7,17.6
		c-0.7-0.7-1.2-1.6-1.5-2.6l0-0.2c0-0.1,0-0.2-0.1-0.3l0-0.1l0-0.1c0-0.2-0.1-0.4-0.1-0.6C23.5,31.9,23.5,31.8,23.5,31.6L23.5,31.6
		C23.5,31.7,23.5,31.7,23.5,31.6z"/>
	<path d="M15.7,33c-0.2,0-0.4,0-0.6,0c-1.2,0-2.4-0.3-3.4-1c-1.2-0.8-2.4-2.1-3.8-4c-1-1.4-2.6-2.1-4-2.1c-0.1,0-0.2,0-0.3,0
		c-1.6,0.1-2.9,1-3.4,2.7C0,28.9,0,29.2,0,29.5l0,0.2h0v0.1v0c0,0,0,0,0,0c0,0.1,0,0.3,0.1,0.4l0,0.1c0,0,0,0.1,0,0.1l0,0.1
		c0.2,0.7,0.6,1.2,1.1,1.6c0.6,0.5,1.4,0.7,2.1,0.7c0.1,0,0.1,0,0.2,0c0.7-0.1,1.3-0.4,1.7-1c0.2-0.4,0.4-0.9,0.4-1.4
		c0-0.1,0-0.1,0-0.2c-0.1-0.7-0.3-1.2-1.1-1.5c-0.1,0-0.3-0.1-0.4-0.1c0,0-0.1,0-0.1,0c-0.3,0-0.7,0.2-0.9,0.3
		c-0.2,0.2-0.3,0.4-0.3,0.8c0,0,0,0.1,0,0.1c0,0,0,0.1,0,0.1c0,0,0,0.1,0,0.1c0,0.3-0.2,0.6-0.6,0.7c0,0-0.1,0-0.1,0
		c-0.3,0-0.6-0.2-0.7-0.6c0,0,0-0.1,0-0.1v0c0,0,0-0.1,0-0.1l0,0c0,0,0,0,0,0c0-0.1,0-0.2,0-0.2c0-0.7,0.3-1.4,0.8-1.8
		c0.5-0.5,1.1-0.7,1.7-0.7c0.1,0,0.2,0,0.2,0c0.3,0,0.6,0,0.9,0.1c1.3,0.5,2,1.7,2,2.8c0,0.1,0,0.2,0,0.3c0,0.8-0.2,1.5-0.6,2.1
		c0,0,0,0,0,0c1.6,2.1,3.4,3.1,5.9,3.1c0.2,0,0.4,0,0.6,0c0.3,0,0.6-0.1,0.9-0.1c1.4-0.2,2.6-0.9,3.8-1.6c-0.4-0.3-0.9-0.7-1.3-1.1
		C16.2,32.9,15.9,33,15.7,33z"/>
</g>
<g>
</g>
<g>
</g>
<g>
</g>
<g>
</g>
<g>
</g>
<g>
</g>
<g>
</g>
<g>
</g>
<g>
</g>
<g>
</g>
<g>
</g>
<g>
</g>
<g>
</g>
<g>
</g>
<g>
</g>
</svg>
