<?xml version="1.0" encoding="utf-8"?>
<!-- Generator: Adobe Illustrator 18.1.1, SVG Export Plug-In . SVG Version: 6.00 Build 0)  -->
<svg version="1.1" id="Layer_1" xmlns="http://www.w3.org/2000/svg" xmlns:xlink="http://www.w3.org/1999/xlink" x="0px" y="0px"
	 viewBox="0 0 38 51" enable-background="new 0 0 38 51" xml:space="preserve">
<g>
	<path d="M25.3,9.7c2.7,0,4.8-2.2,4.8-4.8C30.2,2.2,28,0,25.3,0c-2.7,0-4.8,2.2-4.8,4.8C20.5,7.5,22.6,9.7,25.3,9.7z"/>
	<path d="M36.5,11.6c-0.8,0-1.5,0.7-1.5,1.5v9.9l-4.9,0.3l-4.3-9.6c-0.1-0.3-0.3-1.1-0.9-2.1c-0.7-1.1-2.1-2-4.3-1.8
		c-2.1,0.2-2.5,1.5-2.5,1.5L9.4,28.5l0,0L0.4,44c-0.8,1.5-0.2,3.3,1.2,4.1c0.2,0.1,0.5,0.2,0.7,0.3c1.3,0.3,2.7-0.3,3.3-1.5
		l8.7-15.5l0.8,0.5l6.3,8v7c0,1.5,1.2,2.8,2.8,2.8c1.5,0,2.7-1.2,2.7-2.8v-8c0-0.6-0.2-1.2-0.6-1.7l-5-6.4c1.4-3,3.2-6.4,4-8
		l1.4,3.1c0.3,0.8,1,1.3,1.8,1.3l6.4-0.3v22.4c0,0.8,0.7,1.5,1.5,1.5c0.8,0,1.5-0.7,1.5-1.5V13.2C38,12.3,37.3,11.6,36.5,11.6z"/>
	<path d="M5.3,21.9c1.7,0.8,3.5-0.2,4.2-1.8l4.8-9.3c0,0,0.5-2.3-1.2-3.2c-1.6-0.9-3.2-0.6-3.6-0.1L3.6,18.9
		C3.6,18.9,2.7,20.6,5.3,21.9z"/>
</g>
<g>
</g>
<g>
</g>
<g>
</g>
<g>
</g>
<g>
</g>
<g>
</g>
<g>
</g>
<g>
</g>
<g>
</g>
<g>
</g>
<g>
</g>
<g>
</g>
<g>
</g>
<g>
</g>
<g>
</g>
</svg>
