<?xml version="1.0" encoding="utf-8"?>
<!-- Generator: Adobe Illustrator 18.1.1, SVG Export Plug-In . SVG Version: 6.00 Build 0)  -->
<svg version="1.1" id="Layer_1" xmlns="http://www.w3.org/2000/svg" xmlns:xlink="http://www.w3.org/1999/xlink" x="0px" y="0px"
	 viewBox="0 0 42.9 47.1" enable-background="new 0 0 42.9 47.1" xml:space="preserve">
<g>
	<path d="M22.5,0.1C22-0.1,21.3,0,21.3,0.7c0,0.1,0,37.1,0,37.1c0,0.2,0.1,0.4,0.3,0.5c0.1,0,0.2,0.1,0.3,0l20.3-4.5
		c0.4-0.1,0.7-0.5,0.7-0.9C42.7,9.2,25.5,1.5,22.5,0.1z M17.2,38.3C17.3,38.3,17.3,38.3,17.2,38.3C17.3,38.3,17.3,38.3,17.2,38.3
		c0.2,0,0.2,0,0.3,0c0.2-0.1,0.3-0.3,0.3-0.5v0c0,0,0-30.2,0-30.2c0-0.5-0.4-0.7-0.7-0.7c-0.2,0-0.3,0-0.4,0.1
		C14.2,8,0.1,14.3,0,33.7c0,0,0,0,0,0c0,0.4,0.3,0.8,0.7,0.9l0-0.1l0,0.1L17.2,38.3z M1.5,47.1h0.2c1.2,0,2.3-0.3,3.3-0.7
		c0.9-0.4,1.9-0.6,2.9-0.6l0,0c1,0,2,0.2,2.8,0.6c1,0.4,2.1,0.7,3.3,0.7c1.2,0,2.3-0.3,3.2-0.7c0.9-0.4,1.9-0.7,2.9-0.7v0l0,0v0
		c1,0,2,0.2,2.9,0.6c1,0.4,2.1,0.7,3.2,0.7c1.2,0,2.3-0.3,3.3-0.7c0.9-0.4,1.9-0.7,2.9-0.6v0v0l0,0v0c1,0,2,0.2,2.9,0.6
		c1,0.4,2.1,0.7,3.3,0.7c0.1,0,0.2,0,0.2-0.1c0.1-0.1,0.1-0.1,0.1-0.2v-2.9c0-0.1,0-0.2-0.1-0.2c-0.1-0.1-0.1-0.1-0.2-0.1
		c-1,0-1.9-0.2-2.8-0.6c-1-0.5-2.1-0.7-3.3-0.7c-1.2,0-2.3,0.3-3.3,0.7c-0.8,0.4-1.8,0.6-2.8,0.6c-1,0-1.9-0.2-2.8-0.6
		c-1-0.5-2.1-0.7-3.3-0.7c-1.2,0-2.3,0.3-3.3,0.8C16,43.3,15,43.5,14,43.5c-1,0-2-0.2-2.8-0.6c-1-0.5-2.2-0.7-3.3-0.7
		c-1.2,0-2.3,0.3-3.4,0.7c-0.8,0.4-1.8,0.6-2.8,0.6H1.5c-0.1,0-0.2,0-0.2,0.1c-0.1,0.1-0.1,0.1-0.1,0.2v2.9c0,0.1,0,0.2,0.1,0.2
		C1.4,47,1.4,47.1,1.5,47.1z"/>
</g>
<g>
</g>
<g>
</g>
<g>
</g>
<g>
</g>
<g>
</g>
<g>
</g>
<g>
</g>
<g>
</g>
<g>
</g>
<g>
</g>
<g>
</g>
<g>
</g>
<g>
</g>
<g>
</g>
<g>
</g>
</svg>
