<?xml version="1.0" encoding="utf-8"?>
<!-- Generator: Adobe Illustrator 18.1.1, SVG Export Plug-In . SVG Version: 6.00 Build 0)  -->
<svg version="1.1" id="Layer_1" xmlns="http://www.w3.org/2000/svg" xmlns:xlink="http://www.w3.org/1999/xlink" x="0px" y="0px"
	 viewBox="0 0 37.7 44.1" enable-background="new 0 0 37.7 44.1" xml:space="preserve">
<g>
	<path d="M32.4,41.1c-0.9,0-1.7-0.2-2.4-0.5c-0.9-0.4-1.9-0.6-2.9-0.6c-1,0-2,0.2-2.9,0.6c-0.7,0.3-1.6,0.5-2.4,0.5
		c-0.9,0-1.7-0.2-2.4-0.5c-0.9-0.4-1.9-0.6-2.9-0.6c-1,0-2,0.2-2.9,0.7c-0.7,0.3-1.6,0.5-2.4,0.5c-0.9,0-1.7-0.2-2.4-0.5
		c-0.9-0.4-1.9-0.6-2.9-0.6c-1,0-2,0.2-2.9,0.6c-0.7,0.3-1.6,0.5-2.4,0.5H0.3c-0.1,0-0.1,0-0.2,0.1C0,41.2,0,41.3,0,41.3v2.6
		c0,0.1,0,0.1,0.1,0.2c0,0.1,0.1,0.1,0.2,0.1h0.2c1,0,2-0.2,2.8-0.6C4.1,43.2,4.9,43,5.8,43l0,0c0.9,0,1.7,0.2,2.5,0.6
		c0.9,0.4,1.8,0.6,2.8,0.6c1,0,2-0.2,2.8-0.6c0.8-0.4,1.6-0.6,2.5-0.6v0l0,0v0c0.9,0,1.7,0.2,2.5,0.6c0.9,0.4,1.8,0.6,2.8,0.6
		c1,0,2-0.2,2.8-0.6c0.8-0.4,1.6-0.6,2.5-0.6v0l0,0v0c0.9,0,1.7,0.2,2.5,0.6c0.9,0.4,1.8,0.6,2.8,0.6c0.1,0,0.1,0,0.2-0.1
		c0.1,0,0.1-0.1,0.1-0.2v-2.6c0-0.1,0-0.1-0.1-0.2C32.6,41.1,32.5,41.1,32.4,41.1z M37.3,11L15.7,3.9c-0.5-0.2-1.1-0.8-1.3-1.3
		l-0.7-1.9c-0.2-0.5-0.8-0.8-1.4-0.6l-0.4,0.1c-0.5,0.2-0.8,0.8-0.6,1.3l0.7,1.8c0.2,0.5,0.2,1.4-0.1,1.9L0.1,25.1
		c-0.3,0.5-0.1,0.7,0.5,0.5L16,19.5c0.5-0.2,1.1,0.1,1.4,0.6l6.4,16.9c0.2,0.5,0.8,0.8,1.4,0.6l1.4-0.5c0.5-0.2,0.8-0.8,0.6-1.3
		l-6.4-16.9c-0.2-0.5,0.1-1.1,0.6-1.3l16.1-5.9C37.8,11.5,37.8,11.2,37.3,11z M22.8,15.4l-9.1,3.3c-0.5,0.2-0.9-0.1-0.9-0.7
		l1.1-11.5c0.1-0.6,0.4-0.7,0.9-0.3l8.2,8.1C23.4,14.7,23.3,15.2,22.8,15.4z"/>
</g>
<g>
</g>
<g>
</g>
<g>
</g>
<g>
</g>
<g>
</g>
<g>
</g>
<g>
</g>
<g>
</g>
<g>
</g>
<g>
</g>
<g>
</g>
<g>
</g>
<g>
</g>
<g>
</g>
<g>
</g>
</svg>
