<?xml version="1.0" encoding="utf-8"?>
<!-- Generator: Adobe Illustrator 18.1.1, SVG Export Plug-In . SVG Version: 6.00 Build 0)  -->
<svg version="1.1" id="Layer_1" xmlns="http://www.w3.org/2000/svg" xmlns:xlink="http://www.w3.org/1999/xlink" x="0px" y="0px"
	 viewBox="0 0 45.8 43.5" enable-background="new 0 0 45.8 43.5" xml:space="preserve">
<g>
	<path d="M45.6,39.7c-1,0-1.9-0.2-2.7-0.6v0c-0.9-0.4-1.9-0.7-3-0.7c-1.1,0-2.1,0.2-3,0.7c-0.8,0.4-1.7,0.6-2.7,0.6
		c-1,0-1.9-0.2-2.7-0.6c-0.9-0.4-1.9-0.7-3-0.7c-1.1,0-2.1,0.2-3,0.7c-0.8,0.4-1.7,0.6-2.7,0.6c-1,0-1.9-0.2-2.7-0.6
		c-0.9-0.4-1.9-0.7-3-0.7c-1.1,0-2.1,0.2-3,0.7c-0.8,0.4-1.7,0.6-2.7,0.6c-1,0-1.9-0.2-2.7-0.6c-0.9-0.4-1.9-0.7-3-0.7
		c-1.1,0-2.1,0.2-3,0.7c-0.8,0.4-1.7,0.6-2.7,0.6H0v3.8h0.2c1,0,2-0.2,2.9-0.6c0.9-0.4,1.8-0.6,2.8-0.6c1,0,1.9,0.2,2.8,0.6
		c0.9,0.4,1.9,0.6,2.9,0.6c1,0,2-0.2,2.9-0.6c0.8-0.4,1.8-0.6,2.8-0.6c1,0,1.9,0.2,2.8,0.6c0.9,0.4,1.9,0.6,2.9,0.6
		c1,0,2-0.2,2.9-0.6c0.8-0.4,1.8-0.6,2.8-0.6c1,0,1.9,0.2,2.8,0.6c0.9,0.4,1.9,0.6,2.9,0.6c1,0,2-0.2,2.9-0.6
		c0.8-0.4,1.8-0.6,2.8-0.6c1,0,1.9,0.2,2.8,0.6c0.9,0.4,1.9,0.6,2.9,0.6h0.2v-3.8H45.6z M4.8,23.6c0,0.4,0.1,0.9,0.3,1.4l2.6,6
		c0.5,1,1.4,1.7,2.6,1.7l7,0l4,3.9c0.2,0.2,0.5,0.3,0.7,0.3c0.6,0,1-0.5,1.4-1c0.4-0.4,0.8-0.8,0.8-1.3c0-0.3-0.1-0.5-0.4-0.8
		l-4.7-4.5c-0.3-0.3-0.7-0.5-1.3-0.5h-4.7l-2-4.4h2.3c0,0,0.4,0,0.8-0.2v0l4.3-2c0.3-0.2,0.6-0.4,0.6-0.8c0-0.1,0-0.2-0.1-0.3
		c-0.1-0.2-0.4-1.1-0.6-1.3c-0.1-0.3-0.4-0.3-0.6-0.3c-0.2,0-0.4,0.1-0.5,0.1l-3.9,1.8l-6.4,0C6,21.4,4.8,22.1,4.8,23.6z M27.5,34.8
		l0.2-0.1L27.5,34.8c0.1,0.2,0.2,0.3,0.4,0.3c0,0,0,0,0,0c0.1,0,0.2,0,0.3-0.1l16.5-12.5c0.1-0.1,0.2-0.3,0.2-0.4c0-0.1,0-0.2,0-0.3
		C40.2,3.8,17.5,0.4,15.1,0.1C15,0.1,14.7,0,14.6,0c0,0-0.1,0-0.1,0c-0.1,0-0.3,0-0.4,0.1c-0.1,0.1-0.1,0.2-0.1,0.3
		c0,0.1,0,0.1,0,0.2L27.5,34.8z M7.2,19.4c1.4,0,2.5-1.1,2.5-2.5c0-1.4-1.1-2.5-2.5-2.5c-1.4,0-2.5,1.1-2.5,2.5
		C4.7,18.3,5.8,19.4,7.2,19.4z"/>
</g>
<g>
</g>
<g>
</g>
<g>
</g>
<g>
</g>
<g>
</g>
<g>
</g>
<g>
</g>
<g>
</g>
<g>
</g>
<g>
</g>
<g>
</g>
<g>
</g>
<g>
</g>
<g>
</g>
<g>
</g>
</svg>
