<?xml version="1.0" encoding="utf-8"?>
<!-- Generator: Adobe Illustrator 18.1.1, SVG Export Plug-In . SVG Version: 6.00 Build 0)  -->
<svg version="1.1" id="Layer_1" xmlns="http://www.w3.org/2000/svg" xmlns:xlink="http://www.w3.org/1999/xlink" x="0px" y="0px"
	 viewBox="0 0 51.2 42.2" enable-background="new 0 0 51.2 42.2" xml:space="preserve">
<g>
	<path d="M4.5,26.6c0.2,0.3,1.6-4.3,4.1-7.1c2.8-3.2,4.4-4,5.8-4.6l3.4,9.6c-4.4,2.6-7.3,7-10,10.7c0.1,0,0.2,0.1,0.3,0.1l0.2,0.1
		c0.5,0.2,1,0.3,1.5,0.4h2.2c0.6-0.1,1.2-0.3,1.8-0.5c1.6-0.8,3.4-1.2,5.2-1.2c1.8,0,3.5,0.4,5.1,1.1c0.6,0.2,1.2,0.4,1.8,0.5H28
		c0.6-0.1,1.2-0.3,1.8-0.5c1.6-0.8,3.4-1.2,5.2-1.2c1.8,0,3.6,0.4,5.1,1.1c0.6,0.3,1.3,0.5,2,0.6c0.3,0,0.6,0.1,0.9,0.1
		c0.3,0,0.6-0.1,1-0.1c-4.2-5.7-8.9-13.4-18.3-13.4c-1.9,0-3.6,0.3-5.2,0.9l-3.3-9.3c1.5-0.5,3.2-0.9,7.7-0.1c3.7,0.7,7.7,3.3,7.7,3
		c-1.2-8-10.4-9-14.6-7.1c1.4-3.2,4.3-7.7,6-9.6c-7.8,0.5-9.6,5.2-10.2,8.5C11.2,6.3,6.9,3.8,0.5,8.3C3,8.7,8,10.4,11.1,12
		C6.7,13.4,0.6,19.8,4.5,26.6z M16.3,11.4C16.3,11.4,16.2,11.4,16.3,11.4L16.3,11.4L16.3,11.4z M51,36.7c-1.4,0-2.8,0.3-4.1,0.9
		c-1.2,0.5-2.5,0.9-4,0.9c-0.4,0-0.9,0-1.3-0.1c-0.9-0.1-1.8-0.4-2.7-0.8c-1.2-0.6-2.6-0.9-4.1-0.9c-1.5,0-2.8,0.3-4.1,0.9
		c-0.8,0.4-1.7,0.6-2.7,0.8h-2.6c-0.9-0.1-1.8-0.4-2.7-0.8c-1.2-0.6-2.6-0.9-4.1-0.9c-1.5,0-2.8,0.3-4.1,0.9
		c-0.8,0.4-1.7,0.6-2.7,0.8H9.5C8.7,38.2,8,38,7.3,37.7c-0.1-0.1-0.3-0.1-0.4-0.2c-1.2-0.6-2.6-0.9-4.1-0.9c-1,0-1.9,0.2-2.8,0.4
		v3.8c0.9-0.3,1.8-0.4,2.8-0.4c1.4,0,2.8,0.3,4.1,0.9c1.2,0.5,2.6,0.9,4,0.9c1.4,0,2.8-0.3,4-0.9c1.2-0.6,2.6-0.9,4.1-0.9
		c1.5,0,2.8,0.3,4.1,0.9c1.2,0.5,2.5,0.9,4,0.9c1.4,0,2.8-0.3,4-0.9c1.2-0.6,2.6-0.9,4.1-0.9c1.4,0,2.8,0.3,4.1,0.9
		c1.2,0.5,2.6,0.9,4,0.9c1.4,0,2.8-0.3,4-0.9c1.2-0.6,2.6-0.9,4.1-0.9c0.1,0,0.2,0,0.2,0v-3.8C51.2,36.7,51.1,36.7,51,36.7z"/>
</g>
<g>
</g>
<g>
</g>
<g>
</g>
<g>
</g>
<g>
</g>
<g>
</g>
<g>
</g>
<g>
</g>
<g>
</g>
<g>
</g>
<g>
</g>
<g>
</g>
<g>
</g>
<g>
</g>
<g>
</g>
</svg>
