<?xml version="1.0" encoding="utf-8"?>
<!-- Generator: Adobe Illustrator 18.1.1, SVG Export Plug-In . SVG Version: 6.00 Build 0)  -->
<svg version="1.1" id="Layer_1" xmlns="http://www.w3.org/2000/svg" xmlns:xlink="http://www.w3.org/1999/xlink" x="0px" y="0px"
	 viewBox="0 0 51.6 39.7" enable-background="new 0 0 51.6 39.7" xml:space="preserve">
<g>
	<path d="M7,23.6c0.1,0.1,0.3,0.1,0.4,0.2c0.7,0.3,1.5,0.5,2.3,0.6h2.6c0.9-0.1,1.9-0.4,2.7-0.8c1.3-0.6,2.6-0.9,4.1-0.9
		c1.5,0,2.9,0.3,4.1,0.9c0.8,0.4,1.7,0.6,2.7,0.8h2.6c0.9-0.1,1.9-0.4,2.7-0.8c1.2-0.6,2.6-0.9,4.1-0.9c1.5,0,2.9,0.3,4.1,0.9
		c0.8,0.4,1.7,0.6,2.7,0.8c0.4,0.1,0.9,0.1,1.3,0.1c1.4,0,2.8-0.3,4-0.9c1.2-0.6,2.6-0.9,4-0.9L36.1,0.9c-0.1-0.1-0.2-0.4-0.3-0.5
		c0,0-0.2-0.4-1-0.4c-0.6,0-0.8,0.3-0.8,0.3c-0.1,0.1-0.3,0.4-0.4,0.5L23.1,12.7c0,0-0.1,0-0.1,0c-0.1-0.1-0.4-0.3-0.5-0.4l-6.5-5.6
		c-0.1-0.1-0.3-0.3-0.5-0.4c0,0-0.2-0.2-0.6-0.2c-0.4,0-0.6,0.2-0.6,0.2c-0.1,0.1-0.3,0.4-0.4,0.5L0.2,23.1c0,0,0,0-0.1,0v0
		c0.9-0.3,1.8-0.4,2.8-0.4C4.4,22.7,5.8,23,7,23.6z"/>
	<path d="M47.3,27.5c-1.2,0.5-2.6,0.9-4,0.9c-0.4,0-0.9,0-1.3-0.1c-0.9-0.1-1.9-0.4-2.7-0.8c-1.2-0.6-2.6-0.9-4.1-0.9
		c-1.5,0-2.9,0.3-4.1,0.9c-0.8,0.4-1.7,0.6-2.7,0.8h-2.6c-1-0.1-1.9-0.4-2.7-0.8c-1.2-0.6-2.6-0.9-4.1-0.9c-1.5,0-2.9,0.3-4.1,0.9
		c-0.8,0.4-1.7,0.6-2.7,0.8H9.6c-0.8-0.1-1.6-0.3-2.3-0.6c-0.1-0.1-0.3-0.1-0.4-0.2c-1.2-0.6-2.7-0.9-4.1-0.9c-1,0-1.9,0.2-2.8,0.4
		v3.8c0.9-0.3,1.8-0.4,2.8-0.4c1.5,0,2.9,0.3,4.1,0.9c1.2,0.5,2.6,0.9,4,0.9c1.4,0,2.8-0.3,4-0.9c1.3-0.6,2.6-0.9,4.1-0.9
		c1.5,0,2.9,0.3,4.1,0.9c1.2,0.5,2.6,0.9,4,0.9c1.4,0,2.8-0.3,4-0.9c1.2-0.6,2.6-0.9,4.1-0.9c1.5,0,2.9,0.3,4.1,0.9
		c1.2,0.5,2.6,0.9,4,0.9c1.4,0,2.8-0.3,4-0.9c1.2-0.6,2.7-0.9,4.1-0.9c0.1,0,0.2,0,0.2,0v-3.8c-0.1,0-0.2,0-0.2,0
		C50,26.5,48.5,26.9,47.3,27.5z"/>
	<path d="M47.3,35c-1.2,0.5-2.6,0.9-4,0.9c-0.4,0-0.9,0-1.3-0.1c-0.9-0.1-1.9-0.4-2.7-0.8c-1.2-0.6-2.6-0.9-4.1-0.9
		c-1.5,0-2.9,0.3-4.1,0.9c-0.8,0.4-1.7,0.6-2.7,0.8h-2.6c-1-0.1-1.9-0.4-2.7-0.8c-1.2-0.6-2.6-0.9-4.1-0.9c-1.5,0-2.9,0.3-4.1,0.9
		c-0.8,0.4-1.7,0.6-2.7,0.8H9.6c-0.8-0.1-1.6-0.3-2.3-0.6c-0.1-0.1-0.3-0.1-0.4-0.2c-1.2-0.6-2.7-0.9-4.1-0.9c-1,0-1.9,0.2-2.8,0.4
		v3.8c0.9-0.3,1.8-0.4,2.8-0.4c1.5,0,2.9,0.3,4.1,0.9c1.2,0.5,2.6,0.9,4,0.9c1.4,0,2.8-0.3,4-0.9c1.3-0.6,2.6-0.9,4.1-0.9
		c1.5,0,2.9,0.3,4.1,0.9c1.2,0.5,2.6,0.9,4,0.9c1.4,0,2.8-0.3,4-0.9c1.2-0.6,2.6-0.9,4.1-0.9c1.5,0,2.9,0.3,4.1,0.9
		c1.2,0.5,2.6,0.9,4,0.9c1.4,0,2.8-0.3,4-0.9c1.2-0.6,2.7-0.9,4.1-0.9c0.1,0,0.2,0,0.2,0v-3.8c-0.1,0-0.2,0-0.2,0
		C50,34.1,48.5,34.4,47.3,35z"/>
</g>
<g>
</g>
<g>
</g>
<g>
</g>
<g>
</g>
<g>
</g>
<g>
</g>
<g>
</g>
<g>
</g>
<g>
</g>
<g>
</g>
<g>
</g>
<g>
</g>
<g>
</g>
<g>
</g>
<g>
</g>
</svg>
